<?xml version="1.0" encoding="UTF-8" standalone="no"?>
<!DOCTYPE svg PUBLIC "-//W3C//DTD SVG 1.1//EN"
 "http://www.w3.org/Graphics/SVG/1.1/DTD/svg11.dtd">
<!-- Generated by graphviz version 2.49.3 (20211027.1534)
 -->
<!-- Title: progress_update Pages: 1 -->
<svg width="187pt" height="46pt"
 viewBox="0.00 0.00 187.00 46.00" xmlns="http://www.w3.org/2000/svg" xmlns:xlink="http://www.w3.org/1999/xlink">
<g id="graph0" class="graph" transform="scale(1 1) rotate(0) translate(4 42)">
<title>progress_update</title>
<polygon fill="white" stroke="transparent" points="-4,4 -4,-42 183,-42 183,4 -4,4"/>
<!-- Node1 -->
<g id="node1" class="node">
<title>Node1</title>
<g id="a_node1"><a xlink:title=" ">
<polygon fill="#bfbfbf" stroke="black" points="0,-0.5 0,-19.5 89,-19.5 89,-0.5 0,-0.5"/>
<text text-anchor="middle" x="44.5" y="-7.5" font-family="Helvetica,sans-Serif" font-size="10.00">progress_update</text>
</a>
</g>
</g>
<!-- Node1&#45;&gt;Node1 -->
<g id="edge3" class="edge">
<title>Node1&#45;&gt;Node1</title>
<path fill="none" stroke="midnightblue" d="M28.16,-19.76C20.21,-28.57 25.66,-38 44.5,-38 56.27,-38 62.82,-34.31 64.13,-29.4"/>
<polygon fill="midnightblue" stroke="midnightblue" points="67.38,-28.09 60.84,-19.76 60.76,-30.35 67.38,-28.09"/>
</g>
<!-- Node2 -->
<g id="node2" class="node">
<title>Node2</title>
<g id="a_node2"><a xlink:href="classrare_1_1components_1_1tabs_1_1downloads_1_1_downloads_tab.html#a16296c33af22b12f01535fb9f53a8f8f" target="_top" xlink:title=" ">
<polygon fill="white" stroke="black" points="125,-0.5 125,-19.5 179,-19.5 179,-0.5 125,-0.5"/>
<text text-anchor="middle" x="152" y="-7.5" font-family="Helvetica,sans-Serif" font-size="10.00">get_time</text>
</a>
</g>
</g>
<!-- Node1&#45;&gt;Node2 -->
<g id="edge1" class="edge">
<title>Node1&#45;&gt;Node2</title>
<path fill="none" stroke="midnightblue" d="M89.02,-10C97.56,-10 106.43,-10 114.71,-10"/>
<polygon fill="midnightblue" stroke="midnightblue" points="114.8,-13.5 124.8,-10 114.8,-6.5 114.8,-13.5"/>
</g>
<!-- Node2&#45;&gt;Node2 -->
<g id="edge2" class="edge">
<title>Node2&#45;&gt;Node2</title>
<path fill="none" stroke="midnightblue" d="M135.66,-19.76C127.71,-28.57 133.16,-38 152,-38 163.77,-38 170.32,-34.31 171.63,-29.4"/>
<polygon fill="midnightblue" stroke="midnightblue" points="174.88,-28.09 168.34,-19.76 168.26,-30.35 174.88,-28.09"/>
</g>
</g>
</svg>
