<?xml version="1.0" encoding="UTF-8" standalone="no"?>
<!DOCTYPE svg PUBLIC "-//W3C//DTD SVG 1.1//EN"
 "http://www.w3.org/Graphics/SVG/1.1/DTD/svg11.dtd">
<!-- Generated by graphviz version 2.49.3 (20211027.1534)
 -->
<!-- Title: FetchWorker Pages: 1 -->
<svg width="80pt" height="364pt"
 viewBox="0.00 0.00 80.00 364.00" xmlns="http://www.w3.org/2000/svg" xmlns:xlink="http://www.w3.org/1999/xlink">
<g id="graph0" class="graph" transform="scale(1 1) rotate(0) translate(4 360)">
<title>FetchWorker</title>
<polygon fill="white" stroke="transparent" points="-4,4 -4,-360 76,-360 76,4 -4,4"/>
<!-- Node1 -->
<g id="node1" class="node">
<title>Node1</title>
<g id="a_node1"><a xlink:title=" ">
<polygon fill="#bfbfbf" stroke="black" points="0,-0.5 0,-101.5 72,-101.5 72,-0.5 0,-0.5"/>
<text text-anchor="middle" x="36" y="-89.5" font-family="Helvetica,sans-Serif" font-size="10.00">FetchWorker</text>
<polyline fill="none" stroke="black" points="0,-82.5 72,-82.5 "/>
<text text-anchor="start" x="8" y="-70.5" font-family="Helvetica,sans-Serif" font-size="10.00">+ signals</text>
<text text-anchor="start" x="8" y="-59.5" font-family="Helvetica,sans-Serif" font-size="10.00">+ settings</text>
<text text-anchor="start" x="8" y="-48.5" font-family="Helvetica,sans-Serif" font-size="10.00">+ core</text>
<text text-anchor="start" x="8" y="-37.5" font-family="Helvetica,sans-Serif" font-size="10.00">+ args</text>
<text text-anchor="start" x="8" y="-26.5" font-family="Helvetica,sans-Serif" font-size="10.00">+ segment</text>
<polyline fill="none" stroke="black" points="0,-19.5 72,-19.5 "/>
<text text-anchor="start" x="8" y="-7.5" font-family="Helvetica,sans-Serif" font-size="10.00">+ __init__()</text>
</a>
</g>
</g>
<!-- Node2 -->
<g id="node2" class="node">
<title>Node2</title>
<g id="a_node2"><a xlink:href="classrare_1_1shared_1_1workers_1_1worker_1_1_worker.html" target="_top" xlink:title="Base QRunnable class.">
<polygon fill="white" stroke="black" points="3.5,-138.5 3.5,-261.5 68.5,-261.5 68.5,-138.5 3.5,-138.5"/>
<text text-anchor="middle" x="36" y="-249.5" font-family="Helvetica,sans-Serif" font-size="10.00">Worker</text>
<polyline fill="none" stroke="black" points="3.5,-242.5 68.5,-242.5 "/>
<text text-anchor="middle" x="36" y="-230.5" font-family="Helvetica,sans-Serif" font-size="10.00"> </text>
<polyline fill="none" stroke="black" points="3.5,-223.5 68.5,-223.5 "/>
<text text-anchor="start" x="11.5" y="-211.5" font-family="Helvetica,sans-Serif" font-size="10.00">+ __init__()</text>
<text text-anchor="start" x="11.5" y="-200.5" font-family="Helvetica,sans-Serif" font-size="10.00">+ __str__()</text>
<text text-anchor="start" x="11.5" y="-189.5" font-family="Helvetica,sans-Serif" font-size="10.00">+ logger()</text>
<text text-anchor="start" x="11.5" y="-178.5" font-family="Helvetica,sans-Serif" font-size="10.00">+ signals()</text>
<text text-anchor="start" x="11.5" y="-167.5" font-family="Helvetica,sans-Serif" font-size="10.00">+ signals()</text>
<text text-anchor="start" x="11.5" y="-156.5" font-family="Helvetica,sans-Serif" font-size="10.00">+ run_real()</text>
<text text-anchor="start" x="11.5" y="-145.5" font-family="Helvetica,sans-Serif" font-size="10.00">+ run()</text>
</a>
</g>
</g>
<!-- Node2&#45;&gt;Node1 -->
<g id="edge1" class="edge">
<title>Node2&#45;&gt;Node1</title>
<path fill="none" stroke="midnightblue" d="M36,-128.29C36,-119.32 36,-110.3 36,-101.76"/>
<polygon fill="none" stroke="midnightblue" points="32.5,-128.36 36,-138.36 39.5,-128.36 32.5,-128.36"/>
</g>
<!-- Node3 -->
<g id="node3" class="node">
<title>Node3</title>
<g id="a_node3"><a xlink:title=" ">
<polygon fill="white" stroke="#bfbfbf" points="3.5,-298.5 3.5,-355.5 68.5,-355.5 68.5,-298.5 3.5,-298.5"/>
<text text-anchor="middle" x="36" y="-343.5" font-family="Helvetica,sans-Serif" font-size="10.00">QRunnable</text>
<polyline fill="none" stroke="#bfbfbf" points="3.5,-336.5 68.5,-336.5 "/>
<text text-anchor="middle" x="36" y="-324.5" font-family="Helvetica,sans-Serif" font-size="10.00"> </text>
<polyline fill="none" stroke="#bfbfbf" points="3.5,-317.5 68.5,-317.5 "/>
<text text-anchor="middle" x="36" y="-305.5" font-family="Helvetica,sans-Serif" font-size="10.00"> </text>
</a>
</g>
</g>
<!-- Node3&#45;&gt;Node2 -->
<g id="edge2" class="edge">
<title>Node3&#45;&gt;Node2</title>
<path fill="none" stroke="midnightblue" d="M36,-288.1C36,-279.74 36,-270.68 36,-261.67"/>
<polygon fill="none" stroke="midnightblue" points="32.5,-288.26 36,-298.26 39.5,-288.26 32.5,-288.26"/>
</g>
</g>
</svg>
