<?xml version="1.0" encoding="UTF-8" standalone="no"?>
<!DOCTYPE svg PUBLIC "-//W3C//DTD SVG 1.1//EN"
 "http://www.w3.org/Graphics/SVG/1.1/DTD/svg11.dtd">
<!-- Generated by graphviz version 2.49.3 (20211027.1534)
 -->
<!-- Title: save_window_size Pages: 1 -->
<svg width="342pt" height="124pt"
 viewBox="0.00 0.00 342.00 124.00" xmlns="http://www.w3.org/2000/svg" xmlns:xlink="http://www.w3.org/1999/xlink">
<g id="graph0" class="graph" transform="scale(1 1) rotate(0) translate(4 120)">
<title>save_window_size</title>
<polygon fill="white" stroke="transparent" points="-4,4 -4,-120 338,-120 338,4 -4,4"/>
<!-- Node1 -->
<g id="node1" class="node">
<title>Node1</title>
<g id="a_node1"><a xlink:title=" ">
<polygon fill="#bfbfbf" stroke="black" points="0,-39 0,-58 98,-58 98,-39 0,-39"/>
<text text-anchor="middle" x="49" y="-46" font-family="Helvetica,sans-Serif" font-size="10.00">save_window_size</text>
</a>
</g>
</g>
<!-- Node1&#45;&gt;Node1 -->
<g id="edge1" class="edge">
<title>Node1&#45;&gt;Node1</title>
<path fill="none" stroke="midnightblue" d="M20.64,-58.26C6.84,-67.07 16.3,-76.5 49,-76.5 71.48,-76.5 82.98,-72.04 83.48,-66.39"/>
<polygon fill="midnightblue" stroke="midnightblue" points="86.17,-64.14 77.36,-58.26 80.58,-68.35 86.17,-64.14"/>
</g>
<!-- Node2 -->
<g id="node2" class="node">
<title>Node2</title>
<g id="a_node2"><a xlink:href="classrare_1_1shared_1_1rare__core_1_1_rare_core.html#aa1576e9b0056403059061071172ff834" target="_top" xlink:title=" ">
<polygon fill="white" stroke="black" points="169,-67.5 169,-97.5 299,-97.5 299,-67.5 169,-67.5"/>
<text text-anchor="start" x="177" y="-85.5" font-family="Helvetica,sans-Serif" font-size="10.00">rare.shared.rare_core.Rare</text>
<text text-anchor="middle" x="234" y="-74.5" font-family="Helvetica,sans-Serif" font-size="10.00">Core.settings</text>
</a>
</g>
</g>
<!-- Node1&#45;&gt;Node2 -->
<g id="edge2" class="edge">
<title>Node1&#45;&gt;Node2</title>
<path fill="none" stroke="midnightblue" d="M98.08,-57.43C116.65,-60.88 138.32,-64.91 158.79,-68.71"/>
<polygon fill="midnightblue" stroke="midnightblue" points="158.25,-72.17 168.72,-70.56 159.53,-65.29 158.25,-72.17"/>
</g>
<!-- Node3 -->
<g id="node3" class="node">
<title>Node3</title>
<g id="a_node3"><a xlink:href="classrare_1_1components_1_1tabs_1_1library_1_1widgets_1_1game__widget_1_1_game_widget.html#aa660d748bc3a0c7c2dfaa15cee8e6ba6" target="_top" xlink:title=" ">
<polygon fill="white" stroke="black" points="134,-0.5 134,-30.5 334,-30.5 334,-0.5 134,-0.5"/>
<text text-anchor="start" x="142" y="-18.5" font-family="Helvetica,sans-Serif" font-size="10.00">rare.components.tabs.library.widgets.game</text>
<text text-anchor="middle" x="234" y="-7.5" font-family="Helvetica,sans-Serif" font-size="10.00">_widget.GameWidget.ui</text>
</a>
</g>
</g>
<!-- Node1&#45;&gt;Node3 -->
<g id="edge4" class="edge">
<title>Node1&#45;&gt;Node3</title>
<path fill="none" stroke="midnightblue" d="M98.08,-39.83C110.9,-37.52 125.2,-34.94 139.57,-32.35"/>
<polygon fill="midnightblue" stroke="midnightblue" points="140.28,-35.78 149.5,-30.56 139.04,-28.89 140.28,-35.78"/>
</g>
<!-- Node2&#45;&gt;Node2 -->
<g id="edge3" class="edge">
<title>Node2&#45;&gt;Node2</title>
<path fill="none" stroke="midnightblue" d="M201.93,-97.66C194.2,-107.06 204.89,-116 234,-116 251.74,-116 262.64,-112.68 266.69,-107.96"/>
<polygon fill="midnightblue" stroke="midnightblue" points="270.17,-107.43 266.07,-97.66 263.18,-107.85 270.17,-107.43"/>
</g>
<!-- Node3&#45;&gt;Node3 -->
<g id="edge5" class="edge">
<title>Node3&#45;&gt;Node3</title>
<path fill="none" stroke="midnightblue" d="M201.93,-30.66C194.2,-40.06 204.89,-49 234,-49 251.74,-49 262.64,-45.68 266.69,-40.96"/>
<polygon fill="midnightblue" stroke="midnightblue" points="270.17,-40.43 266.07,-30.66 263.18,-40.85 270.17,-40.43"/>
</g>
</g>
</svg>
