<?xml version="1.0" encoding="UTF-8" standalone="no"?>
<!DOCTYPE svg PUBLIC "-//W3C//DTD SVG 1.1//EN"
 "http://www.w3.org/Graphics/SVG/1.1/DTD/svg11.dtd">
<!-- Generated by graphviz version 2.49.3 (20211027.1534)
 -->
<!-- Title: GameSettingsBase Pages: 1 -->
<svg width="172pt" height="331pt"
 viewBox="0.00 0.00 172.00 331.00" xmlns="http://www.w3.org/2000/svg" xmlns:xlink="http://www.w3.org/1999/xlink">
<g id="graph0" class="graph" transform="scale(1 1) rotate(0) translate(4 327)">
<title>GameSettingsBase</title>
<polygon fill="white" stroke="transparent" points="-4,4 -4,-327 168,-327 168,4 -4,4"/>
<!-- Node1 -->
<g id="node1" class="node">
<title>Node1</title>
<g id="a_node1"><a xlink:title=" ">
<polygon fill="#bfbfbf" stroke="black" points="11,-0.5 11,-123.5 133,-123.5 133,-0.5 11,-0.5"/>
<text text-anchor="middle" x="72" y="-111.5" font-family="Helvetica,sans-Serif" font-size="10.00">GameSettingsBase</text>
<polyline fill="none" stroke="black" points="11,-104.5 133,-104.5 "/>
<text text-anchor="start" x="19" y="-92.5" font-family="Helvetica,sans-Serif" font-size="10.00">+ implements_scrollarea</text>
<text text-anchor="start" x="19" y="-81.5" font-family="Helvetica,sans-Serif" font-size="10.00">+ core</text>
<text text-anchor="start" x="19" y="-70.5" font-family="Helvetica,sans-Serif" font-size="10.00">+ settings</text>
<text text-anchor="start" x="19" y="-59.5" font-family="Helvetica,sans-Serif" font-size="10.00">+ launch</text>
<text text-anchor="start" x="19" y="-48.5" font-family="Helvetica,sans-Serif" font-size="10.00">+ env_vars</text>
<text text-anchor="start" x="19" y="-37.5" font-family="Helvetica,sans-Serif" font-size="10.00">+ main_layout</text>
<polyline fill="none" stroke="black" points="11,-30.5 133,-30.5 "/>
<text text-anchor="start" x="19" y="-18.5" font-family="Helvetica,sans-Serif" font-size="10.00">+ __init__()</text>
<text text-anchor="start" x="19" y="-7.5" font-family="Helvetica,sans-Serif" font-size="10.00">+ hideEvent()</text>
</a>
</g>
</g>
<!-- Node2 -->
<g id="node2" class="node">
<title>Node2</title>
<g id="a_node2"><a xlink:title=" ">
<polygon fill="white" stroke="#bfbfbf" points="0,-166 0,-223 54,-223 54,-166 0,-166"/>
<text text-anchor="middle" x="27" y="-211" font-family="Helvetica,sans-Serif" font-size="10.00">QWidget</text>
<polyline fill="none" stroke="#bfbfbf" points="0,-204 54,-204 "/>
<text text-anchor="middle" x="27" y="-192" font-family="Helvetica,sans-Serif" font-size="10.00"> </text>
<polyline fill="none" stroke="#bfbfbf" points="0,-185 54,-185 "/>
<text text-anchor="middle" x="27" y="-173" font-family="Helvetica,sans-Serif" font-size="10.00"> </text>
</a>
</g>
</g>
<!-- Node2&#45;&gt;Node1 -->
<g id="edge1" class="edge">
<title>Node2&#45;&gt;Node1</title>
<path fill="none" stroke="midnightblue" d="M39.9,-156.1C43.39,-145.97 47.27,-134.72 51.08,-123.66"/>
<polygon fill="none" stroke="midnightblue" points="36.49,-155.23 36.54,-165.82 43.11,-157.51 36.49,-155.23"/>
</g>
<!-- Node3 -->
<g id="node3" class="node">
<title>Node3</title>
<g id="a_node3"><a xlink:href="classrare_1_1widgets_1_1side__tab_1_1_side_tab_contents.html" target="_top" xlink:title=" ">
<polygon fill="white" stroke="black" points="72,-160.5 72,-228.5 164,-228.5 164,-160.5 72,-160.5"/>
<text text-anchor="middle" x="118" y="-216.5" font-family="Helvetica,sans-Serif" font-size="10.00">SideTabContents</text>
<polyline fill="none" stroke="black" points="72,-209.5 164,-209.5 "/>
<text text-anchor="start" x="80" y="-197.5" font-family="Helvetica,sans-Serif" font-size="10.00">+ set_title</text>
<text text-anchor="start" x="80" y="-186.5" font-family="Helvetica,sans-Serif" font-size="10.00">+ bool</text>
<polyline fill="none" stroke="black" points="72,-179.5 164,-179.5 "/>
<text text-anchor="middle" x="118" y="-167.5" font-family="Helvetica,sans-Serif" font-size="10.00"> </text>
</a>
</g>
</g>
<!-- Node3&#45;&gt;Node1 -->
<g id="edge2" class="edge">
<title>Node3&#45;&gt;Node1</title>
<path fill="none" stroke="midnightblue" d="M102.92,-150.73C99.86,-142.05 96.59,-132.77 93.36,-123.61"/>
<polygon fill="none" stroke="midnightblue" points="99.65,-151.96 106.27,-160.23 106.25,-149.64 99.65,-151.96"/>
</g>
<!-- Node4 -->
<g id="node4" class="node">
<title>Node4</title>
<g id="a_node4"><a xlink:title=" ">
<polygon fill="white" stroke="#bfbfbf" points="96.5,-265.5 96.5,-322.5 139.5,-322.5 139.5,-265.5 96.5,-265.5"/>
<text text-anchor="middle" x="118" y="-310.5" font-family="Helvetica,sans-Serif" font-size="10.00">object</text>
<polyline fill="none" stroke="#bfbfbf" points="96.5,-303.5 139.5,-303.5 "/>
<text text-anchor="middle" x="118" y="-291.5" font-family="Helvetica,sans-Serif" font-size="10.00"> </text>
<polyline fill="none" stroke="#bfbfbf" points="96.5,-284.5 139.5,-284.5 "/>
<text text-anchor="middle" x="118" y="-272.5" font-family="Helvetica,sans-Serif" font-size="10.00"> </text>
</a>
</g>
</g>
<!-- Node4&#45;&gt;Node3 -->
<g id="edge3" class="edge">
<title>Node4&#45;&gt;Node3</title>
<path fill="none" stroke="midnightblue" d="M118,-255.06C118,-246.39 118,-237.24 118,-228.79"/>
<polygon fill="none" stroke="midnightblue" points="114.5,-255.32 118,-265.32 121.5,-255.32 114.5,-255.32"/>
</g>
</g>
</svg>
