<?xml version="1.0" encoding="UTF-8" standalone="no"?>
<!DOCTYPE svg PUBLIC "-//W3C//DTD SVG 1.1//EN"
 "http://www.w3.org/Graphics/SVG/1.1/DTD/svg11.dtd">
<!-- Generated by graphviz version 2.49.3 (20211027.1534)
 -->
<!-- Title: showProgress Pages: 1 -->
<svg width="323pt" height="68pt"
 viewBox="0.00 0.00 323.00 68.00" xmlns="http://www.w3.org/2000/svg" xmlns:xlink="http://www.w3.org/1999/xlink">
<g id="graph0" class="graph" transform="scale(1 1) rotate(0) translate(4 64)">
<title>showProgress</title>
<polygon fill="white" stroke="transparent" points="-4,4 -4,-64 319,-64 319,4 -4,4"/>
<!-- Node1 -->
<g id="node1" class="node">
<title>Node1</title>
<g id="a_node1"><a xlink:title=" ">
<polygon fill="#bfbfbf" stroke="black" points="236,-11.5 236,-30.5 315,-30.5 315,-11.5 236,-11.5"/>
<text text-anchor="middle" x="275.5" y="-18.5" font-family="Helvetica,sans-Serif" font-size="10.00">showProgress</text>
</a>
</g>
</g>
<!-- Node1&#45;&gt;Node1 -->
<g id="edge3" class="edge">
<title>Node1&#45;&gt;Node1</title>
<path fill="none" stroke="midnightblue" d="M308.06,-39.27C307.13,-44.74 296.28,-49 275.5,-49 244.57,-49 235.63,-39.57 248.68,-30.76"/>
<polygon fill="midnightblue" stroke="midnightblue" points="310.81,-37.09 302.32,-30.76 305.01,-41.01 310.81,-37.09"/>
</g>
<!-- Node2 -->
<g id="node2" class="node">
<title>Node2</title>
<g id="a_node2"><a xlink:href="classrare_1_1components_1_1tabs_1_1games_1_1game__widgets_1_1game__widget_1_1_game_widget.html#a373c26e9d04b99e3f040052fffcd8e17" target="_top" xlink:title=" ">
<polygon fill="white" stroke="black" points="0,-0.5 0,-41.5 200,-41.5 200,-0.5 0,-0.5"/>
<text text-anchor="start" x="8" y="-29.5" font-family="Helvetica,sans-Serif" font-size="10.00">rare.components.tabs.games.game</text>
<text text-anchor="start" x="8" y="-18.5" font-family="Helvetica,sans-Serif" font-size="10.00">_widgets.game_widget.GameWidget.show</text>
<text text-anchor="middle" x="100" y="-7.5" font-family="Helvetica,sans-Serif" font-size="10.00">_progress</text>
</a>
</g>
</g>
<!-- Node1&#45;&gt;Node2 -->
<g id="edge1" class="edge">
<title>Node1&#45;&gt;Node2</title>
<path fill="none" stroke="midnightblue" d="M225.94,-21C217.74,-21 208.97,-21 200.02,-21"/>
<polygon fill="midnightblue" stroke="midnightblue" points="225.99,-24.5 235.99,-21 225.99,-17.5 225.99,-24.5"/>
</g>
<!-- Node2&#45;&gt;Node2 -->
<g id="edge2" class="edge">
<title>Node2&#45;&gt;Node2</title>
<path fill="none" stroke="midnightblue" d="M129.94,-51.86C125.48,-56.7 115.51,-60 100,-60 75.19,-60 64.53,-51.54 68.02,-41.86"/>
<polygon fill="midnightblue" stroke="midnightblue" points="133.4,-52.36 131.98,-41.86 126.55,-50.96 133.4,-52.36"/>
</g>
</g>
</svg>
