<?xml version="1.0" encoding="UTF-8" standalone="no"?>
<!DOCTYPE svg PUBLIC "-//W3C//DTD SVG 1.1//EN"
 "http://www.w3.org/Graphics/SVG/1.1/DTD/svg11.dtd">
<!-- Generated by graphviz version 2.49.3 (20211027.1534)
 -->
<!-- Title: run Pages: 1 -->
<svg width="436pt" height="80pt"
 viewBox="0.00 0.00 436.45 79.50" xmlns="http://www.w3.org/2000/svg" xmlns:xlink="http://www.w3.org/1999/xlink">
<g id="graph0" class="graph" transform="scale(1 1) rotate(0) translate(4 75.5)">
<title>run</title>
<polygon fill="white" stroke="transparent" points="-4,4 -4,-75.5 432.45,-75.5 432.45,4 -4,4"/>
<!-- Node1 -->
<g id="node1" class="node">
<title>Node1</title>
<g id="a_node1"><a xlink:title=" ">
<polygon fill="#bfbfbf" stroke="black" points="2.45,-28.5 2.45,-47.5 32.45,-47.5 32.45,-28.5 2.45,-28.5"/>
<text text-anchor="middle" x="17.45" y="-35.5" font-family="Helvetica,sans-Serif" font-size="10.00">run</text>
</a>
</g>
</g>
<!-- Node1&#45;&gt;Node1 -->
<g id="edge3" class="edge">
<title>Node1&#45;&gt;Node1</title>
<path fill="none" stroke="midnightblue" d="M3.27,-47.76C-3.63,-56.57 1.09,-66 17.45,-66 27.67,-66 33.34,-62.31 34.48,-57.4"/>
<polygon fill="midnightblue" stroke="midnightblue" points="37.82,-56.35 31.63,-47.76 31.11,-58.34 37.82,-56.35"/>
</g>
<!-- Node2 -->
<g id="node2" class="node">
<title>Node2</title>
<g id="a_node2"><a xlink:href="classrare_1_1components_1_1tabs_1_1games_1_1import__sync_1_1egl__sync__group_1_1_e_g_l_sync_list_item.html#a9c470cc60eae203f55455d0e0d7f5712" target="_top" xlink:title=" ">
<polygon fill="white" stroke="black" points="189.45,-23 189.45,-53 428.45,-53 428.45,-23 189.45,-23"/>
<text text-anchor="start" x="197.45" y="-41" font-family="Helvetica,sans-Serif" font-size="10.00">rare.components.tabs.games.import</text>
<text text-anchor="middle" x="308.95" y="-30" font-family="Helvetica,sans-Serif" font-size="10.00">_sync.egl_sync_group.EGLSyncListItem.app_name</text>
</a>
</g>
</g>
<!-- Node1&#45;&gt;Node2 -->
<g id="edge1" class="edge">
<title>Node1&#45;&gt;Node2</title>
<path fill="none" stroke="midnightblue" d="M32.79,-41.28C42.74,-43.39 56.32,-45.92 68.45,-47 104.34,-50.2 143.36,-50.21 179.28,-48.82"/>
<polygon fill="midnightblue" stroke="midnightblue" points="179.48,-52.31 189.32,-48.39 179.18,-45.32 179.48,-52.31"/>
</g>
<!-- Node3 -->
<g id="node3" class="node">
<title>Node3</title>
<g id="a_node3"><a xlink:href="classrare_1_1utils_1_1legendary__utils_1_1_verify_worker.html#ae2f0b22c3f1097d8167f6117ebc587e7" target="_top" xlink:title=" ">
<polygon fill="white" stroke="black" points="68.45,-0.5 68.45,-19.5 153.45,-19.5 153.45,-0.5 68.45,-0.5"/>
<text text-anchor="middle" x="110.95" y="-7.5" font-family="Helvetica,sans-Serif" font-size="10.00">status_callback</text>
</a>
</g>
</g>
<!-- Node1&#45;&gt;Node3 -->
<g id="edge4" class="edge">
<title>Node1&#45;&gt;Node3</title>
<path fill="none" stroke="midnightblue" d="M32.74,-33.62C42.52,-30.63 56,-26.51 68.97,-22.54"/>
<polygon fill="midnightblue" stroke="midnightblue" points="70.17,-25.83 78.71,-19.56 68.13,-19.14 70.17,-25.83"/>
</g>
<!-- Node2&#45;&gt;Node2 -->
<g id="edge2" class="edge">
<title>Node2&#45;&gt;Node2</title>
<path fill="none" stroke="midnightblue" d="M274.44,-53.16C266.12,-62.56 277.62,-71.5 308.95,-71.5 328.03,-71.5 339.76,-68.18 344.13,-63.46"/>
<polygon fill="midnightblue" stroke="midnightblue" points="347.6,-62.91 343.45,-53.16 340.61,-63.37 347.6,-62.91"/>
</g>
<!-- Node3&#45;&gt;Node2 -->
<g id="edge5" class="edge">
<title>Node3&#45;&gt;Node2</title>
<path fill="none" stroke="midnightblue" d="M153.51,-15.94C165.27,-17.62 178.67,-19.53 192.54,-21.51"/>
<polygon fill="midnightblue" stroke="midnightblue" points="192.33,-25.02 202.72,-22.97 193.32,-18.09 192.33,-25.02"/>
</g>
<!-- Node3&#45;&gt;Node3 -->
<g id="edge6" class="edge">
<title>Node3&#45;&gt;Node3</title>
<path fill="none" stroke="midnightblue" d="M96.77,-19.76C89.87,-28.57 94.59,-38 110.95,-38 121.17,-38 126.84,-34.31 127.98,-29.4"/>
<polygon fill="midnightblue" stroke="midnightblue" points="131.32,-28.35 125.13,-19.76 124.61,-30.34 131.32,-28.35"/>
</g>
</g>
</svg>
