<?xml version="1.0" encoding="UTF-8" standalone="no"?>
<!DOCTYPE svg PUBLIC "-//W3C//DTD SVG 1.1//EN"
 "http://www.w3.org/Graphics/SVG/1.1/DTD/svg11.dtd">
<!-- Generated by graphviz version 2.49.3 (20211027.1534)
 -->
<!-- Title: setFixedSize Pages: 1 -->
<!--zoomable 375 -->
<svg id="main" version="1.1" xmlns="http://www.w3.org/2000/svg" xmlns:xlink="http://www.w3.org/1999/xlink" xml:space="preserve" onload="init(evt)">
<style type="text/css"><![CDATA[
.edge:hover path { stroke: red; }
.edge:hover polygon { stroke: red; fill: red; }
]]></style>
<script type="text/javascript"><![CDATA[
var edges = document.getElementsByTagName('g');
if (edges && edges.length) {
  for (var i=0;i<edges.length;i++) {
    if (edges[i].id.substr(0,4)=='edge') {
      edges[i].setAttribute('class','edge');
    }
  }
}
]]></script>
        <defs>
                <circle id="rim" cx="0" cy="0" r="7"/>
                <circle id="rim2" cx="0" cy="0" r="3.5"/>
                <g id="zoomPlus">
                        <use xlink:href="#rim" fill="#404040">
                                <set attributeName="fill" to="#808080" begin="zoomplus.mouseover" end="zoomplus.mouseout"/>
                        </use>
                        <path d="M-4,0h8M0,-4v8" fill="none" stroke="white" stroke-width="1.5" pointer-events="none"/>
                </g>
                <g id="zoomMin">
                        <use xlink:href="#rim" fill="#404040">
                                <set attributeName="fill" to="#808080" begin="zoomminus.mouseover" end="zoomminus.mouseout"/>
                        </use>
                        <path d="M-4,0h8" fill="none" stroke="white" stroke-width="1.5" pointer-events="none"/>
                </g>
                <g id="dirArrow">
                        <path fill="none" stroke="white" stroke-width="1.5" d="M0,-3.0v7 M-2.5,-0.5L0,-3.0L2.5,-0.5"/>
                </g>
               <g id="resetDef">
                       <use xlink:href="#rim2" fill="#404040">
                               <set attributeName="fill" to="#808080" begin="reset.mouseover" end="reset.mouseout"/>
                       </use>
               </g>
        </defs>

<script type="text/javascript">
var viewWidth = 784;
var viewHeight = 375;
var sectionId = 'dynsection-19';
</script>
<script xlink:href="svgpan.js"/>
<svg id="graph" class="graph">
<g id="viewport">
<title>setFixedSize</title>
<polygon fill="white" stroke="transparent" points="-4,4 -4,-371 780,-371 780,4 -4,4"/>
<!-- Node1 -->
<g id="node1" class="node">
<title>Node1</title>
<g id="a_node1"><a xlink:title=" ">
<polygon fill="#bfbfbf" stroke="black" points="704,-168 704,-187 776,-187 776,-168 704,-168"/>
<text text-anchor="middle" x="740" y="-175" font-family="Helvetica,sans-Serif" font-size="10.00">setFixedSize</text>
</a>
</g>
</g>
<!-- Node1&#45;&gt;Node1 -->
<g id="edge16" class="edge">
<title>Node1&#45;&gt;Node1</title>
<path fill="none" stroke="midnightblue" d="M772.19,-195.77C771.27,-201.24 760.54,-205.5 740,-205.5 709.43,-205.5 700.59,-196.07 713.49,-187.26"/>
<polygon fill="midnightblue" stroke="midnightblue" points="774.97,-193.64 766.51,-187.26 769.14,-197.52 774.97,-193.64"/>
</g>
<!-- Node2 -->
<g id="node2" class="node">
<title>Node2</title>
<g id="a_node2"><a xlink:href="classrare_1_1components_1_1tabs_1_1store_1_1widgets_1_1items_1_1_results_item_widget.html#aa6e4a481f332ad11a870b247a793e7d1" target="_top" xlink:title=" ">
<polygon fill="white" stroke="black" points="234,-318.5 234,-348.5 432,-348.5 432,-318.5 234,-318.5"/>
<text text-anchor="start" x="242" y="-336.5" font-family="Helvetica,sans-Serif" font-size="10.00">rare.components.tabs.store.widgets.items.</text>
<text text-anchor="middle" x="333" y="-325.5" font-family="Helvetica,sans-Serif" font-size="10.00">ResultsItemWidget.__init__</text>
</a>
</g>
</g>
<!-- Node1&#45;&gt;Node2 -->
<g id="edge1" class="edge">
<title>Node1&#45;&gt;Node2</title>
<path fill="none" stroke="midnightblue" d="M733.22,-196.91C724.11,-223.79 703.67,-271.6 668,-294.5 598.24,-339.29 503.11,-346.39 432.21,-343.83"/>
<polygon fill="midnightblue" stroke="midnightblue" points="736.64,-197.71 736.35,-187.12 729.97,-195.58 736.64,-197.71"/>
</g>
<!-- Node3 -->
<g id="node3" class="node">
<title>Node3</title>
<g id="a_node3"><a xlink:href="classrare_1_1components_1_1tabs_1_1store_1_1widgets_1_1items_1_1_wishlist_item_widget.html#aa6e4a481f332ad11a870b247a793e7d1" target="_top" xlink:title=" ">
<polygon fill="white" stroke="black" points="234,-184.5 234,-214.5 432,-214.5 432,-184.5 234,-184.5"/>
<text text-anchor="start" x="242" y="-202.5" font-family="Helvetica,sans-Serif" font-size="10.00">rare.components.tabs.store.widgets.items.</text>
<text text-anchor="middle" x="333" y="-191.5" font-family="Helvetica,sans-Serif" font-size="10.00">WishlistItemWidget.__init__</text>
</a>
</g>
</g>
<!-- Node1&#45;&gt;Node3 -->
<g id="edge3" class="edge">
<title>Node1&#45;&gt;Node3</title>
<path fill="none" stroke="midnightblue" d="M693.76,-179.96C630.86,-183.37 515.32,-189.65 432.12,-194.17"/>
<polygon fill="midnightblue" stroke="midnightblue" points="693.97,-183.45 703.77,-179.41 693.59,-176.46 693.97,-183.45"/>
</g>
<!-- Node4 -->
<g id="node4" class="node">
<title>Node4</title>
<g id="a_node4"><a xlink:href="classrare_1_1components_1_1tabs_1_1store_1_1widgets_1_1items_1_1_store_item_widget.html#a10bc7e3ba7dbaf8018c30feaee63e609" target="_top" xlink:title=" ">
<polygon fill="white" stroke="black" points="0,-195.5 0,-225.5 198,-225.5 198,-195.5 0,-195.5"/>
<text text-anchor="start" x="8" y="-213.5" font-family="Helvetica,sans-Serif" font-size="10.00">rare.components.tabs.store.widgets.items.</text>
<text text-anchor="middle" x="99" y="-202.5" font-family="Helvetica,sans-Serif" font-size="10.00">StoreItemWidget.__init__</text>
</a>
</g>
</g>
<!-- Node1&#45;&gt;Node4 -->
<g id="edge5" class="edge">
<title>Node1&#45;&gt;Node4</title>
<path fill="none" stroke="midnightblue" d="M693.92,-173.12C605.33,-165.42 402.48,-152.26 234,-174.5 203.55,-178.52 170.19,-187.46 144.38,-195.43"/>
<polygon fill="midnightblue" stroke="midnightblue" points="693.63,-176.61 703.9,-174.01 694.25,-169.64 693.63,-176.61"/>
</g>
<!-- Node5 -->
<g id="node5" class="node">
<title>Node5</title>
<g id="a_node5"><a xlink:href="classrare_1_1components_1_1tabs_1_1games_1_1game__widgets_1_1icon__game__widget_1_1_icon_game_widget.html#a6c734fe46844d27ba3c41824b2080754" target="_top" xlink:title=" ">
<polygon fill="white" stroke="black" points="475,-68 475,-109 661,-109 661,-68 475,-68"/>
<text text-anchor="start" x="483" y="-97" font-family="Helvetica,sans-Serif" font-size="10.00">rare.components.tabs.games.game</text>
<text text-anchor="start" x="483" y="-86" font-family="Helvetica,sans-Serif" font-size="10.00">_widgets.icon_game_widget.IconGame</text>
<text text-anchor="middle" x="568" y="-75" font-family="Helvetica,sans-Serif" font-size="10.00">Widget.__init__</text>
</a>
</g>
</g>
<!-- Node1&#45;&gt;Node5 -->
<g id="edge7" class="edge">
<title>Node1&#45;&gt;Node5</title>
<path fill="none" stroke="midnightblue" d="M711.6,-163.16C683.59,-148.49 639.82,-125.58 608.16,-109"/>
<polygon fill="midnightblue" stroke="midnightblue" points="710.32,-166.44 720.81,-167.98 713.57,-160.24 710.32,-166.44"/>
</g>
<!-- Node6 -->
<g id="node6" class="node">
<title>Node6</title>
<g id="a_node6"><a xlink:href="classrare_1_1components_1_1tabs_1_1store_1_1widgets_1_1image_1_1_loading_image_widget.html#a5e746b7db8fca760d821d8bdd801fc52" target="_top" xlink:title=" ">
<polygon fill="white" stroke="black" points="468,-236.5 468,-266.5 668,-266.5 668,-236.5 468,-236.5"/>
<text text-anchor="start" x="476" y="-254.5" font-family="Helvetica,sans-Serif" font-size="10.00">rare.components.tabs.store.widgets.image.</text>
<text text-anchor="middle" x="568" y="-243.5" font-family="Helvetica,sans-Serif" font-size="10.00">LoadingImageWidget.fetchPixmap</text>
</a>
</g>
</g>
<!-- Node1&#45;&gt;Node6 -->
<g id="edge9" class="edge">
<title>Node1&#45;&gt;Node6</title>
<path fill="none" stroke="midnightblue" d="M709.68,-191.47C696.93,-197.45 681.78,-204.45 668,-210.5 647.73,-219.4 624.91,-228.89 606.3,-236.49"/>
<polygon fill="midnightblue" stroke="midnightblue" points="711.35,-194.55 718.9,-187.12 708.37,-188.22 711.35,-194.55"/>
</g>
<!-- Node8 -->
<g id="node8" class="node">
<title>Node8</title>
<g id="a_node8"><a xlink:href="classrare_1_1utils_1_1extra__widgets_1_1_image_label.html#a6eb1e8d66d898e3ef05c7a7cc9a3a116" target="_top" xlink:title=" ">
<polygon fill="white" stroke="black" points="502.5,-0.5 502.5,-30.5 633.5,-30.5 633.5,-0.5 502.5,-0.5"/>
<text text-anchor="start" x="510.5" y="-18.5" font-family="Helvetica,sans-Serif" font-size="10.00">rare.utils.extra_widgets.</text>
<text text-anchor="middle" x="568" y="-7.5" font-family="Helvetica,sans-Serif" font-size="10.00">ImageLabel.update_image</text>
</a>
</g>
</g>
<!-- Node1&#45;&gt;Node8 -->
<g id="edge17" class="edge">
<title>Node1&#45;&gt;Node8</title>
<path fill="none" stroke="midnightblue" d="M731.96,-158.38C721.59,-132.57 699.92,-86.57 668,-58.5 654.21,-46.37 636.47,-37.23 619.82,-30.56"/>
<polygon fill="midnightblue" stroke="midnightblue" points="728.74,-159.74 735.6,-167.8 735.27,-157.21 728.74,-159.74"/>
</g>
<!-- Node2&#45;&gt;Node2 -->
<g id="edge2" class="edge">
<title>Node2&#45;&gt;Node2</title>
<path fill="none" stroke="midnightblue" d="M374.96,-358.59C370.12,-363.51 356.14,-367 333,-367 295.98,-367 282.39,-358.06 292.22,-348.66"/>
<polygon fill="midnightblue" stroke="midnightblue" points="378.43,-358.18 373.78,-348.66 371.48,-359 378.43,-358.18"/>
</g>
<!-- Node3&#45;&gt;Node3 -->
<g id="edge4" class="edge">
<title>Node3&#45;&gt;Node3</title>
<path fill="none" stroke="midnightblue" d="M374.96,-224.59C370.12,-229.51 356.14,-233 333,-233 295.98,-233 282.39,-224.06 292.22,-214.66"/>
<polygon fill="midnightblue" stroke="midnightblue" points="378.43,-224.18 373.78,-214.66 371.48,-225 378.43,-224.18"/>
</g>
<!-- Node4&#45;&gt;Node4 -->
<g id="edge6" class="edge">
<title>Node4&#45;&gt;Node4</title>
<path fill="none" stroke="midnightblue" d="M140.96,-235.59C136.12,-240.51 122.14,-244 99,-244 61.98,-244 48.39,-235.06 58.22,-225.66"/>
<polygon fill="midnightblue" stroke="midnightblue" points="144.43,-235.18 139.78,-225.66 137.48,-236 144.43,-235.18"/>
</g>
<!-- Node5&#45;&gt;Node5 -->
<g id="edge8" class="edge">
<title>Node5&#45;&gt;Node5</title>
<path fill="none" stroke="midnightblue" d="M597.59,-119.36C593.19,-124.2 583.33,-127.5 568,-127.5 543.48,-127.5 532.94,-119.04 536.39,-109.36"/>
<polygon fill="midnightblue" stroke="midnightblue" points="601.06,-119.86 599.61,-109.36 594.2,-118.47 601.06,-119.86"/>
</g>
<!-- Node6&#45;&gt;Node2 -->
<g id="edge10" class="edge">
<title>Node6&#45;&gt;Node2</title>
<path fill="none" stroke="midnightblue" d="M526.61,-270.94C500.14,-283.16 464.53,-298.61 432,-309.5 422.28,-312.75 411.89,-315.77 401.64,-318.49"/>
<polygon fill="midnightblue" stroke="midnightblue" points="528.35,-273.99 535.93,-266.6 525.39,-267.65 528.35,-273.99"/>
</g>
<!-- Node6&#45;&gt;Node3 -->
<g id="edge11" class="edge">
<title>Node6&#45;&gt;Node3</title>
<path fill="none" stroke="midnightblue" d="M489.65,-234.24C461.05,-227.85 428.88,-220.67 401.24,-214.51"/>
<polygon fill="midnightblue" stroke="midnightblue" points="489.08,-237.7 499.61,-236.46 490.61,-230.87 489.08,-237.7"/>
</g>
<!-- Node6&#45;&gt;Node6 -->
<g id="edge12" class="edge">
<title>Node6&#45;&gt;Node6</title>
<path fill="none" stroke="midnightblue" d="M598.56,-276.96C594.77,-281.68 584.58,-285 568,-285 540.79,-285 530.8,-276.06 538.03,-266.66"/>
<polygon fill="midnightblue" stroke="midnightblue" points="602.04,-276.44 597.97,-266.66 595.05,-276.84 602.04,-276.44"/>
</g>
<!-- Node7 -->
<g id="node7" class="node">
<title>Node7</title>
<g id="a_node7"><a xlink:href="classrare_1_1components_1_1tabs_1_1store_1_1widgets_1_1items_1_1_store_item_widget.html#a25fcdb296abc02d48b1b9c473f1b7597" target="_top" xlink:title=" ">
<polygon fill="white" stroke="black" points="234,-251.5 234,-281.5 432,-281.5 432,-251.5 234,-251.5"/>
<text text-anchor="start" x="242" y="-269.5" font-family="Helvetica,sans-Serif" font-size="10.00">rare.components.tabs.store.widgets.items.</text>
<text text-anchor="middle" x="333" y="-258.5" font-family="Helvetica,sans-Serif" font-size="10.00">StoreItemWidget.init_ui</text>
</a>
</g>
</g>
<!-- Node6&#45;&gt;Node7 -->
<g id="edge13" class="edge">
<title>Node6&#45;&gt;Node7</title>
<path fill="none" stroke="midnightblue" d="M457.6,-258.54C449.16,-259.09 440.68,-259.63 432.32,-260.17"/>
<polygon fill="midnightblue" stroke="midnightblue" points="458.09,-262.02 467.85,-257.88 457.64,-255.03 458.09,-262.02"/>
</g>
<!-- Node7&#45;&gt;Node4 -->
<g id="edge14" class="edge">
<title>Node7&#45;&gt;Node4</title>
<path fill="none" stroke="midnightblue" d="M259.87,-249.09C228.63,-241.55 192.4,-232.8 162.34,-225.55"/>
<polygon fill="midnightblue" stroke="midnightblue" points="259.29,-252.55 269.83,-251.49 260.93,-245.74 259.29,-252.55"/>
</g>
<!-- Node7&#45;&gt;Node7 -->
<g id="edge15" class="edge">
<title>Node7&#45;&gt;Node7</title>
<path fill="none" stroke="midnightblue" d="M374.96,-291.59C370.12,-296.51 356.14,-300 333,-300 295.98,-300 282.39,-291.06 292.22,-281.66"/>
<polygon fill="midnightblue" stroke="midnightblue" points="378.43,-291.18 373.78,-281.66 371.48,-292 378.43,-291.18"/>
</g>
<!-- Node8&#45;&gt;Node8 -->
<g id="edge18" class="edge">
<title>Node8&#45;&gt;Node8</title>
<path fill="none" stroke="midnightblue" d="M598.56,-40.96C594.77,-45.68 584.58,-49 568,-49 540.79,-49 530.8,-40.06 538.03,-30.66"/>
<polygon fill="midnightblue" stroke="midnightblue" points="602.04,-40.44 597.97,-30.66 595.05,-40.84 602.04,-40.44"/>
</g>
</g>
</svg>
        <g id="navigator" transform="translate(0 0)" fill="#404254">
                <rect fill="#f2f5e9" fill-opacity="0.5" stroke="#606060" stroke-width=".5" x="0" y="0" width="60" height="60"/>
                <use id="zoomplus" xlink:href="#zoomPlus" x="17" y="9" onmousedown="handleZoom(evt,'in')"/>
                <use id="zoomminus" xlink:href="#zoomMin" x="42" y="9" onmousedown="handleZoom(evt,'out')"/>
                <use id="reset" xlink:href="#resetDef" x="30" y="36" onmousedown="handleReset()"/>
                <g id="arrowUp" xlink:href="#dirArrow" transform="translate(30 24)" onmousedown="handlePan(0,-1)">
                  <use xlink:href="#rim" fill="#404040">
                        <set attributeName="fill" to="#808080" begin="arrowUp.mouseover" end="arrowUp.mouseout"/>
                  </use>
                  <path fill="none" stroke="white" stroke-width="1.5" d="M0,-3.0v7 M-2.5,-0.5L0,-3.0L2.5,-0.5"/>
                </g>
                <g id="arrowRight" xlink:href="#dirArrow" transform="rotate(90) translate(36 -43)" onmousedown="handlePan(1,0)">
                  <use xlink:href="#rim" fill="#404040">
                        <set attributeName="fill" to="#808080" begin="arrowRight.mouseover" end="arrowRight.mouseout"/>
                  </use>
                  <path fill="none" stroke="white" stroke-width="1.5" d="M0,-3.0v7 M-2.5,-0.5L0,-3.0L2.5,-0.5"/>
                </g>
                <g id="arrowDown" xlink:href="#dirArrow" transform="rotate(180) translate(-30 -48)" onmousedown="handlePan(0,1)">
                  <use xlink:href="#rim" fill="#404040">
                        <set attributeName="fill" to="#808080" begin="arrowDown.mouseover" end="arrowDown.mouseout"/>
                  </use>
                  <path fill="none" stroke="white" stroke-width="1.5" d="M0,-3.0v7 M-2.5,-0.5L0,-3.0L2.5,-0.5"/>
                </g>
                <g id="arrowLeft" xlink:href="#dirArrow" transform="rotate(270) translate(-36 17)" onmousedown="handlePan(-1,0)">
                  <use xlink:href="#rim" fill="#404040">
                        <set attributeName="fill" to="#808080" begin="arrowLeft.mouseover" end="arrowLeft.mouseout"/>
                  </use>
                  <path fill="none" stroke="white" stroke-width="1.5" d="M0,-3.0v7 M-2.5,-0.5L0,-3.0L2.5,-0.5"/>
                </g>
        </g>
        <svg viewBox="0 0 15 15" width="100%" height="30px" preserveAspectRatio="xMaxYMin meet">
         <g id="arrow_out" transform="scale(0.3 0.3)">
          <a xlink:href="classrare_1_1widgets_1_1image__widget_1_1_image_widget_ae053da50cc4acff1a1ccbe25da97987e_icgraph_org.svg" target="_base">
           <rect id="button" ry="5" rx="5" y="6" x="6" height="38" width="38"
                fill="#f2f5e9" fill-opacity="0.5" stroke="#606060" stroke-width="1.0"/>
           <path id="arrow"
             d="M 11.500037,31.436501 C 11.940474,20.09759 22.043105,11.32322 32.158766,21.979434 L 37.068811,17.246167 C 37.068811,17.246167 37.088388,32 37.088388,32 L 22.160133,31.978069 C 22.160133,31.978069 26.997745,27.140456 26.997745,27.140456 C 18.528582,18.264221 13.291696,25.230495 11.500037,31.436501 z"
             style="fill:#404040;"/>
          </a>
         </g>
        </svg>
</svg>
