<?xml version="1.0" encoding="UTF-8" standalone="no"?>
<!DOCTYPE svg PUBLIC "-//W3C//DTD SVG 1.1//EN"
 "http://www.w3.org/Graphics/SVG/1.1/DTD/svg11.dtd">
<!-- Generated by graphviz version 2.49.3 (20211027.1534)
 -->
<!-- Title: download_saves Pages: 1 -->
<!--zoomable 412 -->
<svg id="main" version="1.1" xmlns="http://www.w3.org/2000/svg" xmlns:xlink="http://www.w3.org/1999/xlink" xml:space="preserve" onload="init(evt)">
<style type="text/css"><![CDATA[
.edge:hover path { stroke: red; }
.edge:hover polygon { stroke: red; fill: red; }
]]></style>
<script type="text/javascript"><![CDATA[
var edges = document.getElementsByTagName('g');
if (edges && edges.length) {
  for (var i=0;i<edges.length;i++) {
    if (edges[i].id.substr(0,4)=='edge') {
      edges[i].setAttribute('class','edge');
    }
  }
}
]]></script>
        <defs>
                <circle id="rim" cx="0" cy="0" r="7"/>
                <circle id="rim2" cx="0" cy="0" r="3.5"/>
                <g id="zoomPlus">
                        <use xlink:href="#rim" fill="#404040">
                                <set attributeName="fill" to="#808080" begin="zoomplus.mouseover" end="zoomplus.mouseout"/>
                        </use>
                        <path d="M-4,0h8M0,-4v8" fill="none" stroke="white" stroke-width="1.5" pointer-events="none"/>
                </g>
                <g id="zoomMin">
                        <use xlink:href="#rim" fill="#404040">
                                <set attributeName="fill" to="#808080" begin="zoomminus.mouseover" end="zoomminus.mouseout"/>
                        </use>
                        <path d="M-4,0h8" fill="none" stroke="white" stroke-width="1.5" pointer-events="none"/>
                </g>
                <g id="dirArrow">
                        <path fill="none" stroke="white" stroke-width="1.5" d="M0,-3.0v7 M-2.5,-0.5L0,-3.0L2.5,-0.5"/>
                </g>
               <g id="resetDef">
                       <use xlink:href="#rim2" fill="#404040">
                               <set attributeName="fill" to="#808080" begin="reset.mouseover" end="reset.mouseout"/>
                       </use>
               </g>
        </defs>

<script type="text/javascript">
var viewWidth = 1933;
var viewHeight = 412;
var sectionId = 'dynsection-16';
</script>
<script xlink:href="svgpan.js"/>
<svg id="graph" class="graph">
<g id="viewport">
<title>download_saves</title>
<polygon fill="white" stroke="transparent" points="-4,4 -4,-407.5 1929,-407.5 1929,4 -4,4"/>
<!-- Node1 -->
<g id="node1" class="node">
<title>Node1</title>
<g id="a_node1"><a xlink:title=" ">
<polygon fill="#bfbfbf" stroke="black" points="1836,-56.5 1836,-75.5 1925,-75.5 1925,-56.5 1836,-56.5"/>
<text text-anchor="middle" x="1880.5" y="-63.5" font-family="Helvetica,sans-Serif" font-size="10.00">download_saves</text>
</a>
</g>
</g>
<!-- Node1&#45;&gt;Node1 -->
<g id="edge1" class="edge">
<title>Node1&#45;&gt;Node1</title>
<path fill="none" stroke="midnightblue" d="M1911.19,-84.27C1910.31,-89.74 1900.08,-94 1880.5,-94 1851.35,-94 1842.93,-84.57 1855.22,-75.76"/>
<polygon fill="midnightblue" stroke="midnightblue" points="1914.09,-82.32 1905.78,-75.76 1908.19,-86.07 1914.09,-82.32"/>
</g>
<!-- Node2 -->
<g id="node2" class="node">
<title>Node2</title>
<g id="a_node2"><a xlink:href="classrare_1_1components_1_1tabs_1_1games_1_1cloud__save__utils_1_1_cloud_save_utils.html#a970c7d031af196eae774c1e0fa78daab" target="_top" xlink:title=" ">
<polygon fill="white" stroke="black" points="1633,-256.5 1633,-297.5 1800,-297.5 1800,-256.5 1633,-256.5"/>
<text text-anchor="start" x="1641" y="-285.5" font-family="Helvetica,sans-Serif" font-size="10.00">rare.components.tabs.games.cloud</text>
<text text-anchor="start" x="1641" y="-274.5" font-family="Helvetica,sans-Serif" font-size="10.00">_save_utils.CloudSaveUtils.game</text>
<text text-anchor="middle" x="1716.5" y="-263.5" font-family="Helvetica,sans-Serif" font-size="10.00">_finished</text>
</a>
</g>
</g>
<!-- Node1&#45;&gt;Node2 -->
<g id="edge2" class="edge">
<title>Node1&#45;&gt;Node2</title>
<path fill="none" stroke="midnightblue" d="M1865.76,-83.89C1835.89,-122.8 1765.17,-214.91 1733.42,-256.27"/>
<polygon fill="midnightblue" stroke="midnightblue" points="1868.8,-85.68 1872.12,-75.61 1863.25,-81.41 1868.8,-85.68"/>
</g>
<!-- Node15 -->
<g id="node15" class="node">
<title>Node15</title>
<g id="a_node15"><a xlink:href="classrare_1_1components_1_1tabs_1_1games_1_1cloud__save__utils_1_1_cloud_save_utils.html#abb078ea24f03a8b8317000d4af7416de" target="_top" xlink:title=" ">
<polygon fill="white" stroke="black" points="0,-282.5 0,-323.5 167,-323.5 167,-282.5 0,-282.5"/>
<text text-anchor="start" x="8" y="-311.5" font-family="Helvetica,sans-Serif" font-size="10.00">rare.components.tabs.games.cloud</text>
<text text-anchor="start" x="8" y="-300.5" font-family="Helvetica,sans-Serif" font-size="10.00">_save_utils.CloudSaveUtils.sync</text>
<text text-anchor="middle" x="83.5" y="-289.5" font-family="Helvetica,sans-Serif" font-size="10.00">_before_launch_game</text>
</a>
</g>
</g>
<!-- Node1&#45;&gt;Node15 -->
<g id="edge42" class="edge">
<title>Node1&#45;&gt;Node15</title>
<path fill="none" stroke="midnightblue" d="M1825.89,-66C1754.74,-66 1625.18,-66 1514.5,-66 1514.5,-66 1514.5,-66 535.5,-66 385.57,-66 328.48,-40.94 203,-123 142.88,-162.32 106.28,-243.91 91.74,-282.25"/>
<polygon fill="midnightblue" stroke="midnightblue" points="1825.96,-69.5 1835.96,-66 1825.96,-62.5 1825.96,-69.5"/>
</g>
<!-- Node17 -->
<g id="node17" class="node">
<title>Node17</title>
<g id="a_node17"><a xlink:href="classlegendary_1_1cli_1_1_legendary_c_l_i.html#aece09febe2751d67cf50a322babe1e82" target="_top" xlink:title=" ">
<polygon fill="white" stroke="black" points="1682.5,-0.5 1682.5,-19.5 1750.5,-19.5 1750.5,-0.5 1682.5,-0.5"/>
<text text-anchor="middle" x="1716.5" y="-7.5" font-family="Helvetica,sans-Serif" font-size="10.00">sync_saves</text>
</a>
</g>
</g>
<!-- Node1&#45;&gt;Node17 -->
<g id="edge43" class="edge">
<title>Node1&#45;&gt;Node17</title>
<path fill="none" stroke="midnightblue" d="M1842.06,-53.06C1812.41,-42.81 1771.68,-28.73 1744.99,-19.5"/>
<polygon fill="midnightblue" stroke="midnightblue" points="1841.06,-56.41 1851.65,-56.37 1843.34,-49.8 1841.06,-56.41"/>
</g>
<!-- Node2&#45;&gt;Node2 -->
<g id="edge5" class="edge">
<title>Node2&#45;&gt;Node2</title>
<path fill="none" stroke="midnightblue" d="M1744.72,-307.86C1740.52,-312.7 1731.11,-316 1716.5,-316 1693.12,-316 1683.07,-307.54 1686.36,-297.86"/>
<polygon fill="midnightblue" stroke="midnightblue" points="1748.19,-308.35 1746.64,-297.86 1741.31,-307.02 1748.19,-308.35"/>
</g>
<!-- Node3 -->
<g id="node3" class="node">
<title>Node3</title>
<g id="a_node3"><a xlink:href="classrare_1_1components_1_1tabs_1_1games_1_1game__utils_1_1_game_process.html#a59c03cd7e6b87132c709e69907d4e0ed" target="_top" xlink:title=" ">
<polygon fill="white" stroke="black" points="1227,-225.5 1227,-266.5 1394,-266.5 1394,-225.5 1227,-225.5"/>
<text text-anchor="start" x="1235" y="-254.5" font-family="Helvetica,sans-Serif" font-size="10.00">rare.components.tabs.games.game</text>
<text text-anchor="start" x="1235" y="-243.5" font-family="Helvetica,sans-Serif" font-size="10.00">_utils.GameProcess.connect</text>
<text text-anchor="middle" x="1310.5" y="-232.5" font-family="Helvetica,sans-Serif" font-size="10.00">_to_server</text>
</a>
</g>
</g>
<!-- Node2&#45;&gt;Node3 -->
<g id="edge3" class="edge">
<title>Node2&#45;&gt;Node3</title>
<path fill="none" stroke="midnightblue" d="M1622.75,-271.64C1566.87,-268.21 1494.31,-263.39 1430,-258 1418.36,-257.02 1406.08,-255.89 1394.02,-254.73"/>
<polygon fill="midnightblue" stroke="midnightblue" points="1622.79,-275.15 1632.99,-272.26 1623.22,-268.16 1622.79,-275.15"/>
</g>
<!-- Node4 -->
<g id="node4" class="node">
<title>Node4</title>
<g id="a_node4"><a xlink:href="classrare_1_1components_1_1tabs_1_1games_1_1game__utils_1_1_game_utils.html#a1ff6997393d84b07e97a057126c415f7" target="_top" xlink:title=" ">
<polygon fill="white" stroke="black" points="1430,-200 1430,-230 1597,-230 1597,-200 1430,-200"/>
<text text-anchor="start" x="1438" y="-218" font-family="Helvetica,sans-Serif" font-size="10.00">rare.components.tabs.games.game</text>
<text text-anchor="middle" x="1513.5" y="-207" font-family="Helvetica,sans-Serif" font-size="10.00">_utils.GameUtils.game_finished</text>
</a>
</g>
</g>
<!-- Node2&#45;&gt;Node4 -->
<g id="edge6" class="edge">
<title>Node2&#45;&gt;Node4</title>
<path fill="none" stroke="midnightblue" d="M1639.2,-253.46C1613.69,-245.6 1585.97,-237.05 1563.16,-230.01"/>
<polygon fill="midnightblue" stroke="midnightblue" points="1638.26,-256.84 1648.85,-256.44 1640.33,-250.15 1638.26,-256.84"/>
</g>
<!-- Node5 -->
<g id="node5" class="node">
<title>Node5</title>
<g id="a_node5"><a xlink:href="classrare_1_1components_1_1tabs_1_1games_1_1game__utils_1_1_game_utils.html#a6d84f785e188bb4dc5e05413dd1302ad" target="_top" xlink:title=" ">
<polygon fill="white" stroke="black" points="1227,-156 1227,-186 1394,-186 1394,-156 1227,-156"/>
<text text-anchor="start" x="1235" y="-174" font-family="Helvetica,sans-Serif" font-size="10.00">rare.components.tabs.games.game</text>
<text text-anchor="middle" x="1310.5" y="-163" font-family="Helvetica,sans-Serif" font-size="10.00">_utils.GameUtils.launch_game</text>
</a>
</g>
</g>
<!-- Node2&#45;&gt;Node5 -->
<g id="edge41" class="edge">
<title>Node2&#45;&gt;Node5</title>
<path fill="none" stroke="midnightblue" d="M1687.55,-249.23C1665.12,-228.88 1631.74,-202.68 1597,-190 1531.78,-166.2 1452.69,-162.73 1394.31,-164.47"/>
<polygon fill="midnightblue" stroke="midnightblue" points="1685.3,-251.92 1695.01,-256.16 1690.06,-246.79 1685.3,-251.92"/>
</g>
<!-- Node3&#45;&gt;Node3 -->
<g id="edge4" class="edge">
<title>Node3&#45;&gt;Node3</title>
<path fill="none" stroke="midnightblue" d="M1342.16,-276.86C1337.45,-281.7 1326.9,-285 1310.5,-285 1284.27,-285 1272.99,-276.54 1276.68,-266.86"/>
<polygon fill="midnightblue" stroke="midnightblue" points="1345.62,-277.38 1344.32,-266.86 1338.78,-275.9 1345.62,-277.38"/>
</g>
<!-- Node4&#45;&gt;Node3 -->
<g id="edge7" class="edge">
<title>Node4&#45;&gt;Node3</title>
<path fill="none" stroke="midnightblue" d="M1419.85,-229.29C1411.27,-230.61 1402.61,-231.95 1394.13,-233.26"/>
<polygon fill="midnightblue" stroke="midnightblue" points="1420.53,-232.73 1429.88,-227.74 1419.46,-225.81 1420.53,-232.73"/>
</g>
<!-- Node4&#45;&gt;Node4 -->
<g id="edge8" class="edge">
<title>Node4&#45;&gt;Node4</title>
<path fill="none" stroke="midnightblue" d="M1549.39,-240.46C1544.94,-245.18 1532.97,-248.5 1513.5,-248.5 1481.54,-248.5 1469.81,-239.56 1478.3,-230.16"/>
<polygon fill="midnightblue" stroke="midnightblue" points="1552.86,-239.9 1548.7,-230.16 1545.88,-240.37 1552.86,-239.9"/>
</g>
<!-- Node4&#45;&gt;Node5 -->
<g id="edge9" class="edge">
<title>Node4&#45;&gt;Node5</title>
<path fill="none" stroke="midnightblue" d="M1434.11,-197.84C1416.3,-193.94 1397.51,-189.83 1380.14,-186.03"/>
<polygon fill="midnightblue" stroke="midnightblue" points="1433.37,-201.26 1443.89,-199.98 1434.87,-194.42 1433.37,-201.26"/>
</g>
<!-- Node5&#45;&gt;Node5 -->
<g id="edge10" class="edge">
<title>Node5&#45;&gt;Node5</title>
<path fill="none" stroke="midnightblue" d="M1343.19,-196.46C1339.14,-201.18 1328.24,-204.5 1310.5,-204.5 1281.39,-204.5 1270.7,-195.56 1278.43,-186.16"/>
<polygon fill="midnightblue" stroke="midnightblue" points="1346.67,-195.93 1342.57,-186.16 1339.68,-196.35 1346.67,-195.93"/>
</g>
<!-- Node6 -->
<g id="node6" class="node">
<title>Node6</title>
<g id="a_node6"><a xlink:href="classrare_1_1components_1_1tabs_1_1games_1_1game__utils_1_1_game_utils.html#a4edad8bd72770b4d0924575036a40a3c" target="_top" xlink:title=" ">
<polygon fill="white" stroke="black" points="453,-133 453,-163 620,-163 620,-133 453,-133"/>
<text text-anchor="start" x="461" y="-151" font-family="Helvetica,sans-Serif" font-size="10.00">rare.components.tabs.games.game</text>
<text text-anchor="middle" x="536.5" y="-140" font-family="Helvetica,sans-Serif" font-size="10.00">_utils.GameUtils.prepare_launch</text>
</a>
</g>
</g>
<!-- Node5&#45;&gt;Node6 -->
<g id="edge11" class="edge">
<title>Node5&#45;&gt;Node6</title>
<path fill="none" stroke="midnightblue" d="M1258.56,-152.81C1237.86,-146.13 1213.54,-139.19 1191,-135 988.65,-97.39 744.99,-119.6 620.13,-135.74"/>
<polygon fill="midnightblue" stroke="midnightblue" points="1257.52,-156.15 1268.11,-155.95 1259.7,-149.5 1257.52,-156.15"/>
</g>
<!-- Node8 -->
<g id="node8" class="node">
<title>Node8</title>
<g id="a_node8"><a xlink:href="classrare_1_1game__launch__helper_1_1_game_process_helper.html#a711d1d7df9874db34971779c941c4e5e" target="_top" xlink:title=" ">
<polygon fill="white" stroke="black" points="1062,-145 1062,-175 1191,-175 1191,-145 1062,-145"/>
<text text-anchor="start" x="1070" y="-163" font-family="Helvetica,sans-Serif" font-size="10.00">rare.game_launch_helper.</text>
<text text-anchor="middle" x="1126.5" y="-152" font-family="Helvetica,sans-Serif" font-size="10.00">GameProcessHelper.start</text>
</a>
</g>
</g>
<!-- Node5&#45;&gt;Node8 -->
<g id="edge15" class="edge">
<title>Node5&#45;&gt;Node8</title>
<path fill="none" stroke="midnightblue" d="M1216.67,-165.39C1208.06,-164.87 1199.48,-164.35 1191.23,-163.85"/>
<polygon fill="midnightblue" stroke="midnightblue" points="1216.56,-168.89 1226.75,-166 1216.98,-161.9 1216.56,-168.89"/>
</g>
<!-- Node11 -->
<g id="node11" class="node">
<title>Node11</title>
<g id="a_node11"><a xlink:href="classrare_1_1components_1_1tabs_1_1games_1_1game__utils_1_1_game_utils.html#aa5166679a6b1c69dd24d2e6faa34dc7b" target="_top" xlink:title=" ">
<polygon fill="white" stroke="black" points="656,-262 656,-292 823,-292 823,-262 656,-262"/>
<text text-anchor="start" x="664" y="-280" font-family="Helvetica,sans-Serif" font-size="10.00">rare.components.tabs.games.game</text>
<text text-anchor="middle" x="739.5" y="-269" font-family="Helvetica,sans-Serif" font-size="10.00">_utils.GameUtils.sync_finished</text>
</a>
</g>
</g>
<!-- Node5&#45;&gt;Node11 -->
<g id="edge40" class="edge">
<title>Node5&#45;&gt;Node11</title>
<path fill="none" stroke="midnightblue" d="M1261.16,-189.6C1205.41,-210.16 1110.54,-242.43 1026,-258 958.46,-270.44 880.6,-274.98 823.27,-276.53"/>
<polygon fill="midnightblue" stroke="midnightblue" points="1262.62,-192.79 1270.77,-186.03 1260.18,-186.23 1262.62,-192.79"/>
</g>
<!-- Node6&#45;&gt;Node6 -->
<g id="edge12" class="edge">
<title>Node6&#45;&gt;Node6</title>
<path fill="none" stroke="midnightblue" d="M572.39,-173.46C567.94,-178.18 555.97,-181.5 536.5,-181.5 504.54,-181.5 492.81,-172.56 501.3,-163.16"/>
<polygon fill="midnightblue" stroke="midnightblue" points="575.86,-172.9 571.7,-163.16 568.88,-173.37 575.86,-172.9"/>
</g>
<!-- Node7 -->
<g id="node7" class="node">
<title>Node7</title>
<g id="a_node7"><a xlink:href="classrare_1_1game__launch__helper_1_1_pre_launch_thread.html#a670fe67276cb94775a042958fe2c79d4" target="_top" xlink:title=" ">
<polygon fill="white" stroke="black" points="246.5,-133 246.5,-163 373.5,-163 373.5,-133 246.5,-133"/>
<text text-anchor="start" x="254.5" y="-151" font-family="Helvetica,sans-Serif" font-size="10.00">rare.game_launch_helper.</text>
<text text-anchor="middle" x="310" y="-140" font-family="Helvetica,sans-Serif" font-size="10.00">PreLaunchThread.run</text>
</a>
</g>
</g>
<!-- Node6&#45;&gt;Node7 -->
<g id="edge13" class="edge">
<title>Node6&#45;&gt;Node7</title>
<path fill="none" stroke="midnightblue" d="M442.65,-148C419.47,-148 395.14,-148 373.79,-148"/>
<polygon fill="midnightblue" stroke="midnightblue" points="442.86,-151.5 452.86,-148 442.86,-144.5 442.86,-151.5"/>
</g>
<!-- Node7&#45;&gt;Node7 -->
<g id="edge14" class="edge">
<title>Node7&#45;&gt;Node7</title>
<path fill="none" stroke="midnightblue" d="M350.16,-173.46C345.17,-178.18 331.79,-181.5 310,-181.5 274.25,-181.5 261.12,-172.56 270.61,-163.16"/>
<polygon fill="midnightblue" stroke="midnightblue" points="353.62,-172.87 349.39,-163.16 346.64,-173.39 353.62,-172.87"/>
</g>
<!-- Node8&#45;&gt;Node8 -->
<g id="edge39" class="edge">
<title>Node8&#45;&gt;Node8</title>
<path fill="none" stroke="midnightblue" d="M1159.19,-185.46C1155.14,-190.18 1144.24,-193.5 1126.5,-193.5 1097.39,-193.5 1086.7,-184.56 1094.43,-175.16"/>
<polygon fill="midnightblue" stroke="midnightblue" points="1162.67,-184.93 1158.57,-175.16 1155.68,-185.35 1162.67,-184.93"/>
</g>
<!-- Node9 -->
<g id="node9" class="node">
<title>Node9</title>
<g id="a_node9"><a xlink:href="classrare_1_1components_1_1tabs_1_1shop_1_1shop__models_1_1_browse_model.html#a563276b55376fdd9f495c321c5408906" target="_top" xlink:title=" ">
<polygon fill="white" stroke="black" points="864.5,-200 864.5,-230 1020.5,-230 1020.5,-200 864.5,-200"/>
<text text-anchor="start" x="872.5" y="-218" font-family="Helvetica,sans-Serif" font-size="10.00">rare.components.tabs.shop.shop</text>
<text text-anchor="middle" x="942.5" y="-207" font-family="Helvetica,sans-Serif" font-size="10.00">_models.BrowseModel.__dict__</text>
</a>
</g>
</g>
<!-- Node8&#45;&gt;Node9 -->
<g id="edge16" class="edge">
<title>Node8&#45;&gt;Node9</title>
<path fill="none" stroke="midnightblue" d="M1065.9,-178.01C1042.36,-185.12 1015.63,-193.2 993.17,-199.99"/>
<polygon fill="midnightblue" stroke="midnightblue" points="1067.21,-181.27 1075.77,-175.03 1065.18,-174.57 1067.21,-181.27"/>
</g>
<!-- Node10 -->
<g id="node10" class="node">
<title>Node10</title>
<g id="a_node10"><a xlink:href="classrare_1_1game__launch__helper_1_1_game_process_helper.html#a62864ecc73de3f9e4a009737d0c01f01" target="_top" xlink:title=" ">
<polygon fill="white" stroke="black" points="859,-133 859,-163 1026,-163 1026,-133 859,-133"/>
<text text-anchor="start" x="867" y="-151" font-family="Helvetica,sans-Serif" font-size="10.00">rare.game_launch_helper.</text>
<text text-anchor="middle" x="942.5" y="-140" font-family="Helvetica,sans-Serif" font-size="10.00">GameProcessHelper.launch_game</text>
</a>
</g>
</g>
<!-- Node8&#45;&gt;Node10 -->
<g id="edge18" class="edge">
<title>Node8&#45;&gt;Node10</title>
<path fill="none" stroke="midnightblue" d="M1051.75,-148.5C1043.37,-147.84 1034.79,-147.24 1026.31,-146.73"/>
<polygon fill="midnightblue" stroke="midnightblue" points="1051.59,-152 1061.85,-149.33 1052.17,-145.02 1051.59,-152"/>
</g>
<!-- Node9&#45;&gt;Node9 -->
<g id="edge17" class="edge">
<title>Node9&#45;&gt;Node9</title>
<path fill="none" stroke="midnightblue" d="M975.19,-240.46C971.14,-245.18 960.24,-248.5 942.5,-248.5 913.39,-248.5 902.7,-239.56 910.43,-230.16"/>
<polygon fill="midnightblue" stroke="midnightblue" points="978.67,-239.93 974.57,-230.16 971.68,-240.35 978.67,-239.93"/>
</g>
<!-- Node10&#45;&gt;Node6 -->
<g id="edge20" class="edge">
<title>Node10&#45;&gt;Node6</title>
<path fill="none" stroke="midnightblue" d="M848.35,-148C779.43,-148 686.4,-148 620.12,-148"/>
<polygon fill="midnightblue" stroke="midnightblue" points="848.77,-151.5 858.77,-148 848.77,-144.5 848.77,-151.5"/>
</g>
<!-- Node10&#45;&gt;Node8 -->
<g id="edge21" class="edge">
<title>Node10&#45;&gt;Node8</title>
<path fill="none" stroke="midnightblue" d="M1036.41,-160.87C1045.01,-161.43 1053.59,-161.9 1061.85,-162.27"/>
<polygon fill="midnightblue" stroke="midnightblue" points="1036.53,-157.37 1026.31,-160.19 1036.05,-164.36 1036.53,-157.37"/>
</g>
<!-- Node10&#45;&gt;Node10 -->
<g id="edge19" class="edge">
<title>Node10&#45;&gt;Node10</title>
<path fill="none" stroke="midnightblue" d="M975.19,-173.46C971.14,-178.18 960.24,-181.5 942.5,-181.5 913.39,-181.5 902.7,-172.56 910.43,-163.16"/>
<polygon fill="midnightblue" stroke="midnightblue" points="978.67,-172.93 974.57,-163.16 971.68,-173.35 978.67,-172.93"/>
</g>
<!-- Node10&#45;&gt;Node11 -->
<g id="edge22" class="edge">
<title>Node10&#45;&gt;Node11</title>
<path fill="none" stroke="midnightblue" d="M899.38,-167.79C886.2,-174.42 871.77,-182.13 859,-190 822.06,-212.76 781.92,-243.65 759.13,-261.85"/>
<polygon fill="midnightblue" stroke="midnightblue" points="901.3,-170.74 908.71,-163.17 898.19,-164.47 901.3,-170.74"/>
</g>
<!-- Node11&#45;&gt;Node2 -->
<g id="edge23" class="edge">
<title>Node11&#45;&gt;Node2</title>
<path fill="none" stroke="midnightblue" d="M833.51,-291.35C911.33,-302.12 1025.39,-315 1125.5,-315 1311.5,-315 1311.5,-315 1311.5,-315 1423.16,-315 1551.42,-300.43 1632.92,-289.34"/>
<polygon fill="midnightblue" stroke="midnightblue" points="833.64,-287.84 823.25,-289.92 832.67,-294.77 833.64,-287.84"/>
</g>
<!-- Node11&#45;&gt;Node6 -->
<g id="edge24" class="edge">
<title>Node11&#45;&gt;Node6</title>
<path fill="none" stroke="midnightblue" d="M706.62,-256.54C666.13,-230.55 597.2,-186.31 561.11,-163.15"/>
<polygon fill="midnightblue" stroke="midnightblue" points="704.74,-259.49 715.05,-261.95 708.52,-253.6 704.74,-259.49"/>
</g>
<!-- Node11&#45;&gt;Node11 -->
<g id="edge25" class="edge">
<title>Node11&#45;&gt;Node11</title>
<path fill="none" stroke="midnightblue" d="M775.39,-302.46C770.94,-307.18 758.97,-310.5 739.5,-310.5 707.54,-310.5 695.81,-301.56 704.3,-292.16"/>
<polygon fill="midnightblue" stroke="midnightblue" points="778.86,-301.9 774.7,-292.16 771.88,-302.37 778.86,-301.9"/>
</g>
<!-- Node12 -->
<g id="node12" class="node">
<title>Node12</title>
<g id="a_node12"><a xlink:href="classrare_1_1components_1_1tabs_1_1games_1_1cloud__save__utils_1_1_cloud_save_utils.html#a305cbdbdf1c59aacea30610a562ac40d" target="_top" xlink:title=" ">
<polygon fill="white" stroke="black" points="453,-260.5 453,-301.5 620,-301.5 620,-260.5 453,-260.5"/>
<text text-anchor="start" x="461" y="-289.5" font-family="Helvetica,sans-Serif" font-size="10.00">rare.components.tabs.games.cloud</text>
<text text-anchor="start" x="461" y="-278.5" font-family="Helvetica,sans-Serif" font-size="10.00">_save_utils.CloudSaveUtils.worker</text>
<text text-anchor="middle" x="536.5" y="-267.5" font-family="Helvetica,sans-Serif" font-size="10.00">_finished</text>
</a>
</g>
</g>
<!-- Node11&#45;&gt;Node12 -->
<g id="edge26" class="edge">
<title>Node11&#45;&gt;Node12</title>
<path fill="none" stroke="midnightblue" d="M645.85,-278.84C637.27,-279.01 628.61,-279.19 620.13,-279.36"/>
<polygon fill="midnightblue" stroke="midnightblue" points="645.95,-282.34 655.88,-278.64 645.81,-275.34 645.95,-282.34"/>
</g>
<!-- Node12&#45;&gt;Node12 -->
<g id="edge38" class="edge">
<title>Node12&#45;&gt;Node12</title>
<path fill="none" stroke="midnightblue" d="M571.25,-311.86C566.08,-316.7 554.5,-320 536.5,-320 507.7,-320 495.32,-311.54 499.37,-301.86"/>
<polygon fill="midnightblue" stroke="midnightblue" points="574.72,-312.4 573.63,-301.86 567.91,-310.78 574.72,-312.4"/>
</g>
<!-- Node13 -->
<g id="node13" class="node">
<title>Node13</title>
<g id="a_node13"><a xlink:href="classrare_1_1components_1_1tabs_1_1settings_1_1widgets_1_1ubisoft__activation_1_1_ubi_link_widget.html#a8f9705707225e3a806138596d5edae0d" target="_top" xlink:title=" ">
<polygon fill="white" stroke="black" points="203,-221 203,-251 417,-251 417,-221 203,-221"/>
<text text-anchor="start" x="211" y="-239" font-family="Helvetica,sans-Serif" font-size="10.00">rare.components.tabs.settings.widgets.ubisoft</text>
<text text-anchor="middle" x="310" y="-228" font-family="Helvetica,sans-Serif" font-size="10.00">_activation.UbiLinkWidget.activate</text>
</a>
</g>
</g>
<!-- Node12&#45;&gt;Node13 -->
<g id="edge27" class="edge">
<title>Node12&#45;&gt;Node13</title>
<path fill="none" stroke="midnightblue" d="M443.02,-262.46C424.05,-258.66 404.3,-254.7 386.04,-251.04"/>
<polygon fill="midnightblue" stroke="midnightblue" points="442.37,-265.9 452.86,-264.44 443.74,-259.04 442.37,-265.9"/>
</g>
<!-- Node14 -->
<g id="node14" class="node">
<title>Node14</title>
<g id="a_node14"><a xlink:href="classrare_1_1components_1_1tabs_1_1games_1_1cloud__save__utils_1_1_cloud_save_utils.html#a398a7b51391d4f2b1854e3d8cda2f9a3" target="_top" xlink:title=" ">
<polygon fill="white" stroke="black" points="204.5,-355 204.5,-385 415.5,-385 415.5,-355 204.5,-355"/>
<text text-anchor="start" x="212.5" y="-373" font-family="Helvetica,sans-Serif" font-size="10.00">rare.components.tabs.games.cloud</text>
<text text-anchor="middle" x="310" y="-362" font-family="Helvetica,sans-Serif" font-size="10.00">_save_utils.CloudSaveUtils.download_saves</text>
</a>
</g>
</g>
<!-- Node12&#45;&gt;Node14 -->
<g id="edge29" class="edge">
<title>Node12&#45;&gt;Node14</title>
<path fill="none" stroke="midnightblue" d="M494.66,-307.11C472.42,-320.36 444,-335.77 417,-346 408.09,-349.38 398.57,-352.35 389.03,-354.96"/>
<polygon fill="midnightblue" stroke="midnightblue" points="496.73,-309.94 503.48,-301.77 493.11,-303.95 496.73,-309.94"/>
</g>
<!-- Node16 -->
<g id="node16" class="node">
<title>Node16</title>
<g id="a_node16"><a xlink:href="classrare_1_1components_1_1tabs_1_1games_1_1cloud__save__utils_1_1_cloud_save_utils.html#aabe920f2c8b262a0d16df2ef0ceafad8" target="_top" xlink:title=" ">
<polygon fill="white" stroke="black" points="211,-288 211,-318 409,-318 409,-288 211,-288"/>
<text text-anchor="start" x="219" y="-306" font-family="Helvetica,sans-Serif" font-size="10.00">rare.components.tabs.games.cloud</text>
<text text-anchor="middle" x="310" y="-295" font-family="Helvetica,sans-Serif" font-size="10.00">_save_utils.CloudSaveUtils.upload_saves</text>
</a>
</g>
</g>
<!-- Node12&#45;&gt;Node16 -->
<g id="edge34" class="edge">
<title>Node12&#45;&gt;Node16</title>
<path fill="none" stroke="midnightblue" d="M442.74,-290.09C431.62,-291.18 420.24,-292.29 409.06,-293.39"/>
<polygon fill="midnightblue" stroke="midnightblue" points="443.25,-293.56 452.86,-289.1 442.57,-286.59 443.25,-293.56"/>
</g>
<!-- Node13&#45;&gt;Node13 -->
<g id="edge28" class="edge">
<title>Node13&#45;&gt;Node13</title>
<path fill="none" stroke="midnightblue" d="M350.16,-261.46C345.17,-266.18 331.79,-269.5 310,-269.5 274.25,-269.5 261.12,-260.56 270.61,-251.16"/>
<polygon fill="midnightblue" stroke="midnightblue" points="353.62,-260.87 349.39,-251.16 346.64,-261.39 353.62,-260.87"/>
</g>
<!-- Node14&#45;&gt;Node2 -->
<g id="edge31" class="edge">
<title>Node14&#45;&gt;Node2</title>
<path fill="none" stroke="midnightblue" d="M425.95,-378.71C511.97,-384.48 632.53,-391 738.5,-391 1311.5,-391 1311.5,-391 1311.5,-391 1439.96,-391 1475.98,-389.06 1597,-346 1629.75,-334.35 1663.68,-313.55 1686.8,-297.82"/>
<polygon fill="midnightblue" stroke="midnightblue" points="426.12,-375.21 415.9,-378.03 425.64,-382.2 426.12,-375.21"/>
</g>
<!-- Node14&#45;&gt;Node14 -->
<g id="edge30" class="edge">
<title>Node14&#45;&gt;Node14</title>
<path fill="none" stroke="midnightblue" d="M350.16,-395.46C345.17,-400.18 331.79,-403.5 310,-403.5 274.25,-403.5 261.12,-394.56 270.61,-385.16"/>
<polygon fill="midnightblue" stroke="midnightblue" points="353.62,-394.87 349.39,-385.16 346.64,-395.39 353.62,-394.87"/>
</g>
<!-- Node14&#45;&gt;Node15 -->
<g id="edge32" class="edge">
<title>Node14&#45;&gt;Node15</title>
<path fill="none" stroke="midnightblue" d="M226.94,-352.5C218.82,-350.44 210.72,-348.27 203,-346 181.05,-339.56 157.28,-331.21 136.83,-323.59"/>
<polygon fill="midnightblue" stroke="midnightblue" points="226.3,-355.94 236.84,-354.94 227.97,-349.15 226.3,-355.94"/>
</g>
<!-- Node15&#45;&gt;Node15 -->
<g id="edge33" class="edge">
<title>Node15&#45;&gt;Node15</title>
<path fill="none" stroke="midnightblue" d="M122.38,-333.86C116.6,-338.7 103.64,-342 83.5,-342 51.28,-342 37.43,-333.54 41.96,-323.86"/>
<polygon fill="midnightblue" stroke="midnightblue" points="125.85,-334.43 125.04,-323.86 119.09,-332.63 125.85,-334.43"/>
</g>
<!-- Node16&#45;&gt;Node2 -->
<g id="edge35" class="edge">
<title>Node16&#45;&gt;Node2</title>
<path fill="none" stroke="midnightblue" d="M395.62,-319.89C414.46,-323.26 434.36,-326.52 453,-329 579.22,-345.82 611.16,-353 738.5,-353 1311.5,-353 1311.5,-353 1311.5,-353 1439.45,-353 1472.23,-344.35 1597,-316 1618.01,-311.23 1640.59,-304.27 1660.35,-297.55"/>
<polygon fill="midnightblue" stroke="midnightblue" points="396.05,-316.41 385.58,-318.06 394.8,-323.29 396.05,-316.41"/>
</g>
<!-- Node16&#45;&gt;Node15 -->
<g id="edge36" class="edge">
<title>Node16&#45;&gt;Node15</title>
<path fill="none" stroke="midnightblue" d="M200.53,-303C189.25,-303 177.93,-303 167.01,-303"/>
<polygon fill="midnightblue" stroke="midnightblue" points="200.86,-306.5 210.86,-303 200.86,-299.5 200.86,-306.5"/>
</g>
<!-- Node16&#45;&gt;Node16 -->
<g id="edge37" class="edge">
<title>Node16&#45;&gt;Node16</title>
<path fill="none" stroke="midnightblue" d="M350.16,-328.46C345.17,-333.18 331.79,-336.5 310,-336.5 274.25,-336.5 261.12,-327.56 270.61,-318.16"/>
<polygon fill="midnightblue" stroke="midnightblue" points="353.62,-327.87 349.39,-318.16 346.64,-328.39 353.62,-327.87"/>
</g>
<!-- Node17&#45;&gt;Node17 -->
<g id="edge44" class="edge">
<title>Node17&#45;&gt;Node17</title>
<path fill="none" stroke="midnightblue" d="M1747.19,-28.27C1746.31,-33.74 1736.08,-38 1716.5,-38 1687.35,-38 1678.93,-28.57 1691.22,-19.76"/>
<polygon fill="midnightblue" stroke="midnightblue" points="1750.09,-26.32 1741.78,-19.76 1744.19,-30.07 1750.09,-26.32"/>
</g>
</g>
</svg>
        <g id="navigator" transform="translate(0 0)" fill="#404254">
                <rect fill="#f2f5e9" fill-opacity="0.5" stroke="#606060" stroke-width=".5" x="0" y="0" width="60" height="60"/>
                <use id="zoomplus" xlink:href="#zoomPlus" x="17" y="9" onmousedown="handleZoom(evt,'in')"/>
                <use id="zoomminus" xlink:href="#zoomMin" x="42" y="9" onmousedown="handleZoom(evt,'out')"/>
                <use id="reset" xlink:href="#resetDef" x="30" y="36" onmousedown="handleReset()"/>
                <g id="arrowUp" xlink:href="#dirArrow" transform="translate(30 24)" onmousedown="handlePan(0,-1)">
                  <use xlink:href="#rim" fill="#404040">
                        <set attributeName="fill" to="#808080" begin="arrowUp.mouseover" end="arrowUp.mouseout"/>
                  </use>
                  <path fill="none" stroke="white" stroke-width="1.5" d="M0,-3.0v7 M-2.5,-0.5L0,-3.0L2.5,-0.5"/>
                </g>
                <g id="arrowRight" xlink:href="#dirArrow" transform="rotate(90) translate(36 -43)" onmousedown="handlePan(1,0)">
                  <use xlink:href="#rim" fill="#404040">
                        <set attributeName="fill" to="#808080" begin="arrowRight.mouseover" end="arrowRight.mouseout"/>
                  </use>
                  <path fill="none" stroke="white" stroke-width="1.5" d="M0,-3.0v7 M-2.5,-0.5L0,-3.0L2.5,-0.5"/>
                </g>
                <g id="arrowDown" xlink:href="#dirArrow" transform="rotate(180) translate(-30 -48)" onmousedown="handlePan(0,1)">
                  <use xlink:href="#rim" fill="#404040">
                        <set attributeName="fill" to="#808080" begin="arrowDown.mouseover" end="arrowDown.mouseout"/>
                  </use>
                  <path fill="none" stroke="white" stroke-width="1.5" d="M0,-3.0v7 M-2.5,-0.5L0,-3.0L2.5,-0.5"/>
                </g>
                <g id="arrowLeft" xlink:href="#dirArrow" transform="rotate(270) translate(-36 17)" onmousedown="handlePan(-1,0)">
                  <use xlink:href="#rim" fill="#404040">
                        <set attributeName="fill" to="#808080" begin="arrowLeft.mouseover" end="arrowLeft.mouseout"/>
                  </use>
                  <path fill="none" stroke="white" stroke-width="1.5" d="M0,-3.0v7 M-2.5,-0.5L0,-3.0L2.5,-0.5"/>
                </g>
        </g>
        <svg viewBox="0 0 15 15" width="100%" height="30px" preserveAspectRatio="xMaxYMin meet">
         <g id="arrow_out" transform="scale(0.3 0.3)">
          <a xlink:href="classlegendary_1_1cli_1_1_legendary_c_l_i_a7ef5cfe5910b87654ad404e0d48935f9_icgraph_org.svg" target="_base">
           <rect id="button" ry="5" rx="5" y="6" x="6" height="38" width="38"
                fill="#f2f5e9" fill-opacity="0.5" stroke="#606060" stroke-width="1.0"/>
           <path id="arrow"
             d="M 11.500037,31.436501 C 11.940474,20.09759 22.043105,11.32322 32.158766,21.979434 L 37.068811,17.246167 C 37.068811,17.246167 37.088388,32 37.088388,32 L 22.160133,31.978069 C 22.160133,31.978069 26.997745,27.140456 26.997745,27.140456 C 18.528582,18.264221 13.291696,25.230495 11.500037,31.436501 z"
             style="fill:#404040;"/>
          </a>
         </g>
        </svg>
</svg>
