<?xml version="1.0" encoding="UTF-8" standalone="no"?>
<!DOCTYPE svg PUBLIC "-//W3C//DTD SVG 1.1//EN"
 "http://www.w3.org/Graphics/SVG/1.1/DTD/svg11.dtd">
<!-- Generated by graphviz version 2.49.3 (20211027.1534)
 -->
<!-- Title: import_folder_changed Pages: 1 -->
<svg width="359pt" height="124pt"
 viewBox="0.00 0.00 359.00 124.00" xmlns="http://www.w3.org/2000/svg" xmlns:xlink="http://www.w3.org/1999/xlink">
<g id="graph0" class="graph" transform="scale(1 1) rotate(0) translate(4 120)">
<title>import_folder_changed</title>
<polygon fill="white" stroke="transparent" points="-4,4 -4,-120 355,-120 355,4 -4,4"/>
<!-- Node1 -->
<g id="node1" class="node">
<title>Node1</title>
<g id="a_node1"><a xlink:title=" ">
<polygon fill="#bfbfbf" stroke="black" points="0,-39 0,-58 115,-58 115,-39 0,-39"/>
<text text-anchor="middle" x="57.5" y="-46" font-family="Helvetica,sans-Serif" font-size="10.00">import_folder_changed</text>
</a>
</g>
</g>
<!-- Node1&#45;&gt;Node1 -->
<g id="edge3" class="edge">
<title>Node1&#45;&gt;Node1</title>
<path fill="none" stroke="midnightblue" d="M27.91,-58.26C13.51,-67.07 23.38,-76.5 57.5,-76.5 81.49,-76.5 93.49,-71.84 93.5,-66"/>
<polygon fill="midnightblue" stroke="midnightblue" points="96.16,-63.73 87.09,-58.26 90.77,-68.19 96.16,-63.73"/>
</g>
<!-- Node2 -->
<g id="node2" class="node">
<title>Node2</title>
<g id="a_node2"><a xlink:href="classrare_1_1shared_1_1rare__core_1_1_rare_core.html#a405e1a4f20f16120f872ccd2654a1d56" target="_top" xlink:title=" ">
<polygon fill="white" stroke="black" points="186,-67.5 186,-97.5 316,-97.5 316,-67.5 186,-67.5"/>
<text text-anchor="start" x="194" y="-85.5" font-family="Helvetica,sans-Serif" font-size="10.00">rare.shared.rare_core.Rare</text>
<text text-anchor="middle" x="251" y="-74.5" font-family="Helvetica,sans-Serif" font-size="10.00">Core.core</text>
</a>
</g>
</g>
<!-- Node1&#45;&gt;Node2 -->
<g id="edge1" class="edge">
<title>Node1&#45;&gt;Node2</title>
<path fill="none" stroke="midnightblue" d="M112.1,-58.02C131.87,-61.53 154.64,-65.57 175.91,-69.34"/>
<polygon fill="midnightblue" stroke="midnightblue" points="175.42,-72.81 185.88,-71.12 176.64,-65.92 175.42,-72.81"/>
</g>
<!-- Node3 -->
<g id="node3" class="node">
<title>Node3</title>
<g id="a_node3"><a xlink:href="classrare_1_1components_1_1tabs_1_1library_1_1widgets_1_1game__widget_1_1_game_widget.html#aa660d748bc3a0c7c2dfaa15cee8e6ba6" target="_top" xlink:title=" ">
<polygon fill="white" stroke="black" points="151,-0.5 151,-30.5 351,-30.5 351,-0.5 151,-0.5"/>
<text text-anchor="start" x="159" y="-18.5" font-family="Helvetica,sans-Serif" font-size="10.00">rare.components.tabs.library.widgets.game</text>
<text text-anchor="middle" x="251" y="-7.5" font-family="Helvetica,sans-Serif" font-size="10.00">_widget.GameWidget.ui</text>
</a>
</g>
</g>
<!-- Node1&#45;&gt;Node3 -->
<g id="edge4" class="edge">
<title>Node1&#45;&gt;Node3</title>
<path fill="none" stroke="midnightblue" d="M113.63,-39C125.87,-36.89 139.2,-34.59 152.57,-32.29"/>
<polygon fill="midnightblue" stroke="midnightblue" points="153.52,-35.68 162.78,-30.53 152.33,-28.78 153.52,-35.68"/>
</g>
<!-- Node2&#45;&gt;Node2 -->
<g id="edge2" class="edge">
<title>Node2&#45;&gt;Node2</title>
<path fill="none" stroke="midnightblue" d="M217.54,-97.66C209.47,-107.06 220.62,-116 251,-116 269.51,-116 280.88,-112.68 285.12,-107.96"/>
<polygon fill="midnightblue" stroke="midnightblue" points="288.59,-107.42 284.46,-97.66 281.6,-107.86 288.59,-107.42"/>
</g>
<!-- Node3&#45;&gt;Node3 -->
<g id="edge5" class="edge">
<title>Node3&#45;&gt;Node3</title>
<path fill="none" stroke="midnightblue" d="M217.54,-30.66C209.47,-40.06 220.62,-49 251,-49 269.51,-49 280.88,-45.68 285.12,-40.96"/>
<polygon fill="midnightblue" stroke="midnightblue" points="288.59,-40.42 284.46,-30.66 281.6,-40.86 288.59,-40.42"/>
</g>
</g>
</svg>
