<?xml version="1.0" encoding="UTF-8" standalone="no"?>
<!DOCTYPE svg PUBLIC "-//W3C//DTD SVG 1.1//EN"
 "http://www.w3.org/Graphics/SVG/1.1/DTD/svg11.dtd">
<!-- Generated by graphviz version 2.49.3 (20211027.1534)
 -->
<!-- Title: set_discord_rpc Pages: 1 -->
<!--zoomable 152 -->
<svg id="main" version="1.1" xmlns="http://www.w3.org/2000/svg" xmlns:xlink="http://www.w3.org/1999/xlink" xml:space="preserve" onload="init(evt)">
<style type="text/css"><![CDATA[
.edge:hover path { stroke: red; }
.edge:hover polygon { stroke: red; fill: red; }
]]></style>
<script type="text/javascript"><![CDATA[
var edges = document.getElementsByTagName('g');
if (edges && edges.length) {
  for (var i=0;i<edges.length;i++) {
    if (edges[i].id.substr(0,4)=='edge') {
      edges[i].setAttribute('class','edge');
    }
  }
}
]]></script>
        <defs>
                <circle id="rim" cx="0" cy="0" r="7"/>
                <circle id="rim2" cx="0" cy="0" r="3.5"/>
                <g id="zoomPlus">
                        <use xlink:href="#rim" fill="#404040">
                                <set attributeName="fill" to="#808080" begin="zoomplus.mouseover" end="zoomplus.mouseout"/>
                        </use>
                        <path d="M-4,0h8M0,-4v8" fill="none" stroke="white" stroke-width="1.5" pointer-events="none"/>
                </g>
                <g id="zoomMin">
                        <use xlink:href="#rim" fill="#404040">
                                <set attributeName="fill" to="#808080" begin="zoomminus.mouseover" end="zoomminus.mouseout"/>
                        </use>
                        <path d="M-4,0h8" fill="none" stroke="white" stroke-width="1.5" pointer-events="none"/>
                </g>
                <g id="dirArrow">
                        <path fill="none" stroke="white" stroke-width="1.5" d="M0,-3.0v7 M-2.5,-0.5L0,-3.0L2.5,-0.5"/>
                </g>
               <g id="resetDef">
                       <use xlink:href="#rim2" fill="#404040">
                               <set attributeName="fill" to="#808080" begin="reset.mouseover" end="reset.mouseout"/>
                       </use>
               </g>
        </defs>

<script type="text/javascript">
var viewWidth = 529;
var viewHeight = 152;
var sectionId = 'dynsection-8';
</script>
<script xlink:href="svgpan.js"/>
<svg id="graph" class="graph">
<g id="viewport">
<title>set_discord_rpc</title>
<polygon fill="white" stroke="transparent" points="-4,4 -4,-147.5 525,-147.5 525,4 -4,4"/>
<!-- Node1 -->
<g id="node1" class="node">
<title>Node1</title>
<g id="a_node1"><a xlink:title=" ">
<polygon fill="#bfbfbf" stroke="black" points="0,-28.5 0,-47.5 86,-47.5 86,-28.5 0,-28.5"/>
<text text-anchor="middle" x="43" y="-35.5" font-family="Helvetica,sans-Serif" font-size="10.00">set_discord_rpc</text>
</a>
</g>
</g>
<!-- Node1&#45;&gt;Node1 -->
<g id="edge1" class="edge">
<title>Node1&#45;&gt;Node1</title>
<path fill="none" stroke="midnightblue" d="M26.05,-47.76C17.8,-56.57 23.45,-66 43,-66 55.22,-66 62.01,-62.31 63.37,-57.4"/>
<polygon fill="midnightblue" stroke="midnightblue" points="66.59,-56.01 59.95,-47.76 59.99,-58.35 66.59,-56.01"/>
</g>
<!-- Node2 -->
<g id="node2" class="node">
<title>Node2</title>
<g id="a_node2"><a xlink:href="classrare_1_1utils_1_1rpc_1_1_discord_r_p_c.html#ab988e5fe435f9b45eab3c4e32ba0862b" target="_top" xlink:title=" ">
<polygon fill="white" stroke="black" points="122,-51.5 122,-70.5 187,-70.5 187,-51.5 122,-51.5"/>
<text text-anchor="middle" x="154.5" y="-58.5" font-family="Helvetica,sans-Serif" font-size="10.00">update_rpc</text>
</a>
</g>
</g>
<!-- Node1&#45;&gt;Node2 -->
<g id="edge2" class="edge">
<title>Node1&#45;&gt;Node2</title>
<path fill="none" stroke="midnightblue" d="M86.02,-46.83C94.51,-48.61 103.43,-50.48 111.91,-52.26"/>
<polygon fill="midnightblue" stroke="midnightblue" points="111.46,-55.75 121.97,-54.38 112.9,-48.9 111.46,-55.75"/>
</g>
<!-- Node2&#45;&gt;Node2 -->
<g id="edge11" class="edge">
<title>Node2&#45;&gt;Node2</title>
<path fill="none" stroke="midnightblue" d="M137.55,-70.76C129.3,-79.57 134.95,-89 154.5,-89 166.72,-89 173.51,-85.31 174.87,-80.4"/>
<polygon fill="midnightblue" stroke="midnightblue" points="178.09,-79.01 171.45,-70.76 171.49,-81.35 178.09,-79.01"/>
</g>
<!-- Node3 -->
<g id="node3" class="node">
<title>Node3</title>
<g id="a_node3"><a xlink:href="classrare_1_1shared_1_1rare__core_1_1_rare_core.html#a405e1a4f20f16120f872ccd2654a1d56" target="_top" xlink:title=" ">
<polygon fill="white" stroke="black" points="223,-95 223,-125 353,-125 353,-95 223,-95"/>
<text text-anchor="start" x="231" y="-113" font-family="Helvetica,sans-Serif" font-size="10.00">rare.shared.rare_core.Rare</text>
<text text-anchor="middle" x="288" y="-102" font-family="Helvetica,sans-Serif" font-size="10.00">Core.core</text>
</a>
</g>
</g>
<!-- Node2&#45;&gt;Node3 -->
<g id="edge3" class="edge">
<title>Node2&#45;&gt;Node3</title>
<path fill="none" stroke="midnightblue" d="M181.17,-70.56C197.09,-76.5 218.08,-84.32 237.17,-91.43"/>
<polygon fill="midnightblue" stroke="midnightblue" points="236.05,-94.75 246.65,-94.96 238.5,-88.19 236.05,-94.75"/>
</g>
<!-- Node4 -->
<g id="node4" class="node">
<title>Node4</title>
<g id="a_node4"><a xlink:href="classrare_1_1utils_1_1rpc_1_1_discord_r_p_c.html#a322ebb4953da62177002651ba9b4edc1" target="_top" xlink:title=" ">
<polygon fill="white" stroke="black" points="254,-0.5 254,-19.5 322,-19.5 322,-0.5 254,-0.5"/>
<text text-anchor="middle" x="288" y="-7.5" font-family="Helvetica,sans-Serif" font-size="10.00">remove_rpc</text>
</a>
</g>
</g>
<!-- Node2&#45;&gt;Node4 -->
<g id="edge5" class="edge">
<title>Node2&#45;&gt;Node4</title>
<path fill="none" stroke="midnightblue" d="M180.23,-51.41C200.71,-43.46 230.03,-32.09 252.77,-23.28"/>
<polygon fill="midnightblue" stroke="midnightblue" points="254.32,-26.43 262.38,-19.55 251.79,-19.9 254.32,-26.43"/>
</g>
<!-- Node5 -->
<g id="node5" class="node">
<title>Node5</title>
<g id="a_node5"><a xlink:href="classrare_1_1models_1_1game_1_1_rare_eos_overlay.html#a95c2692b4805ee1742eee7941b7fdd74" target="_top" xlink:title=" ">
<polygon fill="white" stroke="black" points="389,-23 389,-53 521,-53 521,-23 389,-23"/>
<text text-anchor="start" x="397" y="-41" font-family="Helvetica,sans-Serif" font-size="10.00">rare.models.game.RareEos</text>
<text text-anchor="middle" x="455" y="-30" font-family="Helvetica,sans-Serif" font-size="10.00">Overlay.state</text>
</a>
</g>
</g>
<!-- Node2&#45;&gt;Node5 -->
<g id="edge10" class="edge">
<title>Node2&#45;&gt;Node5</title>
<path fill="none" stroke="midnightblue" d="M187.33,-58.92C226.37,-56.33 294.58,-51.67 353,-47 361.32,-46.33 370.03,-45.61 378.69,-44.86"/>
<polygon fill="midnightblue" stroke="midnightblue" points="379.16,-48.33 388.82,-43.98 378.55,-41.36 379.16,-48.33"/>
</g>
<!-- Node3&#45;&gt;Node3 -->
<g id="edge4" class="edge">
<title>Node3&#45;&gt;Node3</title>
<path fill="none" stroke="midnightblue" d="M265,-125.16C259.45,-134.56 267.12,-143.5 288,-143.5 300.73,-143.5 308.54,-140.18 311.45,-135.46"/>
<polygon fill="midnightblue" stroke="midnightblue" points="314.94,-135 311,-125.16 307.94,-135.3 314.94,-135"/>
</g>
<!-- Node4&#45;&gt;Node1 -->
<g id="edge7" class="edge">
<title>Node4&#45;&gt;Node1</title>
<path fill="none" stroke="midnightblue" d="M253.66,-13.84C213.02,-18.52 143.89,-26.49 96.19,-31.99"/>
<polygon fill="midnightblue" stroke="midnightblue" points="95.58,-28.53 86.05,-33.15 96.38,-35.49 95.58,-28.53"/>
</g>
<!-- Node4&#45;&gt;Node4 -->
<g id="edge6" class="edge">
<title>Node4&#45;&gt;Node4</title>
<path fill="none" stroke="midnightblue" d="M267.65,-19.76C257.76,-28.57 264.54,-38 288,-38 303.03,-38 311.21,-34.13 312.55,-29.03"/>
<polygon fill="midnightblue" stroke="midnightblue" points="315.67,-27.42 308.35,-19.76 309.29,-30.31 315.67,-27.42"/>
</g>
<!-- Node4&#45;&gt;Node5 -->
<g id="edge8" class="edge">
<title>Node4&#45;&gt;Node5</title>
<path fill="none" stroke="midnightblue" d="M322.39,-15.67C338.74,-18.44 359.14,-21.9 378.96,-25.27"/>
<polygon fill="midnightblue" stroke="midnightblue" points="378.49,-28.74 388.94,-26.96 379.67,-21.84 378.49,-28.74"/>
</g>
<!-- Node5&#45;&gt;Node5 -->
<g id="edge9" class="edge">
<title>Node5&#45;&gt;Node5</title>
<path fill="none" stroke="midnightblue" d="M426.07,-53.16C419.1,-62.56 428.74,-71.5 455,-71.5 471,-71.5 480.84,-68.18 484.5,-63.46"/>
<polygon fill="midnightblue" stroke="midnightblue" points="487.97,-62.95 483.93,-53.16 480.98,-63.34 487.97,-62.95"/>
</g>
</g>
</svg>
        <g id="navigator" transform="translate(0 0)" fill="#404254">
                <rect fill="#f2f5e9" fill-opacity="0.5" stroke="#606060" stroke-width=".5" x="0" y="0" width="60" height="60"/>
                <use id="zoomplus" xlink:href="#zoomPlus" x="17" y="9" onmousedown="handleZoom(evt,'in')"/>
                <use id="zoomminus" xlink:href="#zoomMin" x="42" y="9" onmousedown="handleZoom(evt,'out')"/>
                <use id="reset" xlink:href="#resetDef" x="30" y="36" onmousedown="handleReset()"/>
                <g id="arrowUp" xlink:href="#dirArrow" transform="translate(30 24)" onmousedown="handlePan(0,-1)">
                  <use xlink:href="#rim" fill="#404040">
                        <set attributeName="fill" to="#808080" begin="arrowUp.mouseover" end="arrowUp.mouseout"/>
                  </use>
                  <path fill="none" stroke="white" stroke-width="1.5" d="M0,-3.0v7 M-2.5,-0.5L0,-3.0L2.5,-0.5"/>
                </g>
                <g id="arrowRight" xlink:href="#dirArrow" transform="rotate(90) translate(36 -43)" onmousedown="handlePan(1,0)">
                  <use xlink:href="#rim" fill="#404040">
                        <set attributeName="fill" to="#808080" begin="arrowRight.mouseover" end="arrowRight.mouseout"/>
                  </use>
                  <path fill="none" stroke="white" stroke-width="1.5" d="M0,-3.0v7 M-2.5,-0.5L0,-3.0L2.5,-0.5"/>
                </g>
                <g id="arrowDown" xlink:href="#dirArrow" transform="rotate(180) translate(-30 -48)" onmousedown="handlePan(0,1)">
                  <use xlink:href="#rim" fill="#404040">
                        <set attributeName="fill" to="#808080" begin="arrowDown.mouseover" end="arrowDown.mouseout"/>
                  </use>
                  <path fill="none" stroke="white" stroke-width="1.5" d="M0,-3.0v7 M-2.5,-0.5L0,-3.0L2.5,-0.5"/>
                </g>
                <g id="arrowLeft" xlink:href="#dirArrow" transform="rotate(270) translate(-36 17)" onmousedown="handlePan(-1,0)">
                  <use xlink:href="#rim" fill="#404040">
                        <set attributeName="fill" to="#808080" begin="arrowLeft.mouseover" end="arrowLeft.mouseout"/>
                  </use>
                  <path fill="none" stroke="white" stroke-width="1.5" d="M0,-3.0v7 M-2.5,-0.5L0,-3.0L2.5,-0.5"/>
                </g>
        </g>
        <svg viewBox="0 0 15 15" width="100%" height="30px" preserveAspectRatio="xMaxYMin meet">
         <g id="arrow_out" transform="scale(0.3 0.3)">
          <a xlink:href="classrare_1_1utils_1_1rpc_1_1_discord_r_p_c_a91d8946fb4a846f63b5c18378e0c7bda_cgraph_org.svg" target="_base">
           <rect id="button" ry="5" rx="5" y="6" x="6" height="38" width="38"
                fill="#f2f5e9" fill-opacity="0.5" stroke="#606060" stroke-width="1.0"/>
           <path id="arrow"
             d="M 11.500037,31.436501 C 11.940474,20.09759 22.043105,11.32322 32.158766,21.979434 L 37.068811,17.246167 C 37.068811,17.246167 37.088388,32 37.088388,32 L 22.160133,31.978069 C 22.160133,31.978069 26.997745,27.140456 26.997745,27.140456 C 18.528582,18.264221 13.291696,25.230495 11.500037,31.436501 z"
             style="fill:#404040;"/>
          </a>
         </g>
        </svg>
</svg>
