<?xml version="1.0" encoding="UTF-8" standalone="no"?>
<!DOCTYPE svg PUBLIC "-//W3C//DTD SVG 1.1//EN"
 "http://www.w3.org/Graphics/SVG/1.1/DTD/svg11.dtd">
<!-- Generated by graphviz version 2.49.3 (20211027.1534)
 -->
<!-- Title: install_path Pages: 1 -->
<!--zoomable 248 -->
<svg id="main" version="1.1" xmlns="http://www.w3.org/2000/svg" xmlns:xlink="http://www.w3.org/1999/xlink" xml:space="preserve" onload="init(evt)">
<style type="text/css"><![CDATA[
.edge:hover path { stroke: red; }
.edge:hover polygon { stroke: red; fill: red; }
]]></style>
<script type="text/javascript"><![CDATA[
var edges = document.getElementsByTagName('g');
if (edges && edges.length) {
  for (var i=0;i<edges.length;i++) {
    if (edges[i].id.substr(0,4)=='edge') {
      edges[i].setAttribute('class','edge');
    }
  }
}
]]></script>
        <defs>
                <circle id="rim" cx="0" cy="0" r="7"/>
                <circle id="rim2" cx="0" cy="0" r="3.5"/>
                <g id="zoomPlus">
                        <use xlink:href="#rim" fill="#404040">
                                <set attributeName="fill" to="#808080" begin="zoomplus.mouseover" end="zoomplus.mouseout"/>
                        </use>
                        <path d="M-4,0h8M0,-4v8" fill="none" stroke="white" stroke-width="1.5" pointer-events="none"/>
                </g>
                <g id="zoomMin">
                        <use xlink:href="#rim" fill="#404040">
                                <set attributeName="fill" to="#808080" begin="zoomminus.mouseover" end="zoomminus.mouseout"/>
                        </use>
                        <path d="M-4,0h8" fill="none" stroke="white" stroke-width="1.5" pointer-events="none"/>
                </g>
                <g id="dirArrow">
                        <path fill="none" stroke="white" stroke-width="1.5" d="M0,-3.0v7 M-2.5,-0.5L0,-3.0L2.5,-0.5"/>
                </g>
               <g id="resetDef">
                       <use xlink:href="#rim2" fill="#404040">
                               <set attributeName="fill" to="#808080" begin="reset.mouseover" end="reset.mouseout"/>
                       </use>
               </g>
        </defs>

<script type="text/javascript">
var viewWidth = 592;
var viewHeight = 248;
var sectionId = 'dynsection-28';
</script>
<script xlink:href="svgpan.js"/>
<svg id="graph" class="graph">
<g id="viewport">
<title>install_path</title>
<polygon fill="white" stroke="transparent" points="-4,4 -4,-243.5 588,-243.5 588,4 -4,4"/>
<!-- Node1 -->
<g id="node1" class="node">
<title>Node1</title>
<g id="a_node1"><a xlink:title=" ">
<polygon fill="#bfbfbf" stroke="black" points="0,-158.5 0,-177.5 66,-177.5 66,-158.5 0,-158.5"/>
<text text-anchor="middle" x="33" y="-165.5" font-family="Helvetica,sans-Serif" font-size="10.00">install_path</text>
</a>
</g>
</g>
<!-- Node2 -->
<g id="node2" class="node">
<title>Node2</title>
<g id="a_node2"><a xlink:href="classrare_1_1models_1_1game_1_1_rare_game.html#ab4497a00f2030cf37a1005cd4a03db92" target="_top" xlink:title=" ">
<polygon fill="white" stroke="black" points="104,-196.5 104,-215.5 170,-215.5 170,-196.5 104,-196.5"/>
<text text-anchor="middle" x="137" y="-203.5" font-family="Helvetica,sans-Serif" font-size="10.00">install_path</text>
</a>
</g>
</g>
<!-- Node1&#45;&gt;Node2 -->
<g id="edge1" class="edge">
<title>Node1&#45;&gt;Node2</title>
<path fill="none" stroke="midnightblue" d="M59.74,-177.59C72.18,-182.22 87.31,-187.86 100.8,-192.89"/>
<polygon fill="midnightblue" stroke="midnightblue" points="99.68,-196.2 110.27,-196.41 102.12,-189.64 99.68,-196.2"/>
</g>
<!-- Node3 -->
<g id="node3" class="node">
<title>Node3</title>
<g id="a_node3"><a xlink:href="classrare_1_1models_1_1base__game_1_1_rare_game_base.html#a278563422a00c7eb39dfc65d0b71f51a" target="_top" xlink:title="Property to report if a Game is an Origin game.">
<polygon fill="white" stroke="black" points="239.5,-191 239.5,-221 381.5,-221 381.5,-191 239.5,-191"/>
<text text-anchor="start" x="247.5" y="-209" font-family="Helvetica,sans-Serif" font-size="10.00">rare.models.base_game.Rare</text>
<text text-anchor="middle" x="310.5" y="-198" font-family="Helvetica,sans-Serif" font-size="10.00">GameBase.is_origin</text>
</a>
</g>
</g>
<!-- Node1&#45;&gt;Node3 -->
<g id="edge5" class="edge">
<title>Node1&#45;&gt;Node3</title>
<path fill="none" stroke="midnightblue" d="M66.07,-172.41C94.04,-176.26 135.7,-181.99 172,-187 190.52,-189.55 210.43,-192.3 229.2,-194.9"/>
<polygon fill="midnightblue" stroke="midnightblue" points="228.81,-198.38 239.2,-196.28 229.77,-191.44 228.81,-198.38"/>
</g>
<!-- Node4 -->
<g id="node4" class="node">
<title>Node4</title>
<g id="a_node4"><a xlink:href="classrare_1_1models_1_1game_1_1_rare_game.html#a7bc00fcfc3d4a34476d191b522f5bcec" target="_top" xlink:title=" ">
<polygon fill="white" stroke="black" points="102,-82.5 102,-101.5 172,-101.5 172,-82.5 102,-82.5"/>
<text text-anchor="middle" x="137" y="-89.5" font-family="Helvetica,sans-Serif" font-size="10.00">store_igame</text>
</a>
</g>
</g>
<!-- Node1&#45;&gt;Node4 -->
<g id="edge6" class="edge">
<title>Node1&#45;&gt;Node4</title>
<path fill="none" stroke="midnightblue" d="M46.92,-158.37C64.09,-145.58 94.63,-122.83 115.1,-107.57"/>
<polygon fill="midnightblue" stroke="midnightblue" points="117.26,-110.33 123.19,-101.55 113.08,-104.72 117.26,-110.33"/>
</g>
<!-- Node2&#45;&gt;Node2 -->
<g id="edge2" class="edge">
<title>Node2&#45;&gt;Node2</title>
<path fill="none" stroke="midnightblue" d="M120.97,-215.76C113.17,-224.57 118.52,-234 137,-234 148.55,-234 154.97,-230.31 156.26,-225.4"/>
<polygon fill="midnightblue" stroke="midnightblue" points="159.52,-224.13 153.03,-215.76 152.89,-226.35 159.52,-224.13"/>
</g>
<!-- Node2&#45;&gt;Node3 -->
<g id="edge3" class="edge">
<title>Node2&#45;&gt;Node3</title>
<path fill="none" stroke="midnightblue" d="M170.26,-206C187.02,-206 208.32,-206 229.19,-206"/>
<polygon fill="midnightblue" stroke="midnightblue" points="229.38,-209.5 239.38,-206 229.38,-202.5 229.38,-209.5"/>
</g>
<!-- Node3&#45;&gt;Node3 -->
<g id="edge4" class="edge">
<title>Node3&#45;&gt;Node3</title>
<path fill="none" stroke="midnightblue" d="M280.53,-221.16C273.3,-230.56 283.29,-239.5 310.5,-239.5 327.08,-239.5 337.27,-236.18 341.06,-231.46"/>
<polygon fill="midnightblue" stroke="midnightblue" points="344.54,-230.94 340.47,-221.16 337.55,-231.34 344.54,-230.94"/>
</g>
<!-- Node4&#45;&gt;Node4 -->
<g id="edge13" class="edge">
<title>Node4&#45;&gt;Node4</title>
<path fill="none" stroke="midnightblue" d="M120.97,-101.76C113.17,-110.57 118.52,-120 137,-120 148.55,-120 154.97,-116.31 156.26,-111.4"/>
<polygon fill="midnightblue" stroke="midnightblue" points="159.52,-110.13 153.03,-101.76 152.89,-112.35 159.52,-110.13"/>
</g>
<!-- Node5 -->
<g id="node5" class="node">
<title>Node5</title>
<g id="a_node5"><a xlink:href="classrare_1_1components_1_1tabs_1_1library_1_1integrations_1_1egl__sync__group_1_1_e_g_l_sync_list_item.html#a9c470cc60eae203f55455d0e0d7f5712" target="_top" xlink:title=" ">
<polygon fill="white" stroke="black" points="208,-124 208,-154 413,-154 413,-124 208,-124"/>
<text text-anchor="start" x="216" y="-142" font-family="Helvetica,sans-Serif" font-size="10.00">rare.components.tabs.library.integrations.egl</text>
<text text-anchor="middle" x="310.5" y="-131" font-family="Helvetica,sans-Serif" font-size="10.00">_sync_group.EGLSyncListItem.app_name</text>
</a>
</g>
</g>
<!-- Node4&#45;&gt;Node5 -->
<g id="edge7" class="edge">
<title>Node4&#45;&gt;Node5</title>
<path fill="none" stroke="midnightblue" d="M165.43,-101.61C178.28,-105.96 193.84,-111.01 208,-115 215.95,-117.24 224.3,-119.45 232.64,-121.56"/>
<polygon fill="midnightblue" stroke="midnightblue" points="231.86,-124.97 242.41,-123.99 233.55,-118.18 231.86,-124.97"/>
</g>
<!-- Node6 -->
<g id="node6" class="node">
<title>Node6</title>
<g id="a_node6"><a xlink:href="classrare_1_1shared_1_1rare__core_1_1_rare_core.html#a405e1a4f20f16120f872ccd2654a1d56" target="_top" xlink:title=" ">
<polygon fill="white" stroke="black" points="245.5,-57 245.5,-87 375.5,-87 375.5,-57 245.5,-57"/>
<text text-anchor="start" x="253.5" y="-75" font-family="Helvetica,sans-Serif" font-size="10.00">rare.shared.rare_core.Rare</text>
<text text-anchor="middle" x="310.5" y="-64" font-family="Helvetica,sans-Serif" font-size="10.00">Core.core</text>
</a>
</g>
</g>
<!-- Node4&#45;&gt;Node6 -->
<g id="edge9" class="edge">
<title>Node4&#45;&gt;Node6</title>
<path fill="none" stroke="midnightblue" d="M172.29,-88C190.43,-85.89 213.45,-83.2 235.42,-80.64"/>
<polygon fill="midnightblue" stroke="midnightblue" points="235.9,-84.11 245.42,-79.47 235.09,-77.15 235.9,-84.11"/>
</g>
<!-- Node8 -->
<g id="node8" class="node">
<title>Node8</title>
<g id="a_node8"><a xlink:href="classrare_1_1models_1_1game_1_1_rare_game.html#ae8eea7f05df591bbd18ba200690027f8" target="_top" xlink:title=" ">
<polygon fill="white" stroke="black" points="272,-0.5 272,-19.5 349,-19.5 349,-0.5 272,-0.5"/>
<text text-anchor="middle" x="310.5" y="-7.5" font-family="Helvetica,sans-Serif" font-size="10.00">update_igame</text>
</a>
</g>
</g>
<!-- Node4&#45;&gt;Node8 -->
<g id="edge14" class="edge">
<title>Node4&#45;&gt;Node8</title>
<path fill="none" stroke="midnightblue" d="M151.47,-82.38C165.22,-72.83 187.42,-58.19 208,-48 227.67,-38.26 250.49,-29.51 269.51,-22.86"/>
<polygon fill="midnightblue" stroke="midnightblue" points="270.74,-26.14 279.07,-19.59 268.47,-19.52 270.74,-26.14"/>
</g>
<!-- Node5&#45;&gt;Node5 -->
<g id="edge8" class="edge">
<title>Node5&#45;&gt;Node5</title>
<path fill="none" stroke="midnightblue" d="M280.53,-154.16C273.3,-163.56 283.29,-172.5 310.5,-172.5 327.08,-172.5 337.27,-169.18 341.06,-164.46"/>
<polygon fill="midnightblue" stroke="midnightblue" points="344.54,-163.94 340.47,-154.16 337.55,-164.34 344.54,-163.94"/>
</g>
<!-- Node6&#45;&gt;Node6 -->
<g id="edge10" class="edge">
<title>Node6&#45;&gt;Node6</title>
<path fill="none" stroke="midnightblue" d="M280.53,-87.16C273.3,-96.56 283.29,-105.5 310.5,-105.5 327.08,-105.5 337.27,-102.18 341.06,-97.46"/>
<polygon fill="midnightblue" stroke="midnightblue" points="344.54,-96.94 340.47,-87.16 337.55,-97.34 344.54,-96.94"/>
</g>
<!-- Node7 -->
<g id="node7" class="node">
<title>Node7</title>
<g id="a_node7"><a xlink:href="classrare_1_1shared_1_1workers_1_1worker_1_1_worker.html#a5d3220537164bdcd6c040b54ef85f656" target="_top" xlink:title=" ">
<polygon fill="white" stroke="black" points="449,-57 449,-87 584,-87 584,-57 449,-57"/>
<text text-anchor="start" x="457" y="-75" font-family="Helvetica,sans-Serif" font-size="10.00">rare.shared.workers.worker.</text>
<text text-anchor="middle" x="516.5" y="-64" font-family="Helvetica,sans-Serif" font-size="10.00">Worker.logger</text>
</a>
</g>
</g>
<!-- Node6&#45;&gt;Node7 -->
<g id="edge11" class="edge">
<title>Node6&#45;&gt;Node7</title>
<path fill="none" stroke="midnightblue" d="M375.77,-72C395.74,-72 417.96,-72 438.7,-72"/>
<polygon fill="midnightblue" stroke="midnightblue" points="438.74,-75.5 448.74,-72 438.74,-68.5 438.74,-75.5"/>
</g>
<!-- Node7&#45;&gt;Node7 -->
<g id="edge12" class="edge">
<title>Node7&#45;&gt;Node7</title>
<path fill="none" stroke="midnightblue" d="M480.6,-87.16C471.94,-96.56 483.91,-105.5 516.5,-105.5 536.36,-105.5 548.56,-102.18 553.1,-97.46"/>
<polygon fill="midnightblue" stroke="midnightblue" points="556.57,-96.9 552.4,-87.16 549.59,-97.37 556.57,-96.9"/>
</g>
<!-- Node8&#45;&gt;Node8 -->
<g id="edge15" class="edge">
<title>Node8&#45;&gt;Node8</title>
<path fill="none" stroke="midnightblue" d="M283.99,-19.76C271.09,-28.57 279.93,-38 310.5,-38 331.04,-38 341.77,-33.74 342.69,-28.27"/>
<polygon fill="midnightblue" stroke="midnightblue" points="345.47,-26.14 337.01,-19.76 339.64,-30.02 345.47,-26.14"/>
</g>
</g>
</svg>
        <g id="navigator" transform="translate(0 0)" fill="#404254">
                <rect fill="#f2f5e9" fill-opacity="0.5" stroke="#606060" stroke-width=".5" x="0" y="0" width="60" height="60"/>
                <use id="zoomplus" xlink:href="#zoomPlus" x="17" y="9" onmousedown="handleZoom(evt,'in')"/>
                <use id="zoomminus" xlink:href="#zoomMin" x="42" y="9" onmousedown="handleZoom(evt,'out')"/>
                <use id="reset" xlink:href="#resetDef" x="30" y="36" onmousedown="handleReset()"/>
                <g id="arrowUp" xlink:href="#dirArrow" transform="translate(30 24)" onmousedown="handlePan(0,-1)">
                  <use xlink:href="#rim" fill="#404040">
                        <set attributeName="fill" to="#808080" begin="arrowUp.mouseover" end="arrowUp.mouseout"/>
                  </use>
                  <path fill="none" stroke="white" stroke-width="1.5" d="M0,-3.0v7 M-2.5,-0.5L0,-3.0L2.5,-0.5"/>
                </g>
                <g id="arrowRight" xlink:href="#dirArrow" transform="rotate(90) translate(36 -43)" onmousedown="handlePan(1,0)">
                  <use xlink:href="#rim" fill="#404040">
                        <set attributeName="fill" to="#808080" begin="arrowRight.mouseover" end="arrowRight.mouseout"/>
                  </use>
                  <path fill="none" stroke="white" stroke-width="1.5" d="M0,-3.0v7 M-2.5,-0.5L0,-3.0L2.5,-0.5"/>
                </g>
                <g id="arrowDown" xlink:href="#dirArrow" transform="rotate(180) translate(-30 -48)" onmousedown="handlePan(0,1)">
                  <use xlink:href="#rim" fill="#404040">
                        <set attributeName="fill" to="#808080" begin="arrowDown.mouseover" end="arrowDown.mouseout"/>
                  </use>
                  <path fill="none" stroke="white" stroke-width="1.5" d="M0,-3.0v7 M-2.5,-0.5L0,-3.0L2.5,-0.5"/>
                </g>
                <g id="arrowLeft" xlink:href="#dirArrow" transform="rotate(270) translate(-36 17)" onmousedown="handlePan(-1,0)">
                  <use xlink:href="#rim" fill="#404040">
                        <set attributeName="fill" to="#808080" begin="arrowLeft.mouseover" end="arrowLeft.mouseout"/>
                  </use>
                  <path fill="none" stroke="white" stroke-width="1.5" d="M0,-3.0v7 M-2.5,-0.5L0,-3.0L2.5,-0.5"/>
                </g>
        </g>
        <svg viewBox="0 0 15 15" width="100%" height="30px" preserveAspectRatio="xMaxYMin meet">
         <g id="arrow_out" transform="scale(0.3 0.3)">
          <a xlink:href="classrare_1_1models_1_1game_1_1_rare_game_a0a82a2571a71e89add24aada56de6e71_cgraph_org.svg" target="_base">
           <rect id="button" ry="5" rx="5" y="6" x="6" height="38" width="38"
                fill="#f2f5e9" fill-opacity="0.5" stroke="#606060" stroke-width="1.0"/>
           <path id="arrow"
             d="M 11.500037,31.436501 C 11.940474,20.09759 22.043105,11.32322 32.158766,21.979434 L 37.068811,17.246167 C 37.068811,17.246167 37.088388,32 37.088388,32 L 22.160133,31.978069 C 22.160133,31.978069 26.997745,27.140456 26.997745,27.140456 C 18.528582,18.264221 13.291696,25.230495 11.500037,31.436501 z"
             style="fill:#404040;"/>
          </a>
         </g>
        </svg>
</svg>
