<?xml version="1.0" encoding="UTF-8" standalone="no"?>
<!DOCTYPE svg PUBLIC "-//W3C//DTD SVG 1.1//EN"
 "http://www.w3.org/Graphics/SVG/1.1/DTD/svg11.dtd">
<!-- Generated by graphviz version 2.49.3 (20211027.1534)
 -->
<!-- Title: load Pages: 1 -->
<!--zoomable 256 -->
<svg id="main" version="1.1" xmlns="http://www.w3.org/2000/svg" xmlns:xlink="http://www.w3.org/1999/xlink" xml:space="preserve" onload="init(evt)">
<style type="text/css"><![CDATA[
.edge:hover path { stroke: red; }
.edge:hover polygon { stroke: red; fill: red; }
]]></style>
<script type="text/javascript"><![CDATA[
var edges = document.getElementsByTagName('g');
if (edges && edges.length) {
  for (var i=0;i<edges.length;i++) {
    if (edges[i].id.substr(0,4)=='edge') {
      edges[i].setAttribute('class','edge');
    }
  }
}
]]></script>
        <defs>
                <circle id="rim" cx="0" cy="0" r="7"/>
                <circle id="rim2" cx="0" cy="0" r="3.5"/>
                <g id="zoomPlus">
                        <use xlink:href="#rim" fill="#404040">
                                <set attributeName="fill" to="#808080" begin="zoomplus.mouseover" end="zoomplus.mouseout"/>
                        </use>
                        <path d="M-4,0h8M0,-4v8" fill="none" stroke="white" stroke-width="1.5" pointer-events="none"/>
                </g>
                <g id="zoomMin">
                        <use xlink:href="#rim" fill="#404040">
                                <set attributeName="fill" to="#808080" begin="zoomminus.mouseover" end="zoomminus.mouseout"/>
                        </use>
                        <path d="M-4,0h8" fill="none" stroke="white" stroke-width="1.5" pointer-events="none"/>
                </g>
                <g id="dirArrow">
                        <path fill="none" stroke="white" stroke-width="1.5" d="M0,-3.0v7 M-2.5,-0.5L0,-3.0L2.5,-0.5"/>
                </g>
               <g id="resetDef">
                       <use xlink:href="#rim2" fill="#404040">
                               <set attributeName="fill" to="#808080" begin="reset.mouseover" end="reset.mouseout"/>
                       </use>
               </g>
        </defs>

<script type="text/javascript">
var viewWidth = 696;
var viewHeight = 256;
var sectionId = 'dynsection-13';
</script>
<script xlink:href="svgpan.js"/>
<svg id="graph" class="graph">
<g id="viewport">
<title>load</title>
<polygon fill="white" stroke="transparent" points="-4,4 -4,-251.5 692.26,-251.5 692.26,4 -4,4"/>
<!-- Node1 -->
<g id="node1" class="node">
<title>Node1</title>
<g id="a_node1"><a xlink:title=" ">
<polygon fill="#bfbfbf" stroke="black" points="7.26,-95.5 7.26,-114.5 42.26,-114.5 42.26,-95.5 7.26,-95.5"/>
<text text-anchor="middle" x="24.76" y="-102.5" font-family="Helvetica,sans-Serif" font-size="10.00">load</text>
</a>
</g>
</g>
<!-- Node1&#45;&gt;Node1 -->
<g id="edge18" class="edge">
<title>Node1&#45;&gt;Node1</title>
<path fill="none" stroke="midnightblue" d="M6.87,-113.03C-5.83,-122.28 0.13,-133 24.76,-133 42.46,-133 50.52,-127.46 48.94,-120.91"/>
<polygon fill="midnightblue" stroke="midnightblue" points="51.63,-118.66 42.66,-113.03 46.15,-123.03 51.63,-118.66"/>
</g>
<!-- Node2 -->
<g id="node2" class="node">
<title>Node2</title>
<g id="a_node2"><a xlink:href="classrare_1_1components_1_1tabs_1_1shop_1_1_shop.html#aea7c4ced230e9462362c980c5ea47b4d" target="_top" xlink:title=" ">
<polygon fill="white" stroke="black" points="88.76,-191 88.76,-221 223.76,-221 223.76,-191 88.76,-191"/>
<text text-anchor="start" x="96.76" y="-209" font-family="Helvetica,sans-Serif" font-size="10.00">rare.components.tabs.shop.</text>
<text text-anchor="middle" x="156.26" y="-198" font-family="Helvetica,sans-Serif" font-size="10.00">Shop.load</text>
</a>
</g>
</g>
<!-- Node1&#45;&gt;Node2 -->
<g id="edge1" class="edge">
<title>Node1&#45;&gt;Node2</title>
<path fill="none" stroke="midnightblue" d="M29.73,-114.58C36.96,-130.86 53.81,-163.9 78.26,-182 80.14,-183.39 82.09,-184.7 84.11,-185.93"/>
<polygon fill="midnightblue" stroke="midnightblue" points="82.85,-189.23 93.32,-190.88 86.17,-183.06 82.85,-189.23"/>
</g>
<!-- Node3 -->
<g id="node3" class="node">
<title>Node3</title>
<g id="a_node3"><a xlink:href="classrare_1_1components_1_1tabs_1_1shop_1_1shop__widget_1_1_shop_widget.html#aea7c4ced230e9462362c980c5ea47b4d" target="_top" xlink:title=" ">
<polygon fill="white" stroke="black" points="78.26,-124 78.26,-154 234.26,-154 234.26,-124 78.26,-124"/>
<text text-anchor="start" x="86.26" y="-142" font-family="Helvetica,sans-Serif" font-size="10.00">rare.components.tabs.shop.shop</text>
<text text-anchor="middle" x="156.26" y="-131" font-family="Helvetica,sans-Serif" font-size="10.00">_widget.ShopWidget.load</text>
</a>
</g>
</g>
<!-- Node1&#45;&gt;Node3 -->
<g id="edge3" class="edge">
<title>Node1&#45;&gt;Node3</title>
<path fill="none" stroke="midnightblue" d="M42.43,-109.38C54.25,-112.48 70.97,-116.87 87.92,-121.32"/>
<polygon fill="midnightblue" stroke="midnightblue" points="87.34,-124.78 97.9,-123.94 89.11,-118.01 87.34,-124.78"/>
</g>
<!-- Node9 -->
<g id="node9" class="node">
<title>Node9</title>
<g id="a_node9"><a xlink:href="classrare_1_1utils_1_1json__formatter_1_1_q_json_model.html#a7125a31f39d8e562e0cd2a4da479966d" target="_top" xlink:title="Load from dictionary.">
<polygon fill="white" stroke="black" points="96.26,-57 96.26,-87 216.26,-87 216.26,-57 96.26,-57"/>
<text text-anchor="start" x="104.26" y="-75" font-family="Helvetica,sans-Serif" font-size="10.00">rare.utils.json_formatter.</text>
<text text-anchor="middle" x="156.26" y="-64" font-family="Helvetica,sans-Serif" font-size="10.00">QJsonModel.load</text>
</a>
</g>
</g>
<!-- Node1&#45;&gt;Node9 -->
<g id="edge16" class="edge">
<title>Node1&#45;&gt;Node9</title>
<path fill="none" stroke="midnightblue" d="M42.43,-100.75C53.9,-97.83 70,-93.73 86.45,-89.54"/>
<polygon fill="midnightblue" stroke="midnightblue" points="87.31,-92.93 96.14,-87.07 85.59,-86.14 87.31,-92.93"/>
</g>
<!-- Node10 -->
<g id="node10" class="node">
<title>Node10</title>
<g id="a_node10"><a xlink:href="classrare_1_1utils_1_1json__formatter_1_1_q_json_tree_item.html#aff464267544e4efc9b770c8320c8f199" target="_top" xlink:title=" ">
<polygon fill="white" stroke="black" points="138.76,-0.5 138.76,-19.5 173.76,-19.5 173.76,-0.5 138.76,-0.5"/>
<text text-anchor="middle" x="156.26" y="-7.5" font-family="Helvetica,sans-Serif" font-size="10.00">type</text>
</a>
</g>
</g>
<!-- Node1&#45;&gt;Node10 -->
<g id="edge19" class="edge">
<title>Node1&#45;&gt;Node10</title>
<path fill="none" stroke="midnightblue" d="M32.64,-95.31C41.88,-82.85 59.33,-61.14 78.26,-47 93.76,-35.42 113.45,-26.04 129.04,-19.62"/>
<polygon fill="midnightblue" stroke="midnightblue" points="130.6,-22.77 138.61,-15.83 128.03,-16.26 130.6,-22.77"/>
</g>
<!-- Node2&#45;&gt;Node2 -->
<g id="edge2" class="edge">
<title>Node2&#45;&gt;Node2</title>
<path fill="none" stroke="midnightblue" d="M133.61,-221.16C128.14,-230.56 135.69,-239.5 156.26,-239.5 168.79,-239.5 176.49,-236.18 179.36,-231.46"/>
<polygon fill="midnightblue" stroke="midnightblue" points="182.84,-231 178.92,-221.16 175.85,-231.3 182.84,-231"/>
</g>
<!-- Node3&#45;&gt;Node3 -->
<g id="edge11" class="edge">
<title>Node3&#45;&gt;Node3</title>
<path fill="none" stroke="midnightblue" d="M133.61,-154.16C128.14,-163.56 135.69,-172.5 156.26,-172.5 168.79,-172.5 176.49,-169.18 179.36,-164.46"/>
<polygon fill="midnightblue" stroke="midnightblue" points="182.84,-164 178.92,-154.16 175.85,-164.3 182.84,-164"/>
</g>
<!-- Node4 -->
<g id="node4" class="node">
<title>Node4</title>
<g id="a_node4"><a xlink:href="classrare_1_1components_1_1tabs_1_1shop_1_1shop__widget_1_1_shop_widget.html#acc22d28ca5b75335e3309accf015adc6" target="_top" xlink:title=" ">
<polygon fill="white" stroke="black" points="276.26,-199 276.26,-229 455.26,-229 455.26,-199 276.26,-199"/>
<text text-anchor="start" x="284.26" y="-217" font-family="Helvetica,sans-Serif" font-size="10.00">rare.components.tabs.shop.shop</text>
<text text-anchor="middle" x="365.76" y="-206" font-family="Helvetica,sans-Serif" font-size="10.00">_widget.ShopWidget.add_free_games</text>
</a>
</g>
</g>
<!-- Node3&#45;&gt;Node4 -->
<g id="edge4" class="edge">
<title>Node3&#45;&gt;Node4</title>
<path fill="none" stroke="midnightblue" d="M193.14,-154.05C215.23,-163.13 244.21,-174.69 270.26,-184 281.53,-188.03 293.65,-192.08 305.33,-195.85"/>
<polygon fill="midnightblue" stroke="midnightblue" points="304.41,-199.23 315,-198.94 306.54,-192.56 304.41,-199.23"/>
</g>
<!-- Node5 -->
<g id="node5" class="node">
<title>Node5</title>
<g id="a_node5"><a xlink:href="classrare_1_1components_1_1tabs_1_1shop_1_1game__info_1_1_shop_game_info.html#a3fc8c31e9c09c30d1480d83be79cd5bd" target="_top" xlink:title=" ">
<polygon fill="white" stroke="black" points="497.26,-124 497.26,-154 688.26,-154 688.26,-124 497.26,-124"/>
<text text-anchor="start" x="505.26" y="-142" font-family="Helvetica,sans-Serif" font-size="10.00">rare.components.tabs.shop.game</text>
<text text-anchor="middle" x="592.76" y="-131" font-family="Helvetica,sans-Serif" font-size="10.00">_info.ShopGameInfo.add_wishlist_items</text>
</a>
</g>
</g>
<!-- Node3&#45;&gt;Node5 -->
<g id="edge6" class="edge">
<title>Node3&#45;&gt;Node5</title>
<path fill="none" stroke="midnightblue" d="M234.37,-148.29C246.37,-149.42 258.64,-150.38 270.26,-151 355.03,-155.49 376.46,-154.89 461.26,-151 469.59,-150.62 478.21,-150.1 486.87,-149.49"/>
<polygon fill="midnightblue" stroke="midnightblue" points="487.32,-152.97 497.03,-148.74 486.8,-145.99 487.32,-152.97"/>
</g>
<!-- Node6 -->
<g id="node6" class="node">
<title>Node6</title>
<g id="a_node6"><a xlink:href="classrare_1_1components_1_1tabs_1_1shop_1_1shop__widget_1_1_shop_widget.html#a3fc8c31e9c09c30d1480d83be79cd5bd" target="_top" xlink:title=" ">
<polygon fill="white" stroke="black" points="270.26,-93 270.26,-123 461.26,-123 461.26,-93 270.26,-93"/>
<text text-anchor="start" x="278.26" y="-111" font-family="Helvetica,sans-Serif" font-size="10.00">rare.components.tabs.shop.shop</text>
<text text-anchor="middle" x="365.76" y="-100" font-family="Helvetica,sans-Serif" font-size="10.00">_widget.ShopWidget.add_wishlist_items</text>
</a>
</g>
</g>
<!-- Node3&#45;&gt;Node6 -->
<g id="edge8" class="edge">
<title>Node3&#45;&gt;Node6</title>
<path fill="none" stroke="midnightblue" d="M234.53,-127.46C242.89,-126.21 251.5,-124.92 260.12,-123.63"/>
<polygon fill="midnightblue" stroke="midnightblue" points="260.86,-127.06 270.23,-122.12 259.82,-120.14 260.86,-127.06"/>
</g>
<!-- Node7 -->
<g id="node7" class="node">
<title>Node7</title>
<g id="a_node7"><a xlink:href="classrare_1_1components_1_1tabs_1_1shop_1_1shop__widget_1_1_shop_widget.html#ad40685079c149157f03614f3b66fe2f3" target="_top" xlink:title=" ">
<polygon fill="white" stroke="black" points="277.26,-26 277.26,-56 454.26,-56 454.26,-26 277.26,-26"/>
<text text-anchor="start" x="285.26" y="-44" font-family="Helvetica,sans-Serif" font-size="10.00">rare.components.tabs.shop.shop</text>
<text text-anchor="middle" x="365.76" y="-33" font-family="Helvetica,sans-Serif" font-size="10.00">_widget.ShopWidget.prepare_request</text>
</a>
</g>
</g>
<!-- Node3&#45;&gt;Node7 -->
<g id="edge12" class="edge">
<title>Node3&#45;&gt;Node7</title>
<path fill="none" stroke="midnightblue" d="M215.16,-123.92C221.78,-121.34 228.29,-118.38 234.26,-115 252.9,-104.47 252.27,-94.6 270.26,-83 283.76,-74.3 299.35,-66.56 313.93,-60.16"/>
<polygon fill="midnightblue" stroke="midnightblue" points="315.51,-63.29 323.34,-56.16 312.77,-56.85 315.51,-63.29"/>
</g>
<!-- Node4&#45;&gt;Node4 -->
<g id="edge5" class="edge">
<title>Node4&#45;&gt;Node4</title>
<path fill="none" stroke="midnightblue" d="M329.51,-229.16C320.77,-238.56 332.85,-247.5 365.76,-247.5 385.81,-247.5 398.13,-244.18 402.72,-239.46"/>
<polygon fill="midnightblue" stroke="midnightblue" points="406.19,-238.89 402.01,-229.16 399.21,-239.38 406.19,-238.89"/>
</g>
<!-- Node5&#45;&gt;Node5 -->
<g id="edge7" class="edge">
<title>Node5&#45;&gt;Node5</title>
<path fill="none" stroke="midnightblue" d="M553.38,-154.16C543.88,-163.56 557.01,-172.5 592.76,-172.5 614.55,-172.5 627.93,-169.18 632.92,-164.46"/>
<polygon fill="midnightblue" stroke="midnightblue" points="636.38,-163.87 632.15,-154.16 629.4,-164.39 636.38,-163.87"/>
</g>
<!-- Node6&#45;&gt;Node5 -->
<g id="edge9" class="edge">
<title>Node6&#45;&gt;Node5</title>
<path fill="none" stroke="midnightblue" d="M461.53,-121.06C469.99,-122.22 478.59,-123.41 487.12,-124.58"/>
<polygon fill="midnightblue" stroke="midnightblue" points="486.72,-128.06 497.1,-125.96 487.67,-121.13 486.72,-128.06"/>
</g>
<!-- Node6&#45;&gt;Node6 -->
<g id="edge10" class="edge">
<title>Node6&#45;&gt;Node6</title>
<path fill="none" stroke="midnightblue" d="M329.51,-123.16C320.77,-132.56 332.85,-141.5 365.76,-141.5 385.81,-141.5 398.13,-138.18 402.72,-133.46"/>
<polygon fill="midnightblue" stroke="midnightblue" points="406.19,-132.89 402.01,-123.16 399.21,-133.38 406.19,-132.89"/>
</g>
<!-- Node7&#45;&gt;Node7 -->
<g id="edge13" class="edge">
<title>Node7&#45;&gt;Node7</title>
<path fill="none" stroke="midnightblue" d="M329.51,-56.16C320.77,-65.56 332.85,-74.5 365.76,-74.5 385.81,-74.5 398.13,-71.18 402.72,-66.46"/>
<polygon fill="midnightblue" stroke="midnightblue" points="406.19,-65.89 402.01,-56.16 399.21,-66.38 406.19,-65.89"/>
</g>
<!-- Node8 -->
<g id="node8" class="node">
<title>Node8</title>
<g id="a_node8"><a xlink:href="classrare_1_1components_1_1tabs_1_1shop_1_1shop__widget_1_1_shop_widget.html#afe8e8ac663d9c09dad3a1364f128945b" target="_top" xlink:title=" ">
<polygon fill="white" stroke="black" points="510.26,-26 510.26,-56 675.26,-56 675.26,-26 510.26,-26"/>
<text text-anchor="start" x="518.26" y="-44" font-family="Helvetica,sans-Serif" font-size="10.00">rare.components.tabs.shop.shop</text>
<text text-anchor="middle" x="592.76" y="-33" font-family="Helvetica,sans-Serif" font-size="10.00">_widget.ShopWidget.show_games</text>
</a>
</g>
</g>
<!-- Node7&#45;&gt;Node8 -->
<g id="edge14" class="edge">
<title>Node7&#45;&gt;Node8</title>
<path fill="none" stroke="midnightblue" d="M454.4,-41C469.33,-41 484.89,-41 499.93,-41"/>
<polygon fill="midnightblue" stroke="midnightblue" points="500.25,-44.5 510.25,-41 500.25,-37.5 500.25,-44.5"/>
</g>
<!-- Node8&#45;&gt;Node8 -->
<g id="edge15" class="edge">
<title>Node8&#45;&gt;Node8</title>
<path fill="none" stroke="midnightblue" d="M553.38,-56.16C543.88,-65.56 557.01,-74.5 592.76,-74.5 614.55,-74.5 627.93,-71.18 632.92,-66.46"/>
<polygon fill="midnightblue" stroke="midnightblue" points="636.38,-65.87 632.15,-56.16 629.4,-66.39 636.38,-65.87"/>
</g>
<!-- Node9&#45;&gt;Node9 -->
<g id="edge17" class="edge">
<title>Node9&#45;&gt;Node9</title>
<path fill="none" stroke="midnightblue" d="M133.61,-87.16C128.14,-96.56 135.69,-105.5 156.26,-105.5 168.79,-105.5 176.49,-102.18 179.36,-97.46"/>
<polygon fill="midnightblue" stroke="midnightblue" points="182.84,-97 178.92,-87.16 175.85,-97.3 182.84,-97"/>
</g>
<!-- Node10&#45;&gt;Node10 -->
<g id="edge20" class="edge">
<title>Node10&#45;&gt;Node10</title>
<path fill="none" stroke="midnightblue" d="M138.37,-18.03C125.67,-27.28 131.63,-38 156.26,-38 173.96,-38 182.02,-32.46 180.44,-25.91"/>
<polygon fill="midnightblue" stroke="midnightblue" points="183.13,-23.66 174.16,-18.03 177.65,-28.03 183.13,-23.66"/>
</g>
</g>
</svg>
        <g id="navigator" transform="translate(0 0)" fill="#404254">
                <rect fill="#f2f5e9" fill-opacity="0.5" stroke="#606060" stroke-width=".5" x="0" y="0" width="60" height="60"/>
                <use id="zoomplus" xlink:href="#zoomPlus" x="17" y="9" onmousedown="handleZoom(evt,'in')"/>
                <use id="zoomminus" xlink:href="#zoomMin" x="42" y="9" onmousedown="handleZoom(evt,'out')"/>
                <use id="reset" xlink:href="#resetDef" x="30" y="36" onmousedown="handleReset()"/>
                <g id="arrowUp" xlink:href="#dirArrow" transform="translate(30 24)" onmousedown="handlePan(0,-1)">
                  <use xlink:href="#rim" fill="#404040">
                        <set attributeName="fill" to="#808080" begin="arrowUp.mouseover" end="arrowUp.mouseout"/>
                  </use>
                  <path fill="none" stroke="white" stroke-width="1.5" d="M0,-3.0v7 M-2.5,-0.5L0,-3.0L2.5,-0.5"/>
                </g>
                <g id="arrowRight" xlink:href="#dirArrow" transform="rotate(90) translate(36 -43)" onmousedown="handlePan(1,0)">
                  <use xlink:href="#rim" fill="#404040">
                        <set attributeName="fill" to="#808080" begin="arrowRight.mouseover" end="arrowRight.mouseout"/>
                  </use>
                  <path fill="none" stroke="white" stroke-width="1.5" d="M0,-3.0v7 M-2.5,-0.5L0,-3.0L2.5,-0.5"/>
                </g>
                <g id="arrowDown" xlink:href="#dirArrow" transform="rotate(180) translate(-30 -48)" onmousedown="handlePan(0,1)">
                  <use xlink:href="#rim" fill="#404040">
                        <set attributeName="fill" to="#808080" begin="arrowDown.mouseover" end="arrowDown.mouseout"/>
                  </use>
                  <path fill="none" stroke="white" stroke-width="1.5" d="M0,-3.0v7 M-2.5,-0.5L0,-3.0L2.5,-0.5"/>
                </g>
                <g id="arrowLeft" xlink:href="#dirArrow" transform="rotate(270) translate(-36 17)" onmousedown="handlePan(-1,0)">
                  <use xlink:href="#rim" fill="#404040">
                        <set attributeName="fill" to="#808080" begin="arrowLeft.mouseover" end="arrowLeft.mouseout"/>
                  </use>
                  <path fill="none" stroke="white" stroke-width="1.5" d="M0,-3.0v7 M-2.5,-0.5L0,-3.0L2.5,-0.5"/>
                </g>
        </g>
        <svg viewBox="0 0 15 15" width="100%" height="30px" preserveAspectRatio="xMaxYMin meet">
         <g id="arrow_out" transform="scale(0.3 0.3)">
          <a xlink:href="classrare_1_1utils_1_1json__formatter_1_1_q_json_tree_item_ac9b61a5d2b7f34200733fd959135686f_cgraph_org.svg" target="_base">
           <rect id="button" ry="5" rx="5" y="6" x="6" height="38" width="38"
                fill="#f2f5e9" fill-opacity="0.5" stroke="#606060" stroke-width="1.0"/>
           <path id="arrow"
             d="M 11.500037,31.436501 C 11.940474,20.09759 22.043105,11.32322 32.158766,21.979434 L 37.068811,17.246167 C 37.068811,17.246167 37.088388,32 37.088388,32 L 22.160133,31.978069 C 22.160133,31.978069 26.997745,27.140456 26.997745,27.140456 C 18.528582,18.264221 13.291696,25.230495 11.500037,31.436501 z"
             style="fill:#404040;"/>
          </a>
         </g>
        </svg>
</svg>
