<?xml version="1.0" encoding="UTF-8" standalone="no"?>
<!DOCTYPE svg PUBLIC "-//W3C//DTD SVG 1.1//EN"
 "http://www.w3.org/Graphics/SVG/1.1/DTD/svg11.dtd">
<!-- Generated by graphviz version 2.49.3 (20211027.1534)
 -->
<!-- Title: __init__ Pages: 1 -->
<svg width="431pt" height="271pt"
 viewBox="0.00 0.00 430.93 271.00" xmlns="http://www.w3.org/2000/svg" xmlns:xlink="http://www.w3.org/1999/xlink">
<g id="graph0" class="graph" transform="scale(1 1) rotate(0) translate(4 267)">
<title>__init__</title>
<polygon fill="white" stroke="transparent" points="-4,4 -4,-267 426.93,-267 426.93,4 -4,4"/>
<!-- Node1 -->
<g id="node1" class="node">
<title>Node1</title>
<g id="a_node1"><a xlink:title=" ">
<polygon fill="#bfbfbf" stroke="black" points="1.93,-95.5 1.93,-114.5 51.93,-114.5 51.93,-95.5 1.93,-95.5"/>
<text text-anchor="middle" x="26.93" y="-102.5" font-family="Helvetica,sans-Serif" font-size="10.00">__init__</text>
</a>
</g>
</g>
<!-- Node1&#45;&gt;Node1 -->
<g id="edge1" class="edge">
<title>Node1&#45;&gt;Node1</title>
<path fill="none" stroke="midnightblue" d="M5.04,-114.76C-5.61,-123.57 1.69,-133 26.93,-133 43.49,-133 52.32,-128.94 53.43,-123.65"/>
<polygon fill="midnightblue" stroke="midnightblue" points="56.53,-122.02 48.81,-114.76 50.31,-125.24 56.53,-122.02"/>
</g>
<!-- Node2 -->
<g id="node2" class="node">
<title>Node2</title>
<g id="a_node2"><a xlink:href="classrare_1_1widgets_1_1elide__label_1_1_elide_label.html#aa25390a39bbdce0c91c93bb8adac619b" target="_top" xlink:title=" ">
<polygon fill="white" stroke="black" points="106.93,-191 106.93,-221 230.93,-221 230.93,-191 106.93,-191"/>
<text text-anchor="start" x="114.93" y="-209" font-family="Helvetica,sans-Serif" font-size="10.00">rare.widgets.elide</text>
<text text-anchor="middle" x="168.93" y="-198" font-family="Helvetica,sans-Serif" font-size="10.00">_label.ElideLabel.setText</text>
</a>
</g>
</g>
<!-- Node1&#45;&gt;Node2 -->
<g id="edge2" class="edge">
<title>Node1&#45;&gt;Node2</title>
<path fill="none" stroke="midnightblue" d="M33.01,-114.7C41.95,-130.84 62.03,-163.18 87.93,-181 90.98,-183.1 94.22,-185.04 97.58,-186.81"/>
<polygon fill="midnightblue" stroke="midnightblue" points="96.17,-190.01 106.7,-191.15 99.18,-183.69 96.17,-190.01"/>
</g>
<!-- Node5 -->
<g id="node5" class="node">
<title>Node5</title>
<g id="a_node5"><a xlink:href="classrare_1_1widgets_1_1collapsible__widget_1_1_collapsible_frame.html#aa1ce5c203733553579a07cf1db0da9df" target="_top" xlink:title=" ">
<polygon fill="white" stroke="black" points="87.93,-124 87.93,-154 249.93,-154 249.93,-124 87.93,-124"/>
<text text-anchor="start" x="95.93" y="-142" font-family="Helvetica,sans-Serif" font-size="10.00">rare.widgets.collapsible</text>
<text text-anchor="middle" x="168.93" y="-131" font-family="Helvetica,sans-Serif" font-size="10.00">_widget.CollapsibleFrame.setText</text>
</a>
</g>
</g>
<!-- Node1&#45;&gt;Node5 -->
<g id="edge7" class="edge">
<title>Node1&#45;&gt;Node5</title>
<path fill="none" stroke="midnightblue" d="M51.99,-110.84C64.36,-113.85 80.15,-117.68 96.07,-121.55"/>
<polygon fill="midnightblue" stroke="midnightblue" points="95.42,-124.99 105.97,-123.95 97.07,-118.19 95.42,-124.99"/>
</g>
<!-- Node6 -->
<g id="node6" class="node">
<title>Node6</title>
<g id="a_node6"><a xlink:href="classrare_1_1widgets_1_1indicator__edit_1_1_indicator_line_edit.html#aa1ce5c203733553579a07cf1db0da9df" target="_top" xlink:title=" ">
<polygon fill="white" stroke="black" points="95.43,-57 95.43,-87 242.43,-87 242.43,-57 95.43,-57"/>
<text text-anchor="start" x="103.43" y="-75" font-family="Helvetica,sans-Serif" font-size="10.00">rare.widgets.indicator</text>
<text text-anchor="middle" x="168.93" y="-64" font-family="Helvetica,sans-Serif" font-size="10.00">_edit.IndicatorLineEdit.setText</text>
</a>
</g>
</g>
<!-- Node1&#45;&gt;Node6 -->
<g id="edge9" class="edge">
<title>Node1&#45;&gt;Node6</title>
<path fill="none" stroke="midnightblue" d="M51.99,-99.33C63.86,-96.53 78.87,-92.99 94.13,-89.39"/>
<polygon fill="midnightblue" stroke="midnightblue" points="95.23,-92.73 104.16,-87.03 93.63,-85.92 95.23,-92.73"/>
</g>
<!-- Node7 -->
<g id="node7" class="node">
<title>Node7</title>
<g id="a_node7"><a xlink:href="classrare_1_1components_1_1tabs_1_1library_1_1details_1_1details_1_1_game_tag_check_box.html#ac6d573c455e1ee6bdc8b9e7573b7923c" target="_top" xlink:title=" ">
<polygon fill="white" stroke="black" points="144.43,-0.5 144.43,-19.5 193.43,-19.5 193.43,-0.5 144.43,-0.5"/>
<text text-anchor="middle" x="168.93" y="-7.5" font-family="Helvetica,sans-Serif" font-size="10.00">setText</text>
</a>
</g>
</g>
<!-- Node1&#45;&gt;Node7 -->
<g id="edge11" class="edge">
<title>Node1&#45;&gt;Node7</title>
<path fill="none" stroke="midnightblue" d="M36.05,-95.35C46.89,-82.92 67.13,-61.25 87.93,-47 102.42,-37.07 120.01,-28.6 135,-22.28"/>
<polygon fill="midnightblue" stroke="midnightblue" points="136.48,-25.46 144.42,-18.45 133.84,-18.98 136.48,-25.46"/>
</g>
<!-- Node2&#45;&gt;Node2 -->
<g id="edge4" class="edge">
<title>Node2&#45;&gt;Node2</title>
<path fill="none" stroke="midnightblue" d="M144.18,-221.16C138.21,-230.56 146.46,-239.5 168.93,-239.5 182.62,-239.5 191.03,-236.18 194.16,-231.46"/>
<polygon fill="midnightblue" stroke="midnightblue" points="197.64,-230.98 193.67,-221.16 190.65,-231.31 197.64,-230.98"/>
</g>
<!-- Node3 -->
<g id="node3" class="node">
<title>Node3</title>
<g id="a_node3"><a xlink:href="classrare_1_1widgets_1_1elide__label_1_1_elide_label.html#ad0cb63dd476fec536e87e7176b127a36" target="_top" xlink:title=" ">
<polygon fill="white" stroke="black" points="305.93,-221.5 305.93,-262.5 402.93,-262.5 402.93,-221.5 305.93,-221.5"/>
<text text-anchor="start" x="313.93" y="-250.5" font-family="Helvetica,sans-Serif" font-size="10.00">rare.widgets.elide</text>
<text text-anchor="start" x="313.93" y="-239.5" font-family="Helvetica,sans-Serif" font-size="10.00">_label.ElideLabel._</text>
<text text-anchor="middle" x="354.43" y="-228.5" font-family="Helvetica,sans-Serif" font-size="10.00">_setElideText</text>
</a>
</g>
</g>
<!-- Node2&#45;&gt;Node3 -->
<g id="edge3" class="edge">
<title>Node2&#45;&gt;Node3</title>
<path fill="none" stroke="midnightblue" d="M231.03,-217.99C251.91,-222.08 275.17,-226.65 295.77,-230.69"/>
<polygon fill="midnightblue" stroke="midnightblue" points="295.16,-234.13 305.64,-232.63 296.5,-227.27 295.16,-234.13"/>
</g>
<!-- Node4 -->
<g id="node4" class="node">
<title>Node4</title>
<g id="a_node4"><a xlink:href="classrare_1_1widgets_1_1elide__label_1_1_elide_label.html#a33360da8f4ed32e6e51e3f3490c3a9da" target="_top" xlink:title=" ">
<polygon fill="white" stroke="black" points="285.93,-154 285.93,-184 422.93,-184 422.93,-154 285.93,-154"/>
<text text-anchor="start" x="293.93" y="-172" font-family="Helvetica,sans-Serif" font-size="10.00">rare.widgets.elide</text>
<text text-anchor="middle" x="354.43" y="-161" font-family="Helvetica,sans-Serif" font-size="10.00">_label.ElideLabel.setToolTip</text>
</a>
</g>
</g>
<!-- Node2&#45;&gt;Node4 -->
<g id="edge5" class="edge">
<title>Node2&#45;&gt;Node4</title>
<path fill="none" stroke="midnightblue" d="M231.03,-193.68C245.26,-190.81 260.6,-187.72 275.45,-184.72"/>
<polygon fill="midnightblue" stroke="midnightblue" points="276.52,-188.08 285.64,-182.67 275.14,-181.21 276.52,-188.08"/>
</g>
<!-- Node4&#45;&gt;Node4 -->
<g id="edge6" class="edge">
<title>Node4&#45;&gt;Node4</title>
<path fill="none" stroke="midnightblue" d="M322.36,-184.16C314.63,-193.56 325.32,-202.5 354.43,-202.5 372.17,-202.5 383.06,-199.18 387.12,-194.46"/>
<polygon fill="midnightblue" stroke="midnightblue" points="390.6,-193.93 386.49,-184.16 383.61,-194.35 390.6,-193.93"/>
</g>
<!-- Node5&#45;&gt;Node5 -->
<g id="edge8" class="edge">
<title>Node5&#45;&gt;Node5</title>
<path fill="none" stroke="midnightblue" d="M144.18,-154.16C138.21,-163.56 146.46,-172.5 168.93,-172.5 182.62,-172.5 191.03,-169.18 194.16,-164.46"/>
<polygon fill="midnightblue" stroke="midnightblue" points="197.64,-163.98 193.67,-154.16 190.65,-164.31 197.64,-163.98"/>
</g>
<!-- Node6&#45;&gt;Node6 -->
<g id="edge10" class="edge">
<title>Node6&#45;&gt;Node6</title>
<path fill="none" stroke="midnightblue" d="M144.18,-87.16C138.21,-96.56 146.46,-105.5 168.93,-105.5 182.62,-105.5 191.03,-102.18 194.16,-97.46"/>
<polygon fill="midnightblue" stroke="midnightblue" points="197.64,-96.98 193.67,-87.16 190.65,-97.31 197.64,-96.98"/>
</g>
<!-- Node7&#45;&gt;Node7 -->
<g id="edge12" class="edge">
<title>Node7&#45;&gt;Node7</title>
<path fill="none" stroke="midnightblue" d="M147.04,-19.76C136.39,-28.57 143.69,-38 168.93,-38 185.49,-38 194.32,-33.94 195.43,-28.65"/>
<polygon fill="midnightblue" stroke="midnightblue" points="198.53,-27.02 190.81,-19.76 192.31,-30.24 198.53,-27.02"/>
</g>
</g>
</svg>
