<?xml version="1.0" encoding="UTF-8" standalone="no"?>
<!DOCTYPE svg PUBLIC "-//W3C//DTD SVG 1.1//EN"
 "http://www.w3.org/Graphics/SVG/1.1/DTD/svg11.dtd">
<!-- Generated by graphviz version 2.49.3 (20211027.1534)
 -->
<!-- Title: tabSizeHint Pages: 1 -->
<svg width="233pt" height="57pt"
 viewBox="0.00 0.00 233.00 57.00" xmlns="http://www.w3.org/2000/svg" xmlns:xlink="http://www.w3.org/1999/xlink">
<g id="graph0" class="graph" transform="scale(1 1) rotate(0) translate(4 53)">
<title>tabSizeHint</title>
<polygon fill="white" stroke="transparent" points="-4,4 -4,-53 229,-53 229,4 -4,4"/>
<!-- Node1 -->
<g id="node1" class="node">
<title>Node1</title>
<g id="a_node1"><a xlink:title=" ">
<polygon fill="#bfbfbf" stroke="black" points="0,-6 0,-25 67,-25 67,-6 0,-6"/>
<text text-anchor="middle" x="33.5" y="-13" font-family="Helvetica,sans-Serif" font-size="10.00">tabSizeHint</text>
</a>
</g>
</g>
<!-- Node1&#45;&gt;Node1 -->
<g id="edge3" class="edge">
<title>Node1&#45;&gt;Node1</title>
<path fill="none" stroke="midnightblue" d="M13.46,-25.26C3.72,-34.07 10.39,-43.5 33.5,-43.5 48.3,-43.5 56.36,-39.63 57.68,-34.53"/>
<polygon fill="midnightblue" stroke="midnightblue" points="60.81,-32.96 53.54,-25.26 54.42,-35.81 60.81,-32.96"/>
</g>
<!-- Node2 -->
<g id="node2" class="node">
<title>Node2</title>
<g id="a_node2"><a xlink:href="classrare_1_1widgets_1_1flow__layout_1_1_flow_layout.html#a5eb880efb244834d39c062297388252b" target="_top" xlink:title=" ">
<polygon fill="white" stroke="black" points="103,-0.5 103,-30.5 225,-30.5 225,-0.5 103,-0.5"/>
<text text-anchor="start" x="111" y="-18.5" font-family="Helvetica,sans-Serif" font-size="10.00">rare.widgets.flow_layout.</text>
<text text-anchor="middle" x="164" y="-7.5" font-family="Helvetica,sans-Serif" font-size="10.00">FlowLayout.count</text>
</a>
</g>
</g>
<!-- Node1&#45;&gt;Node2 -->
<g id="edge1" class="edge">
<title>Node1&#45;&gt;Node2</title>
<path fill="none" stroke="midnightblue" d="M67.26,-15.5C75.15,-15.5 83.88,-15.5 92.76,-15.5"/>
<polygon fill="midnightblue" stroke="midnightblue" points="92.82,-19 102.82,-15.5 92.82,-12 92.82,-19"/>
</g>
<!-- Node2&#45;&gt;Node2 -->
<g id="edge2" class="edge">
<title>Node2&#45;&gt;Node2</title>
<path fill="none" stroke="midnightblue" d="M141.34,-30.66C135.88,-40.06 143.43,-49 164,-49 176.53,-49 184.23,-45.68 187.1,-40.96"/>
<polygon fill="midnightblue" stroke="midnightblue" points="190.58,-40.5 186.66,-30.66 183.59,-40.8 190.58,-40.5"/>
</g>
</g>
</svg>
