<?xml version="1.0" encoding="UTF-8" standalone="no"?>
<!DOCTYPE svg PUBLIC "-//W3C//DTD SVG 1.1//EN"
 "http://www.w3.org/Graphics/SVG/1.1/DTD/svg11.dtd">
<!-- Generated by graphviz version 2.49.3 (20211027.1534)
 -->
<!-- Title: fetch_saves Pages: 1 -->
<svg width="249pt" height="102pt"
 viewBox="0.00 0.00 249.00 102.00" xmlns="http://www.w3.org/2000/svg" xmlns:xlink="http://www.w3.org/1999/xlink">
<g id="graph0" class="graph" transform="scale(1 1) rotate(0) translate(4 98)">
<title>fetch_saves</title>
<polygon fill="white" stroke="transparent" points="-4,4 -4,-98 245,-98 245,4 -4,4"/>
<!-- Node1 -->
<g id="node1" class="node">
<title>Node1</title>
<g id="a_node1"><a xlink:title=" ">
<polygon fill="#bfbfbf" stroke="black" points="0,-28.5 0,-47.5 70,-47.5 70,-28.5 0,-28.5"/>
<text text-anchor="middle" x="35" y="-35.5" font-family="Helvetica,sans-Serif" font-size="10.00">fetch_saves</text>
</a>
</g>
</g>
<!-- Node1&#45;&gt;Node1 -->
<g id="edge1" class="edge">
<title>Node1&#45;&gt;Node1</title>
<path fill="none" stroke="midnightblue" d="M13.73,-47.76C3.38,-56.57 10.47,-66 35,-66 50.71,-66 59.27,-62.13 60.67,-57.03"/>
<polygon fill="midnightblue" stroke="midnightblue" points="63.72,-55.29 56.27,-47.76 57.39,-58.29 63.72,-55.29"/>
</g>
<!-- Node2 -->
<g id="node2" class="node">
<title>Node2</title>
<g id="a_node2"><a xlink:href="namespacerare_1_1components.html#a019ee207f5c041fb0d2e61f76eafa958" target="_top" xlink:title=" ">
<polygon fill="white" stroke="black" points="118.5,-56.5 118.5,-75.5 228.5,-75.5 228.5,-56.5 118.5,-56.5"/>
<text text-anchor="middle" x="173.5" y="-63.5" font-family="Helvetica,sans-Serif" font-size="10.00">rare.components.start</text>
</a>
</g>
</g>
<!-- Node1&#45;&gt;Node2 -->
<g id="edge2" class="edge">
<title>Node1&#45;&gt;Node2</title>
<path fill="none" stroke="midnightblue" d="M70.09,-44.99C83.95,-47.84 100.35,-51.2 115.91,-54.39"/>
<polygon fill="midnightblue" stroke="midnightblue" points="115.48,-57.88 125.98,-56.46 116.89,-51.02 115.48,-57.88"/>
</g>
<!-- Node3 -->
<g id="node3" class="node">
<title>Node3</title>
<g id="a_node3"><a xlink:href="namespacerare_1_1utils_1_1metrics.html#a5d090481123c8dc931923165fc7fc29b" target="_top" xlink:title=" ">
<polygon fill="white" stroke="black" points="106,-0.5 106,-19.5 241,-19.5 241,-0.5 106,-0.5"/>
<text text-anchor="middle" x="173.5" y="-7.5" font-family="Helvetica,sans-Serif" font-size="10.00">rare.utils.metrics.timelogger</text>
</a>
</g>
</g>
<!-- Node1&#45;&gt;Node3 -->
<g id="edge4" class="edge">
<title>Node1&#45;&gt;Node3</title>
<path fill="none" stroke="midnightblue" d="M70.09,-31.01C83.95,-28.16 100.35,-24.8 115.91,-21.61"/>
<polygon fill="midnightblue" stroke="midnightblue" points="116.89,-24.98 125.98,-19.54 115.48,-18.12 116.89,-24.98"/>
</g>
<!-- Node2&#45;&gt;Node2 -->
<g id="edge3" class="edge">
<title>Node2&#45;&gt;Node2</title>
<path fill="none" stroke="midnightblue" d="M152.23,-75.76C141.88,-84.57 148.97,-94 173.5,-94 189.21,-94 197.77,-90.13 199.17,-85.03"/>
<polygon fill="midnightblue" stroke="midnightblue" points="202.22,-83.29 194.77,-75.76 195.89,-86.29 202.22,-83.29"/>
</g>
<!-- Node3&#45;&gt;Node3 -->
<g id="edge5" class="edge">
<title>Node3&#45;&gt;Node3</title>
<path fill="none" stroke="midnightblue" d="M152.23,-19.76C141.88,-28.57 148.97,-38 173.5,-38 189.21,-38 197.77,-34.13 199.17,-29.03"/>
<polygon fill="midnightblue" stroke="midnightblue" points="202.22,-27.29 194.77,-19.76 195.89,-30.29 202.22,-27.29"/>
</g>
</g>
</svg>
