<?xml version="1.0" encoding="UTF-8" standalone="no"?>
<!DOCTYPE svg PUBLIC "-//W3C//DTD SVG 1.1//EN"
 "http://www.w3.org/Graphics/SVG/1.1/DTD/svg11.dtd">
<!-- Generated by graphviz version 2.49.3 (20211027.1534)
 -->
<!-- Title: can_launch Pages: 1 -->
<!--zoomable 478 -->
<svg id="main" version="1.1" xmlns="http://www.w3.org/2000/svg" xmlns:xlink="http://www.w3.org/1999/xlink" xml:space="preserve" onload="init(evt)">
<style type="text/css"><![CDATA[
.edge:hover path { stroke: red; }
.edge:hover polygon { stroke: red; fill: red; }
]]></style>
<script type="text/javascript"><![CDATA[
var edges = document.getElementsByTagName('g');
if (edges && edges.length) {
  for (var i=0;i<edges.length;i++) {
    if (edges[i].id.substr(0,4)=='edge') {
      edges[i].setAttribute('class','edge');
    }
  }
}
]]></script>
        <defs>
                <circle id="rim" cx="0" cy="0" r="7"/>
                <circle id="rim2" cx="0" cy="0" r="3.5"/>
                <g id="zoomPlus">
                        <use xlink:href="#rim" fill="#404040">
                                <set attributeName="fill" to="#808080" begin="zoomplus.mouseover" end="zoomplus.mouseout"/>
                        </use>
                        <path d="M-4,0h8M0,-4v8" fill="none" stroke="white" stroke-width="1.5" pointer-events="none"/>
                </g>
                <g id="zoomMin">
                        <use xlink:href="#rim" fill="#404040">
                                <set attributeName="fill" to="#808080" begin="zoomminus.mouseover" end="zoomminus.mouseout"/>
                        </use>
                        <path d="M-4,0h8" fill="none" stroke="white" stroke-width="1.5" pointer-events="none"/>
                </g>
                <g id="dirArrow">
                        <path fill="none" stroke="white" stroke-width="1.5" d="M0,-3.0v7 M-2.5,-0.5L0,-3.0L2.5,-0.5"/>
                </g>
               <g id="resetDef">
                       <use xlink:href="#rim2" fill="#404040">
                               <set attributeName="fill" to="#808080" begin="reset.mouseover" end="reset.mouseout"/>
                       </use>
               </g>
        </defs>

<script type="text/javascript">
var viewWidth = 519;
var viewHeight = 478;
var sectionId = 'dynsection-4';
</script>
<script xlink:href="svgpan.js"/>
<svg id="graph" class="graph">
<g id="viewport">
<title>can_launch</title>
<polygon fill="white" stroke="transparent" points="-4,4 -4,-473.5 515,-473.5 515,4 -4,4"/>
<!-- Node1 -->
<g id="node1" class="node">
<title>Node1</title>
<g id="a_node1"><a xlink:title=" ">
<polygon fill="#bfbfbf" stroke="black" points="0,-224.5 0,-243.5 66,-243.5 66,-224.5 0,-224.5"/>
<text text-anchor="middle" x="33" y="-231.5" font-family="Helvetica,sans-Serif" font-size="10.00">can_launch</text>
</a>
</g>
</g>
<!-- Node1&#45;&gt;Node1 -->
<g id="edge1" class="edge">
<title>Node1&#45;&gt;Node1</title>
<path fill="none" stroke="midnightblue" d="M11.42,-243.76C0.92,-252.57 8.12,-262 33,-262 48.94,-262 57.62,-258.13 59.04,-253.03"/>
<polygon fill="midnightblue" stroke="midnightblue" points="62.07,-251.25 54.58,-243.76 55.76,-254.29 62.07,-251.25"/>
</g>
<!-- Node2 -->
<g id="node2" class="node">
<title>Node2</title>
<g id="a_node2"><a xlink:href="classrare_1_1models_1_1game_1_1_rare_game.html#af3b5f267d190558f0bbc61ea26f269bd" target="_top" xlink:title="Property to report if a game can run offline.">
<polygon fill="white" stroke="black" points="132.5,-394.5 132.5,-413.5 213.5,-413.5 213.5,-394.5 132.5,-394.5"/>
<text text-anchor="middle" x="173" y="-401.5" font-family="Helvetica,sans-Serif" font-size="10.00">can_run_offline</text>
</a>
</g>
</g>
<!-- Node1&#45;&gt;Node2 -->
<g id="edge2" class="edge">
<title>Node1&#45;&gt;Node2</title>
<path fill="none" stroke="midnightblue" d="M35.79,-243.74C41.07,-269.72 58.97,-341.29 102,-380 108.04,-385.44 115.38,-389.65 122.99,-392.92"/>
<polygon fill="midnightblue" stroke="midnightblue" points="121.76,-396.19 132.35,-396.45 124.23,-389.64 121.76,-396.19"/>
</g>
<!-- Node3 -->
<g id="node3" class="node">
<title>Node3</title>
<g id="a_node3"><a xlink:href="classrare_1_1models_1_1game_1_1_rare_game.html#a446ff523b2db28f598f431a4614f4a96" target="_top" xlink:title="Property to report if a game doesn&#39;t belong to the current account.">
<polygon fill="white" stroke="black" points="143.5,-262.5 143.5,-281.5 202.5,-281.5 202.5,-262.5 143.5,-262.5"/>
<text text-anchor="middle" x="173" y="-269.5" font-family="Helvetica,sans-Serif" font-size="10.00">is_foreign</text>
</a>
</g>
</g>
<!-- Node1&#45;&gt;Node3 -->
<g id="edge4" class="edge">
<title>Node1&#45;&gt;Node3</title>
<path fill="none" stroke="midnightblue" d="M66.01,-242.81C86.22,-248.38 112.43,-255.6 133.74,-261.46"/>
<polygon fill="midnightblue" stroke="midnightblue" points="132.88,-264.86 143.45,-264.14 134.74,-258.11 132.88,-264.86"/>
</g>
<!-- Node5 -->
<g id="node5" class="node">
<title>Node5</title>
<g id="a_node5"><a xlink:href="classrare_1_1models_1_1base__game_1_1_rare_game_base.html#a823ab7286cb07208f430cc54252c82bb" target="_top" xlink:title=" ">
<polygon fill="white" stroke="black" points="280,-421 280,-451 422,-451 422,-421 280,-421"/>
<text text-anchor="start" x="288" y="-439" font-family="Helvetica,sans-Serif" font-size="10.00">rare.models.base_game.Rare</text>
<text text-anchor="middle" x="351" y="-428" font-family="Helvetica,sans-Serif" font-size="10.00">GameBase.is_installed</text>
</a>
</g>
</g>
<!-- Node1&#45;&gt;Node5 -->
<g id="edge20" class="edge">
<title>Node1&#45;&gt;Node5</title>
<path fill="none" stroke="midnightblue" d="M37.4,-243.7C45.3,-264.83 66.94,-315.26 102,-342 154.44,-381.98 185.17,-355.21 244,-385 261.84,-394.04 262.32,-402.64 280,-412 283.32,-413.76 286.79,-415.42 290.34,-417"/>
<polygon fill="midnightblue" stroke="midnightblue" points="289.28,-420.35 299.85,-420.96 291.97,-413.89 289.28,-420.35"/>
</g>
<!-- Node6 -->
<g id="node6" class="node">
<title>Node6</title>
<g id="a_node6"><a xlink:href="classrare_1_1models_1_1base__game_1_1_rare_game_slim.html#a823ab7286cb07208f430cc54252c82bb" target="_top" xlink:title=" ">
<polygon fill="white" stroke="black" points="280,-354 280,-384 422,-384 422,-354 280,-354"/>
<text text-anchor="start" x="288" y="-372" font-family="Helvetica,sans-Serif" font-size="10.00">rare.models.base_game.Rare</text>
<text text-anchor="middle" x="351" y="-361" font-family="Helvetica,sans-Serif" font-size="10.00">GameSlim.is_installed</text>
</a>
</g>
</g>
<!-- Node1&#45;&gt;Node6 -->
<g id="edge21" class="edge">
<title>Node1&#45;&gt;Node6</title>
<path fill="none" stroke="midnightblue" d="M40,-243.75C50.48,-259.94 73.74,-292.22 102,-309 130.19,-325.74 208.68,-343.18 269.89,-354.91"/>
<polygon fill="midnightblue" stroke="midnightblue" points="269.46,-358.39 279.94,-356.82 270.77,-351.52 269.46,-358.39"/>
</g>
<!-- Node7 -->
<g id="node7" class="node">
<title>Node7</title>
<g id="a_node7"><a xlink:href="classrare_1_1models_1_1game_1_1_rare_game.html#a823ab7286cb07208f430cc54252c82bb" target="_top" xlink:title="Property to report if a game is installed.">
<polygon fill="white" stroke="black" points="318.5,-230.5 318.5,-249.5 383.5,-249.5 383.5,-230.5 318.5,-230.5"/>
<text text-anchor="middle" x="351" y="-237.5" font-family="Helvetica,sans-Serif" font-size="10.00">is_installed</text>
</a>
</g>
</g>
<!-- Node1&#45;&gt;Node7 -->
<g id="edge22" class="edge">
<title>Node1&#45;&gt;Node7</title>
<path fill="none" stroke="midnightblue" d="M66.04,-234.61C123.56,-235.7 244.28,-237.99 308.22,-239.21"/>
<polygon fill="midnightblue" stroke="midnightblue" points="308.28,-242.71 318.35,-239.4 308.41,-235.71 308.28,-242.71"/>
</g>
<!-- Node8 -->
<g id="node8" class="node">
<title>Node8</title>
<g id="a_node8"><a xlink:href="classrare_1_1models_1_1game_1_1_rare_game.html#a278563422a00c7eb39dfc65d0b71f51a" target="_top" xlink:title="Property to report if a Game is an Origin game.">
<polygon fill="white" stroke="black" points="458,-177.5 458,-196.5 511,-196.5 511,-177.5 458,-177.5"/>
<text text-anchor="middle" x="484.5" y="-184.5" font-family="Helvetica,sans-Serif" font-size="10.00">is_origin</text>
</a>
</g>
</g>
<!-- Node1&#45;&gt;Node8 -->
<g id="edge24" class="edge">
<title>Node1&#45;&gt;Node8</title>
<path fill="none" stroke="midnightblue" d="M47.43,-224.42C60.7,-215.37 81.9,-202.01 102,-194 177.42,-163.96 199.34,-162.17 280,-153 342.71,-145.87 360.89,-137.23 422,-153 436.35,-156.7 450.94,-164.55 462.3,-171.78"/>
<polygon fill="midnightblue" stroke="midnightblue" points="460.39,-174.71 470.65,-177.34 464.27,-168.89 460.39,-174.71"/>
</g>
<!-- Node9 -->
<g id="node9" class="node">
<title>Node9</title>
<g id="a_node9"><a xlink:href="classrare_1_1models_1_1game_1_1_rare_eos_overlay.html#a823ab7286cb07208f430cc54252c82bb" target="_top" xlink:title=" ">
<polygon fill="white" stroke="black" points="285,-163 285,-193 417,-193 417,-163 285,-163"/>
<text text-anchor="start" x="293" y="-181" font-family="Helvetica,sans-Serif" font-size="10.00">rare.models.game.RareEos</text>
<text text-anchor="middle" x="351" y="-170" font-family="Helvetica,sans-Serif" font-size="10.00">Overlay.is_installed</text>
</a>
</g>
</g>
<!-- Node1&#45;&gt;Node9 -->
<g id="edge23" class="edge">
<title>Node1&#45;&gt;Node9</title>
<path fill="none" stroke="midnightblue" d="M66.04,-228.32C114.62,-219.71 208.28,-203.12 274.74,-191.34"/>
<polygon fill="midnightblue" stroke="midnightblue" points="275.51,-194.76 284.75,-189.56 274.29,-187.86 275.51,-194.76"/>
</g>
<!-- Node10 -->
<g id="node10" class="node">
<title>Node10</title>
<g id="a_node10"><a xlink:href="classrare_1_1models_1_1base__game_1_1_rare_game_base.html#a5c91214c9c0ce70e64033ac6a3494d76" target="_top" xlink:title=" ">
<polygon fill="white" stroke="black" points="102,-57 102,-87 244,-87 244,-57 102,-57"/>
<text text-anchor="start" x="110" y="-75" font-family="Helvetica,sans-Serif" font-size="10.00">rare.models.base_game.Rare</text>
<text text-anchor="middle" x="173" y="-64" font-family="Helvetica,sans-Serif" font-size="10.00">GameBase.is_idle</text>
</a>
</g>
</g>
<!-- Node1&#45;&gt;Node10 -->
<g id="edge18" class="edge">
<title>Node1&#45;&gt;Node10</title>
<path fill="none" stroke="midnightblue" d="M38.08,-224.22C47.17,-203.27 70.77,-153.27 102,-120 111.72,-109.64 124.05,-100.28 135.65,-92.63"/>
<polygon fill="midnightblue" stroke="midnightblue" points="137.75,-95.44 144.31,-87.12 133.99,-89.53 137.75,-95.44"/>
</g>
<!-- Node11 -->
<g id="node11" class="node">
<title>Node11</title>
<g id="a_node11"><a xlink:href="classrare_1_1models_1_1game_1_1_rare_game.html#a75a2e37cdbb1feeb806eb179a21fa568" target="_top" xlink:title="Property to report if a games requires to be verified.">
<polygon fill="white" stroke="black" points="125.5,-0.5 125.5,-19.5 220.5,-19.5 220.5,-0.5 125.5,-0.5"/>
<text text-anchor="middle" x="173" y="-7.5" font-family="Helvetica,sans-Serif" font-size="10.00">needs_verification</text>
</a>
</g>
</g>
<!-- Node1&#45;&gt;Node11 -->
<g id="edge25" class="edge">
<title>Node1&#45;&gt;Node11</title>
<path fill="none" stroke="midnightblue" d="M35.07,-224.22C38.83,-194.22 53.89,-102.22 102,-47 110.62,-37.1 122.55,-29.44 134.12,-23.73"/>
<polygon fill="midnightblue" stroke="midnightblue" points="135.61,-26.89 143.25,-19.55 132.7,-20.53 135.61,-26.89"/>
</g>
<!-- Node2&#45;&gt;Node2 -->
<g id="edge3" class="edge">
<title>Node2&#45;&gt;Node2</title>
<path fill="none" stroke="midnightblue" d="M151.42,-413.76C140.92,-422.57 148.12,-432 173,-432 188.94,-432 197.62,-428.13 199.04,-423.03"/>
<polygon fill="midnightblue" stroke="midnightblue" points="202.07,-421.25 194.58,-413.76 195.76,-424.29 202.07,-421.25"/>
</g>
<!-- Node3&#45;&gt;Node3 -->
<g id="edge7" class="edge">
<title>Node3&#45;&gt;Node3</title>
<path fill="none" stroke="midnightblue" d="M151.42,-281.76C140.92,-290.57 148.12,-300 173,-300 188.94,-300 197.62,-296.13 199.04,-291.03"/>
<polygon fill="midnightblue" stroke="midnightblue" points="202.07,-289.25 194.58,-281.76 195.76,-292.29 202.07,-289.25"/>
</g>
<!-- Node4 -->
<g id="node4" class="node">
<title>Node4</title>
<g id="a_node4"><a xlink:href="classrare_1_1shared_1_1rare__core_1_1_rare_core.html#a405e1a4f20f16120f872ccd2654a1d56" target="_top" xlink:title=" ">
<polygon fill="white" stroke="black" points="286,-287 286,-317 416,-317 416,-287 286,-287"/>
<text text-anchor="start" x="294" y="-305" font-family="Helvetica,sans-Serif" font-size="10.00">rare.shared.rare_core.Rare</text>
<text text-anchor="middle" x="351" y="-294" font-family="Helvetica,sans-Serif" font-size="10.00">Core.core</text>
</a>
</g>
</g>
<!-- Node3&#45;&gt;Node4 -->
<g id="edge5" class="edge">
<title>Node3&#45;&gt;Node4</title>
<path fill="none" stroke="midnightblue" d="M202.67,-276.89C222.53,-280.27 249.95,-284.95 275.74,-289.34"/>
<polygon fill="midnightblue" stroke="midnightblue" points="275.46,-292.85 285.91,-291.08 276.64,-285.95 275.46,-292.85"/>
</g>
<!-- Node3&#45;&gt;Node5 -->
<g id="edge8" class="edge">
<title>Node3&#45;&gt;Node5</title>
<path fill="none" stroke="midnightblue" d="M183.67,-281.87C197.78,-296.51 224.44,-325.15 244,-352 262.31,-377.14 255.83,-392.44 280,-412 281.57,-413.27 283.22,-414.48 284.92,-415.62"/>
<polygon fill="midnightblue" stroke="midnightblue" points="283.43,-418.81 293.83,-420.84 286.97,-412.77 283.43,-418.81"/>
</g>
<!-- Node3&#45;&gt;Node6 -->
<g id="edge10" class="edge">
<title>Node3&#45;&gt;Node6</title>
<path fill="none" stroke="midnightblue" d="M191.79,-281.56C206.26,-289.6 227,-301.72 244,-314 261.11,-326.37 261.68,-334.5 280,-345 282.99,-346.71 286.12,-348.33 289.33,-349.85"/>
<polygon fill="midnightblue" stroke="midnightblue" points="287.97,-353.08 298.53,-353.9 290.78,-346.67 287.97,-353.08"/>
</g>
<!-- Node3&#45;&gt;Node7 -->
<g id="edge12" class="edge">
<title>Node3&#45;&gt;Node7</title>
<path fill="none" stroke="midnightblue" d="M202.67,-266.79C231.32,-261.58 275.68,-253.51 308.25,-247.59"/>
<polygon fill="midnightblue" stroke="midnightblue" points="309.16,-250.98 318.37,-245.75 307.9,-244.1 309.16,-250.98"/>
</g>
<!-- Node3&#45;&gt;Node9 -->
<g id="edge16" class="edge">
<title>Node3&#45;&gt;Node9</title>
<path fill="none" stroke="midnightblue" d="M191.84,-262.47C220.04,-247.41 275.51,-217.78 312.68,-197.93"/>
<polygon fill="midnightblue" stroke="midnightblue" points="314.53,-200.91 321.71,-193.11 311.24,-194.74 314.53,-200.91"/>
</g>
<!-- Node4&#45;&gt;Node4 -->
<g id="edge6" class="edge">
<title>Node4&#45;&gt;Node4</title>
<path fill="none" stroke="midnightblue" d="M328,-317.16C322.45,-326.56 330.12,-335.5 351,-335.5 363.73,-335.5 371.54,-332.18 374.45,-327.46"/>
<polygon fill="midnightblue" stroke="midnightblue" points="377.94,-327 374,-317.16 370.94,-327.3 377.94,-327"/>
</g>
<!-- Node5&#45;&gt;Node5 -->
<g id="edge9" class="edge">
<title>Node5&#45;&gt;Node5</title>
<path fill="none" stroke="midnightblue" d="M328,-451.16C322.45,-460.56 330.12,-469.5 351,-469.5 363.73,-469.5 371.54,-466.18 374.45,-461.46"/>
<polygon fill="midnightblue" stroke="midnightblue" points="377.94,-461 374,-451.16 370.94,-461.3 377.94,-461"/>
</g>
<!-- Node6&#45;&gt;Node6 -->
<g id="edge11" class="edge">
<title>Node6&#45;&gt;Node6</title>
<path fill="none" stroke="midnightblue" d="M328,-384.16C322.45,-393.56 330.12,-402.5 351,-402.5 363.73,-402.5 371.54,-399.18 374.45,-394.46"/>
<polygon fill="midnightblue" stroke="midnightblue" points="377.94,-394 374,-384.16 370.94,-394.3 377.94,-394"/>
</g>
<!-- Node7&#45;&gt;Node7 -->
<g id="edge13" class="edge">
<title>Node7&#45;&gt;Node7</title>
<path fill="none" stroke="midnightblue" d="M330.65,-249.76C320.76,-258.57 327.54,-268 351,-268 366.03,-268 374.21,-264.13 375.55,-259.03"/>
<polygon fill="midnightblue" stroke="midnightblue" points="378.67,-257.42 371.35,-249.76 372.29,-260.31 378.67,-257.42"/>
</g>
<!-- Node7&#45;&gt;Node8 -->
<g id="edge14" class="edge">
<title>Node7&#45;&gt;Node8</title>
<path fill="none" stroke="midnightblue" d="M383.54,-233.15C395.77,-230.05 409.75,-225.97 422,-221 434.9,-215.77 448.51,-208.45 459.64,-201.95"/>
<polygon fill="midnightblue" stroke="midnightblue" points="461.56,-204.88 468.34,-196.73 457.96,-198.87 461.56,-204.88"/>
</g>
<!-- Node8&#45;&gt;Node8 -->
<g id="edge15" class="edge">
<title>Node8&#45;&gt;Node8</title>
<path fill="none" stroke="midnightblue" d="M464.15,-196.76C454.26,-205.57 461.04,-215 484.5,-215 499.53,-215 507.71,-211.13 509.05,-206.03"/>
<polygon fill="midnightblue" stroke="midnightblue" points="512.17,-204.42 504.85,-196.76 505.79,-207.31 512.17,-204.42"/>
</g>
<!-- Node9&#45;&gt;Node9 -->
<g id="edge17" class="edge">
<title>Node9&#45;&gt;Node9</title>
<path fill="none" stroke="midnightblue" d="M328,-193.16C322.45,-202.56 330.12,-211.5 351,-211.5 363.73,-211.5 371.54,-208.18 374.45,-203.46"/>
<polygon fill="midnightblue" stroke="midnightblue" points="377.94,-203 374,-193.16 370.94,-203.3 377.94,-203"/>
</g>
<!-- Node10&#45;&gt;Node10 -->
<g id="edge19" class="edge">
<title>Node10&#45;&gt;Node10</title>
<path fill="none" stroke="midnightblue" d="M148.6,-87.16C142.72,-96.56 150.85,-105.5 173,-105.5 186.5,-105.5 194.79,-102.18 197.88,-97.46"/>
<polygon fill="midnightblue" stroke="midnightblue" points="201.36,-96.99 197.4,-87.16 194.37,-97.31 201.36,-96.99"/>
</g>
<!-- Node11&#45;&gt;Node11 -->
<g id="edge26" class="edge">
<title>Node11&#45;&gt;Node11</title>
<path fill="none" stroke="midnightblue" d="M151.42,-19.76C140.92,-28.57 148.12,-38 173,-38 188.94,-38 197.62,-34.13 199.04,-29.03"/>
<polygon fill="midnightblue" stroke="midnightblue" points="202.07,-27.25 194.58,-19.76 195.76,-30.29 202.07,-27.25"/>
</g>
</g>
</svg>
        <g id="navigator" transform="translate(0 0)" fill="#404254">
                <rect fill="#f2f5e9" fill-opacity="0.5" stroke="#606060" stroke-width=".5" x="0" y="0" width="60" height="60"/>
                <use id="zoomplus" xlink:href="#zoomPlus" x="17" y="9" onmousedown="handleZoom(evt,'in')"/>
                <use id="zoomminus" xlink:href="#zoomMin" x="42" y="9" onmousedown="handleZoom(evt,'out')"/>
                <use id="reset" xlink:href="#resetDef" x="30" y="36" onmousedown="handleReset()"/>
                <g id="arrowUp" xlink:href="#dirArrow" transform="translate(30 24)" onmousedown="handlePan(0,-1)">
                  <use xlink:href="#rim" fill="#404040">
                        <set attributeName="fill" to="#808080" begin="arrowUp.mouseover" end="arrowUp.mouseout"/>
                  </use>
                  <path fill="none" stroke="white" stroke-width="1.5" d="M0,-3.0v7 M-2.5,-0.5L0,-3.0L2.5,-0.5"/>
                </g>
                <g id="arrowRight" xlink:href="#dirArrow" transform="rotate(90) translate(36 -43)" onmousedown="handlePan(1,0)">
                  <use xlink:href="#rim" fill="#404040">
                        <set attributeName="fill" to="#808080" begin="arrowRight.mouseover" end="arrowRight.mouseout"/>
                  </use>
                  <path fill="none" stroke="white" stroke-width="1.5" d="M0,-3.0v7 M-2.5,-0.5L0,-3.0L2.5,-0.5"/>
                </g>
                <g id="arrowDown" xlink:href="#dirArrow" transform="rotate(180) translate(-30 -48)" onmousedown="handlePan(0,1)">
                  <use xlink:href="#rim" fill="#404040">
                        <set attributeName="fill" to="#808080" begin="arrowDown.mouseover" end="arrowDown.mouseout"/>
                  </use>
                  <path fill="none" stroke="white" stroke-width="1.5" d="M0,-3.0v7 M-2.5,-0.5L0,-3.0L2.5,-0.5"/>
                </g>
                <g id="arrowLeft" xlink:href="#dirArrow" transform="rotate(270) translate(-36 17)" onmousedown="handlePan(-1,0)">
                  <use xlink:href="#rim" fill="#404040">
                        <set attributeName="fill" to="#808080" begin="arrowLeft.mouseover" end="arrowLeft.mouseout"/>
                  </use>
                  <path fill="none" stroke="white" stroke-width="1.5" d="M0,-3.0v7 M-2.5,-0.5L0,-3.0L2.5,-0.5"/>
                </g>
        </g>
        <svg viewBox="0 0 15 15" width="100%" height="30px" preserveAspectRatio="xMaxYMin meet">
         <g id="arrow_out" transform="scale(0.3 0.3)">
          <a xlink:href="classrare_1_1models_1_1game_1_1_rare_game_a4431ce8cf18e5dd3414d8882e585bd8d_cgraph_org.svg" target="_base">
           <rect id="button" ry="5" rx="5" y="6" x="6" height="38" width="38"
                fill="#f2f5e9" fill-opacity="0.5" stroke="#606060" stroke-width="1.0"/>
           <path id="arrow"
             d="M 11.500037,31.436501 C 11.940474,20.09759 22.043105,11.32322 32.158766,21.979434 L 37.068811,17.246167 C 37.068811,17.246167 37.088388,32 37.088388,32 L 22.160133,31.978069 C 22.160133,31.978069 26.997745,27.140456 26.997745,27.140456 C 18.528582,18.264221 13.291696,25.230495 11.500037,31.436501 z"
             style="fill:#404040;"/>
          </a>
         </g>
        </svg>
</svg>
