<?xml version="1.0" encoding="UTF-8" standalone="no"?>
<!DOCTYPE svg PUBLIC "-//W3C//DTD SVG 1.1//EN"
 "http://www.w3.org/Graphics/SVG/1.1/DTD/svg11.dtd">
<!-- Generated by graphviz version 2.49.3 (20211027.1534)
 -->
<!-- Title: save Pages: 1 -->
<!--zoomable 213 -->
<svg id="main" version="1.1" xmlns="http://www.w3.org/2000/svg" xmlns:xlink="http://www.w3.org/1999/xlink" xml:space="preserve" onload="init(evt)">
<style type="text/css"><![CDATA[
.edge:hover path { stroke: red; }
.edge:hover polygon { stroke: red; fill: red; }
]]></style>
<script type="text/javascript"><![CDATA[
var edges = document.getElementsByTagName('g');
if (edges && edges.length) {
  for (var i=0;i<edges.length;i++) {
    if (edges[i].id.substr(0,4)=='edge') {
      edges[i].setAttribute('class','edge');
    }
  }
}
]]></script>
        <defs>
                <circle id="rim" cx="0" cy="0" r="7"/>
                <circle id="rim2" cx="0" cy="0" r="3.5"/>
                <g id="zoomPlus">
                        <use xlink:href="#rim" fill="#404040">
                                <set attributeName="fill" to="#808080" begin="zoomplus.mouseover" end="zoomplus.mouseout"/>
                        </use>
                        <path d="M-4,0h8M0,-4v8" fill="none" stroke="white" stroke-width="1.5" pointer-events="none"/>
                </g>
                <g id="zoomMin">
                        <use xlink:href="#rim" fill="#404040">
                                <set attributeName="fill" to="#808080" begin="zoomminus.mouseover" end="zoomminus.mouseout"/>
                        </use>
                        <path d="M-4,0h8" fill="none" stroke="white" stroke-width="1.5" pointer-events="none"/>
                </g>
                <g id="dirArrow">
                        <path fill="none" stroke="white" stroke-width="1.5" d="M0,-3.0v7 M-2.5,-0.5L0,-3.0L2.5,-0.5"/>
                </g>
               <g id="resetDef">
                       <use xlink:href="#rim2" fill="#404040">
                               <set attributeName="fill" to="#808080" begin="reset.mouseover" end="reset.mouseout"/>
                       </use>
               </g>
        </defs>

<script type="text/javascript">
var viewWidth = 829;
var viewHeight = 213;
var sectionId = 'dynsection-19';
</script>
<script xlink:href="svgpan.js"/>
<svg id="graph" class="graph">
<g id="viewport">
<title>save</title>
<polygon fill="white" stroke="transparent" points="-4,4 -4,-209 824.84,-209 824.84,4 -4,4"/>
<!-- Node1 -->
<g id="node1" class="node">
<title>Node1</title>
<g id="a_node1"><a xlink:title=" ">
<polygon fill="#bfbfbf" stroke="black" points="771,-73 771,-92 809,-92 809,-73 771,-73"/>
<text text-anchor="middle" x="790" y="-80" font-family="Helvetica,sans-Serif" font-size="10.00">save</text>
</a>
</g>
</g>
<!-- Node1&#45;&gt;Node1 -->
<g id="edge14" class="edge">
<title>Node1&#45;&gt;Node1</title>
<path fill="none" stroke="midnightblue" d="M817.72,-94.27C826.18,-102.44 816.94,-110.5 790,-110.5 756.85,-110.5 750.5,-98.3 770.96,-88.69"/>
<polygon fill="midnightblue" stroke="midnightblue" points="819.34,-91.15 809.04,-88.69 815.56,-97.04 819.34,-91.15"/>
</g>
<!-- Node2 -->
<g id="node2" class="node">
<title>Node2</title>
<g id="a_node2"><a xlink:href="classrare_1_1components_1_1tabs_1_1settings_1_1widgets_1_1wrapper_1_1_wrapper_settings.html#a3f49eaa82385854d6627d30c27dc1fa7" target="_top" xlink:title=" ">
<polygon fill="white" stroke="black" points="257,-111.5 257,-141.5 478,-141.5 478,-111.5 257,-111.5"/>
<text text-anchor="start" x="265" y="-129.5" font-family="Helvetica,sans-Serif" font-size="10.00">rare.components.tabs.settings.widgets.wrapper.</text>
<text text-anchor="middle" x="367.5" y="-118.5" font-family="Helvetica,sans-Serif" font-size="10.00">WrapperSettings.add_wrapper</text>
</a>
</g>
</g>
<!-- Node1&#45;&gt;Node2 -->
<g id="edge1" class="edge">
<title>Node1&#45;&gt;Node2</title>
<path fill="none" stroke="midnightblue" d="M773.46,-99.12C763.5,-108.53 749.7,-119.41 735,-124.5 643.9,-156.03 532.27,-150.94 456.31,-141.54"/>
<polygon fill="midnightblue" stroke="midnightblue" points="775.97,-101.57 780.58,-92.03 771.02,-96.61 775.97,-101.57"/>
</g>
<!-- Node5 -->
<g id="node5" class="node">
<title>Node5</title>
<g id="a_node5"><a xlink:href="classrare_1_1components_1_1tabs_1_1settings_1_1widgets_1_1wrapper_1_1_wrapper_settings.html#ad9cf11ee037042a34e4226af64798193" target="_top" xlink:title=" ">
<polygon fill="white" stroke="black" points="514,-67.5 514,-97.5 735,-97.5 735,-67.5 514,-67.5"/>
<text text-anchor="start" x="522" y="-85.5" font-family="Helvetica,sans-Serif" font-size="10.00">rare.components.tabs.settings.widgets.wrapper.</text>
<text text-anchor="middle" x="624.5" y="-74.5" font-family="Helvetica,sans-Serif" font-size="10.00">WrapperSettings.delete_wrapper</text>
</a>
</g>
</g>
<!-- Node1&#45;&gt;Node5 -->
<g id="edge8" class="edge">
<title>Node1&#45;&gt;Node5</title>
<path fill="none" stroke="midnightblue" d="M760.65,-82.5C753.09,-82.5 744.46,-82.5 735.28,-82.5"/>
<polygon fill="midnightblue" stroke="midnightblue" points="760.88,-86 770.88,-82.5 760.88,-79 760.88,-86"/>
</g>
<!-- Node6 -->
<g id="node6" class="node">
<title>Node6</title>
<g id="a_node6"><a xlink:href="classrare_1_1components_1_1tabs_1_1settings_1_1widgets_1_1wrapper_1_1_wrapper_container.html#a635f7652b6a8b627b7448d53603de00a" target="_top" xlink:title=" ">
<polygon fill="white" stroke="black" points="514,-0.5 514,-30.5 735,-30.5 735,-0.5 514,-0.5"/>
<text text-anchor="start" x="522" y="-18.5" font-family="Helvetica,sans-Serif" font-size="10.00">rare.components.tabs.settings.widgets.wrapper.</text>
<text text-anchor="middle" x="624.5" y="-7.5" font-family="Helvetica,sans-Serif" font-size="10.00">WrapperContainer.dropEvent</text>
</a>
</g>
</g>
<!-- Node1&#45;&gt;Node6 -->
<g id="edge12" class="edge">
<title>Node1&#45;&gt;Node6</title>
<path fill="none" stroke="midnightblue" d="M761.56,-69.36C753.1,-65.43 743.71,-61.18 735,-57.5 712.59,-48.03 687.24,-38.25 666.58,-30.51"/>
<polygon fill="midnightblue" stroke="midnightblue" points="760.1,-72.54 770.64,-73.63 763.08,-66.21 760.1,-72.54"/>
</g>
<!-- Node2&#45;&gt;Node2 -->
<g id="edge4" class="edge">
<title>Node2&#45;&gt;Node2</title>
<path fill="none" stroke="midnightblue" d="M413.4,-151.59C408.11,-156.51 392.81,-160 367.5,-160 327,-160 312.13,-151.06 322.89,-141.66"/>
<polygon fill="midnightblue" stroke="midnightblue" points="416.87,-151.12 412.11,-141.66 409.93,-152.03 416.87,-151.12"/>
</g>
<!-- Node3 -->
<g id="node3" class="node">
<title>Node3</title>
<g id="a_node3"><a xlink:href="classrare_1_1components_1_1tabs_1_1settings_1_1widgets_1_1wrapper_1_1_wrapper_settings.html#a20a157d42aada3e8763402bf91304b88" target="_top" xlink:title=" ">
<polygon fill="white" stroke="black" points="0,-156.5 0,-186.5 221,-186.5 221,-156.5 0,-156.5"/>
<text text-anchor="start" x="8" y="-174.5" font-family="Helvetica,sans-Serif" font-size="10.00">rare.components.tabs.settings.widgets.wrapper.</text>
<text text-anchor="middle" x="110.5" y="-163.5" font-family="Helvetica,sans-Serif" font-size="10.00">WrapperSettings.add_button_pressed</text>
</a>
</g>
</g>
<!-- Node2&#45;&gt;Node3 -->
<g id="edge2" class="edge">
<title>Node2&#45;&gt;Node3</title>
<path fill="none" stroke="midnightblue" d="M271.23,-143.31C246.76,-147.63 220.6,-152.25 196.69,-156.47"/>
<polygon fill="midnightblue" stroke="midnightblue" points="271.99,-146.73 281.23,-141.55 270.78,-139.84 271.99,-146.73"/>
</g>
<!-- Node4 -->
<g id="node4" class="node">
<title>Node4</title>
<g id="a_node4"><a xlink:href="classrare_1_1components_1_1tabs_1_1settings_1_1widgets_1_1wrapper_1_1_wrapper_settings.html#ac7dec68a9f412451fd5ee8851d15b2ec" target="_top" xlink:title=" ">
<polygon fill="white" stroke="black" points="0,-89.5 0,-119.5 221,-119.5 221,-89.5 0,-89.5"/>
<text text-anchor="start" x="8" y="-107.5" font-family="Helvetica,sans-Serif" font-size="10.00">rare.components.tabs.settings.widgets.wrapper.</text>
<text text-anchor="middle" x="110.5" y="-96.5" font-family="Helvetica,sans-Serif" font-size="10.00">WrapperSettings.update_wrapper</text>
</a>
</g>
</g>
<!-- Node2&#45;&gt;Node4 -->
<g id="edge5" class="edge">
<title>Node2&#45;&gt;Node4</title>
<path fill="none" stroke="midnightblue" d="M258.42,-110.5C246.18,-109.35 233.69,-108.27 221.42,-107.29"/>
<polygon fill="midnightblue" stroke="midnightblue" points="258.35,-114 268.64,-111.47 259.02,-107.04 258.35,-114"/>
</g>
<!-- Node3&#45;&gt;Node3 -->
<g id="edge3" class="edge">
<title>Node3&#45;&gt;Node3</title>
<path fill="none" stroke="midnightblue" d="M156.4,-196.59C151.11,-201.51 135.81,-205 110.5,-205 70,-205 55.13,-196.06 65.89,-186.66"/>
<polygon fill="midnightblue" stroke="midnightblue" points="159.87,-196.12 155.11,-186.66 152.93,-197.03 159.87,-196.12"/>
</g>
<!-- Node4&#45;&gt;Node2 -->
<g id="edge6" class="edge">
<title>Node4&#45;&gt;Node2</title>
<path fill="none" stroke="midnightblue" d="M219.65,-120.51C231.97,-121.66 244.54,-122.75 256.88,-123.73"/>
<polygon fill="midnightblue" stroke="midnightblue" points="219.66,-117 209.37,-119.53 218.99,-123.96 219.66,-117"/>
</g>
<!-- Node4&#45;&gt;Node4 -->
<g id="edge7" class="edge">
<title>Node4&#45;&gt;Node4</title>
<path fill="none" stroke="midnightblue" d="M156.4,-129.59C151.11,-134.51 135.81,-138 110.5,-138 70,-138 55.13,-129.06 65.89,-119.66"/>
<polygon fill="midnightblue" stroke="midnightblue" points="159.87,-129.12 155.11,-119.66 152.93,-130.03 159.87,-129.12"/>
</g>
<!-- Node5&#45;&gt;Node2 -->
<g id="edge9" class="edge">
<title>Node5&#45;&gt;Node2</title>
<path fill="none" stroke="midnightblue" d="M526.56,-99.23C503.22,-103.25 478.44,-107.53 455.58,-111.47"/>
<polygon fill="midnightblue" stroke="midnightblue" points="527.2,-102.67 536.46,-97.52 526.01,-95.77 527.2,-102.67"/>
</g>
<!-- Node5&#45;&gt;Node4 -->
<g id="edge11" class="edge">
<title>Node5&#45;&gt;Node4</title>
<path fill="none" stroke="midnightblue" d="M503.97,-87.64C418.53,-91.31 304.43,-96.21 221.29,-99.78"/>
<polygon fill="midnightblue" stroke="midnightblue" points="504.14,-91.13 513.98,-87.21 503.84,-84.14 504.14,-91.13"/>
</g>
<!-- Node5&#45;&gt;Node5 -->
<g id="edge10" class="edge">
<title>Node5&#45;&gt;Node5</title>
<path fill="none" stroke="midnightblue" d="M653.64,-107.96C650.02,-112.68 640.31,-116 624.5,-116 598.55,-116 589.03,-107.06 595.92,-97.66"/>
<polygon fill="midnightblue" stroke="midnightblue" points="657.12,-107.45 653.08,-97.66 650.13,-107.83 657.12,-107.45"/>
</g>
<!-- Node6&#45;&gt;Node6 -->
<g id="edge13" class="edge">
<title>Node6&#45;&gt;Node6</title>
<path fill="none" stroke="midnightblue" d="M653.64,-40.96C650.02,-45.68 640.31,-49 624.5,-49 598.55,-49 589.03,-40.06 595.92,-30.66"/>
<polygon fill="midnightblue" stroke="midnightblue" points="657.12,-40.45 653.08,-30.66 650.13,-40.83 657.12,-40.45"/>
</g>
</g>
</svg>
        <g id="navigator" transform="translate(0 0)" fill="#404254">
                <rect fill="#f2f5e9" fill-opacity="0.5" stroke="#606060" stroke-width=".5" x="0" y="0" width="60" height="60"/>
                <use id="zoomplus" xlink:href="#zoomPlus" x="17" y="9" onmousedown="handleZoom(evt,'in')"/>
                <use id="zoomminus" xlink:href="#zoomMin" x="42" y="9" onmousedown="handleZoom(evt,'out')"/>
                <use id="reset" xlink:href="#resetDef" x="30" y="36" onmousedown="handleReset()"/>
                <g id="arrowUp" xlink:href="#dirArrow" transform="translate(30 24)" onmousedown="handlePan(0,-1)">
                  <use xlink:href="#rim" fill="#404040">
                        <set attributeName="fill" to="#808080" begin="arrowUp.mouseover" end="arrowUp.mouseout"/>
                  </use>
                  <path fill="none" stroke="white" stroke-width="1.5" d="M0,-3.0v7 M-2.5,-0.5L0,-3.0L2.5,-0.5"/>
                </g>
                <g id="arrowRight" xlink:href="#dirArrow" transform="rotate(90) translate(36 -43)" onmousedown="handlePan(1,0)">
                  <use xlink:href="#rim" fill="#404040">
                        <set attributeName="fill" to="#808080" begin="arrowRight.mouseover" end="arrowRight.mouseout"/>
                  </use>
                  <path fill="none" stroke="white" stroke-width="1.5" d="M0,-3.0v7 M-2.5,-0.5L0,-3.0L2.5,-0.5"/>
                </g>
                <g id="arrowDown" xlink:href="#dirArrow" transform="rotate(180) translate(-30 -48)" onmousedown="handlePan(0,1)">
                  <use xlink:href="#rim" fill="#404040">
                        <set attributeName="fill" to="#808080" begin="arrowDown.mouseover" end="arrowDown.mouseout"/>
                  </use>
                  <path fill="none" stroke="white" stroke-width="1.5" d="M0,-3.0v7 M-2.5,-0.5L0,-3.0L2.5,-0.5"/>
                </g>
                <g id="arrowLeft" xlink:href="#dirArrow" transform="rotate(270) translate(-36 17)" onmousedown="handlePan(-1,0)">
                  <use xlink:href="#rim" fill="#404040">
                        <set attributeName="fill" to="#808080" begin="arrowLeft.mouseover" end="arrowLeft.mouseout"/>
                  </use>
                  <path fill="none" stroke="white" stroke-width="1.5" d="M0,-3.0v7 M-2.5,-0.5L0,-3.0L2.5,-0.5"/>
                </g>
        </g>
        <svg viewBox="0 0 15 15" width="100%" height="30px" preserveAspectRatio="xMaxYMin meet">
         <g id="arrow_out" transform="scale(0.3 0.3)">
          <a xlink:href="classrare_1_1launcher_1_1console_1_1_console_a564562f082521e37c7029e239abb56c6_icgraph_org.svg" target="_base">
           <rect id="button" ry="5" rx="5" y="6" x="6" height="38" width="38"
                fill="#f2f5e9" fill-opacity="0.5" stroke="#606060" stroke-width="1.0"/>
           <path id="arrow"
             d="M 11.500037,31.436501 C 11.940474,20.09759 22.043105,11.32322 32.158766,21.979434 L 37.068811,17.246167 C 37.068811,17.246167 37.088388,32 37.088388,32 L 22.160133,31.978069 C 22.160133,31.978069 26.997745,27.140456 26.997745,27.140456 C 18.528582,18.264221 13.291696,25.230495 11.500037,31.436501 z"
             style="fill:#404040;"/>
          </a>
         </g>
        </svg>
</svg>
