<?xml version="1.0" encoding="UTF-8" standalone="no"?>
<!DOCTYPE svg PUBLIC "-//W3C//DTD SVG 1.1//EN"
 "http://www.w3.org/Graphics/SVG/1.1/DTD/svg11.dtd">
<!-- Generated by graphviz version 2.49.3 (20211027.1534)
 -->
<!-- Title: finish_bottle_setup Pages: 1 -->
<svg width="478pt" height="191pt"
 viewBox="0.00 0.00 478.00 191.00" xmlns="http://www.w3.org/2000/svg" xmlns:xlink="http://www.w3.org/1999/xlink">
<g id="graph0" class="graph" transform="scale(1 1) rotate(0) translate(4 187)">
<title>finish_bottle_setup</title>
<polygon fill="white" stroke="transparent" points="-4,4 -4,-187 474,-187 474,4 -4,4"/>
<!-- Node1 -->
<g id="node1" class="node">
<title>Node1</title>
<g id="a_node1"><a xlink:title=" ">
<polygon fill="#bfbfbf" stroke="black" points="0,-73 0,-92 98,-92 98,-73 0,-73"/>
<text text-anchor="middle" x="49" y="-80" font-family="Helvetica,sans-Serif" font-size="10.00">finish_bottle_setup</text>
</a>
</g>
</g>
<!-- Node1&#45;&gt;Node1 -->
<g id="edge1" class="edge">
<title>Node1&#45;&gt;Node1</title>
<path fill="none" stroke="midnightblue" d="M24.65,-92.26C12.8,-101.07 20.92,-110.5 49,-110.5 67.43,-110.5 77.26,-106.44 78.49,-101.15"/>
<polygon fill="midnightblue" stroke="midnightblue" points="81.39,-99.16 73.35,-92.26 75.32,-102.67 81.39,-99.16"/>
</g>
<!-- Node2 -->
<g id="node2" class="node">
<title>Node2</title>
<g id="a_node2"><a xlink:href="classrare_1_1components_1_1extra_1_1console_1_1_console.html#a4db0e98c238d6a69bdbf4b8cc59be732" target="_top" xlink:title=" ">
<polygon fill="white" stroke="black" points="134,-134.5 134,-164.5 284,-164.5 284,-134.5 134,-134.5"/>
<text text-anchor="start" x="142" y="-152.5" font-family="Helvetica,sans-Serif" font-size="10.00">rare.components.extra.console.</text>
<text text-anchor="middle" x="209" y="-141.5" font-family="Helvetica,sans-Serif" font-size="10.00">Console.log</text>
</a>
</g>
</g>
<!-- Node1&#45;&gt;Node2 -->
<g id="edge2" class="edge">
<title>Node1&#45;&gt;Node2</title>
<path fill="none" stroke="midnightblue" d="M66.68,-92.04C83.36,-101.35 109.94,-115.52 134,-125.5 138.64,-127.42 143.49,-129.3 148.39,-131.09"/>
<polygon fill="midnightblue" stroke="midnightblue" points="147.25,-134.4 157.85,-134.44 149.59,-127.8 147.25,-134.4"/>
</g>
<!-- Node3 -->
<g id="node3" class="node">
<title>Node3</title>
<g id="a_node3"><a xlink:href="classrare_1_1components_1_1extra_1_1console_1_1_console_edit.html#ac05aadedf6e1be5c365c818989f98d50" target="_top" xlink:title=" ">
<polygon fill="white" stroke="black" points="134,-67.5 134,-97.5 284,-97.5 284,-67.5 134,-67.5"/>
<text text-anchor="start" x="142" y="-85.5" font-family="Helvetica,sans-Serif" font-size="10.00">rare.components.extra.console.</text>
<text text-anchor="middle" x="209" y="-74.5" font-family="Helvetica,sans-Serif" font-size="10.00">ConsoleEdit.log</text>
</a>
</g>
</g>
<!-- Node1&#45;&gt;Node3 -->
<g id="edge4" class="edge">
<title>Node1&#45;&gt;Node3</title>
<path fill="none" stroke="midnightblue" d="M98.26,-82.5C106.35,-82.5 114.95,-82.5 123.63,-82.5"/>
<polygon fill="midnightblue" stroke="midnightblue" points="123.84,-86 133.84,-82.5 123.84,-79 123.84,-86"/>
</g>
<!-- Node5 -->
<g id="node5" class="node">
<title>Node5</title>
<g id="a_node5"><a xlink:href="namespacelegendary_1_1utils_1_1crossover.html#a9aa9ea66321ce994ff013a726a7ec6c4" target="_top" xlink:title=" ">
<polygon fill="white" stroke="black" points="137,-0.5 137,-30.5 281,-30.5 281,-0.5 137,-0.5"/>
<text text-anchor="start" x="145" y="-18.5" font-family="Helvetica,sans-Serif" font-size="10.00">legendary.utils.crossover.mac</text>
<text text-anchor="middle" x="209" y="-7.5" font-family="Helvetica,sans-Serif" font-size="10.00">_get_bottle_path</text>
</a>
</g>
</g>
<!-- Node1&#45;&gt;Node5 -->
<g id="edge8" class="edge">
<title>Node1&#45;&gt;Node5</title>
<path fill="none" stroke="midnightblue" d="M72.64,-72.9C96.2,-62.91 133.72,-47 163.28,-34.46"/>
<polygon fill="midnightblue" stroke="midnightblue" points="164.74,-37.65 172.58,-30.52 162,-31.2 164.74,-37.65"/>
</g>
<!-- Node2&#45;&gt;Node2 -->
<g id="edge3" class="edge">
<title>Node2&#45;&gt;Node2</title>
<path fill="none" stroke="midnightblue" d="M181.47,-164.66C174.83,-174.06 184,-183 209,-183 224.23,-183 233.59,-179.68 237.07,-174.96"/>
<polygon fill="midnightblue" stroke="midnightblue" points="240.55,-174.46 236.53,-164.66 233.56,-174.83 240.55,-174.46"/>
</g>
<!-- Node3&#45;&gt;Node3 -->
<g id="edge5" class="edge">
<title>Node3&#45;&gt;Node3</title>
<path fill="none" stroke="midnightblue" d="M181.47,-97.66C174.83,-107.06 184,-116 209,-116 224.23,-116 233.59,-112.68 237.07,-107.96"/>
<polygon fill="midnightblue" stroke="midnightblue" points="240.55,-107.46 236.53,-97.66 233.56,-107.83 240.55,-107.46"/>
</g>
<!-- Node4 -->
<g id="node4" class="node">
<title>Node4</title>
<g id="a_node4"><a xlink:href="classrare_1_1components_1_1extra_1_1console_1_1_console_edit.html#ad89ca21019805240d01e41fe61cdbb56" target="_top" xlink:title=" ">
<polygon fill="white" stroke="black" points="320,-67.5 320,-97.5 470,-97.5 470,-67.5 320,-67.5"/>
<text text-anchor="start" x="328" y="-85.5" font-family="Helvetica,sans-Serif" font-size="10.00">rare.components.extra.console.</text>
<text text-anchor="middle" x="395" y="-74.5" font-family="Helvetica,sans-Serif" font-size="10.00">ConsoleEdit.scroll_to_last_line</text>
</a>
</g>
</g>
<!-- Node3&#45;&gt;Node4 -->
<g id="edge6" class="edge">
<title>Node3&#45;&gt;Node4</title>
<path fill="none" stroke="midnightblue" d="M284.04,-82.5C292.51,-82.5 301.19,-82.5 309.78,-82.5"/>
<polygon fill="midnightblue" stroke="midnightblue" points="309.81,-86 319.81,-82.5 309.81,-79 309.81,-86"/>
</g>
<!-- Node4&#45;&gt;Node4 -->
<g id="edge7" class="edge">
<title>Node4&#45;&gt;Node4</title>
<path fill="none" stroke="midnightblue" d="M362.93,-97.66C355.2,-107.06 365.89,-116 395,-116 412.74,-116 423.64,-112.68 427.69,-107.96"/>
<polygon fill="midnightblue" stroke="midnightblue" points="431.17,-107.43 427.07,-97.66 424.18,-107.85 431.17,-107.43"/>
</g>
<!-- Node5&#45;&gt;Node5 -->
<g id="edge9" class="edge">
<title>Node5&#45;&gt;Node5</title>
<path fill="none" stroke="midnightblue" d="M181.47,-30.66C174.83,-40.06 184,-49 209,-49 224.23,-49 233.59,-45.68 237.07,-40.96"/>
<polygon fill="midnightblue" stroke="midnightblue" points="240.55,-40.46 236.53,-30.66 233.56,-40.83 240.55,-40.46"/>
</g>
</g>
</svg>
