<?xml version="1.0" encoding="UTF-8" standalone="no"?>
<!DOCTYPE svg PUBLIC "-//W3C//DTD SVG 1.1//EN"
 "http://www.w3.org/Graphics/SVG/1.1/DTD/svg11.dtd">
<!-- Generated by graphviz version 2.49.3 (20211027.1534)
 -->
<!-- Title: remove Pages: 1 -->
<svg width="150pt" height="102pt"
 viewBox="0.00 0.00 150.00 102.00" xmlns="http://www.w3.org/2000/svg" xmlns:xlink="http://www.w3.org/1999/xlink">
<g id="graph0" class="graph" transform="scale(1 1) rotate(0) translate(4 98)">
<title>remove</title>
<polygon fill="white" stroke="transparent" points="-4,4 -4,-98 146,-98 146,4 -4,4"/>
<!-- Node1 -->
<g id="node1" class="node">
<title>Node1</title>
<g id="a_node1"><a xlink:title=" ">
<polygon fill="#bfbfbf" stroke="black" points="93,-28.5 93,-47.5 142,-47.5 142,-28.5 93,-28.5"/>
<text text-anchor="middle" x="117.5" y="-35.5" font-family="Helvetica,sans-Serif" font-size="10.00">remove</text>
</a>
</g>
</g>
<!-- Node1&#45;&gt;Node1 -->
<g id="edge5" class="edge">
<title>Node1&#45;&gt;Node1</title>
<path fill="none" stroke="midnightblue" d="M133.8,-57.4C132.71,-62.31 127.28,-66 117.5,-66 101.86,-66 97.34,-56.57 103.94,-47.76"/>
<polygon fill="midnightblue" stroke="midnightblue" points="137.16,-56.42 131.06,-47.76 130.42,-58.33 137.16,-56.42"/>
</g>
<!-- Node2 -->
<g id="node2" class="node">
<title>Node2</title>
<g id="a_node2"><a xlink:href="classrare_1_1components_1_1tabs_1_1downloads_1_1groups_1_1_queue_group.html#afa4e0f2b4a8c4e5c97b4853dbca6e7a7" target="_top" xlink:title=" ">
<polygon fill="white" stroke="black" points="2,-56.5 2,-75.5 55,-75.5 55,-56.5 2,-56.5"/>
<text text-anchor="middle" x="28.5" y="-63.5" font-family="Helvetica,sans-Serif" font-size="10.00">contains</text>
</a>
</g>
</g>
<!-- Node1&#45;&gt;Node2 -->
<g id="edge1" class="edge">
<title>Node1&#45;&gt;Node2</title>
<path fill="none" stroke="midnightblue" d="M83,-48.78C73.73,-51.77 63.82,-54.96 55.07,-57.77"/>
<polygon fill="midnightblue" stroke="midnightblue" points="84.28,-52.05 92.73,-45.65 82.14,-45.38 84.28,-52.05"/>
</g>
<!-- Node3 -->
<g id="node3" class="node">
<title>Node3</title>
<g id="a_node3"><a xlink:href="classrare_1_1components_1_1tabs_1_1downloads_1_1groups_1_1_queue_group.html#a9c713e9ed74ea698ee2ef20be66cd50b" target="_top" xlink:title=" ">
<polygon fill="white" stroke="black" points="0,-0.5 0,-19.5 57,-19.5 57,-0.5 0,-0.5"/>
<text text-anchor="middle" x="28.5" y="-7.5" font-family="Helvetica,sans-Serif" font-size="10.00">pop_front</text>
</a>
</g>
</g>
<!-- Node1&#45;&gt;Node3 -->
<g id="edge3" class="edge">
<title>Node1&#45;&gt;Node3</title>
<path fill="none" stroke="midnightblue" d="M83.05,-27.24C74.53,-24.49 65.46,-21.57 57.25,-18.93"/>
<polygon fill="midnightblue" stroke="midnightblue" points="82.14,-30.62 92.73,-30.35 84.28,-23.95 82.14,-30.62"/>
</g>
<!-- Node2&#45;&gt;Node2 -->
<g id="edge2" class="edge">
<title>Node2&#45;&gt;Node2</title>
<path fill="none" stroke="midnightblue" d="M44.8,-85.4C43.71,-90.31 38.28,-94 28.5,-94 12.86,-94 8.34,-84.57 14.94,-75.76"/>
<polygon fill="midnightblue" stroke="midnightblue" points="48.16,-84.42 42.06,-75.76 41.42,-86.33 48.16,-84.42"/>
</g>
<!-- Node3&#45;&gt;Node3 -->
<g id="edge4" class="edge">
<title>Node3&#45;&gt;Node3</title>
<path fill="none" stroke="midnightblue" d="M44.8,-29.4C43.71,-34.31 38.28,-38 28.5,-38 12.86,-38 8.34,-28.57 14.94,-19.76"/>
<polygon fill="midnightblue" stroke="midnightblue" points="48.16,-28.42 42.06,-19.76 41.42,-30.33 48.16,-28.42"/>
</g>
</g>
</svg>
