<?xml version="1.0" encoding="UTF-8" standalone="no"?>
<!DOCTYPE svg PUBLIC "-//W3C//DTD SVG 1.1//EN"
 "http://www.w3.org/Graphics/SVG/1.1/DTD/svg11.dtd">
<!-- Generated by graphviz version 2.49.3 (20211027.1534)
 -->
<!-- Title: is_installed Pages: 1 -->
<!--zoomable 297 -->
<svg id="main" version="1.1" xmlns="http://www.w3.org/2000/svg" xmlns:xlink="http://www.w3.org/1999/xlink" xml:space="preserve" onload="init(evt)">
<style type="text/css"><![CDATA[
.edge:hover path { stroke: red; }
.edge:hover polygon { stroke: red; fill: red; }
]]></style>
<script type="text/javascript"><![CDATA[
var edges = document.getElementsByTagName('g');
if (edges && edges.length) {
  for (var i=0;i<edges.length;i++) {
    if (edges[i].id.substr(0,4)=='edge') {
      edges[i].setAttribute('class','edge');
    }
  }
}
]]></script>
        <defs>
                <circle id="rim" cx="0" cy="0" r="7"/>
                <circle id="rim2" cx="0" cy="0" r="3.5"/>
                <g id="zoomPlus">
                        <use xlink:href="#rim" fill="#404040">
                                <set attributeName="fill" to="#808080" begin="zoomplus.mouseover" end="zoomplus.mouseout"/>
                        </use>
                        <path d="M-4,0h8M0,-4v8" fill="none" stroke="white" stroke-width="1.5" pointer-events="none"/>
                </g>
                <g id="zoomMin">
                        <use xlink:href="#rim" fill="#404040">
                                <set attributeName="fill" to="#808080" begin="zoomminus.mouseover" end="zoomminus.mouseout"/>
                        </use>
                        <path d="M-4,0h8" fill="none" stroke="white" stroke-width="1.5" pointer-events="none"/>
                </g>
                <g id="dirArrow">
                        <path fill="none" stroke="white" stroke-width="1.5" d="M0,-3.0v7 M-2.5,-0.5L0,-3.0L2.5,-0.5"/>
                </g>
               <g id="resetDef">
                       <use xlink:href="#rim2" fill="#404040">
                               <set attributeName="fill" to="#808080" begin="reset.mouseover" end="reset.mouseout"/>
                       </use>
               </g>
        </defs>

<script type="text/javascript">
var viewWidth = 1111;
var viewHeight = 297;
var sectionId = 'dynsection-9';
</script>
<script xlink:href="svgpan.js"/>
<svg id="graph" class="graph">
<g id="viewport">
<title>is_installed</title>
<polygon fill="white" stroke="transparent" points="-4,4 -4,-293 1107,-293 1107,4 -4,4"/>
<!-- Node1 -->
<g id="node1" class="node">
<title>Node1</title>
<g id="a_node1"><a xlink:title=" ">
<polygon fill="#bfbfbf" stroke="black" points="1038,-140 1038,-159 1103,-159 1103,-140 1038,-140"/>
<text text-anchor="middle" x="1070.5" y="-147" font-family="Helvetica,sans-Serif" font-size="10.00">is_installed</text>
</a>
</g>
</g>
<!-- Node1&#45;&gt;Node1 -->
<g id="edge18" class="edge">
<title>Node1&#45;&gt;Node1</title>
<path fill="none" stroke="midnightblue" d="M1097.38,-168.15C1096.26,-173.44 1087.3,-177.5 1070.5,-177.5 1044.91,-177.5 1037.51,-168.07 1048.31,-159.26"/>
<polygon fill="midnightblue" stroke="midnightblue" points="1100.45,-166.47 1092.69,-159.26 1094.26,-169.74 1100.45,-166.47"/>
</g>
<!-- Node2 -->
<g id="node2" class="node">
<title>Node2</title>
<g id="a_node2"><a xlink:href="classrare_1_1models_1_1game_1_1_rare_game.html#a4431ce8cf18e5dd3414d8882e585bd8d" target="_top" xlink:title=" ">
<polygon fill="white" stroke="black" points="621,-120.5 621,-150.5 781,-150.5 781,-120.5 621,-120.5"/>
<text text-anchor="start" x="629" y="-138.5" font-family="Helvetica,sans-Serif" font-size="10.00">rare.models.game.RareGame.can</text>
<text text-anchor="middle" x="701" y="-127.5" font-family="Helvetica,sans-Serif" font-size="10.00">_launch</text>
</a>
</g>
</g>
<!-- Node1&#45;&gt;Node2 -->
<g id="edge1" class="edge">
<title>Node1&#45;&gt;Node2</title>
<path fill="none" stroke="midnightblue" d="M1050.55,-165.75C1037.76,-175.6 1019.99,-187.26 1002,-192.5 937.14,-211.4 916.42,-204.85 850,-192.5 807.09,-184.52 760.58,-164.57 731.38,-150.54"/>
<polygon fill="midnightblue" stroke="midnightblue" points="1052.95,-168.31 1058.55,-159.31 1048.56,-162.85 1052.95,-168.31"/>
</g>
<!-- Node6 -->
<g id="node6" class="node">
<title>Node6</title>
<g id="a_node6"><a xlink:href="classrare_1_1models_1_1game_1_1_rare_eos_overlay.html#a490161fe09206c763886fa3a9528a8b5" target="_top" xlink:title=" ">
<polygon fill="white" stroke="black" points="860,-240.5 860,-270.5 992,-270.5 992,-240.5 860,-240.5"/>
<text text-anchor="start" x="868" y="-258.5" font-family="Helvetica,sans-Serif" font-size="10.00">rare.models.game.RareEos</text>
<text text-anchor="middle" x="926" y="-247.5" font-family="Helvetica,sans-Serif" font-size="10.00">Overlay.enable</text>
</a>
</g>
</g>
<!-- Node1&#45;&gt;Node6 -->
<g id="edge9" class="edge">
<title>Node1&#45;&gt;Node6</title>
<path fill="none" stroke="midnightblue" d="M1057.18,-167.68C1044.9,-184.61 1024.66,-209.58 1002,-225.5 993.62,-231.39 983.93,-236.35 974.34,-240.45"/>
<polygon fill="midnightblue" stroke="midnightblue" points="1060.25,-169.4 1063.14,-159.21 1054.53,-165.37 1060.25,-169.4"/>
</g>
<!-- Node8 -->
<g id="node8" class="node">
<title>Node8</title>
<g id="a_node8"><a xlink:href="classrare_1_1models_1_1game_1_1_rare_eos_overlay.html#aae0820b518a5472343effc0dbeac6a1f" target="_top" xlink:title=" ">
<polygon fill="white" stroke="black" points="860,-134.5 860,-164.5 992,-164.5 992,-134.5 860,-134.5"/>
<text text-anchor="start" x="868" y="-152.5" font-family="Helvetica,sans-Serif" font-size="10.00">rare.models.game.RareEos</text>
<text text-anchor="middle" x="926" y="-141.5" font-family="Helvetica,sans-Serif" font-size="10.00">Overlay.install</text>
</a>
</g>
</g>
<!-- Node1&#45;&gt;Node8 -->
<g id="edge13" class="edge">
<title>Node1&#45;&gt;Node8</title>
<path fill="none" stroke="midnightblue" d="M1027.6,-149.5C1016.46,-149.5 1004.17,-149.5 992.11,-149.5"/>
<polygon fill="midnightblue" stroke="midnightblue" points="1027.87,-153 1037.87,-149.5 1027.87,-146 1027.87,-153"/>
</g>
<!-- Node9 -->
<g id="node9" class="node">
<title>Node9</title>
<g id="a_node9"><a xlink:href="classrare_1_1models_1_1game_1_1_rare_game.html#a446ff523b2db28f598f431a4614f4a96" target="_top" xlink:title="Property to report if a game doesn&#39;t belong to the current account.">
<polygon fill="white" stroke="black" points="850,-67.5 850,-97.5 1002,-97.5 1002,-67.5 850,-67.5"/>
<text text-anchor="start" x="858" y="-85.5" font-family="Helvetica,sans-Serif" font-size="10.00">rare.models.game.RareGame.is</text>
<text text-anchor="middle" x="926" y="-74.5" font-family="Helvetica,sans-Serif" font-size="10.00">_foreign</text>
</a>
</g>
</g>
<!-- Node1&#45;&gt;Node9 -->
<g id="edge15" class="edge">
<title>Node1&#45;&gt;Node9</title>
<path fill="none" stroke="midnightblue" d="M1039.9,-135.58C1016.25,-124.47 983.19,-108.92 958.95,-97.52"/>
<polygon fill="midnightblue" stroke="midnightblue" points="1038.54,-138.81 1049.08,-139.9 1041.52,-132.48 1038.54,-138.81"/>
</g>
<!-- Node10 -->
<g id="node10" class="node">
<title>Node10</title>
<g id="a_node10"><a xlink:href="classrare_1_1models_1_1game_1_1_rare_eos_overlay.html#a57ae42bf2cdbf9fc08a1a94eaabaa93b" target="_top" xlink:title=" ">
<polygon fill="white" stroke="black" points="860,-0.5 860,-30.5 992,-30.5 992,-0.5 860,-0.5"/>
<text text-anchor="start" x="868" y="-18.5" font-family="Helvetica,sans-Serif" font-size="10.00">rare.models.game.RareEos</text>
<text text-anchor="middle" x="926" y="-7.5" font-family="Helvetica,sans-Serif" font-size="10.00">Overlay.uninstall</text>
</a>
</g>
</g>
<!-- Node1&#45;&gt;Node10 -->
<g id="edge19" class="edge">
<title>Node1&#45;&gt;Node10</title>
<path fill="none" stroke="midnightblue" d="M1059.26,-131.1C1047.45,-111.11 1026.48,-79.15 1002,-57.5 989.93,-46.82 974.69,-37.68 961.11,-30.68"/>
<polygon fill="midnightblue" stroke="midnightblue" points="1056.27,-132.93 1064.3,-139.85 1062.34,-129.44 1056.27,-132.93"/>
</g>
<!-- Node2&#45;&gt;Node2 -->
<g id="edge2" class="edge">
<title>Node2&#45;&gt;Node2</title>
<path fill="none" stroke="midnightblue" d="M740.8,-160.96C735.86,-165.68 722.59,-169 701,-169 665.56,-169 652.55,-160.06 661.96,-150.66"/>
<polygon fill="midnightblue" stroke="midnightblue" points="744.27,-160.37 740.04,-150.66 737.29,-160.89 744.27,-160.37"/>
</g>
<!-- Node3 -->
<g id="node3" class="node">
<title>Node3</title>
<g id="a_node3"><a xlink:href="classrare_1_1models_1_1game_1_1_rare_game.html#a52f719d3dd964e44c5550f2f79aacb7e" target="_top" xlink:title=" ">
<polygon fill="white" stroke="black" points="379,-126 379,-145 552,-145 552,-126 379,-126"/>
<text text-anchor="middle" x="465.5" y="-133" font-family="Helvetica,sans-Serif" font-size="10.00">rare.models.game.RareGame.launch</text>
</a>
</g>
</g>
<!-- Node2&#45;&gt;Node3 -->
<g id="edge3" class="edge">
<title>Node2&#45;&gt;Node3</title>
<path fill="none" stroke="midnightblue" d="M610.72,-135.5C591.54,-135.5 571.32,-135.5 552.28,-135.5"/>
<polygon fill="midnightblue" stroke="midnightblue" points="610.95,-139 620.95,-135.5 610.95,-132 610.95,-139"/>
</g>
<!-- Node3&#45;&gt;Node3 -->
<g id="edge8" class="edge">
<title>Node3&#45;&gt;Node3</title>
<path fill="none" stroke="midnightblue" d="M503,-153C502.99,-158.84 490.49,-163.5 465.5,-163.5 429.95,-163.5 419.68,-154.07 434.67,-145.26"/>
<polygon fill="midnightblue" stroke="midnightblue" points="505.5,-150.55 496.33,-145.26 500.2,-155.12 505.5,-150.55"/>
</g>
<!-- Node4 -->
<g id="node4" class="node">
<title>Node4</title>
<g id="a_node4"><a xlink:href="classrare_1_1components_1_1dialogs_1_1launch__dialog_1_1_launch_dialog.html#aa3fe4f510c683950f9a38eb445106504" target="_top" xlink:title=" ">
<polygon fill="white" stroke="black" points="188,-120.5 188,-150.5 343,-150.5 343,-120.5 188,-120.5"/>
<text text-anchor="start" x="196" y="-138.5" font-family="Helvetica,sans-Serif" font-size="10.00">rare.components.dialogs.launch</text>
<text text-anchor="middle" x="265.5" y="-127.5" font-family="Helvetica,sans-Serif" font-size="10.00">_dialog.LaunchDialog.do_launch</text>
</a>
</g>
</g>
<!-- Node3&#45;&gt;Node4 -->
<g id="edge4" class="edge">
<title>Node3&#45;&gt;Node4</title>
<path fill="none" stroke="midnightblue" d="M368.8,-135.5C360.24,-135.5 351.66,-135.5 343.29,-135.5"/>
<polygon fill="midnightblue" stroke="midnightblue" points="368.81,-139 378.81,-135.5 368.81,-132 368.81,-139"/>
</g>
<!-- Node4&#45;&gt;Node4 -->
<g id="edge5" class="edge">
<title>Node4&#45;&gt;Node4</title>
<path fill="none" stroke="midnightblue" d="M298.91,-160.96C294.76,-165.68 283.62,-169 265.5,-169 235.76,-169 224.84,-160.06 232.74,-150.66"/>
<polygon fill="midnightblue" stroke="midnightblue" points="302.38,-160.42 298.26,-150.66 295.39,-160.86 302.38,-160.42"/>
</g>
<!-- Node5 -->
<g id="node5" class="node">
<title>Node5</title>
<g id="a_node5"><a xlink:href="classrare_1_1components_1_1dialogs_1_1launch__dialog_1_1_launch_dialog.html#a6c3ea5ef9b9848bf1214c66978e3d59d" target="_top" xlink:title=" ">
<polygon fill="white" stroke="black" points="0,-120.5 0,-150.5 152,-150.5 152,-120.5 0,-120.5"/>
<text text-anchor="start" x="8" y="-138.5" font-family="Helvetica,sans-Serif" font-size="10.00">rare.components.dialogs.launch</text>
<text text-anchor="middle" x="76" y="-127.5" font-family="Helvetica,sans-Serif" font-size="10.00">_dialog.LaunchDialog.login</text>
</a>
</g>
</g>
<!-- Node4&#45;&gt;Node5 -->
<g id="edge6" class="edge">
<title>Node4&#45;&gt;Node5</title>
<path fill="none" stroke="midnightblue" d="M177.9,-135.5C169.27,-135.5 160.57,-135.5 152.08,-135.5"/>
<polygon fill="midnightblue" stroke="midnightblue" points="177.97,-139 187.97,-135.5 177.97,-132 177.97,-139"/>
</g>
<!-- Node5&#45;&gt;Node5 -->
<g id="edge7" class="edge">
<title>Node5&#45;&gt;Node5</title>
<path fill="none" stroke="midnightblue" d="M109.41,-160.96C105.26,-165.68 94.12,-169 76,-169 46.26,-169 35.34,-160.06 43.24,-150.66"/>
<polygon fill="midnightblue" stroke="midnightblue" points="112.88,-160.42 108.76,-150.66 105.89,-160.86 112.88,-160.42"/>
</g>
<!-- Node6&#45;&gt;Node6 -->
<g id="edge10" class="edge">
<title>Node6&#45;&gt;Node6</title>
<path fill="none" stroke="midnightblue" d="M951.59,-280.96C948.41,-285.68 939.88,-289 926,-289 903.22,-289 894.85,-280.06 900.91,-270.66"/>
<polygon fill="midnightblue" stroke="midnightblue" points="955.07,-280.48 951.09,-270.66 948.08,-280.81 955.07,-280.48"/>
</g>
<!-- Node7 -->
<g id="node7" class="node">
<title>Node7</title>
<g id="a_node7"><a xlink:href="classrare_1_1ui_1_1components_1_1tabs_1_1settings_1_1widgets_1_1discord__rpc_1_1_ui___discord_r_p_c_settings.html#a4bfd5c17309aaea7ec5625d3afa8f812" target="_top" xlink:title=" ">
<polygon fill="white" stroke="black" points="588,-240.5 588,-270.5 814,-270.5 814,-240.5 588,-240.5"/>
<text text-anchor="start" x="596" y="-258.5" font-family="Helvetica,sans-Serif" font-size="10.00">rare.ui.components.tabs.settings.widgets.discord</text>
<text text-anchor="middle" x="701" y="-247.5" font-family="Helvetica,sans-Serif" font-size="10.00">_rpc.Ui_DiscordRPCSettings.retranslateUi</text>
</a>
</g>
</g>
<!-- Node6&#45;&gt;Node7 -->
<g id="edge11" class="edge">
<title>Node6&#45;&gt;Node7</title>
<path fill="none" stroke="midnightblue" d="M849.58,-255.5C838.16,-255.5 826.17,-255.5 814.17,-255.5"/>
<polygon fill="midnightblue" stroke="midnightblue" points="849.9,-259 859.9,-255.5 849.9,-252 849.9,-259"/>
</g>
<!-- Node7&#45;&gt;Node7 -->
<g id="edge12" class="edge">
<title>Node7&#45;&gt;Node7</title>
<path fill="none" stroke="midnightblue" d="M740.8,-280.96C735.86,-285.68 722.59,-289 701,-289 665.56,-289 652.55,-280.06 661.96,-270.66"/>
<polygon fill="midnightblue" stroke="midnightblue" points="744.27,-280.37 740.04,-270.66 737.29,-280.89 744.27,-280.37"/>
</g>
<!-- Node8&#45;&gt;Node8 -->
<g id="edge14" class="edge">
<title>Node8&#45;&gt;Node8</title>
<path fill="none" stroke="midnightblue" d="M951.59,-174.96C948.41,-179.68 939.88,-183 926,-183 903.22,-183 894.85,-174.06 900.91,-164.66"/>
<polygon fill="midnightblue" stroke="midnightblue" points="955.07,-174.48 951.09,-164.66 948.08,-174.81 955.07,-174.48"/>
</g>
<!-- Node9&#45;&gt;Node2 -->
<g id="edge16" class="edge">
<title>Node9&#45;&gt;Node2</title>
<path fill="none" stroke="midnightblue" d="M851.61,-99.94C823.77,-106.56 792.32,-114.03 765.46,-120.42"/>
<polygon fill="midnightblue" stroke="midnightblue" points="852.77,-103.26 861.69,-97.55 851.16,-96.45 852.77,-103.26"/>
</g>
<!-- Node9&#45;&gt;Node9 -->
<g id="edge17" class="edge">
<title>Node9&#45;&gt;Node9</title>
<path fill="none" stroke="midnightblue" d="M951.59,-107.96C948.41,-112.68 939.88,-116 926,-116 903.22,-116 894.85,-107.06 900.91,-97.66"/>
<polygon fill="midnightblue" stroke="midnightblue" points="955.07,-107.48 951.09,-97.66 948.08,-107.81 955.07,-107.48"/>
</g>
<!-- Node10&#45;&gt;Node10 -->
<g id="edge20" class="edge">
<title>Node10&#45;&gt;Node10</title>
<path fill="none" stroke="midnightblue" d="M951.59,-40.96C948.41,-45.68 939.88,-49 926,-49 903.22,-49 894.85,-40.06 900.91,-30.66"/>
<polygon fill="midnightblue" stroke="midnightblue" points="955.07,-40.48 951.09,-30.66 948.08,-40.81 955.07,-40.48"/>
</g>
</g>
</svg>
        <g id="navigator" transform="translate(0 0)" fill="#404254">
                <rect fill="#f2f5e9" fill-opacity="0.5" stroke="#606060" stroke-width=".5" x="0" y="0" width="60" height="60"/>
                <use id="zoomplus" xlink:href="#zoomPlus" x="17" y="9" onmousedown="handleZoom(evt,'in')"/>
                <use id="zoomminus" xlink:href="#zoomMin" x="42" y="9" onmousedown="handleZoom(evt,'out')"/>
                <use id="reset" xlink:href="#resetDef" x="30" y="36" onmousedown="handleReset()"/>
                <g id="arrowUp" xlink:href="#dirArrow" transform="translate(30 24)" onmousedown="handlePan(0,-1)">
                  <use xlink:href="#rim" fill="#404040">
                        <set attributeName="fill" to="#808080" begin="arrowUp.mouseover" end="arrowUp.mouseout"/>
                  </use>
                  <path fill="none" stroke="white" stroke-width="1.5" d="M0,-3.0v7 M-2.5,-0.5L0,-3.0L2.5,-0.5"/>
                </g>
                <g id="arrowRight" xlink:href="#dirArrow" transform="rotate(90) translate(36 -43)" onmousedown="handlePan(1,0)">
                  <use xlink:href="#rim" fill="#404040">
                        <set attributeName="fill" to="#808080" begin="arrowRight.mouseover" end="arrowRight.mouseout"/>
                  </use>
                  <path fill="none" stroke="white" stroke-width="1.5" d="M0,-3.0v7 M-2.5,-0.5L0,-3.0L2.5,-0.5"/>
                </g>
                <g id="arrowDown" xlink:href="#dirArrow" transform="rotate(180) translate(-30 -48)" onmousedown="handlePan(0,1)">
                  <use xlink:href="#rim" fill="#404040">
                        <set attributeName="fill" to="#808080" begin="arrowDown.mouseover" end="arrowDown.mouseout"/>
                  </use>
                  <path fill="none" stroke="white" stroke-width="1.5" d="M0,-3.0v7 M-2.5,-0.5L0,-3.0L2.5,-0.5"/>
                </g>
                <g id="arrowLeft" xlink:href="#dirArrow" transform="rotate(270) translate(-36 17)" onmousedown="handlePan(-1,0)">
                  <use xlink:href="#rim" fill="#404040">
                        <set attributeName="fill" to="#808080" begin="arrowLeft.mouseover" end="arrowLeft.mouseout"/>
                  </use>
                  <path fill="none" stroke="white" stroke-width="1.5" d="M0,-3.0v7 M-2.5,-0.5L0,-3.0L2.5,-0.5"/>
                </g>
        </g>
        <svg viewBox="0 0 15 15" width="100%" height="30px" preserveAspectRatio="xMaxYMin meet">
         <g id="arrow_out" transform="scale(0.3 0.3)">
          <a xlink:href="classrare_1_1models_1_1base__game_1_1_rare_game_slim_a823ab7286cb07208f430cc54252c82bb_icgraph_org.svg" target="_base">
           <rect id="button" ry="5" rx="5" y="6" x="6" height="38" width="38"
                fill="#f2f5e9" fill-opacity="0.5" stroke="#606060" stroke-width="1.0"/>
           <path id="arrow"
             d="M 11.500037,31.436501 C 11.940474,20.09759 22.043105,11.32322 32.158766,21.979434 L 37.068811,17.246167 C 37.068811,17.246167 37.088388,32 37.088388,32 L 22.160133,31.978069 C 22.160133,31.978069 26.997745,27.140456 26.997745,27.140456 C 18.528582,18.264221 13.291696,25.230495 11.500037,31.436501 z"
             style="fill:#404040;"/>
          </a>
         </g>
        </svg>
</svg>
