<?xml version="1.0" encoding="UTF-8" standalone="no"?>
<!DOCTYPE svg PUBLIC "-//W3C//DTD SVG 1.1//EN"
 "http://www.w3.org/Graphics/SVG/1.1/DTD/svg11.dtd">
<!-- Generated by graphviz version 2.49.3 (20211027.1534)
 -->
<!-- Title: do_login Pages: 1 -->
<svg width="301pt" height="258pt"
 viewBox="0.00 0.00 301.22 258.00" xmlns="http://www.w3.org/2000/svg" xmlns:xlink="http://www.w3.org/1999/xlink">
<g id="graph0" class="graph" transform="scale(1 1) rotate(0) translate(4 254)">
<title>do_login</title>
<polygon fill="white" stroke="transparent" points="-4,4 -4,-254 297.22,-254 297.22,4 -4,4"/>
<!-- Node1 -->
<g id="node1" class="node">
<title>Node1</title>
<g id="a_node1"><a xlink:title=" ">
<polygon fill="#bfbfbf" stroke="black" points="4.22,-106 4.22,-125 57.22,-125 57.22,-106 4.22,-106"/>
<text text-anchor="middle" x="30.72" y="-113" font-family="Helvetica,sans-Serif" font-size="10.00">do_login</text>
</a>
</g>
</g>
<!-- Node1&#45;&gt;Node1 -->
<g id="edge3" class="edge">
<title>Node1&#45;&gt;Node1</title>
<path fill="none" stroke="midnightblue" d="M5.75,-125.26C-6.4,-134.07 1.93,-143.5 30.72,-143.5 50.06,-143.5 60.17,-139.24 61.03,-133.77"/>
<polygon fill="midnightblue" stroke="midnightblue" points="63.97,-131.87 55.69,-125.26 58.04,-135.59 63.97,-131.87"/>
</g>
<!-- Node2 -->
<g id="node2" class="node">
<title>Node2</title>
<g id="a_node2"><a xlink:href="classrare_1_1shared_1_1rare__core_1_1_rare_core.html#a405e1a4f20f16120f872ccd2654a1d56" target="_top" xlink:title=" ">
<polygon fill="white" stroke="black" points="128.22,-201.5 128.22,-231.5 258.22,-231.5 258.22,-201.5 128.22,-201.5"/>
<text text-anchor="start" x="136.22" y="-219.5" font-family="Helvetica,sans-Serif" font-size="10.00">rare.shared.rare_core.Rare</text>
<text text-anchor="middle" x="193.22" y="-208.5" font-family="Helvetica,sans-Serif" font-size="10.00">Core.core</text>
</a>
</g>
</g>
<!-- Node1&#45;&gt;Node2 -->
<g id="edge1" class="edge">
<title>Node1&#45;&gt;Node2</title>
<path fill="none" stroke="midnightblue" d="M36.69,-125.25C45.64,-141.79 66.09,-175.22 93.22,-192.5 100.94,-197.42 109.59,-201.33 118.47,-204.44"/>
<polygon fill="midnightblue" stroke="midnightblue" points="117.58,-207.83 128.17,-207.51 119.69,-201.16 117.58,-207.83"/>
</g>
<!-- Node3 -->
<g id="node3" class="node">
<title>Node3</title>
<g id="a_node3"><a xlink:href="classrare_1_1models_1_1pathspec_1_1_path_spec.html#a0a3363c7b22b987013ce4dfc2c00df89" target="_top" xlink:title=" ">
<polygon fill="white" stroke="black" points="127.72,-134.5 127.72,-164.5 258.72,-164.5 258.72,-134.5 127.72,-134.5"/>
<text text-anchor="start" x="135.72" y="-152.5" font-family="Helvetica,sans-Serif" font-size="10.00">rare.models.pathspec.Path</text>
<text text-anchor="middle" x="193.22" y="-141.5" font-family="Helvetica,sans-Serif" font-size="10.00">Spec.egl_appdata</text>
</a>
</g>
</g>
<!-- Node1&#45;&gt;Node3 -->
<g id="edge4" class="edge">
<title>Node1&#45;&gt;Node3</title>
<path fill="none" stroke="midnightblue" d="M57.51,-120.96C73.95,-124.45 96.17,-129.15 117.82,-133.74"/>
<polygon fill="midnightblue" stroke="midnightblue" points="117.2,-137.19 127.71,-135.83 118.65,-130.34 117.2,-137.19"/>
</g>
<!-- Node4 -->
<g id="node4" class="node">
<title>Node4</title>
<g id="a_node4"><a xlink:href="classrare_1_1shared_1_1workers_1_1worker_1_1_worker.html#a5d3220537164bdcd6c040b54ef85f656" target="_top" xlink:title=" ">
<polygon fill="white" stroke="black" points="125.72,-67.5 125.72,-97.5 260.72,-97.5 260.72,-67.5 125.72,-67.5"/>
<text text-anchor="start" x="133.72" y="-85.5" font-family="Helvetica,sans-Serif" font-size="10.00">rare.shared.workers.worker.</text>
<text text-anchor="middle" x="193.22" y="-74.5" font-family="Helvetica,sans-Serif" font-size="10.00">Worker.logger</text>
</a>
</g>
</g>
<!-- Node1&#45;&gt;Node4 -->
<g id="edge6" class="edge">
<title>Node1&#45;&gt;Node4</title>
<path fill="none" stroke="midnightblue" d="M57.51,-110.2C73.42,-106.93 94.74,-102.54 115.72,-98.23"/>
<polygon fill="midnightblue" stroke="midnightblue" points="116.54,-101.63 125.63,-96.19 115.13,-94.78 116.54,-101.63"/>
</g>
<!-- Node5 -->
<g id="node5" class="node">
<title>Node5</title>
<g id="a_node5"><a xlink:href="classrare_1_1components_1_1tabs_1_1library_1_1widgets_1_1game__widget_1_1_game_widget.html#aa660d748bc3a0c7c2dfaa15cee8e6ba6" target="_top" xlink:title=" ">
<polygon fill="white" stroke="black" points="93.22,-0.5 93.22,-30.5 293.22,-30.5 293.22,-0.5 93.22,-0.5"/>
<text text-anchor="start" x="101.22" y="-18.5" font-family="Helvetica,sans-Serif" font-size="10.00">rare.components.tabs.library.widgets.game</text>
<text text-anchor="middle" x="193.22" y="-7.5" font-family="Helvetica,sans-Serif" font-size="10.00">_widget.GameWidget.ui</text>
</a>
</g>
</g>
<!-- Node1&#45;&gt;Node5 -->
<g id="edge8" class="edge">
<title>Node1&#45;&gt;Node5</title>
<path fill="none" stroke="midnightblue" d="M40.08,-105.97C51.22,-93.71 72.01,-72.35 93.22,-58.5 107.51,-49.17 124.17,-41.03 139.69,-34.42"/>
<polygon fill="midnightblue" stroke="midnightblue" points="141.28,-37.55 149.19,-30.51 138.61,-31.08 141.28,-37.55"/>
</g>
<!-- Node2&#45;&gt;Node2 -->
<g id="edge2" class="edge">
<title>Node2&#45;&gt;Node2</title>
<path fill="none" stroke="midnightblue" d="M164.99,-231.66C158.18,-241.06 167.59,-250 193.22,-250 208.84,-250 218.43,-246.68 222,-241.96"/>
<polygon fill="midnightblue" stroke="midnightblue" points="225.48,-241.46 221.45,-231.66 218.49,-241.83 225.48,-241.46"/>
</g>
<!-- Node3&#45;&gt;Node3 -->
<g id="edge5" class="edge">
<title>Node3&#45;&gt;Node3</title>
<path fill="none" stroke="midnightblue" d="M164.99,-164.66C158.18,-174.06 167.59,-183 193.22,-183 208.84,-183 218.43,-179.68 222,-174.96"/>
<polygon fill="midnightblue" stroke="midnightblue" points="225.48,-174.46 221.45,-164.66 218.49,-174.83 225.48,-174.46"/>
</g>
<!-- Node4&#45;&gt;Node4 -->
<g id="edge7" class="edge">
<title>Node4&#45;&gt;Node4</title>
<path fill="none" stroke="midnightblue" d="M164.99,-97.66C158.18,-107.06 167.59,-116 193.22,-116 208.84,-116 218.43,-112.68 222,-107.96"/>
<polygon fill="midnightblue" stroke="midnightblue" points="225.48,-107.46 221.45,-97.66 218.49,-107.83 225.48,-107.46"/>
</g>
<!-- Node5&#45;&gt;Node5 -->
<g id="edge9" class="edge">
<title>Node5&#45;&gt;Node5</title>
<path fill="none" stroke="midnightblue" d="M164.99,-30.66C158.18,-40.06 167.59,-49 193.22,-49 208.84,-49 218.43,-45.68 222,-40.96"/>
<polygon fill="midnightblue" stroke="midnightblue" points="225.48,-40.46 221.45,-30.66 218.49,-40.83 225.48,-40.46"/>
</g>
</g>
</svg>
