<?xml version="1.0" encoding="UTF-8" standalone="no"?>
<!DOCTYPE svg PUBLIC "-//W3C//DTD SVG 1.1//EN"
 "http://www.w3.org/Graphics/SVG/1.1/DTD/svg11.dtd">
<!-- Generated by graphviz version 2.49.3 (20211027.1534)
 -->
<!-- Title: crossover_setup Pages: 1 -->
<!--zoomable 211 -->
<svg id="main" version="1.1" xmlns="http://www.w3.org/2000/svg" xmlns:xlink="http://www.w3.org/1999/xlink" xml:space="preserve" onload="init(evt)">
<style type="text/css"><![CDATA[
.edge:hover path { stroke: red; }
.edge:hover polygon { stroke: red; fill: red; }
]]></style>
<script type="text/javascript"><![CDATA[
var edges = document.getElementsByTagName('g');
if (edges && edges.length) {
  for (var i=0;i<edges.length;i++) {
    if (edges[i].id.substr(0,4)=='edge') {
      edges[i].setAttribute('class','edge');
    }
  }
}
]]></script>
        <defs>
                <circle id="rim" cx="0" cy="0" r="7"/>
                <circle id="rim2" cx="0" cy="0" r="3.5"/>
                <g id="zoomPlus">
                        <use xlink:href="#rim" fill="#404040">
                                <set attributeName="fill" to="#808080" begin="zoomplus.mouseover" end="zoomplus.mouseout"/>
                        </use>
                        <path d="M-4,0h8M0,-4v8" fill="none" stroke="white" stroke-width="1.5" pointer-events="none"/>
                </g>
                <g id="zoomMin">
                        <use xlink:href="#rim" fill="#404040">
                                <set attributeName="fill" to="#808080" begin="zoomminus.mouseover" end="zoomminus.mouseout"/>
                        </use>
                        <path d="M-4,0h8" fill="none" stroke="white" stroke-width="1.5" pointer-events="none"/>
                </g>
                <g id="dirArrow">
                        <path fill="none" stroke="white" stroke-width="1.5" d="M0,-3.0v7 M-2.5,-0.5L0,-3.0L2.5,-0.5"/>
                </g>
               <g id="resetDef">
                       <use xlink:href="#rim2" fill="#404040">
                               <set attributeName="fill" to="#808080" begin="reset.mouseover" end="reset.mouseout"/>
                       </use>
               </g>
        </defs>

<script type="text/javascript">
var viewWidth = 1269;
var viewHeight = 211;
var sectionId = 'dynsection-14';
</script>
<script xlink:href="svgpan.js"/>
<svg id="graph" class="graph">
<g id="viewport">
<title>crossover_setup</title>
<polygon fill="white" stroke="transparent" points="-4,4 -4,-206.64 1265,-206.64 1265,4 -4,4"/>
<!-- Node1 -->
<g id="node1" class="node">
<title>Node1</title>
<g id="a_node1"><a xlink:title=" ">
<polygon fill="#bfbfbf" stroke="black" points="1172,-97.64 1172,-116.64 1261,-116.64 1261,-97.64 1172,-97.64"/>
<text text-anchor="middle" x="1216.5" y="-104.64" font-family="Helvetica,sans-Serif" font-size="10.00">crossover_setup</text>
</a>
</g>
</g>
<!-- Node1&#45;&gt;Node1 -->
<g id="edge1" class="edge">
<title>Node1&#45;&gt;Node1</title>
<path fill="none" stroke="midnightblue" d="M1237.98,-126.54C1236.55,-131.45 1229.39,-135.14 1216.5,-135.14 1195.88,-135.14 1189.92,-125.7 1198.62,-116.89"/>
<polygon fill="midnightblue" stroke="midnightblue" points="1241.16,-125.04 1234.38,-116.89 1234.6,-127.49 1241.16,-125.04"/>
</g>
<!-- Node2 -->
<g id="node2" class="node">
<title>Node2</title>
<g id="a_node2"><a xlink:href="classlegendary_1_1cli_1_1_legendary_c_l_i.html#aaa446a5a3dd51ddb063bbd7f3fc99bb5" target="_top" xlink:title=" ">
<polygon fill="white" stroke="black" points="1062,-97.64 1062,-116.64 1136,-116.64 1136,-97.64 1062,-97.64"/>
<text text-anchor="middle" x="1099" y="-104.64" font-family="Helvetica,sans-Serif" font-size="10.00">launch_game</text>
</a>
</g>
</g>
<!-- Node1&#45;&gt;Node2 -->
<g id="edge2" class="edge">
<title>Node1&#45;&gt;Node2</title>
<path fill="none" stroke="midnightblue" d="M1161.77,-107.14C1153.1,-107.14 1144.32,-107.14 1136.2,-107.14"/>
<polygon fill="midnightblue" stroke="midnightblue" points="1161.83,-110.64 1171.83,-107.14 1161.83,-103.64 1161.83,-110.64"/>
</g>
<!-- Node2&#45;&gt;Node2 -->
<g id="edge3" class="edge">
<title>Node2&#45;&gt;Node2</title>
<path fill="none" stroke="midnightblue" d="M1120.48,-126.54C1119.05,-131.45 1111.89,-135.14 1099,-135.14 1078.38,-135.14 1072.42,-125.7 1081.12,-116.89"/>
<polygon fill="midnightblue" stroke="midnightblue" points="1123.66,-125.04 1116.88,-116.89 1117.1,-127.49 1123.66,-125.04"/>
</g>
<!-- Node3 -->
<g id="node3" class="node">
<title>Node3</title>
<g id="a_node3"><a xlink:href="classrare_1_1components_1_1tabs_1_1games_1_1game__utils_1_1_game_utils.html#a4edad8bd72770b4d0924575036a40a3c" target="_top" xlink:title=" ">
<polygon fill="white" stroke="black" points="656,-129.14 656,-159.14 823,-159.14 823,-129.14 656,-129.14"/>
<text text-anchor="start" x="664" y="-147.14" font-family="Helvetica,sans-Serif" font-size="10.00">rare.components.tabs.games.game</text>
<text text-anchor="middle" x="739.5" y="-136.14" font-family="Helvetica,sans-Serif" font-size="10.00">_utils.GameUtils.prepare_launch</text>
</a>
</g>
</g>
<!-- Node2&#45;&gt;Node3 -->
<g id="edge4" class="edge">
<title>Node2&#45;&gt;Node3</title>
<path fill="none" stroke="midnightblue" d="M1051.93,-115.36C1043.33,-116.74 1034.4,-118.07 1026,-119.14 957.88,-127.78 880.24,-134.37 823.14,-138.61"/>
<polygon fill="midnightblue" stroke="midnightblue" points="1052.52,-118.81 1061.82,-113.73 1051.39,-111.9 1052.52,-118.81"/>
</g>
<!-- Node4 -->
<g id="node4" class="node">
<title>Node4</title>
<g id="a_node4"><a xlink:href="classrare_1_1components_1_1tabs_1_1games_1_1game__utils_1_1_game_utils.html#aa5166679a6b1c69dd24d2e6faa34dc7b" target="_top" xlink:title=" ">
<polygon fill="white" stroke="black" points="859,-61.14 859,-91.14 1026,-91.14 1026,-61.14 859,-61.14"/>
<text text-anchor="start" x="867" y="-79.14" font-family="Helvetica,sans-Serif" font-size="10.00">rare.components.tabs.games.game</text>
<text text-anchor="middle" x="942.5" y="-68.14" font-family="Helvetica,sans-Serif" font-size="10.00">_utils.GameUtils.sync_finished</text>
</a>
</g>
</g>
<!-- Node2&#45;&gt;Node4 -->
<g id="edge6" class="edge">
<title>Node2&#45;&gt;Node4</title>
<path fill="none" stroke="midnightblue" d="M1051.96,-97.9C1041.39,-95.78 1029.89,-93.47 1018.45,-91.17"/>
<polygon fill="midnightblue" stroke="midnightblue" points="1051.28,-101.33 1061.78,-99.87 1052.66,-94.47 1051.28,-101.33"/>
</g>
<!-- Node3&#45;&gt;Node3 -->
<g id="edge5" class="edge">
<title>Node3&#45;&gt;Node3</title>
<path fill="none" stroke="midnightblue" d="M775.39,-169.59C770.94,-174.32 758.97,-177.64 739.5,-177.64 707.54,-177.64 695.81,-168.69 704.3,-159.3"/>
<polygon fill="midnightblue" stroke="midnightblue" points="778.86,-169.04 774.7,-159.3 771.88,-169.51 778.86,-169.04"/>
</g>
<!-- Node4&#45;&gt;Node3 -->
<g id="edge11" class="edge">
<title>Node4&#45;&gt;Node3</title>
<path fill="none" stroke="midnightblue" d="M892.2,-94.7C870.99,-102.51 845.87,-111.53 823,-119.14 812.92,-122.49 802.08,-125.91 791.69,-129.09"/>
<polygon fill="midnightblue" stroke="midnightblue" points="893.48,-97.96 901.65,-91.21 891.05,-91.39 893.48,-97.96"/>
</g>
<!-- Node4&#45;&gt;Node4 -->
<g id="edge12" class="edge">
<title>Node4&#45;&gt;Node4</title>
<path fill="none" stroke="midnightblue" d="M970.22,-101.59C966.78,-106.32 957.54,-109.64 942.5,-109.64 917.82,-109.64 908.76,-100.69 915.31,-91.3"/>
<polygon fill="midnightblue" stroke="midnightblue" points="973.7,-101.1 969.69,-91.3 966.71,-101.46 973.7,-101.1"/>
</g>
<!-- Node5 -->
<g id="node5" class="node">
<title>Node5</title>
<g id="a_node5"><a xlink:href="classrare_1_1components_1_1tabs_1_1games_1_1cloud__save__utils_1_1_cloud_save_utils.html#a970c7d031af196eae774c1e0fa78daab" target="_top" xlink:title=" ">
<polygon fill="white" stroke="black" points="203,-14.64 203,-55.64 370,-55.64 370,-14.64 203,-14.64"/>
<text text-anchor="start" x="211" y="-43.64" font-family="Helvetica,sans-Serif" font-size="10.00">rare.components.tabs.games.cloud</text>
<text text-anchor="start" x="211" y="-32.64" font-family="Helvetica,sans-Serif" font-size="10.00">_save_utils.CloudSaveUtils.game</text>
<text text-anchor="middle" x="286.5" y="-21.64" font-family="Helvetica,sans-Serif" font-size="10.00">_finished</text>
</a>
</g>
</g>
<!-- Node4&#45;&gt;Node5 -->
<g id="edge7" class="edge">
<title>Node4&#45;&gt;Node5</title>
<path fill="none" stroke="midnightblue" d="M886.24,-58.13C866.45,-52.12 843.87,-45.79 823,-41.14 641.61,-0.7 590.84,9.15 406,-10.14 394.29,-11.36 382.03,-13.24 370.03,-15.44"/>
<polygon fill="midnightblue" stroke="midnightblue" points="885.43,-61.54 896.02,-61.13 887.49,-54.85 885.43,-61.54"/>
</g>
<!-- Node7 -->
<g id="node7" class="node">
<title>Node7</title>
<g id="a_node7"><a xlink:href="classrare_1_1components_1_1tabs_1_1games_1_1cloud__save__utils_1_1_cloud_save_utils.html#a305cbdbdf1c59aacea30610a562ac40d" target="_top" xlink:title=" ">
<polygon fill="white" stroke="black" points="656,-50.64 656,-91.64 823,-91.64 823,-50.64 656,-50.64"/>
<text text-anchor="start" x="664" y="-79.64" font-family="Helvetica,sans-Serif" font-size="10.00">rare.components.tabs.games.cloud</text>
<text text-anchor="start" x="664" y="-68.64" font-family="Helvetica,sans-Serif" font-size="10.00">_save_utils.CloudSaveUtils.worker</text>
<text text-anchor="middle" x="739.5" y="-57.64" font-family="Helvetica,sans-Serif" font-size="10.00">_finished</text>
</a>
</g>
</g>
<!-- Node4&#45;&gt;Node7 -->
<g id="edge13" class="edge">
<title>Node4&#45;&gt;Node7</title>
<path fill="none" stroke="midnightblue" d="M848.85,-73.83C840.27,-73.62 831.61,-73.4 823.13,-73.19"/>
<polygon fill="midnightblue" stroke="midnightblue" points="848.79,-77.33 858.88,-74.08 848.97,-70.33 848.79,-77.33"/>
</g>
<!-- Node5&#45;&gt;Node5 -->
<g id="edge8" class="edge">
<title>Node5&#45;&gt;Node5</title>
<path fill="none" stroke="midnightblue" d="M321.25,-65.99C316.08,-70.83 304.5,-74.14 286.5,-74.14 257.7,-74.14 245.32,-65.68 249.37,-56"/>
<polygon fill="midnightblue" stroke="midnightblue" points="324.72,-66.54 323.63,-56 317.91,-64.92 324.72,-66.54"/>
</g>
<!-- Node6 -->
<g id="node6" class="node">
<title>Node6</title>
<g id="a_node6"><a xlink:href="classrare_1_1components_1_1tabs_1_1games_1_1game__utils_1_1_game_utils.html#a1ff6997393d84b07e97a057126c415f7" target="_top" xlink:title=" ">
<polygon fill="white" stroke="black" points="0,-20.14 0,-50.14 167,-50.14 167,-20.14 0,-20.14"/>
<text text-anchor="start" x="8" y="-38.14" font-family="Helvetica,sans-Serif" font-size="10.00">rare.components.tabs.games.game</text>
<text text-anchor="middle" x="83.5" y="-27.14" font-family="Helvetica,sans-Serif" font-size="10.00">_utils.GameUtils.game_finished</text>
</a>
</g>
</g>
<!-- Node5&#45;&gt;Node6 -->
<g id="edge9" class="edge">
<title>Node5&#45;&gt;Node6</title>
<path fill="none" stroke="midnightblue" d="M192.85,-35.14C184.27,-35.14 175.61,-35.14 167.13,-35.14"/>
<polygon fill="midnightblue" stroke="midnightblue" points="192.88,-38.64 202.88,-35.14 192.88,-31.64 192.88,-38.64"/>
</g>
<!-- Node6&#45;&gt;Node6 -->
<g id="edge10" class="edge">
<title>Node6&#45;&gt;Node6</title>
<path fill="none" stroke="midnightblue" d="M119.39,-60.59C114.94,-65.32 102.97,-68.64 83.5,-68.64 51.54,-68.64 39.81,-59.69 48.3,-50.3"/>
<polygon fill="midnightblue" stroke="midnightblue" points="122.86,-60.04 118.7,-50.3 115.88,-60.51 122.86,-60.04"/>
</g>
<!-- Node7&#45;&gt;Node7 -->
<g id="edge25" class="edge">
<title>Node7&#45;&gt;Node7</title>
<path fill="none" stroke="midnightblue" d="M774.25,-101.99C769.08,-106.83 757.5,-110.14 739.5,-110.14 710.7,-110.14 698.32,-101.68 702.37,-92"/>
<polygon fill="midnightblue" stroke="midnightblue" points="777.72,-102.54 776.63,-92 770.91,-100.92 777.72,-102.54"/>
</g>
<!-- Node8 -->
<g id="node8" class="node">
<title>Node8</title>
<g id="a_node8"><a xlink:href="classrare_1_1components_1_1tabs_1_1settings_1_1widgets_1_1ubisoft__activation_1_1_ubi_link_widget.html#a8f9705707225e3a806138596d5edae0d" target="_top" xlink:title=" ">
<polygon fill="white" stroke="black" points="406,-87.14 406,-117.14 620,-117.14 620,-87.14 406,-87.14"/>
<text text-anchor="start" x="414" y="-105.14" font-family="Helvetica,sans-Serif" font-size="10.00">rare.components.tabs.settings.widgets.ubisoft</text>
<text text-anchor="middle" x="513" y="-94.14" font-family="Helvetica,sans-Serif" font-size="10.00">_activation.UbiLinkWidget.activate</text>
</a>
</g>
</g>
<!-- Node7&#45;&gt;Node8 -->
<g id="edge14" class="edge">
<title>Node7&#45;&gt;Node8</title>
<path fill="none" stroke="midnightblue" d="M645.95,-83.92C637.44,-85.09 628.78,-86.29 620.16,-87.48"/>
<polygon fill="midnightblue" stroke="midnightblue" points="646.43,-87.38 655.86,-82.55 645.48,-80.45 646.43,-87.38"/>
</g>
<!-- Node9 -->
<g id="node9" class="node">
<title>Node9</title>
<g id="a_node9"><a xlink:href="classrare_1_1components_1_1tabs_1_1games_1_1cloud__save__utils_1_1_cloud_save_utils.html#a398a7b51391d4f2b1854e3d8cda2f9a3" target="_top" xlink:title=" ">
<polygon fill="white" stroke="black" points="407.5,-20.14 407.5,-50.14 618.5,-50.14 618.5,-20.14 407.5,-20.14"/>
<text text-anchor="start" x="415.5" y="-38.14" font-family="Helvetica,sans-Serif" font-size="10.00">rare.components.tabs.games.cloud</text>
<text text-anchor="middle" x="513" y="-27.14" font-family="Helvetica,sans-Serif" font-size="10.00">_save_utils.CloudSaveUtils.download_saves</text>
</a>
</g>
</g>
<!-- Node7&#45;&gt;Node9 -->
<g id="edge16" class="edge">
<title>Node7&#45;&gt;Node9</title>
<path fill="none" stroke="midnightblue" d="M645.87,-56.28C633.31,-54.27 620.42,-52.2 607.84,-50.18"/>
<polygon fill="midnightblue" stroke="midnightblue" points="645.43,-59.76 655.86,-57.89 646.54,-52.85 645.43,-59.76"/>
</g>
<!-- Node11 -->
<g id="node11" class="node">
<title>Node11</title>
<g id="a_node11"><a xlink:href="classrare_1_1components_1_1tabs_1_1games_1_1cloud__save__utils_1_1_cloud_save_utils.html#aabe920f2c8b262a0d16df2ef0ceafad8" target="_top" xlink:title=" ">
<polygon fill="white" stroke="black" points="414,-154.14 414,-184.14 612,-184.14 612,-154.14 414,-154.14"/>
<text text-anchor="start" x="422" y="-172.14" font-family="Helvetica,sans-Serif" font-size="10.00">rare.components.tabs.games.cloud</text>
<text text-anchor="middle" x="513" y="-161.14" font-family="Helvetica,sans-Serif" font-size="10.00">_save_utils.CloudSaveUtils.upload_saves</text>
</a>
</g>
</g>
<!-- Node7&#45;&gt;Node11 -->
<g id="edge21" class="edge">
<title>Node7&#45;&gt;Node11</title>
<path fill="none" stroke="midnightblue" d="M693.66,-96.99C681.35,-104.3 668.06,-112.38 656,-120.14 639.62,-130.67 637.83,-137.29 620,-145.14 612.23,-148.56 603.92,-151.52 595.49,-154.08"/>
<polygon fill="midnightblue" stroke="midnightblue" points="695.59,-99.91 702.43,-91.81 692.04,-93.88 695.59,-99.91"/>
</g>
<!-- Node8&#45;&gt;Node8 -->
<g id="edge15" class="edge">
<title>Node8&#45;&gt;Node8</title>
<path fill="none" stroke="midnightblue" d="M553.16,-127.59C548.17,-132.32 534.79,-135.64 513,-135.64 477.25,-135.64 464.12,-126.69 473.61,-117.3"/>
<polygon fill="midnightblue" stroke="midnightblue" points="556.62,-127.01 552.39,-117.3 549.64,-127.53 556.62,-127.01"/>
</g>
<!-- Node9&#45;&gt;Node5 -->
<g id="edge18" class="edge">
<title>Node9&#45;&gt;Node5</title>
<path fill="none" stroke="midnightblue" d="M397.07,-35.14C388,-35.14 378.96,-35.14 370.17,-35.14"/>
<polygon fill="midnightblue" stroke="midnightblue" points="397.31,-38.64 407.31,-35.14 397.31,-31.64 397.31,-38.64"/>
</g>
<!-- Node9&#45;&gt;Node9 -->
<g id="edge17" class="edge">
<title>Node9&#45;&gt;Node9</title>
<path fill="none" stroke="midnightblue" d="M553.16,-60.59C548.17,-65.32 534.79,-68.64 513,-68.64 477.25,-68.64 464.12,-59.69 473.61,-50.3"/>
<polygon fill="midnightblue" stroke="midnightblue" points="556.62,-60.01 552.39,-50.3 549.64,-60.53 556.62,-60.01"/>
</g>
<!-- Node10 -->
<g id="node10" class="node">
<title>Node10</title>
<g id="a_node10"><a xlink:href="classrare_1_1components_1_1tabs_1_1games_1_1cloud__save__utils_1_1_cloud_save_utils.html#abb078ea24f03a8b8317000d4af7416de" target="_top" xlink:title=" ">
<polygon fill="white" stroke="black" points="203,-120.64 203,-161.64 370,-161.64 370,-120.64 203,-120.64"/>
<text text-anchor="start" x="211" y="-149.64" font-family="Helvetica,sans-Serif" font-size="10.00">rare.components.tabs.games.cloud</text>
<text text-anchor="start" x="211" y="-138.64" font-family="Helvetica,sans-Serif" font-size="10.00">_save_utils.CloudSaveUtils.sync</text>
<text text-anchor="middle" x="286.5" y="-127.64" font-family="Helvetica,sans-Serif" font-size="10.00">_before_launch_game</text>
</a>
</g>
</g>
<!-- Node9&#45;&gt;Node10 -->
<g id="edge19" class="edge">
<title>Node9&#45;&gt;Node10</title>
<path fill="none" stroke="midnightblue" d="M462.37,-54.04C444.44,-61.19 424.14,-69.66 406,-78.14 377.92,-91.25 347.04,-107.74 323.84,-120.56"/>
<polygon fill="midnightblue" stroke="midnightblue" points="464.05,-57.14 472.07,-50.21 461.48,-50.63 464.05,-57.14"/>
</g>
<!-- Node10&#45;&gt;Node10 -->
<g id="edge20" class="edge">
<title>Node10&#45;&gt;Node10</title>
<path fill="none" stroke="midnightblue" d="M321.25,-171.99C316.08,-176.83 304.5,-180.14 286.5,-180.14 257.7,-180.14 245.32,-171.68 249.37,-162"/>
<polygon fill="midnightblue" stroke="midnightblue" points="324.72,-172.54 323.63,-162 317.91,-170.92 324.72,-172.54"/>
</g>
<!-- Node11&#45;&gt;Node5 -->
<g id="edge22" class="edge">
<title>Node11&#45;&gt;Node5</title>
<path fill="none" stroke="midnightblue" d="M417.04,-150.38C413.25,-148.77 409.55,-147.03 406,-145.14 386.58,-134.78 386.09,-126.15 370,-111.14 349.78,-92.27 326.61,-70.95 309.98,-55.71"/>
<polygon fill="midnightblue" stroke="midnightblue" points="416.04,-153.75 426.63,-154.1 418.57,-147.22 416.04,-153.75"/>
</g>
<!-- Node11&#45;&gt;Node10 -->
<g id="edge23" class="edge">
<title>Node11&#45;&gt;Node10</title>
<path fill="none" stroke="midnightblue" d="M403.88,-155.65C392.49,-154.23 381.04,-152.8 370.01,-151.43"/>
<polygon fill="midnightblue" stroke="midnightblue" points="403.5,-159.13 413.86,-156.9 404.37,-152.19 403.5,-159.13"/>
</g>
<!-- Node11&#45;&gt;Node11 -->
<g id="edge24" class="edge">
<title>Node11&#45;&gt;Node11</title>
<path fill="none" stroke="midnightblue" d="M553.16,-194.59C548.17,-199.32 534.79,-202.64 513,-202.64 477.25,-202.64 464.12,-193.69 473.61,-184.3"/>
<polygon fill="midnightblue" stroke="midnightblue" points="556.62,-194.01 552.39,-184.3 549.64,-194.53 556.62,-194.01"/>
</g>
</g>
</svg>
        <g id="navigator" transform="translate(0 0)" fill="#404254">
                <rect fill="#f2f5e9" fill-opacity="0.5" stroke="#606060" stroke-width=".5" x="0" y="0" width="60" height="60"/>
                <use id="zoomplus" xlink:href="#zoomPlus" x="17" y="9" onmousedown="handleZoom(evt,'in')"/>
                <use id="zoomminus" xlink:href="#zoomMin" x="42" y="9" onmousedown="handleZoom(evt,'out')"/>
                <use id="reset" xlink:href="#resetDef" x="30" y="36" onmousedown="handleReset()"/>
                <g id="arrowUp" xlink:href="#dirArrow" transform="translate(30 24)" onmousedown="handlePan(0,-1)">
                  <use xlink:href="#rim" fill="#404040">
                        <set attributeName="fill" to="#808080" begin="arrowUp.mouseover" end="arrowUp.mouseout"/>
                  </use>
                  <path fill="none" stroke="white" stroke-width="1.5" d="M0,-3.0v7 M-2.5,-0.5L0,-3.0L2.5,-0.5"/>
                </g>
                <g id="arrowRight" xlink:href="#dirArrow" transform="rotate(90) translate(36 -43)" onmousedown="handlePan(1,0)">
                  <use xlink:href="#rim" fill="#404040">
                        <set attributeName="fill" to="#808080" begin="arrowRight.mouseover" end="arrowRight.mouseout"/>
                  </use>
                  <path fill="none" stroke="white" stroke-width="1.5" d="M0,-3.0v7 M-2.5,-0.5L0,-3.0L2.5,-0.5"/>
                </g>
                <g id="arrowDown" xlink:href="#dirArrow" transform="rotate(180) translate(-30 -48)" onmousedown="handlePan(0,1)">
                  <use xlink:href="#rim" fill="#404040">
                        <set attributeName="fill" to="#808080" begin="arrowDown.mouseover" end="arrowDown.mouseout"/>
                  </use>
                  <path fill="none" stroke="white" stroke-width="1.5" d="M0,-3.0v7 M-2.5,-0.5L0,-3.0L2.5,-0.5"/>
                </g>
                <g id="arrowLeft" xlink:href="#dirArrow" transform="rotate(270) translate(-36 17)" onmousedown="handlePan(-1,0)">
                  <use xlink:href="#rim" fill="#404040">
                        <set attributeName="fill" to="#808080" begin="arrowLeft.mouseover" end="arrowLeft.mouseout"/>
                  </use>
                  <path fill="none" stroke="white" stroke-width="1.5" d="M0,-3.0v7 M-2.5,-0.5L0,-3.0L2.5,-0.5"/>
                </g>
        </g>
        <svg viewBox="0 0 15 15" width="100%" height="30px" preserveAspectRatio="xMaxYMin meet">
         <g id="arrow_out" transform="scale(0.3 0.3)">
          <a xlink:href="classlegendary_1_1cli_1_1_legendary_c_l_i_af4fbd273910cd54acfef28e15b69d6ef_icgraph_org.svg" target="_base">
           <rect id="button" ry="5" rx="5" y="6" x="6" height="38" width="38"
                fill="#f2f5e9" fill-opacity="0.5" stroke="#606060" stroke-width="1.0"/>
           <path id="arrow"
             d="M 11.500037,31.436501 C 11.940474,20.09759 22.043105,11.32322 32.158766,21.979434 L 37.068811,17.246167 C 37.068811,17.246167 37.088388,32 37.088388,32 L 22.160133,31.978069 C 22.160133,31.978069 26.997745,27.140456 26.997745,27.140456 C 18.528582,18.264221 13.291696,25.230495 11.500037,31.436501 z"
             style="fill:#404040;"/>
          </a>
         </g>
        </svg>
</svg>
