<?xml version="1.0" encoding="UTF-8" standalone="no"?>
<!DOCTYPE svg PUBLIC "-//W3C//DTD SVG 1.1//EN"
 "http://www.w3.org/Graphics/SVG/1.1/DTD/svg11.dtd">
<!-- Generated by graphviz version 2.49.3 (20211027.1534)
 -->
<!-- Title: check_savegame_state Pages: 1 -->
<svg width="500pt" height="124pt"
 viewBox="0.00 0.00 500.00 124.00" xmlns="http://www.w3.org/2000/svg" xmlns:xlink="http://www.w3.org/1999/xlink">
<g id="graph0" class="graph" transform="scale(1 1) rotate(0) translate(4 120)">
<title>check_savegame_state</title>
<polygon fill="white" stroke="transparent" points="-4,4 -4,-120 496,-120 496,4 -4,4"/>
<!-- Node1 -->
<g id="node1" class="node">
<title>Node1</title>
<g id="a_node1"><a xlink:title=" ">
<polygon fill="#bfbfbf" stroke="black" points="0,-39 0,-58 120,-58 120,-39 0,-39"/>
<text text-anchor="middle" x="60" y="-46" font-family="Helvetica,sans-Serif" font-size="10.00">check_savegame_state</text>
</a>
</g>
</g>
<!-- Node1&#45;&gt;Node1 -->
<g id="edge1" class="edge">
<title>Node1&#45;&gt;Node1</title>
<path fill="none" stroke="midnightblue" d="M33.8,-58.26C21.05,-67.07 29.79,-76.5 60,-76.5 80.3,-76.5 90.9,-72.24 91.81,-66.77"/>
<polygon fill="midnightblue" stroke="midnightblue" points="94.63,-64.68 86.2,-58.26 88.78,-68.53 94.63,-64.68"/>
</g>
<!-- Node2 -->
<g id="node2" class="node">
<title>Node2</title>
<g id="a_node2"><a xlink:href="classrare_1_1components_1_1extra_1_1console_1_1_console.html#a4db0e98c238d6a69bdbf4b8cc59be732" target="_top" xlink:title=" ">
<polygon fill="white" stroke="black" points="156,-67.5 156,-97.5 306,-97.5 306,-67.5 156,-67.5"/>
<text text-anchor="start" x="164" y="-85.5" font-family="Helvetica,sans-Serif" font-size="10.00">rare.components.extra.console.</text>
<text text-anchor="middle" x="231" y="-74.5" font-family="Helvetica,sans-Serif" font-size="10.00">Console.log</text>
</a>
</g>
</g>
<!-- Node1&#45;&gt;Node2 -->
<g id="edge2" class="edge">
<title>Node1&#45;&gt;Node2</title>
<path fill="none" stroke="midnightblue" d="M108.53,-58.06C120.27,-60.42 133.21,-63.03 146.12,-65.63"/>
<polygon fill="midnightblue" stroke="midnightblue" points="145.48,-69.07 155.98,-67.61 146.86,-62.2 145.48,-69.07"/>
</g>
<!-- Node3 -->
<g id="node3" class="node">
<title>Node3</title>
<g id="a_node3"><a xlink:href="classrare_1_1components_1_1extra_1_1console_1_1_console_edit.html#ac05aadedf6e1be5c365c818989f98d50" target="_top" xlink:title=" ">
<polygon fill="white" stroke="black" points="156,-0.5 156,-30.5 306,-30.5 306,-0.5 156,-0.5"/>
<text text-anchor="start" x="164" y="-18.5" font-family="Helvetica,sans-Serif" font-size="10.00">rare.components.extra.console.</text>
<text text-anchor="middle" x="231" y="-7.5" font-family="Helvetica,sans-Serif" font-size="10.00">ConsoleEdit.log</text>
</a>
</g>
</g>
<!-- Node1&#45;&gt;Node3 -->
<g id="edge4" class="edge">
<title>Node1&#45;&gt;Node3</title>
<path fill="none" stroke="midnightblue" d="M109.88,-38.96C121.19,-36.75 133.54,-34.34 145.88,-31.93"/>
<polygon fill="midnightblue" stroke="midnightblue" points="146.61,-35.35 155.75,-30 145.26,-28.48 146.61,-35.35"/>
</g>
<!-- Node2&#45;&gt;Node2 -->
<g id="edge3" class="edge">
<title>Node2&#45;&gt;Node2</title>
<path fill="none" stroke="midnightblue" d="M201.37,-97.66C194.23,-107.06 204.11,-116 231,-116 247.39,-116 257.46,-112.68 261.21,-107.96"/>
<polygon fill="midnightblue" stroke="midnightblue" points="264.68,-107.45 260.63,-97.66 257.69,-107.84 264.68,-107.45"/>
</g>
<!-- Node3&#45;&gt;Node3 -->
<g id="edge5" class="edge">
<title>Node3&#45;&gt;Node3</title>
<path fill="none" stroke="midnightblue" d="M201.37,-30.66C194.23,-40.06 204.11,-49 231,-49 247.39,-49 257.46,-45.68 261.21,-40.96"/>
<polygon fill="midnightblue" stroke="midnightblue" points="264.68,-40.45 260.63,-30.66 257.69,-40.84 264.68,-40.45"/>
</g>
<!-- Node4 -->
<g id="node4" class="node">
<title>Node4</title>
<g id="a_node4"><a xlink:href="classrare_1_1components_1_1extra_1_1console_1_1_console_edit.html#ad89ca21019805240d01e41fe61cdbb56" target="_top" xlink:title=" ">
<polygon fill="white" stroke="black" points="342,-0.5 342,-30.5 492,-30.5 492,-0.5 342,-0.5"/>
<text text-anchor="start" x="350" y="-18.5" font-family="Helvetica,sans-Serif" font-size="10.00">rare.components.extra.console.</text>
<text text-anchor="middle" x="417" y="-7.5" font-family="Helvetica,sans-Serif" font-size="10.00">ConsoleEdit.scroll_to_last_line</text>
</a>
</g>
</g>
<!-- Node3&#45;&gt;Node4 -->
<g id="edge6" class="edge">
<title>Node3&#45;&gt;Node4</title>
<path fill="none" stroke="midnightblue" d="M306.04,-15.5C314.51,-15.5 323.19,-15.5 331.78,-15.5"/>
<polygon fill="midnightblue" stroke="midnightblue" points="331.81,-19 341.81,-15.5 331.81,-12 331.81,-19"/>
</g>
<!-- Node4&#45;&gt;Node4 -->
<g id="edge7" class="edge">
<title>Node4&#45;&gt;Node4</title>
<path fill="none" stroke="midnightblue" d="M384.93,-30.66C377.2,-40.06 387.89,-49 417,-49 434.74,-49 445.64,-45.68 449.69,-40.96"/>
<polygon fill="midnightblue" stroke="midnightblue" points="453.17,-40.43 449.07,-30.66 446.18,-40.85 453.17,-40.43"/>
</g>
</g>
</svg>
