<?xml version="1.0" encoding="UTF-8" standalone="no"?>
<!DOCTYPE svg PUBLIC "-//W3C//DTD SVG 1.1//EN"
 "http://www.w3.org/Graphics/SVG/1.1/DTD/svg11.dtd">
<!-- Generated by graphviz version 2.49.3 (20211027.1534)
 -->
<!-- Title: setupUi Pages: 1 -->
<svg width="311pt" height="170pt"
 viewBox="0.00 0.00 310.52 170.00" xmlns="http://www.w3.org/2000/svg" xmlns:xlink="http://www.w3.org/1999/xlink">
<g id="graph0" class="graph" transform="scale(1 1) rotate(0) translate(4 166)">
<title>setupUi</title>
<polygon fill="white" stroke="transparent" points="-4,4 -4,-166 306.52,-166 306.52,4 -4,4"/>
<!-- Node1 -->
<g id="node1" class="node">
<title>Node1</title>
<g id="a_node1"><a xlink:title=" ">
<polygon fill="#bfbfbf" stroke="black" points="6.52,-62.5 6.52,-81.5 56.52,-81.5 56.52,-62.5 6.52,-62.5"/>
<text text-anchor="middle" x="31.52" y="-69.5" font-family="Helvetica,sans-Serif" font-size="10.00">setupUi</text>
</a>
</g>
</g>
<!-- Node1&#45;&gt;Node1 -->
<g id="edge3" class="edge">
<title>Node1&#45;&gt;Node1</title>
<path fill="none" stroke="midnightblue" d="M6.35,-81.47C-6.7,-90.36 1.69,-100 31.52,-100 52.02,-100 62.4,-95.44 62.64,-89.7"/>
<polygon fill="midnightblue" stroke="midnightblue" points="65.38,-87.52 56.69,-81.47 59.71,-91.62 65.38,-87.52"/>
</g>
<!-- Node2 -->
<g id="node2" class="node">
<title>Node2</title>
<g id="a_node2"><a xlink:href="namespacerare_1_1utils_1_1misc.html#a5b215592bbad86ea6d2c3b46280baae8" target="_top" xlink:title=" ">
<polygon fill="white" stroke="black" points="149.02,-124.5 149.02,-143.5 246.02,-143.5 246.02,-124.5 149.02,-124.5"/>
<text text-anchor="middle" x="197.52" y="-131.5" font-family="Helvetica,sans-Serif" font-size="10.00">rare.utils.misc.icon</text>
</a>
</g>
</g>
<!-- Node1&#45;&gt;Node2 -->
<g id="edge1" class="edge">
<title>Node1&#45;&gt;Node2</title>
<path fill="none" stroke="midnightblue" d="M43.12,-81.86C54.46,-91.83 73.41,-106.89 92.52,-115 107,-121.15 123.45,-125.31 138.92,-128.12"/>
<polygon fill="midnightblue" stroke="midnightblue" points="138.47,-131.59 148.91,-129.78 139.62,-124.69 138.47,-131.59"/>
</g>
<!-- Node3 -->
<g id="node3" class="node">
<title>Node3</title>
<g id="a_node3"><a xlink:href="classrare_1_1components_1_1tabs_1_1games_1_1game__widgets_1_1icon__widget_1_1_icon_widget.html#aaaa372d42348855de8b9f6f8ec6821fa" target="_top" xlink:title=" ">
<polygon fill="white" stroke="black" points="92.52,-57 92.52,-87 302.52,-87 302.52,-57 92.52,-57"/>
<text text-anchor="start" x="100.52" y="-75" font-family="Helvetica,sans-Serif" font-size="10.00">rare.components.tabs.games.game</text>
<text text-anchor="middle" x="197.52" y="-64" font-family="Helvetica,sans-Serif" font-size="10.00">_widgets.icon_widget.IconWidget.translateUi</text>
</a>
</g>
</g>
<!-- Node1&#45;&gt;Node3 -->
<g id="edge4" class="edge">
<title>Node1&#45;&gt;Node3</title>
<path fill="none" stroke="midnightblue" d="M56.72,-72C64.19,-72 72.96,-72 82.42,-72"/>
<polygon fill="midnightblue" stroke="midnightblue" points="82.48,-75.5 92.48,-72 82.48,-68.5 82.48,-75.5"/>
</g>
<!-- Node4 -->
<g id="node4" class="node">
<title>Node4</title>
<g id="a_node4"><a xlink:href="classrare_1_1components_1_1tabs_1_1games_1_1game__widgets_1_1list__widget_1_1_list_widget.html#aaaa372d42348855de8b9f6f8ec6821fa" target="_top" xlink:title=" ">
<polygon fill="white" stroke="black" points="165.52,-0.5 165.52,-19.5 229.52,-19.5 229.52,-0.5 165.52,-0.5"/>
<text text-anchor="middle" x="197.52" y="-7.5" font-family="Helvetica,sans-Serif" font-size="10.00">translateUi</text>
</a>
</g>
</g>
<!-- Node1&#45;&gt;Node4 -->
<g id="edge6" class="edge">
<title>Node1&#45;&gt;Node4</title>
<path fill="none" stroke="midnightblue" d="M55.82,-62.49C66.9,-58.01 80.36,-52.65 92.52,-48 114.79,-39.48 139.89,-30.29 159.86,-23.09"/>
<polygon fill="midnightblue" stroke="midnightblue" points="161.28,-26.3 169.5,-19.62 158.9,-19.71 161.28,-26.3"/>
</g>
<!-- Node2&#45;&gt;Node2 -->
<g id="edge2" class="edge">
<title>Node2&#45;&gt;Node2</title>
<path fill="none" stroke="midnightblue" d="M171.93,-143.76C159.49,-152.57 168.01,-162 197.52,-162 217.34,-162 227.69,-157.74 228.58,-152.27"/>
<polygon fill="midnightblue" stroke="midnightblue" points="231.46,-150.27 223.1,-143.76 225.57,-154.06 231.46,-150.27"/>
</g>
<!-- Node3&#45;&gt;Node3 -->
<g id="edge5" class="edge">
<title>Node3&#45;&gt;Node3</title>
<path fill="none" stroke="midnightblue" d="M168.59,-87.16C161.61,-96.56 171.26,-105.5 197.52,-105.5 213.52,-105.5 223.35,-102.18 227.01,-97.46"/>
<polygon fill="midnightblue" stroke="midnightblue" points="230.49,-96.95 226.45,-87.16 223.5,-97.34 230.49,-96.95"/>
</g>
<!-- Node4&#45;&gt;Node4 -->
<g id="edge7" class="edge">
<title>Node4&#45;&gt;Node4</title>
<path fill="none" stroke="midnightblue" d="M171.93,-19.76C159.49,-28.57 168.01,-38 197.52,-38 217.34,-38 227.69,-33.74 228.58,-28.27"/>
<polygon fill="midnightblue" stroke="midnightblue" points="231.46,-26.27 223.1,-19.76 225.57,-30.06 231.46,-26.27"/>
</g>
</g>
</svg>
