<?xml version="1.0" encoding="UTF-8" standalone="no"?>
<!DOCTYPE svg PUBLIC "-//W3C//DTD SVG 1.1//EN"
 "http://www.w3.org/Graphics/SVG/1.1/DTD/svg11.dtd">
<!-- Generated by graphviz version 2.49.3 (20211027.1534)
 -->
<!-- Title: value Pages: 1 -->
<svg width="388pt" height="124pt"
 viewBox="0.00 0.00 387.95 124.00" xmlns="http://www.w3.org/2000/svg" xmlns:xlink="http://www.w3.org/1999/xlink">
<g id="graph0" class="graph" transform="scale(1 1) rotate(0) translate(4 120)">
<title>value</title>
<polygon fill="white" stroke="transparent" points="-4,4 -4,-120 383.95,-120 383.95,4 -4,4"/>
<!-- Node1 -->
<g id="node1" class="node">
<title>Node1</title>
<g id="a_node1"><a xlink:title=" ">
<polygon fill="#bfbfbf" stroke="black" points="338,-42 338,-61 378,-61 378,-42 338,-42"/>
<text text-anchor="middle" x="358" y="-49" font-family="Helvetica,sans-Serif" font-size="10.00">value</text>
</a>
</g>
</g>
<!-- Node1&#45;&gt;Node1 -->
<g id="edge8" class="edge">
<title>Node1&#45;&gt;Node1</title>
<path fill="none" stroke="midnightblue" d="M379.95,-70.53C378.75,-75.63 371.44,-79.5 358,-79.5 337.03,-79.5 330.96,-70.07 339.81,-61.26"/>
<polygon fill="midnightblue" stroke="midnightblue" points="383.19,-69.21 376.19,-61.26 376.7,-71.84 383.19,-69.21"/>
</g>
<!-- Node2 -->
<g id="node2" class="node">
<title>Node2</title>
<g id="a_node2"><a xlink:href="classrare_1_1models_1_1settings_1_1_rare_app_settings.html#a3234d402c04351fa5d4574c382f60ea1" target="_top" xlink:title=" ">
<polygon fill="white" stroke="black" points="176,-5.5 176,-35.5 302,-35.5 302,-5.5 176,-5.5"/>
<text text-anchor="start" x="184" y="-23.5" font-family="Helvetica,sans-Serif" font-size="10.00">rare.models.settings.Rare</text>
<text text-anchor="middle" x="239" y="-12.5" font-family="Helvetica,sans-Serif" font-size="10.00">AppSettings.get_value</text>
</a>
</g>
</g>
<!-- Node1&#45;&gt;Node2 -->
<g id="edge1" class="edge">
<title>Node1&#45;&gt;Node2</title>
<path fill="none" stroke="midnightblue" d="M328.2,-43.87C318.64,-41.34 307.63,-38.42 296.71,-35.53"/>
<polygon fill="midnightblue" stroke="midnightblue" points="327.38,-47.27 337.94,-46.45 329.17,-40.51 327.38,-47.27"/>
</g>
<!-- Node3 -->
<g id="node3" class="node">
<title>Node3</title>
<g id="a_node3"><a xlink:href="classrare_1_1models_1_1settings_1_1_rare_app_settings.html#af5b7b691d11deba9e90651f8cfa4b43d" target="_top" xlink:title=" ">
<polygon fill="white" stroke="black" points="0,-67.5 0,-97.5 140,-97.5 140,-67.5 0,-67.5"/>
<text text-anchor="start" x="8" y="-85.5" font-family="Helvetica,sans-Serif" font-size="10.00">rare.models.settings.Rare</text>
<text text-anchor="middle" x="70" y="-74.5" font-family="Helvetica,sans-Serif" font-size="10.00">AppSettings.get_with_global</text>
</a>
</g>
</g>
<!-- Node1&#45;&gt;Node3 -->
<g id="edge7" class="edge">
<title>Node1&#45;&gt;Node3</title>
<path fill="none" stroke="midnightblue" d="M327.79,-58.63C319.49,-60.45 310.43,-62.24 302,-63.5 247.88,-71.59 186.06,-76.45 140.01,-79.22"/>
<polygon fill="midnightblue" stroke="midnightblue" points="328.8,-61.99 337.77,-56.35 327.24,-55.16 328.8,-61.99"/>
</g>
<!-- Node2&#45;&gt;Node2 -->
<g id="edge2" class="edge">
<title>Node2&#45;&gt;Node2</title>
<path fill="none" stroke="midnightblue" d="M259.97,-45.96C257.36,-50.68 250.38,-54 239,-54 220.33,-54 213.48,-45.06 218.44,-35.66"/>
<polygon fill="midnightblue" stroke="midnightblue" points="263.45,-45.51 259.56,-35.66 256.46,-45.79 263.45,-45.51"/>
</g>
<!-- Node2&#45;&gt;Node3 -->
<g id="edge3" class="edge">
<title>Node2&#45;&gt;Node3</title>
<path fill="none" stroke="midnightblue" d="M190.31,-39.38C174.36,-45.59 156.45,-52.45 140,-58.5 131.91,-61.48 123.24,-64.56 114.88,-67.5"/>
<polygon fill="midnightblue" stroke="midnightblue" points="191.91,-42.51 199.96,-35.61 189.37,-35.99 191.91,-42.51"/>
</g>
<!-- Node4 -->
<g id="node4" class="node">
<title>Node4</title>
<g id="a_node4"><a xlink:href="classrare_1_1models_1_1settings_1_1_rare_app_settings.html#ae7efd943ee285dc7f60ebe933ddb5e2d" target="_top" xlink:title=" ">
<polygon fill="white" stroke="black" points="0,-0.5 0,-30.5 140,-30.5 140,-0.5 0,-0.5"/>
<text text-anchor="start" x="8" y="-18.5" font-family="Helvetica,sans-Serif" font-size="10.00">rare.models.settings.Rare</text>
<text text-anchor="middle" x="70" y="-7.5" font-family="Helvetica,sans-Serif" font-size="10.00">AppSettings.set_with_global</text>
</a>
</g>
</g>
<!-- Node2&#45;&gt;Node4 -->
<g id="edge5" class="edge">
<title>Node2&#45;&gt;Node4</title>
<path fill="none" stroke="midnightblue" d="M165.64,-18.33C157.21,-18.08 148.64,-17.82 140.26,-17.57"/>
<polygon fill="midnightblue" stroke="midnightblue" points="165.72,-21.84 175.82,-18.64 165.92,-14.84 165.72,-21.84"/>
</g>
<!-- Node3&#45;&gt;Node3 -->
<g id="edge4" class="edge">
<title>Node3&#45;&gt;Node3</title>
<path fill="none" stroke="midnightblue" d="M99.85,-107.96C96.15,-112.68 86.2,-116 70,-116 43.42,-116 33.66,-107.06 40.72,-97.66"/>
<polygon fill="midnightblue" stroke="midnightblue" points="103.33,-107.45 99.28,-97.66 96.34,-107.84 103.33,-107.45"/>
</g>
<!-- Node4&#45;&gt;Node4 -->
<g id="edge6" class="edge">
<title>Node4&#45;&gt;Node4</title>
<path fill="none" stroke="midnightblue" d="M99.85,-40.96C96.15,-45.68 86.2,-49 70,-49 43.42,-49 33.66,-40.06 40.72,-30.66"/>
<polygon fill="midnightblue" stroke="midnightblue" points="103.33,-40.45 99.28,-30.66 96.34,-40.84 103.33,-40.45"/>
</g>
</g>
</svg>
