<?xml version="1.0" encoding="UTF-8" standalone="no"?>
<!DOCTYPE svg PUBLIC "-//W3C//DTD SVG 1.1//EN"
 "http://www.w3.org/Graphics/SVG/1.1/DTD/svg11.dtd">
<!-- Generated by graphviz version 2.49.3 (20211027.1534)
 -->
<!-- Title: showEvent Pages: 1 -->
<svg width="363pt" height="46pt"
 viewBox="0.00 0.00 363.00 46.00" xmlns="http://www.w3.org/2000/svg" xmlns:xlink="http://www.w3.org/1999/xlink">
<g id="graph0" class="graph" transform="scale(1 1) rotate(0) translate(4 42)">
<title>showEvent</title>
<polygon fill="white" stroke="transparent" points="-4,4 -4,-42 359,-42 359,4 -4,4"/>
<!-- Node1 -->
<g id="node1" class="node">
<title>Node1</title>
<g id="a_node1"><a xlink:title=" ">
<polygon fill="#bfbfbf" stroke="black" points="0,-0.5 0,-19.5 65,-19.5 65,-0.5 0,-0.5"/>
<text text-anchor="middle" x="32.5" y="-7.5" font-family="Helvetica,sans-Serif" font-size="10.00">showEvent</text>
</a>
</g>
</g>
<!-- Node1&#45;&gt;Node1 -->
<g id="edge5" class="edge">
<title>Node1&#45;&gt;Node1</title>
<path fill="none" stroke="midnightblue" d="M15.24,-19.76C6.84,-28.57 12.59,-38 32.5,-38 44.94,-38 51.85,-34.31 53.24,-29.4"/>
<polygon fill="midnightblue" stroke="midnightblue" points="56.45,-27.98 49.76,-19.76 49.86,-30.35 56.45,-27.98"/>
</g>
<!-- Node2 -->
<g id="node2" class="node">
<title>Node2</title>
<g id="a_node2"><a xlink:href="classrare_1_1components_1_1dialogs_1_1install__dialog_1_1_install_dialog.html#a0644ae4e0ef848cb9b9d3f2c03507d05" target="_top" xlink:title=" ">
<polygon fill="white" stroke="black" points="101,-0.5 101,-19.5 190,-19.5 190,-0.5 101,-0.5"/>
<text text-anchor="middle" x="145.5" y="-7.5" font-family="Helvetica,sans-Serif" font-size="10.00">save_install_edit</text>
</a>
</g>
</g>
<!-- Node1&#45;&gt;Node2 -->
<g id="edge1" class="edge">
<title>Node1&#45;&gt;Node2</title>
<path fill="none" stroke="midnightblue" d="M65.01,-10C73.03,-10 81.87,-10 90.66,-10"/>
<polygon fill="midnightblue" stroke="midnightblue" points="90.89,-13.5 100.89,-10 90.89,-6.5 90.89,-13.5"/>
</g>
<!-- Node2&#45;&gt;Node2 -->
<g id="edge4" class="edge">
<title>Node2&#45;&gt;Node2</title>
<path fill="none" stroke="midnightblue" d="M128.24,-19.76C119.84,-28.57 125.59,-38 145.5,-38 157.94,-38 164.85,-34.31 166.24,-29.4"/>
<polygon fill="midnightblue" stroke="midnightblue" points="169.45,-27.98 162.76,-19.76 162.86,-30.35 169.45,-27.98"/>
</g>
<!-- Node3 -->
<g id="node3" class="node">
<title>Node3</title>
<g id="a_node3"><a xlink:href="namespacerare_1_1utils_1_1misc.html#a3544b31f50ff739b7e8bb4ab751026b7" target="_top" xlink:title=" ">
<polygon fill="white" stroke="black" points="226,-0.5 226,-19.5 355,-19.5 355,-0.5 226,-0.5"/>
<text text-anchor="middle" x="290.5" y="-7.5" font-family="Helvetica,sans-Serif" font-size="10.00">rare.utils.misc.format_size</text>
</a>
</g>
</g>
<!-- Node2&#45;&gt;Node3 -->
<g id="edge2" class="edge">
<title>Node2&#45;&gt;Node3</title>
<path fill="none" stroke="midnightblue" d="M190.18,-10C198.27,-10 206.92,-10 215.62,-10"/>
<polygon fill="midnightblue" stroke="midnightblue" points="215.82,-13.5 225.82,-10 215.82,-6.5 215.82,-13.5"/>
</g>
<!-- Node3&#45;&gt;Node3 -->
<g id="edge3" class="edge">
<title>Node3&#45;&gt;Node3</title>
<path fill="none" stroke="midnightblue" d="M268.31,-19.76C257.51,-28.57 264.91,-38 290.5,-38 307.3,-38 316.26,-33.94 317.38,-28.65"/>
<polygon fill="midnightblue" stroke="midnightblue" points="320.45,-26.97 312.69,-19.76 314.26,-30.24 320.45,-26.97"/>
</g>
</g>
</svg>
