<?xml version="1.0" encoding="UTF-8" standalone="no"?>
<!DOCTYPE svg PUBLIC "-//W3C//DTD SVG 1.1//EN"
 "http://www.w3.org/Graphics/SVG/1.1/DTD/svg11.dtd">
<!-- Generated by graphviz version 2.49.3 (20211027.1534)
 -->
<!-- Title: sync_finished Pages: 1 -->
<svg width="534pt" height="124pt"
 viewBox="0.00 0.00 534.00 124.00" xmlns="http://www.w3.org/2000/svg" xmlns:xlink="http://www.w3.org/1999/xlink">
<g id="graph0" class="graph" transform="scale(1 1) rotate(0) translate(4 120)">
<title>sync_finished</title>
<polygon fill="white" stroke="transparent" points="-4,4 -4,-120 530,-120 530,4 -4,4"/>
<!-- Node1 -->
<g id="node1" class="node">
<title>Node1</title>
<g id="a_node1"><a xlink:title=" ">
<polygon fill="#bfbfbf" stroke="black" points="0,-44.5 0,-63.5 75,-63.5 75,-44.5 0,-44.5"/>
<text text-anchor="middle" x="37.5" y="-51.5" font-family="Helvetica,sans-Serif" font-size="10.00">sync_finished</text>
</a>
</g>
</g>
<!-- Node1&#45;&gt;Node1 -->
<g id="edge8" class="edge">
<title>Node1&#45;&gt;Node1</title>
<path fill="none" stroke="midnightblue" d="M12.53,-63.76C0.38,-72.57 8.71,-82 37.5,-82 56.85,-82 66.95,-77.74 67.81,-72.27"/>
<polygon fill="midnightblue" stroke="midnightblue" points="70.75,-70.37 62.47,-63.76 64.82,-74.09 70.75,-70.37"/>
</g>
<!-- Node2 -->
<g id="node2" class="node">
<title>Node2</title>
<g id="a_node2"><a xlink:href="classrare_1_1components_1_1tabs_1_1games_1_1game__widgets_1_1icon__game__widget_1_1_icon_game_widget.html#ac9598940a0d04d2961aa445b09bc9d50" target="_top" xlink:title=" ">
<polygon fill="white" stroke="black" points="168,-78.5 168,-97.5 233,-97.5 233,-78.5 168,-78.5"/>
<text text-anchor="middle" x="200.5" y="-85.5" font-family="Helvetica,sans-Serif" font-size="10.00">leaveEvent</text>
</a>
</g>
</g>
<!-- Node1&#45;&gt;Node2 -->
<g id="edge1" class="edge">
<title>Node1&#45;&gt;Node2</title>
<path fill="none" stroke="midnightblue" d="M75.03,-61.72C99.69,-66.92 132.28,-73.8 157.92,-79.22"/>
<polygon fill="midnightblue" stroke="midnightblue" points="157.23,-82.65 167.74,-81.29 158.67,-75.8 157.23,-82.65"/>
</g>
<!-- Node4 -->
<g id="node4" class="node">
<title>Node4</title>
<g id="a_node4"><a xlink:href="classrare_1_1components_1_1tabs_1_1games_1_1game__widgets_1_1list__game__widget_1_1_list_game_widget.html#ac9598940a0d04d2961aa445b09bc9d50" target="_top" xlink:title=" ">
<polygon fill="white" stroke="black" points="111,-0.5 111,-41.5 290,-41.5 290,-0.5 111,-0.5"/>
<text text-anchor="start" x="119" y="-29.5" font-family="Helvetica,sans-Serif" font-size="10.00">rare.components.tabs.games.game</text>
<text text-anchor="start" x="119" y="-18.5" font-family="Helvetica,sans-Serif" font-size="10.00">_widgets.list_game_widget.ListGame</text>
<text text-anchor="middle" x="200.5" y="-7.5" font-family="Helvetica,sans-Serif" font-size="10.00">Widget.leaveEvent</text>
</a>
</g>
</g>
<!-- Node1&#45;&gt;Node4 -->
<g id="edge5" class="edge">
<title>Node1&#45;&gt;Node4</title>
<path fill="none" stroke="midnightblue" d="M75.03,-46.51C83,-44.88 91.81,-43.07 100.93,-41.2"/>
<polygon fill="midnightblue" stroke="midnightblue" points="101.85,-44.59 110.94,-39.15 100.44,-37.73 101.85,-44.59"/>
</g>
<!-- Node2&#45;&gt;Node2 -->
<g id="edge2" class="edge">
<title>Node2&#45;&gt;Node2</title>
<path fill="none" stroke="midnightblue" d="M175.53,-97.76C163.38,-106.57 171.71,-116 200.5,-116 219.85,-116 229.95,-111.74 230.81,-106.27"/>
<polygon fill="midnightblue" stroke="midnightblue" points="233.75,-104.37 225.47,-97.76 227.82,-108.09 233.75,-104.37"/>
</g>
<!-- Node3 -->
<g id="node3" class="node">
<title>Node3</title>
<g id="a_node3"><a xlink:href="classrare_1_1components_1_1tabs_1_1games_1_1game__widgets_1_1game__widget_1_1_game_widget.html#ae522151c6b7af5e1b83262172bad557f" target="_top" xlink:title=" ">
<polygon fill="white" stroke="black" points="326,-33.5 326,-74.5 526,-74.5 526,-33.5 326,-33.5"/>
<text text-anchor="start" x="334" y="-62.5" font-family="Helvetica,sans-Serif" font-size="10.00">rare.components.tabs.games.game</text>
<text text-anchor="start" x="334" y="-51.5" font-family="Helvetica,sans-Serif" font-size="10.00">_widgets.game_widget.GameWidget.leave</text>
<text text-anchor="middle" x="426" y="-40.5" font-family="Helvetica,sans-Serif" font-size="10.00">EventText</text>
</a>
</g>
</g>
<!-- Node2&#45;&gt;Node3 -->
<g id="edge3" class="edge">
<title>Node2&#45;&gt;Node3</title>
<path fill="none" stroke="midnightblue" d="M233.05,-83.2C254.89,-79.88 285.36,-75.24 315.6,-70.64"/>
<polygon fill="midnightblue" stroke="midnightblue" points="316.48,-74.05 325.84,-69.08 315.43,-67.13 316.48,-74.05"/>
</g>
<!-- Node3&#45;&gt;Node3 -->
<g id="edge4" class="edge">
<title>Node3&#45;&gt;Node3</title>
<path fill="none" stroke="midnightblue" d="M384.83,-74.86C380.34,-84.54 394.06,-93 426,-93 445.96,-93 458.81,-89.7 464.54,-84.86"/>
<polygon fill="midnightblue" stroke="midnightblue" points="468.01,-85.43 467.17,-74.86 461.24,-83.64 468.01,-85.43"/>
</g>
<!-- Node4&#45;&gt;Node3 -->
<g id="edge7" class="edge">
<title>Node4&#45;&gt;Node3</title>
<path fill="none" stroke="midnightblue" d="M290.15,-34.09C298.56,-35.33 307.16,-36.6 315.73,-37.87"/>
<polygon fill="midnightblue" stroke="midnightblue" points="315.37,-41.35 325.77,-39.35 316.39,-34.43 315.37,-41.35"/>
</g>
<!-- Node4&#45;&gt;Node4 -->
<g id="edge6" class="edge">
<title>Node4&#45;&gt;Node4</title>
<path fill="none" stroke="midnightblue" d="M170.73,-41.86C167.48,-51.54 177.4,-60 200.5,-60 214.94,-60 224.23,-56.7 228.37,-51.86"/>
<polygon fill="midnightblue" stroke="midnightblue" points="231.84,-52.34 230.27,-41.86 224.96,-51.03 231.84,-52.34"/>
</g>
</g>
</svg>
