<?xml version="1.0" encoding="UTF-8" standalone="no"?>
<!DOCTYPE svg PUBLIC "-//W3C//DTD SVG 1.1//EN"
 "http://www.w3.org/Graphics/SVG/1.1/DTD/svg11.dtd">
<!-- Generated by graphviz version 2.49.3 (20211027.1534)
 -->
<!-- Title: sizeHint Pages: 1 -->
<!--zoomable 358 -->
<svg id="main" version="1.1" xmlns="http://www.w3.org/2000/svg" xmlns:xlink="http://www.w3.org/1999/xlink" xml:space="preserve" onload="init(evt)">
<style type="text/css"><![CDATA[
.edge:hover path { stroke: red; }
.edge:hover polygon { stroke: red; fill: red; }
]]></style>
<script type="text/javascript"><![CDATA[
var edges = document.getElementsByTagName('g');
if (edges && edges.length) {
  for (var i=0;i<edges.length;i++) {
    if (edges[i].id.substr(0,4)=='edge') {
      edges[i].setAttribute('class','edge');
    }
  }
}
]]></script>
        <defs>
                <circle id="rim" cx="0" cy="0" r="7"/>
                <circle id="rim2" cx="0" cy="0" r="3.5"/>
                <g id="zoomPlus">
                        <use xlink:href="#rim" fill="#404040">
                                <set attributeName="fill" to="#808080" begin="zoomplus.mouseover" end="zoomplus.mouseout"/>
                        </use>
                        <path d="M-4,0h8M0,-4v8" fill="none" stroke="white" stroke-width="1.5" pointer-events="none"/>
                </g>
                <g id="zoomMin">
                        <use xlink:href="#rim" fill="#404040">
                                <set attributeName="fill" to="#808080" begin="zoomminus.mouseover" end="zoomminus.mouseout"/>
                        </use>
                        <path d="M-4,0h8" fill="none" stroke="white" stroke-width="1.5" pointer-events="none"/>
                </g>
                <g id="dirArrow">
                        <path fill="none" stroke="white" stroke-width="1.5" d="M0,-3.0v7 M-2.5,-0.5L0,-3.0L2.5,-0.5"/>
                </g>
               <g id="resetDef">
                       <use xlink:href="#rim2" fill="#404040">
                               <set attributeName="fill" to="#808080" begin="reset.mouseover" end="reset.mouseout"/>
                       </use>
               </g>
        </defs>

<script type="text/javascript">
var viewWidth = 1360;
var viewHeight = 358;
var sectionId = 'dynsection-39';
</script>
<script xlink:href="svgpan.js"/>
<svg id="graph" class="graph">
<g id="viewport">
<title>sizeHint</title>
<polygon fill="white" stroke="transparent" points="-4,4 -4,-354 1356.36,-354 1356.36,4 -4,4"/>
<!-- Node1 -->
<g id="node1" class="node">
<title>Node1</title>
<g id="a_node1"><a xlink:title=" ">
<polygon fill="#bfbfbf" stroke="black" points="1290,-106 1290,-125 1342,-125 1342,-106 1290,-106"/>
<text text-anchor="middle" x="1316" y="-113" font-family="Helvetica,sans-Serif" font-size="10.00">sizeHint</text>
</a>
</g>
</g>
<!-- Node1&#45;&gt;Node1 -->
<g id="edge39" class="edge">
<title>Node1&#45;&gt;Node1</title>
<path fill="none" stroke="midnightblue" d="M1350.35,-129.13C1356.59,-136.62 1345.14,-143.5 1316,-143.5 1279.44,-143.5 1270.73,-132.67 1289.86,-123.38"/>
<polygon fill="midnightblue" stroke="midnightblue" points="1352.34,-126.25 1342.14,-123.38 1348.32,-131.98 1352.34,-126.25"/>
</g>
<!-- Node2 -->
<g id="node2" class="node">
<title>Node2</title>
<g id="a_node2"><a xlink:href="classrare_1_1components_1_1tabs_1_1downloads_1_1download_1_1_download_widget.html#a7237f0ce0aaddf9396e9801066707c3e" target="_top" xlink:title=" ">
<polygon fill="white" stroke="black" points="1022,-201.5 1022,-231.5 1226,-231.5 1226,-201.5 1022,-201.5"/>
<text text-anchor="start" x="1030" y="-219.5" font-family="Helvetica,sans-Serif" font-size="10.00">rare.components.tabs.downloads.download.</text>
<text text-anchor="middle" x="1124" y="-208.5" font-family="Helvetica,sans-Serif" font-size="10.00">DownloadWidget.prepare_pixmap</text>
</a>
</g>
</g>
<!-- Node1&#45;&gt;Node2 -->
<g id="edge1" class="edge">
<title>Node1&#45;&gt;Node2</title>
<path fill="none" stroke="midnightblue" d="M1305.46,-134.1C1295.24,-152.03 1277.29,-178.46 1254,-192.5 1245.42,-197.67 1235.97,-201.78 1226.22,-205.03"/>
<polygon fill="midnightblue" stroke="midnightblue" points="1308.62,-135.6 1310.33,-125.14 1302.47,-132.26 1308.62,-135.6"/>
</g>
<!-- Node16 -->
<g id="node16" class="node">
<title>Node16</title>
<g id="a_node16"><a xlink:href="classrare_1_1components_1_1tabs_1_1library_1_1widgets_1_1list__game__widget_1_1_list_game_widget.html#a7237f0ce0aaddf9396e9801066707c3e" target="_top" xlink:title=" ">
<polygon fill="white" stroke="black" points="1011.5,-134.5 1011.5,-164.5 1236.5,-164.5 1236.5,-134.5 1011.5,-134.5"/>
<text text-anchor="start" x="1019.5" y="-152.5" font-family="Helvetica,sans-Serif" font-size="10.00">rare.components.tabs.library.widgets.list</text>
<text text-anchor="middle" x="1124" y="-141.5" font-family="Helvetica,sans-Serif" font-size="10.00">_game_widget.ListGameWidget.prepare_pixmap</text>
</a>
</g>
</g>
<!-- Node1&#45;&gt;Node16 -->
<g id="edge33" class="edge">
<title>Node1&#45;&gt;Node16</title>
<path fill="none" stroke="midnightblue" d="M1279.89,-121.78C1259.88,-125.36 1233.89,-130.01 1208.93,-134.48"/>
<polygon fill="midnightblue" stroke="midnightblue" points="1280.54,-125.22 1289.77,-120.01 1279.31,-118.33 1280.54,-125.22"/>
</g>
<!-- Node17 -->
<g id="node17" class="node">
<title>Node17</title>
<g id="a_node17"><a xlink:href="classrare_1_1widgets_1_1collapsible__widget_1_1_collapsible_base.html#a58e1dc91f8780e6ffd61ed5fdc02b6cd" target="_top" xlink:title=" ">
<polygon fill="white" stroke="black" points="1040,-67.5 1040,-97.5 1208,-97.5 1208,-67.5 1040,-67.5"/>
<text text-anchor="start" x="1048" y="-85.5" font-family="Helvetica,sans-Serif" font-size="10.00">rare.widgets.collapsible</text>
<text text-anchor="middle" x="1124" y="-74.5" font-family="Helvetica,sans-Serif" font-size="10.00">_widget.CollapsibleBase.setWidget</text>
</a>
</g>
</g>
<!-- Node1&#45;&gt;Node17 -->
<g id="edge37" class="edge">
<title>Node1&#45;&gt;Node17</title>
<path fill="none" stroke="midnightblue" d="M1279.79,-109.38C1259.57,-105.87 1233.25,-101.3 1208.08,-96.93"/>
<polygon fill="midnightblue" stroke="midnightblue" points="1279.32,-112.85 1289.77,-111.12 1280.52,-105.96 1279.32,-112.85"/>
</g>
<!-- Node18 -->
<g id="node18" class="node">
<title>Node18</title>
<g id="a_node18"><a xlink:href="classrare_1_1components_1_1tabs_1_1library_1_1widgets_1_1list__game__widget_1_1_list_game_widget.html#acb64562cc55f011744e52e9e9bc9a625" target="_top" xlink:title="Paints the color image over the gray images based on progress percentage.">
<polygon fill="white" stroke="black" points="994,-0.5 994,-30.5 1254,-30.5 1254,-0.5 994,-0.5"/>
<text text-anchor="start" x="1002" y="-18.5" font-family="Helvetica,sans-Serif" font-size="10.00">rare.components.tabs.library.widgets.list</text>
<text text-anchor="middle" x="1124" y="-7.5" font-family="Helvetica,sans-Serif" font-size="10.00">_game_widget.ListGameWidget.verticalProgressPixmap</text>
</a>
</g>
</g>
<!-- Node1&#45;&gt;Node18 -->
<g id="edge40" class="edge">
<title>Node1&#45;&gt;Node18</title>
<path fill="none" stroke="midnightblue" d="M1300.66,-98.2C1289.21,-85.37 1272.12,-68.3 1254,-57.5 1234.48,-45.86 1211.34,-37.03 1190.09,-30.54"/>
<polygon fill="midnightblue" stroke="midnightblue" points="1298.14,-100.63 1307.32,-105.91 1303.43,-96.05 1298.14,-100.63"/>
</g>
<!-- Node2&#45;&gt;Node2 -->
<g id="edge2" class="edge">
<title>Node2&#45;&gt;Node2</title>
<path fill="none" stroke="midnightblue" d="M1158.12,-241.96C1153.88,-246.68 1142.51,-250 1124,-250 1093.62,-250 1082.47,-241.06 1090.54,-231.66"/>
<polygon fill="midnightblue" stroke="midnightblue" points="1161.59,-241.42 1157.46,-231.66 1154.6,-241.86 1161.59,-241.42"/>
</g>
<!-- Node3 -->
<g id="node3" class="node">
<title>Node3</title>
<g id="a_node3"><a xlink:href="classrare_1_1components_1_1tabs_1_1downloads_1_1download_1_1_download_widget.html#afe7221063d2a4d7b1e1f42fb85f5d06f" target="_top" xlink:title=" ">
<polygon fill="white" stroke="black" points="754,-201.5 754,-231.5 958,-231.5 958,-201.5 754,-201.5"/>
<text text-anchor="start" x="762" y="-219.5" font-family="Helvetica,sans-Serif" font-size="10.00">rare.components.tabs.downloads.download.</text>
<text text-anchor="middle" x="856" y="-208.5" font-family="Helvetica,sans-Serif" font-size="10.00">DownloadWidget.setPixmap</text>
</a>
</g>
</g>
<!-- Node2&#45;&gt;Node3 -->
<g id="edge3" class="edge">
<title>Node2&#45;&gt;Node3</title>
<path fill="none" stroke="midnightblue" d="M1011.34,-216.5C993.66,-216.5 975.46,-216.5 958.04,-216.5"/>
<polygon fill="midnightblue" stroke="midnightblue" points="1011.68,-220 1021.68,-216.5 1011.68,-213 1011.68,-220"/>
</g>
<!-- Node15 -->
<g id="node15" class="node">
<title>Node15</title>
<g id="a_node15"><a xlink:href="classrare_1_1components_1_1tabs_1_1library_1_1widgets_1_1list__game__widget_1_1_list_game_widget.html#afe7221063d2a4d7b1e1f42fb85f5d06f" target="_top" xlink:title=" ">
<polygon fill="white" stroke="black" points="754.5,-134.5 754.5,-164.5 957.5,-164.5 957.5,-134.5 754.5,-134.5"/>
<text text-anchor="start" x="762.5" y="-152.5" font-family="Helvetica,sans-Serif" font-size="10.00">rare.components.tabs.library.widgets.list</text>
<text text-anchor="middle" x="856" y="-141.5" font-family="Helvetica,sans-Serif" font-size="10.00">_game_widget.ListGameWidget.setPixmap</text>
</a>
</g>
</g>
<!-- Node2&#45;&gt;Node15 -->
<g id="edge27" class="edge">
<title>Node2&#45;&gt;Node15</title>
<path fill="none" stroke="midnightblue" d="M1024.36,-199.41C1014.07,-197.25 1003.8,-194.94 994,-192.5 962.31,-184.61 927.18,-173.53 900.43,-164.6"/>
<polygon fill="midnightblue" stroke="midnightblue" points="1023.72,-202.86 1034.22,-201.44 1025.13,-196 1023.72,-202.86"/>
</g>
<!-- Node3&#45;&gt;Node3 -->
<g id="edge14" class="edge">
<title>Node3&#45;&gt;Node3</title>
<path fill="none" stroke="midnightblue" d="M900.83,-241.59C895.66,-246.51 880.72,-250 856,-250 816.45,-250 801.93,-241.06 812.43,-231.66"/>
<polygon fill="midnightblue" stroke="midnightblue" points="904.3,-241.14 899.57,-231.66 897.35,-242.02 904.3,-241.14"/>
</g>
<!-- Node4 -->
<g id="node4" class="node">
<title>Node4</title>
<g id="a_node4"><a xlink:href="classrare_1_1components_1_1tabs_1_1store_1_1widgets_1_1image_1_1_loading_image_widget.html#a5e746b7db8fca760d821d8bdd801fc52" target="_top" xlink:title=" ">
<polygon fill="white" stroke="black" points="506,-201.5 506,-231.5 706,-231.5 706,-201.5 506,-201.5"/>
<text text-anchor="start" x="514" y="-219.5" font-family="Helvetica,sans-Serif" font-size="10.00">rare.components.tabs.store.widgets.image.</text>
<text text-anchor="middle" x="606" y="-208.5" font-family="Helvetica,sans-Serif" font-size="10.00">LoadingImageWidget.fetchPixmap</text>
</a>
</g>
</g>
<!-- Node3&#45;&gt;Node4 -->
<g id="edge4" class="edge">
<title>Node3&#45;&gt;Node4</title>
<path fill="none" stroke="midnightblue" d="M743.43,-216.5C731.05,-216.5 718.51,-216.5 706.3,-216.5"/>
<polygon fill="midnightblue" stroke="midnightblue" points="743.77,-220 753.77,-216.5 743.77,-213 743.77,-220"/>
</g>
<!-- Node9 -->
<g id="node9" class="node">
<title>Node9</title>
<g id="a_node9"><a xlink:href="classrare_1_1components_1_1tabs_1_1library_1_1widgets_1_1icon__game__widget_1_1_icon_game_widget.html#abdf6072ecf79d4ad6dc5afd130bdf19d" target="_top" xlink:title=" ">
<polygon fill="white" stroke="black" points="494,-67.5 494,-97.5 718,-97.5 718,-67.5 494,-67.5"/>
<text text-anchor="start" x="502" y="-85.5" font-family="Helvetica,sans-Serif" font-size="10.00">rare.components.tabs.library.widgets.icon</text>
<text text-anchor="middle" x="606" y="-74.5" font-family="Helvetica,sans-Serif" font-size="10.00">_game_widget.IconGameWidget.update_pixmap</text>
</a>
</g>
</g>
<!-- Node3&#45;&gt;Node9 -->
<g id="edge15" class="edge">
<title>Node3&#45;&gt;Node9</title>
<path fill="none" stroke="midnightblue" d="M759.59,-196.42C757.67,-195.19 755.8,-193.88 754,-192.5 727.2,-171.89 743.33,-147.88 718,-125.5 703.91,-113.05 685.81,-104.01 668.33,-97.54"/>
<polygon fill="midnightblue" stroke="midnightblue" points="757.92,-199.5 768.35,-201.36 761.36,-193.4 757.92,-199.5"/>
</g>
<!-- Node10 -->
<g id="node10" class="node">
<title>Node10</title>
<g id="a_node10"><a xlink:href="classrare_1_1components_1_1tabs_1_1library_1_1widgets_1_1list__game__widget_1_1_list_game_widget.html#abdf6072ecf79d4ad6dc5afd130bdf19d" target="_top" xlink:title=" ">
<polygon fill="white" stroke="black" points="495,-268.5 495,-298.5 717,-298.5 717,-268.5 495,-268.5"/>
<text text-anchor="start" x="503" y="-286.5" font-family="Helvetica,sans-Serif" font-size="10.00">rare.components.tabs.library.widgets.list</text>
<text text-anchor="middle" x="606" y="-275.5" font-family="Helvetica,sans-Serif" font-size="10.00">_game_widget.ListGameWidget.update_pixmap</text>
</a>
</g>
</g>
<!-- Node3&#45;&gt;Node10 -->
<g id="edge17" class="edge">
<title>Node3&#45;&gt;Node10</title>
<path fill="none" stroke="midnightblue" d="M800.88,-234.74C775.82,-242.86 745.55,-252.21 718,-259.5 706.09,-262.65 693.37,-265.69 680.96,-268.49"/>
<polygon fill="midnightblue" stroke="midnightblue" points="802.15,-238.01 810.57,-231.58 799.97,-231.35 802.15,-238.01"/>
</g>
<!-- Node11 -->
<g id="node11" class="node">
<title>Node11</title>
<g id="a_node11"><a xlink:href="classrare_1_1components_1_1tabs_1_1library_1_1widgets_1_1library__widget_1_1_library_widget.html#aba6dbd857b7a02c2f1fbd7d472416b54" target="_top" xlink:title=" ">
<polygon fill="white" stroke="black" points="505.5,-134.5 505.5,-164.5 706.5,-164.5 706.5,-134.5 505.5,-134.5"/>
<text text-anchor="start" x="513.5" y="-152.5" font-family="Helvetica,sans-Serif" font-size="10.00">rare.components.tabs.library.widgets.library</text>
<text text-anchor="middle" x="606" y="-141.5" font-family="Helvetica,sans-Serif" font-size="10.00">_widget.LibraryWidget.updateProgress</text>
</a>
</g>
</g>
<!-- Node3&#45;&gt;Node11 -->
<g id="edge19" class="edge">
<title>Node3&#45;&gt;Node11</title>
<path fill="none" stroke="midnightblue" d="M779.86,-199.1C771.12,-196.94 762.35,-194.71 754,-192.5 721.23,-183.82 684.64,-173.12 656.16,-164.56"/>
<polygon fill="midnightblue" stroke="midnightblue" points="779.13,-202.52 789.68,-201.5 780.8,-195.72 779.13,-202.52"/>
</g>
<!-- Node4&#45;&gt;Node4 -->
<g id="edge9" class="edge">
<title>Node4&#45;&gt;Node4</title>
<path fill="none" stroke="midnightblue" d="M650.47,-241.59C645.34,-246.51 630.52,-250 606,-250 566.77,-250 552.36,-241.06 562.78,-231.66"/>
<polygon fill="midnightblue" stroke="midnightblue" points="653.94,-241.14 649.22,-231.66 647,-242.02 653.94,-241.14"/>
</g>
<!-- Node5 -->
<g id="node5" class="node">
<title>Node5</title>
<g id="a_node5"><a xlink:href="classrare_1_1components_1_1tabs_1_1store_1_1widgets_1_1items_1_1_search_item_widget.html#aa6e4a481f332ad11a870b247a793e7d1" target="_top" xlink:title=" ">
<polygon fill="white" stroke="black" points="258.5,-301.5 258.5,-331.5 456.5,-331.5 456.5,-301.5 258.5,-301.5"/>
<text text-anchor="start" x="266.5" y="-319.5" font-family="Helvetica,sans-Serif" font-size="10.00">rare.components.tabs.store.widgets.items.</text>
<text text-anchor="middle" x="357.5" y="-308.5" font-family="Helvetica,sans-Serif" font-size="10.00">SearchItemWidget.__init__</text>
</a>
</g>
</g>
<!-- Node4&#45;&gt;Node5 -->
<g id="edge5" class="edge">
<title>Node4&#45;&gt;Node5</title>
<path fill="none" stroke="midnightblue" d="M544.64,-235.22C527.64,-241.71 509.56,-249.84 494,-259.5 475.56,-270.95 477.16,-282.3 458,-292.5 451.49,-295.97 444.48,-298.94 437.29,-301.49"/>
<polygon fill="midnightblue" stroke="midnightblue" points="546.33,-238.33 554.5,-231.58 543.91,-231.76 546.33,-238.33"/>
</g>
<!-- Node6 -->
<g id="node6" class="node">
<title>Node6</title>
<g id="a_node6"><a xlink:href="classrare_1_1components_1_1tabs_1_1store_1_1widgets_1_1items_1_1_wishlist_item_widget.html#aa6e4a481f332ad11a870b247a793e7d1" target="_top" xlink:title=" ">
<polygon fill="white" stroke="black" points="258.5,-234.5 258.5,-264.5 456.5,-264.5 456.5,-234.5 258.5,-234.5"/>
<text text-anchor="start" x="266.5" y="-252.5" font-family="Helvetica,sans-Serif" font-size="10.00">rare.components.tabs.store.widgets.items.</text>
<text text-anchor="middle" x="357.5" y="-241.5" font-family="Helvetica,sans-Serif" font-size="10.00">WishlistItemWidget.__init__</text>
</a>
</g>
</g>
<!-- Node4&#45;&gt;Node6 -->
<g id="edge7" class="edge">
<title>Node4&#45;&gt;Node6</title>
<path fill="none" stroke="midnightblue" d="M495.88,-231.11C482.83,-232.86 469.57,-234.63 456.69,-236.35"/>
<polygon fill="midnightblue" stroke="midnightblue" points="496.36,-234.58 505.8,-229.78 495.43,-227.64 496.36,-234.58"/>
</g>
<!-- Node7 -->
<g id="node7" class="node">
<title>Node7</title>
<g id="a_node7"><a xlink:href="classrare_1_1components_1_1tabs_1_1store_1_1widgets_1_1items_1_1_store_item_widget.html#a25fcdb296abc02d48b1b9c473f1b7597" target="_top" xlink:title=" ">
<polygon fill="white" stroke="black" points="258.5,-167.5 258.5,-197.5 456.5,-197.5 456.5,-167.5 258.5,-167.5"/>
<text text-anchor="start" x="266.5" y="-185.5" font-family="Helvetica,sans-Serif" font-size="10.00">rare.components.tabs.store.widgets.items.</text>
<text text-anchor="middle" x="357.5" y="-174.5" font-family="Helvetica,sans-Serif" font-size="10.00">StoreItemWidget.init_ui</text>
</a>
</g>
</g>
<!-- Node4&#45;&gt;Node7 -->
<g id="edge10" class="edge">
<title>Node4&#45;&gt;Node7</title>
<path fill="none" stroke="midnightblue" d="M495.88,-201.45C482.83,-199.65 469.57,-197.82 456.69,-196.04"/>
<polygon fill="midnightblue" stroke="midnightblue" points="495.42,-204.92 505.8,-202.82 496.38,-197.98 495.42,-204.92"/>
</g>
<!-- Node5&#45;&gt;Node5 -->
<g id="edge6" class="edge">
<title>Node5&#45;&gt;Node5</title>
<path fill="none" stroke="midnightblue" d="M401.61,-341.59C396.53,-346.51 381.82,-350 357.5,-350 318.58,-350 304.29,-341.06 314.63,-331.66"/>
<polygon fill="midnightblue" stroke="midnightblue" points="405.08,-341.15 400.37,-331.66 398.14,-342.02 405.08,-341.15"/>
</g>
<!-- Node6&#45;&gt;Node6 -->
<g id="edge8" class="edge">
<title>Node6&#45;&gt;Node6</title>
<path fill="none" stroke="midnightblue" d="M401.61,-274.59C396.53,-279.51 381.82,-283 357.5,-283 318.58,-283 304.29,-274.06 314.63,-264.66"/>
<polygon fill="midnightblue" stroke="midnightblue" points="405.08,-274.15 400.37,-264.66 398.14,-275.02 405.08,-274.15"/>
</g>
<!-- Node7&#45;&gt;Node7 -->
<g id="edge13" class="edge">
<title>Node7&#45;&gt;Node7</title>
<path fill="none" stroke="midnightblue" d="M401.61,-207.59C396.53,-212.51 381.82,-216 357.5,-216 318.58,-216 304.29,-207.06 314.63,-197.66"/>
<polygon fill="midnightblue" stroke="midnightblue" points="405.08,-207.15 400.37,-197.66 398.14,-208.02 405.08,-207.15"/>
</g>
<!-- Node8 -->
<g id="node8" class="node">
<title>Node8</title>
<g id="a_node8"><a xlink:href="classrare_1_1components_1_1tabs_1_1store_1_1widgets_1_1items_1_1_store_item_widget.html#a10bc7e3ba7dbaf8018c30feaee63e609" target="_top" xlink:title=" ">
<polygon fill="white" stroke="black" points="11.5,-167.5 11.5,-197.5 209.5,-197.5 209.5,-167.5 11.5,-167.5"/>
<text text-anchor="start" x="19.5" y="-185.5" font-family="Helvetica,sans-Serif" font-size="10.00">rare.components.tabs.store.widgets.items.</text>
<text text-anchor="middle" x="110.5" y="-174.5" font-family="Helvetica,sans-Serif" font-size="10.00">StoreItemWidget.__init__</text>
</a>
</g>
</g>
<!-- Node7&#45;&gt;Node8 -->
<g id="edge11" class="edge">
<title>Node7&#45;&gt;Node8</title>
<path fill="none" stroke="midnightblue" d="M248.09,-182.5C235.33,-182.5 222.37,-182.5 209.76,-182.5"/>
<polygon fill="midnightblue" stroke="midnightblue" points="248.26,-186 258.26,-182.5 248.26,-179 248.26,-186"/>
</g>
<!-- Node8&#45;&gt;Node8 -->
<g id="edge12" class="edge">
<title>Node8&#45;&gt;Node8</title>
<path fill="none" stroke="midnightblue" d="M154.61,-207.59C149.53,-212.51 134.82,-216 110.5,-216 71.58,-216 57.29,-207.06 67.63,-197.66"/>
<polygon fill="midnightblue" stroke="midnightblue" points="158.08,-207.15 153.37,-197.66 151.14,-208.02 158.08,-207.15"/>
</g>
<!-- Node9&#45;&gt;Node9 -->
<g id="edge16" class="edge">
<title>Node9&#45;&gt;Node9</title>
<path fill="none" stroke="midnightblue" d="M650.47,-107.59C645.34,-112.51 630.52,-116 606,-116 566.77,-116 552.36,-107.06 562.78,-97.66"/>
<polygon fill="midnightblue" stroke="midnightblue" points="653.94,-107.14 649.22,-97.66 647,-108.02 653.94,-107.14"/>
</g>
<!-- Node10&#45;&gt;Node10 -->
<g id="edge18" class="edge">
<title>Node10&#45;&gt;Node10</title>
<path fill="none" stroke="midnightblue" d="M650.47,-308.59C645.34,-313.51 630.52,-317 606,-317 566.77,-317 552.36,-308.06 562.78,-298.66"/>
<polygon fill="midnightblue" stroke="midnightblue" points="653.94,-308.14 649.22,-298.66 647,-309.02 653.94,-308.14"/>
</g>
<!-- Node11&#45;&gt;Node11 -->
<g id="edge26" class="edge">
<title>Node11&#45;&gt;Node11</title>
<path fill="none" stroke="midnightblue" d="M650.47,-174.59C645.34,-179.51 630.52,-183 606,-183 566.77,-183 552.36,-174.06 562.78,-164.66"/>
<polygon fill="midnightblue" stroke="midnightblue" points="653.94,-174.14 649.22,-164.66 647,-175.02 653.94,-174.14"/>
</g>
<!-- Node12 -->
<g id="node12" class="node">
<title>Node12</title>
<g id="a_node12"><a xlink:href="classrare_1_1components_1_1tabs_1_1library_1_1widgets_1_1library__widget_1_1_library_widget.html#a1990ae73849da7538f16b24becb60023" target="_top" xlink:title=" ">
<polygon fill="white" stroke="black" points="257,-100.5 257,-130.5 458,-130.5 458,-100.5 257,-100.5"/>
<text text-anchor="start" x="265" y="-118.5" font-family="Helvetica,sans-Serif" font-size="10.00">rare.components.tabs.library.widgets.library</text>
<text text-anchor="middle" x="357.5" y="-107.5" font-family="Helvetica,sans-Serif" font-size="10.00">_widget.LibraryWidget.showProgress</text>
</a>
</g>
</g>
<!-- Node11&#45;&gt;Node12 -->
<g id="edge20" class="edge">
<title>Node11&#45;&gt;Node12</title>
<path fill="none" stroke="midnightblue" d="M495.5,-134.4C483.02,-132.68 470.36,-130.93 458.02,-129.23"/>
<polygon fill="midnightblue" stroke="midnightblue" points="495.07,-137.87 505.45,-135.77 496.02,-130.94 495.07,-137.87"/>
</g>
<!-- Node12&#45;&gt;Node12 -->
<g id="edge21" class="edge">
<title>Node12&#45;&gt;Node12</title>
<path fill="none" stroke="midnightblue" d="M401.61,-140.59C396.53,-145.51 381.82,-149 357.5,-149 318.58,-149 304.29,-140.06 314.63,-130.66"/>
<polygon fill="midnightblue" stroke="midnightblue" points="405.08,-140.15 400.37,-130.66 398.14,-141.02 405.08,-140.15"/>
</g>
<!-- Node13 -->
<g id="node13" class="node">
<title>Node13</title>
<g id="a_node13"><a xlink:href="classrare_1_1components_1_1tabs_1_1library_1_1widgets_1_1icon__game__widget_1_1_icon_game_widget.html#a7452c15bd2987cd55fca73d67d8d25cd" target="_top" xlink:title=" ">
<polygon fill="white" stroke="black" points="0,-33.5 0,-63.5 221,-63.5 221,-33.5 0,-33.5"/>
<text text-anchor="start" x="8" y="-51.5" font-family="Helvetica,sans-Serif" font-size="10.00">rare.components.tabs.library.widgets.icon</text>
<text text-anchor="middle" x="110.5" y="-40.5" font-family="Helvetica,sans-Serif" font-size="10.00">_game_widget.IconGameWidget.start_progress</text>
</a>
</g>
</g>
<!-- Node12&#45;&gt;Node13 -->
<g id="edge22" class="edge">
<title>Node12&#45;&gt;Node13</title>
<path fill="none" stroke="midnightblue" d="M291.85,-97.82C252.91,-87.17 203.84,-73.75 166.72,-63.6"/>
<polygon fill="midnightblue" stroke="midnightblue" points="290.95,-101.2 301.52,-100.46 292.79,-94.45 290.95,-101.2"/>
</g>
<!-- Node14 -->
<g id="node14" class="node">
<title>Node14</title>
<g id="a_node14"><a xlink:href="classrare_1_1components_1_1tabs_1_1library_1_1widgets_1_1list__game__widget_1_1_list_game_widget.html#a7452c15bd2987cd55fca73d67d8d25cd" target="_top" xlink:title=" ">
<polygon fill="white" stroke="black" points="1,-100.5 1,-130.5 220,-130.5 220,-100.5 1,-100.5"/>
<text text-anchor="start" x="9" y="-118.5" font-family="Helvetica,sans-Serif" font-size="10.00">rare.components.tabs.library.widgets.list</text>
<text text-anchor="middle" x="110.5" y="-107.5" font-family="Helvetica,sans-Serif" font-size="10.00">_game_widget.ListGameWidget.start_progress</text>
</a>
</g>
</g>
<!-- Node12&#45;&gt;Node14 -->
<g id="edge24" class="edge">
<title>Node12&#45;&gt;Node14</title>
<path fill="none" stroke="midnightblue" d="M246.62,-115.5C237.85,-115.5 229.01,-115.5 220.25,-115.5"/>
<polygon fill="midnightblue" stroke="midnightblue" points="246.85,-119 256.85,-115.5 246.85,-112 246.85,-119"/>
</g>
<!-- Node13&#45;&gt;Node13 -->
<g id="edge23" class="edge">
<title>Node13&#45;&gt;Node13</title>
<path fill="none" stroke="midnightblue" d="M154.61,-73.59C149.53,-78.51 134.82,-82 110.5,-82 71.58,-82 57.29,-73.06 67.63,-63.66"/>
<polygon fill="midnightblue" stroke="midnightblue" points="158.08,-73.15 153.37,-63.66 151.14,-74.02 158.08,-73.15"/>
</g>
<!-- Node14&#45;&gt;Node14 -->
<g id="edge25" class="edge">
<title>Node14&#45;&gt;Node14</title>
<path fill="none" stroke="midnightblue" d="M154.61,-140.59C149.53,-145.51 134.82,-149 110.5,-149 71.58,-149 57.29,-140.06 67.63,-130.66"/>
<polygon fill="midnightblue" stroke="midnightblue" points="158.08,-140.15 153.37,-130.66 151.14,-141.02 158.08,-140.15"/>
</g>
<!-- Node15&#45;&gt;Node4 -->
<g id="edge28" class="edge">
<title>Node15&#45;&gt;Node4</title>
<path fill="none" stroke="midnightblue" d="M800.88,-167.74C775.82,-175.86 745.55,-185.21 718,-192.5 706.09,-195.65 693.37,-198.69 680.96,-201.49"/>
<polygon fill="midnightblue" stroke="midnightblue" points="802.15,-171.01 810.57,-164.58 799.97,-164.35 802.15,-171.01"/>
</g>
<!-- Node15&#45;&gt;Node9 -->
<g id="edge30" class="edge">
<title>Node15&#45;&gt;Node9</title>
<path fill="none" stroke="midnightblue" d="M789.56,-131.82C750.14,-121.17 700.47,-107.75 662.9,-97.6"/>
<polygon fill="midnightblue" stroke="midnightblue" points="788.78,-135.23 799.34,-134.46 790.6,-128.48 788.78,-135.23"/>
</g>
<!-- Node15&#45;&gt;Node10 -->
<g id="edge31" class="edge">
<title>Node15&#45;&gt;Node10</title>
<path fill="none" stroke="midnightblue" d="M792.12,-168.51C778.5,-174.65 764.92,-182.53 754,-192.5 729.04,-215.3 745.01,-239.17 718,-259.5 713.43,-262.94 708.47,-265.91 703.27,-268.47"/>
<polygon fill="midnightblue" stroke="midnightblue" points="793.68,-171.66 801.53,-164.54 790.95,-165.21 793.68,-171.66"/>
</g>
<!-- Node15&#45;&gt;Node11 -->
<g id="edge32" class="edge">
<title>Node15&#45;&gt;Node11</title>
<path fill="none" stroke="midnightblue" d="M744.49,-149.5C731.95,-149.5 719.24,-149.5 706.85,-149.5"/>
<polygon fill="midnightblue" stroke="midnightblue" points="744.49,-153 754.49,-149.5 744.49,-146 744.49,-153"/>
</g>
<!-- Node15&#45;&gt;Node15 -->
<g id="edge29" class="edge">
<title>Node15&#45;&gt;Node15</title>
<path fill="none" stroke="midnightblue" d="M900.83,-174.59C895.66,-179.51 880.72,-183 856,-183 816.45,-183 801.93,-174.06 812.43,-164.66"/>
<polygon fill="midnightblue" stroke="midnightblue" points="904.3,-174.14 899.57,-164.66 897.35,-175.02 904.3,-174.14"/>
</g>
<!-- Node16&#45;&gt;Node3 -->
<g id="edge35" class="edge">
<title>Node16&#45;&gt;Node3</title>
<path fill="none" stroke="midnightblue" d="M1056.61,-167.15C1026.54,-175.06 990.52,-184.4 958,-192.5 946.11,-195.46 933.41,-198.54 921.17,-201.47"/>
<polygon fill="midnightblue" stroke="midnightblue" points="1057.79,-170.46 1066.57,-164.53 1056,-163.69 1057.79,-170.46"/>
</g>
<!-- Node16&#45;&gt;Node15 -->
<g id="edge36" class="edge">
<title>Node16&#45;&gt;Node15</title>
<path fill="none" stroke="midnightblue" d="M1001.31,-149.5C986.74,-149.5 972,-149.5 957.78,-149.5"/>
<polygon fill="midnightblue" stroke="midnightblue" points="1001.35,-153 1011.35,-149.5 1001.35,-146 1001.35,-153"/>
</g>
<!-- Node16&#45;&gt;Node16 -->
<g id="edge34" class="edge">
<title>Node16&#45;&gt;Node16</title>
<path fill="none" stroke="midnightblue" d="M1158.12,-174.96C1153.88,-179.68 1142.51,-183 1124,-183 1093.62,-183 1082.47,-174.06 1090.54,-164.66"/>
<polygon fill="midnightblue" stroke="midnightblue" points="1161.59,-174.42 1157.46,-164.66 1154.6,-174.86 1161.59,-174.42"/>
</g>
<!-- Node17&#45;&gt;Node17 -->
<g id="edge38" class="edge">
<title>Node17&#45;&gt;Node17</title>
<path fill="none" stroke="midnightblue" d="M1158.12,-107.96C1153.88,-112.68 1142.51,-116 1124,-116 1093.62,-116 1082.47,-107.06 1090.54,-97.66"/>
<polygon fill="midnightblue" stroke="midnightblue" points="1161.59,-107.42 1157.46,-97.66 1154.6,-107.86 1161.59,-107.42"/>
</g>
<!-- Node18&#45;&gt;Node18 -->
<g id="edge41" class="edge">
<title>Node18&#45;&gt;Node18</title>
<path fill="none" stroke="midnightblue" d="M1158.12,-40.96C1153.88,-45.68 1142.51,-49 1124,-49 1093.62,-49 1082.47,-40.06 1090.54,-30.66"/>
<polygon fill="midnightblue" stroke="midnightblue" points="1161.59,-40.42 1157.46,-30.66 1154.6,-40.86 1161.59,-40.42"/>
</g>
</g>
</svg>
        <g id="navigator" transform="translate(0 0)" fill="#404254">
                <rect fill="#f2f5e9" fill-opacity="0.5" stroke="#606060" stroke-width=".5" x="0" y="0" width="60" height="60"/>
                <use id="zoomplus" xlink:href="#zoomPlus" x="17" y="9" onmousedown="handleZoom(evt,'in')"/>
                <use id="zoomminus" xlink:href="#zoomMin" x="42" y="9" onmousedown="handleZoom(evt,'out')"/>
                <use id="reset" xlink:href="#resetDef" x="30" y="36" onmousedown="handleReset()"/>
                <g id="arrowUp" xlink:href="#dirArrow" transform="translate(30 24)" onmousedown="handlePan(0,-1)">
                  <use xlink:href="#rim" fill="#404040">
                        <set attributeName="fill" to="#808080" begin="arrowUp.mouseover" end="arrowUp.mouseout"/>
                  </use>
                  <path fill="none" stroke="white" stroke-width="1.5" d="M0,-3.0v7 M-2.5,-0.5L0,-3.0L2.5,-0.5"/>
                </g>
                <g id="arrowRight" xlink:href="#dirArrow" transform="rotate(90) translate(36 -43)" onmousedown="handlePan(1,0)">
                  <use xlink:href="#rim" fill="#404040">
                        <set attributeName="fill" to="#808080" begin="arrowRight.mouseover" end="arrowRight.mouseout"/>
                  </use>
                  <path fill="none" stroke="white" stroke-width="1.5" d="M0,-3.0v7 M-2.5,-0.5L0,-3.0L2.5,-0.5"/>
                </g>
                <g id="arrowDown" xlink:href="#dirArrow" transform="rotate(180) translate(-30 -48)" onmousedown="handlePan(0,1)">
                  <use xlink:href="#rim" fill="#404040">
                        <set attributeName="fill" to="#808080" begin="arrowDown.mouseover" end="arrowDown.mouseout"/>
                  </use>
                  <path fill="none" stroke="white" stroke-width="1.5" d="M0,-3.0v7 M-2.5,-0.5L0,-3.0L2.5,-0.5"/>
                </g>
                <g id="arrowLeft" xlink:href="#dirArrow" transform="rotate(270) translate(-36 17)" onmousedown="handlePan(-1,0)">
                  <use xlink:href="#rim" fill="#404040">
                        <set attributeName="fill" to="#808080" begin="arrowLeft.mouseover" end="arrowLeft.mouseout"/>
                  </use>
                  <path fill="none" stroke="white" stroke-width="1.5" d="M0,-3.0v7 M-2.5,-0.5L0,-3.0L2.5,-0.5"/>
                </g>
        </g>
        <svg viewBox="0 0 15 15" width="100%" height="30px" preserveAspectRatio="xMaxYMin meet">
         <g id="arrow_out" transform="scale(0.3 0.3)">
          <a xlink:href="classrare_1_1widgets_1_1flow__layout_1_1_flow_layout_a3936acd9cb32819e34a215b089302522_icgraph_org.svg" target="_base">
           <rect id="button" ry="5" rx="5" y="6" x="6" height="38" width="38"
                fill="#f2f5e9" fill-opacity="0.5" stroke="#606060" stroke-width="1.0"/>
           <path id="arrow"
             d="M 11.500037,31.436501 C 11.940474,20.09759 22.043105,11.32322 32.158766,21.979434 L 37.068811,17.246167 C 37.068811,17.246167 37.088388,32 37.088388,32 L 22.160133,31.978069 C 22.160133,31.978069 26.997745,27.140456 26.997745,27.140456 C 18.528582,18.264221 13.291696,25.230495 11.500037,31.436501 z"
             style="fill:#404040;"/>
          </a>
         </g>
        </svg>
</svg>
