<?xml version="1.0" encoding="UTF-8" standalone="no"?>
<!DOCTYPE svg PUBLIC "-//W3C//DTD SVG 1.1//EN"
 "http://www.w3.org/Graphics/SVG/1.1/DTD/svg11.dtd">
<!-- Generated by graphviz version 2.49.3 (20211027.1534)
 -->
<!-- Title: import_game Pages: 1 -->
<svg width="671pt" height="151pt"
 viewBox="0.00 0.00 671.00 151.02" xmlns="http://www.w3.org/2000/svg" xmlns:xlink="http://www.w3.org/1999/xlink">
<g id="graph0" class="graph" transform="scale(1 1) rotate(0) translate(4 147.02)">
<title>import_game</title>
<polygon fill="white" stroke="transparent" points="-4,4 -4,-147.02 667,-147.02 667,4 -4,4"/>
<!-- Node1 -->
<g id="node1" class="node">
<title>Node1</title>
<g id="a_node1"><a xlink:title=" ">
<polygon fill="#bfbfbf" stroke="black" points="0,-50 0,-69 73,-69 73,-50 0,-50"/>
<text text-anchor="middle" x="36.5" y="-57" font-family="Helvetica,sans-Serif" font-size="10.00">import_game</text>
</a>
</g>
</g>
<!-- Node1&#45;&gt;Node1 -->
<g id="edge5" class="edge">
<title>Node1&#45;&gt;Node1</title>
<path fill="none" stroke="midnightblue" d="M19.85,-69.26C11.76,-78.07 17.3,-87.5 36.5,-87.5 48.5,-87.5 55.16,-83.81 56.5,-78.9"/>
<polygon fill="midnightblue" stroke="midnightblue" points="59.74,-77.55 53.15,-69.26 53.12,-79.85 59.74,-77.55"/>
</g>
<!-- Node2 -->
<g id="node2" class="node">
<title>Node2</title>
<g id="a_node2"><a xlink:href="classrare_1_1shared_1_1rare__core_1_1_rare_core.html#a405e1a4f20f16120f872ccd2654a1d56" target="_top" xlink:title=" ">
<polygon fill="white" stroke="black" points="362,-0.5 362,-30.5 492,-30.5 492,-0.5 362,-0.5"/>
<text text-anchor="start" x="370" y="-18.5" font-family="Helvetica,sans-Serif" font-size="10.00">rare.shared.rare_core.Rare</text>
<text text-anchor="middle" x="427" y="-7.5" font-family="Helvetica,sans-Serif" font-size="10.00">Core.core</text>
</a>
</g>
</g>
<!-- Node1&#45;&gt;Node2 -->
<g id="edge1" class="edge">
<title>Node1&#45;&gt;Node2</title>
<path fill="none" stroke="midnightblue" d="M71.18,-49.93C83.08,-46.71 96.58,-43.25 109,-40.5 156.16,-30.07 167.95,-26.43 216,-21.5 260.99,-16.89 311.66,-15.34 351.96,-14.96"/>
<polygon fill="midnightblue" stroke="midnightblue" points="351.99,-18.46 361.97,-14.89 351.94,-11.46 351.99,-18.46"/>
</g>
<!-- Node3 -->
<g id="node3" class="node">
<title>Node3</title>
<g id="a_node3"><a xlink:href="classrare_1_1shared_1_1workers_1_1worker_1_1_worker.html#a5d3220537164bdcd6c040b54ef85f656" target="_top" xlink:title=" ">
<polygon fill="white" stroke="black" points="528,-81.5 528,-111.5 663,-111.5 663,-81.5 528,-81.5"/>
<text text-anchor="start" x="536" y="-99.5" font-family="Helvetica,sans-Serif" font-size="10.00">rare.shared.workers.worker.</text>
<text text-anchor="middle" x="595.5" y="-88.5" font-family="Helvetica,sans-Serif" font-size="10.00">Worker.logger</text>
</a>
</g>
</g>
<!-- Node1&#45;&gt;Node3 -->
<g id="edge15" class="edge">
<title>Node1&#45;&gt;Node3</title>
<path fill="none" stroke="midnightblue" d="M52.84,-69.02C66.96,-77.39 88.71,-89.32 109,-96.5 269.96,-153.47 322.98,-150.73 492,-126.5 509.02,-124.06 527.17,-119.45 543.38,-114.56"/>
<polygon fill="midnightblue" stroke="midnightblue" points="544.7,-117.82 553.2,-111.5 542.61,-111.14 544.7,-117.82"/>
</g>
<!-- Node4 -->
<g id="node4" class="node">
<title>Node4</title>
<g id="a_node4"><a xlink:href="classrare_1_1lgndr_1_1cli_1_1_legendary_c_l_i.html#a4aaa726f3b4643dc9fc5f027294fc9c9" target="_top" xlink:title=" ">
<polygon fill="white" stroke="black" points="109,-50 109,-69 180,-69 180,-50 109,-50"/>
<text text-anchor="middle" x="144.5" y="-57" font-family="Helvetica,sans-Serif" font-size="10.00">install_game</text>
</a>
</g>
</g>
<!-- Node1&#45;&gt;Node4 -->
<g id="edge6" class="edge">
<title>Node1&#45;&gt;Node4</title>
<path fill="none" stroke="midnightblue" d="M73.09,-59.5C81.3,-59.5 90.14,-59.5 98.68,-59.5"/>
<polygon fill="midnightblue" stroke="midnightblue" points="98.9,-63 108.9,-59.5 98.9,-56 98.9,-63"/>
</g>
<!-- Node2&#45;&gt;Node2 -->
<g id="edge2" class="edge">
<title>Node2&#45;&gt;Node2</title>
<path fill="none" stroke="midnightblue" d="M399.81,-30.66C393.26,-40.06 402.32,-49 427,-49 442.04,-49 451.28,-45.68 454.72,-40.96"/>
<polygon fill="midnightblue" stroke="midnightblue" points="458.2,-40.46 454.19,-30.66 451.21,-40.83 458.2,-40.46"/>
</g>
<!-- Node2&#45;&gt;Node3 -->
<g id="edge3" class="edge">
<title>Node2&#45;&gt;Node3</title>
<path fill="none" stroke="midnightblue" d="M458.93,-30.55C485.83,-43.63 524.99,-62.68 554.31,-76.95"/>
<polygon fill="midnightblue" stroke="midnightblue" points="552.93,-80.17 563.46,-81.4 556,-73.88 552.93,-80.17"/>
</g>
<!-- Node3&#45;&gt;Node3 -->
<g id="edge4" class="edge">
<title>Node3&#45;&gt;Node3</title>
<path fill="none" stroke="midnightblue" d="M566.22,-111.66C559.16,-121.06 568.92,-130 595.5,-130 611.7,-130 621.65,-126.68 625.35,-121.96"/>
<polygon fill="midnightblue" stroke="midnightblue" points="628.83,-121.45 624.78,-111.66 621.84,-121.84 628.83,-121.45"/>
</g>
<!-- Node4&#45;&gt;Node2 -->
<g id="edge7" class="edge">
<title>Node4&#45;&gt;Node2</title>
<path fill="none" stroke="midnightblue" d="M177.21,-49.91C189.26,-46.54 203.18,-42.98 216,-40.5 260.7,-31.86 311.36,-25.73 351.73,-21.7"/>
<polygon fill="midnightblue" stroke="midnightblue" points="352.14,-25.17 361.76,-20.72 351.46,-18.21 352.14,-25.17"/>
</g>
<!-- Node4&#45;&gt;Node3 -->
<g id="edge14" class="edge">
<title>Node4&#45;&gt;Node3</title>
<path fill="none" stroke="midnightblue" d="M159,-69.15C172.63,-78.24 194.66,-91.24 216,-96.5 317.97,-121.63 440.15,-115.38 517.55,-107.14"/>
<polygon fill="midnightblue" stroke="midnightblue" points="518.15,-110.6 527.7,-106.02 517.38,-103.64 518.15,-110.6"/>
</g>
<!-- Node4&#45;&gt;Node4 -->
<g id="edge8" class="edge">
<title>Node4&#45;&gt;Node4</title>
<path fill="none" stroke="midnightblue" d="M127.85,-69.26C119.76,-78.07 125.3,-87.5 144.5,-87.5 156.5,-87.5 163.16,-83.81 164.5,-78.9"/>
<polygon fill="midnightblue" stroke="midnightblue" points="167.74,-77.55 161.15,-69.26 161.12,-79.85 167.74,-77.55"/>
</g>
<!-- Node5 -->
<g id="node5" class="node">
<title>Node5</title>
<g id="a_node5"><a xlink:href="classrare_1_1lgndr_1_1cli_1_1_legendary_c_l_i.html#a7de93b9e2b51b491d5c70be49680f66d" target="_top" xlink:title=" ">
<polygon fill="white" stroke="black" points="216,-50 216,-69 326,-69 326,-50 216,-50"/>
<text text-anchor="middle" x="271" y="-57" font-family="Helvetica,sans-Serif" font-size="10.00">install_game_cleanup</text>
</a>
</g>
</g>
<!-- Node4&#45;&gt;Node5 -->
<g id="edge9" class="edge">
<title>Node4&#45;&gt;Node5</title>
<path fill="none" stroke="midnightblue" d="M180.18,-53.38C188.14,-52.99 196.86,-52.78 205.64,-52.75"/>
<polygon fill="midnightblue" stroke="midnightblue" points="205.91,-56.25 215.92,-52.8 205.94,-49.25 205.91,-56.25"/>
</g>
<!-- Node5&#45;&gt;Node2 -->
<g id="edge10" class="edge">
<title>Node5&#45;&gt;Node2</title>
<path fill="none" stroke="midnightblue" d="M305.42,-49.95C322.44,-45.09 343.71,-39.01 363.63,-33.32"/>
<polygon fill="midnightblue" stroke="midnightblue" points="364.62,-36.68 373.27,-30.57 362.69,-29.95 364.62,-36.68"/>
</g>
<!-- Node5&#45;&gt;Node3 -->
<g id="edge13" class="edge">
<title>Node5&#45;&gt;Node3</title>
<path fill="none" stroke="midnightblue" d="M326.34,-65.73C378.86,-71.76 458.92,-80.95 517.9,-87.71"/>
<polygon fill="midnightblue" stroke="midnightblue" points="517.58,-91.2 527.91,-88.86 518.38,-84.24 517.58,-91.2"/>
</g>
<!-- Node5&#45;&gt;Node4 -->
<g id="edge11" class="edge">
<title>Node5&#45;&gt;Node4</title>
<path fill="none" stroke="midnightblue" d="M215.92,-66.2C207.4,-66.31 198.67,-66.24 190.39,-66.01"/>
<polygon fill="midnightblue" stroke="midnightblue" points="190.31,-62.51 180.18,-65.62 190.04,-69.5 190.31,-62.51"/>
</g>
<!-- Node5&#45;&gt;Node5 -->
<g id="edge12" class="edge">
<title>Node5&#45;&gt;Node5</title>
<path fill="none" stroke="midnightblue" d="M251.58,-69.26C242.13,-78.07 248.61,-87.5 271,-87.5 285.35,-87.5 293.16,-83.63 294.44,-78.53"/>
<polygon fill="midnightblue" stroke="midnightblue" points="297.61,-77.04 290.42,-69.26 291.18,-79.82 297.61,-77.04"/>
</g>
</g>
</svg>
