<?xml version="1.0" encoding="UTF-8" standalone="no"?>
<!DOCTYPE svg PUBLIC "-//W3C//DTD SVG 1.1//EN"
 "http://www.w3.org/Graphics/SVG/1.1/DTD/svg11.dtd">
<!-- Generated by graphviz version 2.49.3 (20211027.1534)
 -->
<!-- Title: stop Pages: 1 -->
<svg width="301pt" height="181pt"
 viewBox="0.00 0.00 300.61 181.00" xmlns="http://www.w3.org/2000/svg" xmlns:xlink="http://www.w3.org/1999/xlink">
<g id="graph0" class="graph" transform="scale(1 1) rotate(0) translate(4 177)">
<title>stop</title>
<polygon fill="white" stroke="transparent" points="-4,4 -4,-177 296.61,-177 296.61,4 -4,4"/>
<!-- Node1 -->
<g id="node1" class="node">
<title>Node1</title>
<g id="a_node1"><a xlink:title=" ">
<polygon fill="#bfbfbf" stroke="black" points="12.61,-68 12.61,-87 47.61,-87 47.61,-68 12.61,-68"/>
<text text-anchor="middle" x="30.11" y="-75" font-family="Helvetica,sans-Serif" font-size="10.00">stop</text>
</a>
</g>
</g>
<!-- Node1&#45;&gt;Node1 -->
<g id="edge7" class="edge">
<title>Node1&#45;&gt;Node1</title>
<path fill="none" stroke="midnightblue" d="M12.34,-83.41C-8.06,-93.06 -2.14,-105.5 30.11,-105.5 56.56,-105.5 65.3,-97.13 56.32,-88.79"/>
<polygon fill="midnightblue" stroke="midnightblue" points="58.18,-85.83 47.87,-83.41 54.42,-91.74 58.18,-85.83"/>
</g>
<!-- Node2 -->
<g id="node2" class="node">
<title>Node2</title>
<g id="a_node2"><a xlink:href="classrare_1_1components_1_1tabs_1_1games_1_1integrations_1_1egl__sync__group_1_1_e_g_l_sync_list_item.html#a9c470cc60eae203f55455d0e0d7f5712" target="_top" xlink:title=" ">
<polygon fill="white" stroke="black" points="83.61,-124.5 83.61,-154.5 292.61,-154.5 292.61,-124.5 83.61,-124.5"/>
<text text-anchor="start" x="91.61" y="-142.5" font-family="Helvetica,sans-Serif" font-size="10.00">rare.components.tabs.games.integrations.egl</text>
<text text-anchor="middle" x="188.11" y="-131.5" font-family="Helvetica,sans-Serif" font-size="10.00">_sync_group.EGLSyncListItem.app_name</text>
</a>
</g>
</g>
<!-- Node1&#45;&gt;Node2 -->
<g id="edge1" class="edge">
<title>Node1&#45;&gt;Node2</title>
<path fill="none" stroke="midnightblue" d="M42.02,-87.07C52.14,-95.46 67.97,-107.41 83.61,-114.5 89.05,-116.97 94.78,-119.21 100.62,-121.25"/>
<polygon fill="midnightblue" stroke="midnightblue" points="99.95,-124.71 110.54,-124.48 102.12,-118.05 99.95,-124.71"/>
</g>
<!-- Node3 -->
<g id="node3" class="node">
<title>Node3</title>
<g id="a_node3"><a xlink:href="classrare_1_1models_1_1game_1_1_rare_game.html#a0afe16b2357823a068971d7af5918a23" target="_top" xlink:title=" ">
<polygon fill="white" stroke="black" points="93.61,-68 93.61,-87 282.61,-87 282.61,-68 93.61,-68"/>
<text text-anchor="middle" x="188.11" y="-75" font-family="Helvetica,sans-Serif" font-size="10.00">rare.models.game.RareGame.app_name</text>
</a>
</g>
</g>
<!-- Node1&#45;&gt;Node3 -->
<g id="edge3" class="edge">
<title>Node1&#45;&gt;Node3</title>
<path fill="none" stroke="midnightblue" d="M47.8,-77.5C57.1,-77.5 69.54,-77.5 83.17,-77.5"/>
<polygon fill="midnightblue" stroke="midnightblue" points="83.27,-81 93.27,-77.5 83.27,-74 83.27,-81"/>
</g>
<!-- Node4 -->
<g id="node4" class="node">
<title>Node4</title>
<g id="a_node4"><a xlink:href="classrare_1_1models_1_1game_1_1_rare_eos_overlay.html#a0afe16b2357823a068971d7af5918a23" target="_top" xlink:title=" ">
<polygon fill="white" stroke="black" points="122.11,-0.5 122.11,-30.5 254.11,-30.5 254.11,-0.5 122.11,-0.5"/>
<text text-anchor="start" x="130.11" y="-18.5" font-family="Helvetica,sans-Serif" font-size="10.00">rare.models.game.RareEos</text>
<text text-anchor="middle" x="188.11" y="-7.5" font-family="Helvetica,sans-Serif" font-size="10.00">Overlay.app_name</text>
</a>
</g>
</g>
<!-- Node1&#45;&gt;Node4 -->
<g id="edge5" class="edge">
<title>Node1&#45;&gt;Node4</title>
<path fill="none" stroke="midnightblue" d="M47.8,-70.86C69.6,-62.2 108.65,-46.68 139.87,-34.27"/>
<polygon fill="midnightblue" stroke="midnightblue" points="141.28,-37.48 149.28,-30.53 138.7,-30.97 141.28,-37.48"/>
</g>
<!-- Node2&#45;&gt;Node2 -->
<g id="edge2" class="edge">
<title>Node2&#45;&gt;Node2</title>
<path fill="none" stroke="midnightblue" d="M160.57,-154.66C153.93,-164.06 163.11,-173 188.11,-173 203.34,-173 212.7,-169.68 216.18,-164.96"/>
<polygon fill="midnightblue" stroke="midnightblue" points="219.66,-164.46 215.64,-154.66 212.67,-164.83 219.66,-164.46"/>
</g>
<!-- Node3&#45;&gt;Node3 -->
<g id="edge4" class="edge">
<title>Node3&#45;&gt;Node3</title>
<path fill="none" stroke="midnightblue" d="M163.75,-87.26C151.91,-96.07 160.02,-105.5 188.11,-105.5 206.54,-105.5 216.37,-101.44 217.6,-96.15"/>
<polygon fill="midnightblue" stroke="midnightblue" points="220.49,-94.16 212.46,-87.26 214.43,-97.67 220.49,-94.16"/>
</g>
<!-- Node4&#45;&gt;Node4 -->
<g id="edge6" class="edge">
<title>Node4&#45;&gt;Node4</title>
<path fill="none" stroke="midnightblue" d="M160.57,-30.66C153.93,-40.06 163.11,-49 188.11,-49 203.34,-49 212.7,-45.68 216.18,-40.96"/>
<polygon fill="midnightblue" stroke="midnightblue" points="219.66,-40.46 215.64,-30.66 212.67,-40.83 219.66,-40.46"/>
</g>
</g>
</svg>
