<?xml version="1.0" encoding="UTF-8" standalone="no"?>
<!DOCTYPE svg PUBLIC "-//W3C//DTD SVG 1.1//EN"
 "http://www.w3.org/Graphics/SVG/1.1/DTD/svg11.dtd">
<!-- Generated by graphviz version 2.49.3 (20211027.1534)
 -->
<!-- Title: remove_update Pages: 1 -->
<svg width="457pt" height="191pt"
 viewBox="0.00 0.00 457.00 191.00" xmlns="http://www.w3.org/2000/svg" xmlns:xlink="http://www.w3.org/1999/xlink">
<g id="graph0" class="graph" transform="scale(1 1) rotate(0) translate(4 187)">
<title>remove_update</title>
<polygon fill="white" stroke="transparent" points="-4,4 -4,-187 453,-187 453,4 -4,4"/>
<!-- Node1 -->
<g id="node1" class="node">
<title>Node1</title>
<g id="a_node1"><a xlink:title=" ">
<polygon fill="#bfbfbf" stroke="black" points="366,-101 366,-120 449,-120 449,-101 366,-101"/>
<text text-anchor="middle" x="407.5" y="-108" font-family="Helvetica,sans-Serif" font-size="10.00">remove_update</text>
</a>
</g>
</g>
<!-- Node1&#45;&gt;Node1 -->
<g id="edge3" class="edge">
<title>Node1&#45;&gt;Node1</title>
<path fill="none" stroke="midnightblue" d="M430.19,-129.53C428.96,-134.63 421.39,-138.5 407.5,-138.5 385.82,-138.5 379.55,-129.07 388.7,-120.26"/>
<polygon fill="midnightblue" stroke="midnightblue" points="433.4,-128.12 426.3,-120.26 426.94,-130.83 433.4,-128.12"/>
</g>
<!-- Node2 -->
<g id="node2" class="node">
<title>Node2</title>
<g id="a_node2"><a xlink:href="classrare_1_1components_1_1tabs_1_1downloads_1_1_downloads_tab.html#af127439f1e8c25c4b6fe5dcf178ae3f7" target="_top" xlink:title=" ">
<polygon fill="white" stroke="black" points="238,-129 238,-148 330,-148 330,-129 238,-129"/>
<text text-anchor="middle" x="284" y="-136" font-family="Helvetica,sans-Serif" font-size="10.00">game_uninstalled</text>
</a>
</g>
</g>
<!-- Node1&#45;&gt;Node2 -->
<g id="edge1" class="edge">
<title>Node1&#45;&gt;Node2</title>
<path fill="none" stroke="midnightblue" d="M355.68,-122.21C345.89,-124.47 335.75,-126.8 326.31,-128.98"/>
<polygon fill="midnightblue" stroke="midnightblue" points="356.75,-125.56 365.7,-119.9 355.17,-118.74 356.75,-125.56"/>
</g>
<!-- Node3 -->
<g id="node3" class="node">
<title>Node3</title>
<g id="a_node3"><a xlink:href="classrare_1_1components_1_1tabs_1_1downloads_1_1_downloads_tab.html#aedfd99b36bff9a1f6f6a1061129b29ff" target="_top" xlink:title=" ">
<polygon fill="white" stroke="black" points="262,-73 262,-92 306,-92 306,-73 262,-73"/>
<text text-anchor="middle" x="284" y="-80" font-family="Helvetica,sans-Serif" font-size="10.00">status</text>
</a>
</g>
</g>
<!-- Node1&#45;&gt;Node3 -->
<g id="edge4" class="edge">
<title>Node1&#45;&gt;Node3</title>
<path fill="none" stroke="midnightblue" d="M355.65,-98.78C338.27,-94.78 319.79,-90.52 306.08,-87.36"/>
<polygon fill="midnightblue" stroke="midnightblue" points="355.17,-102.26 365.7,-101.1 356.75,-95.44 355.17,-102.26"/>
</g>
<!-- Node2&#45;&gt;Node2 -->
<g id="edge2" class="edge">
<title>Node2&#45;&gt;Node2</title>
<path fill="none" stroke="midnightblue" d="M306.69,-157.53C305.46,-162.63 297.89,-166.5 284,-166.5 262.32,-166.5 256.05,-157.07 265.2,-148.26"/>
<polygon fill="midnightblue" stroke="midnightblue" points="309.9,-156.12 302.8,-148.26 303.44,-158.83 309.9,-156.12"/>
</g>
<!-- Node3&#45;&gt;Node3 -->
<g id="edge11" class="edge">
<title>Node3&#45;&gt;Node3</title>
<path fill="none" stroke="midnightblue" d="M306.69,-101.53C305.46,-106.63 297.89,-110.5 284,-110.5 262.32,-110.5 256.05,-101.07 265.2,-92.26"/>
<polygon fill="midnightblue" stroke="midnightblue" points="309.9,-100.12 302.8,-92.26 303.44,-102.83 309.9,-100.12"/>
</g>
<!-- Node4 -->
<g id="node4" class="node">
<title>Node4</title>
<g id="a_node4"><a xlink:href="classrare_1_1components_1_1tabs_1_1games_1_1cloud__save__utils_1_1_cloud_save_dialog.html#afa8e1ad1d19f3a1d2c0f53ba53651a65" target="_top" xlink:title=" ">
<polygon fill="white" stroke="black" points="4,-134.5 4,-164.5 198,-164.5 198,-134.5 4,-134.5"/>
<text text-anchor="start" x="12" y="-152.5" font-family="Helvetica,sans-Serif" font-size="10.00">rare.components.tabs.games.cloud</text>
<text text-anchor="middle" x="101" y="-141.5" font-family="Helvetica,sans-Serif" font-size="10.00">_save_utils.CloudSaveDialog.btn_clicked</text>
</a>
</g>
</g>
<!-- Node3&#45;&gt;Node4 -->
<g id="edge5" class="edge">
<title>Node3&#45;&gt;Node4</title>
<path fill="none" stroke="midnightblue" d="M258.7,-97.48C243,-106.64 221.85,-117.99 202,-125.5 193.15,-128.85 183.68,-131.84 174.22,-134.48"/>
<polygon fill="midnightblue" stroke="midnightblue" points="260.91,-100.24 267.72,-92.12 257.34,-94.22 260.91,-100.24"/>
</g>
<!-- Node5 -->
<g id="node5" class="node">
<title>Node5</title>
<g id="a_node5"><a xlink:href="classrare_1_1components_1_1tabs_1_1games_1_1cloud__save__utils_1_1_cloud_save_dialog.html#ac0dc8bacd7d672a4a9963c685dd0ab9a" target="_top" xlink:title=" ">
<polygon fill="white" stroke="black" points="6,-67.5 6,-97.5 196,-97.5 196,-67.5 6,-67.5"/>
<text text-anchor="start" x="14" y="-85.5" font-family="Helvetica,sans-Serif" font-size="10.00">rare.components.tabs.games.cloud</text>
<text text-anchor="middle" x="101" y="-74.5" font-family="Helvetica,sans-Serif" font-size="10.00">_save_utils.CloudSaveDialog.get_action</text>
</a>
</g>
</g>
<!-- Node3&#45;&gt;Node5 -->
<g id="edge7" class="edge">
<title>Node3&#45;&gt;Node5</title>
<path fill="none" stroke="midnightblue" d="M251.77,-82.5C236.13,-82.5 216.26,-82.5 196.16,-82.5"/>
<polygon fill="midnightblue" stroke="midnightblue" points="251.88,-86 261.88,-82.5 251.88,-79 251.88,-86"/>
</g>
<!-- Node6 -->
<g id="node6" class="node">
<title>Node6</title>
<g id="a_node6"><a xlink:href="classrare_1_1components_1_1tabs_1_1downloads_1_1download__thread_1_1_download_thread.html#ad22709b2e67308af35f55680d5a026e0" target="_top" xlink:title=" ">
<polygon fill="white" stroke="black" points="0,-0.5 0,-30.5 202,-30.5 202,-0.5 0,-0.5"/>
<text text-anchor="start" x="8" y="-18.5" font-family="Helvetica,sans-Serif" font-size="10.00">rare.components.tabs.downloads.download</text>
<text text-anchor="middle" x="101" y="-7.5" font-family="Helvetica,sans-Serif" font-size="10.00">_thread.DownloadThread.run</text>
</a>
</g>
</g>
<!-- Node3&#45;&gt;Node6 -->
<g id="edge9" class="edge">
<title>Node3&#45;&gt;Node6</title>
<path fill="none" stroke="midnightblue" d="M252.32,-71.14C222.19,-59.99 176.03,-42.9 142.81,-30.61"/>
<polygon fill="midnightblue" stroke="midnightblue" points="251.29,-74.49 261.88,-74.68 253.72,-67.93 251.29,-74.49"/>
</g>
<!-- Node4&#45;&gt;Node4 -->
<g id="edge6" class="edge">
<title>Node4&#45;&gt;Node4</title>
<path fill="none" stroke="midnightblue" d="M133.34,-174.96C129.33,-179.68 118.55,-183 101,-183 72.21,-183 61.63,-174.06 69.28,-164.66"/>
<polygon fill="midnightblue" stroke="midnightblue" points="136.81,-174.43 132.72,-164.66 129.83,-174.85 136.81,-174.43"/>
</g>
<!-- Node5&#45;&gt;Node5 -->
<g id="edge8" class="edge">
<title>Node5&#45;&gt;Node5</title>
<path fill="none" stroke="midnightblue" d="M133.34,-107.96C129.33,-112.68 118.55,-116 101,-116 72.21,-116 61.63,-107.06 69.28,-97.66"/>
<polygon fill="midnightblue" stroke="midnightblue" points="136.81,-107.43 132.72,-97.66 129.83,-107.85 136.81,-107.43"/>
</g>
<!-- Node6&#45;&gt;Node6 -->
<g id="edge10" class="edge">
<title>Node6&#45;&gt;Node6</title>
<path fill="none" stroke="midnightblue" d="M133.34,-40.96C129.33,-45.68 118.55,-49 101,-49 72.21,-49 61.63,-40.06 69.28,-30.66"/>
<polygon fill="midnightblue" stroke="midnightblue" points="136.81,-40.43 132.72,-30.66 129.83,-40.85 136.81,-40.43"/>
</g>
</g>
</svg>
