<?xml version="1.0" encoding="UTF-8" standalone="no"?>
<!DOCTYPE svg PUBLIC "-//W3C//DTD SVG 1.1//EN"
 "http://www.w3.org/Graphics/SVG/1.1/DTD/svg11.dtd">
<!-- Generated by graphviz version 2.49.3 (20211027.1534)
 -->
<!-- Title: start_progress Pages: 1 -->
<!--zoomable 728 -->
<svg id="main" version="1.1" xmlns="http://www.w3.org/2000/svg" xmlns:xlink="http://www.w3.org/1999/xlink" xml:space="preserve" onload="init(evt)">
<style type="text/css"><![CDATA[
.edge:hover path { stroke: red; }
.edge:hover polygon { stroke: red; fill: red; }
]]></style>
<script type="text/javascript"><![CDATA[
var edges = document.getElementsByTagName('g');
if (edges && edges.length) {
  for (var i=0;i<edges.length;i++) {
    if (edges[i].id.substr(0,4)=='edge') {
      edges[i].setAttribute('class','edge');
    }
  }
}
]]></script>
        <defs>
                <circle id="rim" cx="0" cy="0" r="7"/>
                <circle id="rim2" cx="0" cy="0" r="3.5"/>
                <g id="zoomPlus">
                        <use xlink:href="#rim" fill="#404040">
                                <set attributeName="fill" to="#808080" begin="zoomplus.mouseover" end="zoomplus.mouseout"/>
                        </use>
                        <path d="M-4,0h8M0,-4v8" fill="none" stroke="white" stroke-width="1.5" pointer-events="none"/>
                </g>
                <g id="zoomMin">
                        <use xlink:href="#rim" fill="#404040">
                                <set attributeName="fill" to="#808080" begin="zoomminus.mouseover" end="zoomminus.mouseout"/>
                        </use>
                        <path d="M-4,0h8" fill="none" stroke="white" stroke-width="1.5" pointer-events="none"/>
                </g>
                <g id="dirArrow">
                        <path fill="none" stroke="white" stroke-width="1.5" d="M0,-3.0v7 M-2.5,-0.5L0,-3.0L2.5,-0.5"/>
                </g>
               <g id="resetDef">
                       <use xlink:href="#rim2" fill="#404040">
                               <set attributeName="fill" to="#808080" begin="reset.mouseover" end="reset.mouseout"/>
                       </use>
               </g>
        </defs>

<script type="text/javascript">
var viewWidth = 1444;
var viewHeight = 728;
var sectionId = 'dynsection-8';
</script>
<script xlink:href="svgpan.js"/>
<svg id="graph" class="graph">
<g id="viewport">
<title>start_progress</title>
<polygon fill="white" stroke="transparent" points="-4,4 -4,-723.5 1440,-723.5 1440,4 -4,4"/>
<!-- Node1 -->
<g id="node1" class="node">
<title>Node1</title>
<g id="a_node1"><a xlink:title=" ">
<polygon fill="#bfbfbf" stroke="black" points="0,-509.5 0,-528.5 79,-528.5 79,-509.5 0,-509.5"/>
<text text-anchor="middle" x="39.5" y="-516.5" font-family="Helvetica,sans-Serif" font-size="10.00">start_progress</text>
</a>
</g>
</g>
<!-- Node1&#45;&gt;Node1 -->
<g id="edge62" class="edge">
<title>Node1&#45;&gt;Node1</title>
<path fill="none" stroke="midnightblue" d="M12.37,-528.76C-0.82,-537.57 8.22,-547 39.5,-547 61.01,-547 72,-542.54 72.48,-536.89"/>
<polygon fill="midnightblue" stroke="midnightblue" points="75.31,-534.83 66.63,-528.76 69.63,-538.92 75.31,-534.83"/>
</g>
<!-- Node2 -->
<g id="node2" class="node">
<title>Node2</title>
<g id="a_node2"><a xlink:href="classrare_1_1components_1_1tabs_1_1library_1_1widgets_1_1library__widget_1_1_library_widget.html#a1990ae73849da7538f16b24becb60023" target="_top" xlink:title=" ">
<polygon fill="white" stroke="black" points="115,-504 115,-534 316,-534 316,-504 115,-504"/>
<text text-anchor="start" x="123" y="-522" font-family="Helvetica,sans-Serif" font-size="10.00">rare.components.tabs.library.widgets.library</text>
<text text-anchor="middle" x="215.5" y="-511" font-family="Helvetica,sans-Serif" font-size="10.00">_widget.LibraryWidget.showProgress</text>
</a>
</g>
</g>
<!-- Node1&#45;&gt;Node2 -->
<g id="edge1" class="edge">
<title>Node1&#45;&gt;Node2</title>
<path fill="none" stroke="midnightblue" d="M79.12,-519C86.97,-519 95.6,-519 104.58,-519"/>
<polygon fill="midnightblue" stroke="midnightblue" points="104.84,-522.5 114.84,-519 104.84,-515.5 104.84,-522.5"/>
</g>
<!-- Node2&#45;&gt;Node2 -->
<g id="edge2" class="edge">
<title>Node2&#45;&gt;Node2</title>
<path fill="none" stroke="midnightblue" d="M184.83,-534.16C177.43,-543.56 187.66,-552.5 215.5,-552.5 232.47,-552.5 242.89,-549.18 246.77,-544.46"/>
<polygon fill="midnightblue" stroke="midnightblue" points="250.25,-543.94 246.17,-534.16 243.26,-544.35 250.25,-543.94"/>
</g>
<!-- Node3 -->
<g id="node3" class="node">
<title>Node3</title>
<g id="a_node3"><a xlink:href="classrare_1_1components_1_1tabs_1_1library_1_1widgets_1_1library__widget_1_1_library_widget.html#aba6dbd857b7a02c2f1fbd7d472416b54" target="_top" xlink:title=" ">
<polygon fill="white" stroke="black" points="352,-504 352,-534 553,-534 553,-504 352,-504"/>
<text text-anchor="start" x="360" y="-522" font-family="Helvetica,sans-Serif" font-size="10.00">rare.components.tabs.library.widgets.library</text>
<text text-anchor="middle" x="452.5" y="-511" font-family="Helvetica,sans-Serif" font-size="10.00">_widget.LibraryWidget.updateProgress</text>
</a>
</g>
</g>
<!-- Node2&#45;&gt;Node3 -->
<g id="edge3" class="edge">
<title>Node2&#45;&gt;Node3</title>
<path fill="none" stroke="midnightblue" d="M316.16,-519C324.52,-519 333,-519 341.44,-519"/>
<polygon fill="midnightblue" stroke="midnightblue" points="341.68,-522.5 351.68,-519 341.68,-515.5 341.68,-522.5"/>
</g>
<!-- Node3&#45;&gt;Node3 -->
<g id="edge61" class="edge">
<title>Node3&#45;&gt;Node3</title>
<path fill="none" stroke="midnightblue" d="M411.37,-534.16C401.45,-543.56 415.16,-552.5 452.5,-552.5 475.83,-552.5 489.94,-549.01 494.82,-544.09"/>
<polygon fill="midnightblue" stroke="midnightblue" points="498.29,-543.67 493.63,-534.16 491.34,-544.5 498.29,-543.67"/>
</g>
<!-- Node4 -->
<g id="node4" class="node">
<title>Node4</title>
<g id="a_node4"><a xlink:href="classrare_1_1components_1_1tabs_1_1library_1_1widgets_1_1library__widget_1_1_library_widget.html#a98c2ca1fee1748cb4e89a7d2d45c23f7" target="_top" xlink:title="Paints the color image over the gray images based on progress percentage.">
<polygon fill="white" stroke="black" points="590.5,-610 590.5,-640 791.5,-640 791.5,-610 590.5,-610"/>
<text text-anchor="start" x="598.5" y="-628" font-family="Helvetica,sans-Serif" font-size="10.00">rare.components.tabs.library.widgets.library</text>
<text text-anchor="middle" x="691" y="-617" font-family="Helvetica,sans-Serif" font-size="10.00">_widget.LibraryWidget.progressPixmap</text>
</a>
</g>
</g>
<!-- Node3&#45;&gt;Node4 -->
<g id="edge4" class="edge">
<title>Node3&#45;&gt;Node4</title>
<path fill="none" stroke="midnightblue" d="M476.68,-534.11C503.03,-550.79 547.76,-577.57 589,-595 599.36,-599.38 610.57,-603.39 621.62,-606.95"/>
<polygon fill="midnightblue" stroke="midnightblue" points="620.68,-610.32 631.27,-609.96 622.77,-603.64 620.68,-610.32"/>
</g>
<!-- Node5 -->
<g id="node5" class="node">
<title>Node5</title>
<g id="a_node5"><a xlink:href="classrare_1_1components_1_1tabs_1_1library_1_1widgets_1_1list__game__widget_1_1_list_game_widget.html#a98c2ca1fee1748cb4e89a7d2d45c23f7" target="_top" xlink:title="Paints the color image over the gray images based on progress percentage.">
<polygon fill="white" stroke="black" points="829,-571 829,-601 1056,-601 1056,-571 829,-571"/>
<text text-anchor="start" x="837" y="-589" font-family="Helvetica,sans-Serif" font-size="10.00">rare.components.tabs.library.widgets.list</text>
<text text-anchor="middle" x="942.5" y="-578" font-family="Helvetica,sans-Serif" font-size="10.00">_game_widget.ListGameWidget.progressPixmap</text>
</a>
</g>
</g>
<!-- Node3&#45;&gt;Node5 -->
<g id="edge6" class="edge">
<title>Node3&#45;&gt;Node5</title>
<path fill="none" stroke="midnightblue" d="M492.29,-534.04C519.04,-543.73 555.66,-555.67 589,-562 664.38,-576.31 750.25,-582.37 818.36,-584.82"/>
<polygon fill="midnightblue" stroke="midnightblue" points="818.59,-588.33 828.71,-585.17 818.83,-581.33 818.59,-588.33"/>
</g>
<!-- Node15 -->
<g id="node15" class="node">
<title>Node15</title>
<g id="a_node15"><a xlink:href="classrare_1_1components_1_1tabs_1_1downloads_1_1download_1_1_download_widget.html#afe7221063d2a4d7b1e1f42fb85f5d06f" target="_top" xlink:title=" ">
<polygon fill="white" stroke="black" points="589,-437 589,-467 793,-467 793,-437 589,-437"/>
<text text-anchor="start" x="597" y="-455" font-family="Helvetica,sans-Serif" font-size="10.00">rare.components.tabs.downloads.download.</text>
<text text-anchor="middle" x="691" y="-444" font-family="Helvetica,sans-Serif" font-size="10.00">DownloadWidget.setPixmap</text>
</a>
</g>
</g>
<!-- Node3&#45;&gt;Node15 -->
<g id="edge25" class="edge">
<title>Node3&#45;&gt;Node15</title>
<path fill="none" stroke="midnightblue" d="M506.58,-503.96C542.2,-493.87 589.31,-480.52 626.87,-469.88"/>
<polygon fill="midnightblue" stroke="midnightblue" points="628.03,-473.19 636.69,-467.1 626.12,-466.46 628.03,-473.19"/>
</g>
<!-- Node18 -->
<g id="node18" class="node">
<title>Node18</title>
<g id="a_node18"><a xlink:href="classrare_1_1components_1_1tabs_1_1library_1_1widgets_1_1list__game__widget_1_1_list_game_widget.html#afe7221063d2a4d7b1e1f42fb85f5d06f" target="_top" xlink:title=" ">
<polygon fill="white" stroke="black" points="589.5,-504 589.5,-534 792.5,-534 792.5,-504 589.5,-504"/>
<text text-anchor="start" x="597.5" y="-522" font-family="Helvetica,sans-Serif" font-size="10.00">rare.components.tabs.library.widgets.list</text>
<text text-anchor="middle" x="691" y="-511" font-family="Helvetica,sans-Serif" font-size="10.00">_game_widget.ListGameWidget.setPixmap</text>
</a>
</g>
</g>
<!-- Node3&#45;&gt;Node18 -->
<g id="edge43" class="edge">
<title>Node3&#45;&gt;Node18</title>
<path fill="none" stroke="midnightblue" d="M553.11,-519C561.73,-519 570.49,-519 579.19,-519"/>
<polygon fill="midnightblue" stroke="midnightblue" points="579.37,-522.5 589.37,-519 579.37,-515.5 579.37,-522.5"/>
</g>
<!-- Node19 -->
<g id="node19" class="node">
<title>Node19</title>
<g id="a_node19"><a xlink:href="classrare_1_1widgets_1_1image__widget_1_1_image_widget.html#afe7221063d2a4d7b1e1f42fb85f5d06f" target="_top" xlink:title=" ">
<polygon fill="white" stroke="black" points="612,-224 612,-254 770,-254 770,-224 612,-224"/>
<text text-anchor="start" x="620" y="-242" font-family="Helvetica,sans-Serif" font-size="10.00">rare.widgets.image</text>
<text text-anchor="middle" x="691" y="-231" font-family="Helvetica,sans-Serif" font-size="10.00">_widget.ImageWidget.setPixmap</text>
</a>
</g>
</g>
<!-- Node3&#45;&gt;Node19 -->
<g id="edge47" class="edge">
<title>Node3&#45;&gt;Node19</title>
<path fill="none" stroke="midnightblue" d="M466.22,-503.95C505.27,-457.7 623.7,-317.49 670.59,-261.98"/>
<polygon fill="midnightblue" stroke="midnightblue" points="673.44,-264.03 677.22,-254.13 668.1,-259.51 673.44,-264.03"/>
</g>
<!-- Node4&#45;&gt;Node4 -->
<g id="edge5" class="edge">
<title>Node4&#45;&gt;Node4</title>
<path fill="none" stroke="midnightblue" d="M649.52,-640.16C639.52,-649.56 653.35,-658.5 691,-658.5 714.53,-658.5 728.76,-655.01 733.68,-650.09"/>
<polygon fill="midnightblue" stroke="midnightblue" points="737.15,-649.67 732.48,-640.16 730.2,-650.51 737.15,-649.67"/>
</g>
<!-- Node5&#45;&gt;Node5 -->
<g id="edge7" class="edge">
<title>Node5&#45;&gt;Node5</title>
<path fill="none" stroke="midnightblue" d="M901.02,-601.16C891.02,-610.56 904.85,-619.5 942.5,-619.5 966.03,-619.5 980.26,-616.01 985.18,-611.09"/>
<polygon fill="midnightblue" stroke="midnightblue" points="988.65,-610.67 983.98,-601.16 981.7,-611.51 988.65,-610.67"/>
</g>
<!-- Node6 -->
<g id="node6" class="node">
<title>Node6</title>
<g id="a_node6"><a xlink:href="classrare_1_1widgets_1_1collapsible__widget_1_1_collapsible_base.html#a3936acd9cb32819e34a215b089302522" target="_top" xlink:title=" ">
<polygon fill="white" stroke="black" points="1102,-671 1102,-701 1262,-701 1262,-671 1102,-671"/>
<text text-anchor="start" x="1110" y="-689" font-family="Helvetica,sans-Serif" font-size="10.00">rare.widgets.collapsible</text>
<text text-anchor="middle" x="1182" y="-678" font-family="Helvetica,sans-Serif" font-size="10.00">_widget.CollapsibleBase.sizeHint</text>
</a>
</g>
</g>
<!-- Node5&#45;&gt;Node6 -->
<g id="edge8" class="edge">
<title>Node5&#45;&gt;Node6</title>
<path fill="none" stroke="midnightblue" d="M968.76,-601.01C997.73,-617.71 1047.01,-644.64 1092,-662 1097.45,-664.1 1103.16,-666.1 1108.94,-667.96"/>
<polygon fill="midnightblue" stroke="midnightblue" points="1108.11,-671.37 1118.7,-670.99 1110.19,-664.69 1108.11,-671.37"/>
</g>
<!-- Node7 -->
<g id="node7" class="node">
<title>Node7</title>
<g id="a_node7"><a xlink:href="classrare_1_1widgets_1_1collapsible__widget_1_1_collapsible_frame.html#a3936acd9cb32819e34a215b089302522" target="_top" xlink:title=" ">
<polygon fill="white" stroke="black" points="1099.5,-604 1099.5,-634 1264.5,-634 1264.5,-604 1099.5,-604"/>
<text text-anchor="start" x="1107.5" y="-622" font-family="Helvetica,sans-Serif" font-size="10.00">rare.widgets.collapsible</text>
<text text-anchor="middle" x="1182" y="-611" font-family="Helvetica,sans-Serif" font-size="10.00">_widget.CollapsibleFrame.sizeHint</text>
</a>
</g>
</g>
<!-- Node5&#45;&gt;Node7 -->
<g id="edge10" class="edge">
<title>Node5&#45;&gt;Node7</title>
<path fill="none" stroke="midnightblue" d="M1051.48,-601C1064.02,-602.75 1076.72,-604.51 1089.02,-606.22"/>
<polygon fill="midnightblue" stroke="midnightblue" points="1088.86,-609.73 1099.24,-607.64 1089.82,-602.8 1088.86,-609.73"/>
</g>
<!-- Node8 -->
<g id="node8" class="node">
<title>Node8</title>
<g id="a_node8"><a xlink:href="classrare_1_1widgets_1_1collapsible__widget_1_1_collapsible_group_box.html#a3936acd9cb32819e34a215b089302522" target="_top" xlink:title=" ">
<polygon fill="white" stroke="black" points="1092,-537 1092,-567 1272,-567 1272,-537 1092,-537"/>
<text text-anchor="start" x="1100" y="-555" font-family="Helvetica,sans-Serif" font-size="10.00">rare.widgets.collapsible</text>
<text text-anchor="middle" x="1182" y="-544" font-family="Helvetica,sans-Serif" font-size="10.00">_widget.CollapsibleGroupBox.sizeHint</text>
</a>
</g>
</g>
<!-- Node5&#45;&gt;Node8 -->
<g id="edge12" class="edge">
<title>Node5&#45;&gt;Node8</title>
<path fill="none" stroke="midnightblue" d="M1048.36,-570.99C1059.49,-569.39 1070.79,-567.78 1081.85,-566.19"/>
<polygon fill="midnightblue" stroke="midnightblue" points="1082.53,-569.63 1091.94,-564.75 1081.54,-562.7 1082.53,-569.63"/>
</g>
<!-- Node9 -->
<g id="node9" class="node">
<title>Node9</title>
<g id="a_node9"><a xlink:href="classrare_1_1widgets_1_1flow__layout_1_1_flow_layout.html#a3936acd9cb32819e34a215b089302522" target="_top" xlink:title=" ">
<polygon fill="white" stroke="black" points="1121,-470 1121,-500 1243,-500 1243,-470 1121,-470"/>
<text text-anchor="start" x="1129" y="-488" font-family="Helvetica,sans-Serif" font-size="10.00">rare.widgets.flow_layout.</text>
<text text-anchor="middle" x="1182" y="-477" font-family="Helvetica,sans-Serif" font-size="10.00">FlowLayout.sizeHint</text>
</a>
</g>
</g>
<!-- Node5&#45;&gt;Node9 -->
<g id="edge14" class="edge">
<title>Node5&#45;&gt;Node9</title>
<path fill="none" stroke="midnightblue" d="M1035.27,-570.9C1042.46,-568.38 1049.46,-565.44 1056,-562 1075.49,-551.77 1073.88,-540.49 1092,-528 1104.86,-519.14 1119.82,-511.14 1133.77,-504.52"/>
<polygon fill="midnightblue" stroke="midnightblue" points="1135.61,-507.52 1143.22,-500.16 1132.67,-501.17 1135.61,-507.52"/>
</g>
<!-- Node13 -->
<g id="node13" class="node">
<title>Node13</title>
<g id="a_node13"><a xlink:href="classrare_1_1widgets_1_1image__widget_1_1_image_widget.html#a3936acd9cb32819e34a215b089302522" target="_top" xlink:title=" ">
<polygon fill="white" stroke="black" points="1108.5,-403 1108.5,-433 1255.5,-433 1255.5,-403 1108.5,-403"/>
<text text-anchor="start" x="1116.5" y="-421" font-family="Helvetica,sans-Serif" font-size="10.00">rare.widgets.image</text>
<text text-anchor="middle" x="1182" y="-410" font-family="Helvetica,sans-Serif" font-size="10.00">_widget.ImageWidget.sizeHint</text>
</a>
</g>
</g>
<!-- Node5&#45;&gt;Node13 -->
<g id="edge22" class="edge">
<title>Node5&#45;&gt;Node13</title>
<path fill="none" stroke="midnightblue" d="M1043.3,-570.98C1047.82,-568.39 1052.09,-565.42 1056,-562 1091.85,-530.6 1060.16,-496.46 1092,-461 1100.77,-451.23 1112.25,-443.46 1124.03,-437.37"/>
<polygon fill="midnightblue" stroke="midnightblue" points="1125.56,-440.51 1133.06,-433.03 1122.53,-434.2 1125.56,-440.51"/>
</g>
<!-- Node14 -->
<g id="node14" class="node">
<title>Node14</title>
<g id="a_node14"><a xlink:href="classrare_1_1widgets_1_1side__tab_1_1_side_tab_contents_protocol.html#a3936acd9cb32819e34a215b089302522" target="_top" xlink:title=" ">
<polygon fill="white" stroke="black" points="1109,-354 1109,-384 1255,-384 1255,-354 1109,-354"/>
<text text-anchor="start" x="1117" y="-372" font-family="Helvetica,sans-Serif" font-size="10.00">rare.widgets.side_tab.Side</text>
<text text-anchor="middle" x="1182" y="-361" font-family="Helvetica,sans-Serif" font-size="10.00">TabContentsProtocol.sizeHint</text>
</a>
</g>
</g>
<!-- Node5&#45;&gt;Node14 -->
<g id="edge24" class="edge">
<title>Node5&#45;&gt;Node14</title>
<path fill="none" stroke="midnightblue" d="M1044.86,-570.94C1048.87,-568.35 1052.61,-565.39 1056,-562 1110.02,-508.03 1039.72,-449.66 1092,-394 1094.49,-391.35 1097.24,-388.97 1100.18,-386.83"/>
<polygon fill="midnightblue" stroke="midnightblue" points="1102.25,-389.67 1108.93,-381.45 1098.58,-383.71 1102.25,-389.67"/>
</g>
<!-- Node6&#45;&gt;Node6 -->
<g id="edge9" class="edge">
<title>Node6&#45;&gt;Node6</title>
<path fill="none" stroke="midnightblue" d="M1148.89,-701.16C1140.9,-710.56 1151.94,-719.5 1182,-719.5 1200.32,-719.5 1211.57,-716.18 1215.76,-711.46"/>
<polygon fill="midnightblue" stroke="midnightblue" points="1219.23,-710.92 1215.11,-701.16 1212.25,-711.36 1219.23,-710.92"/>
</g>
<!-- Node7&#45;&gt;Node7 -->
<g id="edge11" class="edge">
<title>Node7&#45;&gt;Node7</title>
<path fill="none" stroke="midnightblue" d="M1148.89,-634.16C1140.9,-643.56 1151.94,-652.5 1182,-652.5 1200.32,-652.5 1211.57,-649.18 1215.76,-644.46"/>
<polygon fill="midnightblue" stroke="midnightblue" points="1219.23,-643.92 1215.11,-634.16 1212.25,-644.36 1219.23,-643.92"/>
</g>
<!-- Node8&#45;&gt;Node8 -->
<g id="edge13" class="edge">
<title>Node8&#45;&gt;Node8</title>
<path fill="none" stroke="midnightblue" d="M1148.89,-567.16C1140.9,-576.56 1151.94,-585.5 1182,-585.5 1200.32,-585.5 1211.57,-582.18 1215.76,-577.46"/>
<polygon fill="midnightblue" stroke="midnightblue" points="1219.23,-576.92 1215.11,-567.16 1212.25,-577.36 1219.23,-576.92"/>
</g>
<!-- Node9&#45;&gt;Node9 -->
<g id="edge21" class="edge">
<title>Node9&#45;&gt;Node9</title>
<path fill="none" stroke="midnightblue" d="M1148.89,-500.16C1140.9,-509.56 1151.94,-518.5 1182,-518.5 1200.32,-518.5 1211.57,-515.18 1215.76,-510.46"/>
<polygon fill="midnightblue" stroke="midnightblue" points="1219.23,-509.92 1215.11,-500.16 1212.25,-510.36 1219.23,-509.92"/>
</g>
<!-- Node10 -->
<g id="node10" class="node">
<title>Node10</title>
<g id="a_node10"><a xlink:href="classrare_1_1widgets_1_1flow__layout_1_1_flow_layout.html#a464fdd6525ee797b1d8e4bdf6441983d" target="_top" xlink:title=" ">
<polygon fill="white" stroke="black" points="1308,-537 1308,-567 1436,-567 1436,-537 1308,-537"/>
<text text-anchor="start" x="1316" y="-555" font-family="Helvetica,sans-Serif" font-size="10.00">rare.widgets.flow_layout.</text>
<text text-anchor="middle" x="1372" y="-544" font-family="Helvetica,sans-Serif" font-size="10.00">FlowLayout.minimumSize</text>
</a>
</g>
</g>
<!-- Node9&#45;&gt;Node10 -->
<g id="edge15" class="edge">
<title>Node9&#45;&gt;Node10</title>
<path fill="none" stroke="midnightblue" d="M1225.19,-500.04C1252.91,-509.92 1289.37,-522.91 1318.9,-533.43"/>
<polygon fill="midnightblue" stroke="midnightblue" points="1318.03,-536.84 1328.63,-536.9 1320.38,-530.24 1318.03,-536.84"/>
</g>
<!-- Node11 -->
<g id="node11" class="node">
<title>Node11</title>
<g id="a_node11"><a xlink:href="classrare_1_1utils_1_1json__formatter_1_1_q_json_tree_item.html#a35061dd226fbf32b76578ca1f0759ce1" target="_top" xlink:title=" ">
<polygon fill="white" stroke="black" points="1312,-470 1312,-500 1432,-500 1432,-470 1312,-470"/>
<text text-anchor="start" x="1320" y="-488" font-family="Helvetica,sans-Serif" font-size="10.00">rare.utils.json_formatter.</text>
<text text-anchor="middle" x="1372" y="-477" font-family="Helvetica,sans-Serif" font-size="10.00">QJsonTreeItem.parent</text>
</a>
</g>
</g>
<!-- Node9&#45;&gt;Node11 -->
<g id="edge17" class="edge">
<title>Node9&#45;&gt;Node11</title>
<path fill="none" stroke="midnightblue" d="M1243,-485C1261.67,-485 1282.42,-485 1301.67,-485"/>
<polygon fill="midnightblue" stroke="midnightblue" points="1301.89,-488.5 1311.89,-485 1301.89,-481.5 1301.89,-488.5"/>
</g>
<!-- Node12 -->
<g id="node12" class="node">
<title>Node12</title>
<g id="a_node12"><a xlink:href="classrare_1_1utils_1_1json__formatter_1_1_q_json_model.html#acbb44b417d59fdabb258afc05df6e499" target="_top" xlink:title=" ">
<polygon fill="white" stroke="black" points="1312,-403 1312,-433 1432,-433 1432,-403 1312,-403"/>
<text text-anchor="start" x="1320" y="-421" font-family="Helvetica,sans-Serif" font-size="10.00">rare.utils.json_formatter.</text>
<text text-anchor="middle" x="1372" y="-410" font-family="Helvetica,sans-Serif" font-size="10.00">QJsonModel.parent</text>
</a>
</g>
</g>
<!-- Node9&#45;&gt;Node12 -->
<g id="edge19" class="edge">
<title>Node9&#45;&gt;Node12</title>
<path fill="none" stroke="midnightblue" d="M1243.21,-470.05C1252.91,-467.27 1262.79,-464.22 1272,-461 1291.4,-454.21 1312.35,-445.35 1329.96,-437.43"/>
<polygon fill="midnightblue" stroke="midnightblue" points="1331.72,-440.48 1339.37,-433.15 1328.82,-434.11 1331.72,-440.48"/>
</g>
<!-- Node10&#45;&gt;Node10 -->
<g id="edge16" class="edge">
<title>Node10&#45;&gt;Node10</title>
<path fill="none" stroke="midnightblue" d="M1338.89,-567.16C1330.9,-576.56 1341.94,-585.5 1372,-585.5 1390.32,-585.5 1401.57,-582.18 1405.76,-577.46"/>
<polygon fill="midnightblue" stroke="midnightblue" points="1409.23,-576.92 1405.11,-567.16 1402.25,-577.36 1409.23,-576.92"/>
</g>
<!-- Node11&#45;&gt;Node11 -->
<g id="edge18" class="edge">
<title>Node11&#45;&gt;Node11</title>
<path fill="none" stroke="midnightblue" d="M1338.89,-500.16C1330.9,-509.56 1341.94,-518.5 1372,-518.5 1390.32,-518.5 1401.57,-515.18 1405.76,-510.46"/>
<polygon fill="midnightblue" stroke="midnightblue" points="1409.23,-509.92 1405.11,-500.16 1402.25,-510.36 1409.23,-509.92"/>
</g>
<!-- Node12&#45;&gt;Node12 -->
<g id="edge20" class="edge">
<title>Node12&#45;&gt;Node12</title>
<path fill="none" stroke="midnightblue" d="M1338.89,-433.16C1330.9,-442.56 1341.94,-451.5 1372,-451.5 1390.32,-451.5 1401.57,-448.18 1405.76,-443.46"/>
<polygon fill="midnightblue" stroke="midnightblue" points="1409.23,-442.92 1405.11,-433.16 1402.25,-443.36 1409.23,-442.92"/>
</g>
<!-- Node13&#45;&gt;Node13 -->
<g id="edge23" class="edge">
<title>Node13&#45;&gt;Node13</title>
<path fill="none" stroke="midnightblue" d="M1148.89,-433.16C1140.9,-442.56 1151.94,-451.5 1182,-451.5 1200.32,-451.5 1211.57,-448.18 1215.76,-443.46"/>
<polygon fill="midnightblue" stroke="midnightblue" points="1219.23,-442.92 1215.11,-433.16 1212.25,-443.36 1219.23,-442.92"/>
</g>
<!-- Node15&#45;&gt;Node15 -->
<g id="edge42" class="edge">
<title>Node15&#45;&gt;Node15</title>
<path fill="none" stroke="midnightblue" d="M649.52,-467.16C639.52,-476.56 653.35,-485.5 691,-485.5 714.53,-485.5 728.76,-482.01 733.68,-477.09"/>
<polygon fill="midnightblue" stroke="midnightblue" points="737.15,-476.67 732.48,-467.16 730.2,-477.51 737.15,-476.67"/>
</g>
<!-- Node16 -->
<g id="node16" class="node">
<title>Node16</title>
<g id="a_node16"><a xlink:href="classrare_1_1components_1_1tabs_1_1downloads_1_1download_1_1_download_widget.html#a7237f0ce0aaddf9396e9801066707c3e" target="_top" xlink:title=" ">
<polygon fill="white" stroke="black" points="840.5,-437 840.5,-467 1044.5,-467 1044.5,-437 840.5,-437"/>
<text text-anchor="start" x="848.5" y="-455" font-family="Helvetica,sans-Serif" font-size="10.00">rare.components.tabs.downloads.download.</text>
<text text-anchor="middle" x="942.5" y="-444" font-family="Helvetica,sans-Serif" font-size="10.00">DownloadWidget.prepare_pixmap</text>
</a>
</g>
</g>
<!-- Node15&#45;&gt;Node16 -->
<g id="edge26" class="edge">
<title>Node15&#45;&gt;Node16</title>
<path fill="none" stroke="midnightblue" d="M793.12,-452C805.26,-452 817.7,-452 829.98,-452"/>
<polygon fill="midnightblue" stroke="midnightblue" points="830.23,-455.5 840.23,-452 830.23,-448.5 830.23,-455.5"/>
</g>
<!-- Node17 -->
<g id="node17" class="node">
<title>Node17</title>
<g id="a_node17"><a xlink:href="classrare_1_1components_1_1tabs_1_1library_1_1widgets_1_1list__game__widget_1_1_list_game_widget.html#a7237f0ce0aaddf9396e9801066707c3e" target="_top" xlink:title=" ">
<polygon fill="white" stroke="black" points="830,-504 830,-534 1055,-534 1055,-504 830,-504"/>
<text text-anchor="start" x="838" y="-522" font-family="Helvetica,sans-Serif" font-size="10.00">rare.components.tabs.library.widgets.list</text>
<text text-anchor="middle" x="942.5" y="-511" font-family="Helvetica,sans-Serif" font-size="10.00">_game_widget.ListGameWidget.prepare_pixmap</text>
</a>
</g>
</g>
<!-- Node15&#45;&gt;Node17 -->
<g id="edge34" class="edge">
<title>Node15&#45;&gt;Node17</title>
<path fill="none" stroke="midnightblue" d="M736.12,-467.01C762.82,-475.8 797.66,-486.76 829,-495 837.79,-497.31 847.02,-499.56 856.24,-501.7"/>
<polygon fill="midnightblue" stroke="midnightblue" points="855.7,-505.16 866.23,-503.97 857.25,-498.34 855.7,-505.16"/>
</g>
<!-- Node16&#45;&gt;Node6 -->
<g id="edge28" class="edge">
<title>Node16&#45;&gt;Node6</title>
<path fill="none" stroke="midnightblue" d="M1014.46,-467.02C1030.04,-473.34 1045.11,-482.3 1056,-495 1105.44,-552.63 1039.7,-606.96 1092,-662 1092.8,-662.84 1093.62,-663.65 1094.47,-664.44"/>
<polygon fill="midnightblue" stroke="midnightblue" points="1092.65,-667.45 1102.71,-670.79 1096.93,-661.91 1092.65,-667.45"/>
</g>
<!-- Node16&#45;&gt;Node7 -->
<g id="edge29" class="edge">
<title>Node16&#45;&gt;Node7</title>
<path fill="none" stroke="midnightblue" d="M1010.66,-467.05C1027.17,-473.41 1043.63,-482.39 1056,-495 1089.07,-528.73 1057.26,-563 1092,-595 1093.29,-596.19 1094.64,-597.33 1096.04,-598.41"/>
<polygon fill="midnightblue" stroke="midnightblue" points="1094.21,-601.39 1104.48,-604 1098.07,-595.56 1094.21,-601.39"/>
</g>
<!-- Node16&#45;&gt;Node8 -->
<g id="edge30" class="edge">
<title>Node16&#45;&gt;Node8</title>
<path fill="none" stroke="midnightblue" d="M994.97,-467.09C1014.83,-474.06 1037.23,-483.4 1056,-495 1074.46,-506.41 1072.98,-517.54 1092,-528 1095.28,-529.8 1098.7,-531.48 1102.21,-533.03"/>
<polygon fill="midnightblue" stroke="midnightblue" points="1101.1,-536.35 1111.68,-536.86 1103.72,-529.86 1101.1,-536.35"/>
</g>
<!-- Node16&#45;&gt;Node9 -->
<g id="edge31" class="edge">
<title>Node16&#45;&gt;Node9</title>
<path fill="none" stroke="midnightblue" d="M1044.57,-466.04C1066.92,-469.15 1090.12,-472.37 1110.92,-475.26"/>
<polygon fill="midnightblue" stroke="midnightblue" points="1110.53,-478.74 1120.92,-476.65 1111.5,-471.81 1110.53,-478.74"/>
</g>
<!-- Node16&#45;&gt;Node13 -->
<g id="edge32" class="edge">
<title>Node16&#45;&gt;Node13</title>
<path fill="none" stroke="midnightblue" d="M1044.57,-437.53C1062.51,-434.96 1081,-432.32 1098.36,-429.83"/>
<polygon fill="midnightblue" stroke="midnightblue" points="1099.03,-433.27 1108.43,-428.39 1098.04,-426.34 1099.03,-433.27"/>
</g>
<!-- Node16&#45;&gt;Node14 -->
<g id="edge33" class="edge">
<title>Node16&#45;&gt;Node14</title>
<path fill="none" stroke="midnightblue" d="M1035.27,-436.9C1042.46,-434.38 1049.46,-431.44 1056,-428 1075.49,-417.77 1072.85,-404.85 1092,-394 1095.96,-391.76 1100.13,-389.71 1104.42,-387.83"/>
<polygon fill="midnightblue" stroke="midnightblue" points="1105.98,-390.98 1113.96,-384 1103.37,-384.48 1105.98,-390.98"/>
</g>
<!-- Node16&#45;&gt;Node16 -->
<g id="edge27" class="edge">
<title>Node16&#45;&gt;Node16</title>
<path fill="none" stroke="midnightblue" d="M901.02,-467.16C891.02,-476.56 904.85,-485.5 942.5,-485.5 966.03,-485.5 980.26,-482.01 985.18,-477.09"/>
<polygon fill="midnightblue" stroke="midnightblue" points="988.65,-476.67 983.98,-467.16 981.7,-477.51 988.65,-476.67"/>
</g>
<!-- Node17&#45;&gt;Node6 -->
<g id="edge36" class="edge">
<title>Node17&#45;&gt;Node6</title>
<path fill="none" stroke="midnightblue" d="M1010.66,-534.05C1027.17,-540.41 1043.63,-549.39 1056,-562 1089.07,-595.73 1057.26,-630 1092,-662 1093.29,-663.19 1094.64,-664.33 1096.04,-665.41"/>
<polygon fill="midnightblue" stroke="midnightblue" points="1094.21,-668.39 1104.48,-671 1098.07,-662.56 1094.21,-668.39"/>
</g>
<!-- Node17&#45;&gt;Node7 -->
<g id="edge37" class="edge">
<title>Node17&#45;&gt;Node7</title>
<path fill="none" stroke="midnightblue" d="M994.97,-534.09C1014.83,-541.06 1037.23,-550.4 1056,-562 1074.46,-573.41 1072.98,-584.54 1092,-595 1095.28,-596.8 1098.7,-598.48 1102.21,-600.03"/>
<polygon fill="midnightblue" stroke="midnightblue" points="1101.1,-603.35 1111.68,-603.86 1103.72,-596.86 1101.1,-603.35"/>
</g>
<!-- Node17&#45;&gt;Node8 -->
<g id="edge38" class="edge">
<title>Node17&#45;&gt;Node8</title>
<path fill="none" stroke="midnightblue" d="M1051.48,-534C1061.59,-535.41 1071.8,-536.83 1081.82,-538.22"/>
<polygon fill="midnightblue" stroke="midnightblue" points="1081.39,-541.69 1091.77,-539.6 1082.35,-534.76 1081.39,-541.69"/>
</g>
<!-- Node17&#45;&gt;Node9 -->
<g id="edge39" class="edge">
<title>Node17&#45;&gt;Node9</title>
<path fill="none" stroke="midnightblue" d="M1048.36,-503.99C1069.53,-500.96 1091.29,-497.84 1110.9,-495.03"/>
<polygon fill="midnightblue" stroke="midnightblue" points="1111.55,-498.48 1120.95,-493.6 1110.56,-491.55 1111.55,-498.48"/>
</g>
<!-- Node17&#45;&gt;Node13 -->
<g id="edge40" class="edge">
<title>Node17&#45;&gt;Node13</title>
<path fill="none" stroke="midnightblue" d="M1035.27,-503.9C1042.46,-501.38 1049.46,-498.44 1056,-495 1075.49,-484.77 1073.88,-473.49 1092,-461 1104.86,-452.14 1119.82,-444.14 1133.77,-437.52"/>
<polygon fill="midnightblue" stroke="midnightblue" points="1135.61,-440.52 1143.22,-433.16 1132.67,-434.17 1135.61,-440.52"/>
</g>
<!-- Node17&#45;&gt;Node14 -->
<g id="edge41" class="edge">
<title>Node17&#45;&gt;Node14</title>
<path fill="none" stroke="midnightblue" d="M1043.3,-503.98C1047.82,-501.39 1052.09,-498.42 1056,-495 1091.85,-463.6 1057.17,-426.52 1092,-394 1094.46,-391.7 1097.12,-389.61 1099.93,-387.71"/>
<polygon fill="midnightblue" stroke="midnightblue" points="1101.87,-390.63 1108.73,-382.56 1098.33,-384.59 1101.87,-390.63"/>
</g>
<!-- Node17&#45;&gt;Node17 -->
<g id="edge35" class="edge">
<title>Node17&#45;&gt;Node17</title>
<path fill="none" stroke="midnightblue" d="M901.02,-534.16C891.02,-543.56 904.85,-552.5 942.5,-552.5 966.03,-552.5 980.26,-549.01 985.18,-544.09"/>
<polygon fill="midnightblue" stroke="midnightblue" points="988.65,-543.67 983.98,-534.16 981.7,-544.51 988.65,-543.67"/>
</g>
<!-- Node18&#45;&gt;Node16 -->
<g id="edge44" class="edge">
<title>Node18&#45;&gt;Node16</title>
<path fill="none" stroke="midnightblue" d="M757.31,-503.97C769.21,-501.09 781.5,-498.03 793,-495 822.47,-487.24 855.02,-477.9 882.11,-469.91"/>
<polygon fill="midnightblue" stroke="midnightblue" points="883.23,-473.23 891.83,-467.04 881.25,-466.52 883.23,-473.23"/>
</g>
<!-- Node18&#45;&gt;Node17 -->
<g id="edge45" class="edge">
<title>Node18&#45;&gt;Node17</title>
<path fill="none" stroke="midnightblue" d="M792.76,-519C801.61,-519 810.62,-519 819.61,-519"/>
<polygon fill="midnightblue" stroke="midnightblue" points="819.74,-522.5 829.74,-519 819.74,-515.5 819.74,-522.5"/>
</g>
<!-- Node18&#45;&gt;Node18 -->
<g id="edge46" class="edge">
<title>Node18&#45;&gt;Node18</title>
<path fill="none" stroke="midnightblue" d="M649.52,-534.16C639.52,-543.56 653.35,-552.5 691,-552.5 714.53,-552.5 728.76,-549.01 733.68,-544.09"/>
<polygon fill="midnightblue" stroke="midnightblue" points="737.15,-543.67 732.48,-534.16 730.2,-544.51 737.15,-543.67"/>
</g>
<!-- Node19&#45;&gt;Node19 -->
<g id="edge58" class="edge">
<title>Node19&#45;&gt;Node19</title>
<path fill="none" stroke="midnightblue" d="M649.52,-254.16C639.52,-263.56 653.35,-272.5 691,-272.5 714.53,-272.5 728.76,-269.01 733.68,-264.09"/>
<polygon fill="midnightblue" stroke="midnightblue" points="737.15,-263.67 732.48,-254.16 730.2,-264.51 737.15,-263.67"/>
</g>
<!-- Node20 -->
<g id="node20" class="node">
<title>Node20</title>
<g id="a_node20"><a xlink:href="classrare_1_1components_1_1tabs_1_1downloads_1_1download_1_1_download_widget.html#aa136880b14cd8741ebe60fbcf4d29a2e" target="_top" xlink:title=" ">
<polygon fill="white" stroke="black" points="840.5,-157 840.5,-187 1044.5,-187 1044.5,-157 840.5,-157"/>
<text text-anchor="start" x="848.5" y="-175" font-family="Helvetica,sans-Serif" font-size="10.00">rare.components.tabs.downloads.download.</text>
<text text-anchor="middle" x="942.5" y="-164" font-family="Helvetica,sans-Serif" font-size="10.00">DownloadWidget.paint_image_cover</text>
</a>
</g>
</g>
<!-- Node19&#45;&gt;Node20 -->
<g id="edge48" class="edge">
<title>Node19&#45;&gt;Node20</title>
<path fill="none" stroke="midnightblue" d="M747.99,-223.96C785.74,-213.83 835.7,-200.41 875.4,-189.75"/>
<polygon fill="midnightblue" stroke="midnightblue" points="876.51,-193.08 885.26,-187.1 874.7,-186.32 876.51,-193.08"/>
</g>
<!-- Node21 -->
<g id="node21" class="node">
<title>Node21</title>
<g id="a_node21"><a xlink:href="classrare_1_1components_1_1tabs_1_1library_1_1widgets_1_1list__game__widget_1_1_list_game_widget.html#aa136880b14cd8741ebe60fbcf4d29a2e" target="_top" xlink:title=" ">
<polygon fill="white" stroke="black" points="848.5,-78.5 848.5,-119.5 1036.5,-119.5 1036.5,-78.5 848.5,-78.5"/>
<text text-anchor="start" x="856.5" y="-107.5" font-family="Helvetica,sans-Serif" font-size="10.00">rare.components.tabs.library.widgets.list</text>
<text text-anchor="start" x="856.5" y="-96.5" font-family="Helvetica,sans-Serif" font-size="10.00">_game_widget.ListGameWidget.paint</text>
<text text-anchor="middle" x="942.5" y="-85.5" font-family="Helvetica,sans-Serif" font-size="10.00">_image_cover</text>
</a>
</g>
</g>
<!-- Node19&#45;&gt;Node21 -->
<g id="edge50" class="edge">
<title>Node19&#45;&gt;Node21</title>
<path fill="none" stroke="midnightblue" d="M712.13,-223.72C738.19,-204.35 785.44,-170.65 829,-147 844.52,-138.57 861.83,-130.56 878.13,-123.57"/>
<polygon fill="midnightblue" stroke="midnightblue" points="879.74,-126.69 887.59,-119.58 877.02,-120.24 879.74,-126.69"/>
</g>
<!-- Node22 -->
<g id="node22" class="node">
<title>Node22</title>
<g id="a_node22"><a xlink:href="classrare_1_1widgets_1_1image__widget_1_1_image_widget.html#aa136880b14cd8741ebe60fbcf4d29a2e" target="_top" xlink:title=" ">
<polygon fill="white" stroke="black" points="876,-0.5 876,-41.5 1009,-41.5 1009,-0.5 876,-0.5"/>
<text text-anchor="start" x="884" y="-29.5" font-family="Helvetica,sans-Serif" font-size="10.00">rare.widgets.image</text>
<text text-anchor="start" x="884" y="-18.5" font-family="Helvetica,sans-Serif" font-size="10.00">_widget.ImageWidget.paint</text>
<text text-anchor="middle" x="942.5" y="-7.5" font-family="Helvetica,sans-Serif" font-size="10.00">_image_cover</text>
</a>
</g>
</g>
<!-- Node19&#45;&gt;Node22 -->
<g id="edge52" class="edge">
<title>Node19&#45;&gt;Node22</title>
<path fill="none" stroke="midnightblue" d="M700.69,-223.75C719.93,-191.22 769.16,-114.29 829,-69 841.08,-59.85 855.17,-52.08 869.21,-45.62"/>
<polygon fill="midnightblue" stroke="midnightblue" points="870.67,-48.8 878.41,-41.56 867.85,-42.39 870.67,-48.8"/>
</g>
<!-- Node23 -->
<g id="node23" class="node">
<title>Node23</title>
<g id="a_node23"><a xlink:href="classrare_1_1components_1_1tabs_1_1downloads_1_1download_1_1_download_widget.html#adefb49c19129e6938c158aedb08331d5" target="_top" xlink:title=" ">
<polygon fill="white" stroke="black" points="840.5,-370 840.5,-400 1044.5,-400 1044.5,-370 840.5,-370"/>
<text text-anchor="start" x="848.5" y="-388" font-family="Helvetica,sans-Serif" font-size="10.00">rare.components.tabs.downloads.download.</text>
<text text-anchor="middle" x="942.5" y="-377" font-family="Helvetica,sans-Serif" font-size="10.00">DownloadWidget.paint_image_empty</text>
</a>
</g>
</g>
<!-- Node19&#45;&gt;Node23 -->
<g id="edge54" class="edge">
<title>Node19&#45;&gt;Node23</title>
<path fill="none" stroke="midnightblue" d="M704.61,-254.35C726.87,-280.36 775.84,-332.92 829,-360 833.67,-362.38 838.57,-364.53 843.59,-366.48"/>
<polygon fill="midnightblue" stroke="midnightblue" points="842.78,-369.91 853.38,-369.99 845.14,-363.32 842.78,-369.91"/>
</g>
<!-- Node24 -->
<g id="node24" class="node">
<title>Node24</title>
<g id="a_node24"><a xlink:href="classrare_1_1widgets_1_1image__widget_1_1_image_widget.html#adefb49c19129e6938c158aedb08331d5" target="_top" xlink:title=" ">
<polygon fill="white" stroke="black" points="876,-291.5 876,-332.5 1009,-332.5 1009,-291.5 876,-291.5"/>
<text text-anchor="start" x="884" y="-320.5" font-family="Helvetica,sans-Serif" font-size="10.00">rare.widgets.image</text>
<text text-anchor="start" x="884" y="-309.5" font-family="Helvetica,sans-Serif" font-size="10.00">_widget.ImageWidget.paint</text>
<text text-anchor="middle" x="942.5" y="-298.5" font-family="Helvetica,sans-Serif" font-size="10.00">_image_empty</text>
</a>
</g>
</g>
<!-- Node19&#45;&gt;Node24 -->
<g id="edge56" class="edge">
<title>Node19&#45;&gt;Node24</title>
<path fill="none" stroke="midnightblue" d="M739.77,-254.01C766.05,-262.18 799.26,-272.35 829,-281 840.97,-284.48 853.69,-288.08 866.1,-291.54"/>
<polygon fill="midnightblue" stroke="midnightblue" points="865.4,-294.98 875.97,-294.28 867.27,-288.24 865.4,-294.98"/>
</g>
<!-- Node25 -->
<g id="node25" class="node">
<title>Node25</title>
<g id="a_node25"><a xlink:href="classrare_1_1lgndr_1_1glue_1_1monkeys_1_1_d_l_manager_signals.html#a2e157b8a54419ee393d56143a3260aa9" target="_top" xlink:title=" ">
<polygon fill="white" stroke="black" points="877,-224 877,-254 1008,-254 1008,-224 877,-224"/>
<text text-anchor="start" x="885" y="-242" font-family="Helvetica,sans-Serif" font-size="10.00">rare.lgndr.glue.monkeys.</text>
<text text-anchor="middle" x="942.5" y="-231" font-family="Helvetica,sans-Serif" font-size="10.00">DLManagerSignals.update</text>
</a>
</g>
</g>
<!-- Node19&#45;&gt;Node25 -->
<g id="edge59" class="edge">
<title>Node19&#45;&gt;Node25</title>
<path fill="none" stroke="midnightblue" d="M770.26,-239C801.07,-239 836.31,-239 866.77,-239"/>
<polygon fill="midnightblue" stroke="midnightblue" points="866.9,-242.5 876.9,-239 866.9,-235.5 866.9,-242.5"/>
</g>
<!-- Node20&#45;&gt;Node20 -->
<g id="edge49" class="edge">
<title>Node20&#45;&gt;Node20</title>
<path fill="none" stroke="midnightblue" d="M901.02,-187.16C891.02,-196.56 904.85,-205.5 942.5,-205.5 966.03,-205.5 980.26,-202.01 985.18,-197.09"/>
<polygon fill="midnightblue" stroke="midnightblue" points="988.65,-196.67 983.98,-187.16 981.7,-197.51 988.65,-196.67"/>
</g>
<!-- Node21&#45;&gt;Node21 -->
<g id="edge51" class="edge">
<title>Node21&#45;&gt;Node21</title>
<path fill="none" stroke="midnightblue" d="M898.76,-119.86C893.99,-129.54 908.57,-138 942.5,-138 963.71,-138 977.36,-134.7 983.45,-129.86"/>
<polygon fill="midnightblue" stroke="midnightblue" points="986.92,-130.44 986.24,-119.86 980.18,-128.55 986.92,-130.44"/>
</g>
<!-- Node22&#45;&gt;Node22 -->
<g id="edge53" class="edge">
<title>Node22&#45;&gt;Node22</title>
<path fill="none" stroke="midnightblue" d="M898.76,-41.86C893.99,-51.54 908.57,-60 942.5,-60 963.71,-60 977.36,-56.7 983.45,-51.86"/>
<polygon fill="midnightblue" stroke="midnightblue" points="986.92,-52.44 986.24,-41.86 980.18,-50.55 986.92,-52.44"/>
</g>
<!-- Node23&#45;&gt;Node23 -->
<g id="edge55" class="edge">
<title>Node23&#45;&gt;Node23</title>
<path fill="none" stroke="midnightblue" d="M901.02,-400.16C891.02,-409.56 904.85,-418.5 942.5,-418.5 966.03,-418.5 980.26,-415.01 985.18,-410.09"/>
<polygon fill="midnightblue" stroke="midnightblue" points="988.65,-409.67 983.98,-400.16 981.7,-410.51 988.65,-409.67"/>
</g>
<!-- Node24&#45;&gt;Node24 -->
<g id="edge57" class="edge">
<title>Node24&#45;&gt;Node24</title>
<path fill="none" stroke="midnightblue" d="M898.76,-332.86C893.99,-342.54 908.57,-351 942.5,-351 963.71,-351 977.36,-347.7 983.45,-342.86"/>
<polygon fill="midnightblue" stroke="midnightblue" points="986.92,-343.44 986.24,-332.86 980.18,-341.55 986.92,-343.44"/>
</g>
<!-- Node25&#45;&gt;Node25 -->
<g id="edge60" class="edge">
<title>Node25&#45;&gt;Node25</title>
<path fill="none" stroke="midnightblue" d="M901.02,-254.16C891.02,-263.56 904.85,-272.5 942.5,-272.5 966.03,-272.5 980.26,-269.01 985.18,-264.09"/>
<polygon fill="midnightblue" stroke="midnightblue" points="988.65,-263.67 983.98,-254.16 981.7,-264.51 988.65,-263.67"/>
</g>
</g>
</svg>
        <g id="navigator" transform="translate(0 0)" fill="#404254">
                <rect fill="#f2f5e9" fill-opacity="0.5" stroke="#606060" stroke-width=".5" x="0" y="0" width="60" height="60"/>
                <use id="zoomplus" xlink:href="#zoomPlus" x="17" y="9" onmousedown="handleZoom(evt,'in')"/>
                <use id="zoomminus" xlink:href="#zoomMin" x="42" y="9" onmousedown="handleZoom(evt,'out')"/>
                <use id="reset" xlink:href="#resetDef" x="30" y="36" onmousedown="handleReset()"/>
                <g id="arrowUp" xlink:href="#dirArrow" transform="translate(30 24)" onmousedown="handlePan(0,-1)">
                  <use xlink:href="#rim" fill="#404040">
                        <set attributeName="fill" to="#808080" begin="arrowUp.mouseover" end="arrowUp.mouseout"/>
                  </use>
                  <path fill="none" stroke="white" stroke-width="1.5" d="M0,-3.0v7 M-2.5,-0.5L0,-3.0L2.5,-0.5"/>
                </g>
                <g id="arrowRight" xlink:href="#dirArrow" transform="rotate(90) translate(36 -43)" onmousedown="handlePan(1,0)">
                  <use xlink:href="#rim" fill="#404040">
                        <set attributeName="fill" to="#808080" begin="arrowRight.mouseover" end="arrowRight.mouseout"/>
                  </use>
                  <path fill="none" stroke="white" stroke-width="1.5" d="M0,-3.0v7 M-2.5,-0.5L0,-3.0L2.5,-0.5"/>
                </g>
                <g id="arrowDown" xlink:href="#dirArrow" transform="rotate(180) translate(-30 -48)" onmousedown="handlePan(0,1)">
                  <use xlink:href="#rim" fill="#404040">
                        <set attributeName="fill" to="#808080" begin="arrowDown.mouseover" end="arrowDown.mouseout"/>
                  </use>
                  <path fill="none" stroke="white" stroke-width="1.5" d="M0,-3.0v7 M-2.5,-0.5L0,-3.0L2.5,-0.5"/>
                </g>
                <g id="arrowLeft" xlink:href="#dirArrow" transform="rotate(270) translate(-36 17)" onmousedown="handlePan(-1,0)">
                  <use xlink:href="#rim" fill="#404040">
                        <set attributeName="fill" to="#808080" begin="arrowLeft.mouseover" end="arrowLeft.mouseout"/>
                  </use>
                  <path fill="none" stroke="white" stroke-width="1.5" d="M0,-3.0v7 M-2.5,-0.5L0,-3.0L2.5,-0.5"/>
                </g>
        </g>
        <svg viewBox="0 0 15 15" width="100%" height="30px" preserveAspectRatio="xMaxYMin meet">
         <g id="arrow_out" transform="scale(0.3 0.3)">
          <a xlink:href="classrare_1_1components_1_1tabs_1_1library_1_1widgets_1_1icon__game__widget_1_1_icon_game_widget_a7452c15bd2987cd55fca73d67d8d25cd_cgraph_org.svg" target="_base">
           <rect id="button" ry="5" rx="5" y="6" x="6" height="38" width="38"
                fill="#f2f5e9" fill-opacity="0.5" stroke="#606060" stroke-width="1.0"/>
           <path id="arrow"
             d="M 11.500037,31.436501 C 11.940474,20.09759 22.043105,11.32322 32.158766,21.979434 L 37.068811,17.246167 C 37.068811,17.246167 37.088388,32 37.088388,32 L 22.160133,31.978069 C 22.160133,31.978069 26.997745,27.140456 26.997745,27.140456 C 18.528582,18.264221 13.291696,25.230495 11.500037,31.436501 z"
             style="fill:#404040;"/>
          </a>
         </g>
        </svg>
</svg>
