<?xml version="1.0" encoding="UTF-8" standalone="no"?>
<!DOCTYPE svg PUBLIC "-//W3C//DTD SVG 1.1//EN"
 "http://www.w3.org/Graphics/SVG/1.1/DTD/svg11.dtd">
<!-- Generated by graphviz version 2.49.3 (20211027.1534)
 -->
<!-- Title: option_changed Pages: 1 -->
<svg width="261pt" height="57pt"
 viewBox="0.00 0.00 261.00 57.00" xmlns="http://www.w3.org/2000/svg" xmlns:xlink="http://www.w3.org/1999/xlink">
<g id="graph0" class="graph" transform="scale(1 1) rotate(0) translate(4 53)">
<title>option_changed</title>
<polygon fill="white" stroke="transparent" points="-4,4 -4,-53 257,-53 257,4 -4,4"/>
<!-- Node1 -->
<g id="node1" class="node">
<title>Node1</title>
<g id="a_node1"><a xlink:title=" ">
<polygon fill="#bfbfbf" stroke="black" points="0,-6 0,-25 85,-25 85,-6 0,-6"/>
<text text-anchor="middle" x="42.5" y="-13" font-family="Helvetica,sans-Serif" font-size="10.00">option_changed</text>
</a>
</g>
</g>
<!-- Node1&#45;&gt;Node1 -->
<g id="edge3" class="edge">
<title>Node1&#45;&gt;Node1</title>
<path fill="none" stroke="midnightblue" d="M20.31,-25.26C9.51,-34.07 16.91,-43.5 42.5,-43.5 59.3,-43.5 68.26,-39.44 69.38,-34.15"/>
<polygon fill="midnightblue" stroke="midnightblue" points="72.45,-32.47 64.69,-25.26 66.26,-35.74 72.45,-32.47"/>
</g>
<!-- Node2 -->
<g id="node2" class="node">
<title>Node2</title>
<g id="a_node2"><a xlink:href="classrare_1_1widgets_1_1dialogs_1_1_action_dialog.html#ad950eaba540d97f5e898e4af9c61ca74" target="_top" xlink:title=" ">
<polygon fill="white" stroke="black" points="121,-0.5 121,-30.5 253,-30.5 253,-0.5 121,-0.5"/>
<text text-anchor="start" x="129" y="-18.5" font-family="Helvetica,sans-Serif" font-size="10.00">rare.widgets.dialogs.Action</text>
<text text-anchor="middle" x="187" y="-7.5" font-family="Helvetica,sans-Serif" font-size="10.00">Dialog.active</text>
</a>
</g>
</g>
<!-- Node1&#45;&gt;Node2 -->
<g id="edge1" class="edge">
<title>Node1&#45;&gt;Node2</title>
<path fill="none" stroke="midnightblue" d="M85.1,-15.5C93.13,-15.5 101.77,-15.5 110.5,-15.5"/>
<polygon fill="midnightblue" stroke="midnightblue" points="110.75,-19 120.75,-15.5 110.75,-12 110.75,-19"/>
</g>
<!-- Node2&#45;&gt;Node2 -->
<g id="edge2" class="edge">
<title>Node2&#45;&gt;Node2</title>
<path fill="none" stroke="midnightblue" d="M161.91,-30.66C155.85,-40.06 164.22,-49 187,-49 200.88,-49 209.41,-45.68 212.59,-40.96"/>
<polygon fill="midnightblue" stroke="midnightblue" points="216.07,-40.48 212.09,-30.66 209.08,-40.81 216.07,-40.48"/>
</g>
</g>
</svg>
