<?xml version="1.0" encoding="UTF-8" standalone="no"?>
<!DOCTYPE svg PUBLIC "-//W3C//DTD SVG 1.1//EN"
 "http://www.w3.org/Graphics/SVG/1.1/DTD/svg11.dtd">
<!-- Generated by graphviz version 2.49.3 (20211027.1534)
 -->
<!-- Title: app_title Pages: 1 -->
<!--zoomable 577 -->
<svg id="main" version="1.1" xmlns="http://www.w3.org/2000/svg" xmlns:xlink="http://www.w3.org/1999/xlink" xml:space="preserve" onload="init(evt)">
<style type="text/css"><![CDATA[
.edge:hover path { stroke: red; }
.edge:hover polygon { stroke: red; fill: red; }
]]></style>
<script type="text/javascript"><![CDATA[
var edges = document.getElementsByTagName('g');
if (edges && edges.length) {
  for (var i=0;i<edges.length;i++) {
    if (edges[i].id.substr(0,4)=='edge') {
      edges[i].setAttribute('class','edge');
    }
  }
}
]]></script>
        <defs>
                <circle id="rim" cx="0" cy="0" r="7"/>
                <circle id="rim2" cx="0" cy="0" r="3.5"/>
                <g id="zoomPlus">
                        <use xlink:href="#rim" fill="#404040">
                                <set attributeName="fill" to="#808080" begin="zoomplus.mouseover" end="zoomplus.mouseout"/>
                        </use>
                        <path d="M-4,0h8M0,-4v8" fill="none" stroke="white" stroke-width="1.5" pointer-events="none"/>
                </g>
                <g id="zoomMin">
                        <use xlink:href="#rim" fill="#404040">
                                <set attributeName="fill" to="#808080" begin="zoomminus.mouseover" end="zoomminus.mouseout"/>
                        </use>
                        <path d="M-4,0h8" fill="none" stroke="white" stroke-width="1.5" pointer-events="none"/>
                </g>
                <g id="dirArrow">
                        <path fill="none" stroke="white" stroke-width="1.5" d="M0,-3.0v7 M-2.5,-0.5L0,-3.0L2.5,-0.5"/>
                </g>
               <g id="resetDef">
                       <use xlink:href="#rim2" fill="#404040">
                               <set attributeName="fill" to="#808080" begin="reset.mouseover" end="reset.mouseout"/>
                       </use>
               </g>
        </defs>

<script type="text/javascript">
var viewWidth = 929;
var viewHeight = 577;
var sectionId = 'dynsection-7';
</script>
<script xlink:href="svgpan.js"/>
<svg id="graph" class="graph">
<g id="viewport">
<title>app_title</title>
<polygon fill="white" stroke="transparent" points="-4,4 -4,-573 925.01,-573 925.01,4 -4,4"/>
<!-- Node1 -->
<g id="node1" class="node">
<title>Node1</title>
<g id="a_node1"><a xlink:title=" ">
<polygon fill="#bfbfbf" stroke="black" points="868,-163 868,-182 921,-182 921,-163 868,-163"/>
<text text-anchor="middle" x="894.5" y="-170" font-family="Helvetica,sans-Serif" font-size="10.00">app_title</text>
</a>
</g>
</g>
<!-- Node1&#45;&gt;Node1 -->
<g id="edge1" class="edge">
<title>Node1&#45;&gt;Node1</title>
<path fill="none" stroke="midnightblue" d="M921.01,-191.15C919.9,-196.44 911.06,-200.5 894.5,-200.5 869.26,-200.5 861.97,-191.07 872.61,-182.26"/>
<polygon fill="midnightblue" stroke="midnightblue" points="924.1,-189.52 916.39,-182.26 917.89,-192.74 924.1,-189.52"/>
</g>
<!-- Node2 -->
<g id="node2" class="node">
<title>Node2</title>
<g id="a_node2"><a xlink:href="classrare_1_1models_1_1game_1_1_rare_game.html#a9d2c0ef8e0253d5f0d0bcf1f7ad80fa5" target="_top" xlink:title=" ">
<polygon fill="white" stroke="black" points="672,-191 672,-210 832,-210 832,-191 672,-191"/>
<text text-anchor="middle" x="752" y="-198" font-family="Helvetica,sans-Serif" font-size="10.00">rare.models.game.RareGame.title</text>
</a>
</g>
</g>
<!-- Node1&#45;&gt;Node2 -->
<g id="edge2" class="edge">
<title>Node1&#45;&gt;Node2</title>
<path fill="none" stroke="midnightblue" d="M857.51,-179.67C840.25,-183.11 819.34,-187.28 800.78,-190.98"/>
<polygon fill="midnightblue" stroke="midnightblue" points="858.61,-183.02 867.73,-177.64 857.24,-176.16 858.61,-183.02"/>
</g>
<!-- Node14 -->
<g id="node14" class="node">
<title>Node14</title>
<g id="a_node14"><a xlink:href="classrare_1_1models_1_1game_1_1_rare_eos_overlay.html#a9d2c0ef8e0253d5f0d0bcf1f7ad80fa5" target="_top" xlink:title=" ">
<polygon fill="white" stroke="black" points="736,-135 736,-154 768,-154 768,-135 736,-135"/>
<text text-anchor="middle" x="752" y="-142" font-family="Helvetica,sans-Serif" font-size="10.00">title</text>
</a>
</g>
</g>
<!-- Node1&#45;&gt;Node14 -->
<g id="edge27" class="edge">
<title>Node1&#45;&gt;Node14</title>
<path fill="none" stroke="midnightblue" d="M857.59,-165.34C828.67,-159.58 789.45,-151.76 768.2,-147.53"/>
<polygon fill="midnightblue" stroke="midnightblue" points="857.24,-168.84 867.73,-167.36 858.61,-161.98 857.24,-168.84"/>
</g>
<!-- Node2&#45;&gt;Node2 -->
<g id="edge19" class="edge">
<title>Node2&#45;&gt;Node2</title>
<path fill="none" stroke="midnightblue" d="M778.51,-219.15C777.4,-224.44 768.56,-228.5 752,-228.5 726.76,-228.5 719.47,-219.07 730.11,-210.26"/>
<polygon fill="midnightblue" stroke="midnightblue" points="781.6,-217.52 773.89,-210.26 775.39,-220.74 781.6,-217.52"/>
</g>
<!-- Node3 -->
<g id="node3" class="node">
<title>Node3</title>
<g id="a_node3"><a xlink:href="classrare_1_1utils_1_1extra__widgets_1_1_side_tab_container.html#a91ab0752374c3f97048137450dd3f146" target="_top" xlink:title=" ">
<polygon fill="white" stroke="black" points="489,-252.5 489,-282.5 617,-282.5 617,-252.5 489,-252.5"/>
<text text-anchor="start" x="497" y="-270.5" font-family="Helvetica,sans-Serif" font-size="10.00">rare.utils.extra_widgets.</text>
<text text-anchor="middle" x="553" y="-259.5" font-family="Helvetica,sans-Serif" font-size="10.00">SideTabContainer.setTitle</text>
</a>
</g>
</g>
<!-- Node2&#45;&gt;Node3 -->
<g id="edge3" class="edge">
<title>Node2&#45;&gt;Node3</title>
<path fill="none" stroke="midnightblue" d="M713.09,-213.39C680.25,-224.56 632.72,-240.73 598.17,-252.48"/>
<polygon fill="midnightblue" stroke="midnightblue" points="714.43,-216.63 722.77,-210.1 712.18,-210.01 714.43,-216.63"/>
</g>
<!-- Node11 -->
<g id="node11" class="node">
<title>Node11</title>
<g id="a_node11"><a xlink:href="classrare_1_1components_1_1tabs_1_1shop_1_1game__info_1_1_shop_game_info.html#a4f57f5554cceb40e5b1bb5c4e285dfd8" target="_top" xlink:title=" ">
<polygon fill="white" stroke="black" points="470,-124.5 470,-154.5 636,-154.5 636,-124.5 470,-124.5"/>
<text text-anchor="start" x="478" y="-142.5" font-family="Helvetica,sans-Serif" font-size="10.00">rare.components.tabs.shop.game</text>
<text text-anchor="middle" x="553" y="-131.5" font-family="Helvetica,sans-Serif" font-size="10.00">_info.ShopGameInfo.update_game</text>
</a>
</g>
</g>
<!-- Node2&#45;&gt;Node11 -->
<g id="edge20" class="edge">
<title>Node2&#45;&gt;Node11</title>
<path fill="none" stroke="midnightblue" d="M698,-188.57C689.27,-186.37 680.35,-183.98 672,-181.5 645.32,-173.57 615.82,-163.07 592.99,-154.55"/>
<polygon fill="midnightblue" stroke="midnightblue" points="697.18,-191.98 707.73,-190.97 698.85,-185.18 697.18,-191.98"/>
</g>
<!-- Node3&#45;&gt;Node3 -->
<g id="edge18" class="edge">
<title>Node3&#45;&gt;Node3</title>
<path fill="none" stroke="midnightblue" d="M588.18,-292.96C583.82,-297.68 572.09,-301 553,-301 521.68,-301 510.17,-292.06 518.49,-282.66"/>
<polygon fill="midnightblue" stroke="midnightblue" points="591.65,-292.41 587.51,-282.66 584.67,-292.87 591.65,-292.41"/>
</g>
<!-- Node4 -->
<g id="node4" class="node">
<title>Node4</title>
<g id="a_node4"><a xlink:href="classrare_1_1components_1_1tabs_1_1settings_1_1widgets_1_1dxvk_1_1_dxvk_settings.html#ae64f0875afe3067b97ba370b354b9213" target="_top" xlink:title=" ">
<polygon fill="white" stroke="black" points="218,-106.5 218,-136.5 425,-136.5 425,-106.5 218,-106.5"/>
<text text-anchor="start" x="226" y="-124.5" font-family="Helvetica,sans-Serif" font-size="10.00">rare.components.tabs.settings.widgets.dxvk.</text>
<text text-anchor="middle" x="321.5" y="-113.5" font-family="Helvetica,sans-Serif" font-size="10.00">DxvkSettings.__init__</text>
</a>
</g>
</g>
<!-- Node3&#45;&gt;Node4 -->
<g id="edge4" class="edge">
<title>Node3&#45;&gt;Node4</title>
<path fill="none" stroke="midnightblue" d="M531.1,-245.12C508.82,-222.34 471.65,-187.22 434,-164.5 414.99,-153.03 392.39,-143.64 372.53,-136.59"/>
<polygon fill="midnightblue" stroke="midnightblue" points="528.6,-247.57 538.06,-252.34 533.63,-242.71 528.6,-247.57"/>
</g>
<!-- Node5 -->
<g id="node5" class="node">
<title>Node5</title>
<g id="a_node5"><a xlink:href="classrare_1_1components_1_1tabs_1_1downloads_1_1groups_1_1_update_group.html#a39d165427992dd2720f91929a88cde17" target="_top" xlink:title=" ">
<polygon fill="white" stroke="black" points="225.5,-520.5 225.5,-550.5 417.5,-550.5 417.5,-520.5 225.5,-520.5"/>
<text text-anchor="start" x="233.5" y="-538.5" font-family="Helvetica,sans-Serif" font-size="10.00">rare.components.tabs.downloads.groups.</text>
<text text-anchor="middle" x="321.5" y="-527.5" font-family="Helvetica,sans-Serif" font-size="10.00">UpdateGroup.__init__</text>
</a>
</g>
</g>
<!-- Node3&#45;&gt;Node5 -->
<g id="edge6" class="edge">
<title>Node3&#45;&gt;Node5</title>
<path fill="none" stroke="midnightblue" d="M547.41,-292.66C536.9,-342.7 506.2,-454.74 434,-511.5 429.02,-515.42 423.54,-518.73 417.77,-521.53"/>
<polygon fill="midnightblue" stroke="midnightblue" points="550.87,-293.19 549.41,-282.7 544.01,-291.81 550.87,-293.19"/>
</g>
<!-- Node6 -->
<g id="node6" class="node">
<title>Node6</title>
<g id="a_node6"><a xlink:href="classrare_1_1components_1_1tabs_1_1downloads_1_1groups_1_1_queue_group.html#a39d165427992dd2720f91929a88cde17" target="_top" xlink:title=" ">
<polygon fill="white" stroke="black" points="225.5,-453.5 225.5,-483.5 417.5,-483.5 417.5,-453.5 225.5,-453.5"/>
<text text-anchor="start" x="233.5" y="-471.5" font-family="Helvetica,sans-Serif" font-size="10.00">rare.components.tabs.downloads.groups.</text>
<text text-anchor="middle" x="321.5" y="-460.5" font-family="Helvetica,sans-Serif" font-size="10.00">QueueGroup.__init__</text>
</a>
</g>
</g>
<!-- Node3&#45;&gt;Node6 -->
<g id="edge8" class="edge">
<title>Node3&#45;&gt;Node6</title>
<path fill="none" stroke="midnightblue" d="M542.71,-292.23C526.77,-331.14 490.34,-406.17 434,-444.5 428.92,-447.95 423.44,-450.92 417.73,-453.47"/>
<polygon fill="midnightblue" stroke="midnightblue" points="546.06,-293.3 546.5,-282.72 539.55,-290.72 546.06,-293.3"/>
</g>
<!-- Node7 -->
<g id="node7" class="node">
<title>Node7</title>
<g id="a_node7"><a xlink:href="classrare_1_1components_1_1tabs_1_1games_1_1integrations_1_1egl__sync__group_1_1_e_g_l_sync_export_group.html#a39d165427992dd2720f91929a88cde17" target="_top" xlink:title=" ">
<polygon fill="white" stroke="black" points="217,-386.5 217,-416.5 426,-416.5 426,-386.5 217,-386.5"/>
<text text-anchor="start" x="225" y="-404.5" font-family="Helvetica,sans-Serif" font-size="10.00">rare.components.tabs.games.integrations.egl</text>
<text text-anchor="middle" x="321.5" y="-393.5" font-family="Helvetica,sans-Serif" font-size="10.00">_sync_group.EGLSyncExportGroup.__init__</text>
</a>
</g>
</g>
<!-- Node3&#45;&gt;Node7 -->
<g id="edge10" class="edge">
<title>Node3&#45;&gt;Node7</title>
<path fill="none" stroke="midnightblue" d="M533.86,-290.65C512.69,-316.02 475.26,-355.96 434,-377.5 427.42,-380.94 420.37,-383.88 413.14,-386.4"/>
<polygon fill="midnightblue" stroke="midnightblue" points="536.78,-292.61 540.4,-282.66 531.36,-288.18 536.78,-292.61"/>
</g>
<!-- Node8 -->
<g id="node8" class="node">
<title>Node8</title>
<g id="a_node8"><a xlink:href="classrare_1_1components_1_1tabs_1_1games_1_1integrations_1_1egl__sync__group_1_1_e_g_l_sync_import_group.html#a39d165427992dd2720f91929a88cde17" target="_top" xlink:title=" ">
<polygon fill="white" stroke="black" points="217,-319.5 217,-349.5 426,-349.5 426,-319.5 217,-319.5"/>
<text text-anchor="start" x="225" y="-337.5" font-family="Helvetica,sans-Serif" font-size="10.00">rare.components.tabs.games.integrations.egl</text>
<text text-anchor="middle" x="321.5" y="-326.5" font-family="Helvetica,sans-Serif" font-size="10.00">_sync_group.EGLSyncImportGroup.__init__</text>
</a>
</g>
</g>
<!-- Node3&#45;&gt;Node8 -->
<g id="edge12" class="edge">
<title>Node3&#45;&gt;Node8</title>
<path fill="none" stroke="midnightblue" d="M505.18,-286.24C483.71,-294.4 457.8,-303.64 434,-310.5 422.77,-313.74 410.8,-316.76 399.02,-319.49"/>
<polygon fill="midnightblue" stroke="midnightblue" points="506.62,-289.44 514.7,-282.58 504.11,-282.9 506.62,-289.44"/>
</g>
<!-- Node9 -->
<g id="node9" class="node">
<title>Node9</title>
<g id="a_node9"><a xlink:href="classrare_1_1components_1_1tabs_1_1games_1_1integrations_1_1ubisoft__group_1_1_ubisoft_group.html#a39d165427992dd2720f91929a88cde17" target="_top" xlink:title=" ">
<polygon fill="white" stroke="black" points="209,-252.5 209,-282.5 434,-282.5 434,-252.5 209,-252.5"/>
<text text-anchor="start" x="217" y="-270.5" font-family="Helvetica,sans-Serif" font-size="10.00">rare.components.tabs.games.integrations.ubisoft</text>
<text text-anchor="middle" x="321.5" y="-259.5" font-family="Helvetica,sans-Serif" font-size="10.00">_group.UbisoftGroup.__init__</text>
</a>
</g>
</g>
<!-- Node3&#45;&gt;Node9 -->
<g id="edge14" class="edge">
<title>Node3&#45;&gt;Node9</title>
<path fill="none" stroke="midnightblue" d="M478.83,-267.5C464.62,-267.5 449.43,-267.5 434.31,-267.5"/>
<polygon fill="midnightblue" stroke="midnightblue" points="478.98,-271 488.98,-267.5 478.98,-264 478.98,-271"/>
</g>
<!-- Node10 -->
<g id="node10" class="node">
<title>Node10</title>
<g id="a_node10"><a xlink:href="classrare_1_1widgets_1_1collapsible__widget_1_1_collapsible_group_box.html#a7a3cc2fcaf6ea0e268348fe8c124f63e" target="_top" xlink:title=" ">
<polygon fill="white" stroke="black" points="249,-174 249,-215 394,-215 394,-174 249,-174"/>
<text text-anchor="start" x="257" y="-203" font-family="Helvetica,sans-Serif" font-size="10.00">rare.widgets.collapsible</text>
<text text-anchor="start" x="257" y="-192" font-family="Helvetica,sans-Serif" font-size="10.00">_widget.CollapsibleGroupBox.</text>
<text text-anchor="middle" x="321.5" y="-181" font-family="Helvetica,sans-Serif" font-size="10.00">__init__</text>
</a>
</g>
</g>
<!-- Node3&#45;&gt;Node10 -->
<g id="edge16" class="edge">
<title>Node3&#45;&gt;Node10</title>
<path fill="none" stroke="midnightblue" d="M494.86,-249.33C462.15,-238.92 421,-225.83 387.12,-215.05"/>
<polygon fill="midnightblue" stroke="midnightblue" points="494.14,-252.77 504.73,-252.46 496.26,-246.1 494.14,-252.77"/>
</g>
<!-- Node4&#45;&gt;Node4 -->
<g id="edge5" class="edge">
<title>Node4&#45;&gt;Node4</title>
<path fill="none" stroke="midnightblue" d="M362.74,-146.59C357.99,-151.51 344.24,-155 321.5,-155 285.11,-155 271.75,-146.06 281.42,-136.66"/>
<polygon fill="midnightblue" stroke="midnightblue" points="366.22,-146.19 361.58,-136.66 359.27,-147 366.22,-146.19"/>
</g>
<!-- Node5&#45;&gt;Node5 -->
<g id="edge7" class="edge">
<title>Node5&#45;&gt;Node5</title>
<path fill="none" stroke="midnightblue" d="M362.74,-560.59C357.99,-565.51 344.24,-569 321.5,-569 285.11,-569 271.75,-560.06 281.42,-550.66"/>
<polygon fill="midnightblue" stroke="midnightblue" points="366.22,-560.19 361.58,-550.66 359.27,-561 366.22,-560.19"/>
</g>
<!-- Node6&#45;&gt;Node6 -->
<g id="edge9" class="edge">
<title>Node6&#45;&gt;Node6</title>
<path fill="none" stroke="midnightblue" d="M362.74,-493.59C357.99,-498.51 344.24,-502 321.5,-502 285.11,-502 271.75,-493.06 281.42,-483.66"/>
<polygon fill="midnightblue" stroke="midnightblue" points="366.22,-493.19 361.58,-483.66 359.27,-494 366.22,-493.19"/>
</g>
<!-- Node7&#45;&gt;Node7 -->
<g id="edge11" class="edge">
<title>Node7&#45;&gt;Node7</title>
<path fill="none" stroke="midnightblue" d="M362.74,-426.59C357.99,-431.51 344.24,-435 321.5,-435 285.11,-435 271.75,-426.06 281.42,-416.66"/>
<polygon fill="midnightblue" stroke="midnightblue" points="366.22,-426.19 361.58,-416.66 359.27,-427 366.22,-426.19"/>
</g>
<!-- Node8&#45;&gt;Node8 -->
<g id="edge13" class="edge">
<title>Node8&#45;&gt;Node8</title>
<path fill="none" stroke="midnightblue" d="M362.74,-359.59C357.99,-364.51 344.24,-368 321.5,-368 285.11,-368 271.75,-359.06 281.42,-349.66"/>
<polygon fill="midnightblue" stroke="midnightblue" points="366.22,-359.19 361.58,-349.66 359.27,-360 366.22,-359.19"/>
</g>
<!-- Node9&#45;&gt;Node9 -->
<g id="edge15" class="edge">
<title>Node9&#45;&gt;Node9</title>
<path fill="none" stroke="midnightblue" d="M362.74,-292.59C357.99,-297.51 344.24,-301 321.5,-301 285.11,-301 271.75,-292.06 281.42,-282.66"/>
<polygon fill="midnightblue" stroke="midnightblue" points="366.22,-292.19 361.58,-282.66 359.27,-293 366.22,-292.19"/>
</g>
<!-- Node10&#45;&gt;Node10 -->
<g id="edge17" class="edge">
<title>Node10&#45;&gt;Node10</title>
<path fill="none" stroke="midnightblue" d="M361.07,-225.36C355.19,-230.2 342,-233.5 321.5,-233.5 288.71,-233.5 274.62,-225.04 279.23,-215.36"/>
<polygon fill="midnightblue" stroke="midnightblue" points="364.54,-225.93 363.77,-215.36 357.78,-224.1 364.54,-225.93"/>
</g>
<!-- Node11&#45;&gt;Node11 -->
<g id="edge21" class="edge">
<title>Node11&#45;&gt;Node11</title>
<path fill="none" stroke="midnightblue" d="M588.18,-164.96C583.82,-169.68 572.09,-173 553,-173 521.68,-173 510.17,-164.06 518.49,-154.66"/>
<polygon fill="midnightblue" stroke="midnightblue" points="591.65,-164.41 587.51,-154.66 584.67,-164.87 591.65,-164.41"/>
</g>
<!-- Node12 -->
<g id="node12" class="node">
<title>Node12</title>
<g id="a_node12"><a xlink:href="classrare_1_1components_1_1tabs_1_1games_1_1game__info_1_1game__info_1_1_game_info.html#a177c0b66c6090326272ed08514e4d737" target="_top" xlink:title=" ">
<polygon fill="white" stroke="black" points="226,-0.5 226,-30.5 417,-30.5 417,-0.5 226,-0.5"/>
<text text-anchor="start" x="234" y="-18.5" font-family="Helvetica,sans-Serif" font-size="10.00">rare.components.tabs.games.game</text>
<text text-anchor="middle" x="321.5" y="-7.5" font-family="Helvetica,sans-Serif" font-size="10.00">_info.game_info.GameInfo.update_game</text>
</a>
</g>
</g>
<!-- Node11&#45;&gt;Node12 -->
<g id="edge22" class="edge">
<title>Node11&#45;&gt;Node12</title>
<path fill="none" stroke="midnightblue" d="M522.48,-118.53C499.1,-102.41 465.28,-80.16 434,-63.5 410.65,-51.07 383.4,-39.29 361.68,-30.51"/>
<polygon fill="midnightblue" stroke="midnightblue" points="520.69,-121.55 530.9,-124.39 524.69,-115.81 520.69,-121.55"/>
</g>
<!-- Node13 -->
<g id="node13" class="node">
<title>Node13</title>
<g id="a_node13"><a xlink:href="classrare_1_1models_1_1game_1_1_rare_game.html#a5c2e05cfb4af4450c63a284753b789ed" target="_top" xlink:title=" ">
<polygon fill="white" stroke="black" points="0,-31.5 0,-61.5 173,-61.5 173,-31.5 0,-31.5"/>
<text text-anchor="start" x="8" y="-49.5" font-family="Helvetica,sans-Serif" font-size="10.00">rare.models.game.RareGame.update</text>
<text text-anchor="middle" x="86.5" y="-38.5" font-family="Helvetica,sans-Serif" font-size="10.00">_rgame</text>
</a>
</g>
</g>
<!-- Node11&#45;&gt;Node13 -->
<g id="edge26" class="edge">
<title>Node11&#45;&gt;Node13</title>
<path fill="none" stroke="midnightblue" d="M506.07,-120.79C484.5,-112.62 458.25,-103.54 434,-97.5 346.38,-75.68 243.82,-62.02 173.13,-54.38"/>
<polygon fill="midnightblue" stroke="midnightblue" points="505.04,-124.14 515.63,-124.47 507.55,-117.61 505.04,-124.14"/>
</g>
<!-- Node12&#45;&gt;Node12 -->
<g id="edge23" class="edge">
<title>Node12&#45;&gt;Node12</title>
<path fill="none" stroke="midnightblue" d="M362.74,-40.59C357.99,-45.51 344.24,-49 321.5,-49 285.11,-49 271.75,-40.06 281.42,-30.66"/>
<polygon fill="midnightblue" stroke="midnightblue" points="366.22,-40.19 361.58,-30.66 359.27,-41 366.22,-40.19"/>
</g>
<!-- Node12&#45;&gt;Node13 -->
<g id="edge24" class="edge">
<title>Node12&#45;&gt;Node13</title>
<path fill="none" stroke="midnightblue" d="M215.48,-29.47C201.33,-31.36 186.95,-33.27 173.19,-35.1"/>
<polygon fill="midnightblue" stroke="midnightblue" points="216.28,-32.9 225.73,-28.11 215.36,-25.96 216.28,-32.9"/>
</g>
<!-- Node13&#45;&gt;Node13 -->
<g id="edge25" class="edge">
<title>Node13&#45;&gt;Node13</title>
<path fill="none" stroke="midnightblue" d="M128.46,-71.59C123.62,-76.51 109.64,-80 86.5,-80 49.48,-80 35.89,-71.06 45.72,-61.66"/>
<polygon fill="midnightblue" stroke="midnightblue" points="131.93,-71.18 127.28,-61.66 124.98,-72 131.93,-71.18"/>
</g>
<!-- Node14&#45;&gt;Node3 -->
<g id="edge28" class="edge">
<title>Node14&#45;&gt;Node3</title>
<path fill="none" stroke="midnightblue" d="M726.08,-154.71C710.21,-161.56 689.43,-171.19 672,-181.5 634.9,-203.43 595.04,-234.16 572.44,-252.33"/>
<polygon fill="midnightblue" stroke="midnightblue" points="727.87,-157.75 735.71,-150.63 725.14,-151.3 727.87,-157.75"/>
</g>
<!-- Node14&#45;&gt;Node11 -->
<g id="edge30" class="edge">
<title>Node14&#45;&gt;Node11</title>
<path fill="none" stroke="midnightblue" d="M725.74,-143.86C703.01,-143.28 668.34,-142.4 636.09,-141.58"/>
<polygon fill="midnightblue" stroke="midnightblue" points="725.78,-147.36 735.87,-144.12 725.96,-140.36 725.78,-147.36"/>
</g>
<!-- Node14&#45;&gt;Node14 -->
<g id="edge29" class="edge">
<title>Node14&#45;&gt;Node14</title>
<path fill="none" stroke="midnightblue" d="M776.31,-156.62C783.09,-164.67 774.98,-172.5 752,-172.5 723.16,-172.5 717.75,-160.18 735.78,-150.55"/>
<polygon fill="midnightblue" stroke="midnightblue" points="778.32,-153.76 768.22,-150.55 774.12,-159.35 778.32,-153.76"/>
</g>
</g>
</svg>
        <g id="navigator" transform="translate(0 0)" fill="#404254">
                <rect fill="#f2f5e9" fill-opacity="0.5" stroke="#606060" stroke-width=".5" x="0" y="0" width="60" height="60"/>
                <use id="zoomplus" xlink:href="#zoomPlus" x="17" y="9" onmousedown="handleZoom(evt,'in')"/>
                <use id="zoomminus" xlink:href="#zoomMin" x="42" y="9" onmousedown="handleZoom(evt,'out')"/>
                <use id="reset" xlink:href="#resetDef" x="30" y="36" onmousedown="handleReset()"/>
                <g id="arrowUp" xlink:href="#dirArrow" transform="translate(30 24)" onmousedown="handlePan(0,-1)">
                  <use xlink:href="#rim" fill="#404040">
                        <set attributeName="fill" to="#808080" begin="arrowUp.mouseover" end="arrowUp.mouseout"/>
                  </use>
                  <path fill="none" stroke="white" stroke-width="1.5" d="M0,-3.0v7 M-2.5,-0.5L0,-3.0L2.5,-0.5"/>
                </g>
                <g id="arrowRight" xlink:href="#dirArrow" transform="rotate(90) translate(36 -43)" onmousedown="handlePan(1,0)">
                  <use xlink:href="#rim" fill="#404040">
                        <set attributeName="fill" to="#808080" begin="arrowRight.mouseover" end="arrowRight.mouseout"/>
                  </use>
                  <path fill="none" stroke="white" stroke-width="1.5" d="M0,-3.0v7 M-2.5,-0.5L0,-3.0L2.5,-0.5"/>
                </g>
                <g id="arrowDown" xlink:href="#dirArrow" transform="rotate(180) translate(-30 -48)" onmousedown="handlePan(0,1)">
                  <use xlink:href="#rim" fill="#404040">
                        <set attributeName="fill" to="#808080" begin="arrowDown.mouseover" end="arrowDown.mouseout"/>
                  </use>
                  <path fill="none" stroke="white" stroke-width="1.5" d="M0,-3.0v7 M-2.5,-0.5L0,-3.0L2.5,-0.5"/>
                </g>
                <g id="arrowLeft" xlink:href="#dirArrow" transform="rotate(270) translate(-36 17)" onmousedown="handlePan(-1,0)">
                  <use xlink:href="#rim" fill="#404040">
                        <set attributeName="fill" to="#808080" begin="arrowLeft.mouseover" end="arrowLeft.mouseout"/>
                  </use>
                  <path fill="none" stroke="white" stroke-width="1.5" d="M0,-3.0v7 M-2.5,-0.5L0,-3.0L2.5,-0.5"/>
                </g>
        </g>
        <svg viewBox="0 0 15 15" width="100%" height="30px" preserveAspectRatio="xMaxYMin meet">
         <g id="arrow_out" transform="scale(0.3 0.3)">
          <a xlink:href="classrare_1_1models_1_1game_1_1_rare_eos_overlay_ae1cd35b1295fa44fd6906c1bcf28fd20_icgraph_org.svg" target="_base">
           <rect id="button" ry="5" rx="5" y="6" x="6" height="38" width="38"
                fill="#f2f5e9" fill-opacity="0.5" stroke="#606060" stroke-width="1.0"/>
           <path id="arrow"
             d="M 11.500037,31.436501 C 11.940474,20.09759 22.043105,11.32322 32.158766,21.979434 L 37.068811,17.246167 C 37.068811,17.246167 37.088388,32 37.088388,32 L 22.160133,31.978069 C 22.160133,31.978069 26.997745,27.140456 26.997745,27.140456 C 18.528582,18.264221 13.291696,25.230495 11.500037,31.436501 z"
             style="fill:#404040;"/>
          </a>
         </g>
        </svg>
</svg>
