<?xml version="1.0" encoding="UTF-8" standalone="no"?>
<!DOCTYPE svg PUBLIC "-//W3C//DTD SVG 1.1//EN"
 "http://www.w3.org/Graphics/SVG/1.1/DTD/svg11.dtd">
<!-- Generated by graphviz version 2.49.3 (20211027.1534)
 -->
<!-- Title: execute Pages: 1 -->
<!--zoomable 794 -->
<svg id="main" version="1.1" xmlns="http://www.w3.org/2000/svg" xmlns:xlink="http://www.w3.org/1999/xlink" xml:space="preserve" onload="init(evt)">
<style type="text/css"><![CDATA[
.edge:hover path { stroke: red; }
.edge:hover polygon { stroke: red; fill: red; }
]]></style>
<script type="text/javascript"><![CDATA[
var edges = document.getElementsByTagName('g');
if (edges && edges.length) {
  for (var i=0;i<edges.length;i++) {
    if (edges[i].id.substr(0,4)=='edge') {
      edges[i].setAttribute('class','edge');
    }
  }
}
]]></script>
        <defs>
                <circle id="rim" cx="0" cy="0" r="7"/>
                <circle id="rim2" cx="0" cy="0" r="3.5"/>
                <g id="zoomPlus">
                        <use xlink:href="#rim" fill="#404040">
                                <set attributeName="fill" to="#808080" begin="zoomplus.mouseover" end="zoomplus.mouseout"/>
                        </use>
                        <path d="M-4,0h8M0,-4v8" fill="none" stroke="white" stroke-width="1.5" pointer-events="none"/>
                </g>
                <g id="zoomMin">
                        <use xlink:href="#rim" fill="#404040">
                                <set attributeName="fill" to="#808080" begin="zoomminus.mouseover" end="zoomminus.mouseout"/>
                        </use>
                        <path d="M-4,0h8" fill="none" stroke="white" stroke-width="1.5" pointer-events="none"/>
                </g>
                <g id="dirArrow">
                        <path fill="none" stroke="white" stroke-width="1.5" d="M0,-3.0v7 M-2.5,-0.5L0,-3.0L2.5,-0.5"/>
                </g>
               <g id="resetDef">
                       <use xlink:href="#rim2" fill="#404040">
                               <set attributeName="fill" to="#808080" begin="reset.mouseover" end="reset.mouseout"/>
                       </use>
               </g>
        </defs>

<script type="text/javascript">
var viewWidth = 1116;
var viewHeight = 794;
var sectionId = 'dynsection-14';
</script>
<script xlink:href="svgpan.js"/>
<svg id="graph" class="graph">
<g id="viewport">
<title>execute</title>
<polygon fill="white" stroke="transparent" points="-4,4 -4,-790 1112.41,-790 1112.41,4 -4,4"/>
<!-- Node1 -->
<g id="node1" class="node">
<title>Node1</title>
<g id="a_node1"><a xlink:title=" ">
<polygon fill="#bfbfbf" stroke="black" points="0.41,-584.09 0.41,-603.09 50.41,-603.09 50.41,-584.09 0.41,-584.09"/>
<text text-anchor="middle" x="25.41" y="-591.09" font-family="Helvetica,sans-Serif" font-size="10.00">execute</text>
</a>
</g>
</g>
<!-- Node1&#45;&gt;Node1 -->
<g id="edge58" class="edge">
<title>Node1&#45;&gt;Node1</title>
<path fill="none" stroke="midnightblue" d="M4.76,-603.34C-5.29,-612.15 1.59,-621.59 25.41,-621.59 40.67,-621.59 48.98,-617.72 50.34,-612.62"/>
<polygon fill="midnightblue" stroke="midnightblue" points="53.43,-610.96 46.06,-603.34 47.07,-613.89 53.43,-610.96"/>
</g>
<!-- Node2 -->
<g id="node2" class="node">
<title>Node2</title>
<g id="a_node2"><a xlink:href="classrare_1_1components_1_1dialogs_1_1install__dialog_1_1_install_dialog.html#a91c6c5717fad488963fe42e9bc046c11" target="_top" xlink:title=" ">
<polygon fill="white" stroke="black" points="120.41,-684.09 120.41,-703.09 200.41,-703.09 200.41,-684.09 120.41,-684.09"/>
<text text-anchor="middle" x="160.41" y="-691.09" font-family="Helvetica,sans-Serif" font-size="10.00">action_handler</text>
</a>
</g>
</g>
<!-- Node1&#45;&gt;Node2 -->
<g id="edge1" class="edge">
<title>Node1&#45;&gt;Node2</title>
<path fill="none" stroke="midnightblue" d="M38.21,-603.35C50.2,-613.19 69.38,-628.72 86.41,-641.59 103.17,-654.25 122.55,-668.01 137.13,-678.2"/>
<polygon fill="midnightblue" stroke="midnightblue" points="135.31,-681.2 145.52,-684.04 139.31,-675.45 135.31,-681.2"/>
</g>
<!-- Node4 -->
<g id="node4" class="node">
<title>Node4</title>
<g id="a_node4"><a xlink:href="classrare_1_1components_1_1dialogs_1_1install__dialog_1_1_install_dialog.html#aca780d78b993a295a93507a4a6d12a69" target="_top" xlink:title=" ">
<polygon fill="white" stroke="black" points="270.41,-590.09 270.41,-609.09 368.41,-609.09 368.41,-590.09 270.41,-590.09"/>
<text text-anchor="middle" x="319.41" y="-597.09" font-family="Helvetica,sans-Serif" font-size="10.00">get_download_info</text>
</a>
</g>
</g>
<!-- Node1&#45;&gt;Node4 -->
<g id="edge59" class="edge">
<title>Node1&#45;&gt;Node4</title>
<path fill="none" stroke="midnightblue" d="M50.68,-601.09C61.5,-604.06 74.47,-607.12 86.41,-608.59 145.3,-615.84 213.17,-611.77 260.22,-607.01"/>
<polygon fill="midnightblue" stroke="midnightblue" points="260.66,-610.49 270.23,-605.96 259.92,-603.52 260.66,-610.49"/>
</g>
<!-- Node27 -->
<g id="node27" class="node">
<title>Node27</title>
<g id="a_node27"><a xlink:href="classrare_1_1components_1_1dialogs_1_1move__dialog_1_1_move_dialog.html#a91c6c5717fad488963fe42e9bc046c11" target="_top" xlink:title=" ">
<polygon fill="white" stroke="black" points="86.41,-540.09 86.41,-581.09 234.41,-581.09 234.41,-540.09 86.41,-540.09"/>
<text text-anchor="start" x="94.41" y="-569.09" font-family="Helvetica,sans-Serif" font-size="10.00">rare.components.dialogs.move</text>
<text text-anchor="start" x="94.41" y="-558.09" font-family="Helvetica,sans-Serif" font-size="10.00">_dialog.MoveDialog.action</text>
<text text-anchor="middle" x="160.41" y="-547.09" font-family="Helvetica,sans-Serif" font-size="10.00">_handler</text>
</a>
</g>
</g>
<!-- Node1&#45;&gt;Node27 -->
<g id="edge54" class="edge">
<title>Node1&#45;&gt;Node27</title>
<path fill="none" stroke="midnightblue" d="M50.49,-587.61C58.11,-585.72 66.99,-583.52 76.34,-581.2"/>
<polygon fill="midnightblue" stroke="midnightblue" points="77.36,-584.55 86.22,-578.75 75.67,-577.76 77.36,-584.55"/>
</g>
<!-- Node28 -->
<g id="node28" class="node">
<title>Node28</title>
<g id="a_node28"><a xlink:href="classrare_1_1widgets_1_1dialogs_1_1_action_dialog.html#a91c6c5717fad488963fe42e9bc046c11" target="_top" xlink:title=" ">
<polygon fill="white" stroke="black" points="94.41,-472.59 94.41,-502.59 226.41,-502.59 226.41,-472.59 94.41,-472.59"/>
<text text-anchor="start" x="102.41" y="-490.59" font-family="Helvetica,sans-Serif" font-size="10.00">rare.widgets.dialogs.Action</text>
<text text-anchor="middle" x="160.41" y="-479.59" font-family="Helvetica,sans-Serif" font-size="10.00">Dialog.action_handler</text>
</a>
</g>
</g>
<!-- Node1&#45;&gt;Node28 -->
<g id="edge56" class="edge">
<title>Node1&#45;&gt;Node28</title>
<path fill="none" stroke="midnightblue" d="M34.23,-583.82C45.04,-570.7 65.59,-547.12 86.41,-530.59 96.86,-522.29 109.08,-514.47 120.49,-507.83"/>
<polygon fill="midnightblue" stroke="midnightblue" points="122.44,-510.75 129.42,-502.78 119,-504.66 122.44,-510.75"/>
</g>
<!-- Node2&#45;&gt;Node2 -->
<g id="edge2" class="edge">
<title>Node2&#45;&gt;Node2</title>
<path fill="none" stroke="midnightblue" d="M139.76,-703.34C129.71,-712.15 136.59,-721.59 160.41,-721.59 175.67,-721.59 183.98,-717.72 185.34,-712.62"/>
<polygon fill="midnightblue" stroke="midnightblue" points="188.43,-710.96 181.06,-703.34 182.07,-713.89 188.43,-710.96"/>
</g>
<!-- Node3 -->
<g id="node3" class="node">
<title>Node3</title>
<g id="a_node3"><a xlink:href="classrare_1_1components_1_1dialogs_1_1install__dialog_1_1_install_dialog.html#a138282883753fa5f7af306a3bb35ceaf" target="_top" xlink:title=" ">
<polygon fill="white" stroke="black" points="613.91,-737.09 613.91,-756.09 669.91,-756.09 669.91,-737.09 613.91,-737.09"/>
<text text-anchor="middle" x="641.91" y="-744.09" font-family="Helvetica,sans-Serif" font-size="10.00">error_box</text>
</a>
</g>
</g>
<!-- Node2&#45;&gt;Node3 -->
<g id="edge3" class="edge">
<title>Node2&#45;&gt;Node3</title>
<path fill="none" stroke="midnightblue" d="M170.82,-703.12C188.46,-720.23 228.51,-755.57 270.41,-768.59 387.76,-805.06 535.88,-774.98 603.8,-757.27"/>
<polygon fill="midnightblue" stroke="midnightblue" points="604.86,-760.61 613.61,-754.65 603.05,-753.85 604.86,-760.61"/>
</g>
<!-- Node2&#45;&gt;Node4 -->
<g id="edge5" class="edge">
<title>Node2&#45;&gt;Node4</title>
<path fill="none" stroke="midnightblue" d="M177.33,-684.06C204.72,-667.66 260.94,-633.99 293.54,-614.48"/>
<polygon fill="midnightblue" stroke="midnightblue" points="295.67,-617.28 302.45,-609.14 292.07,-611.28 295.67,-617.28"/>
</g>
<!-- Node8 -->
<g id="node8" class="node">
<title>Node8</title>
<g id="a_node8"><a xlink:href="classrare_1_1widgets_1_1dialogs_1_1_action_dialog.html#a7e718e840cb7305e8bf707e866dc75e5" target="_top" xlink:title=" ">
<polygon fill="white" stroke="black" points="575.91,-628.59 575.91,-658.59 707.91,-658.59 707.91,-628.59 575.91,-628.59"/>
<text text-anchor="start" x="583.91" y="-646.59" font-family="Helvetica,sans-Serif" font-size="10.00">rare.widgets.dialogs.Action</text>
<text text-anchor="middle" x="641.91" y="-635.59" font-family="Helvetica,sans-Serif" font-size="10.00">Dialog.setActive</text>
</a>
</g>
</g>
<!-- Node2&#45;&gt;Node8 -->
<g id="edge53" class="edge">
<title>Node2&#45;&gt;Node8</title>
<path fill="none" stroke="midnightblue" d="M200.67,-694.56C269,-695.61 414.05,-694.89 534.41,-674.59 552.11,-671.6 571.04,-666.68 587.95,-661.63"/>
<polygon fill="midnightblue" stroke="midnightblue" points="589.12,-664.93 597.66,-658.66 587.07,-658.24 589.12,-664.93"/>
</g>
<!-- Node26 -->
<g id="node26" class="node">
<title>Node26</title>
<g id="a_node26"><a xlink:href="classrare_1_1components_1_1dialogs_1_1install__dialog_1_1_install_dialog.html#a004987011909ef3b326e6d95f6393ec0" target="_top" xlink:title=" ">
<polygon fill="white" stroke="black" points="285.91,-722.09 285.91,-741.09 352.91,-741.09 352.91,-722.09 285.91,-722.09"/>
<text text-anchor="middle" x="319.41" y="-729.09" font-family="Helvetica,sans-Serif" font-size="10.00">get_options</text>
</a>
</g>
</g>
<!-- Node2&#45;&gt;Node26 -->
<g id="edge51" class="edge">
<title>Node2&#45;&gt;Node26</title>
<path fill="none" stroke="midnightblue" d="M200.62,-703.08C223.49,-708.61 252.34,-715.6 275.77,-721.27"/>
<polygon fill="midnightblue" stroke="midnightblue" points="275.24,-724.74 285.78,-723.69 276.88,-717.94 275.24,-724.74"/>
</g>
<!-- Node3&#45;&gt;Node3 -->
<g id="edge4" class="edge">
<title>Node3&#45;&gt;Node3</title>
<path fill="none" stroke="midnightblue" d="M615.4,-756.34C602.5,-765.15 611.34,-774.59 641.91,-774.59 662.45,-774.59 673.18,-770.33 674.1,-764.86"/>
<polygon fill="midnightblue" stroke="midnightblue" points="676.88,-762.73 668.42,-756.34 671.05,-766.61 676.88,-762.73"/>
</g>
<!-- Node4&#45;&gt;Node4 -->
<g id="edge9" class="edge">
<title>Node4&#45;&gt;Node4</title>
<path fill="none" stroke="midnightblue" d="M296.29,-609.34C285.04,-618.15 292.75,-627.59 319.41,-627.59 336.91,-627.59 346.24,-623.52 347.41,-618.24"/>
<polygon fill="midnightblue" stroke="midnightblue" points="350.41,-616.43 342.53,-609.34 344.27,-619.8 350.41,-616.43"/>
</g>
<!-- Node5 -->
<g id="node5" class="node">
<title>Node5</title>
<g id="a_node5"><a xlink:href="classrare_1_1shared_1_1image__manager_1_1_image_manager.html#a807a18e046713d82f8c5828f7837d229" target="_top" xlink:title=" ">
<polygon fill="white" stroke="black" points="970.41,-278.59 970.41,-308.59 1108.41,-308.59 1108.41,-278.59 970.41,-278.59"/>
<text text-anchor="start" x="978.41" y="-296.59" font-family="Helvetica,sans-Serif" font-size="10.00">rare.shared.image_manager.</text>
<text text-anchor="middle" x="1039.41" y="-285.59" font-family="Helvetica,sans-Serif" font-size="10.00">ImageManager.__download</text>
</a>
</g>
</g>
<!-- Node4&#45;&gt;Node5 -->
<g id="edge6" class="edge">
<title>Node4&#45;&gt;Node5</title>
<path fill="none" stroke="midnightblue" d="M357.94,-590.08C432.48,-573.48 601.63,-547.42 713.41,-619.59 742.8,-638.56 719.55,-671.36 749.41,-689.59 819.6,-732.42 869.3,-739.8 934.41,-689.59 994.48,-643.25 1026.68,-398.86 1035.73,-318.92"/>
<polygon fill="midnightblue" stroke="midnightblue" points="1039.23,-319.09 1036.85,-308.77 1032.27,-318.32 1039.23,-319.09"/>
</g>
<!-- Node6 -->
<g id="node6" class="node">
<title>Node6</title>
<g id="a_node6"><a xlink:href="classrare_1_1shared_1_1rare__core_1_1_rare_core.html#a405e1a4f20f16120f872ccd2654a1d56" target="_top" xlink:title=" ">
<polygon fill="white" stroke="black" points="404.41,-301.59 404.41,-331.59 534.41,-331.59 534.41,-301.59 404.41,-301.59"/>
<text text-anchor="start" x="412.41" y="-319.59" font-family="Helvetica,sans-Serif" font-size="10.00">rare.shared.rare_core.Rare</text>
<text text-anchor="middle" x="469.41" y="-308.59" font-family="Helvetica,sans-Serif" font-size="10.00">Core.core</text>
</a>
</g>
</g>
<!-- Node4&#45;&gt;Node6 -->
<g id="edge7" class="edge">
<title>Node4&#45;&gt;Node6</title>
<path fill="none" stroke="midnightblue" d="M321.59,-589.85C326.21,-555.13 345.83,-435.39 404.41,-359.59 411.11,-350.92 420.07,-343.4 429.15,-337.18"/>
<polygon fill="midnightblue" stroke="midnightblue" points="431.3,-339.96 437.83,-331.62 427.53,-334.06 431.3,-339.96"/>
</g>
<!-- Node7 -->
<g id="node7" class="node">
<title>Node7</title>
<g id="a_node7"><a xlink:href="classrare_1_1components_1_1dialogs_1_1install__dialog_1_1_install_dialog.html#a36bb64fa9d259feffe5871168f96c4df" target="_top" xlink:title=" ">
<polygon fill="white" stroke="black" points="424.41,-628.09 424.41,-647.09 514.41,-647.09 514.41,-628.09 424.41,-628.09"/>
<text text-anchor="middle" x="469.41" y="-635.09" font-family="Helvetica,sans-Serif" font-size="10.00">on_worker_failed</text>
</a>
</g>
</g>
<!-- Node4&#45;&gt;Node7 -->
<g id="edge10" class="edge">
<title>Node4&#45;&gt;Node7</title>
<path fill="none" stroke="midnightblue" d="M357.76,-609.18C377.11,-614.15 400.94,-620.26 421.52,-625.55"/>
<polygon fill="midnightblue" stroke="midnightblue" points="420.78,-628.97 431.33,-628.07 422.52,-622.19 420.78,-628.97"/>
</g>
<!-- Node9 -->
<g id="node9" class="node">
<title>Node9</title>
<g id="a_node9"><a xlink:href="classrare_1_1components_1_1dialogs_1_1install__dialog_1_1_install_dialog.html#a64dd35f139577016bc6417719d65d969" target="_top" xlink:title=" ">
<polygon fill="white" stroke="black" points="423.91,-369.09 423.91,-388.09 514.91,-388.09 514.91,-369.09 423.91,-369.09"/>
<text text-anchor="middle" x="469.41" y="-376.09" font-family="Helvetica,sans-Serif" font-size="10.00">on_worker_result</text>
</a>
</g>
</g>
<!-- Node4&#45;&gt;Node9 -->
<g id="edge15" class="edge">
<title>Node4&#45;&gt;Node9</title>
<path fill="none" stroke="midnightblue" d="M326.96,-589.81C349.84,-555.65 426.4,-441.32 456.3,-396.67"/>
<polygon fill="midnightblue" stroke="midnightblue" points="459.28,-398.51 461.93,-388.26 453.46,-394.62 459.28,-398.51"/>
</g>
<!-- Node25 -->
<g id="node25" class="node">
<title>Node25</title>
<g id="a_node25"><a xlink:href="namespacerare_1_1components.html#a019ee207f5c041fb0d2e61f76eafa958" target="_top" xlink:title=" ">
<polygon fill="white" stroke="black" points="414.41,-245.09 414.41,-264.09 524.41,-264.09 524.41,-245.09 414.41,-245.09"/>
<text text-anchor="middle" x="469.41" y="-252.09" font-family="Helvetica,sans-Serif" font-size="10.00">rare.components.start</text>
</a>
</g>
</g>
<!-- Node4&#45;&gt;Node25 -->
<g id="edge49" class="edge">
<title>Node4&#45;&gt;Node25</title>
<path fill="none" stroke="midnightblue" d="M320.53,-589.94C321.49,-549.38 330.07,-390.17 404.41,-292.59 412.06,-282.55 423.18,-274.64 434.02,-268.7"/>
<polygon fill="midnightblue" stroke="midnightblue" points="435.63,-271.8 442.97,-264.16 432.47,-265.56 435.63,-271.8"/>
</g>
<!-- Node6&#45;&gt;Node6 -->
<g id="edge8" class="edge">
<title>Node6&#45;&gt;Node6</title>
<path fill="none" stroke="midnightblue" d="M443.27,-331.75C436.97,-341.14 445.68,-350.09 469.41,-350.09 483.87,-350.09 492.75,-346.77 496.06,-342.05"/>
<polygon fill="midnightblue" stroke="midnightblue" points="499.54,-341.56 495.55,-331.75 492.55,-341.91 499.54,-341.56"/>
</g>
<!-- Node7&#45;&gt;Node3 -->
<g id="edge11" class="edge">
<title>Node7&#45;&gt;Node3</title>
<path fill="none" stroke="midnightblue" d="M485.54,-647.26C515.17,-666.2 581.04,-708.32 616.76,-731.15"/>
<polygon fill="midnightblue" stroke="midnightblue" points="615.26,-734.34 625.57,-736.78 619.03,-728.44 615.26,-734.34"/>
</g>
<!-- Node7&#45;&gt;Node7 -->
<g id="edge12" class="edge">
<title>Node7&#45;&gt;Node7</title>
<path fill="none" stroke="midnightblue" d="M446.29,-647.34C435.04,-656.15 442.75,-665.59 469.41,-665.59 486.91,-665.59 496.24,-661.52 497.41,-656.24"/>
<polygon fill="midnightblue" stroke="midnightblue" points="500.41,-654.43 492.53,-647.34 494.27,-657.8 500.41,-654.43"/>
</g>
<!-- Node7&#45;&gt;Node8 -->
<g id="edge13" class="edge">
<title>Node7&#45;&gt;Node8</title>
<path fill="none" stroke="midnightblue" d="M514.76,-639.15C530.35,-639.7 548.33,-640.33 565.74,-640.94"/>
<polygon fill="midnightblue" stroke="midnightblue" points="565.79,-644.45 575.9,-641.3 566.03,-637.45 565.79,-644.45"/>
</g>
<!-- Node8&#45;&gt;Node8 -->
<g id="edge14" class="edge">
<title>Node8&#45;&gt;Node8</title>
<path fill="none" stroke="midnightblue" d="M611.94,-658.75C604.71,-668.14 614.7,-677.09 641.91,-677.09 658.49,-677.09 668.68,-673.77 672.47,-669.05"/>
<polygon fill="midnightblue" stroke="midnightblue" points="675.95,-668.53 671.88,-658.75 668.96,-668.93 675.95,-668.53"/>
</g>
<!-- Node9&#45;&gt;Node5 -->
<g id="edge16" class="edge">
<title>Node9&#45;&gt;Node5</title>
<path fill="none" stroke="midnightblue" d="M515,-372.61C522.4,-369.75 529.31,-365.59 534.41,-359.59 616.51,-262.97 488.27,-173.18 570.41,-76.59 624.16,-13.38 667.3,-35.49 749.41,-23.59 830.78,-11.79 866.62,22.94 934.41,-23.59 1017.11,-80.35 1034.07,-212.84 1037.53,-268.38"/>
<polygon fill="midnightblue" stroke="midnightblue" points="1034.04,-268.62 1038.06,-278.42 1041.03,-268.25 1034.04,-268.62"/>
</g>
<!-- Node9&#45;&gt;Node8 -->
<g id="edge48" class="edge">
<title>Node9&#45;&gt;Node8</title>
<path fill="none" stroke="midnightblue" d="M476.68,-388.33C501.04,-426.19 589.8,-564.15 625.69,-619.94"/>
<polygon fill="midnightblue" stroke="midnightblue" points="622.82,-621.94 631.17,-628.46 628.71,-618.15 622.82,-621.94"/>
</g>
<!-- Node9&#45;&gt;Node9 -->
<g id="edge45" class="edge">
<title>Node9&#45;&gt;Node9</title>
<path fill="none" stroke="midnightblue" d="M446.29,-388.34C435.04,-397.15 442.75,-406.59 469.41,-406.59 486.91,-406.59 496.24,-402.52 497.41,-397.24"/>
<polygon fill="midnightblue" stroke="midnightblue" points="500.41,-395.43 492.53,-388.34 494.27,-398.8 500.41,-395.43"/>
</g>
<!-- Node10 -->
<g id="node10" class="node">
<title>Node10</title>
<g id="a_node10"><a xlink:href="classrare_1_1launcher_1_1console__dialog_1_1_console_dialog.html#a7df04f32b8c03f8466e5b558ba482582" target="_top" xlink:title=" ">
<polygon fill="white" stroke="black" points="570.41,-265.59 570.41,-295.59 713.41,-295.59 713.41,-265.59 570.41,-265.59"/>
<text text-anchor="start" x="578.41" y="-283.59" font-family="Helvetica,sans-Serif" font-size="10.00">rare.launcher.console</text>
<text text-anchor="middle" x="641.91" y="-272.59" font-family="Helvetica,sans-Serif" font-size="10.00">_dialog.ConsoleDialog.accept</text>
</a>
</g>
</g>
<!-- Node9&#45;&gt;Node10 -->
<g id="edge17" class="edge">
<title>Node9&#45;&gt;Node10</title>
<path fill="none" stroke="midnightblue" d="M510.5,-369.03C518.62,-366.45 526.94,-363.32 534.41,-359.59 565.13,-344.23 596.22,-319.94 616.81,-302.35"/>
<polygon fill="midnightblue" stroke="midnightblue" points="619.17,-304.93 624.43,-295.73 614.58,-299.65 619.17,-304.93"/>
</g>
<!-- Node14 -->
<g id="node14" class="node">
<title>Node14</title>
<g id="a_node14"><a xlink:href="classrare_1_1widgets_1_1dialogs_1_1_button_dialog.html#a783ddce0cb0d324bc475e9b39f7a6f2f" target="_top" xlink:title=" ">
<polygon fill="white" stroke="black" points="575.41,-413.59 575.41,-443.59 708.41,-443.59 708.41,-413.59 575.41,-413.59"/>
<text text-anchor="start" x="583.41" y="-431.59" font-family="Helvetica,sans-Serif" font-size="10.00">rare.widgets.dialogs.Button</text>
<text text-anchor="middle" x="641.91" y="-420.59" font-family="Helvetica,sans-Serif" font-size="10.00">Dialog.accept</text>
</a>
</g>
</g>
<!-- Node9&#45;&gt;Node14 -->
<g id="edge25" class="edge">
<title>Node9&#45;&gt;Node14</title>
<path fill="none" stroke="midnightblue" d="M502.88,-388.11C524.56,-394.47 553.74,-403.02 579.68,-410.63"/>
<polygon fill="midnightblue" stroke="midnightblue" points="578.87,-414.04 589.45,-413.5 580.84,-407.32 578.87,-414.04"/>
</g>
<!-- Node21 -->
<g id="node21" class="node">
<title>Node21</title>
<g id="a_node21"><a xlink:href="classrare_1_1widgets_1_1dialogs_1_1_test_dialog.html#a783ddce0cb0d324bc475e9b39f7a6f2f" target="_top" xlink:title=" ">
<polygon fill="white" stroke="black" points="579.91,-198.59 579.91,-228.59 703.91,-228.59 703.91,-198.59 579.91,-198.59"/>
<text text-anchor="start" x="587.91" y="-216.59" font-family="Helvetica,sans-Serif" font-size="10.00">rare.widgets.dialogs.Test</text>
<text text-anchor="middle" x="641.91" y="-205.59" font-family="Helvetica,sans-Serif" font-size="10.00">Dialog.accept</text>
</a>
</g>
</g>
<!-- Node9&#45;&gt;Node21 -->
<g id="edge40" class="edge">
<title>Node9&#45;&gt;Node21</title>
<path fill="none" stroke="midnightblue" d="M515.02,-371.32C522.15,-368.57 528.96,-364.79 534.41,-359.59 569.51,-326.12 539.93,-294.3 570.41,-256.59 577.73,-247.53 587.5,-239.89 597.43,-233.69"/>
<polygon fill="midnightblue" stroke="midnightblue" points="599.27,-236.67 606.14,-228.6 595.74,-230.62 599.27,-236.67"/>
</g>
<!-- Node23 -->
<g id="node23" class="node">
<title>Node23</title>
<g id="a_node23"><a xlink:href="namespacerare_1_1utils_1_1misc.html#a3544b31f50ff739b7e8bb4ab751026b7" target="_top" xlink:title=" ">
<polygon fill="white" stroke="black" points="577.41,-142.09 577.41,-161.09 706.41,-161.09 706.41,-142.09 577.41,-142.09"/>
<text text-anchor="middle" x="641.91" y="-149.09" font-family="Helvetica,sans-Serif" font-size="10.00">rare.utils.misc.format_size</text>
</a>
</g>
</g>
<!-- Node9&#45;&gt;Node23 -->
<g id="edge43" class="edge">
<title>Node9&#45;&gt;Node23</title>
<path fill="none" stroke="midnightblue" d="M514.94,-372.14C522.25,-369.31 529.14,-365.29 534.41,-359.59 586.8,-302.84 524.13,-251.42 570.41,-189.59 578.23,-179.14 589.8,-171.24 601.32,-165.43"/>
<polygon fill="midnightblue" stroke="midnightblue" points="602.85,-168.57 610.47,-161.21 599.92,-162.22 602.85,-168.57"/>
</g>
<!-- Node24 -->
<g id="node24" class="node">
<title>Node24</title>
<g id="a_node24"><a xlink:href="classrare_1_1components_1_1dialogs_1_1install__dialog_1_1_install_dialog.html#a28b2dbb84b35512e356dcdff0827aac2" target="_top" xlink:title=" ">
<polygon fill="white" stroke="black" points="601.41,-86.09 601.41,-105.09 682.41,-105.09 682.41,-86.09 601.41,-86.09"/>
<text text-anchor="middle" x="641.91" y="-93.09" font-family="Helvetica,sans-Serif" font-size="10.00">same_platform</text>
</a>
</g>
</g>
<!-- Node9&#45;&gt;Node24 -->
<g id="edge46" class="edge">
<title>Node9&#45;&gt;Node24</title>
<path fill="none" stroke="midnightblue" d="M515.18,-372.36C522.47,-369.51 529.29,-365.43 534.41,-359.59 601.75,-282.77 510.86,-215.58 570.41,-132.59 577.65,-122.5 588.49,-114.93 599.51,-109.36"/>
<polygon fill="midnightblue" stroke="midnightblue" points="601.1,-112.48 608.74,-105.14 598.19,-106.12 601.1,-112.48"/>
</g>
<!-- Node10&#45;&gt;Node10 -->
<g id="edge18" class="edge">
<title>Node10&#45;&gt;Node10</title>
<path fill="none" stroke="midnightblue" d="M611.94,-295.75C604.71,-305.14 614.7,-314.09 641.91,-314.09 658.49,-314.09 668.68,-310.77 672.47,-306.05"/>
<polygon fill="midnightblue" stroke="midnightblue" points="675.95,-305.53 671.88,-295.75 668.96,-305.93 675.95,-305.53"/>
</g>
<!-- Node11 -->
<g id="node11" class="node">
<title>Node11</title>
<g id="a_node11"><a xlink:href="classrare_1_1components_1_1main__window_1_1_main_window.html#ad9f81f4c56e23ca3c206b1e9374fc137" target="_top" xlink:title=" ">
<polygon fill="white" stroke="black" points="772.91,-82.59 772.91,-112.59 910.91,-112.59 910.91,-82.59 772.91,-82.59"/>
<text text-anchor="start" x="780.91" y="-100.59" font-family="Helvetica,sans-Serif" font-size="10.00">rare.components.main</text>
<text text-anchor="middle" x="841.91" y="-89.59" font-family="Helvetica,sans-Serif" font-size="10.00">_window.MainWindow.close</text>
</a>
</g>
</g>
<!-- Node10&#45;&gt;Node11 -->
<g id="edge19" class="edge">
<title>Node10&#45;&gt;Node11</title>
<path fill="none" stroke="midnightblue" d="M702.1,-265.48C706.24,-262.96 710.08,-260.02 713.41,-256.59 751.31,-217.55 713.56,-180.51 749.41,-139.59 757.59,-130.25 768.27,-122.86 779.44,-117.06"/>
<polygon fill="midnightblue" stroke="midnightblue" points="780.95,-120.22 788.46,-112.74 777.93,-113.9 780.95,-120.22"/>
</g>
<!-- Node12 -->
<g id="node12" class="node">
<title>Node12</title>
<g id="a_node12"><a xlink:href="classrare_1_1widgets_1_1dialogs_1_1_button_dialog.html#a8639372c33e15084a7f7c4d9d87b7bfe" target="_top" xlink:title=" ">
<polygon fill="white" stroke="black" points="775.41,-216.59 775.41,-246.59 908.41,-246.59 908.41,-216.59 775.41,-216.59"/>
<text text-anchor="start" x="783.41" y="-234.59" font-family="Helvetica,sans-Serif" font-size="10.00">rare.widgets.dialogs.Button</text>
<text text-anchor="middle" x="841.91" y="-223.59" font-family="Helvetica,sans-Serif" font-size="10.00">Dialog.close</text>
</a>
</g>
</g>
<!-- Node10&#45;&gt;Node12 -->
<g id="edge21" class="edge">
<title>Node10&#45;&gt;Node12</title>
<path fill="none" stroke="midnightblue" d="M703.66,-265.55C724.76,-260.33 748.59,-254.43 770.41,-249.04"/>
<polygon fill="midnightblue" stroke="midnightblue" points="771.41,-252.39 780.27,-246.59 769.72,-245.6 771.41,-252.39"/>
</g>
<!-- Node13 -->
<g id="node13" class="node">
<title>Node13</title>
<g id="a_node13"><a xlink:href="classrare_1_1widgets_1_1dialogs_1_1_test_dialog.html#a8639372c33e15084a7f7c4d9d87b7bfe" target="_top" xlink:title=" ">
<polygon fill="white" stroke="black" points="779.91,-149.59 779.91,-179.59 903.91,-179.59 903.91,-149.59 779.91,-149.59"/>
<text text-anchor="start" x="787.91" y="-167.59" font-family="Helvetica,sans-Serif" font-size="10.00">rare.widgets.dialogs.Test</text>
<text text-anchor="middle" x="841.91" y="-156.59" font-family="Helvetica,sans-Serif" font-size="10.00">Dialog.close</text>
</a>
</g>
</g>
<!-- Node10&#45;&gt;Node13 -->
<g id="edge23" class="edge">
<title>Node10&#45;&gt;Node13</title>
<path fill="none" stroke="midnightblue" d="M698.08,-265.56C703.5,-263 708.72,-260.03 713.41,-256.59 735.2,-240.61 728.54,-224.75 749.41,-207.59 760.98,-198.08 774.99,-190.13 788.55,-183.76"/>
<polygon fill="midnightblue" stroke="midnightblue" points="790.13,-186.89 797.82,-179.6 787.26,-180.5 790.13,-186.89"/>
</g>
<!-- Node11&#45;&gt;Node11 -->
<g id="edge20" class="edge">
<title>Node11&#45;&gt;Node11</title>
<path fill="none" stroke="midnightblue" d="M807.75,-112.75C799.52,-122.14 810.9,-131.09 841.91,-131.09 860.8,-131.09 872.41,-127.77 876.74,-123.05"/>
<polygon fill="midnightblue" stroke="midnightblue" points="880.21,-122.5 876.07,-112.75 873.22,-122.95 880.21,-122.5"/>
</g>
<!-- Node12&#45;&gt;Node12 -->
<g id="edge22" class="edge">
<title>Node12&#45;&gt;Node12</title>
<path fill="none" stroke="midnightblue" d="M807.75,-246.75C799.52,-256.14 810.9,-265.09 841.91,-265.09 860.8,-265.09 872.41,-261.77 876.74,-257.05"/>
<polygon fill="midnightblue" stroke="midnightblue" points="880.21,-256.5 876.07,-246.75 873.22,-256.95 880.21,-256.5"/>
</g>
<!-- Node13&#45;&gt;Node13 -->
<g id="edge24" class="edge">
<title>Node13&#45;&gt;Node13</title>
<path fill="none" stroke="midnightblue" d="M807.75,-179.75C799.52,-189.14 810.9,-198.09 841.91,-198.09 860.8,-198.09 872.41,-194.77 876.74,-190.05"/>
<polygon fill="midnightblue" stroke="midnightblue" points="880.21,-189.5 876.07,-179.75 873.22,-189.95 880.21,-189.5"/>
</g>
<!-- Node14&#45;&gt;Node14 -->
<g id="edge26" class="edge">
<title>Node14&#45;&gt;Node14</title>
<path fill="none" stroke="midnightblue" d="M611.94,-443.75C604.71,-453.14 614.7,-462.09 641.91,-462.09 658.49,-462.09 668.68,-458.77 672.47,-454.05"/>
<polygon fill="midnightblue" stroke="midnightblue" points="675.95,-453.53 671.88,-443.75 668.96,-453.93 675.95,-453.53"/>
</g>
<!-- Node15 -->
<g id="node15" class="node">
<title>Node15</title>
<g id="a_node15"><a xlink:href="classrare_1_1components_1_1dialogs_1_1install__dialog_1_1_install_dialog.html#a5786ae567b9d7f6957dfb2ae04f22e63" target="_top" xlink:title=" ">
<polygon fill="white" stroke="black" points="800.41,-284.09 800.41,-303.09 883.41,-303.09 883.41,-284.09 800.41,-284.09"/>
<text text-anchor="middle" x="841.91" y="-291.09" font-family="Helvetica,sans-Serif" font-size="10.00">accept_handler</text>
</a>
</g>
</g>
<!-- Node14&#45;&gt;Node15 -->
<g id="edge27" class="edge">
<title>Node14&#45;&gt;Node15</title>
<path fill="none" stroke="midnightblue" d="M656.4,-413.36C675.44,-392.61 712.05,-355.33 749.41,-331.59 765.43,-321.41 784.64,-312.94 801.31,-306.61"/>
<polygon fill="midnightblue" stroke="midnightblue" points="802.61,-309.86 810.79,-303.12 800.2,-303.29 802.61,-309.86"/>
</g>
<!-- Node16 -->
<g id="node16" class="node">
<title>Node16</title>
<g id="a_node16"><a xlink:href="classrare_1_1components_1_1dialogs_1_1move__dialog_1_1_move_dialog.html#a5786ae567b9d7f6957dfb2ae04f22e63" target="_top" xlink:title=" ">
<polygon fill="white" stroke="black" points="767.91,-621.09 767.91,-662.09 915.91,-662.09 915.91,-621.09 767.91,-621.09"/>
<text text-anchor="start" x="775.91" y="-650.09" font-family="Helvetica,sans-Serif" font-size="10.00">rare.components.dialogs.move</text>
<text text-anchor="start" x="775.91" y="-639.09" font-family="Helvetica,sans-Serif" font-size="10.00">_dialog.MoveDialog.accept</text>
<text text-anchor="middle" x="841.91" y="-628.09" font-family="Helvetica,sans-Serif" font-size="10.00">_handler</text>
</a>
</g>
</g>
<!-- Node14&#45;&gt;Node16 -->
<g id="edge30" class="edge">
<title>Node14&#45;&gt;Node16</title>
<path fill="none" stroke="midnightblue" d="M647.51,-443.6C658.91,-478.37 691.83,-565 749.41,-611.59 752.38,-613.99 755.55,-616.2 758.85,-618.24"/>
<polygon fill="midnightblue" stroke="midnightblue" points="757.45,-621.46 767.89,-623.23 760.83,-615.33 757.45,-621.46"/>
</g>
<!-- Node17 -->
<g id="node17" class="node">
<title>Node17</title>
<g id="a_node17"><a xlink:href="classrare_1_1components_1_1dialogs_1_1selective__dialog_1_1_selective_dialog.html#a5786ae567b9d7f6957dfb2ae04f22e63" target="_top" xlink:title=" ">
<polygon fill="white" stroke="black" points="749.41,-553.59 749.41,-583.59 934.41,-583.59 934.41,-553.59 749.41,-553.59"/>
<text text-anchor="start" x="757.41" y="-571.59" font-family="Helvetica,sans-Serif" font-size="10.00">rare.components.dialogs.selective</text>
<text text-anchor="middle" x="841.91" y="-560.59" font-family="Helvetica,sans-Serif" font-size="10.00">_dialog.SelectiveDialog.accept_handler</text>
</a>
</g>
</g>
<!-- Node14&#45;&gt;Node17 -->
<g id="edge32" class="edge">
<title>Node14&#45;&gt;Node17</title>
<path fill="none" stroke="midnightblue" d="M652.67,-443.98C669.37,-469 705.85,-518.34 749.41,-544.59 752.22,-546.28 755.16,-547.86 758.17,-549.33"/>
<polygon fill="midnightblue" stroke="midnightblue" points="756.87,-552.58 767.43,-553.4 759.69,-546.17 756.87,-552.58"/>
</g>
<!-- Node18 -->
<g id="node18" class="node">
<title>Node18</title>
<g id="a_node18"><a xlink:href="classrare_1_1components_1_1dialogs_1_1uninstall__dialog_1_1_uninstall_dialog.html#a5786ae567b9d7f6957dfb2ae04f22e63" target="_top" xlink:title=" ">
<polygon fill="white" stroke="black" points="750.41,-486.59 750.41,-516.59 933.41,-516.59 933.41,-486.59 750.41,-486.59"/>
<text text-anchor="start" x="758.41" y="-504.59" font-family="Helvetica,sans-Serif" font-size="10.00">rare.components.dialogs.uninstall</text>
<text text-anchor="middle" x="841.91" y="-493.59" font-family="Helvetica,sans-Serif" font-size="10.00">_dialog.UninstallDialog.accept_handler</text>
</a>
</g>
</g>
<!-- Node14&#45;&gt;Node18 -->
<g id="edge34" class="edge">
<title>Node14&#45;&gt;Node18</title>
<path fill="none" stroke="midnightblue" d="M673.14,-443.75C694.18,-453.91 723.07,-467.12 749.41,-476.59 756.23,-479.04 763.41,-481.39 770.62,-483.59"/>
<polygon fill="midnightblue" stroke="midnightblue" points="769.86,-487.02 780.44,-486.51 771.85,-480.31 769.86,-487.02"/>
</g>
<!-- Node19 -->
<g id="node19" class="node">
<title>Node19</title>
<g id="a_node19"><a xlink:href="classrare_1_1launcher_1_1cloud__sync__dialog_1_1_cloud_sync_dialog.html#a5786ae567b9d7f6957dfb2ae04f22e63" target="_top" xlink:title=" ">
<polygon fill="white" stroke="black" points="751.91,-408.09 751.91,-449.09 931.91,-449.09 931.91,-408.09 751.91,-408.09"/>
<text text-anchor="start" x="759.91" y="-437.09" font-family="Helvetica,sans-Serif" font-size="10.00">rare.launcher.cloud</text>
<text text-anchor="start" x="759.91" y="-426.09" font-family="Helvetica,sans-Serif" font-size="10.00">_sync_dialog.CloudSyncDialog.accept</text>
<text text-anchor="middle" x="841.91" y="-415.09" font-family="Helvetica,sans-Serif" font-size="10.00">_handler</text>
</a>
</g>
</g>
<!-- Node14&#45;&gt;Node19 -->
<g id="edge36" class="edge">
<title>Node14&#45;&gt;Node19</title>
<path fill="none" stroke="midnightblue" d="M708.57,-428.59C719.17,-428.59 730.35,-428.59 741.53,-428.59"/>
<polygon fill="midnightblue" stroke="midnightblue" points="741.79,-432.09 751.79,-428.59 741.79,-425.09 741.79,-432.09"/>
</g>
<!-- Node20 -->
<g id="node20" class="node">
<title>Node20</title>
<g id="a_node20"><a xlink:href="classrare_1_1widgets_1_1dialogs_1_1_button_dialog.html#a5786ae567b9d7f6957dfb2ae04f22e63" target="_top" xlink:title=" ">
<polygon fill="white" stroke="black" points="775.41,-340.59 775.41,-370.59 908.41,-370.59 908.41,-340.59 775.41,-340.59"/>
<text text-anchor="start" x="783.41" y="-358.59" font-family="Helvetica,sans-Serif" font-size="10.00">rare.widgets.dialogs.Button</text>
<text text-anchor="middle" x="841.91" y="-347.59" font-family="Helvetica,sans-Serif" font-size="10.00">Dialog.accept_handler</text>
</a>
</g>
</g>
<!-- Node14&#45;&gt;Node20 -->
<g id="edge38" class="edge">
<title>Node14&#45;&gt;Node20</title>
<path fill="none" stroke="midnightblue" d="M683.94,-413.46C714.86,-402.06 757.45,-386.36 790.46,-374.19"/>
<polygon fill="midnightblue" stroke="midnightblue" points="791.76,-377.44 799.94,-370.69 789.34,-370.87 791.76,-377.44"/>
</g>
<!-- Node15&#45;&gt;Node5 -->
<g id="edge28" class="edge">
<title>Node15&#45;&gt;Node5</title>
<path fill="none" stroke="midnightblue" d="M883.42,-293.59C905.53,-293.59 933.69,-293.59 959.91,-293.59"/>
<polygon fill="midnightblue" stroke="midnightblue" points="960.24,-297.09 970.24,-293.59 960.24,-290.09 960.24,-297.09"/>
</g>
<!-- Node15&#45;&gt;Node15 -->
<g id="edge29" class="edge">
<title>Node15&#45;&gt;Node15</title>
<path fill="none" stroke="midnightblue" d="M811.7,-303.34C797,-312.15 807.07,-321.59 841.91,-321.59 866.4,-321.59 878.65,-316.92 878.66,-311.09"/>
<polygon fill="midnightblue" stroke="midnightblue" points="881.24,-308.73 872.12,-303.34 875.9,-313.24 881.24,-308.73"/>
</g>
<!-- Node16&#45;&gt;Node16 -->
<g id="edge31" class="edge">
<title>Node16&#45;&gt;Node16</title>
<path fill="none" stroke="midnightblue" d="M805.89,-662.45C801.96,-672.13 813.96,-680.59 841.91,-680.59 859.38,-680.59 870.62,-677.28 875.63,-672.44"/>
<polygon fill="midnightblue" stroke="midnightblue" points="879.1,-672.98 877.93,-662.45 872.28,-671.41 879.1,-672.98"/>
</g>
<!-- Node17&#45;&gt;Node17 -->
<g id="edge33" class="edge">
<title>Node17&#45;&gt;Node17</title>
<path fill="none" stroke="midnightblue" d="M807.75,-583.75C799.52,-593.14 810.9,-602.09 841.91,-602.09 860.8,-602.09 872.41,-598.77 876.74,-594.05"/>
<polygon fill="midnightblue" stroke="midnightblue" points="880.21,-593.5 876.07,-583.75 873.22,-593.95 880.21,-593.5"/>
</g>
<!-- Node18&#45;&gt;Node18 -->
<g id="edge35" class="edge">
<title>Node18&#45;&gt;Node18</title>
<path fill="none" stroke="midnightblue" d="M807.75,-516.75C799.52,-526.14 810.9,-535.09 841.91,-535.09 860.8,-535.09 872.41,-531.77 876.74,-527.05"/>
<polygon fill="midnightblue" stroke="midnightblue" points="880.21,-526.5 876.07,-516.75 873.22,-526.95 880.21,-526.5"/>
</g>
<!-- Node19&#45;&gt;Node19 -->
<g id="edge37" class="edge">
<title>Node19&#45;&gt;Node19</title>
<path fill="none" stroke="midnightblue" d="M805.89,-449.45C801.96,-459.13 813.96,-467.59 841.91,-467.59 859.38,-467.59 870.62,-464.28 875.63,-459.44"/>
<polygon fill="midnightblue" stroke="midnightblue" points="879.1,-459.98 877.93,-449.45 872.28,-458.41 879.1,-459.98"/>
</g>
<!-- Node20&#45;&gt;Node20 -->
<g id="edge39" class="edge">
<title>Node20&#45;&gt;Node20</title>
<path fill="none" stroke="midnightblue" d="M807.75,-370.75C799.52,-380.14 810.9,-389.09 841.91,-389.09 860.8,-389.09 872.41,-385.77 876.74,-381.05"/>
<polygon fill="midnightblue" stroke="midnightblue" points="880.21,-380.5 876.07,-370.75 873.22,-380.95 880.21,-380.5"/>
</g>
<!-- Node21&#45;&gt;Node21 -->
<g id="edge42" class="edge">
<title>Node21&#45;&gt;Node21</title>
<path fill="none" stroke="midnightblue" d="M611.94,-228.75C604.71,-238.14 614.7,-247.09 641.91,-247.09 658.49,-247.09 668.68,-243.77 672.47,-239.05"/>
<polygon fill="midnightblue" stroke="midnightblue" points="675.95,-238.53 671.88,-228.75 668.96,-238.93 675.95,-238.53"/>
</g>
<!-- Node22 -->
<g id="node22" class="node">
<title>Node22</title>
<g id="a_node22"><a xlink:href="classrare_1_1widgets_1_1dialogs_1_1_test_dialog.html#aabea3c93766dc521bfb00bb34037879d" target="_top" xlink:title=" ">
<polygon fill="white" stroke="black" points="779.91,-33.59 779.91,-63.59 903.91,-63.59 903.91,-33.59 779.91,-33.59"/>
<text text-anchor="start" x="787.91" y="-51.59" font-family="Helvetica,sans-Serif" font-size="10.00">rare.widgets.dialogs.Test</text>
<text text-anchor="middle" x="841.91" y="-40.59" font-family="Helvetica,sans-Serif" font-size="10.00">Dialog._on_accept</text>
</a>
</g>
</g>
<!-- Node21&#45;&gt;Node22 -->
<g id="edge41" class="edge">
<title>Node21&#45;&gt;Node22</title>
<path fill="none" stroke="midnightblue" d="M700.76,-198.43C705.4,-195.68 709.72,-192.43 713.41,-188.59 750.81,-149.66 710.4,-109.9 749.41,-72.59 755.4,-66.86 762.59,-62.45 770.26,-59.08"/>
<polygon fill="midnightblue" stroke="midnightblue" points="771.72,-62.27 779.82,-55.45 769.23,-55.72 771.72,-62.27"/>
</g>
<!-- Node23&#45;&gt;Node23 -->
<g id="edge44" class="edge">
<title>Node23&#45;&gt;Node23</title>
<path fill="none" stroke="midnightblue" d="M615.4,-161.34C602.5,-170.15 611.34,-179.59 641.91,-179.59 662.45,-179.59 673.18,-175.33 674.1,-169.86"/>
<polygon fill="midnightblue" stroke="midnightblue" points="676.88,-167.73 668.42,-161.34 671.05,-171.61 676.88,-167.73"/>
</g>
<!-- Node24&#45;&gt;Node24 -->
<g id="edge47" class="edge">
<title>Node24&#45;&gt;Node24</title>
<path fill="none" stroke="midnightblue" d="M615.4,-105.34C602.5,-114.15 611.34,-123.59 641.91,-123.59 662.45,-123.59 673.18,-119.33 674.1,-113.86"/>
<polygon fill="midnightblue" stroke="midnightblue" points="676.88,-111.73 668.42,-105.34 671.05,-115.61 676.88,-111.73"/>
</g>
<!-- Node25&#45;&gt;Node25 -->
<g id="edge50" class="edge">
<title>Node25&#45;&gt;Node25</title>
<path fill="none" stroke="midnightblue" d="M446.29,-264.34C435.04,-273.15 442.75,-282.59 469.41,-282.59 486.91,-282.59 496.24,-278.52 497.41,-273.24"/>
<polygon fill="midnightblue" stroke="midnightblue" points="500.41,-271.43 492.53,-264.34 494.27,-274.8 500.41,-271.43"/>
</g>
<!-- Node26&#45;&gt;Node26 -->
<g id="edge52" class="edge">
<title>Node26&#45;&gt;Node26</title>
<path fill="none" stroke="midnightblue" d="M296.29,-741.34C285.04,-750.15 292.75,-759.59 319.41,-759.59 336.91,-759.59 346.24,-755.52 347.41,-750.24"/>
<polygon fill="midnightblue" stroke="midnightblue" points="350.41,-748.43 342.53,-741.34 344.27,-751.8 350.41,-748.43"/>
</g>
<!-- Node27&#45;&gt;Node27 -->
<g id="edge55" class="edge">
<title>Node27&#45;&gt;Node27</title>
<path fill="none" stroke="midnightblue" d="M135.78,-581.45C133.09,-591.13 141.3,-599.59 160.41,-599.59 172.35,-599.59 180.04,-596.28 183.46,-591.44"/>
<polygon fill="midnightblue" stroke="midnightblue" points="186.94,-591.87 185.04,-581.45 180.02,-590.79 186.94,-591.87"/>
</g>
<!-- Node28&#45;&gt;Node28 -->
<g id="edge57" class="edge">
<title>Node28&#45;&gt;Node28</title>
<path fill="none" stroke="midnightblue" d="M137.06,-502.75C131.43,-512.14 139.21,-521.09 160.41,-521.09 173.33,-521.09 181.26,-517.77 184.22,-513.05"/>
<polygon fill="midnightblue" stroke="midnightblue" points="187.7,-512.58 183.76,-502.75 180.71,-512.89 187.7,-512.58"/>
</g>
</g>
</svg>
        <g id="navigator" transform="translate(0 0)" fill="#404254">
                <rect fill="#f2f5e9" fill-opacity="0.5" stroke="#606060" stroke-width=".5" x="0" y="0" width="60" height="60"/>
                <use id="zoomplus" xlink:href="#zoomPlus" x="17" y="9" onmousedown="handleZoom(evt,'in')"/>
                <use id="zoomminus" xlink:href="#zoomMin" x="42" y="9" onmousedown="handleZoom(evt,'out')"/>
                <use id="reset" xlink:href="#resetDef" x="30" y="36" onmousedown="handleReset()"/>
                <g id="arrowUp" xlink:href="#dirArrow" transform="translate(30 24)" onmousedown="handlePan(0,-1)">
                  <use xlink:href="#rim" fill="#404040">
                        <set attributeName="fill" to="#808080" begin="arrowUp.mouseover" end="arrowUp.mouseout"/>
                  </use>
                  <path fill="none" stroke="white" stroke-width="1.5" d="M0,-3.0v7 M-2.5,-0.5L0,-3.0L2.5,-0.5"/>
                </g>
                <g id="arrowRight" xlink:href="#dirArrow" transform="rotate(90) translate(36 -43)" onmousedown="handlePan(1,0)">
                  <use xlink:href="#rim" fill="#404040">
                        <set attributeName="fill" to="#808080" begin="arrowRight.mouseover" end="arrowRight.mouseout"/>
                  </use>
                  <path fill="none" stroke="white" stroke-width="1.5" d="M0,-3.0v7 M-2.5,-0.5L0,-3.0L2.5,-0.5"/>
                </g>
                <g id="arrowDown" xlink:href="#dirArrow" transform="rotate(180) translate(-30 -48)" onmousedown="handlePan(0,1)">
                  <use xlink:href="#rim" fill="#404040">
                        <set attributeName="fill" to="#808080" begin="arrowDown.mouseover" end="arrowDown.mouseout"/>
                  </use>
                  <path fill="none" stroke="white" stroke-width="1.5" d="M0,-3.0v7 M-2.5,-0.5L0,-3.0L2.5,-0.5"/>
                </g>
                <g id="arrowLeft" xlink:href="#dirArrow" transform="rotate(270) translate(-36 17)" onmousedown="handlePan(-1,0)">
                  <use xlink:href="#rim" fill="#404040">
                        <set attributeName="fill" to="#808080" begin="arrowLeft.mouseover" end="arrowLeft.mouseout"/>
                  </use>
                  <path fill="none" stroke="white" stroke-width="1.5" d="M0,-3.0v7 M-2.5,-0.5L0,-3.0L2.5,-0.5"/>
                </g>
        </g>
        <svg viewBox="0 0 15 15" width="100%" height="30px" preserveAspectRatio="xMaxYMin meet">
         <g id="arrow_out" transform="scale(0.3 0.3)">
          <a xlink:href="classrare_1_1components_1_1dialogs_1_1install__dialog_1_1_install_dialog_aa902973791e81c8c4542da337b86289b_cgraph_org.svg" target="_base">
           <rect id="button" ry="5" rx="5" y="6" x="6" height="38" width="38"
                fill="#f2f5e9" fill-opacity="0.5" stroke="#606060" stroke-width="1.0"/>
           <path id="arrow"
             d="M 11.500037,31.436501 C 11.940474,20.09759 22.043105,11.32322 32.158766,21.979434 L 37.068811,17.246167 C 37.068811,17.246167 37.088388,32 37.088388,32 L 22.160133,31.978069 C 22.160133,31.978069 26.997745,27.140456 26.997745,27.140456 C 18.528582,18.264221 13.291696,25.230495 11.500037,31.436501 z"
             style="fill:#404040;"/>
          </a>
         </g>
        </svg>
</svg>
