<?xml version="1.0" encoding="UTF-8" standalone="no"?>
<!DOCTYPE svg PUBLIC "-//W3C//DTD SVG 1.1//EN"
 "http://www.w3.org/Graphics/SVG/1.1/DTD/svg11.dtd">
<!-- Generated by graphviz version 2.49.3 (20211027.1534)
 -->
<!-- Title: RareCore.Worker Pages: 1 -->
<svg width="696pt" height="287pt"
 viewBox="0.00 0.00 695.50 287.00" xmlns="http://www.w3.org/2000/svg" xmlns:xlink="http://www.w3.org/1999/xlink">
<g id="graph0" class="graph" transform="scale(1 1) rotate(0) translate(4 283)">
<title>RareCore.Worker</title>
<polygon fill="white" stroke="transparent" points="-4,4 -4,-283 691.5,-283 691.5,4 -4,4"/>
<!-- Node1 -->
<g id="node1" class="node">
<title>Node1</title>
<g id="a_node1"><a xlink:title=" ">
<polygon fill="#bfbfbf" stroke="black" points="304,-94.5 304,-184.5 394,-184.5 394,-94.5 304,-94.5"/>
<text text-anchor="middle" x="349" y="-172.5" font-family="Helvetica,sans-Serif" font-size="10.00">RareCore.Worker</text>
<polyline fill="none" stroke="black" points="304,-165.5 394,-165.5 "/>
<text text-anchor="start" x="312" y="-153.5" font-family="Helvetica,sans-Serif" font-size="10.00">+ signals</text>
<text text-anchor="start" x="312" y="-142.5" font-family="Helvetica,sans-Serif" font-size="10.00">+ core</text>
<text text-anchor="start" x="312" y="-131.5" font-family="Helvetica,sans-Serif" font-size="10.00">+ args</text>
<polyline fill="none" stroke="black" points="304,-124.5 394,-124.5 "/>
<text text-anchor="start" x="312" y="-112.5" font-family="Helvetica,sans-Serif" font-size="10.00">+ __init__()</text>
<text text-anchor="start" x="312" y="-101.5" font-family="Helvetica,sans-Serif" font-size="10.00">+ run()</text>
</a>
</g>
</g>
<!-- Node3 -->
<g id="node3" class="node">
<title>Node3</title>
<g id="a_node3"><a xlink:href="classrare_1_1shared_1_1rare__core_1_1_rare_core_1_1_games_worker.html" target="_top" xlink:title=" ">
<polygon fill="white" stroke="black" points="0,-0.5 0,-57.5 122,-57.5 122,-0.5 0,-0.5"/>
<text text-anchor="middle" x="61" y="-45.5" font-family="Helvetica,sans-Serif" font-size="10.00">RareCore.GamesWorker</text>
<polyline fill="none" stroke="black" points="0,-38.5 122,-38.5 "/>
<text text-anchor="middle" x="61" y="-26.5" font-family="Helvetica,sans-Serif" font-size="10.00"> </text>
<polyline fill="none" stroke="black" points="0,-19.5 122,-19.5 "/>
<text text-anchor="start" x="8" y="-7.5" font-family="Helvetica,sans-Serif" font-size="10.00">+ run()</text>
</a>
</g>
</g>
<!-- Node1&#45;&gt;Node3 -->
<g id="edge2" class="edge">
<title>Node1&#45;&gt;Node3</title>
<path fill="none" stroke="midnightblue" d="M294.1,-118.69C249.92,-102.64 186.31,-79.27 131,-58 128.07,-56.87 125.07,-55.71 122.05,-54.53"/>
<polygon fill="none" stroke="midnightblue" points="293.18,-122.08 303.78,-122.2 295.57,-115.5 293.18,-122.08"/>
</g>
<!-- Node4 -->
<g id="node4" class="node">
<title>Node4</title>
<g id="a_node4"><a xlink:href="classrare_1_1shared_1_1rare__core_1_1_rare_core_1_1_mac_o_s_worker.html" target="_top" xlink:title=" ">
<polygon fill="white" stroke="black" points="140.5,-0.5 140.5,-57.5 263.5,-57.5 263.5,-0.5 140.5,-0.5"/>
<text text-anchor="middle" x="202" y="-45.5" font-family="Helvetica,sans-Serif" font-size="10.00">RareCore.MacOSWorker</text>
<polyline fill="none" stroke="black" points="140.5,-38.5 263.5,-38.5 "/>
<text text-anchor="middle" x="202" y="-26.5" font-family="Helvetica,sans-Serif" font-size="10.00"> </text>
<polyline fill="none" stroke="black" points="140.5,-19.5 263.5,-19.5 "/>
<text text-anchor="start" x="148.5" y="-7.5" font-family="Helvetica,sans-Serif" font-size="10.00">+ run()</text>
</a>
</g>
</g>
<!-- Node1&#45;&gt;Node4 -->
<g id="edge3" class="edge">
<title>Node1&#45;&gt;Node4</title>
<path fill="none" stroke="midnightblue" d="M295.58,-99.07C276.98,-85.35 256.53,-70.25 239.5,-57.68"/>
<polygon fill="none" stroke="midnightblue" points="293.57,-101.94 303.7,-105.06 297.73,-96.31 293.57,-101.94"/>
</g>
<!-- Node5 -->
<g id="node5" class="node">
<title>Node5</title>
<g id="a_node5"><a xlink:href="classrare_1_1shared_1_1rare__core_1_1_rare_core_1_1_non_asset_worker.html" target="_top" xlink:title=" ">
<polygon fill="white" stroke="black" points="282,-0.5 282,-57.5 416,-57.5 416,-0.5 282,-0.5"/>
<text text-anchor="middle" x="349" y="-45.5" font-family="Helvetica,sans-Serif" font-size="10.00">RareCore.NonAssetWorker</text>
<polyline fill="none" stroke="black" points="282,-38.5 416,-38.5 "/>
<text text-anchor="middle" x="349" y="-26.5" font-family="Helvetica,sans-Serif" font-size="10.00"> </text>
<polyline fill="none" stroke="black" points="282,-19.5 416,-19.5 "/>
<text text-anchor="start" x="290" y="-7.5" font-family="Helvetica,sans-Serif" font-size="10.00">+ run()</text>
</a>
</g>
</g>
<!-- Node1&#45;&gt;Node5 -->
<g id="edge4" class="edge">
<title>Node1&#45;&gt;Node5</title>
<path fill="none" stroke="midnightblue" d="M349,-84.35C349,-75.07 349,-65.79 349,-57.59"/>
<polygon fill="none" stroke="midnightblue" points="345.5,-84.37 349,-94.37 352.5,-84.37 345.5,-84.37"/>
</g>
<!-- Node6 -->
<g id="node6" class="node">
<title>Node6</title>
<g id="a_node6"><a xlink:href="classrare_1_1shared_1_1rare__core_1_1_rare_core_1_1_saves_worker.html" target="_top" xlink:title=" ">
<polygon fill="white" stroke="black" points="434,-0.5 434,-57.5 552,-57.5 552,-0.5 434,-0.5"/>
<text text-anchor="middle" x="493" y="-45.5" font-family="Helvetica,sans-Serif" font-size="10.00">RareCore.SavesWorker</text>
<polyline fill="none" stroke="black" points="434,-38.5 552,-38.5 "/>
<text text-anchor="middle" x="493" y="-26.5" font-family="Helvetica,sans-Serif" font-size="10.00"> </text>
<polyline fill="none" stroke="black" points="434,-19.5 552,-19.5 "/>
<text text-anchor="start" x="442" y="-7.5" font-family="Helvetica,sans-Serif" font-size="10.00">+ run()</text>
</a>
</g>
</g>
<!-- Node1&#45;&gt;Node6 -->
<g id="edge5" class="edge">
<title>Node1&#45;&gt;Node6</title>
<path fill="none" stroke="midnightblue" d="M402.27,-98.36C420.21,-84.85 439.81,-70.08 456.19,-57.74"/>
<polygon fill="none" stroke="midnightblue" points="400.05,-95.65 394.17,-104.47 404.26,-101.25 400.05,-95.65"/>
</g>
<!-- Node7 -->
<g id="node7" class="node">
<title>Node7</title>
<g id="a_node7"><a xlink:href="classrare_1_1shared_1_1rare__core_1_1_rare_core_1_1_win32_worker.html" target="_top" xlink:title=" ">
<polygon fill="white" stroke="black" points="570.5,-0.5 570.5,-57.5 687.5,-57.5 687.5,-0.5 570.5,-0.5"/>
<text text-anchor="middle" x="629" y="-45.5" font-family="Helvetica,sans-Serif" font-size="10.00">RareCore.Win32Worker</text>
<polyline fill="none" stroke="black" points="570.5,-38.5 687.5,-38.5 "/>
<text text-anchor="middle" x="629" y="-26.5" font-family="Helvetica,sans-Serif" font-size="10.00"> </text>
<polyline fill="none" stroke="black" points="570.5,-19.5 687.5,-19.5 "/>
<text text-anchor="start" x="578.5" y="-7.5" font-family="Helvetica,sans-Serif" font-size="10.00">+ run()</text>
</a>
</g>
</g>
<!-- Node1&#45;&gt;Node7 -->
<g id="edge6" class="edge">
<title>Node1&#45;&gt;Node7</title>
<path fill="none" stroke="midnightblue" d="M403.63,-118.23C446.54,-102.2 507.74,-79.07 561,-58 564.09,-56.78 567.25,-55.52 570.44,-54.23"/>
<polygon fill="none" stroke="midnightblue" points="402.36,-114.97 394.22,-121.74 404.81,-121.53 402.36,-114.97"/>
</g>
<!-- Node2 -->
<g id="node2" class="node">
<title>Node2</title>
<g id="a_node2"><a xlink:title=" ">
<polygon fill="white" stroke="#bfbfbf" points="316.5,-221.5 316.5,-278.5 381.5,-278.5 381.5,-221.5 316.5,-221.5"/>
<text text-anchor="middle" x="349" y="-266.5" font-family="Helvetica,sans-Serif" font-size="10.00">QRunnable</text>
<polyline fill="none" stroke="#bfbfbf" points="316.5,-259.5 381.5,-259.5 "/>
<text text-anchor="middle" x="349" y="-247.5" font-family="Helvetica,sans-Serif" font-size="10.00"> </text>
<polyline fill="none" stroke="#bfbfbf" points="316.5,-240.5 381.5,-240.5 "/>
<text text-anchor="middle" x="349" y="-228.5" font-family="Helvetica,sans-Serif" font-size="10.00"> </text>
</a>
</g>
</g>
<!-- Node2&#45;&gt;Node1 -->
<g id="edge1" class="edge">
<title>Node2&#45;&gt;Node1</title>
<path fill="none" stroke="midnightblue" d="M349,-211.21C349,-202.61 349,-193.39 349,-184.55"/>
<polygon fill="none" stroke="midnightblue" points="345.5,-211.34 349,-221.34 352.5,-211.34 345.5,-211.34"/>
</g>
</g>
</svg>
