<?xml version="1.0" encoding="UTF-8" standalone="no"?>
<!DOCTYPE svg PUBLIC "-//W3C//DTD SVG 1.1//EN"
 "http://www.w3.org/Graphics/SVG/1.1/DTD/svg11.dtd">
<!-- Generated by graphviz version 2.49.3 (20211027.1534)
 -->
<!-- Title: RareGameBase Pages: 1 -->
<svg width="252pt" height="843pt"
 viewBox="0.00 0.00 252.00 843.00" xmlns="http://www.w3.org/2000/svg" xmlns:xlink="http://www.w3.org/1999/xlink">
<g id="graph0" class="graph" transform="scale(1 1) rotate(0) translate(4 839)">
<title>RareGameBase</title>
<polygon fill="white" stroke="transparent" points="-4,4 -4,-839 248,-839 248,4 -4,4"/>
<!-- Node1 -->
<g id="node1" class="node">
<title>Node1</title>
<g id="a_node1"><a xlink:title=" ">
<polygon fill="#bfbfbf" stroke="black" points="86,-540.5 86,-740.5 172,-740.5 172,-540.5 86,-540.5"/>
<text text-anchor="middle" x="129" y="-728.5" font-family="Helvetica,sans-Serif" font-size="10.00">RareGameBase</text>
<polyline fill="none" stroke="black" points="86,-721.5 172,-721.5 "/>
<text text-anchor="start" x="94" y="-709.5" font-family="Helvetica,sans-Serif" font-size="10.00">+ signals</text>
<text text-anchor="start" x="94" y="-698.5" font-family="Helvetica,sans-Serif" font-size="10.00">+ core</text>
<text text-anchor="start" x="94" y="-687.5" font-family="Helvetica,sans-Serif" font-size="10.00">+ state</text>
<text text-anchor="start" x="94" y="-676.5" font-family="Helvetica,sans-Serif" font-size="10.00">+ app_name</text>
<polyline fill="none" stroke="black" points="86,-669.5 172,-669.5 "/>
<text text-anchor="start" x="94" y="-657.5" font-family="Helvetica,sans-Serif" font-size="10.00">+ __init__()</text>
<text text-anchor="start" x="94" y="-646.5" font-family="Helvetica,sans-Serif" font-size="10.00">+ __del__()</text>
<text text-anchor="start" x="94" y="-635.5" font-family="Helvetica,sans-Serif" font-size="10.00">+ state()</text>
<text text-anchor="start" x="94" y="-624.5" font-family="Helvetica,sans-Serif" font-size="10.00">+ state()</text>
<text text-anchor="start" x="94" y="-613.5" font-family="Helvetica,sans-Serif" font-size="10.00">+ is_idle()</text>
<text text-anchor="start" x="94" y="-602.5" font-family="Helvetica,sans-Serif" font-size="10.00">+ app_name()</text>
<text text-anchor="start" x="94" y="-591.5" font-family="Helvetica,sans-Serif" font-size="10.00">+ app_title()</text>
<text text-anchor="start" x="94" y="-580.5" font-family="Helvetica,sans-Serif" font-size="10.00">+ is_installed()</text>
<text text-anchor="start" x="94" y="-569.5" font-family="Helvetica,sans-Serif" font-size="10.00">+ set_installed()</text>
<text text-anchor="start" x="94" y="-558.5" font-family="Helvetica,sans-Serif" font-size="10.00">+ platforms()</text>
<text text-anchor="start" x="94" y="-547.5" font-family="Helvetica,sans-Serif" font-size="10.00">and 10 more...</text>
</a>
</g>
</g>
<!-- Node3 -->
<g id="node3" class="node">
<title>Node3</title>
<g id="a_node3"><a xlink:href="classrare_1_1models_1_1base__game_1_1_rare_game_slim.html" target="_top" xlink:title=" ">
<polygon fill="white" stroke="black" points="0,-292.5 0,-503.5 128,-503.5 128,-292.5 0,-292.5"/>
<text text-anchor="middle" x="64" y="-491.5" font-family="Helvetica,sans-Serif" font-size="10.00">RareGameSlim</text>
<polyline fill="none" stroke="black" points="0,-484.5 128,-484.5 "/>
<text text-anchor="start" x="8" y="-472.5" font-family="Helvetica,sans-Serif" font-size="10.00">+ state</text>
<polyline fill="none" stroke="black" points="0,-465.5 128,-465.5 "/>
<text text-anchor="start" x="8" y="-453.5" font-family="Helvetica,sans-Serif" font-size="10.00">+ __init__()</text>
<text text-anchor="start" x="8" y="-442.5" font-family="Helvetica,sans-Serif" font-size="10.00">+ is_installed()</text>
<text text-anchor="start" x="8" y="-431.5" font-family="Helvetica,sans-Serif" font-size="10.00">+ set_installed()</text>
<text text-anchor="start" x="8" y="-420.5" font-family="Helvetica,sans-Serif" font-size="10.00">+ auto_sync_saves()</text>
<text text-anchor="start" x="8" y="-409.5" font-family="Helvetica,sans-Serif" font-size="10.00">+ save_path()</text>
<text text-anchor="start" x="8" y="-398.5" font-family="Helvetica,sans-Serif" font-size="10.00">+ latest_save()</text>
<text text-anchor="start" x="8" y="-387.5" font-family="Helvetica,sans-Serif" font-size="10.00">+ save_game_state()</text>
<text text-anchor="start" x="8" y="-376.5" font-family="Helvetica,sans-Serif" font-size="10.00">+ upload_saves()</text>
<text text-anchor="start" x="8" y="-365.5" font-family="Helvetica,sans-Serif" font-size="10.00">+ download_saves()</text>
<text text-anchor="start" x="8" y="-354.5" font-family="Helvetica,sans-Serif" font-size="10.00">+ load_saves()</text>
<text text-anchor="start" x="8" y="-343.5" font-family="Helvetica,sans-Serif" font-size="10.00">+ update_saves()</text>
<text text-anchor="start" x="8" y="-332.5" font-family="Helvetica,sans-Serif" font-size="10.00">+ is_save_up_to_date()</text>
<text text-anchor="start" x="8" y="-321.5" font-family="Helvetica,sans-Serif" font-size="10.00">+ raw_save_path()</text>
<text text-anchor="start" x="8" y="-310.5" font-family="Helvetica,sans-Serif" font-size="10.00">+ raw_save_path_mac()</text>
<text text-anchor="start" x="8" y="-299.5" font-family="Helvetica,sans-Serif" font-size="10.00">+ supports_cloud_saves()</text>
</a>
</g>
</g>
<!-- Node1&#45;&gt;Node3 -->
<g id="edge2" class="edge">
<title>Node1&#45;&gt;Node3</title>
<path fill="none" stroke="midnightblue" d="M99.5,-530.36C97.12,-521.53 94.71,-512.62 92.33,-503.82"/>
<polygon fill="none" stroke="midnightblue" points="96.2,-531.55 102.19,-540.29 102.96,-529.72 96.2,-531.55"/>
</g>
<!-- Node5 -->
<g id="node5" class="node">
<title>Node5</title>
<g id="a_node5"><a xlink:href="classrare_1_1models_1_1game_1_1_rare_eos_overlay.html" target="_top" xlink:title=" ">
<polygon fill="white" stroke="black" points="146,-314.5 146,-481.5 244,-481.5 244,-314.5 146,-314.5"/>
<text text-anchor="middle" x="195" y="-469.5" font-family="Helvetica,sans-Serif" font-size="10.00">RareEosOverlay</text>
<polyline fill="none" stroke="black" points="146,-462.5 244,-462.5 "/>
<text text-anchor="start" x="154" y="-450.5" font-family="Helvetica,sans-Serif" font-size="10.00">+ igame</text>
<polyline fill="none" stroke="black" points="146,-443.5 244,-443.5 "/>
<text text-anchor="start" x="154" y="-431.5" font-family="Helvetica,sans-Serif" font-size="10.00">+ __init__()</text>
<text text-anchor="start" x="154" y="-420.5" font-family="Helvetica,sans-Serif" font-size="10.00">+ is_installed()</text>
<text text-anchor="start" x="154" y="-409.5" font-family="Helvetica,sans-Serif" font-size="10.00">+ set_installed()</text>
<text text-anchor="start" x="154" y="-398.5" font-family="Helvetica,sans-Serif" font-size="10.00">+ has_update()</text>
<text text-anchor="start" x="154" y="-387.5" font-family="Helvetica,sans-Serif" font-size="10.00">+ is_enabled()</text>
<text text-anchor="start" x="154" y="-376.5" font-family="Helvetica,sans-Serif" font-size="10.00">+ active_path()</text>
<text text-anchor="start" x="154" y="-365.5" font-family="Helvetica,sans-Serif" font-size="10.00">+ available_paths()</text>
<text text-anchor="start" x="154" y="-354.5" font-family="Helvetica,sans-Serif" font-size="10.00">+ enable()</text>
<text text-anchor="start" x="154" y="-343.5" font-family="Helvetica,sans-Serif" font-size="10.00">+ disable()</text>
<text text-anchor="start" x="154" y="-332.5" font-family="Helvetica,sans-Serif" font-size="10.00">+ install()</text>
<text text-anchor="start" x="154" y="-321.5" font-family="Helvetica,sans-Serif" font-size="10.00">+ uninstall()</text>
</a>
</g>
</g>
<!-- Node1&#45;&gt;Node5 -->
<g id="edge4" class="edge">
<title>Node1&#45;&gt;Node5</title>
<path fill="none" stroke="midnightblue" d="M158.88,-530.62C163.41,-514.13 168.01,-497.35 172.35,-481.53"/>
<polygon fill="none" stroke="midnightblue" points="155.5,-529.72 156.23,-540.29 162.25,-531.57 155.5,-529.72"/>
</g>
<!-- Node2 -->
<g id="node2" class="node">
<title>Node2</title>
<g id="a_node2"><a xlink:title=" ">
<polygon fill="white" stroke="#bfbfbf" points="102.5,-777.5 102.5,-834.5 155.5,-834.5 155.5,-777.5 102.5,-777.5"/>
<text text-anchor="middle" x="129" y="-822.5" font-family="Helvetica,sans-Serif" font-size="10.00">QObject</text>
<polyline fill="none" stroke="#bfbfbf" points="102.5,-815.5 155.5,-815.5 "/>
<text text-anchor="middle" x="129" y="-803.5" font-family="Helvetica,sans-Serif" font-size="10.00"> </text>
<polyline fill="none" stroke="#bfbfbf" points="102.5,-796.5 155.5,-796.5 "/>
<text text-anchor="middle" x="129" y="-784.5" font-family="Helvetica,sans-Serif" font-size="10.00"> </text>
</a>
</g>
</g>
<!-- Node2&#45;&gt;Node1 -->
<g id="edge1" class="edge">
<title>Node2&#45;&gt;Node1</title>
<path fill="none" stroke="midnightblue" d="M129,-767.04C129,-758.87 129,-749.87 129,-740.55"/>
<polygon fill="none" stroke="midnightblue" points="125.5,-767.26 129,-777.26 132.5,-767.26 125.5,-767.26"/>
</g>
<!-- Node4 -->
<g id="node4" class="node">
<title>Node4</title>
<g id="a_node4"><a xlink:href="classrare_1_1models_1_1game_1_1_rare_game.html" target="_top" xlink:title=" ">
<polygon fill="white" stroke="black" points="17,-0.5 17,-255.5 111,-255.5 111,-0.5 17,-0.5"/>
<text text-anchor="middle" x="64" y="-243.5" font-family="Helvetica,sans-Serif" font-size="10.00">RareGame</text>
<polyline fill="none" stroke="black" points="17,-236.5 111,-236.5 "/>
<text text-anchor="start" x="25" y="-224.5" font-family="Helvetica,sans-Serif" font-size="10.00">+ image_manager</text>
<text text-anchor="start" x="25" y="-213.5" font-family="Helvetica,sans-Serif" font-size="10.00">+ game_process</text>
<text text-anchor="start" x="25" y="-202.5" font-family="Helvetica,sans-Serif" font-size="10.00">+ progress</text>
<text text-anchor="start" x="25" y="-191.5" font-family="Helvetica,sans-Serif" font-size="10.00">+ state</text>
<text text-anchor="start" x="25" y="-180.5" font-family="Helvetica,sans-Serif" font-size="10.00">+ metadata</text>
<text text-anchor="start" x="25" y="-169.5" font-family="Helvetica,sans-Serif" font-size="10.00">+ game</text>
<text text-anchor="start" x="25" y="-158.5" font-family="Helvetica,sans-Serif" font-size="10.00">+ igame</text>
<text text-anchor="start" x="25" y="-147.5" font-family="Helvetica,sans-Serif" font-size="10.00">+ pixmap</text>
<text text-anchor="start" x="25" y="-136.5" font-family="Helvetica,sans-Serif" font-size="10.00">+ Lock</text>
<polyline fill="none" stroke="black" points="17,-129.5 111,-129.5 "/>
<text text-anchor="start" x="25" y="-117.5" font-family="Helvetica,sans-Serif" font-size="10.00">+ __init__()</text>
<text text-anchor="start" x="25" y="-106.5" font-family="Helvetica,sans-Serif" font-size="10.00">+ add_dlc()</text>
<text text-anchor="start" x="25" y="-95.5" font-family="Helvetica,sans-Serif" font-size="10.00">+ worker()</text>
<text text-anchor="start" x="25" y="-84.5" font-family="Helvetica,sans-Serif" font-size="10.00">+ set_worker()</text>
<text text-anchor="start" x="25" y="-73.5" font-family="Helvetica,sans-Serif" font-size="10.00">+ update_game()</text>
<text text-anchor="start" x="25" y="-62.5" font-family="Helvetica,sans-Serif" font-size="10.00">+ update_igame()</text>
<text text-anchor="start" x="25" y="-51.5" font-family="Helvetica,sans-Serif" font-size="10.00">+ store_igame()</text>
<text text-anchor="start" x="25" y="-40.5" font-family="Helvetica,sans-Serif" font-size="10.00">+ update_rgame()</text>
<text text-anchor="start" x="25" y="-29.5" font-family="Helvetica,sans-Serif" font-size="10.00">+ developer()</text>
<text text-anchor="start" x="25" y="-18.5" font-family="Helvetica,sans-Serif" font-size="10.00">+ install_size()</text>
<text text-anchor="start" x="25" y="-7.5" font-family="Helvetica,sans-Serif" font-size="10.00">and 34 more...</text>
</a>
</g>
</g>
<!-- Node3&#45;&gt;Node4 -->
<g id="edge3" class="edge">
<title>Node3&#45;&gt;Node4</title>
<path fill="none" stroke="midnightblue" d="M64,-282.01C64,-273.24 64,-264.37 64,-255.54"/>
<polygon fill="none" stroke="midnightblue" points="60.5,-282.23 64,-292.23 67.5,-282.23 60.5,-282.23"/>
</g>
</g>
</svg>
