<?xml version="1.0" encoding="UTF-8" standalone="no"?>
<!DOCTYPE svg PUBLIC "-//W3C//DTD SVG 1.1//EN"
 "http://www.w3.org/Graphics/SVG/1.1/DTD/svg11.dtd">
<!-- Generated by graphviz version 2.49.3 (20211027.1534)
 -->
<!-- Title: update_notice_enabled Pages: 1 -->
<svg width="417pt" height="57pt"
 viewBox="0.00 0.00 417.00 57.00" xmlns="http://www.w3.org/2000/svg" xmlns:xlink="http://www.w3.org/1999/xlink">
<g id="graph0" class="graph" transform="scale(1 1) rotate(0) translate(4 53)">
<title>update_notice_enabled</title>
<polygon fill="white" stroke="transparent" points="-4,4 -4,-53 413,-53 413,4 -4,4"/>
<!-- Node1 -->
<g id="node1" class="node">
<title>Node1</title>
<g id="a_node1"><a xlink:title=" ">
<polygon fill="#bfbfbf" stroke="black" points="0,-6 0,-25 116,-25 116,-6 0,-6"/>
<text text-anchor="middle" x="58" y="-13" font-family="Helvetica,sans-Serif" font-size="10.00">update_notice_enabled</text>
</a>
</g>
</g>
<!-- Node1&#45;&gt;Node1 -->
<g id="edge5" class="edge">
<title>Node1&#45;&gt;Node1</title>
<path fill="none" stroke="midnightblue" d="M34.88,-25.26C23.63,-34.07 31.34,-43.5 58,-43.5 75.5,-43.5 84.83,-39.44 86,-34.15"/>
<polygon fill="midnightblue" stroke="midnightblue" points="89,-32.34 81.12,-25.26 82.86,-35.71 89,-32.34"/>
</g>
<!-- Node2 -->
<g id="node2" class="node">
<title>Node2</title>
<g id="a_node2"><a xlink:href="namespacelegendary_1_1utils_1_1env.html#ae5ab4865a6e0a347117b219e32f11826" target="_top" xlink:title=" ">
<polygon fill="white" stroke="black" points="152,-0.5 152,-30.5 267,-30.5 267,-0.5 152,-0.5"/>
<text text-anchor="start" x="160" y="-18.5" font-family="Helvetica,sans-Serif" font-size="10.00">legendary.utils.env.is</text>
<text text-anchor="middle" x="209.5" y="-7.5" font-family="Helvetica,sans-Serif" font-size="10.00">_windows_mac_or_pyi</text>
</a>
</g>
</g>
<!-- Node1&#45;&gt;Node2 -->
<g id="edge1" class="edge">
<title>Node1&#45;&gt;Node2</title>
<path fill="none" stroke="midnightblue" d="M116.37,-15.5C124.57,-15.5 133.06,-15.5 141.42,-15.5"/>
<polygon fill="midnightblue" stroke="midnightblue" points="141.53,-19 151.53,-15.5 141.53,-12 141.53,-19"/>
</g>
<!-- Node2&#45;&gt;Node2 -->
<g id="edge4" class="edge">
<title>Node2&#45;&gt;Node2</title>
<path fill="none" stroke="midnightblue" d="M184.06,-30.66C177.92,-40.06 186.4,-49 209.5,-49 223.58,-49 232.22,-45.68 235.44,-40.96"/>
<polygon fill="midnightblue" stroke="midnightblue" points="238.92,-40.48 234.94,-30.66 231.93,-40.82 238.92,-40.48"/>
</g>
<!-- Node3 -->
<g id="node3" class="node">
<title>Node3</title>
<g id="a_node3"><a xlink:href="namespacelegendary_1_1utils_1_1env.html#aec36b5e006a809a5b878159326d8aef1" target="_top" xlink:title=" ">
<polygon fill="white" stroke="black" points="303,-0.5 303,-30.5 409,-30.5 409,-0.5 303,-0.5"/>
<text text-anchor="start" x="311" y="-18.5" font-family="Helvetica,sans-Serif" font-size="10.00">legendary.utils.env.is</text>
<text text-anchor="middle" x="356" y="-7.5" font-family="Helvetica,sans-Serif" font-size="10.00">_pyinstaller</text>
</a>
</g>
</g>
<!-- Node2&#45;&gt;Node3 -->
<g id="edge2" class="edge">
<title>Node2&#45;&gt;Node3</title>
<path fill="none" stroke="midnightblue" d="M267.2,-15.5C275.51,-15.5 284.12,-15.5 292.55,-15.5"/>
<polygon fill="midnightblue" stroke="midnightblue" points="292.71,-19 302.71,-15.5 292.71,-12 292.71,-19"/>
</g>
<!-- Node3&#45;&gt;Node3 -->
<g id="edge3" class="edge">
<title>Node3&#45;&gt;Node3</title>
<path fill="none" stroke="midnightblue" d="M330.56,-30.66C324.42,-40.06 332.9,-49 356,-49 370.08,-49 378.72,-45.68 381.94,-40.96"/>
<polygon fill="midnightblue" stroke="midnightblue" points="385.42,-40.48 381.44,-30.66 378.43,-40.82 385.42,-40.48"/>
</g>
</g>
</svg>
