<?xml version="1.0" encoding="UTF-8" standalone="no"?>
<!DOCTYPE svg PUBLIC "-//W3C//DTD SVG 1.1//EN"
 "http://www.w3.org/Graphics/SVG/1.1/DTD/svg11.dtd">
<!-- Generated by graphviz version 2.49.3 (20211027.1534)
 -->
<!-- Title: add_to_wishlist Pages: 1 -->
<!--zoomable 297 -->
<svg id="main" version="1.1" xmlns="http://www.w3.org/2000/svg" xmlns:xlink="http://www.w3.org/1999/xlink" xml:space="preserve" onload="init(evt)">
<style type="text/css"><![CDATA[
.edge:hover path { stroke: red; }
.edge:hover polygon { stroke: red; fill: red; }
]]></style>
<script type="text/javascript"><![CDATA[
var edges = document.getElementsByTagName('g');
if (edges && edges.length) {
  for (var i=0;i<edges.length;i++) {
    if (edges[i].id.substr(0,4)=='edge') {
      edges[i].setAttribute('class','edge');
    }
  }
}
]]></script>
        <defs>
                <circle id="rim" cx="0" cy="0" r="7"/>
                <circle id="rim2" cx="0" cy="0" r="3.5"/>
                <g id="zoomPlus">
                        <use xlink:href="#rim" fill="#404040">
                                <set attributeName="fill" to="#808080" begin="zoomplus.mouseover" end="zoomplus.mouseout"/>
                        </use>
                        <path d="M-4,0h8M0,-4v8" fill="none" stroke="white" stroke-width="1.5" pointer-events="none"/>
                </g>
                <g id="zoomMin">
                        <use xlink:href="#rim" fill="#404040">
                                <set attributeName="fill" to="#808080" begin="zoomminus.mouseover" end="zoomminus.mouseout"/>
                        </use>
                        <path d="M-4,0h8" fill="none" stroke="white" stroke-width="1.5" pointer-events="none"/>
                </g>
                <g id="dirArrow">
                        <path fill="none" stroke="white" stroke-width="1.5" d="M0,-3.0v7 M-2.5,-0.5L0,-3.0L2.5,-0.5"/>
                </g>
               <g id="resetDef">
                       <use xlink:href="#rim2" fill="#404040">
                               <set attributeName="fill" to="#808080" begin="reset.mouseover" end="reset.mouseout"/>
                       </use>
               </g>
        </defs>

<script type="text/javascript">
var viewWidth = 1360;
var viewHeight = 297;
var sectionId = 'dynsection-4';
</script>
<script xlink:href="svgpan.js"/>
<svg id="graph" class="graph">
<g id="viewport">
<title>add_to_wishlist</title>
<polygon fill="white" stroke="transparent" points="-4,4 -4,-293.39 1356,-293.39 1356,4 -4,4"/>
<!-- Node1 -->
<g id="node1" class="node">
<title>Node1</title>
<g id="a_node1"><a xlink:title=" ">
<polygon fill="#bfbfbf" stroke="black" points="0,-200.89 0,-219.89 84,-219.89 84,-200.89 0,-200.89"/>
<text text-anchor="middle" x="42" y="-207.89" font-family="Helvetica,sans-Serif" font-size="10.00">add_to_wishlist</text>
</a>
</g>
</g>
<!-- Node1&#45;&gt;Node1 -->
<g id="edge2" class="edge">
<title>Node1&#45;&gt;Node1</title>
<path fill="none" stroke="midnightblue" d="M17.03,-220.15C4.88,-228.96 13.21,-238.39 42,-238.39 61.35,-238.39 71.45,-234.13 72.31,-228.67"/>
<polygon fill="midnightblue" stroke="midnightblue" points="75.25,-226.76 66.97,-220.15 69.32,-230.48 75.25,-226.76"/>
</g>
<!-- Node2 -->
<g id="node2" class="node">
<title>Node2</title>
<g id="a_node2"><a xlink:href="classrare_1_1components_1_1tabs_1_1store_1_1shop__api__core_1_1_shop_api_core.html#a5761a8418d2a60a789a61533e9560865" target="_top" xlink:title=" ">
<polygon fill="white" stroke="black" points="144,-269.89 144,-288.89 267,-288.89 267,-269.89 144,-269.89"/>
<text text-anchor="middle" x="205.5" y="-276.89" font-family="Helvetica,sans-Serif" font-size="10.00">_handle_add_to_wishlist</text>
</a>
</g>
</g>
<!-- Node1&#45;&gt;Node2 -->
<g id="edge1" class="edge">
<title>Node1&#45;&gt;Node2</title>
<path fill="none" stroke="midnightblue" d="M56.91,-219.98C71.91,-229.96 96.78,-245.5 120,-255.39 130.53,-259.88 142.14,-263.8 153.3,-267.09"/>
<polygon fill="midnightblue" stroke="midnightblue" points="152.38,-270.47 162.95,-269.83 154.28,-263.73 152.38,-270.47"/>
</g>
<!-- Node3 -->
<g id="node3" class="node">
<title>Node3</title>
<g id="a_node3"><a xlink:href="classrare_1_1components_1_1tabs_1_1store_1_1_shop.html#a1588283f05f1e5890f0e0dab63904ece" target="_top" xlink:title=" ">
<polygon fill="white" stroke="black" points="751.5,-204.39 751.5,-234.39 887.5,-234.39 887.5,-204.39 751.5,-204.39"/>
<text text-anchor="start" x="759.5" y="-222.39" font-family="Helvetica,sans-Serif" font-size="10.00">rare.components.tabs.store.</text>
<text text-anchor="middle" x="819.5" y="-211.39" font-family="Helvetica,sans-Serif" font-size="10.00">Shop.update_wishlist</text>
</a>
</g>
</g>
<!-- Node1&#45;&gt;Node3 -->
<g id="edge3" class="edge">
<title>Node1&#45;&gt;Node3</title>
<path fill="none" stroke="midnightblue" d="M84.02,-217.99C95.61,-219.81 108.26,-221.48 120,-222.39 379.22,-242.47 445.02,-225.83 705,-222.39 716.7,-222.24 729.08,-221.99 741.2,-221.71"/>
<polygon fill="midnightblue" stroke="midnightblue" points="741.38,-225.21 751.29,-221.46 741.2,-218.21 741.38,-225.21"/>
</g>
<!-- Node4 -->
<g id="node4" class="node">
<title>Node4</title>
<g id="a_node4"><a xlink:href="classrare_1_1components_1_1tabs_1_1store_1_1shop__widget_1_1_shop_widget.html#a1588283f05f1e5890f0e0dab63904ece" target="_top" xlink:title=" ">
<polygon fill="white" stroke="black" points="741,-104.89 741,-145.89 898,-145.89 898,-104.89 741,-104.89"/>
<text text-anchor="start" x="749" y="-133.89" font-family="Helvetica,sans-Serif" font-size="10.00">rare.components.tabs.store.shop</text>
<text text-anchor="start" x="749" y="-122.89" font-family="Helvetica,sans-Serif" font-size="10.00">_widget.ShopWidget.update</text>
<text text-anchor="middle" x="819.5" y="-111.89" font-family="Helvetica,sans-Serif" font-size="10.00">_wishlist</text>
</a>
</g>
</g>
<!-- Node1&#45;&gt;Node4 -->
<g id="edge5" class="edge">
<title>Node1&#45;&gt;Node4</title>
<path fill="none" stroke="midnightblue" d="M54.28,-200.63C68.69,-188.58 94.78,-168.13 120,-155.39 292.75,-68.13 342.86,-50.77 534,-20.39 609.06,-8.46 639.77,18.61 705,-20.39 734.01,-37.74 716.66,-63.94 741,-87.39 745.6,-91.83 750.82,-95.84 756.33,-99.45"/>
<polygon fill="midnightblue" stroke="midnightblue" points="754.8,-102.61 765.17,-104.78 758.42,-96.62 754.8,-102.61"/>
</g>
<!-- Node7 -->
<g id="node7" class="node">
<title>Node7</title>
<g id="a_node7"><a xlink:href="classrare_1_1components_1_1tabs_1_1store_1_1wishlist_1_1_wishlist.html#a1588283f05f1e5890f0e0dab63904ece" target="_top" xlink:title=" ">
<polygon fill="white" stroke="black" points="120,-164.39 120,-194.39 291,-194.39 291,-164.39 120,-164.39"/>
<text text-anchor="start" x="128" y="-182.39" font-family="Helvetica,sans-Serif" font-size="10.00">rare.components.tabs.store.wishlist.</text>
<text text-anchor="middle" x="205.5" y="-171.39" font-family="Helvetica,sans-Serif" font-size="10.00">Wishlist.update_wishlist</text>
</a>
</g>
</g>
<!-- Node1&#45;&gt;Node7 -->
<g id="edge12" class="edge">
<title>Node1&#45;&gt;Node7</title>
<path fill="none" stroke="midnightblue" d="M84.17,-202.49C94.15,-200.58 105.19,-198.46 116.43,-196.3"/>
<polygon fill="midnightblue" stroke="midnightblue" points="117.17,-199.72 126.33,-194.4 115.85,-192.85 117.17,-199.72"/>
</g>
<!-- Node3&#45;&gt;Node3 -->
<g id="edge4" class="edge">
<title>Node3&#45;&gt;Node3</title>
<path fill="none" stroke="midnightblue" d="M784.65,-234.55C776.24,-243.95 787.86,-252.89 819.5,-252.89 838.78,-252.89 850.63,-249.57 855.04,-244.85"/>
<polygon fill="midnightblue" stroke="midnightblue" points="858.51,-244.3 854.35,-234.55 851.52,-244.76 858.51,-244.3"/>
</g>
<!-- Node4&#45;&gt;Node4 -->
<g id="edge11" class="edge">
<title>Node4&#45;&gt;Node4</title>
<path fill="none" stroke="midnightblue" d="M782.74,-146.26C778.73,-155.94 790.98,-164.39 819.5,-164.39 837.32,-164.39 848.79,-161.09 853.91,-156.25"/>
<polygon fill="midnightblue" stroke="midnightblue" points="857.38,-156.79 856.26,-146.26 850.56,-155.19 857.38,-156.79"/>
</g>
<!-- Node5 -->
<g id="node5" class="node">
<title>Node5</title>
<g id="a_node5"><a xlink:href="classrare_1_1components_1_1tabs_1_1store_1_1game__info_1_1_shop_game_info.html#a3fc8c31e9c09c30d1480d83be79cd5bd" target="_top" xlink:title=" ">
<polygon fill="white" stroke="black" points="1161,-114.39 1161,-144.39 1352,-144.39 1352,-114.39 1161,-114.39"/>
<text text-anchor="start" x="1169" y="-132.39" font-family="Helvetica,sans-Serif" font-size="10.00">rare.components.tabs.store.game</text>
<text text-anchor="middle" x="1256.5" y="-121.39" font-family="Helvetica,sans-Serif" font-size="10.00">_info.ShopGameInfo.add_wishlist_items</text>
</a>
</g>
</g>
<!-- Node4&#45;&gt;Node5 -->
<g id="edge6" class="edge">
<title>Node4&#45;&gt;Node5</title>
<path fill="none" stroke="midnightblue" d="M898.1,-125.72C959.63,-126.02 1047.82,-126.55 1125,-127.39 1133.31,-127.48 1141.91,-127.59 1150.55,-127.7"/>
<polygon fill="midnightblue" stroke="midnightblue" points="1150.66,-131.21 1160.7,-127.84 1150.75,-124.21 1150.66,-131.21"/>
</g>
<!-- Node6 -->
<g id="node6" class="node">
<title>Node6</title>
<g id="a_node6"><a xlink:href="classrare_1_1components_1_1tabs_1_1store_1_1shop__widget_1_1_shop_widget.html#a3fc8c31e9c09c30d1480d83be79cd5bd" target="_top" xlink:title=" ">
<polygon fill="white" stroke="black" points="934,-136.39 934,-166.39 1125,-166.39 1125,-136.39 934,-136.39"/>
<text text-anchor="start" x="942" y="-154.39" font-family="Helvetica,sans-Serif" font-size="10.00">rare.components.tabs.store.shop</text>
<text text-anchor="middle" x="1029.5" y="-143.39" font-family="Helvetica,sans-Serif" font-size="10.00">_widget.ShopWidget.add_wishlist_items</text>
</a>
</g>
</g>
<!-- Node4&#45;&gt;Node6 -->
<g id="edge8" class="edge">
<title>Node4&#45;&gt;Node6</title>
<path fill="none" stroke="midnightblue" d="M898.25,-135.11C906.62,-136.16 915.24,-137.24 923.87,-138.31"/>
<polygon fill="midnightblue" stroke="midnightblue" points="923.63,-141.81 933.98,-139.58 924.49,-134.86 923.63,-141.81"/>
</g>
<!-- Node5&#45;&gt;Node5 -->
<g id="edge7" class="edge">
<title>Node5&#45;&gt;Node5</title>
<path fill="none" stroke="midnightblue" d="M1217.11,-144.55C1207.62,-153.95 1220.75,-162.89 1256.5,-162.89 1278.29,-162.89 1291.67,-159.57 1296.66,-154.85"/>
<polygon fill="midnightblue" stroke="midnightblue" points="1300.12,-154.26 1295.89,-144.55 1293.14,-154.79 1300.12,-154.26"/>
</g>
<!-- Node6&#45;&gt;Node5 -->
<g id="edge9" class="edge">
<title>Node6&#45;&gt;Node5</title>
<path fill="none" stroke="midnightblue" d="M1125.27,-142.13C1133.73,-141.3 1142.32,-140.46 1150.86,-139.62"/>
<polygon fill="midnightblue" stroke="midnightblue" points="1151.23,-143.1 1160.84,-138.65 1150.55,-136.14 1151.23,-143.1"/>
</g>
<!-- Node6&#45;&gt;Node6 -->
<g id="edge10" class="edge">
<title>Node6&#45;&gt;Node6</title>
<path fill="none" stroke="midnightblue" d="M992.9,-166.55C984.08,-175.95 996.28,-184.89 1029.5,-184.89 1049.75,-184.89 1062.18,-181.57 1066.81,-176.85"/>
<polygon fill="midnightblue" stroke="midnightblue" points="1070.28,-176.28 1066.1,-166.55 1063.3,-176.77 1070.28,-176.28"/>
</g>
<!-- Node7&#45;&gt;Node7 -->
<g id="edge27" class="edge">
<title>Node7&#45;&gt;Node7</title>
<path fill="none" stroke="midnightblue" d="M177.27,-194.55C170.46,-203.95 179.87,-212.89 205.5,-212.89 221.12,-212.89 230.71,-209.57 234.29,-204.85"/>
<polygon fill="midnightblue" stroke="midnightblue" points="237.76,-204.35 233.73,-194.55 230.77,-204.73 237.76,-204.35"/>
</g>
<!-- Node8 -->
<g id="node8" class="node">
<title>Node8</title>
<g id="a_node8"><a xlink:href="classrare_1_1components_1_1tabs_1_1store_1_1wishlist_1_1_wishlist.html#a7121fb58d29cad3edf2ebb23d073256a" target="_top" xlink:title=" ">
<polygon fill="white" stroke="black" points="327,-99.39 327,-129.39 498,-129.39 498,-99.39 327,-99.39"/>
<text text-anchor="start" x="335" y="-117.39" font-family="Helvetica,sans-Serif" font-size="10.00">rare.components.tabs.store.wishlist.</text>
<text text-anchor="middle" x="412.5" y="-106.39" font-family="Helvetica,sans-Serif" font-size="10.00">Wishlist.set_wishlist</text>
</a>
</g>
</g>
<!-- Node7&#45;&gt;Node8 -->
<g id="edge13" class="edge">
<title>Node7&#45;&gt;Node8</title>
<path fill="none" stroke="midnightblue" d="M254.05,-164.32C283.95,-154.83 322.72,-142.54 354.3,-132.53"/>
<polygon fill="midnightblue" stroke="midnightblue" points="355.38,-135.86 363.86,-129.5 353.27,-129.19 355.38,-135.86"/>
</g>
<!-- Node8&#45;&gt;Node8 -->
<g id="edge19" class="edge">
<title>Node8&#45;&gt;Node8</title>
<path fill="none" stroke="midnightblue" d="M376.6,-129.55C367.94,-138.95 379.91,-147.89 412.5,-147.89 432.36,-147.89 444.56,-144.57 449.1,-139.85"/>
<polygon fill="midnightblue" stroke="midnightblue" points="452.57,-139.29 448.4,-129.55 445.59,-139.77 452.57,-139.29"/>
</g>
<!-- Node9 -->
<g id="node9" class="node">
<title>Node9</title>
<g id="a_node9"><a xlink:href="classrare_1_1components_1_1tabs_1_1store_1_1wishlist_1_1_wishlist.html#af3c7e539406b02c61ba2f2217a5cdf17" target="_top" xlink:title=" ">
<polygon fill="white" stroke="black" points="534,-164.39 534,-194.39 705,-194.39 705,-164.39 534,-164.39"/>
<text text-anchor="start" x="542" y="-182.39" font-family="Helvetica,sans-Serif" font-size="10.00">rare.components.tabs.store.wishlist.</text>
<text text-anchor="middle" x="619.5" y="-171.39" font-family="Helvetica,sans-Serif" font-size="10.00">Wishlist.delete_from_wishlist</text>
</a>
</g>
</g>
<!-- Node8&#45;&gt;Node9 -->
<g id="edge14" class="edge">
<title>Node8&#45;&gt;Node9</title>
<path fill="none" stroke="midnightblue" d="M455.99,-129.44C478.99,-137.44 507.95,-147.27 534,-155.39 540.46,-157.41 547.21,-159.44 553.97,-161.43"/>
<polygon fill="midnightblue" stroke="midnightblue" points="553.25,-164.87 563.83,-164.31 555.21,-158.15 553.25,-164.87"/>
</g>
<!-- Node10 -->
<g id="node10" class="node">
<title>Node10</title>
<g id="a_node10"><a xlink:href="classrare_1_1components_1_1tabs_1_1store_1_1_shop.html#adce81273b921608423370102d510bcab" target="_top" xlink:title=" ">
<polygon fill="white" stroke="black" points="551.5,-30.39 551.5,-60.39 687.5,-60.39 687.5,-30.39 551.5,-30.39"/>
<text text-anchor="start" x="559.5" y="-48.39" font-family="Helvetica,sans-Serif" font-size="10.00">rare.components.tabs.store.</text>
<text text-anchor="middle" x="619.5" y="-37.39" font-family="Helvetica,sans-Serif" font-size="10.00">Shop.show_game_info</text>
</a>
</g>
</g>
<!-- Node8&#45;&gt;Node10 -->
<g id="edge20" class="edge">
<title>Node8&#45;&gt;Node10</title>
<path fill="none" stroke="midnightblue" d="M458.23,-99.34C489.44,-88.83 531.24,-74.76 564.33,-63.62"/>
<polygon fill="midnightblue" stroke="midnightblue" points="565.5,-66.92 573.86,-60.42 563.27,-60.29 565.5,-66.92"/>
</g>
<!-- Node13 -->
<g id="node13" class="node">
<title>Node13</title>
<g id="a_node13"><a xlink:href="classrare_1_1components_1_1tabs_1_1games_1_1_games_tab.html#a09ad02746b43edc7bbeade971378aa4e" target="_top" xlink:title=" ">
<polygon fill="white" stroke="black" points="548,-97.39 548,-127.39 691,-127.39 691,-97.39 548,-97.39"/>
<text text-anchor="start" x="556" y="-115.39" font-family="Helvetica,sans-Serif" font-size="10.00">rare.components.tabs.games.</text>
<text text-anchor="middle" x="619.5" y="-104.39" font-family="Helvetica,sans-Serif" font-size="10.00">GamesTab.show_game_info</text>
</a>
</g>
</g>
<!-- Node8&#45;&gt;Node13 -->
<g id="edge25" class="edge">
<title>Node8&#45;&gt;Node13</title>
<path fill="none" stroke="midnightblue" d="M498.06,-113.57C511.12,-113.44 524.57,-113.31 537.55,-113.18"/>
<polygon fill="midnightblue" stroke="midnightblue" points="537.86,-116.68 547.83,-113.08 537.8,-109.68 537.86,-116.68"/>
</g>
<!-- Node9&#45;&gt;Node3 -->
<g id="edge16" class="edge">
<title>Node9&#45;&gt;Node3</title>
<path fill="none" stroke="midnightblue" d="M694.79,-194.4C710,-197.47 726.05,-200.72 741.36,-203.81"/>
<polygon fill="midnightblue" stroke="midnightblue" points="740.8,-207.27 751.3,-205.82 742.19,-200.41 740.8,-207.27"/>
</g>
<!-- Node9&#45;&gt;Node4 -->
<g id="edge17" class="edge">
<title>Node9&#45;&gt;Node4</title>
<path fill="none" stroke="midnightblue" d="M675.65,-164.35C693.57,-159.47 713.88,-153.92 733.45,-148.59"/>
<polygon fill="midnightblue" stroke="midnightblue" points="734.57,-151.91 743.29,-145.9 732.73,-145.16 734.57,-151.91"/>
</g>
<!-- Node9&#45;&gt;Node7 -->
<g id="edge18" class="edge">
<title>Node9&#45;&gt;Node7</title>
<path fill="none" stroke="midnightblue" d="M533.74,-179.39C466.19,-179.39 371.64,-179.39 301.53,-179.39"/>
<polygon fill="midnightblue" stroke="midnightblue" points="301.37,-175.89 291.37,-179.39 301.37,-182.89 301.37,-175.89"/>
</g>
<!-- Node9&#45;&gt;Node9 -->
<g id="edge15" class="edge">
<title>Node9&#45;&gt;Node9</title>
<path fill="none" stroke="midnightblue" d="M584.65,-194.55C576.24,-203.95 587.86,-212.89 619.5,-212.89 638.78,-212.89 650.63,-209.57 655.04,-204.85"/>
<polygon fill="midnightblue" stroke="midnightblue" points="658.51,-204.3 654.35,-194.55 651.52,-204.76 658.51,-204.3"/>
</g>
<!-- Node10&#45;&gt;Node10 -->
<g id="edge24" class="edge">
<title>Node10&#45;&gt;Node10</title>
<path fill="none" stroke="midnightblue" d="M584.65,-60.55C576.24,-69.95 587.86,-78.89 619.5,-78.89 638.78,-78.89 650.63,-75.57 655.04,-70.85"/>
<polygon fill="midnightblue" stroke="midnightblue" points="658.51,-70.3 654.35,-60.55 651.52,-70.76 658.51,-70.3"/>
</g>
<!-- Node11 -->
<g id="node11" class="node">
<title>Node11</title>
<g id="a_node11"><a xlink:href="classrare_1_1lgndr_1_1glue_1_1monkeys_1_1_lgndr_indirect_logger.html#a98a895468c8036bb8122dd2c568d91e7" target="_top" xlink:title=" ">
<polygon fill="white" stroke="black" points="758.5,-30.39 758.5,-60.39 880.5,-60.39 880.5,-30.39 758.5,-30.39"/>
<text text-anchor="start" x="766.5" y="-48.39" font-family="Helvetica,sans-Serif" font-size="10.00">rare.lgndr.glue.monkeys.</text>
<text text-anchor="middle" x="819.5" y="-37.39" font-family="Helvetica,sans-Serif" font-size="10.00">LgndrIndirectLogger.info</text>
</a>
</g>
</g>
<!-- Node10&#45;&gt;Node11 -->
<g id="edge21" class="edge">
<title>Node10&#45;&gt;Node11</title>
<path fill="none" stroke="midnightblue" d="M687.53,-45.39C707.02,-45.39 728.36,-45.39 748.06,-45.39"/>
<polygon fill="midnightblue" stroke="midnightblue" points="748.19,-48.89 758.19,-45.39 748.19,-41.89 748.19,-48.89"/>
</g>
<!-- Node11&#45;&gt;Node11 -->
<g id="edge23" class="edge">
<title>Node11&#45;&gt;Node11</title>
<path fill="none" stroke="midnightblue" d="M784.65,-60.55C776.24,-69.95 787.86,-78.89 819.5,-78.89 838.78,-78.89 850.63,-75.57 855.04,-70.85"/>
<polygon fill="midnightblue" stroke="midnightblue" points="858.51,-70.3 854.35,-60.55 851.52,-70.76 858.51,-70.3"/>
</g>
<!-- Node12 -->
<g id="node12" class="node">
<title>Node12</title>
<g id="a_node12"><a xlink:href="classrare_1_1lgndr_1_1glue_1_1monkeys_1_1_lgndr_indirect_logger.html#a66bb1af90088807e5445bcf242390463" target="_top" xlink:title=" ">
<polygon fill="white" stroke="black" points="967.5,-30.39 967.5,-60.39 1091.5,-60.39 1091.5,-30.39 967.5,-30.39"/>
<text text-anchor="start" x="975.5" y="-48.39" font-family="Helvetica,sans-Serif" font-size="10.00">rare.lgndr.glue.monkeys.</text>
<text text-anchor="middle" x="1029.5" y="-37.39" font-family="Helvetica,sans-Serif" font-size="10.00">LgndrIndirectLogger._log</text>
</a>
</g>
</g>
<!-- Node11&#45;&gt;Node12 -->
<g id="edge22" class="edge">
<title>Node11&#45;&gt;Node12</title>
<path fill="none" stroke="midnightblue" d="M880.66,-45.39C904.6,-45.39 932.33,-45.39 957.26,-45.39"/>
<polygon fill="midnightblue" stroke="midnightblue" points="957.39,-48.89 967.39,-45.39 957.39,-41.89 957.39,-48.89"/>
</g>
<!-- Node13&#45;&gt;Node13 -->
<g id="edge26" class="edge">
<title>Node13&#45;&gt;Node13</title>
<path fill="none" stroke="midnightblue" d="M584.65,-127.55C576.24,-136.95 587.86,-145.89 619.5,-145.89 638.78,-145.89 650.63,-142.57 655.04,-137.85"/>
<polygon fill="midnightblue" stroke="midnightblue" points="658.51,-137.3 654.35,-127.55 651.52,-137.76 658.51,-137.3"/>
</g>
</g>
</svg>
        <g id="navigator" transform="translate(0 0)" fill="#404254">
                <rect fill="#f2f5e9" fill-opacity="0.5" stroke="#606060" stroke-width=".5" x="0" y="0" width="60" height="60"/>
                <use id="zoomplus" xlink:href="#zoomPlus" x="17" y="9" onmousedown="handleZoom(evt,'in')"/>
                <use id="zoomminus" xlink:href="#zoomMin" x="42" y="9" onmousedown="handleZoom(evt,'out')"/>
                <use id="reset" xlink:href="#resetDef" x="30" y="36" onmousedown="handleReset()"/>
                <g id="arrowUp" xlink:href="#dirArrow" transform="translate(30 24)" onmousedown="handlePan(0,-1)">
                  <use xlink:href="#rim" fill="#404040">
                        <set attributeName="fill" to="#808080" begin="arrowUp.mouseover" end="arrowUp.mouseout"/>
                  </use>
                  <path fill="none" stroke="white" stroke-width="1.5" d="M0,-3.0v7 M-2.5,-0.5L0,-3.0L2.5,-0.5"/>
                </g>
                <g id="arrowRight" xlink:href="#dirArrow" transform="rotate(90) translate(36 -43)" onmousedown="handlePan(1,0)">
                  <use xlink:href="#rim" fill="#404040">
                        <set attributeName="fill" to="#808080" begin="arrowRight.mouseover" end="arrowRight.mouseout"/>
                  </use>
                  <path fill="none" stroke="white" stroke-width="1.5" d="M0,-3.0v7 M-2.5,-0.5L0,-3.0L2.5,-0.5"/>
                </g>
                <g id="arrowDown" xlink:href="#dirArrow" transform="rotate(180) translate(-30 -48)" onmousedown="handlePan(0,1)">
                  <use xlink:href="#rim" fill="#404040">
                        <set attributeName="fill" to="#808080" begin="arrowDown.mouseover" end="arrowDown.mouseout"/>
                  </use>
                  <path fill="none" stroke="white" stroke-width="1.5" d="M0,-3.0v7 M-2.5,-0.5L0,-3.0L2.5,-0.5"/>
                </g>
                <g id="arrowLeft" xlink:href="#dirArrow" transform="rotate(270) translate(-36 17)" onmousedown="handlePan(-1,0)">
                  <use xlink:href="#rim" fill="#404040">
                        <set attributeName="fill" to="#808080" begin="arrowLeft.mouseover" end="arrowLeft.mouseout"/>
                  </use>
                  <path fill="none" stroke="white" stroke-width="1.5" d="M0,-3.0v7 M-2.5,-0.5L0,-3.0L2.5,-0.5"/>
                </g>
        </g>
        <svg viewBox="0 0 15 15" width="100%" height="30px" preserveAspectRatio="xMaxYMin meet">
         <g id="arrow_out" transform="scale(0.3 0.3)">
          <a xlink:href="classrare_1_1components_1_1tabs_1_1store_1_1shop__api__core_1_1_shop_api_core_a0ed8f09084c5b3f678964c952b4995fd_cgraph_org.svg" target="_base">
           <rect id="button" ry="5" rx="5" y="6" x="6" height="38" width="38"
                fill="#f2f5e9" fill-opacity="0.5" stroke="#606060" stroke-width="1.0"/>
           <path id="arrow"
             d="M 11.500037,31.436501 C 11.940474,20.09759 22.043105,11.32322 32.158766,21.979434 L 37.068811,17.246167 C 37.068811,17.246167 37.088388,32 37.088388,32 L 22.160133,31.978069 C 22.160133,31.978069 26.997745,27.140456 26.997745,27.140456 C 18.528582,18.264221 13.291696,25.230495 11.500037,31.436501 z"
             style="fill:#404040;"/>
          </a>
         </g>
        </svg>
</svg>
