<?xml version="1.0" encoding="UTF-8" standalone="no"?>
<!DOCTYPE svg PUBLIC "-//W3C//DTD SVG 1.1//EN"
 "http://www.w3.org/Graphics/SVG/1.1/DTD/svg11.dtd">
<!-- Generated by graphviz version 2.49.3 (20211027.1534)
 -->
<!-- Title: RareApp Pages: 1 -->
<!--zoomable 507 -->
<svg id="main" version="1.1" xmlns="http://www.w3.org/2000/svg" xmlns:xlink="http://www.w3.org/1999/xlink" xml:space="preserve" onload="init(evt)">
<style type="text/css"><![CDATA[
.edge:hover path { stroke: red; }
.edge:hover polygon { stroke: red; fill: red; }
]]></style>
<script type="text/javascript"><![CDATA[
var edges = document.getElementsByTagName('g');
if (edges && edges.length) {
  for (var i=0;i<edges.length;i++) {
    if (edges[i].id.substr(0,4)=='edge') {
      edges[i].setAttribute('class','edge');
    }
  }
}
]]></script>
        <defs>
                <circle id="rim" cx="0" cy="0" r="7"/>
                <circle id="rim2" cx="0" cy="0" r="3.5"/>
                <g id="zoomPlus">
                        <use xlink:href="#rim" fill="#404040">
                                <set attributeName="fill" to="#808080" begin="zoomplus.mouseover" end="zoomplus.mouseout"/>
                        </use>
                        <path d="M-4,0h8M0,-4v8" fill="none" stroke="white" stroke-width="1.5" pointer-events="none"/>
                </g>
                <g id="zoomMin">
                        <use xlink:href="#rim" fill="#404040">
                                <set attributeName="fill" to="#808080" begin="zoomminus.mouseover" end="zoomminus.mouseout"/>
                        </use>
                        <path d="M-4,0h8" fill="none" stroke="white" stroke-width="1.5" pointer-events="none"/>
                </g>
                <g id="dirArrow">
                        <path fill="none" stroke="white" stroke-width="1.5" d="M0,-3.0v7 M-2.5,-0.5L0,-3.0L2.5,-0.5"/>
                </g>
               <g id="resetDef">
                       <use xlink:href="#rim2" fill="#404040">
                               <set attributeName="fill" to="#808080" begin="reset.mouseover" end="reset.mouseout"/>
                       </use>
               </g>
        </defs>

<script type="text/javascript">
var viewWidth = 244;
var viewHeight = 507;
var sectionId = 'dynsection-0';
</script>
<script xlink:href="svgpan.js"/>
<svg id="graph" class="graph">
<g id="viewport">
<title>RareApp</title>
<polygon fill="white" stroke="transparent" points="-4,4 -4,-503 240,-503 240,4 -4,4"/>
<!-- Node1 -->
<g id="node1" class="node">
<title>Node1</title>
<g id="a_node1"><a xlink:title=" ">
<polygon fill="#bfbfbf" stroke="black" points="57.5,-303.5 57.5,-404.5 152.5,-404.5 152.5,-303.5 57.5,-303.5"/>
<text text-anchor="middle" x="105" y="-392.5" font-family="Helvetica,sans-Serif" font-size="10.00">RareApp</text>
<polyline fill="none" stroke="black" points="57.5,-385.5 152.5,-385.5 "/>
<text text-anchor="start" x="65.5" y="-373.5" font-family="Helvetica,sans-Serif" font-size="10.00">+ logger</text>
<text text-anchor="start" x="65.5" y="-362.5" font-family="Helvetica,sans-Serif" font-size="10.00">+ settings</text>
<text text-anchor="start" x="65.5" y="-351.5" font-family="Helvetica,sans-Serif" font-size="10.00">+ translator</text>
<text text-anchor="start" x="65.5" y="-340.5" font-family="Helvetica,sans-Serif" font-size="10.00">+ qt_translator</text>
<polyline fill="none" stroke="black" points="57.5,-333.5 152.5,-333.5 "/>
<text text-anchor="start" x="65.5" y="-321.5" font-family="Helvetica,sans-Serif" font-size="10.00">+ __init__()</text>
<text text-anchor="start" x="65.5" y="-310.5" font-family="Helvetica,sans-Serif" font-size="10.00">+ load_translator()</text>
</a>
</g>
</g>
<!-- Node3 -->
<g id="node3" class="node">
<title>Node3</title>
<g id="a_node3"><a xlink:href="classrare_1_1components_1_1_rare.html" target="_top" xlink:title=" ">
<polygon fill="white" stroke="black" points="0,-50 0,-217 84,-217 84,-50 0,-50"/>
<text text-anchor="middle" x="42" y="-205" font-family="Helvetica,sans-Serif" font-size="10.00">Rare</text>
<polyline fill="none" stroke="black" points="0,-198 84,-198 "/>
<text text-anchor="start" x="8" y="-186" font-family="Helvetica,sans-Serif" font-size="10.00">+ rcore</text>
<text text-anchor="start" x="8" y="-175" font-family="Helvetica,sans-Serif" font-size="10.00">+ args</text>
<text text-anchor="start" x="8" y="-164" font-family="Helvetica,sans-Serif" font-size="10.00">+ signals</text>
<text text-anchor="start" x="8" y="-153" font-family="Helvetica,sans-Serif" font-size="10.00">+ core</text>
<text text-anchor="start" x="8" y="-142" font-family="Helvetica,sans-Serif" font-size="10.00">+ launch_dialog</text>
<text text-anchor="start" x="8" y="-131" font-family="Helvetica,sans-Serif" font-size="10.00">+ timer</text>
<text text-anchor="start" x="8" y="-120" font-family="Helvetica,sans-Serif" font-size="10.00">+ main_window</text>
<polyline fill="none" stroke="black" points="0,-113 84,-113 "/>
<text text-anchor="start" x="8" y="-101" font-family="Helvetica,sans-Serif" font-size="10.00">+ __init__()</text>
<text text-anchor="start" x="8" y="-90" font-family="Helvetica,sans-Serif" font-size="10.00">+ poke_timer()</text>
<text text-anchor="start" x="8" y="-79" font-family="Helvetica,sans-Serif" font-size="10.00">+ re_login()</text>
<text text-anchor="start" x="8" y="-68" font-family="Helvetica,sans-Serif" font-size="10.00">+ launch_app()</text>
<text text-anchor="start" x="8" y="-57" font-family="Helvetica,sans-Serif" font-size="10.00">+ start_app()</text>
</a>
</g>
</g>
<!-- Node1&#45;&gt;Node3 -->
<g id="edge2" class="edge">
<title>Node1&#45;&gt;Node3</title>
<path fill="none" stroke="midnightblue" d="M87.88,-293.61C81.1,-270.11 73.2,-242.7 65.88,-217.31"/>
<polygon fill="none" stroke="midnightblue" points="84.57,-294.78 90.7,-303.42 91.3,-292.84 84.57,-294.78"/>
</g>
<!-- Node4 -->
<g id="node4" class="node">
<title>Node4</title>
<g id="a_node4"><a xlink:href="classrare_1_1launcher_1_1_rare_launcher.html" target="_top" xlink:title=" ">
<polygon fill="white" stroke="black" points="102,-0.5 102,-266.5 236,-266.5 236,-0.5 102,-0.5"/>
<text text-anchor="middle" x="169" y="-254.5" font-family="Helvetica,sans-Serif" font-size="10.00">RareLauncher</text>
<polyline fill="none" stroke="black" points="102,-247.5 236,-247.5 "/>
<text text-anchor="start" x="110" y="-235.5" font-family="Helvetica,sans-Serif" font-size="10.00">+ no_sync_on_exit</text>
<text text-anchor="start" x="110" y="-224.5" font-family="Helvetica,sans-Serif" font-size="10.00">+ args</text>
<text text-anchor="start" x="110" y="-213.5" font-family="Helvetica,sans-Serif" font-size="10.00">+ core</text>
<text text-anchor="start" x="110" y="-202.5" font-family="Helvetica,sans-Serif" font-size="10.00">+ rgame</text>
<text text-anchor="start" x="110" y="-191.5" font-family="Helvetica,sans-Serif" font-size="10.00">+ console</text>
<text text-anchor="start" x="110" y="-180.5" font-family="Helvetica,sans-Serif" font-size="10.00">+ success</text>
<text text-anchor="start" x="110" y="-169.5" font-family="Helvetica,sans-Serif" font-size="10.00">+ start_time</text>
<text text-anchor="start" x="110" y="-158.5" font-family="Helvetica,sans-Serif" font-size="10.00">+ socket</text>
<text text-anchor="start" x="110" y="-147.5" font-family="Helvetica,sans-Serif" font-size="10.00">+ exit_app</text>
<polyline fill="none" stroke="black" points="102,-140.5 236,-140.5 "/>
<text text-anchor="start" x="110" y="-128.5" font-family="Helvetica,sans-Serif" font-size="10.00">+ __init__()</text>
<text text-anchor="start" x="110" y="-117.5" font-family="Helvetica,sans-Serif" font-size="10.00">+ new_server_connection()</text>
<text text-anchor="start" x="110" y="-106.5" font-family="Helvetica,sans-Serif" font-size="10.00">+ socket_disconnected()</text>
<text text-anchor="start" x="110" y="-95.5" font-family="Helvetica,sans-Serif" font-size="10.00">+ send_message()</text>
<text text-anchor="start" x="110" y="-84.5" font-family="Helvetica,sans-Serif" font-size="10.00">+ check_saves_finished()</text>
<text text-anchor="start" x="110" y="-73.5" font-family="Helvetica,sans-Serif" font-size="10.00">+ on_exit()</text>
<text text-anchor="start" x="110" y="-62.5" font-family="Helvetica,sans-Serif" font-size="10.00">+ launch_game()</text>
<text text-anchor="start" x="110" y="-51.5" font-family="Helvetica,sans-Serif" font-size="10.00">+ error_occurred()</text>
<text text-anchor="start" x="110" y="-40.5" font-family="Helvetica,sans-Serif" font-size="10.00">+ start_prepare()</text>
<text text-anchor="start" x="110" y="-29.5" font-family="Helvetica,sans-Serif" font-size="10.00">+ sync_ready()</text>
<text text-anchor="start" x="110" y="-18.5" font-family="Helvetica,sans-Serif" font-size="10.00">+ start()</text>
<text text-anchor="start" x="110" y="-7.5" font-family="Helvetica,sans-Serif" font-size="10.00">+ stop()</text>
</a>
</g>
</g>
<!-- Node1&#45;&gt;Node4 -->
<g id="edge3" class="edge">
<title>Node1&#45;&gt;Node4</title>
<path fill="none" stroke="midnightblue" d="M122.4,-293.58C124.92,-284.98 127.6,-275.86 130.34,-266.5"/>
<polygon fill="none" stroke="midnightblue" points="118.97,-292.84 119.52,-303.42 125.69,-294.81 118.97,-292.84"/>
</g>
<!-- Node2 -->
<g id="node2" class="node">
<title>Node2</title>
<g id="a_node2"><a xlink:title=" ">
<polygon fill="white" stroke="#bfbfbf" points="69,-441.5 69,-498.5 141,-498.5 141,-441.5 69,-441.5"/>
<text text-anchor="middle" x="105" y="-486.5" font-family="Helvetica,sans-Serif" font-size="10.00">QApplication</text>
<polyline fill="none" stroke="#bfbfbf" points="69,-479.5 141,-479.5 "/>
<text text-anchor="middle" x="105" y="-467.5" font-family="Helvetica,sans-Serif" font-size="10.00"> </text>
<polyline fill="none" stroke="#bfbfbf" points="69,-460.5 141,-460.5 "/>
<text text-anchor="middle" x="105" y="-448.5" font-family="Helvetica,sans-Serif" font-size="10.00"> </text>
</a>
</g>
</g>
<!-- Node2&#45;&gt;Node1 -->
<g id="edge1" class="edge">
<title>Node2&#45;&gt;Node1</title>
<path fill="none" stroke="midnightblue" d="M105,-431.35C105,-422.8 105,-413.58 105,-404.61"/>
<polygon fill="none" stroke="midnightblue" points="101.5,-431.4 105,-441.4 108.5,-431.4 101.5,-431.4"/>
</g>
</g>
</svg>
        <g id="navigator" transform="translate(0 0)" fill="#404254">
                <rect fill="#f2f5e9" fill-opacity="0.5" stroke="#606060" stroke-width=".5" x="0" y="0" width="60" height="60"/>
                <use id="zoomplus" xlink:href="#zoomPlus" x="17" y="9" onmousedown="handleZoom(evt,'in')"/>
                <use id="zoomminus" xlink:href="#zoomMin" x="42" y="9" onmousedown="handleZoom(evt,'out')"/>
                <use id="reset" xlink:href="#resetDef" x="30" y="36" onmousedown="handleReset()"/>
                <g id="arrowUp" xlink:href="#dirArrow" transform="translate(30 24)" onmousedown="handlePan(0,-1)">
                  <use xlink:href="#rim" fill="#404040">
                        <set attributeName="fill" to="#808080" begin="arrowUp.mouseover" end="arrowUp.mouseout"/>
                  </use>
                  <path fill="none" stroke="white" stroke-width="1.5" d="M0,-3.0v7 M-2.5,-0.5L0,-3.0L2.5,-0.5"/>
                </g>
                <g id="arrowRight" xlink:href="#dirArrow" transform="rotate(90) translate(36 -43)" onmousedown="handlePan(1,0)">
                  <use xlink:href="#rim" fill="#404040">
                        <set attributeName="fill" to="#808080" begin="arrowRight.mouseover" end="arrowRight.mouseout"/>
                  </use>
                  <path fill="none" stroke="white" stroke-width="1.5" d="M0,-3.0v7 M-2.5,-0.5L0,-3.0L2.5,-0.5"/>
                </g>
                <g id="arrowDown" xlink:href="#dirArrow" transform="rotate(180) translate(-30 -48)" onmousedown="handlePan(0,1)">
                  <use xlink:href="#rim" fill="#404040">
                        <set attributeName="fill" to="#808080" begin="arrowDown.mouseover" end="arrowDown.mouseout"/>
                  </use>
                  <path fill="none" stroke="white" stroke-width="1.5" d="M0,-3.0v7 M-2.5,-0.5L0,-3.0L2.5,-0.5"/>
                </g>
                <g id="arrowLeft" xlink:href="#dirArrow" transform="rotate(270) translate(-36 17)" onmousedown="handlePan(-1,0)">
                  <use xlink:href="#rim" fill="#404040">
                        <set attributeName="fill" to="#808080" begin="arrowLeft.mouseover" end="arrowLeft.mouseout"/>
                  </use>
                  <path fill="none" stroke="white" stroke-width="1.5" d="M0,-3.0v7 M-2.5,-0.5L0,-3.0L2.5,-0.5"/>
                </g>
        </g>
        <svg viewBox="0 0 15 15" width="100%" height="30px" preserveAspectRatio="xMaxYMin meet">
         <g id="arrow_out" transform="scale(0.3 0.3)">
          <a xlink:href="classrare_1_1widgets_1_1rare__app_1_1_rare_app__inherit__graph_org.svg" target="_base">
           <rect id="button" ry="5" rx="5" y="6" x="6" height="38" width="38"
                fill="#f2f5e9" fill-opacity="0.5" stroke="#606060" stroke-width="1.0"/>
           <path id="arrow"
             d="M 11.500037,31.436501 C 11.940474,20.09759 22.043105,11.32322 32.158766,21.979434 L 37.068811,17.246167 C 37.068811,17.246167 37.088388,32 37.088388,32 L 22.160133,31.978069 C 22.160133,31.978069 26.997745,27.140456 26.997745,27.140456 C 18.528582,18.264221 13.291696,25.230495 11.500037,31.436501 z"
             style="fill:#404040;"/>
          </a>
         </g>
        </svg>
</svg>
