<?xml version="1.0" encoding="UTF-8" standalone="no"?>
<!DOCTYPE svg PUBLIC "-//W3C//DTD SVG 1.1//EN"
 "http://www.w3.org/Graphics/SVG/1.1/DTD/svg11.dtd">
<!-- Generated by graphviz version 2.49.3 (20211027.1534)
 -->
<!-- Title: setHintText Pages: 1 -->
<svg width="160pt" height="46pt"
 viewBox="0.00 0.00 160.00 46.00" xmlns="http://www.w3.org/2000/svg" xmlns:xlink="http://www.w3.org/1999/xlink">
<g id="graph0" class="graph" transform="scale(1 1) rotate(0) translate(4 42)">
<title>setHintText</title>
<polygon fill="white" stroke="transparent" points="-4,4 -4,-42 156,-42 156,4 -4,4"/>
<!-- Node1 -->
<g id="node1" class="node">
<title>Node1</title>
<g id="a_node1"><a xlink:title=" ">
<polygon fill="#bfbfbf" stroke="black" points="0,-0.5 0,-19.5 67,-19.5 67,-0.5 0,-0.5"/>
<text text-anchor="middle" x="33.5" y="-7.5" font-family="Helvetica,sans-Serif" font-size="10.00">setHintText</text>
</a>
</g>
</g>
<!-- Node1&#45;&gt;Node1 -->
<g id="edge1" class="edge">
<title>Node1&#45;&gt;Node1</title>
<path fill="none" stroke="midnightblue" d="M19.01,-19.76C11.96,-28.57 16.79,-38 33.5,-38 43.94,-38 49.74,-34.31 50.91,-29.4"/>
<polygon fill="midnightblue" stroke="midnightblue" points="54.23,-28.31 47.99,-19.76 47.53,-30.34 54.23,-28.31"/>
</g>
<!-- Node2 -->
<g id="node2" class="node">
<title>Node2</title>
<g id="a_node2"><a xlink:href="classrare_1_1widgets_1_1indicator__edit_1_1_indicator_line_edit.html#aa1ce5c203733553579a07cf1db0da9df" target="_top" xlink:title=" ">
<polygon fill="white" stroke="black" points="103,-0.5 103,-19.5 152,-19.5 152,-0.5 103,-0.5"/>
<text text-anchor="middle" x="127.5" y="-7.5" font-family="Helvetica,sans-Serif" font-size="10.00">setText</text>
</a>
</g>
</g>
<!-- Node1&#45;&gt;Node2 -->
<g id="edge2" class="edge">
<title>Node1&#45;&gt;Node2</title>
<path fill="none" stroke="midnightblue" d="M67.19,-10C75.47,-10 84.38,-10 92.72,-10"/>
<polygon fill="midnightblue" stroke="midnightblue" points="92.87,-13.5 102.87,-10 92.87,-6.5 92.87,-13.5"/>
</g>
<!-- Node2&#45;&gt;Node2 -->
<g id="edge3" class="edge">
<title>Node2&#45;&gt;Node2</title>
<path fill="none" stroke="midnightblue" d="M113.01,-19.76C105.96,-28.57 110.79,-38 127.5,-38 137.94,-38 143.74,-34.31 144.91,-29.4"/>
<polygon fill="midnightblue" stroke="midnightblue" points="148.23,-28.31 141.99,-19.76 141.53,-30.34 148.23,-28.31"/>
</g>
</g>
</svg>
