<?xml version="1.0" encoding="UTF-8" standalone="no"?>
<!DOCTYPE svg PUBLIC "-//W3C//DTD SVG 1.1//EN"
 "http://www.w3.org/Graphics/SVG/1.1/DTD/svg11.dtd">
<!-- Generated by graphviz version 2.49.3 (20211027.1534)
 -->
<!-- Title: showEvent Pages: 1 -->
<svg width="338pt" height="152pt"
 viewBox="0.00 0.00 338.01 152.00" xmlns="http://www.w3.org/2000/svg" xmlns:xlink="http://www.w3.org/1999/xlink">
<g id="graph0" class="graph" transform="scale(1 1) rotate(0) translate(4 148)">
<title>showEvent</title>
<polygon fill="white" stroke="transparent" points="-4,4 -4,-148 334.01,-148 334.01,4 -4,4"/>
<!-- Node1 -->
<g id="node1" class="node">
<title>Node1</title>
<g id="a_node1"><a xlink:title=" ">
<polygon fill="#bfbfbf" stroke="black" points="2.01,-62.5 2.01,-81.5 67.01,-81.5 67.01,-62.5 2.01,-62.5"/>
<text text-anchor="middle" x="34.51" y="-69.5" font-family="Helvetica,sans-Serif" font-size="10.00">showEvent</text>
</a>
</g>
</g>
<!-- Node1&#45;&gt;Node1 -->
<g id="edge2" class="edge">
<title>Node1&#45;&gt;Node1</title>
<path fill="none" stroke="midnightblue" d="M6.46,-81.76C-7.19,-90.57 2.16,-100 34.51,-100 56.75,-100 68.12,-95.54 68.62,-89.89"/>
<polygon fill="midnightblue" stroke="midnightblue" points="71.34,-87.69 62.56,-81.76 65.73,-91.87 71.34,-87.69"/>
</g>
<!-- Node2 -->
<g id="node2" class="node">
<title>Node2</title>
<g id="a_node2"><a xlink:href="classrare_1_1components_1_1tabs_1_1settings_1_1about_1_1_about.html#a56cb075509bc98c43fc2005454ca11f3" target="_top" xlink:title=" ">
<polygon fill="white" stroke="black" points="148.01,-124.5 148.01,-143.5 285.01,-143.5 285.01,-124.5 148.01,-124.5"/>
<text text-anchor="middle" x="216.51" y="-131.5" font-family="Helvetica,sans-Serif" font-size="10.00">_on_update_check_finished</text>
</a>
</g>
</g>
<!-- Node1&#45;&gt;Node2 -->
<g id="edge1" class="edge">
<title>Node1&#45;&gt;Node2</title>
<path fill="none" stroke="midnightblue" d="M47.63,-81.87C60.55,-91.85 82,-106.92 103.01,-115 114.06,-119.25 126.08,-122.55 138.02,-125.12"/>
<polygon fill="midnightblue" stroke="midnightblue" points="137.51,-128.58 148,-127.1 138.88,-121.72 137.51,-128.58"/>
</g>
<!-- Node3 -->
<g id="node3" class="node">
<title>Node3</title>
<g id="a_node3"><a xlink:href="classrare_1_1components_1_1tabs_1_1library_1_1widgets_1_1game__widget_1_1_game_widget.html#aa660d748bc3a0c7c2dfaa15cee8e6ba6" target="_top" xlink:title=" ">
<polygon fill="white" stroke="black" points="116.51,-57 116.51,-87 316.51,-87 316.51,-57 116.51,-57"/>
<text text-anchor="start" x="124.51" y="-75" font-family="Helvetica,sans-Serif" font-size="10.00">rare.components.tabs.library.widgets.game</text>
<text text-anchor="middle" x="216.51" y="-64" font-family="Helvetica,sans-Serif" font-size="10.00">_widget.GameWidget.ui</text>
</a>
</g>
</g>
<!-- Node1&#45;&gt;Node3 -->
<g id="edge3" class="edge">
<title>Node1&#45;&gt;Node3</title>
<path fill="none" stroke="midnightblue" d="M67.28,-72C78.57,-72 92,-72 106.1,-72"/>
<polygon fill="midnightblue" stroke="midnightblue" points="106.46,-75.5 116.46,-72 106.46,-68.5 106.46,-75.5"/>
</g>
<!-- Node4 -->
<g id="node4" class="node">
<title>Node4</title>
<g id="a_node4"><a xlink:href="namespacerare_1_1components_1_1tabs_1_1settings_1_1about.html#a6473c62f27fa766fcfc1b8eacb765158" target="_top" xlink:title=" ">
<polygon fill="white" stroke="black" points="103.01,-0.5 103.01,-19.5 330.01,-19.5 330.01,-0.5 103.01,-0.5"/>
<text text-anchor="middle" x="216.51" y="-7.5" font-family="Helvetica,sans-Serif" font-size="10.00">rare.components.tabs.settings.about.versiontuple</text>
</a>
</g>
</g>
<!-- Node1&#45;&gt;Node4 -->
<g id="edge5" class="edge">
<title>Node1&#45;&gt;Node4</title>
<path fill="none" stroke="midnightblue" d="M62.09,-62.44C74.5,-58 89.5,-52.68 103.01,-48 127.67,-39.45 155.46,-30.06 177.24,-22.76"/>
<polygon fill="midnightblue" stroke="midnightblue" points="178.43,-26.05 186.8,-19.56 176.21,-19.41 178.43,-26.05"/>
</g>
<!-- Node3&#45;&gt;Node3 -->
<g id="edge4" class="edge">
<title>Node3&#45;&gt;Node3</title>
<path fill="none" stroke="midnightblue" d="M184.79,-87.16C177.15,-96.56 187.72,-105.5 216.51,-105.5 234.06,-105.5 244.84,-102.18 248.85,-97.46"/>
<polygon fill="midnightblue" stroke="midnightblue" points="252.33,-96.93 248.23,-87.16 245.34,-97.35 252.33,-96.93"/>
</g>
<!-- Node4&#45;&gt;Node4 -->
<g id="edge6" class="edge">
<title>Node4&#45;&gt;Node4</title>
<path fill="none" stroke="midnightblue" d="M188.46,-19.76C174.81,-28.57 184.16,-38 216.51,-38 238.75,-38 250.12,-33.54 250.62,-27.89"/>
<polygon fill="midnightblue" stroke="midnightblue" points="253.34,-25.69 244.56,-19.76 247.73,-29.87 253.34,-25.69"/>
</g>
</g>
</svg>
