<?xml version="1.0" encoding="UTF-8" standalone="no"?>
<!DOCTYPE svg PUBLIC "-//W3C//DTD SVG 1.1//EN"
 "http://www.w3.org/Graphics/SVG/1.1/DTD/svg11.dtd">
<!-- Generated by graphviz version 2.49.3 (20211027.1534)
 -->
<!-- Title: download_saves Pages: 1 -->
<!--zoomable 734 -->
<svg id="main" version="1.1" xmlns="http://www.w3.org/2000/svg" xmlns:xlink="http://www.w3.org/1999/xlink" xml:space="preserve" onload="init(evt)">
<style type="text/css"><![CDATA[
.edge:hover path { stroke: red; }
.edge:hover polygon { stroke: red; fill: red; }
]]></style>
<script type="text/javascript"><![CDATA[
var edges = document.getElementsByTagName('g');
if (edges && edges.length) {
  for (var i=0;i<edges.length;i++) {
    if (edges[i].id.substr(0,4)=='edge') {
      edges[i].setAttribute('class','edge');
    }
  }
}
]]></script>
        <defs>
                <circle id="rim" cx="0" cy="0" r="7"/>
                <circle id="rim2" cx="0" cy="0" r="3.5"/>
                <g id="zoomPlus">
                        <use xlink:href="#rim" fill="#404040">
                                <set attributeName="fill" to="#808080" begin="zoomplus.mouseover" end="zoomplus.mouseout"/>
                        </use>
                        <path d="M-4,0h8M0,-4v8" fill="none" stroke="white" stroke-width="1.5" pointer-events="none"/>
                </g>
                <g id="zoomMin">
                        <use xlink:href="#rim" fill="#404040">
                                <set attributeName="fill" to="#808080" begin="zoomminus.mouseover" end="zoomminus.mouseout"/>
                        </use>
                        <path d="M-4,0h8" fill="none" stroke="white" stroke-width="1.5" pointer-events="none"/>
                </g>
                <g id="dirArrow">
                        <path fill="none" stroke="white" stroke-width="1.5" d="M0,-3.0v7 M-2.5,-0.5L0,-3.0L2.5,-0.5"/>
                </g>
               <g id="resetDef">
                       <use xlink:href="#rim2" fill="#404040">
                               <set attributeName="fill" to="#808080" begin="reset.mouseover" end="reset.mouseout"/>
                       </use>
               </g>
        </defs>

<script type="text/javascript">
var viewWidth = 1029;
var viewHeight = 734;
var sectionId = 'dynsection-6';
</script>
<script xlink:href="svgpan.js"/>
<svg id="graph" class="graph">
<g id="viewport">
<title>download_saves</title>
<polygon fill="white" stroke="transparent" points="-4,4 -4,-729.85 1025,-729.85 1025,4 -4,4"/>
<!-- Node1 -->
<g id="node1" class="node">
<title>Node1</title>
<g id="a_node1"><a xlink:title=" ">
<polygon fill="#bfbfbf" stroke="black" points="0,-264.5 0,-283.5 89,-283.5 89,-264.5 0,-264.5"/>
<text text-anchor="middle" x="44.5" y="-271.5" font-family="Helvetica,sans-Serif" font-size="10.00">download_saves</text>
</a>
</g>
</g>
<!-- Node1&#45;&gt;Node1 -->
<g id="edge7" class="edge">
<title>Node1&#45;&gt;Node1</title>
<path fill="none" stroke="midnightblue" d="M25.08,-283.76C15.63,-292.57 22.11,-302 44.5,-302 58.85,-302 66.66,-298.13 67.94,-293.03"/>
<polygon fill="midnightblue" stroke="midnightblue" points="71.11,-291.54 63.92,-283.76 64.68,-294.32 71.11,-291.54"/>
</g>
<!-- Node2 -->
<g id="node2" class="node">
<title>Node2</title>
<g id="a_node2"><a xlink:href="classrare_1_1components_1_1tabs_1_1games_1_1integrations_1_1egl__sync__group_1_1_e_g_l_sync_list_item.html#a9c470cc60eae203f55455d0e0d7f5712" target="_top" xlink:title=" ">
<polygon fill="white" stroke="black" points="255,-636 255,-666 464,-666 464,-636 255,-636"/>
<text text-anchor="start" x="263" y="-654" font-family="Helvetica,sans-Serif" font-size="10.00">rare.components.tabs.games.integrations.egl</text>
<text text-anchor="middle" x="359.5" y="-643" font-family="Helvetica,sans-Serif" font-size="10.00">_sync_group.EGLSyncListItem.app_name</text>
</a>
</g>
</g>
<!-- Node1&#45;&gt;Node2 -->
<g id="edge1" class="edge">
<title>Node1&#45;&gt;Node2</title>
<path fill="none" stroke="midnightblue" d="M46.34,-283.82C49.85,-319.99 66.06,-447.98 125,-531 166.58,-589.57 189.77,-596.93 255,-627 259.43,-629.04 264.04,-630.92 268.76,-632.64"/>
<polygon fill="midnightblue" stroke="midnightblue" points="267.96,-636.06 278.56,-635.96 270.21,-629.43 267.96,-636.06"/>
</g>
<!-- Node3 -->
<g id="node3" class="node">
<title>Node3</title>
<g id="a_node3"><a xlink:href="classrare_1_1models_1_1base__game_1_1_rare_game_base.html#a0afe16b2357823a068971d7af5918a23" target="_top" xlink:title=" ">
<polygon fill="white" stroke="black" points="288.5,-569 288.5,-599 430.5,-599 430.5,-569 288.5,-569"/>
<text text-anchor="start" x="296.5" y="-587" font-family="Helvetica,sans-Serif" font-size="10.00">rare.models.base_game.Rare</text>
<text text-anchor="middle" x="359.5" y="-576" font-family="Helvetica,sans-Serif" font-size="10.00">GameBase.app_name</text>
</a>
</g>
</g>
<!-- Node1&#45;&gt;Node3 -->
<g id="edge3" class="edge">
<title>Node1&#45;&gt;Node3</title>
<path fill="none" stroke="midnightblue" d="M46.72,-283.68C51.24,-316.12 69.8,-422.54 125,-487 163.88,-532.4 227.47,-556.95 278.47,-569.98"/>
<polygon fill="midnightblue" stroke="midnightblue" points="277.95,-573.46 288.49,-572.44 279.61,-566.66 277.95,-573.46"/>
</g>
<!-- Node4 -->
<g id="node4" class="node">
<title>Node4</title>
<g id="a_node4"><a xlink:href="classrare_1_1shared_1_1rare__core_1_1_rare_core.html#a405e1a4f20f16120f872ccd2654a1d56" target="_top" xlink:title=" ">
<polygon fill="white" stroke="black" points="529.5,-372 529.5,-402 659.5,-402 659.5,-372 529.5,-372"/>
<text text-anchor="start" x="537.5" y="-390" font-family="Helvetica,sans-Serif" font-size="10.00">rare.shared.rare_core.Rare</text>
<text text-anchor="middle" x="594.5" y="-379" font-family="Helvetica,sans-Serif" font-size="10.00">Core.core</text>
</a>
</g>
</g>
<!-- Node1&#45;&gt;Node4 -->
<g id="edge5" class="edge">
<title>Node1&#45;&gt;Node4</title>
<path fill="none" stroke="midnightblue" d="M45.88,-283.69C47.87,-323.82 59.65,-479.72 125,-584 165.19,-648.13 183.93,-667.97 255,-694 342.22,-725.95 386.6,-745.36 464,-694 562.01,-628.97 586.03,-473.55 591.76,-412.37"/>
<polygon fill="midnightblue" stroke="midnightblue" points="595.27,-412.34 592.63,-402.08 588.3,-411.75 595.27,-412.34"/>
</g>
<!-- Node5 -->
<g id="node5" class="node">
<title>Node5</title>
<g id="a_node5"><a xlink:href="classrare_1_1models_1_1base__game_1_1_rare_game_slim.html#a404bbb07be9289ca5650e32cb2c01eeb" target="_top" xlink:title=" ">
<polygon fill="white" stroke="black" points="326,-246.5 326,-265.5 393,-265.5 393,-246.5 326,-246.5"/>
<text text-anchor="middle" x="359.5" y="-253.5" font-family="Helvetica,sans-Serif" font-size="10.00">latest_save</text>
</a>
</g>
</g>
<!-- Node1&#45;&gt;Node5 -->
<g id="edge8" class="edge">
<title>Node1&#45;&gt;Node5</title>
<path fill="none" stroke="midnightblue" d="M89.02,-271.5C148.92,-268.05 256.1,-261.89 315.64,-258.46"/>
<polygon fill="midnightblue" stroke="midnightblue" points="316.05,-261.95 325.83,-257.88 315.65,-254.96 316.05,-261.95"/>
</g>
<!-- Node9 -->
<g id="node9" class="node">
<title>Node9</title>
<g id="a_node9"><a xlink:href="classrare_1_1models_1_1base__game_1_1_rare_game_slim.html#a299a7ea18948f61b7235c7bf6e7fa8af" target="_top" xlink:title=" ">
<polygon fill="white" stroke="black" points="125,-208.5 125,-227.5 219,-227.5 219,-208.5 125,-208.5"/>
<text text-anchor="middle" x="172" y="-215.5" font-family="Helvetica,sans-Serif" font-size="10.00">save_game_state</text>
</a>
</g>
</g>
<!-- Node1&#45;&gt;Node9 -->
<g id="edge15" class="edge">
<title>Node1&#45;&gt;Node9</title>
<path fill="none" stroke="midnightblue" d="M67.07,-264.37C87.31,-255.34 117.78,-241.75 140.5,-231.61"/>
<polygon fill="midnightblue" stroke="midnightblue" points="142,-234.77 149.71,-227.5 139.15,-228.38 142,-234.77"/>
</g>
<!-- Node10 -->
<g id="node10" class="node">
<title>Node10</title>
<g id="a_node10"><a xlink:href="classrare_1_1models_1_1base__game_1_1_rare_game_slim.html#ae67c92b74c05707f28c4430681aaa860" target="_top" xlink:title=" ">
<polygon fill="white" stroke="black" points="563.5,-177.5 563.5,-196.5 625.5,-196.5 625.5,-177.5 563.5,-177.5"/>
<text text-anchor="middle" x="594.5" y="-184.5" font-family="Helvetica,sans-Serif" font-size="10.00">save_path</text>
</a>
</g>
</g>
<!-- Node1&#45;&gt;Node10 -->
<g id="edge24" class="edge">
<title>Node1&#45;&gt;Node10</title>
<path fill="none" stroke="midnightblue" d="M52.28,-264.34C64.59,-247.67 92.37,-213.88 125,-199 270.85,-132.47 469.72,-161.24 553.59,-178.03"/>
<polygon fill="midnightblue" stroke="midnightblue" points="552.98,-181.47 563.48,-180.06 554.39,-174.62 552.98,-181.47"/>
</g>
<!-- Node11 -->
<g id="node11" class="node">
<title>Node11</title>
<g id="a_node11"><a xlink:href="classrare_1_1models_1_1game_1_1_rare_game.html#ae67c92b74c05707f28c4430681aaa860" target="_top" xlink:title=" ">
<polygon fill="white" stroke="black" points="500,-121.5 500,-140.5 689,-140.5 689,-121.5 500,-121.5"/>
<text text-anchor="middle" x="594.5" y="-128.5" font-family="Helvetica,sans-Serif" font-size="10.00">rare.models.game.RareGame.save_path</text>
</a>
</g>
</g>
<!-- Node1&#45;&gt;Node11 -->
<g id="edge25" class="edge">
<title>Node1&#45;&gt;Node11</title>
<path fill="none" stroke="midnightblue" d="M49.48,-264.18C58.9,-242.36 84.82,-189.98 125,-167 254.47,-92.95 437.98,-106.31 532.3,-120"/>
<polygon fill="midnightblue" stroke="midnightblue" points="531.84,-123.47 542.25,-121.49 532.88,-116.54 531.84,-123.47"/>
</g>
<!-- Node12 -->
<g id="node12" class="node">
<title>Node12</title>
<g id="a_node12"><a xlink:href="namespacerare_1_1app.html#a37fb442592b19edb2dcdd368df2d2d76" target="_top" xlink:title=" ">
<polygon fill="white" stroke="black" points="135.5,-0.5 135.5,-19.5 208.5,-19.5 208.5,-0.5 135.5,-0.5"/>
<text text-anchor="middle" x="172" y="-7.5" font-family="Helvetica,sans-Serif" font-size="10.00">rare.app.start</text>
</a>
</g>
</g>
<!-- Node1&#45;&gt;Node12 -->
<g id="edge26" class="edge">
<title>Node1&#45;&gt;Node12</title>
<path fill="none" stroke="midnightblue" d="M47.21,-264.38C53.3,-232.05 76.22,-125.27 125,-52 131.54,-42.18 140.86,-33.1 149.41,-25.91"/>
<polygon fill="midnightblue" stroke="midnightblue" points="151.62,-28.62 157.25,-19.64 147.25,-23.15 151.62,-28.62"/>
</g>
<!-- Node13 -->
<g id="node13" class="node">
<title>Node13</title>
<g id="a_node13"><a xlink:href="classrare_1_1models_1_1base__game_1_1_rare_game_slim.html#a538e01960833eed6bbda62ccc518f22f" target="_top" xlink:title="Use only in a thread.">
<polygon fill="white" stroke="black" points="133.5,-440.5 133.5,-459.5 210.5,-459.5 210.5,-440.5 133.5,-440.5"/>
<text text-anchor="middle" x="172" y="-447.5" font-family="Helvetica,sans-Serif" font-size="10.00">update_saves</text>
</a>
</g>
</g>
<!-- Node1&#45;&gt;Node13 -->
<g id="edge28" class="edge">
<title>Node1&#45;&gt;Node13</title>
<path fill="none" stroke="midnightblue" d="M52.43,-283.71C72.61,-312.01 131.59,-394.73 157.98,-431.74"/>
<polygon fill="midnightblue" stroke="midnightblue" points="155.28,-433.99 163.94,-440.1 160.98,-429.93 155.28,-433.99"/>
</g>
<!-- Node2&#45;&gt;Node2 -->
<g id="edge2" class="edge">
<title>Node2&#45;&gt;Node2</title>
<path fill="none" stroke="midnightblue" d="M327.09,-666.16C319.27,-675.56 330.07,-684.5 359.5,-684.5 377.43,-684.5 388.45,-681.18 392.55,-676.46"/>
<polygon fill="midnightblue" stroke="midnightblue" points="396.02,-675.92 391.91,-666.16 389.04,-676.36 396.02,-675.92"/>
</g>
<!-- Node3&#45;&gt;Node3 -->
<g id="edge4" class="edge">
<title>Node3&#45;&gt;Node3</title>
<path fill="none" stroke="midnightblue" d="M327.09,-599.16C319.27,-608.56 330.07,-617.5 359.5,-617.5 377.43,-617.5 388.45,-614.18 392.55,-609.46"/>
<polygon fill="midnightblue" stroke="midnightblue" points="396.02,-608.92 391.91,-599.16 389.04,-609.36 396.02,-608.92"/>
</g>
<!-- Node4&#45;&gt;Node4 -->
<g id="edge6" class="edge">
<title>Node4&#45;&gt;Node4</title>
<path fill="none" stroke="midnightblue" d="M560.69,-402.16C552.54,-411.56 563.81,-420.5 594.5,-420.5 613.2,-420.5 624.69,-417.18 628.97,-412.46"/>
<polygon fill="midnightblue" stroke="midnightblue" points="632.44,-411.91 628.31,-402.16 625.46,-412.36 632.44,-411.91"/>
</g>
<!-- Node5&#45;&gt;Node5 -->
<g id="edge9" class="edge">
<title>Node5&#45;&gt;Node5</title>
<path fill="none" stroke="midnightblue" d="M330.83,-265.76C316.89,-274.57 326.44,-284 359.5,-284 382.23,-284 393.85,-279.54 394.36,-273.89"/>
<polygon fill="midnightblue" stroke="midnightblue" points="397.01,-271.6 388.17,-265.76 391.44,-275.83 397.01,-271.6"/>
</g>
<!-- Node6 -->
<g id="node6" class="node">
<title>Node6</title>
<g id="a_node6"><a xlink:href="classrare_1_1shared_1_1rare__core_1_1_rare_core.html#a4c5d7b0b818760d1a69d2dca743a2f4b" target="_top" xlink:title="SaveGameFiles across games.">
<polygon fill="white" stroke="black" points="529.5,-241 529.5,-271 659.5,-271 659.5,-241 529.5,-241"/>
<text text-anchor="start" x="537.5" y="-259" font-family="Helvetica,sans-Serif" font-size="10.00">rare.shared.rare_core.Rare</text>
<text text-anchor="middle" x="594.5" y="-248" font-family="Helvetica,sans-Serif" font-size="10.00">Core.saves</text>
</a>
</g>
</g>
<!-- Node5&#45;&gt;Node6 -->
<g id="edge10" class="edge">
<title>Node5&#45;&gt;Node6</title>
<path fill="none" stroke="midnightblue" d="M393.39,-256C425.84,-256 476.58,-256 518.84,-256"/>
<polygon fill="midnightblue" stroke="midnightblue" points="519.11,-259.5 529.11,-256 519.11,-252.5 519.11,-259.5"/>
</g>
<!-- Node6&#45;&gt;Node6 -->
<g id="edge14" class="edge">
<title>Node6&#45;&gt;Node6</title>
<path fill="none" stroke="midnightblue" d="M560.69,-271.16C552.54,-280.56 563.81,-289.5 594.5,-289.5 613.2,-289.5 624.69,-286.18 628.97,-281.46"/>
<polygon fill="midnightblue" stroke="midnightblue" points="632.44,-280.91 628.31,-271.16 625.46,-281.36 632.44,-280.91"/>
</g>
<!-- Node7 -->
<g id="node7" class="node">
<title>Node7</title>
<g id="a_node7"><a xlink:href="classrare_1_1shared_1_1rare__core_1_1_rare_core.html#a68395f7577f6b1a63a7a62dbf1a4c6d0" target="_top" xlink:title="RareGames that have SaveGameFiles associated with them.">
<polygon fill="white" stroke="black" points="725,-241 725,-271 855,-271 855,-241 725,-241"/>
<text text-anchor="start" x="733" y="-259" font-family="Helvetica,sans-Serif" font-size="10.00">rare.shared.rare_core.Rare</text>
<text text-anchor="middle" x="790" y="-248" font-family="Helvetica,sans-Serif" font-size="10.00">Core.has_saves</text>
</a>
</g>
</g>
<!-- Node6&#45;&gt;Node7 -->
<g id="edge11" class="edge">
<title>Node6&#45;&gt;Node7</title>
<path fill="none" stroke="midnightblue" d="M659.66,-256C677.22,-256 696.39,-256 714.47,-256"/>
<polygon fill="midnightblue" stroke="midnightblue" points="714.68,-259.5 724.68,-256 714.68,-252.5 714.68,-259.5"/>
</g>
<!-- Node7&#45;&gt;Node7 -->
<g id="edge13" class="edge">
<title>Node7&#45;&gt;Node7</title>
<path fill="none" stroke="midnightblue" d="M761.07,-271.16C754.1,-280.56 763.74,-289.5 790,-289.5 806,-289.5 815.84,-286.18 819.5,-281.46"/>
<polygon fill="midnightblue" stroke="midnightblue" points="822.97,-280.95 818.93,-271.16 815.98,-281.34 822.97,-280.95"/>
</g>
<!-- Node8 -->
<g id="node8" class="node">
<title>Node8</title>
<g id="a_node8"><a xlink:href="classrare_1_1shared_1_1rare__core_1_1_rare_core.html#a311e604b365ca958c3ae7b143b6190ce" target="_top" xlink:title=" ">
<polygon fill="white" stroke="black" points="891,-241 891,-271 1021,-271 1021,-241 891,-241"/>
<text text-anchor="start" x="899" y="-259" font-family="Helvetica,sans-Serif" font-size="10.00">rare.shared.rare_core.Rare</text>
<text text-anchor="middle" x="956" y="-248" font-family="Helvetica,sans-Serif" font-size="10.00">Core.__filter_games</text>
</a>
</g>
</g>
<!-- Node7&#45;&gt;Node8 -->
<g id="edge12" class="edge">
<title>Node7&#45;&gt;Node8</title>
<path fill="none" stroke="midnightblue" d="M855.35,-256C863.64,-256 872.19,-256 880.62,-256"/>
<polygon fill="midnightblue" stroke="midnightblue" points="880.84,-259.5 890.84,-256 880.84,-252.5 880.84,-259.5"/>
</g>
<!-- Node9&#45;&gt;Node4 -->
<g id="edge16" class="edge">
<title>Node9&#45;&gt;Node4</title>
<path fill="none" stroke="midnightblue" d="M175.81,-227.67C183.63,-252.68 208.22,-319.56 255,-349 297.57,-375.78 432.99,-383.75 519.1,-386.08"/>
<polygon fill="midnightblue" stroke="midnightblue" points="519.26,-389.59 529.34,-386.34 519.44,-382.59 519.26,-389.59"/>
</g>
<!-- Node9&#45;&gt;Node5 -->
<g id="edge17" class="edge">
<title>Node9&#45;&gt;Node5</title>
<path fill="none" stroke="midnightblue" d="M219.33,-227.49C248.86,-233.54 286.86,-241.32 315.68,-247.23"/>
<polygon fill="midnightblue" stroke="midnightblue" points="315.35,-250.73 325.85,-249.31 316.76,-243.88 315.35,-250.73"/>
</g>
<!-- Node9&#45;&gt;Node6 -->
<g id="edge23" class="edge">
<title>Node9&#45;&gt;Node6</title>
<path fill="none" stroke="midnightblue" d="M219.21,-219.87C276.69,-222.46 377.78,-227.88 464,-237 482.02,-238.91 501.37,-241.47 519.49,-244.09"/>
<polygon fill="midnightblue" stroke="midnightblue" points="519,-247.56 529.41,-245.55 520.02,-240.63 519,-247.56"/>
</g>
<!-- Node9&#45;&gt;Node9 -->
<g id="edge18" class="edge">
<title>Node9&#45;&gt;Node9</title>
<path fill="none" stroke="midnightblue" d="M152.58,-227.76C143.13,-236.57 149.61,-246 172,-246 186.35,-246 194.16,-242.13 195.44,-237.03"/>
<polygon fill="midnightblue" stroke="midnightblue" points="198.61,-235.54 191.42,-227.76 192.18,-238.32 198.61,-235.54"/>
</g>
<!-- Node9&#45;&gt;Node10 -->
<g id="edge19" class="edge">
<title>Node9&#45;&gt;Node10</title>
<path fill="none" stroke="midnightblue" d="M219.27,-209.11C230.89,-207.15 243.37,-205.28 255,-204 362.21,-192.2 489.43,-188.58 553.04,-187.48"/>
<polygon fill="midnightblue" stroke="midnightblue" points="553.12,-190.98 563.06,-187.32 553.01,-183.98 553.12,-190.98"/>
</g>
<!-- Node9&#45;&gt;Node11 -->
<g id="edge21" class="edge">
<title>Node9&#45;&gt;Node11</title>
<path fill="none" stroke="midnightblue" d="M193.82,-208.46C210.16,-201.33 233.62,-191.84 255,-186 333.26,-164.63 424.1,-150.43 491.97,-141.82"/>
<polygon fill="midnightblue" stroke="midnightblue" points="492.74,-145.25 502.23,-140.53 491.88,-138.3 492.74,-145.25"/>
</g>
<!-- Node10&#45;&gt;Node10 -->
<g id="edge20" class="edge">
<title>Node10&#45;&gt;Node10</title>
<path fill="none" stroke="midnightblue" d="M564.6,-196.76C550.05,-205.57 560.02,-215 594.5,-215 618.74,-215 630.87,-210.34 630.87,-204.5"/>
<polygon fill="midnightblue" stroke="midnightblue" points="633.5,-202.19 624.4,-196.76 628.13,-206.67 633.5,-202.19"/>
</g>
<!-- Node11&#45;&gt;Node11 -->
<g id="edge22" class="edge">
<title>Node11&#45;&gt;Node11</title>
<path fill="none" stroke="midnightblue" d="M564.6,-140.76C550.05,-149.57 560.02,-159 594.5,-159 618.74,-159 630.87,-154.34 630.87,-148.5"/>
<polygon fill="midnightblue" stroke="midnightblue" points="633.5,-146.19 624.4,-140.76 628.13,-150.67 633.5,-146.19"/>
</g>
<!-- Node12&#45;&gt;Node12 -->
<g id="edge27" class="edge">
<title>Node12&#45;&gt;Node12</title>
<path fill="none" stroke="midnightblue" d="M152.58,-19.76C143.13,-28.57 149.61,-38 172,-38 186.35,-38 194.16,-34.13 195.44,-29.03"/>
<polygon fill="midnightblue" stroke="midnightblue" points="198.61,-27.54 191.42,-19.76 192.18,-30.32 198.61,-27.54"/>
</g>
<!-- Node13&#45;&gt;Node2 -->
<g id="edge29" class="edge">
<title>Node13&#45;&gt;Node2</title>
<path fill="none" stroke="midnightblue" d="M174.5,-459.88C179.61,-490.05 199.28,-581.72 255,-627 256.56,-628.27 258.17,-629.47 259.83,-630.61"/>
<polygon fill="midnightblue" stroke="midnightblue" points="258.1,-633.65 268.48,-635.81 261.71,-627.66 258.1,-633.65"/>
</g>
<!-- Node13&#45;&gt;Node3 -->
<g id="edge30" class="edge">
<title>Node13&#45;&gt;Node3</title>
<path fill="none" stroke="midnightblue" d="M177.33,-459.75C187.51,-481.46 215.13,-533.93 255,-560 262.29,-564.77 270.41,-568.59 278.82,-571.66"/>
<polygon fill="midnightblue" stroke="midnightblue" points="277.79,-575.01 288.39,-574.81 279.98,-568.36 277.79,-575.01"/>
</g>
<!-- Node13&#45;&gt;Node4 -->
<g id="edge31" class="edge">
<title>Node13&#45;&gt;Node4</title>
<path fill="none" stroke="midnightblue" d="M201.16,-440.47C216.85,-435.49 236.83,-429.68 255,-426 344.89,-407.8 450.06,-397.34 519.03,-391.92"/>
<polygon fill="midnightblue" stroke="midnightblue" points="519.65,-395.38 529.36,-391.13 519.12,-388.41 519.65,-395.38"/>
</g>
<!-- Node13&#45;&gt;Node13 -->
<g id="edge42" class="edge">
<title>Node13&#45;&gt;Node13</title>
<path fill="none" stroke="midnightblue" d="M152.58,-459.76C143.13,-468.57 149.61,-478 172,-478 186.35,-478 194.16,-474.13 195.44,-469.03"/>
<polygon fill="midnightblue" stroke="midnightblue" points="198.61,-467.54 191.42,-459.76 192.18,-470.32 198.61,-467.54"/>
</g>
<!-- Node14 -->
<g id="node14" class="node">
<title>Node14</title>
<g id="a_node14"><a xlink:href="classrare_1_1models_1_1base__game_1_1_rare_game_slim.html#a09658b980eca0a97191099319bf89b84" target="_top" xlink:title="Use only in a thread.">
<polygon fill="white" stroke="black" points="326.5,-302.5 326.5,-321.5 392.5,-321.5 392.5,-302.5 326.5,-302.5"/>
<text text-anchor="middle" x="359.5" y="-309.5" font-family="Helvetica,sans-Serif" font-size="10.00">load_saves</text>
</a>
</g>
</g>
<!-- Node13&#45;&gt;Node14 -->
<g id="edge32" class="edge">
<title>Node13&#45;&gt;Node14</title>
<path fill="none" stroke="midnightblue" d="M186.04,-440.3C217.65,-416.78 298.58,-356.58 337.27,-327.79"/>
<polygon fill="midnightblue" stroke="midnightblue" points="339.78,-330.29 345.72,-321.51 335.6,-324.67 339.78,-330.29"/>
</g>
<!-- Node15 -->
<g id="node15" class="node">
<title>Node15</title>
<g id="a_node15"><a xlink:href="classrare_1_1shared_1_1rare__core_1_1_rare_core.html#a135560fc58fcc2e5cff07ec25c23a06c" target="_top" xlink:title=" ">
<polygon fill="white" stroke="black" points="294.5,-435 294.5,-465 424.5,-465 424.5,-435 294.5,-435"/>
<text text-anchor="start" x="302.5" y="-453" font-family="Helvetica,sans-Serif" font-size="10.00">rare.shared.rare_core.Rare</text>
<text text-anchor="middle" x="359.5" y="-442" font-family="Helvetica,sans-Serif" font-size="10.00">Core.signals</text>
</a>
</g>
</g>
<!-- Node13&#45;&gt;Node15 -->
<g id="edge38" class="edge">
<title>Node13&#45;&gt;Node15</title>
<path fill="none" stroke="midnightblue" d="M210.54,-450C231.66,-450 258.79,-450 284.03,-450"/>
<polygon fill="midnightblue" stroke="midnightblue" points="284.34,-453.5 294.34,-450 284.34,-446.5 284.34,-453.5"/>
</g>
<!-- Node16 -->
<g id="node16" class="node">
<title>Node16</title>
<g id="a_node16"><a xlink:href="classrare_1_1shared_1_1workers_1_1worker_1_1_worker.html#a9998d928f5b6f30ebb69dc655c0756a8" target="_top" xlink:title=" ">
<polygon fill="white" stroke="black" points="292,-502 292,-532 427,-532 427,-502 292,-502"/>
<text text-anchor="start" x="300" y="-520" font-family="Helvetica,sans-Serif" font-size="10.00">rare.shared.workers.worker.</text>
<text text-anchor="middle" x="359.5" y="-509" font-family="Helvetica,sans-Serif" font-size="10.00">Worker.signals</text>
</a>
</g>
</g>
<!-- Node13&#45;&gt;Node16 -->
<g id="edge40" class="edge">
<title>Node13&#45;&gt;Node16</title>
<path fill="none" stroke="midnightblue" d="M188.47,-459.65C204.56,-469.31 230.74,-483.99 255,-493 263.57,-496.18 272.71,-499.03 281.86,-501.56"/>
<polygon fill="midnightblue" stroke="midnightblue" points="281.22,-505.01 291.78,-504.17 283,-498.24 281.22,-505.01"/>
</g>
<!-- Node14&#45;&gt;Node4 -->
<g id="edge33" class="edge">
<title>Node14&#45;&gt;Node4</title>
<path fill="none" stroke="midnightblue" d="M390.48,-321.65C427.43,-333.54 490.98,-354 537.15,-368.86"/>
<polygon fill="midnightblue" stroke="midnightblue" points="536.14,-372.21 546.73,-371.94 538.28,-365.55 536.14,-372.21"/>
</g>
<!-- Node14&#45;&gt;Node6 -->
<g id="edge37" class="edge">
<title>Node14&#45;&gt;Node6</title>
<path fill="none" stroke="midnightblue" d="M392.83,-306.89C413.33,-303.45 440.34,-298.54 464,-293 487.5,-287.5 513.1,-280.42 535.29,-273.93"/>
<polygon fill="midnightblue" stroke="midnightblue" points="536.3,-277.28 544.9,-271.09 534.32,-270.56 536.3,-277.28"/>
</g>
<!-- Node14&#45;&gt;Node10 -->
<g id="edge35" class="edge">
<title>Node14&#45;&gt;Node10</title>
<path fill="none" stroke="midnightblue" d="M392.55,-312.83C414.46,-311.89 443.18,-307.54 464,-293 489.81,-274.98 476.82,-253.3 500,-232 515.33,-217.91 535.88,-207.37 553.81,-200.05"/>
<polygon fill="midnightblue" stroke="midnightblue" points="555.4,-203.19 563.45,-196.31 552.86,-196.66 555.4,-203.19"/>
</g>
<!-- Node14&#45;&gt;Node11 -->
<g id="edge36" class="edge">
<title>Node14&#45;&gt;Node11</title>
<path fill="none" stroke="midnightblue" d="M392.83,-314.41C415.45,-314.3 444.91,-310.29 464,-293 506.85,-254.19 461.14,-210.8 500,-168 509.73,-157.29 522.96,-149.63 536.4,-144.18"/>
<polygon fill="midnightblue" stroke="midnightblue" points="538,-147.32 546.18,-140.59 535.59,-140.75 538,-147.32"/>
</g>
<!-- Node14&#45;&gt;Node14 -->
<g id="edge34" class="edge">
<title>Node14&#45;&gt;Node14</title>
<path fill="none" stroke="midnightblue" d="M330.83,-321.76C316.89,-330.57 326.44,-340 359.5,-340 382.23,-340 393.85,-335.54 394.36,-329.89"/>
<polygon fill="midnightblue" stroke="midnightblue" points="397.01,-327.6 388.17,-321.76 391.44,-331.83 397.01,-327.6"/>
</g>
<!-- Node15&#45;&gt;Node15 -->
<g id="edge39" class="edge">
<title>Node15&#45;&gt;Node15</title>
<path fill="none" stroke="midnightblue" d="M327.09,-465.16C319.27,-474.56 330.07,-483.5 359.5,-483.5 377.43,-483.5 388.45,-480.18 392.55,-475.46"/>
<polygon fill="midnightblue" stroke="midnightblue" points="396.02,-474.92 391.91,-465.16 389.04,-475.36 396.02,-474.92"/>
</g>
<!-- Node16&#45;&gt;Node16 -->
<g id="edge41" class="edge">
<title>Node16&#45;&gt;Node16</title>
<path fill="none" stroke="midnightblue" d="M327.09,-532.16C319.27,-541.56 330.07,-550.5 359.5,-550.5 377.43,-550.5 388.45,-547.18 392.55,-542.46"/>
<polygon fill="midnightblue" stroke="midnightblue" points="396.02,-541.92 391.91,-532.16 389.04,-542.36 396.02,-541.92"/>
</g>
</g>
</svg>
        <g id="navigator" transform="translate(0 0)" fill="#404254">
                <rect fill="#f2f5e9" fill-opacity="0.5" stroke="#606060" stroke-width=".5" x="0" y="0" width="60" height="60"/>
                <use id="zoomplus" xlink:href="#zoomPlus" x="17" y="9" onmousedown="handleZoom(evt,'in')"/>
                <use id="zoomminus" xlink:href="#zoomMin" x="42" y="9" onmousedown="handleZoom(evt,'out')"/>
                <use id="reset" xlink:href="#resetDef" x="30" y="36" onmousedown="handleReset()"/>
                <g id="arrowUp" xlink:href="#dirArrow" transform="translate(30 24)" onmousedown="handlePan(0,-1)">
                  <use xlink:href="#rim" fill="#404040">
                        <set attributeName="fill" to="#808080" begin="arrowUp.mouseover" end="arrowUp.mouseout"/>
                  </use>
                  <path fill="none" stroke="white" stroke-width="1.5" d="M0,-3.0v7 M-2.5,-0.5L0,-3.0L2.5,-0.5"/>
                </g>
                <g id="arrowRight" xlink:href="#dirArrow" transform="rotate(90) translate(36 -43)" onmousedown="handlePan(1,0)">
                  <use xlink:href="#rim" fill="#404040">
                        <set attributeName="fill" to="#808080" begin="arrowRight.mouseover" end="arrowRight.mouseout"/>
                  </use>
                  <path fill="none" stroke="white" stroke-width="1.5" d="M0,-3.0v7 M-2.5,-0.5L0,-3.0L2.5,-0.5"/>
                </g>
                <g id="arrowDown" xlink:href="#dirArrow" transform="rotate(180) translate(-30 -48)" onmousedown="handlePan(0,1)">
                  <use xlink:href="#rim" fill="#404040">
                        <set attributeName="fill" to="#808080" begin="arrowDown.mouseover" end="arrowDown.mouseout"/>
                  </use>
                  <path fill="none" stroke="white" stroke-width="1.5" d="M0,-3.0v7 M-2.5,-0.5L0,-3.0L2.5,-0.5"/>
                </g>
                <g id="arrowLeft" xlink:href="#dirArrow" transform="rotate(270) translate(-36 17)" onmousedown="handlePan(-1,0)">
                  <use xlink:href="#rim" fill="#404040">
                        <set attributeName="fill" to="#808080" begin="arrowLeft.mouseover" end="arrowLeft.mouseout"/>
                  </use>
                  <path fill="none" stroke="white" stroke-width="1.5" d="M0,-3.0v7 M-2.5,-0.5L0,-3.0L2.5,-0.5"/>
                </g>
        </g>
        <svg viewBox="0 0 15 15" width="100%" height="30px" preserveAspectRatio="xMaxYMin meet">
         <g id="arrow_out" transform="scale(0.3 0.3)">
          <a xlink:href="classrare_1_1models_1_1base__game_1_1_rare_game_slim_a13a51449b5ed361bfe860829df5a87f5_cgraph_org.svg" target="_base">
           <rect id="button" ry="5" rx="5" y="6" x="6" height="38" width="38"
                fill="#f2f5e9" fill-opacity="0.5" stroke="#606060" stroke-width="1.0"/>
           <path id="arrow"
             d="M 11.500037,31.436501 C 11.940474,20.09759 22.043105,11.32322 32.158766,21.979434 L 37.068811,17.246167 C 37.068811,17.246167 37.088388,32 37.088388,32 L 22.160133,31.978069 C 22.160133,31.978069 26.997745,27.140456 26.997745,27.140456 C 18.528582,18.264221 13.291696,25.230495 11.500037,31.436501 z"
             style="fill:#404040;"/>
          </a>
         </g>
        </svg>
</svg>
