<?xml version="1.0" encoding="UTF-8" standalone="no"?>
<!DOCTYPE svg PUBLIC "-//W3C//DTD SVG 1.1//EN"
 "http://www.w3.org/Graphics/SVG/1.1/DTD/svg11.dtd">
<!-- Generated by graphviz version 2.49.3 (20211027.1534)
 -->
<!-- Title: horizontalSpacing Pages: 1 -->
<svg width="370pt" height="124pt"
 viewBox="0.00 0.00 370.00 124.00" xmlns="http://www.w3.org/2000/svg" xmlns:xlink="http://www.w3.org/1999/xlink">
<g id="graph0" class="graph" transform="scale(1 1) rotate(0) translate(4 120)">
<title>horizontalSpacing</title>
<polygon fill="white" stroke="transparent" points="-4,4 -4,-120 366,-120 366,4 -4,4"/>
<!-- Node1 -->
<g id="node1" class="node">
<title>Node1</title>
<g id="a_node1"><a xlink:title=" ">
<polygon fill="#bfbfbf" stroke="black" points="0,-39 0,-58 93,-58 93,-39 0,-39"/>
<text text-anchor="middle" x="46.5" y="-46" font-family="Helvetica,sans-Serif" font-size="10.00">horizontalSpacing</text>
</a>
</g>
</g>
<!-- Node1&#45;&gt;Node1 -->
<g id="edge1" class="edge">
<title>Node1&#45;&gt;Node1</title>
<path fill="none" stroke="midnightblue" d="M28,-58.26C19.01,-67.07 25.17,-76.5 46.5,-76.5 60.16,-76.5 67.6,-72.63 68.82,-67.53"/>
<polygon fill="midnightblue" stroke="midnightblue" points="72.05,-66.17 65,-58.26 65.57,-68.84 72.05,-66.17"/>
</g>
<!-- Node2 -->
<g id="node2" class="node">
<title>Node2</title>
<g id="a_node2"><a xlink:href="classrare_1_1utils_1_1extra__widgets_1_1_flow_layout.html#a2e8d545883a85a6757198adec7da2731" target="_top" xlink:title=" ">
<polygon fill="white" stroke="black" points="129,-39 129,-58 206,-58 206,-39 129,-39"/>
<text text-anchor="middle" x="167.5" y="-46" font-family="Helvetica,sans-Serif" font-size="10.00">smartSpacing</text>
</a>
</g>
</g>
<!-- Node1&#45;&gt;Node2 -->
<g id="edge2" class="edge">
<title>Node1&#45;&gt;Node2</title>
<path fill="none" stroke="midnightblue" d="M93.17,-48.5C101.56,-48.5 110.33,-48.5 118.78,-48.5"/>
<polygon fill="midnightblue" stroke="midnightblue" points="118.87,-52 128.87,-48.5 118.87,-45 118.87,-52"/>
</g>
<!-- Node2&#45;&gt;Node2 -->
<g id="edge7" class="edge">
<title>Node2&#45;&gt;Node2</title>
<path fill="none" stroke="midnightblue" d="M149,-58.26C140.01,-67.07 146.17,-76.5 167.5,-76.5 181.16,-76.5 188.6,-72.63 189.82,-67.53"/>
<polygon fill="midnightblue" stroke="midnightblue" points="193.05,-66.17 186,-58.26 186.57,-68.84 193.05,-66.17"/>
</g>
<!-- Node3 -->
<g id="node3" class="node">
<title>Node3</title>
<g id="a_node3"><a xlink:href="classrare_1_1utils_1_1json__formatter_1_1_q_json_tree_item.html#a35061dd226fbf32b76578ca1f0759ce1" target="_top" xlink:title=" ">
<polygon fill="white" stroke="black" points="242,-67.5 242,-97.5 362,-97.5 362,-67.5 242,-67.5"/>
<text text-anchor="start" x="250" y="-85.5" font-family="Helvetica,sans-Serif" font-size="10.00">rare.utils.json_formatter.</text>
<text text-anchor="middle" x="302" y="-74.5" font-family="Helvetica,sans-Serif" font-size="10.00">QJsonTreeItem.parent</text>
</a>
</g>
</g>
<!-- Node2&#45;&gt;Node3 -->
<g id="edge3" class="edge">
<title>Node2&#45;&gt;Node3</title>
<path fill="none" stroke="midnightblue" d="M205.76,-58.06C214.14,-60.21 223.28,-62.56 232.49,-64.92"/>
<polygon fill="midnightblue" stroke="midnightblue" points="231.91,-68.38 242.46,-67.48 233.65,-61.6 231.91,-68.38"/>
</g>
<!-- Node4 -->
<g id="node4" class="node">
<title>Node4</title>
<g id="a_node4"><a xlink:href="classrare_1_1utils_1_1json__formatter_1_1_q_json_model.html#acbb44b417d59fdabb258afc05df6e499" target="_top" xlink:title=" ">
<polygon fill="white" stroke="black" points="242,-0.5 242,-30.5 362,-30.5 362,-0.5 242,-0.5"/>
<text text-anchor="start" x="250" y="-18.5" font-family="Helvetica,sans-Serif" font-size="10.00">rare.utils.json_formatter.</text>
<text text-anchor="middle" x="302" y="-7.5" font-family="Helvetica,sans-Serif" font-size="10.00">QJsonModel.parent</text>
</a>
</g>
</g>
<!-- Node2&#45;&gt;Node4 -->
<g id="edge5" class="edge">
<title>Node2&#45;&gt;Node4</title>
<path fill="none" stroke="midnightblue" d="M206.11,-39.13C214.32,-37.09 223.25,-34.87 232.24,-32.63"/>
<polygon fill="midnightblue" stroke="midnightblue" points="233.13,-36.01 241.99,-30.2 231.44,-29.22 233.13,-36.01"/>
</g>
<!-- Node3&#45;&gt;Node3 -->
<g id="edge4" class="edge">
<title>Node3&#45;&gt;Node3</title>
<path fill="none" stroke="midnightblue" d="M278.65,-97.66C273.02,-107.06 280.8,-116 302,-116 314.92,-116 322.86,-112.68 325.81,-107.96"/>
<polygon fill="midnightblue" stroke="midnightblue" points="329.29,-107.49 325.35,-97.66 322.3,-107.8 329.29,-107.49"/>
</g>
<!-- Node4&#45;&gt;Node4 -->
<g id="edge6" class="edge">
<title>Node4&#45;&gt;Node4</title>
<path fill="none" stroke="midnightblue" d="M278.65,-30.66C273.02,-40.06 280.8,-49 302,-49 314.92,-49 322.86,-45.68 325.81,-40.96"/>
<polygon fill="midnightblue" stroke="midnightblue" points="329.29,-40.49 325.35,-30.66 322.3,-40.8 329.29,-40.49"/>
</g>
</g>
</svg>
