<?xml version="1.0" encoding="UTF-8" standalone="no"?>
<!DOCTYPE svg PUBLIC "-//W3C//DTD SVG 1.1//EN"
 "http://www.w3.org/Graphics/SVG/1.1/DTD/svg11.dtd">
<!-- Generated by graphviz version 2.49.3 (20211027.1534)
 -->
<!-- Title: override_exe_save_callback Pages: 1 -->
<svg width="303pt" height="46pt"
 viewBox="0.00 0.00 303.00 46.00" xmlns="http://www.w3.org/2000/svg" xmlns:xlink="http://www.w3.org/1999/xlink">
<g id="graph0" class="graph" transform="scale(1 1) rotate(0) translate(4 42)">
<title>override_exe_save_callback</title>
<polygon fill="white" stroke="transparent" points="-4,4 -4,-42 299,-42 299,4 -4,4"/>
<!-- Node1 -->
<g id="node1" class="node">
<title>Node1</title>
<g id="a_node1"><a xlink:title=" ">
<polygon fill="#bfbfbf" stroke="black" points="0,-0.5 0,-19.5 139,-19.5 139,-0.5 0,-0.5"/>
<text text-anchor="middle" x="69.5" y="-7.5" font-family="Helvetica,sans-Serif" font-size="10.00">override_exe_save_callback</text>
</a>
</g>
</g>
<!-- Node1&#45;&gt;Node1 -->
<g id="edge3" class="edge">
<title>Node1&#45;&gt;Node1</title>
<path fill="none" stroke="midnightblue" d="M44.22,-19.76C31.93,-28.57 40.35,-38 69.5,-38 89.08,-38 99.31,-33.74 100.19,-28.27"/>
<polygon fill="midnightblue" stroke="midnightblue" points="103.09,-26.32 94.78,-19.76 97.19,-30.07 103.09,-26.32"/>
</g>
<!-- Node2 -->
<g id="node2" class="node">
<title>Node2</title>
<g id="a_node2"><a xlink:href="classrare_1_1components_1_1tabs_1_1games_1_1game__info_1_1game__settings_1_1_game_settings.html#a45aa4fd46e6b59025cea486ec68442fe" target="_top" xlink:title=" ">
<polygon fill="white" stroke="black" points="175,-0.5 175,-19.5 295,-19.5 295,-0.5 175,-0.5"/>
<text text-anchor="middle" x="235" y="-7.5" font-family="Helvetica,sans-Serif" font-size="10.00">line_edit_save_callback</text>
</a>
</g>
</g>
<!-- Node1&#45;&gt;Node2 -->
<g id="edge1" class="edge">
<title>Node1&#45;&gt;Node2</title>
<path fill="none" stroke="midnightblue" d="M139.36,-10C147.74,-10 156.3,-10 164.68,-10"/>
<polygon fill="midnightblue" stroke="midnightblue" points="164.8,-13.5 174.8,-10 164.8,-6.5 164.8,-13.5"/>
</g>
<!-- Node2&#45;&gt;Node2 -->
<g id="edge2" class="edge">
<title>Node2&#45;&gt;Node2</title>
<path fill="none" stroke="midnightblue" d="M209.72,-19.76C197.43,-28.57 205.85,-38 235,-38 254.58,-38 264.81,-33.74 265.69,-28.27"/>
<polygon fill="midnightblue" stroke="midnightblue" points="268.59,-26.32 260.28,-19.76 262.69,-30.07 268.59,-26.32"/>
</g>
</g>
</svg>
