<?xml version="1.0" encoding="UTF-8" standalone="no"?>
<!DOCTYPE svg PUBLIC "-//W3C//DTD SVG 1.1//EN"
 "http://www.w3.org/Graphics/SVG/1.1/DTD/svg11.dtd">
<!-- Generated by graphviz version 2.49.3 (20211027.1534)
 -->
<!-- Title: PreLaunch.Signals Pages: 1 -->
<svg width="128pt" height="215pt"
 viewBox="0.00 0.00 128.00 215.00" xmlns="http://www.w3.org/2000/svg" xmlns:xlink="http://www.w3.org/1999/xlink">
<g id="graph0" class="graph" transform="scale(1 1) rotate(0) translate(4 211)">
<title>PreLaunch.Signals</title>
<polygon fill="white" stroke="transparent" points="-4,4 -4,-211 124,-211 124,4 -4,4"/>
<!-- Node1 -->
<g id="node1" class="node">
<title>Node1</title>
<g id="a_node1"><a xlink:title=" ">
<polygon fill="#bfbfbf" stroke="black" points="0,-0.5 0,-112.5 120,-112.5 120,-0.5 0,-0.5"/>
<text text-anchor="middle" x="60" y="-100.5" font-family="Helvetica,sans-Serif" font-size="10.00">PreLaunch.Signals</text>
<polyline fill="none" stroke="black" points="0,-93.5 120,-93.5 "/>
<text text-anchor="start" x="8" y="-81.5" font-family="Helvetica,sans-Serif" font-size="10.00">+ ready_to_launch</text>
<text text-anchor="start" x="8" y="-70.5" font-family="Helvetica,sans-Serif" font-size="10.00">+ pre_launch_command</text>
<text text-anchor="start" x="8" y="-59.5" font-family="Helvetica,sans-Serif" font-size="10.00">_started</text>
<text text-anchor="start" x="8" y="-48.5" font-family="Helvetica,sans-Serif" font-size="10.00">+ pre_launch_command</text>
<text text-anchor="start" x="8" y="-37.5" font-family="Helvetica,sans-Serif" font-size="10.00">_finished</text>
<text text-anchor="start" x="8" y="-26.5" font-family="Helvetica,sans-Serif" font-size="10.00">+ error_occurred</text>
<polyline fill="none" stroke="black" points="0,-19.5 120,-19.5 "/>
<text text-anchor="middle" x="60" y="-7.5" font-family="Helvetica,sans-Serif" font-size="10.00"> </text>
</a>
</g>
</g>
<!-- Node2 -->
<g id="node2" class="node">
<title>Node2</title>
<g id="a_node2"><a xlink:title=" ">
<polygon fill="white" stroke="#bfbfbf" points="33.5,-149.5 33.5,-206.5 86.5,-206.5 86.5,-149.5 33.5,-149.5"/>
<text text-anchor="middle" x="60" y="-194.5" font-family="Helvetica,sans-Serif" font-size="10.00">QObject</text>
<polyline fill="none" stroke="#bfbfbf" points="33.5,-187.5 86.5,-187.5 "/>
<text text-anchor="middle" x="60" y="-175.5" font-family="Helvetica,sans-Serif" font-size="10.00"> </text>
<polyline fill="none" stroke="#bfbfbf" points="33.5,-168.5 86.5,-168.5 "/>
<text text-anchor="middle" x="60" y="-156.5" font-family="Helvetica,sans-Serif" font-size="10.00"> </text>
</a>
</g>
</g>
<!-- Node2&#45;&gt;Node1 -->
<g id="edge1" class="edge">
<title>Node2&#45;&gt;Node1</title>
<path fill="none" stroke="midnightblue" d="M60,-139.11C60,-130.75 60,-121.73 60,-112.83"/>
<polygon fill="none" stroke="midnightblue" points="56.5,-139.28 60,-149.28 63.5,-139.28 56.5,-139.28"/>
</g>
</g>
</svg>
