<?xml version="1.0" encoding="UTF-8" standalone="no"?>
<!DOCTYPE svg PUBLIC "-//W3C//DTD SVG 1.1//EN"
 "http://www.w3.org/Graphics/SVG/1.1/DTD/svg11.dtd">
<!-- Generated by graphviz version 2.49.3 (20211027.1534)
 -->
<!-- Title: setPixmap Pages: 1 -->
<!--zoomable 258 -->
<svg id="main" version="1.1" xmlns="http://www.w3.org/2000/svg" xmlns:xlink="http://www.w3.org/1999/xlink" xml:space="preserve" onload="init(evt)">
<style type="text/css"><![CDATA[
.edge:hover path { stroke: red; }
.edge:hover polygon { stroke: red; fill: red; }
]]></style>
<script type="text/javascript"><![CDATA[
var edges = document.getElementsByTagName('g');
if (edges && edges.length) {
  for (var i=0;i<edges.length;i++) {
    if (edges[i].id.substr(0,4)=='edge') {
      edges[i].setAttribute('class','edge');
    }
  }
}
]]></script>
        <defs>
                <circle id="rim" cx="0" cy="0" r="7"/>
                <circle id="rim2" cx="0" cy="0" r="3.5"/>
                <g id="zoomPlus">
                        <use xlink:href="#rim" fill="#404040">
                                <set attributeName="fill" to="#808080" begin="zoomplus.mouseover" end="zoomplus.mouseout"/>
                        </use>
                        <path d="M-4,0h8M0,-4v8" fill="none" stroke="white" stroke-width="1.5" pointer-events="none"/>
                </g>
                <g id="zoomMin">
                        <use xlink:href="#rim" fill="#404040">
                                <set attributeName="fill" to="#808080" begin="zoomminus.mouseover" end="zoomminus.mouseout"/>
                        </use>
                        <path d="M-4,0h8" fill="none" stroke="white" stroke-width="1.5" pointer-events="none"/>
                </g>
                <g id="dirArrow">
                        <path fill="none" stroke="white" stroke-width="1.5" d="M0,-3.0v7 M-2.5,-0.5L0,-3.0L2.5,-0.5"/>
                </g>
               <g id="resetDef">
                       <use xlink:href="#rim2" fill="#404040">
                               <set attributeName="fill" to="#808080" begin="reset.mouseover" end="reset.mouseout"/>
                       </use>
               </g>
        </defs>

<script type="text/javascript">
var viewWidth = 691;
var viewHeight = 258;
var sectionId = 'dynsection-18';
</script>
<script xlink:href="svgpan.js"/>
<svg id="graph" class="graph">
<g id="viewport">
<title>setPixmap</title>
<polygon fill="white" stroke="transparent" points="-4,4 -4,-254 686.86,-254 686.86,4 -4,4"/>
<!-- Node1 -->
<g id="node1" class="node">
<title>Node1</title>
<g id="a_node1"><a xlink:title=" ">
<polygon fill="#bfbfbf" stroke="black" points="0.86,-106 0.86,-125 62.86,-125 62.86,-106 0.86,-106"/>
<text text-anchor="middle" x="31.86" y="-113" font-family="Helvetica,sans-Serif" font-size="10.00">setPixmap</text>
</a>
</g>
</g>
<!-- Node1&#45;&gt;Node1 -->
<g id="edge19" class="edge">
<title>Node1&#45;&gt;Node1</title>
<path fill="none" stroke="midnightblue" d="M5.96,-125.26C-6.63,-134.07 2,-143.5 31.86,-143.5 51.92,-143.5 62.4,-139.24 63.29,-133.77"/>
<polygon fill="midnightblue" stroke="midnightblue" points="66.14,-131.73 57.75,-125.26 60.27,-135.55 66.14,-131.73"/>
</g>
<!-- Node2 -->
<g id="node2" class="node">
<title>Node2</title>
<g id="a_node2"><a xlink:href="classrare_1_1components_1_1tabs_1_1downloads_1_1download_1_1_download_widget.html#a7237f0ce0aaddf9396e9801066707c3e" target="_top" xlink:title=" ">
<polygon fill="white" stroke="black" points="98.86,-131.5 98.86,-161.5 302.86,-161.5 302.86,-131.5 98.86,-131.5"/>
<text text-anchor="start" x="106.86" y="-149.5" font-family="Helvetica,sans-Serif" font-size="10.00">rare.components.tabs.downloads.download.</text>
<text text-anchor="middle" x="200.86" y="-138.5" font-family="Helvetica,sans-Serif" font-size="10.00">DownloadWidget.prepare_pixmap</text>
</a>
</g>
</g>
<!-- Node1&#45;&gt;Node2 -->
<g id="edge1" class="edge">
<title>Node1&#45;&gt;Node2</title>
<path fill="none" stroke="midnightblue" d="M63.1,-121.11C76.18,-123.54 92.24,-126.52 108.71,-129.58"/>
<polygon fill="midnightblue" stroke="midnightblue" points="108.52,-133.11 118.99,-131.49 109.8,-126.22 108.52,-133.11"/>
</g>
<!-- Node8 -->
<g id="node8" class="node">
<title>Node8</title>
<g id="a_node8"><a xlink:href="classrare_1_1components_1_1tabs_1_1games_1_1game__widgets_1_1list__game__widget_1_1_list_game_widget.html#a7237f0ce0aaddf9396e9801066707c3e" target="_top" xlink:title=" ">
<polygon fill="white" stroke="black" points="158.36,-75 158.36,-94 243.36,-94 243.36,-75 158.36,-75"/>
<text text-anchor="middle" x="200.86" y="-82" font-family="Helvetica,sans-Serif" font-size="10.00">prepare_pixmap</text>
</a>
</g>
</g>
<!-- Node1&#45;&gt;Node8 -->
<g id="edge13" class="edge">
<title>Node1&#45;&gt;Node8</title>
<path fill="none" stroke="midnightblue" d="M63.1,-109.89C86.79,-105.49 120.3,-99.27 148.22,-94.09"/>
<polygon fill="midnightblue" stroke="midnightblue" points="149.03,-97.5 158.22,-92.23 147.75,-90.61 149.03,-97.5"/>
</g>
<!-- Node2&#45;&gt;Node2 -->
<g id="edge2" class="edge">
<title>Node2&#45;&gt;Node2</title>
<path fill="none" stroke="midnightblue" d="M171.58,-161.66C164.52,-171.06 174.28,-180 200.86,-180 217.05,-180 227,-176.68 230.71,-171.96"/>
<polygon fill="midnightblue" stroke="midnightblue" points="234.19,-171.45 230.13,-161.66 227.2,-171.84 234.19,-171.45"/>
</g>
<!-- Node3 -->
<g id="node3" class="node">
<title>Node3</title>
<g id="a_node3"><a xlink:href="classrare_1_1widgets_1_1collapsible__widget_1_1_collapsible_base.html#a3936acd9cb32819e34a215b089302522" target="_top" xlink:title=" ">
<polygon fill="white" stroke="black" points="348.86,-67.5 348.86,-97.5 508.86,-97.5 508.86,-67.5 348.86,-67.5"/>
<text text-anchor="start" x="356.86" y="-85.5" font-family="Helvetica,sans-Serif" font-size="10.00">rare.widgets.collapsible</text>
<text text-anchor="middle" x="428.86" y="-74.5" font-family="Helvetica,sans-Serif" font-size="10.00">_widget.CollapsibleBase.sizeHint</text>
</a>
</g>
</g>
<!-- Node2&#45;&gt;Node3 -->
<g id="edge3" class="edge">
<title>Node2&#45;&gt;Node3</title>
<path fill="none" stroke="midnightblue" d="M265.05,-131.48C277.61,-128.32 290.68,-124.9 302.86,-121.5 325.74,-115.11 350.76,-107.43 372.37,-100.59"/>
<polygon fill="midnightblue" stroke="midnightblue" points="373.58,-103.88 382.04,-97.51 371.45,-97.21 373.58,-103.88"/>
</g>
<!-- Node4 -->
<g id="node4" class="node">
<title>Node4</title>
<g id="a_node4"><a xlink:href="classrare_1_1widgets_1_1collapsible__widget_1_1_collapsible_frame.html#a3936acd9cb32819e34a215b089302522" target="_top" xlink:title=" ">
<polygon fill="white" stroke="black" points="346.36,-0.5 346.36,-30.5 511.36,-30.5 511.36,-0.5 346.36,-0.5"/>
<text text-anchor="start" x="354.36" y="-18.5" font-family="Helvetica,sans-Serif" font-size="10.00">rare.widgets.collapsible</text>
<text text-anchor="middle" x="428.86" y="-7.5" font-family="Helvetica,sans-Serif" font-size="10.00">_widget.CollapsibleFrame.sizeHint</text>
</a>
</g>
</g>
<!-- Node2&#45;&gt;Node4 -->
<g id="edge5" class="edge">
<title>Node2&#45;&gt;Node4</title>
<path fill="none" stroke="midnightblue" d="M286.43,-131.3C292.26,-128.55 297.81,-125.31 302.86,-121.5 328.59,-102.06 315.28,-80.5 338.86,-58.5 349.05,-48.98 361.75,-41.18 374.32,-34.95"/>
<polygon fill="midnightblue" stroke="midnightblue" points="375.85,-38.1 383.42,-30.7 372.88,-31.76 375.85,-38.1"/>
</g>
<!-- Node5 -->
<g id="node5" class="node">
<title>Node5</title>
<g id="a_node5"><a xlink:href="classrare_1_1widgets_1_1collapsible__widget_1_1_collapsible_group_box.html#a3936acd9cb32819e34a215b089302522" target="_top" xlink:title=" ">
<polygon fill="white" stroke="black" points="338.86,-201.5 338.86,-231.5 518.86,-231.5 518.86,-201.5 338.86,-201.5"/>
<text text-anchor="start" x="346.86" y="-219.5" font-family="Helvetica,sans-Serif" font-size="10.00">rare.widgets.collapsible</text>
<text text-anchor="middle" x="428.86" y="-208.5" font-family="Helvetica,sans-Serif" font-size="10.00">_widget.CollapsibleGroupBox.sizeHint</text>
</a>
</g>
</g>
<!-- Node2&#45;&gt;Node5 -->
<g id="edge7" class="edge">
<title>Node2&#45;&gt;Node5</title>
<path fill="none" stroke="midnightblue" d="M244.53,-161.57C271.45,-170.89 307.04,-182.88 338.86,-192.5 345.7,-194.57 352.87,-196.65 360.04,-198.67"/>
<polygon fill="midnightblue" stroke="midnightblue" points="359.21,-202.07 369.78,-201.38 361.09,-195.33 359.21,-202.07"/>
</g>
<!-- Node6 -->
<g id="node6" class="node">
<title>Node6</title>
<g id="a_node6"><a xlink:href="classrare_1_1widgets_1_1flow__layout_1_1_flow_layout.html#a3936acd9cb32819e34a215b089302522" target="_top" xlink:title=" ">
<polygon fill="white" stroke="black" points="367.86,-134.5 367.86,-164.5 489.86,-164.5 489.86,-134.5 367.86,-134.5"/>
<text text-anchor="start" x="375.86" y="-152.5" font-family="Helvetica,sans-Serif" font-size="10.00">rare.widgets.flow_layout.</text>
<text text-anchor="middle" x="428.86" y="-141.5" font-family="Helvetica,sans-Serif" font-size="10.00">FlowLayout.sizeHint</text>
</a>
</g>
</g>
<!-- Node2&#45;&gt;Node6 -->
<g id="edge9" class="edge">
<title>Node2&#45;&gt;Node6</title>
<path fill="none" stroke="midnightblue" d="M302.96,-147.84C321.43,-148.09 340.33,-148.34 357.65,-148.57"/>
<polygon fill="midnightblue" stroke="midnightblue" points="357.61,-152.07 367.65,-148.7 357.7,-145.07 357.61,-152.07"/>
</g>
<!-- Node3&#45;&gt;Node3 -->
<g id="edge4" class="edge">
<title>Node3&#45;&gt;Node3</title>
<path fill="none" stroke="midnightblue" d="M395.75,-97.66C387.76,-107.06 398.8,-116 428.86,-116 447.17,-116 458.43,-112.68 462.62,-107.96"/>
<polygon fill="midnightblue" stroke="midnightblue" points="466.09,-107.42 461.97,-97.66 459.1,-107.86 466.09,-107.42"/>
</g>
<!-- Node4&#45;&gt;Node4 -->
<g id="edge6" class="edge">
<title>Node4&#45;&gt;Node4</title>
<path fill="none" stroke="midnightblue" d="M395.75,-30.66C387.76,-40.06 398.8,-49 428.86,-49 447.17,-49 458.43,-45.68 462.62,-40.96"/>
<polygon fill="midnightblue" stroke="midnightblue" points="466.09,-40.42 461.97,-30.66 459.1,-40.86 466.09,-40.42"/>
</g>
<!-- Node5&#45;&gt;Node5 -->
<g id="edge8" class="edge">
<title>Node5&#45;&gt;Node5</title>
<path fill="none" stroke="midnightblue" d="M395.75,-231.66C387.76,-241.06 398.8,-250 428.86,-250 447.17,-250 458.43,-246.68 462.62,-241.96"/>
<polygon fill="midnightblue" stroke="midnightblue" points="466.09,-241.42 461.97,-231.66 459.1,-241.86 466.09,-241.42"/>
</g>
<!-- Node6&#45;&gt;Node6 -->
<g id="edge12" class="edge">
<title>Node6&#45;&gt;Node6</title>
<path fill="none" stroke="midnightblue" d="M395.75,-164.66C387.76,-174.06 398.8,-183 428.86,-183 447.17,-183 458.43,-179.68 462.62,-174.96"/>
<polygon fill="midnightblue" stroke="midnightblue" points="466.09,-174.42 461.97,-164.66 459.1,-174.86 466.09,-174.42"/>
</g>
<!-- Node7 -->
<g id="node7" class="node">
<title>Node7</title>
<g id="a_node7"><a xlink:href="classrare_1_1widgets_1_1flow__layout_1_1_flow_layout.html#a464fdd6525ee797b1d8e4bdf6441983d" target="_top" xlink:title=" ">
<polygon fill="white" stroke="black" points="554.86,-134.5 554.86,-164.5 682.86,-164.5 682.86,-134.5 554.86,-134.5"/>
<text text-anchor="start" x="562.86" y="-152.5" font-family="Helvetica,sans-Serif" font-size="10.00">rare.widgets.flow_layout.</text>
<text text-anchor="middle" x="618.86" y="-141.5" font-family="Helvetica,sans-Serif" font-size="10.00">FlowLayout.minimumSize</text>
</a>
</g>
</g>
<!-- Node6&#45;&gt;Node7 -->
<g id="edge10" class="edge">
<title>Node6&#45;&gt;Node7</title>
<path fill="none" stroke="midnightblue" d="M489.86,-149.5C507.19,-149.5 526.3,-149.5 544.35,-149.5"/>
<polygon fill="midnightblue" stroke="midnightblue" points="544.54,-153 554.54,-149.5 544.54,-146 544.54,-153"/>
</g>
<!-- Node7&#45;&gt;Node7 -->
<g id="edge11" class="edge">
<title>Node7&#45;&gt;Node7</title>
<path fill="none" stroke="midnightblue" d="M585.75,-164.66C577.76,-174.06 588.8,-183 618.86,-183 637.17,-183 648.43,-179.68 652.62,-174.96"/>
<polygon fill="midnightblue" stroke="midnightblue" points="656.09,-174.42 651.97,-164.66 649.1,-174.86 656.09,-174.42"/>
</g>
<!-- Node8&#45;&gt;Node3 -->
<g id="edge15" class="edge">
<title>Node8&#45;&gt;Node3</title>
<path fill="none" stroke="midnightblue" d="M243.57,-84.13C270.16,-83.9 305.64,-83.58 338.37,-83.29"/>
<polygon fill="midnightblue" stroke="midnightblue" points="338.45,-86.79 348.42,-83.2 338.39,-79.79 338.45,-86.79"/>
</g>
<!-- Node8&#45;&gt;Node4 -->
<g id="edge16" class="edge">
<title>Node8&#45;&gt;Node4</title>
<path fill="none" stroke="midnightblue" d="M233.28,-74.91C268.24,-64.23 325.49,-46.75 368.86,-33.51"/>
<polygon fill="midnightblue" stroke="midnightblue" points="369.91,-36.85 378.45,-30.58 367.87,-30.16 369.91,-36.85"/>
</g>
<!-- Node8&#45;&gt;Node5 -->
<g id="edge17" class="edge">
<title>Node8&#45;&gt;Node5</title>
<path fill="none" stroke="midnightblue" d="M243.37,-92.76C263.22,-98.41 286.21,-107.67 302.86,-122.5 328.98,-145.77 311.64,-170.51 338.86,-192.5 340.44,-193.78 342.09,-195 343.8,-196.15"/>
<polygon fill="midnightblue" stroke="midnightblue" points="342.3,-199.33 352.7,-201.37 345.85,-193.29 342.3,-199.33"/>
</g>
<!-- Node8&#45;&gt;Node6 -->
<g id="edge18" class="edge">
<title>Node8&#45;&gt;Node6</title>
<path fill="none" stroke="midnightblue" d="M232.8,-94.02C260.52,-102.49 302.32,-115.11 338.86,-125.5 346.22,-127.59 353.93,-129.74 361.61,-131.85"/>
<polygon fill="midnightblue" stroke="midnightblue" points="360.73,-135.24 371.29,-134.5 362.57,-128.49 360.73,-135.24"/>
</g>
<!-- Node8&#45;&gt;Node8 -->
<g id="edge14" class="edge">
<title>Node8&#45;&gt;Node8</title>
<path fill="none" stroke="midnightblue" d="M174.96,-94.26C162.37,-103.07 171,-112.5 200.86,-112.5 220.92,-112.5 231.4,-108.24 232.29,-102.77"/>
<polygon fill="midnightblue" stroke="midnightblue" points="235.14,-100.73 226.75,-94.26 229.27,-104.55 235.14,-100.73"/>
</g>
</g>
</svg>
        <g id="navigator" transform="translate(0 0)" fill="#404254">
                <rect fill="#f2f5e9" fill-opacity="0.5" stroke="#606060" stroke-width=".5" x="0" y="0" width="60" height="60"/>
                <use id="zoomplus" xlink:href="#zoomPlus" x="17" y="9" onmousedown="handleZoom(evt,'in')"/>
                <use id="zoomminus" xlink:href="#zoomMin" x="42" y="9" onmousedown="handleZoom(evt,'out')"/>
                <use id="reset" xlink:href="#resetDef" x="30" y="36" onmousedown="handleReset()"/>
                <g id="arrowUp" xlink:href="#dirArrow" transform="translate(30 24)" onmousedown="handlePan(0,-1)">
                  <use xlink:href="#rim" fill="#404040">
                        <set attributeName="fill" to="#808080" begin="arrowUp.mouseover" end="arrowUp.mouseout"/>
                  </use>
                  <path fill="none" stroke="white" stroke-width="1.5" d="M0,-3.0v7 M-2.5,-0.5L0,-3.0L2.5,-0.5"/>
                </g>
                <g id="arrowRight" xlink:href="#dirArrow" transform="rotate(90) translate(36 -43)" onmousedown="handlePan(1,0)">
                  <use xlink:href="#rim" fill="#404040">
                        <set attributeName="fill" to="#808080" begin="arrowRight.mouseover" end="arrowRight.mouseout"/>
                  </use>
                  <path fill="none" stroke="white" stroke-width="1.5" d="M0,-3.0v7 M-2.5,-0.5L0,-3.0L2.5,-0.5"/>
                </g>
                <g id="arrowDown" xlink:href="#dirArrow" transform="rotate(180) translate(-30 -48)" onmousedown="handlePan(0,1)">
                  <use xlink:href="#rim" fill="#404040">
                        <set attributeName="fill" to="#808080" begin="arrowDown.mouseover" end="arrowDown.mouseout"/>
                  </use>
                  <path fill="none" stroke="white" stroke-width="1.5" d="M0,-3.0v7 M-2.5,-0.5L0,-3.0L2.5,-0.5"/>
                </g>
                <g id="arrowLeft" xlink:href="#dirArrow" transform="rotate(270) translate(-36 17)" onmousedown="handlePan(-1,0)">
                  <use xlink:href="#rim" fill="#404040">
                        <set attributeName="fill" to="#808080" begin="arrowLeft.mouseover" end="arrowLeft.mouseout"/>
                  </use>
                  <path fill="none" stroke="white" stroke-width="1.5" d="M0,-3.0v7 M-2.5,-0.5L0,-3.0L2.5,-0.5"/>
                </g>
        </g>
        <svg viewBox="0 0 15 15" width="100%" height="30px" preserveAspectRatio="xMaxYMin meet">
         <g id="arrow_out" transform="scale(0.3 0.3)">
          <a xlink:href="classrare_1_1components_1_1tabs_1_1games_1_1game__widgets_1_1list__game__widget_1_1_list_game_widget_afe7221063d2a4d7b1e1f42fb85f5d06f_cgraph_org.svg" target="_base">
           <rect id="button" ry="5" rx="5" y="6" x="6" height="38" width="38"
                fill="#f2f5e9" fill-opacity="0.5" stroke="#606060" stroke-width="1.0"/>
           <path id="arrow"
             d="M 11.500037,31.436501 C 11.940474,20.09759 22.043105,11.32322 32.158766,21.979434 L 37.068811,17.246167 C 37.068811,17.246167 37.088388,32 37.088388,32 L 22.160133,31.978069 C 22.160133,31.978069 26.997745,27.140456 26.997745,27.140456 C 18.528582,18.264221 13.291696,25.230495 11.500037,31.436501 z"
             style="fill:#404040;"/>
          </a>
         </g>
        </svg>
</svg>
