<?xml version="1.0" encoding="UTF-8" standalone="no"?>
<!DOCTYPE svg PUBLIC "-//W3C//DTD SVG 1.1//EN"
 "http://www.w3.org/Graphics/SVG/1.1/DTD/svg11.dtd">
<!-- Generated by graphviz version 2.49.3 (20211027.1534)
 -->
<!-- Title: from_dict Pages: 1 -->
<svg width="362pt" height="46pt"
 viewBox="0.00 0.00 361.59 46.00" xmlns="http://www.w3.org/2000/svg" xmlns:xlink="http://www.w3.org/1999/xlink">
<g id="graph0" class="graph" transform="scale(1 1) rotate(0) translate(4 42)">
<title>from_dict</title>
<polygon fill="white" stroke="transparent" points="-4,4 -4,-42 357.59,-42 357.59,4 -4,4"/>
<!-- Node1 -->
<g id="node1" class="node">
<title>Node1</title>
<g id="a_node1"><a xlink:title=" ">
<polygon fill="#bfbfbf" stroke="black" points="7.59,-0.5 7.59,-19.5 64.59,-19.5 64.59,-0.5 7.59,-0.5"/>
<text text-anchor="middle" x="36.09" y="-7.5" font-family="Helvetica,sans-Serif" font-size="10.00">from_dict</text>
</a>
</g>
</g>
<!-- Node1&#45;&gt;Node1 -->
<g id="edge1" class="edge">
<title>Node1&#45;&gt;Node1</title>
<path fill="none" stroke="midnightblue" d="M7.53,-19.32C-7.75,-28.25 1.77,-38 36.09,-38 60.77,-38 72.62,-32.96 71.67,-26.82"/>
<polygon fill="midnightblue" stroke="midnightblue" points="74.04,-24.23 64.65,-19.32 68.93,-29.02 74.04,-24.23"/>
</g>
<!-- Node2 -->
<g id="node2" class="node">
<title>Node2</title>
<g id="a_node2"><a xlink:href="namespacerare_1_1components_1_1tabs_1_1store_1_1api_1_1models_1_1utils.html#a44e22acfab98b4847b3493b14c38c489" target="_top" xlink:title=" ">
<polygon fill="white" stroke="black" points="100.59,-0.5 100.59,-19.5 353.59,-19.5 353.59,-0.5 100.59,-0.5"/>
<text text-anchor="middle" x="227.09" y="-7.5" font-family="Helvetica,sans-Serif" font-size="10.00">rare.components.tabs.store.api.models.utils.parse_date</text>
</a>
</g>
</g>
<!-- Node1&#45;&gt;Node2 -->
<g id="edge2" class="edge">
<title>Node1&#45;&gt;Node2</title>
<path fill="none" stroke="midnightblue" d="M64.98,-10C72.45,-10 81.04,-10 90.29,-10"/>
<polygon fill="midnightblue" stroke="midnightblue" points="90.57,-13.5 100.57,-10 90.57,-6.5 90.57,-13.5"/>
</g>
<!-- Node2&#45;&gt;Node2 -->
<g id="edge3" class="edge">
<title>Node2&#45;&gt;Node2</title>
<path fill="none" stroke="midnightblue" d="M197.81,-19.76C183.56,-28.57 193.32,-38 227.09,-38 250.84,-38 262.71,-33.34 262.72,-27.5"/>
<polygon fill="midnightblue" stroke="midnightblue" points="265.42,-25.28 256.38,-19.76 260,-29.71 265.42,-25.28"/>
</g>
</g>
</svg>
