<?xml version="1.0" encoding="UTF-8" standalone="no"?>
<!DOCTYPE svg PUBLIC "-//W3C//DTD SVG 1.1//EN"
 "http://www.w3.org/Graphics/SVG/1.1/DTD/svg11.dtd">
<!-- Generated by graphviz version 2.49.3 (20211027.1534)
 -->
<!-- Title: to_dict Pages: 1 -->
<svg width="1012pt" height="474pt"
 viewBox="0.00 0.00 1012.24 474.00" xmlns="http://www.w3.org/2000/svg" xmlns:xlink="http://www.w3.org/1999/xlink">
<g id="graph0" class="graph" transform="scale(1 1) rotate(0) translate(4 470)">
<title>to_dict</title>
<polygon fill="white" stroke="transparent" points="-4,4 -4,-470 1008.24,-470 1008.24,4 -4,4"/>
<!-- Node1 -->
<g id="node1" class="node">
<title>Node1</title>
<g id="a_node1"><a xlink:title=" ">
<polygon fill="#bfbfbf" stroke="black" points="6.24,-289 6.24,-308 52.24,-308 52.24,-289 6.24,-289"/>
<text text-anchor="middle" x="29.24" y="-296" font-family="Helvetica,sans-Serif" font-size="10.00">to_dict</text>
</a>
</g>
</g>
<!-- Node1&#45;&gt;Node1 -->
<g id="edge42" class="edge">
<title>Node1&#45;&gt;Node1</title>
<path fill="none" stroke="midnightblue" d="M5.89,-307.97C-6.22,-316.86 1.57,-326.5 29.24,-326.5 47.83,-326.5 57.45,-322.15 58.08,-316.59"/>
<polygon fill="midnightblue" stroke="midnightblue" points="60.91,-314.52 52.59,-307.97 55.01,-318.28 60.91,-314.52"/>
</g>
<!-- Node2 -->
<g id="node2" class="node">
<title>Node2</title>
<g id="a_node2"><a xlink:href="classrare_1_1components_1_1tabs_1_1downloads_1_1groups_1_1_update_group.html#adaaa57688d92e19605bdc1a271c51e6e" target="_top" xlink:title=" ">
<polygon fill="white" stroke="black" points="88.24,-417.5 88.24,-447.5 280.24,-447.5 280.24,-417.5 88.24,-417.5"/>
<text text-anchor="start" x="96.24" y="-435.5" font-family="Helvetica,sans-Serif" font-size="10.00">rare.components.tabs.downloads.groups.</text>
<text text-anchor="middle" x="184.24" y="-424.5" font-family="Helvetica,sans-Serif" font-size="10.00">UpdateGroup.count</text>
</a>
</g>
</g>
<!-- Node1&#45;&gt;Node2 -->
<g id="edge1" class="edge">
<title>Node1&#45;&gt;Node2</title>
<path fill="none" stroke="midnightblue" d="M32.48,-308.16C37.99,-329.68 54.3,-381.8 88.24,-408.5 90.03,-409.91 91.9,-411.24 93.82,-412.49"/>
<polygon fill="midnightblue" stroke="midnightblue" points="92.19,-415.59 102.61,-417.49 95.65,-409.5 92.19,-415.59"/>
</g>
<!-- Node3 -->
<g id="node3" class="node">
<title>Node3</title>
<g id="a_node3"><a xlink:href="classrare_1_1components_1_1tabs_1_1downloads_1_1groups_1_1_queue_group.html#adaaa57688d92e19605bdc1a271c51e6e" target="_top" xlink:title=" ">
<polygon fill="white" stroke="black" points="88.24,-350.5 88.24,-380.5 280.24,-380.5 280.24,-350.5 88.24,-350.5"/>
<text text-anchor="start" x="96.24" y="-368.5" font-family="Helvetica,sans-Serif" font-size="10.00">rare.components.tabs.downloads.groups.</text>
<text text-anchor="middle" x="184.24" y="-357.5" font-family="Helvetica,sans-Serif" font-size="10.00">QueueGroup.count</text>
</a>
</g>
</g>
<!-- Node1&#45;&gt;Node3 -->
<g id="edge3" class="edge">
<title>Node1&#45;&gt;Node3</title>
<path fill="none" stroke="midnightblue" d="M40.53,-308.12C51.54,-317.89 69.89,-332.8 88.24,-341.5 92.53,-343.53 97.01,-345.41 101.6,-347.14"/>
<polygon fill="midnightblue" stroke="midnightblue" points="100.52,-350.47 111.12,-350.48 102.84,-343.86 100.52,-350.47"/>
</g>
<!-- Node4 -->
<g id="node4" class="node">
<title>Node4</title>
<g id="a_node4"><a xlink:href="classrare_1_1widgets_1_1flow__layout_1_1_flow_layout.html#adaaa57688d92e19605bdc1a271c51e6e" target="_top" xlink:title=" ">
<polygon fill="white" stroke="black" points="123.24,-283.5 123.24,-313.5 245.24,-313.5 245.24,-283.5 123.24,-283.5"/>
<text text-anchor="start" x="131.24" y="-301.5" font-family="Helvetica,sans-Serif" font-size="10.00">rare.widgets.flow_layout.</text>
<text text-anchor="middle" x="184.24" y="-290.5" font-family="Helvetica,sans-Serif" font-size="10.00">FlowLayout.count</text>
</a>
</g>
</g>
<!-- Node1&#45;&gt;Node4 -->
<g id="edge5" class="edge">
<title>Node1&#45;&gt;Node4</title>
<path fill="none" stroke="midnightblue" d="M52.49,-298.5C68.44,-298.5 90.88,-298.5 112.68,-298.5"/>
<polygon fill="midnightblue" stroke="midnightblue" points="112.96,-302 122.96,-298.5 112.96,-295 112.96,-302"/>
</g>
<!-- Node5 -->
<g id="node5" class="node">
<title>Node5</title>
<g id="a_node5"><a xlink:href="classrare_1_1commands_1_1launcher_1_1_rare_launcher.html#af1af6ddf04f00f958949618f79c33b82" target="_top" xlink:title=" ">
<polygon fill="white" stroke="black" points="111.74,-216.5 111.74,-246.5 256.74,-246.5 256.74,-216.5 111.74,-216.5"/>
<text text-anchor="start" x="119.74" y="-234.5" font-family="Helvetica,sans-Serif" font-size="10.00">rare.commands.launcher.Rare</text>
<text text-anchor="middle" x="184.24" y="-223.5" font-family="Helvetica,sans-Serif" font-size="10.00">Launcher.start</text>
</a>
</g>
</g>
<!-- Node1&#45;&gt;Node5 -->
<g id="edge7" class="edge">
<title>Node1&#45;&gt;Node5</title>
<path fill="none" stroke="midnightblue" d="M52.16,-288.9C74.88,-278.95 110.99,-263.14 139.56,-250.63"/>
<polygon fill="midnightblue" stroke="midnightblue" points="141.18,-253.74 148.94,-246.52 138.37,-247.33 141.18,-253.74"/>
</g>
<!-- Node17 -->
<g id="node17" class="node">
<title>Node17</title>
<g id="a_node17"><a xlink:href="classrare_1_1widgets_1_1loading__widget_1_1_loading_widget.html#af1af6ddf04f00f958949618f79c33b82" target="_top" xlink:title=" ">
<polygon fill="white" stroke="black" points="114.74,-149.5 114.74,-179.5 253.74,-179.5 253.74,-149.5 114.74,-149.5"/>
<text text-anchor="start" x="122.74" y="-167.5" font-family="Helvetica,sans-Serif" font-size="10.00">rare.widgets.loading</text>
<text text-anchor="middle" x="184.24" y="-156.5" font-family="Helvetica,sans-Serif" font-size="10.00">_widget.LoadingWidget.start</text>
</a>
</g>
</g>
<!-- Node1&#45;&gt;Node17 -->
<g id="edge40" class="edge">
<title>Node1&#45;&gt;Node17</title>
<path fill="none" stroke="midnightblue" d="M34.04,-288.85C41.7,-270.51 60.66,-230.32 88.24,-206.5 99,-197.21 112.15,-189.65 125.19,-183.65"/>
<polygon fill="midnightblue" stroke="midnightblue" points="126.85,-186.74 134.63,-179.55 124.06,-180.32 126.85,-186.74"/>
</g>
<!-- Node2&#45;&gt;Node2 -->
<g id="edge2" class="edge">
<title>Node2&#45;&gt;Node2</title>
<path fill="none" stroke="midnightblue" d="M157.4,-447.66C150.93,-457.06 159.88,-466 184.24,-466 199.09,-466 208.21,-462.68 211.6,-457.96"/>
<polygon fill="midnightblue" stroke="midnightblue" points="215.08,-457.47 211.08,-447.66 208.09,-457.82 215.08,-457.47"/>
</g>
<!-- Node3&#45;&gt;Node3 -->
<g id="edge4" class="edge">
<title>Node3&#45;&gt;Node3</title>
<path fill="none" stroke="midnightblue" d="M157.4,-380.66C150.93,-390.06 159.88,-399 184.24,-399 199.09,-399 208.21,-395.68 211.6,-390.96"/>
<polygon fill="midnightblue" stroke="midnightblue" points="215.08,-390.47 211.08,-380.66 208.09,-390.82 215.08,-390.47"/>
</g>
<!-- Node4&#45;&gt;Node4 -->
<g id="edge6" class="edge">
<title>Node4&#45;&gt;Node4</title>
<path fill="none" stroke="midnightblue" d="M157.4,-313.66C150.93,-323.06 159.88,-332 184.24,-332 199.09,-332 208.21,-328.68 211.6,-323.96"/>
<polygon fill="midnightblue" stroke="midnightblue" points="215.08,-323.47 211.08,-313.66 208.09,-323.82 215.08,-323.47"/>
</g>
<!-- Node5&#45;&gt;Node5 -->
<g id="edge21" class="edge">
<title>Node5&#45;&gt;Node5</title>
<path fill="none" stroke="midnightblue" d="M157.4,-246.66C150.93,-256.06 159.88,-265 184.24,-265 199.09,-265 208.21,-261.68 211.6,-256.96"/>
<polygon fill="midnightblue" stroke="midnightblue" points="215.08,-256.47 211.08,-246.66 208.09,-256.82 215.08,-256.47"/>
</g>
<!-- Node6 -->
<g id="node6" class="node">
<title>Node6</title>
<g id="a_node6"><a xlink:href="classrare_1_1shared_1_1rare__core_1_1_rare_core.html#a673cb72b40e8c1b2dfab6dbc0e0e39e4" target="_top" xlink:title=" ">
<polygon fill="white" stroke="black" points="866.74,-335.5 866.74,-365.5 996.74,-365.5 996.74,-335.5 866.74,-335.5"/>
<text text-anchor="start" x="874.74" y="-353.5" font-family="Helvetica,sans-Serif" font-size="10.00">rare.shared.rare_core.Rare</text>
<text text-anchor="middle" x="931.74" y="-342.5" font-family="Helvetica,sans-Serif" font-size="10.00">Core.args</text>
</a>
</g>
</g>
<!-- Node5&#45;&gt;Node6 -->
<g id="edge8" class="edge">
<title>Node5&#45;&gt;Node6</title>
<path fill="none" stroke="midnightblue" d="M224.28,-246.53C241.9,-253.97 262.66,-263.68 280.24,-274.5 297.74,-285.27 297.36,-295.41 316.24,-303.5 497.8,-381.33 737.08,-371.35 856.4,-359.73"/>
<polygon fill="midnightblue" stroke="midnightblue" points="856.93,-363.19 866.52,-358.71 856.22,-356.23 856.93,-363.19"/>
</g>
<!-- Node7 -->
<g id="node7" class="node">
<title>Node7</title>
<g id="a_node7"><a xlink:href="classrare_1_1shared_1_1rare__core_1_1_rare_core.html#a405e1a4f20f16120f872ccd2654a1d56" target="_top" xlink:title=" ">
<polygon fill="white" stroke="black" points="866.74,-0.5 866.74,-30.5 996.74,-30.5 996.74,-0.5 866.74,-0.5"/>
<text text-anchor="start" x="874.74" y="-18.5" font-family="Helvetica,sans-Serif" font-size="10.00">rare.shared.rare_core.Rare</text>
<text text-anchor="middle" x="931.74" y="-7.5" font-family="Helvetica,sans-Serif" font-size="10.00">Core.core</text>
</a>
</g>
</g>
<!-- Node5&#45;&gt;Node7 -->
<g id="edge10" class="edge">
<title>Node5&#45;&gt;Node7</title>
<path fill="none" stroke="midnightblue" d="M256.97,-217.16C265.09,-214.23 273.02,-210.71 280.24,-206.5 300.06,-194.94 296.35,-180.95 316.24,-169.5 492.68,-67.93 735.24,-32.73 856.05,-21.02"/>
<polygon fill="midnightblue" stroke="midnightblue" points="856.67,-24.48 866.3,-20.06 856.02,-17.51 856.67,-24.48"/>
</g>
<!-- Node8 -->
<g id="node8" class="node">
<title>Node8</title>
<g id="a_node8"><a xlink:href="classrare_1_1commands_1_1launcher_1_1_rare_launcher.html#ac2d7fc08d8189d84d207151df722ee19" target="_top" xlink:title=" ">
<polygon fill="white" stroke="black" points="678.24,-134.5 678.24,-164.5 823.24,-164.5 823.24,-134.5 678.24,-134.5"/>
<text text-anchor="start" x="686.24" y="-152.5" font-family="Helvetica,sans-Serif" font-size="10.00">rare.commands.launcher.Rare</text>
<text text-anchor="middle" x="750.74" y="-141.5" font-family="Helvetica,sans-Serif" font-size="10.00">Launcher.error_occurred</text>
</a>
</g>
</g>
<!-- Node5&#45;&gt;Node8 -->
<g id="edge12" class="edge">
<title>Node5&#45;&gt;Node8</title>
<path fill="none" stroke="midnightblue" d="M243.87,-216.46C255.92,-213.26 268.51,-209.83 280.24,-206.5 296.33,-201.93 299.85,-198.84 316.24,-195.5 437.33,-170.81 580.31,-158.9 667.99,-153.52"/>
<polygon fill="midnightblue" stroke="midnightblue" points="668.37,-157 678.14,-152.91 667.95,-150.01 668.37,-157"/>
</g>
<!-- Node12 -->
<g id="node12" class="node">
<title>Node12</title>
<g id="a_node12"><a xlink:href="classrare_1_1commands_1_1launcher_1_1_rare_launcher.html#ac8b8dc7f48f8405350185a34a814e908" target="_top" xlink:title=" ">
<polygon fill="white" stroke="black" points="497.24,-269.5 497.24,-299.5 642.24,-299.5 642.24,-269.5 497.24,-269.5"/>
<text text-anchor="start" x="505.24" y="-287.5" font-family="Helvetica,sans-Serif" font-size="10.00">rare.commands.launcher.Rare</text>
<text text-anchor="middle" x="569.74" y="-276.5" font-family="Helvetica,sans-Serif" font-size="10.00">Launcher.start_prepare</text>
</a>
</g>
</g>
<!-- Node5&#45;&gt;Node12 -->
<g id="edge22" class="edge">
<title>Node5&#45;&gt;Node12</title>
<path fill="none" stroke="midnightblue" d="M244.99,-246.54C267.04,-253.61 292.45,-261.21 316.24,-265.5 372.69,-275.68 437.34,-278.07 487.09,-279.17"/>
<polygon fill="midnightblue" stroke="midnightblue" points="487.08,-282.67 497.15,-279.38 487.23,-275.67 487.08,-282.67"/>
</g>
<!-- Node15 -->
<g id="node15" class="node">
<title>Node15</title>
<g id="a_node15"><a xlink:href="classrare_1_1commands_1_1launcher_1_1_rare_launcher.html#abc80b9c0d00c9ee171bcdd5b318f9329" target="_top" xlink:title=" ">
<polygon fill="white" stroke="black" points="316.24,-216.5 316.24,-246.5 461.24,-246.5 461.24,-216.5 316.24,-216.5"/>
<text text-anchor="start" x="324.24" y="-234.5" font-family="Helvetica,sans-Serif" font-size="10.00">rare.commands.launcher.Rare</text>
<text text-anchor="middle" x="388.74" y="-223.5" font-family="Helvetica,sans-Serif" font-size="10.00">Launcher.sync_ready</text>
</a>
</g>
</g>
<!-- Node5&#45;&gt;Node15 -->
<g id="edge36" class="edge">
<title>Node5&#45;&gt;Node15</title>
<path fill="none" stroke="midnightblue" d="M256.92,-231.5C272.84,-231.5 289.83,-231.5 306.12,-231.5"/>
<polygon fill="midnightblue" stroke="midnightblue" points="306.16,-235 316.16,-231.5 306.16,-228 306.16,-235"/>
</g>
<!-- Node6&#45;&gt;Node6 -->
<g id="edge9" class="edge">
<title>Node6&#45;&gt;Node6</title>
<path fill="none" stroke="midnightblue" d="M900.37,-365.66C892.81,-375.06 903.26,-384 931.74,-384 949.09,-384 959.75,-380.68 963.72,-375.96"/>
<polygon fill="midnightblue" stroke="midnightblue" points="967.2,-375.43 963.11,-365.66 960.21,-375.85 967.2,-375.43"/>
</g>
<!-- Node7&#45;&gt;Node7 -->
<g id="edge11" class="edge">
<title>Node7&#45;&gt;Node7</title>
<path fill="none" stroke="midnightblue" d="M900.37,-30.66C892.81,-40.06 903.26,-49 931.74,-49 949.09,-49 959.75,-45.68 963.72,-40.96"/>
<polygon fill="midnightblue" stroke="midnightblue" points="967.2,-40.43 963.11,-30.66 960.21,-40.85 967.2,-40.43"/>
</g>
<!-- Node8&#45;&gt;Node7 -->
<g id="edge13" class="edge">
<title>Node8&#45;&gt;Node7</title>
<path fill="none" stroke="midnightblue" d="M767.75,-134.21C788.14,-115.13 824.84,-82.03 859.24,-57.5 870.06,-49.78 882.38,-42.17 893.7,-35.59"/>
<polygon fill="midnightblue" stroke="midnightblue" points="895.57,-38.55 902.52,-30.55 892.1,-32.47 895.57,-38.55"/>
</g>
<!-- Node8&#45;&gt;Node8 -->
<g id="edge14" class="edge">
<title>Node8&#45;&gt;Node8</title>
<path fill="none" stroke="midnightblue" d="M719.37,-164.66C711.81,-174.06 722.26,-183 750.74,-183 768.09,-183 778.75,-179.68 782.72,-174.96"/>
<polygon fill="midnightblue" stroke="midnightblue" points="786.2,-174.43 782.11,-164.66 779.21,-174.85 786.2,-174.43"/>
</g>
<!-- Node9 -->
<g id="node9" class="node">
<title>Node9</title>
<g id="a_node9"><a xlink:href="classrare_1_1commands_1_1launcher_1_1_rare_launcher.html#a1ad309148fd22e4786258dc4a79ec7af" target="_top" xlink:title=" ">
<polygon fill="white" stroke="black" points="859.24,-201.5 859.24,-231.5 1004.24,-231.5 1004.24,-201.5 859.24,-201.5"/>
<text text-anchor="start" x="867.24" y="-219.5" font-family="Helvetica,sans-Serif" font-size="10.00">rare.commands.launcher.Rare</text>
<text text-anchor="middle" x="931.74" y="-208.5" font-family="Helvetica,sans-Serif" font-size="10.00">Launcher.send_message</text>
</a>
</g>
</g>
<!-- Node8&#45;&gt;Node9 -->
<g id="edge15" class="edge">
<title>Node8&#45;&gt;Node9</title>
<path fill="none" stroke="midnightblue" d="M789.42,-164.61C809.99,-172.75 835.94,-182.88 859.24,-191.5 865.07,-193.66 871.18,-195.87 877.27,-198.04"/>
<polygon fill="midnightblue" stroke="midnightblue" points="876.19,-201.37 886.79,-201.41 878.53,-194.77 876.19,-201.37"/>
</g>
<!-- Node10 -->
<g id="node10" class="node">
<title>Node10</title>
<g id="a_node10"><a xlink:href="classrare_1_1commands_1_1launcher_1_1_rare_launcher.html#a26ca7c1c7fcdd35378e7be97727047a6" target="_top" xlink:title=" ">
<polygon fill="white" stroke="black" points="859.24,-134.5 859.24,-164.5 1004.24,-164.5 1004.24,-134.5 859.24,-134.5"/>
<text text-anchor="start" x="867.24" y="-152.5" font-family="Helvetica,sans-Serif" font-size="10.00">rare.commands.launcher.Rare</text>
<text text-anchor="middle" x="931.74" y="-141.5" font-family="Helvetica,sans-Serif" font-size="10.00">Launcher.stop</text>
</a>
</g>
</g>
<!-- Node8&#45;&gt;Node10 -->
<g id="edge17" class="edge">
<title>Node8&#45;&gt;Node10</title>
<path fill="none" stroke="midnightblue" d="M823.26,-149.5C831.73,-149.5 840.42,-149.5 849.02,-149.5"/>
<polygon fill="midnightblue" stroke="midnightblue" points="849.04,-153 859.04,-149.5 849.04,-146 849.04,-153"/>
</g>
<!-- Node11 -->
<g id="node11" class="node">
<title>Node11</title>
<g id="a_node11"><a xlink:href="classrare_1_1widgets_1_1loading__widget_1_1_loading_widget.html#a26ca7c1c7fcdd35378e7be97727047a6" target="_top" xlink:title=" ">
<polygon fill="white" stroke="black" points="862.74,-67.5 862.74,-97.5 1000.74,-97.5 1000.74,-67.5 862.74,-67.5"/>
<text text-anchor="start" x="870.74" y="-85.5" font-family="Helvetica,sans-Serif" font-size="10.00">rare.widgets.loading</text>
<text text-anchor="middle" x="931.74" y="-74.5" font-family="Helvetica,sans-Serif" font-size="10.00">_widget.LoadingWidget.stop</text>
</a>
</g>
</g>
<!-- Node8&#45;&gt;Node11 -->
<g id="edge19" class="edge">
<title>Node8&#45;&gt;Node11</title>
<path fill="none" stroke="midnightblue" d="M791.91,-134.46C818.19,-124.63 852.72,-111.7 880.77,-101.2"/>
<polygon fill="midnightblue" stroke="midnightblue" points="882.25,-104.39 890.39,-97.6 879.8,-97.83 882.25,-104.39"/>
</g>
<!-- Node9&#45;&gt;Node9 -->
<g id="edge16" class="edge">
<title>Node9&#45;&gt;Node9</title>
<path fill="none" stroke="midnightblue" d="M900.37,-231.66C892.81,-241.06 903.26,-250 931.74,-250 949.09,-250 959.75,-246.68 963.72,-241.96"/>
<polygon fill="midnightblue" stroke="midnightblue" points="967.2,-241.43 963.11,-231.66 960.21,-241.85 967.2,-241.43"/>
</g>
<!-- Node10&#45;&gt;Node10 -->
<g id="edge18" class="edge">
<title>Node10&#45;&gt;Node10</title>
<path fill="none" stroke="midnightblue" d="M900.37,-164.66C892.81,-174.06 903.26,-183 931.74,-183 949.09,-183 959.75,-179.68 963.72,-174.96"/>
<polygon fill="midnightblue" stroke="midnightblue" points="967.2,-174.43 963.11,-164.66 960.21,-174.85 967.2,-174.43"/>
</g>
<!-- Node11&#45;&gt;Node11 -->
<g id="edge20" class="edge">
<title>Node11&#45;&gt;Node11</title>
<path fill="none" stroke="midnightblue" d="M900.37,-97.66C892.81,-107.06 903.26,-116 931.74,-116 949.09,-116 959.75,-112.68 963.72,-107.96"/>
<polygon fill="midnightblue" stroke="midnightblue" points="967.2,-107.43 963.11,-97.66 960.21,-107.85 967.2,-107.43"/>
</g>
<!-- Node12&#45;&gt;Node5 -->
<g id="edge34" class="edge">
<title>Node12&#45;&gt;Node5</title>
<path fill="none" stroke="midnightblue" d="M497.15,-294.45C446.28,-296.36 376.58,-294.38 316.24,-283.5 280.57,-277.07 241.27,-263.2 215.11,-251.09"/>
<polygon fill="midnightblue" stroke="midnightblue" points="216.62,-247.93 206.1,-246.72 213.57,-254.23 216.62,-247.93"/>
</g>
<!-- Node12&#45;&gt;Node6 -->
<g id="edge23" class="edge">
<title>Node12&#45;&gt;Node6</title>
<path fill="none" stroke="midnightblue" d="M642.29,-297.62C704.38,-309 793.92,-325.42 856.72,-336.93"/>
<polygon fill="midnightblue" stroke="midnightblue" points="856.1,-340.37 866.56,-338.73 857.36,-333.49 856.1,-340.37"/>
</g>
<!-- Node12&#45;&gt;Node8 -->
<g id="edge24" class="edge">
<title>Node12&#45;&gt;Node8</title>
<path fill="none" stroke="midnightblue" d="M622.08,-269.48C629.33,-265.96 636.32,-261.68 642.24,-256.5 667.09,-234.75 655.19,-215.15 678.24,-191.5 686.48,-183.05 696.77,-175.7 706.96,-169.62"/>
<polygon fill="midnightblue" stroke="midnightblue" points="708.85,-172.57 715.84,-164.61 705.41,-166.48 708.85,-172.57"/>
</g>
<!-- Node12&#45;&gt;Node12 -->
<g id="edge35" class="edge">
<title>Node12&#45;&gt;Node12</title>
<path fill="none" stroke="midnightblue" d="M538.37,-299.66C530.81,-309.06 541.26,-318 569.74,-318 587.09,-318 597.75,-314.68 601.72,-309.96"/>
<polygon fill="midnightblue" stroke="midnightblue" points="605.2,-309.43 601.11,-299.66 598.21,-309.85 605.2,-309.43"/>
</g>
<!-- Node13 -->
<g id="node13" class="node">
<title>Node13</title>
<g id="a_node13"><a xlink:href="classrare_1_1commands_1_1launcher_1_1_rare_launcher.html#a62864ecc73de3f9e4a009737d0c01f01" target="_top" xlink:title=" ">
<polygon fill="white" stroke="black" points="678.24,-201.5 678.24,-231.5 823.24,-231.5 823.24,-201.5 678.24,-201.5"/>
<text text-anchor="start" x="686.24" y="-219.5" font-family="Helvetica,sans-Serif" font-size="10.00">rare.commands.launcher.Rare</text>
<text text-anchor="middle" x="750.74" y="-208.5" font-family="Helvetica,sans-Serif" font-size="10.00">Launcher.launch_game</text>
</a>
</g>
</g>
<!-- Node12&#45;&gt;Node13 -->
<g id="edge25" class="edge">
<title>Node12&#45;&gt;Node13</title>
<path fill="none" stroke="midnightblue" d="M610.47,-269.41C637,-259.33 672.09,-246 700.41,-235.24"/>
<polygon fill="midnightblue" stroke="midnightblue" points="702.02,-238.37 710.12,-231.55 699.53,-231.83 702.02,-238.37"/>
</g>
<!-- Node13&#45;&gt;Node5 -->
<g id="edge31" class="edge">
<title>Node13&#45;&gt;Node5</title>
<path fill="none" stroke="midnightblue" d="M678.1,-208.9C666.14,-207.9 653.85,-207.04 642.24,-206.5 497.51,-199.78 460.48,-192.86 316.24,-206.5 298.15,-208.21 278.84,-211.22 260.76,-214.57"/>
<polygon fill="midnightblue" stroke="midnightblue" points="260.03,-211.15 250.86,-216.47 261.34,-218.03 260.03,-211.15"/>
</g>
<!-- Node13&#45;&gt;Node6 -->
<g id="edge26" class="edge">
<title>Node13&#45;&gt;Node6</title>
<path fill="none" stroke="midnightblue" d="M768.3,-231.75C783.04,-245.49 805.02,-266.4 823.24,-285.5 839.98,-303.05 839.05,-313.07 859.24,-326.5 861.64,-328.1 864.16,-329.6 866.76,-331.01"/>
<polygon fill="midnightblue" stroke="midnightblue" points="865.31,-334.2 875.83,-335.45 868.38,-327.91 865.31,-334.2"/>
</g>
<!-- Node13&#45;&gt;Node9 -->
<g id="edge30" class="edge">
<title>Node13&#45;&gt;Node9</title>
<path fill="none" stroke="midnightblue" d="M823.26,-216.5C831.73,-216.5 840.42,-216.5 849.02,-216.5"/>
<polygon fill="midnightblue" stroke="midnightblue" points="849.04,-220 859.04,-216.5 849.04,-213 849.04,-220"/>
</g>
<!-- Node13&#45;&gt;Node10 -->
<g id="edge32" class="edge">
<title>Node13&#45;&gt;Node10</title>
<path fill="none" stroke="midnightblue" d="M795.69,-201.41C804.82,-198.2 814.36,-194.79 823.24,-191.5 843.08,-184.16 864.85,-175.73 883.57,-168.35"/>
<polygon fill="midnightblue" stroke="midnightblue" points="885.04,-171.54 893.06,-164.61 882.47,-165.03 885.04,-171.54"/>
</g>
<!-- Node13&#45;&gt;Node11 -->
<g id="edge33" class="edge">
<title>Node13&#45;&gt;Node11</title>
<path fill="none" stroke="midnightblue" d="M808.22,-201.38C813.61,-198.61 818.74,-195.34 823.24,-191.5 848.94,-169.54 835.8,-148.85 859.24,-124.5 867.42,-116 877.7,-108.63 887.89,-102.55"/>
<polygon fill="midnightblue" stroke="midnightblue" points="889.78,-105.5 896.76,-97.54 886.34,-99.41 889.78,-105.5"/>
</g>
<!-- Node13&#45;&gt;Node13 -->
<g id="edge29" class="edge">
<title>Node13&#45;&gt;Node13</title>
<path fill="none" stroke="midnightblue" d="M719.37,-231.66C711.81,-241.06 722.26,-250 750.74,-250 768.09,-250 778.75,-246.68 782.72,-241.96"/>
<polygon fill="midnightblue" stroke="midnightblue" points="786.2,-241.43 782.11,-231.66 779.21,-241.85 786.2,-241.43"/>
</g>
<!-- Node14 -->
<g id="node14" class="node">
<title>Node14</title>
<g id="a_node14"><a xlink:href="namespacerare_1_1commands_1_1launcher_1_1lgd__helper.html#ae4079e12d04167490b2b535baf65034a" target="_top" xlink:title=" ">
<polygon fill="white" stroke="black" points="863.24,-268.5 863.24,-298.5 1000.24,-298.5 1000.24,-268.5 863.24,-268.5"/>
<text text-anchor="start" x="871.24" y="-286.5" font-family="Helvetica,sans-Serif" font-size="10.00">rare.commands.launcher.lgd</text>
<text text-anchor="middle" x="931.74" y="-275.5" font-family="Helvetica,sans-Serif" font-size="10.00">_helper.dict_to_qprocenv</text>
</a>
</g>
</g>
<!-- Node13&#45;&gt;Node14 -->
<g id="edge27" class="edge">
<title>Node13&#45;&gt;Node14</title>
<path fill="none" stroke="midnightblue" d="M787.87,-231.54C808.63,-240.04 835.28,-250.69 859.24,-259.5 864.31,-261.36 869.6,-263.25 874.91,-265.1"/>
<polygon fill="midnightblue" stroke="midnightblue" points="873.86,-268.44 884.45,-268.39 876.14,-261.82 873.86,-268.44"/>
</g>
<!-- Node14&#45;&gt;Node14 -->
<g id="edge28" class="edge">
<title>Node14&#45;&gt;Node14</title>
<path fill="none" stroke="midnightblue" d="M900.37,-298.66C892.81,-308.06 903.26,-317 931.74,-317 949.09,-317 959.75,-313.68 963.72,-308.96"/>
<polygon fill="midnightblue" stroke="midnightblue" points="967.2,-308.43 963.11,-298.66 960.21,-308.85 967.2,-308.43"/>
</g>
<!-- Node15&#45;&gt;Node12 -->
<g id="edge38" class="edge">
<title>Node15&#45;&gt;Node12</title>
<path fill="none" stroke="midnightblue" d="M440.55,-246.55C461.53,-252.76 486.01,-260.01 507.93,-266.49"/>
<polygon fill="midnightblue" stroke="midnightblue" points="507.21,-269.93 517.8,-269.42 509.2,-263.22 507.21,-269.93"/>
</g>
<!-- Node15&#45;&gt;Node15 -->
<g id="edge39" class="edge">
<title>Node15&#45;&gt;Node15</title>
<path fill="none" stroke="midnightblue" d="M357.37,-246.66C349.81,-256.06 360.26,-265 388.74,-265 406.09,-265 416.75,-261.68 420.72,-256.96"/>
<polygon fill="midnightblue" stroke="midnightblue" points="424.2,-256.43 420.11,-246.66 417.21,-256.85 424.2,-256.43"/>
</g>
<!-- Node16 -->
<g id="node16" class="node">
<title>Node16</title>
<g id="a_node16"><a xlink:href="classrare_1_1commands_1_1launcher_1_1_rare_launcher.html#aead78a8c5e26925de34e45d4aae39b4e" target="_top" xlink:title=" ">
<polygon fill="white" stroke="black" points="497.24,-216.5 497.24,-246.5 642.24,-246.5 642.24,-216.5 497.24,-216.5"/>
<text text-anchor="start" x="505.24" y="-234.5" font-family="Helvetica,sans-Serif" font-size="10.00">rare.commands.launcher.Rare</text>
<text text-anchor="middle" x="569.74" y="-223.5" font-family="Helvetica,sans-Serif" font-size="10.00">Launcher.__sync_ready</text>
</a>
</g>
</g>
<!-- Node15&#45;&gt;Node16 -->
<g id="edge37" class="edge">
<title>Node15&#45;&gt;Node16</title>
<path fill="none" stroke="midnightblue" d="M461.26,-231.5C469.73,-231.5 478.42,-231.5 487.02,-231.5"/>
<polygon fill="midnightblue" stroke="midnightblue" points="487.04,-235 497.04,-231.5 487.04,-228 487.04,-235"/>
</g>
<!-- Node17&#45;&gt;Node17 -->
<g id="edge41" class="edge">
<title>Node17&#45;&gt;Node17</title>
<path fill="none" stroke="midnightblue" d="M157.4,-179.66C150.93,-189.06 159.88,-198 184.24,-198 199.09,-198 208.21,-194.68 211.6,-189.96"/>
<polygon fill="midnightblue" stroke="midnightblue" points="215.08,-189.47 211.08,-179.66 208.09,-189.82 215.08,-189.47"/>
</g>
</g>
</svg>
