<?xml version="1.0" encoding="UTF-8" standalone="no"?>
<!DOCTYPE svg PUBLIC "-//W3C//DTD SVG 1.1//EN"
 "http://www.w3.org/Graphics/SVG/1.1/DTD/svg11.dtd">
<!-- Generated by graphviz version 2.49.3 (20211027.1534)
 -->
<!-- Title: SteamRuntime Pages: 1 -->
<svg width="94pt" height="237pt"
 viewBox="0.00 0.00 94.00 237.00" xmlns="http://www.w3.org/2000/svg" xmlns:xlink="http://www.w3.org/1999/xlink">
<g id="graph0" class="graph" transform="scale(1 1) rotate(0) translate(4 233)">
<title>SteamRuntime</title>
<polygon fill="white" stroke="transparent" points="-4,4 -4,-233 90,-233 90,4 -4,4"/>
<!-- Node1 -->
<g id="node1" class="node">
<title>Node1</title>
<g id="a_node1"><a xlink:title=" ">
<polygon fill="#bfbfbf" stroke="black" points="2.5,-0.5 2.5,-68.5 83.5,-68.5 83.5,-0.5 2.5,-0.5"/>
<text text-anchor="middle" x="43" y="-56.5" font-family="Helvetica,sans-Serif" font-size="10.00">SteamRuntime</text>
<polyline fill="none" stroke="black" points="2.5,-49.5 83.5,-49.5 "/>
<text text-anchor="middle" x="43" y="-37.5" font-family="Helvetica,sans-Serif" font-size="10.00"> </text>
<polyline fill="none" stroke="black" points="2.5,-30.5 83.5,-30.5 "/>
<text text-anchor="start" x="10.5" y="-18.5" font-family="Helvetica,sans-Serif" font-size="10.00">+ name()</text>
<text text-anchor="start" x="10.5" y="-7.5" font-family="Helvetica,sans-Serif" font-size="10.00">+ appid()</text>
</a>
</g>
</g>
<!-- Node2 -->
<g id="node2" class="node">
<title>Node2</title>
<g id="a_node2"><a xlink:href="classrare_1_1utils_1_1compat_1_1steam_1_1_steam_base.html" target="_top" xlink:title=" ">
<polygon fill="white" stroke="black" points="0,-105.5 0,-228.5 86,-228.5 86,-105.5 0,-105.5"/>
<text text-anchor="middle" x="43" y="-216.5" font-family="Helvetica,sans-Serif" font-size="10.00">SteamBase</text>
<polyline fill="none" stroke="black" points="0,-209.5 86,-209.5 "/>
<text text-anchor="start" x="8" y="-197.5" font-family="Helvetica,sans-Serif" font-size="10.00">+ tool_path</text>
<polyline fill="none" stroke="black" points="0,-190.5 86,-190.5 "/>
<text text-anchor="start" x="8" y="-178.5" font-family="Helvetica,sans-Serif" font-size="10.00">+ __eq__()</text>
<text text-anchor="start" x="8" y="-167.5" font-family="Helvetica,sans-Serif" font-size="10.00">+ __hash__()</text>
<text text-anchor="start" x="8" y="-156.5" font-family="Helvetica,sans-Serif" font-size="10.00">+ required_tool()</text>
<text text-anchor="start" x="8" y="-145.5" font-family="Helvetica,sans-Serif" font-size="10.00">+ layer()</text>
<text text-anchor="start" x="8" y="-134.5" font-family="Helvetica,sans-Serif" font-size="10.00">+ command()</text>
<text text-anchor="start" x="8" y="-123.5" font-family="Helvetica,sans-Serif" font-size="10.00">+ as_str()</text>
<text text-anchor="start" x="8" y="-112.5" font-family="Helvetica,sans-Serif" font-size="10.00">+ checksum()</text>
</a>
</g>
</g>
<!-- Node2&#45;&gt;Node1 -->
<g id="edge1" class="edge">
<title>Node2&#45;&gt;Node1</title>
<path fill="none" stroke="midnightblue" d="M43,-95.24C43,-85.97 43,-76.84 43,-68.62"/>
<polygon fill="none" stroke="midnightblue" points="39.5,-95.33 43,-105.33 46.5,-95.33 39.5,-95.33"/>
</g>
</g>
</svg>
