<?xml version="1.0" encoding="UTF-8" standalone="no"?>
<!DOCTYPE svg PUBLIC "-//W3C//DTD SVG 1.1//EN"
 "http://www.w3.org/Graphics/SVG/1.1/DTD/svg11.dtd">
<!-- Generated by graphviz version 2.49.3 (20211027.1534)
 -->
<!-- Title: update_count_games_label Pages: 1 -->
<svg width="455pt" height="233pt"
 viewBox="0.00 0.00 455.00 233.00" xmlns="http://www.w3.org/2000/svg" xmlns:xlink="http://www.w3.org/1999/xlink">
<g id="graph0" class="graph" transform="scale(1 1) rotate(0) translate(4 229)">
<title>update_count_games_label</title>
<polygon fill="white" stroke="transparent" points="-4,4 -4,-229 451,-229 451,4 -4,4"/>
<!-- Node1 -->
<g id="node1" class="node">
<title>Node1</title>
<g id="a_node1"><a xlink:title=" ">
<polygon fill="#bfbfbf" stroke="black" points="0,-132.5 0,-162.5 110,-162.5 110,-132.5 0,-132.5"/>
<text text-anchor="start" x="8" y="-150.5" font-family="Helvetica,sans-Serif" font-size="10.00">update_count_games</text>
<text text-anchor="middle" x="55" y="-139.5" font-family="Helvetica,sans-Serif" font-size="10.00">_label</text>
</a>
</g>
</g>
<!-- Node1&#45;&gt;Node1 -->
<g id="edge12" class="edge">
<title>Node1&#45;&gt;Node1</title>
<path fill="none" stroke="midnightblue" d="M27.81,-162.66C21.26,-172.06 30.32,-181 55,-181 70.04,-181 79.28,-177.68 82.72,-172.96"/>
<polygon fill="midnightblue" stroke="midnightblue" points="86.2,-172.46 82.19,-162.66 79.21,-172.83 86.2,-172.46"/>
</g>
<!-- Node2 -->
<g id="node2" class="node">
<title>Node2</title>
<g id="a_node2"><a xlink:href="classrare_1_1shared_1_1rare__core_1_1_rare_core.html#aabbe79631981014e737e83fa4e978346" target="_top" xlink:title=" ">
<polygon fill="white" stroke="black" points="146,-176.5 146,-206.5 276,-206.5 276,-176.5 146,-176.5"/>
<text text-anchor="start" x="154" y="-194.5" font-family="Helvetica,sans-Serif" font-size="10.00">rare.shared.rare_core.Rare</text>
<text text-anchor="middle" x="211" y="-183.5" font-family="Helvetica,sans-Serif" font-size="10.00">Core.api_results</text>
</a>
</g>
</g>
<!-- Node1&#45;&gt;Node2 -->
<g id="edge1" class="edge">
<title>Node1&#45;&gt;Node2</title>
<path fill="none" stroke="midnightblue" d="M108.57,-162.52C121.14,-166.11 134.67,-169.98 147.63,-173.68"/>
<polygon fill="midnightblue" stroke="midnightblue" points="146.83,-177.09 157.41,-176.47 148.75,-170.36 146.83,-177.09"/>
</g>
<!-- Node3 -->
<g id="node3" class="node">
<title>Node3</title>
<g id="a_node3"><a xlink:href="classrare_1_1shared_1_1rare__core_1_1_rare_core.html#a405e1a4f20f16120f872ccd2654a1d56" target="_top" xlink:title=" ">
<polygon fill="white" stroke="black" points="314.5,-134.5 314.5,-164.5 444.5,-164.5 444.5,-134.5 314.5,-134.5"/>
<text text-anchor="start" x="322.5" y="-152.5" font-family="Helvetica,sans-Serif" font-size="10.00">rare.shared.rare_core.Rare</text>
<text text-anchor="middle" x="379.5" y="-141.5" font-family="Helvetica,sans-Serif" font-size="10.00">Core.core</text>
</a>
</g>
</g>
<!-- Node1&#45;&gt;Node3 -->
<g id="edge3" class="edge">
<title>Node1&#45;&gt;Node3</title>
<path fill="none" stroke="midnightblue" d="M110.34,-147.84C163.63,-148.17 245.26,-148.67 304.46,-149.04"/>
<polygon fill="midnightblue" stroke="midnightblue" points="304.48,-152.54 314.5,-149.1 304.52,-145.54 304.48,-152.54"/>
</g>
<!-- Node4 -->
<g id="node4" class="node">
<title>Node4</title>
<g id="a_node4"><a xlink:href="classrare_1_1shared_1_1rare__core_1_1_rare_core.html#af626fd87a4280875286ed304d4270f61" target="_top" xlink:title=" ">
<polygon fill="white" stroke="black" points="146,-69.5 146,-99.5 276,-99.5 276,-69.5 146,-69.5"/>
<text text-anchor="start" x="154" y="-87.5" font-family="Helvetica,sans-Serif" font-size="10.00">rare.shared.rare_core.Rare</text>
<text text-anchor="middle" x="211" y="-76.5" font-family="Helvetica,sans-Serif" font-size="10.00">Core.image_manager</text>
</a>
</g>
</g>
<!-- Node1&#45;&gt;Node4 -->
<g id="edge5" class="edge">
<title>Node1&#45;&gt;Node4</title>
<path fill="none" stroke="midnightblue" d="M92.89,-132.41C114.14,-123.71 141.06,-112.7 163.72,-103.43"/>
<polygon fill="midnightblue" stroke="midnightblue" points="165.22,-106.6 173.15,-99.58 162.57,-100.12 165.22,-106.6"/>
</g>
<!-- Node2&#45;&gt;Node2 -->
<g id="edge2" class="edge">
<title>Node2&#45;&gt;Node2</title>
<path fill="none" stroke="midnightblue" d="M183.81,-206.66C177.26,-216.06 186.32,-225 211,-225 226.04,-225 235.28,-221.68 238.72,-216.96"/>
<polygon fill="midnightblue" stroke="midnightblue" points="242.2,-216.46 238.19,-206.66 235.21,-216.83 242.2,-216.46"/>
</g>
<!-- Node3&#45;&gt;Node3 -->
<g id="edge4" class="edge">
<title>Node3&#45;&gt;Node3</title>
<path fill="none" stroke="midnightblue" d="M350.22,-164.66C343.16,-174.06 352.92,-183 379.5,-183 395.7,-183 405.65,-179.68 409.35,-174.96"/>
<polygon fill="midnightblue" stroke="midnightblue" points="412.83,-174.45 408.78,-164.66 405.84,-174.84 412.83,-174.45"/>
</g>
<!-- Node4&#45;&gt;Node3 -->
<g id="edge6" class="edge">
<title>Node4&#45;&gt;Node3</title>
<path fill="none" stroke="midnightblue" d="M247.95,-99.68C266.93,-107.57 290.64,-117.27 312,-125.5 316.56,-127.26 321.3,-129.04 326.07,-130.82"/>
<polygon fill="midnightblue" stroke="midnightblue" points="325.24,-134.24 335.83,-134.41 327.65,-127.67 325.24,-134.24"/>
</g>
<!-- Node4&#45;&gt;Node4 -->
<g id="edge7" class="edge">
<title>Node4&#45;&gt;Node4</title>
<path fill="none" stroke="midnightblue" d="M183.81,-99.66C177.26,-109.06 186.32,-118 211,-118 226.04,-118 235.28,-114.68 238.72,-109.96"/>
<polygon fill="midnightblue" stroke="midnightblue" points="242.2,-109.46 238.19,-99.66 235.21,-109.83 242.2,-109.46"/>
</g>
<!-- Node5 -->
<g id="node5" class="node">
<title>Node5</title>
<g id="a_node5"><a xlink:href="classrare_1_1shared_1_1workers_1_1worker_1_1_worker.html#a9998d928f5b6f30ebb69dc655c0756a8" target="_top" xlink:title=" ">
<polygon fill="white" stroke="black" points="312,-67.5 312,-97.5 447,-97.5 447,-67.5 312,-67.5"/>
<text text-anchor="start" x="320" y="-85.5" font-family="Helvetica,sans-Serif" font-size="10.00">rare.shared.workers.worker.</text>
<text text-anchor="middle" x="379.5" y="-74.5" font-family="Helvetica,sans-Serif" font-size="10.00">Worker.signals</text>
</a>
</g>
</g>
<!-- Node4&#45;&gt;Node5 -->
<g id="edge8" class="edge">
<title>Node4&#45;&gt;Node5</title>
<path fill="none" stroke="midnightblue" d="M276.37,-83.73C284.64,-83.63 293.16,-83.53 301.6,-83.42"/>
<polygon fill="midnightblue" stroke="midnightblue" points="301.86,-86.92 311.82,-83.3 301.78,-79.92 301.86,-86.92"/>
</g>
<!-- Node6 -->
<g id="node6" class="node">
<title>Node6</title>
<g id="a_node6"><a xlink:href="classrare_1_1shared_1_1rare__core_1_1_rare_core.html#a135560fc58fcc2e5cff07ec25c23a06c" target="_top" xlink:title=" ">
<polygon fill="white" stroke="black" points="314.5,-0.5 314.5,-30.5 444.5,-30.5 444.5,-0.5 314.5,-0.5"/>
<text text-anchor="start" x="322.5" y="-18.5" font-family="Helvetica,sans-Serif" font-size="10.00">rare.shared.rare_core.Rare</text>
<text text-anchor="middle" x="379.5" y="-7.5" font-family="Helvetica,sans-Serif" font-size="10.00">Core.signals</text>
</a>
</g>
</g>
<!-- Node4&#45;&gt;Node6 -->
<g id="edge10" class="edge">
<title>Node4&#45;&gt;Node6</title>
<path fill="none" stroke="midnightblue" d="M248.54,-69.36C273.26,-59.11 306.12,-45.5 332.6,-34.52"/>
<polygon fill="midnightblue" stroke="midnightblue" points="334.15,-37.67 342.05,-30.61 331.47,-31.2 334.15,-37.67"/>
</g>
<!-- Node5&#45;&gt;Node5 -->
<g id="edge9" class="edge">
<title>Node5&#45;&gt;Node5</title>
<path fill="none" stroke="midnightblue" d="M350.22,-97.66C343.16,-107.06 352.92,-116 379.5,-116 395.7,-116 405.65,-112.68 409.35,-107.96"/>
<polygon fill="midnightblue" stroke="midnightblue" points="412.83,-107.45 408.78,-97.66 405.84,-107.84 412.83,-107.45"/>
</g>
<!-- Node6&#45;&gt;Node6 -->
<g id="edge11" class="edge">
<title>Node6&#45;&gt;Node6</title>
<path fill="none" stroke="midnightblue" d="M350.22,-30.66C343.16,-40.06 352.92,-49 379.5,-49 395.7,-49 405.65,-45.68 409.35,-40.96"/>
<polygon fill="midnightblue" stroke="midnightblue" points="412.83,-40.45 408.78,-30.66 405.84,-40.84 412.83,-40.45"/>
</g>
</g>
</svg>
