<?xml version="1.0" encoding="UTF-8" standalone="no"?>
<!DOCTYPE svg PUBLIC "-//W3C//DTD SVG 1.1//EN"
 "http://www.w3.org/Graphics/SVG/1.1/DTD/svg11.dtd">
<!-- Generated by graphviz version 2.49.3 (20211027.1534)
 -->
<!-- Title: check_saves_finished Pages: 1 -->
<svg width="378pt" height="237pt"
 viewBox="0.00 0.00 378.00 237.00" xmlns="http://www.w3.org/2000/svg" xmlns:xlink="http://www.w3.org/1999/xlink">
<g id="graph0" class="graph" transform="scale(1 1) rotate(0) translate(4 233)">
<title>check_saves_finished</title>
<polygon fill="white" stroke="transparent" points="-4,4 -4,-233 374,-233 374,4 -4,4"/>
<!-- Node1 -->
<g id="node1" class="node">
<title>Node1</title>
<g id="a_node1"><a xlink:title=" ">
<polygon fill="#bfbfbf" stroke="black" points="0,-96 0,-115 113,-115 113,-96 0,-96"/>
<text text-anchor="middle" x="56.5" y="-103" font-family="Helvetica,sans-Serif" font-size="10.00">check_saves_finished</text>
</a>
</g>
</g>
<!-- Node1&#45;&gt;Node1 -->
<g id="edge1" class="edge">
<title>Node1&#45;&gt;Node1</title>
<path fill="none" stroke="midnightblue" d="M38.62,-115.26C29.92,-124.07 35.88,-133.5 56.5,-133.5 69.39,-133.5 76.55,-129.81 77.98,-124.9"/>
<polygon fill="midnightblue" stroke="midnightblue" points="81.16,-123.4 74.38,-115.26 74.6,-125.85 81.16,-123.4"/>
</g>
<!-- Node2 -->
<g id="node2" class="node">
<title>Node2</title>
<g id="a_node2"><a xlink:href="classrare_1_1game__launch__helper_1_1_rare_launcher.html#ad0256d0c2293a5030e42884d8de9484d" target="_top" xlink:title=" ">
<polygon fill="white" stroke="black" points="149,-96 149,-115 196,-115 196,-96 149,-96"/>
<text text-anchor="middle" x="172.5" y="-103" font-family="Helvetica,sans-Serif" font-size="10.00">on_exit</text>
</a>
</g>
</g>
<!-- Node1&#45;&gt;Node2 -->
<g id="edge2" class="edge">
<title>Node1&#45;&gt;Node2</title>
<path fill="none" stroke="midnightblue" d="M113.16,-105.5C121.97,-105.5 130.81,-105.5 138.86,-105.5"/>
<polygon fill="midnightblue" stroke="midnightblue" points="138.91,-109 148.91,-105.5 138.91,-102 138.91,-109"/>
</g>
<!-- Node2&#45;&gt;Node2 -->
<g id="edge5" class="edge">
<title>Node2&#45;&gt;Node2</title>
<path fill="none" stroke="midnightblue" d="M154.62,-115.26C145.92,-124.07 151.88,-133.5 172.5,-133.5 185.39,-133.5 192.55,-129.81 193.98,-124.9"/>
<polygon fill="midnightblue" stroke="midnightblue" points="197.16,-123.4 190.38,-115.26 190.6,-125.85 197.16,-123.4"/>
</g>
<!-- Node3 -->
<g id="node3" class="node">
<title>Node3</title>
<g id="a_node3"><a xlink:href="classrare_1_1shared_1_1rare__core_1_1_rare_core.html#a405e1a4f20f16120f872ccd2654a1d56" target="_top" xlink:title=" ">
<polygon fill="white" stroke="black" points="236,-180.5 236,-210.5 366,-210.5 366,-180.5 236,-180.5"/>
<text text-anchor="start" x="244" y="-198.5" font-family="Helvetica,sans-Serif" font-size="10.00">rare.shared.rare_core.Rare</text>
<text text-anchor="middle" x="301" y="-187.5" font-family="Helvetica,sans-Serif" font-size="10.00">Core.core</text>
</a>
</g>
</g>
<!-- Node2&#45;&gt;Node3 -->
<g id="edge3" class="edge">
<title>Node2&#45;&gt;Node3</title>
<path fill="none" stroke="midnightblue" d="M179.92,-115.23C189.64,-129.27 209.37,-155.18 232,-170.5 234.9,-172.46 237.97,-174.3 241.15,-176"/>
<polygon fill="midnightblue" stroke="midnightblue" points="239.79,-179.23 250.31,-180.48 242.86,-172.94 239.79,-179.23"/>
</g>
<!-- Node4 -->
<g id="node4" class="node">
<title>Node4</title>
<g id="a_node4"><a xlink:href="classrare_1_1game__launch__helper_1_1_rare_launcher.html#a1ad309148fd22e4786258dc4a79ec7af" target="_top" xlink:title=" ">
<polygon fill="white" stroke="black" points="259.5,-124 259.5,-143 342.5,-143 342.5,-124 259.5,-124"/>
<text text-anchor="middle" x="301" y="-131" font-family="Helvetica,sans-Serif" font-size="10.00">send_message</text>
</a>
</g>
</g>
<!-- Node2&#45;&gt;Node4 -->
<g id="edge6" class="edge">
<title>Node2&#45;&gt;Node4</title>
<path fill="none" stroke="midnightblue" d="M196.12,-110.51C210.99,-113.8 231.08,-118.24 249.62,-122.35"/>
<polygon fill="midnightblue" stroke="midnightblue" points="248.91,-125.78 259.43,-124.52 250.42,-118.94 248.91,-125.78"/>
</g>
<!-- Node5 -->
<g id="node5" class="node">
<title>Node5</title>
<g id="a_node5"><a xlink:href="classrare_1_1game__launch__helper_1_1_rare_launcher.html#a26ca7c1c7fcdd35378e7be97727047a6" target="_top" xlink:title=" ">
<polygon fill="white" stroke="black" points="283.5,-68 283.5,-87 318.5,-87 318.5,-68 283.5,-68"/>
<text text-anchor="middle" x="301" y="-75" font-family="Helvetica,sans-Serif" font-size="10.00">stop</text>
</a>
</g>
</g>
<!-- Node2&#45;&gt;Node5 -->
<g id="edge8" class="edge">
<title>Node2&#45;&gt;Node5</title>
<path fill="none" stroke="midnightblue" d="M196.12,-100.49C217.71,-95.71 250.27,-88.51 273.16,-83.44"/>
<polygon fill="midnightblue" stroke="midnightblue" points="274.23,-86.79 283.23,-81.21 272.71,-79.95 274.23,-86.79"/>
</g>
<!-- Node6 -->
<g id="node6" class="node">
<title>Node6</title>
<g id="a_node6"><a xlink:href="classrare_1_1widgets_1_1loading__widget_1_1_loading_widget.html#a26ca7c1c7fcdd35378e7be97727047a6" target="_top" xlink:title=" ">
<polygon fill="white" stroke="black" points="232,-0.5 232,-30.5 370,-30.5 370,-0.5 232,-0.5"/>
<text text-anchor="start" x="240" y="-18.5" font-family="Helvetica,sans-Serif" font-size="10.00">rare.widgets.loading</text>
<text text-anchor="middle" x="301" y="-7.5" font-family="Helvetica,sans-Serif" font-size="10.00">_widget.LoadingWidget.stop</text>
</a>
</g>
</g>
<!-- Node2&#45;&gt;Node6 -->
<g id="edge10" class="edge">
<title>Node2&#45;&gt;Node6</title>
<path fill="none" stroke="midnightblue" d="M184.85,-95.74C196.43,-85.95 215.04,-70.62 232,-58.5 242.85,-50.75 255.07,-42.8 266.12,-35.87"/>
<polygon fill="midnightblue" stroke="midnightblue" points="268.03,-38.81 274.69,-30.57 264.34,-32.86 268.03,-38.81"/>
</g>
<!-- Node3&#45;&gt;Node3 -->
<g id="edge4" class="edge">
<title>Node3&#45;&gt;Node3</title>
<path fill="none" stroke="midnightblue" d="M278.69,-210.66C273.31,-220.06 280.75,-229 301,-229 313.34,-229 320.92,-225.68 323.74,-220.96"/>
<polygon fill="midnightblue" stroke="midnightblue" points="327.23,-220.5 323.31,-210.66 320.23,-220.8 327.23,-220.5"/>
</g>
<!-- Node4&#45;&gt;Node4 -->
<g id="edge7" class="edge">
<title>Node4&#45;&gt;Node4</title>
<path fill="none" stroke="midnightblue" d="M281.27,-143.26C271.67,-152.07 278.25,-161.5 301,-161.5 315.57,-161.5 323.51,-157.63 324.81,-152.53"/>
<polygon fill="midnightblue" stroke="midnightblue" points="327.96,-151 320.73,-143.26 321.55,-153.82 327.96,-151"/>
</g>
<!-- Node5&#45;&gt;Node5 -->
<g id="edge9" class="edge">
<title>Node5&#45;&gt;Node5</title>
<path fill="none" stroke="midnightblue" d="M283.38,-85.53C270.88,-94.78 276.75,-105.5 301,-105.5 318.43,-105.5 326.37,-99.96 324.81,-93.41"/>
<polygon fill="midnightblue" stroke="midnightblue" points="327.55,-91.23 318.62,-85.53 322.04,-95.55 327.55,-91.23"/>
</g>
<!-- Node6&#45;&gt;Node6 -->
<g id="edge11" class="edge">
<title>Node6&#45;&gt;Node6</title>
<path fill="none" stroke="midnightblue" d="M278.69,-30.66C273.31,-40.06 280.75,-49 301,-49 313.34,-49 320.92,-45.68 323.74,-40.96"/>
<polygon fill="midnightblue" stroke="midnightblue" points="327.23,-40.5 323.31,-30.66 320.23,-40.8 327.23,-40.5"/>
</g>
</g>
</svg>
