<?xml version="1.0" encoding="UTF-8" standalone="no"?>
<!DOCTYPE svg PUBLIC "-//W3C//DTD SVG 1.1//EN"
 "http://www.w3.org/Graphics/SVG/1.1/DTD/svg11.dtd">
<!-- Generated by graphviz version 2.49.3 (20211027.1534)
 -->
<!-- Title: install_game Pages: 1 -->
<!--zoomable 336 -->
<svg id="main" version="1.1" xmlns="http://www.w3.org/2000/svg" xmlns:xlink="http://www.w3.org/1999/xlink" xml:space="preserve" onload="init(evt)">
<style type="text/css"><![CDATA[
.edge:hover path { stroke: red; }
.edge:hover polygon { stroke: red; fill: red; }
]]></style>
<script type="text/javascript"><![CDATA[
var edges = document.getElementsByTagName('g');
if (edges && edges.length) {
  for (var i=0;i<edges.length;i++) {
    if (edges[i].id.substr(0,4)=='edge') {
      edges[i].setAttribute('class','edge');
    }
  }
}
]]></script>
        <defs>
                <circle id="rim" cx="0" cy="0" r="7"/>
                <circle id="rim2" cx="0" cy="0" r="3.5"/>
                <g id="zoomPlus">
                        <use xlink:href="#rim" fill="#404040">
                                <set attributeName="fill" to="#808080" begin="zoomplus.mouseover" end="zoomplus.mouseout"/>
                        </use>
                        <path d="M-4,0h8M0,-4v8" fill="none" stroke="white" stroke-width="1.5" pointer-events="none"/>
                </g>
                <g id="zoomMin">
                        <use xlink:href="#rim" fill="#404040">
                                <set attributeName="fill" to="#808080" begin="zoomminus.mouseover" end="zoomminus.mouseout"/>
                        </use>
                        <path d="M-4,0h8" fill="none" stroke="white" stroke-width="1.5" pointer-events="none"/>
                </g>
                <g id="dirArrow">
                        <path fill="none" stroke="white" stroke-width="1.5" d="M0,-3.0v7 M-2.5,-0.5L0,-3.0L2.5,-0.5"/>
                </g>
               <g id="resetDef">
                       <use xlink:href="#rim2" fill="#404040">
                               <set attributeName="fill" to="#808080" begin="reset.mouseover" end="reset.mouseout"/>
                       </use>
               </g>
        </defs>

<script type="text/javascript">
var viewWidth = 771;
var viewHeight = 336;
var sectionId = 'dynsection-11';
</script>
<script xlink:href="svgpan.js"/>
<svg id="graph" class="graph">
<g id="viewport">
<title>install_game</title>
<polygon fill="white" stroke="transparent" points="-4,4 -4,-331.5 767,-331.5 767,4 -4,4"/>
<!-- Node1 -->
<g id="node1" class="node">
<title>Node1</title>
<g id="a_node1"><a xlink:title=" ">
<polygon fill="#bfbfbf" stroke="black" points="692,-196 692,-215 763,-215 763,-196 692,-196"/>
<text text-anchor="middle" x="727.5" y="-203" font-family="Helvetica,sans-Serif" font-size="10.00">install_game</text>
</a>
</g>
</g>
<!-- Node1&#45;&gt;Node1 -->
<g id="edge3" class="edge">
<title>Node1&#45;&gt;Node1</title>
<path fill="none" stroke="midnightblue" d="M750.94,-224.53C749.66,-229.63 741.85,-233.5 727.5,-233.5 705.11,-233.5 698.63,-224.07 708.08,-215.26"/>
<polygon fill="midnightblue" stroke="midnightblue" points="754.11,-223.04 746.92,-215.26 747.68,-225.82 754.11,-223.04"/>
</g>
<!-- Node2 -->
<g id="node2" class="node">
<title>Node2</title>
<g id="a_node2"><a xlink:href="classrare_1_1lgndr_1_1cli_1_1_legendary_c_l_i.html#a881d11b24342715864e29b218219f5f4" target="_top" xlink:title=" ">
<polygon fill="white" stroke="black" points="564.5,-290 564.5,-309 637.5,-309 637.5,-290 564.5,-290"/>
<text text-anchor="middle" x="601" y="-297" font-family="Helvetica,sans-Serif" font-size="10.00">import_game</text>
</a>
</g>
</g>
<!-- Node1&#45;&gt;Node2 -->
<g id="edge1" class="edge">
<title>Node1&#45;&gt;Node2</title>
<path fill="none" stroke="midnightblue" d="M712.17,-222.97C698.86,-238.34 677.86,-260.54 656,-275.5 647.62,-281.24 637.64,-286.12 628.56,-289.96"/>
<polygon fill="midnightblue" stroke="midnightblue" points="714.94,-225.12 718.73,-215.22 709.6,-220.59 714.94,-225.12"/>
</g>
<!-- Node3 -->
<g id="node3" class="node">
<title>Node3</title>
<g id="a_node3"><a xlink:href="classrare_1_1lgndr_1_1cli_1_1_legendary_c_l_i.html#a7de93b9e2b51b491d5c70be49680f66d" target="_top" xlink:title=" ">
<polygon fill="white" stroke="black" points="546,-196 546,-215 656,-215 656,-196 546,-196"/>
<text text-anchor="middle" x="601" y="-203" font-family="Helvetica,sans-Serif" font-size="10.00">install_game_cleanup</text>
</a>
</g>
</g>
<!-- Node1&#45;&gt;Node3 -->
<g id="edge4" class="edge">
<title>Node1&#45;&gt;Node3</title>
<path fill="none" stroke="midnightblue" d="M681.61,-198.99C673.33,-198.76 664.6,-198.69 656.08,-198.8"/>
<polygon fill="midnightblue" stroke="midnightblue" points="681.69,-202.49 691.82,-199.38 681.96,-195.5 681.69,-202.49"/>
</g>
<!-- Node4 -->
<g id="node4" class="node">
<title>Node4</title>
<g id="a_node4"><a xlink:href="classrare_1_1lgndr_1_1cli_1_1_legendary_c_l_i.html#ae0eac5fbd08c37bc6646b98c91d9f847" target="_top" xlink:title=" ">
<polygon fill="white" stroke="black" points="393,-241 393,-260 485,-260 485,-241 393,-241"/>
<text text-anchor="middle" x="439" y="-248" font-family="Helvetica,sans-Serif" font-size="10.00">install_game_real</text>
</a>
</g>
</g>
<!-- Node1&#45;&gt;Node4 -->
<g id="edge9" class="edge">
<title>Node1&#45;&gt;Node4</title>
<path fill="none" stroke="midnightblue" d="M704.19,-220.52C690.83,-228.64 673.15,-237.94 656,-242.5 598.52,-257.8 529.42,-257.22 485.12,-254.56"/>
<polygon fill="midnightblue" stroke="midnightblue" points="706.11,-223.44 712.69,-215.15 702.37,-217.53 706.11,-223.44"/>
</g>
<!-- Node5 -->
<g id="node5" class="node">
<title>Node5</title>
<g id="a_node5"><a xlink:href="classrare_1_1lgndr_1_1cli_1_1_legendary_c_l_i.html#a72a86e9e97d577472c8a8af9e4a67949" target="_top" xlink:title=" ">
<polygon fill="white" stroke="black" points="580.5,-140 580.5,-159 621.5,-159 621.5,-140 580.5,-140"/>
<text text-anchor="middle" x="601" y="-147" font-family="Helvetica,sans-Serif" font-size="10.00">move</text>
</a>
</g>
</g>
<!-- Node1&#45;&gt;Node5 -->
<g id="edge10" class="edge">
<title>Node1&#45;&gt;Node5</title>
<path fill="none" stroke="midnightblue" d="M695.75,-191.67C672.69,-181.29 641.79,-167.4 621.89,-158.45"/>
<polygon fill="midnightblue" stroke="midnightblue" points="694.54,-194.96 705.1,-195.87 697.41,-188.58 694.54,-194.96"/>
</g>
<!-- Node2&#45;&gt;Node2 -->
<g id="edge2" class="edge">
<title>Node2&#45;&gt;Node2</title>
<path fill="none" stroke="midnightblue" d="M624.44,-318.53C623.16,-323.63 615.35,-327.5 601,-327.5 578.61,-327.5 572.13,-318.07 581.58,-309.26"/>
<polygon fill="midnightblue" stroke="midnightblue" points="627.61,-317.04 620.42,-309.26 621.18,-319.82 627.61,-317.04"/>
</g>
<!-- Node3&#45;&gt;Node1 -->
<g id="edge5" class="edge">
<title>Node3&#45;&gt;Node1</title>
<path fill="none" stroke="midnightblue" d="M666.36,-212.25C675.14,-212.22 683.86,-212.01 691.82,-211.62"/>
<polygon fill="midnightblue" stroke="midnightblue" points="666.09,-208.75 656.08,-212.2 666.06,-215.75 666.09,-208.75"/>
</g>
<!-- Node3&#45;&gt;Node3 -->
<g id="edge6" class="edge">
<title>Node3&#45;&gt;Node3</title>
<path fill="none" stroke="midnightblue" d="M624.44,-224.53C623.16,-229.63 615.35,-233.5 601,-233.5 578.61,-233.5 572.13,-224.07 581.58,-215.26"/>
<polygon fill="midnightblue" stroke="midnightblue" points="627.61,-223.04 620.42,-215.26 621.18,-225.82 627.61,-223.04"/>
</g>
<!-- Node3&#45;&gt;Node4 -->
<g id="edge7" class="edge">
<title>Node3&#45;&gt;Node4</title>
<path fill="none" stroke="midnightblue" d="M556.11,-217.84C530.18,-225.14 497.84,-234.23 473.88,-240.97"/>
<polygon fill="midnightblue" stroke="midnightblue" points="557.39,-221.12 566.07,-215.04 555.49,-214.38 557.39,-221.12"/>
</g>
<!-- Node4&#45;&gt;Node4 -->
<g id="edge8" class="edge">
<title>Node4&#45;&gt;Node4</title>
<path fill="none" stroke="midnightblue" d="M469.31,-268.77C468.45,-274.24 458.35,-278.5 439,-278.5 410.21,-278.5 401.88,-269.07 414.03,-260.26"/>
<polygon fill="midnightblue" stroke="midnightblue" points="472.25,-266.87 463.97,-260.26 466.32,-270.59 472.25,-266.87"/>
</g>
<!-- Node5&#45;&gt;Node5 -->
<g id="edge29" class="edge">
<title>Node5&#45;&gt;Node5</title>
<path fill="none" stroke="midnightblue" d="M624.44,-168.53C623.16,-173.63 615.35,-177.5 601,-177.5 578.61,-177.5 572.13,-168.07 581.58,-159.26"/>
<polygon fill="midnightblue" stroke="midnightblue" points="627.61,-167.04 620.42,-159.26 621.18,-169.82 627.61,-167.04"/>
</g>
<!-- Node6 -->
<g id="node6" class="node">
<title>Node6</title>
<g id="a_node6"><a xlink:href="classrare_1_1components_1_1main__window_1_1_main_window.html#a91465b9ae57cdea67cbcbb58986892d7" target="_top" xlink:title=" ">
<polygon fill="white" stroke="black" points="368,-141 368,-182 510,-182 510,-141 368,-141"/>
<text text-anchor="start" x="376" y="-170" font-family="Helvetica,sans-Serif" font-size="10.00">rare.components.main</text>
<text text-anchor="start" x="376" y="-159" font-family="Helvetica,sans-Serif" font-size="10.00">_window.MainWindow.center</text>
<text text-anchor="middle" x="439" y="-148" font-family="Helvetica,sans-Serif" font-size="10.00">_window</text>
</a>
</g>
</g>
<!-- Node5&#45;&gt;Node6 -->
<g id="edge11" class="edge">
<title>Node5&#45;&gt;Node6</title>
<path fill="none" stroke="midnightblue" d="M570.05,-151.75C553.14,-153.01 531.24,-154.66 510.25,-156.23"/>
<polygon fill="midnightblue" stroke="midnightblue" points="570.67,-155.21 580.38,-150.97 570.15,-148.23 570.67,-155.21"/>
</g>
<!-- Node12 -->
<g id="node12" class="node">
<title>Node12</title>
<g id="a_node12"><a xlink:href="classrare_1_1launcher_1_1console__dialog_1_1_console_dialog.html#a91465b9ae57cdea67cbcbb58986892d7" target="_top" xlink:title=" ">
<polygon fill="white" stroke="black" points="368.5,-63 368.5,-104 509.5,-104 509.5,-63 368.5,-63"/>
<text text-anchor="start" x="376.5" y="-92" font-family="Helvetica,sans-Serif" font-size="10.00">rare.launcher.console</text>
<text text-anchor="start" x="376.5" y="-81" font-family="Helvetica,sans-Serif" font-size="10.00">_dialog.ConsoleDialog.center</text>
<text text-anchor="middle" x="439" y="-70" font-family="Helvetica,sans-Serif" font-size="10.00">_window</text>
</a>
</g>
</g>
<!-- Node5&#45;&gt;Node12 -->
<g id="edge25" class="edge">
<title>Node5&#45;&gt;Node12</title>
<path fill="none" stroke="midnightblue" d="M571.03,-137.55C548.48,-128.25 516.66,-115.12 490.02,-104.13"/>
<polygon fill="midnightblue" stroke="midnightblue" points="569.8,-140.83 580.38,-141.41 572.47,-134.36 569.8,-140.83"/>
</g>
<!-- Node6&#45;&gt;Node6 -->
<g id="edge12" class="edge">
<title>Node6&#45;&gt;Node6</title>
<path fill="none" stroke="midnightblue" d="M466.87,-192.36C462.73,-197.2 453.44,-200.5 439,-200.5 415.9,-200.5 405.98,-192.04 409.23,-182.36"/>
<polygon fill="midnightblue" stroke="midnightblue" points="470.34,-192.84 468.77,-182.36 463.46,-191.53 470.34,-192.84"/>
</g>
<!-- Node7 -->
<g id="node7" class="node">
<title>Node7</title>
<g id="a_node7"><a xlink:href="classrare_1_1components_1_1main__window_1_1_main_window.html#a7e95a1a89e48f7f756bcea2a62a14a62" target="_top" xlink:title=" ">
<polygon fill="white" stroke="black" points="194,-143.5 194,-173.5 332,-173.5 332,-143.5 194,-143.5"/>
<text text-anchor="start" x="202" y="-161.5" font-family="Helvetica,sans-Serif" font-size="10.00">rare.components.main</text>
<text text-anchor="middle" x="263" y="-150.5" font-family="Helvetica,sans-Serif" font-size="10.00">_window.MainWindow.show</text>
</a>
</g>
</g>
<!-- Node6&#45;&gt;Node7 -->
<g id="edge13" class="edge">
<title>Node6&#45;&gt;Node7</title>
<path fill="none" stroke="midnightblue" d="M357.94,-160.12C349.33,-159.97 340.63,-159.82 332.18,-159.68"/>
<polygon fill="midnightblue" stroke="midnightblue" points="357.92,-163.62 367.98,-160.29 358.04,-156.62 357.92,-163.62"/>
</g>
<!-- Node10 -->
<g id="node10" class="node">
<title>Node10</title>
<g id="a_node10"><a xlink:href="classrare_1_1launcher_1_1console__dialog_1_1_console_dialog.html#a7e95a1a89e48f7f756bcea2a62a14a62" target="_top" xlink:title=" ">
<polygon fill="white" stroke="black" points="194.5,-73.5 194.5,-103.5 331.5,-103.5 331.5,-73.5 194.5,-73.5"/>
<text text-anchor="start" x="202.5" y="-91.5" font-family="Helvetica,sans-Serif" font-size="10.00">rare.launcher.console</text>
<text text-anchor="middle" x="263" y="-80.5" font-family="Helvetica,sans-Serif" font-size="10.00">_dialog.ConsoleDialog.show</text>
</a>
</g>
</g>
<!-- Node6&#45;&gt;Node10 -->
<g id="edge19" class="edge">
<title>Node6&#45;&gt;Node10</title>
<path fill="none" stroke="midnightblue" d="M379.55,-136.98C353.16,-125.91 322.84,-113.19 299.88,-103.55"/>
<polygon fill="midnightblue" stroke="midnightblue" points="378.49,-140.33 389.07,-140.97 381.2,-133.87 378.49,-140.33"/>
</g>
<!-- Node7&#45;&gt;Node7 -->
<g id="edge14" class="edge">
<title>Node7&#45;&gt;Node7</title>
<path fill="none" stroke="midnightblue" d="M294.27,-183.96C290.39,-188.68 279.97,-192 263,-192 235.16,-192 224.93,-183.06 232.33,-173.66"/>
<polygon fill="midnightblue" stroke="midnightblue" points="297.75,-183.44 293.67,-173.66 290.76,-183.85 297.75,-183.44"/>
</g>
<!-- Node8 -->
<g id="node8" class="node">
<title>Node8</title>
<g id="a_node8"><a xlink:href="classrare_1_1components_1_1main__window_1_1_main_window.html#aa932131ff73a2a934f2f2da848314955" target="_top" xlink:title=" ">
<polygon fill="white" stroke="black" points="10.5,-68 10.5,-109 147.5,-109 147.5,-68 10.5,-68"/>
<text text-anchor="start" x="18.5" y="-97" font-family="Helvetica,sans-Serif" font-size="10.00">rare.components.main</text>
<text text-anchor="start" x="18.5" y="-86" font-family="Helvetica,sans-Serif" font-size="10.00">_window.MainWindow.timer</text>
<text text-anchor="middle" x="79" y="-75" font-family="Helvetica,sans-Serif" font-size="10.00">_finished</text>
</a>
</g>
</g>
<!-- Node7&#45;&gt;Node8 -->
<g id="edge15" class="edge">
<title>Node7&#45;&gt;Node8</title>
<path fill="none" stroke="midnightblue" d="M213.45,-139.83C188.8,-130.34 158.79,-118.8 133.48,-109.07"/>
<polygon fill="midnightblue" stroke="midnightblue" points="212.37,-143.16 222.96,-143.48 214.88,-136.63 212.37,-143.16"/>
</g>
<!-- Node9 -->
<g id="node9" class="node">
<title>Node9</title>
<g id="a_node9"><a xlink:href="classrare_1_1components_1_1main__window_1_1_main_window.html#a76ef2ebd71b1a1858194134725b6c800" target="_top" xlink:title=" ">
<polygon fill="white" stroke="black" points="8.5,-146.5 8.5,-176.5 149.5,-176.5 149.5,-146.5 8.5,-146.5"/>
<text text-anchor="start" x="16.5" y="-164.5" font-family="Helvetica,sans-Serif" font-size="10.00">rare.components.main</text>
<text text-anchor="middle" x="79" y="-153.5" font-family="Helvetica,sans-Serif" font-size="10.00">_window.MainWindow.toggle</text>
</a>
</g>
</g>
<!-- Node7&#45;&gt;Node9 -->
<g id="edge17" class="edge">
<title>Node7&#45;&gt;Node9</title>
<path fill="none" stroke="midnightblue" d="M183.7,-159.79C172.42,-159.98 160.87,-160.17 149.77,-160.35"/>
<polygon fill="midnightblue" stroke="midnightblue" points="184.03,-163.29 193.97,-159.62 183.91,-156.29 184.03,-163.29"/>
</g>
<!-- Node8&#45;&gt;Node8 -->
<g id="edge16" class="edge">
<title>Node8&#45;&gt;Node8</title>
<path fill="none" stroke="midnightblue" d="M110.66,-119.36C105.95,-124.2 95.4,-127.5 79,-127.5 52.77,-127.5 41.49,-119.04 45.18,-109.36"/>
<polygon fill="midnightblue" stroke="midnightblue" points="114.12,-119.88 112.82,-109.36 107.28,-118.4 114.12,-119.88"/>
</g>
<!-- Node9&#45;&gt;Node9 -->
<g id="edge18" class="edge">
<title>Node9&#45;&gt;Node9</title>
<path fill="none" stroke="midnightblue" d="M111.69,-186.96C107.64,-191.68 96.74,-195 79,-195 49.89,-195 39.2,-186.06 46.93,-176.66"/>
<polygon fill="midnightblue" stroke="midnightblue" points="115.17,-186.43 111.07,-176.66 108.18,-186.85 115.17,-186.43"/>
</g>
<!-- Node10&#45;&gt;Node8 -->
<g id="edge23" class="edge">
<title>Node10&#45;&gt;Node8</title>
<path fill="none" stroke="midnightblue" d="M184.35,-88.5C172.16,-88.5 159.65,-88.5 147.71,-88.5"/>
<polygon fill="midnightblue" stroke="midnightblue" points="184.49,-92 194.49,-88.5 184.49,-85 184.49,-92"/>
</g>
<!-- Node10&#45;&gt;Node9 -->
<g id="edge24" class="edge">
<title>Node10&#45;&gt;Node9</title>
<path fill="none" stroke="midnightblue" d="M222.85,-107.95C203.56,-117.17 179.82,-128.01 158,-136.5 149.12,-139.96 139.55,-143.32 130.25,-146.39"/>
<polygon fill="midnightblue" stroke="midnightblue" points="224.45,-111.06 231.93,-103.57 221.4,-104.76 224.45,-111.06"/>
</g>
<!-- Node10&#45;&gt;Node10 -->
<g id="edge20" class="edge">
<title>Node10&#45;&gt;Node10</title>
<path fill="none" stroke="midnightblue" d="M294.27,-113.96C290.39,-118.68 279.97,-122 263,-122 235.16,-122 224.93,-113.06 232.33,-103.66"/>
<polygon fill="midnightblue" stroke="midnightblue" points="297.75,-113.44 293.67,-103.66 290.76,-113.85 297.75,-113.44"/>
</g>
<!-- Node11 -->
<g id="node11" class="node">
<title>Node11</title>
<g id="a_node11"><a xlink:href="classrare_1_1launcher_1_1console__dialog_1_1_console_dialog.html#aea9480e3e11a9caa9c677f82b2c64569" target="_top" xlink:title=" ">
<polygon fill="white" stroke="black" points="0,-0.5 0,-30.5 158,-30.5 158,-0.5 0,-0.5"/>
<text text-anchor="start" x="8" y="-18.5" font-family="Helvetica,sans-Serif" font-size="10.00">rare.launcher.console</text>
<text text-anchor="middle" x="79" y="-7.5" font-family="Helvetica,sans-Serif" font-size="10.00">_dialog.ConsoleDialog.show_env</text>
</a>
</g>
</g>
<!-- Node10&#45;&gt;Node11 -->
<g id="edge21" class="edge">
<title>Node10&#45;&gt;Node11</title>
<path fill="none" stroke="midnightblue" d="M214.79,-69.57C184.55,-57.44 145.84,-41.91 117.66,-30.61"/>
<polygon fill="midnightblue" stroke="midnightblue" points="213.71,-72.9 224.29,-73.37 216.31,-66.4 213.71,-72.9"/>
</g>
<!-- Node11&#45;&gt;Node11 -->
<g id="edge22" class="edge">
<title>Node11&#45;&gt;Node11</title>
<path fill="none" stroke="midnightblue" d="M111.69,-40.96C107.64,-45.68 96.74,-49 79,-49 49.89,-49 39.2,-40.06 46.93,-30.66"/>
<polygon fill="midnightblue" stroke="midnightblue" points="115.17,-40.43 111.07,-30.66 108.18,-40.85 115.17,-40.43"/>
</g>
<!-- Node12&#45;&gt;Node7 -->
<g id="edge27" class="edge">
<title>Node12&#45;&gt;Node7</title>
<path fill="none" stroke="midnightblue" d="M383.03,-108.21C366.65,-115.48 348.63,-123.39 332,-130.5 322.02,-134.77 311.17,-139.29 301.13,-143.42"/>
<polygon fill="midnightblue" stroke="midnightblue" points="384.75,-111.27 392.46,-104.01 381.9,-104.88 384.75,-111.27"/>
</g>
<!-- Node12&#45;&gt;Node10 -->
<g id="edge28" class="edge">
<title>Node12&#45;&gt;Node10</title>
<path fill="none" stroke="midnightblue" d="M358.46,-85.79C349.52,-86.04 340.48,-86.3 331.71,-86.55"/>
<polygon fill="midnightblue" stroke="midnightblue" points="358.59,-89.28 368.48,-85.5 358.38,-82.29 358.59,-89.28"/>
</g>
<!-- Node12&#45;&gt;Node12 -->
<g id="edge26" class="edge">
<title>Node12&#45;&gt;Node12</title>
<path fill="none" stroke="midnightblue" d="M466.87,-114.36C462.73,-119.2 453.44,-122.5 439,-122.5 415.9,-122.5 405.98,-114.04 409.23,-104.36"/>
<polygon fill="midnightblue" stroke="midnightblue" points="470.34,-114.84 468.77,-104.36 463.46,-113.53 470.34,-114.84"/>
</g>
</g>
</svg>
        <g id="navigator" transform="translate(0 0)" fill="#404254">
                <rect fill="#f2f5e9" fill-opacity="0.5" stroke="#606060" stroke-width=".5" x="0" y="0" width="60" height="60"/>
                <use id="zoomplus" xlink:href="#zoomPlus" x="17" y="9" onmousedown="handleZoom(evt,'in')"/>
                <use id="zoomminus" xlink:href="#zoomMin" x="42" y="9" onmousedown="handleZoom(evt,'out')"/>
                <use id="reset" xlink:href="#resetDef" x="30" y="36" onmousedown="handleReset()"/>
                <g id="arrowUp" xlink:href="#dirArrow" transform="translate(30 24)" onmousedown="handlePan(0,-1)">
                  <use xlink:href="#rim" fill="#404040">
                        <set attributeName="fill" to="#808080" begin="arrowUp.mouseover" end="arrowUp.mouseout"/>
                  </use>
                  <path fill="none" stroke="white" stroke-width="1.5" d="M0,-3.0v7 M-2.5,-0.5L0,-3.0L2.5,-0.5"/>
                </g>
                <g id="arrowRight" xlink:href="#dirArrow" transform="rotate(90) translate(36 -43)" onmousedown="handlePan(1,0)">
                  <use xlink:href="#rim" fill="#404040">
                        <set attributeName="fill" to="#808080" begin="arrowRight.mouseover" end="arrowRight.mouseout"/>
                  </use>
                  <path fill="none" stroke="white" stroke-width="1.5" d="M0,-3.0v7 M-2.5,-0.5L0,-3.0L2.5,-0.5"/>
                </g>
                <g id="arrowDown" xlink:href="#dirArrow" transform="rotate(180) translate(-30 -48)" onmousedown="handlePan(0,1)">
                  <use xlink:href="#rim" fill="#404040">
                        <set attributeName="fill" to="#808080" begin="arrowDown.mouseover" end="arrowDown.mouseout"/>
                  </use>
                  <path fill="none" stroke="white" stroke-width="1.5" d="M0,-3.0v7 M-2.5,-0.5L0,-3.0L2.5,-0.5"/>
                </g>
                <g id="arrowLeft" xlink:href="#dirArrow" transform="rotate(270) translate(-36 17)" onmousedown="handlePan(-1,0)">
                  <use xlink:href="#rim" fill="#404040">
                        <set attributeName="fill" to="#808080" begin="arrowLeft.mouseover" end="arrowLeft.mouseout"/>
                  </use>
                  <path fill="none" stroke="white" stroke-width="1.5" d="M0,-3.0v7 M-2.5,-0.5L0,-3.0L2.5,-0.5"/>
                </g>
        </g>
        <svg viewBox="0 0 15 15" width="100%" height="30px" preserveAspectRatio="xMaxYMin meet">
         <g id="arrow_out" transform="scale(0.3 0.3)">
          <a xlink:href="classrare_1_1lgndr_1_1cli_1_1_legendary_c_l_i_a4aaa726f3b4643dc9fc5f027294fc9c9_icgraph_org.svg" target="_base">
           <rect id="button" ry="5" rx="5" y="6" x="6" height="38" width="38"
                fill="#f2f5e9" fill-opacity="0.5" stroke="#606060" stroke-width="1.0"/>
           <path id="arrow"
             d="M 11.500037,31.436501 C 11.940474,20.09759 22.043105,11.32322 32.158766,21.979434 L 37.068811,17.246167 C 37.068811,17.246167 37.088388,32 37.088388,32 L 22.160133,31.978069 C 22.160133,31.978069 26.997745,27.140456 26.997745,27.140456 C 18.528582,18.264221 13.291696,25.230495 11.500037,31.436501 z"
             style="fill:#404040;"/>
          </a>
         </g>
        </svg>
</svg>
