<?xml version="1.0" encoding="UTF-8" standalone="no"?>
<!DOCTYPE svg PUBLIC "-//W3C//DTD SVG 1.1//EN"
 "http://www.w3.org/Graphics/SVG/1.1/DTD/svg11.dtd">
<!-- Generated by graphviz version 2.49.3 (20211027.1534)
 -->
<!-- Title: check_saves_finished Pages: 1 -->
<!--zoomable 257 -->
<svg id="main" version="1.1" xmlns="http://www.w3.org/2000/svg" xmlns:xlink="http://www.w3.org/1999/xlink" xml:space="preserve" onload="init(evt)">
<style type="text/css"><![CDATA[
.edge:hover path { stroke: red; }
.edge:hover polygon { stroke: red; fill: red; }
]]></style>
<script type="text/javascript"><![CDATA[
var edges = document.getElementsByTagName('g');
if (edges && edges.length) {
  for (var i=0;i<edges.length;i++) {
    if (edges[i].id.substr(0,4)=='edge') {
      edges[i].setAttribute('class','edge');
    }
  }
}
]]></script>
        <defs>
                <circle id="rim" cx="0" cy="0" r="7"/>
                <circle id="rim2" cx="0" cy="0" r="3.5"/>
                <g id="zoomPlus">
                        <use xlink:href="#rim" fill="#404040">
                                <set attributeName="fill" to="#808080" begin="zoomplus.mouseover" end="zoomplus.mouseout"/>
                        </use>
                        <path d="M-4,0h8M0,-4v8" fill="none" stroke="white" stroke-width="1.5" pointer-events="none"/>
                </g>
                <g id="zoomMin">
                        <use xlink:href="#rim" fill="#404040">
                                <set attributeName="fill" to="#808080" begin="zoomminus.mouseover" end="zoomminus.mouseout"/>
                        </use>
                        <path d="M-4,0h8" fill="none" stroke="white" stroke-width="1.5" pointer-events="none"/>
                </g>
                <g id="dirArrow">
                        <path fill="none" stroke="white" stroke-width="1.5" d="M0,-3.0v7 M-2.5,-0.5L0,-3.0L2.5,-0.5"/>
                </g>
               <g id="resetDef">
                       <use xlink:href="#rim2" fill="#404040">
                               <set attributeName="fill" to="#808080" begin="reset.mouseover" end="reset.mouseout"/>
                       </use>
               </g>
        </defs>

<script type="text/javascript">
var viewWidth = 625;
var viewHeight = 257;
var sectionId = 'dynsection-4';
</script>
<script xlink:href="svgpan.js"/>
<svg id="graph" class="graph">
<g id="viewport">
<title>check_saves_finished</title>
<polygon fill="white" stroke="transparent" points="-4,4 -4,-252.5 621,-252.5 621,4 -4,4"/>
<!-- Node1 -->
<g id="node1" class="node">
<title>Node1</title>
<g id="a_node1"><a xlink:title=" ">
<polygon fill="#bfbfbf" stroke="black" points="0,-140.5 0,-159.5 113,-159.5 113,-140.5 0,-140.5"/>
<text text-anchor="middle" x="56.5" y="-147.5" font-family="Helvetica,sans-Serif" font-size="10.00">check_saves_finished</text>
</a>
</g>
</g>
<!-- Node1&#45;&gt;Node1 -->
<g id="edge2" class="edge">
<title>Node1&#45;&gt;Node1</title>
<path fill="none" stroke="midnightblue" d="M32.76,-159.76C21.22,-168.57 29.13,-178 56.5,-178 74.46,-178 84.04,-173.94 85.25,-168.65"/>
<polygon fill="midnightblue" stroke="midnightblue" points="88.19,-166.75 80.24,-159.76 82.09,-170.19 88.19,-166.75"/>
</g>
<!-- Node2 -->
<g id="node2" class="node">
<title>Node2</title>
<g id="a_node2"><a xlink:href="classrare_1_1commands_1_1launcher_1_1_rare_launcher.html#aba14d5c9602de1c5d8094705374a68da" target="_top" xlink:title=" ">
<polygon fill="white" stroke="black" points="149,-168.5 149,-187.5 272,-187.5 272,-168.5 149,-168.5"/>
<text text-anchor="middle" x="210.5" y="-175.5" font-family="Helvetica,sans-Serif" font-size="10.00">__check_saves_finished</text>
</a>
</g>
</g>
<!-- Node1&#45;&gt;Node2 -->
<g id="edge1" class="edge">
<title>Node1&#45;&gt;Node2</title>
<path fill="none" stroke="midnightblue" d="M109.38,-159.56C121.74,-161.83 135.03,-164.28 147.78,-166.63"/>
<polygon fill="midnightblue" stroke="midnightblue" points="147.38,-170.12 157.85,-168.49 148.65,-163.23 147.38,-170.12"/>
</g>
<!-- Node3 -->
<g id="node3" class="node">
<title>Node3</title>
<g id="a_node3"><a xlink:href="classrare_1_1commands_1_1launcher_1_1_rare_launcher.html#ad0256d0c2293a5030e42884d8de9484d" target="_top" xlink:title=" ">
<polygon fill="white" stroke="black" points="187,-112.5 187,-131.5 234,-131.5 234,-112.5 187,-112.5"/>
<text text-anchor="middle" x="210.5" y="-119.5" font-family="Helvetica,sans-Serif" font-size="10.00">on_exit</text>
</a>
</g>
</g>
<!-- Node1&#45;&gt;Node3 -->
<g id="edge3" class="edge">
<title>Node1&#45;&gt;Node3</title>
<path fill="none" stroke="midnightblue" d="M109.38,-140.44C131.69,-136.33 157.09,-131.65 176.73,-128.04"/>
<polygon fill="midnightblue" stroke="midnightblue" points="177.5,-131.45 186.7,-126.2 176.23,-124.57 177.5,-131.45"/>
</g>
<!-- Node3&#45;&gt;Node3 -->
<g id="edge8" class="edge">
<title>Node3&#45;&gt;Node3</title>
<path fill="none" stroke="midnightblue" d="M186.76,-131.76C175.22,-140.57 183.13,-150 210.5,-150 228.46,-150 238.04,-145.94 239.25,-140.65"/>
<polygon fill="midnightblue" stroke="midnightblue" points="242.19,-138.75 234.24,-131.76 236.09,-142.19 242.19,-138.75"/>
</g>
<!-- Node4 -->
<g id="node4" class="node">
<title>Node4</title>
<g id="a_node4"><a xlink:href="classrare_1_1shared_1_1rare__core_1_1_rare_core.html#a405e1a4f20f16120f872ccd2654a1d56" target="_top" xlink:title=" ">
<polygon fill="white" stroke="black" points="312,-200 312,-230 442,-230 442,-200 312,-200"/>
<text text-anchor="start" x="320" y="-218" font-family="Helvetica,sans-Serif" font-size="10.00">rare.shared.rare_core.Rare</text>
<text text-anchor="middle" x="377" y="-207" font-family="Helvetica,sans-Serif" font-size="10.00">Core.core</text>
</a>
</g>
</g>
<!-- Node3&#45;&gt;Node4 -->
<g id="edge4" class="edge">
<title>Node3&#45;&gt;Node4</title>
<path fill="none" stroke="midnightblue" d="M228.66,-131.5C241.04,-138.59 257.97,-148.77 272,-159 289.06,-171.44 289.8,-179.3 308,-190 311.44,-192.02 315.07,-193.93 318.79,-195.71"/>
<polygon fill="midnightblue" stroke="midnightblue" points="317.62,-199.02 328.18,-199.91 320.47,-192.63 317.62,-199.02"/>
</g>
<!-- Node6 -->
<g id="node6" class="node">
<title>Node6</title>
<g id="a_node6"><a xlink:href="classrare_1_1commands_1_1launcher_1_1_rare_launcher.html#a1ad309148fd22e4786258dc4a79ec7af" target="_top" xlink:title=" ">
<polygon fill="white" stroke="black" points="335.5,-143.5 335.5,-162.5 418.5,-162.5 418.5,-143.5 335.5,-143.5"/>
<text text-anchor="middle" x="377" y="-150.5" font-family="Helvetica,sans-Serif" font-size="10.00">send_message</text>
</a>
</g>
</g>
<!-- Node3&#45;&gt;Node6 -->
<g id="edge9" class="edge">
<title>Node3&#45;&gt;Node6</title>
<path fill="none" stroke="midnightblue" d="M234.03,-126.25C257.43,-130.66 294.82,-137.7 325.36,-143.46"/>
<polygon fill="midnightblue" stroke="midnightblue" points="324.95,-146.94 335.42,-145.35 326.24,-140.06 324.95,-146.94"/>
</g>
<!-- Node7 -->
<g id="node7" class="node">
<title>Node7</title>
<g id="a_node7"><a xlink:href="classrare_1_1widgets_1_1loading__widget_1_1_loading_widget.html#a26ca7c1c7fcdd35378e7be97727047a6" target="_top" xlink:title=" ">
<polygon fill="white" stroke="black" points="308,-76 308,-106 446,-106 446,-76 308,-76"/>
<text text-anchor="start" x="316" y="-94" font-family="Helvetica,sans-Serif" font-size="10.00">rare.widgets.loading</text>
<text text-anchor="middle" x="377" y="-83" font-family="Helvetica,sans-Serif" font-size="10.00">_widget.LoadingWidget.stop</text>
</a>
</g>
</g>
<!-- Node3&#45;&gt;Node7 -->
<g id="edge12" class="edge">
<title>Node3&#45;&gt;Node7</title>
<path fill="none" stroke="midnightblue" d="M234.03,-117.75C250.74,-114.61 274.58,-110.11 297.96,-105.71"/>
<polygon fill="midnightblue" stroke="midnightblue" points="298.76,-109.12 307.93,-103.83 297.46,-102.24 298.76,-109.12"/>
</g>
<!-- Node8 -->
<g id="node8" class="node">
<title>Node8</title>
<g id="a_node8"><a xlink:href="classrare_1_1commands_1_1launcher_1_1_rare_launcher.html#a4dfa5455935d7f774521e4b389d26e8c" target="_top" xlink:title=" ">
<polygon fill="white" stroke="black" points="359.5,-19.5 359.5,-38.5 394.5,-38.5 394.5,-19.5 359.5,-19.5"/>
<text text-anchor="middle" x="377" y="-26.5" font-family="Helvetica,sans-Serif" font-size="10.00">stop</text>
</a>
</g>
</g>
<!-- Node3&#45;&gt;Node8 -->
<g id="edge14" class="edge">
<title>Node3&#45;&gt;Node8</title>
<path fill="none" stroke="midnightblue" d="M227.81,-112.35C246.94,-101.08 279.63,-81.94 308,-66 321.91,-58.18 337.55,-49.66 350.31,-42.76"/>
<polygon fill="midnightblue" stroke="midnightblue" points="352.3,-45.67 359.44,-37.85 348.98,-39.51 352.3,-45.67"/>
</g>
<!-- Node4&#45;&gt;Node4 -->
<g id="edge5" class="edge">
<title>Node4&#45;&gt;Node4</title>
<path fill="none" stroke="midnightblue" d="M348.07,-230.16C341.1,-239.56 350.74,-248.5 377,-248.5 393,-248.5 402.84,-245.18 406.5,-240.46"/>
<polygon fill="midnightblue" stroke="midnightblue" points="409.97,-239.95 405.93,-230.16 402.98,-240.34 409.97,-239.95"/>
</g>
<!-- Node5 -->
<g id="node5" class="node">
<title>Node5</title>
<g id="a_node5"><a xlink:href="classrare_1_1shared_1_1workers_1_1worker_1_1_worker.html#a5d3220537164bdcd6c040b54ef85f656" target="_top" xlink:title=" ">
<polygon fill="white" stroke="black" points="482,-138 482,-168 617,-168 617,-138 482,-138"/>
<text text-anchor="start" x="490" y="-156" font-family="Helvetica,sans-Serif" font-size="10.00">rare.shared.workers.worker.</text>
<text text-anchor="middle" x="549.5" y="-145" font-family="Helvetica,sans-Serif" font-size="10.00">Worker.logger</text>
</a>
</g>
</g>
<!-- Node4&#45;&gt;Node5 -->
<g id="edge6" class="edge">
<title>Node4&#45;&gt;Node5</title>
<path fill="none" stroke="midnightblue" d="M419.27,-199.99C442.76,-191.45 472.39,-180.68 497.35,-171.6"/>
<polygon fill="midnightblue" stroke="midnightblue" points="498.81,-174.79 507.02,-168.09 496.42,-168.21 498.81,-174.79"/>
</g>
<!-- Node5&#45;&gt;Node5 -->
<g id="edge7" class="edge">
<title>Node5&#45;&gt;Node5</title>
<path fill="none" stroke="midnightblue" d="M519.53,-168.16C512.3,-177.56 522.29,-186.5 549.5,-186.5 566.08,-186.5 576.27,-183.18 580.06,-178.46"/>
<polygon fill="midnightblue" stroke="midnightblue" points="583.54,-177.94 579.47,-168.16 576.55,-178.34 583.54,-177.94"/>
</g>
<!-- Node6&#45;&gt;Node5 -->
<g id="edge10" class="edge">
<title>Node6&#45;&gt;Node5</title>
<path fill="none" stroke="midnightblue" d="M418.84,-153C434.72,-153 453.44,-153 471.65,-153"/>
<polygon fill="midnightblue" stroke="midnightblue" points="471.7,-156.5 481.7,-153 471.7,-149.5 471.7,-156.5"/>
</g>
<!-- Node6&#45;&gt;Node6 -->
<g id="edge11" class="edge">
<title>Node6&#45;&gt;Node6</title>
<path fill="none" stroke="midnightblue" d="M351.41,-162.76C338.97,-171.57 347.5,-181 377,-181 396.82,-181 407.18,-176.74 408.06,-171.27"/>
<polygon fill="midnightblue" stroke="midnightblue" points="410.94,-169.27 402.59,-162.76 405.05,-173.06 410.94,-169.27"/>
</g>
<!-- Node7&#45;&gt;Node7 -->
<g id="edge13" class="edge">
<title>Node7&#45;&gt;Node7</title>
<path fill="none" stroke="midnightblue" d="M348.07,-106.16C341.1,-115.56 350.74,-124.5 377,-124.5 393,-124.5 402.84,-121.18 406.5,-116.46"/>
<polygon fill="midnightblue" stroke="midnightblue" points="409.97,-115.95 405.93,-106.16 402.98,-116.34 409.97,-115.95"/>
</g>
<!-- Node8&#45;&gt;Node5 -->
<g id="edge17" class="edge">
<title>Node8&#45;&gt;Node5</title>
<path fill="none" stroke="midnightblue" d="M394.77,-36.91C408.88,-43.86 429.37,-54.6 446,-66 474.89,-85.81 505.13,-112.29 525.22,-130.82"/>
<polygon fill="midnightblue" stroke="midnightblue" points="522.95,-133.49 532.65,-137.74 527.72,-128.36 522.95,-133.49"/>
</g>
<!-- Node8&#45;&gt;Node8 -->
<g id="edge18" class="edge">
<title>Node8&#45;&gt;Node8</title>
<path fill="none" stroke="midnightblue" d="M359.28,-34.5C336.73,-44.2 342.63,-57 377,-57 405.73,-57 414.57,-48.05 403.52,-39.45"/>
<polygon fill="midnightblue" stroke="midnightblue" points="405.15,-36.35 394.72,-34.5 401.72,-42.45 405.15,-36.35"/>
</g>
<!-- Node9 -->
<g id="node9" class="node">
<title>Node9</title>
<g id="a_node9"><a xlink:href="classrare_1_1commands_1_1launcher_1_1_rare_launcher.html#ad6acab567ee6df6a65b0d93623c08d18" target="_top" xlink:title=" ">
<polygon fill="white" stroke="black" points="518,-38.5 518,-57.5 581,-57.5 581,-38.5 518,-38.5"/>
<text text-anchor="middle" x="549.5" y="-45.5" font-family="Helvetica,sans-Serif" font-size="10.00">__proc_kill</text>
</a>
</g>
</g>
<!-- Node8&#45;&gt;Node9 -->
<g id="edge15" class="edge">
<title>Node8&#45;&gt;Node9</title>
<path fill="none" stroke="midnightblue" d="M394.66,-30.86C420.59,-33.75 471.37,-39.41 507.5,-43.43"/>
<polygon fill="midnightblue" stroke="midnightblue" points="507.4,-46.94 517.73,-44.57 508.17,-39.98 507.4,-46.94"/>
</g>
<!-- Node10 -->
<g id="node10" class="node">
<title>Node10</title>
<g id="a_node10"><a xlink:href="classrare_1_1commands_1_1launcher_1_1_rare_launcher.html#ac2ff56cbc5075514d1e49aeb071a7b6d" target="_top" xlink:title=" ">
<polygon fill="white" stroke="black" points="514,-0.5 514,-19.5 585,-19.5 585,-0.5 514,-0.5"/>
<text text-anchor="middle" x="549.5" y="-7.5" font-family="Helvetica,sans-Serif" font-size="10.00">__proc_term</text>
</a>
</g>
</g>
<!-- Node8&#45;&gt;Node10 -->
<g id="edge16" class="edge">
<title>Node8&#45;&gt;Node10</title>
<path fill="none" stroke="midnightblue" d="M394.66,-27.14C419.67,-24.36 467.82,-18.99 503.62,-15"/>
<polygon fill="midnightblue" stroke="midnightblue" points="504.27,-18.45 513.82,-13.86 503.5,-11.49 504.27,-18.45"/>
</g>
</g>
</svg>
        <g id="navigator" transform="translate(0 0)" fill="#404254">
                <rect fill="#f2f5e9" fill-opacity="0.5" stroke="#606060" stroke-width=".5" x="0" y="0" width="60" height="60"/>
                <use id="zoomplus" xlink:href="#zoomPlus" x="17" y="9" onmousedown="handleZoom(evt,'in')"/>
                <use id="zoomminus" xlink:href="#zoomMin" x="42" y="9" onmousedown="handleZoom(evt,'out')"/>
                <use id="reset" xlink:href="#resetDef" x="30" y="36" onmousedown="handleReset()"/>
                <g id="arrowUp" xlink:href="#dirArrow" transform="translate(30 24)" onmousedown="handlePan(0,-1)">
                  <use xlink:href="#rim" fill="#404040">
                        <set attributeName="fill" to="#808080" begin="arrowUp.mouseover" end="arrowUp.mouseout"/>
                  </use>
                  <path fill="none" stroke="white" stroke-width="1.5" d="M0,-3.0v7 M-2.5,-0.5L0,-3.0L2.5,-0.5"/>
                </g>
                <g id="arrowRight" xlink:href="#dirArrow" transform="rotate(90) translate(36 -43)" onmousedown="handlePan(1,0)">
                  <use xlink:href="#rim" fill="#404040">
                        <set attributeName="fill" to="#808080" begin="arrowRight.mouseover" end="arrowRight.mouseout"/>
                  </use>
                  <path fill="none" stroke="white" stroke-width="1.5" d="M0,-3.0v7 M-2.5,-0.5L0,-3.0L2.5,-0.5"/>
                </g>
                <g id="arrowDown" xlink:href="#dirArrow" transform="rotate(180) translate(-30 -48)" onmousedown="handlePan(0,1)">
                  <use xlink:href="#rim" fill="#404040">
                        <set attributeName="fill" to="#808080" begin="arrowDown.mouseover" end="arrowDown.mouseout"/>
                  </use>
                  <path fill="none" stroke="white" stroke-width="1.5" d="M0,-3.0v7 M-2.5,-0.5L0,-3.0L2.5,-0.5"/>
                </g>
                <g id="arrowLeft" xlink:href="#dirArrow" transform="rotate(270) translate(-36 17)" onmousedown="handlePan(-1,0)">
                  <use xlink:href="#rim" fill="#404040">
                        <set attributeName="fill" to="#808080" begin="arrowLeft.mouseover" end="arrowLeft.mouseout"/>
                  </use>
                  <path fill="none" stroke="white" stroke-width="1.5" d="M0,-3.0v7 M-2.5,-0.5L0,-3.0L2.5,-0.5"/>
                </g>
        </g>
        <svg viewBox="0 0 15 15" width="100%" height="30px" preserveAspectRatio="xMaxYMin meet">
         <g id="arrow_out" transform="scale(0.3 0.3)">
          <a xlink:href="classrare_1_1commands_1_1launcher_1_1_rare_launcher_ad47de7ec8f6313187cfd8f81dd9584fc_cgraph_org.svg" target="_base">
           <rect id="button" ry="5" rx="5" y="6" x="6" height="38" width="38"
                fill="#f2f5e9" fill-opacity="0.5" stroke="#606060" stroke-width="1.0"/>
           <path id="arrow"
             d="M 11.500037,31.436501 C 11.940474,20.09759 22.043105,11.32322 32.158766,21.979434 L 37.068811,17.246167 C 37.068811,17.246167 37.088388,32 37.088388,32 L 22.160133,31.978069 C 22.160133,31.978069 26.997745,27.140456 26.997745,27.140456 C 18.528582,18.264221 13.291696,25.230495 11.500037,31.436501 z"
             style="fill:#404040;"/>
          </a>
         </g>
        </svg>
</svg>
