<?xml version="1.0" encoding="UTF-8" standalone="no"?>
<!DOCTYPE svg PUBLIC "-//W3C//DTD SVG 1.1//EN"
 "http://www.w3.org/Graphics/SVG/1.1/DTD/svg11.dtd">
<!-- Generated by graphviz version 2.49.3 (20211027.1534)
 -->
<!-- Title: auth_code Pages: 1 -->
<!--zoomable 130 -->
<svg id="main" version="1.1" xmlns="http://www.w3.org/2000/svg" xmlns:xlink="http://www.w3.org/1999/xlink" xml:space="preserve" onload="init(evt)">
<style type="text/css"><![CDATA[
.edge:hover path { stroke: red; }
.edge:hover polygon { stroke: red; fill: red; }
]]></style>
<script type="text/javascript"><![CDATA[
var edges = document.getElementsByTagName('g');
if (edges && edges.length) {
  for (var i=0;i<edges.length;i++) {
    if (edges[i].id.substr(0,4)=='edge') {
      edges[i].setAttribute('class','edge');
    }
  }
}
]]></script>
        <defs>
                <circle id="rim" cx="0" cy="0" r="7"/>
                <circle id="rim2" cx="0" cy="0" r="3.5"/>
                <g id="zoomPlus">
                        <use xlink:href="#rim" fill="#404040">
                                <set attributeName="fill" to="#808080" begin="zoomplus.mouseover" end="zoomplus.mouseout"/>
                        </use>
                        <path d="M-4,0h8M0,-4v8" fill="none" stroke="white" stroke-width="1.5" pointer-events="none"/>
                </g>
                <g id="zoomMin">
                        <use xlink:href="#rim" fill="#404040">
                                <set attributeName="fill" to="#808080" begin="zoomminus.mouseover" end="zoomminus.mouseout"/>
                        </use>
                        <path d="M-4,0h8" fill="none" stroke="white" stroke-width="1.5" pointer-events="none"/>
                </g>
                <g id="dirArrow">
                        <path fill="none" stroke="white" stroke-width="1.5" d="M0,-3.0v7 M-2.5,-0.5L0,-3.0L2.5,-0.5"/>
                </g>
               <g id="resetDef">
                       <use xlink:href="#rim2" fill="#404040">
                               <set attributeName="fill" to="#808080" begin="reset.mouseover" end="reset.mouseout"/>
                       </use>
               </g>
        </defs>

<script type="text/javascript">
var viewWidth = 652;
var viewHeight = 130;
var sectionId = 'dynsection-4';
</script>
<script xlink:href="svgpan.js"/>
<svg id="graph" class="graph">
<g id="viewport">
<title>auth_code</title>
<polygon fill="white" stroke="transparent" points="-4,4 -4,-125.5 648,-125.5 648,4 -4,4"/>
<!-- Node1 -->
<g id="node1" class="node">
<title>Node1</title>
<g id="a_node1"><a xlink:title=" ">
<polygon fill="#bfbfbf" stroke="black" points="0,-44.5 0,-63.5 62,-63.5 62,-44.5 0,-44.5"/>
<text text-anchor="middle" x="31" y="-51.5" font-family="Helvetica,sans-Serif" font-size="10.00">auth_code</text>
</a>
</g>
</g>
<!-- Node1&#45;&gt;Node1 -->
<g id="edge1" class="edge">
<title>Node1&#45;&gt;Node1</title>
<path fill="none" stroke="midnightblue" d="M8.5,-63.76C-2.45,-72.57 5.05,-82 31,-82 48.03,-82 57.11,-77.94 58.25,-72.65"/>
<polygon fill="midnightblue" stroke="midnightblue" points="61.3,-70.93 53.5,-63.76 55.12,-74.23 61.3,-70.93"/>
</g>
<!-- Node2 -->
<g id="node2" class="node">
<title>Node2</title>
<g id="a_node2"><a xlink:href="classrare_1_1commands_1_1launcher_1_1console__dialog_1_1_console_dialog.html#a9df25d182cd11f7cac9d5a7083f8be61" target="_top" xlink:title=" ">
<polygon fill="white" stroke="black" points="98,-73 98,-103 256,-103 256,-73 98,-73"/>
<text text-anchor="start" x="106" y="-91" font-family="Helvetica,sans-Serif" font-size="10.00">rare.commands.launcher.console</text>
<text text-anchor="middle" x="177" y="-80" font-family="Helvetica,sans-Serif" font-size="10.00">_dialog.ConsoleDialog.log</text>
</a>
</g>
</g>
<!-- Node1&#45;&gt;Node2 -->
<g id="edge2" class="edge">
<title>Node1&#45;&gt;Node2</title>
<path fill="none" stroke="midnightblue" d="M62.19,-61.13C74.05,-63.93 88.22,-67.28 102.48,-70.64"/>
<polygon fill="midnightblue" stroke="midnightblue" points="101.8,-74.08 112.34,-72.97 103.41,-67.26 101.8,-74.08"/>
</g>
<!-- Node3 -->
<g id="node3" class="node">
<title>Node3</title>
<g id="a_node3"><a xlink:href="classrare_1_1commands_1_1launcher_1_1console__dialog_1_1_console_edit.html#ac05aadedf6e1be5c365c818989f98d50" target="_top" xlink:title=" ">
<polygon fill="white" stroke="black" points="98,-6 98,-36 256,-36 256,-6 98,-6"/>
<text text-anchor="start" x="106" y="-24" font-family="Helvetica,sans-Serif" font-size="10.00">rare.commands.launcher.console</text>
<text text-anchor="middle" x="177" y="-13" font-family="Helvetica,sans-Serif" font-size="10.00">_dialog.ConsoleEdit.log</text>
</a>
</g>
</g>
<!-- Node1&#45;&gt;Node3 -->
<g id="edge4" class="edge">
<title>Node1&#45;&gt;Node3</title>
<path fill="none" stroke="midnightblue" d="M62.19,-47.08C73.47,-44.5 86.85,-41.43 100.4,-38.33"/>
<polygon fill="midnightblue" stroke="midnightblue" points="101.3,-41.71 110.26,-36.06 99.73,-34.89 101.3,-41.71"/>
</g>
<!-- Node2&#45;&gt;Node2 -->
<g id="edge3" class="edge">
<title>Node2&#45;&gt;Node2</title>
<path fill="none" stroke="midnightblue" d="M151.56,-103.16C145.42,-112.56 153.9,-121.5 177,-121.5 191.08,-121.5 199.72,-118.18 202.94,-113.46"/>
<polygon fill="midnightblue" stroke="midnightblue" points="206.42,-112.98 202.44,-103.16 199.43,-113.32 206.42,-112.98"/>
</g>
<!-- Node3&#45;&gt;Node3 -->
<g id="edge5" class="edge">
<title>Node3&#45;&gt;Node3</title>
<path fill="none" stroke="midnightblue" d="M151.56,-36.16C145.42,-45.56 153.9,-54.5 177,-54.5 191.08,-54.5 199.72,-51.18 202.94,-46.46"/>
<polygon fill="midnightblue" stroke="midnightblue" points="206.42,-45.98 202.44,-36.16 199.43,-46.32 206.42,-45.98"/>
</g>
<!-- Node4 -->
<g id="node4" class="node">
<title>Node4</title>
<g id="a_node4"><a xlink:href="classrare_1_1commands_1_1launcher_1_1console__dialog_1_1_console_edit.html#a5b65c15a31a59d304c2987f7d3f8ab7b" target="_top" xlink:title=" ">
<polygon fill="white" stroke="black" points="292,-0.5 292,-41.5 450,-41.5 450,-0.5 292,-0.5"/>
<text text-anchor="start" x="300" y="-29.5" font-family="Helvetica,sans-Serif" font-size="10.00">rare.commands.launcher.console</text>
<text text-anchor="start" x="300" y="-18.5" font-family="Helvetica,sans-Serif" font-size="10.00">_dialog.ConsoleEdit.print</text>
<text text-anchor="middle" x="371" y="-7.5" font-family="Helvetica,sans-Serif" font-size="10.00">_to_console</text>
</a>
</g>
</g>
<!-- Node3&#45;&gt;Node4 -->
<g id="edge6" class="edge">
<title>Node3&#45;&gt;Node4</title>
<path fill="none" stroke="midnightblue" d="M256.09,-21C264.6,-21 273.3,-21 281.92,-21"/>
<polygon fill="midnightblue" stroke="midnightblue" points="281.98,-24.5 291.98,-21 281.98,-17.5 281.98,-24.5"/>
</g>
<!-- Node4&#45;&gt;Node4 -->
<g id="edge7" class="edge">
<title>Node4&#45;&gt;Node4</title>
<path fill="none" stroke="midnightblue" d="M335.71,-41.86C331.86,-51.54 343.62,-60 371,-60 388.11,-60 399.12,-56.7 404.03,-51.86"/>
<polygon fill="midnightblue" stroke="midnightblue" points="407.5,-52.39 406.29,-41.86 400.67,-50.85 407.5,-52.39"/>
</g>
<!-- Node5 -->
<g id="node5" class="node">
<title>Node5</title>
<g id="a_node5"><a xlink:href="classrare_1_1commands_1_1launcher_1_1console__dialog_1_1_console_edit.html#ad89ca21019805240d01e41fe61cdbb56" target="_top" xlink:title=" ">
<polygon fill="white" stroke="black" points="486,-0.5 486,-41.5 644,-41.5 644,-0.5 486,-0.5"/>
<text text-anchor="start" x="494" y="-29.5" font-family="Helvetica,sans-Serif" font-size="10.00">rare.commands.launcher.console</text>
<text text-anchor="start" x="494" y="-18.5" font-family="Helvetica,sans-Serif" font-size="10.00">_dialog.ConsoleEdit.scroll</text>
<text text-anchor="middle" x="565" y="-7.5" font-family="Helvetica,sans-Serif" font-size="10.00">_to_last_line</text>
</a>
</g>
</g>
<!-- Node4&#45;&gt;Node5 -->
<g id="edge8" class="edge">
<title>Node4&#45;&gt;Node5</title>
<path fill="none" stroke="midnightblue" d="M450.09,-21C458.6,-21 467.3,-21 475.92,-21"/>
<polygon fill="midnightblue" stroke="midnightblue" points="475.98,-24.5 485.98,-21 475.98,-17.5 475.98,-24.5"/>
</g>
<!-- Node5&#45;&gt;Node5 -->
<g id="edge9" class="edge">
<title>Node5&#45;&gt;Node5</title>
<path fill="none" stroke="midnightblue" d="M529.71,-41.86C525.86,-51.54 537.62,-60 565,-60 582.11,-60 593.12,-56.7 598.03,-51.86"/>
<polygon fill="midnightblue" stroke="midnightblue" points="601.5,-52.39 600.29,-41.86 594.67,-50.85 601.5,-52.39"/>
</g>
</g>
</svg>
        <g id="navigator" transform="translate(0 0)" fill="#404254">
                <rect fill="#f2f5e9" fill-opacity="0.5" stroke="#606060" stroke-width=".5" x="0" y="0" width="60" height="60"/>
                <use id="zoomplus" xlink:href="#zoomPlus" x="17" y="9" onmousedown="handleZoom(evt,'in')"/>
                <use id="zoomminus" xlink:href="#zoomMin" x="42" y="9" onmousedown="handleZoom(evt,'out')"/>
                <use id="reset" xlink:href="#resetDef" x="30" y="36" onmousedown="handleReset()"/>
                <g id="arrowUp" xlink:href="#dirArrow" transform="translate(30 24)" onmousedown="handlePan(0,-1)">
                  <use xlink:href="#rim" fill="#404040">
                        <set attributeName="fill" to="#808080" begin="arrowUp.mouseover" end="arrowUp.mouseout"/>
                  </use>
                  <path fill="none" stroke="white" stroke-width="1.5" d="M0,-3.0v7 M-2.5,-0.5L0,-3.0L2.5,-0.5"/>
                </g>
                <g id="arrowRight" xlink:href="#dirArrow" transform="rotate(90) translate(36 -43)" onmousedown="handlePan(1,0)">
                  <use xlink:href="#rim" fill="#404040">
                        <set attributeName="fill" to="#808080" begin="arrowRight.mouseover" end="arrowRight.mouseout"/>
                  </use>
                  <path fill="none" stroke="white" stroke-width="1.5" d="M0,-3.0v7 M-2.5,-0.5L0,-3.0L2.5,-0.5"/>
                </g>
                <g id="arrowDown" xlink:href="#dirArrow" transform="rotate(180) translate(-30 -48)" onmousedown="handlePan(0,1)">
                  <use xlink:href="#rim" fill="#404040">
                        <set attributeName="fill" to="#808080" begin="arrowDown.mouseover" end="arrowDown.mouseout"/>
                  </use>
                  <path fill="none" stroke="white" stroke-width="1.5" d="M0,-3.0v7 M-2.5,-0.5L0,-3.0L2.5,-0.5"/>
                </g>
                <g id="arrowLeft" xlink:href="#dirArrow" transform="rotate(270) translate(-36 17)" onmousedown="handlePan(-1,0)">
                  <use xlink:href="#rim" fill="#404040">
                        <set attributeName="fill" to="#808080" begin="arrowLeft.mouseover" end="arrowLeft.mouseout"/>
                  </use>
                  <path fill="none" stroke="white" stroke-width="1.5" d="M0,-3.0v7 M-2.5,-0.5L0,-3.0L2.5,-0.5"/>
                </g>
        </g>
        <svg viewBox="0 0 15 15" width="100%" height="30px" preserveAspectRatio="xMaxYMin meet">
         <g id="arrow_out" transform="scale(0.3 0.3)">
          <a xlink:href="classrare_1_1lgndr_1_1core_1_1_legendary_core_a0096a9c8ad0f4403211cc904de663d6f_cgraph_org.svg" target="_base">
           <rect id="button" ry="5" rx="5" y="6" x="6" height="38" width="38"
                fill="#f2f5e9" fill-opacity="0.5" stroke="#606060" stroke-width="1.0"/>
           <path id="arrow"
             d="M 11.500037,31.436501 C 11.940474,20.09759 22.043105,11.32322 32.158766,21.979434 L 37.068811,17.246167 C 37.068811,17.246167 37.088388,32 37.088388,32 L 22.160133,31.978069 C 22.160133,31.978069 26.997745,27.140456 26.997745,27.140456 C 18.528582,18.264221 13.291696,25.230495 11.500037,31.436501 z"
             style="fill:#404040;"/>
          </a>
         </g>
        </svg>
</svg>
