<?xml version="1.0" encoding="UTF-8" standalone="no"?>
<!DOCTYPE svg PUBLIC "-//W3C//DTD SVG 1.1//EN"
 "http://www.w3.org/Graphics/SVG/1.1/DTD/svg11.dtd">
<!-- Generated by graphviz version 2.49.3 (20211027.1534)
 -->
<!-- Title: parent Pages: 1 -->
<svg width="1081pt" height="390pt"
 viewBox="0.00 0.00 1081.20 390.03" xmlns="http://www.w3.org/2000/svg" xmlns:xlink="http://www.w3.org/1999/xlink">
<g id="graph0" class="graph" transform="scale(1 1) rotate(0) translate(4 386.03)">
<title>parent</title>
<polygon fill="white" stroke="transparent" points="-4,4 -4,-386.03 1077.2,-386.03 1077.2,4 -4,4"/>
<!-- Node1 -->
<g id="node1" class="node">
<title>Node1</title>
<g id="a_node1"><a xlink:title=" ">
<polygon fill="#bfbfbf" stroke="black" points="1019,-162.03 1019,-181.03 1063,-181.03 1063,-162.03 1019,-162.03"/>
<text text-anchor="middle" x="1041" y="-169.03" font-family="Helvetica,sans-Serif" font-size="10.00">parent</text>
</a>
</g>
</g>
<!-- Node1&#45;&gt;Node1 -->
<g id="edge9" class="edge">
<title>Node1&#45;&gt;Node1</title>
<path fill="none" stroke="midnightblue" d="M1071.41,-185.15C1076.95,-192.65 1066.81,-199.53 1041,-199.53 1007.96,-199.53 1000.61,-188.25 1018.93,-178.84"/>
<polygon fill="midnightblue" stroke="midnightblue" points="1073.16,-182.08 1063.07,-178.84 1068.93,-187.67 1073.16,-182.08"/>
</g>
<!-- Node2 -->
<g id="node2" class="node">
<title>Node2</title>
<g id="a_node2"><a xlink:href="classrare_1_1components_1_1tabs_1_1games_1_1import__sync_1_1egl__sync__group_1_1_e_g_l_sync_list_group.html#a10c562aecba2dac76244db2a3ffd290d" target="_top" xlink:title=" ">
<polygon fill="white" stroke="black" points="756,-333.53 756,-363.53 983,-363.53 983,-333.53 756,-333.53"/>
<text text-anchor="start" x="764" y="-351.53" font-family="Helvetica,sans-Serif" font-size="10.00">rare.components.tabs.games.import</text>
<text text-anchor="middle" x="869.5" y="-340.53" font-family="Helvetica,sans-Serif" font-size="10.00">_sync.egl_sync_group.EGLSyncListGroup.action</text>
</a>
</g>
</g>
<!-- Node1&#45;&gt;Node2 -->
<g id="edge1" class="edge">
<title>Node1&#45;&gt;Node2</title>
<path fill="none" stroke="midnightblue" d="M1038.55,-191.36C1035.04,-224.25 1023.11,-289.9 983,-324.53 979.07,-327.92 974.78,-330.88 970.24,-333.44"/>
<polygon fill="midnightblue" stroke="midnightblue" points="1042.06,-191.47 1039.48,-181.19 1035.08,-190.84 1042.06,-191.47"/>
</g>
<!-- Node3 -->
<g id="node3" class="node">
<title>Node3</title>
<g id="a_node3"><a xlink:href="classrare_1_1components_1_1tabs_1_1games_1_1game__info_1_1_game_info_tabs.html#a38473d0107ff68c119a1eba5e50a10a6" target="_top" xlink:title=" ">
<polygon fill="white" stroke="black" points="783.5,-266.53 783.5,-296.53 955.5,-296.53 955.5,-266.53 783.5,-266.53"/>
<text text-anchor="start" x="791.5" y="-284.53" font-family="Helvetica,sans-Serif" font-size="10.00">rare.components.tabs.games.game</text>
<text text-anchor="middle" x="869.5" y="-273.53" font-family="Helvetica,sans-Serif" font-size="10.00">_info.GameInfoTabs.keyPressEvent</text>
</a>
</g>
</g>
<!-- Node1&#45;&gt;Node3 -->
<g id="edge3" class="edge">
<title>Node1&#45;&gt;Node3</title>
<path fill="none" stroke="midnightblue" d="M1032.32,-190.66C1023.43,-210.29 1006.88,-240.22 983,-256.53 974.74,-262.17 965.41,-266.57 955.76,-269.98"/>
<polygon fill="midnightblue" stroke="midnightblue" points="1035.65,-191.77 1036.38,-181.2 1029.22,-189.02 1035.65,-191.77"/>
</g>
<!-- Node4 -->
<g id="node4" class="node">
<title>Node4</title>
<g id="a_node4"><a xlink:href="classrare_1_1components_1_1tabs_1_1games_1_1game__info_1_1uninstalled__info_1_1_uninstalled_info_tabs.html#a38473d0107ff68c119a1eba5e50a10a6" target="_top" xlink:title=" ">
<polygon fill="white" stroke="black" points="786,-188.03 786,-229.03 953,-229.03 953,-188.03 786,-188.03"/>
<text text-anchor="start" x="794" y="-217.03" font-family="Helvetica,sans-Serif" font-size="10.00">rare.components.tabs.games.game</text>
<text text-anchor="start" x="794" y="-206.03" font-family="Helvetica,sans-Serif" font-size="10.00">_info.uninstalled_info.Uninstalled</text>
<text text-anchor="middle" x="869.5" y="-195.03" font-family="Helvetica,sans-Serif" font-size="10.00">InfoTabs.keyPressEvent</text>
</a>
</g>
</g>
<!-- Node1&#45;&gt;Node4 -->
<g id="edge5" class="edge">
<title>Node1&#45;&gt;Node4</title>
<path fill="none" stroke="midnightblue" d="M1008.67,-178.37C992.88,-181.82 972.92,-186.17 953.12,-190.5"/>
<polygon fill="midnightblue" stroke="midnightblue" points="1009.85,-181.69 1018.88,-176.14 1008.36,-174.86 1009.85,-181.69"/>
</g>
<!-- Node5 -->
<g id="node5" class="node">
<title>Node5</title>
<g id="a_node5"><a xlink:href="classrare_1_1components_1_1tabs_1_1account_1_1_mini_widget.html#a674007c506f7fe69c039f7f08438879e" target="_top" xlink:title=" ">
<polygon fill="white" stroke="black" points="795,-120.53 795,-150.53 944,-150.53 944,-120.53 795,-120.53"/>
<text text-anchor="start" x="803" y="-138.53" font-family="Helvetica,sans-Serif" font-size="10.00">rare.components.tabs.account.</text>
<text text-anchor="middle" x="869.5" y="-127.53" font-family="Helvetica,sans-Serif" font-size="10.00">MiniWidget.logout</text>
</a>
</g>
</g>
<!-- Node1&#45;&gt;Node5 -->
<g id="edge7" class="edge">
<title>Node1&#45;&gt;Node5</title>
<path fill="none" stroke="midnightblue" d="M1008.99,-164.95C989.98,-160.91 964.83,-155.57 941.18,-150.54"/>
<polygon fill="midnightblue" stroke="midnightblue" points="1008.37,-168.39 1018.88,-167.04 1009.82,-161.54 1008.37,-168.39"/>
</g>
<!-- Node6 -->
<g id="node6" class="node">
<title>Node6</title>
<g id="a_node6"><a xlink:href="classrare_1_1utils_1_1extra__widgets_1_1_flow_layout.html#a2e8d545883a85a6757198adec7da2731" target="_top" xlink:title=" ">
<polygon fill="white" stroke="black" points="805,-53.53 805,-83.53 934,-83.53 934,-53.53 805,-53.53"/>
<text text-anchor="start" x="813" y="-71.53" font-family="Helvetica,sans-Serif" font-size="10.00">rare.utils.extra_widgets.</text>
<text text-anchor="middle" x="869.5" y="-60.53" font-family="Helvetica,sans-Serif" font-size="10.00">FlowLayout.smartSpacing</text>
</a>
</g>
</g>
<!-- Node1&#45;&gt;Node6 -->
<g id="edge10" class="edge">
<title>Node1&#45;&gt;Node6</title>
<path fill="none" stroke="midnightblue" d="M1026.78,-153.82C1016.18,-140.65 1000.26,-123.04 983,-111.53 965.17,-99.64 943.58,-90.38 924.1,-83.55"/>
<polygon fill="midnightblue" stroke="midnightblue" points="1024.04,-155.99 1032.94,-161.72 1029.56,-151.69 1024.04,-155.99"/>
</g>
<!-- Node12 -->
<g id="node12" class="node">
<title>Node12</title>
<g id="a_node12"><a xlink:href="classrare_1_1widgets_1_1library__layout_1_1_library_layout.html#ac9632f6438f5820ccb6a0b04991a4e7d" target="_top" xlink:title=" ">
<polygon fill="white" stroke="black" points="11.5,-53.53 11.5,-83.53 138.5,-83.53 138.5,-53.53 11.5,-53.53"/>
<text text-anchor="start" x="19.5" y="-71.53" font-family="Helvetica,sans-Serif" font-size="10.00">rare.widgets.library</text>
<text text-anchor="middle" x="75" y="-60.53" font-family="Helvetica,sans-Serif" font-size="10.00">_layout.LibraryLayout.sort</text>
</a>
</g>
</g>
<!-- Node1&#45;&gt;Node12 -->
<g id="edge37" class="edge">
<title>Node1&#45;&gt;Node12</title>
<path fill="none" stroke="midnightblue" d="M1037.52,-151.44C1032.72,-122.16 1019.23,-68.54 983,-43.53 860.28,41.2 797.13,-24.53 648,-24.53 648,-24.53 648,-24.53 462,-24.53 339.04,-24.53 307.65,-25.63 186,-43.53 169.14,-46.01 151.04,-49.69 134.48,-53.47"/>
<polygon fill="midnightblue" stroke="midnightblue" points="1034.1,-152.29 1039,-161.69 1041.03,-151.29 1034.1,-152.29"/>
</g>
<!-- Node2&#45;&gt;Node2 -->
<g id="edge2" class="edge">
<title>Node2&#45;&gt;Node2</title>
<path fill="none" stroke="midnightblue" d="M899.71,-373.99C895.96,-378.71 885.89,-382.03 869.5,-382.03 842.61,-382.03 832.73,-373.09 839.87,-363.69"/>
<polygon fill="midnightblue" stroke="midnightblue" points="903.18,-373.48 899.13,-363.69 896.19,-373.87 903.18,-373.48"/>
</g>
<!-- Node3&#45;&gt;Node3 -->
<g id="edge4" class="edge">
<title>Node3&#45;&gt;Node3</title>
<path fill="none" stroke="midnightblue" d="M899.71,-306.99C895.96,-311.71 885.89,-315.03 869.5,-315.03 842.61,-315.03 832.73,-306.09 839.87,-296.69"/>
<polygon fill="midnightblue" stroke="midnightblue" points="903.18,-306.48 899.13,-296.69 896.19,-306.87 903.18,-306.48"/>
</g>
<!-- Node4&#45;&gt;Node4 -->
<g id="edge6" class="edge">
<title>Node4&#45;&gt;Node4</title>
<path fill="none" stroke="midnightblue" d="M898.75,-239.39C894.4,-244.23 884.65,-247.53 869.5,-247.53 845.26,-247.53 834.85,-239.07 838.26,-229.4"/>
<polygon fill="midnightblue" stroke="midnightblue" points="902.22,-239.89 900.74,-229.4 895.35,-238.52 902.22,-239.89"/>
</g>
<!-- Node5&#45;&gt;Node5 -->
<g id="edge8" class="edge">
<title>Node5&#45;&gt;Node5</title>
<path fill="none" stroke="midnightblue" d="M899.71,-160.99C895.96,-165.71 885.89,-169.03 869.5,-169.03 842.61,-169.03 832.73,-160.09 839.87,-150.69"/>
<polygon fill="midnightblue" stroke="midnightblue" points="903.18,-160.48 899.13,-150.69 896.19,-160.87 903.18,-160.48"/>
</g>
<!-- Node6&#45;&gt;Node6 -->
<g id="edge32" class="edge">
<title>Node6&#45;&gt;Node6</title>
<path fill="none" stroke="midnightblue" d="M899.71,-93.99C895.96,-98.71 885.89,-102.03 869.5,-102.03 842.61,-102.03 832.73,-93.09 839.87,-83.69"/>
<polygon fill="midnightblue" stroke="midnightblue" points="903.18,-93.48 899.13,-83.69 896.19,-93.87 903.18,-93.48"/>
</g>
<!-- Node7 -->
<g id="node7" class="node">
<title>Node7</title>
<g id="a_node7"><a xlink:href="classrare_1_1utils_1_1extra__widgets_1_1_flow_layout.html#a198240b6ed8eb4be3d26adb4ca03aa8d" target="_top" xlink:title=" ">
<polygon fill="white" stroke="black" points="574,-120.53 574,-150.53 720,-150.53 720,-120.53 574,-120.53"/>
<text text-anchor="start" x="582" y="-138.53" font-family="Helvetica,sans-Serif" font-size="10.00">rare.utils.extra_widgets.</text>
<text text-anchor="middle" x="647" y="-127.53" font-family="Helvetica,sans-Serif" font-size="10.00">FlowLayout.horizontalSpacing</text>
</a>
</g>
</g>
<!-- Node6&#45;&gt;Node7 -->
<g id="edge11" class="edge">
<title>Node6&#45;&gt;Node7</title>
<path fill="none" stroke="midnightblue" d="M809.42,-86.48C774.52,-97.09 730.82,-110.36 697.7,-120.43"/>
<polygon fill="midnightblue" stroke="midnightblue" points="810.47,-89.82 819.02,-83.57 808.43,-83.13 810.47,-89.82"/>
</g>
<!-- Node15 -->
<g id="node15" class="node">
<title>Node15</title>
<g id="a_node15"><a xlink:href="classrare_1_1utils_1_1extra__widgets_1_1_flow_layout.html#a339c0461a90b6d3b3eee250fbc47aefb" target="_top" xlink:title=" ">
<polygon fill="white" stroke="black" points="579,-53.53 579,-83.53 715,-83.53 715,-53.53 579,-53.53"/>
<text text-anchor="start" x="587" y="-71.53" font-family="Helvetica,sans-Serif" font-size="10.00">rare.utils.extra_widgets.</text>
<text text-anchor="middle" x="647" y="-60.53" font-family="Helvetica,sans-Serif" font-size="10.00">FlowLayout.verticalSpacing</text>
</a>
</g>
</g>
<!-- Node6&#45;&gt;Node15 -->
<g id="edge33" class="edge">
<title>Node6&#45;&gt;Node15</title>
<path fill="none" stroke="midnightblue" d="M794.65,-68.53C768.93,-68.53 740.23,-68.53 715.09,-68.53"/>
<polygon fill="midnightblue" stroke="midnightblue" points="794.72,-72.03 804.72,-68.53 794.72,-65.03 794.72,-72.03"/>
</g>
<!-- Node7&#45;&gt;Node7 -->
<g id="edge31" class="edge">
<title>Node7&#45;&gt;Node7</title>
<path fill="none" stroke="midnightblue" d="M679.69,-160.99C675.64,-165.71 664.74,-169.03 647,-169.03 617.89,-169.03 607.2,-160.09 614.93,-150.69"/>
<polygon fill="midnightblue" stroke="midnightblue" points="683.17,-160.46 679.07,-150.69 676.18,-160.88 683.17,-160.46"/>
</g>
<!-- Node8 -->
<g id="node8" class="node">
<title>Node8</title>
<g id="a_node8"><a xlink:href="classrare_1_1utils_1_1extra__widgets_1_1_flow_layout.html#aea5fef774da86c1a120b393f7d8cdd6a" target="_top" xlink:title=" ">
<polygon fill="white" stroke="black" points="404,-120.53 404,-150.53 522,-150.53 522,-120.53 404,-120.53"/>
<text text-anchor="start" x="412" y="-138.53" font-family="Helvetica,sans-Serif" font-size="10.00">rare.utils.extra_widgets.</text>
<text text-anchor="middle" x="463" y="-127.53" font-family="Helvetica,sans-Serif" font-size="10.00">FlowLayout.doLayout</text>
</a>
</g>
</g>
<!-- Node7&#45;&gt;Node8 -->
<g id="edge12" class="edge">
<title>Node7&#45;&gt;Node8</title>
<path fill="none" stroke="midnightblue" d="M563.66,-135.53C549.63,-135.53 535.32,-135.53 522.09,-135.53"/>
<polygon fill="midnightblue" stroke="midnightblue" points="563.81,-139.03 573.81,-135.53 563.81,-132.03 563.81,-139.03"/>
</g>
<!-- Node14 -->
<g id="node14" class="node">
<title>Node14</title>
<g id="a_node14"><a xlink:href="classrare_1_1widgets_1_1library__layout_1_1_library_layout.html#aea5fef774da86c1a120b393f7d8cdd6a" target="_top" xlink:title="Arranges the widgets for this layout.">
<polygon fill="white" stroke="black" points="388,-53.53 388,-83.53 538,-83.53 538,-53.53 388,-53.53"/>
<text text-anchor="start" x="396" y="-71.53" font-family="Helvetica,sans-Serif" font-size="10.00">rare.widgets.library</text>
<text text-anchor="middle" x="463" y="-60.53" font-family="Helvetica,sans-Serif" font-size="10.00">_layout.LibraryLayout.doLayout</text>
</a>
</g>
</g>
<!-- Node7&#45;&gt;Node14 -->
<g id="edge26" class="edge">
<title>Node7&#45;&gt;Node14</title>
<path fill="none" stroke="midnightblue" d="M590.04,-117.19C584.61,-115.31 579.19,-113.41 574,-111.53 549.51,-102.67 522.25,-92.02 500.99,-83.53"/>
<polygon fill="midnightblue" stroke="midnightblue" points="589.19,-120.6 599.79,-120.51 591.45,-113.97 589.19,-120.6"/>
</g>
<!-- Node8&#45;&gt;Node8 -->
<g id="edge13" class="edge">
<title>Node8&#45;&gt;Node8</title>
<path fill="none" stroke="midnightblue" d="M495.69,-160.99C491.64,-165.71 480.74,-169.03 463,-169.03 433.89,-169.03 423.2,-160.09 430.93,-150.69"/>
<polygon fill="midnightblue" stroke="midnightblue" points="499.17,-160.46 495.07,-150.69 492.18,-160.88 499.17,-160.46"/>
</g>
<!-- Node9 -->
<g id="node9" class="node">
<title>Node9</title>
<g id="a_node9"><a xlink:href="classrare_1_1utils_1_1extra__widgets_1_1_flow_layout.html#a79a95bc3b25357794eb45d452b5fa4c6" target="_top" xlink:title=" ">
<polygon fill="white" stroke="black" points="202,-187.53 202,-217.53 336,-217.53 336,-187.53 202,-187.53"/>
<text text-anchor="start" x="210" y="-205.53" font-family="Helvetica,sans-Serif" font-size="10.00">rare.utils.extra_widgets.</text>
<text text-anchor="middle" x="269" y="-194.53" font-family="Helvetica,sans-Serif" font-size="10.00">FlowLayout.heightForWidth</text>
</a>
</g>
</g>
<!-- Node8&#45;&gt;Node9 -->
<g id="edge14" class="edge">
<title>Node8&#45;&gt;Node9</title>
<path fill="none" stroke="midnightblue" d="M416.31,-154.43C396.66,-162.29 373.35,-171.25 352,-178.53 343.01,-181.6 333.4,-184.63 324.03,-187.45"/>
<polygon fill="midnightblue" stroke="midnightblue" points="417.66,-157.66 425.63,-150.68 415.05,-151.17 417.66,-157.66"/>
</g>
<!-- Node10 -->
<g id="node10" class="node">
<title>Node10</title>
<g id="a_node10"><a xlink:href="classrare_1_1utils_1_1extra__widgets_1_1_flow_layout.html#af87928df2c164a948da59b9e41bcc8e3" target="_top" xlink:title=" ">
<polygon fill="white" stroke="black" points="206.5,-120.53 206.5,-150.53 331.5,-150.53 331.5,-120.53 206.5,-120.53"/>
<text text-anchor="start" x="214.5" y="-138.53" font-family="Helvetica,sans-Serif" font-size="10.00">rare.utils.extra_widgets.</text>
<text text-anchor="middle" x="269" y="-127.53" font-family="Helvetica,sans-Serif" font-size="10.00">FlowLayout.setGeometry</text>
</a>
</g>
</g>
<!-- Node8&#45;&gt;Node10 -->
<g id="edge16" class="edge">
<title>Node8&#45;&gt;Node10</title>
<path fill="none" stroke="midnightblue" d="M393.77,-135.53C373.5,-135.53 351.42,-135.53 331.6,-135.53"/>
<polygon fill="midnightblue" stroke="midnightblue" points="393.87,-139.03 403.87,-135.53 393.87,-132.03 393.87,-139.03"/>
</g>
<!-- Node13 -->
<g id="node13" class="node">
<title>Node13</title>
<g id="a_node13"><a xlink:href="classrare_1_1widgets_1_1library__layout_1_1_library_layout.html#af87928df2c164a948da59b9e41bcc8e3" target="_top" xlink:title=" ">
<polygon fill="white" stroke="black" points="186,-53.53 186,-83.53 352,-83.53 352,-53.53 186,-53.53"/>
<text text-anchor="start" x="194" y="-71.53" font-family="Helvetica,sans-Serif" font-size="10.00">rare.widgets.library</text>
<text text-anchor="middle" x="269" y="-60.53" font-family="Helvetica,sans-Serif" font-size="10.00">_layout.LibraryLayout.setGeometry</text>
</a>
</g>
</g>
<!-- Node8&#45;&gt;Node13 -->
<g id="edge22" class="edge">
<title>Node8&#45;&gt;Node13</title>
<path fill="none" stroke="midnightblue" d="M404.94,-117.25C399.2,-115.35 393.48,-113.42 388,-111.53 362.02,-102.59 333.03,-92.03 310.29,-83.62"/>
<polygon fill="midnightblue" stroke="midnightblue" points="403.95,-120.61 414.54,-120.42 406.14,-113.96 403.95,-120.61"/>
</g>
<!-- Node9&#45;&gt;Node9 -->
<g id="edge15" class="edge">
<title>Node9&#45;&gt;Node9</title>
<path fill="none" stroke="midnightblue" d="M303.47,-227.99C299.19,-232.71 287.7,-236.03 269,-236.03 238.31,-236.03 227.04,-227.09 235.19,-217.69"/>
<polygon fill="midnightblue" stroke="midnightblue" points="306.94,-227.44 302.81,-217.69 299.96,-227.89 306.94,-227.44"/>
</g>
<!-- Node10&#45;&gt;Node10 -->
<g id="edge19" class="edge">
<title>Node10&#45;&gt;Node10</title>
<path fill="none" stroke="midnightblue" d="M303.47,-160.99C299.19,-165.71 287.7,-169.03 269,-169.03 238.31,-169.03 227.04,-160.09 235.19,-150.69"/>
<polygon fill="midnightblue" stroke="midnightblue" points="306.94,-160.44 302.81,-150.69 299.96,-160.89 306.94,-160.44"/>
</g>
<!-- Node11 -->
<g id="node11" class="node">
<title>Node11</title>
<g id="a_node11"><a xlink:href="classrare_1_1components_1_1extra_1_1console_1_1_console.html#a39d165427992dd2720f91929a88cde17" target="_top" xlink:title=" ">
<polygon fill="white" stroke="black" points="0,-120.53 0,-150.53 150,-150.53 150,-120.53 0,-120.53"/>
<text text-anchor="start" x="8" y="-138.53" font-family="Helvetica,sans-Serif" font-size="10.00">rare.components.extra.console.</text>
<text text-anchor="middle" x="75" y="-127.53" font-family="Helvetica,sans-Serif" font-size="10.00">Console.__init__</text>
</a>
</g>
</g>
<!-- Node10&#45;&gt;Node11 -->
<g id="edge17" class="edge">
<title>Node10&#45;&gt;Node11</title>
<path fill="none" stroke="midnightblue" d="M196.23,-135.53C181.23,-135.53 165.38,-135.53 150.29,-135.53"/>
<polygon fill="midnightblue" stroke="midnightblue" points="196.46,-139.03 206.46,-135.53 196.46,-132.03 196.46,-139.03"/>
</g>
<!-- Node10&#45;&gt;Node12 -->
<g id="edge20" class="edge">
<title>Node10&#45;&gt;Node12</title>
<path fill="none" stroke="midnightblue" d="M204.26,-117.47C198.07,-115.54 191.9,-113.54 186,-111.53 161.16,-103.06 133.66,-92.31 112.37,-83.68"/>
<polygon fill="midnightblue" stroke="midnightblue" points="203.39,-120.87 213.97,-120.45 205.44,-114.17 203.39,-120.87"/>
</g>
<!-- Node11&#45;&gt;Node11 -->
<g id="edge18" class="edge">
<title>Node11&#45;&gt;Node11</title>
<path fill="none" stroke="midnightblue" d="M109.47,-160.99C105.19,-165.71 93.7,-169.03 75,-169.03 44.31,-169.03 33.04,-160.09 41.19,-150.69"/>
<polygon fill="midnightblue" stroke="midnightblue" points="112.94,-160.44 108.81,-150.69 105.96,-160.89 112.94,-160.44"/>
</g>
<!-- Node12&#45;&gt;Node12 -->
<g id="edge21" class="edge">
<title>Node12&#45;&gt;Node12</title>
<path fill="none" stroke="midnightblue" d="M109.47,-93.99C105.19,-98.71 93.7,-102.03 75,-102.03 44.31,-102.03 33.04,-93.09 41.19,-83.69"/>
<polygon fill="midnightblue" stroke="midnightblue" points="112.94,-93.44 108.81,-83.69 105.96,-93.89 112.94,-93.44"/>
</g>
<!-- Node13&#45;&gt;Node11 -->
<g id="edge23" class="edge">
<title>Node13&#45;&gt;Node11</title>
<path fill="none" stroke="midnightblue" d="M218.06,-87.18C197.1,-94.89 172.43,-103.81 150,-111.53 141.44,-114.48 132.3,-117.52 123.46,-120.42"/>
<polygon fill="midnightblue" stroke="midnightblue" points="219.54,-90.36 227.71,-83.62 217.12,-83.79 219.54,-90.36"/>
</g>
<!-- Node13&#45;&gt;Node12 -->
<g id="edge25" class="edge">
<title>Node13&#45;&gt;Node12</title>
<path fill="none" stroke="midnightblue" d="M175.7,-68.53C163.15,-68.53 150.51,-68.53 138.65,-68.53"/>
<polygon fill="midnightblue" stroke="midnightblue" points="175.74,-72.03 185.74,-68.53 175.74,-65.03 175.74,-72.03"/>
</g>
<!-- Node13&#45;&gt;Node13 -->
<g id="edge24" class="edge">
<title>Node13&#45;&gt;Node13</title>
<path fill="none" stroke="midnightblue" d="M303.47,-93.99C299.19,-98.71 287.7,-102.03 269,-102.03 238.31,-102.03 227.04,-93.09 235.19,-83.69"/>
<polygon fill="midnightblue" stroke="midnightblue" points="306.94,-93.44 302.81,-83.69 299.96,-93.89 306.94,-93.44"/>
</g>
<!-- Node14&#45;&gt;Node9 -->
<g id="edge28" class="edge">
<title>Node14&#45;&gt;Node9</title>
<path fill="none" stroke="midnightblue" d="M418.27,-88.62C407.52,-94.92 396.64,-102.6 388,-111.53 364.5,-135.83 378.26,-157.24 352,-178.53 347.28,-182.36 341.96,-185.58 336.37,-188.28"/>
<polygon fill="midnightblue" stroke="midnightblue" points="420.16,-91.57 427.21,-83.66 416.77,-85.45 420.16,-91.57"/>
</g>
<!-- Node14&#45;&gt;Node10 -->
<g id="edge29" class="edge">
<title>Node14&#45;&gt;Node10</title>
<path fill="none" stroke="midnightblue" d="M416.31,-87.43C396.66,-95.29 373.35,-104.25 352,-111.53 343.01,-114.6 333.4,-117.63 324.03,-120.45"/>
<polygon fill="midnightblue" stroke="midnightblue" points="417.66,-90.66 425.63,-83.68 415.05,-84.17 417.66,-90.66"/>
</g>
<!-- Node14&#45;&gt;Node13 -->
<g id="edge30" class="edge">
<title>Node14&#45;&gt;Node13</title>
<path fill="none" stroke="midnightblue" d="M377.51,-68.53C369.04,-68.53 360.45,-68.53 352.01,-68.53"/>
<polygon fill="midnightblue" stroke="midnightblue" points="377.77,-72.03 387.77,-68.53 377.77,-65.03 377.77,-72.03"/>
</g>
<!-- Node14&#45;&gt;Node14 -->
<g id="edge27" class="edge">
<title>Node14&#45;&gt;Node14</title>
<path fill="none" stroke="midnightblue" d="M495.69,-93.99C491.64,-98.71 480.74,-102.03 463,-102.03 433.89,-102.03 423.2,-93.09 430.93,-83.69"/>
<polygon fill="midnightblue" stroke="midnightblue" points="499.17,-93.46 495.07,-83.69 492.18,-93.88 499.17,-93.46"/>
</g>
<!-- Node15&#45;&gt;Node8 -->
<g id="edge34" class="edge">
<title>Node15&#45;&gt;Node8</title>
<path fill="none" stroke="midnightblue" d="M600.35,-87.47C581.2,-95.22 558.62,-104.09 538,-111.53 529.62,-114.56 520.64,-117.62 511.92,-120.49"/>
<polygon fill="midnightblue" stroke="midnightblue" points="601.79,-90.67 609.73,-83.66 599.15,-84.18 601.79,-90.67"/>
</g>
<!-- Node15&#45;&gt;Node14 -->
<g id="edge35" class="edge">
<title>Node15&#45;&gt;Node14</title>
<path fill="none" stroke="midnightblue" d="M568.68,-68.53C558.52,-68.53 548.12,-68.53 538.02,-68.53"/>
<polygon fill="midnightblue" stroke="midnightblue" points="568.75,-72.03 578.75,-68.53 568.75,-65.03 568.75,-72.03"/>
</g>
<!-- Node15&#45;&gt;Node15 -->
<g id="edge36" class="edge">
<title>Node15&#45;&gt;Node15</title>
<path fill="none" stroke="midnightblue" d="M679.69,-93.99C675.64,-98.71 664.74,-102.03 647,-102.03 617.89,-102.03 607.2,-93.09 614.93,-83.69"/>
<polygon fill="midnightblue" stroke="midnightblue" points="683.17,-93.46 679.07,-83.69 676.18,-93.88 683.17,-93.46"/>
</g>
</g>
</svg>
