<?xml version="1.0" encoding="UTF-8" standalone="no"?>
<!DOCTYPE svg PUBLIC "-//W3C//DTD SVG 1.1//EN"
 "http://www.w3.org/Graphics/SVG/1.1/DTD/svg11.dtd">
<!-- Generated by graphviz version 2.49.3 (20211027.1534)
 -->
<!-- Title: back_clicked Pages: 1 -->
<svg width="456pt" height="124pt"
 viewBox="0.00 0.00 456.00 124.00" xmlns="http://www.w3.org/2000/svg" xmlns:xlink="http://www.w3.org/1999/xlink">
<g id="graph0" class="graph" transform="scale(1 1) rotate(0) translate(4 120)">
<title>back_clicked</title>
<polygon fill="white" stroke="transparent" points="-4,4 -4,-120 452,-120 452,4 -4,4"/>
<!-- Node1 -->
<g id="node1" class="node">
<title>Node1</title>
<g id="a_node1"><a xlink:title=" ">
<polygon fill="#bfbfbf" stroke="black" points="374,-39 374,-58 448,-58 448,-39 374,-39"/>
<text text-anchor="middle" x="411" y="-46" font-family="Helvetica,sans-Serif" font-size="10.00">back_clicked</text>
</a>
</g>
</g>
<!-- Node1&#45;&gt;Node1 -->
<g id="edge1" class="edge">
<title>Node1&#45;&gt;Node1</title>
<path fill="none" stroke="midnightblue" d="M440.49,-67.15C439.26,-72.44 429.43,-76.5 411,-76.5 382.92,-76.5 374.8,-67.07 386.65,-58.26"/>
<polygon fill="midnightblue" stroke="midnightblue" points="443.39,-65.16 435.35,-58.26 437.32,-68.67 443.39,-65.16"/>
</g>
<!-- Node2 -->
<g id="node2" class="node">
<title>Node2</title>
<g id="a_node2"><a xlink:href="classrare_1_1widgets_1_1side__tab_1_1_side_tab_widget.html#ae425e34e82f4b85be50e4d334bb75372" target="_top" xlink:title=" ">
<polygon fill="white" stroke="black" points="187,-67.5 187,-97.5 317,-97.5 317,-67.5 187,-67.5"/>
<text text-anchor="start" x="195" y="-85.5" font-family="Helvetica,sans-Serif" font-size="10.00">rare.widgets.side_tab.Side</text>
<text text-anchor="middle" x="252" y="-74.5" font-family="Helvetica,sans-Serif" font-size="10.00">TabWidget.back_func</text>
</a>
</g>
</g>
<!-- Node1&#45;&gt;Node2 -->
<g id="edge2" class="edge">
<title>Node1&#45;&gt;Node2</title>
<path fill="none" stroke="midnightblue" d="M364.15,-58.43C349.47,-61.61 332.94,-65.19 317.2,-68.6"/>
<polygon fill="midnightblue" stroke="midnightblue" points="364.95,-61.84 373.98,-56.3 363.47,-55 364.95,-61.84"/>
</g>
<!-- Node4 -->
<g id="node4" class="node">
<title>Node4</title>
<g id="a_node4"><a xlink:href="classrare_1_1components_1_1tabs_1_1games_1_1game__info_1_1_game_info_tabs.html#afa962c4cc7ee70aff38a79a6bd2bd079" target="_top" xlink:title=" ">
<polygon fill="white" stroke="black" points="166,-0.5 166,-30.5 338,-30.5 338,-0.5 166,-0.5"/>
<text text-anchor="start" x="174" y="-18.5" font-family="Helvetica,sans-Serif" font-size="10.00">rare.components.tabs.games.game</text>
<text text-anchor="middle" x="252" y="-7.5" font-family="Helvetica,sans-Serif" font-size="10.00">_info.GameInfoTabs.keyPressEvent</text>
</a>
</g>
</g>
<!-- Node1&#45;&gt;Node4 -->
<g id="edge6" class="edge">
<title>Node1&#45;&gt;Node4</title>
<path fill="none" stroke="midnightblue" d="M363.92,-38.81C351.54,-36.21 337.85,-33.33 324.43,-30.51"/>
<polygon fill="midnightblue" stroke="midnightblue" points="363.47,-42.3 373.98,-40.93 364.91,-35.45 363.47,-42.3"/>
</g>
<!-- Node2&#45;&gt;Node2 -->
<g id="edge5" class="edge">
<title>Node2&#45;&gt;Node2</title>
<path fill="none" stroke="midnightblue" d="M280.07,-107.96C276.59,-112.68 267.23,-116 252,-116 227,-116 217.83,-107.06 224.47,-97.66"/>
<polygon fill="midnightblue" stroke="midnightblue" points="283.55,-107.46 279.53,-97.66 276.56,-107.83 283.55,-107.46"/>
</g>
<!-- Node3 -->
<g id="node3" class="node">
<title>Node3</title>
<g id="a_node3"><a xlink:href="classrare_1_1widgets_1_1side__tab_1_1_side_tab_widget.html#aecd21b5179959b42a65f7ccfd1c1a150" target="_top" xlink:title=" ">
<polygon fill="white" stroke="black" points="0,-67.5 0,-97.5 130,-97.5 130,-67.5 0,-67.5"/>
<text text-anchor="start" x="8" y="-85.5" font-family="Helvetica,sans-Serif" font-size="10.00">rare.widgets.side_tab.Side</text>
<text text-anchor="middle" x="65" y="-74.5" font-family="Helvetica,sans-Serif" font-size="10.00">TabWidget.__init__</text>
</a>
</g>
</g>
<!-- Node2&#45;&gt;Node3 -->
<g id="edge3" class="edge">
<title>Node2&#45;&gt;Node3</title>
<path fill="none" stroke="midnightblue" d="M176.77,-82.5C161.31,-82.5 145.13,-82.5 130.07,-82.5"/>
<polygon fill="midnightblue" stroke="midnightblue" points="176.82,-86 186.82,-82.5 176.82,-79 176.82,-86"/>
</g>
<!-- Node3&#45;&gt;Node3 -->
<g id="edge4" class="edge">
<title>Node3&#45;&gt;Node3</title>
<path fill="none" stroke="midnightblue" d="M98.05,-107.96C93.95,-112.68 82.93,-116 65,-116 35.57,-116 24.77,-107.06 32.59,-97.66"/>
<polygon fill="midnightblue" stroke="midnightblue" points="101.52,-107.42 97.41,-97.66 94.54,-107.86 101.52,-107.42"/>
</g>
<!-- Node4&#45;&gt;Node4 -->
<g id="edge7" class="edge">
<title>Node4&#45;&gt;Node4</title>
<path fill="none" stroke="midnightblue" d="M280.07,-40.96C276.59,-45.68 267.23,-49 252,-49 227,-49 217.83,-40.06 224.47,-30.66"/>
<polygon fill="midnightblue" stroke="midnightblue" points="283.55,-40.46 279.53,-30.66 276.56,-40.83 283.55,-40.46"/>
</g>
</g>
</svg>
