<?xml version="1.0" encoding="UTF-8" standalone="no"?>
<!DOCTYPE svg PUBLIC "-//W3C//DTD SVG 1.1//EN"
 "http://www.w3.org/Graphics/SVG/1.1/DTD/svg11.dtd">
<!-- Generated by graphviz version 2.49.3 (20211027.1534)
 -->
<!-- Title: slideInIndex Pages: 1 -->
<svg width="462pt" height="284pt"
 viewBox="0.00 0.00 462.00 284.00" xmlns="http://www.w3.org/2000/svg" xmlns:xlink="http://www.w3.org/1999/xlink">
<g id="graph0" class="graph" transform="scale(1 1) rotate(0) translate(4 280)">
<title>slideInIndex</title>
<polygon fill="white" stroke="transparent" points="-4,4 -4,-280 458,-280 458,4 -4,4"/>
<!-- Node1 -->
<g id="node1" class="node">
<title>Node1</title>
<g id="a_node1"><a xlink:title=" ">
<polygon fill="#bfbfbf" stroke="black" points="0,-132 0,-151 68,-151 68,-132 0,-132"/>
<text text-anchor="middle" x="34" y="-139" font-family="Helvetica,sans-Serif" font-size="10.00">slideInIndex</text>
</a>
</g>
</g>
<!-- Node1&#45;&gt;Node1 -->
<g id="edge7" class="edge">
<title>Node1&#45;&gt;Node1</title>
<path fill="none" stroke="midnightblue" d="M8.41,-151.26C-4.03,-160.07 4.5,-169.5 34,-169.5 53.82,-169.5 64.18,-165.24 65.06,-159.77"/>
<polygon fill="midnightblue" stroke="midnightblue" points="67.94,-157.77 59.59,-151.26 62.05,-161.56 67.94,-157.77"/>
</g>
<!-- Node2 -->
<g id="node2" class="node">
<title>Node2</title>
<g id="a_node2"><a xlink:href="classrare_1_1components_1_1tabs_1_1downloads_1_1groups_1_1_update_group.html#adaaa57688d92e19605bdc1a271c51e6e" target="_top" xlink:title=" ">
<polygon fill="white" stroke="black" points="104,-227.5 104,-257.5 296,-257.5 296,-227.5 104,-227.5"/>
<text text-anchor="start" x="112" y="-245.5" font-family="Helvetica,sans-Serif" font-size="10.00">rare.components.tabs.downloads.groups.</text>
<text text-anchor="middle" x="200" y="-234.5" font-family="Helvetica,sans-Serif" font-size="10.00">UpdateGroup.count</text>
</a>
</g>
</g>
<!-- Node1&#45;&gt;Node2 -->
<g id="edge1" class="edge">
<title>Node1&#45;&gt;Node2</title>
<path fill="none" stroke="midnightblue" d="M40.91,-151.22C51.45,-167.7 75.12,-201.04 104,-218.5 106.84,-220.22 109.8,-221.81 112.84,-223.29"/>
<polygon fill="midnightblue" stroke="midnightblue" points="111.62,-226.58 122.18,-227.4 114.44,-220.17 111.62,-226.58"/>
</g>
<!-- Node3 -->
<g id="node3" class="node">
<title>Node3</title>
<g id="a_node3"><a xlink:href="classrare_1_1components_1_1tabs_1_1downloads_1_1groups_1_1_queue_group.html#adaaa57688d92e19605bdc1a271c51e6e" target="_top" xlink:title=" ">
<polygon fill="white" stroke="black" points="104,-160.5 104,-190.5 296,-190.5 296,-160.5 104,-160.5"/>
<text text-anchor="start" x="112" y="-178.5" font-family="Helvetica,sans-Serif" font-size="10.00">rare.components.tabs.downloads.groups.</text>
<text text-anchor="middle" x="200" y="-167.5" font-family="Helvetica,sans-Serif" font-size="10.00">QueueGroup.count</text>
</a>
</g>
</g>
<!-- Node1&#45;&gt;Node3 -->
<g id="edge3" class="edge">
<title>Node1&#45;&gt;Node3</title>
<path fill="none" stroke="midnightblue" d="M68.19,-148.38C82.27,-151.3 99.37,-154.85 116.51,-158.4"/>
<polygon fill="midnightblue" stroke="midnightblue" points="116.07,-161.88 126.57,-160.49 117.49,-155.03 116.07,-161.88"/>
</g>
<!-- Node4 -->
<g id="node4" class="node">
<title>Node4</title>
<g id="a_node4"><a xlink:href="classrare_1_1widgets_1_1flow__layout_1_1_flow_layout.html#adaaa57688d92e19605bdc1a271c51e6e" target="_top" xlink:title=" ">
<polygon fill="white" stroke="black" points="139,-93.5 139,-123.5 261,-123.5 261,-93.5 139,-93.5"/>
<text text-anchor="start" x="147" y="-111.5" font-family="Helvetica,sans-Serif" font-size="10.00">rare.widgets.flow_layout.</text>
<text text-anchor="middle" x="200" y="-100.5" font-family="Helvetica,sans-Serif" font-size="10.00">FlowLayout.count</text>
</a>
</g>
</g>
<!-- Node1&#45;&gt;Node4 -->
<g id="edge5" class="edge">
<title>Node1&#45;&gt;Node4</title>
<path fill="none" stroke="midnightblue" d="M68.19,-134.82C85.72,-131.29 107.94,-126.82 129.06,-122.57"/>
<polygon fill="midnightblue" stroke="midnightblue" points="129.88,-125.98 138.99,-120.58 128.5,-119.12 129.88,-125.98"/>
</g>
<!-- Node5 -->
<g id="node5" class="node">
<title>Node5</title>
<g id="a_node5"><a xlink:href="classrare_1_1widgets_1_1sliding__stack_1_1_sliding_stacked_widget.html#ab032482dfc53fdfe48836e74a00f0871" target="_top" xlink:title=" ">
<polygon fill="white" stroke="black" points="162.5,-37 162.5,-56 237.5,-56 237.5,-37 162.5,-37"/>
<text text-anchor="middle" x="200" y="-44" font-family="Helvetica,sans-Serif" font-size="10.00">slideInWidget</text>
</a>
</g>
</g>
<!-- Node1&#45;&gt;Node5 -->
<g id="edge8" class="edge">
<title>Node1&#45;&gt;Node5</title>
<path fill="none" stroke="midnightblue" d="M44.55,-131.95C57.23,-119.67 80.75,-98.3 104,-84.5 120.99,-74.42 141.14,-65.93 158.5,-59.55"/>
<polygon fill="midnightblue" stroke="midnightblue" points="160.11,-62.69 168.35,-56.04 157.76,-56.1 160.11,-62.69"/>
</g>
<!-- Node2&#45;&gt;Node2 -->
<g id="edge2" class="edge">
<title>Node2&#45;&gt;Node2</title>
<path fill="none" stroke="midnightblue" d="M171.07,-257.66C164.1,-267.06 173.74,-276 200,-276 216,-276 225.84,-272.68 229.5,-267.96"/>
<polygon fill="midnightblue" stroke="midnightblue" points="232.97,-267.45 228.93,-257.66 225.98,-267.84 232.97,-267.45"/>
</g>
<!-- Node3&#45;&gt;Node3 -->
<g id="edge4" class="edge">
<title>Node3&#45;&gt;Node3</title>
<path fill="none" stroke="midnightblue" d="M171.07,-190.66C164.1,-200.06 173.74,-209 200,-209 216,-209 225.84,-205.68 229.5,-200.96"/>
<polygon fill="midnightblue" stroke="midnightblue" points="232.97,-200.45 228.93,-190.66 225.98,-200.84 232.97,-200.45"/>
</g>
<!-- Node4&#45;&gt;Node4 -->
<g id="edge6" class="edge">
<title>Node4&#45;&gt;Node4</title>
<path fill="none" stroke="midnightblue" d="M171.07,-123.66C164.1,-133.06 173.74,-142 200,-142 216,-142 225.84,-138.68 229.5,-133.96"/>
<polygon fill="midnightblue" stroke="midnightblue" points="232.97,-133.45 228.93,-123.66 225.98,-133.84 232.97,-133.45"/>
</g>
<!-- Node5&#45;&gt;Node5 -->
<g id="edge13" class="edge">
<title>Node5&#45;&gt;Node5</title>
<path fill="none" stroke="midnightblue" d="M174.41,-56.26C161.97,-65.07 170.5,-74.5 200,-74.5 219.82,-74.5 230.18,-70.24 231.06,-64.77"/>
<polygon fill="midnightblue" stroke="midnightblue" points="233.94,-62.77 225.59,-56.26 228.05,-66.56 233.94,-62.77"/>
</g>
<!-- Node6 -->
<g id="node6" class="node">
<title>Node6</title>
<g id="a_node6"><a xlink:href="classrare_1_1widgets_1_1sliding__stack_1_1_sliding_stacked_widget.html#ad33b03cf3496c64ea301895641933e64" target="_top" xlink:title=" ">
<polygon fill="white" stroke="black" points="344,-68 344,-87 442,-87 442,-68 344,-68"/>
<text text-anchor="middle" x="393" y="-75" font-family="Helvetica,sans-Serif" font-size="10.00">animationDoneSlot</text>
</a>
</g>
</g>
<!-- Node5&#45;&gt;Node6 -->
<g id="edge9" class="edge">
<title>Node5&#45;&gt;Node6</title>
<path fill="none" stroke="midnightblue" d="M237.83,-52.48C265.02,-56.89 302.58,-62.99 333.81,-68.06"/>
<polygon fill="midnightblue" stroke="midnightblue" points="333.28,-71.52 343.71,-69.66 334.4,-64.61 333.28,-71.52"/>
</g>
<!-- Node7 -->
<g id="node7" class="node">
<title>Node7</title>
<g id="a_node7"><a xlink:href="classrare_1_1widgets_1_1flow__layout_1_1_flow_layout.html#a8e7bec55adcc4afe502cf1e17b59a589" target="_top" xlink:title=" ">
<polygon fill="white" stroke="black" points="332,-0.5 332,-30.5 454,-30.5 454,-0.5 332,-0.5"/>
<text text-anchor="start" x="340" y="-18.5" font-family="Helvetica,sans-Serif" font-size="10.00">rare.widgets.flow_layout.</text>
<text text-anchor="middle" x="393" y="-7.5" font-family="Helvetica,sans-Serif" font-size="10.00">FlowLayout.indexOf</text>
</a>
</g>
</g>
<!-- Node5&#45;&gt;Node7 -->
<g id="edge11" class="edge">
<title>Node5&#45;&gt;Node7</title>
<path fill="none" stroke="midnightblue" d="M237.83,-40.52C261.68,-36.65 293.51,-31.49 322.05,-26.85"/>
<polygon fill="midnightblue" stroke="midnightblue" points="322.68,-30.3 331.99,-25.24 321.56,-23.39 322.68,-30.3"/>
</g>
<!-- Node6&#45;&gt;Node6 -->
<g id="edge10" class="edge">
<title>Node6&#45;&gt;Node6</title>
<path fill="none" stroke="midnightblue" d="M363.41,-87.26C349.01,-96.07 358.88,-105.5 393,-105.5 416.99,-105.5 428.99,-100.84 429,-95"/>
<polygon fill="midnightblue" stroke="midnightblue" points="431.66,-92.73 422.59,-87.26 426.27,-97.19 431.66,-92.73"/>
</g>
<!-- Node7&#45;&gt;Node7 -->
<g id="edge12" class="edge">
<title>Node7&#45;&gt;Node7</title>
<path fill="none" stroke="midnightblue" d="M359.54,-30.66C351.47,-40.06 362.62,-49 393,-49 411.51,-49 422.88,-45.68 427.12,-40.96"/>
<polygon fill="midnightblue" stroke="midnightblue" points="430.59,-40.42 426.46,-30.66 423.6,-40.86 430.59,-40.42"/>
</g>
</g>
</svg>
