<?xml version="1.0" encoding="UTF-8" standalone="no"?>
<!DOCTYPE svg PUBLIC "-//W3C//DTD SVG 1.1//EN"
 "http://www.w3.org/Graphics/SVG/1.1/DTD/svg11.dtd">
<!-- Generated by graphviz version 2.49.3 (20211027.1534)
 -->
<!-- Title: Ui_DownloadsTab Pages: 1 -->
<svg width="132pt" height="595pt"
 viewBox="0.00 0.00 132.00 595.00" xmlns="http://www.w3.org/2000/svg" xmlns:xlink="http://www.w3.org/1999/xlink">
<g id="graph0" class="graph" transform="scale(1 1) rotate(0) translate(4 591)">
<title>Ui_DownloadsTab</title>
<polygon fill="white" stroke="transparent" points="-4,4 -4,-591 128,-591 128,4 -4,4"/>
<!-- Node1 -->
<g id="node1" class="node">
<title>Node1</title>
<g id="a_node1"><a xlink:title=" ">
<polygon fill="#bfbfbf" stroke="black" points="1.5,-314.5 1.5,-492.5 122.5,-492.5 122.5,-314.5 1.5,-314.5"/>
<text text-anchor="middle" x="62" y="-480.5" font-family="Helvetica,sans-Serif" font-size="10.00">Ui_DownloadsTab</text>
<polyline fill="none" stroke="black" points="1.5,-473.5 122.5,-473.5 "/>
<text text-anchor="start" x="9.5" y="-461.5" font-family="Helvetica,sans-Serif" font-size="10.00">+ downloads_tab_layout</text>
<text text-anchor="start" x="9.5" y="-450.5" font-family="Helvetica,sans-Serif" font-size="10.00">+ download_layout</text>
<text text-anchor="start" x="9.5" y="-439.5" font-family="Helvetica,sans-Serif" font-size="10.00">+ dl_speed_label</text>
<text text-anchor="start" x="9.5" y="-428.5" font-family="Helvetica,sans-Serif" font-size="10.00">+ dl_speed</text>
<text text-anchor="start" x="9.5" y="-417.5" font-family="Helvetica,sans-Serif" font-size="10.00">+ cache_used</text>
<text text-anchor="start" x="9.5" y="-406.5" font-family="Helvetica,sans-Serif" font-size="10.00">+ time_left</text>
<text text-anchor="start" x="9.5" y="-395.5" font-family="Helvetica,sans-Serif" font-size="10.00">+ dl_name</text>
<text text-anchor="start" x="9.5" y="-384.5" font-family="Helvetica,sans-Serif" font-size="10.00">+ dl_name_label</text>
<text text-anchor="start" x="9.5" y="-373.5" font-family="Helvetica,sans-Serif" font-size="10.00">+ time_left_label</text>
<text text-anchor="start" x="9.5" y="-362.5" font-family="Helvetica,sans-Serif" font-size="10.00">+ downloaded_label</text>
<text text-anchor="start" x="9.5" y="-351.5" font-family="Helvetica,sans-Serif" font-size="10.00">and 8 more...</text>
<polyline fill="none" stroke="black" points="1.5,-344.5 122.5,-344.5 "/>
<text text-anchor="start" x="9.5" y="-332.5" font-family="Helvetica,sans-Serif" font-size="10.00">+ setupUi()</text>
<text text-anchor="start" x="9.5" y="-321.5" font-family="Helvetica,sans-Serif" font-size="10.00">+ retranslateUi()</text>
</a>
</g>
</g>
<!-- Node3 -->
<g id="node3" class="node">
<title>Node3</title>
<g id="a_node3"><a xlink:href="classrare_1_1components_1_1tabs_1_1downloads_1_1_downloads_tab.html" target="_top" xlink:title=" ">
<polygon fill="white" stroke="black" points="0,-0.5 0,-277.5 124,-277.5 124,-0.5 0,-0.5"/>
<text text-anchor="middle" x="62" y="-265.5" font-family="Helvetica,sans-Serif" font-size="10.00">DownloadsTab</text>
<polyline fill="none" stroke="black" points="0,-258.5 124,-258.5 "/>
<text text-anchor="start" x="8" y="-246.5" font-family="Helvetica,sans-Serif" font-size="10.00">+ core</text>
<text text-anchor="start" x="8" y="-235.5" font-family="Helvetica,sans-Serif" font-size="10.00">+ signals</text>
<text text-anchor="start" x="8" y="-224.5" font-family="Helvetica,sans-Serif" font-size="10.00">+ analysis</text>
<text text-anchor="start" x="8" y="-213.5" font-family="Helvetica,sans-Serif" font-size="10.00">+ queue_widget</text>
<text text-anchor="start" x="8" y="-202.5" font-family="Helvetica,sans-Serif" font-size="10.00">+ updates</text>
<text text-anchor="start" x="8" y="-191.5" font-family="Helvetica,sans-Serif" font-size="10.00">+ update_layout</text>
<text text-anchor="start" x="8" y="-180.5" font-family="Helvetica,sans-Serif" font-size="10.00">+ update_text</text>
<text text-anchor="start" x="8" y="-169.5" font-family="Helvetica,sans-Serif" font-size="10.00">+ dl_queue</text>
<text text-anchor="start" x="8" y="-158.5" font-family="Helvetica,sans-Serif" font-size="10.00">+ active_game</text>
<text text-anchor="start" x="8" y="-147.5" font-family="Helvetica,sans-Serif" font-size="10.00">+ thread</text>
<text text-anchor="start" x="8" y="-136.5" font-family="Helvetica,sans-Serif" font-size="10.00">+ dl_status</text>
<polyline fill="none" stroke="black" points="0,-129.5 124,-129.5 "/>
<text text-anchor="start" x="8" y="-117.5" font-family="Helvetica,sans-Serif" font-size="10.00">+ __init__()</text>
<text text-anchor="start" x="8" y="-106.5" font-family="Helvetica,sans-Serif" font-size="10.00">+ queue_item_removed()</text>
<text text-anchor="start" x="8" y="-95.5" font-family="Helvetica,sans-Serif" font-size="10.00">+ add_update()</text>
<text text-anchor="start" x="8" y="-84.5" font-family="Helvetica,sans-Serif" font-size="10.00">+ game_uninstalled()</text>
<text text-anchor="start" x="8" y="-73.5" font-family="Helvetica,sans-Serif" font-size="10.00">+ remove_update()</text>
<text text-anchor="start" x="8" y="-62.5" font-family="Helvetica,sans-Serif" font-size="10.00">+ update_dl_queue()</text>
<text text-anchor="start" x="8" y="-51.5" font-family="Helvetica,sans-Serif" font-size="10.00">+ stop_download()</text>
<text text-anchor="start" x="8" y="-40.5" font-family="Helvetica,sans-Serif" font-size="10.00">+ install_game()</text>
<text text-anchor="start" x="8" y="-29.5" font-family="Helvetica,sans-Serif" font-size="10.00">+ start_installation()</text>
<text text-anchor="start" x="8" y="-18.5" font-family="Helvetica,sans-Serif" font-size="10.00">+ status()</text>
<text text-anchor="start" x="8" y="-7.5" font-family="Helvetica,sans-Serif" font-size="10.00">and 6 more...</text>
</a>
</g>
</g>
<!-- Node1&#45;&gt;Node3 -->
<g id="edge2" class="edge">
<title>Node1&#45;&gt;Node3</title>
<path fill="none" stroke="midnightblue" d="M62,-304.32C62,-295.68 62,-286.83 62,-277.94"/>
<polygon fill="none" stroke="midnightblue" points="58.5,-304.36 62,-314.36 65.5,-304.36 58.5,-304.36"/>
</g>
<!-- Node2 -->
<g id="node2" class="node">
<title>Node2</title>
<g id="a_node2"><a xlink:title=" ">
<polygon fill="white" stroke="#bfbfbf" points="40.5,-529.5 40.5,-586.5 83.5,-586.5 83.5,-529.5 40.5,-529.5"/>
<text text-anchor="middle" x="62" y="-574.5" font-family="Helvetica,sans-Serif" font-size="10.00">object</text>
<polyline fill="none" stroke="#bfbfbf" points="40.5,-567.5 83.5,-567.5 "/>
<text text-anchor="middle" x="62" y="-555.5" font-family="Helvetica,sans-Serif" font-size="10.00"> </text>
<polyline fill="none" stroke="#bfbfbf" points="40.5,-548.5 83.5,-548.5 "/>
<text text-anchor="middle" x="62" y="-536.5" font-family="Helvetica,sans-Serif" font-size="10.00"> </text>
</a>
</g>
</g>
<!-- Node2&#45;&gt;Node1 -->
<g id="edge1" class="edge">
<title>Node2&#45;&gt;Node1</title>
<path fill="none" stroke="midnightblue" d="M62,-519.37C62,-511.09 62,-501.98 62,-492.62"/>
<polygon fill="none" stroke="midnightblue" points="58.5,-519.38 62,-529.38 65.5,-519.38 58.5,-519.38"/>
</g>
</g>
</svg>
