<?xml version="1.0" encoding="UTF-8" standalone="no"?>
<!DOCTYPE svg PUBLIC "-//W3C//DTD SVG 1.1//EN"
 "http://www.w3.org/Graphics/SVG/1.1/DTD/svg11.dtd">
<!-- Generated by graphviz version 2.49.3 (20211027.1534)
 -->
<!-- Title: __init__ Pages: 1 -->
<svg width="230pt" height="96pt"
 viewBox="0.00 0.00 230.00 95.50" xmlns="http://www.w3.org/2000/svg" xmlns:xlink="http://www.w3.org/1999/xlink">
<g id="graph0" class="graph" transform="scale(1 1) rotate(0) translate(4 91.5)">
<title>__init__</title>
<polygon fill="white" stroke="transparent" points="-4,4 -4,-91.5 226,-91.5 226,4 -4,4"/>
<!-- Node1 -->
<g id="node1" class="node">
<title>Node1</title>
<g id="a_node1"><a xlink:title=" ">
<polygon fill="#bfbfbf" stroke="black" points="0,-37 0,-56 50,-56 50,-37 0,-37"/>
<text text-anchor="middle" x="25" y="-44" font-family="Helvetica,sans-Serif" font-size="10.00">__init__</text>
</a>
</g>
</g>
<!-- Node1&#45;&gt;Node1 -->
<g id="edge1" class="edge">
<title>Node1&#45;&gt;Node1</title>
<path fill="none" stroke="midnightblue" d="M5.27,-56.26C-4.33,-65.07 2.25,-74.5 25,-74.5 39.57,-74.5 47.51,-70.63 48.81,-65.53"/>
<polygon fill="midnightblue" stroke="midnightblue" points="51.96,-64 44.73,-56.26 45.55,-66.82 51.96,-64"/>
</g>
<!-- Node2 -->
<g id="node2" class="node">
<title>Node2</title>
<g id="a_node2"><a xlink:href="classrare_1_1components_1_1tabs_1_1library_1_1widgets_1_1_view_container.html#a9332406230fb288cbd7e91c7e536fe2e" target="_top" xlink:title=" ">
<polygon fill="white" stroke="black" points="123,-68 123,-87 185,-87 185,-68 123,-68"/>
<text text-anchor="middle" x="154" y="-75" font-family="Helvetica,sans-Serif" font-size="10.00">__visibility</text>
</a>
</g>
</g>
<!-- Node1&#45;&gt;Node2 -->
<g id="edge2" class="edge">
<title>Node1&#45;&gt;Node2</title>
<path fill="none" stroke="midnightblue" d="M50.19,-52.4C67.88,-56.72 92.27,-62.68 112.86,-67.7"/>
<polygon fill="midnightblue" stroke="midnightblue" points="112.07,-71.11 122.62,-70.08 113.73,-64.31 112.07,-71.11"/>
</g>
<!-- Node3 -->
<g id="node3" class="node">
<title>Node3</title>
<g id="a_node3"><a xlink:href="classrare_1_1widgets_1_1side__tab_1_1_side_tab_contents_protocol.html#ab056178eceee89fe1afe038a9b5dbfe8" target="_top" xlink:title=" ">
<polygon fill="white" stroke="black" points="86,-0.5 86,-30.5 222,-30.5 222,-0.5 86,-0.5"/>
<text text-anchor="start" x="94" y="-18.5" font-family="Helvetica,sans-Serif" font-size="10.00">rare.widgets.side_tab.Side</text>
<text text-anchor="middle" x="154" y="-7.5" font-family="Helvetica,sans-Serif" font-size="10.00">TabContentsProtocol.layout</text>
</a>
</g>
</g>
<!-- Node1&#45;&gt;Node3 -->
<g id="edge3" class="edge">
<title>Node1&#45;&gt;Node3</title>
<path fill="none" stroke="midnightblue" d="M50.19,-40.6C59.32,-38.37 70.23,-35.7 81.49,-32.96"/>
<polygon fill="midnightblue" stroke="midnightblue" points="82.55,-36.3 91.43,-30.53 80.89,-29.5 82.55,-36.3"/>
</g>
<!-- Node3&#45;&gt;Node3 -->
<g id="edge4" class="edge">
<title>Node3&#45;&gt;Node3</title>
<path fill="none" stroke="midnightblue" d="M131.69,-30.66C126.31,-40.06 133.75,-49 154,-49 166.34,-49 173.92,-45.68 176.74,-40.96"/>
<polygon fill="midnightblue" stroke="midnightblue" points="180.23,-40.5 176.31,-30.66 173.23,-40.8 180.23,-40.5"/>
</g>
</g>
</svg>
