<?xml version="1.0" encoding="UTF-8" standalone="no"?>
<!DOCTYPE svg PUBLIC "-//W3C//DTD SVG 1.1//EN"
 "http://www.w3.org/Graphics/SVG/1.1/DTD/svg11.dtd">
<!-- Generated by graphviz version 2.49.3 (20211027.1534)
 -->
<!-- Title: verify_result Pages: 1 -->
<svg width="431pt" height="232pt"
 viewBox="0.00 0.00 431.00 231.50" xmlns="http://www.w3.org/2000/svg" xmlns:xlink="http://www.w3.org/1999/xlink">
<g id="graph0" class="graph" transform="scale(1 1) rotate(0) translate(4 227.5)">
<title>verify_result</title>
<polygon fill="white" stroke="transparent" points="-4,4 -4,-227.5 427,-227.5 427,4 -4,4"/>
<!-- Node1 -->
<g id="node1" class="node">
<title>Node1</title>
<g id="a_node1"><a xlink:title=" ">
<polygon fill="#bfbfbf" stroke="black" points="0,-93.5 0,-112.5 69,-112.5 69,-93.5 0,-93.5"/>
<text text-anchor="middle" x="34.5" y="-100.5" font-family="Helvetica,sans-Serif" font-size="10.00">verify_result</text>
</a>
</g>
</g>
<!-- Node1&#45;&gt;Node1 -->
<g id="edge12" class="edge">
<title>Node1&#45;&gt;Node1</title>
<path fill="none" stroke="midnightblue" d="M12,-112.76C1.05,-121.57 8.55,-131 34.5,-131 51.53,-131 60.61,-126.94 61.75,-121.65"/>
<polygon fill="midnightblue" stroke="midnightblue" points="64.8,-119.93 57,-112.76 58.62,-123.23 64.8,-119.93"/>
</g>
<!-- Node2 -->
<g id="node2" class="node">
<title>Node2</title>
<g id="a_node2"><a xlink:href="classrare_1_1shared_1_1rare__core_1_1_rare_core.html#a405e1a4f20f16120f872ccd2654a1d56" target="_top" xlink:title=" ">
<polygon fill="white" stroke="black" points="293,-175 293,-205 423,-205 423,-175 293,-175"/>
<text text-anchor="start" x="301" y="-193" font-family="Helvetica,sans-Serif" font-size="10.00">rare.shared.rare_core.Rare</text>
<text text-anchor="middle" x="358" y="-182" font-family="Helvetica,sans-Serif" font-size="10.00">Core.core</text>
</a>
</g>
</g>
<!-- Node1&#45;&gt;Node2 -->
<g id="edge1" class="edge">
<title>Node1&#45;&gt;Node2</title>
<path fill="none" stroke="midnightblue" d="M41.83,-112.57C52.67,-128.03 76.39,-158.06 105,-171 160.84,-196.26 230.77,-199.61 282.79,-197.44"/>
<polygon fill="midnightblue" stroke="midnightblue" points="283.13,-200.93 292.94,-196.94 282.78,-193.94 283.13,-200.93"/>
</g>
<!-- Node3 -->
<g id="node3" class="node">
<title>Node3</title>
<g id="a_node3"><a xlink:href="classrare_1_1components_1_1tabs_1_1games_1_1game__info_1_1game__info_1_1_game_info.html#a6f329e2a98231bcaf8ec9b217a67c280" target="_top" xlink:title=" ">
<polygon fill="white" stroke="black" points="146,-124.5 146,-143.5 216,-143.5 216,-124.5 146,-124.5"/>
<text text-anchor="middle" x="181" y="-131.5" font-family="Helvetica,sans-Serif" font-size="10.00">repair_game</text>
</a>
</g>
</g>
<!-- Node1&#45;&gt;Node3 -->
<g id="edge3" class="edge">
<title>Node1&#45;&gt;Node3</title>
<path fill="none" stroke="midnightblue" d="M69.01,-110.19C88.95,-114.47 114.47,-119.94 136.02,-124.56"/>
<polygon fill="midnightblue" stroke="midnightblue" points="135.4,-128.01 145.92,-126.69 136.87,-121.17 135.4,-128.01"/>
</g>
<!-- Node5 -->
<g id="node5" class="node">
<title>Node5</title>
<g id="a_node5"><a xlink:href="classrare_1_1components_1_1tabs_1_1games_1_1_games_tab.html#ad294a24e02944fbfad0a6120efef7d81" target="_top" xlink:title=" ">
<polygon fill="white" stroke="black" points="105,-57 105,-87 257,-87 257,-57 105,-57"/>
<text text-anchor="start" x="113" y="-75" font-family="Helvetica,sans-Serif" font-size="10.00">rare.components.tabs.games.</text>
<text text-anchor="middle" x="181" y="-64" font-family="Helvetica,sans-Serif" font-size="10.00">GamesTab.verification_finished</text>
</a>
</g>
</g>
<!-- Node1&#45;&gt;Node5 -->
<g id="edge8" class="edge">
<title>Node1&#45;&gt;Node5</title>
<path fill="none" stroke="midnightblue" d="M69.01,-95.81C78.4,-93.8 89.02,-91.52 99.88,-89.19"/>
<polygon fill="midnightblue" stroke="midnightblue" points="100.85,-92.56 109.89,-87.04 99.38,-85.72 100.85,-92.56"/>
</g>
<!-- Node6 -->
<g id="node6" class="node">
<title>Node6</title>
<g id="a_node6"><a xlink:href="classrare_1_1components_1_1tabs_1_1games_1_1game__info_1_1game__info_1_1_game_info.html#a86d20d91662c2b5a14081824308d958c" target="_top" xlink:title=" ">
<polygon fill="white" stroke="black" points="141.5,-0.5 141.5,-19.5 220.5,-19.5 220.5,-0.5 141.5,-0.5"/>
<text text-anchor="middle" x="181" y="-7.5" font-family="Helvetica,sans-Serif" font-size="10.00">verify_cleanup</text>
</a>
</g>
</g>
<!-- Node1&#45;&gt;Node6 -->
<g id="edge10" class="edge">
<title>Node1&#45;&gt;Node6</title>
<path fill="none" stroke="midnightblue" d="M46.24,-93.09C59.43,-81.22 82.8,-61.18 105,-47 118.49,-38.39 134.27,-30.33 147.87,-23.95"/>
<polygon fill="midnightblue" stroke="midnightblue" points="149.69,-26.96 157.32,-19.61 146.77,-20.6 149.69,-26.96"/>
</g>
<!-- Node2&#45;&gt;Node2 -->
<g id="edge2" class="edge">
<title>Node2&#45;&gt;Node2</title>
<path fill="none" stroke="midnightblue" d="M327.33,-205.16C319.93,-214.56 330.16,-223.5 358,-223.5 374.97,-223.5 385.39,-220.18 389.27,-215.46"/>
<polygon fill="midnightblue" stroke="midnightblue" points="392.75,-214.94 388.67,-205.16 385.76,-215.35 392.75,-214.94"/>
</g>
<!-- Node3&#45;&gt;Node2 -->
<g id="edge4" class="edge">
<title>Node3&#45;&gt;Node2</title>
<path fill="none" stroke="midnightblue" d="M212.08,-143.63C236.23,-151.35 270.82,-162.42 300.15,-171.81"/>
<polygon fill="midnightblue" stroke="midnightblue" points="299.28,-175.2 309.87,-174.92 301.41,-168.54 299.28,-175.2"/>
</g>
<!-- Node3&#45;&gt;Node3 -->
<g id="edge5" class="edge">
<title>Node3&#45;&gt;Node3</title>
<path fill="none" stroke="midnightblue" d="M158.5,-143.76C147.55,-152.57 155.05,-162 181,-162 198.03,-162 207.11,-157.94 208.25,-152.65"/>
<polygon fill="midnightblue" stroke="midnightblue" points="211.3,-150.93 203.5,-143.76 205.12,-154.23 211.3,-150.93"/>
</g>
<!-- Node4 -->
<g id="node4" class="node">
<title>Node4</title>
<g id="a_node4"><a xlink:href="classrare_1_1shared_1_1rare__core_1_1_rare_core.html#a135560fc58fcc2e5cff07ec25c23a06c" target="_top" xlink:title=" ">
<polygon fill="white" stroke="black" points="293,-108 293,-138 423,-138 423,-108 293,-108"/>
<text text-anchor="start" x="301" y="-126" font-family="Helvetica,sans-Serif" font-size="10.00">rare.shared.rare_core.Rare</text>
<text text-anchor="middle" x="358" y="-115" font-family="Helvetica,sans-Serif" font-size="10.00">Core.signals</text>
</a>
</g>
</g>
<!-- Node3&#45;&gt;Node4 -->
<g id="edge6" class="edge">
<title>Node3&#45;&gt;Node4</title>
<path fill="none" stroke="midnightblue" d="M216.16,-131.85C235.13,-130.66 259.52,-129.13 282.65,-127.67"/>
<polygon fill="midnightblue" stroke="midnightblue" points="283.06,-131.15 292.82,-127.03 282.62,-124.17 283.06,-131.15"/>
</g>
<!-- Node4&#45;&gt;Node4 -->
<g id="edge7" class="edge">
<title>Node4&#45;&gt;Node4</title>
<path fill="none" stroke="midnightblue" d="M327.33,-138.16C319.93,-147.56 330.16,-156.5 358,-156.5 374.97,-156.5 385.39,-153.18 389.27,-148.46"/>
<polygon fill="midnightblue" stroke="midnightblue" points="392.75,-147.94 388.67,-138.16 385.76,-148.35 392.75,-147.94"/>
</g>
<!-- Node5&#45;&gt;Node5 -->
<g id="edge9" class="edge">
<title>Node5&#45;&gt;Node5</title>
<path fill="none" stroke="midnightblue" d="M155.56,-87.16C149.42,-96.56 157.9,-105.5 181,-105.5 195.08,-105.5 203.72,-102.18 206.94,-97.46"/>
<polygon fill="midnightblue" stroke="midnightblue" points="210.42,-96.98 206.44,-87.16 203.43,-97.32 210.42,-96.98"/>
</g>
<!-- Node6&#45;&gt;Node6 -->
<g id="edge11" class="edge">
<title>Node6&#45;&gt;Node6</title>
<path fill="none" stroke="midnightblue" d="M158.5,-19.76C147.55,-28.57 155.05,-38 181,-38 198.03,-38 207.11,-33.94 208.25,-28.65"/>
<polygon fill="midnightblue" stroke="midnightblue" points="211.3,-26.93 203.5,-19.76 205.12,-30.23 211.3,-26.93"/>
</g>
</g>
</svg>
