<?xml version="1.0" encoding="UTF-8" standalone="no"?>
<!DOCTYPE svg PUBLIC "-//W3C//DTD SVG 1.1//EN"
 "http://www.w3.org/Graphics/SVG/1.1/DTD/svg11.dtd">
<!-- Generated by graphviz version 2.49.3 (20211027.1534)
 -->
<!-- Title: remove Pages: 1 -->
<!--zoomable 549 -->
<svg id="main" version="1.1" xmlns="http://www.w3.org/2000/svg" xmlns:xlink="http://www.w3.org/1999/xlink" xml:space="preserve" onload="init(evt)">
<style type="text/css"><![CDATA[
.edge:hover path { stroke: red; }
.edge:hover polygon { stroke: red; fill: red; }
]]></style>
<script type="text/javascript"><![CDATA[
var edges = document.getElementsByTagName('g');
if (edges && edges.length) {
  for (var i=0;i<edges.length;i++) {
    if (edges[i].id.substr(0,4)=='edge') {
      edges[i].setAttribute('class','edge');
    }
  }
}
]]></script>
        <defs>
                <circle id="rim" cx="0" cy="0" r="7"/>
                <circle id="rim2" cx="0" cy="0" r="3.5"/>
                <g id="zoomPlus">
                        <use xlink:href="#rim" fill="#404040">
                                <set attributeName="fill" to="#808080" begin="zoomplus.mouseover" end="zoomplus.mouseout"/>
                        </use>
                        <path d="M-4,0h8M0,-4v8" fill="none" stroke="white" stroke-width="1.5" pointer-events="none"/>
                </g>
                <g id="zoomMin">
                        <use xlink:href="#rim" fill="#404040">
                                <set attributeName="fill" to="#808080" begin="zoomminus.mouseover" end="zoomminus.mouseout"/>
                        </use>
                        <path d="M-4,0h8" fill="none" stroke="white" stroke-width="1.5" pointer-events="none"/>
                </g>
                <g id="dirArrow">
                        <path fill="none" stroke="white" stroke-width="1.5" d="M0,-3.0v7 M-2.5,-0.5L0,-3.0L2.5,-0.5"/>
                </g>
               <g id="resetDef">
                       <use xlink:href="#rim2" fill="#404040">
                               <set attributeName="fill" to="#808080" begin="reset.mouseover" end="reset.mouseout"/>
                       </use>
               </g>
        </defs>

<script type="text/javascript">
var viewWidth = 1177;
var viewHeight = 549;
var sectionId = 'dynsection-8';
</script>
<script xlink:href="svgpan.js"/>
<svg id="graph" class="graph">
<g id="viewport">
<title>remove</title>
<polygon fill="white" stroke="transparent" points="-4,4 -4,-545 1172.53,-545 1172.53,4 -4,4"/>
<!-- Node1 -->
<g id="node1" class="node">
<title>Node1</title>
<g id="a_node1"><a xlink:title=" ">
<polygon fill="#bfbfbf" stroke="black" points="0.53,-392 0.53,-411 49.53,-411 49.53,-392 0.53,-392"/>
<text text-anchor="middle" x="25.03" y="-399" font-family="Helvetica,sans-Serif" font-size="10.00">remove</text>
</a>
</g>
</g>
<!-- Node1&#45;&gt;Node1 -->
<g id="edge1" class="edge">
<title>Node1&#45;&gt;Node1</title>
<path fill="none" stroke="midnightblue" d="M4.69,-411.26C-5.21,-420.07 1.57,-429.5 25.03,-429.5 40.06,-429.5 48.24,-425.63 49.58,-420.53"/>
<polygon fill="midnightblue" stroke="midnightblue" points="52.7,-418.92 45.38,-411.26 46.32,-421.81 52.7,-418.92"/>
</g>
<!-- Node2 -->
<g id="node2" class="node">
<title>Node2</title>
<g id="a_node2"><a xlink:href="classrare_1_1components_1_1tabs_1_1games_1_1_games_tab.html#a9c41c0f6f85f3ac781817ada4eb31505" target="_top" xlink:title=" ">
<polygon fill="white" stroke="black" points="85.53,-417.5 85.53,-447.5 228.53,-447.5 228.53,-417.5 85.53,-417.5"/>
<text text-anchor="start" x="93.53" y="-435.5" font-family="Helvetica,sans-Serif" font-size="10.00">rare.components.tabs.games.</text>
<text text-anchor="middle" x="157.03" y="-424.5" font-family="Helvetica,sans-Serif" font-size="10.00">GamesTab.update_list</text>
</a>
</g>
</g>
<!-- Node1&#45;&gt;Node2 -->
<g id="edge2" class="edge">
<title>Node1&#45;&gt;Node2</title>
<path fill="none" stroke="midnightblue" d="M49.57,-407.11C59.27,-409.43 71.09,-412.24 83.27,-415.15"/>
<polygon fill="midnightblue" stroke="midnightblue" points="82.54,-418.57 93.08,-417.49 84.17,-411.77 82.54,-418.57"/>
</g>
<!-- Node18 -->
<g id="node18" class="node">
<title>Node18</title>
<g id="a_node18"><a xlink:href="classrare_1_1components_1_1tabs_1_1downloads_1_1dl__queue__widget_1_1_dl_queue_widget.html#aa275fb4bd5f73517353b9c2794fdd14f" target="_top" xlink:title=" ">
<polygon fill="white" stroke="black" points="118.53,-361 118.53,-380 195.53,-380 195.53,-361 118.53,-361"/>
<text text-anchor="middle" x="157.03" y="-368" font-family="Helvetica,sans-Serif" font-size="10.00">update_queue</text>
</a>
</g>
</g>
<!-- Node1&#45;&gt;Node18 -->
<g id="edge36" class="edge">
<title>Node1&#45;&gt;Node18</title>
<path fill="none" stroke="midnightblue" d="M49.57,-395.89C65.97,-391.98 88.41,-386.62 108.47,-381.84"/>
<polygon fill="midnightblue" stroke="midnightblue" points="109.47,-385.2 118.38,-379.48 107.84,-378.39 109.47,-385.2"/>
</g>
<!-- Node2&#45;&gt;Node2 -->
<g id="edge35" class="edge">
<title>Node2&#45;&gt;Node2</title>
<path fill="none" stroke="midnightblue" d="M134.03,-447.66C128.48,-457.06 136.15,-466 157.03,-466 169.76,-466 177.57,-462.68 180.49,-457.96"/>
<polygon fill="midnightblue" stroke="midnightblue" points="183.97,-457.5 180.03,-447.66 176.98,-457.8 183.97,-457.5"/>
</g>
<!-- Node3 -->
<g id="node3" class="node">
<title>Node3</title>
<g id="a_node3"><a xlink:href="classrare_1_1components_1_1tabs_1_1games_1_1_games_tab.html#a5ceb105ea1b728de0ba698e4e6763f85" target="_top" xlink:title=" ">
<polygon fill="white" stroke="black" points="269.53,-510.5 269.53,-540.5 417.53,-540.5 417.53,-510.5 269.53,-510.5"/>
<text text-anchor="start" x="277.53" y="-528.5" font-family="Helvetica,sans-Serif" font-size="10.00">rare.components.tabs.games.</text>
<text text-anchor="middle" x="343.53" y="-517.5" font-family="Helvetica,sans-Serif" font-size="10.00">GamesTab.__update_installed</text>
</a>
</g>
</g>
<!-- Node2&#45;&gt;Node3 -->
<g id="edge3" class="edge">
<title>Node2&#45;&gt;Node3</title>
<path fill="none" stroke="midnightblue" d="M177.87,-447.76C198.55,-463.07 232.39,-486.5 264.53,-501.5 268.61,-503.41 272.88,-505.21 277.23,-506.9"/>
<polygon fill="midnightblue" stroke="midnightblue" points="276.25,-510.27 286.84,-510.44 278.67,-503.7 276.25,-510.27"/>
</g>
<!-- Node4 -->
<g id="node4" class="node">
<title>Node4</title>
<g id="a_node4"><a xlink:href="classrare_1_1components_1_1tabs_1_1games_1_1_games_tab.html#a4204adc3c356a6a119358175093a7480" target="_top" xlink:title=" ">
<polygon fill="white" stroke="black" points="264.53,-461.5 264.53,-491.5 422.53,-491.5 422.53,-461.5 264.53,-461.5"/>
<text text-anchor="start" x="272.53" y="-479.5" font-family="Helvetica,sans-Serif" font-size="10.00">rare.components.tabs.games.</text>
<text text-anchor="middle" x="343.53" y="-468.5" font-family="Helvetica,sans-Serif" font-size="10.00">GamesTab.__update_uninstalled</text>
</a>
</g>
</g>
<!-- Node2&#45;&gt;Node4 -->
<g id="edge4" class="edge">
<title>Node2&#45;&gt;Node4</title>
<path fill="none" stroke="midnightblue" d="M221.01,-447.52C236.66,-451.25 253.56,-455.28 269.64,-459.12"/>
<polygon fill="midnightblue" stroke="midnightblue" points="268.98,-462.56 279.52,-461.47 270.61,-455.75 268.98,-462.56"/>
</g>
<!-- Node5 -->
<g id="node5" class="node">
<title>Node5</title>
<g id="a_node5"><a xlink:href="classrare_1_1shared_1_1rare__core_1_1_rare_core.html#a405e1a4f20f16120f872ccd2654a1d56" target="_top" xlink:title=" ">
<polygon fill="white" stroke="black" points="878.53,-290.5 878.53,-320.5 1008.53,-320.5 1008.53,-290.5 878.53,-290.5"/>
<text text-anchor="start" x="886.53" y="-308.5" font-family="Helvetica,sans-Serif" font-size="10.00">rare.shared.rare_core.Rare</text>
<text text-anchor="middle" x="943.53" y="-297.5" font-family="Helvetica,sans-Serif" font-size="10.00">Core.core</text>
</a>
</g>
</g>
<!-- Node2&#45;&gt;Node5 -->
<g id="edge5" class="edge">
<title>Node2&#45;&gt;Node5</title>
<path fill="none" stroke="midnightblue" d="M228.75,-439.54C356.08,-449.52 630.36,-458.68 842.53,-379.5 872.63,-368.27 901.51,-345.1 920.43,-327.67"/>
<polygon fill="midnightblue" stroke="midnightblue" points="923.04,-330.01 927.9,-320.6 918.23,-324.93 923.04,-330.01"/>
</g>
<!-- Node6 -->
<g id="node6" class="node">
<title>Node6</title>
<g id="a_node6"><a xlink:href="classrare_1_1components_1_1tabs_1_1games_1_1_games_tab.html#afc3cd8ac539d3d010f6913fa6cc85cbb" target="_top" xlink:title=" ">
<polygon fill="white" stroke="black" points="272.03,-279.5 272.03,-309.5 415.03,-309.5 415.03,-279.5 272.03,-279.5"/>
<text text-anchor="start" x="280.03" y="-297.5" font-family="Helvetica,sans-Serif" font-size="10.00">rare.components.tabs.games.</text>
<text text-anchor="middle" x="343.53" y="-286.5" font-family="Helvetica,sans-Serif" font-size="10.00">GamesTab.sort_list</text>
</a>
</g>
</g>
<!-- Node2&#45;&gt;Node6 -->
<g id="edge7" class="edge">
<title>Node2&#45;&gt;Node6</title>
<path fill="none" stroke="midnightblue" d="M208.98,-417.49C215.78,-414.62 222.48,-411.3 228.53,-407.5 267.54,-382.99 303.71,-343.02 324.43,-317.77"/>
<polygon fill="midnightblue" stroke="midnightblue" points="327.3,-319.79 330.85,-309.81 321.85,-315.4 327.3,-319.79"/>
</g>
<!-- Node17 -->
<g id="node17" class="node">
<title>Node17</title>
<g id="a_node17"><a xlink:href="classrare_1_1components_1_1tabs_1_1games_1_1_games_tab.html#a2efffcc49dcc1c9f2d26040e865a660b" target="_top" xlink:title=" ">
<polygon fill="white" stroke="black" points="458.53,-71.5 458.53,-101.5 643.53,-101.5 643.53,-71.5 458.53,-71.5"/>
<text text-anchor="start" x="466.53" y="-89.5" font-family="Helvetica,sans-Serif" font-size="10.00">rare.components.tabs.games.</text>
<text text-anchor="middle" x="551.03" y="-78.5" font-family="Helvetica,sans-Serif" font-size="10.00">GamesTab.update_count_games_label</text>
</a>
</g>
</g>
<!-- Node2&#45;&gt;Node17 -->
<g id="edge32" class="edge">
<title>Node2&#45;&gt;Node17</title>
<path fill="none" stroke="midnightblue" d="M216.4,-417.31C220.88,-414.56 225.01,-411.32 228.53,-407.5 271.14,-361.16 227.56,-321.46 264.53,-270.5 324.81,-187.42 435.11,-132.25 499.54,-105.45"/>
<polygon fill="midnightblue" stroke="midnightblue" points="501.15,-108.57 509.08,-101.55 498.5,-102.09 501.15,-108.57"/>
</g>
<!-- Node5&#45;&gt;Node5 -->
<g id="edge6" class="edge">
<title>Node5&#45;&gt;Node5</title>
<path fill="none" stroke="midnightblue" d="M915.3,-320.66C908.49,-330.06 917.9,-339 943.53,-339 959.15,-339 968.74,-335.68 972.32,-330.96"/>
<polygon fill="midnightblue" stroke="midnightblue" points="975.79,-330.46 971.76,-320.66 968.8,-330.83 975.79,-330.46"/>
</g>
<!-- Node6&#45;&gt;Node5 -->
<g id="edge30" class="edge">
<title>Node6&#45;&gt;Node5</title>
<path fill="none" stroke="midnightblue" d="M377.2,-309.62C399.6,-319.28 430.26,-331.15 458.53,-337.5 625.23,-374.95 676.25,-394.75 842.53,-355.5 866.88,-349.75 892.06,-337.11 911.07,-325.98"/>
<polygon fill="midnightblue" stroke="midnightblue" points="913.11,-328.84 919.87,-320.68 909.5,-322.84 913.11,-328.84"/>
</g>
<!-- Node6&#45;&gt;Node6 -->
<g id="edge31" class="edge">
<title>Node6&#45;&gt;Node6</title>
<path fill="none" stroke="midnightblue" d="M311.12,-309.66C303.3,-319.06 314.1,-328 343.53,-328 361.46,-328 372.48,-324.68 376.58,-319.96"/>
<polygon fill="midnightblue" stroke="midnightblue" points="380.05,-319.42 375.94,-309.66 373.07,-319.86 380.05,-319.42"/>
</g>
<!-- Node7 -->
<g id="node7" class="node">
<title>Node7</title>
<g id="a_node7"><a xlink:href="classrare_1_1components_1_1tabs_1_1games_1_1_games_tab.html#a869dbac7d5500a0c77a5dcbbba5112d5" target="_top" xlink:title=" ">
<polygon fill="white" stroke="black" points="468.53,-155.5 468.53,-185.5 633.53,-185.5 633.53,-155.5 468.53,-155.5"/>
<text text-anchor="start" x="476.53" y="-173.5" font-family="Helvetica,sans-Serif" font-size="10.00">rare.components.tabs.games.</text>
<text text-anchor="middle" x="551.03" y="-162.5" font-family="Helvetica,sans-Serif" font-size="10.00">GamesTab.__remove_from_layout</text>
</a>
</g>
</g>
<!-- Node6&#45;&gt;Node7 -->
<g id="edge8" class="edge">
<title>Node6&#45;&gt;Node7</title>
<path fill="none" stroke="midnightblue" d="M357.64,-279.17C377.32,-257.14 416.68,-216.73 458.53,-194.5 462.02,-192.65 465.66,-190.93 469.4,-189.34"/>
<polygon fill="midnightblue" stroke="midnightblue" points="470.8,-192.55 478.84,-185.64 468.25,-186.03 470.8,-192.55"/>
</g>
<!-- Node8 -->
<g id="node8" class="node">
<title>Node8</title>
<g id="a_node8"><a xlink:href="classrare_1_1components_1_1tabs_1_1games_1_1_games_tab.html#a0d8a470c0a0518913b8fd90bf37549da" target="_top" xlink:title=" ">
<polygon fill="white" stroke="black" points="472.03,-204.5 472.03,-234.5 630.03,-234.5 630.03,-204.5 472.03,-204.5"/>
<text text-anchor="start" x="480.03" y="-222.5" font-family="Helvetica,sans-Serif" font-size="10.00">rare.components.tabs.games.</text>
<text text-anchor="middle" x="551.03" y="-211.5" font-family="Helvetica,sans-Serif" font-size="10.00">GamesTab.add_installed_widget</text>
</a>
</g>
</g>
<!-- Node6&#45;&gt;Node8 -->
<g id="edge9" class="edge">
<title>Node6&#45;&gt;Node8</title>
<path fill="none" stroke="midnightblue" d="M386.12,-279.32C418.81,-267.39 464.5,-250.71 499.34,-238"/>
<polygon fill="midnightblue" stroke="midnightblue" points="500.66,-241.24 508.86,-234.53 498.26,-234.67 500.66,-241.24"/>
</g>
<!-- Node15 -->
<g id="node15" class="node">
<title>Node15</title>
<g id="a_node15"><a xlink:href="classrare_1_1components_1_1tabs_1_1games_1_1_games_tab.html#a085f8e3d6939b8b627c26d9c4d6da49f" target="_top" xlink:title=" ">
<polygon fill="white" stroke="black" points="467.03,-279.5 467.03,-309.5 635.03,-309.5 635.03,-279.5 467.03,-279.5"/>
<text text-anchor="start" x="475.03" y="-297.5" font-family="Helvetica,sans-Serif" font-size="10.00">rare.components.tabs.games.</text>
<text text-anchor="middle" x="551.03" y="-286.5" font-family="Helvetica,sans-Serif" font-size="10.00">GamesTab.add_uninstalled_widget</text>
</a>
</g>
</g>
<!-- Node6&#45;&gt;Node15 -->
<g id="edge24" class="edge">
<title>Node6&#45;&gt;Node15</title>
<path fill="none" stroke="midnightblue" d="M415.25,-294.5C428.61,-294.5 442.77,-294.5 456.7,-294.5"/>
<polygon fill="midnightblue" stroke="midnightblue" points="456.79,-298 466.79,-294.5 456.79,-291 456.79,-298"/>
</g>
<!-- Node8&#45;&gt;Node5 -->
<g id="edge11" class="edge">
<title>Node8&#45;&gt;Node5</title>
<path fill="none" stroke="midnightblue" d="M630.14,-229.69C689.05,-238.22 771.55,-251.98 842.53,-270.5 859.63,-274.96 877.97,-281 894.23,-286.81"/>
<polygon fill="midnightblue" stroke="midnightblue" points="893.45,-290.25 904.04,-290.38 895.84,-283.67 893.45,-290.25"/>
</g>
<!-- Node8&#45;&gt;Node8 -->
<g id="edge10" class="edge">
<title>Node8&#45;&gt;Node8</title>
<path fill="none" stroke="midnightblue" d="M515.13,-234.66C506.47,-244.06 518.44,-253 551.03,-253 570.89,-253 583.09,-249.68 587.63,-244.96"/>
<polygon fill="midnightblue" stroke="midnightblue" points="591.1,-244.4 586.93,-234.66 584.12,-244.87 591.1,-244.4"/>
</g>
<!-- Node9 -->
<g id="node9" class="node">
<title>Node9</title>
<g id="a_node9"><a xlink:href="classrare_1_1shared_1_1rare__core_1_1_rare_core.html#af626fd87a4280875286ed304d4270f61" target="_top" xlink:title=" ">
<polygon fill="white" stroke="black" points="696.03,-173.5 696.03,-203.5 826.03,-203.5 826.03,-173.5 696.03,-173.5"/>
<text text-anchor="start" x="704.03" y="-191.5" font-family="Helvetica,sans-Serif" font-size="10.00">rare.shared.rare_core.Rare</text>
<text text-anchor="middle" x="761.03" y="-180.5" font-family="Helvetica,sans-Serif" font-size="10.00">Core.image_manager</text>
</a>
</g>
</g>
<!-- Node8&#45;&gt;Node9 -->
<g id="edge12" class="edge">
<title>Node8&#45;&gt;Node9</title>
<path fill="none" stroke="midnightblue" d="M630.07,-207.87C648.36,-205.14 667.79,-202.25 685.9,-199.55"/>
<polygon fill="midnightblue" stroke="midnightblue" points="686.43,-203.01 695.81,-198.07 685.4,-196.08 686.43,-203.01"/>
</g>
<!-- Node11 -->
<g id="node11" class="node">
<title>Node11</title>
<g id="a_node11"><a xlink:href="classrare_1_1components_1_1tabs_1_1games_1_1_games_tab.html#a0b2329db4df141f4c93ea860e7b482ba" target="_top" xlink:title=" ">
<polygon fill="white" stroke="black" points="689.53,-106.5 689.53,-136.5 832.53,-136.5 832.53,-106.5 689.53,-106.5"/>
<text text-anchor="start" x="697.53" y="-124.5" font-family="Helvetica,sans-Serif" font-size="10.00">rare.components.tabs.games.</text>
<text text-anchor="middle" x="761.03" y="-113.5" font-family="Helvetica,sans-Serif" font-size="10.00">GamesTab.show_game_info</text>
</a>
</g>
</g>
<!-- Node8&#45;&gt;Node11 -->
<g id="edge17" class="edge">
<title>Node8&#45;&gt;Node11</title>
<path fill="none" stroke="midnightblue" d="M620.3,-204.5C628.34,-201.68 636.26,-198.37 643.53,-194.5 662.17,-184.59 662.05,-175.35 679.53,-163.5 691.5,-155.38 705.23,-147.69 717.92,-141.16"/>
<polygon fill="midnightblue" stroke="midnightblue" points="719.57,-144.24 726.93,-136.62 716.43,-137.99 719.57,-144.24"/>
</g>
<!-- Node12 -->
<g id="node12" class="node">
<title>Node12</title>
<g id="a_node12"><a xlink:href="classrare_1_1components_1_1tabs_1_1shop_1_1_shop.html#adce81273b921608423370102d510bcab" target="_top" xlink:title=" ">
<polygon fill="white" stroke="black" points="693.53,-0.5 693.53,-30.5 828.53,-30.5 828.53,-0.5 693.53,-0.5"/>
<text text-anchor="start" x="701.53" y="-18.5" font-family="Helvetica,sans-Serif" font-size="10.00">rare.components.tabs.shop.</text>
<text text-anchor="middle" x="761.03" y="-7.5" font-family="Helvetica,sans-Serif" font-size="10.00">Shop.show_game_info</text>
</a>
</g>
</g>
<!-- Node8&#45;&gt;Node12 -->
<g id="edge19" class="edge">
<title>Node8&#45;&gt;Node12</title>
<path fill="none" stroke="midnightblue" d="M629.37,-204.49C634.49,-201.7 639.28,-198.4 643.53,-194.5 677.71,-163.12 654.6,-135.64 679.53,-96.5 693.9,-73.94 715.48,-52.66 732.69,-37.58"/>
<polygon fill="midnightblue" stroke="midnightblue" points="735.41,-39.86 740.73,-30.69 730.86,-34.54 735.41,-39.86"/>
</g>
<!-- Node9&#45;&gt;Node5 -->
<g id="edge13" class="edge">
<title>Node9&#45;&gt;Node5</title>
<path fill="none" stroke="midnightblue" d="M788.4,-203.63C804.25,-212.87 824.73,-225.07 842.53,-236.5 866.65,-251.99 893.34,-270.48 913.08,-284.41"/>
<polygon fill="midnightblue" stroke="midnightblue" points="911.17,-287.35 921.35,-290.28 915.22,-281.64 911.17,-287.35"/>
</g>
<!-- Node9&#45;&gt;Node9 -->
<g id="edge14" class="edge">
<title>Node9&#45;&gt;Node9</title>
<path fill="none" stroke="midnightblue" d="M729.31,-203.66C721.66,-213.06 732.24,-222 761.03,-222 778.58,-222 789.36,-218.68 793.37,-213.96"/>
<polygon fill="midnightblue" stroke="midnightblue" points="796.84,-213.43 792.75,-203.66 789.86,-213.85 796.84,-213.43"/>
</g>
<!-- Node10 -->
<g id="node10" class="node">
<title>Node10</title>
<g id="a_node10"><a xlink:href="classrare_1_1shared_1_1rare__core_1_1_rare_core.html#a135560fc58fcc2e5cff07ec25c23a06c" target="_top" xlink:title=" ">
<polygon fill="white" stroke="black" points="878.53,-173.5 878.53,-203.5 1008.53,-203.5 1008.53,-173.5 878.53,-173.5"/>
<text text-anchor="start" x="886.53" y="-191.5" font-family="Helvetica,sans-Serif" font-size="10.00">rare.shared.rare_core.Rare</text>
<text text-anchor="middle" x="943.53" y="-180.5" font-family="Helvetica,sans-Serif" font-size="10.00">Core.signals</text>
</a>
</g>
</g>
<!-- Node9&#45;&gt;Node10 -->
<g id="edge15" class="edge">
<title>Node9&#45;&gt;Node10</title>
<path fill="none" stroke="midnightblue" d="M826.18,-188.5C839.79,-188.5 854.28,-188.5 868.24,-188.5"/>
<polygon fill="midnightblue" stroke="midnightblue" points="868.29,-192 878.29,-188.5 868.29,-185 868.29,-192"/>
</g>
<!-- Node10&#45;&gt;Node10 -->
<g id="edge16" class="edge">
<title>Node10&#45;&gt;Node10</title>
<path fill="none" stroke="midnightblue" d="M915.3,-203.66C908.49,-213.06 917.9,-222 943.53,-222 959.15,-222 968.74,-218.68 972.32,-213.96"/>
<polygon fill="midnightblue" stroke="midnightblue" points="975.79,-213.46 971.76,-203.66 968.8,-213.83 975.79,-213.46"/>
</g>
<!-- Node11&#45;&gt;Node11 -->
<g id="edge18" class="edge">
<title>Node11&#45;&gt;Node11</title>
<path fill="none" stroke="midnightblue" d="M729.31,-136.66C721.66,-146.06 732.24,-155 761.03,-155 778.58,-155 789.36,-151.68 793.37,-146.96"/>
<polygon fill="midnightblue" stroke="midnightblue" points="796.84,-146.43 792.75,-136.66 789.86,-146.85 796.84,-146.43"/>
</g>
<!-- Node12&#45;&gt;Node12 -->
<g id="edge23" class="edge">
<title>Node12&#45;&gt;Node12</title>
<path fill="none" stroke="midnightblue" d="M729.31,-30.66C721.66,-40.06 732.24,-49 761.03,-49 778.58,-49 789.36,-45.68 793.37,-40.96"/>
<polygon fill="midnightblue" stroke="midnightblue" points="796.84,-40.43 792.75,-30.66 789.86,-40.85 796.84,-40.43"/>
</g>
<!-- Node13 -->
<g id="node13" class="node">
<title>Node13</title>
<g id="a_node13"><a xlink:href="classrare_1_1lgndr_1_1glue_1_1monkeys_1_1_lgndr_indirect_logger.html#a98a895468c8036bb8122dd2c568d91e7" target="_top" xlink:title=" ">
<polygon fill="white" stroke="black" points="882.53,-0.5 882.53,-30.5 1004.53,-30.5 1004.53,-0.5 882.53,-0.5"/>
<text text-anchor="start" x="890.53" y="-18.5" font-family="Helvetica,sans-Serif" font-size="10.00">rare.lgndr.glue.monkeys.</text>
<text text-anchor="middle" x="943.53" y="-7.5" font-family="Helvetica,sans-Serif" font-size="10.00">LgndrIndirectLogger.info</text>
</a>
</g>
</g>
<!-- Node12&#45;&gt;Node13 -->
<g id="edge20" class="edge">
<title>Node12&#45;&gt;Node13</title>
<path fill="none" stroke="midnightblue" d="M828.73,-15.5C842.87,-15.5 857.84,-15.5 872.12,-15.5"/>
<polygon fill="midnightblue" stroke="midnightblue" points="872.37,-19 882.37,-15.5 872.37,-12 872.37,-19"/>
</g>
<!-- Node13&#45;&gt;Node13 -->
<g id="edge22" class="edge">
<title>Node13&#45;&gt;Node13</title>
<path fill="none" stroke="midnightblue" d="M915.3,-30.66C908.49,-40.06 917.9,-49 943.53,-49 959.15,-49 968.74,-45.68 972.32,-40.96"/>
<polygon fill="midnightblue" stroke="midnightblue" points="975.79,-40.46 971.76,-30.66 968.8,-40.83 975.79,-40.46"/>
</g>
<!-- Node14 -->
<g id="node14" class="node">
<title>Node14</title>
<g id="a_node14"><a xlink:href="classrare_1_1lgndr_1_1glue_1_1monkeys_1_1_lgndr_indirect_logger.html#a66bb1af90088807e5445bcf242390463" target="_top" xlink:title=" ">
<polygon fill="white" stroke="black" points="1044.53,-0.5 1044.53,-30.5 1168.53,-30.5 1168.53,-0.5 1044.53,-0.5"/>
<text text-anchor="start" x="1052.53" y="-18.5" font-family="Helvetica,sans-Serif" font-size="10.00">rare.lgndr.glue.monkeys.</text>
<text text-anchor="middle" x="1106.53" y="-7.5" font-family="Helvetica,sans-Serif" font-size="10.00">LgndrIndirectLogger._log</text>
</a>
</g>
</g>
<!-- Node13&#45;&gt;Node14 -->
<g id="edge21" class="edge">
<title>Node13&#45;&gt;Node14</title>
<path fill="none" stroke="midnightblue" d="M1004.94,-15.5C1014.54,-15.5 1024.55,-15.5 1034.37,-15.5"/>
<polygon fill="midnightblue" stroke="midnightblue" points="1034.52,-19 1044.52,-15.5 1034.52,-12 1034.52,-19"/>
</g>
<!-- Node15&#45;&gt;Node5 -->
<g id="edge26" class="edge">
<title>Node15&#45;&gt;Node5</title>
<path fill="none" stroke="midnightblue" d="M586.42,-309.51C611.65,-319.66 647.03,-332.17 679.53,-337.5 751.02,-349.23 770.95,-348.67 842.53,-337.5 859.98,-334.78 878.55,-329.53 894.88,-324.06"/>
<polygon fill="midnightblue" stroke="midnightblue" points="896.43,-327.23 904.74,-320.65 894.14,-320.61 896.43,-327.23"/>
</g>
<!-- Node15&#45;&gt;Node9 -->
<g id="edge27" class="edge">
<title>Node15&#45;&gt;Node9</title>
<path fill="none" stroke="midnightblue" d="M599.84,-279.43C614.16,-274.34 629.71,-268.22 643.53,-261.5 674.55,-246.4 707.68,-225.08 730.65,-209.38"/>
<polygon fill="midnightblue" stroke="midnightblue" points="732.69,-212.22 738.93,-203.66 728.71,-206.46 732.69,-212.22"/>
</g>
<!-- Node15&#45;&gt;Node15 -->
<g id="edge25" class="edge">
<title>Node15&#45;&gt;Node15</title>
<path fill="none" stroke="midnightblue" d="M515.13,-309.66C506.47,-319.06 518.44,-328 551.03,-328 570.89,-328 583.09,-324.68 587.63,-319.96"/>
<polygon fill="midnightblue" stroke="midnightblue" points="591.1,-319.4 586.93,-309.66 584.12,-319.87 591.1,-319.4"/>
</g>
<!-- Node16 -->
<g id="node16" class="node">
<title>Node16</title>
<g id="a_node16"><a xlink:href="classrare_1_1components_1_1tabs_1_1games_1_1_games_tab.html#a8e8b8383bfb0203281dfa30f18213235" target="_top" xlink:title=" ">
<polygon fill="white" stroke="black" points="679.53,-279.5 679.53,-309.5 842.53,-309.5 842.53,-279.5 679.53,-279.5"/>
<text text-anchor="start" x="687.53" y="-297.5" font-family="Helvetica,sans-Serif" font-size="10.00">rare.components.tabs.games.</text>
<text text-anchor="middle" x="761.03" y="-286.5" font-family="Helvetica,sans-Serif" font-size="10.00">GamesTab.show_uninstalled_info</text>
</a>
</g>
</g>
<!-- Node15&#45;&gt;Node16 -->
<g id="edge28" class="edge">
<title>Node15&#45;&gt;Node16</title>
<path fill="none" stroke="midnightblue" d="M635.13,-294.5C646.31,-294.5 657.82,-294.5 669.12,-294.5"/>
<polygon fill="midnightblue" stroke="midnightblue" points="669.43,-298 679.43,-294.5 669.43,-291 669.43,-298"/>
</g>
<!-- Node16&#45;&gt;Node16 -->
<g id="edge29" class="edge">
<title>Node16&#45;&gt;Node16</title>
<path fill="none" stroke="midnightblue" d="M729.31,-309.66C721.66,-319.06 732.24,-328 761.03,-328 778.58,-328 789.36,-324.68 793.37,-319.96"/>
<polygon fill="midnightblue" stroke="midnightblue" points="796.84,-319.43 792.75,-309.66 789.86,-319.85 796.84,-319.43"/>
</g>
<!-- Node17&#45;&gt;Node5 -->
<g id="edge33" class="edge">
<title>Node17&#45;&gt;Node5</title>
<path fill="none" stroke="midnightblue" d="M603.94,-71.45C667.42,-56.47 774.77,-42.66 842.53,-96.5 890.81,-134.86 849.81,-175.93 878.53,-230.5 888.89,-250.18 905.22,-269.21 918.79,-283.17"/>
<polygon fill="midnightblue" stroke="midnightblue" points="916.45,-285.78 925.99,-290.38 921.4,-280.83 916.45,-285.78"/>
</g>
<!-- Node17&#45;&gt;Node17 -->
<g id="edge34" class="edge">
<title>Node17&#45;&gt;Node17</title>
<path fill="none" stroke="midnightblue" d="M515.13,-101.66C506.47,-111.06 518.44,-120 551.03,-120 570.89,-120 583.09,-116.68 587.63,-111.96"/>
<polygon fill="midnightblue" stroke="midnightblue" points="591.1,-111.4 586.93,-101.66 584.12,-111.87 591.1,-111.4"/>
</g>
<!-- Node18&#45;&gt;Node18 -->
<g id="edge37" class="edge">
<title>Node18&#45;&gt;Node18</title>
<path fill="none" stroke="midnightblue" d="M136.69,-380.26C126.79,-389.07 133.57,-398.5 157.03,-398.5 172.06,-398.5 180.24,-394.63 181.58,-389.53"/>
<polygon fill="midnightblue" stroke="midnightblue" points="184.7,-387.92 177.38,-380.26 178.32,-390.81 184.7,-387.92"/>
</g>
</g>
</svg>
        <g id="navigator" transform="translate(0 0)" fill="#404254">
                <rect fill="#f2f5e9" fill-opacity="0.5" stroke="#606060" stroke-width=".5" x="0" y="0" width="60" height="60"/>
                <use id="zoomplus" xlink:href="#zoomPlus" x="17" y="9" onmousedown="handleZoom(evt,'in')"/>
                <use id="zoomminus" xlink:href="#zoomMin" x="42" y="9" onmousedown="handleZoom(evt,'out')"/>
                <use id="reset" xlink:href="#resetDef" x="30" y="36" onmousedown="handleReset()"/>
                <g id="arrowUp" xlink:href="#dirArrow" transform="translate(30 24)" onmousedown="handlePan(0,-1)">
                  <use xlink:href="#rim" fill="#404040">
                        <set attributeName="fill" to="#808080" begin="arrowUp.mouseover" end="arrowUp.mouseout"/>
                  </use>
                  <path fill="none" stroke="white" stroke-width="1.5" d="M0,-3.0v7 M-2.5,-0.5L0,-3.0L2.5,-0.5"/>
                </g>
                <g id="arrowRight" xlink:href="#dirArrow" transform="rotate(90) translate(36 -43)" onmousedown="handlePan(1,0)">
                  <use xlink:href="#rim" fill="#404040">
                        <set attributeName="fill" to="#808080" begin="arrowRight.mouseover" end="arrowRight.mouseout"/>
                  </use>
                  <path fill="none" stroke="white" stroke-width="1.5" d="M0,-3.0v7 M-2.5,-0.5L0,-3.0L2.5,-0.5"/>
                </g>
                <g id="arrowDown" xlink:href="#dirArrow" transform="rotate(180) translate(-30 -48)" onmousedown="handlePan(0,1)">
                  <use xlink:href="#rim" fill="#404040">
                        <set attributeName="fill" to="#808080" begin="arrowDown.mouseover" end="arrowDown.mouseout"/>
                  </use>
                  <path fill="none" stroke="white" stroke-width="1.5" d="M0,-3.0v7 M-2.5,-0.5L0,-3.0L2.5,-0.5"/>
                </g>
                <g id="arrowLeft" xlink:href="#dirArrow" transform="rotate(270) translate(-36 17)" onmousedown="handlePan(-1,0)">
                  <use xlink:href="#rim" fill="#404040">
                        <set attributeName="fill" to="#808080" begin="arrowLeft.mouseover" end="arrowLeft.mouseout"/>
                  </use>
                  <path fill="none" stroke="white" stroke-width="1.5" d="M0,-3.0v7 M-2.5,-0.5L0,-3.0L2.5,-0.5"/>
                </g>
        </g>
        <svg viewBox="0 0 15 15" width="100%" height="30px" preserveAspectRatio="xMaxYMin meet">
         <g id="arrow_out" transform="scale(0.3 0.3)">
          <a xlink:href="classrare_1_1components_1_1tabs_1_1downloads_1_1dl__queue__widget_1_1_dl_queue_widget_aa9b3615f33f38183ae18fa76e4e3d95c_cgraph_org.svg" target="_base">
           <rect id="button" ry="5" rx="5" y="6" x="6" height="38" width="38"
                fill="#f2f5e9" fill-opacity="0.5" stroke="#606060" stroke-width="1.0"/>
           <path id="arrow"
             d="M 11.500037,31.436501 C 11.940474,20.09759 22.043105,11.32322 32.158766,21.979434 L 37.068811,17.246167 C 37.068811,17.246167 37.088388,32 37.088388,32 L 22.160133,31.978069 C 22.160133,31.978069 26.997745,27.140456 26.997745,27.140456 C 18.528582,18.264221 13.291696,25.230495 11.500037,31.436501 z"
             style="fill:#404040;"/>
          </a>
         </g>
        </svg>
</svg>
