<?xml version="1.0" encoding="UTF-8" standalone="no"?>
<!DOCTYPE svg PUBLIC "-//W3C//DTD SVG 1.1//EN"
 "http://www.w3.org/Graphics/SVG/1.1/DTD/svg11.dtd">
<!-- Generated by graphviz version 2.49.3 (20211027.1534)
 -->
<!-- Title: setPixmap Pages: 1 -->
<svg width="826pt" height="347pt"
 viewBox="0.00 0.00 826.36 346.50" xmlns="http://www.w3.org/2000/svg" xmlns:xlink="http://www.w3.org/1999/xlink">
<g id="graph0" class="graph" transform="scale(1 1) rotate(0) translate(4 342.5)">
<title>setPixmap</title>
<polygon fill="white" stroke="transparent" points="-4,4 -4,-342.5 822.36,-342.5 822.36,4 -4,4"/>
<!-- Node1 -->
<g id="node1" class="node">
<title>Node1</title>
<g id="a_node1"><a xlink:title=" ">
<polygon fill="#bfbfbf" stroke="black" points="754,-124.5 754,-143.5 816,-143.5 816,-124.5 754,-124.5"/>
<text text-anchor="middle" x="785" y="-131.5" font-family="Helvetica,sans-Serif" font-size="10.00">setPixmap</text>
</a>
</g>
</g>
<!-- Node1&#45;&gt;Node1 -->
<g id="edge11" class="edge">
<title>Node1&#45;&gt;Node1</title>
<path fill="none" stroke="midnightblue" d="M818.36,-151.89C817.87,-157.54 806.75,-162 785,-162 753.36,-162 744.22,-152.57 757.57,-143.76"/>
<polygon fill="midnightblue" stroke="midnightblue" points="821.15,-149.78 812.43,-143.76 815.49,-153.9 821.15,-149.78"/>
</g>
<!-- Node2 -->
<g id="node2" class="node">
<title>Node2</title>
<g id="a_node2"><a xlink:href="classrare_1_1widgets_1_1image__widget_1_1_loading_image_widget.html#a5c276fa3524cffc92221a5068ff1a6be" target="_top" xlink:title=" ">
<polygon fill="white" stroke="black" points="522,-217.5 522,-258.5 690,-258.5 690,-217.5 522,-217.5"/>
<text text-anchor="start" x="530" y="-246.5" font-family="Helvetica,sans-Serif" font-size="10.00">rare.widgets.image</text>
<text text-anchor="start" x="530" y="-235.5" font-family="Helvetica,sans-Serif" font-size="10.00">_widget.LoadingImageWidget.fetch</text>
<text text-anchor="middle" x="606" y="-224.5" font-family="Helvetica,sans-Serif" font-size="10.00">Pixmap</text>
</a>
</g>
</g>
<!-- Node1&#45;&gt;Node2 -->
<g id="edge1" class="edge">
<title>Node1&#45;&gt;Node2</title>
<path fill="none" stroke="midnightblue" d="M772.51,-152.02C760.8,-168.94 741.11,-193.73 718,-208 709.42,-213.3 699.91,-217.67 690.16,-221.28"/>
<polygon fill="midnightblue" stroke="midnightblue" points="775.53,-153.8 778.17,-143.54 769.71,-149.92 775.53,-153.8"/>
</g>
<!-- Node7 -->
<g id="node7" class="node">
<title>Node7</title>
<g id="a_node7"><a xlink:href="classrare_1_1components_1_1tabs_1_1library_1_1widgets_1_1icon__game__widget_1_1_icon_game_widget.html#abdf6072ecf79d4ad6dc5afd130bdf19d" target="_top" xlink:title=" ">
<polygon fill="white" stroke="black" points="494,-150 494,-180 718,-180 718,-150 494,-150"/>
<text text-anchor="start" x="502" y="-168" font-family="Helvetica,sans-Serif" font-size="10.00">rare.components.tabs.library.widgets.icon</text>
<text text-anchor="middle" x="606" y="-157" font-family="Helvetica,sans-Serif" font-size="10.00">_game_widget.IconGameWidget.update_pixmap</text>
</a>
</g>
</g>
<!-- Node1&#45;&gt;Node7 -->
<g id="edge12" class="edge">
<title>Node1&#45;&gt;Node7</title>
<path fill="none" stroke="midnightblue" d="M743.92,-141.02C728.71,-143.68 710.74,-146.83 692.92,-149.95"/>
<polygon fill="midnightblue" stroke="midnightblue" points="744.73,-144.43 753.97,-139.26 743.52,-137.54 744.73,-144.43"/>
</g>
<!-- Node8 -->
<g id="node8" class="node">
<title>Node8</title>
<g id="a_node8"><a xlink:href="classrare_1_1components_1_1tabs_1_1library_1_1widgets_1_1list__game__widget_1_1_list_game_widget.html#abdf6072ecf79d4ad6dc5afd130bdf19d" target="_top" xlink:title=" ">
<polygon fill="white" stroke="black" points="565,-93.5 565,-112.5 647,-112.5 647,-93.5 565,-93.5"/>
<text text-anchor="middle" x="606" y="-100.5" font-family="Helvetica,sans-Serif" font-size="10.00">update_pixmap</text>
</a>
</g>
</g>
<!-- Node1&#45;&gt;Node8 -->
<g id="edge14" class="edge">
<title>Node1&#45;&gt;Node8</title>
<path fill="none" stroke="midnightblue" d="M743.81,-126.96C714.9,-121.9 676.07,-115.1 647.16,-110.03"/>
<polygon fill="midnightblue" stroke="midnightblue" points="743.52,-130.46 753.97,-128.74 744.73,-123.57 743.52,-130.46"/>
</g>
<!-- Node9 -->
<g id="node9" class="node">
<title>Node9</title>
<g id="a_node9"><a xlink:href="classrare_1_1components_1_1tabs_1_1library_1_1widgets_1_1library__widget_1_1_library_widget.html#ad62c9a8e662859bab2b09945f45101d0" target="_top" xlink:title=" ">
<polygon fill="white" stroke="black" points="505.5,-26 505.5,-56 706.5,-56 706.5,-26 505.5,-26"/>
<text text-anchor="start" x="513.5" y="-44" font-family="Helvetica,sans-Serif" font-size="10.00">rare.components.tabs.library.widgets.library</text>
<text text-anchor="middle" x="606" y="-33" font-family="Helvetica,sans-Serif" font-size="10.00">_widget.LibraryWidget.updateProgress</text>
</a>
</g>
</g>
<!-- Node1&#45;&gt;Node9 -->
<g id="edge16" class="edge">
<title>Node1&#45;&gt;Node9</title>
<path fill="none" stroke="midnightblue" d="M765.03,-117.36C752.34,-106.82 734.93,-93.45 718,-84 697.97,-72.82 674.44,-63.25 654.21,-56"/>
<polygon fill="midnightblue" stroke="midnightblue" points="763.1,-120.31 772.99,-124.12 767.63,-114.98 763.1,-120.31"/>
</g>
<!-- Node2&#45;&gt;Node2 -->
<g id="edge6" class="edge">
<title>Node2&#45;&gt;Node2</title>
<path fill="none" stroke="midnightblue" d="M636.62,-268.86C632.07,-273.7 621.86,-277 606,-277 580.62,-277 569.72,-268.54 573.29,-258.86"/>
<polygon fill="midnightblue" stroke="midnightblue" points="640.09,-269.37 638.71,-258.86 633.24,-267.94 640.09,-269.37"/>
</g>
<!-- Node3 -->
<g id="node3" class="node">
<title>Node3</title>
<g id="a_node3"><a xlink:href="classrare_1_1components_1_1tabs_1_1store_1_1widgets_1_1items_1_1_search_item_widget.html#a4036347a5303e2e2f9d461d82ef4be27" target="_top" xlink:title=" ">
<polygon fill="white" stroke="black" points="258.5,-290 258.5,-320 456.5,-320 456.5,-290 258.5,-290"/>
<text text-anchor="start" x="266.5" y="-308" font-family="Helvetica,sans-Serif" font-size="10.00">rare.components.tabs.store.widgets.items.</text>
<text text-anchor="middle" x="357.5" y="-297" font-family="Helvetica,sans-Serif" font-size="10.00">SearchItemWidget.__init__</text>
</a>
</g>
</g>
<!-- Node2&#45;&gt;Node3 -->
<g id="edge2" class="edge">
<title>Node2&#45;&gt;Node3</title>
<path fill="none" stroke="midnightblue" d="M527.36,-261.46C505.03,-268.01 480.6,-274.97 458,-281 446.67,-284.02 434.57,-287.08 422.84,-289.96"/>
<polygon fill="midnightblue" stroke="midnightblue" points="528.52,-264.77 537.13,-258.59 526.55,-258.06 528.52,-264.77"/>
</g>
<!-- Node4 -->
<g id="node4" class="node">
<title>Node4</title>
<g id="a_node4"><a xlink:href="classrare_1_1components_1_1tabs_1_1store_1_1widgets_1_1items_1_1_wishlist_item_widget.html#a4036347a5303e2e2f9d461d82ef4be27" target="_top" xlink:title=" ">
<polygon fill="white" stroke="black" points="258.5,-223 258.5,-253 456.5,-253 456.5,-223 258.5,-223"/>
<text text-anchor="start" x="266.5" y="-241" font-family="Helvetica,sans-Serif" font-size="10.00">rare.components.tabs.store.widgets.items.</text>
<text text-anchor="middle" x="357.5" y="-230" font-family="Helvetica,sans-Serif" font-size="10.00">WishlistItemWidget.__init__</text>
</a>
</g>
</g>
<!-- Node2&#45;&gt;Node4 -->
<g id="edge4" class="edge">
<title>Node2&#45;&gt;Node4</title>
<path fill="none" stroke="midnightblue" d="M511.69,-238C493.68,-238 474.76,-238 456.59,-238"/>
<polygon fill="midnightblue" stroke="midnightblue" points="511.89,-241.5 521.89,-238 511.89,-234.5 511.89,-241.5"/>
</g>
<!-- Node5 -->
<g id="node5" class="node">
<title>Node5</title>
<g id="a_node5"><a xlink:href="classrare_1_1components_1_1tabs_1_1store_1_1widgets_1_1items_1_1_store_item_widget.html#a25fcdb296abc02d48b1b9c473f1b7597" target="_top" xlink:title=" ">
<polygon fill="white" stroke="black" points="258.5,-156 258.5,-186 456.5,-186 456.5,-156 258.5,-156"/>
<text text-anchor="start" x="266.5" y="-174" font-family="Helvetica,sans-Serif" font-size="10.00">rare.components.tabs.store.widgets.items.</text>
<text text-anchor="middle" x="357.5" y="-163" font-family="Helvetica,sans-Serif" font-size="10.00">StoreItemWidget.init_ui</text>
</a>
</g>
</g>
<!-- Node2&#45;&gt;Node5 -->
<g id="edge7" class="edge">
<title>Node2&#45;&gt;Node5</title>
<path fill="none" stroke="midnightblue" d="M518.97,-214.77C510.53,-212.49 502.1,-210.2 494,-208 467.53,-200.81 438.15,-192.79 413.54,-186.06"/>
<polygon fill="midnightblue" stroke="midnightblue" points="518.3,-218.22 528.86,-217.45 520.12,-211.46 518.3,-218.22"/>
</g>
<!-- Node3&#45;&gt;Node3 -->
<g id="edge3" class="edge">
<title>Node3&#45;&gt;Node3</title>
<path fill="none" stroke="midnightblue" d="M401.61,-330.09C396.53,-335.01 381.82,-338.5 357.5,-338.5 318.58,-338.5 304.29,-329.56 314.63,-320.16"/>
<polygon fill="midnightblue" stroke="midnightblue" points="405.08,-329.65 400.37,-320.16 398.14,-330.52 405.08,-329.65"/>
</g>
<!-- Node4&#45;&gt;Node4 -->
<g id="edge5" class="edge">
<title>Node4&#45;&gt;Node4</title>
<path fill="none" stroke="midnightblue" d="M401.61,-263.09C396.53,-268.01 381.82,-271.5 357.5,-271.5 318.58,-271.5 304.29,-262.56 314.63,-253.16"/>
<polygon fill="midnightblue" stroke="midnightblue" points="405.08,-262.65 400.37,-253.16 398.14,-263.52 405.08,-262.65"/>
</g>
<!-- Node5&#45;&gt;Node5 -->
<g id="edge10" class="edge">
<title>Node5&#45;&gt;Node5</title>
<path fill="none" stroke="midnightblue" d="M401.61,-196.09C396.53,-201.01 381.82,-204.5 357.5,-204.5 318.58,-204.5 304.29,-195.56 314.63,-186.16"/>
<polygon fill="midnightblue" stroke="midnightblue" points="405.08,-195.65 400.37,-186.16 398.14,-196.52 405.08,-195.65"/>
</g>
<!-- Node6 -->
<g id="node6" class="node">
<title>Node6</title>
<g id="a_node6"><a xlink:href="classrare_1_1components_1_1tabs_1_1store_1_1widgets_1_1items_1_1_store_item_widget.html#a2cc825dbf368364561c4e31876af2d13" target="_top" xlink:title=" ">
<polygon fill="white" stroke="black" points="11.5,-156 11.5,-186 209.5,-186 209.5,-156 11.5,-156"/>
<text text-anchor="start" x="19.5" y="-174" font-family="Helvetica,sans-Serif" font-size="10.00">rare.components.tabs.store.widgets.items.</text>
<text text-anchor="middle" x="110.5" y="-163" font-family="Helvetica,sans-Serif" font-size="10.00">StoreItemWidget.__init__</text>
</a>
</g>
</g>
<!-- Node5&#45;&gt;Node6 -->
<g id="edge8" class="edge">
<title>Node5&#45;&gt;Node6</title>
<path fill="none" stroke="midnightblue" d="M248.09,-171C235.33,-171 222.37,-171 209.76,-171"/>
<polygon fill="midnightblue" stroke="midnightblue" points="248.26,-174.5 258.26,-171 248.26,-167.5 248.26,-174.5"/>
</g>
<!-- Node6&#45;&gt;Node6 -->
<g id="edge9" class="edge">
<title>Node6&#45;&gt;Node6</title>
<path fill="none" stroke="midnightblue" d="M154.61,-196.09C149.53,-201.01 134.82,-204.5 110.5,-204.5 71.58,-204.5 57.29,-195.56 67.63,-186.16"/>
<polygon fill="midnightblue" stroke="midnightblue" points="158.08,-195.65 153.37,-186.16 151.14,-196.52 158.08,-195.65"/>
</g>
<!-- Node7&#45;&gt;Node7 -->
<g id="edge13" class="edge">
<title>Node7&#45;&gt;Node7</title>
<path fill="none" stroke="midnightblue" d="M637.63,-190.46C633.7,-195.18 623.16,-198.5 606,-198.5 577.84,-198.5 567.5,-189.56 574.98,-180.16"/>
<polygon fill="midnightblue" stroke="midnightblue" points="641.1,-189.94 637.02,-180.16 634.12,-190.35 641.1,-189.94"/>
</g>
<!-- Node8&#45;&gt;Node8 -->
<g id="edge15" class="edge">
<title>Node8&#45;&gt;Node8</title>
<path fill="none" stroke="midnightblue" d="M639.36,-120.89C638.87,-126.54 627.75,-131 606,-131 574.36,-131 565.22,-121.57 578.57,-112.76"/>
<polygon fill="midnightblue" stroke="midnightblue" points="642.15,-118.78 633.43,-112.76 636.49,-122.9 642.15,-118.78"/>
</g>
<!-- Node9&#45;&gt;Node9 -->
<g id="edge23" class="edge">
<title>Node9&#45;&gt;Node9</title>
<path fill="none" stroke="midnightblue" d="M637.63,-66.46C633.7,-71.18 623.16,-74.5 606,-74.5 577.84,-74.5 567.5,-65.56 574.98,-56.16"/>
<polygon fill="midnightblue" stroke="midnightblue" points="641.1,-65.94 637.02,-56.16 634.12,-66.35 641.1,-65.94"/>
</g>
<!-- Node10 -->
<g id="node10" class="node">
<title>Node10</title>
<g id="a_node10"><a xlink:href="classrare_1_1components_1_1tabs_1_1library_1_1widgets_1_1library__widget_1_1_library_widget.html#a1990ae73849da7538f16b24becb60023" target="_top" xlink:title=" ">
<polygon fill="white" stroke="black" points="257,-26 257,-56 458,-56 458,-26 257,-26"/>
<text text-anchor="start" x="265" y="-44" font-family="Helvetica,sans-Serif" font-size="10.00">rare.components.tabs.library.widgets.library</text>
<text text-anchor="middle" x="357.5" y="-33" font-family="Helvetica,sans-Serif" font-size="10.00">_widget.LibraryWidget.showProgress</text>
</a>
</g>
</g>
<!-- Node9&#45;&gt;Node10 -->
<g id="edge17" class="edge">
<title>Node9&#45;&gt;Node10</title>
<path fill="none" stroke="midnightblue" d="M495.13,-41C482.77,-41 470.23,-41 458.02,-41"/>
<polygon fill="midnightblue" stroke="midnightblue" points="495.45,-44.5 505.45,-41 495.45,-37.5 495.45,-44.5"/>
</g>
<!-- Node10&#45;&gt;Node10 -->
<g id="edge18" class="edge">
<title>Node10&#45;&gt;Node10</title>
<path fill="none" stroke="midnightblue" d="M401.61,-66.09C396.53,-71.01 381.82,-74.5 357.5,-74.5 318.58,-74.5 304.29,-65.56 314.63,-56.16"/>
<polygon fill="midnightblue" stroke="midnightblue" points="405.08,-65.65 400.37,-56.16 398.14,-66.52 405.08,-65.65"/>
</g>
<!-- Node11 -->
<g id="node11" class="node">
<title>Node11</title>
<g id="a_node11"><a xlink:href="classrare_1_1components_1_1tabs_1_1library_1_1widgets_1_1icon__game__widget_1_1_icon_game_widget.html#a7452c15bd2987cd55fca73d67d8d25cd" target="_top" xlink:title=" ">
<polygon fill="white" stroke="black" points="0,-57 0,-87 221,-87 221,-57 0,-57"/>
<text text-anchor="start" x="8" y="-75" font-family="Helvetica,sans-Serif" font-size="10.00">rare.components.tabs.library.widgets.icon</text>
<text text-anchor="middle" x="110.5" y="-64" font-family="Helvetica,sans-Serif" font-size="10.00">_game_widget.IconGameWidget.start_progress</text>
</a>
</g>
</g>
<!-- Node10&#45;&gt;Node11 -->
<g id="edge19" class="edge">
<title>Node10&#45;&gt;Node11</title>
<path fill="none" stroke="midnightblue" d="M246.84,-54.88C238.27,-55.96 229.62,-57.05 221.06,-58.14"/>
<polygon fill="midnightblue" stroke="midnightblue" points="247.37,-58.34 256.85,-53.61 246.49,-51.39 247.37,-58.34"/>
</g>
<!-- Node12 -->
<g id="node12" class="node">
<title>Node12</title>
<g id="a_node12"><a xlink:href="classrare_1_1components_1_1tabs_1_1library_1_1widgets_1_1list__game__widget_1_1_list_game_widget.html#a7452c15bd2987cd55fca73d67d8d25cd" target="_top" xlink:title=" ">
<polygon fill="white" stroke="black" points="71,-0.5 71,-19.5 150,-19.5 150,-0.5 71,-0.5"/>
<text text-anchor="middle" x="110.5" y="-7.5" font-family="Helvetica,sans-Serif" font-size="10.00">start_progress</text>
</a>
</g>
</g>
<!-- Node10&#45;&gt;Node12 -->
<g id="edge21" class="edge">
<title>Node10&#45;&gt;Node12</title>
<path fill="none" stroke="midnightblue" d="M246.68,-27.1C212.18,-22.74 176.33,-18.2 150.22,-14.9"/>
<polygon fill="midnightblue" stroke="midnightblue" points="246.49,-30.61 256.85,-28.39 247.37,-23.66 246.49,-30.61"/>
</g>
<!-- Node11&#45;&gt;Node11 -->
<g id="edge20" class="edge">
<title>Node11&#45;&gt;Node11</title>
<path fill="none" stroke="midnightblue" d="M154.61,-97.09C149.53,-102.01 134.82,-105.5 110.5,-105.5 71.58,-105.5 57.29,-96.56 67.63,-87.16"/>
<polygon fill="midnightblue" stroke="midnightblue" points="158.08,-96.65 153.37,-87.16 151.14,-97.52 158.08,-96.65"/>
</g>
<!-- Node12&#45;&gt;Node12 -->
<g id="edge22" class="edge">
<title>Node12&#45;&gt;Node12</title>
<path fill="none" stroke="midnightblue" d="M156.21,-25.82C159.4,-32.41 144.16,-38 110.5,-38 66.54,-38 54,-28.46 72.89,-19.61"/>
<polygon fill="midnightblue" stroke="midnightblue" points="158.18,-22.91 148.11,-19.61 153.92,-28.47 158.18,-22.91"/>
</g>
</g>
</svg>
