<?xml version="1.0" encoding="UTF-8" standalone="no"?>
<!DOCTYPE svg PUBLIC "-//W3C//DTD SVG 1.1//EN"
 "http://www.w3.org/Graphics/SVG/1.1/DTD/svg11.dtd">
<!-- Generated by graphviz version 2.49.3 (20211027.1534)
 -->
<!-- Title: check_for_update Pages: 1 -->
<svg width="248pt" height="46pt"
 viewBox="0.00 0.00 248.00 46.00" xmlns="http://www.w3.org/2000/svg" xmlns:xlink="http://www.w3.org/1999/xlink">
<g id="graph0" class="graph" transform="scale(1 1) rotate(0) translate(4 42)">
<title>check_for_update</title>
<polygon fill="white" stroke="transparent" points="-4,4 -4,-42 244,-42 244,4 -4,4"/>
<!-- Node1 -->
<g id="node1" class="node">
<title>Node1</title>
<g id="a_node1"><a xlink:title=" ">
<polygon fill="#bfbfbf" stroke="black" points="0,-0.5 0,-19.5 94,-19.5 94,-0.5 0,-0.5"/>
<text text-anchor="middle" x="47" y="-7.5" font-family="Helvetica,sans-Serif" font-size="10.00">check_for_update</text>
</a>
</g>
</g>
<!-- Node1&#45;&gt;Node1 -->
<g id="edge1" class="edge">
<title>Node1&#45;&gt;Node1</title>
<path fill="none" stroke="midnightblue" d="M25.73,-19.76C15.38,-28.57 22.47,-38 47,-38 62.71,-38 71.27,-34.13 72.67,-29.03"/>
<polygon fill="midnightblue" stroke="midnightblue" points="75.72,-27.29 68.27,-19.76 69.39,-30.29 75.72,-27.29"/>
</g>
<!-- Node2 -->
<g id="node2" class="node">
<title>Node2</title>
<g id="a_node2"><a xlink:href="namespacerare_1_1components.html#a019ee207f5c041fb0d2e61f76eafa958" target="_top" xlink:title=" ">
<polygon fill="white" stroke="black" points="130,-0.5 130,-19.5 240,-19.5 240,-0.5 130,-0.5"/>
<text text-anchor="middle" x="185" y="-7.5" font-family="Helvetica,sans-Serif" font-size="10.00">rare.components.start</text>
</a>
</g>
</g>
<!-- Node1&#45;&gt;Node2 -->
<g id="edge2" class="edge">
<title>Node1&#45;&gt;Node2</title>
<path fill="none" stroke="midnightblue" d="M94.04,-10C102.24,-10 110.91,-10 119.51,-10"/>
<polygon fill="midnightblue" stroke="midnightblue" points="119.54,-13.5 129.54,-10 119.54,-6.5 119.54,-13.5"/>
</g>
<!-- Node2&#45;&gt;Node2 -->
<g id="edge3" class="edge">
<title>Node2&#45;&gt;Node2</title>
<path fill="none" stroke="midnightblue" d="M163.73,-19.76C153.38,-28.57 160.47,-38 185,-38 200.71,-38 209.27,-34.13 210.67,-29.03"/>
<polygon fill="midnightblue" stroke="midnightblue" points="213.72,-27.29 206.27,-19.76 207.39,-30.29 213.72,-27.29"/>
</g>
</g>
</svg>
