<?xml version="1.0" encoding="UTF-8" standalone="no"?>
<!DOCTYPE svg PUBLIC "-//W3C//DTD SVG 1.1//EN"
 "http://www.w3.org/Graphics/SVG/1.1/DTD/svg11.dtd">
<!-- Generated by graphviz version 2.49.3 (20211027.1534)
 -->
<!-- Title: uninstall_finished Pages: 1 -->
<svg width="319pt" height="57pt"
 viewBox="0.00 0.00 319.00 57.00" xmlns="http://www.w3.org/2000/svg" xmlns:xlink="http://www.w3.org/1999/xlink">
<g id="graph0" class="graph" transform="scale(1 1) rotate(0) translate(4 53)">
<title>uninstall_finished</title>
<polygon fill="white" stroke="transparent" points="-4,4 -4,-53 315,-53 315,4 -4,4"/>
<!-- Node1 -->
<g id="node1" class="node">
<title>Node1</title>
<g id="a_node1"><a xlink:title=" ">
<polygon fill="#bfbfbf" stroke="black" points="0,-6 0,-25 91,-25 91,-6 0,-6"/>
<text text-anchor="middle" x="45.5" y="-13" font-family="Helvetica,sans-Serif" font-size="10.00">uninstall_finished</text>
</a>
</g>
</g>
<!-- Node1&#45;&gt;Node1 -->
<g id="edge3" class="edge">
<title>Node1&#45;&gt;Node1</title>
<path fill="none" stroke="midnightblue" d="M18.99,-25.26C6.09,-34.07 14.93,-43.5 45.5,-43.5 66.04,-43.5 76.77,-39.24 77.69,-33.77"/>
<polygon fill="midnightblue" stroke="midnightblue" points="80.47,-31.64 72.01,-25.26 74.64,-35.52 80.47,-31.64"/>
</g>
<!-- Node2 -->
<g id="node2" class="node">
<title>Node2</title>
<g id="a_node2"><a xlink:href="classrare_1_1components_1_1tabs_1_1games_1_1game__widgets_1_1game__widget_1_1_game_widget.html#aa660d748bc3a0c7c2dfaa15cee8e6ba6" target="_top" xlink:title=" ">
<polygon fill="white" stroke="black" points="127,-0.5 127,-30.5 311,-30.5 311,-0.5 127,-0.5"/>
<text text-anchor="start" x="135" y="-18.5" font-family="Helvetica,sans-Serif" font-size="10.00">rare.components.tabs.games.game</text>
<text text-anchor="middle" x="219" y="-7.5" font-family="Helvetica,sans-Serif" font-size="10.00">_widgets.game_widget.GameWidget.ui</text>
</a>
</g>
</g>
<!-- Node1&#45;&gt;Node2 -->
<g id="edge1" class="edge">
<title>Node1&#45;&gt;Node2</title>
<path fill="none" stroke="midnightblue" d="M91.11,-15.5C99.12,-15.5 107.75,-15.5 116.61,-15.5"/>
<polygon fill="midnightblue" stroke="midnightblue" points="116.69,-19 126.69,-15.5 116.69,-12 116.69,-19"/>
</g>
<!-- Node2&#45;&gt;Node2 -->
<g id="edge2" class="edge">
<title>Node2&#45;&gt;Node2</title>
<path fill="none" stroke="midnightblue" d="M189.03,-30.66C181.8,-40.06 191.79,-49 219,-49 235.58,-49 245.77,-45.68 249.56,-40.96"/>
<polygon fill="midnightblue" stroke="midnightblue" points="253.04,-40.44 248.97,-30.66 246.05,-40.84 253.04,-40.44"/>
</g>
</g>
</svg>
