<?xml version="1.0" encoding="UTF-8" standalone="no"?>
<!DOCTYPE svg PUBLIC "-//W3C//DTD SVG 1.1//EN"
 "http://www.w3.org/Graphics/SVG/1.1/DTD/svg11.dtd">
<!-- Generated by graphviz version 2.49.3 (20211027.1534)
 -->
<!-- Title: RPCSettings Pages: 1 -->
<svg width="81pt" height="182pt"
 viewBox="0.00 0.00 81.00 182.00" xmlns="http://www.w3.org/2000/svg" xmlns:xlink="http://www.w3.org/1999/xlink">
<g id="graph0" class="graph" transform="scale(1 1) rotate(0) translate(4 178)">
<title>RPCSettings</title>
<polygon fill="white" stroke="transparent" points="-4,4 -4,-178 77,-178 77,4 -4,4"/>
<!-- Node1 -->
<g id="node1" class="node">
<title>Node1</title>
<g id="a_node1"><a xlink:title=" ">
<polygon fill="#bfbfbf" stroke="black" points="0,-0.5 0,-79.5 73,-79.5 73,-0.5 0,-0.5"/>
<text text-anchor="middle" x="36.5" y="-67.5" font-family="Helvetica,sans-Serif" font-size="10.00">RPCSettings</text>
<polyline fill="none" stroke="black" points="0,-60.5 73,-60.5 "/>
<text text-anchor="start" x="8" y="-48.5" font-family="Helvetica,sans-Serif" font-size="10.00">+ ui</text>
<text text-anchor="start" x="8" y="-37.5" font-family="Helvetica,sans-Serif" font-size="10.00">+ signals</text>
<text text-anchor="start" x="8" y="-26.5" font-family="Helvetica,sans-Serif" font-size="10.00">+ settings</text>
<polyline fill="none" stroke="black" points="0,-19.5 73,-19.5 "/>
<text text-anchor="start" x="8" y="-7.5" font-family="Helvetica,sans-Serif" font-size="10.00">+ __init__()</text>
</a>
</g>
</g>
<!-- Node2 -->
<g id="node2" class="node">
<title>Node2</title>
<g id="a_node2"><a xlink:title=" ">
<polygon fill="white" stroke="#bfbfbf" points="3,-116.5 3,-173.5 70,-173.5 70,-116.5 3,-116.5"/>
<text text-anchor="middle" x="36.5" y="-161.5" font-family="Helvetica,sans-Serif" font-size="10.00">QGroupBox</text>
<polyline fill="none" stroke="#bfbfbf" points="3,-154.5 70,-154.5 "/>
<text text-anchor="middle" x="36.5" y="-142.5" font-family="Helvetica,sans-Serif" font-size="10.00"> </text>
<polyline fill="none" stroke="#bfbfbf" points="3,-135.5 70,-135.5 "/>
<text text-anchor="middle" x="36.5" y="-123.5" font-family="Helvetica,sans-Serif" font-size="10.00"> </text>
</a>
</g>
</g>
<!-- Node2&#45;&gt;Node1 -->
<g id="edge1" class="edge">
<title>Node2&#45;&gt;Node1</title>
<path fill="none" stroke="midnightblue" d="M36.5,-106.16C36.5,-97.47 36.5,-88.23 36.5,-79.52"/>
<polygon fill="none" stroke="midnightblue" points="33,-106.4 36.5,-116.4 40,-106.4 33,-106.4"/>
</g>
</g>
</svg>
