<?xml version="1.0" encoding="UTF-8" standalone="no"?>
<!DOCTYPE svg PUBLIC "-//W3C//DTD SVG 1.1//EN"
 "http://www.w3.org/Graphics/SVG/1.1/DTD/svg11.dtd">
<!-- Generated by graphviz version 2.49.3 (20211027.1534)
 -->
<!-- Title: show_game_info Pages: 1 -->
<svg width="456pt" height="46pt"
 viewBox="0.00 0.00 456.00 46.00" xmlns="http://www.w3.org/2000/svg" xmlns:xlink="http://www.w3.org/1999/xlink">
<g id="graph0" class="graph" transform="scale(1 1) rotate(0) translate(4 42)">
<title>show_game_info</title>
<polygon fill="white" stroke="transparent" points="-4,4 -4,-42 452,-42 452,4 -4,4"/>
<!-- Node1 -->
<g id="node1" class="node">
<title>Node1</title>
<g id="a_node1"><a xlink:title=" ">
<polygon fill="#bfbfbf" stroke="black" points="358,-0.5 358,-19.5 448,-19.5 448,-0.5 358,-0.5"/>
<text text-anchor="middle" x="403" y="-7.5" font-family="Helvetica,sans-Serif" font-size="10.00">show_game_info</text>
</a>
</g>
</g>
<!-- Node1&#45;&gt;Node1 -->
<g id="edge7" class="edge">
<title>Node1&#45;&gt;Node1</title>
<path fill="none" stroke="midnightblue" d="M426.81,-29.03C425.51,-34.13 417.57,-38 403,-38 380.25,-38 373.67,-28.57 383.27,-19.76"/>
<polygon fill="midnightblue" stroke="midnightblue" points="429.96,-27.5 422.73,-19.76 423.55,-30.32 429.96,-27.5"/>
</g>
<!-- Node2 -->
<g id="node2" class="node">
<title>Node2</title>
<g id="a_node2"><a xlink:href="classrare_1_1components_1_1tabs_1_1games_1_1_games_tab.html#a18eb918c38e326a54666699b7ba4b686" target="_top" xlink:title=" ">
<polygon fill="white" stroke="black" points="225,-0.5 225,-19.5 322,-19.5 322,-0.5 225,-0.5"/>
<text text-anchor="middle" x="273.5" y="-7.5" font-family="Helvetica,sans-Serif" font-size="10.00">add_library_widget</text>
</a>
</g>
</g>
<!-- Node1&#45;&gt;Node2 -->
<g id="edge1" class="edge">
<title>Node1&#45;&gt;Node2</title>
<path fill="none" stroke="midnightblue" d="M347.59,-10C339.13,-10 330.44,-10 322.13,-10"/>
<polygon fill="midnightblue" stroke="midnightblue" points="347.76,-13.5 357.76,-10 347.76,-6.5 347.76,-13.5"/>
</g>
<!-- Node2&#45;&gt;Node2 -->
<g id="edge2" class="edge">
<title>Node2&#45;&gt;Node2</title>
<path fill="none" stroke="midnightblue" d="M297.31,-29.03C296.01,-34.13 288.07,-38 273.5,-38 250.75,-38 244.17,-28.57 253.77,-19.76"/>
<polygon fill="midnightblue" stroke="midnightblue" points="300.46,-27.5 293.23,-19.76 294.05,-30.32 300.46,-27.5"/>
</g>
<!-- Node3 -->
<g id="node3" class="node">
<title>Node3</title>
<g id="a_node3"><a xlink:href="classrare_1_1components_1_1tabs_1_1games_1_1_games_tab.html#a37be1d1b33c53f64209fe3f0f70984a5" target="_top" xlink:title=" ">
<polygon fill="white" stroke="black" points="101,-0.5 101,-19.5 189,-19.5 189,-0.5 101,-0.5"/>
<text text-anchor="middle" x="145" y="-7.5" font-family="Helvetica,sans-Serif" font-size="10.00">setup_game_list</text>
</a>
</g>
</g>
<!-- Node2&#45;&gt;Node3 -->
<g id="edge3" class="edge">
<title>Node2&#45;&gt;Node3</title>
<path fill="none" stroke="midnightblue" d="M214.46,-10C206,-10 197.41,-10 189.32,-10"/>
<polygon fill="midnightblue" stroke="midnightblue" points="214.68,-13.5 224.68,-10 214.68,-6.5 214.68,-13.5"/>
</g>
<!-- Node3&#45;&gt;Node3 -->
<g id="edge4" class="edge">
<title>Node3&#45;&gt;Node3</title>
<path fill="none" stroke="midnightblue" d="M165.74,-29.4C164.35,-34.31 157.44,-38 145,-38 125.09,-38 119.34,-28.57 127.74,-19.76"/>
<polygon fill="midnightblue" stroke="midnightblue" points="168.95,-27.98 162.26,-19.76 162.36,-30.35 168.95,-27.98"/>
</g>
<!-- Node4 -->
<g id="node4" class="node">
<title>Node4</title>
<g id="a_node4"><a xlink:href="classrare_1_1components_1_1tabs_1_1games_1_1_games_tab.html#a5b6a943cccc85daffddbc61bb1b9345d" target="_top" xlink:title=" ">
<polygon fill="white" stroke="black" points="0,-0.5 0,-19.5 65,-19.5 65,-0.5 0,-0.5"/>
<text text-anchor="middle" x="32.5" y="-7.5" font-family="Helvetica,sans-Serif" font-size="10.00">showEvent</text>
</a>
</g>
</g>
<!-- Node3&#45;&gt;Node4 -->
<g id="edge5" class="edge">
<title>Node3&#45;&gt;Node4</title>
<path fill="none" stroke="midnightblue" d="M90.8,-10C82.08,-10 73.29,-10 65.3,-10"/>
<polygon fill="midnightblue" stroke="midnightblue" points="90.96,-13.5 100.96,-10 90.96,-6.5 90.96,-13.5"/>
</g>
<!-- Node4&#45;&gt;Node4 -->
<g id="edge6" class="edge">
<title>Node4&#45;&gt;Node4</title>
<path fill="none" stroke="midnightblue" d="M53.24,-29.4C51.85,-34.31 44.94,-38 32.5,-38 12.59,-38 6.84,-28.57 15.24,-19.76"/>
<polygon fill="midnightblue" stroke="midnightblue" points="56.45,-27.98 49.76,-19.76 49.86,-30.35 56.45,-27.98"/>
</g>
</g>
</svg>
