<?xml version="1.0" encoding="UTF-8" standalone="no"?>
<!DOCTYPE svg PUBLIC "-//W3C//DTD SVG 1.1//EN"
 "http://www.w3.org/Graphics/SVG/1.1/DTD/svg11.dtd">
<!-- Generated by graphviz version 2.49.3 (20211027.1534)
 -->
<!-- Title: compressed Pages: 1 -->
<svg width="234pt" height="57pt"
 viewBox="0.00 0.00 234.00 57.00" xmlns="http://www.w3.org/2000/svg" xmlns:xlink="http://www.w3.org/1999/xlink">
<g id="graph0" class="graph" transform="scale(1 1) rotate(0) translate(4 53)">
<title>compressed</title>
<polygon fill="white" stroke="transparent" points="-4,4 -4,-53 230,-53 230,4 -4,4"/>
<!-- Node1 -->
<g id="node1" class="node">
<title>Node1</title>
<g id="a_node1"><a xlink:title=" ">
<polygon fill="#bfbfbf" stroke="black" points="0,-6 0,-25 70,-25 70,-6 0,-6"/>
<text text-anchor="middle" x="35" y="-13" font-family="Helvetica,sans-Serif" font-size="10.00">compressed</text>
</a>
</g>
</g>
<!-- Node1&#45;&gt;Node1 -->
<g id="edge1" class="edge">
<title>Node1&#45;&gt;Node1</title>
<path fill="none" stroke="midnightblue" d="M14.96,-25.26C5.22,-34.07 11.89,-43.5 35,-43.5 49.8,-43.5 57.86,-39.63 59.18,-34.53"/>
<polygon fill="midnightblue" stroke="midnightblue" points="62.31,-32.96 55.04,-25.26 55.92,-35.81 62.31,-32.96"/>
</g>
<!-- Node2 -->
<g id="node2" class="node">
<title>Node2</title>
<g id="a_node2"><a xlink:href="classrare_1_1utils_1_1json__formatter_1_1_q_json_model.html#a7d491e435bf3631508f0a7c084acd162" target="_top" xlink:title=" ">
<polygon fill="white" stroke="black" points="106,-0.5 106,-30.5 226,-30.5 226,-0.5 106,-0.5"/>
<text text-anchor="start" x="114" y="-18.5" font-family="Helvetica,sans-Serif" font-size="10.00">rare.utils.json_formatter.</text>
<text text-anchor="middle" x="166" y="-7.5" font-family="Helvetica,sans-Serif" font-size="10.00">QJsonModel.flags</text>
</a>
</g>
</g>
<!-- Node1&#45;&gt;Node2 -->
<g id="edge2" class="edge">
<title>Node1&#45;&gt;Node2</title>
<path fill="none" stroke="midnightblue" d="M70.23,-15.5C78.06,-15.5 86.67,-15.5 95.4,-15.5"/>
<polygon fill="midnightblue" stroke="midnightblue" points="95.66,-19 105.66,-15.5 95.66,-12 95.66,-19"/>
</g>
<!-- Node2&#45;&gt;Node2 -->
<g id="edge3" class="edge">
<title>Node2&#45;&gt;Node2</title>
<path fill="none" stroke="midnightblue" d="M143.34,-30.66C137.88,-40.06 145.43,-49 166,-49 178.53,-49 186.23,-45.68 189.1,-40.96"/>
<polygon fill="midnightblue" stroke="midnightblue" points="192.58,-40.5 188.66,-30.66 185.59,-40.8 192.58,-40.5"/>
</g>
</g>
</svg>
