<?xml version="1.0" encoding="UTF-8" standalone="no"?>
<!DOCTYPE svg PUBLIC "-//W3C//DTD SVG 1.1//EN"
 "http://www.w3.org/Graphics/SVG/1.1/DTD/svg11.dtd">
<!-- Generated by graphviz version 2.49.3 (20211027.1534)
 -->
<!-- Title: run Pages: 1 -->
<!--zoomable 1160 -->
<svg id="main" version="1.1" xmlns="http://www.w3.org/2000/svg" xmlns:xlink="http://www.w3.org/1999/xlink" xml:space="preserve" onload="init(evt)">
<style type="text/css"><![CDATA[
.edge:hover path { stroke: red; }
.edge:hover polygon { stroke: red; fill: red; }
]]></style>
<script type="text/javascript"><![CDATA[
var edges = document.getElementsByTagName('g');
if (edges && edges.length) {
  for (var i=0;i<edges.length;i++) {
    if (edges[i].id.substr(0,4)=='edge') {
      edges[i].setAttribute('class','edge');
    }
  }
}
]]></script>
        <defs>
                <circle id="rim" cx="0" cy="0" r="7"/>
                <circle id="rim2" cx="0" cy="0" r="3.5"/>
                <g id="zoomPlus">
                        <use xlink:href="#rim" fill="#404040">
                                <set attributeName="fill" to="#808080" begin="zoomplus.mouseover" end="zoomplus.mouseout"/>
                        </use>
                        <path d="M-4,0h8M0,-4v8" fill="none" stroke="white" stroke-width="1.5" pointer-events="none"/>
                </g>
                <g id="zoomMin">
                        <use xlink:href="#rim" fill="#404040">
                                <set attributeName="fill" to="#808080" begin="zoomminus.mouseover" end="zoomminus.mouseout"/>
                        </use>
                        <path d="M-4,0h8" fill="none" stroke="white" stroke-width="1.5" pointer-events="none"/>
                </g>
                <g id="dirArrow">
                        <path fill="none" stroke="white" stroke-width="1.5" d="M0,-3.0v7 M-2.5,-0.5L0,-3.0L2.5,-0.5"/>
                </g>
               <g id="resetDef">
                       <use xlink:href="#rim2" fill="#404040">
                               <set attributeName="fill" to="#808080" begin="reset.mouseover" end="reset.mouseout"/>
                       </use>
               </g>
        </defs>

<script type="text/javascript">
var viewWidth = 907;
var viewHeight = 1160;
var sectionId = 'dynsection-4';
</script>
<script xlink:href="svgpan.js"/>
<svg id="graph" class="graph">
<g id="viewport">
<title>run</title>
<polygon fill="white" stroke="transparent" points="-4,4 -4,-1155.5 902.53,-1155.5 902.53,4 -4,4"/>
<!-- Node1 -->
<g id="node1" class="node">
<title>Node1</title>
<g id="a_node1"><a xlink:title=" ">
<polygon fill="#bfbfbf" stroke="black" points="10.53,-560.5 10.53,-579.5 40.53,-579.5 40.53,-560.5 10.53,-560.5"/>
<text text-anchor="middle" x="25.53" y="-567.5" font-family="Helvetica,sans-Serif" font-size="10.00">run</text>
</a>
</g>
</g>
<!-- Node1&#45;&gt;Node1 -->
<g id="edge1" class="edge">
<title>Node1&#45;&gt;Node1</title>
<path fill="none" stroke="midnightblue" d="M10.47,-575.91C-6.84,-585.56 -1.82,-598 25.53,-598 46.9,-598 54.64,-590.41 48.75,-582.48"/>
<polygon fill="midnightblue" stroke="midnightblue" points="50.58,-579.46 40.6,-575.91 46.19,-584.91 50.58,-579.46"/>
</g>
<!-- Node2 -->
<g id="node2" class="node">
<title>Node2</title>
<g id="a_node2"><a xlink:href="classrare_1_1components_1_1tabs_1_1games_1_1integrations_1_1ubisoft__group_1_1_ubi_get_info_worker.html#af7b7791c46880f0718ec315e290a9f28" target="_top" xlink:title=" ">
<polygon fill="white" stroke="black" points="278.53,-787 278.53,-817 503.53,-817 503.53,-787 278.53,-787"/>
<text text-anchor="start" x="286.53" y="-805" font-family="Helvetica,sans-Serif" font-size="10.00">rare.components.tabs.games.integrations.ubisoft</text>
<text text-anchor="middle" x="391.03" y="-794" font-family="Helvetica,sans-Serif" font-size="10.00">_group.UbiGetInfoWorker.run_real</text>
</a>
</g>
</g>
<!-- Node1&#45;&gt;Node2 -->
<g id="edge2" class="edge">
<title>Node1&#45;&gt;Node2</title>
<path fill="none" stroke="midnightblue" d="M28.09,-579.67C32.14,-601.84 44.96,-656.88 76.53,-689 128.03,-741.39 205.57,-769.61 270.65,-784.75"/>
<polygon fill="midnightblue" stroke="midnightblue" points="270.05,-788.2 280.57,-786.98 271.58,-781.37 270.05,-788.2"/>
</g>
<!-- Node4 -->
<g id="node4" class="node">
<title>Node4</title>
<g id="a_node4"><a xlink:href="classrare_1_1shared_1_1workers_1_1worker_1_1_worker.html#a9998d928f5b6f30ebb69dc655c0756a8" target="_top" xlink:title=" ">
<polygon fill="white" stroke="black" points="619.53,-591.5 619.53,-610.5 666.53,-610.5 666.53,-591.5 619.53,-591.5"/>
<text text-anchor="middle" x="643.03" y="-598.5" font-family="Helvetica,sans-Serif" font-size="10.00">signals</text>
</a>
</g>
</g>
<!-- Node1&#45;&gt;Node4 -->
<g id="edge78" class="edge">
<title>Node1&#45;&gt;Node4</title>
<path fill="none" stroke="midnightblue" d="M27.48,-579.73C31.51,-619.58 48.36,-769.92 76.53,-807 137.74,-887.57 180.24,-887.98 278.53,-912 375.67,-935.74 424.18,-972.85 503.53,-912 552.47,-874.48 515.88,-834.95 539.53,-778 565.09,-716.48 608.23,-650.08 629.46,-618.98"/>
<polygon fill="midnightblue" stroke="midnightblue" points="632.51,-620.73 635.3,-610.51 626.75,-616.76 632.51,-620.73"/>
</g>
<!-- Node5 -->
<g id="node5" class="node">
<title>Node5</title>
<g id="a_node5"><a xlink:href="classrare_1_1shared_1_1rare__core_1_1_rare_core.html#a135560fc58fcc2e5cff07ec25c23a06c" target="_top" xlink:title=" ">
<polygon fill="white" stroke="black" points="578.03,-480 578.03,-510 708.03,-510 708.03,-480 578.03,-480"/>
<text text-anchor="start" x="586.03" y="-498" font-family="Helvetica,sans-Serif" font-size="10.00">rare.shared.rare_core.Rare</text>
<text text-anchor="middle" x="643.03" y="-487" font-family="Helvetica,sans-Serif" font-size="10.00">Core.signals</text>
</a>
</g>
</g>
<!-- Node1&#45;&gt;Node5 -->
<g id="edge77" class="edge">
<title>Node1&#45;&gt;Node5</title>
<path fill="none" stroke="midnightblue" d="M26.46,-560.16C26.26,-507.52 27.94,-259.58 76.53,-205 138.18,-135.76 186.56,-164.65 278.53,-153 377.74,-140.44 420.61,-97.11 503.53,-153 613.01,-226.78 635.98,-403.39 640.78,-469.47"/>
<polygon fill="midnightblue" stroke="midnightblue" points="637.3,-470.03 641.44,-479.79 644.29,-469.59 637.3,-470.03"/>
</g>
<!-- Node6 -->
<g id="node6" class="node">
<title>Node6</title>
<g id="a_node6"><a xlink:href="classrare_1_1components_1_1tabs_1_1games_1_1integrations_1_1ubisoft__group_1_1_ubi_connect_worker.html#af7b7791c46880f0718ec315e290a9f28" target="_top" xlink:title=" ">
<polygon fill="white" stroke="black" points="278.53,-720 278.53,-750 503.53,-750 503.53,-720 278.53,-720"/>
<text text-anchor="start" x="286.53" y="-738" font-family="Helvetica,sans-Serif" font-size="10.00">rare.components.tabs.games.integrations.ubisoft</text>
<text text-anchor="middle" x="391.03" y="-727" font-family="Helvetica,sans-Serif" font-size="10.00">_group.UbiConnectWorker.run_real</text>
</a>
</g>
</g>
<!-- Node1&#45;&gt;Node6 -->
<g id="edge10" class="edge">
<title>Node1&#45;&gt;Node6</title>
<path fill="none" stroke="midnightblue" d="M30.96,-579.58C38.34,-594.55 54.56,-623.5 76.53,-640 132.21,-681.83 206.35,-705.37 268.55,-718.56"/>
<polygon fill="midnightblue" stroke="midnightblue" points="267.93,-722.01 278.43,-720.59 269.34,-715.15 267.93,-722.01"/>
</g>
<!-- Node7 -->
<g id="node7" class="node">
<title>Node7</title>
<g id="a_node7"><a xlink:href="classrare_1_1components_1_1tabs_1_1settings_1_1legendary_1_1_refresh_game_meta_worker.html#af7b7791c46880f0718ec315e290a9f28" target="_top" xlink:title=" ">
<polygon fill="white" stroke="black" points="295.03,-653 295.03,-683 487.03,-683 487.03,-653 295.03,-653"/>
<text text-anchor="start" x="303.03" y="-671" font-family="Helvetica,sans-Serif" font-size="10.00">rare.components.tabs.settings.legendary.</text>
<text text-anchor="middle" x="391.03" y="-660" font-family="Helvetica,sans-Serif" font-size="10.00">RefreshGameMetaWorker.run_real</text>
</a>
</g>
</g>
<!-- Node1&#45;&gt;Node7 -->
<g id="edge15" class="edge">
<title>Node1&#45;&gt;Node7</title>
<path fill="none" stroke="midnightblue" d="M38.13,-579.51C47.83,-586.99 62.32,-597.09 76.53,-603 143.02,-630.63 222.49,-646.95 284.78,-656.32"/>
<polygon fill="midnightblue" stroke="midnightblue" points="284.62,-659.83 295.02,-657.82 285.64,-652.9 284.62,-659.83"/>
</g>
<!-- Node8 -->
<g id="node8" class="node">
<title>Node8</title>
<g id="a_node8"><a xlink:href="classrare_1_1lgndr_1_1downloader_1_1mp_1_1manager_1_1_d_l_manager.html#a8ab35d074c65f417a6a0bf36e97bc7a8" target="_top" xlink:title=" ">
<polygon fill="white" stroke="black" points="76.53,-57 76.53,-87 242.53,-87 242.53,-57 76.53,-57"/>
<text text-anchor="start" x="84.53" y="-75" font-family="Helvetica,sans-Serif" font-size="10.00">rare.lgndr.downloader.mp.manager.</text>
<text text-anchor="middle" x="159.53" y="-64" font-family="Helvetica,sans-Serif" font-size="10.00">DLManager.run_real</text>
</a>
</g>
</g>
<!-- Node1&#45;&gt;Node8 -->
<g id="edge20" class="edge">
<title>Node1&#45;&gt;Node8</title>
<path fill="none" stroke="midnightblue" d="M26.46,-560.14C26.16,-501.27 27.09,-196.14 76.53,-120 84.2,-108.2 95.86,-98.93 108,-91.82"/>
<polygon fill="midnightblue" stroke="midnightblue" points="109.75,-94.86 116.88,-87.02 106.41,-88.7 109.75,-94.86"/>
</g>
<!-- Node9 -->
<g id="node9" class="node">
<title>Node9</title>
<g id="a_node9"><a xlink:href="classrare_1_1shared_1_1workers_1_1fetch_1_1_games_worker.html#a8ab35d074c65f417a6a0bf36e97bc7a8" target="_top" xlink:title=" ">
<polygon fill="white" stroke="black" points="327.03,-163 327.03,-193 455.03,-193 455.03,-163 327.03,-163"/>
<text text-anchor="start" x="335.03" y="-181" font-family="Helvetica,sans-Serif" font-size="10.00">rare.shared.workers.fetch.</text>
<text text-anchor="middle" x="391.03" y="-170" font-family="Helvetica,sans-Serif" font-size="10.00">GamesWorker.run_real</text>
</a>
</g>
</g>
<!-- Node1&#45;&gt;Node9 -->
<g id="edge22" class="edge">
<title>Node1&#45;&gt;Node9</title>
<path fill="none" stroke="midnightblue" d="M27.18,-560.32C30.17,-517.75 44.04,-347.52 76.53,-307 135.79,-233.11 244.44,-201.14 316.96,-187.59"/>
<polygon fill="midnightblue" stroke="midnightblue" points="317.72,-191.01 326.94,-185.8 316.48,-184.12 317.72,-191.01"/>
</g>
<!-- Node11 -->
<g id="node11" class="node">
<title>Node11</title>
<g id="a_node11"><a xlink:href="classrare_1_1shared_1_1workers_1_1fetch_1_1_non_asset_worker.html#a8ab35d074c65f417a6a0bf36e97bc7a8" target="_top" xlink:title=" ">
<polygon fill="white" stroke="black" points="327.03,-586 327.03,-616 455.03,-616 455.03,-586 327.03,-586"/>
<text text-anchor="start" x="335.03" y="-604" font-family="Helvetica,sans-Serif" font-size="10.00">rare.shared.workers.fetch.</text>
<text text-anchor="middle" x="391.03" y="-593" font-family="Helvetica,sans-Serif" font-size="10.00">NonAssetWorker.run_real</text>
</a>
</g>
</g>
<!-- Node1&#45;&gt;Node11 -->
<g id="edge29" class="edge">
<title>Node1&#45;&gt;Node11</title>
<path fill="none" stroke="midnightblue" d="M40.87,-573.76C50.81,-576.22 64.39,-579.29 76.53,-581 158.25,-592.53 252.9,-597.41 316.64,-599.48"/>
<polygon fill="midnightblue" stroke="midnightblue" points="316.89,-602.99 326.99,-599.8 317.11,-596 316.89,-602.99"/>
</g>
<!-- Node12 -->
<g id="node12" class="node">
<title>Node12</title>
<g id="a_node12"><a xlink:href="classrare_1_1shared_1_1workers_1_1install__info_1_1_install_info_worker.html#a8ab35d074c65f417a6a0bf36e97bc7a8" target="_top" xlink:title=" ">
<polygon fill="white" stroke="black" points="316.03,-854 316.03,-884 466.03,-884 466.03,-854 316.03,-854"/>
<text text-anchor="start" x="324.03" y="-872" font-family="Helvetica,sans-Serif" font-size="10.00">rare.shared.workers.install</text>
<text text-anchor="middle" x="391.03" y="-861" font-family="Helvetica,sans-Serif" font-size="10.00">_info.InstallInfoWorker.run_real</text>
</a>
</g>
</g>
<!-- Node1&#45;&gt;Node12 -->
<g id="edge34" class="edge">
<title>Node1&#45;&gt;Node12</title>
<path fill="none" stroke="midnightblue" d="M26.64,-579.63C27.46,-608.35 33.56,-694.56 76.53,-746 133.72,-814.46 234.1,-845.01 305.87,-858.52"/>
<polygon fill="midnightblue" stroke="midnightblue" points="305.34,-861.98 315.8,-860.31 306.59,-855.09 305.34,-861.98"/>
</g>
<!-- Node13 -->
<g id="node13" class="node">
<title>Node13</title>
<g id="a_node13"><a xlink:href="classrare_1_1shared_1_1workers_1_1move_1_1_move_worker.html#a8ab35d074c65f417a6a0bf36e97bc7a8" target="_top" xlink:title=" ">
<polygon fill="white" stroke="black" points="94.53,-524 94.53,-554 224.53,-554 224.53,-524 94.53,-524"/>
<text text-anchor="start" x="102.53" y="-542" font-family="Helvetica,sans-Serif" font-size="10.00">rare.shared.workers.move.</text>
<text text-anchor="middle" x="159.53" y="-531" font-family="Helvetica,sans-Serif" font-size="10.00">MoveWorker.run_real</text>
</a>
</g>
</g>
<!-- Node1&#45;&gt;Node13 -->
<g id="edge39" class="edge">
<title>Node1&#45;&gt;Node13</title>
<path fill="none" stroke="midnightblue" d="M40.66,-566.68C51.61,-564.11 67.71,-560.33 84.52,-556.38"/>
<polygon fill="midnightblue" stroke="midnightblue" points="85.53,-559.74 94.46,-554.05 83.93,-552.93 85.53,-559.74"/>
</g>
<!-- Node15 -->
<g id="node15" class="node">
<title>Node15</title>
<g id="a_node15"><a xlink:href="classrare_1_1shared_1_1workers_1_1uninstall_1_1_uninstall_worker.html#af7b7791c46880f0718ec315e290a9f28" target="_top" xlink:title=" ">
<polygon fill="white" stroke="black" points="320.03,-1036 320.03,-1066 462.03,-1066 462.03,-1036 320.03,-1036"/>
<text text-anchor="start" x="328.03" y="-1054" font-family="Helvetica,sans-Serif" font-size="10.00">rare.shared.workers.uninstall.</text>
<text text-anchor="middle" x="391.03" y="-1043" font-family="Helvetica,sans-Serif" font-size="10.00">UninstallWorker.run_real</text>
</a>
</g>
</g>
<!-- Node1&#45;&gt;Node15 -->
<g id="edge48" class="edge">
<title>Node1&#45;&gt;Node15</title>
<path fill="none" stroke="midnightblue" d="M26.9,-579.89C29.3,-643.1 43.91,-988.87 76.53,-1021 138.25,-1081.8 243.68,-1078.83 315.06,-1067.73"/>
<polygon fill="midnightblue" stroke="midnightblue" points="316.03,-1071.12 325.33,-1066.05 314.9,-1064.21 316.03,-1071.12"/>
</g>
<!-- Node20 -->
<g id="node20" class="node">
<title>Node20</title>
<g id="a_node20"><a xlink:href="classrare_1_1shared_1_1workers_1_1verify_1_1_verify_worker.html#a8ab35d074c65f417a6a0bf36e97bc7a8" target="_top" xlink:title=" ">
<polygon fill="white" stroke="black" points="95.03,-412 95.03,-442 224.03,-442 224.03,-412 95.03,-412"/>
<text text-anchor="start" x="103.03" y="-430" font-family="Helvetica,sans-Serif" font-size="10.00">rare.shared.workers.verify.</text>
<text text-anchor="middle" x="159.53" y="-419" font-family="Helvetica,sans-Serif" font-size="10.00">VerifyWorker.run_real</text>
</a>
</g>
</g>
<!-- Node1&#45;&gt;Node20 -->
<g id="edge61" class="edge">
<title>Node1&#45;&gt;Node20</title>
<path fill="none" stroke="midnightblue" d="M34.95,-560.42C44.82,-549.21 61.73,-530.14 76.53,-514 96.73,-491.98 120.14,-467.22 136.77,-449.76"/>
<polygon fill="midnightblue" stroke="midnightblue" points="139.52,-451.94 143.89,-442.28 134.46,-447.11 139.52,-451.94"/>
</g>
<!-- Node22 -->
<g id="node22" class="node">
<title>Node22</title>
<g id="a_node22"><a xlink:href="classrare_1_1shared_1_1workers_1_1wine__resolver_1_1_wine_resolver.html#a8ab35d074c65f417a6a0bf36e97bc7a8" target="_top" xlink:title=" ">
<polygon fill="white" stroke="black" points="313.53,-269 313.53,-299 468.53,-299 468.53,-269 313.53,-269"/>
<text text-anchor="start" x="321.53" y="-287" font-family="Helvetica,sans-Serif" font-size="10.00">rare.shared.workers.wine</text>
<text text-anchor="middle" x="391.03" y="-276" font-family="Helvetica,sans-Serif" font-size="10.00">_resolver.WineResolver.run_real</text>
</a>
</g>
</g>
<!-- Node1&#45;&gt;Node22 -->
<g id="edge71" class="edge">
<title>Node1&#45;&gt;Node22</title>
<path fill="none" stroke="midnightblue" d="M26.58,-560.21C27.23,-531.85 32.97,-448.76 76.53,-402 135.76,-338.43 232.63,-308.87 303.04,-295.27"/>
<polygon fill="midnightblue" stroke="midnightblue" points="304.03,-298.65 313.23,-293.38 302.76,-291.77 304.03,-298.65"/>
</g>
<!-- Node23 -->
<g id="node23" class="node">
<title>Node23</title>
<g id="a_node23"><a xlink:href="classrare_1_1shared_1_1workers_1_1worker_1_1_worker.html#a8ab35d074c65f417a6a0bf36e97bc7a8" target="_top" xlink:title=" ">
<polygon fill="white" stroke="black" points="134.03,-0.5 134.03,-19.5 185.03,-19.5 185.03,-0.5 134.03,-0.5"/>
<text text-anchor="middle" x="159.53" y="-7.5" font-family="Helvetica,sans-Serif" font-size="10.00">run_real</text>
</a>
</g>
</g>
<!-- Node1&#45;&gt;Node23 -->
<g id="edge75" class="edge">
<title>Node1&#45;&gt;Node23</title>
<path fill="none" stroke="midnightblue" d="M26.87,-560.47C29.35,-493.15 45.41,-90.49 76.53,-47 87.7,-31.39 107.04,-22.24 124.14,-16.95"/>
<polygon fill="midnightblue" stroke="midnightblue" points="125.16,-20.3 133.86,-14.26 123.29,-13.55 125.16,-20.3"/>
</g>
<!-- Node2&#45;&gt;Node2 -->
<g id="edge5" class="edge">
<title>Node2&#45;&gt;Node2</title>
<path fill="none" stroke="midnightblue" d="M350.95,-817.16C341.29,-826.56 354.65,-835.5 391.03,-835.5 413.78,-835.5 427.52,-832.01 432.27,-827.09"/>
<polygon fill="midnightblue" stroke="midnightblue" points="435.75,-826.69 431.12,-817.16 428.8,-827.5 435.75,-826.69"/>
</g>
<!-- Node3 -->
<g id="node3" class="node">
<title>Node3</title>
<g id="a_node3"><a xlink:href="classrare_1_1shared_1_1rare__core_1_1_rare_core.html#a405e1a4f20f16120f872ccd2654a1d56" target="_top" xlink:title=" ">
<polygon fill="white" stroke="black" points="578.03,-787 578.03,-817 708.03,-817 708.03,-787 578.03,-787"/>
<text text-anchor="start" x="586.03" y="-805" font-family="Helvetica,sans-Serif" font-size="10.00">rare.shared.rare_core.Rare</text>
<text text-anchor="middle" x="643.03" y="-794" font-family="Helvetica,sans-Serif" font-size="10.00">Core.core</text>
</a>
</g>
</g>
<!-- Node2&#45;&gt;Node3 -->
<g id="edge3" class="edge">
<title>Node2&#45;&gt;Node3</title>
<path fill="none" stroke="midnightblue" d="M503.87,-802C525.46,-802 547.58,-802 567.61,-802"/>
<polygon fill="midnightblue" stroke="midnightblue" points="567.88,-805.5 577.88,-802 567.88,-798.5 567.88,-805.5"/>
</g>
<!-- Node2&#45;&gt;Node4 -->
<g id="edge6" class="edge">
<title>Node2&#45;&gt;Node4</title>
<path fill="none" stroke="midnightblue" d="M485.85,-786.99C492.03,-784.44 498,-781.47 503.53,-778 567.92,-737.68 614.48,-656.31 633.09,-619.65"/>
<polygon fill="midnightblue" stroke="midnightblue" points="636.28,-621.09 637.59,-610.57 630.01,-617.98 636.28,-621.09"/>
</g>
<!-- Node2&#45;&gt;Node5 -->
<g id="edge8" class="edge">
<title>Node2&#45;&gt;Node5</title>
<path fill="none" stroke="midnightblue" d="M492.62,-787C496.56,-784.39 500.22,-781.41 503.53,-778 565.2,-714.43 495.19,-658.67 539.53,-582 555.7,-554.05 584.32,-530.9 607.22,-515.53"/>
<polygon fill="midnightblue" stroke="midnightblue" points="609.2,-518.41 615.68,-510.03 605.39,-512.55 609.2,-518.41"/>
</g>
<!-- Node3&#45;&gt;Node3 -->
<g id="edge4" class="edge">
<title>Node3&#45;&gt;Node3</title>
<path fill="none" stroke="midnightblue" d="M608.88,-817.16C600.64,-826.56 612.03,-835.5 643.03,-835.5 661.93,-835.5 673.54,-832.18 677.86,-827.46"/>
<polygon fill="midnightblue" stroke="midnightblue" points="681.33,-826.91 677.19,-817.16 674.35,-827.37 681.33,-826.91"/>
</g>
<!-- Node4&#45;&gt;Node4 -->
<g id="edge7" class="edge">
<title>Node4&#45;&gt;Node4</title>
<path fill="none" stroke="midnightblue" d="M619.24,-607.61C596.06,-617.15 603.99,-629 643.03,-629 675.67,-629 686.57,-620.72 675.73,-612.43"/>
<polygon fill="midnightblue" stroke="midnightblue" points="677.29,-609.29 666.83,-607.61 673.95,-615.45 677.29,-609.29"/>
</g>
<!-- Node5&#45;&gt;Node5 -->
<g id="edge9" class="edge">
<title>Node5&#45;&gt;Node5</title>
<path fill="none" stroke="midnightblue" d="M608.88,-510.16C600.64,-519.56 612.03,-528.5 643.03,-528.5 661.93,-528.5 673.54,-525.18 677.86,-520.46"/>
<polygon fill="midnightblue" stroke="midnightblue" points="681.33,-519.91 677.19,-510.16 674.35,-520.37 681.33,-519.91"/>
</g>
<!-- Node6&#45;&gt;Node3 -->
<g id="edge11" class="edge">
<title>Node6&#45;&gt;Node3</title>
<path fill="none" stroke="midnightblue" d="M448.14,-750.04C485.96,-760.17 536.02,-773.59 575.81,-784.25"/>
<polygon fill="midnightblue" stroke="midnightblue" points="575.12,-787.69 585.68,-786.9 576.93,-780.93 575.12,-787.69"/>
</g>
<!-- Node6&#45;&gt;Node4 -->
<g id="edge13" class="edge">
<title>Node6&#45;&gt;Node4</title>
<path fill="none" stroke="midnightblue" d="M480.34,-719.99C488.35,-717.44 496.19,-714.47 503.53,-711 553.42,-687.42 601.51,-642.75 625.75,-618.21"/>
<polygon fill="midnightblue" stroke="midnightblue" points="628.56,-620.33 633.02,-610.72 623.54,-615.46 628.56,-620.33"/>
</g>
<!-- Node6&#45;&gt;Node5 -->
<g id="edge14" class="edge">
<title>Node6&#45;&gt;Node5</title>
<path fill="none" stroke="midnightblue" d="M491.75,-719.93C495.97,-717.35 499.93,-714.39 503.53,-711 546.87,-670.19 507.43,-632.13 539.53,-582 557.06,-554.64 585.83,-531.31 608.44,-515.71"/>
<polygon fill="midnightblue" stroke="midnightblue" points="610.42,-518.6 616.77,-510.12 606.52,-512.79 610.42,-518.6"/>
</g>
<!-- Node6&#45;&gt;Node6 -->
<g id="edge12" class="edge">
<title>Node6&#45;&gt;Node6</title>
<path fill="none" stroke="midnightblue" d="M350.95,-750.16C341.29,-759.56 354.65,-768.5 391.03,-768.5 413.78,-768.5 427.52,-765.01 432.27,-760.09"/>
<polygon fill="midnightblue" stroke="midnightblue" points="435.75,-759.69 431.12,-750.16 428.8,-760.5 435.75,-759.69"/>
</g>
<!-- Node7&#45;&gt;Node3 -->
<g id="edge16" class="edge">
<title>Node7&#45;&gt;Node3</title>
<path fill="none" stroke="midnightblue" d="M437.48,-683.03C458.08,-690.48 482.5,-700.19 503.53,-711 543.48,-731.53 586.21,-760.86 613.47,-780.62"/>
<polygon fill="midnightblue" stroke="midnightblue" points="611.62,-783.6 621.76,-786.68 615.75,-777.95 611.62,-783.6"/>
</g>
<!-- Node7&#45;&gt;Node4 -->
<g id="edge18" class="edge">
<title>Node7&#45;&gt;Node4</title>
<path fill="none" stroke="midnightblue" d="M462.71,-652.98C476.3,-649.86 490.39,-646.46 503.53,-643 540.11,-633.37 581.55,-620.54 609.5,-611.61"/>
<polygon fill="midnightblue" stroke="midnightblue" points="610.7,-614.9 619.15,-608.51 608.55,-608.24 610.7,-614.9"/>
</g>
<!-- Node7&#45;&gt;Node5 -->
<g id="edge19" class="edge">
<title>Node7&#45;&gt;Node5</title>
<path fill="none" stroke="midnightblue" d="M486.4,-652.91C492.46,-650.13 498.24,-646.85 503.53,-643 528.99,-624.48 519.25,-606.08 539.53,-582 560.91,-556.63 590.14,-532.61 611.92,-516.27"/>
<polygon fill="midnightblue" stroke="midnightblue" points="614.2,-518.93 620.17,-510.18 610.04,-513.3 614.2,-518.93"/>
</g>
<!-- Node7&#45;&gt;Node7 -->
<g id="edge17" class="edge">
<title>Node7&#45;&gt;Node7</title>
<path fill="none" stroke="midnightblue" d="M350.95,-683.16C341.29,-692.56 354.65,-701.5 391.03,-701.5 413.78,-701.5 427.52,-698.01 432.27,-693.09"/>
<polygon fill="midnightblue" stroke="midnightblue" points="435.75,-692.69 431.12,-683.16 428.8,-693.5 435.75,-692.69"/>
</g>
<!-- Node8&#45;&gt;Node8 -->
<g id="edge21" class="edge">
<title>Node8&#45;&gt;Node8</title>
<path fill="none" stroke="midnightblue" d="M136.18,-87.16C130.55,-96.56 138.33,-105.5 159.53,-105.5 172.45,-105.5 180.39,-102.18 183.34,-97.46"/>
<polygon fill="midnightblue" stroke="midnightblue" points="186.83,-96.99 182.89,-87.16 179.83,-97.3 186.83,-96.99"/>
</g>
<!-- Node9&#45;&gt;Node3 -->
<g id="edge25" class="edge">
<title>Node9&#45;&gt;Node3</title>
<path fill="none" stroke="midnightblue" d="M426.24,-193.07C452.16,-206.43 486.16,-228.56 503.53,-259 587.4,-405.95 485.24,-477.74 539.53,-638 558.24,-693.23 598.74,-749 622.85,-779.16"/>
<polygon fill="midnightblue" stroke="midnightblue" points="620.17,-781.41 629.19,-786.97 625.61,-777 620.17,-781.41"/>
</g>
<!-- Node9&#45;&gt;Node4 -->
<g id="edge27" class="edge">
<title>Node9&#45;&gt;Node4</title>
<path fill="none" stroke="midnightblue" d="M425.7,-193.1C451.48,-206.54 485.58,-228.75 503.53,-259 567.12,-366.14 472.23,-432.16 539.53,-537 555.9,-562.49 586.4,-579.58 609.9,-589.65"/>
<polygon fill="midnightblue" stroke="midnightblue" points="608.89,-593.01 619.47,-593.53 611.52,-586.53 608.89,-593.01"/>
</g>
<!-- Node9&#45;&gt;Node5 -->
<g id="edge28" class="edge">
<title>Node9&#45;&gt;Node5</title>
<path fill="none" stroke="midnightblue" d="M446.9,-193.07C466.51,-200.53 487.66,-211.19 503.53,-226 579.34,-296.75 620.59,-418.33 635.5,-470.29"/>
<polygon fill="midnightblue" stroke="midnightblue" points="632.15,-471.31 638.21,-480 638.89,-469.42 632.15,-471.31"/>
</g>
<!-- Node9&#45;&gt;Node9 -->
<g id="edge26" class="edge">
<title>Node9&#45;&gt;Node9</title>
<path fill="none" stroke="midnightblue" d="M350.95,-193.16C341.29,-202.56 354.65,-211.5 391.03,-211.5 413.78,-211.5 427.52,-208.01 432.27,-203.09"/>
<polygon fill="midnightblue" stroke="midnightblue" points="435.75,-202.69 431.12,-193.16 428.8,-203.5 435.75,-202.69"/>
</g>
<!-- Node10 -->
<g id="node10" class="node">
<title>Node10</title>
<g id="a_node10"><a xlink:href="classrare_1_1shared_1_1rare__core_1_1_rare_core.html#a673cb72b40e8c1b2dfab6dbc0e0e39e4" target="_top" xlink:title=" ">
<polygon fill="white" stroke="black" points="578.03,-122 578.03,-152 708.03,-152 708.03,-122 578.03,-122"/>
<text text-anchor="start" x="586.03" y="-140" font-family="Helvetica,sans-Serif" font-size="10.00">rare.shared.rare_core.Rare</text>
<text text-anchor="middle" x="643.03" y="-129" font-family="Helvetica,sans-Serif" font-size="10.00">Core.args</text>
</a>
</g>
</g>
<!-- Node9&#45;&gt;Node10 -->
<g id="edge23" class="edge">
<title>Node9&#45;&gt;Node10</title>
<path fill="none" stroke="midnightblue" d="M455.12,-167.65C489.36,-162.04 531.9,-155.06 567.74,-149.18"/>
<polygon fill="midnightblue" stroke="midnightblue" points="568.36,-152.63 577.66,-147.56 567.23,-145.72 568.36,-152.63"/>
</g>
<!-- Node10&#45;&gt;Node10 -->
<g id="edge24" class="edge">
<title>Node10&#45;&gt;Node10</title>
<path fill="none" stroke="midnightblue" d="M608.88,-152.16C600.64,-161.56 612.03,-170.5 643.03,-170.5 661.93,-170.5 673.54,-167.18 677.86,-162.46"/>
<polygon fill="midnightblue" stroke="midnightblue" points="681.33,-161.91 677.19,-152.16 674.35,-162.37 681.33,-161.91"/>
</g>
<!-- Node11&#45;&gt;Node3 -->
<g id="edge30" class="edge">
<title>Node11&#45;&gt;Node3</title>
<path fill="none" stroke="midnightblue" d="M448,-616.03C466.64,-622.57 486.89,-631.43 503.53,-643 557.63,-680.58 604.1,-743.88 626.94,-778.18"/>
<polygon fill="midnightblue" stroke="midnightblue" points="624.08,-780.19 632.49,-786.64 629.93,-776.36 624.08,-780.19"/>
</g>
<!-- Node11&#45;&gt;Node4 -->
<g id="edge33" class="edge">
<title>Node11&#45;&gt;Node4</title>
<path fill="none" stroke="midnightblue" d="M455.12,-601C504.17,-601 570.24,-601 609.27,-601"/>
<polygon fill="midnightblue" stroke="midnightblue" points="609.52,-604.5 619.52,-601 609.52,-597.5 609.52,-604.5"/>
</g>
<!-- Node11&#45;&gt;Node5 -->
<g id="edge32" class="edge">
<title>Node11&#45;&gt;Node5</title>
<path fill="none" stroke="midnightblue" d="M427.59,-585.93C472.2,-567.01 548.73,-534.56 597.28,-513.97"/>
<polygon fill="midnightblue" stroke="midnightblue" points="598.76,-517.15 606.6,-510.02 596.03,-510.7 598.76,-517.15"/>
</g>
<!-- Node11&#45;&gt;Node11 -->
<g id="edge31" class="edge">
<title>Node11&#45;&gt;Node11</title>
<path fill="none" stroke="midnightblue" d="M350.95,-616.16C341.29,-625.56 354.65,-634.5 391.03,-634.5 413.78,-634.5 427.52,-631.01 432.27,-626.09"/>
<polygon fill="midnightblue" stroke="midnightblue" points="435.75,-625.69 431.12,-616.16 428.8,-626.5 435.75,-625.69"/>
</g>
<!-- Node12&#45;&gt;Node3 -->
<g id="edge35" class="edge">
<title>Node12&#45;&gt;Node3</title>
<path fill="none" stroke="midnightblue" d="M466.32,-853.97C478.79,-851.18 491.56,-848.14 503.53,-845 531.38,-837.7 561.97,-828.34 587.31,-820.22"/>
<polygon fill="midnightblue" stroke="midnightblue" points="588.66,-823.46 597.1,-817.06 586.51,-816.8 588.66,-823.46"/>
</g>
<!-- Node12&#45;&gt;Node4 -->
<g id="edge37" class="edge">
<title>Node12&#45;&gt;Node4</title>
<path fill="none" stroke="midnightblue" d="M466.12,-862.44C479.48,-858.74 492.61,-853.21 503.53,-845 530.55,-824.68 523.06,-807.52 539.53,-778 572.15,-719.55 612.31,-651.21 631.22,-619.24"/>
<polygon fill="midnightblue" stroke="midnightblue" points="634.29,-620.92 636.37,-610.53 628.26,-617.35 634.29,-620.92"/>
</g>
<!-- Node12&#45;&gt;Node5 -->
<g id="edge38" class="edge">
<title>Node12&#45;&gt;Node5</title>
<path fill="none" stroke="midnightblue" d="M466.15,-866.07C480.24,-862.2 493.64,-855.67 503.53,-845 583.73,-758.47 482.81,-685.45 539.53,-582 554.96,-553.87 583.36,-530.87 606.37,-515.6"/>
<polygon fill="midnightblue" stroke="midnightblue" points="608.36,-518.48 614.88,-510.13 604.58,-512.59 608.36,-518.48"/>
</g>
<!-- Node12&#45;&gt;Node12 -->
<g id="edge36" class="edge">
<title>Node12&#45;&gt;Node12</title>
<path fill="none" stroke="midnightblue" d="M350.95,-884.16C341.29,-893.56 354.65,-902.5 391.03,-902.5 413.78,-902.5 427.52,-899.01 432.27,-894.09"/>
<polygon fill="midnightblue" stroke="midnightblue" points="435.75,-893.69 431.12,-884.16 428.8,-894.5 435.75,-893.69"/>
</g>
<!-- Node13&#45;&gt;Node3 -->
<g id="edge40" class="edge">
<title>Node13&#45;&gt;Node3</title>
<path fill="none" stroke="midnightblue" d="M162.52,-554.13C171.75,-621.82 212.79,-895.64 278.53,-945 358.51,-1005.04 411.45,-984.01 503.53,-945 560.84,-920.72 606.05,-859.85 627.83,-825.87"/>
<polygon fill="midnightblue" stroke="midnightblue" points="631.01,-827.39 633.34,-817.05 625.08,-823.68 631.01,-827.39"/>
</g>
<!-- Node13&#45;&gt;Node4 -->
<g id="edge46" class="edge">
<title>Node13&#45;&gt;Node4</title>
<path fill="none" stroke="midnightblue" d="M224.55,-544.53C293.58,-550.82 406.61,-562.04 503.53,-576 539.77,-581.22 581.05,-588.89 609.04,-594.36"/>
<polygon fill="midnightblue" stroke="midnightblue" points="608.59,-597.84 619.08,-596.34 609.94,-590.97 608.59,-597.84"/>
</g>
<!-- Node13&#45;&gt;Node5 -->
<g id="edge47" class="edge">
<title>Node13&#45;&gt;Node5</title>
<path fill="none" stroke="midnightblue" d="M179.14,-523.84C201.26,-506.88 240.05,-480.43 278.53,-470 379.71,-442.59 502.2,-461.14 576.03,-477.63"/>
<polygon fill="midnightblue" stroke="midnightblue" points="575.59,-481.12 586.12,-479.94 577.15,-474.3 575.59,-481.12"/>
</g>
<!-- Node13&#45;&gt;Node13 -->
<g id="edge45" class="edge">
<title>Node13&#45;&gt;Node13</title>
<path fill="none" stroke="midnightblue" d="M136.18,-554.16C130.55,-563.56 138.33,-572.5 159.53,-572.5 172.45,-572.5 180.39,-569.18 183.34,-564.46"/>
<polygon fill="midnightblue" stroke="midnightblue" points="186.83,-563.99 182.89,-554.16 179.83,-564.3 186.83,-563.99"/>
</g>
<!-- Node14 -->
<g id="node14" class="node">
<title>Node14</title>
<g id="a_node14"><a xlink:href="classrare_1_1shared_1_1workers_1_1move_1_1_move_worker.html#a0f9f88b07029d9ad56e4b094074fe596" target="_top" xlink:title=" ">
<polygon fill="white" stroke="black" points="326.03,-480 326.03,-510 456.03,-510 456.03,-480 326.03,-480"/>
<text text-anchor="start" x="334.03" y="-498" font-family="Helvetica,sans-Serif" font-size="10.00">rare.shared.workers.move.</text>
<text text-anchor="middle" x="391.03" y="-487" font-family="Helvetica,sans-Serif" font-size="10.00">MoveWorker.progress</text>
</a>
</g>
</g>
<!-- Node13&#45;&gt;Node14 -->
<g id="edge41" class="edge">
<title>Node13&#45;&gt;Node14</title>
<path fill="none" stroke="midnightblue" d="M224.77,-526.69C253,-521.27 286.33,-514.88 315.63,-509.26"/>
<polygon fill="midnightblue" stroke="midnightblue" points="316.65,-512.63 325.82,-507.31 315.34,-505.76 316.65,-512.63"/>
</g>
<!-- Node14&#45;&gt;Node4 -->
<g id="edge43" class="edge">
<title>Node14&#45;&gt;Node4</title>
<path fill="none" stroke="midnightblue" d="M427.59,-510.07C476.42,-530.78 563.49,-567.7 610.26,-587.53"/>
<polygon fill="midnightblue" stroke="midnightblue" points="609.02,-590.8 619.59,-591.49 611.75,-584.36 609.02,-590.8"/>
</g>
<!-- Node14&#45;&gt;Node5 -->
<g id="edge44" class="edge">
<title>Node14&#45;&gt;Node5</title>
<path fill="none" stroke="midnightblue" d="M456.09,-495C490.06,-495 531.98,-495 567.42,-495"/>
<polygon fill="midnightblue" stroke="midnightblue" points="567.71,-498.5 577.71,-495 567.71,-491.5 567.71,-498.5"/>
</g>
<!-- Node14&#45;&gt;Node14 -->
<g id="edge42" class="edge">
<title>Node14&#45;&gt;Node14</title>
<path fill="none" stroke="midnightblue" d="M350.95,-510.16C341.29,-519.56 354.65,-528.5 391.03,-528.5 413.78,-528.5 427.52,-525.01 432.27,-520.09"/>
<polygon fill="midnightblue" stroke="midnightblue" points="435.75,-519.69 431.12,-510.16 428.8,-520.5 435.75,-519.69"/>
</g>
<!-- Node15&#45;&gt;Node3 -->
<g id="edge49" class="edge">
<title>Node15&#45;&gt;Node3</title>
<path fill="none" stroke="midnightblue" d="M462.28,-1040.59C476.85,-1036.18 491.43,-1029.92 503.53,-1021 573.07,-969.78 616.2,-872.22 633.43,-826.63"/>
<polygon fill="midnightblue" stroke="midnightblue" points="636.72,-827.81 636.89,-817.22 630.15,-825.39 636.72,-827.81"/>
</g>
<!-- Node15&#45;&gt;Node4 -->
<g id="edge51" class="edge">
<title>Node15&#45;&gt;Node4</title>
<path fill="none" stroke="midnightblue" d="M462.26,-1045.03C477.79,-1040.49 492.8,-1033.05 503.53,-1021 576.14,-939.46 503.54,-881.07 539.53,-778 561.39,-715.41 605.88,-649.98 628.37,-619.14"/>
<polygon fill="midnightblue" stroke="midnightblue" points="631.46,-620.84 634.59,-610.72 625.83,-616.68 631.46,-620.84"/>
</g>
<!-- Node15&#45;&gt;Node5 -->
<g id="edge52" class="edge">
<title>Node15&#45;&gt;Node5</title>
<path fill="none" stroke="midnightblue" d="M409.2,-1035.91C434.73,-1012.33 482,-964.03 503.53,-912 559.95,-775.67 470.38,-712.33 539.53,-582 554.57,-553.66 583.01,-530.68 606.12,-515.46"/>
<polygon fill="midnightblue" stroke="midnightblue" points="608.12,-518.34 614.68,-510.02 604.36,-512.43 608.12,-518.34"/>
</g>
<!-- Node15&#45;&gt;Node15 -->
<g id="edge50" class="edge">
<title>Node15&#45;&gt;Node15</title>
<path fill="none" stroke="midnightblue" d="M350.95,-1066.16C341.29,-1075.56 354.65,-1084.5 391.03,-1084.5 413.78,-1084.5 427.52,-1081.01 432.27,-1076.09"/>
<polygon fill="midnightblue" stroke="midnightblue" points="435.75,-1075.69 431.12,-1066.16 428.8,-1076.5 435.75,-1075.69"/>
</g>
<!-- Node16 -->
<g id="node16" class="node">
<title>Node16</title>
<g id="a_node16"><a xlink:href="namespacerare_1_1shared_1_1workers_1_1uninstall.html#ac0632a3df590708b928b093906d1afda" target="_top" xlink:title=" ">
<polygon fill="white" stroke="black" points="539.53,-1041.5 539.53,-1060.5 746.53,-1060.5 746.53,-1041.5 539.53,-1041.5"/>
<text text-anchor="middle" x="643.03" y="-1048.5" font-family="Helvetica,sans-Serif" font-size="10.00">rare.shared.workers.uninstall.uninstall_game</text>
</a>
</g>
</g>
<!-- Node15&#45;&gt;Node16 -->
<g id="edge53" class="edge">
<title>Node15&#45;&gt;Node16</title>
<path fill="none" stroke="midnightblue" d="M462.34,-1051C483.1,-1051 506.36,-1051 529.09,-1051"/>
<polygon fill="midnightblue" stroke="midnightblue" points="529.13,-1054.5 539.13,-1051 529.13,-1047.5 529.13,-1054.5"/>
</g>
<!-- Node16&#45;&gt;Node16 -->
<g id="edge60" class="edge">
<title>Node16&#45;&gt;Node16</title>
<path fill="none" stroke="midnightblue" d="M612.82,-1060.76C598.13,-1069.57 608.2,-1079 643.03,-1079 667.53,-1079 679.78,-1074.34 679.78,-1068.5"/>
<polygon fill="midnightblue" stroke="midnightblue" points="682.37,-1066.14 673.24,-1060.76 677.02,-1070.66 682.37,-1066.14"/>
</g>
<!-- Node17 -->
<g id="node17" class="node">
<title>Node17</title>
<g id="a_node17"><a xlink:href="namespacerare_1_1utils_1_1paths.html#ac2e6ac6baa5376d3ea5aa8b63e2af2bd" target="_top" xlink:title="Creates the path of a shortcut link.">
<polygon fill="white" stroke="black" points="782.53,-1103 782.53,-1133 898.53,-1133 898.53,-1103 782.53,-1103"/>
<text text-anchor="start" x="790.53" y="-1121" font-family="Helvetica,sans-Serif" font-size="10.00">rare.utils.paths.desktop</text>
<text text-anchor="middle" x="840.53" y="-1110" font-family="Helvetica,sans-Serif" font-size="10.00">_link_path</text>
</a>
</g>
</g>
<!-- Node16&#45;&gt;Node17 -->
<g id="edge54" class="edge">
<title>Node16&#45;&gt;Node17</title>
<path fill="none" stroke="midnightblue" d="M672.04,-1060.6C701.7,-1070.76 749.23,-1087.05 786.09,-1099.69"/>
<polygon fill="midnightblue" stroke="midnightblue" points="785.11,-1103.05 795.7,-1102.98 787.38,-1096.43 785.11,-1103.05"/>
</g>
<!-- Node18 -->
<g id="node18" class="node">
<title>Node18</title>
<g id="a_node18"><a xlink:href="namespacerare_1_1utils_1_1paths.html#a87c539910fdff3dd0e2b1ee7c12bd1b7" target="_top" xlink:title=" ">
<polygon fill="white" stroke="black" points="782.53,-1036 782.53,-1066 898.53,-1066 898.53,-1036 782.53,-1036"/>
<text text-anchor="start" x="790.53" y="-1054" font-family="Helvetica,sans-Serif" font-size="10.00">rare.utils.paths.desktop</text>
<text text-anchor="middle" x="840.53" y="-1043" font-family="Helvetica,sans-Serif" font-size="10.00">_link_types</text>
</a>
</g>
</g>
<!-- Node16&#45;&gt;Node18 -->
<g id="edge56" class="edge">
<title>Node16&#45;&gt;Node18</title>
<path fill="none" stroke="midnightblue" d="M746.65,-1051C755.27,-1051 763.84,-1051 772.09,-1051"/>
<polygon fill="midnightblue" stroke="midnightblue" points="772.35,-1054.5 782.35,-1051 772.35,-1047.5 772.35,-1054.5"/>
</g>
<!-- Node19 -->
<g id="node19" class="node">
<title>Node19</title>
<g id="a_node19"><a xlink:href="namespacerare_1_1utils_1_1paths.html#a328faa5a142700be21313b72953aab76" target="_top" xlink:title=" ">
<polygon fill="white" stroke="black" points="782.53,-969 782.53,-999 898.53,-999 898.53,-969 782.53,-969"/>
<text text-anchor="start" x="790.53" y="-987" font-family="Helvetica,sans-Serif" font-size="10.00">rare.utils.paths.desktop</text>
<text text-anchor="middle" x="840.53" y="-976" font-family="Helvetica,sans-Serif" font-size="10.00">_links_supported</text>
</a>
</g>
</g>
<!-- Node16&#45;&gt;Node19 -->
<g id="edge58" class="edge">
<title>Node16&#45;&gt;Node19</title>
<path fill="none" stroke="midnightblue" d="M672.04,-1041.4C701.7,-1031.24 749.23,-1014.95 786.09,-1002.31"/>
<polygon fill="midnightblue" stroke="midnightblue" points="787.38,-1005.57 795.7,-999.02 785.11,-998.95 787.38,-1005.57"/>
</g>
<!-- Node17&#45;&gt;Node17 -->
<g id="edge55" class="edge">
<title>Node17&#45;&gt;Node17</title>
<path fill="none" stroke="midnightblue" d="M806.38,-1133.16C798.14,-1142.56 809.53,-1151.5 840.53,-1151.5 859.43,-1151.5 871.04,-1148.18 875.36,-1143.46"/>
<polygon fill="midnightblue" stroke="midnightblue" points="878.83,-1142.91 874.69,-1133.16 871.85,-1143.37 878.83,-1142.91"/>
</g>
<!-- Node18&#45;&gt;Node18 -->
<g id="edge57" class="edge">
<title>Node18&#45;&gt;Node18</title>
<path fill="none" stroke="midnightblue" d="M806.38,-1066.16C798.14,-1075.56 809.53,-1084.5 840.53,-1084.5 859.43,-1084.5 871.04,-1081.18 875.36,-1076.46"/>
<polygon fill="midnightblue" stroke="midnightblue" points="878.83,-1075.91 874.69,-1066.16 871.85,-1076.37 878.83,-1075.91"/>
</g>
<!-- Node19&#45;&gt;Node19 -->
<g id="edge59" class="edge">
<title>Node19&#45;&gt;Node19</title>
<path fill="none" stroke="midnightblue" d="M806.38,-999.16C798.14,-1008.56 809.53,-1017.5 840.53,-1017.5 859.43,-1017.5 871.04,-1014.18 875.36,-1009.46"/>
<polygon fill="midnightblue" stroke="midnightblue" points="878.83,-1008.91 874.69,-999.16 871.85,-1009.37 878.83,-1008.91"/>
</g>
<!-- Node20&#45;&gt;Node3 -->
<g id="edge63" class="edge">
<title>Node20&#45;&gt;Node3</title>
<path fill="none" stroke="midnightblue" d="M181.1,-442.04C200.63,-457.63 228.99,-483.91 242.53,-514 278.99,-594.98 212.97,-852.1 278.53,-912 315.45,-945.73 456.32,-928.47 503.53,-912 552.93,-894.77 597.92,-851.75 622.49,-824.9"/>
<polygon fill="midnightblue" stroke="midnightblue" points="625.38,-826.92 629.45,-817.14 620.17,-822.25 625.38,-826.92"/>
</g>
<!-- Node20&#45;&gt;Node4 -->
<g id="edge65" class="edge">
<title>Node20&#45;&gt;Node4</title>
<path fill="none" stroke="midnightblue" d="M224.13,-418.59C297.93,-412.27 420.14,-412.8 503.53,-470 531.41,-489.12 516.42,-512.33 539.53,-537 559.77,-558.6 588.85,-575.84 610.86,-586.95"/>
<polygon fill="midnightblue" stroke="midnightblue" points="609.6,-590.23 620.12,-591.48 612.68,-583.94 609.6,-590.23"/>
</g>
<!-- Node20&#45;&gt;Node5 -->
<g id="edge66" class="edge">
<title>Node20&#45;&gt;Node5</title>
<path fill="none" stroke="midnightblue" d="M165.64,-411.9C178.29,-377.18 214.8,-292.12 278.53,-259 367.27,-212.89 416.75,-209.31 503.53,-259 584.55,-305.39 622.8,-419.63 636.2,-470.21"/>
<polygon fill="midnightblue" stroke="midnightblue" points="632.83,-471.17 638.69,-479.99 639.61,-469.44 632.83,-471.17"/>
</g>
<!-- Node20&#45;&gt;Node10 -->
<g id="edge62" class="edge">
<title>Node20&#45;&gt;Node10</title>
<path fill="none" stroke="midnightblue" d="M161.72,-411.71C166.34,-363.73 187.74,-215.66 278.53,-153 365.61,-92.91 494.33,-104.6 572.94,-119.86"/>
<polygon fill="midnightblue" stroke="midnightblue" points="572.72,-123.39 583.21,-121.93 574.1,-116.53 572.72,-123.39"/>
</g>
<!-- Node20&#45;&gt;Node20 -->
<g id="edge64" class="edge">
<title>Node20&#45;&gt;Node20</title>
<path fill="none" stroke="midnightblue" d="M136.18,-442.16C130.55,-451.56 138.33,-460.5 159.53,-460.5 172.45,-460.5 180.39,-457.18 183.34,-452.46"/>
<polygon fill="midnightblue" stroke="midnightblue" points="186.83,-451.99 182.89,-442.16 179.83,-452.3 186.83,-451.99"/>
</g>
<!-- Node21 -->
<g id="node21" class="node">
<title>Node21</title>
<g id="a_node21"><a xlink:href="classrare_1_1shared_1_1workers_1_1verify_1_1_verify_worker.html#ae2f0b22c3f1097d8167f6117ebc587e7" target="_top" xlink:title=" ">
<polygon fill="white" stroke="black" points="319.53,-336 319.53,-366 462.53,-366 462.53,-336 319.53,-336"/>
<text text-anchor="start" x="327.53" y="-354" font-family="Helvetica,sans-Serif" font-size="10.00">rare.shared.workers.verify.</text>
<text text-anchor="middle" x="391.03" y="-343" font-family="Helvetica,sans-Serif" font-size="10.00">VerifyWorker.status_callback</text>
</a>
</g>
</g>
<!-- Node20&#45;&gt;Node21 -->
<g id="edge67" class="edge">
<title>Node20&#45;&gt;Node21</title>
<path fill="none" stroke="midnightblue" d="M205.88,-411.98C242.85,-399.74 295.21,-382.4 334.66,-369.34"/>
<polygon fill="midnightblue" stroke="midnightblue" points="336,-372.58 344.39,-366.11 333.8,-365.94 336,-372.58"/>
</g>
<!-- Node21&#45;&gt;Node4 -->
<g id="edge68" class="edge">
<title>Node21&#45;&gt;Node4</title>
<path fill="none" stroke="midnightblue" d="M419.5,-366.01C444.58,-380.98 481.08,-406.18 503.53,-437 531.35,-475.18 509.86,-500.24 539.53,-537 558.21,-560.14 587.63,-577.28 610.17,-587.96"/>
<polygon fill="midnightblue" stroke="midnightblue" points="608.81,-591.19 619.36,-592.15 611.71,-584.82 608.81,-591.19"/>
</g>
<!-- Node21&#45;&gt;Node5 -->
<g id="edge69" class="edge">
<title>Node21&#45;&gt;Node5</title>
<path fill="none" stroke="midnightblue" d="M432.17,-366.02C453.8,-374.67 480.68,-386.33 503.53,-399 543.94,-421.4 587.19,-452.7 614.41,-473.39"/>
<polygon fill="midnightblue" stroke="midnightblue" points="612.59,-476.4 622.66,-479.71 616.85,-470.85 612.59,-476.4"/>
</g>
<!-- Node21&#45;&gt;Node21 -->
<g id="edge70" class="edge">
<title>Node21&#45;&gt;Node21</title>
<path fill="none" stroke="midnightblue" d="M350.95,-366.16C341.29,-375.56 354.65,-384.5 391.03,-384.5 413.78,-384.5 427.52,-381.01 432.27,-376.09"/>
<polygon fill="midnightblue" stroke="midnightblue" points="435.75,-375.69 431.12,-366.16 428.8,-376.5 435.75,-375.69"/>
</g>
<!-- Node22&#45;&gt;Node4 -->
<g id="edge74" class="edge">
<title>Node22&#45;&gt;Node4</title>
<path fill="none" stroke="midnightblue" d="M465.05,-299.11C479.64,-305.24 493.53,-313.87 503.53,-326 564.07,-399.38 486.54,-457.99 539.53,-537 556.3,-562 586.48,-579.08 609.76,-589.27"/>
<polygon fill="midnightblue" stroke="midnightblue" points="608.68,-592.61 619.26,-593.21 611.37,-586.15 608.68,-592.61"/>
</g>
<!-- Node22&#45;&gt;Node5 -->
<g id="edge73" class="edge">
<title>Node22&#45;&gt;Node5</title>
<path fill="none" stroke="midnightblue" d="M449.06,-299.05C467.48,-305.53 487.31,-314.37 503.53,-326 559.56,-366.19 605.85,-434.5 627.98,-470.74"/>
<polygon fill="midnightblue" stroke="midnightblue" points="625.18,-472.88 633.33,-479.65 631.18,-469.27 625.18,-472.88"/>
</g>
<!-- Node22&#45;&gt;Node22 -->
<g id="edge72" class="edge">
<title>Node22&#45;&gt;Node22</title>
<path fill="none" stroke="midnightblue" d="M350.95,-299.16C341.29,-308.56 354.65,-317.5 391.03,-317.5 413.78,-317.5 427.52,-314.01 432.27,-309.09"/>
<polygon fill="midnightblue" stroke="midnightblue" points="435.75,-308.69 431.12,-299.16 428.8,-309.5 435.75,-308.69"/>
</g>
<!-- Node23&#45;&gt;Node23 -->
<g id="edge76" class="edge">
<title>Node23&#45;&gt;Node23</title>
<path fill="none" stroke="midnightblue" d="M138.88,-19.76C128.83,-28.57 135.72,-38 159.53,-38 174.79,-38 183.1,-34.13 184.46,-29.03"/>
<polygon fill="midnightblue" stroke="midnightblue" points="187.55,-27.37 180.19,-19.76 181.19,-30.3 187.55,-27.37"/>
</g>
</g>
</svg>
        <g id="navigator" transform="translate(0 0)" fill="#404254">
                <rect fill="#f2f5e9" fill-opacity="0.5" stroke="#606060" stroke-width=".5" x="0" y="0" width="60" height="60"/>
                <use id="zoomplus" xlink:href="#zoomPlus" x="17" y="9" onmousedown="handleZoom(evt,'in')"/>
                <use id="zoomminus" xlink:href="#zoomMin" x="42" y="9" onmousedown="handleZoom(evt,'out')"/>
                <use id="reset" xlink:href="#resetDef" x="30" y="36" onmousedown="handleReset()"/>
                <g id="arrowUp" xlink:href="#dirArrow" transform="translate(30 24)" onmousedown="handlePan(0,-1)">
                  <use xlink:href="#rim" fill="#404040">
                        <set attributeName="fill" to="#808080" begin="arrowUp.mouseover" end="arrowUp.mouseout"/>
                  </use>
                  <path fill="none" stroke="white" stroke-width="1.5" d="M0,-3.0v7 M-2.5,-0.5L0,-3.0L2.5,-0.5"/>
                </g>
                <g id="arrowRight" xlink:href="#dirArrow" transform="rotate(90) translate(36 -43)" onmousedown="handlePan(1,0)">
                  <use xlink:href="#rim" fill="#404040">
                        <set attributeName="fill" to="#808080" begin="arrowRight.mouseover" end="arrowRight.mouseout"/>
                  </use>
                  <path fill="none" stroke="white" stroke-width="1.5" d="M0,-3.0v7 M-2.5,-0.5L0,-3.0L2.5,-0.5"/>
                </g>
                <g id="arrowDown" xlink:href="#dirArrow" transform="rotate(180) translate(-30 -48)" onmousedown="handlePan(0,1)">
                  <use xlink:href="#rim" fill="#404040">
                        <set attributeName="fill" to="#808080" begin="arrowDown.mouseover" end="arrowDown.mouseout"/>
                  </use>
                  <path fill="none" stroke="white" stroke-width="1.5" d="M0,-3.0v7 M-2.5,-0.5L0,-3.0L2.5,-0.5"/>
                </g>
                <g id="arrowLeft" xlink:href="#dirArrow" transform="rotate(270) translate(-36 17)" onmousedown="handlePan(-1,0)">
                  <use xlink:href="#rim" fill="#404040">
                        <set attributeName="fill" to="#808080" begin="arrowLeft.mouseover" end="arrowLeft.mouseout"/>
                  </use>
                  <path fill="none" stroke="white" stroke-width="1.5" d="M0,-3.0v7 M-2.5,-0.5L0,-3.0L2.5,-0.5"/>
                </g>
        </g>
        <svg viewBox="0 0 15 15" width="100%" height="30px" preserveAspectRatio="xMaxYMin meet">
         <g id="arrow_out" transform="scale(0.3 0.3)">
          <a xlink:href="classrare_1_1shared_1_1workers_1_1worker_1_1_worker_ad22709b2e67308af35f55680d5a026e0_cgraph_org.svg" target="_base">
           <rect id="button" ry="5" rx="5" y="6" x="6" height="38" width="38"
                fill="#f2f5e9" fill-opacity="0.5" stroke="#606060" stroke-width="1.0"/>
           <path id="arrow"
             d="M 11.500037,31.436501 C 11.940474,20.09759 22.043105,11.32322 32.158766,21.979434 L 37.068811,17.246167 C 37.068811,17.246167 37.088388,32 37.088388,32 L 22.160133,31.978069 C 22.160133,31.978069 26.997745,27.140456 26.997745,27.140456 C 18.528582,18.264221 13.291696,25.230495 11.500037,31.436501 z"
             style="fill:#404040;"/>
          </a>
         </g>
        </svg>
</svg>
