<?xml version="1.0" encoding="UTF-8" standalone="no"?>
<!DOCTYPE svg PUBLIC "-//W3C//DTD SVG 1.1//EN"
 "http://www.w3.org/Graphics/SVG/1.1/DTD/svg11.dtd">
<!-- Generated by graphviz version 2.49.3 (20211027.1534)
 -->
<!-- Title: upload_saves Pages: 1 -->
<!--zoomable 328 -->
<svg id="main" version="1.1" xmlns="http://www.w3.org/2000/svg" xmlns:xlink="http://www.w3.org/1999/xlink" xml:space="preserve" onload="init(evt)">
<style type="text/css"><![CDATA[
.edge:hover path { stroke: red; }
.edge:hover polygon { stroke: red; fill: red; }
]]></style>
<script type="text/javascript"><![CDATA[
var edges = document.getElementsByTagName('g');
if (edges && edges.length) {
  for (var i=0;i<edges.length;i++) {
    if (edges[i].id.substr(0,4)=='edge') {
      edges[i].setAttribute('class','edge');
    }
  }
}
]]></script>
        <defs>
                <circle id="rim" cx="0" cy="0" r="7"/>
                <circle id="rim2" cx="0" cy="0" r="3.5"/>
                <g id="zoomPlus">
                        <use xlink:href="#rim" fill="#404040">
                                <set attributeName="fill" to="#808080" begin="zoomplus.mouseover" end="zoomplus.mouseout"/>
                        </use>
                        <path d="M-4,0h8M0,-4v8" fill="none" stroke="white" stroke-width="1.5" pointer-events="none"/>
                </g>
                <g id="zoomMin">
                        <use xlink:href="#rim" fill="#404040">
                                <set attributeName="fill" to="#808080" begin="zoomminus.mouseover" end="zoomminus.mouseout"/>
                        </use>
                        <path d="M-4,0h8" fill="none" stroke="white" stroke-width="1.5" pointer-events="none"/>
                </g>
                <g id="dirArrow">
                        <path fill="none" stroke="white" stroke-width="1.5" d="M0,-3.0v7 M-2.5,-0.5L0,-3.0L2.5,-0.5"/>
                </g>
               <g id="resetDef">
                       <use xlink:href="#rim2" fill="#404040">
                               <set attributeName="fill" to="#808080" begin="reset.mouseover" end="reset.mouseout"/>
                       </use>
               </g>
        </defs>

<script type="text/javascript">
var viewWidth = 1798;
var viewHeight = 328;
var sectionId = 'dynsection-13';
</script>
<script xlink:href="svgpan.js"/>
<svg id="graph" class="graph">
<g id="viewport">
<title>upload_saves</title>
<polygon fill="white" stroke="transparent" points="-4,4 -4,-324.45 1794,-324.45 1794,4 -4,4"/>
<!-- Node1 -->
<g id="node1" class="node">
<title>Node1</title>
<g id="a_node1"><a xlink:title=" ">
<polygon fill="#bfbfbf" stroke="black" points="1713,-28.5 1713,-47.5 1790,-47.5 1790,-28.5 1713,-28.5"/>
<text text-anchor="middle" x="1751.5" y="-35.5" font-family="Helvetica,sans-Serif" font-size="10.00">upload_saves</text>
</a>
</g>
</g>
<!-- Node1&#45;&gt;Node1 -->
<g id="edge39" class="edge">
<title>Node1&#45;&gt;Node1</title>
<path fill="none" stroke="midnightblue" d="M1772.61,-57.4C1771.2,-62.31 1764.16,-66 1751.5,-66 1731.24,-66 1725.38,-56.57 1733.93,-47.76"/>
<polygon fill="midnightblue" stroke="midnightblue" points="1775.8,-55.94 1769.07,-47.76 1769.23,-58.35 1775.8,-55.94"/>
</g>
<!-- Node2 -->
<g id="node2" class="node">
<title>Node2</title>
<g id="a_node2"><a xlink:href="classrare_1_1components_1_1tabs_1_1games_1_1cloud__save__utils_1_1_cloud_save_utils.html#a970c7d031af196eae774c1e0fa78daab" target="_top" xlink:title=" ">
<polygon fill="white" stroke="black" points="1598,-123.5 1598,-142.5 1677,-142.5 1677,-123.5 1598,-123.5"/>
<text text-anchor="middle" x="1637.5" y="-130.5" font-family="Helvetica,sans-Serif" font-size="10.00">game_finished</text>
</a>
</g>
</g>
<!-- Node1&#45;&gt;Node2 -->
<g id="edge1" class="edge">
<title>Node1&#45;&gt;Node2</title>
<path fill="none" stroke="midnightblue" d="M1731.04,-54.51C1707.57,-74.42 1668.89,-107.22 1649.83,-123.39"/>
<polygon fill="midnightblue" stroke="midnightblue" points="1733.57,-56.95 1738.94,-47.81 1729.05,-51.61 1733.57,-56.95"/>
</g>
<!-- Node15 -->
<g id="node15" class="node">
<title>Node15</title>
<g id="a_node15"><a xlink:href="classrare_1_1components_1_1tabs_1_1games_1_1cloud__save__utils_1_1_cloud_save_utils.html#abb078ea24f03a8b8317000d4af7416de" target="_top" xlink:title=" ">
<polygon fill="white" stroke="black" points="0,-16.5 0,-35.5 132,-35.5 132,-16.5 0,-16.5"/>
<text text-anchor="middle" x="66" y="-23.5" font-family="Helvetica,sans-Serif" font-size="10.00">sync_before_launch_game</text>
</a>
</g>
</g>
<!-- Node1&#45;&gt;Node15 -->
<g id="edge38" class="edge">
<title>Node1&#45;&gt;Node15</title>
<path fill="none" stroke="midnightblue" d="M1702.63,-27.17C1648.7,-15.94 1558.28,0 1479.5,0 1479.5,0 1479.5,0 500.5,0 369.69,0 217.07,-11.94 132.29,-19.64"/>
<polygon fill="midnightblue" stroke="midnightblue" points="1702.08,-30.64 1712.59,-29.28 1703.53,-23.79 1702.08,-30.64"/>
</g>
<!-- Node2&#45;&gt;Node2 -->
<g id="edge4" class="edge">
<title>Node2&#45;&gt;Node2</title>
<path fill="none" stroke="midnightblue" d="M1658.61,-152.4C1657.2,-157.31 1650.16,-161 1637.5,-161 1617.24,-161 1611.38,-151.57 1619.93,-142.76"/>
<polygon fill="midnightblue" stroke="midnightblue" points="1661.8,-150.94 1655.07,-142.76 1655.23,-153.35 1661.8,-150.94"/>
</g>
<!-- Node3 -->
<g id="node3" class="node">
<title>Node3</title>
<g id="a_node3"><a xlink:href="classrare_1_1components_1_1tabs_1_1games_1_1game__utils_1_1_game_process.html#a59c03cd7e6b87132c709e69907d4e0ed" target="_top" xlink:title=" ">
<polygon fill="white" stroke="black" points="1192,-153.5 1192,-194.5 1359,-194.5 1359,-153.5 1192,-153.5"/>
<text text-anchor="start" x="1200" y="-182.5" font-family="Helvetica,sans-Serif" font-size="10.00">rare.components.tabs.games.game</text>
<text text-anchor="start" x="1200" y="-171.5" font-family="Helvetica,sans-Serif" font-size="10.00">_utils.GameProcess.connect</text>
<text text-anchor="middle" x="1275.5" y="-160.5" font-family="Helvetica,sans-Serif" font-size="10.00">_to_server</text>
</a>
</g>
</g>
<!-- Node2&#45;&gt;Node3 -->
<g id="edge2" class="edge">
<title>Node2&#45;&gt;Node3</title>
<path fill="none" stroke="midnightblue" d="M1587.87,-138.54C1529.24,-145.22 1429.8,-156.54 1359.07,-164.6"/>
<polygon fill="midnightblue" stroke="midnightblue" points="1588.43,-142 1597.97,-137.39 1587.64,-135.04 1588.43,-142"/>
</g>
<!-- Node4 -->
<g id="node4" class="node">
<title>Node4</title>
<g id="a_node4"><a xlink:href="classrare_1_1components_1_1tabs_1_1games_1_1game__utils_1_1_game_utils.html#a1ff6997393d84b07e97a057126c415f7" target="_top" xlink:title=" ">
<polygon fill="white" stroke="black" points="1395,-181 1395,-211 1562,-211 1562,-181 1395,-181"/>
<text text-anchor="start" x="1403" y="-199" font-family="Helvetica,sans-Serif" font-size="10.00">rare.components.tabs.games.game</text>
<text text-anchor="middle" x="1478.5" y="-188" font-family="Helvetica,sans-Serif" font-size="10.00">_utils.GameUtils.game_finished</text>
</a>
</g>
</g>
<!-- Node2&#45;&gt;Node4 -->
<g id="edge5" class="edge">
<title>Node2&#45;&gt;Node4</title>
<path fill="none" stroke="midnightblue" d="M1606.49,-146.85C1592.98,-152.94 1576.78,-160.05 1562,-166 1549.28,-171.12 1535.3,-176.35 1522.53,-180.98"/>
<polygon fill="midnightblue" stroke="midnightblue" points="1608.13,-149.95 1615.79,-142.63 1605.24,-143.58 1608.13,-149.95"/>
</g>
<!-- Node5 -->
<g id="node5" class="node">
<title>Node5</title>
<g id="a_node5"><a xlink:href="classrare_1_1components_1_1tabs_1_1games_1_1game__utils_1_1_game_utils.html#a6d84f785e188bb4dc5e05413dd1302ad" target="_top" xlink:title=" ">
<polygon fill="white" stroke="black" points="1192,-243 1192,-273 1359,-273 1359,-243 1192,-243"/>
<text text-anchor="start" x="1200" y="-261" font-family="Helvetica,sans-Serif" font-size="10.00">rare.components.tabs.games.game</text>
<text text-anchor="middle" x="1275.5" y="-250" font-family="Helvetica,sans-Serif" font-size="10.00">_utils.GameUtils.launch_game</text>
</a>
</g>
</g>
<!-- Node2&#45;&gt;Node5 -->
<g id="edge37" class="edge">
<title>Node2&#45;&gt;Node5</title>
<path fill="none" stroke="midnightblue" d="M1629.31,-151.95C1618.75,-176.83 1596.48,-219.61 1562,-239 1500.41,-273.64 1419.11,-275.65 1359.03,-270.6"/>
<polygon fill="midnightblue" stroke="midnightblue" points="1632.62,-153.09 1633.12,-142.51 1626.13,-150.47 1632.62,-153.09"/>
</g>
<!-- Node3&#45;&gt;Node3 -->
<g id="edge3" class="edge">
<title>Node3&#45;&gt;Node3</title>
<path fill="none" stroke="midnightblue" d="M1307.16,-204.86C1302.45,-209.7 1291.9,-213 1275.5,-213 1249.27,-213 1237.99,-204.54 1241.68,-194.86"/>
<polygon fill="midnightblue" stroke="midnightblue" points="1310.62,-205.38 1309.32,-194.86 1303.78,-203.9 1310.62,-205.38"/>
</g>
<!-- Node4&#45;&gt;Node3 -->
<g id="edge6" class="edge">
<title>Node4&#45;&gt;Node3</title>
<path fill="none" stroke="midnightblue" d="M1384.85,-185.86C1376.27,-184.92 1367.61,-183.97 1359.13,-183.04"/>
<polygon fill="midnightblue" stroke="midnightblue" points="1384.55,-189.35 1394.88,-186.96 1385.32,-182.39 1384.55,-189.35"/>
</g>
<!-- Node4&#45;&gt;Node4 -->
<g id="edge7" class="edge">
<title>Node4&#45;&gt;Node4</title>
<path fill="none" stroke="midnightblue" d="M1506.57,-221.46C1503.09,-226.18 1493.73,-229.5 1478.5,-229.5 1453.5,-229.5 1444.33,-220.56 1450.97,-211.16"/>
<polygon fill="midnightblue" stroke="midnightblue" points="1510.05,-220.96 1506.03,-211.16 1503.06,-221.33 1510.05,-220.96"/>
</g>
<!-- Node4&#45;&gt;Node5 -->
<g id="edge8" class="edge">
<title>Node4&#45;&gt;Node5</title>
<path fill="none" stroke="midnightblue" d="M1419.02,-214.04C1389.31,-223.2 1353.63,-234.21 1325.41,-242.91"/>
<polygon fill="midnightblue" stroke="midnightblue" points="1420.32,-217.3 1428.84,-211.01 1418.26,-210.61 1420.32,-217.3"/>
</g>
<!-- Node5&#45;&gt;Node5 -->
<g id="edge9" class="edge">
<title>Node5&#45;&gt;Node5</title>
<path fill="none" stroke="midnightblue" d="M1308.19,-283.46C1304.14,-288.18 1293.24,-291.5 1275.5,-291.5 1246.39,-291.5 1235.7,-282.56 1243.43,-273.16"/>
<polygon fill="midnightblue" stroke="midnightblue" points="1311.67,-282.93 1307.57,-273.16 1304.68,-283.35 1311.67,-282.93"/>
</g>
<!-- Node6 -->
<g id="node6" class="node">
<title>Node6</title>
<g id="a_node6"><a xlink:href="classrare_1_1components_1_1tabs_1_1games_1_1game__utils_1_1_game_utils.html#a4edad8bd72770b4d0924575036a40a3c" target="_top" xlink:title=" ">
<polygon fill="white" stroke="black" points="418,-248 418,-278 585,-278 585,-248 418,-248"/>
<text text-anchor="start" x="426" y="-266" font-family="Helvetica,sans-Serif" font-size="10.00">rare.components.tabs.games.game</text>
<text text-anchor="middle" x="501.5" y="-255" font-family="Helvetica,sans-Serif" font-size="10.00">_utils.GameUtils.prepare_launch</text>
</a>
</g>
</g>
<!-- Node5&#45;&gt;Node6 -->
<g id="edge10" class="edge">
<title>Node5&#45;&gt;Node6</title>
<path fill="none" stroke="midnightblue" d="M1234.45,-277.17C1211.95,-286.92 1183.04,-297.78 1156,-303 944.78,-343.74 688.71,-302.39 569.54,-278.05"/>
<polygon fill="midnightblue" stroke="midnightblue" points="1235.96,-280.33 1243.68,-273.08 1233.12,-273.93 1235.96,-280.33"/>
</g>
<!-- Node8 -->
<g id="node8" class="node">
<title>Node8</title>
<g id="a_node8"><a xlink:href="classrare_1_1game__launch__helper_1_1_game_process_helper.html#a711d1d7df9874db34971779c941c4e5e" target="_top" xlink:title=" ">
<polygon fill="white" stroke="black" points="1027,-245 1027,-275 1156,-275 1156,-245 1027,-245"/>
<text text-anchor="start" x="1035" y="-263" font-family="Helvetica,sans-Serif" font-size="10.00">rare.game_launch_helper.</text>
<text text-anchor="middle" x="1091.5" y="-252" font-family="Helvetica,sans-Serif" font-size="10.00">GameProcessHelper.start</text>
</a>
</g>
</g>
<!-- Node5&#45;&gt;Node8 -->
<g id="edge14" class="edge">
<title>Node5&#45;&gt;Node8</title>
<path fill="none" stroke="midnightblue" d="M1181.67,-259.02C1173.06,-259.11 1164.48,-259.21 1156.23,-259.3"/>
<polygon fill="midnightblue" stroke="midnightblue" points="1181.79,-262.52 1191.75,-258.91 1181.72,-255.52 1181.79,-262.52"/>
</g>
<!-- Node11 -->
<g id="node11" class="node">
<title>Node11</title>
<g id="a_node11"><a xlink:href="classrare_1_1components_1_1tabs_1_1games_1_1game__utils_1_1_game_utils.html#aa5166679a6b1c69dd24d2e6faa34dc7b" target="_top" xlink:title=" ">
<polygon fill="white" stroke="black" points="621,-137 621,-167 788,-167 788,-137 621,-137"/>
<text text-anchor="start" x="629" y="-155" font-family="Helvetica,sans-Serif" font-size="10.00">rare.components.tabs.games.game</text>
<text text-anchor="middle" x="704.5" y="-144" font-family="Helvetica,sans-Serif" font-size="10.00">_utils.GameUtils.sync_finished</text>
</a>
</g>
</g>
<!-- Node5&#45;&gt;Node11 -->
<g id="edge36" class="edge">
<title>Node5&#45;&gt;Node11</title>
<path fill="none" stroke="midnightblue" d="M1226.16,-239.4C1170.41,-218.84 1075.54,-186.57 991,-171 923.46,-158.56 845.6,-154.02 788.27,-152.47"/>
<polygon fill="midnightblue" stroke="midnightblue" points="1225.18,-242.77 1235.77,-242.97 1227.62,-236.21 1225.18,-242.77"/>
</g>
<!-- Node6&#45;&gt;Node6 -->
<g id="edge11" class="edge">
<title>Node6&#45;&gt;Node6</title>
<path fill="none" stroke="midnightblue" d="M537.39,-288.46C532.94,-293.18 520.97,-296.5 501.5,-296.5 469.54,-296.5 457.81,-287.56 466.3,-278.16"/>
<polygon fill="midnightblue" stroke="midnightblue" points="540.86,-287.9 536.7,-278.16 533.88,-288.37 540.86,-287.9"/>
</g>
<!-- Node7 -->
<g id="node7" class="node">
<title>Node7</title>
<g id="a_node7"><a xlink:href="classrare_1_1game__launch__helper_1_1_pre_launch_thread.html#a670fe67276cb94775a042958fe2c79d4" target="_top" xlink:title=" ">
<polygon fill="white" stroke="black" points="211.5,-248 211.5,-278 338.5,-278 338.5,-248 211.5,-248"/>
<text text-anchor="start" x="219.5" y="-266" font-family="Helvetica,sans-Serif" font-size="10.00">rare.game_launch_helper.</text>
<text text-anchor="middle" x="275" y="-255" font-family="Helvetica,sans-Serif" font-size="10.00">PreLaunchThread.run</text>
</a>
</g>
</g>
<!-- Node6&#45;&gt;Node7 -->
<g id="edge12" class="edge">
<title>Node6&#45;&gt;Node7</title>
<path fill="none" stroke="midnightblue" d="M407.65,-263C384.47,-263 360.14,-263 338.79,-263"/>
<polygon fill="midnightblue" stroke="midnightblue" points="407.86,-266.5 417.86,-263 407.86,-259.5 407.86,-266.5"/>
</g>
<!-- Node7&#45;&gt;Node7 -->
<g id="edge13" class="edge">
<title>Node7&#45;&gt;Node7</title>
<path fill="none" stroke="midnightblue" d="M311.96,-288.46C307.37,-293.18 295.05,-296.5 275,-296.5 242.09,-296.5 230.01,-287.56 238.75,-278.16"/>
<polygon fill="midnightblue" stroke="midnightblue" points="315.43,-287.89 311.25,-278.16 308.45,-288.38 315.43,-287.89"/>
</g>
<!-- Node8&#45;&gt;Node8 -->
<g id="edge35" class="edge">
<title>Node8&#45;&gt;Node8</title>
<path fill="none" stroke="midnightblue" d="M1124.19,-285.46C1120.14,-290.18 1109.24,-293.5 1091.5,-293.5 1062.39,-293.5 1051.7,-284.56 1059.43,-275.16"/>
<polygon fill="midnightblue" stroke="midnightblue" points="1127.67,-284.93 1123.57,-275.16 1120.68,-285.35 1127.67,-284.93"/>
</g>
<!-- Node9 -->
<g id="node9" class="node">
<title>Node9</title>
<g id="a_node9"><a xlink:href="classrare_1_1components_1_1tabs_1_1shop_1_1shop__models_1_1_browse_model.html#a563276b55376fdd9f495c321c5408906" target="_top" xlink:title=" ">
<polygon fill="white" stroke="black" points="829.5,-181 829.5,-211 985.5,-211 985.5,-181 829.5,-181"/>
<text text-anchor="start" x="837.5" y="-199" font-family="Helvetica,sans-Serif" font-size="10.00">rare.components.tabs.shop.shop</text>
<text text-anchor="middle" x="907.5" y="-188" font-family="Helvetica,sans-Serif" font-size="10.00">_models.BrowseModel.__dict__</text>
</a>
</g>
</g>
<!-- Node8&#45;&gt;Node9 -->
<g id="edge15" class="edge">
<title>Node8&#45;&gt;Node9</title>
<path fill="none" stroke="midnightblue" d="M1038.33,-241.66C1010.73,-231.95 977.26,-220.18 951.22,-211.02"/>
<polygon fill="midnightblue" stroke="midnightblue" points="1037.23,-244.98 1047.83,-244.99 1039.56,-238.38 1037.23,-244.98"/>
</g>
<!-- Node10 -->
<g id="node10" class="node">
<title>Node10</title>
<g id="a_node10"><a xlink:href="classrare_1_1game__launch__helper_1_1_game_process_helper.html#a62864ecc73de3f9e4a009737d0c01f01" target="_top" xlink:title=" ">
<polygon fill="white" stroke="black" points="824,-248 824,-278 991,-278 991,-248 824,-248"/>
<text text-anchor="start" x="832" y="-266" font-family="Helvetica,sans-Serif" font-size="10.00">rare.game_launch_helper.</text>
<text text-anchor="middle" x="907.5" y="-255" font-family="Helvetica,sans-Serif" font-size="10.00">GameProcessHelper.launch_game</text>
</a>
</g>
</g>
<!-- Node8&#45;&gt;Node10 -->
<g id="edge17" class="edge">
<title>Node8&#45;&gt;Node10</title>
<path fill="none" stroke="midnightblue" d="M1016.75,-254.57C1008.37,-254.61 999.79,-254.72 991.31,-254.91"/>
<polygon fill="midnightblue" stroke="midnightblue" points="1016.84,-258.07 1026.85,-254.58 1016.85,-251.07 1016.84,-258.07"/>
</g>
<!-- Node9&#45;&gt;Node9 -->
<g id="edge16" class="edge">
<title>Node9&#45;&gt;Node9</title>
<path fill="none" stroke="midnightblue" d="M940.19,-221.46C936.14,-226.18 925.24,-229.5 907.5,-229.5 878.39,-229.5 867.7,-220.56 875.43,-211.16"/>
<polygon fill="midnightblue" stroke="midnightblue" points="943.67,-220.93 939.57,-211.16 936.68,-221.35 943.67,-220.93"/>
</g>
<!-- Node10&#45;&gt;Node6 -->
<g id="edge19" class="edge">
<title>Node10&#45;&gt;Node6</title>
<path fill="none" stroke="midnightblue" d="M813.35,-263C744.43,-263 651.4,-263 585.12,-263"/>
<polygon fill="midnightblue" stroke="midnightblue" points="813.77,-266.5 823.77,-263 813.77,-259.5 813.77,-266.5"/>
</g>
<!-- Node10&#45;&gt;Node8 -->
<g id="edge20" class="edge">
<title>Node10&#45;&gt;Node8</title>
<path fill="none" stroke="midnightblue" d="M1001.41,-268.22C1010.01,-268.06 1018.59,-267.83 1026.85,-267.52"/>
<polygon fill="midnightblue" stroke="midnightblue" points="1001.26,-264.72 991.31,-268.36 1001.36,-271.72 1001.26,-264.72"/>
</g>
<!-- Node10&#45;&gt;Node10 -->
<g id="edge18" class="edge">
<title>Node10&#45;&gt;Node10</title>
<path fill="none" stroke="midnightblue" d="M940.19,-288.46C936.14,-293.18 925.24,-296.5 907.5,-296.5 878.39,-296.5 867.7,-287.56 875.43,-278.16"/>
<polygon fill="midnightblue" stroke="midnightblue" points="943.67,-287.93 939.57,-278.16 936.68,-288.35 943.67,-287.93"/>
</g>
<!-- Node10&#45;&gt;Node11 -->
<g id="edge21" class="edge">
<title>Node10&#45;&gt;Node11</title>
<path fill="none" stroke="midnightblue" d="M835.95,-244.31C831.85,-242.66 827.84,-240.89 824,-239 784.17,-219.36 743.74,-186.22 721.93,-167.01"/>
<polygon fill="midnightblue" stroke="midnightblue" points="835.05,-247.71 845.64,-247.95 837.51,-241.16 835.05,-247.71"/>
</g>
<!-- Node11&#45;&gt;Node2 -->
<g id="edge22" class="edge">
<title>Node11&#45;&gt;Node2</title>
<path fill="none" stroke="midnightblue" d="M798.51,-137.65C876.33,-126.88 990.39,-114 1090.5,-114 1276.5,-114 1276.5,-114 1276.5,-114 1393.69,-114 1532.05,-124.17 1597.91,-129.63"/>
<polygon fill="midnightblue" stroke="midnightblue" points="797.67,-134.23 788.25,-139.08 798.64,-141.16 797.67,-134.23"/>
</g>
<!-- Node11&#45;&gt;Node6 -->
<g id="edge23" class="edge">
<title>Node11&#45;&gt;Node6</title>
<path fill="none" stroke="midnightblue" d="M666.92,-172.2C627.34,-194.06 565.16,-228.4 529.69,-247.98"/>
<polygon fill="midnightblue" stroke="midnightblue" points="668.91,-175.1 675.97,-167.2 665.53,-168.97 668.91,-175.1"/>
</g>
<!-- Node11&#45;&gt;Node11 -->
<g id="edge24" class="edge">
<title>Node11&#45;&gt;Node11</title>
<path fill="none" stroke="midnightblue" d="M740.39,-177.46C735.94,-182.18 723.97,-185.5 704.5,-185.5 672.54,-185.5 660.81,-176.56 669.3,-167.16"/>
<polygon fill="midnightblue" stroke="midnightblue" points="743.86,-176.9 739.7,-167.16 736.88,-177.37 743.86,-176.9"/>
</g>
<!-- Node12 -->
<g id="node12" class="node">
<title>Node12</title>
<g id="a_node12"><a xlink:href="classrare_1_1components_1_1tabs_1_1games_1_1cloud__save__utils_1_1_cloud_save_utils.html#a305cbdbdf1c59aacea30610a562ac40d" target="_top" xlink:title=" ">
<polygon fill="white" stroke="black" points="459.5,-116.5 459.5,-135.5 543.5,-135.5 543.5,-116.5 459.5,-116.5"/>
<text text-anchor="middle" x="501.5" y="-123.5" font-family="Helvetica,sans-Serif" font-size="10.00">worker_finished</text>
</a>
</g>
</g>
<!-- Node11&#45;&gt;Node12 -->
<g id="edge25" class="edge">
<title>Node11&#45;&gt;Node12</title>
<path fill="none" stroke="midnightblue" d="M610.82,-140.01C587.24,-136.96 563.09,-133.84 543.59,-131.31"/>
<polygon fill="midnightblue" stroke="midnightblue" points="610.51,-143.5 620.88,-141.31 611.41,-136.56 610.51,-143.5"/>
</g>
<!-- Node12&#45;&gt;Node1 -->
<g id="edge33" class="edge">
<title>Node12&#45;&gt;Node1</title>
<path fill="none" stroke="midnightblue" d="M537.65,-113C607.1,-88.52 767.27,-38 906.5,-38 1479.5,-38 1479.5,-38 1479.5,-38 1562.78,-38 1660.45,-38 1712.8,-38"/>
<polygon fill="midnightblue" stroke="midnightblue" points="536.32,-109.76 528.07,-116.41 538.67,-116.35 536.32,-109.76"/>
</g>
<!-- Node12&#45;&gt;Node12 -->
<g id="edge34" class="edge">
<title>Node12&#45;&gt;Node12</title>
<path fill="none" stroke="midnightblue" d="M539.37,-143.5C539.37,-149.34 526.74,-154 501.5,-154 465.6,-154 455.22,-144.57 470.37,-135.76"/>
<polygon fill="midnightblue" stroke="midnightblue" points="541.84,-141 532.63,-135.76 536.56,-145.6 541.84,-141"/>
</g>
<!-- Node13 -->
<g id="node13" class="node">
<title>Node13</title>
<g id="a_node13"><a xlink:href="classrare_1_1components_1_1tabs_1_1settings_1_1widgets_1_1ubisoft__activation_1_1_ubi_link_widget.html#a8f9705707225e3a806138596d5edae0d" target="_top" xlink:title=" ">
<polygon fill="white" stroke="black" points="168,-117 168,-147 382,-147 382,-117 168,-117"/>
<text text-anchor="start" x="176" y="-135" font-family="Helvetica,sans-Serif" font-size="10.00">rare.components.tabs.settings.widgets.ubisoft</text>
<text text-anchor="middle" x="275" y="-124" font-family="Helvetica,sans-Serif" font-size="10.00">_activation.UbiLinkWidget.activate</text>
</a>
</g>
</g>
<!-- Node12&#45;&gt;Node13 -->
<g id="edge26" class="edge">
<title>Node12&#45;&gt;Node13</title>
<path fill="none" stroke="midnightblue" d="M449.25,-127.37C429.3,-127.9 405.66,-128.53 382.35,-129.16"/>
<polygon fill="midnightblue" stroke="midnightblue" points="449.42,-130.87 459.32,-127.1 449.23,-123.87 449.42,-130.87"/>
</g>
<!-- Node14 -->
<g id="node14" class="node">
<title>Node14</title>
<g id="a_node14"><a xlink:href="classrare_1_1components_1_1tabs_1_1games_1_1cloud__save__utils_1_1_cloud_save_utils.html#a398a7b51391d4f2b1854e3d8cda2f9a3" target="_top" xlink:title=" ">
<polygon fill="white" stroke="black" points="230.5,-60.5 230.5,-79.5 319.5,-79.5 319.5,-60.5 230.5,-60.5"/>
<text text-anchor="middle" x="275" y="-67.5" font-family="Helvetica,sans-Serif" font-size="10.00">download_saves</text>
</a>
</g>
</g>
<!-- Node12&#45;&gt;Node14 -->
<g id="edge28" class="edge">
<title>Node12&#45;&gt;Node14</title>
<path fill="none" stroke="midnightblue" d="M452.32,-113.98C411.01,-103.68 352.3,-89.03 314.18,-79.52"/>
<polygon fill="midnightblue" stroke="midnightblue" points="451.61,-117.41 462.16,-116.44 453.31,-110.62 451.61,-117.41"/>
</g>
<!-- Node13&#45;&gt;Node13 -->
<g id="edge27" class="edge">
<title>Node13&#45;&gt;Node13</title>
<path fill="none" stroke="midnightblue" d="M311.96,-157.46C307.37,-162.18 295.05,-165.5 275,-165.5 242.09,-165.5 230.01,-156.56 238.75,-147.16"/>
<polygon fill="midnightblue" stroke="midnightblue" points="315.43,-156.89 311.25,-147.16 308.45,-157.38 315.43,-156.89"/>
</g>
<!-- Node14&#45;&gt;Node2 -->
<g id="edge30" class="edge">
<title>Node14&#45;&gt;Node2</title>
<path fill="none" stroke="midnightblue" d="M330.15,-71.25C411.29,-73 569.24,-76 703.5,-76 1276.5,-76 1276.5,-76 1276.5,-76 1404.45,-76 1436.49,-88.14 1562,-113 1576.19,-115.81 1591.66,-119.81 1604.82,-123.49"/>
<polygon fill="midnightblue" stroke="midnightblue" points="329.77,-67.74 319.69,-71.02 329.61,-74.74 329.77,-67.74"/>
</g>
<!-- Node14&#45;&gt;Node14 -->
<g id="edge29" class="edge">
<title>Node14&#45;&gt;Node14</title>
<path fill="none" stroke="midnightblue" d="M313.97,-87.01C314.71,-93.07 301.72,-98 275,-98 237.83,-98 227.23,-88.46 243.2,-79.61"/>
<polygon fill="midnightblue" stroke="midnightblue" points="316.27,-84.36 306.8,-79.61 311.24,-89.23 316.27,-84.36"/>
</g>
<!-- Node14&#45;&gt;Node15 -->
<g id="edge31" class="edge">
<title>Node14&#45;&gt;Node15</title>
<path fill="none" stroke="midnightblue" d="M220.24,-58.57C186.63,-51.43 143.83,-42.33 112.02,-35.57"/>
<polygon fill="midnightblue" stroke="midnightblue" points="219.84,-62.07 230.35,-60.72 221.3,-55.22 219.84,-62.07"/>
</g>
<!-- Node15&#45;&gt;Node15 -->
<g id="edge32" class="edge">
<title>Node15&#45;&gt;Node15</title>
<path fill="none" stroke="midnightblue" d="M104.97,-43.01C105.71,-49.07 92.72,-54 66,-54 28.83,-54 18.23,-44.46 34.2,-35.61"/>
<polygon fill="midnightblue" stroke="midnightblue" points="107.27,-40.36 97.8,-35.61 102.24,-45.23 107.27,-40.36"/>
</g>
</g>
</svg>
        <g id="navigator" transform="translate(0 0)" fill="#404254">
                <rect fill="#f2f5e9" fill-opacity="0.5" stroke="#606060" stroke-width=".5" x="0" y="0" width="60" height="60"/>
                <use id="zoomplus" xlink:href="#zoomPlus" x="17" y="9" onmousedown="handleZoom(evt,'in')"/>
                <use id="zoomminus" xlink:href="#zoomMin" x="42" y="9" onmousedown="handleZoom(evt,'out')"/>
                <use id="reset" xlink:href="#resetDef" x="30" y="36" onmousedown="handleReset()"/>
                <g id="arrowUp" xlink:href="#dirArrow" transform="translate(30 24)" onmousedown="handlePan(0,-1)">
                  <use xlink:href="#rim" fill="#404040">
                        <set attributeName="fill" to="#808080" begin="arrowUp.mouseover" end="arrowUp.mouseout"/>
                  </use>
                  <path fill="none" stroke="white" stroke-width="1.5" d="M0,-3.0v7 M-2.5,-0.5L0,-3.0L2.5,-0.5"/>
                </g>
                <g id="arrowRight" xlink:href="#dirArrow" transform="rotate(90) translate(36 -43)" onmousedown="handlePan(1,0)">
                  <use xlink:href="#rim" fill="#404040">
                        <set attributeName="fill" to="#808080" begin="arrowRight.mouseover" end="arrowRight.mouseout"/>
                  </use>
                  <path fill="none" stroke="white" stroke-width="1.5" d="M0,-3.0v7 M-2.5,-0.5L0,-3.0L2.5,-0.5"/>
                </g>
                <g id="arrowDown" xlink:href="#dirArrow" transform="rotate(180) translate(-30 -48)" onmousedown="handlePan(0,1)">
                  <use xlink:href="#rim" fill="#404040">
                        <set attributeName="fill" to="#808080" begin="arrowDown.mouseover" end="arrowDown.mouseout"/>
                  </use>
                  <path fill="none" stroke="white" stroke-width="1.5" d="M0,-3.0v7 M-2.5,-0.5L0,-3.0L2.5,-0.5"/>
                </g>
                <g id="arrowLeft" xlink:href="#dirArrow" transform="rotate(270) translate(-36 17)" onmousedown="handlePan(-1,0)">
                  <use xlink:href="#rim" fill="#404040">
                        <set attributeName="fill" to="#808080" begin="arrowLeft.mouseover" end="arrowLeft.mouseout"/>
                  </use>
                  <path fill="none" stroke="white" stroke-width="1.5" d="M0,-3.0v7 M-2.5,-0.5L0,-3.0L2.5,-0.5"/>
                </g>
        </g>
        <svg viewBox="0 0 15 15" width="100%" height="30px" preserveAspectRatio="xMaxYMin meet">
         <g id="arrow_out" transform="scale(0.3 0.3)">
          <a xlink:href="classrare_1_1components_1_1tabs_1_1games_1_1cloud__save__utils_1_1_cloud_save_utils_aabe920f2c8b262a0d16df2ef0ceafad8_icgraph_org.svg" target="_base">
           <rect id="button" ry="5" rx="5" y="6" x="6" height="38" width="38"
                fill="#f2f5e9" fill-opacity="0.5" stroke="#606060" stroke-width="1.0"/>
           <path id="arrow"
             d="M 11.500037,31.436501 C 11.940474,20.09759 22.043105,11.32322 32.158766,21.979434 L 37.068811,17.246167 C 37.068811,17.246167 37.088388,32 37.088388,32 L 22.160133,31.978069 C 22.160133,31.978069 26.997745,27.140456 26.997745,27.140456 C 18.528582,18.264221 13.291696,25.230495 11.500037,31.436501 z"
             style="fill:#404040;"/>
          </a>
         </g>
        </svg>
</svg>
