<?xml version="1.0" encoding="UTF-8" standalone="no"?>
<!DOCTYPE svg PUBLIC "-//W3C//DTD SVG 1.1//EN"
 "http://www.w3.org/Graphics/SVG/1.1/DTD/svg11.dtd">
<!-- Generated by graphviz version 2.49.3 (20211027.1534)
 -->
<!-- Title: remove_update Pages: 1 -->
<svg width="449pt" height="191pt"
 viewBox="0.00 0.00 449.00 191.00" xmlns="http://www.w3.org/2000/svg" xmlns:xlink="http://www.w3.org/1999/xlink">
<g id="graph0" class="graph" transform="scale(1 1) rotate(0) translate(4 187)">
<title>remove_update</title>
<polygon fill="white" stroke="transparent" points="-4,4 -4,-187 445,-187 445,4 -4,4"/>
<!-- Node1 -->
<g id="node1" class="node">
<title>Node1</title>
<g id="a_node1"><a xlink:title=" ">
<polygon fill="#bfbfbf" stroke="black" points="358,-101 358,-120 441,-120 441,-101 358,-101"/>
<text text-anchor="middle" x="399.5" y="-108" font-family="Helvetica,sans-Serif" font-size="10.00">remove_update</text>
</a>
</g>
</g>
<!-- Node1&#45;&gt;Node1 -->
<g id="edge3" class="edge">
<title>Node1&#45;&gt;Node1</title>
<path fill="none" stroke="midnightblue" d="M422.19,-129.53C420.96,-134.63 413.39,-138.5 399.5,-138.5 377.82,-138.5 371.55,-129.07 380.7,-120.26"/>
<polygon fill="midnightblue" stroke="midnightblue" points="425.4,-128.12 418.3,-120.26 418.94,-130.83 425.4,-128.12"/>
</g>
<!-- Node2 -->
<g id="node2" class="node">
<title>Node2</title>
<g id="a_node2"><a xlink:href="classrare_1_1components_1_1tabs_1_1downloads_1_1_downloads_tab.html#af127439f1e8c25c4b6fe5dcf178ae3f7" target="_top" xlink:title=" ">
<polygon fill="white" stroke="black" points="230,-129 230,-148 322,-148 322,-129 230,-129"/>
<text text-anchor="middle" x="276" y="-136" font-family="Helvetica,sans-Serif" font-size="10.00">game_uninstalled</text>
</a>
</g>
</g>
<!-- Node1&#45;&gt;Node2 -->
<g id="edge1" class="edge">
<title>Node1&#45;&gt;Node2</title>
<path fill="none" stroke="midnightblue" d="M347.68,-122.21C337.89,-124.47 327.75,-126.8 318.31,-128.98"/>
<polygon fill="midnightblue" stroke="midnightblue" points="348.75,-125.56 357.7,-119.9 347.17,-118.74 348.75,-125.56"/>
</g>
<!-- Node3 -->
<g id="node3" class="node">
<title>Node3</title>
<g id="a_node3"><a xlink:href="classrare_1_1components_1_1tabs_1_1downloads_1_1_downloads_tab.html#aad3d96348eedab03f9c9d1a0e79c3531" target="_top" xlink:title=" ">
<polygon fill="white" stroke="black" points="254,-73 254,-92 298,-92 298,-73 254,-73"/>
<text text-anchor="middle" x="276" y="-80" font-family="Helvetica,sans-Serif" font-size="10.00">status</text>
</a>
</g>
</g>
<!-- Node1&#45;&gt;Node3 -->
<g id="edge4" class="edge">
<title>Node1&#45;&gt;Node3</title>
<path fill="none" stroke="midnightblue" d="M347.65,-98.78C330.27,-94.78 311.79,-90.52 298.08,-87.36"/>
<polygon fill="midnightblue" stroke="midnightblue" points="347.17,-102.26 357.7,-101.1 348.75,-95.44 347.17,-102.26"/>
</g>
<!-- Node2&#45;&gt;Node2 -->
<g id="edge2" class="edge">
<title>Node2&#45;&gt;Node2</title>
<path fill="none" stroke="midnightblue" d="M298.69,-157.53C297.46,-162.63 289.89,-166.5 276,-166.5 254.32,-166.5 248.05,-157.07 257.2,-148.26"/>
<polygon fill="midnightblue" stroke="midnightblue" points="301.9,-156.12 294.8,-148.26 295.44,-158.83 301.9,-156.12"/>
</g>
<!-- Node3&#45;&gt;Node3 -->
<g id="edge11" class="edge">
<title>Node3&#45;&gt;Node3</title>
<path fill="none" stroke="midnightblue" d="M298.69,-101.53C297.46,-106.63 289.89,-110.5 276,-110.5 254.32,-110.5 248.05,-101.07 257.2,-92.26"/>
<polygon fill="midnightblue" stroke="midnightblue" points="301.9,-100.12 294.8,-92.26 295.44,-102.83 301.9,-100.12"/>
</g>
<!-- Node4 -->
<g id="node4" class="node">
<title>Node4</title>
<g id="a_node4"><a xlink:href="classrare_1_1components_1_1tabs_1_1games_1_1cloud__save__utils_1_1_cloud_save_dialog.html#afa8e1ad1d19f3a1d2c0f53ba53651a65" target="_top" xlink:title=" ">
<polygon fill="white" stroke="black" points="0,-134.5 0,-164.5 194,-164.5 194,-134.5 0,-134.5"/>
<text text-anchor="start" x="8" y="-152.5" font-family="Helvetica,sans-Serif" font-size="10.00">rare.components.tabs.games.cloud</text>
<text text-anchor="middle" x="97" y="-141.5" font-family="Helvetica,sans-Serif" font-size="10.00">_save_utils.CloudSaveDialog.btn_clicked</text>
</a>
</g>
</g>
<!-- Node3&#45;&gt;Node4 -->
<g id="edge5" class="edge">
<title>Node3&#45;&gt;Node4</title>
<path fill="none" stroke="midnightblue" d="M250.68,-97.42C234.96,-106.55 213.82,-117.89 194,-125.5 185.34,-128.82 176.06,-131.81 166.81,-134.46"/>
<polygon fill="midnightblue" stroke="midnightblue" points="252.88,-100.18 259.7,-92.07 249.31,-94.16 252.88,-100.18"/>
</g>
<!-- Node5 -->
<g id="node5" class="node">
<title>Node5</title>
<g id="a_node5"><a xlink:href="classrare_1_1components_1_1tabs_1_1games_1_1cloud__save__utils_1_1_cloud_save_dialog.html#ac0dc8bacd7d672a4a9963c685dd0ab9a" target="_top" xlink:title=" ">
<polygon fill="white" stroke="black" points="2,-67.5 2,-97.5 192,-97.5 192,-67.5 2,-67.5"/>
<text text-anchor="start" x="10" y="-85.5" font-family="Helvetica,sans-Serif" font-size="10.00">rare.components.tabs.games.cloud</text>
<text text-anchor="middle" x="97" y="-74.5" font-family="Helvetica,sans-Serif" font-size="10.00">_save_utils.CloudSaveDialog.get_action</text>
</a>
</g>
</g>
<!-- Node3&#45;&gt;Node5 -->
<g id="edge7" class="edge">
<title>Node3&#45;&gt;Node5</title>
<path fill="none" stroke="midnightblue" d="M243.27,-82.5C228.73,-82.5 210.65,-82.5 192.24,-82.5"/>
<polygon fill="midnightblue" stroke="midnightblue" points="243.65,-86 253.65,-82.5 243.65,-79 243.65,-86"/>
</g>
<!-- Node6 -->
<g id="node6" class="node">
<title>Node6</title>
<g id="a_node6"><a xlink:href="classrare_1_1lgndr_1_1glue_1_1monkeys_1_1_lgndr_indirect_logger.html#a71817f6d5b11c2c96a53e7e59bed38b8" target="_top" xlink:title=" ">
<polygon fill="white" stroke="black" points="24.5,-0.5 24.5,-30.5 169.5,-30.5 169.5,-0.5 24.5,-0.5"/>
<text text-anchor="start" x="32.5" y="-18.5" font-family="Helvetica,sans-Serif" font-size="10.00">rare.lgndr.glue.monkeys.</text>
<text text-anchor="middle" x="97" y="-7.5" font-family="Helvetica,sans-Serif" font-size="10.00">LgndrIndirectLogger.set_level</text>
</a>
</g>
</g>
<!-- Node3&#45;&gt;Node6 -->
<g id="edge9" class="edge">
<title>Node3&#45;&gt;Node6</title>
<path fill="none" stroke="midnightblue" d="M244.27,-70.87C214.8,-59.71 170.13,-42.8 137.91,-30.61"/>
<polygon fill="midnightblue" stroke="midnightblue" points="243.06,-74.15 253.65,-74.42 245.54,-67.6 243.06,-74.15"/>
</g>
<!-- Node4&#45;&gt;Node4 -->
<g id="edge6" class="edge">
<title>Node4&#45;&gt;Node4</title>
<path fill="none" stroke="midnightblue" d="M128.63,-174.96C124.7,-179.68 114.16,-183 97,-183 68.84,-183 58.5,-174.06 65.98,-164.66"/>
<polygon fill="midnightblue" stroke="midnightblue" points="132.1,-174.44 128.02,-164.66 125.12,-174.85 132.1,-174.44"/>
</g>
<!-- Node5&#45;&gt;Node5 -->
<g id="edge8" class="edge">
<title>Node5&#45;&gt;Node5</title>
<path fill="none" stroke="midnightblue" d="M128.63,-107.96C124.7,-112.68 114.16,-116 97,-116 68.84,-116 58.5,-107.06 65.98,-97.66"/>
<polygon fill="midnightblue" stroke="midnightblue" points="132.1,-107.44 128.02,-97.66 125.12,-107.85 132.1,-107.44"/>
</g>
<!-- Node6&#45;&gt;Node6 -->
<g id="edge10" class="edge">
<title>Node6&#45;&gt;Node6</title>
<path fill="none" stroke="midnightblue" d="M128.63,-40.96C124.7,-45.68 114.16,-49 97,-49 68.84,-49 58.5,-40.06 65.98,-30.66"/>
<polygon fill="midnightblue" stroke="midnightblue" points="132.1,-40.44 128.02,-30.66 125.12,-40.85 132.1,-40.44"/>
</g>
</g>
</svg>
