<?xml version="1.0" encoding="UTF-8" standalone="no"?>
<!DOCTYPE svg PUBLIC "-//W3C//DTD SVG 1.1//EN"
 "http://www.w3.org/Graphics/SVG/1.1/DTD/svg11.dtd">
<!-- Generated by graphviz version 2.49.3 (20211027.1534)
 -->
<!-- Title: prepare_pixmap Pages: 1 -->
<svg width="1053pt" height="270pt"
 viewBox="0.00 0.00 1053.00 269.50" xmlns="http://www.w3.org/2000/svg" xmlns:xlink="http://www.w3.org/1999/xlink">
<g id="graph0" class="graph" transform="scale(1 1) rotate(0) translate(4 265.5)">
<title>prepare_pixmap</title>
<polygon fill="white" stroke="transparent" points="-4,4 -4,-265.5 1049,-265.5 1049,4 -4,4"/>
<!-- Node1 -->
<g id="node1" class="node">
<title>Node1</title>
<g id="a_node1"><a xlink:title=" ">
<polygon fill="#bfbfbf" stroke="black" points="960,-84.5 960,-103.5 1045,-103.5 1045,-84.5 960,-84.5"/>
<text text-anchor="middle" x="1002.5" y="-91.5" font-family="Helvetica,sans-Serif" font-size="10.00">prepare_pixmap</text>
</a>
</g>
</g>
<!-- Node1&#45;&gt;Node1 -->
<g id="edge1" class="edge">
<title>Node1&#45;&gt;Node1</title>
<path fill="none" stroke="midnightblue" d="M1036.23,-111.89C1035.74,-117.54 1024.49,-122 1002.5,-122 970.51,-122 961.26,-112.57 974.76,-103.76"/>
<polygon fill="midnightblue" stroke="midnightblue" points="1038.99,-109.73 1030.24,-103.76 1033.35,-113.88 1038.99,-109.73"/>
</g>
<!-- Node2 -->
<g id="node2" class="node">
<title>Node2</title>
<g id="a_node2"><a xlink:href="classrare_1_1components_1_1tabs_1_1downloads_1_1download_1_1_download_widget.html#afe7221063d2a4d7b1e1f42fb85f5d06f" target="_top" xlink:title=" ">
<polygon fill="white" stroke="black" points="720,-110 720,-140 924,-140 924,-110 720,-110"/>
<text text-anchor="start" x="728" y="-128" font-family="Helvetica,sans-Serif" font-size="10.00">rare.components.tabs.downloads.download.</text>
<text text-anchor="middle" x="822" y="-117" font-family="Helvetica,sans-Serif" font-size="10.00">DownloadWidget.setPixmap</text>
</a>
</g>
</g>
<!-- Node1&#45;&gt;Node2 -->
<g id="edge2" class="edge">
<title>Node1&#45;&gt;Node2</title>
<path fill="none" stroke="midnightblue" d="M949.44,-103.04C936.92,-105.22 923.21,-107.6 909.59,-109.96"/>
<polygon fill="midnightblue" stroke="midnightblue" points="950.4,-106.43 959.65,-101.27 949.2,-99.53 950.4,-106.43"/>
</g>
<!-- Node11 -->
<g id="node11" class="node">
<title>Node11</title>
<g id="a_node11"><a xlink:href="classrare_1_1components_1_1tabs_1_1games_1_1game__widgets_1_1list__game__widget_1_1_list_game_widget.html#afe7221063d2a4d7b1e1f42fb85f5d06f" target="_top" xlink:title=" ">
<polygon fill="white" stroke="black" points="791,-53.5 791,-72.5 853,-72.5 853,-53.5 791,-53.5"/>
<text text-anchor="middle" x="822" y="-60.5" font-family="Helvetica,sans-Serif" font-size="10.00">setPixmap</text>
</a>
</g>
</g>
<!-- Node1&#45;&gt;Node11 -->
<g id="edge20" class="edge">
<title>Node1&#45;&gt;Node11</title>
<path fill="none" stroke="midnightblue" d="M949.76,-85.01C918.42,-79.57 879.53,-72.82 853.15,-68.24"/>
<polygon fill="midnightblue" stroke="midnightblue" points="949.2,-88.47 959.65,-86.73 950.4,-81.57 949.2,-88.47"/>
</g>
<!-- Node2&#45;&gt;Node2 -->
<g id="edge15" class="edge">
<title>Node2&#45;&gt;Node2</title>
<path fill="none" stroke="midnightblue" d="M853.98,-150.46C850.01,-155.18 839.35,-158.5 822,-158.5 793.52,-158.5 783.07,-149.56 790.63,-140.16"/>
<polygon fill="midnightblue" stroke="midnightblue" points="857.46,-149.93 853.37,-140.16 850.47,-150.35 857.46,-149.93"/>
</g>
<!-- Node3 -->
<g id="node3" class="node">
<title>Node3</title>
<g id="a_node3"><a xlink:href="classrare_1_1components_1_1tabs_1_1store_1_1widgets_1_1image_1_1_loading_image_widget.html#a5e746b7db8fca760d821d8bdd801fc52" target="_top" xlink:title=" ">
<polygon fill="white" stroke="black" points="479,-146 479,-176 679,-176 679,-146 479,-146"/>
<text text-anchor="start" x="487" y="-164" font-family="Helvetica,sans-Serif" font-size="10.00">rare.components.tabs.store.widgets.image.</text>
<text text-anchor="middle" x="579" y="-153" font-family="Helvetica,sans-Serif" font-size="10.00">LoadingImageWidget.fetchPixmap</text>
</a>
</g>
</g>
<!-- Node2&#45;&gt;Node3 -->
<g id="edge3" class="edge">
<title>Node2&#45;&gt;Node3</title>
<path fill="none" stroke="midnightblue" d="M710.54,-141.5C700.07,-143.06 689.49,-144.64 679.14,-146.19"/>
<polygon fill="midnightblue" stroke="midnightblue" points="711.17,-144.95 720.54,-140.01 710.13,-138.02 711.17,-144.95"/>
</g>
<!-- Node8 -->
<g id="node8" class="node">
<title>Node8</title>
<g id="a_node8"><a xlink:href="classrare_1_1utils_1_1extra__widgets_1_1_image_label.html#a29f0251454b3bdbf53b196a41cfb5c44" target="_top" xlink:title=" ">
<polygon fill="white" stroke="black" points="516.5,-79 516.5,-109 641.5,-109 641.5,-79 516.5,-79"/>
<text text-anchor="start" x="524.5" y="-97" font-family="Helvetica,sans-Serif" font-size="10.00">rare.utils.extra_widgets.</text>
<text text-anchor="middle" x="579" y="-86" font-family="Helvetica,sans-Serif" font-size="10.00">ImageLabel.image_ready</text>
</a>
</g>
</g>
<!-- Node2&#45;&gt;Node8 -->
<g id="edge13" class="edge">
<title>Node2&#45;&gt;Node8</title>
<path fill="none" stroke="midnightblue" d="M709.84,-110.7C686.41,-107.69 662.51,-104.61 641.71,-101.94"/>
<polygon fill="midnightblue" stroke="midnightblue" points="709.48,-114.18 719.84,-111.99 710.37,-107.24 709.48,-114.18"/>
</g>
<!-- Node9 -->
<g id="node9" class="node">
<title>Node9</title>
<g id="a_node9"><a xlink:href="classrare_1_1components_1_1tabs_1_1games_1_1game__widgets_1_1library__widget_1_1_library_widget.html#aba6dbd857b7a02c2f1fbd7d472416b54" target="_top" xlink:title=" ">
<polygon fill="white" stroke="black" points="474,-0.5 474,-41.5 684,-41.5 684,-0.5 474,-0.5"/>
<text text-anchor="start" x="482" y="-29.5" font-family="Helvetica,sans-Serif" font-size="10.00">rare.components.tabs.games.game</text>
<text text-anchor="start" x="482" y="-18.5" font-family="Helvetica,sans-Serif" font-size="10.00">_widgets.library_widget.LibraryWidget.update</text>
<text text-anchor="middle" x="579" y="-7.5" font-family="Helvetica,sans-Serif" font-size="10.00">Progress</text>
</a>
</g>
</g>
<!-- Node2&#45;&gt;Node9 -->
<g id="edge16" class="edge">
<title>Node2&#45;&gt;Node9</title>
<path fill="none" stroke="midnightblue" d="M734.23,-106.42C729.33,-104.48 724.55,-102.35 720,-100 701.24,-90.31 701.76,-80.42 684,-69 667.86,-58.62 649.11,-49.24 632.01,-41.59"/>
<polygon fill="midnightblue" stroke="midnightblue" points="733.19,-109.77 743.78,-109.92 735.59,-103.2 733.19,-109.77"/>
</g>
<!-- Node3&#45;&gt;Node3 -->
<g id="edge8" class="edge">
<title>Node3&#45;&gt;Node3</title>
<path fill="none" stroke="midnightblue" d="M622.39,-186.09C617.39,-191.01 602.93,-194.5 579,-194.5 540.71,-194.5 526.66,-185.56 536.83,-176.16"/>
<polygon fill="midnightblue" stroke="midnightblue" points="625.87,-185.66 621.17,-176.16 618.92,-186.51 625.87,-185.66"/>
</g>
<!-- Node4 -->
<g id="node4" class="node">
<title>Node4</title>
<g id="a_node4"><a xlink:href="classrare_1_1components_1_1tabs_1_1store_1_1widgets_1_1items_1_1_results_item_widget.html#aa6e4a481f332ad11a870b247a793e7d1" target="_top" xlink:title=" ">
<polygon fill="white" stroke="black" points="237,-213 237,-243 435,-243 435,-213 237,-213"/>
<text text-anchor="start" x="245" y="-231" font-family="Helvetica,sans-Serif" font-size="10.00">rare.components.tabs.store.widgets.items.</text>
<text text-anchor="middle" x="336" y="-220" font-family="Helvetica,sans-Serif" font-size="10.00">ResultsItemWidget.__init__</text>
</a>
</g>
</g>
<!-- Node3&#45;&gt;Node4 -->
<g id="edge4" class="edge">
<title>Node3&#45;&gt;Node4</title>
<path fill="none" stroke="midnightblue" d="M521.7,-179.2C496.25,-187.19 465.72,-196.46 438,-204 426.7,-207.08 414.62,-210.14 402.9,-212.99"/>
<polygon fill="midnightblue" stroke="midnightblue" points="523.07,-182.44 531.55,-176.09 520.96,-175.76 523.07,-182.44"/>
</g>
<!-- Node5 -->
<g id="node5" class="node">
<title>Node5</title>
<g id="a_node5"><a xlink:href="classrare_1_1components_1_1tabs_1_1store_1_1widgets_1_1items_1_1_wishlist_item_widget.html#aa6e4a481f332ad11a870b247a793e7d1" target="_top" xlink:title=" ">
<polygon fill="white" stroke="black" points="237,-146 237,-176 435,-176 435,-146 237,-146"/>
<text text-anchor="start" x="245" y="-164" font-family="Helvetica,sans-Serif" font-size="10.00">rare.components.tabs.store.widgets.items.</text>
<text text-anchor="middle" x="336" y="-153" font-family="Helvetica,sans-Serif" font-size="10.00">WishlistItemWidget.__init__</text>
</a>
</g>
</g>
<!-- Node3&#45;&gt;Node5 -->
<g id="edge6" class="edge">
<title>Node3&#45;&gt;Node5</title>
<path fill="none" stroke="midnightblue" d="M468.74,-161C457.59,-161 446.31,-161 435.29,-161"/>
<polygon fill="midnightblue" stroke="midnightblue" points="468.93,-164.5 478.93,-161 468.93,-157.5 468.93,-164.5"/>
</g>
<!-- Node6 -->
<g id="node6" class="node">
<title>Node6</title>
<g id="a_node6"><a xlink:href="classrare_1_1components_1_1tabs_1_1store_1_1widgets_1_1items_1_1_store_item_widget.html#a25fcdb296abc02d48b1b9c473f1b7597" target="_top" xlink:title=" ">
<polygon fill="white" stroke="black" points="237,-79 237,-109 435,-109 435,-79 237,-79"/>
<text text-anchor="start" x="245" y="-97" font-family="Helvetica,sans-Serif" font-size="10.00">rare.components.tabs.store.widgets.items.</text>
<text text-anchor="middle" x="336" y="-86" font-family="Helvetica,sans-Serif" font-size="10.00">StoreItemWidget.init_ui</text>
</a>
</g>
</g>
<!-- Node3&#45;&gt;Node6 -->
<g id="edge9" class="edge">
<title>Node3&#45;&gt;Node6</title>
<path fill="none" stroke="midnightblue" d="M499.55,-143.58C490.9,-141.46 482.25,-139.24 474,-137 442.97,-128.56 408.42,-117.71 381.79,-109.02"/>
<polygon fill="midnightblue" stroke="midnightblue" points="498.74,-146.98 509.28,-145.93 500.39,-140.18 498.74,-146.98"/>
</g>
<!-- Node4&#45;&gt;Node4 -->
<g id="edge5" class="edge">
<title>Node4&#45;&gt;Node4</title>
<path fill="none" stroke="midnightblue" d="M378.32,-253.09C373.44,-258.01 359.33,-261.5 336,-261.5 298.66,-261.5 284.95,-252.56 294.87,-243.16"/>
<polygon fill="midnightblue" stroke="midnightblue" points="381.79,-252.67 377.13,-243.16 374.84,-253.5 381.79,-252.67"/>
</g>
<!-- Node5&#45;&gt;Node5 -->
<g id="edge7" class="edge">
<title>Node5&#45;&gt;Node5</title>
<path fill="none" stroke="midnightblue" d="M378.32,-186.09C373.44,-191.01 359.33,-194.5 336,-194.5 298.66,-194.5 284.95,-185.56 294.87,-176.16"/>
<polygon fill="midnightblue" stroke="midnightblue" points="381.79,-185.67 377.13,-176.16 374.84,-186.5 381.79,-185.67"/>
</g>
<!-- Node6&#45;&gt;Node6 -->
<g id="edge12" class="edge">
<title>Node6&#45;&gt;Node6</title>
<path fill="none" stroke="midnightblue" d="M378.32,-119.09C373.44,-124.01 359.33,-127.5 336,-127.5 298.66,-127.5 284.95,-118.56 294.87,-109.16"/>
<polygon fill="midnightblue" stroke="midnightblue" points="381.79,-118.67 377.13,-109.16 374.84,-119.5 381.79,-118.67"/>
</g>
<!-- Node7 -->
<g id="node7" class="node">
<title>Node7</title>
<g id="a_node7"><a xlink:href="classrare_1_1components_1_1tabs_1_1store_1_1widgets_1_1items_1_1_store_item_widget.html#a10bc7e3ba7dbaf8018c30feaee63e609" target="_top" xlink:title=" ">
<polygon fill="white" stroke="black" points="0,-79 0,-109 198,-109 198,-79 0,-79"/>
<text text-anchor="start" x="8" y="-97" font-family="Helvetica,sans-Serif" font-size="10.00">rare.components.tabs.store.widgets.items.</text>
<text text-anchor="middle" x="99" y="-86" font-family="Helvetica,sans-Serif" font-size="10.00">StoreItemWidget.__init__</text>
</a>
</g>
</g>
<!-- Node6&#45;&gt;Node7 -->
<g id="edge10" class="edge">
<title>Node6&#45;&gt;Node7</title>
<path fill="none" stroke="midnightblue" d="M226.52,-94C217.11,-94 207.61,-94 198.28,-94"/>
<polygon fill="midnightblue" stroke="midnightblue" points="226.7,-97.5 236.7,-94 226.7,-90.5 226.7,-97.5"/>
</g>
<!-- Node7&#45;&gt;Node7 -->
<g id="edge11" class="edge">
<title>Node7&#45;&gt;Node7</title>
<path fill="none" stroke="midnightblue" d="M141.32,-119.09C136.44,-124.01 122.33,-127.5 99,-127.5 61.66,-127.5 47.95,-118.56 57.87,-109.16"/>
<polygon fill="midnightblue" stroke="midnightblue" points="144.79,-118.67 140.13,-109.16 137.84,-119.5 144.79,-118.67"/>
</g>
<!-- Node8&#45;&gt;Node8 -->
<g id="edge14" class="edge">
<title>Node8&#45;&gt;Node8</title>
<path fill="none" stroke="midnightblue" d="M622.39,-119.09C617.39,-124.01 602.93,-127.5 579,-127.5 540.71,-127.5 526.66,-118.56 536.83,-109.16"/>
<polygon fill="midnightblue" stroke="midnightblue" points="625.87,-118.66 621.17,-109.16 618.92,-119.51 625.87,-118.66"/>
</g>
<!-- Node9&#45;&gt;Node9 -->
<g id="edge19" class="edge">
<title>Node9&#45;&gt;Node9</title>
<path fill="none" stroke="midnightblue" d="M620.63,-51.86C614.44,-56.7 600.56,-60 579,-60 544.5,-60 529.67,-51.54 534.52,-41.86"/>
<polygon fill="midnightblue" stroke="midnightblue" points="624.11,-52.44 623.48,-41.86 617.37,-50.52 624.11,-52.44"/>
</g>
<!-- Node10 -->
<g id="node10" class="node">
<title>Node10</title>
<g id="a_node10"><a xlink:href="classrare_1_1components_1_1tabs_1_1games_1_1game__widgets_1_1library__widget_1_1_library_widget.html#a1990ae73849da7538f16b24becb60023" target="_top" xlink:title=" ">
<polygon fill="white" stroke="black" points="234,-0.5 234,-41.5 438,-41.5 438,-0.5 234,-0.5"/>
<text text-anchor="start" x="242" y="-29.5" font-family="Helvetica,sans-Serif" font-size="10.00">rare.components.tabs.games.game</text>
<text text-anchor="start" x="242" y="-18.5" font-family="Helvetica,sans-Serif" font-size="10.00">_widgets.library_widget.LibraryWidget.show</text>
<text text-anchor="middle" x="336" y="-7.5" font-family="Helvetica,sans-Serif" font-size="10.00">Progress</text>
</a>
</g>
</g>
<!-- Node9&#45;&gt;Node10 -->
<g id="edge17" class="edge">
<title>Node9&#45;&gt;Node10</title>
<path fill="none" stroke="midnightblue" d="M463.67,-21C455.11,-21 446.51,-21 438.03,-21"/>
<polygon fill="midnightblue" stroke="midnightblue" points="463.7,-24.5 473.7,-21 463.7,-17.5 463.7,-24.5"/>
</g>
<!-- Node10&#45;&gt;Node10 -->
<g id="edge18" class="edge">
<title>Node10&#45;&gt;Node10</title>
<path fill="none" stroke="midnightblue" d="M376.6,-51.86C370.56,-56.7 357.03,-60 336,-60 302.35,-60 287.89,-51.54 292.63,-41.86"/>
<polygon fill="midnightblue" stroke="midnightblue" points="380.07,-52.44 379.37,-41.86 373.33,-50.56 380.07,-52.44"/>
</g>
<!-- Node11&#45;&gt;Node3 -->
<g id="edge21" class="edge">
<title>Node11&#45;&gt;Node3</title>
<path fill="none" stroke="midnightblue" d="M780.97,-73.72C761.63,-79.96 738.64,-88.98 720,-101 700.98,-113.26 703.79,-126.03 684,-137 677.76,-140.46 671.05,-143.42 664.14,-145.95"/>
<polygon fill="midnightblue" stroke="midnightblue" points="782.19,-77.01 790.71,-70.71 780.12,-70.32 782.19,-77.01"/>
</g>
<!-- Node11&#45;&gt;Node8 -->
<g id="edge22" class="edge">
<title>Node11&#45;&gt;Node8</title>
<path fill="none" stroke="midnightblue" d="M780.79,-68.17C742.8,-73.06 685.26,-80.46 641.51,-86.09"/>
<polygon fill="midnightblue" stroke="midnightblue" points="781.49,-71.61 790.96,-66.86 780.6,-64.67 781.49,-71.61"/>
</g>
<!-- Node11&#45;&gt;Node9 -->
<g id="edge24" class="edge">
<title>Node11&#45;&gt;Node9</title>
<path fill="none" stroke="midnightblue" d="M780.93,-56.02C754.41,-51.4 718.32,-45.11 684.04,-39.13"/>
<polygon fill="midnightblue" stroke="midnightblue" points="780.51,-59.5 790.96,-57.77 781.71,-52.6 780.51,-59.5"/>
</g>
<!-- Node11&#45;&gt;Node11 -->
<g id="edge23" class="edge">
<title>Node11&#45;&gt;Node11</title>
<path fill="none" stroke="midnightblue" d="M855.73,-80.89C855.24,-86.54 843.99,-91 822,-91 790.01,-91 780.76,-81.57 794.26,-72.76"/>
<polygon fill="midnightblue" stroke="midnightblue" points="858.49,-78.73 849.74,-72.76 852.85,-82.88 858.49,-78.73"/>
</g>
</g>
</svg>
