<?xml version="1.0" encoding="UTF-8" standalone="no"?>
<!DOCTYPE svg PUBLIC "-//W3C//DTD SVG 1.1//EN"
 "http://www.w3.org/Graphics/SVG/1.1/DTD/svg11.dtd">
<!-- Generated by graphviz version 2.49.3 (20211027.1534)
 -->
<!-- Title: move Pages: 1 -->
<svg width="639pt" height="144pt"
 viewBox="0.00 0.00 639.00 144.11" xmlns="http://www.w3.org/2000/svg" xmlns:xlink="http://www.w3.org/1999/xlink">
<g id="graph0" class="graph" transform="scale(1 1) rotate(0) translate(4 140.11)">
<title>move</title>
<polygon fill="white" stroke="transparent" points="-4,4 -4,-140.11 635,-140.11 635,4 -4,4"/>
<!-- Node1 -->
<g id="node1" class="node">
<title>Node1</title>
<g id="a_node1"><a xlink:title=" ">
<polygon fill="#bfbfbf" stroke="black" points="0,-50 0,-69 41,-69 41,-50 0,-50"/>
<text text-anchor="middle" x="20.5" y="-57" font-family="Helvetica,sans-Serif" font-size="10.00">move</text>
</a>
</g>
</g>
<!-- Node1&#45;&gt;Node1 -->
<g id="edge15" class="edge">
<title>Node1&#45;&gt;Node1</title>
<path fill="none" stroke="midnightblue" d="M6.32,-69.26C-0.58,-78.07 4.15,-87.5 20.5,-87.5 30.72,-87.5 36.4,-83.81 37.54,-78.9"/>
<polygon fill="midnightblue" stroke="midnightblue" points="40.88,-77.85 34.68,-69.26 34.16,-79.84 40.88,-77.85"/>
</g>
<!-- Node2 -->
<g id="node2" class="node">
<title>Node2</title>
<g id="a_node2"><a xlink:href="classrare_1_1shared_1_1rare__core_1_1_rare_core.html#a405e1a4f20f16120f872ccd2654a1d56" target="_top" xlink:title=" ">
<polygon fill="white" stroke="black" points="330,-0.5 330,-30.5 460,-30.5 460,-0.5 330,-0.5"/>
<text text-anchor="start" x="338" y="-18.5" font-family="Helvetica,sans-Serif" font-size="10.00">rare.shared.rare_core.Rare</text>
<text text-anchor="middle" x="395" y="-7.5" font-family="Helvetica,sans-Serif" font-size="10.00">Core.core</text>
</a>
</g>
</g>
<!-- Node1&#45;&gt;Node2 -->
<g id="edge1" class="edge">
<title>Node1&#45;&gt;Node2</title>
<path fill="none" stroke="midnightblue" d="M41.05,-51.98C51.59,-48.14 64.87,-43.63 77,-40.5 123.76,-28.42 135.95,-26.43 184,-21.5 228.99,-16.89 279.66,-15.34 319.96,-14.96"/>
<polygon fill="midnightblue" stroke="midnightblue" points="319.99,-18.46 329.97,-14.89 319.94,-11.46 319.99,-18.46"/>
</g>
<!-- Node3 -->
<g id="node3" class="node">
<title>Node3</title>
<g id="a_node3"><a xlink:href="classrare_1_1shared_1_1workers_1_1worker_1_1_worker.html#a5d3220537164bdcd6c040b54ef85f656" target="_top" xlink:title=" ">
<polygon fill="white" stroke="black" points="496,-81.5 496,-111.5 631,-111.5 631,-81.5 496,-81.5"/>
<text text-anchor="start" x="504" y="-99.5" font-family="Helvetica,sans-Serif" font-size="10.00">rare.shared.workers.worker.</text>
<text text-anchor="middle" x="563.5" y="-88.5" font-family="Helvetica,sans-Serif" font-size="10.00">Worker.logger</text>
</a>
</g>
</g>
<!-- Node1&#45;&gt;Node3 -->
<g id="edge14" class="edge">
<title>Node1&#45;&gt;Node3</title>
<path fill="none" stroke="midnightblue" d="M33.07,-69.17C43.8,-77.64 60.54,-89.63 77,-96.5 121.8,-115.2 135.85,-112.27 184,-118.5 305.7,-134.26 338.52,-143.91 460,-126.5 477.02,-124.06 495.17,-119.45 511.38,-114.56"/>
<polygon fill="midnightblue" stroke="midnightblue" points="512.7,-117.82 521.2,-111.5 510.61,-111.14 512.7,-117.82"/>
</g>
<!-- Node4 -->
<g id="node4" class="node">
<title>Node4</title>
<g id="a_node4"><a xlink:href="classrare_1_1lgndr_1_1cli_1_1_legendary_c_l_i.html#a4aaa726f3b4643dc9fc5f027294fc9c9" target="_top" xlink:title=" ">
<polygon fill="white" stroke="black" points="77,-50 77,-69 148,-69 148,-50 77,-50"/>
<text text-anchor="middle" x="112.5" y="-57" font-family="Helvetica,sans-Serif" font-size="10.00">install_game</text>
</a>
</g>
</g>
<!-- Node1&#45;&gt;Node4 -->
<g id="edge5" class="edge">
<title>Node1&#45;&gt;Node4</title>
<path fill="none" stroke="midnightblue" d="M41.03,-59.5C48.62,-59.5 57.64,-59.5 66.66,-59.5"/>
<polygon fill="midnightblue" stroke="midnightblue" points="66.77,-63 76.77,-59.5 66.77,-56 66.77,-63"/>
</g>
<!-- Node2&#45;&gt;Node2 -->
<g id="edge2" class="edge">
<title>Node2&#45;&gt;Node2</title>
<path fill="none" stroke="midnightblue" d="M367.81,-30.66C361.26,-40.06 370.32,-49 395,-49 410.04,-49 419.28,-45.68 422.72,-40.96"/>
<polygon fill="midnightblue" stroke="midnightblue" points="426.2,-40.46 422.19,-30.66 419.21,-40.83 426.2,-40.46"/>
</g>
<!-- Node2&#45;&gt;Node3 -->
<g id="edge3" class="edge">
<title>Node2&#45;&gt;Node3</title>
<path fill="none" stroke="midnightblue" d="M426.93,-30.55C453.83,-43.63 492.99,-62.68 522.31,-76.95"/>
<polygon fill="midnightblue" stroke="midnightblue" points="520.93,-80.17 531.46,-81.4 524,-73.88 520.93,-80.17"/>
</g>
<!-- Node3&#45;&gt;Node3 -->
<g id="edge4" class="edge">
<title>Node3&#45;&gt;Node3</title>
<path fill="none" stroke="midnightblue" d="M534.22,-111.66C527.16,-121.06 536.92,-130 563.5,-130 579.7,-130 589.65,-126.68 593.35,-121.96"/>
<polygon fill="midnightblue" stroke="midnightblue" points="596.83,-121.45 592.78,-111.66 589.84,-121.84 596.83,-121.45"/>
</g>
<!-- Node4&#45;&gt;Node2 -->
<g id="edge6" class="edge">
<title>Node4&#45;&gt;Node2</title>
<path fill="none" stroke="midnightblue" d="M145.21,-49.91C157.26,-46.54 171.18,-42.98 184,-40.5 228.7,-31.86 279.36,-25.73 319.73,-21.7"/>
<polygon fill="midnightblue" stroke="midnightblue" points="320.14,-25.17 329.76,-20.72 319.46,-18.21 320.14,-25.17"/>
</g>
<!-- Node4&#45;&gt;Node3 -->
<g id="edge13" class="edge">
<title>Node4&#45;&gt;Node3</title>
<path fill="none" stroke="midnightblue" d="M127,-69.15C140.63,-78.24 162.66,-91.24 184,-96.5 285.97,-121.63 408.15,-115.38 485.55,-107.14"/>
<polygon fill="midnightblue" stroke="midnightblue" points="486.15,-110.6 495.7,-106.02 485.38,-103.64 486.15,-110.6"/>
</g>
<!-- Node4&#45;&gt;Node4 -->
<g id="edge7" class="edge">
<title>Node4&#45;&gt;Node4</title>
<path fill="none" stroke="midnightblue" d="M98.32,-69.26C91.42,-78.07 96.15,-87.5 112.5,-87.5 122.72,-87.5 128.4,-83.81 129.54,-78.9"/>
<polygon fill="midnightblue" stroke="midnightblue" points="132.88,-77.85 126.68,-69.26 126.16,-79.84 132.88,-77.85"/>
</g>
<!-- Node5 -->
<g id="node5" class="node">
<title>Node5</title>
<g id="a_node5"><a xlink:href="classrare_1_1lgndr_1_1cli_1_1_legendary_c_l_i.html#a7de93b9e2b51b491d5c70be49680f66d" target="_top" xlink:title=" ">
<polygon fill="white" stroke="black" points="184,-50 184,-69 294,-69 294,-50 184,-50"/>
<text text-anchor="middle" x="239" y="-57" font-family="Helvetica,sans-Serif" font-size="10.00">install_game_cleanup</text>
</a>
</g>
</g>
<!-- Node4&#45;&gt;Node5 -->
<g id="edge8" class="edge">
<title>Node4&#45;&gt;Node5</title>
<path fill="none" stroke="midnightblue" d="M148.18,-53.38C156.14,-52.99 164.86,-52.78 173.64,-52.75"/>
<polygon fill="midnightblue" stroke="midnightblue" points="173.91,-56.25 183.92,-52.8 173.94,-49.25 173.91,-56.25"/>
</g>
<!-- Node5&#45;&gt;Node2 -->
<g id="edge9" class="edge">
<title>Node5&#45;&gt;Node2</title>
<path fill="none" stroke="midnightblue" d="M273.42,-49.95C290.44,-45.09 311.71,-39.01 331.63,-33.32"/>
<polygon fill="midnightblue" stroke="midnightblue" points="332.62,-36.68 341.27,-30.57 330.69,-29.95 332.62,-36.68"/>
</g>
<!-- Node5&#45;&gt;Node3 -->
<g id="edge12" class="edge">
<title>Node5&#45;&gt;Node3</title>
<path fill="none" stroke="midnightblue" d="M294.34,-65.73C346.86,-71.76 426.92,-80.95 485.9,-87.71"/>
<polygon fill="midnightblue" stroke="midnightblue" points="485.58,-91.2 495.91,-88.86 486.38,-84.24 485.58,-91.2"/>
</g>
<!-- Node5&#45;&gt;Node4 -->
<g id="edge10" class="edge">
<title>Node5&#45;&gt;Node4</title>
<path fill="none" stroke="midnightblue" d="M183.92,-66.2C175.4,-66.31 166.67,-66.24 158.39,-66.01"/>
<polygon fill="midnightblue" stroke="midnightblue" points="158.31,-62.51 148.18,-65.62 158.04,-69.5 158.31,-62.51"/>
</g>
<!-- Node5&#45;&gt;Node5 -->
<g id="edge11" class="edge">
<title>Node5&#45;&gt;Node5</title>
<path fill="none" stroke="midnightblue" d="M219.58,-69.26C210.13,-78.07 216.61,-87.5 239,-87.5 253.35,-87.5 261.16,-83.63 262.44,-78.53"/>
<polygon fill="midnightblue" stroke="midnightblue" points="265.61,-77.04 258.42,-69.26 259.18,-79.82 265.61,-77.04"/>
</g>
</g>
</svg>
