<?xml version="1.0" encoding="UTF-8" standalone="no"?>
<!DOCTYPE svg PUBLIC "-//W3C//DTD SVG 1.1//EN"
 "http://www.w3.org/Graphics/SVG/1.1/DTD/svg11.dtd">
<!-- Generated by graphviz version 2.49.3 (20211027.1534)
 -->
<!-- Title: ImageLabel Pages: 1 -->
<svg width="100pt" height="237pt"
 viewBox="0.00 0.00 100.00 237.00" xmlns="http://www.w3.org/2000/svg" xmlns:xlink="http://www.w3.org/1999/xlink">
<g id="graph0" class="graph" transform="scale(1 1) rotate(0) translate(4 233)">
<title>ImageLabel</title>
<polygon fill="white" stroke="transparent" points="-4,4 -4,-233 96,-233 96,4 -4,4"/>
<!-- Node1 -->
<g id="node1" class="node">
<title>Node1</title>
<g id="a_node1"><a xlink:title=" ">
<polygon fill="#bfbfbf" stroke="black" points="0,-0.5 0,-134.5 92,-134.5 92,-0.5 0,-0.5"/>
<text text-anchor="middle" x="46" y="-122.5" font-family="Helvetica,sans-Serif" font-size="10.00">ImageLabel</text>
<polyline fill="none" stroke="black" points="0,-115.5 92,-115.5 "/>
<text text-anchor="start" x="8" y="-103.5" font-family="Helvetica,sans-Serif" font-size="10.00">+ path</text>
<text text-anchor="start" x="8" y="-92.5" font-family="Helvetica,sans-Serif" font-size="10.00">+ manager</text>
<text text-anchor="start" x="8" y="-81.5" font-family="Helvetica,sans-Serif" font-size="10.00">+ image</text>
<text text-anchor="start" x="8" y="-70.5" font-family="Helvetica,sans-Serif" font-size="10.00">+ img_size</text>
<text text-anchor="start" x="8" y="-59.5" font-family="Helvetica,sans-Serif" font-size="10.00">+ name</text>
<polyline fill="none" stroke="black" points="0,-52.5 92,-52.5 "/>
<text text-anchor="start" x="8" y="-40.5" font-family="Helvetica,sans-Serif" font-size="10.00">+ __init__()</text>
<text text-anchor="start" x="8" y="-29.5" font-family="Helvetica,sans-Serif" font-size="10.00">+ update_image()</text>
<text text-anchor="start" x="8" y="-18.5" font-family="Helvetica,sans-Serif" font-size="10.00">+ image_ready()</text>
<text text-anchor="start" x="8" y="-7.5" font-family="Helvetica,sans-Serif" font-size="10.00">+ show_image()</text>
</a>
</g>
</g>
<!-- Node2 -->
<g id="node2" class="node">
<title>Node2</title>
<g id="a_node2"><a xlink:title=" ">
<polygon fill="white" stroke="#bfbfbf" points="22,-171.5 22,-228.5 70,-228.5 70,-171.5 22,-171.5"/>
<text text-anchor="middle" x="46" y="-216.5" font-family="Helvetica,sans-Serif" font-size="10.00">QLabel</text>
<polyline fill="none" stroke="#bfbfbf" points="22,-209.5 70,-209.5 "/>
<text text-anchor="middle" x="46" y="-197.5" font-family="Helvetica,sans-Serif" font-size="10.00"> </text>
<polyline fill="none" stroke="#bfbfbf" points="22,-190.5 70,-190.5 "/>
<text text-anchor="middle" x="46" y="-178.5" font-family="Helvetica,sans-Serif" font-size="10.00"> </text>
</a>
</g>
</g>
<!-- Node2&#45;&gt;Node1 -->
<g id="edge1" class="edge">
<title>Node2&#45;&gt;Node1</title>
<path fill="none" stroke="midnightblue" d="M46,-161.16C46,-152.78 46,-143.67 46,-134.53"/>
<polygon fill="none" stroke="midnightblue" points="42.5,-161.32 46,-171.32 49.5,-161.32 42.5,-161.32"/>
</g>
</g>
</svg>
