<?xml version="1.0" encoding="UTF-8" standalone="no"?>
<!DOCTYPE svg PUBLIC "-//W3C//DTD SVG 1.1//EN"
 "http://www.w3.org/Graphics/SVG/1.1/DTD/svg11.dtd">
<!-- Generated by graphviz version 2.49.3 (20211027.1534)
 -->
<!-- Title: add_library_widget Pages: 1 -->
<svg width="595pt" height="114pt"
 viewBox="0.00 0.00 595.00 113.50" xmlns="http://www.w3.org/2000/svg" xmlns:xlink="http://www.w3.org/1999/xlink">
<g id="graph0" class="graph" transform="scale(1 1) rotate(0) translate(4 109.5)">
<title>add_library_widget</title>
<polygon fill="white" stroke="transparent" points="-4,4 -4,-109.5 591,-109.5 591,4 -4,4"/>
<!-- Node1 -->
<g id="node1" class="node">
<title>Node1</title>
<g id="a_node1"><a xlink:title=" ">
<polygon fill="#bfbfbf" stroke="black" points="0,-31.5 0,-50.5 97,-50.5 97,-31.5 0,-31.5"/>
<text text-anchor="middle" x="48.5" y="-38.5" font-family="Helvetica,sans-Serif" font-size="10.00">add_library_widget</text>
</a>
</g>
</g>
<!-- Node1&#45;&gt;Node1 -->
<g id="edge1" class="edge">
<title>Node1&#45;&gt;Node1</title>
<path fill="none" stroke="midnightblue" d="M25.07,-50.76C13.68,-59.57 21.48,-69 48.5,-69 66.23,-69 75.69,-64.94 76.87,-59.65"/>
<polygon fill="midnightblue" stroke="midnightblue" points="79.84,-57.8 71.93,-50.76 73.73,-61.2 79.84,-57.8"/>
</g>
<!-- Node2 -->
<g id="node2" class="node">
<title>Node2</title>
<g id="a_node2"><a xlink:href="classrare_1_1components_1_1tabs_1_1store_1_1_shop.html#adce81273b921608423370102d510bcab" target="_top" xlink:title=" ">
<polygon fill="white" stroke="black" points="133,-57 133,-87 269,-87 269,-57 133,-57"/>
<text text-anchor="start" x="141" y="-75" font-family="Helvetica,sans-Serif" font-size="10.00">rare.components.tabs.store.</text>
<text text-anchor="middle" x="201" y="-64" font-family="Helvetica,sans-Serif" font-size="10.00">Shop.show_game_info</text>
</a>
</g>
</g>
<!-- Node1&#45;&gt;Node2 -->
<g id="edge2" class="edge">
<title>Node1&#45;&gt;Node2</title>
<path fill="none" stroke="midnightblue" d="M95.88,-50.55C104.45,-52.32 113.6,-54.2 122.79,-56.1"/>
<polygon fill="midnightblue" stroke="midnightblue" points="122.25,-59.56 132.75,-58.15 123.66,-52.7 122.25,-59.56"/>
</g>
<!-- Node5 -->
<g id="node5" class="node">
<title>Node5</title>
<g id="a_node5"><a xlink:href="classrare_1_1components_1_1tabs_1_1games_1_1_games_tab.html#a09ad02746b43edc7bbeade971378aa4e" target="_top" xlink:title=" ">
<polygon fill="white" stroke="black" points="156,-0.5 156,-19.5 246,-19.5 246,-0.5 156,-0.5"/>
<text text-anchor="middle" x="201" y="-7.5" font-family="Helvetica,sans-Serif" font-size="10.00">show_game_info</text>
</a>
</g>
</g>
<!-- Node1&#45;&gt;Node5 -->
<g id="edge7" class="edge">
<title>Node1&#45;&gt;Node5</title>
<path fill="none" stroke="midnightblue" d="M95.88,-31.45C111.69,-28.19 129.5,-24.52 145.86,-21.15"/>
<polygon fill="midnightblue" stroke="midnightblue" points="146.74,-24.54 155.83,-19.1 145.33,-17.69 146.74,-24.54"/>
</g>
<!-- Node2&#45;&gt;Node2 -->
<g id="edge6" class="edge">
<title>Node2&#45;&gt;Node2</title>
<path fill="none" stroke="midnightblue" d="M174.51,-87.16C168.12,-96.56 176.95,-105.5 201,-105.5 215.65,-105.5 224.66,-102.18 228.01,-97.46"/>
<polygon fill="midnightblue" stroke="midnightblue" points="231.49,-96.97 227.49,-87.16 224.5,-97.32 231.49,-96.97"/>
</g>
<!-- Node3 -->
<g id="node3" class="node">
<title>Node3</title>
<g id="a_node3"><a xlink:href="classrare_1_1lgndr_1_1glue_1_1monkeys_1_1_lgndr_indirect_logger.html#a98a895468c8036bb8122dd2c568d91e7" target="_top" xlink:title=" ">
<polygon fill="white" stroke="black" points="305,-57 305,-87 427,-87 427,-57 305,-57"/>
<text text-anchor="start" x="313" y="-75" font-family="Helvetica,sans-Serif" font-size="10.00">rare.lgndr.glue.monkeys.</text>
<text text-anchor="middle" x="366" y="-64" font-family="Helvetica,sans-Serif" font-size="10.00">LgndrIndirectLogger.info</text>
</a>
</g>
</g>
<!-- Node2&#45;&gt;Node3 -->
<g id="edge3" class="edge">
<title>Node2&#45;&gt;Node3</title>
<path fill="none" stroke="midnightblue" d="M269.24,-72C277.66,-72 286.28,-72 294.74,-72"/>
<polygon fill="midnightblue" stroke="midnightblue" points="294.96,-75.5 304.96,-72 294.96,-68.5 294.96,-75.5"/>
</g>
<!-- Node3&#45;&gt;Node3 -->
<g id="edge5" class="edge">
<title>Node3&#45;&gt;Node3</title>
<path fill="none" stroke="midnightblue" d="M338.47,-87.16C331.83,-96.56 341,-105.5 366,-105.5 381.23,-105.5 390.59,-102.18 394.07,-97.46"/>
<polygon fill="midnightblue" stroke="midnightblue" points="397.55,-96.96 393.53,-87.16 390.56,-97.33 397.55,-96.96"/>
</g>
<!-- Node4 -->
<g id="node4" class="node">
<title>Node4</title>
<g id="a_node4"><a xlink:href="classrare_1_1lgndr_1_1glue_1_1monkeys_1_1_lgndr_indirect_logger.html#a66bb1af90088807e5445bcf242390463" target="_top" xlink:title=" ">
<polygon fill="white" stroke="black" points="463,-57 463,-87 587,-87 587,-57 463,-57"/>
<text text-anchor="start" x="471" y="-75" font-family="Helvetica,sans-Serif" font-size="10.00">rare.lgndr.glue.monkeys.</text>
<text text-anchor="middle" x="525" y="-64" font-family="Helvetica,sans-Serif" font-size="10.00">LgndrIndirectLogger._log</text>
</a>
</g>
</g>
<!-- Node3&#45;&gt;Node4 -->
<g id="edge4" class="edge">
<title>Node3&#45;&gt;Node4</title>
<path fill="none" stroke="midnightblue" d="M427.25,-72C435.55,-72 444.14,-72 452.61,-72"/>
<polygon fill="midnightblue" stroke="midnightblue" points="452.87,-75.5 462.87,-72 452.87,-68.5 452.87,-75.5"/>
</g>
<!-- Node5&#45;&gt;Node5 -->
<g id="edge8" class="edge">
<title>Node5&#45;&gt;Node5</title>
<path fill="none" stroke="midnightblue" d="M177.57,-19.76C166.18,-28.57 173.98,-38 201,-38 218.73,-38 228.19,-33.94 229.37,-28.65"/>
<polygon fill="midnightblue" stroke="midnightblue" points="232.34,-26.8 224.43,-19.76 226.23,-30.2 232.34,-26.8"/>
</g>
</g>
</svg>
