<?xml version="1.0" encoding="UTF-8" standalone="no"?>
<!DOCTYPE svg PUBLIC "-//W3C//DTD SVG 1.1//EN"
 "http://www.w3.org/Graphics/SVG/1.1/DTD/svg11.dtd">
<!-- Generated by graphviz version 2.49.3 (20211027.1534)
 -->
<!-- Title: install_dir_save_callback Pages: 1 -->
<svg width="369pt" height="114pt"
 viewBox="0.00 0.00 369.00 113.50" xmlns="http://www.w3.org/2000/svg" xmlns:xlink="http://www.w3.org/1999/xlink">
<g id="graph0" class="graph" transform="scale(1 1) rotate(0) translate(4 109.5)">
<title>install_dir_save_callback</title>
<polygon fill="white" stroke="transparent" points="-4,4 -4,-109.5 365,-109.5 365,4 -4,4"/>
<!-- Node1 -->
<g id="node1" class="node">
<title>Node1</title>
<g id="a_node1"><a xlink:title=" ">
<polygon fill="#bfbfbf" stroke="black" points="0,-37 0,-56 125,-56 125,-37 0,-37"/>
<text text-anchor="middle" x="62.5" y="-44" font-family="Helvetica,sans-Serif" font-size="10.00">install_dir_save_callback</text>
</a>
</g>
</g>
<!-- Node1&#45;&gt;Node1 -->
<g id="edge3" class="edge">
<title>Node1&#45;&gt;Node1</title>
<path fill="none" stroke="midnightblue" d="M31.98,-56.26C17.14,-65.07 27.31,-74.5 62.5,-74.5 87.24,-74.5 99.62,-69.84 99.62,-64"/>
<polygon fill="midnightblue" stroke="midnightblue" points="102.17,-61.59 93.02,-56.26 96.84,-66.14 102.17,-61.59"/>
</g>
<!-- Node2 -->
<g id="node2" class="node">
<title>Node2</title>
<g id="a_node2"><a xlink:href="namespacerare_1_1utils_1_1misc.html#a3544b31f50ff739b7e8bb4ab751026b7" target="_top" xlink:title=" ">
<polygon fill="white" stroke="black" points="196.5,-68 196.5,-87 325.5,-87 325.5,-68 196.5,-68"/>
<text text-anchor="middle" x="261" y="-75" font-family="Helvetica,sans-Serif" font-size="10.00">rare.utils.misc.format_size</text>
</a>
</g>
</g>
<!-- Node1&#45;&gt;Node2 -->
<g id="edge1" class="edge">
<title>Node1&#45;&gt;Node2</title>
<path fill="none" stroke="midnightblue" d="M123.79,-56.01C144.54,-59.28 167.95,-62.98 189.44,-66.37"/>
<polygon fill="midnightblue" stroke="midnightblue" points="189.06,-69.85 199.48,-67.95 190.15,-62.94 189.06,-69.85"/>
</g>
<!-- Node3 -->
<g id="node3" class="node">
<title>Node3</title>
<g id="a_node3"><a xlink:href="classrare_1_1components_1_1tabs_1_1library_1_1widgets_1_1game__widget_1_1_game_widget.html#aa660d748bc3a0c7c2dfaa15cee8e6ba6" target="_top" xlink:title=" ">
<polygon fill="white" stroke="black" points="161,-0.5 161,-30.5 361,-30.5 361,-0.5 161,-0.5"/>
<text text-anchor="start" x="169" y="-18.5" font-family="Helvetica,sans-Serif" font-size="10.00">rare.components.tabs.library.widgets.game</text>
<text text-anchor="middle" x="261" y="-7.5" font-family="Helvetica,sans-Serif" font-size="10.00">_widget.GameWidget.ui</text>
</a>
</g>
</g>
<!-- Node1&#45;&gt;Node3 -->
<g id="edge4" class="edge">
<title>Node1&#45;&gt;Node3</title>
<path fill="none" stroke="midnightblue" d="M123.79,-36.99C133.62,-35.44 144.05,-33.79 154.6,-32.13"/>
<polygon fill="midnightblue" stroke="midnightblue" points="155.39,-35.55 164.72,-30.53 154.3,-28.63 155.39,-35.55"/>
</g>
<!-- Node2&#45;&gt;Node2 -->
<g id="edge2" class="edge">
<title>Node2&#45;&gt;Node2</title>
<path fill="none" stroke="midnightblue" d="M230.48,-87.26C215.64,-96.07 225.81,-105.5 261,-105.5 285.74,-105.5 298.12,-100.84 298.12,-95"/>
<polygon fill="midnightblue" stroke="midnightblue" points="300.67,-92.59 291.52,-87.26 295.34,-97.14 300.67,-92.59"/>
</g>
<!-- Node3&#45;&gt;Node3 -->
<g id="edge5" class="edge">
<title>Node3&#45;&gt;Node3</title>
<path fill="none" stroke="midnightblue" d="M226.49,-30.66C218.17,-40.06 229.68,-49 261,-49 280.09,-49 291.82,-45.68 296.18,-40.96"/>
<polygon fill="midnightblue" stroke="midnightblue" points="299.65,-40.41 295.51,-30.66 292.67,-40.87 299.65,-40.41"/>
</g>
</g>
</svg>
