<?xml version="1.0" encoding="UTF-8" standalone="no"?>
<!DOCTYPE svg PUBLIC "-//W3C//DTD SVG 1.1//EN"
 "http://www.w3.org/Graphics/SVG/1.1/DTD/svg11.dtd">
<!-- Generated by graphviz version 2.49.3 (20211027.1534)
 -->
<!-- Title: close Pages: 1 -->
<!--zoomable 315 -->
<svg id="main" version="1.1" xmlns="http://www.w3.org/2000/svg" xmlns:xlink="http://www.w3.org/1999/xlink" xml:space="preserve" onload="init(evt)">
<style type="text/css"><![CDATA[
.edge:hover path { stroke: red; }
.edge:hover polygon { stroke: red; fill: red; }
]]></style>
<script type="text/javascript"><![CDATA[
var edges = document.getElementsByTagName('g');
if (edges && edges.length) {
  for (var i=0;i<edges.length;i++) {
    if (edges[i].id.substr(0,4)=='edge') {
      edges[i].setAttribute('class','edge');
    }
  }
}
]]></script>
        <defs>
                <circle id="rim" cx="0" cy="0" r="7"/>
                <circle id="rim2" cx="0" cy="0" r="3.5"/>
                <g id="zoomPlus">
                        <use xlink:href="#rim" fill="#404040">
                                <set attributeName="fill" to="#808080" begin="zoomplus.mouseover" end="zoomplus.mouseout"/>
                        </use>
                        <path d="M-4,0h8M0,-4v8" fill="none" stroke="white" stroke-width="1.5" pointer-events="none"/>
                </g>
                <g id="zoomMin">
                        <use xlink:href="#rim" fill="#404040">
                                <set attributeName="fill" to="#808080" begin="zoomminus.mouseover" end="zoomminus.mouseout"/>
                        </use>
                        <path d="M-4,0h8" fill="none" stroke="white" stroke-width="1.5" pointer-events="none"/>
                </g>
                <g id="dirArrow">
                        <path fill="none" stroke="white" stroke-width="1.5" d="M0,-3.0v7 M-2.5,-0.5L0,-3.0L2.5,-0.5"/>
                </g>
               <g id="resetDef">
                       <use xlink:href="#rim2" fill="#404040">
                               <set attributeName="fill" to="#808080" begin="reset.mouseover" end="reset.mouseout"/>
                       </use>
               </g>
        </defs>

<script type="text/javascript">
var viewWidth = 1036;
var viewHeight = 315;
var sectionId = 'dynsection-9';
</script>
<script xlink:href="svgpan.js"/>
<svg id="graph" class="graph">
<g id="viewport">
<title>close</title>
<polygon fill="white" stroke="transparent" points="-4,4 -4,-310.5 1032.04,-310.5 1032.04,4 -4,4"/>
<!-- Node1 -->
<g id="node1" class="node">
<title>Node1</title>
<g id="a_node1"><a xlink:title=" ">
<polygon fill="#bfbfbf" stroke="black" points="983,-117.5 983,-136.5 1023,-136.5 1023,-117.5 983,-117.5"/>
<text text-anchor="middle" x="1003" y="-124.5" font-family="Helvetica,sans-Serif" font-size="10.00">close</text>
</a>
</g>
</g>
<!-- Node1&#45;&gt;Node1 -->
<g id="edge14" class="edge">
<title>Node1&#45;&gt;Node1</title>
<path fill="none" stroke="midnightblue" d="M1028.04,-145.48C1027.15,-150.85 1018.8,-155 1003,-155 978.92,-155 972.15,-145.36 982.68,-136.47"/>
<polygon fill="midnightblue" stroke="midnightblue" points="1031.06,-143.7 1023.32,-136.47 1024.86,-146.95 1031.06,-143.7"/>
</g>
<!-- Node2 -->
<g id="node2" class="node">
<title>Node2</title>
<g id="a_node2"><a xlink:href="classrare_1_1commands_1_1launcher_1_1console__dialog_1_1_console_dialog.html#a7df04f32b8c03f8466e5b558ba482582" target="_top" xlink:title=" ">
<polygon fill="white" stroke="black" points="789,-213 789,-243 947,-243 947,-213 789,-213"/>
<text text-anchor="start" x="797" y="-231" font-family="Helvetica,sans-Serif" font-size="10.00">rare.commands.launcher.console</text>
<text text-anchor="middle" x="868" y="-220" font-family="Helvetica,sans-Serif" font-size="10.00">_dialog.ConsoleDialog.accept</text>
</a>
</g>
</g>
<!-- Node1&#45;&gt;Node2 -->
<g id="edge1" class="edge">
<title>Node1&#45;&gt;Node2</title>
<path fill="none" stroke="midnightblue" d="M993.1,-145.82C983.9,-163.32 967.94,-188.9 947,-204 942.29,-207.4 937.08,-210.32 931.67,-212.84"/>
<polygon fill="midnightblue" stroke="midnightblue" points="996.38,-147.1 997.72,-136.59 990.12,-143.96 996.38,-147.1"/>
</g>
<!-- Node8 -->
<g id="node8" class="node">
<title>Node8</title>
<g id="a_node8"><a xlink:href="classrare_1_1commands_1_1launcher_1_1console__dialog_1_1_console_dialog.html#a33a02ef4b42e3415d52577b919a65830" target="_top" xlink:title=" ">
<polygon fill="white" stroke="black" points="789,-146 789,-176 947,-176 947,-146 789,-146"/>
<text text-anchor="start" x="797" y="-164" font-family="Helvetica,sans-Serif" font-size="10.00">rare.commands.launcher.console</text>
<text text-anchor="middle" x="868" y="-153" font-family="Helvetica,sans-Serif" font-size="10.00">_dialog.ConsoleDialog.reject</text>
</a>
</g>
</g>
<!-- Node1&#45;&gt;Node8 -->
<g id="edge15" class="edge">
<title>Node1&#45;&gt;Node8</title>
<path fill="none" stroke="midnightblue" d="M972.99,-134.42C959.7,-137.81 943.45,-141.97 927.77,-145.97"/>
<polygon fill="midnightblue" stroke="midnightblue" points="974.12,-137.74 982.94,-131.87 972.39,-130.96 974.12,-137.74"/>
</g>
<!-- Node11 -->
<g id="node11" class="node">
<title>Node11</title>
<g id="a_node11"><a xlink:href="classrare_1_1widgets_1_1dialogs_1_1_test_dialog.html#aa236e1c39388858634236a92a98ff13e" target="_top" xlink:title=" ">
<polygon fill="white" stroke="black" points="806,-79 806,-109 930,-109 930,-79 806,-79"/>
<text text-anchor="start" x="814" y="-97" font-family="Helvetica,sans-Serif" font-size="10.00">rare.widgets.dialogs.Test</text>
<text text-anchor="middle" x="868" y="-86" font-family="Helvetica,sans-Serif" font-size="10.00">Dialog.reject</text>
</a>
</g>
</g>
<!-- Node1&#45;&gt;Node11 -->
<g id="edge21" class="edge">
<title>Node1&#45;&gt;Node11</title>
<path fill="none" stroke="midnightblue" d="M972.92,-119.79C960.15,-116.62 944.64,-112.77 929.55,-109.02"/>
<polygon fill="midnightblue" stroke="midnightblue" points="972.4,-123.26 982.94,-122.27 974.08,-116.47 972.4,-123.26"/>
</g>
<!-- Node12 -->
<g id="node12" class="node">
<title>Node12</title>
<g id="a_node12"><a xlink:href="classrare_1_1components_1_1main__window_1_1_rare_window.html#aa932131ff73a2a934f2f2da848314955" target="_top" xlink:title=" ">
<polygon fill="white" stroke="black" points="800,-0.5 800,-41.5 936,-41.5 936,-0.5 800,-0.5"/>
<text text-anchor="start" x="808" y="-29.5" font-family="Helvetica,sans-Serif" font-size="10.00">rare.components.main</text>
<text text-anchor="start" x="808" y="-18.5" font-family="Helvetica,sans-Serif" font-size="10.00">_window.RareWindow.timer</text>
<text text-anchor="middle" x="868" y="-7.5" font-family="Helvetica,sans-Serif" font-size="10.00">_finished</text>
</a>
</g>
</g>
<!-- Node1&#45;&gt;Node12 -->
<g id="edge24" class="edge">
<title>Node1&#45;&gt;Node12</title>
<path fill="none" stroke="midnightblue" d="M987.59,-109.54C977.07,-97.38 962.06,-81.22 947,-69 934.65,-58.98 920.05,-49.46 906.84,-41.59"/>
<polygon fill="midnightblue" stroke="midnightblue" points="984.97,-111.86 994.11,-117.22 990.31,-107.33 984.97,-111.86"/>
</g>
<!-- Node2&#45;&gt;Node2 -->
<g id="edge2" class="edge">
<title>Node2&#45;&gt;Node2</title>
<path fill="none" stroke="midnightblue" d="M891.81,-253.46C888.86,-258.18 880.92,-261.5 868,-261.5 846.8,-261.5 839.02,-252.56 844.65,-243.16"/>
<polygon fill="midnightblue" stroke="midnightblue" points="895.29,-252.99 891.35,-243.16 888.3,-253.3 895.29,-252.99"/>
</g>
<!-- Node3 -->
<g id="node3" class="node">
<title>Node3</title>
<g id="a_node3"><a xlink:href="classrare_1_1components_1_1dialogs_1_1install__dialog_1_1_install_dialog.html#a64dd35f139577016bc6417719d65d969" target="_top" xlink:title=" ">
<polygon fill="white" stroke="black" points="574,-213 574,-243 753,-243 753,-213 574,-213"/>
<text text-anchor="start" x="582" y="-231" font-family="Helvetica,sans-Serif" font-size="10.00">rare.components.dialogs.install</text>
<text text-anchor="middle" x="663.5" y="-220" font-family="Helvetica,sans-Serif" font-size="10.00">_dialog.InstallDialog.on_worker_result</text>
</a>
</g>
</g>
<!-- Node2&#45;&gt;Node3 -->
<g id="edge3" class="edge">
<title>Node2&#45;&gt;Node3</title>
<path fill="none" stroke="midnightblue" d="M778.76,-228C770.3,-228 761.72,-228 753.26,-228"/>
<polygon fill="midnightblue" stroke="midnightblue" points="779,-231.5 789,-228 779,-224.5 779,-231.5"/>
</g>
<!-- Node3&#45;&gt;Node3 -->
<g id="edge13" class="edge">
<title>Node3&#45;&gt;Node3</title>
<path fill="none" stroke="midnightblue" d="M699.04,-253.46C694.63,-258.18 682.78,-261.5 663.5,-261.5 631.86,-261.5 620.24,-252.56 628.65,-243.16"/>
<polygon fill="midnightblue" stroke="midnightblue" points="702.51,-252.91 698.35,-243.16 695.52,-253.37 702.51,-252.91"/>
</g>
<!-- Node4 -->
<g id="node4" class="node">
<title>Node4</title>
<g id="a_node4"><a xlink:href="classrare_1_1components_1_1dialogs_1_1install__dialog_1_1_install_dialog.html#aca780d78b993a295a93507a4a6d12a69" target="_top" xlink:title=" ">
<polygon fill="white" stroke="black" points="389,-207.5 389,-248.5 538,-248.5 538,-207.5 389,-207.5"/>
<text text-anchor="start" x="397" y="-236.5" font-family="Helvetica,sans-Serif" font-size="10.00">rare.components.dialogs.install</text>
<text text-anchor="start" x="397" y="-225.5" font-family="Helvetica,sans-Serif" font-size="10.00">_dialog.InstallDialog.get</text>
<text text-anchor="middle" x="463.5" y="-214.5" font-family="Helvetica,sans-Serif" font-size="10.00">_download_info</text>
</a>
</g>
</g>
<!-- Node3&#45;&gt;Node4 -->
<g id="edge4" class="edge">
<title>Node3&#45;&gt;Node4</title>
<path fill="none" stroke="midnightblue" d="M563.81,-228C555.19,-228 546.56,-228 538.18,-228"/>
<polygon fill="midnightblue" stroke="midnightblue" points="563.92,-231.5 573.92,-228 563.92,-224.5 563.92,-231.5"/>
</g>
<!-- Node4&#45;&gt;Node4 -->
<g id="edge12" class="edge">
<title>Node4&#45;&gt;Node4</title>
<path fill="none" stroke="midnightblue" d="M496.88,-258.86C491.91,-263.7 480.79,-267 463.5,-267 435.84,-267 423.95,-258.54 427.84,-248.86"/>
<polygon fill="midnightblue" stroke="midnightblue" points="500.34,-259.39 499.16,-248.86 493.52,-257.84 500.34,-259.39"/>
</g>
<!-- Node5 -->
<g id="node5" class="node">
<title>Node5</title>
<g id="a_node5"><a xlink:href="classrare_1_1components_1_1dialogs_1_1install__dialog_1_1_install_dialog.html#a91c6c5717fad488963fe42e9bc046c11" target="_top" xlink:title=" ">
<polygon fill="white" stroke="black" points="185,-235 185,-265 353,-265 353,-235 185,-235"/>
<text text-anchor="start" x="193" y="-253" font-family="Helvetica,sans-Serif" font-size="10.00">rare.components.dialogs.install</text>
<text text-anchor="middle" x="269" y="-242" font-family="Helvetica,sans-Serif" font-size="10.00">_dialog.InstallDialog.action_handler</text>
</a>
</g>
</g>
<!-- Node4&#45;&gt;Node5 -->
<g id="edge5" class="edge">
<title>Node4&#45;&gt;Node5</title>
<path fill="none" stroke="midnightblue" d="M378.95,-237.55C370.41,-238.52 361.74,-239.52 353.2,-240.49"/>
<polygon fill="midnightblue" stroke="midnightblue" points="379.36,-241.02 388.9,-236.41 378.57,-234.07 379.36,-241.02"/>
</g>
<!-- Node7 -->
<g id="node7" class="node">
<title>Node7</title>
<g id="a_node7"><a xlink:href="classrare_1_1components_1_1dialogs_1_1install__dialog_1_1_install_dialog.html#aa902973791e81c8c4542da337b86289b" target="_top" xlink:title=" ">
<polygon fill="white" stroke="black" points="0,-191 0,-221 149,-221 149,-191 0,-191"/>
<text text-anchor="start" x="8" y="-209" font-family="Helvetica,sans-Serif" font-size="10.00">rare.components.dialogs.install</text>
<text text-anchor="middle" x="74.5" y="-198" font-family="Helvetica,sans-Serif" font-size="10.00">_dialog.InstallDialog.execute</text>
</a>
</g>
</g>
<!-- Node4&#45;&gt;Node7 -->
<g id="edge11" class="edge">
<title>Node4&#45;&gt;Node7</title>
<path fill="none" stroke="midnightblue" d="M378.5,-223.22C310.16,-219.34 214.67,-213.91 149.26,-210.19"/>
<polygon fill="midnightblue" stroke="midnightblue" points="378.61,-226.74 388.8,-223.81 379.01,-219.75 378.61,-226.74"/>
</g>
<!-- Node5&#45;&gt;Node5 -->
<g id="edge8" class="edge">
<title>Node5&#45;&gt;Node5</title>
<path fill="none" stroke="midnightblue" d="M303.47,-275.46C299.19,-280.18 287.7,-283.5 269,-283.5 238.31,-283.5 227.04,-274.56 235.19,-265.16"/>
<polygon fill="midnightblue" stroke="midnightblue" points="306.94,-274.91 302.81,-265.16 299.96,-275.36 306.94,-274.91"/>
</g>
<!-- Node6 -->
<g id="node6" class="node">
<title>Node6</title>
<g id="a_node6"><a xlink:href="classrare_1_1widgets_1_1dialogs_1_1_action_dialog.html#a10c562aecba2dac76244db2a3ffd290d" target="_top" xlink:title=" ">
<polygon fill="white" stroke="black" points="8.5,-258 8.5,-288 140.5,-288 140.5,-258 8.5,-258"/>
<text text-anchor="start" x="16.5" y="-276" font-family="Helvetica,sans-Serif" font-size="10.00">rare.widgets.dialogs.Action</text>
<text text-anchor="middle" x="74.5" y="-265" font-family="Helvetica,sans-Serif" font-size="10.00">Dialog.action</text>
</a>
</g>
</g>
<!-- Node5&#45;&gt;Node6 -->
<g id="edge6" class="edge">
<title>Node5&#45;&gt;Node6</title>
<path fill="none" stroke="midnightblue" d="M174.82,-261.13C163.24,-262.52 151.59,-263.91 140.56,-265.23"/>
<polygon fill="midnightblue" stroke="midnightblue" points="175.45,-264.58 184.97,-259.92 174.62,-257.63 175.45,-264.58"/>
</g>
<!-- Node5&#45;&gt;Node7 -->
<g id="edge9" class="edge">
<title>Node5&#45;&gt;Node7</title>
<path fill="none" stroke="midnightblue" d="M192.45,-232.73C175.53,-228.86 157.72,-224.79 141.24,-221.03"/>
<polygon fill="midnightblue" stroke="midnightblue" points="191.76,-236.16 202.29,-234.98 193.32,-229.34 191.76,-236.16"/>
</g>
<!-- Node6&#45;&gt;Node6 -->
<g id="edge7" class="edge">
<title>Node6&#45;&gt;Node6</title>
<path fill="none" stroke="midnightblue" d="M108.97,-298.46C104.69,-303.18 93.2,-306.5 74.5,-306.5 43.81,-306.5 32.54,-297.56 40.69,-288.16"/>
<polygon fill="midnightblue" stroke="midnightblue" points="112.44,-297.91 108.31,-288.16 105.46,-298.36 112.44,-297.91"/>
</g>
<!-- Node7&#45;&gt;Node7 -->
<g id="edge10" class="edge">
<title>Node7&#45;&gt;Node7</title>
<path fill="none" stroke="midnightblue" d="M108.97,-231.46C104.69,-236.18 93.2,-239.5 74.5,-239.5 43.81,-239.5 32.54,-230.56 40.69,-221.16"/>
<polygon fill="midnightblue" stroke="midnightblue" points="112.44,-230.91 108.31,-221.16 105.46,-231.36 112.44,-230.91"/>
</g>
<!-- Node8&#45;&gt;Node8 -->
<g id="edge20" class="edge">
<title>Node8&#45;&gt;Node8</title>
<path fill="none" stroke="midnightblue" d="M891.81,-186.46C888.86,-191.18 880.92,-194.5 868,-194.5 846.8,-194.5 839.02,-185.56 844.65,-176.16"/>
<polygon fill="midnightblue" stroke="midnightblue" points="895.29,-185.99 891.35,-176.16 888.3,-186.3 895.29,-185.99"/>
</g>
<!-- Node9 -->
<g id="node9" class="node">
<title>Node9</title>
<g id="a_node9"><a xlink:href="classrare_1_1components_1_1dialogs_1_1login_1_1_login_dialog.html#a6c3ea5ef9b9848bf1214c66978e3d59d" target="_top" xlink:title=" ">
<polygon fill="white" stroke="black" points="590.5,-110 590.5,-140 736.5,-140 736.5,-110 590.5,-110"/>
<text text-anchor="start" x="598.5" y="-128" font-family="Helvetica,sans-Serif" font-size="10.00">rare.components.dialogs.login.</text>
<text text-anchor="middle" x="663.5" y="-117" font-family="Helvetica,sans-Serif" font-size="10.00">LoginDialog.login</text>
</a>
</g>
</g>
<!-- Node8&#45;&gt;Node9 -->
<g id="edge16" class="edge">
<title>Node8&#45;&gt;Node9</title>
<path fill="none" stroke="midnightblue" d="M778.85,-145.33C764.81,-142.83 750.43,-140.28 736.82,-137.86"/>
<polygon fill="midnightblue" stroke="midnightblue" points="778.54,-148.83 789,-147.13 779.76,-141.94 778.54,-148.83"/>
</g>
<!-- Node9&#45;&gt;Node9 -->
<g id="edge17" class="edge">
<title>Node9&#45;&gt;Node9</title>
<path fill="none" stroke="midnightblue" d="M699.04,-150.46C694.63,-155.18 682.78,-158.5 663.5,-158.5 631.86,-158.5 620.24,-149.56 628.65,-140.16"/>
<polygon fill="midnightblue" stroke="midnightblue" points="702.51,-149.91 698.35,-140.16 695.52,-150.37 702.51,-149.91"/>
</g>
<!-- Node10 -->
<g id="node10" class="node">
<title>Node10</title>
<g id="a_node10"><a xlink:href="classrare_1_1components_1_1dialogs_1_1login_1_1_login_dialog.html#ae180ea6e1d2b446b4890e6f2d0256e53" target="_top" xlink:title=" ">
<polygon fill="white" stroke="black" points="390.5,-110 390.5,-140 536.5,-140 536.5,-110 390.5,-110"/>
<text text-anchor="start" x="398.5" y="-128" font-family="Helvetica,sans-Serif" font-size="10.00">rare.components.dialogs.login.</text>
<text text-anchor="middle" x="463.5" y="-117" font-family="Helvetica,sans-Serif" font-size="10.00">LoginDialog.login_successful</text>
</a>
</g>
</g>
<!-- Node9&#45;&gt;Node10 -->
<g id="edge18" class="edge">
<title>Node9&#45;&gt;Node10</title>
<path fill="none" stroke="midnightblue" d="M580.1,-125C565.73,-125 550.89,-125 536.82,-125"/>
<polygon fill="midnightblue" stroke="midnightblue" points="580.46,-128.5 590.46,-125 580.46,-121.5 580.46,-128.5"/>
</g>
<!-- Node10&#45;&gt;Node10 -->
<g id="edge19" class="edge">
<title>Node10&#45;&gt;Node10</title>
<path fill="none" stroke="midnightblue" d="M497.97,-150.46C493.69,-155.18 482.2,-158.5 463.5,-158.5 432.81,-158.5 421.54,-149.56 429.69,-140.16"/>
<polygon fill="midnightblue" stroke="midnightblue" points="501.44,-149.91 497.31,-140.16 494.46,-150.36 501.44,-149.91"/>
</g>
<!-- Node11&#45;&gt;Node9 -->
<g id="edge22" class="edge">
<title>Node11&#45;&gt;Node9</title>
<path fill="none" stroke="midnightblue" d="M795.83,-104.9C776.7,-107.82 756,-110.99 736.82,-113.93"/>
<polygon fill="midnightblue" stroke="midnightblue" points="796.61,-108.32 805.97,-103.34 795.55,-101.4 796.61,-108.32"/>
</g>
<!-- Node11&#45;&gt;Node11 -->
<g id="edge23" class="edge">
<title>Node11&#45;&gt;Node11</title>
<path fill="none" stroke="midnightblue" d="M891.81,-119.46C888.86,-124.18 880.92,-127.5 868,-127.5 846.8,-127.5 839.02,-118.56 844.65,-109.16"/>
<polygon fill="midnightblue" stroke="midnightblue" points="895.29,-118.99 891.35,-109.16 888.3,-119.3 895.29,-118.99"/>
</g>
<!-- Node12&#45;&gt;Node12 -->
<g id="edge25" class="edge">
<title>Node12&#45;&gt;Node12</title>
<path fill="none" stroke="midnightblue" d="M891.05,-51.86C887.63,-56.7 879.94,-60 868,-60 848.89,-60 840.69,-51.54 843.37,-41.86"/>
<polygon fill="midnightblue" stroke="midnightblue" points="894.53,-52.29 892.63,-41.86 887.61,-51.2 894.53,-52.29"/>
</g>
</g>
</svg>
        <g id="navigator" transform="translate(0 0)" fill="#404254">
                <rect fill="#f2f5e9" fill-opacity="0.5" stroke="#606060" stroke-width=".5" x="0" y="0" width="60" height="60"/>
                <use id="zoomplus" xlink:href="#zoomPlus" x="17" y="9" onmousedown="handleZoom(evt,'in')"/>
                <use id="zoomminus" xlink:href="#zoomMin" x="42" y="9" onmousedown="handleZoom(evt,'out')"/>
                <use id="reset" xlink:href="#resetDef" x="30" y="36" onmousedown="handleReset()"/>
                <g id="arrowUp" xlink:href="#dirArrow" transform="translate(30 24)" onmousedown="handlePan(0,-1)">
                  <use xlink:href="#rim" fill="#404040">
                        <set attributeName="fill" to="#808080" begin="arrowUp.mouseover" end="arrowUp.mouseout"/>
                  </use>
                  <path fill="none" stroke="white" stroke-width="1.5" d="M0,-3.0v7 M-2.5,-0.5L0,-3.0L2.5,-0.5"/>
                </g>
                <g id="arrowRight" xlink:href="#dirArrow" transform="rotate(90) translate(36 -43)" onmousedown="handlePan(1,0)">
                  <use xlink:href="#rim" fill="#404040">
                        <set attributeName="fill" to="#808080" begin="arrowRight.mouseover" end="arrowRight.mouseout"/>
                  </use>
                  <path fill="none" stroke="white" stroke-width="1.5" d="M0,-3.0v7 M-2.5,-0.5L0,-3.0L2.5,-0.5"/>
                </g>
                <g id="arrowDown" xlink:href="#dirArrow" transform="rotate(180) translate(-30 -48)" onmousedown="handlePan(0,1)">
                  <use xlink:href="#rim" fill="#404040">
                        <set attributeName="fill" to="#808080" begin="arrowDown.mouseover" end="arrowDown.mouseout"/>
                  </use>
                  <path fill="none" stroke="white" stroke-width="1.5" d="M0,-3.0v7 M-2.5,-0.5L0,-3.0L2.5,-0.5"/>
                </g>
                <g id="arrowLeft" xlink:href="#dirArrow" transform="rotate(270) translate(-36 17)" onmousedown="handlePan(-1,0)">
                  <use xlink:href="#rim" fill="#404040">
                        <set attributeName="fill" to="#808080" begin="arrowLeft.mouseover" end="arrowLeft.mouseout"/>
                  </use>
                  <path fill="none" stroke="white" stroke-width="1.5" d="M0,-3.0v7 M-2.5,-0.5L0,-3.0L2.5,-0.5"/>
                </g>
        </g>
        <svg viewBox="0 0 15 15" width="100%" height="30px" preserveAspectRatio="xMaxYMin meet">
         <g id="arrow_out" transform="scale(0.3 0.3)">
          <a xlink:href="classrare_1_1widgets_1_1dialogs_1_1_button_dialog_a8639372c33e15084a7f7c4d9d87b7bfe_icgraph_org.svg" target="_base">
           <rect id="button" ry="5" rx="5" y="6" x="6" height="38" width="38"
                fill="#f2f5e9" fill-opacity="0.5" stroke="#606060" stroke-width="1.0"/>
           <path id="arrow"
             d="M 11.500037,31.436501 C 11.940474,20.09759 22.043105,11.32322 32.158766,21.979434 L 37.068811,17.246167 C 37.068811,17.246167 37.088388,32 37.088388,32 L 22.160133,31.978069 C 22.160133,31.978069 26.997745,27.140456 26.997745,27.140456 C 18.528582,18.264221 13.291696,25.230495 11.500037,31.436501 z"
             style="fill:#404040;"/>
          </a>
         </g>
        </svg>
</svg>
