<?xml version="1.0" encoding="UTF-8" standalone="no"?>
<!DOCTYPE svg PUBLIC "-//W3C//DTD SVG 1.1//EN"
 "http://www.w3.org/Graphics/SVG/1.1/DTD/svg11.dtd">
<!-- Generated by graphviz version 2.49.3 (20211027.1534)
 -->
<!-- Title: set_new_game Pages: 1 -->
<svg width="560pt" height="85pt"
 viewBox="0.00 0.00 560.00 85.00" xmlns="http://www.w3.org/2000/svg" xmlns:xlink="http://www.w3.org/1999/xlink">
<g id="graph0" class="graph" transform="scale(1 1) rotate(0) translate(4 81)">
<title>set_new_game</title>
<polygon fill="white" stroke="transparent" points="-4,4 -4,-81 556,-81 556,4 -4,4"/>
<!-- Node1 -->
<g id="node1" class="node">
<title>Node1</title>
<g id="a_node1"><a xlink:title=" ">
<polygon fill="#bfbfbf" stroke="black" points="469,-28.5 469,-47.5 552,-47.5 552,-28.5 469,-28.5"/>
<text text-anchor="middle" x="510.5" y="-35.5" font-family="Helvetica,sans-Serif" font-size="10.00">set_new_game</text>
</a>
</g>
</g>
<!-- Node1&#45;&gt;Node1 -->
<g id="edge5" class="edge">
<title>Node1&#45;&gt;Node1</title>
<path fill="none" stroke="midnightblue" d="M534.68,-57.03C533.36,-62.13 525.3,-66 510.5,-66 487.39,-66 480.72,-56.57 490.46,-47.76"/>
<polygon fill="midnightblue" stroke="midnightblue" points="537.81,-55.46 530.54,-47.76 531.42,-58.31 537.81,-55.46"/>
</g>
<!-- Node2 -->
<g id="node2" class="node">
<title>Node2</title>
<g id="a_node2"><a xlink:href="classrare_1_1components_1_1tabs_1_1games_1_1game__info_1_1game__info_1_1_game_info.html#a81e7b67a8823a5172404a26579563a51" target="_top" xlink:title=" ">
<polygon fill="white" stroke="black" points="221,-28.5 221,-47.5 291,-47.5 291,-28.5 221,-28.5"/>
<text text-anchor="middle" x="256" y="-35.5" font-family="Helvetica,sans-Serif" font-size="10.00">move_game</text>
</a>
</g>
</g>
<!-- Node1&#45;&gt;Node2 -->
<g id="edge1" class="edge">
<title>Node1&#45;&gt;Node2</title>
<path fill="none" stroke="midnightblue" d="M458.49,-44.84C449.99,-45.74 441.26,-46.52 433,-47 385.97,-49.76 374.01,-50.01 327,-47 315.26,-46.25 302.48,-44.79 291.1,-43.27"/>
<polygon fill="midnightblue" stroke="midnightblue" points="459.14,-48.29 468.69,-43.7 458.36,-41.34 459.14,-48.29"/>
</g>
<!-- Node4 -->
<g id="node4" class="node">
<title>Node4</title>
<g id="a_node4"><a xlink:href="classrare_1_1components_1_1tabs_1_1games_1_1game__info_1_1game__info_1_1_game_info.html#af60941a3141b28229b3a5ac264ace394" target="_top" xlink:title=" ">
<polygon fill="white" stroke="black" points="327,-0.5 327,-19.5 433,-19.5 433,-0.5 327,-0.5"/>
<text text-anchor="middle" x="380" y="-7.5" font-family="Helvetica,sans-Serif" font-size="10.00">start_copy_diff_drive</text>
</a>
</g>
</g>
<!-- Node1&#45;&gt;Node4 -->
<g id="edge6" class="edge">
<title>Node1&#45;&gt;Node4</title>
<path fill="none" stroke="midnightblue" d="M458.78,-26.95C447.59,-24.51 435.84,-21.95 424.95,-19.58"/>
<polygon fill="midnightblue" stroke="midnightblue" points="458.33,-30.43 468.84,-29.14 459.82,-23.59 458.33,-30.43"/>
</g>
<!-- Node2&#45;&gt;Node2 -->
<g id="edge4" class="edge">
<title>Node2&#45;&gt;Node2</title>
<path fill="none" stroke="midnightblue" d="M279.07,-57.03C277.81,-62.13 270.12,-66 256,-66 233.96,-66 227.59,-56.57 236.89,-47.76"/>
<polygon fill="midnightblue" stroke="midnightblue" points="282.25,-55.58 275.11,-47.76 275.81,-58.33 282.25,-55.58"/>
</g>
<!-- Node3 -->
<g id="node3" class="node">
<title>Node3</title>
<g id="a_node3"><a xlink:href="classrare_1_1components_1_1tabs_1_1games_1_1game__info_1_1game__info_1_1_move_game_pop_up.html#a24c9b9d6133548058f89a9b01fe52e25" target="_top" xlink:title=" ">
<polygon fill="white" stroke="black" points="0,-17.5 0,-58.5 185,-58.5 185,-17.5 0,-17.5"/>
<text text-anchor="start" x="8" y="-46.5" font-family="Helvetica,sans-Serif" font-size="10.00">rare.components.tabs.games.game</text>
<text text-anchor="start" x="8" y="-35.5" font-family="Helvetica,sans-Serif" font-size="10.00">_info.game_info.MoveGamePopUp.edit</text>
<text text-anchor="middle" x="92.5" y="-24.5" font-family="Helvetica,sans-Serif" font-size="10.00">_func_move_game</text>
</a>
</g>
</g>
<!-- Node2&#45;&gt;Node3 -->
<g id="edge2" class="edge">
<title>Node2&#45;&gt;Node3</title>
<path fill="none" stroke="midnightblue" d="M210.6,-38C202.58,-38 193.96,-38 185.17,-38"/>
<polygon fill="midnightblue" stroke="midnightblue" points="210.75,-41.5 220.75,-38 210.75,-34.5 210.75,-41.5"/>
</g>
<!-- Node3&#45;&gt;Node3 -->
<g id="edge3" class="edge">
<title>Node3&#45;&gt;Node3</title>
<path fill="none" stroke="midnightblue" d="M120.37,-68.86C116.23,-73.7 106.94,-77 92.5,-77 69.4,-77 59.48,-68.54 62.73,-58.86"/>
<polygon fill="midnightblue" stroke="midnightblue" points="123.84,-69.34 122.27,-58.86 116.96,-68.03 123.84,-69.34"/>
</g>
<!-- Node4&#45;&gt;Node2 -->
<g id="edge7" class="edge">
<title>Node4&#45;&gt;Node2</title>
<path fill="none" stroke="midnightblue" d="M327.27,-21.87C315.08,-24.67 302.37,-27.59 291.17,-30.16"/>
<polygon fill="midnightblue" stroke="midnightblue" points="328.39,-25.21 337.36,-19.56 326.83,-18.38 328.39,-25.21"/>
</g>
<!-- Node4&#45;&gt;Node4 -->
<g id="edge8" class="edge">
<title>Node4&#45;&gt;Node4</title>
<path fill="none" stroke="midnightblue" d="M403.07,-29.03C401.81,-34.13 394.12,-38 380,-38 357.96,-38 351.59,-28.57 360.89,-19.76"/>
<polygon fill="midnightblue" stroke="midnightblue" points="406.25,-27.58 399.11,-19.76 399.81,-30.33 406.25,-27.58"/>
</g>
</g>
</svg>
