<?xml version="1.0" encoding="UTF-8" standalone="no"?>
<!DOCTYPE svg PUBLIC "-//W3C//DTD SVG 1.1//EN"
 "http://www.w3.org/Graphics/SVG/1.1/DTD/svg11.dtd">
<!-- Generated by graphviz version 2.49.3 (20211027.1534)
 -->
<!-- Title: btn_clicked Pages: 1 -->
<svg width="689pt" height="262pt"
 viewBox="0.00 0.00 689.00 262.00" xmlns="http://www.w3.org/2000/svg" xmlns:xlink="http://www.w3.org/1999/xlink">
<g id="graph0" class="graph" transform="scale(1 1) rotate(0) translate(4 258)">
<title>btn_clicked</title>
<polygon fill="white" stroke="transparent" points="-4,4 -4,-258 685,-258 685,4 -4,4"/>
<!-- Node1 -->
<g id="node1" class="node">
<title>Node1</title>
<g id="a_node1"><a xlink:title=" ">
<polygon fill="#bfbfbf" stroke="black" points="0,-106 0,-125 66,-125 66,-106 0,-106"/>
<text text-anchor="middle" x="33" y="-113" font-family="Helvetica,sans-Serif" font-size="10.00">btn_clicked</text>
</a>
</g>
</g>
<!-- Node1&#45;&gt;Node1 -->
<g id="edge1" class="edge">
<title>Node1&#45;&gt;Node1</title>
<path fill="none" stroke="midnightblue" d="M10.19,-125.26C-0.91,-134.07 6.7,-143.5 33,-143.5 50.26,-143.5 59.47,-139.44 60.63,-134.15"/>
<polygon fill="midnightblue" stroke="midnightblue" points="63.65,-132.39 55.81,-125.26 57.49,-135.72 63.65,-132.39"/>
</g>
<!-- Node2 -->
<g id="node2" class="node">
<title>Node2</title>
<g id="a_node2"><a xlink:href="classrare_1_1components_1_1tabs_1_1downloads_1_1_downloads_tab.html#aad3d96348eedab03f9c9d1a0e79c3531" target="_top" xlink:title=" ">
<polygon fill="white" stroke="black" points="102,-100.5 102,-130.5 263,-130.5 263,-100.5 102,-100.5"/>
<text text-anchor="start" x="110" y="-118.5" font-family="Helvetica,sans-Serif" font-size="10.00">rare.components.tabs.downloads.</text>
<text text-anchor="middle" x="182.5" y="-107.5" font-family="Helvetica,sans-Serif" font-size="10.00">DownloadsTab.status</text>
</a>
</g>
</g>
<!-- Node1&#45;&gt;Node2 -->
<g id="edge2" class="edge">
<title>Node1&#45;&gt;Node2</title>
<path fill="none" stroke="midnightblue" d="M66.01,-115.5C73.85,-115.5 82.62,-115.5 91.75,-115.5"/>
<polygon fill="midnightblue" stroke="midnightblue" points="91.75,-119 101.75,-115.5 91.75,-112 91.75,-119"/>
</g>
<!-- Node2&#45;&gt;Node2 -->
<g id="edge15" class="edge">
<title>Node2&#45;&gt;Node2</title>
<path fill="none" stroke="midnightblue" d="M156.71,-130.66C150.49,-140.06 159.09,-149 182.5,-149 196.77,-149 205.53,-145.68 208.8,-140.96"/>
<polygon fill="midnightblue" stroke="midnightblue" points="212.28,-140.48 208.29,-130.66 205.29,-140.82 212.28,-140.48"/>
</g>
<!-- Node3 -->
<g id="node3" class="node">
<title>Node3</title>
<g id="a_node3"><a xlink:href="namespacerare_1_1utils_1_1misc.html#a16c76ff467d8aa0bf5b3a9060d65733e" target="_top" xlink:title=" ">
<polygon fill="white" stroke="black" points="326.5,-204.5 326.5,-234.5 432.5,-234.5 432.5,-204.5 326.5,-204.5"/>
<text text-anchor="start" x="334.5" y="-222.5" font-family="Helvetica,sans-Serif" font-size="10.00">rare.utils.misc.create</text>
<text text-anchor="middle" x="379.5" y="-211.5" font-family="Helvetica,sans-Serif" font-size="10.00">_desktop_link</text>
</a>
</g>
</g>
<!-- Node2&#45;&gt;Node3 -->
<g id="edge3" class="edge">
<title>Node2&#45;&gt;Node3</title>
<path fill="none" stroke="midnightblue" d="M203.05,-130.51C225.33,-147.1 263.3,-173.8 299,-191.5 305.67,-194.81 312.83,-197.91 320.02,-200.75"/>
<polygon fill="midnightblue" stroke="midnightblue" points="319.21,-204.18 329.8,-204.46 321.69,-197.64 319.21,-204.18"/>
</g>
<!-- Node5 -->
<g id="node5" class="node">
<title>Node5</title>
<g id="a_node5"><a xlink:href="classrare_1_1components_1_1tabs_1_1downloads_1_1_downloads_tab.html#a53b1e6c607ccccefc748c23bccba97d0" target="_top" xlink:title=" ">
<polygon fill="white" stroke="black" points="299,-134.5 299,-164.5 460,-164.5 460,-134.5 299,-134.5"/>
<text text-anchor="start" x="307" y="-152.5" font-family="Helvetica,sans-Serif" font-size="10.00">rare.components.tabs.downloads.</text>
<text text-anchor="middle" x="379.5" y="-141.5" font-family="Helvetica,sans-Serif" font-size="10.00">DownloadsTab.remove_update</text>
</a>
</g>
</g>
<!-- Node2&#45;&gt;Node5 -->
<g id="edge7" class="edge">
<title>Node2&#45;&gt;Node5</title>
<path fill="none" stroke="midnightblue" d="M263.1,-129.38C271.57,-130.86 280.24,-132.37 288.82,-133.86"/>
<polygon fill="midnightblue" stroke="midnightblue" points="288.39,-137.34 298.84,-135.61 289.59,-130.45 288.39,-137.34"/>
</g>
<!-- Node7 -->
<g id="node7" class="node">
<title>Node7</title>
<g id="a_node7"><a xlink:href="classrare_1_1components_1_1tabs_1_1downloads_1_1_downloads_tab.html#a3b9e49df3c4d46498f41fcc69491dd0d" target="_top" xlink:title=" ">
<polygon fill="white" stroke="black" points="299,-67.5 299,-97.5 460,-97.5 460,-67.5 299,-67.5"/>
<text text-anchor="start" x="307" y="-85.5" font-family="Helvetica,sans-Serif" font-size="10.00">rare.components.tabs.downloads.</text>
<text text-anchor="middle" x="379.5" y="-74.5" font-family="Helvetica,sans-Serif" font-size="10.00">DownloadsTab.reset_infos</text>
</a>
</g>
</g>
<!-- Node2&#45;&gt;Node7 -->
<g id="edge11" class="edge">
<title>Node2&#45;&gt;Node7</title>
<path fill="none" stroke="midnightblue" d="M263.1,-102.03C271.57,-100.6 280.24,-99.13 288.82,-97.68"/>
<polygon fill="midnightblue" stroke="midnightblue" points="289.57,-101.1 298.84,-95.98 288.4,-94.2 289.57,-101.1"/>
</g>
<!-- Node8 -->
<g id="node8" class="node">
<title>Node8</title>
<g id="a_node8"><a xlink:href="classrare_1_1components_1_1tabs_1_1downloads_1_1_downloads_tab.html#ad220cc0780ac6b0d74f99652344b4e3a" target="_top" xlink:title=" ">
<polygon fill="white" stroke="black" points="299,-0.5 299,-30.5 460,-30.5 460,-0.5 299,-0.5"/>
<text text-anchor="start" x="307" y="-18.5" font-family="Helvetica,sans-Serif" font-size="10.00">rare.components.tabs.downloads.</text>
<text text-anchor="middle" x="379.5" y="-7.5" font-family="Helvetica,sans-Serif" font-size="10.00">DownloadsTab.start_installation</text>
</a>
</g>
</g>
<!-- Node2&#45;&gt;Node8 -->
<g id="edge13" class="edge">
<title>Node2&#45;&gt;Node8</title>
<path fill="none" stroke="midnightblue" d="M213.12,-100.31C247.1,-82.88 302.93,-54.25 340.19,-35.14"/>
<polygon fill="midnightblue" stroke="midnightblue" points="341.94,-38.18 349.24,-30.5 338.75,-31.95 341.94,-38.18"/>
</g>
<!-- Node3&#45;&gt;Node3 -->
<g id="edge4" class="edge">
<title>Node3&#45;&gt;Node3</title>
<path fill="none" stroke="midnightblue" d="M345.34,-234.66C337.11,-244.06 348.49,-253 379.5,-253 398.4,-253 410,-249.68 414.33,-244.96"/>
<polygon fill="midnightblue" stroke="midnightblue" points="417.8,-244.41 413.66,-234.66 410.81,-244.87 417.8,-244.41"/>
</g>
<!-- Node4 -->
<g id="node4" class="node">
<title>Node4</title>
<g id="a_node4"><a xlink:href="namespacerare_1_1utils_1_1misc.html#aedda7d17c0e979c3c3f8a094b9ff0f08" target="_top" xlink:title=" ">
<polygon fill="white" stroke="black" points="542.5,-205.5 542.5,-235.5 634.5,-235.5 634.5,-205.5 542.5,-205.5"/>
<text text-anchor="start" x="550.5" y="-223.5" font-family="Helvetica,sans-Serif" font-size="10.00">rare.utils.misc.get</text>
<text text-anchor="middle" x="588.5" y="-212.5" font-family="Helvetica,sans-Serif" font-size="10.00">_rare_executable</text>
</a>
</g>
</g>
<!-- Node3&#45;&gt;Node4 -->
<g id="edge5" class="edge">
<title>Node3&#45;&gt;Node4</title>
<path fill="none" stroke="midnightblue" d="M432.73,-219.75C463.08,-219.9 501.29,-220.08 532.15,-220.23"/>
<polygon fill="midnightblue" stroke="midnightblue" points="532.3,-223.73 542.31,-220.28 532.33,-216.73 532.3,-223.73"/>
</g>
<!-- Node4&#45;&gt;Node4 -->
<g id="edge6" class="edge">
<title>Node4&#45;&gt;Node4</title>
<path fill="none" stroke="midnightblue" d="M552.25,-235.66C543.51,-245.06 555.59,-254 588.5,-254 608.55,-254 620.87,-250.68 625.46,-245.96"/>
<polygon fill="midnightblue" stroke="midnightblue" points="628.93,-245.39 624.75,-235.66 621.95,-245.88 628.93,-245.39"/>
</g>
<!-- Node5&#45;&gt;Node5 -->
<g id="edge8" class="edge">
<title>Node5&#45;&gt;Node5</title>
<path fill="none" stroke="midnightblue" d="M345.34,-164.66C337.11,-174.06 348.49,-183 379.5,-183 398.4,-183 410,-179.68 414.33,-174.96"/>
<polygon fill="midnightblue" stroke="midnightblue" points="417.8,-174.41 413.66,-164.66 410.81,-174.87 417.8,-174.41"/>
</g>
<!-- Node6 -->
<g id="node6" class="node">
<title>Node6</title>
<g id="a_node6"><a xlink:href="classrare_1_1components_1_1tabs_1_1games_1_1game__widgets_1_1installed__list__widget_1_1_installed_list_widget.html#a982778417e427c66b762f2e20cefc5f9" target="_top" xlink:title=" ">
<polygon fill="white" stroke="black" points="496,-127 496,-168 681,-168 681,-127 496,-127"/>
<text text-anchor="start" x="504" y="-156" font-family="Helvetica,sans-Serif" font-size="10.00">rare.components.tabs.games.game</text>
<text text-anchor="start" x="504" y="-145" font-family="Helvetica,sans-Serif" font-size="10.00">_widgets.installed_list_widget.Installed</text>
<text text-anchor="middle" x="588.5" y="-134" font-family="Helvetica,sans-Serif" font-size="10.00">ListWidget.update_text</text>
</a>
</g>
</g>
<!-- Node5&#45;&gt;Node6 -->
<g id="edge9" class="edge">
<title>Node5&#45;&gt;Node6</title>
<path fill="none" stroke="midnightblue" d="M460.24,-148.73C468.59,-148.65 477.15,-148.57 485.71,-148.48"/>
<polygon fill="midnightblue" stroke="midnightblue" points="485.76,-151.98 495.72,-148.39 485.69,-144.98 485.76,-151.98"/>
</g>
<!-- Node6&#45;&gt;Node6 -->
<g id="edge10" class="edge">
<title>Node6&#45;&gt;Node6</title>
<path fill="none" stroke="midnightblue" d="M550.27,-168.36C546.1,-178.04 558.84,-186.5 588.5,-186.5 607.04,-186.5 618.96,-183.2 624.29,-178.36"/>
<polygon fill="midnightblue" stroke="midnightblue" points="627.75,-178.91 626.73,-168.36 620.95,-177.25 627.75,-178.91"/>
</g>
<!-- Node7&#45;&gt;Node7 -->
<g id="edge12" class="edge">
<title>Node7&#45;&gt;Node7</title>
<path fill="none" stroke="midnightblue" d="M345.34,-97.66C337.11,-107.06 348.49,-116 379.5,-116 398.4,-116 410,-112.68 414.33,-107.96"/>
<polygon fill="midnightblue" stroke="midnightblue" points="417.8,-107.41 413.66,-97.66 410.81,-107.87 417.8,-107.41"/>
</g>
<!-- Node8&#45;&gt;Node8 -->
<g id="edge14" class="edge">
<title>Node8&#45;&gt;Node8</title>
<path fill="none" stroke="midnightblue" d="M345.34,-30.66C337.11,-40.06 348.49,-49 379.5,-49 398.4,-49 410,-45.68 414.33,-40.96"/>
<polygon fill="midnightblue" stroke="midnightblue" points="417.8,-40.41 413.66,-30.66 410.81,-40.87 417.8,-40.41"/>
</g>
</g>
</svg>
