<?xml version="1.0" encoding="UTF-8" standalone="no"?>
<!DOCTYPE svg PUBLIC "-//W3C//DTD SVG 1.1//EN"
 "http://www.w3.org/Graphics/SVG/1.1/DTD/svg11.dtd">
<!-- Generated by graphviz version 2.49.3 (20211027.1534)
 -->
<!-- Title: game_finished Pages: 1 -->
<!--zoomable 298 -->
<svg id="main" version="1.1" xmlns="http://www.w3.org/2000/svg" xmlns:xlink="http://www.w3.org/1999/xlink" xml:space="preserve" onload="init(evt)">
<style type="text/css"><![CDATA[
.edge:hover path { stroke: red; }
.edge:hover polygon { stroke: red; fill: red; }
]]></style>
<script type="text/javascript"><![CDATA[
var edges = document.getElementsByTagName('g');
if (edges && edges.length) {
  for (var i=0;i<edges.length;i++) {
    if (edges[i].id.substr(0,4)=='edge') {
      edges[i].setAttribute('class','edge');
    }
  }
}
]]></script>
        <defs>
                <circle id="rim" cx="0" cy="0" r="7"/>
                <circle id="rim2" cx="0" cy="0" r="3.5"/>
                <g id="zoomPlus">
                        <use xlink:href="#rim" fill="#404040">
                                <set attributeName="fill" to="#808080" begin="zoomplus.mouseover" end="zoomplus.mouseout"/>
                        </use>
                        <path d="M-4,0h8M0,-4v8" fill="none" stroke="white" stroke-width="1.5" pointer-events="none"/>
                </g>
                <g id="zoomMin">
                        <use xlink:href="#rim" fill="#404040">
                                <set attributeName="fill" to="#808080" begin="zoomminus.mouseover" end="zoomminus.mouseout"/>
                        </use>
                        <path d="M-4,0h8" fill="none" stroke="white" stroke-width="1.5" pointer-events="none"/>
                </g>
                <g id="dirArrow">
                        <path fill="none" stroke="white" stroke-width="1.5" d="M0,-3.0v7 M-2.5,-0.5L0,-3.0L2.5,-0.5"/>
                </g>
               <g id="resetDef">
                       <use xlink:href="#rim2" fill="#404040">
                               <set attributeName="fill" to="#808080" begin="reset.mouseover" end="reset.mouseout"/>
                       </use>
               </g>
        </defs>

<script type="text/javascript">
var viewWidth = 1685;
var viewHeight = 298;
var sectionId = 'dynsection-7';
</script>
<script xlink:href="svgpan.js"/>
<svg id="graph" class="graph">
<g id="viewport">
<title>game_finished</title>
<polygon fill="white" stroke="transparent" points="-4,4 -4,-293.86 1681,-293.86 1681,4 -4,4"/>
<!-- Node1 -->
<g id="node1" class="node">
<title>Node1</title>
<g id="a_node1"><a xlink:title=" ">
<polygon fill="#bfbfbf" stroke="black" points="1598,-98.5 1598,-117.5 1677,-117.5 1677,-98.5 1598,-98.5"/>
<text text-anchor="middle" x="1637.5" y="-105.5" font-family="Helvetica,sans-Serif" font-size="10.00">game_finished</text>
</a>
</g>
</g>
<!-- Node1&#45;&gt;Node1 -->
<g id="edge3" class="edge">
<title>Node1&#45;&gt;Node1</title>
<path fill="none" stroke="midnightblue" d="M1666.99,-126.65C1665.76,-131.94 1655.93,-136 1637.5,-136 1609.42,-136 1601.3,-126.57 1613.15,-117.76"/>
<polygon fill="midnightblue" stroke="midnightblue" points="1669.89,-124.66 1661.85,-117.76 1663.82,-128.17 1669.89,-124.66"/>
</g>
<!-- Node2 -->
<g id="node2" class="node">
<title>Node2</title>
<g id="a_node2"><a xlink:href="classrare_1_1components_1_1tabs_1_1games_1_1game__utils_1_1_game_process.html#a59c03cd7e6b87132c709e69907d4e0ed" target="_top" xlink:title=" ">
<polygon fill="white" stroke="black" points="1192,-212.5 1192,-253.5 1359,-253.5 1359,-212.5 1192,-212.5"/>
<text text-anchor="start" x="1200" y="-241.5" font-family="Helvetica,sans-Serif" font-size="10.00">rare.components.tabs.games.game</text>
<text text-anchor="start" x="1200" y="-230.5" font-family="Helvetica,sans-Serif" font-size="10.00">_utils.GameProcess.connect</text>
<text text-anchor="middle" x="1275.5" y="-219.5" font-family="Helvetica,sans-Serif" font-size="10.00">_to_server</text>
</a>
</g>
</g>
<!-- Node1&#45;&gt;Node2 -->
<g id="edge1" class="edge">
<title>Node1&#45;&gt;Node2</title>
<path fill="none" stroke="midnightblue" d="M1629.31,-126.95C1618.75,-151.83 1596.48,-194.61 1562,-214 1500.41,-248.64 1419.11,-250.65 1359.03,-245.6"/>
<polygon fill="midnightblue" stroke="midnightblue" points="1632.62,-128.09 1633.12,-117.51 1626.13,-125.47 1632.62,-128.09"/>
</g>
<!-- Node3 -->
<g id="node3" class="node">
<title>Node3</title>
<g id="a_node3"><a xlink:href="classrare_1_1components_1_1tabs_1_1games_1_1game__utils_1_1_game_utils.html#a1ff6997393d84b07e97a057126c415f7" target="_top" xlink:title=" ">
<polygon fill="white" stroke="black" points="1395,-156 1395,-186 1562,-186 1562,-156 1395,-156"/>
<text text-anchor="start" x="1403" y="-174" font-family="Helvetica,sans-Serif" font-size="10.00">rare.components.tabs.games.game</text>
<text text-anchor="middle" x="1478.5" y="-163" font-family="Helvetica,sans-Serif" font-size="10.00">_utils.GameUtils.game_finished</text>
</a>
</g>
</g>
<!-- Node1&#45;&gt;Node3 -->
<g id="edge4" class="edge">
<title>Node1&#45;&gt;Node3</title>
<path fill="none" stroke="midnightblue" d="M1606.49,-121.85C1592.98,-127.94 1576.78,-135.05 1562,-141 1549.28,-146.12 1535.3,-151.35 1522.53,-155.98"/>
<polygon fill="midnightblue" stroke="midnightblue" points="1608.13,-124.95 1615.79,-117.63 1605.24,-118.58 1608.13,-124.95"/>
</g>
<!-- Node4 -->
<g id="node4" class="node">
<title>Node4</title>
<g id="a_node4"><a xlink:href="classrare_1_1components_1_1tabs_1_1games_1_1game__utils_1_1_game_utils.html#a6d84f785e188bb4dc5e05413dd1302ad" target="_top" xlink:title=" ">
<polygon fill="white" stroke="black" points="1192,-145 1192,-175 1359,-175 1359,-145 1192,-145"/>
<text text-anchor="start" x="1200" y="-163" font-family="Helvetica,sans-Serif" font-size="10.00">rare.components.tabs.games.game</text>
<text text-anchor="middle" x="1275.5" y="-152" font-family="Helvetica,sans-Serif" font-size="10.00">_utils.GameUtils.launch_game</text>
</a>
</g>
</g>
<!-- Node1&#45;&gt;Node4 -->
<g id="edge39" class="edge">
<title>Node1&#45;&gt;Node4</title>
<path fill="none" stroke="midnightblue" d="M1587.87,-115.02C1529.24,-123.49 1429.8,-137.86 1359.07,-148.07"/>
<polygon fill="midnightblue" stroke="midnightblue" points="1588.58,-118.46 1597.97,-113.56 1587.58,-111.53 1588.58,-118.46"/>
</g>
<!-- Node2&#45;&gt;Node2 -->
<g id="edge2" class="edge">
<title>Node2&#45;&gt;Node2</title>
<path fill="none" stroke="midnightblue" d="M1307.16,-263.86C1302.45,-268.7 1291.9,-272 1275.5,-272 1249.27,-272 1237.99,-263.54 1241.68,-253.86"/>
<polygon fill="midnightblue" stroke="midnightblue" points="1310.62,-264.38 1309.32,-253.86 1303.78,-262.9 1310.62,-264.38"/>
</g>
<!-- Node3&#45;&gt;Node2 -->
<g id="edge5" class="edge">
<title>Node3&#45;&gt;Node2</title>
<path fill="none" stroke="midnightblue" d="M1419.26,-188.96C1395.5,-196.29 1367.89,-204.81 1343.31,-212.39"/>
<polygon fill="midnightblue" stroke="midnightblue" points="1420.32,-192.3 1428.84,-186.01 1418.26,-185.61 1420.32,-192.3"/>
</g>
<!-- Node3&#45;&gt;Node3 -->
<g id="edge6" class="edge">
<title>Node3&#45;&gt;Node3</title>
<path fill="none" stroke="midnightblue" d="M1506.57,-196.46C1503.09,-201.18 1493.73,-204.5 1478.5,-204.5 1453.5,-204.5 1444.33,-195.56 1450.97,-186.16"/>
<polygon fill="midnightblue" stroke="midnightblue" points="1510.05,-195.96 1506.03,-186.16 1503.06,-196.33 1510.05,-195.96"/>
</g>
<!-- Node3&#45;&gt;Node4 -->
<g id="edge7" class="edge">
<title>Node3&#45;&gt;Node4</title>
<path fill="none" stroke="midnightblue" d="M1384.85,-165.93C1376.27,-165.46 1367.61,-164.99 1359.13,-164.52"/>
<polygon fill="midnightblue" stroke="midnightblue" points="1384.7,-169.43 1394.88,-166.48 1385.08,-162.44 1384.7,-169.43"/>
</g>
<!-- Node4&#45;&gt;Node4 -->
<g id="edge8" class="edge">
<title>Node4&#45;&gt;Node4</title>
<path fill="none" stroke="midnightblue" d="M1308.19,-185.46C1304.14,-190.18 1293.24,-193.5 1275.5,-193.5 1246.39,-193.5 1235.7,-184.56 1243.43,-175.16"/>
<polygon fill="midnightblue" stroke="midnightblue" points="1311.67,-184.93 1307.57,-175.16 1304.68,-185.35 1311.67,-184.93"/>
</g>
<!-- Node5 -->
<g id="node5" class="node">
<title>Node5</title>
<g id="a_node5"><a xlink:href="classrare_1_1components_1_1tabs_1_1games_1_1game__utils_1_1_game_utils.html#a4edad8bd72770b4d0924575036a40a3c" target="_top" xlink:title=" ">
<polygon fill="white" stroke="black" points="418,-178 418,-208 585,-208 585,-178 418,-178"/>
<text text-anchor="start" x="426" y="-196" font-family="Helvetica,sans-Serif" font-size="10.00">rare.components.tabs.games.game</text>
<text text-anchor="middle" x="501.5" y="-185" font-family="Helvetica,sans-Serif" font-size="10.00">_utils.GameUtils.prepare_launch</text>
</a>
</g>
</g>
<!-- Node4&#45;&gt;Node5 -->
<g id="edge9" class="edge">
<title>Node4&#45;&gt;Node5</title>
<path fill="none" stroke="midnightblue" d="M1234.32,-179.64C1168.49,-211.39 1040.06,-271.42 991,-281 821,-314.2 616.81,-241.02 536.92,-208.04"/>
<polygon fill="midnightblue" stroke="midnightblue" points="1236.08,-182.67 1243.56,-175.17 1233.04,-176.37 1236.08,-182.67"/>
</g>
<!-- Node7 -->
<g id="node7" class="node">
<title>Node7</title>
<g id="a_node7"><a xlink:href="classrare_1_1game__launch__helper_1_1_game_process_helper.html#a711d1d7df9874db34971779c941c4e5e" target="_top" xlink:title=" ">
<polygon fill="white" stroke="black" points="1027,-156 1027,-186 1156,-186 1156,-156 1027,-156"/>
<text text-anchor="start" x="1035" y="-174" font-family="Helvetica,sans-Serif" font-size="10.00">rare.game_launch_helper.</text>
<text text-anchor="middle" x="1091.5" y="-163" font-family="Helvetica,sans-Serif" font-size="10.00">GameProcessHelper.start</text>
</a>
</g>
</g>
<!-- Node4&#45;&gt;Node7 -->
<g id="edge13" class="edge">
<title>Node4&#45;&gt;Node7</title>
<path fill="none" stroke="midnightblue" d="M1181.67,-165.61C1173.06,-166.13 1164.48,-166.65 1156.23,-167.15"/>
<polygon fill="midnightblue" stroke="midnightblue" points="1181.98,-169.1 1191.75,-165 1181.56,-162.11 1181.98,-169.1"/>
</g>
<!-- Node10 -->
<g id="node10" class="node">
<title>Node10</title>
<g id="a_node10"><a xlink:href="classrare_1_1components_1_1tabs_1_1games_1_1game__utils_1_1_game_utils.html#aa5166679a6b1c69dd24d2e6faa34dc7b" target="_top" xlink:title=" ">
<polygon fill="white" stroke="black" points="621,-112 621,-142 788,-142 788,-112 621,-112"/>
<text text-anchor="start" x="629" y="-130" font-family="Helvetica,sans-Serif" font-size="10.00">rare.components.tabs.games.game</text>
<text text-anchor="middle" x="704.5" y="-119" font-family="Helvetica,sans-Serif" font-size="10.00">_utils.GameUtils.sync_finished</text>
</a>
</g>
</g>
<!-- Node4&#45;&gt;Node10 -->
<g id="edge38" class="edge">
<title>Node4&#45;&gt;Node10</title>
<path fill="none" stroke="midnightblue" d="M1181.58,-148.35C1172.94,-147.47 1164.31,-146.67 1156,-146 1027.83,-135.74 878.68,-130.82 788.23,-128.62"/>
<polygon fill="midnightblue" stroke="midnightblue" points="1181.39,-151.85 1191.7,-149.41 1182.13,-144.89 1181.39,-151.85"/>
</g>
<!-- Node5&#45;&gt;Node5 -->
<g id="edge10" class="edge">
<title>Node5&#45;&gt;Node5</title>
<path fill="none" stroke="midnightblue" d="M537.39,-218.46C532.94,-223.18 520.97,-226.5 501.5,-226.5 469.54,-226.5 457.81,-217.56 466.3,-208.16"/>
<polygon fill="midnightblue" stroke="midnightblue" points="540.86,-217.9 536.7,-208.16 533.88,-218.37 540.86,-217.9"/>
</g>
<!-- Node6 -->
<g id="node6" class="node">
<title>Node6</title>
<g id="a_node6"><a xlink:href="classrare_1_1game__launch__helper_1_1_pre_launch_thread.html#a670fe67276cb94775a042958fe2c79d4" target="_top" xlink:title=" ">
<polygon fill="white" stroke="black" points="211.5,-180 211.5,-210 338.5,-210 338.5,-180 211.5,-180"/>
<text text-anchor="start" x="219.5" y="-198" font-family="Helvetica,sans-Serif" font-size="10.00">rare.game_launch_helper.</text>
<text text-anchor="middle" x="275" y="-187" font-family="Helvetica,sans-Serif" font-size="10.00">PreLaunchThread.run</text>
</a>
</g>
</g>
<!-- Node5&#45;&gt;Node6 -->
<g id="edge11" class="edge">
<title>Node5&#45;&gt;Node6</title>
<path fill="none" stroke="midnightblue" d="M407.65,-193.83C384.47,-194.03 360.14,-194.25 338.79,-194.44"/>
<polygon fill="midnightblue" stroke="midnightblue" points="407.89,-197.33 417.86,-193.74 407.83,-190.33 407.89,-197.33"/>
</g>
<!-- Node6&#45;&gt;Node6 -->
<g id="edge12" class="edge">
<title>Node6&#45;&gt;Node6</title>
<path fill="none" stroke="midnightblue" d="M311.96,-220.46C307.37,-225.18 295.05,-228.5 275,-228.5 242.09,-228.5 230.01,-219.56 238.75,-210.16"/>
<polygon fill="midnightblue" stroke="midnightblue" points="315.43,-219.89 311.25,-210.16 308.45,-220.38 315.43,-219.89"/>
</g>
<!-- Node7&#45;&gt;Node7 -->
<g id="edge37" class="edge">
<title>Node7&#45;&gt;Node7</title>
<path fill="none" stroke="midnightblue" d="M1124.19,-196.46C1120.14,-201.18 1109.24,-204.5 1091.5,-204.5 1062.39,-204.5 1051.7,-195.56 1059.43,-186.16"/>
<polygon fill="midnightblue" stroke="midnightblue" points="1127.67,-195.93 1123.57,-186.16 1120.68,-196.35 1127.67,-195.93"/>
</g>
<!-- Node8 -->
<g id="node8" class="node">
<title>Node8</title>
<g id="a_node8"><a xlink:href="classrare_1_1components_1_1tabs_1_1shop_1_1shop__models_1_1_browse_model.html#a563276b55376fdd9f495c321c5408906" target="_top" xlink:title=" ">
<polygon fill="white" stroke="black" points="829.5,-223 829.5,-253 985.5,-253 985.5,-223 829.5,-223"/>
<text text-anchor="start" x="837.5" y="-241" font-family="Helvetica,sans-Serif" font-size="10.00">rare.components.tabs.shop.shop</text>
<text text-anchor="middle" x="907.5" y="-230" font-family="Helvetica,sans-Serif" font-size="10.00">_models.BrowseModel.__dict__</text>
</a>
</g>
</g>
<!-- Node7&#45;&gt;Node8 -->
<g id="edge14" class="edge">
<title>Node7&#45;&gt;Node8</title>
<path fill="none" stroke="midnightblue" d="M1048.77,-190.41C1031.14,-198.25 1010.27,-207.06 991,-214 982.3,-217.13 972.97,-220.15 963.84,-222.94"/>
<polygon fill="midnightblue" stroke="midnightblue" points="1050.51,-193.47 1058.2,-186.18 1047.64,-187.08 1050.51,-193.47"/>
</g>
<!-- Node9 -->
<g id="node9" class="node">
<title>Node9</title>
<g id="a_node9"><a xlink:href="classrare_1_1game__launch__helper_1_1_game_process_helper.html#a62864ecc73de3f9e4a009737d0c01f01" target="_top" xlink:title=" ">
<polygon fill="white" stroke="black" points="824,-156 824,-186 991,-186 991,-156 824,-156"/>
<text text-anchor="start" x="832" y="-174" font-family="Helvetica,sans-Serif" font-size="10.00">rare.game_launch_helper.</text>
<text text-anchor="middle" x="907.5" y="-163" font-family="Helvetica,sans-Serif" font-size="10.00">GameProcessHelper.launch_game</text>
</a>
</g>
</g>
<!-- Node7&#45;&gt;Node9 -->
<g id="edge16" class="edge">
<title>Node7&#45;&gt;Node9</title>
<path fill="none" stroke="midnightblue" d="M1016.75,-164.36C1008.37,-164.25 999.79,-164.22 991.31,-164.27"/>
<polygon fill="midnightblue" stroke="midnightblue" points="1016.79,-167.86 1026.85,-164.53 1016.91,-160.86 1016.79,-167.86"/>
</g>
<!-- Node8&#45;&gt;Node8 -->
<g id="edge15" class="edge">
<title>Node8&#45;&gt;Node8</title>
<path fill="none" stroke="midnightblue" d="M940.19,-263.46C936.14,-268.18 925.24,-271.5 907.5,-271.5 878.39,-271.5 867.7,-262.56 875.43,-253.16"/>
<polygon fill="midnightblue" stroke="midnightblue" points="943.67,-262.93 939.57,-253.16 936.68,-263.35 943.67,-262.93"/>
</g>
<!-- Node9&#45;&gt;Node5 -->
<g id="edge18" class="edge">
<title>Node9&#45;&gt;Node5</title>
<path fill="none" stroke="midnightblue" d="M813.78,-176.05C744.81,-179.8 651.54,-184.88 585.12,-188.5"/>
<polygon fill="midnightblue" stroke="midnightblue" points="813.97,-179.54 823.77,-175.51 813.59,-172.55 813.97,-179.54"/>
</g>
<!-- Node9&#45;&gt;Node7 -->
<g id="edge19" class="edge">
<title>Node9&#45;&gt;Node7</title>
<path fill="none" stroke="midnightblue" d="M1001.41,-177.75C1010.01,-177.74 1018.59,-177.64 1026.85,-177.47"/>
<polygon fill="midnightblue" stroke="midnightblue" points="1001.32,-174.25 991.31,-177.73 1001.3,-181.25 1001.32,-174.25"/>
</g>
<!-- Node9&#45;&gt;Node9 -->
<g id="edge17" class="edge">
<title>Node9&#45;&gt;Node9</title>
<path fill="none" stroke="midnightblue" d="M940.19,-196.46C936.14,-201.18 925.24,-204.5 907.5,-204.5 878.39,-204.5 867.7,-195.56 875.43,-186.16"/>
<polygon fill="midnightblue" stroke="midnightblue" points="943.67,-195.93 939.57,-186.16 936.68,-196.35 943.67,-195.93"/>
</g>
<!-- Node9&#45;&gt;Node10 -->
<g id="edge20" class="edge">
<title>Node9&#45;&gt;Node10</title>
<path fill="none" stroke="midnightblue" d="M828.11,-153.84C810.3,-149.94 791.51,-145.83 774.14,-142.03"/>
<polygon fill="midnightblue" stroke="midnightblue" points="827.37,-157.26 837.89,-155.98 828.87,-150.42 827.37,-157.26"/>
</g>
<!-- Node10&#45;&gt;Node1 -->
<g id="edge21" class="edge">
<title>Node10&#45;&gt;Node1</title>
<path fill="none" stroke="midnightblue" d="M798.51,-112.65C876.33,-101.88 990.39,-89 1090.5,-89 1276.5,-89 1276.5,-89 1276.5,-89 1393.69,-89 1532.05,-99.17 1597.91,-104.63"/>
<polygon fill="midnightblue" stroke="midnightblue" points="797.67,-109.23 788.25,-114.08 798.64,-116.16 797.67,-109.23"/>
</g>
<!-- Node10&#45;&gt;Node5 -->
<g id="edge22" class="edge">
<title>Node10&#45;&gt;Node5</title>
<path fill="none" stroke="midnightblue" d="M647.77,-145.3C616.53,-155.56 578.03,-168.2 548.51,-177.89"/>
<polygon fill="midnightblue" stroke="midnightblue" points="649.23,-148.5 657.64,-142.06 647.05,-141.85 649.23,-148.5"/>
</g>
<!-- Node10&#45;&gt;Node10 -->
<g id="edge23" class="edge">
<title>Node10&#45;&gt;Node10</title>
<path fill="none" stroke="midnightblue" d="M740.39,-152.46C735.94,-157.18 723.97,-160.5 704.5,-160.5 672.54,-160.5 660.81,-151.56 669.3,-142.16"/>
<polygon fill="midnightblue" stroke="midnightblue" points="743.86,-151.9 739.7,-142.16 736.88,-152.37 743.86,-151.9"/>
</g>
<!-- Node11 -->
<g id="node11" class="node">
<title>Node11</title>
<g id="a_node11"><a xlink:href="classrare_1_1components_1_1tabs_1_1games_1_1cloud__save__utils_1_1_cloud_save_utils.html#a305cbdbdf1c59aacea30610a562ac40d" target="_top" xlink:title=" ">
<polygon fill="white" stroke="black" points="459.5,-102.5 459.5,-121.5 543.5,-121.5 543.5,-102.5 459.5,-102.5"/>
<text text-anchor="middle" x="501.5" y="-109.5" font-family="Helvetica,sans-Serif" font-size="10.00">worker_finished</text>
</a>
</g>
</g>
<!-- Node10&#45;&gt;Node11 -->
<g id="edge24" class="edge">
<title>Node10&#45;&gt;Node11</title>
<path fill="none" stroke="midnightblue" d="M610.82,-120.08C587.24,-118.32 563.09,-116.52 543.59,-115.07"/>
<polygon fill="midnightblue" stroke="midnightblue" points="610.64,-123.58 620.88,-120.83 611.16,-116.6 610.64,-123.58"/>
</g>
<!-- Node11&#45;&gt;Node11 -->
<g id="edge36" class="edge">
<title>Node11&#45;&gt;Node11</title>
<path fill="none" stroke="midnightblue" d="M539.37,-129.5C539.37,-135.34 526.74,-140 501.5,-140 465.6,-140 455.22,-130.57 470.37,-121.76"/>
<polygon fill="midnightblue" stroke="midnightblue" points="541.84,-127 532.63,-121.76 536.56,-131.6 541.84,-127"/>
</g>
<!-- Node12 -->
<g id="node12" class="node">
<title>Node12</title>
<g id="a_node12"><a xlink:href="classrare_1_1components_1_1tabs_1_1settings_1_1widgets_1_1ubisoft__activation_1_1_ubi_link_widget.html#a8f9705707225e3a806138596d5edae0d" target="_top" xlink:title=" ">
<polygon fill="white" stroke="black" points="168,-113 168,-143 382,-143 382,-113 168,-113"/>
<text text-anchor="start" x="176" y="-131" font-family="Helvetica,sans-Serif" font-size="10.00">rare.components.tabs.settings.widgets.ubisoft</text>
<text text-anchor="middle" x="275" y="-120" font-family="Helvetica,sans-Serif" font-size="10.00">_activation.UbiLinkWidget.activate</text>
</a>
</g>
</g>
<!-- Node11&#45;&gt;Node12 -->
<g id="edge25" class="edge">
<title>Node11&#45;&gt;Node12</title>
<path fill="none" stroke="midnightblue" d="M449.25,-115.65C429.3,-117.07 405.66,-118.76 382.35,-120.42"/>
<polygon fill="midnightblue" stroke="midnightblue" points="449.6,-119.14 459.32,-114.93 449.1,-112.15 449.6,-119.14"/>
</g>
<!-- Node13 -->
<g id="node13" class="node">
<title>Node13</title>
<g id="a_node13"><a xlink:href="classrare_1_1components_1_1tabs_1_1games_1_1cloud__save__utils_1_1_cloud_save_utils.html#a398a7b51391d4f2b1854e3d8cda2f9a3" target="_top" xlink:title=" ">
<polygon fill="white" stroke="black" points="230.5,-56.5 230.5,-75.5 319.5,-75.5 319.5,-56.5 230.5,-56.5"/>
<text text-anchor="middle" x="275" y="-63.5" font-family="Helvetica,sans-Serif" font-size="10.00">download_saves</text>
</a>
</g>
</g>
<!-- Node11&#45;&gt;Node13 -->
<g id="edge27" class="edge">
<title>Node11&#45;&gt;Node13</title>
<path fill="none" stroke="midnightblue" d="M449.44,-101.54C410.27,-93.51 356.78,-82.55 319.6,-74.93"/>
<polygon fill="midnightblue" stroke="midnightblue" points="448.82,-104.98 459.32,-103.56 450.23,-98.13 448.82,-104.98"/>
</g>
<!-- Node15 -->
<g id="node15" class="node">
<title>Node15</title>
<g id="a_node15"><a xlink:href="classrare_1_1components_1_1tabs_1_1games_1_1cloud__save__utils_1_1_cloud_save_utils.html#aabe920f2c8b262a0d16df2ef0ceafad8" target="_top" xlink:title=" ">
<polygon fill="white" stroke="black" points="236.5,-0.5 236.5,-19.5 313.5,-19.5 313.5,-0.5 236.5,-0.5"/>
<text text-anchor="middle" x="275" y="-7.5" font-family="Helvetica,sans-Serif" font-size="10.00">upload_saves</text>
</a>
</g>
</g>
<!-- Node11&#45;&gt;Node15 -->
<g id="edge32" class="edge">
<title>Node11&#45;&gt;Node15</title>
<path fill="none" stroke="midnightblue" d="M476.2,-97.11C452.67,-83.07 415.69,-61.99 382,-47 357.6,-36.14 328.96,-26.31 307.6,-19.51"/>
<polygon fill="midnightblue" stroke="midnightblue" points="474.46,-100.15 484.83,-102.3 478.06,-94.15 474.46,-100.15"/>
</g>
<!-- Node12&#45;&gt;Node12 -->
<g id="edge26" class="edge">
<title>Node12&#45;&gt;Node12</title>
<path fill="none" stroke="midnightblue" d="M311.96,-153.46C307.37,-158.18 295.05,-161.5 275,-161.5 242.09,-161.5 230.01,-152.56 238.75,-143.16"/>
<polygon fill="midnightblue" stroke="midnightblue" points="315.43,-152.89 311.25,-143.16 308.45,-153.38 315.43,-152.89"/>
</g>
<!-- Node13&#45;&gt;Node1 -->
<g id="edge29" class="edge">
<title>Node13&#45;&gt;Node1</title>
<path fill="none" stroke="midnightblue" d="M330.13,-62.88C411.25,-58.49 569.17,-51 703.5,-51 1276.5,-51 1276.5,-51 1276.5,-51 1404.45,-51 1436.49,-63.14 1562,-88 1576.19,-90.81 1591.66,-94.81 1604.82,-98.49"/>
<polygon fill="midnightblue" stroke="midnightblue" points="329.47,-59.41 319.68,-63.46 329.85,-66.4 329.47,-59.41"/>
</g>
<!-- Node13&#45;&gt;Node13 -->
<g id="edge28" class="edge">
<title>Node13&#45;&gt;Node13</title>
<path fill="none" stroke="midnightblue" d="M313.97,-83.01C314.71,-89.07 301.72,-94 275,-94 237.83,-94 227.23,-84.46 243.2,-75.61"/>
<polygon fill="midnightblue" stroke="midnightblue" points="316.27,-80.36 306.8,-75.61 311.24,-85.23 316.27,-80.36"/>
</g>
<!-- Node14 -->
<g id="node14" class="node">
<title>Node14</title>
<g id="a_node14"><a xlink:href="classrare_1_1components_1_1tabs_1_1games_1_1cloud__save__utils_1_1_cloud_save_utils.html#abb078ea24f03a8b8317000d4af7416de" target="_top" xlink:title=" ">
<polygon fill="white" stroke="black" points="0,-28.5 0,-47.5 132,-47.5 132,-28.5 0,-28.5"/>
<text text-anchor="middle" x="66" y="-35.5" font-family="Helvetica,sans-Serif" font-size="10.00">sync_before_launch_game</text>
</a>
</g>
</g>
<!-- Node13&#45;&gt;Node14 -->
<g id="edge30" class="edge">
<title>Node13&#45;&gt;Node14</title>
<path fill="none" stroke="midnightblue" d="M220.35,-58.74C193.42,-55.1 160.59,-50.66 132.22,-46.82"/>
<polygon fill="midnightblue" stroke="midnightblue" points="219.97,-62.22 230.35,-60.1 220.91,-55.29 219.97,-62.22"/>
</g>
<!-- Node14&#45;&gt;Node14 -->
<g id="edge31" class="edge">
<title>Node14&#45;&gt;Node14</title>
<path fill="none" stroke="midnightblue" d="M104.97,-55.01C105.71,-61.07 92.72,-66 66,-66 28.83,-66 18.23,-56.46 34.2,-47.61"/>
<polygon fill="midnightblue" stroke="midnightblue" points="107.27,-52.36 97.8,-47.61 102.24,-57.23 107.27,-52.36"/>
</g>
<!-- Node15&#45;&gt;Node1 -->
<g id="edge33" class="edge">
<title>Node15&#45;&gt;Node1</title>
<path fill="none" stroke="midnightblue" d="M323.87,-10.37C402.92,-10.95 565.7,-12 703.5,-12 1276.5,-12 1276.5,-12 1276.5,-12 1404.69,-12 1443.4,-4.35 1562,-53 1588.18,-63.74 1613.57,-85.71 1626.89,-98.39"/>
<polygon fill="midnightblue" stroke="midnightblue" points="323.77,-6.87 313.74,-10.3 323.72,-13.87 323.77,-6.87"/>
</g>
<!-- Node15&#45;&gt;Node14 -->
<g id="edge34" class="edge">
<title>Node15&#45;&gt;Node14</title>
<path fill="none" stroke="midnightblue" d="M225.77,-16.52C197.98,-20.28 162.66,-25.06 132.39,-29.16"/>
<polygon fill="midnightblue" stroke="midnightblue" points="226.59,-19.94 236.03,-15.14 225.65,-13.01 226.59,-19.94"/>
</g>
<!-- Node15&#45;&gt;Node15 -->
<g id="edge35" class="edge">
<title>Node15&#45;&gt;Node15</title>
<path fill="none" stroke="midnightblue" d="M313.97,-27.01C314.71,-33.07 301.72,-38 275,-38 237.83,-38 227.23,-28.46 243.2,-19.61"/>
<polygon fill="midnightblue" stroke="midnightblue" points="316.27,-24.36 306.8,-19.61 311.24,-29.23 316.27,-24.36"/>
</g>
</g>
</svg>
        <g id="navigator" transform="translate(0 0)" fill="#404254">
                <rect fill="#f2f5e9" fill-opacity="0.5" stroke="#606060" stroke-width=".5" x="0" y="0" width="60" height="60"/>
                <use id="zoomplus" xlink:href="#zoomPlus" x="17" y="9" onmousedown="handleZoom(evt,'in')"/>
                <use id="zoomminus" xlink:href="#zoomMin" x="42" y="9" onmousedown="handleZoom(evt,'out')"/>
                <use id="reset" xlink:href="#resetDef" x="30" y="36" onmousedown="handleReset()"/>
                <g id="arrowUp" xlink:href="#dirArrow" transform="translate(30 24)" onmousedown="handlePan(0,-1)">
                  <use xlink:href="#rim" fill="#404040">
                        <set attributeName="fill" to="#808080" begin="arrowUp.mouseover" end="arrowUp.mouseout"/>
                  </use>
                  <path fill="none" stroke="white" stroke-width="1.5" d="M0,-3.0v7 M-2.5,-0.5L0,-3.0L2.5,-0.5"/>
                </g>
                <g id="arrowRight" xlink:href="#dirArrow" transform="rotate(90) translate(36 -43)" onmousedown="handlePan(1,0)">
                  <use xlink:href="#rim" fill="#404040">
                        <set attributeName="fill" to="#808080" begin="arrowRight.mouseover" end="arrowRight.mouseout"/>
                  </use>
                  <path fill="none" stroke="white" stroke-width="1.5" d="M0,-3.0v7 M-2.5,-0.5L0,-3.0L2.5,-0.5"/>
                </g>
                <g id="arrowDown" xlink:href="#dirArrow" transform="rotate(180) translate(-30 -48)" onmousedown="handlePan(0,1)">
                  <use xlink:href="#rim" fill="#404040">
                        <set attributeName="fill" to="#808080" begin="arrowDown.mouseover" end="arrowDown.mouseout"/>
                  </use>
                  <path fill="none" stroke="white" stroke-width="1.5" d="M0,-3.0v7 M-2.5,-0.5L0,-3.0L2.5,-0.5"/>
                </g>
                <g id="arrowLeft" xlink:href="#dirArrow" transform="rotate(270) translate(-36 17)" onmousedown="handlePan(-1,0)">
                  <use xlink:href="#rim" fill="#404040">
                        <set attributeName="fill" to="#808080" begin="arrowLeft.mouseover" end="arrowLeft.mouseout"/>
                  </use>
                  <path fill="none" stroke="white" stroke-width="1.5" d="M0,-3.0v7 M-2.5,-0.5L0,-3.0L2.5,-0.5"/>
                </g>
        </g>
        <svg viewBox="0 0 15 15" width="100%" height="30px" preserveAspectRatio="xMaxYMin meet">
         <g id="arrow_out" transform="scale(0.3 0.3)">
          <a xlink:href="classrare_1_1components_1_1tabs_1_1games_1_1cloud__save__utils_1_1_cloud_save_utils_a970c7d031af196eae774c1e0fa78daab_icgraph_org.svg" target="_base">
           <rect id="button" ry="5" rx="5" y="6" x="6" height="38" width="38"
                fill="#f2f5e9" fill-opacity="0.5" stroke="#606060" stroke-width="1.0"/>
           <path id="arrow"
             d="M 11.500037,31.436501 C 11.940474,20.09759 22.043105,11.32322 32.158766,21.979434 L 37.068811,17.246167 C 37.068811,17.246167 37.088388,32 37.088388,32 L 22.160133,31.978069 C 22.160133,31.978069 26.997745,27.140456 26.997745,27.140456 C 18.528582,18.264221 13.291696,25.230495 11.500037,31.436501 z"
             style="fill:#404040;"/>
          </a>
         </g>
        </svg>
</svg>
