<?xml version="1.0" encoding="UTF-8" standalone="no"?>
<!DOCTYPE svg PUBLIC "-//W3C//DTD SVG 1.1//EN"
 "http://www.w3.org/Graphics/SVG/1.1/DTD/svg11.dtd">
<!-- Generated by graphviz version 2.49.3 (20211027.1534)
 -->
<!-- Title: MoveWorker Pages: 1 -->
<svg width="89pt" height="502pt"
 viewBox="0.00 0.00 89.00 502.00" xmlns="http://www.w3.org/2000/svg" xmlns:xlink="http://www.w3.org/1999/xlink">
<g id="graph0" class="graph" transform="scale(1 1) rotate(0) translate(4 498)">
<title>MoveWorker</title>
<polygon fill="white" stroke="transparent" points="-4,4 -4,-498 85,-498 85,4 -4,4"/>
<!-- Node1 -->
<g id="node1" class="node">
<title>Node1</title>
<g id="a_node1"><a xlink:title=" ">
<polygon fill="#bfbfbf" stroke="black" points="0,-0.5 0,-112.5 81,-112.5 81,-0.5 0,-0.5"/>
<text text-anchor="middle" x="40.5" y="-100.5" font-family="Helvetica,sans-Serif" font-size="10.00">MoveWorker</text>
<polyline fill="none" stroke="black" points="0,-93.5 81,-93.5 "/>
<text text-anchor="start" x="8" y="-81.5" font-family="Helvetica,sans-Serif" font-size="10.00">+ signals</text>
<text text-anchor="start" x="8" y="-70.5" font-family="Helvetica,sans-Serif" font-size="10.00">+ core</text>
<text text-anchor="start" x="8" y="-59.5" font-family="Helvetica,sans-Serif" font-size="10.00">+ rgame</text>
<polyline fill="none" stroke="black" points="0,-52.5 81,-52.5 "/>
<text text-anchor="start" x="8" y="-40.5" font-family="Helvetica,sans-Serif" font-size="10.00">+ __init__()</text>
<text text-anchor="start" x="8" y="-29.5" font-family="Helvetica,sans-Serif" font-size="10.00">+ worker_info()</text>
<text text-anchor="start" x="8" y="-18.5" font-family="Helvetica,sans-Serif" font-size="10.00">+ progress()</text>
<text text-anchor="start" x="8" y="-7.5" font-family="Helvetica,sans-Serif" font-size="10.00">+ run_real()</text>
</a>
</g>
</g>
<!-- Node2 -->
<g id="node2" class="node">
<title>Node2</title>
<g id="a_node2"><a xlink:href="classrare_1_1shared_1_1workers_1_1worker_1_1_queue_worker.html" target="_top" xlink:title="Base queueable worker class.">
<polygon fill="white" stroke="black" points="0,-149.5 0,-250.5 81,-250.5 81,-149.5 0,-149.5"/>
<text text-anchor="middle" x="40.5" y="-238.5" font-family="Helvetica,sans-Serif" font-size="10.00">QueueWorker</text>
<polyline fill="none" stroke="black" points="0,-231.5 81,-231.5 "/>
<text text-anchor="start" x="8" y="-219.5" font-family="Helvetica,sans-Serif" font-size="10.00">+ feedback</text>
<text text-anchor="start" x="8" y="-208.5" font-family="Helvetica,sans-Serif" font-size="10.00">+ state</text>
<polyline fill="none" stroke="black" points="0,-201.5 81,-201.5 "/>
<text text-anchor="start" x="8" y="-189.5" font-family="Helvetica,sans-Serif" font-size="10.00">+ __init__()</text>
<text text-anchor="start" x="8" y="-178.5" font-family="Helvetica,sans-Serif" font-size="10.00">+ run()</text>
<text text-anchor="start" x="8" y="-167.5" font-family="Helvetica,sans-Serif" font-size="10.00">+ worker_info()</text>
<text text-anchor="start" x="8" y="-156.5" font-family="Helvetica,sans-Serif" font-size="10.00">+ kill()</text>
</a>
</g>
</g>
<!-- Node2&#45;&gt;Node1 -->
<g id="edge1" class="edge">
<title>Node2&#45;&gt;Node1</title>
<path fill="none" stroke="midnightblue" d="M40.5,-139.01C40.5,-130.29 40.5,-121.34 40.5,-112.72"/>
<polygon fill="none" stroke="midnightblue" points="37,-139.11 40.5,-149.11 44,-139.11 37,-139.11"/>
</g>
<!-- Node3 -->
<g id="node3" class="node">
<title>Node3</title>
<g id="a_node3"><a xlink:href="classrare_1_1shared_1_1workers_1_1worker_1_1_worker.html" target="_top" xlink:title="Base QRunnable class.">
<polygon fill="white" stroke="black" points="8,-287.5 8,-399.5 73,-399.5 73,-287.5 8,-287.5"/>
<text text-anchor="middle" x="40.5" y="-387.5" font-family="Helvetica,sans-Serif" font-size="10.00">Worker</text>
<polyline fill="none" stroke="black" points="8,-380.5 73,-380.5 "/>
<text text-anchor="middle" x="40.5" y="-368.5" font-family="Helvetica,sans-Serif" font-size="10.00"> </text>
<polyline fill="none" stroke="black" points="8,-361.5 73,-361.5 "/>
<text text-anchor="start" x="16" y="-349.5" font-family="Helvetica,sans-Serif" font-size="10.00">+ __init__()</text>
<text text-anchor="start" x="16" y="-338.5" font-family="Helvetica,sans-Serif" font-size="10.00">+ logger()</text>
<text text-anchor="start" x="16" y="-327.5" font-family="Helvetica,sans-Serif" font-size="10.00">+ signals()</text>
<text text-anchor="start" x="16" y="-316.5" font-family="Helvetica,sans-Serif" font-size="10.00">+ signals()</text>
<text text-anchor="start" x="16" y="-305.5" font-family="Helvetica,sans-Serif" font-size="10.00">+ run_real()</text>
<text text-anchor="start" x="16" y="-294.5" font-family="Helvetica,sans-Serif" font-size="10.00">+ run()</text>
</a>
</g>
</g>
<!-- Node3&#45;&gt;Node2 -->
<g id="edge2" class="edge">
<title>Node3&#45;&gt;Node2</title>
<path fill="none" stroke="midnightblue" d="M40.5,-277.34C40.5,-268.38 40.5,-259.29 40.5,-250.66"/>
<polygon fill="none" stroke="midnightblue" points="37,-277.39 40.5,-287.39 44,-277.39 37,-277.39"/>
</g>
<!-- Node4 -->
<g id="node4" class="node">
<title>Node4</title>
<g id="a_node4"><a xlink:title=" ">
<polygon fill="white" stroke="#bfbfbf" points="8,-436.5 8,-493.5 73,-493.5 73,-436.5 8,-436.5"/>
<text text-anchor="middle" x="40.5" y="-481.5" font-family="Helvetica,sans-Serif" font-size="10.00">QRunnable</text>
<polyline fill="none" stroke="#bfbfbf" points="8,-474.5 73,-474.5 "/>
<text text-anchor="middle" x="40.5" y="-462.5" font-family="Helvetica,sans-Serif" font-size="10.00"> </text>
<polyline fill="none" stroke="#bfbfbf" points="8,-455.5 73,-455.5 "/>
<text text-anchor="middle" x="40.5" y="-443.5" font-family="Helvetica,sans-Serif" font-size="10.00"> </text>
</a>
</g>
</g>
<!-- Node4&#45;&gt;Node3 -->
<g id="edge3" class="edge">
<title>Node4&#45;&gt;Node3</title>
<path fill="none" stroke="midnightblue" d="M40.5,-426.11C40.5,-417.75 40.5,-408.73 40.5,-399.83"/>
<polygon fill="none" stroke="midnightblue" points="37,-426.28 40.5,-436.28 44,-426.28 37,-426.28"/>
</g>
</g>
</svg>
