<?xml version="1.0" encoding="UTF-8" standalone="no"?>
<!DOCTYPE svg PUBLIC "-//W3C//DTD SVG 1.1//EN"
 "http://www.w3.org/Graphics/SVG/1.1/DTD/svg11.dtd">
<!-- Generated by graphviz version 2.49.3 (20211027.1534)
 -->
<!-- Title: login Pages: 1 -->
<svg width="1362pt" height="1013pt"
 viewBox="0.00 0.00 1362.00 1013.16" xmlns="http://www.w3.org/2000/svg" xmlns:xlink="http://www.w3.org/1999/xlink">
<g id="graph0" class="graph" transform="scale(1 1) rotate(0) translate(4 1009.16)">
<title>login</title>
<polygon fill="white" stroke="transparent" points="-4,4 -4,-1009.16 1358,-1009.16 1358,4 -4,4"/>
<!-- Node1 -->
<g id="node1" class="node">
<title>Node1</title>
<g id="a_node1"><a xlink:title=" ">
<polygon fill="#bfbfbf" stroke="black" points="0,-469.07 0,-488.07 37,-488.07 37,-469.07 0,-469.07"/>
<text text-anchor="middle" x="18.5" y="-476.07" font-family="Helvetica,sans-Serif" font-size="10.00">login</text>
</a>
</g>
</g>
<!-- Node1&#45;&gt;Node1 -->
<g id="edge73" class="edge">
<title>Node1&#45;&gt;Node1</title>
<path fill="none" stroke="midnightblue" d="M5.55,-488.33C-0.75,-497.13 3.57,-506.57 18.5,-506.57 27.6,-506.57 32.75,-503.07 33.97,-498.34"/>
<polygon fill="midnightblue" stroke="midnightblue" points="37.28,-497.17 31.45,-488.33 30.5,-498.88 37.28,-497.17"/>
</g>
<!-- Node2 -->
<g id="node2" class="node">
<title>Node2</title>
<g id="a_node2"><a xlink:href="classrare_1_1shared_1_1rare__core_1_1_rare_core.html#a6fd4772e3099e911c4878bd2cb9eba27" target="_top" xlink:title=" ">
<polygon fill="white" stroke="black" points="191.5,-418.57 191.5,-448.57 321.5,-448.57 321.5,-418.57 191.5,-418.57"/>
<text text-anchor="start" x="199.5" y="-436.57" font-family="Helvetica,sans-Serif" font-size="10.00">rare.shared.rare_core.Rare</text>
<text text-anchor="middle" x="256.5" y="-425.57" font-family="Helvetica,sans-Serif" font-size="10.00">Core.args</text>
</a>
</g>
</g>
<!-- Node1&#45;&gt;Node2 -->
<g id="edge1" class="edge">
<title>Node1&#45;&gt;Node2</title>
<path fill="none" stroke="midnightblue" d="M37.24,-475.19C67.49,-469.42 130.69,-457.37 181.34,-447.71"/>
<polygon fill="midnightblue" stroke="midnightblue" points="182.12,-451.12 191.29,-445.81 180.81,-444.25 182.12,-451.12"/>
</g>
<!-- Node3 -->
<g id="node3" class="node">
<title>Node3</title>
<g id="a_node3"><a xlink:href="classrare_1_1shared_1_1rare__core_1_1_rare_core.html#a405e1a4f20f16120f872ccd2654a1d56" target="_top" xlink:title=" ">
<polygon fill="white" stroke="black" points="856.5,-484.57 856.5,-514.57 986.5,-514.57 986.5,-484.57 856.5,-484.57"/>
<text text-anchor="start" x="864.5" y="-502.57" font-family="Helvetica,sans-Serif" font-size="10.00">rare.shared.rare_core.Rare</text>
<text text-anchor="middle" x="921.5" y="-491.57" font-family="Helvetica,sans-Serif" font-size="10.00">Core.core</text>
</a>
</g>
</g>
<!-- Node1&#45;&gt;Node3 -->
<g id="edge3" class="edge">
<title>Node1&#45;&gt;Node3</title>
<path fill="none" stroke="midnightblue" d="M37.22,-481.23C76.44,-486.88 173.64,-499.57 255.5,-499.57 255.5,-499.57 255.5,-499.57 480,-499.57 608.74,-499.57 758.63,-499.57 846.2,-499.57"/>
<polygon fill="midnightblue" stroke="midnightblue" points="846.3,-503.07 856.3,-499.57 846.3,-496.07 846.3,-503.07"/>
</g>
<!-- Node4 -->
<g id="node4" class="node">
<title>Node4</title>
<g id="a_node4"><a xlink:href="classrare_1_1shared_1_1workers_1_1worker_1_1_worker.html#a5d3220537164bdcd6c040b54ef85f656" target="_top" xlink:title=" ">
<polygon fill="white" stroke="black" points="1035.5,-484.57 1035.5,-514.57 1170.5,-514.57 1170.5,-484.57 1035.5,-484.57"/>
<text text-anchor="start" x="1043.5" y="-502.57" font-family="Helvetica,sans-Serif" font-size="10.00">rare.shared.workers.worker.</text>
<text text-anchor="middle" x="1103" y="-491.57" font-family="Helvetica,sans-Serif" font-size="10.00">Worker.logger</text>
</a>
</g>
</g>
<!-- Node1&#45;&gt;Node4 -->
<g id="edge72" class="edge">
<title>Node1&#45;&gt;Node4</title>
<path fill="none" stroke="midnightblue" d="M19.29,-488.51C18.35,-560.54 22.15,-999.57 255.5,-999.57 255.5,-999.57 255.5,-999.57 716.5,-999.57 841.1,-999.57 901.12,-1028.86 991,-942.57 998.81,-935.07 1074.22,-617.38 1096.08,-524.7"/>
<polygon fill="midnightblue" stroke="midnightblue" points="1099.53,-525.32 1098.42,-514.78 1092.72,-523.71 1099.53,-525.32"/>
</g>
<!-- Node5 -->
<g id="node5" class="node">
<title>Node5</title>
<g id="a_node5"><a xlink:href="classrare_1_1components_1_1dialogs_1_1launch_1_1_launch_dialog.html#aa3fe4f510c683950f9a38eb445106504" target="_top" xlink:title=" ">
<polygon fill="white" stroke="black" points="73,-374.07 73,-393.07 134,-393.07 134,-374.07 73,-374.07"/>
<text text-anchor="middle" x="103.5" y="-381.07" font-family="Helvetica,sans-Serif" font-size="10.00">do_launch</text>
</a>
</g>
</g>
<!-- Node1&#45;&gt;Node5 -->
<g id="edge7" class="edge">
<title>Node1&#45;&gt;Node5</title>
<path fill="none" stroke="midnightblue" d="M28.07,-468.76C42.06,-452.75 69.98,-420.79 87.37,-400.89"/>
<polygon fill="midnightblue" stroke="midnightblue" points="90.16,-403.02 94.1,-393.18 84.89,-398.41 90.16,-403.02"/>
</g>
<!-- Node2&#45;&gt;Node2 -->
<g id="edge2" class="edge">
<title>Node2&#45;&gt;Node2</title>
<path fill="none" stroke="midnightblue" d="M230.01,-448.73C223.62,-458.13 232.45,-467.07 256.5,-467.07 271.15,-467.07 280.16,-463.75 283.51,-459.03"/>
<polygon fill="midnightblue" stroke="midnightblue" points="286.99,-458.54 282.99,-448.73 280,-458.89 286.99,-458.54"/>
</g>
<!-- Node3&#45;&gt;Node3 -->
<g id="edge4" class="edge">
<title>Node3&#45;&gt;Node3</title>
<path fill="none" stroke="midnightblue" d="M890.13,-514.73C882.57,-524.13 893.02,-533.07 921.5,-533.07 938.85,-533.07 949.51,-529.75 953.48,-525.03"/>
<polygon fill="midnightblue" stroke="midnightblue" points="956.96,-524.5 952.87,-514.73 949.97,-524.92 956.96,-524.5"/>
</g>
<!-- Node3&#45;&gt;Node4 -->
<g id="edge5" class="edge">
<title>Node3&#45;&gt;Node4</title>
<path fill="none" stroke="midnightblue" d="M986.54,-499.57C999.02,-499.57 1012.21,-499.57 1025.05,-499.57"/>
<polygon fill="midnightblue" stroke="midnightblue" points="1025.25,-503.07 1035.25,-499.57 1025.25,-496.07 1025.25,-503.07"/>
</g>
<!-- Node4&#45;&gt;Node4 -->
<g id="edge6" class="edge">
<title>Node4&#45;&gt;Node4</title>
<path fill="none" stroke="midnightblue" d="M1071.63,-514.73C1064.07,-524.13 1074.52,-533.07 1103,-533.07 1120.35,-533.07 1131.01,-529.75 1134.98,-525.03"/>
<polygon fill="midnightblue" stroke="midnightblue" points="1138.46,-524.5 1134.37,-514.73 1131.47,-524.92 1138.46,-524.5"/>
</g>
<!-- Node5&#45;&gt;Node2 -->
<g id="edge8" class="edge">
<title>Node5&#45;&gt;Node2</title>
<path fill="none" stroke="midnightblue" d="M133.26,-393.09C152.2,-399.36 177.62,-407.78 200.36,-415.31"/>
<polygon fill="midnightblue" stroke="midnightblue" points="199.33,-418.66 209.92,-418.48 201.53,-412.01 199.33,-418.66"/>
</g>
<!-- Node5&#45;&gt;Node5 -->
<g id="edge9" class="edge">
<title>Node5&#45;&gt;Node5</title>
<path fill="none" stroke="midnightblue" d="M90.55,-393.33C84.25,-402.13 88.57,-411.57 103.5,-411.57 112.6,-411.57 117.75,-408.07 118.97,-403.34"/>
<polygon fill="midnightblue" stroke="midnightblue" points="122.28,-402.17 116.45,-393.33 115.5,-403.88 122.28,-402.17"/>
</g>
<!-- Node6 -->
<g id="node6" class="node">
<title>Node6</title>
<g id="a_node6"><a xlink:href="classrare_1_1components_1_1dialogs_1_1launch_1_1_launch_dialog.html#af9075195d51b585cd05540dca2a1eadb" target="_top" xlink:title=" ">
<polygon fill="white" stroke="black" points="234,-54.07 234,-73.07 279,-73.07 279,-54.07 234,-54.07"/>
<text text-anchor="middle" x="256.5" y="-61.07" font-family="Helvetica,sans-Serif" font-size="10.00">launch</text>
</a>
</g>
</g>
<!-- Node5&#45;&gt;Node6 -->
<g id="edge10" class="edge">
<title>Node5&#45;&gt;Node6</title>
<path fill="none" stroke="midnightblue" d="M109.02,-373.99C130.03,-329.46 218.36,-142.27 246.71,-82.2"/>
<polygon fill="midnightblue" stroke="midnightblue" points="249.9,-83.65 251,-73.11 243.57,-80.66 249.9,-83.65"/>
</g>
<!-- Node8 -->
<g id="node8" class="node">
<title>Node8</title>
<g id="a_node8"><a xlink:href="classrare_1_1models_1_1game_1_1_rare_game.html#a6d3bed9f11ad3349384adff7a65f7932" target="_top" xlink:title=" ">
<polygon fill="white" stroke="black" points="170,-358.07 170,-377.07 343,-377.07 343,-358.07 170,-358.07"/>
<text text-anchor="middle" x="256.5" y="-365.07" font-family="Helvetica,sans-Serif" font-size="10.00">rare.models.game.RareGame.launch</text>
</a>
</g>
</g>
<!-- Node5&#45;&gt;Node8 -->
<g id="edge15" class="edge">
<title>Node5&#45;&gt;Node8</title>
<path fill="none" stroke="midnightblue" d="M134.33,-380.41C142.03,-379.59 150.75,-378.67 159.89,-377.7"/>
<polygon fill="midnightblue" stroke="midnightblue" points="160.37,-381.17 169.95,-376.63 159.63,-374.21 160.37,-381.17"/>
</g>
<!-- Node6&#45;&gt;Node4 -->
<g id="edge12" class="edge">
<title>Node6&#45;&gt;Node4</title>
<path fill="none" stroke="midnightblue" d="M279.07,-56.66C376.34,-26.96 778.7,79.86 991,-111.57 1046.3,-161.43 1086.29,-395.96 1098.27,-474.14"/>
<polygon fill="midnightblue" stroke="midnightblue" points="1094.88,-475.13 1099.83,-484.5 1101.8,-474.09 1094.88,-475.13"/>
</g>
<!-- Node6&#45;&gt;Node6 -->
<g id="edge11" class="edge">
<title>Node6&#45;&gt;Node6</title>
<path fill="none" stroke="midnightblue" d="M233.85,-72.75C221.34,-81.71 228.89,-91.57 256.5,-91.57 275.48,-91.57 284.98,-86.91 285,-81.09"/>
<polygon fill="midnightblue" stroke="midnightblue" points="287.76,-78.92 279.15,-72.75 282.03,-82.94 287.76,-78.92"/>
</g>
<!-- Node7 -->
<g id="node7" class="node">
<title>Node7</title>
<g id="a_node7"><a xlink:href="classrare_1_1components_1_1tabs_1_1library_1_1widgets_1_1game__widget_1_1_game_widget.html#aa660d748bc3a0c7c2dfaa15cee8e6ba6" target="_top" xlink:title=" ">
<polygon fill="white" stroke="black" points="379,-48.57 379,-78.57 579,-78.57 579,-48.57 379,-48.57"/>
<text text-anchor="start" x="387" y="-66.57" font-family="Helvetica,sans-Serif" font-size="10.00">rare.components.tabs.library.widgets.game</text>
<text text-anchor="middle" x="479" y="-55.57" font-family="Helvetica,sans-Serif" font-size="10.00">_widget.GameWidget.ui</text>
</a>
</g>
</g>
<!-- Node6&#45;&gt;Node7 -->
<g id="edge13" class="edge">
<title>Node6&#45;&gt;Node7</title>
<path fill="none" stroke="midnightblue" d="M279.04,-63.57C300.35,-63.57 334.62,-63.57 368.77,-63.57"/>
<polygon fill="midnightblue" stroke="midnightblue" points="368.87,-67.07 378.87,-63.57 368.87,-60.07 368.87,-67.07"/>
</g>
<!-- Node7&#45;&gt;Node7 -->
<g id="edge14" class="edge">
<title>Node7&#45;&gt;Node7</title>
<path fill="none" stroke="midnightblue" d="M440.31,-78.73C430.98,-88.13 443.88,-97.07 479,-97.07 500.4,-97.07 513.55,-93.75 518.45,-89.03"/>
<polygon fill="midnightblue" stroke="midnightblue" points="521.91,-88.44 517.69,-78.73 514.93,-88.96 521.91,-88.44"/>
</g>
<!-- Node8&#45;&gt;Node4 -->
<g id="edge71" class="edge">
<title>Node8&#45;&gt;Node4</title>
<path fill="none" stroke="midnightblue" d="M269.57,-357.83C290.65,-341.22 336.04,-307.21 379,-286.57 556.63,-201.23 634.07,-135.84 816,-211.57 948.76,-266.83 1051.61,-417.01 1087.86,-475.66"/>
<polygon fill="midnightblue" stroke="midnightblue" points="1084.91,-477.54 1093.1,-484.25 1090.89,-473.89 1084.91,-477.54"/>
</g>
<!-- Node8&#45;&gt;Node8 -->
<g id="edge70" class="edge">
<title>Node8&#45;&gt;Node8</title>
<path fill="none" stroke="midnightblue" d="M233.07,-377.33C221.68,-386.13 229.48,-395.57 256.5,-395.57 274.23,-395.57 283.69,-391.51 284.87,-386.22"/>
<polygon fill="midnightblue" stroke="midnightblue" points="287.84,-384.37 279.93,-377.33 281.73,-387.77 287.84,-384.37"/>
</g>
<!-- Node9 -->
<g id="node9" class="node">
<title>Node9</title>
<g id="a_node9"><a xlink:href="classrare_1_1components_1_1tabs_1_1integrations_1_1egl__sync__group_1_1_e_g_l_sync_list_item.html#a9c470cc60eae203f55455d0e0d7f5712" target="_top" xlink:title=" ">
<polygon fill="white" stroke="black" points="380,-419.57 380,-449.57 578,-449.57 578,-419.57 380,-419.57"/>
<text text-anchor="start" x="388" y="-437.57" font-family="Helvetica,sans-Serif" font-size="10.00">rare.components.tabs.integrations.egl</text>
<text text-anchor="middle" x="479" y="-426.57" font-family="Helvetica,sans-Serif" font-size="10.00">_sync_group.EGLSyncListItem.app_name</text>
</a>
</g>
</g>
<!-- Node8&#45;&gt;Node9 -->
<g id="edge16" class="edge">
<title>Node8&#45;&gt;Node9</title>
<path fill="none" stroke="midnightblue" d="M283.36,-377.23C307.82,-386.19 345.64,-399.61 379,-409.57 387.39,-412.07 396.23,-414.54 405.04,-416.9"/>
<polygon fill="midnightblue" stroke="midnightblue" points="404.37,-420.34 414.93,-419.5 406.15,-413.57 404.37,-420.34"/>
</g>
<!-- Node10 -->
<g id="node10" class="node">
<title>Node10</title>
<g id="a_node10"><a xlink:href="classrare_1_1models_1_1game_1_1_rare_game.html#a4431ce8cf18e5dd3414d8882e585bd8d" target="_top" xlink:title=" ">
<polygon fill="white" stroke="black" points="399,-733.57 399,-763.57 559,-763.57 559,-733.57 399,-733.57"/>
<text text-anchor="start" x="407" y="-751.57" font-family="Helvetica,sans-Serif" font-size="10.00">rare.models.game.RareGame.can</text>
<text text-anchor="middle" x="479" y="-740.57" font-family="Helvetica,sans-Serif" font-size="10.00">_launch</text>
</a>
</g>
</g>
<!-- Node8&#45;&gt;Node10 -->
<g id="edge18" class="edge">
<title>Node8&#45;&gt;Node10</title>
<path fill="none" stroke="midnightblue" d="M291.15,-377.13C308.58,-383.56 329.07,-393.64 343,-408.57 365.92,-433.13 443.18,-649.37 469.29,-723.64"/>
<polygon fill="midnightblue" stroke="midnightblue" points="466.15,-725.26 472.76,-733.53 472.75,-722.94 466.15,-725.26"/>
</g>
<!-- Node22 -->
<g id="node22" class="node">
<title>Node22</title>
<g id="a_node22"><a xlink:href="namespacerare_1_1utils_1_1paths.html#a2072698e86e84abf4468424dd6a0223a" target="_top" xlink:title=" ">
<polygon fill="white" stroke="black" points="422,-115.57 422,-145.57 536,-145.57 536,-115.57 422,-115.57"/>
<text text-anchor="start" x="430" y="-133.57" font-family="Helvetica,sans-Serif" font-size="10.00">rare.utils.paths.compat</text>
<text text-anchor="middle" x="479" y="-122.57" font-family="Helvetica,sans-Serif" font-size="10.00">_shaders_dir</text>
</a>
</g>
</g>
<!-- Node8&#45;&gt;Node22 -->
<g id="edge51" class="edge">
<title>Node8&#45;&gt;Node22</title>
<path fill="none" stroke="midnightblue" d="M261.37,-358.03C274,-327.93 316.83,-233.69 379,-178.57 392.38,-166.7 409.22,-157.1 425.19,-149.68"/>
<polygon fill="midnightblue" stroke="midnightblue" points="426.74,-152.83 434.46,-145.57 423.9,-146.43 426.74,-152.83"/>
</g>
<!-- Node25 -->
<g id="node25" class="node">
<title>Node25</title>
<g id="a_node25"><a xlink:href="classrare_1_1models_1_1game_1_1_rare_game.html#a1c63f170bebf6be9a0fd6ad51699015b" target="_top" xlink:title=" ">
<polygon fill="white" stroke="black" points="380.5,-296.07 380.5,-315.07 577.5,-315.07 577.5,-296.07 380.5,-296.07"/>
<text text-anchor="middle" x="479" y="-303.07" font-family="Helvetica,sans-Serif" font-size="10.00">rare.models.game.RareGame.folder_name</text>
</a>
</g>
</g>
<!-- Node8&#45;&gt;Node25 -->
<g id="edge57" class="edge">
<title>Node8&#45;&gt;Node25</title>
<path fill="none" stroke="midnightblue" d="M291.47,-358.02C329.83,-347.23 392.36,-329.65 434.32,-317.85"/>
<polygon fill="midnightblue" stroke="midnightblue" points="435.31,-321.21 443.99,-315.13 433.42,-314.47 435.31,-321.21"/>
</g>
<!-- Node30 -->
<g id="node30" class="node">
<title>Node30</title>
<g id="a_node30"><a xlink:href="namespacerare_1_1utils_1_1paths.html#a68cd3e1fc788f308126c93413a0f312c" target="_top" xlink:title="Returns the command list to invoke Rare for different platforms and packaging solutions When used wit...">
<polygon fill="white" stroke="black" points="431.5,-352.57 431.5,-382.57 526.5,-382.57 526.5,-352.57 431.5,-352.57"/>
<text text-anchor="start" x="439.5" y="-370.57" font-family="Helvetica,sans-Serif" font-size="10.00">rare.utils.paths.get</text>
<text text-anchor="middle" x="479" y="-359.57" font-family="Helvetica,sans-Serif" font-size="10.00">_rare_executable</text>
</a>
</g>
</g>
<!-- Node8&#45;&gt;Node30 -->
<g id="edge68" class="edge">
<title>Node8&#45;&gt;Node30</title>
<path fill="none" stroke="midnightblue" d="M343.07,-367.57C369.22,-367.57 397.32,-367.57 421.08,-367.57"/>
<polygon fill="midnightblue" stroke="midnightblue" points="421.32,-371.07 431.32,-367.57 421.32,-364.07 421.32,-371.07"/>
</g>
<!-- Node9&#45;&gt;Node9 -->
<g id="edge17" class="edge">
<title>Node9&#45;&gt;Node9</title>
<path fill="none" stroke="midnightblue" d="M440.31,-449.73C430.98,-459.13 443.88,-468.07 479,-468.07 500.4,-468.07 513.55,-464.75 518.45,-460.03"/>
<polygon fill="midnightblue" stroke="midnightblue" points="521.91,-459.44 517.69,-449.73 514.93,-459.96 521.91,-459.44"/>
</g>
<!-- Node10&#45;&gt;Node10 -->
<g id="edge19" class="edge">
<title>Node10&#45;&gt;Node10</title>
<path fill="none" stroke="midnightblue" d="M440.31,-763.73C430.98,-773.13 443.88,-782.07 479,-782.07 500.4,-782.07 513.55,-778.75 518.45,-774.03"/>
<polygon fill="midnightblue" stroke="midnightblue" points="521.91,-773.44 517.69,-763.73 514.93,-773.96 521.91,-773.44"/>
</g>
<!-- Node11 -->
<g id="node11" class="node">
<title>Node11</title>
<g id="a_node11"><a xlink:href="classrare_1_1models_1_1game_1_1_rare_game.html#af3b5f267d190558f0bbc61ea26f269bd" target="_top" xlink:title="Property to report if a game can run offline.">
<polygon fill="white" stroke="black" points="635.5,-767.57 635.5,-797.57 795.5,-797.57 795.5,-767.57 635.5,-767.57"/>
<text text-anchor="start" x="643.5" y="-785.57" font-family="Helvetica,sans-Serif" font-size="10.00">rare.models.game.RareGame.can</text>
<text text-anchor="middle" x="715.5" y="-774.57" font-family="Helvetica,sans-Serif" font-size="10.00">_run_offline</text>
</a>
</g>
</g>
<!-- Node10&#45;&gt;Node11 -->
<g id="edge20" class="edge">
<title>Node10&#45;&gt;Node11</title>
<path fill="none" stroke="midnightblue" d="M559.06,-760.03C580.4,-763.13 603.62,-766.49 625.46,-769.66"/>
<polygon fill="midnightblue" stroke="midnightblue" points="624.98,-773.13 635.38,-771.1 625.99,-766.2 624.98,-773.13"/>
</g>
<!-- Node12 -->
<g id="node12" class="node">
<title>Node12</title>
<g id="a_node12"><a xlink:href="classrare_1_1models_1_1game_1_1_rare_game.html#a446ff523b2db28f598f431a4614f4a96" target="_top" xlink:title="Property to report if a game doesn&#39;t belong to the current account.">
<polygon fill="white" stroke="black" points="639.5,-700.57 639.5,-730.57 791.5,-730.57 791.5,-700.57 639.5,-700.57"/>
<text text-anchor="start" x="647.5" y="-718.57" font-family="Helvetica,sans-Serif" font-size="10.00">rare.models.game.RareGame.is</text>
<text text-anchor="middle" x="715.5" y="-707.57" font-family="Helvetica,sans-Serif" font-size="10.00">_foreign</text>
</a>
</g>
</g>
<!-- Node10&#45;&gt;Node12 -->
<g id="edge22" class="edge">
<title>Node10&#45;&gt;Node12</title>
<path fill="none" stroke="midnightblue" d="M559.06,-737.44C581.65,-734.26 606.36,-730.79 629.29,-727.56"/>
<polygon fill="midnightblue" stroke="midnightblue" points="629.93,-731 639.35,-726.14 628.96,-724.07 629.93,-731"/>
</g>
<!-- Node13 -->
<g id="node13" class="node">
<title>Node13</title>
<g id="a_node13"><a xlink:href="classrare_1_1models_1_1game_1_1_rare_game.html#a823ab7286cb07208f430cc54252c82bb" target="_top" xlink:title="Property to report if a game is installed.">
<polygon fill="white" stroke="black" points="1027,-828.57 1027,-858.57 1179,-858.57 1179,-828.57 1027,-828.57"/>
<text text-anchor="start" x="1035" y="-846.57" font-family="Helvetica,sans-Serif" font-size="10.00">rare.models.game.RareGame.is</text>
<text text-anchor="middle" x="1103" y="-835.57" font-family="Helvetica,sans-Serif" font-size="10.00">_installed</text>
</a>
</g>
</g>
<!-- Node10&#45;&gt;Node13 -->
<g id="edge44" class="edge">
<title>Node10&#45;&gt;Node13</title>
<path fill="none" stroke="midnightblue" d="M494.37,-763.94C517.27,-787.16 564.59,-830.2 615,-846.57 750.09,-890.43 917.58,-875.44 1016.78,-859.94"/>
<polygon fill="midnightblue" stroke="midnightblue" points="1017.44,-863.38 1026.76,-858.35 1016.33,-856.47 1017.44,-863.38"/>
</g>
<!-- Node16 -->
<g id="node16" class="node">
<title>Node16</title>
<g id="a_node16"><a xlink:href="classrare_1_1models_1_1game_1_1_rare_eos_overlay.html#a823ab7286cb07208f430cc54252c82bb" target="_top" xlink:title=" ">
<polygon fill="white" stroke="black" points="855.5,-772.57 855.5,-802.57 987.5,-802.57 987.5,-772.57 855.5,-772.57"/>
<text text-anchor="start" x="863.5" y="-790.57" font-family="Helvetica,sans-Serif" font-size="10.00">rare.models.game.RareEos</text>
<text text-anchor="middle" x="921.5" y="-779.57" font-family="Helvetica,sans-Serif" font-size="10.00">Overlay.is_installed</text>
</a>
</g>
</g>
<!-- Node10&#45;&gt;Node16 -->
<g id="edge45" class="edge">
<title>Node10&#45;&gt;Node16</title>
<path fill="none" stroke="midnightblue" d="M499.14,-763.83C524.09,-782.65 569.88,-813.61 615,-825.57 701.35,-848.46 728.02,-841.07 816,-825.57 837.21,-821.83 859.78,-814.14 878.49,-806.64"/>
<polygon fill="midnightblue" stroke="midnightblue" points="879.99,-809.81 887.9,-802.76 877.32,-803.34 879.99,-809.81"/>
</g>
<!-- Node17 -->
<g id="node17" class="node">
<title>Node17</title>
<g id="a_node17"><a xlink:href="classrare_1_1models_1_1game__slim_1_1_rare_game_base.html#a823ab7286cb07208f430cc54252c82bb" target="_top" xlink:title=" ">
<polygon fill="white" stroke="black" points="852,-563.57 852,-593.57 991,-593.57 991,-563.57 852,-563.57"/>
<text text-anchor="start" x="860" y="-581.57" font-family="Helvetica,sans-Serif" font-size="10.00">rare.models.game_slim.Rare</text>
<text text-anchor="middle" x="921.5" y="-570.57" font-family="Helvetica,sans-Serif" font-size="10.00">GameBase.is_installed</text>
</a>
</g>
</g>
<!-- Node10&#45;&gt;Node17 -->
<g id="edge46" class="edge">
<title>Node10&#45;&gt;Node17</title>
<path fill="none" stroke="midnightblue" d="M485.14,-733.4C498.98,-695.3 541.08,-595.84 615,-557.57 697.01,-515.11 808.38,-539.94 871.51,-560.29"/>
<polygon fill="midnightblue" stroke="midnightblue" points="870.63,-563.68 881.22,-563.51 872.83,-557.04 870.63,-563.68"/>
</g>
<!-- Node18 -->
<g id="node18" class="node">
<title>Node18</title>
<g id="a_node18"><a xlink:href="classrare_1_1models_1_1game__slim_1_1_rare_game_slim.html#a823ab7286cb07208f430cc54252c82bb" target="_top" xlink:title=" ">
<polygon fill="white" stroke="black" points="852,-884.57 852,-914.57 991,-914.57 991,-884.57 852,-884.57"/>
<text text-anchor="start" x="860" y="-902.57" font-family="Helvetica,sans-Serif" font-size="10.00">rare.models.game_slim.Rare</text>
<text text-anchor="middle" x="921.5" y="-891.57" font-family="Helvetica,sans-Serif" font-size="10.00">GameSlim.is_installed</text>
</a>
</g>
</g>
<!-- Node10&#45;&gt;Node18 -->
<g id="edge47" class="edge">
<title>Node10&#45;&gt;Node18</title>
<path fill="none" stroke="midnightblue" d="M487.97,-763.59C505.76,-795.3 552.14,-868.45 615,-896.57 686.81,-928.69 777.96,-924.6 841.93,-915.47"/>
<polygon fill="midnightblue" stroke="midnightblue" points="842.59,-918.91 851.96,-913.97 841.55,-911.99 842.59,-918.91"/>
</g>
<!-- Node19 -->
<g id="node19" class="node">
<title>Node19</title>
<g id="a_node19"><a xlink:href="classrare_1_1models_1_1game__slim_1_1_rare_game_base.html#a281d1b65eeb74be3163e7f2c4cf4a90f" target="_top" xlink:title=" ">
<polygon fill="white" stroke="black" points="1033.5,-895.57 1033.5,-925.57 1172.5,-925.57 1172.5,-895.57 1033.5,-895.57"/>
<text text-anchor="start" x="1041.5" y="-913.57" font-family="Helvetica,sans-Serif" font-size="10.00">rare.models.game_slim.Rare</text>
<text text-anchor="middle" x="1103" y="-902.57" font-family="Helvetica,sans-Serif" font-size="10.00">GameBase.is_third_party</text>
</a>
</g>
</g>
<!-- Node10&#45;&gt;Node19 -->
<g id="edge48" class="edge">
<title>Node10&#45;&gt;Node19</title>
<path fill="none" stroke="midnightblue" d="M486.43,-763.61C502.31,-798.68 547.13,-885.71 615,-922.57 755.15,-998.69 953.08,-956.15 1047.62,-928.47"/>
<polygon fill="midnightblue" stroke="midnightblue" points="1048.68,-931.8 1057.26,-925.59 1046.67,-925.1 1048.68,-931.8"/>
</g>
<!-- Node20 -->
<g id="node20" class="node">
<title>Node20</title>
<g id="a_node20"><a xlink:href="classrare_1_1models_1_1game__slim_1_1_rare_game_base.html#a5c91214c9c0ce70e64033ac6a3494d76" target="_top" xlink:title=" ">
<polygon fill="white" stroke="black" points="646,-633.57 646,-663.57 785,-663.57 785,-633.57 646,-633.57"/>
<text text-anchor="start" x="654" y="-651.57" font-family="Helvetica,sans-Serif" font-size="10.00">rare.models.game_slim.Rare</text>
<text text-anchor="middle" x="715.5" y="-640.57" font-family="Helvetica,sans-Serif" font-size="10.00">GameBase.is_idle</text>
</a>
</g>
</g>
<!-- Node10&#45;&gt;Node20 -->
<g id="edge42" class="edge">
<title>Node10&#45;&gt;Node20</title>
<path fill="none" stroke="midnightblue" d="M515.36,-733.49C556.69,-715.86 625.14,-686.68 670.03,-667.53"/>
<polygon fill="midnightblue" stroke="midnightblue" points="671.41,-670.75 679.24,-663.61 668.66,-664.31 671.41,-670.75"/>
</g>
<!-- Node21 -->
<g id="node21" class="node">
<title>Node21</title>
<g id="a_node21"><a xlink:href="classrare_1_1models_1_1game_1_1_rare_game.html#a75a2e37cdbb1feeb806eb179a21fa568" target="_top" xlink:title="Property to report if a games requires to be verified.">
<polygon fill="white" stroke="black" points="630.5,-566.57 630.5,-596.57 800.5,-596.57 800.5,-566.57 630.5,-566.57"/>
<text text-anchor="start" x="638.5" y="-584.57" font-family="Helvetica,sans-Serif" font-size="10.00">rare.models.game.RareGame.needs</text>
<text text-anchor="middle" x="715.5" y="-573.57" font-family="Helvetica,sans-Serif" font-size="10.00">_verification</text>
</a>
</g>
</g>
<!-- Node10&#45;&gt;Node21 -->
<g id="edge49" class="edge">
<title>Node10&#45;&gt;Node21</title>
<path fill="none" stroke="midnightblue" d="M493.25,-733.46C516.05,-708.19 565.07,-656.95 615,-624.57 629.38,-615.24 646.13,-607.11 661.73,-600.5"/>
<polygon fill="midnightblue" stroke="midnightblue" points="663.35,-603.62 671.27,-596.58 660.69,-597.14 663.35,-603.62"/>
</g>
<!-- Node11&#45;&gt;Node11 -->
<g id="edge21" class="edge">
<title>Node11&#45;&gt;Node11</title>
<path fill="none" stroke="midnightblue" d="M679.6,-797.73C670.94,-807.13 682.91,-816.07 715.5,-816.07 735.36,-816.07 747.56,-812.75 752.1,-808.03"/>
<polygon fill="midnightblue" stroke="midnightblue" points="755.57,-807.47 751.4,-797.73 748.59,-807.94 755.57,-807.47"/>
</g>
<!-- Node12&#45;&gt;Node3 -->
<g id="edge23" class="edge">
<title>Node12&#45;&gt;Node3</title>
<path fill="none" stroke="midnightblue" d="M791.78,-706.87C800.76,-703.24 809.15,-698.28 816,-691.57 860.97,-647.51 817.73,-607.38 852,-554.57 860.63,-541.26 873.56,-529.69 885.86,-520.64"/>
<polygon fill="midnightblue" stroke="midnightblue" points="888.04,-523.39 894.22,-514.79 884.02,-517.66 888.04,-523.39"/>
</g>
<!-- Node12&#45;&gt;Node4 -->
<g id="edge41" class="edge">
<title>Node12&#45;&gt;Node4</title>
<path fill="none" stroke="midnightblue" d="M791.52,-701.64C849.79,-688.17 930.57,-663.49 991,-621.57 1030.53,-594.15 1065.98,-550.17 1085.68,-523.18"/>
<polygon fill="midnightblue" stroke="midnightblue" points="1088.76,-524.89 1091.74,-514.73 1083.07,-520.82 1088.76,-524.89"/>
</g>
<!-- Node12&#45;&gt;Node12 -->
<g id="edge24" class="edge">
<title>Node12&#45;&gt;Node12</title>
<path fill="none" stroke="midnightblue" d="M679.6,-730.73C670.94,-740.13 682.91,-749.07 715.5,-749.07 735.36,-749.07 747.56,-745.75 752.1,-741.03"/>
<polygon fill="midnightblue" stroke="midnightblue" points="755.57,-740.47 751.4,-730.73 748.59,-740.94 755.57,-740.47"/>
</g>
<!-- Node12&#45;&gt;Node13 -->
<g id="edge25" class="edge">
<title>Node12&#45;&gt;Node13</title>
<path fill="none" stroke="midnightblue" d="M791.58,-719.58C848.25,-724.75 926.91,-736.56 991,-763.57 1024.39,-777.64 1057.39,-803.34 1078.62,-821.82"/>
<polygon fill="midnightblue" stroke="midnightblue" points="1076.35,-824.48 1086.15,-828.51 1081,-819.25 1076.35,-824.48"/>
</g>
<!-- Node12&#45;&gt;Node16 -->
<g id="edge31" class="edge">
<title>Node12&#45;&gt;Node16</title>
<path fill="none" stroke="midnightblue" d="M759.27,-730.66C790.95,-741.85 834.32,-757.15 868.09,-769.07"/>
<polygon fill="midnightblue" stroke="midnightblue" points="867.2,-772.47 877.79,-772.5 869.53,-765.87 867.2,-772.47"/>
</g>
<!-- Node12&#45;&gt;Node17 -->
<g id="edge33" class="edge">
<title>Node12&#45;&gt;Node17</title>
<path fill="none" stroke="midnightblue" d="M791.6,-704.26C800.29,-701.03 808.66,-696.88 816,-691.57 840.59,-673.79 831.88,-656.28 852,-633.57 863.01,-621.14 877.04,-609.33 889.54,-599.87"/>
<polygon fill="midnightblue" stroke="midnightblue" points="891.92,-602.47 897.89,-593.71 887.76,-596.83 891.92,-602.47"/>
</g>
<!-- Node12&#45;&gt;Node18 -->
<g id="edge35" class="edge">
<title>Node12&#45;&gt;Node18</title>
<path fill="none" stroke="midnightblue" d="M769.65,-730.62C785.96,-737.2 803.01,-746.28 816,-758.57 841.99,-783.15 831.13,-801.51 852,-830.57 864.34,-847.76 881.03,-864.67 894.84,-877.44"/>
<polygon fill="midnightblue" stroke="midnightblue" points="892.83,-880.34 902.59,-884.45 897.53,-875.15 892.83,-880.34"/>
</g>
<!-- Node13&#45;&gt;Node13 -->
<g id="edge26" class="edge">
<title>Node13&#45;&gt;Node13</title>
<path fill="none" stroke="midnightblue" d="M1071.63,-858.73C1064.07,-868.13 1074.52,-877.07 1103,-877.07 1120.35,-877.07 1131.01,-873.75 1134.98,-869.03"/>
<polygon fill="midnightblue" stroke="midnightblue" points="1138.46,-868.5 1134.37,-858.73 1131.47,-868.92 1138.46,-868.5"/>
</g>
<!-- Node14 -->
<g id="node14" class="node">
<title>Node14</title>
<g id="a_node14"><a xlink:href="classrare_1_1models_1_1game__slim_1_1_rare_game_base.html#a278563422a00c7eb39dfc65d0b71f51a" target="_top" xlink:title=" ">
<polygon fill="white" stroke="black" points="1215,-828.57 1215,-858.57 1354,-858.57 1354,-828.57 1215,-828.57"/>
<text text-anchor="start" x="1223" y="-846.57" font-family="Helvetica,sans-Serif" font-size="10.00">rare.models.game_slim.Rare</text>
<text text-anchor="middle" x="1284.5" y="-835.57" font-family="Helvetica,sans-Serif" font-size="10.00">GameBase.is_origin</text>
</a>
</g>
</g>
<!-- Node13&#45;&gt;Node14 -->
<g id="edge27" class="edge">
<title>Node13&#45;&gt;Node14</title>
<path fill="none" stroke="midnightblue" d="M1179.08,-843.57C1187.48,-843.57 1196.06,-843.57 1204.51,-843.57"/>
<polygon fill="midnightblue" stroke="midnightblue" points="1204.73,-847.07 1214.73,-843.57 1204.73,-840.07 1204.73,-847.07"/>
</g>
<!-- Node15 -->
<g id="node15" class="node">
<title>Node15</title>
<g id="a_node15"><a xlink:href="classrare_1_1models_1_1game__slim_1_1_rare_game_base.html#acd0b13e14a42884135db535b9d575942" target="_top" xlink:title=" ">
<polygon fill="white" stroke="black" points="1215,-895.57 1215,-925.57 1354,-925.57 1354,-895.57 1215,-895.57"/>
<text text-anchor="start" x="1223" y="-913.57" font-family="Helvetica,sans-Serif" font-size="10.00">rare.models.game_slim.Rare</text>
<text text-anchor="middle" x="1284.5" y="-902.57" font-family="Helvetica,sans-Serif" font-size="10.00">GameBase.is_ubisoft</text>
</a>
</g>
</g>
<!-- Node13&#45;&gt;Node15 -->
<g id="edge29" class="edge">
<title>Node13&#45;&gt;Node15</title>
<path fill="none" stroke="midnightblue" d="M1141.9,-858.6C1163.3,-867 1190.57,-877.56 1215,-886.57 1219.9,-888.38 1225.01,-890.23 1230.13,-892.06"/>
<polygon fill="midnightblue" stroke="midnightblue" points="1229.34,-895.5 1239.94,-895.55 1231.69,-888.9 1229.34,-895.5"/>
</g>
<!-- Node14&#45;&gt;Node14 -->
<g id="edge28" class="edge">
<title>Node14&#45;&gt;Node14</title>
<path fill="none" stroke="midnightblue" d="M1253.13,-858.73C1245.57,-868.13 1256.02,-877.07 1284.5,-877.07 1301.85,-877.07 1312.51,-873.75 1316.48,-869.03"/>
<polygon fill="midnightblue" stroke="midnightblue" points="1319.96,-868.5 1315.87,-858.73 1312.97,-868.92 1319.96,-868.5"/>
</g>
<!-- Node15&#45;&gt;Node15 -->
<g id="edge30" class="edge">
<title>Node15&#45;&gt;Node15</title>
<path fill="none" stroke="midnightblue" d="M1253.13,-925.73C1245.57,-935.13 1256.02,-944.07 1284.5,-944.07 1301.85,-944.07 1312.51,-940.75 1316.48,-936.03"/>
<polygon fill="midnightblue" stroke="midnightblue" points="1319.96,-935.5 1315.87,-925.73 1312.97,-935.92 1319.96,-935.5"/>
</g>
<!-- Node16&#45;&gt;Node16 -->
<g id="edge32" class="edge">
<title>Node16&#45;&gt;Node16</title>
<path fill="none" stroke="midnightblue" d="M890.13,-802.73C882.57,-812.13 893.02,-821.07 921.5,-821.07 938.85,-821.07 949.51,-817.75 953.48,-813.03"/>
<polygon fill="midnightblue" stroke="midnightblue" points="956.96,-812.5 952.87,-802.73 949.97,-812.92 956.96,-812.5"/>
</g>
<!-- Node17&#45;&gt;Node17 -->
<g id="edge34" class="edge">
<title>Node17&#45;&gt;Node17</title>
<path fill="none" stroke="midnightblue" d="M890.13,-593.73C882.57,-603.13 893.02,-612.07 921.5,-612.07 938.85,-612.07 949.51,-608.75 953.48,-604.03"/>
<polygon fill="midnightblue" stroke="midnightblue" points="956.96,-603.5 952.87,-593.73 949.97,-603.92 956.96,-603.5"/>
</g>
<!-- Node18&#45;&gt;Node18 -->
<g id="edge36" class="edge">
<title>Node18&#45;&gt;Node18</title>
<path fill="none" stroke="midnightblue" d="M890.13,-914.73C882.57,-924.13 893.02,-933.07 921.5,-933.07 938.85,-933.07 949.51,-929.75 953.48,-925.03"/>
<polygon fill="midnightblue" stroke="midnightblue" points="956.96,-924.5 952.87,-914.73 949.97,-924.92 956.96,-924.5"/>
</g>
<!-- Node18&#45;&gt;Node19 -->
<g id="edge37" class="edge">
<title>Node18&#45;&gt;Node19</title>
<path fill="none" stroke="midnightblue" d="M991.13,-903.77C1001.63,-904.42 1012.54,-905.09 1023.24,-905.74"/>
<polygon fill="midnightblue" stroke="midnightblue" points="1023.21,-909.25 1033.41,-906.37 1023.64,-902.26 1023.21,-909.25"/>
</g>
<!-- Node19&#45;&gt;Node14 -->
<g id="edge38" class="edge">
<title>Node19&#45;&gt;Node14</title>
<path fill="none" stroke="midnightblue" d="M1153.01,-895.51C1161.71,-892.66 1170.65,-889.62 1179,-886.57 1199.09,-879.24 1221.01,-870.35 1239.57,-862.57"/>
<polygon fill="midnightblue" stroke="midnightblue" points="1241.09,-865.72 1248.94,-858.61 1238.37,-859.28 1241.09,-865.72"/>
</g>
<!-- Node19&#45;&gt;Node15 -->
<g id="edge40" class="edge">
<title>Node19&#45;&gt;Node15</title>
<path fill="none" stroke="midnightblue" d="M1172.63,-910.57C1183.13,-910.57 1194.04,-910.57 1204.74,-910.57"/>
<polygon fill="midnightblue" stroke="midnightblue" points="1204.91,-914.07 1214.91,-910.57 1204.91,-907.07 1204.91,-914.07"/>
</g>
<!-- Node19&#45;&gt;Node19 -->
<g id="edge39" class="edge">
<title>Node19&#45;&gt;Node19</title>
<path fill="none" stroke="midnightblue" d="M1071.63,-925.73C1064.07,-935.13 1074.52,-944.07 1103,-944.07 1120.35,-944.07 1131.01,-940.75 1134.98,-936.03"/>
<polygon fill="midnightblue" stroke="midnightblue" points="1138.46,-935.5 1134.37,-925.73 1131.47,-935.92 1138.46,-935.5"/>
</g>
<!-- Node20&#45;&gt;Node20 -->
<g id="edge43" class="edge">
<title>Node20&#45;&gt;Node20</title>
<path fill="none" stroke="midnightblue" d="M679.6,-663.73C670.94,-673.13 682.91,-682.07 715.5,-682.07 735.36,-682.07 747.56,-678.75 752.1,-674.03"/>
<polygon fill="midnightblue" stroke="midnightblue" points="755.57,-673.47 751.4,-663.73 748.59,-673.94 755.57,-673.47"/>
</g>
<!-- Node21&#45;&gt;Node21 -->
<g id="edge50" class="edge">
<title>Node21&#45;&gt;Node21</title>
<path fill="none" stroke="midnightblue" d="M679.6,-596.73C670.94,-606.13 682.91,-615.07 715.5,-615.07 735.36,-615.07 747.56,-611.75 752.1,-607.03"/>
<polygon fill="midnightblue" stroke="midnightblue" points="755.57,-606.47 751.4,-596.73 748.59,-606.94 755.57,-606.47"/>
</g>
<!-- Node22&#45;&gt;Node22 -->
<g id="edge52" class="edge">
<title>Node22&#45;&gt;Node22</title>
<path fill="none" stroke="midnightblue" d="M440.31,-145.73C430.98,-155.13 443.88,-164.07 479,-164.07 500.4,-164.07 513.55,-160.75 518.45,-156.03"/>
<polygon fill="midnightblue" stroke="midnightblue" points="521.91,-155.44 517.69,-145.73 514.93,-155.96 521.91,-155.44"/>
</g>
<!-- Node23 -->
<g id="node23" class="node">
<title>Node23</title>
<g id="a_node23"><a xlink:href="namespacerare_1_1utils_1_1paths.html#a1eb8fcf1882e8fd3a8bdd2d76bb9c44f" target="_top" xlink:title=" ">
<polygon fill="white" stroke="black" points="661,-115.57 661,-145.57 770,-145.57 770,-115.57 661,-115.57"/>
<text text-anchor="start" x="669" y="-133.57" font-family="Helvetica,sans-Serif" font-size="10.00">rare.utils.paths.proton</text>
<text text-anchor="middle" x="715.5" y="-122.57" font-family="Helvetica,sans-Serif" font-size="10.00">_compat_dir</text>
</a>
</g>
</g>
<!-- Node22&#45;&gt;Node23 -->
<g id="edge53" class="edge">
<title>Node22&#45;&gt;Node23</title>
<path fill="none" stroke="midnightblue" d="M536.17,-130.57C570.58,-130.57 614.72,-130.57 650.48,-130.57"/>
<polygon fill="midnightblue" stroke="midnightblue" points="650.81,-134.07 660.81,-130.57 650.81,-127.07 650.81,-134.07"/>
</g>
<!-- Node23&#45;&gt;Node23 -->
<g id="edge56" class="edge">
<title>Node23&#45;&gt;Node23</title>
<path fill="none" stroke="midnightblue" d="M679.6,-145.73C670.94,-155.13 682.91,-164.07 715.5,-164.07 735.36,-164.07 747.56,-160.75 752.1,-156.03"/>
<polygon fill="midnightblue" stroke="midnightblue" points="755.57,-155.47 751.4,-145.73 748.59,-155.94 755.57,-155.47"/>
</g>
<!-- Node24 -->
<g id="node24" class="node">
<title>Node24</title>
<g id="a_node24"><a xlink:href="namespacerare_1_1utils_1_1paths.html#aa160c55be4d6aad43da3d35e8a1dc97b" target="_top" xlink:title=" ">
<polygon fill="white" stroke="black" points="863.5,-121.07 863.5,-140.07 979.5,-140.07 979.5,-121.07 863.5,-121.07"/>
<text text-anchor="middle" x="921.5" y="-128.07" font-family="Helvetica,sans-Serif" font-size="10.00">rare.utils.paths.data_dir</text>
</a>
</g>
</g>
<!-- Node23&#45;&gt;Node24 -->
<g id="edge54" class="edge">
<title>Node23&#45;&gt;Node24</title>
<path fill="none" stroke="midnightblue" d="M770.1,-130.57C795.54,-130.57 826.2,-130.57 853.19,-130.57"/>
<polygon fill="midnightblue" stroke="midnightblue" points="853.33,-134.07 863.33,-130.57 853.33,-127.07 853.33,-134.07"/>
</g>
<!-- Node24&#45;&gt;Node24 -->
<g id="edge55" class="edge">
<title>Node24&#45;&gt;Node24</title>
<path fill="none" stroke="midnightblue" d="M893.76,-140.33C880.26,-149.13 889.51,-158.57 921.5,-158.57 943.49,-158.57 954.74,-154.11 955.23,-148.46"/>
<polygon fill="midnightblue" stroke="midnightblue" points="957.99,-146.3 949.24,-140.33 952.35,-150.45 957.99,-146.3"/>
</g>
<!-- Node25&#45;&gt;Node25 -->
<g id="edge67" class="edge">
<title>Node25&#45;&gt;Node25</title>
<path fill="none" stroke="midnightblue" d="M445.06,-315.18C428.01,-324.03 439.33,-333.57 479,-333.57 508.14,-333.57 521.98,-328.42 520.52,-322.19"/>
<polygon fill="midnightblue" stroke="midnightblue" points="522.66,-319.4 512.94,-315.18 517.91,-324.54 522.66,-319.4"/>
</g>
<!-- Node26 -->
<g id="node26" class="node">
<title>Node26</title>
<g id="a_node26"><a xlink:href="classrare_1_1components_1_1tabs_1_1integrations_1_1egl__sync__group_1_1_e_g_l_sync_list_item.html#ae1cd35b1295fa44fd6906c1bcf28fd20" target="_top" xlink:title=" ">
<polygon fill="white" stroke="black" points="620.5,-221.57 620.5,-251.57 810.5,-251.57 810.5,-221.57 620.5,-221.57"/>
<text text-anchor="start" x="628.5" y="-239.57" font-family="Helvetica,sans-Serif" font-size="10.00">rare.components.tabs.integrations.egl</text>
<text text-anchor="middle" x="715.5" y="-228.57" font-family="Helvetica,sans-Serif" font-size="10.00">_sync_group.EGLSyncListItem.app_title</text>
</a>
</g>
</g>
<!-- Node25&#45;&gt;Node26 -->
<g id="edge58" class="edge">
<title>Node25&#45;&gt;Node26</title>
<path fill="none" stroke="midnightblue" d="M512.61,-295.97C548.95,-285.28 608.53,-267.75 653.57,-254.5"/>
<polygon fill="midnightblue" stroke="midnightblue" points="654.63,-257.83 663.24,-251.65 652.66,-251.12 654.63,-257.83"/>
</g>
<!-- Node27 -->
<g id="node27" class="node">
<title>Node27</title>
<g id="a_node27"><a xlink:href="classrare_1_1components_1_1tabs_1_1integrations_1_1egl__sync__group_1_1_e_g_l_sync_export_item.html#ae1cd35b1295fa44fd6906c1bcf28fd20" target="_top" xlink:title=" ">
<polygon fill="white" stroke="black" points="615.5,-355.57 615.5,-385.57 815.5,-385.57 815.5,-355.57 615.5,-355.57"/>
<text text-anchor="start" x="623.5" y="-373.57" font-family="Helvetica,sans-Serif" font-size="10.00">rare.components.tabs.integrations.egl</text>
<text text-anchor="middle" x="715.5" y="-362.57" font-family="Helvetica,sans-Serif" font-size="10.00">_sync_group.EGLSyncExportItem.app_title</text>
</a>
</g>
</g>
<!-- Node25&#45;&gt;Node27 -->
<g id="edge60" class="edge">
<title>Node25&#45;&gt;Node27</title>
<path fill="none" stroke="midnightblue" d="M510.73,-315.07C538.02,-323.42 579.04,-335.73 615,-345.57 624.12,-348.06 633.73,-350.6 643.24,-353.05"/>
<polygon fill="midnightblue" stroke="midnightblue" points="642.53,-356.48 653.09,-355.57 644.27,-349.7 642.53,-356.48"/>
</g>
<!-- Node28 -->
<g id="node28" class="node">
<title>Node28</title>
<g id="a_node28"><a xlink:href="classrare_1_1components_1_1tabs_1_1integrations_1_1egl__sync__group_1_1_e_g_l_sync_import_item.html#ae1cd35b1295fa44fd6906c1bcf28fd20" target="_top" xlink:title=" ">
<polygon fill="white" stroke="black" points="615,-422.57 615,-452.57 816,-452.57 816,-422.57 615,-422.57"/>
<text text-anchor="start" x="623" y="-440.57" font-family="Helvetica,sans-Serif" font-size="10.00">rare.components.tabs.integrations.egl</text>
<text text-anchor="middle" x="715.5" y="-429.57" font-family="Helvetica,sans-Serif" font-size="10.00">_sync_group.EGLSyncImportItem.app_title</text>
</a>
</g>
</g>
<!-- Node25&#45;&gt;Node28 -->
<g id="edge62" class="edge">
<title>Node25&#45;&gt;Node28</title>
<path fill="none" stroke="midnightblue" d="M525.91,-315.09C544.07,-320.68 564.12,-329.34 579,-342.57 605.15,-365.81 587.6,-390.82 615,-412.57 617.29,-414.39 619.69,-416.07 622.19,-417.64"/>
<polygon fill="midnightblue" stroke="midnightblue" points="620.54,-420.73 630.99,-422.51 623.93,-414.6 620.54,-420.73"/>
</g>
<!-- Node29 -->
<g id="node29" class="node">
<title>Node29</title>
<g id="a_node29"><a xlink:href="classrare_1_1models_1_1game__slim_1_1_rare_game_base.html#ae1cd35b1295fa44fd6906c1bcf28fd20" target="_top" xlink:title=" ">
<polygon fill="white" stroke="black" points="646,-288.57 646,-318.57 785,-318.57 785,-288.57 646,-288.57"/>
<text text-anchor="start" x="654" y="-306.57" font-family="Helvetica,sans-Serif" font-size="10.00">rare.models.game_slim.Rare</text>
<text text-anchor="middle" x="715.5" y="-295.57" font-family="Helvetica,sans-Serif" font-size="10.00">GameBase.app_title</text>
</a>
</g>
</g>
<!-- Node25&#45;&gt;Node29 -->
<g id="edge65" class="edge">
<title>Node25&#45;&gt;Node29</title>
<path fill="none" stroke="midnightblue" d="M577.75,-304.74C597.05,-304.57 617.07,-304.4 635.65,-304.24"/>
<polygon fill="midnightblue" stroke="midnightblue" points="635.84,-307.74 645.81,-304.15 635.78,-300.74 635.84,-307.74"/>
</g>
<!-- Node26&#45;&gt;Node26 -->
<g id="edge59" class="edge">
<title>Node26&#45;&gt;Node26</title>
<path fill="none" stroke="midnightblue" d="M679.6,-251.73C670.94,-261.13 682.91,-270.07 715.5,-270.07 735.36,-270.07 747.56,-266.75 752.1,-262.03"/>
<polygon fill="midnightblue" stroke="midnightblue" points="755.57,-261.47 751.4,-251.73 748.59,-261.94 755.57,-261.47"/>
</g>
<!-- Node27&#45;&gt;Node27 -->
<g id="edge61" class="edge">
<title>Node27&#45;&gt;Node27</title>
<path fill="none" stroke="midnightblue" d="M679.6,-385.73C670.94,-395.13 682.91,-404.07 715.5,-404.07 735.36,-404.07 747.56,-400.75 752.1,-396.03"/>
<polygon fill="midnightblue" stroke="midnightblue" points="755.57,-395.47 751.4,-385.73 748.59,-395.94 755.57,-395.47"/>
</g>
<!-- Node28&#45;&gt;Node3 -->
<g id="edge64" class="edge">
<title>Node28&#45;&gt;Node3</title>
<path fill="none" stroke="midnightblue" d="M765.88,-452.58C794.61,-461.31 831.01,-472.37 861.27,-481.57"/>
<polygon fill="midnightblue" stroke="midnightblue" points="860.28,-484.92 870.86,-484.48 862.31,-478.23 860.28,-484.92"/>
</g>
<!-- Node28&#45;&gt;Node28 -->
<g id="edge63" class="edge">
<title>Node28&#45;&gt;Node28</title>
<path fill="none" stroke="midnightblue" d="M679.6,-452.73C670.94,-462.13 682.91,-471.07 715.5,-471.07 735.36,-471.07 747.56,-467.75 752.1,-463.03"/>
<polygon fill="midnightblue" stroke="midnightblue" points="755.57,-462.47 751.4,-452.73 748.59,-462.94 755.57,-462.47"/>
</g>
<!-- Node29&#45;&gt;Node29 -->
<g id="edge66" class="edge">
<title>Node29&#45;&gt;Node29</title>
<path fill="none" stroke="midnightblue" d="M679.6,-318.73C670.94,-328.13 682.91,-337.07 715.5,-337.07 735.36,-337.07 747.56,-333.75 752.1,-329.03"/>
<polygon fill="midnightblue" stroke="midnightblue" points="755.57,-328.47 751.4,-318.73 748.59,-328.94 755.57,-328.47"/>
</g>
<!-- Node30&#45;&gt;Node30 -->
<g id="edge69" class="edge">
<title>Node30&#45;&gt;Node30</title>
<path fill="none" stroke="midnightblue" d="M440.31,-382.73C430.98,-392.13 443.88,-401.07 479,-401.07 500.4,-401.07 513.55,-397.75 518.45,-393.03"/>
<polygon fill="midnightblue" stroke="midnightblue" points="521.91,-392.44 517.69,-382.73 514.93,-392.96 521.91,-392.44"/>
</g>
</g>
</svg>
