<?xml version="1.0" encoding="UTF-8" standalone="no"?>
<!DOCTYPE svg PUBLIC "-//W3C//DTD SVG 1.1//EN"
 "http://www.w3.org/Graphics/SVG/1.1/DTD/svg11.dtd">
<!-- Generated by graphviz version 2.49.3 (20211027.1534)
 -->
<!-- Title: logout Pages: 1 -->
<svg width="219pt" height="258pt"
 viewBox="0.00 0.00 218.63 258.00" xmlns="http://www.w3.org/2000/svg" xmlns:xlink="http://www.w3.org/1999/xlink">
<g id="graph0" class="graph" transform="scale(1 1) rotate(0) translate(4 254)">
<title>logout</title>
<polygon fill="white" stroke="transparent" points="-4,4 -4,-254 214.63,-254 214.63,4 -4,4"/>
<!-- Node1 -->
<g id="node1" class="node">
<title>Node1</title>
<g id="a_node1"><a xlink:title=" ">
<polygon fill="#bfbfbf" stroke="black" points="1.63,-106 1.63,-125 44.63,-125 44.63,-106 1.63,-106"/>
<text text-anchor="middle" x="23.13" y="-113" font-family="Helvetica,sans-Serif" font-size="10.00">logout</text>
</a>
</g>
</g>
<!-- Node1&#45;&gt;Node1 -->
<g id="edge3" class="edge">
<title>Node1&#45;&gt;Node1</title>
<path fill="none" stroke="midnightblue" d="M4.33,-125.26C-4.82,-134.07 1.45,-143.5 23.13,-143.5 37.03,-143.5 44.59,-139.63 45.83,-134.53"/>
<polygon fill="midnightblue" stroke="midnightblue" points="49.03,-133.12 41.94,-125.26 42.58,-135.83 49.03,-133.12"/>
</g>
<!-- Node2 -->
<g id="node2" class="node">
<title>Node2</title>
<g id="a_node2"><a xlink:href="classrare_1_1shared_1_1rare__core_1_1_rare_core.html#a405e1a4f20f16120f872ccd2654a1d56" target="_top" xlink:title=" ">
<polygon fill="white" stroke="black" points="80.63,-201.5 80.63,-231.5 210.63,-231.5 210.63,-201.5 80.63,-201.5"/>
<text text-anchor="start" x="88.63" y="-219.5" font-family="Helvetica,sans-Serif" font-size="10.00">rare.shared.rare_core.Rare</text>
<text text-anchor="middle" x="145.63" y="-208.5" font-family="Helvetica,sans-Serif" font-size="10.00">Core.core</text>
</a>
</g>
</g>
<!-- Node1&#45;&gt;Node2 -->
<g id="edge1" class="edge">
<title>Node1&#45;&gt;Node2</title>
<path fill="none" stroke="midnightblue" d="M28.85,-125.19C37.16,-141.32 55.92,-173.78 80.63,-192.5 82.44,-193.87 84.33,-195.17 86.29,-196.4"/>
<polygon fill="midnightblue" stroke="midnightblue" points="84.76,-199.55 95.2,-201.36 88.17,-193.44 84.76,-199.55"/>
</g>
<!-- Node3 -->
<g id="node3" class="node">
<title>Node3</title>
<g id="a_node3"><a xlink:href="classrare_1_1utils_1_1json__formatter_1_1_q_json_tree_item.html#a35061dd226fbf32b76578ca1f0759ce1" target="_top" xlink:title=" ">
<polygon fill="white" stroke="black" points="85.63,-134.5 85.63,-164.5 205.63,-164.5 205.63,-134.5 85.63,-134.5"/>
<text text-anchor="start" x="93.63" y="-152.5" font-family="Helvetica,sans-Serif" font-size="10.00">rare.utils.json_formatter.</text>
<text text-anchor="middle" x="145.63" y="-141.5" font-family="Helvetica,sans-Serif" font-size="10.00">QJsonTreeItem.parent</text>
</a>
</g>
</g>
<!-- Node1&#45;&gt;Node3 -->
<g id="edge4" class="edge">
<title>Node1&#45;&gt;Node3</title>
<path fill="none" stroke="midnightblue" d="M44.85,-121.34C55.19,-124.26 68.32,-127.97 81.62,-131.72"/>
<polygon fill="midnightblue" stroke="midnightblue" points="80.73,-135.11 91.3,-134.45 82.63,-128.37 80.73,-135.11"/>
</g>
<!-- Node4 -->
<g id="node4" class="node">
<title>Node4</title>
<g id="a_node4"><a xlink:href="classrare_1_1utils_1_1json__formatter_1_1_q_json_model.html#acbb44b417d59fdabb258afc05df6e499" target="_top" xlink:title=" ">
<polygon fill="white" stroke="black" points="85.63,-67.5 85.63,-97.5 205.63,-97.5 205.63,-67.5 85.63,-67.5"/>
<text text-anchor="start" x="93.63" y="-85.5" font-family="Helvetica,sans-Serif" font-size="10.00">rare.utils.json_formatter.</text>
<text text-anchor="middle" x="145.63" y="-74.5" font-family="Helvetica,sans-Serif" font-size="10.00">QJsonModel.parent</text>
</a>
</g>
</g>
<!-- Node1&#45;&gt;Node4 -->
<g id="edge6" class="edge">
<title>Node1&#45;&gt;Node4</title>
<path fill="none" stroke="midnightblue" d="M44.85,-109.83C54.77,-107.11 67.25,-103.69 79.99,-100.2"/>
<polygon fill="midnightblue" stroke="midnightblue" points="81.03,-103.55 89.75,-97.53 79.18,-96.8 81.03,-103.55"/>
</g>
<!-- Node5 -->
<g id="node5" class="node">
<title>Node5</title>
<g id="a_node5"><a xlink:href="classrare_1_1shared_1_1rare__core_1_1_rare_core.html#a135560fc58fcc2e5cff07ec25c23a06c" target="_top" xlink:title=" ">
<polygon fill="white" stroke="black" points="80.63,-0.5 80.63,-30.5 210.63,-30.5 210.63,-0.5 80.63,-0.5"/>
<text text-anchor="start" x="88.63" y="-18.5" font-family="Helvetica,sans-Serif" font-size="10.00">rare.shared.rare_core.Rare</text>
<text text-anchor="middle" x="145.63" y="-7.5" font-family="Helvetica,sans-Serif" font-size="10.00">Core.signals</text>
</a>
</g>
</g>
<!-- Node1&#45;&gt;Node5 -->
<g id="edge8" class="edge">
<title>Node1&#45;&gt;Node5</title>
<path fill="none" stroke="midnightblue" d="M32.8,-105.63C43.45,-93.77 62.38,-73.59 80.63,-58.5 90.13,-50.65 101.07,-42.89 111.19,-36.16"/>
<polygon fill="midnightblue" stroke="midnightblue" points="113.35,-38.94 119.81,-30.54 109.52,-33.07 113.35,-38.94"/>
</g>
<!-- Node2&#45;&gt;Node2 -->
<g id="edge2" class="edge">
<title>Node2&#45;&gt;Node2</title>
<path fill="none" stroke="midnightblue" d="M124.37,-231.66C119.25,-241.06 126.33,-250 145.63,-250 157.4,-250 164.62,-246.68 167.31,-241.96"/>
<polygon fill="midnightblue" stroke="midnightblue" points="170.8,-241.51 166.9,-231.66 163.8,-241.79 170.8,-241.51"/>
</g>
<!-- Node3&#45;&gt;Node3 -->
<g id="edge5" class="edge">
<title>Node3&#45;&gt;Node3</title>
<path fill="none" stroke="midnightblue" d="M124.37,-164.66C119.25,-174.06 126.33,-183 145.63,-183 157.4,-183 164.62,-179.68 167.31,-174.96"/>
<polygon fill="midnightblue" stroke="midnightblue" points="170.8,-174.51 166.9,-164.66 163.8,-174.79 170.8,-174.51"/>
</g>
<!-- Node4&#45;&gt;Node4 -->
<g id="edge7" class="edge">
<title>Node4&#45;&gt;Node4</title>
<path fill="none" stroke="midnightblue" d="M124.37,-97.66C119.25,-107.06 126.33,-116 145.63,-116 157.4,-116 164.62,-112.68 167.31,-107.96"/>
<polygon fill="midnightblue" stroke="midnightblue" points="170.8,-107.51 166.9,-97.66 163.8,-107.79 170.8,-107.51"/>
</g>
<!-- Node5&#45;&gt;Node5 -->
<g id="edge9" class="edge">
<title>Node5&#45;&gt;Node5</title>
<path fill="none" stroke="midnightblue" d="M124.37,-30.66C119.25,-40.06 126.33,-49 145.63,-49 157.4,-49 164.62,-45.68 167.31,-40.96"/>
<polygon fill="midnightblue" stroke="midnightblue" points="170.8,-40.51 166.9,-30.66 163.8,-40.79 170.8,-40.51"/>
</g>
</g>
</svg>
