<?xml version="1.0" encoding="UTF-8" standalone="no"?>
<!DOCTYPE svg PUBLIC "-//W3C//DTD SVG 1.1//EN"
 "http://www.w3.org/Graphics/SVG/1.1/DTD/svg11.dtd">
<!-- Generated by graphviz version 2.49.3 (20211027.1534)
 -->
<!-- Title: worker_finished Pages: 1 -->
<!--zoomable 409 -->
<svg id="main" version="1.1" xmlns="http://www.w3.org/2000/svg" xmlns:xlink="http://www.w3.org/1999/xlink" xml:space="preserve" onload="init(evt)">
<style type="text/css"><![CDATA[
.edge:hover path { stroke: red; }
.edge:hover polygon { stroke: red; fill: red; }
]]></style>
<script type="text/javascript"><![CDATA[
var edges = document.getElementsByTagName('g');
if (edges && edges.length) {
  for (var i=0;i<edges.length;i++) {
    if (edges[i].id.substr(0,4)=='edge') {
      edges[i].setAttribute('class','edge');
    }
  }
}
]]></script>
        <defs>
                <circle id="rim" cx="0" cy="0" r="7"/>
                <circle id="rim2" cx="0" cy="0" r="3.5"/>
                <g id="zoomPlus">
                        <use xlink:href="#rim" fill="#404040">
                                <set attributeName="fill" to="#808080" begin="zoomplus.mouseover" end="zoomplus.mouseout"/>
                        </use>
                        <path d="M-4,0h8M0,-4v8" fill="none" stroke="white" stroke-width="1.5" pointer-events="none"/>
                </g>
                <g id="zoomMin">
                        <use xlink:href="#rim" fill="#404040">
                                <set attributeName="fill" to="#808080" begin="zoomminus.mouseover" end="zoomminus.mouseout"/>
                        </use>
                        <path d="M-4,0h8" fill="none" stroke="white" stroke-width="1.5" pointer-events="none"/>
                </g>
                <g id="dirArrow">
                        <path fill="none" stroke="white" stroke-width="1.5" d="M0,-3.0v7 M-2.5,-0.5L0,-3.0L2.5,-0.5"/>
                </g>
               <g id="resetDef">
                       <use xlink:href="#rim2" fill="#404040">
                               <set attributeName="fill" to="#808080" begin="reset.mouseover" end="reset.mouseout"/>
                       </use>
               </g>
        </defs>

<script type="text/javascript">
var viewWidth = 2159;
var viewHeight = 409;
var sectionId = 'dynsection-7';
</script>
<script xlink:href="svgpan.js"/>
<svg id="graph" class="graph">
<g id="viewport">
<title>worker_finished</title>
<polygon fill="white" stroke="transparent" points="-4,4 -4,-405 2155,-405 2155,4 -4,4"/>
<!-- Node1 -->
<g id="node1" class="node">
<title>Node1</title>
<g id="a_node1"><a xlink:title=" ">
<polygon fill="#bfbfbf" stroke="black" points="2067,-183.5 2067,-202.5 2151,-202.5 2151,-183.5 2067,-183.5"/>
<text text-anchor="middle" x="2109" y="-190.5" font-family="Helvetica,sans-Serif" font-size="10.00">worker_finished</text>
</a>
</g>
</g>
<!-- Node1&#45;&gt;Node1 -->
<g id="edge43" class="edge">
<title>Node1&#45;&gt;Node1</title>
<path fill="none" stroke="midnightblue" d="M2143.11,-210.89C2142.61,-216.54 2131.24,-221 2109,-221 2076.65,-221 2067.3,-211.57 2080.95,-202.76"/>
<polygon fill="midnightblue" stroke="midnightblue" points="2145.83,-208.69 2137.05,-202.76 2140.22,-212.87 2145.83,-208.69"/>
</g>
<!-- Node2 -->
<g id="node2" class="node">
<title>Node2</title>
<g id="a_node2"><a xlink:href="classrare_1_1components_1_1tabs_1_1settings_1_1widgets_1_1ubisoft__activation_1_1_ubi_link_widget.html#a8f9705707225e3a806138596d5edae0d" target="_top" xlink:title=" ">
<polygon fill="white" stroke="black" points="276.5,-357.5 276.5,-376.5 327.5,-376.5 327.5,-357.5 276.5,-357.5"/>
<text text-anchor="middle" x="302" y="-364.5" font-family="Helvetica,sans-Serif" font-size="10.00">activate</text>
</a>
</g>
</g>
<!-- Node1&#45;&gt;Node2 -->
<g id="edge1" class="edge">
<title>Node1&#45;&gt;Node2</title>
<path fill="none" stroke="midnightblue" d="M2090.39,-209.88C2036.78,-259.43 1868.93,-401 1701.5,-401 1701.5,-401 1701.5,-401 722.5,-401 571.98,-401 392.07,-378.98 327.53,-370.38"/>
<polygon fill="midnightblue" stroke="midnightblue" points="2093.1,-212.14 2098,-202.75 2088.31,-207.04 2093.1,-212.14"/>
</g>
<!-- Node3 -->
<g id="node3" class="node">
<title>Node3</title>
<g id="a_node3"><a xlink:href="classrare_1_1components_1_1tabs_1_1games_1_1cloud__save__utils_1_1_cloud_save_utils.html#a398a7b51391d4f2b1854e3d8cda2f9a3" target="_top" xlink:title=" ">
<polygon fill="white" stroke="black" points="1820,-178 1820,-208 2031,-208 2031,-178 1820,-178"/>
<text text-anchor="start" x="1828" y="-196" font-family="Helvetica,sans-Serif" font-size="10.00">rare.components.tabs.games.cloud</text>
<text text-anchor="middle" x="1925.5" y="-185" font-family="Helvetica,sans-Serif" font-size="10.00">_save_utils.CloudSaveUtils.download_saves</text>
</a>
</g>
</g>
<!-- Node1&#45;&gt;Node3 -->
<g id="edge3" class="edge">
<title>Node1&#45;&gt;Node3</title>
<path fill="none" stroke="midnightblue" d="M2056.79,-193C2048.63,-193 2039.95,-193 2031.08,-193"/>
<polygon fill="midnightblue" stroke="midnightblue" points="2056.81,-196.5 2066.81,-193 2056.81,-189.5 2056.81,-196.5"/>
</g>
<!-- Node15 -->
<g id="node15" class="node">
<title>Node15</title>
<g id="a_node15"><a xlink:href="classrare_1_1components_1_1tabs_1_1games_1_1cloud__save__utils_1_1_cloud_save_utils.html#aabe920f2c8b262a0d16df2ef0ceafad8" target="_top" xlink:title=" ">
<polygon fill="white" stroke="black" points="203,-67 203,-97 401,-97 401,-67 203,-67"/>
<text text-anchor="start" x="211" y="-85" font-family="Helvetica,sans-Serif" font-size="10.00">rare.components.tabs.games.cloud</text>
<text text-anchor="middle" x="302" y="-74" font-family="Helvetica,sans-Serif" font-size="10.00">_save_utils.CloudSaveUtils.upload_saves</text>
</a>
</g>
</g>
<!-- Node1&#45;&gt;Node15 -->
<g id="edge42" class="edge">
<title>Node1&#45;&gt;Node15</title>
<path fill="none" stroke="midnightblue" d="M2089.43,-176.71C2034.4,-130.18 1865.76,0 1701.5,0 1701.5,0 1701.5,0 722.5,0 584.47,0 425.57,-43.29 348.98,-66.96"/>
<polygon fill="midnightblue" stroke="midnightblue" points="2087.4,-179.58 2097.27,-183.43 2091.95,-174.26 2087.4,-179.58"/>
</g>
<!-- Node2&#45;&gt;Node2 -->
<g id="edge2" class="edge">
<title>Node2&#45;&gt;Node2</title>
<path fill="none" stroke="midnightblue" d="M336.88,-377.48C351.31,-386.07 339.69,-395 302,-395 258.14,-395 249.58,-382.91 276.3,-373.33"/>
<polygon fill="midnightblue" stroke="midnightblue" points="338.25,-374.26 327.7,-373.33 335.37,-380.64 338.25,-374.26"/>
</g>
<!-- Node3&#45;&gt;Node3 -->
<g id="edge4" class="edge">
<title>Node3&#45;&gt;Node3</title>
<path fill="none" stroke="midnightblue" d="M1957.84,-218.46C1953.83,-223.18 1943.05,-226.5 1925.5,-226.5 1896.71,-226.5 1886.13,-217.56 1893.78,-208.16"/>
<polygon fill="midnightblue" stroke="midnightblue" points="1961.31,-217.93 1957.22,-208.16 1954.33,-218.35 1961.31,-217.93"/>
</g>
<!-- Node4 -->
<g id="node4" class="node">
<title>Node4</title>
<g id="a_node4"><a xlink:href="classrare_1_1components_1_1tabs_1_1games_1_1cloud__save__utils_1_1_cloud_save_utils.html#a970c7d031af196eae774c1e0fa78daab" target="_top" xlink:title=" ">
<polygon fill="white" stroke="black" points="1617,-172.5 1617,-213.5 1784,-213.5 1784,-172.5 1617,-172.5"/>
<text text-anchor="start" x="1625" y="-201.5" font-family="Helvetica,sans-Serif" font-size="10.00">rare.components.tabs.games.cloud</text>
<text text-anchor="start" x="1625" y="-190.5" font-family="Helvetica,sans-Serif" font-size="10.00">_save_utils.CloudSaveUtils.game</text>
<text text-anchor="middle" x="1700.5" y="-179.5" font-family="Helvetica,sans-Serif" font-size="10.00">_finished</text>
</a>
</g>
</g>
<!-- Node3&#45;&gt;Node4 -->
<g id="edge5" class="edge">
<title>Node3&#45;&gt;Node4</title>
<path fill="none" stroke="midnightblue" d="M1809.72,-193C1801.09,-193 1792.48,-193 1784.11,-193"/>
<polygon fill="midnightblue" stroke="midnightblue" points="1809.86,-196.5 1819.86,-193 1809.86,-189.5 1809.86,-196.5"/>
</g>
<!-- Node16 -->
<g id="node16" class="node">
<title>Node16</title>
<g id="a_node16"><a xlink:href="classrare_1_1components_1_1tabs_1_1games_1_1cloud__save__utils_1_1_cloud_save_utils.html#abb078ea24f03a8b8317000d4af7416de" target="_top" xlink:title=" ">
<polygon fill="white" stroke="black" points="0,-39.5 0,-80.5 167,-80.5 167,-39.5 0,-39.5"/>
<text text-anchor="start" x="8" y="-68.5" font-family="Helvetica,sans-Serif" font-size="10.00">rare.components.tabs.games.cloud</text>
<text text-anchor="start" x="8" y="-57.5" font-family="Helvetica,sans-Serif" font-size="10.00">_save_utils.CloudSaveUtils.sync</text>
<text text-anchor="middle" x="83.5" y="-46.5" font-family="Helvetica,sans-Serif" font-size="10.00">_before_launch_game</text>
</a>
</g>
</g>
<!-- Node3&#45;&gt;Node16 -->
<g id="edge41" class="edge">
<title>Node3&#45;&gt;Node16</title>
<path fill="none" stroke="midnightblue" d="M1892.41,-172.5C1823.31,-130.37 1654.04,-38 1498.5,-38 1498.5,-38 1498.5,-38 519.5,-38 396.62,-38 254.47,-46.86 167.02,-53.34"/>
<polygon fill="midnightblue" stroke="midnightblue" points="1890.76,-175.59 1901.11,-177.86 1894.43,-169.63 1890.76,-175.59"/>
</g>
<!-- Node4&#45;&gt;Node4 -->
<g id="edge8" class="edge">
<title>Node4&#45;&gt;Node4</title>
<path fill="none" stroke="midnightblue" d="M1735.25,-223.86C1730.08,-228.7 1718.5,-232 1700.5,-232 1671.7,-232 1659.32,-223.54 1663.37,-213.86"/>
<polygon fill="midnightblue" stroke="midnightblue" points="1738.72,-224.4 1737.63,-213.86 1731.91,-222.78 1738.72,-224.4"/>
</g>
<!-- Node5 -->
<g id="node5" class="node">
<title>Node5</title>
<g id="a_node5"><a xlink:href="classrare_1_1components_1_1tabs_1_1games_1_1game__utils_1_1_game_process.html#a59c03cd7e6b87132c709e69907d4e0ed" target="_top" xlink:title=" ">
<polygon fill="white" stroke="black" points="1211,-218.5 1211,-259.5 1378,-259.5 1378,-218.5 1211,-218.5"/>
<text text-anchor="start" x="1219" y="-247.5" font-family="Helvetica,sans-Serif" font-size="10.00">rare.components.tabs.games.game</text>
<text text-anchor="start" x="1219" y="-236.5" font-family="Helvetica,sans-Serif" font-size="10.00">_utils.GameProcess.connect</text>
<text text-anchor="middle" x="1294.5" y="-225.5" font-family="Helvetica,sans-Serif" font-size="10.00">_to_server</text>
</a>
</g>
</g>
<!-- Node4&#45;&gt;Node5 -->
<g id="edge6" class="edge">
<title>Node4&#45;&gt;Node5</title>
<path fill="none" stroke="midnightblue" d="M1644.67,-217.26C1624.99,-224.79 1602.37,-232.13 1581,-236 1513.45,-248.24 1435.42,-248.12 1378.03,-245.42"/>
<polygon fill="midnightblue" stroke="midnightblue" points="1646.05,-220.48 1654.07,-213.57 1643.49,-213.97 1646.05,-220.48"/>
</g>
<!-- Node6 -->
<g id="node6" class="node">
<title>Node6</title>
<g id="a_node6"><a xlink:href="classrare_1_1components_1_1tabs_1_1games_1_1game__utils_1_1_game_utils.html#a1ff6997393d84b07e97a057126c415f7" target="_top" xlink:title=" ">
<polygon fill="white" stroke="black" points="1414,-178 1414,-208 1581,-208 1581,-178 1414,-178"/>
<text text-anchor="start" x="1422" y="-196" font-family="Helvetica,sans-Serif" font-size="10.00">rare.components.tabs.games.game</text>
<text text-anchor="middle" x="1497.5" y="-185" font-family="Helvetica,sans-Serif" font-size="10.00">_utils.GameUtils.game_finished</text>
</a>
</g>
</g>
<!-- Node4&#45;&gt;Node6 -->
<g id="edge9" class="edge">
<title>Node4&#45;&gt;Node6</title>
<path fill="none" stroke="midnightblue" d="M1606.85,-193C1598.27,-193 1589.61,-193 1581.13,-193"/>
<polygon fill="midnightblue" stroke="midnightblue" points="1606.88,-196.5 1616.88,-193 1606.88,-189.5 1606.88,-196.5"/>
</g>
<!-- Node7 -->
<g id="node7" class="node">
<title>Node7</title>
<g id="a_node7"><a xlink:href="classrare_1_1components_1_1tabs_1_1games_1_1game__utils_1_1_game_utils.html#a6d84f785e188bb4dc5e05413dd1302ad" target="_top" xlink:title=" ">
<polygon fill="white" stroke="black" points="1211,-143 1211,-173 1378,-173 1378,-143 1211,-143"/>
<text text-anchor="start" x="1219" y="-161" font-family="Helvetica,sans-Serif" font-size="10.00">rare.components.tabs.games.game</text>
<text text-anchor="middle" x="1294.5" y="-150" font-family="Helvetica,sans-Serif" font-size="10.00">_utils.GameUtils.launch_game</text>
</a>
</g>
</g>
<!-- Node4&#45;&gt;Node7 -->
<g id="edge40" class="edge">
<title>Node4&#45;&gt;Node7</title>
<path fill="none" stroke="midnightblue" d="M1607.05,-171.89C1598.28,-170.38 1589.49,-169.04 1581,-168 1513.06,-159.71 1435.41,-157.45 1378.25,-157.13"/>
<polygon fill="midnightblue" stroke="midnightblue" points="1606.47,-175.35 1616.93,-173.68 1607.71,-168.46 1606.47,-175.35"/>
</g>
<!-- Node5&#45;&gt;Node5 -->
<g id="edge7" class="edge">
<title>Node5&#45;&gt;Node5</title>
<path fill="none" stroke="midnightblue" d="M1326.16,-269.86C1321.45,-274.7 1310.9,-278 1294.5,-278 1268.27,-278 1256.99,-269.54 1260.68,-259.86"/>
<polygon fill="midnightblue" stroke="midnightblue" points="1329.62,-270.38 1328.32,-259.86 1322.78,-268.9 1329.62,-270.38"/>
</g>
<!-- Node6&#45;&gt;Node5 -->
<g id="edge10" class="edge">
<title>Node6&#45;&gt;Node5</title>
<path fill="none" stroke="midnightblue" d="M1420.74,-210.34C1406.9,-213.51 1392.39,-216.83 1378.35,-220.04"/>
<polygon fill="midnightblue" stroke="midnightblue" points="1421.72,-213.7 1430.69,-208.06 1420.16,-206.88 1421.72,-213.7"/>
</g>
<!-- Node6&#45;&gt;Node6 -->
<g id="edge11" class="edge">
<title>Node6&#45;&gt;Node6</title>
<path fill="none" stroke="midnightblue" d="M1533.39,-218.46C1528.94,-223.18 1516.97,-226.5 1497.5,-226.5 1465.54,-226.5 1453.81,-217.56 1462.3,-208.16"/>
<polygon fill="midnightblue" stroke="midnightblue" points="1536.86,-217.9 1532.7,-208.16 1529.88,-218.37 1536.86,-217.9"/>
</g>
<!-- Node6&#45;&gt;Node7 -->
<g id="edge12" class="edge">
<title>Node6&#45;&gt;Node7</title>
<path fill="none" stroke="midnightblue" d="M1403.85,-176.87C1395.27,-175.37 1386.61,-173.87 1378.13,-172.39"/>
<polygon fill="midnightblue" stroke="midnightblue" points="1403.42,-180.35 1413.88,-178.61 1404.62,-173.45 1403.42,-180.35"/>
</g>
<!-- Node7&#45;&gt;Node7 -->
<g id="edge13" class="edge">
<title>Node7&#45;&gt;Node7</title>
<path fill="none" stroke="midnightblue" d="M1327.19,-183.46C1323.14,-188.18 1312.24,-191.5 1294.5,-191.5 1265.39,-191.5 1254.7,-182.56 1262.43,-173.16"/>
<polygon fill="midnightblue" stroke="midnightblue" points="1330.67,-182.93 1326.57,-173.16 1323.68,-183.35 1330.67,-182.93"/>
</g>
<!-- Node8 -->
<g id="node8" class="node">
<title>Node8</title>
<g id="a_node8"><a xlink:href="classrare_1_1components_1_1tabs_1_1games_1_1game__utils_1_1_game_utils.html#a4edad8bd72770b4d0924575036a40a3c" target="_top" xlink:title=" ">
<polygon fill="white" stroke="black" points="437,-143 437,-173 604,-173 604,-143 437,-143"/>
<text text-anchor="start" x="445" y="-161" font-family="Helvetica,sans-Serif" font-size="10.00">rare.components.tabs.games.game</text>
<text text-anchor="middle" x="520.5" y="-150" font-family="Helvetica,sans-Serif" font-size="10.00">_utils.GameUtils.prepare_launch</text>
</a>
</g>
</g>
<!-- Node7&#45;&gt;Node8 -->
<g id="edge14" class="edge">
<title>Node7&#45;&gt;Node8</title>
<path fill="none" stroke="midnightblue" d="M1224.34,-140.89C1208.25,-137.61 1191.11,-134.68 1175,-133 970.46,-111.66 728.22,-133.03 604.02,-147.36"/>
<polygon fill="midnightblue" stroke="midnightblue" points="1223.7,-144.33 1234.21,-142.97 1225.14,-137.48 1223.7,-144.33"/>
</g>
<!-- Node10 -->
<g id="node10" class="node">
<title>Node10</title>
<g id="a_node10"><a xlink:href="classrare_1_1game__launch__helper_1_1_game_process_helper.html#a711d1d7df9874db34971779c941c4e5e" target="_top" xlink:title=" ">
<polygon fill="white" stroke="black" points="1046,-143 1046,-173 1175,-173 1175,-143 1046,-143"/>
<text text-anchor="start" x="1054" y="-161" font-family="Helvetica,sans-Serif" font-size="10.00">rare.game_launch_helper.</text>
<text text-anchor="middle" x="1110.5" y="-150" font-family="Helvetica,sans-Serif" font-size="10.00">GameProcessHelper.start</text>
</a>
</g>
</g>
<!-- Node7&#45;&gt;Node10 -->
<g id="edge18" class="edge">
<title>Node7&#45;&gt;Node10</title>
<path fill="none" stroke="midnightblue" d="M1200.67,-158C1192.06,-158 1183.48,-158 1175.23,-158"/>
<polygon fill="midnightblue" stroke="midnightblue" points="1200.75,-161.5 1210.75,-158 1200.75,-154.5 1200.75,-161.5"/>
</g>
<!-- Node13 -->
<g id="node13" class="node">
<title>Node13</title>
<g id="a_node13"><a xlink:href="classrare_1_1components_1_1tabs_1_1games_1_1game__utils_1_1_game_utils.html#aa5166679a6b1c69dd24d2e6faa34dc7b" target="_top" xlink:title=" ">
<polygon fill="white" stroke="black" points="640,-272 640,-302 807,-302 807,-272 640,-272"/>
<text text-anchor="start" x="648" y="-290" font-family="Helvetica,sans-Serif" font-size="10.00">rare.components.tabs.games.game</text>
<text text-anchor="middle" x="723.5" y="-279" font-family="Helvetica,sans-Serif" font-size="10.00">_utils.GameUtils.sync_finished</text>
</a>
</g>
</g>
<!-- Node7&#45;&gt;Node13 -->
<g id="edge39" class="edge">
<title>Node7&#45;&gt;Node13</title>
<path fill="none" stroke="midnightblue" d="M1254.7,-177.44C1201.16,-203.23 1100.92,-247.83 1010,-268 942.83,-282.9 864.78,-287.24 807.27,-288.08"/>
<polygon fill="midnightblue" stroke="midnightblue" points="1256.35,-180.52 1263.82,-173.01 1253.3,-174.23 1256.35,-180.52"/>
</g>
<!-- Node8&#45;&gt;Node8 -->
<g id="edge15" class="edge">
<title>Node8&#45;&gt;Node8</title>
<path fill="none" stroke="midnightblue" d="M556.39,-183.46C551.94,-188.18 539.97,-191.5 520.5,-191.5 488.54,-191.5 476.81,-182.56 485.3,-173.16"/>
<polygon fill="midnightblue" stroke="midnightblue" points="559.86,-182.9 555.7,-173.16 552.88,-183.37 559.86,-182.9"/>
</g>
<!-- Node9 -->
<g id="node9" class="node">
<title>Node9</title>
<g id="a_node9"><a xlink:href="classrare_1_1game__launch__helper_1_1_pre_launch_thread.html#a670fe67276cb94775a042958fe2c79d4" target="_top" xlink:title=" ">
<polygon fill="white" stroke="black" points="238.5,-143 238.5,-173 365.5,-173 365.5,-143 238.5,-143"/>
<text text-anchor="start" x="246.5" y="-161" font-family="Helvetica,sans-Serif" font-size="10.00">rare.game_launch_helper.</text>
<text text-anchor="middle" x="302" y="-150" font-family="Helvetica,sans-Serif" font-size="10.00">PreLaunchThread.run</text>
</a>
</g>
</g>
<!-- Node8&#45;&gt;Node9 -->
<g id="edge16" class="edge">
<title>Node8&#45;&gt;Node9</title>
<path fill="none" stroke="midnightblue" d="M426.66,-158C406.02,-158 384.61,-158 365.53,-158"/>
<polygon fill="midnightblue" stroke="midnightblue" points="426.72,-161.5 436.72,-158 426.72,-154.5 426.72,-161.5"/>
</g>
<!-- Node9&#45;&gt;Node9 -->
<g id="edge17" class="edge">
<title>Node9&#45;&gt;Node9</title>
<path fill="none" stroke="midnightblue" d="M340.74,-183.46C335.93,-188.18 323.02,-191.5 302,-191.5 267.51,-191.5 254.85,-182.56 264.01,-173.16"/>
<polygon fill="midnightblue" stroke="midnightblue" points="344.2,-182.88 339.99,-173.16 337.22,-183.39 344.2,-182.88"/>
</g>
<!-- Node10&#45;&gt;Node10 -->
<g id="edge38" class="edge">
<title>Node10&#45;&gt;Node10</title>
<path fill="none" stroke="midnightblue" d="M1143.19,-183.46C1139.14,-188.18 1128.24,-191.5 1110.5,-191.5 1081.39,-191.5 1070.7,-182.56 1078.43,-173.16"/>
<polygon fill="midnightblue" stroke="midnightblue" points="1146.67,-182.93 1142.57,-173.16 1139.68,-183.35 1146.67,-182.93"/>
</g>
<!-- Node11 -->
<g id="node11" class="node">
<title>Node11</title>
<g id="a_node11"><a xlink:href="classrare_1_1components_1_1tabs_1_1shop_1_1shop__models_1_1_browse_model.html#a563276b55376fdd9f495c321c5408906" target="_top" xlink:title=" ">
<polygon fill="white" stroke="black" points="848.5,-210 848.5,-240 1004.5,-240 1004.5,-210 848.5,-210"/>
<text text-anchor="start" x="856.5" y="-228" font-family="Helvetica,sans-Serif" font-size="10.00">rare.components.tabs.shop.shop</text>
<text text-anchor="middle" x="926.5" y="-217" font-family="Helvetica,sans-Serif" font-size="10.00">_models.BrowseModel.__dict__</text>
</a>
</g>
</g>
<!-- Node10&#45;&gt;Node11 -->
<g id="edge19" class="edge">
<title>Node10&#45;&gt;Node11</title>
<path fill="none" stroke="midnightblue" d="M1067.77,-177.41C1050.14,-185.25 1029.27,-194.06 1010,-201 1001.3,-204.13 991.97,-207.15 982.84,-209.94"/>
<polygon fill="midnightblue" stroke="midnightblue" points="1069.51,-180.47 1077.2,-173.18 1066.64,-174.08 1069.51,-180.47"/>
</g>
<!-- Node12 -->
<g id="node12" class="node">
<title>Node12</title>
<g id="a_node12"><a xlink:href="classrare_1_1game__launch__helper_1_1_game_process_helper.html#a62864ecc73de3f9e4a009737d0c01f01" target="_top" xlink:title=" ">
<polygon fill="white" stroke="black" points="843,-143 843,-173 1010,-173 1010,-143 843,-143"/>
<text text-anchor="start" x="851" y="-161" font-family="Helvetica,sans-Serif" font-size="10.00">rare.game_launch_helper.</text>
<text text-anchor="middle" x="926.5" y="-150" font-family="Helvetica,sans-Serif" font-size="10.00">GameProcessHelper.launch_game</text>
</a>
</g>
</g>
<!-- Node10&#45;&gt;Node12 -->
<g id="edge21" class="edge">
<title>Node10&#45;&gt;Node12</title>
<path fill="none" stroke="midnightblue" d="M1035.75,-151.36C1027.37,-151.25 1018.79,-151.22 1010.31,-151.27"/>
<polygon fill="midnightblue" stroke="midnightblue" points="1035.79,-154.86 1045.85,-151.53 1035.91,-147.86 1035.79,-154.86"/>
</g>
<!-- Node11&#45;&gt;Node11 -->
<g id="edge20" class="edge">
<title>Node11&#45;&gt;Node11</title>
<path fill="none" stroke="midnightblue" d="M959.19,-250.46C955.14,-255.18 944.24,-258.5 926.5,-258.5 897.39,-258.5 886.7,-249.56 894.43,-240.16"/>
<polygon fill="midnightblue" stroke="midnightblue" points="962.67,-249.93 958.57,-240.16 955.68,-250.35 962.67,-249.93"/>
</g>
<!-- Node12&#45;&gt;Node8 -->
<g id="edge23" class="edge">
<title>Node12&#45;&gt;Node8</title>
<path fill="none" stroke="midnightblue" d="M832.35,-158C763.43,-158 670.4,-158 604.12,-158"/>
<polygon fill="midnightblue" stroke="midnightblue" points="832.77,-161.5 842.77,-158 832.77,-154.5 832.77,-161.5"/>
</g>
<!-- Node12&#45;&gt;Node10 -->
<g id="edge24" class="edge">
<title>Node12&#45;&gt;Node10</title>
<path fill="none" stroke="midnightblue" d="M1020.41,-164.75C1029.01,-164.74 1037.59,-164.64 1045.85,-164.47"/>
<polygon fill="midnightblue" stroke="midnightblue" points="1020.32,-161.25 1010.31,-164.73 1020.3,-168.25 1020.32,-161.25"/>
</g>
<!-- Node12&#45;&gt;Node12 -->
<g id="edge22" class="edge">
<title>Node12&#45;&gt;Node12</title>
<path fill="none" stroke="midnightblue" d="M959.19,-183.46C955.14,-188.18 944.24,-191.5 926.5,-191.5 897.39,-191.5 886.7,-182.56 894.43,-173.16"/>
<polygon fill="midnightblue" stroke="midnightblue" points="962.67,-182.93 958.57,-173.16 955.68,-183.35 962.67,-182.93"/>
</g>
<!-- Node12&#45;&gt;Node13 -->
<g id="edge25" class="edge">
<title>Node12&#45;&gt;Node13</title>
<path fill="none" stroke="midnightblue" d="M884.84,-177.68C871.3,-184.64 856.28,-192.78 843,-201 806.47,-223.61 766.53,-253.84 743.6,-271.79"/>
<polygon fill="midnightblue" stroke="midnightblue" points="886.61,-180.71 893.95,-173.07 883.45,-174.47 886.61,-180.71"/>
</g>
<!-- Node13&#45;&gt;Node4 -->
<g id="edge26" class="edge">
<title>Node13&#45;&gt;Node4</title>
<path fill="none" stroke="midnightblue" d="M817.51,-301.35C895.33,-312.12 1009.39,-325 1109.5,-325 1295.5,-325 1295.5,-325 1295.5,-325 1426.15,-325 1458.78,-301.18 1581,-255 1610.65,-243.8 1642.37,-226.92 1665.52,-213.59"/>
<polygon fill="midnightblue" stroke="midnightblue" points="817.64,-297.84 807.25,-299.92 816.67,-304.77 817.64,-297.84"/>
</g>
<!-- Node13&#45;&gt;Node8 -->
<g id="edge27" class="edge">
<title>Node13&#45;&gt;Node8</title>
<path fill="none" stroke="midnightblue" d="M690.62,-266.54C650.13,-240.55 581.2,-196.31 545.11,-173.15"/>
<polygon fill="midnightblue" stroke="midnightblue" points="688.74,-269.49 699.05,-271.95 692.52,-263.6 688.74,-269.49"/>
</g>
<!-- Node13&#45;&gt;Node13 -->
<g id="edge28" class="edge">
<title>Node13&#45;&gt;Node13</title>
<path fill="none" stroke="midnightblue" d="M759.39,-312.46C754.94,-317.18 742.97,-320.5 723.5,-320.5 691.54,-320.5 679.81,-311.56 688.3,-302.16"/>
<polygon fill="midnightblue" stroke="midnightblue" points="762.86,-311.9 758.7,-302.16 755.88,-312.37 762.86,-311.9"/>
</g>
<!-- Node14 -->
<g id="node14" class="node">
<title>Node14</title>
<g id="a_node14"><a xlink:href="classrare_1_1components_1_1tabs_1_1games_1_1cloud__save__utils_1_1_cloud_save_utils.html#a305cbdbdf1c59aacea30610a562ac40d" target="_top" xlink:title=" ">
<polygon fill="white" stroke="black" points="437,-289.5 437,-330.5 604,-330.5 604,-289.5 437,-289.5"/>
<text text-anchor="start" x="445" y="-318.5" font-family="Helvetica,sans-Serif" font-size="10.00">rare.components.tabs.games.cloud</text>
<text text-anchor="start" x="445" y="-307.5" font-family="Helvetica,sans-Serif" font-size="10.00">_save_utils.CloudSaveUtils.worker</text>
<text text-anchor="middle" x="520.5" y="-296.5" font-family="Helvetica,sans-Serif" font-size="10.00">_finished</text>
</a>
</g>
</g>
<!-- Node13&#45;&gt;Node14 -->
<g id="edge29" class="edge">
<title>Node13&#45;&gt;Node14</title>
<path fill="none" stroke="midnightblue" d="M629.85,-297.6C621.27,-298.58 612.61,-299.57 604.13,-300.54"/>
<polygon fill="midnightblue" stroke="midnightblue" points="630.34,-301.07 639.88,-296.45 629.54,-294.11 630.34,-301.07"/>
</g>
<!-- Node14&#45;&gt;Node2 -->
<g id="edge30" class="edge">
<title>Node14&#45;&gt;Node2</title>
<path fill="none" stroke="midnightblue" d="M431.4,-333.2C393.96,-343.05 353.19,-353.79 327.86,-360.45"/>
<polygon fill="midnightblue" stroke="midnightblue" points="432.56,-336.51 441.34,-330.58 430.78,-329.74 432.56,-336.51"/>
</g>
<!-- Node14&#45;&gt;Node3 -->
<g id="edge31" class="edge">
<title>Node14&#45;&gt;Node3</title>
<path fill="none" stroke="midnightblue" d="M614.5,-329.21C696.1,-344.37 818.15,-363 925.5,-363 1498.5,-363 1498.5,-363 1498.5,-363 1664.93,-363 1843.55,-249.69 1903.52,-208.09"/>
<polygon fill="midnightblue" stroke="midnightblue" points="614.74,-325.69 604.26,-327.28 613.44,-332.57 614.74,-325.69"/>
</g>
<!-- Node14&#45;&gt;Node14 -->
<g id="edge37" class="edge">
<title>Node14&#45;&gt;Node14</title>
<path fill="none" stroke="midnightblue" d="M555.25,-340.86C550.08,-345.7 538.5,-349 520.5,-349 491.7,-349 479.32,-340.54 483.37,-330.86"/>
<polygon fill="midnightblue" stroke="midnightblue" points="558.72,-341.4 557.63,-330.86 551.91,-339.78 558.72,-341.4"/>
</g>
<!-- Node14&#45;&gt;Node15 -->
<g id="edge32" class="edge">
<title>Node14&#45;&gt;Node15</title>
<path fill="none" stroke="midnightblue" d="M495.81,-281.37C478.56,-259.91 455.13,-229.45 437,-201 418.62,-172.16 425.27,-157.09 401,-133 385.21,-117.32 363.61,-105.38 344.71,-97.01"/>
<polygon fill="midnightblue" stroke="midnightblue" points="493.32,-283.85 502.33,-289.42 498.76,-279.45 493.32,-283.85"/>
</g>
<!-- Node15&#45;&gt;Node4 -->
<g id="edge33" class="edge">
<title>Node15&#45;&gt;Node4</title>
<path fill="none" stroke="midnightblue" d="M411.46,-79.6C496.16,-77.93 616.81,-76 722.5,-76 1295.5,-76 1295.5,-76 1295.5,-76 1432.6,-76 1585.9,-138.93 1657.9,-172.49"/>
<polygon fill="midnightblue" stroke="midnightblue" points="411.25,-76.1 401.32,-79.8 411.38,-83.1 411.25,-76.1"/>
</g>
<!-- Node15&#45;&gt;Node15 -->
<g id="edge36" class="edge">
<title>Node15&#45;&gt;Node15</title>
<path fill="none" stroke="midnightblue" d="M340.74,-107.46C335.93,-112.18 323.02,-115.5 302,-115.5 267.51,-115.5 254.85,-106.56 264.01,-97.16"/>
<polygon fill="midnightblue" stroke="midnightblue" points="344.2,-106.88 339.99,-97.16 337.22,-107.39 344.2,-106.88"/>
</g>
<!-- Node15&#45;&gt;Node16 -->
<g id="edge34" class="edge">
<title>Node15&#45;&gt;Node16</title>
<path fill="none" stroke="midnightblue" d="M192.76,-71C184.12,-70.12 175.48,-69.25 167.06,-68.39"/>
<polygon fill="midnightblue" stroke="midnightblue" points="192.58,-74.5 202.89,-72.03 193.29,-67.54 192.58,-74.5"/>
</g>
<!-- Node16&#45;&gt;Node16 -->
<g id="edge35" class="edge">
<title>Node16&#45;&gt;Node16</title>
<path fill="none" stroke="midnightblue" d="M121.01,-90.86C115.43,-95.7 102.93,-99 83.5,-99 52.42,-99 39.06,-90.54 43.43,-80.86"/>
<polygon fill="midnightblue" stroke="midnightblue" points="124.47,-91.42 123.57,-80.86 117.69,-89.68 124.47,-91.42"/>
</g>
</g>
</svg>
        <g id="navigator" transform="translate(0 0)" fill="#404254">
                <rect fill="#f2f5e9" fill-opacity="0.5" stroke="#606060" stroke-width=".5" x="0" y="0" width="60" height="60"/>
                <use id="zoomplus" xlink:href="#zoomPlus" x="17" y="9" onmousedown="handleZoom(evt,'in')"/>
                <use id="zoomminus" xlink:href="#zoomMin" x="42" y="9" onmousedown="handleZoom(evt,'out')"/>
                <use id="reset" xlink:href="#resetDef" x="30" y="36" onmousedown="handleReset()"/>
                <g id="arrowUp" xlink:href="#dirArrow" transform="translate(30 24)" onmousedown="handlePan(0,-1)">
                  <use xlink:href="#rim" fill="#404040">
                        <set attributeName="fill" to="#808080" begin="arrowUp.mouseover" end="arrowUp.mouseout"/>
                  </use>
                  <path fill="none" stroke="white" stroke-width="1.5" d="M0,-3.0v7 M-2.5,-0.5L0,-3.0L2.5,-0.5"/>
                </g>
                <g id="arrowRight" xlink:href="#dirArrow" transform="rotate(90) translate(36 -43)" onmousedown="handlePan(1,0)">
                  <use xlink:href="#rim" fill="#404040">
                        <set attributeName="fill" to="#808080" begin="arrowRight.mouseover" end="arrowRight.mouseout"/>
                  </use>
                  <path fill="none" stroke="white" stroke-width="1.5" d="M0,-3.0v7 M-2.5,-0.5L0,-3.0L2.5,-0.5"/>
                </g>
                <g id="arrowDown" xlink:href="#dirArrow" transform="rotate(180) translate(-30 -48)" onmousedown="handlePan(0,1)">
                  <use xlink:href="#rim" fill="#404040">
                        <set attributeName="fill" to="#808080" begin="arrowDown.mouseover" end="arrowDown.mouseout"/>
                  </use>
                  <path fill="none" stroke="white" stroke-width="1.5" d="M0,-3.0v7 M-2.5,-0.5L0,-3.0L2.5,-0.5"/>
                </g>
                <g id="arrowLeft" xlink:href="#dirArrow" transform="rotate(270) translate(-36 17)" onmousedown="handlePan(-1,0)">
                  <use xlink:href="#rim" fill="#404040">
                        <set attributeName="fill" to="#808080" begin="arrowLeft.mouseover" end="arrowLeft.mouseout"/>
                  </use>
                  <path fill="none" stroke="white" stroke-width="1.5" d="M0,-3.0v7 M-2.5,-0.5L0,-3.0L2.5,-0.5"/>
                </g>
        </g>
        <svg viewBox="0 0 15 15" width="100%" height="30px" preserveAspectRatio="xMaxYMin meet">
         <g id="arrow_out" transform="scale(0.3 0.3)">
          <a xlink:href="classrare_1_1components_1_1tabs_1_1settings_1_1widgets_1_1ubisoft__activation_1_1_ubi_link_widget_a4f1fc3fc743e9e74ae4d1c677928ef3f_icgraph_org.svg" target="_base">
           <rect id="button" ry="5" rx="5" y="6" x="6" height="38" width="38"
                fill="#f2f5e9" fill-opacity="0.5" stroke="#606060" stroke-width="1.0"/>
           <path id="arrow"
             d="M 11.500037,31.436501 C 11.940474,20.09759 22.043105,11.32322 32.158766,21.979434 L 37.068811,17.246167 C 37.068811,17.246167 37.088388,32 37.088388,32 L 22.160133,31.978069 C 22.160133,31.978069 26.997745,27.140456 26.997745,27.140456 C 18.528582,18.264221 13.291696,25.230495 11.500037,31.436501 z"
             style="fill:#404040;"/>
          </a>
         </g>
        </svg>
</svg>
