<?xml version="1.0" encoding="UTF-8" standalone="no"?>
<!DOCTYPE svg PUBLIC "-//W3C//DTD SVG 1.1//EN"
 "http://www.w3.org/Graphics/SVG/1.1/DTD/svg11.dtd">
<!-- Generated by graphviz version 2.49.3 (20211027.1534)
 -->
<!-- Title: progressPixmap Pages: 1 -->
<svg width="412pt" height="57pt"
 viewBox="0.00 0.00 412.00 57.00" xmlns="http://www.w3.org/2000/svg" xmlns:xlink="http://www.w3.org/1999/xlink">
<g id="graph0" class="graph" transform="scale(1 1) rotate(0) translate(4 53)">
<title>progressPixmap</title>
<polygon fill="white" stroke="transparent" points="-4,4 -4,-53 408,-53 408,4 -4,4"/>
<!-- Node1 -->
<g id="node1" class="node">
<title>Node1</title>
<g id="a_node1"><a xlink:title="Paints the color image over the gray images based on progress percentage.">
<polygon fill="#bfbfbf" stroke="black" points="0,-6 0,-25 86,-25 86,-6 0,-6"/>
<text text-anchor="middle" x="43" y="-13" font-family="Helvetica,sans-Serif" font-size="10.00">progressPixmap</text>
</a>
</g>
</g>
<!-- Node1&#45;&gt;Node1 -->
<g id="edge1" class="edge">
<title>Node1&#45;&gt;Node1</title>
<path fill="none" stroke="midnightblue" d="M21.73,-25.26C11.38,-34.07 18.47,-43.5 43,-43.5 58.71,-43.5 67.27,-39.63 68.67,-34.53"/>
<polygon fill="midnightblue" stroke="midnightblue" points="71.72,-32.79 64.27,-25.26 65.39,-35.79 71.72,-32.79"/>
</g>
<!-- Node2 -->
<g id="node2" class="node">
<title>Node2</title>
<g id="a_node2"><a xlink:href="classrare_1_1utils_1_1extra__widgets_1_1_flow_layout.html#aff1e7c8521d73ca3ac484759bf2b7597" target="_top" xlink:title=" ">
<polygon fill="white" stroke="black" points="122,-0.5 122,-30.5 240,-30.5 240,-0.5 122,-0.5"/>
<text text-anchor="start" x="130" y="-18.5" font-family="Helvetica,sans-Serif" font-size="10.00">rare.utils.extra_widgets.</text>
<text text-anchor="middle" x="181" y="-7.5" font-family="Helvetica,sans-Serif" font-size="10.00">FlowLayout.sizeHint</text>
</a>
</g>
</g>
<!-- Node1&#45;&gt;Node2 -->
<g id="edge2" class="edge">
<title>Node1&#45;&gt;Node2</title>
<path fill="none" stroke="midnightblue" d="M86.29,-15.5C94.36,-15.5 102.99,-15.5 111.64,-15.5"/>
<polygon fill="midnightblue" stroke="midnightblue" points="111.76,-19 121.76,-15.5 111.76,-12 111.76,-19"/>
</g>
<!-- Node2&#45;&gt;Node2 -->
<g id="edge5" class="edge">
<title>Node2&#45;&gt;Node2</title>
<path fill="none" stroke="midnightblue" d="M156.95,-30.66C151.15,-40.06 159.17,-49 181,-49 194.3,-49 202.48,-45.68 205.52,-40.96"/>
<polygon fill="midnightblue" stroke="midnightblue" points="209,-40.49 205.05,-30.66 202.01,-40.81 209,-40.49"/>
</g>
<!-- Node3 -->
<g id="node3" class="node">
<title>Node3</title>
<g id="a_node3"><a xlink:href="classrare_1_1utils_1_1extra__widgets_1_1_flow_layout.html#acd7a5b208d0d18ac43cc317209bd759c" target="_top" xlink:title=" ">
<polygon fill="white" stroke="black" points="276,-0.5 276,-30.5 404,-30.5 404,-0.5 276,-0.5"/>
<text text-anchor="start" x="284" y="-18.5" font-family="Helvetica,sans-Serif" font-size="10.00">rare.utils.extra_widgets.</text>
<text text-anchor="middle" x="340" y="-7.5" font-family="Helvetica,sans-Serif" font-size="10.00">FlowLayout.minimumSize</text>
</a>
</g>
</g>
<!-- Node2&#45;&gt;Node3 -->
<g id="edge3" class="edge">
<title>Node2&#45;&gt;Node3</title>
<path fill="none" stroke="midnightblue" d="M240.01,-15.5C248.43,-15.5 257.18,-15.5 265.84,-15.5"/>
<polygon fill="midnightblue" stroke="midnightblue" points="265.95,-19 275.95,-15.5 265.95,-12 265.95,-19"/>
</g>
<!-- Node3&#45;&gt;Node3 -->
<g id="edge4" class="edge">
<title>Node3&#45;&gt;Node3</title>
<path fill="none" stroke="midnightblue" d="M312.47,-30.66C305.83,-40.06 315,-49 340,-49 355.23,-49 364.59,-45.68 368.07,-40.96"/>
<polygon fill="midnightblue" stroke="midnightblue" points="371.55,-40.46 367.53,-30.66 364.56,-40.83 371.55,-40.46"/>
</g>
</g>
</svg>
