<?xml version="1.0" encoding="UTF-8" standalone="no"?>
<!DOCTYPE svg PUBLIC "-//W3C//DTD SVG 1.1//EN"
 "http://www.w3.org/Graphics/SVG/1.1/DTD/svg11.dtd">
<!-- Generated by graphviz version 2.49.3 (20211027.1534)
 -->
<!-- Title: path Pages: 1 -->
<svg width="232pt" height="114pt"
 viewBox="0.00 0.00 232.49 113.50" xmlns="http://www.w3.org/2000/svg" xmlns:xlink="http://www.w3.org/1999/xlink">
<g id="graph0" class="graph" transform="scale(1 1) rotate(0) translate(4 109.5)">
<title>path</title>
<polygon fill="white" stroke="transparent" points="-4,4 -4,-109.5 228.49,-109.5 228.49,4 -4,4"/>
<!-- Node1 -->
<g id="node1" class="node">
<title>Node1</title>
<g id="a_node1"><a xlink:title=" ">
<polygon fill="#bfbfbf" stroke="black" points="6.49,-31.5 6.49,-50.5 41.49,-50.5 41.49,-31.5 6.49,-31.5"/>
<text text-anchor="middle" x="23.99" y="-38.5" font-family="Helvetica,sans-Serif" font-size="10.00">path</text>
</a>
</g>
</g>
<!-- Node1&#45;&gt;Node1 -->
<g id="edge5" class="edge">
<title>Node1&#45;&gt;Node1</title>
<path fill="none" stroke="midnightblue" d="M6.28,-49.31C-5.54,-58.5 0.37,-69 23.99,-69 40.61,-69 48.46,-63.81 47.55,-57.53"/>
<polygon fill="midnightblue" stroke="midnightblue" points="50.36,-55.44 41.71,-49.31 44.65,-59.49 50.36,-55.44"/>
</g>
<!-- Node2 -->
<g id="node2" class="node">
<title>Node2</title>
<g id="a_node2"><a xlink:href="namespacelegendary_1_1models_1_1manifest.html#a221860029661c07ad8ce093079cf09ac" target="_top" xlink:title=" ">
<polygon fill="white" stroke="black" points="77.49,-57 77.49,-87 224.49,-87 224.49,-57 77.49,-57"/>
<text text-anchor="start" x="85.49" y="-75" font-family="Helvetica,sans-Serif" font-size="10.00">legendary.models.manifest.get</text>
<text text-anchor="middle" x="150.99" y="-64" font-family="Helvetica,sans-Serif" font-size="10.00">_chunk_dir</text>
</a>
</g>
</g>
<!-- Node1&#45;&gt;Node2 -->
<g id="edge1" class="edge">
<title>Node1&#45;&gt;Node2</title>
<path fill="none" stroke="midnightblue" d="M41.59,-45.12C51.68,-47.62 65.33,-51 79.54,-54.53"/>
<polygon fill="midnightblue" stroke="midnightblue" points="78.87,-57.97 89.42,-56.98 80.56,-51.17 78.87,-57.97"/>
</g>
<!-- Node3 -->
<g id="node3" class="node">
<title>Node3</title>
<g id="a_node3"><a xlink:href="classlegendary_1_1models_1_1manifest_1_1_chunk_info.html#ae98d4cfdc3a64178222b88d61255a5ad" target="_top" xlink:title=" ">
<polygon fill="white" stroke="black" points="118.49,-0.5 118.49,-19.5 183.49,-19.5 183.49,-0.5 118.49,-0.5"/>
<text text-anchor="middle" x="150.99" y="-7.5" font-family="Helvetica,sans-Serif" font-size="10.00">group_num</text>
</a>
</g>
</g>
<!-- Node1&#45;&gt;Node3 -->
<g id="edge3" class="edge">
<title>Node1&#45;&gt;Node3</title>
<path fill="none" stroke="midnightblue" d="M41.59,-36.88C58.6,-32.67 85.72,-25.94 108.57,-20.27"/>
<polygon fill="midnightblue" stroke="midnightblue" points="109.53,-23.64 118.39,-17.84 107.84,-16.85 109.53,-23.64"/>
</g>
<!-- Node2&#45;&gt;Node2 -->
<g id="edge2" class="edge">
<title>Node2&#45;&gt;Node2</title>
<path fill="none" stroke="midnightblue" d="M129.04,-87.16C123.74,-96.56 131.06,-105.5 150.99,-105.5 163.14,-105.5 170.6,-102.18 173.38,-97.46"/>
<polygon fill="midnightblue" stroke="midnightblue" points="176.87,-97 172.95,-87.16 169.87,-97.3 176.87,-97"/>
</g>
<!-- Node3&#45;&gt;Node3 -->
<g id="edge4" class="edge">
<title>Node3&#45;&gt;Node3</title>
<path fill="none" stroke="midnightblue" d="M131.57,-19.76C122.13,-28.57 128.6,-38 150.99,-38 165.34,-38 173.15,-34.13 174.43,-29.03"/>
<polygon fill="midnightblue" stroke="midnightblue" points="177.6,-27.54 170.41,-19.76 171.18,-30.32 177.6,-27.54"/>
</g>
</g>
</svg>
