<?xml version="1.0" encoding="UTF-8" standalone="no"?>
<!DOCTYPE svg PUBLIC "-//W3C//DTD SVG 1.1//EN"
 "http://www.w3.org/Graphics/SVG/1.1/DTD/svg11.dtd">
<!-- Generated by graphviz version 2.49.3 (20211027.1534)
 -->
<!-- Title: text Pages: 1 -->
<svg width="308pt" height="181pt"
 viewBox="0.00 0.00 308.29 180.50" xmlns="http://www.w3.org/2000/svg" xmlns:xlink="http://www.w3.org/1999/xlink">
<g id="graph0" class="graph" transform="scale(1 1) rotate(0) translate(4 176.5)">
<title>text</title>
<polygon fill="white" stroke="transparent" points="-4,4 -4,-176.5 304.29,-176.5 304.29,4 -4,4"/>
<!-- Node1 -->
<g id="node1" class="node">
<title>Node1</title>
<g id="a_node1"><a xlink:title=" ">
<polygon fill="#bfbfbf" stroke="black" points="254,-73 254,-92 286,-92 286,-73 254,-73"/>
<text text-anchor="middle" x="270" y="-80" font-family="Helvetica,sans-Serif" font-size="10.00">text</text>
</a>
</g>
</g>
<!-- Node1&#45;&gt;Node1 -->
<g id="edge7" class="edge">
<title>Node1&#45;&gt;Node1</title>
<path fill="none" stroke="midnightblue" d="M295.1,-92.59C306.45,-101.3 298.08,-110.5 270,-110.5 236.41,-110.5 231.03,-97.33 253.86,-87.59"/>
<polygon fill="midnightblue" stroke="midnightblue" points="296.58,-89.4 286.14,-87.59 293.17,-95.52 296.58,-89.4"/>
</g>
<!-- Node2 -->
<g id="node2" class="node">
<title>Node2</title>
<g id="a_node2"><a xlink:href="classrare_1_1widgets_1_1indicator__edit_1_1_indicator_line_edit.html#a051a5c88b188dc1e47f120d327dd4d99" target="_top" xlink:title=" ">
<polygon fill="white" stroke="black" points="66.5,-135 66.5,-154 151.5,-154 151.5,-135 66.5,-135"/>
<text text-anchor="middle" x="109" y="-142" font-family="Helvetica,sans-Serif" font-size="10.00">extend_reasons</text>
</a>
</g>
</g>
<!-- Node1&#45;&gt;Node2 -->
<g id="edge1" class="edge">
<title>Node1&#45;&gt;Node2</title>
<path fill="none" stroke="midnightblue" d="M253.6,-99.26C244.2,-108.45 231.44,-119.22 218,-125.5 197.3,-135.18 172.28,-139.95 151.53,-142.3"/>
<polygon fill="midnightblue" stroke="midnightblue" points="256.16,-101.65 260.64,-92.05 251.15,-96.76 256.16,-101.65"/>
</g>
<!-- Node3 -->
<g id="node3" class="node">
<title>Node3</title>
<g id="a_node3"><a xlink:href="classrare_1_1components_1_1tabs_1_1settings_1_1widgets_1_1overlay_1_1_overlay_line_edit.html#a1b9dac79dca566ffa569aceebef8a554" target="_top" xlink:title=" ">
<polygon fill="white" stroke="black" points="0,-67.5 0,-97.5 218,-97.5 218,-67.5 0,-67.5"/>
<text text-anchor="start" x="8" y="-85.5" font-family="Helvetica,sans-Serif" font-size="10.00">rare.components.tabs.settings.widgets.overlay.</text>
<text text-anchor="middle" x="109" y="-74.5" font-family="Helvetica,sans-Serif" font-size="10.00">OverlayLineEdit.getValue</text>
</a>
</g>
</g>
<!-- Node1&#45;&gt;Node3 -->
<g id="edge3" class="edge">
<title>Node1&#45;&gt;Node3</title>
<path fill="none" stroke="midnightblue" d="M243.7,-82.5C236.18,-82.5 227.43,-82.5 218.07,-82.5"/>
<polygon fill="midnightblue" stroke="midnightblue" points="243.75,-86 253.75,-82.5 243.75,-79 243.75,-86"/>
</g>
<!-- Node4 -->
<g id="node4" class="node">
<title>Node4</title>
<g id="a_node4"><a xlink:href="classrare_1_1widgets_1_1indicator__edit_1_1_path_edit.html#abe4b5c68f01943de2b98afa429bd7e37" target="_top" xlink:title=" ">
<polygon fill="white" stroke="black" points="52,-0.5 52,-30.5 166,-30.5 166,-0.5 52,-0.5"/>
<text text-anchor="start" x="60" y="-18.5" font-family="Helvetica,sans-Serif" font-size="10.00">rare.widgets.indicator</text>
<text text-anchor="middle" x="109" y="-7.5" font-family="Helvetica,sans-Serif" font-size="10.00">_edit.PathEdit.set_root</text>
</a>
</g>
</g>
<!-- Node1&#45;&gt;Node4 -->
<g id="edge5" class="edge">
<title>Node1&#45;&gt;Node4</title>
<path fill="none" stroke="midnightblue" d="M244.69,-70.69C236.28,-66.71 226.78,-62.31 218,-58.5 195.51,-48.74 170.04,-38.56 149.48,-30.55"/>
<polygon fill="midnightblue" stroke="midnightblue" points="243.4,-73.96 253.94,-75.12 246.43,-67.64 243.4,-73.96"/>
</g>
<!-- Node2&#45;&gt;Node2 -->
<g id="edge2" class="edge">
<title>Node2&#45;&gt;Node2</title>
<path fill="none" stroke="midnightblue" d="M138.94,-162.77C138.09,-168.24 128.11,-172.5 109,-172.5 80.56,-172.5 72.34,-163.07 84.34,-154.26"/>
<polygon fill="midnightblue" stroke="midnightblue" points="141.9,-160.91 133.66,-154.26 135.95,-164.6 141.9,-160.91"/>
</g>
<!-- Node3&#45;&gt;Node3 -->
<g id="edge4" class="edge">
<title>Node3&#45;&gt;Node3</title>
<path fill="none" stroke="midnightblue" d="M137.43,-107.96C133.9,-112.68 124.42,-116 109,-116 83.69,-116 74.39,-107.06 81.12,-97.66"/>
<polygon fill="midnightblue" stroke="midnightblue" points="140.91,-107.46 136.88,-97.66 133.92,-107.83 140.91,-107.46"/>
</g>
<!-- Node4&#45;&gt;Node4 -->
<g id="edge6" class="edge">
<title>Node4&#45;&gt;Node4</title>
<path fill="none" stroke="midnightblue" d="M137.43,-40.96C133.9,-45.68 124.42,-49 109,-49 83.69,-49 74.39,-40.06 81.12,-30.66"/>
<polygon fill="midnightblue" stroke="midnightblue" points="140.91,-40.46 136.88,-30.66 133.92,-40.83 140.91,-40.46"/>
</g>
</g>
</svg>
