<?xml version="1.0" encoding="UTF-8" standalone="no"?>
<!DOCTYPE svg PUBLIC "-//W3C//DTD SVG 1.1//EN"
 "http://www.w3.org/Graphics/SVG/1.1/DTD/svg11.dtd">
<!-- Generated by graphviz version 2.49.3 (20211027.1534)
 -->
<!-- Title: cleanup Pages: 1 -->
<svg width="224pt" height="114pt"
 viewBox="0.00 0.00 224.00 113.50" xmlns="http://www.w3.org/2000/svg" xmlns:xlink="http://www.w3.org/1999/xlink">
<g id="graph0" class="graph" transform="scale(1 1) rotate(0) translate(4 109.5)">
<title>cleanup</title>
<polygon fill="white" stroke="transparent" points="-4,4 -4,-109.5 220,-109.5 220,4 -4,4"/>
<!-- Node1 -->
<g id="node1" class="node">
<title>Node1</title>
<g id="a_node1"><a xlink:title=" ">
<polygon fill="#bfbfbf" stroke="black" points="0,-31.5 0,-50.5 50,-50.5 50,-31.5 0,-31.5"/>
<text text-anchor="middle" x="25" y="-38.5" font-family="Helvetica,sans-Serif" font-size="10.00">cleanup</text>
</a>
</g>
</g>
<!-- Node1&#45;&gt;Node1 -->
<g id="edge1" class="edge">
<title>Node1&#45;&gt;Node1</title>
<path fill="none" stroke="midnightblue" d="M5.58,-50.76C-3.87,-59.57 2.61,-69 25,-69 39.35,-69 47.16,-65.13 48.44,-60.03"/>
<polygon fill="midnightblue" stroke="midnightblue" points="51.61,-58.54 44.42,-50.76 45.18,-61.32 51.61,-58.54"/>
</g>
<!-- Node2 -->
<g id="node2" class="node">
<title>Node2</title>
<g id="a_node2"><a xlink:href="classrare_1_1shared_1_1rare__core_1_1_rare_core.html#a405e1a4f20f16120f872ccd2654a1d56" target="_top" xlink:title=" ">
<polygon fill="white" stroke="black" points="86,-57 86,-87 216,-87 216,-57 86,-57"/>
<text text-anchor="start" x="94" y="-75" font-family="Helvetica,sans-Serif" font-size="10.00">rare.shared.rare_core.Rare</text>
<text text-anchor="middle" x="151" y="-64" font-family="Helvetica,sans-Serif" font-size="10.00">Core.core</text>
</a>
</g>
</g>
<!-- Node1&#45;&gt;Node2 -->
<g id="edge2" class="edge">
<title>Node1&#45;&gt;Node2</title>
<path fill="none" stroke="midnightblue" d="M50.2,-47.05C58.94,-49.24 69.31,-51.83 79.99,-54.5"/>
<polygon fill="midnightblue" stroke="midnightblue" points="79.31,-57.94 89.86,-56.97 81.01,-51.14 79.31,-57.94"/>
</g>
<!-- Node3 -->
<g id="node3" class="node">
<title>Node3</title>
<g id="a_node3"><a xlink:href="namespacerare_1_1utils_1_1misc.html#a3544b31f50ff739b7e8bb4ab751026b7" target="_top" xlink:title=" ">
<polygon fill="white" stroke="black" points="86.5,-0.5 86.5,-19.5 215.5,-19.5 215.5,-0.5 86.5,-0.5"/>
<text text-anchor="middle" x="151" y="-7.5" font-family="Helvetica,sans-Serif" font-size="10.00">rare.utils.misc.format_size</text>
</a>
</g>
</g>
<!-- Node1&#45;&gt;Node3 -->
<g id="edge4" class="edge">
<title>Node1&#45;&gt;Node3</title>
<path fill="none" stroke="midnightblue" d="M50.2,-34.95C64.81,-31.3 83.96,-26.51 101.56,-22.11"/>
<polygon fill="midnightblue" stroke="midnightblue" points="102.85,-25.39 111.7,-19.57 101.15,-18.6 102.85,-25.39"/>
</g>
<!-- Node2&#45;&gt;Node2 -->
<g id="edge3" class="edge">
<title>Node2&#45;&gt;Node2</title>
<path fill="none" stroke="midnightblue" d="M129.04,-87.16C123.75,-96.56 131.07,-105.5 151,-105.5 163.15,-105.5 170.61,-102.18 173.39,-97.46"/>
<polygon fill="midnightblue" stroke="midnightblue" points="176.87,-97 172.96,-87.16 169.88,-97.3 176.87,-97"/>
</g>
<!-- Node3&#45;&gt;Node3 -->
<g id="edge5" class="edge">
<title>Node3&#45;&gt;Node3</title>
<path fill="none" stroke="midnightblue" d="M131.58,-19.76C122.13,-28.57 128.61,-38 151,-38 165.35,-38 173.16,-34.13 174.44,-29.03"/>
<polygon fill="midnightblue" stroke="midnightblue" points="177.61,-27.54 170.42,-19.76 171.18,-30.32 177.61,-27.54"/>
</g>
</g>
</svg>
