<?xml version="1.0" encoding="UTF-8" standalone="no"?>
<!DOCTYPE svg PUBLIC "-//W3C//DTD SVG 1.1//EN"
 "http://www.w3.org/Graphics/SVG/1.1/DTD/svg11.dtd">
<!-- Generated by graphviz version 2.49.3 (20211027.1534)
 -->
<!-- Title: game_finished Pages: 1 -->
<!--zoomable 391 -->
<svg id="main" version="1.1" xmlns="http://www.w3.org/2000/svg" xmlns:xlink="http://www.w3.org/1999/xlink" xml:space="preserve" onload="init(evt)">
<style type="text/css"><![CDATA[
.edge:hover path { stroke: red; }
.edge:hover polygon { stroke: red; fill: red; }
]]></style>
<script type="text/javascript"><![CDATA[
var edges = document.getElementsByTagName('g');
if (edges && edges.length) {
  for (var i=0;i<edges.length;i++) {
    if (edges[i].id.substr(0,4)=='edge') {
      edges[i].setAttribute('class','edge');
    }
  }
}
]]></script>
        <defs>
                <circle id="rim" cx="0" cy="0" r="7"/>
                <circle id="rim2" cx="0" cy="0" r="3.5"/>
                <g id="zoomPlus">
                        <use xlink:href="#rim" fill="#404040">
                                <set attributeName="fill" to="#808080" begin="zoomplus.mouseover" end="zoomplus.mouseout"/>
                        </use>
                        <path d="M-4,0h8M0,-4v8" fill="none" stroke="white" stroke-width="1.5" pointer-events="none"/>
                </g>
                <g id="zoomMin">
                        <use xlink:href="#rim" fill="#404040">
                                <set attributeName="fill" to="#808080" begin="zoomminus.mouseover" end="zoomminus.mouseout"/>
                        </use>
                        <path d="M-4,0h8" fill="none" stroke="white" stroke-width="1.5" pointer-events="none"/>
                </g>
                <g id="dirArrow">
                        <path fill="none" stroke="white" stroke-width="1.5" d="M0,-3.0v7 M-2.5,-0.5L0,-3.0L2.5,-0.5"/>
                </g>
               <g id="resetDef">
                       <use xlink:href="#rim2" fill="#404040">
                               <set attributeName="fill" to="#808080" begin="reset.mouseover" end="reset.mouseout"/>
                       </use>
               </g>
        </defs>

<script type="text/javascript">
var viewWidth = 1535;
var viewHeight = 391;
var sectionId = 'dynsection-5';
</script>
<script xlink:href="svgpan.js"/>
<svg id="graph" class="graph">
<g id="viewport">
<title>game_finished</title>
<polygon fill="white" stroke="transparent" points="-4,4 -4,-387 1531,-387 1531,4 -4,4"/>
<!-- Node1 -->
<g id="node1" class="node">
<title>Node1</title>
<g id="a_node1"><a xlink:title=" ">
<polygon fill="#bfbfbf" stroke="black" points="1448,-243.5 1448,-262.5 1527,-262.5 1527,-243.5 1448,-243.5"/>
<text text-anchor="middle" x="1487.5" y="-250.5" font-family="Helvetica,sans-Serif" font-size="10.00">game_finished</text>
</a>
</g>
</g>
<!-- Node1&#45;&gt;Node1 -->
<g id="edge3" class="edge">
<title>Node1&#45;&gt;Node1</title>
<path fill="none" stroke="midnightblue" d="M1508.24,-272.4C1506.85,-277.31 1499.94,-281 1487.5,-281 1467.59,-281 1461.84,-271.57 1470.24,-262.76"/>
<polygon fill="midnightblue" stroke="midnightblue" points="1511.45,-270.98 1504.76,-262.76 1504.86,-273.35 1511.45,-270.98"/>
</g>
<!-- Node2 -->
<g id="node2" class="node">
<title>Node2</title>
<g id="a_node2"><a xlink:href="classrare_1_1components_1_1tabs_1_1games_1_1game__utils_1_1_game_process.html#a59c03cd7e6b87132c709e69907d4e0ed" target="_top" xlink:title=" ">
<polygon fill="white" stroke="black" points="0,-101.5 0,-142.5 167,-142.5 167,-101.5 0,-101.5"/>
<text text-anchor="start" x="8" y="-130.5" font-family="Helvetica,sans-Serif" font-size="10.00">rare.components.tabs.games.game</text>
<text text-anchor="start" x="8" y="-119.5" font-family="Helvetica,sans-Serif" font-size="10.00">_utils.GameProcess.connect</text>
<text text-anchor="middle" x="83.5" y="-108.5" font-family="Helvetica,sans-Serif" font-size="10.00">_to_server</text>
</a>
</g>
</g>
<!-- Node1&#45;&gt;Node2 -->
<g id="edge1" class="edge">
<title>Node1&#45;&gt;Node2</title>
<path fill="none" stroke="midnightblue" d="M1478.86,-233.78C1454,-174.75 1369.36,0 1238.5,0 1238.5,0 1238.5,0 512,0 365.93,0 202.2,-66.67 126.74,-101.44"/>
<polygon fill="midnightblue" stroke="midnightblue" points="1475.77,-235.47 1482.81,-243.39 1482.25,-232.81 1475.77,-235.47"/>
</g>
<!-- Node3 -->
<g id="node3" class="node">
<title>Node3</title>
<g id="a_node3"><a xlink:href="classrare_1_1components_1_1tabs_1_1games_1_1game__utils_1_1_game_utils.html#a6d84f785e188bb4dc5e05413dd1302ad" target="_top" xlink:title=" ">
<polygon fill="white" stroke="black" points="1338,-243.5 1338,-262.5 1412,-262.5 1412,-243.5 1338,-243.5"/>
<text text-anchor="middle" x="1375" y="-250.5" font-family="Helvetica,sans-Serif" font-size="10.00">launch_game</text>
</a>
</g>
</g>
<!-- Node1&#45;&gt;Node3 -->
<g id="edge4" class="edge">
<title>Node1&#45;&gt;Node3</title>
<path fill="none" stroke="midnightblue" d="M1437.6,-253C1429.07,-253 1420.33,-253 1412.22,-253"/>
<polygon fill="midnightblue" stroke="midnightblue" points="1437.85,-256.5 1447.85,-253 1437.85,-249.5 1437.85,-256.5"/>
</g>
<!-- Node2&#45;&gt;Node2 -->
<g id="edge2" class="edge">
<title>Node2&#45;&gt;Node2</title>
<path fill="none" stroke="midnightblue" d="M118.25,-152.86C113.08,-157.7 101.5,-161 83.5,-161 54.7,-161 42.32,-152.54 46.37,-142.86"/>
<polygon fill="midnightblue" stroke="midnightblue" points="121.72,-153.4 120.63,-142.86 114.91,-151.78 121.72,-153.4"/>
</g>
<!-- Node3&#45;&gt;Node3 -->
<g id="edge5" class="edge">
<title>Node3&#45;&gt;Node3</title>
<path fill="none" stroke="midnightblue" d="M1395.74,-272.4C1394.35,-277.31 1387.44,-281 1375,-281 1355.09,-281 1349.34,-271.57 1357.74,-262.76"/>
<polygon fill="midnightblue" stroke="midnightblue" points="1398.95,-270.98 1392.26,-262.76 1392.36,-273.35 1398.95,-270.98"/>
</g>
<!-- Node4 -->
<g id="node4" class="node">
<title>Node4</title>
<g id="a_node4"><a xlink:href="classrare_1_1components_1_1tabs_1_1games_1_1game__utils_1_1_game_utils.html#a4edad8bd72770b4d0924575036a40a3c" target="_top" xlink:title=" ">
<polygon fill="white" stroke="black" points="698,-112.5 698,-131.5 781,-131.5 781,-112.5 698,-112.5"/>
<text text-anchor="middle" x="739.5" y="-119.5" font-family="Helvetica,sans-Serif" font-size="10.00">prepare_launch</text>
</a>
</g>
</g>
<!-- Node3&#45;&gt;Node4 -->
<g id="edge6" class="edge">
<title>Node3&#45;&gt;Node4</title>
<path fill="none" stroke="midnightblue" d="M1355.6,-236.37C1341.62,-224.34 1321.54,-208.27 1302,-197 1233.45,-157.44 1214.52,-145.95 1137,-130 1009.37,-103.74 853.76,-111.93 781.28,-117.99"/>
<polygon fill="midnightblue" stroke="midnightblue" points="1353.63,-239.3 1363.45,-243.27 1358.24,-234.04 1353.63,-239.3"/>
</g>
<!-- Node6 -->
<g id="node6" class="node">
<title>Node6</title>
<g id="a_node6"><a xlink:href="classrare_1_1game__launch__helper_1_1_game_process_helper.html#a711d1d7df9874db34971779c941c4e5e" target="_top" xlink:title=" ">
<polygon fill="white" stroke="black" points="1173,-207 1173,-237 1302,-237 1302,-207 1173,-207"/>
<text text-anchor="start" x="1181" y="-225" font-family="Helvetica,sans-Serif" font-size="10.00">rare.game_launch_helper.</text>
<text text-anchor="middle" x="1237.5" y="-214" font-family="Helvetica,sans-Serif" font-size="10.00">GameProcessHelper.start</text>
</a>
</g>
</g>
<!-- Node3&#45;&gt;Node6 -->
<g id="edge10" class="edge">
<title>Node3&#45;&gt;Node6</title>
<path fill="none" stroke="midnightblue" d="M1327.86,-242.44C1319.57,-240.55 1310.8,-238.54 1302.12,-236.55"/>
<polygon fill="midnightblue" stroke="midnightblue" points="1327.16,-245.87 1337.69,-244.69 1328.72,-239.05 1327.16,-245.87"/>
</g>
<!-- Node9 -->
<g id="node9" class="node">
<title>Node9</title>
<g id="a_node9"><a xlink:href="classrare_1_1components_1_1tabs_1_1games_1_1game__utils_1_1_game_utils.html#aa5166679a6b1c69dd24d2e6faa34dc7b" target="_top" xlink:title=" ">
<polygon fill="white" stroke="black" points="859,-212.5 859,-231.5 934,-231.5 934,-212.5 859,-212.5"/>
<text text-anchor="middle" x="896.5" y="-219.5" font-family="Helvetica,sans-Serif" font-size="10.00">sync_finished</text>
</a>
</g>
</g>
<!-- Node3&#45;&gt;Node9 -->
<g id="edge39" class="edge">
<title>Node3&#45;&gt;Node9</title>
<path fill="none" stroke="midnightblue" d="M1327.59,-262.72C1251.39,-276.82 1095.71,-297.78 970,-264 946.68,-257.73 923.12,-241.93 909.44,-231.6"/>
<polygon fill="midnightblue" stroke="midnightblue" points="1328.63,-266.09 1337.8,-260.79 1327.32,-259.21 1328.63,-266.09"/>
</g>
<!-- Node4&#45;&gt;Node4 -->
<g id="edge7" class="edge">
<title>Node4&#45;&gt;Node4</title>
<path fill="none" stroke="midnightblue" d="M768.62,-140.65C767.4,-145.94 757.7,-150 739.5,-150 711.77,-150 703.76,-140.57 715.46,-131.76"/>
<polygon fill="midnightblue" stroke="midnightblue" points="771.54,-138.71 763.54,-131.76 765.46,-142.18 771.54,-138.71"/>
</g>
<!-- Node5 -->
<g id="node5" class="node">
<title>Node5</title>
<g id="a_node5"><a xlink:href="classrare_1_1game__launch__helper_1_1_pre_launch_thread.html#a670fe67276cb94775a042958fe2c79d4" target="_top" xlink:title=" ">
<polygon fill="white" stroke="black" points="449.5,-29 449.5,-59 576.5,-59 576.5,-29 449.5,-29"/>
<text text-anchor="start" x="457.5" y="-47" font-family="Helvetica,sans-Serif" font-size="10.00">rare.game_launch_helper.</text>
<text text-anchor="middle" x="513" y="-36" font-family="Helvetica,sans-Serif" font-size="10.00">PreLaunchThread.run</text>
</a>
</g>
</g>
<!-- Node4&#45;&gt;Node5 -->
<g id="edge8" class="edge">
<title>Node4&#45;&gt;Node5</title>
<path fill="none" stroke="midnightblue" d="M701.45,-109.13C661.94,-95.4 599.41,-73.68 557.57,-59.14"/>
<polygon fill="midnightblue" stroke="midnightblue" points="700.38,-112.46 710.97,-112.44 702.67,-105.85 700.38,-112.46"/>
</g>
<!-- Node5&#45;&gt;Node5 -->
<g id="edge9" class="edge">
<title>Node5&#45;&gt;Node5</title>
<path fill="none" stroke="midnightblue" d="M553.16,-69.46C548.17,-74.18 534.79,-77.5 513,-77.5 477.25,-77.5 464.12,-68.56 473.61,-59.16"/>
<polygon fill="midnightblue" stroke="midnightblue" points="556.62,-68.87 552.39,-59.16 549.64,-69.39 556.62,-68.87"/>
</g>
<!-- Node6&#45;&gt;Node6 -->
<g id="edge38" class="edge">
<title>Node6&#45;&gt;Node6</title>
<path fill="none" stroke="midnightblue" d="M1261.67,-247.46C1258.67,-252.18 1250.61,-255.5 1237.5,-255.5 1215.98,-255.5 1208.08,-246.56 1213.8,-237.16"/>
<polygon fill="midnightblue" stroke="midnightblue" points="1265.15,-246.99 1261.2,-237.16 1258.16,-247.31 1265.15,-246.99"/>
</g>
<!-- Node7 -->
<g id="node7" class="node">
<title>Node7</title>
<g id="a_node7"><a xlink:href="classrare_1_1components_1_1tabs_1_1shop_1_1shop__models_1_1_browse_model.html#a563276b55376fdd9f495c321c5408906" target="_top" xlink:title=" ">
<polygon fill="white" stroke="black" points="975.5,-140 975.5,-170 1131.5,-170 1131.5,-140 975.5,-140"/>
<text text-anchor="start" x="983.5" y="-158" font-family="Helvetica,sans-Serif" font-size="10.00">rare.components.tabs.shop.shop</text>
<text text-anchor="middle" x="1053.5" y="-147" font-family="Helvetica,sans-Serif" font-size="10.00">_models.BrowseModel.__dict__</text>
</a>
</g>
</g>
<!-- Node6&#45;&gt;Node7 -->
<g id="edge11" class="edge">
<title>Node6&#45;&gt;Node7</title>
<path fill="none" stroke="midnightblue" d="M1186.25,-203.5C1157.7,-192.99 1122.4,-179.99 1095.52,-170.1"/>
<polygon fill="midnightblue" stroke="midnightblue" points="1185.06,-206.79 1195.66,-206.96 1187.48,-200.22 1185.06,-206.79"/>
</g>
<!-- Node8 -->
<g id="node8" class="node">
<title>Node8</title>
<g id="a_node8"><a xlink:href="classrare_1_1game__launch__helper_1_1_game_process_helper.html#a62864ecc73de3f9e4a009737d0c01f01" target="_top" xlink:title=" ">
<polygon fill="white" stroke="black" points="970,-207 970,-237 1137,-237 1137,-207 970,-207"/>
<text text-anchor="start" x="978" y="-225" font-family="Helvetica,sans-Serif" font-size="10.00">rare.game_launch_helper.</text>
<text text-anchor="middle" x="1053.5" y="-214" font-family="Helvetica,sans-Serif" font-size="10.00">GameProcessHelper.launch_game</text>
</a>
</g>
</g>
<!-- Node6&#45;&gt;Node8 -->
<g id="edge13" class="edge">
<title>Node6&#45;&gt;Node8</title>
<path fill="none" stroke="midnightblue" d="M1162.75,-215.36C1154.37,-215.25 1145.79,-215.22 1137.31,-215.27"/>
<polygon fill="midnightblue" stroke="midnightblue" points="1162.79,-218.86 1172.85,-215.53 1162.91,-211.86 1162.79,-218.86"/>
</g>
<!-- Node7&#45;&gt;Node7 -->
<g id="edge12" class="edge">
<title>Node7&#45;&gt;Node7</title>
<path fill="none" stroke="midnightblue" d="M1081.22,-180.46C1077.78,-185.18 1068.54,-188.5 1053.5,-188.5 1028.82,-188.5 1019.76,-179.56 1026.31,-170.16"/>
<polygon fill="midnightblue" stroke="midnightblue" points="1084.7,-179.96 1080.69,-170.16 1077.71,-180.33 1084.7,-179.96"/>
</g>
<!-- Node8&#45;&gt;Node4 -->
<g id="edge15" class="edge">
<title>Node8&#45;&gt;Node4</title>
<path fill="none" stroke="midnightblue" d="M992.67,-204.04C985.03,-201.69 977.33,-199.31 970,-197 897.43,-174.15 812.4,-146 769.06,-131.55"/>
<polygon fill="midnightblue" stroke="midnightblue" points="991.69,-207.4 1002.27,-206.97 993.73,-200.7 991.69,-207.4"/>
</g>
<!-- Node8&#45;&gt;Node6 -->
<g id="edge16" class="edge">
<title>Node8&#45;&gt;Node6</title>
<path fill="none" stroke="midnightblue" d="M1147.41,-228.75C1156.01,-228.74 1164.59,-228.64 1172.85,-228.47"/>
<polygon fill="midnightblue" stroke="midnightblue" points="1147.32,-225.25 1137.31,-228.73 1147.3,-232.25 1147.32,-225.25"/>
</g>
<!-- Node8&#45;&gt;Node8 -->
<g id="edge14" class="edge">
<title>Node8&#45;&gt;Node8</title>
<path fill="none" stroke="midnightblue" d="M1081.22,-247.46C1077.78,-252.18 1068.54,-255.5 1053.5,-255.5 1028.82,-255.5 1019.76,-246.56 1026.31,-237.16"/>
<polygon fill="midnightblue" stroke="midnightblue" points="1084.7,-246.96 1080.69,-237.16 1077.71,-247.33 1084.7,-246.96"/>
</g>
<!-- Node8&#45;&gt;Node9 -->
<g id="edge17" class="edge">
<title>Node8&#45;&gt;Node9</title>
<path fill="none" stroke="midnightblue" d="M959.47,-222C950.62,-222 942.05,-222 934.25,-222"/>
<polygon fill="midnightblue" stroke="midnightblue" points="959.55,-225.5 969.55,-222 959.55,-218.5 959.55,-225.5"/>
</g>
<!-- Node9&#45;&gt;Node4 -->
<g id="edge23" class="edge">
<title>Node9&#45;&gt;Node4</title>
<path fill="none" stroke="midnightblue" d="M874.76,-206.32C860.46,-195.71 840.87,-181.57 823,-170 801.16,-155.86 775.08,-141.01 758.17,-131.64"/>
<polygon fill="midnightblue" stroke="midnightblue" points="872.82,-209.24 882.92,-212.42 877.01,-203.63 872.82,-209.24"/>
</g>
<!-- Node9&#45;&gt;Node9 -->
<g id="edge24" class="edge">
<title>Node9&#45;&gt;Node9</title>
<path fill="none" stroke="midnightblue" d="M925.62,-240.65C924.4,-245.94 914.7,-250 896.5,-250 868.77,-250 860.76,-240.57 872.46,-231.76"/>
<polygon fill="midnightblue" stroke="midnightblue" points="928.54,-238.71 920.54,-231.76 922.46,-242.18 928.54,-238.71"/>
</g>
<!-- Node10 -->
<g id="node10" class="node">
<title>Node10</title>
<g id="a_node10"><a xlink:href="classrare_1_1components_1_1tabs_1_1games_1_1cloud__save__utils_1_1_cloud_save_utils.html#a970c7d031af196eae774c1e0fa78daab" target="_top" xlink:title=" ">
<polygon fill="white" stroke="black" points="203,-255.5 203,-296.5 370,-296.5 370,-255.5 203,-255.5"/>
<text text-anchor="start" x="211" y="-284.5" font-family="Helvetica,sans-Serif" font-size="10.00">rare.components.tabs.games.cloud</text>
<text text-anchor="start" x="211" y="-273.5" font-family="Helvetica,sans-Serif" font-size="10.00">_save_utils.CloudSaveUtils.game</text>
<text text-anchor="middle" x="286.5" y="-262.5" font-family="Helvetica,sans-Serif" font-size="10.00">_finished</text>
</a>
</g>
</g>
<!-- Node9&#45;&gt;Node10 -->
<g id="edge18" class="edge">
<title>Node9&#45;&gt;Node10</title>
<path fill="none" stroke="midnightblue" d="M861.91,-235.27C849.78,-239.73 835.9,-244.47 823,-248 643.46,-297.12 591.94,-295.61 406,-287 394.44,-286.46 382.27,-285.64 370.31,-284.67"/>
<polygon fill="midnightblue" stroke="midnightblue" points="863.5,-238.41 871.63,-231.61 861.04,-231.86 863.5,-238.41"/>
</g>
<!-- Node11 -->
<g id="node11" class="node">
<title>Node11</title>
<g id="a_node11"><a xlink:href="classrare_1_1components_1_1tabs_1_1games_1_1cloud__save__utils_1_1_cloud_save_utils.html#a305cbdbdf1c59aacea30610a562ac40d" target="_top" xlink:title=" ">
<polygon fill="white" stroke="black" points="656,-179.5 656,-220.5 823,-220.5 823,-179.5 656,-179.5"/>
<text text-anchor="start" x="664" y="-208.5" font-family="Helvetica,sans-Serif" font-size="10.00">rare.components.tabs.games.cloud</text>
<text text-anchor="start" x="664" y="-197.5" font-family="Helvetica,sans-Serif" font-size="10.00">_save_utils.CloudSaveUtils.worker</text>
<text text-anchor="middle" x="739.5" y="-186.5" font-family="Helvetica,sans-Serif" font-size="10.00">_finished</text>
</a>
</g>
</g>
<!-- Node9&#45;&gt;Node11 -->
<g id="edge25" class="edge">
<title>Node9&#45;&gt;Node11</title>
<path fill="none" stroke="midnightblue" d="M848.76,-215.37C840.61,-214.21 831.91,-212.97 823.12,-211.73"/>
<polygon fill="midnightblue" stroke="midnightblue" points="848.37,-218.85 858.77,-216.79 849.36,-211.92 848.37,-218.85"/>
</g>
<!-- Node10&#45;&gt;Node1 -->
<g id="edge21" class="edge">
<title>Node10&#45;&gt;Node1</title>
<path fill="none" stroke="midnightblue" d="M329.48,-301.52C351.52,-313.81 379.41,-327.64 406,-336 548.38,-380.76 589.25,-383 738.5,-383 1238.5,-383 1238.5,-383 1238.5,-383 1342.04,-383 1444.97,-293 1476.62,-262.77"/>
<polygon fill="midnightblue" stroke="midnightblue" points="331.15,-298.45 320.72,-296.55 327.69,-304.53 331.15,-298.45"/>
</g>
<!-- Node10&#45;&gt;Node2 -->
<g id="edge19" class="edge">
<title>Node10&#45;&gt;Node2</title>
<path fill="none" stroke="midnightblue" d="M250.33,-249.05C210.76,-218.74 147.36,-170.16 111.5,-142.69"/>
<polygon fill="midnightblue" stroke="midnightblue" points="248.33,-251.93 258.39,-255.23 252.58,-246.37 248.33,-251.93"/>
</g>
<!-- Node10&#45;&gt;Node3 -->
<g id="edge22" class="edge">
<title>Node10&#45;&gt;Node3</title>
<path fill="none" stroke="midnightblue" d="M380.03,-298.56C470.75,-318.69 613.29,-345 738.5,-345 1054.5,-345 1054.5,-345 1054.5,-345 1167.28,-345 1195.79,-326.94 1302,-289 1321.87,-281.9 1343.35,-270.65 1357.63,-262.62"/>
<polygon fill="midnightblue" stroke="midnightblue" points="380.57,-295.1 370.04,-296.33 379.04,-301.93 380.57,-295.1"/>
</g>
<!-- Node10&#45;&gt;Node10 -->
<g id="edge20" class="edge">
<title>Node10&#45;&gt;Node10</title>
<path fill="none" stroke="midnightblue" d="M321.25,-306.86C316.08,-311.7 304.5,-315 286.5,-315 257.7,-315 245.32,-306.54 249.37,-296.86"/>
<polygon fill="midnightblue" stroke="midnightblue" points="324.72,-307.4 323.63,-296.86 317.91,-305.78 324.72,-307.4"/>
</g>
<!-- Node11&#45;&gt;Node11 -->
<g id="edge37" class="edge">
<title>Node11&#45;&gt;Node11</title>
<path fill="none" stroke="midnightblue" d="M766.34,-230.86C762.35,-235.7 753.4,-239 739.5,-239 717.26,-239 707.7,-230.54 710.83,-220.86"/>
<polygon fill="midnightblue" stroke="midnightblue" points="769.81,-231.33 768.17,-220.86 762.92,-230.07 769.81,-231.33"/>
</g>
<!-- Node12 -->
<g id="node12" class="node">
<title>Node12</title>
<g id="a_node12"><a xlink:href="classrare_1_1components_1_1tabs_1_1settings_1_1widgets_1_1ubisoft__activation_1_1_ubi_link_widget.html#a8f9705707225e3a806138596d5edae0d" target="_top" xlink:title=" ">
<polygon fill="white" stroke="black" points="406,-163 406,-193 620,-193 620,-163 406,-163"/>
<text text-anchor="start" x="414" y="-181" font-family="Helvetica,sans-Serif" font-size="10.00">rare.components.tabs.settings.widgets.ubisoft</text>
<text text-anchor="middle" x="513" y="-170" font-family="Helvetica,sans-Serif" font-size="10.00">_activation.UbiLinkWidget.activate</text>
</a>
</g>
</g>
<!-- Node11&#45;&gt;Node12 -->
<g id="edge26" class="edge">
<title>Node11&#45;&gt;Node12</title>
<path fill="none" stroke="midnightblue" d="M645.68,-190.9C637.26,-190.08 628.68,-189.24 620.16,-188.4"/>
<polygon fill="midnightblue" stroke="midnightblue" points="645.57,-194.41 655.86,-191.9 646.25,-187.44 645.57,-194.41"/>
</g>
<!-- Node13 -->
<g id="node13" class="node">
<title>Node13</title>
<g id="a_node13"><a xlink:href="classrare_1_1components_1_1tabs_1_1games_1_1cloud__save__utils_1_1_cloud_save_utils.html#a398a7b51391d4f2b1854e3d8cda2f9a3" target="_top" xlink:title=" ">
<polygon fill="white" stroke="black" points="407.5,-96 407.5,-126 618.5,-126 618.5,-96 407.5,-96"/>
<text text-anchor="start" x="415.5" y="-114" font-family="Helvetica,sans-Serif" font-size="10.00">rare.components.tabs.games.cloud</text>
<text text-anchor="middle" x="513" y="-103" font-family="Helvetica,sans-Serif" font-size="10.00">_save_utils.CloudSaveUtils.download_saves</text>
</a>
</g>
</g>
<!-- Node11&#45;&gt;Node13 -->
<g id="edge28" class="edge">
<title>Node11&#45;&gt;Node13</title>
<path fill="none" stroke="midnightblue" d="M677.16,-175.67C658.78,-168.38 638.57,-160.36 620,-153 597.55,-144.1 572.42,-134.14 552.27,-126.16"/>
<polygon fill="midnightblue" stroke="midnightblue" points="676,-178.97 686.59,-179.41 678.58,-172.47 676,-178.97"/>
</g>
<!-- Node15 -->
<g id="node15" class="node">
<title>Node15</title>
<g id="a_node15"><a xlink:href="classrare_1_1components_1_1tabs_1_1games_1_1cloud__save__utils_1_1_cloud_save_utils.html#aabe920f2c8b262a0d16df2ef0ceafad8" target="_top" xlink:title=" ">
<polygon fill="white" stroke="black" points="414,-230 414,-260 612,-260 612,-230 414,-230"/>
<text text-anchor="start" x="422" y="-248" font-family="Helvetica,sans-Serif" font-size="10.00">rare.components.tabs.games.cloud</text>
<text text-anchor="middle" x="513" y="-237" font-family="Helvetica,sans-Serif" font-size="10.00">_save_utils.CloudSaveUtils.upload_saves</text>
</a>
</g>
</g>
<!-- Node11&#45;&gt;Node15 -->
<g id="edge33" class="edge">
<title>Node11&#45;&gt;Node15</title>
<path fill="none" stroke="midnightblue" d="M646.02,-218.54C627.05,-222.34 607.3,-226.3 589.04,-229.96"/>
<polygon fill="midnightblue" stroke="midnightblue" points="646.74,-221.96 655.86,-216.56 645.37,-215.1 646.74,-221.96"/>
</g>
<!-- Node12&#45;&gt;Node12 -->
<g id="edge27" class="edge">
<title>Node12&#45;&gt;Node12</title>
<path fill="none" stroke="midnightblue" d="M553.16,-203.46C548.17,-208.18 534.79,-211.5 513,-211.5 477.25,-211.5 464.12,-202.56 473.61,-193.16"/>
<polygon fill="midnightblue" stroke="midnightblue" points="556.62,-202.87 552.39,-193.16 549.64,-203.39 556.62,-202.87"/>
</g>
<!-- Node13&#45;&gt;Node10 -->
<g id="edge30" class="edge">
<title>Node13&#45;&gt;Node10</title>
<path fill="none" stroke="midnightblue" d="M451.94,-129.67C436.31,-135.87 419.96,-143.64 406,-153 394.52,-160.7 336.87,-222.46 306.42,-255.43"/>
<polygon fill="midnightblue" stroke="midnightblue" points="453.45,-132.84 461.55,-126.01 450.96,-126.3 453.45,-132.84"/>
</g>
<!-- Node13&#45;&gt;Node13 -->
<g id="edge29" class="edge">
<title>Node13&#45;&gt;Node13</title>
<path fill="none" stroke="midnightblue" d="M553.16,-136.46C548.17,-141.18 534.79,-144.5 513,-144.5 477.25,-144.5 464.12,-135.56 473.61,-126.16"/>
<polygon fill="midnightblue" stroke="midnightblue" points="556.62,-135.87 552.39,-126.16 549.64,-136.39 556.62,-135.87"/>
</g>
<!-- Node14 -->
<g id="node14" class="node">
<title>Node14</title>
<g id="a_node14"><a xlink:href="classrare_1_1components_1_1tabs_1_1games_1_1cloud__save__utils_1_1_cloud_save_utils.html#abb078ea24f03a8b8317000d4af7416de" target="_top" xlink:title=" ">
<polygon fill="white" stroke="black" points="203,-118.5 203,-159.5 370,-159.5 370,-118.5 203,-118.5"/>
<text text-anchor="start" x="211" y="-147.5" font-family="Helvetica,sans-Serif" font-size="10.00">rare.components.tabs.games.cloud</text>
<text text-anchor="start" x="211" y="-136.5" font-family="Helvetica,sans-Serif" font-size="10.00">_save_utils.CloudSaveUtils.sync</text>
<text text-anchor="middle" x="286.5" y="-125.5" font-family="Helvetica,sans-Serif" font-size="10.00">_before_launch_game</text>
</a>
</g>
</g>
<!-- Node13&#45;&gt;Node14 -->
<g id="edge31" class="edge">
<title>Node13&#45;&gt;Node14</title>
<path fill="none" stroke="midnightblue" d="M397.36,-125.3C388.2,-126.44 379.05,-127.58 370.17,-128.69"/>
<polygon fill="midnightblue" stroke="midnightblue" points="397.82,-128.77 407.31,-124.06 396.95,-121.82 397.82,-128.77"/>
</g>
<!-- Node14&#45;&gt;Node14 -->
<g id="edge32" class="edge">
<title>Node14&#45;&gt;Node14</title>
<path fill="none" stroke="midnightblue" d="M321.25,-169.86C316.08,-174.7 304.5,-178 286.5,-178 257.7,-178 245.32,-169.54 249.37,-159.86"/>
<polygon fill="midnightblue" stroke="midnightblue" points="324.72,-170.4 323.63,-159.86 317.91,-168.78 324.72,-170.4"/>
</g>
<!-- Node15&#45;&gt;Node10 -->
<g id="edge34" class="edge">
<title>Node15&#45;&gt;Node10</title>
<path fill="none" stroke="midnightblue" d="M403.88,-259.93C392.49,-261.5 381.04,-263.08 370.01,-264.61"/>
<polygon fill="midnightblue" stroke="midnightblue" points="404.43,-263.39 413.86,-258.55 403.47,-256.45 404.43,-263.39"/>
</g>
<!-- Node15&#45;&gt;Node14 -->
<g id="edge35" class="edge">
<title>Node15&#45;&gt;Node14</title>
<path fill="none" stroke="midnightblue" d="M423.9,-226.9C417.76,-224.82 411.73,-222.53 406,-220 370.66,-204.41 334.68,-178 311.78,-159.59"/>
<polygon fill="midnightblue" stroke="midnightblue" points="423.04,-230.3 433.63,-229.99 425.16,-223.63 423.04,-230.3"/>
</g>
<!-- Node15&#45;&gt;Node15 -->
<g id="edge36" class="edge">
<title>Node15&#45;&gt;Node15</title>
<path fill="none" stroke="midnightblue" d="M553.16,-270.46C548.17,-275.18 534.79,-278.5 513,-278.5 477.25,-278.5 464.12,-269.56 473.61,-260.16"/>
<polygon fill="midnightblue" stroke="midnightblue" points="556.62,-269.87 552.39,-260.16 549.64,-270.39 556.62,-269.87"/>
</g>
</g>
</svg>
        <g id="navigator" transform="translate(0 0)" fill="#404254">
                <rect fill="#f2f5e9" fill-opacity="0.5" stroke="#606060" stroke-width=".5" x="0" y="0" width="60" height="60"/>
                <use id="zoomplus" xlink:href="#zoomPlus" x="17" y="9" onmousedown="handleZoom(evt,'in')"/>
                <use id="zoomminus" xlink:href="#zoomMin" x="42" y="9" onmousedown="handleZoom(evt,'out')"/>
                <use id="reset" xlink:href="#resetDef" x="30" y="36" onmousedown="handleReset()"/>
                <g id="arrowUp" xlink:href="#dirArrow" transform="translate(30 24)" onmousedown="handlePan(0,-1)">
                  <use xlink:href="#rim" fill="#404040">
                        <set attributeName="fill" to="#808080" begin="arrowUp.mouseover" end="arrowUp.mouseout"/>
                  </use>
                  <path fill="none" stroke="white" stroke-width="1.5" d="M0,-3.0v7 M-2.5,-0.5L0,-3.0L2.5,-0.5"/>
                </g>
                <g id="arrowRight" xlink:href="#dirArrow" transform="rotate(90) translate(36 -43)" onmousedown="handlePan(1,0)">
                  <use xlink:href="#rim" fill="#404040">
                        <set attributeName="fill" to="#808080" begin="arrowRight.mouseover" end="arrowRight.mouseout"/>
                  </use>
                  <path fill="none" stroke="white" stroke-width="1.5" d="M0,-3.0v7 M-2.5,-0.5L0,-3.0L2.5,-0.5"/>
                </g>
                <g id="arrowDown" xlink:href="#dirArrow" transform="rotate(180) translate(-30 -48)" onmousedown="handlePan(0,1)">
                  <use xlink:href="#rim" fill="#404040">
                        <set attributeName="fill" to="#808080" begin="arrowDown.mouseover" end="arrowDown.mouseout"/>
                  </use>
                  <path fill="none" stroke="white" stroke-width="1.5" d="M0,-3.0v7 M-2.5,-0.5L0,-3.0L2.5,-0.5"/>
                </g>
                <g id="arrowLeft" xlink:href="#dirArrow" transform="rotate(270) translate(-36 17)" onmousedown="handlePan(-1,0)">
                  <use xlink:href="#rim" fill="#404040">
                        <set attributeName="fill" to="#808080" begin="arrowLeft.mouseover" end="arrowLeft.mouseout"/>
                  </use>
                  <path fill="none" stroke="white" stroke-width="1.5" d="M0,-3.0v7 M-2.5,-0.5L0,-3.0L2.5,-0.5"/>
                </g>
        </g>
        <svg viewBox="0 0 15 15" width="100%" height="30px" preserveAspectRatio="xMaxYMin meet">
         <g id="arrow_out" transform="scale(0.3 0.3)">
          <a xlink:href="classrare_1_1components_1_1tabs_1_1games_1_1game__utils_1_1_game_utils_a1ff6997393d84b07e97a057126c415f7_icgraph_org.svg" target="_base">
           <rect id="button" ry="5" rx="5" y="6" x="6" height="38" width="38"
                fill="#f2f5e9" fill-opacity="0.5" stroke="#606060" stroke-width="1.0"/>
           <path id="arrow"
             d="M 11.500037,31.436501 C 11.940474,20.09759 22.043105,11.32322 32.158766,21.979434 L 37.068811,17.246167 C 37.068811,17.246167 37.088388,32 37.088388,32 L 22.160133,31.978069 C 22.160133,31.978069 26.997745,27.140456 26.997745,27.140456 C 18.528582,18.264221 13.291696,25.230495 11.500037,31.436501 z"
             style="fill:#404040;"/>
          </a>
         </g>
        </svg>
</svg>
