<?xml version="1.0" encoding="UTF-8" standalone="no"?>
<!DOCTYPE svg PUBLIC "-//W3C//DTD SVG 1.1//EN"
 "http://www.w3.org/Graphics/SVG/1.1/DTD/svg11.dtd">
<!-- Generated by graphviz version 2.49.3 (20211027.1534)
 -->
<!-- Title: update_check_enabled Pages: 1 -->
<svg width="328pt" height="46pt"
 viewBox="0.00 0.00 328.00 46.00" xmlns="http://www.w3.org/2000/svg" xmlns:xlink="http://www.w3.org/1999/xlink">
<g id="graph0" class="graph" transform="scale(1 1) rotate(0) translate(4 42)">
<title>update_check_enabled</title>
<polygon fill="white" stroke="transparent" points="-4,4 -4,-42 324,-42 324,4 -4,4"/>
<!-- Node1 -->
<g id="node1" class="node">
<title>Node1</title>
<g id="a_node1"><a xlink:title=" ">
<polygon fill="#bfbfbf" stroke="black" points="204,-0.5 204,-19.5 320,-19.5 320,-0.5 204,-0.5"/>
<text text-anchor="middle" x="262" y="-7.5" font-family="Helvetica,sans-Serif" font-size="10.00">update_check_enabled</text>
</a>
</g>
</g>
<!-- Node1&#45;&gt;Node1 -->
<g id="edge5" class="edge">
<title>Node1&#45;&gt;Node1</title>
<path fill="none" stroke="midnightblue" d="M282.74,-29.4C281.35,-34.31 274.44,-38 262,-38 242.09,-38 236.34,-28.57 244.74,-19.76"/>
<polygon fill="midnightblue" stroke="midnightblue" points="285.95,-27.98 279.26,-19.76 279.36,-30.35 285.95,-27.98"/>
</g>
<!-- Node2 -->
<g id="node2" class="node">
<title>Node2</title>
<g id="a_node2"><a xlink:href="classlegendary_1_1core_1_1_legendary_core.html#a80a797322a3dcfa24c8c0c739a517e57" target="_top" xlink:title="Attempts logging in with existing credentials.">
<polygon fill="white" stroke="black" points="131,-0.5 131,-19.5 168,-19.5 168,-0.5 131,-0.5"/>
<text text-anchor="middle" x="149.5" y="-7.5" font-family="Helvetica,sans-Serif" font-size="10.00">login</text>
</a>
</g>
</g>
<!-- Node1&#45;&gt;Node2 -->
<g id="edge1" class="edge">
<title>Node1&#45;&gt;Node2</title>
<path fill="none" stroke="midnightblue" d="M193.65,-10C184.41,-10 175.65,-10 168.47,-10"/>
<polygon fill="midnightblue" stroke="midnightblue" points="193.81,-13.5 203.81,-10 193.81,-6.5 193.81,-13.5"/>
</g>
<!-- Node2&#45;&gt;Node2 -->
<g id="edge2" class="edge">
<title>Node2&#45;&gt;Node2</title>
<path fill="none" stroke="midnightblue" d="M168.39,-29.4C167.13,-34.31 160.83,-38 149.5,-38 131.37,-38 126.13,-28.57 133.78,-19.76"/>
<polygon fill="midnightblue" stroke="midnightblue" points="171.67,-28.17 165.22,-19.76 165.02,-30.35 171.67,-28.17"/>
</g>
<!-- Node3 -->
<g id="node3" class="node">
<title>Node3</title>
<g id="a_node3"><a xlink:href="classlegendary_1_1core_1_1_legendary_core.html#a305f6de8f6046ca1e04347e08f0bf62d" target="_top" xlink:title=" ">
<polygon fill="white" stroke="black" points="0,-0.5 0,-19.5 95,-19.5 95,-0.5 0,-0.5"/>
<text text-anchor="middle" x="47.5" y="-7.5" font-family="Helvetica,sans-Serif" font-size="10.00">prepare_download</text>
</a>
</g>
</g>
<!-- Node2&#45;&gt;Node3 -->
<g id="edge3" class="edge">
<title>Node2&#45;&gt;Node3</title>
<path fill="none" stroke="midnightblue" d="M120.6,-10C112.76,-10 104.02,-10 95.41,-10"/>
<polygon fill="midnightblue" stroke="midnightblue" points="120.62,-13.5 130.62,-10 120.62,-6.5 120.62,-13.5"/>
</g>
<!-- Node3&#45;&gt;Node3 -->
<g id="edge4" class="edge">
<title>Node3&#45;&gt;Node3</title>
<path fill="none" stroke="midnightblue" d="M66.39,-29.4C65.13,-34.31 58.83,-38 47.5,-38 29.37,-38 24.13,-28.57 31.78,-19.76"/>
<polygon fill="midnightblue" stroke="midnightblue" points="69.67,-28.17 63.22,-19.76 63.02,-30.35 69.67,-28.17"/>
</g>
</g>
</svg>
