<?xml version="1.0" encoding="UTF-8" standalone="no"?>
<!DOCTYPE svg PUBLIC "-//W3C//DTD SVG 1.1//EN"
 "http://www.w3.org/Graphics/SVG/1.1/DTD/svg11.dtd">
<!-- Generated by graphviz version 2.49.3 (20211027.1534)
 -->
<!-- Title: InstallInfoWorker Pages: 1 -->
<svg width="98pt" height="331pt"
 viewBox="0.00 0.00 98.00 331.00" xmlns="http://www.w3.org/2000/svg" xmlns:xlink="http://www.w3.org/1999/xlink">
<g id="graph0" class="graph" transform="scale(1 1) rotate(0) translate(4 327)">
<title>InstallInfoWorker</title>
<polygon fill="white" stroke="transparent" points="-4,4 -4,-327 94,-327 94,4 -4,4"/>
<!-- Node1 -->
<g id="node1" class="node">
<title>Node1</title>
<g id="a_node1"><a xlink:title=" ">
<polygon fill="#bfbfbf" stroke="black" points="0,-0.5 0,-90.5 90,-90.5 90,-0.5 0,-0.5"/>
<text text-anchor="middle" x="45" y="-78.5" font-family="Helvetica,sans-Serif" font-size="10.00">InstallInfoWorker</text>
<polyline fill="none" stroke="black" points="0,-71.5 90,-71.5 "/>
<text text-anchor="start" x="8" y="-59.5" font-family="Helvetica,sans-Serif" font-size="10.00">+ signals</text>
<text text-anchor="start" x="8" y="-48.5" font-family="Helvetica,sans-Serif" font-size="10.00">+ core</text>
<text text-anchor="start" x="8" y="-37.5" font-family="Helvetica,sans-Serif" font-size="10.00">+ options</text>
<polyline fill="none" stroke="black" points="0,-30.5 90,-30.5 "/>
<text text-anchor="start" x="8" y="-18.5" font-family="Helvetica,sans-Serif" font-size="10.00">+ __init__()</text>
<text text-anchor="start" x="8" y="-7.5" font-family="Helvetica,sans-Serif" font-size="10.00">+ run_real()</text>
</a>
</g>
</g>
<!-- Node2 -->
<g id="node2" class="node">
<title>Node2</title>
<g id="a_node2"><a xlink:href="classrare_1_1shared_1_1workers_1_1worker_1_1_worker.html" target="_top" xlink:title="Base QRunnable class.">
<polygon fill="white" stroke="black" points="12.5,-127.5 12.5,-228.5 77.5,-228.5 77.5,-127.5 12.5,-127.5"/>
<text text-anchor="middle" x="45" y="-216.5" font-family="Helvetica,sans-Serif" font-size="10.00">Worker</text>
<polyline fill="none" stroke="black" points="12.5,-209.5 77.5,-209.5 "/>
<text text-anchor="middle" x="45" y="-197.5" font-family="Helvetica,sans-Serif" font-size="10.00"> </text>
<polyline fill="none" stroke="black" points="12.5,-190.5 77.5,-190.5 "/>
<text text-anchor="start" x="20.5" y="-178.5" font-family="Helvetica,sans-Serif" font-size="10.00">+ __init__()</text>
<text text-anchor="start" x="20.5" y="-167.5" font-family="Helvetica,sans-Serif" font-size="10.00">+ signals()</text>
<text text-anchor="start" x="20.5" y="-156.5" font-family="Helvetica,sans-Serif" font-size="10.00">+ signals()</text>
<text text-anchor="start" x="20.5" y="-145.5" font-family="Helvetica,sans-Serif" font-size="10.00">+ run_real()</text>
<text text-anchor="start" x="20.5" y="-134.5" font-family="Helvetica,sans-Serif" font-size="10.00">+ run()</text>
</a>
</g>
</g>
<!-- Node2&#45;&gt;Node1 -->
<g id="edge1" class="edge">
<title>Node2&#45;&gt;Node1</title>
<path fill="none" stroke="midnightblue" d="M45,-117.23C45,-108.24 45,-99.1 45,-90.52"/>
<polygon fill="none" stroke="midnightblue" points="41.5,-117.29 45,-127.29 48.5,-117.29 41.5,-117.29"/>
</g>
<!-- Node3 -->
<g id="node3" class="node">
<title>Node3</title>
<g id="a_node3"><a xlink:title=" ">
<polygon fill="white" stroke="#bfbfbf" points="12.5,-265.5 12.5,-322.5 77.5,-322.5 77.5,-265.5 12.5,-265.5"/>
<text text-anchor="middle" x="45" y="-310.5" font-family="Helvetica,sans-Serif" font-size="10.00">QRunnable</text>
<polyline fill="none" stroke="#bfbfbf" points="12.5,-303.5 77.5,-303.5 "/>
<text text-anchor="middle" x="45" y="-291.5" font-family="Helvetica,sans-Serif" font-size="10.00"> </text>
<polyline fill="none" stroke="#bfbfbf" points="12.5,-284.5 77.5,-284.5 "/>
<text text-anchor="middle" x="45" y="-272.5" font-family="Helvetica,sans-Serif" font-size="10.00"> </text>
</a>
</g>
</g>
<!-- Node3&#45;&gt;Node2 -->
<g id="edge2" class="edge">
<title>Node3&#45;&gt;Node2</title>
<path fill="none" stroke="midnightblue" d="M45,-255.35C45,-246.8 45,-237.58 45,-228.61"/>
<polygon fill="none" stroke="midnightblue" points="41.5,-255.4 45,-265.4 48.5,-255.4 41.5,-255.4"/>
</g>
</g>
</svg>
