<?xml version="1.0" encoding="UTF-8" standalone="no"?>
<!DOCTYPE svg PUBLIC "-//W3C//DTD SVG 1.1//EN"
 "http://www.w3.org/Graphics/SVG/1.1/DTD/svg11.dtd">
<!-- Generated by graphviz version 2.49.3 (20211027.1534)
 -->
<!-- Title: get Pages: 1 -->
<svg width="172pt" height="46pt"
 viewBox="0.00 0.00 172.15 46.00" xmlns="http://www.w3.org/2000/svg" xmlns:xlink="http://www.w3.org/1999/xlink">
<g id="graph0" class="graph" transform="scale(1 1) rotate(0) translate(4 42)">
<title>get</title>
<polygon fill="white" stroke="transparent" points="-4,4 -4,-42 168.15,-42 168.15,4 -4,4"/>
<!-- Node1 -->
<g id="node1" class="node">
<title>Node1</title>
<g id="a_node1"><a xlink:title=" ">
<polygon fill="#bfbfbf" stroke="black" points="131,-0.5 131,-19.5 161,-19.5 161,-0.5 131,-0.5"/>
<text text-anchor="middle" x="146" y="-7.5" font-family="Helvetica,sans-Serif" font-size="10.00">get</text>
</a>
</g>
</g>
<!-- Node1&#45;&gt;Node1 -->
<g id="edge1" class="edge">
<title>Node1&#45;&gt;Node1</title>
<path fill="none" stroke="midnightblue" d="M164.15,-29.4C162.94,-34.31 156.89,-38 146,-38 128.58,-38 123.55,-28.57 130.9,-19.76"/>
<polygon fill="midnightblue" stroke="midnightblue" points="167.45,-28.24 161.1,-19.76 160.78,-30.35 167.45,-28.24"/>
</g>
<!-- Node2 -->
<g id="node2" class="node">
<title>Node2</title>
<g id="a_node2"><a xlink:href="classrare_1_1utils_1_1workarounds_1_1_workarounds.html#ad3fc5e829e46a9bf8825ef113555017a" target="_top" xlink:title=" ">
<polygon fill="white" stroke="black" points="0,-0.5 0,-19.5 95,-19.5 95,-0.5 0,-0.5"/>
<text text-anchor="middle" x="47.5" y="-7.5" font-family="Helvetica,sans-Serif" font-size="10.00">load_workarounds</text>
</a>
</g>
</g>
<!-- Node1&#45;&gt;Node2 -->
<g id="edge2" class="edge">
<title>Node1&#45;&gt;Node2</title>
<path fill="none" stroke="midnightblue" d="M120.6,-4.04C112.81,-3.48 103.91,-3.22 95.08,-3.25"/>
<polygon fill="midnightblue" stroke="midnightblue" points="120.47,-7.55 130.76,-5.04 121.15,-0.58 120.47,-7.55"/>
</g>
<!-- Node2&#45;&gt;Node1 -->
<g id="edge3" class="edge">
<title>Node2&#45;&gt;Node1</title>
<path fill="none" stroke="midnightblue" d="M105.09,-16.66C114.61,-16.45 123.68,-15.88 130.76,-14.96"/>
<polygon fill="midnightblue" stroke="midnightblue" points="105.05,-13.16 95.08,-16.75 105.11,-20.16 105.05,-13.16"/>
</g>
<!-- Node2&#45;&gt;Node2 -->
<g id="edge4" class="edge">
<title>Node2&#45;&gt;Node2</title>
<path fill="none" stroke="midnightblue" d="M65.65,-29.4C64.44,-34.31 58.39,-38 47.5,-38 30.08,-38 25.05,-28.57 32.4,-19.76"/>
<polygon fill="midnightblue" stroke="midnightblue" points="68.95,-28.24 62.6,-19.76 62.28,-30.35 68.95,-28.24"/>
</g>
</g>
</svg>
