<?xml version="1.0" encoding="UTF-8" standalone="no"?>
<!DOCTYPE svg PUBLIC "-//W3C//DTD SVG 1.1//EN"
 "http://www.w3.org/Graphics/SVG/1.1/DTD/svg11.dtd">
<!-- Generated by graphviz version 2.49.3 (20211027.1534)
 -->
<!-- Title: get_cached_version Pages: 1 -->
<svg width="484pt" height="258pt"
 viewBox="0.00 0.00 484.00 258.00" xmlns="http://www.w3.org/2000/svg" xmlns:xlink="http://www.w3.org/1999/xlink">
<g id="graph0" class="graph" transform="scale(1 1) rotate(0) translate(4 254)">
<title>get_cached_version</title>
<polygon fill="white" stroke="transparent" points="-4,4 -4,-254 480,-254 480,4 -4,4"/>
<!-- Node1 -->
<g id="node1" class="node">
<title>Node1</title>
<g id="a_node1"><a xlink:title=" ">
<polygon fill="#bfbfbf" stroke="black" points="0,-140 0,-159 104,-159 104,-140 0,-140"/>
<text text-anchor="middle" x="52" y="-147" font-family="Helvetica,sans-Serif" font-size="10.00">get_cached_version</text>
</a>
</g>
</g>
<!-- Node1&#45;&gt;Node1 -->
<g id="edge1" class="edge">
<title>Node1&#45;&gt;Node1</title>
<path fill="none" stroke="midnightblue" d="M27.03,-159.26C14.88,-168.07 23.21,-177.5 52,-177.5 71.35,-177.5 81.45,-173.24 82.31,-167.77"/>
<polygon fill="midnightblue" stroke="midnightblue" points="85.25,-165.87 76.97,-159.26 79.32,-169.59 85.25,-165.87"/>
</g>
<!-- Node2 -->
<g id="node2" class="node">
<title>Node2</title>
<g id="a_node2"><a xlink:href="classrare_1_1components_1_1extra_1_1console_1_1_console.html#a4db0e98c238d6a69bdbf4b8cc59be732" target="_top" xlink:title=" ">
<polygon fill="white" stroke="black" points="140,-201.5 140,-231.5 290,-231.5 290,-201.5 140,-201.5"/>
<text text-anchor="start" x="148" y="-219.5" font-family="Helvetica,sans-Serif" font-size="10.00">rare.components.extra.console.</text>
<text text-anchor="middle" x="215" y="-208.5" font-family="Helvetica,sans-Serif" font-size="10.00">Console.log</text>
</a>
</g>
</g>
<!-- Node1&#45;&gt;Node2 -->
<g id="edge2" class="edge">
<title>Node1&#45;&gt;Node2</title>
<path fill="none" stroke="midnightblue" d="M70.65,-159.17C87.98,-168.44 115.34,-182.47 140,-192.5 144.73,-194.42 149.67,-196.3 154.66,-198.11"/>
<polygon fill="midnightblue" stroke="midnightblue" points="153.69,-201.47 164.28,-201.48 156,-194.87 153.69,-201.47"/>
</g>
<!-- Node3 -->
<g id="node3" class="node">
<title>Node3</title>
<g id="a_node3"><a xlink:href="classrare_1_1components_1_1extra_1_1console_1_1_console_edit.html#ac05aadedf6e1be5c365c818989f98d50" target="_top" xlink:title=" ">
<polygon fill="white" stroke="black" points="140,-134.5 140,-164.5 290,-164.5 290,-134.5 140,-134.5"/>
<text text-anchor="start" x="148" y="-152.5" font-family="Helvetica,sans-Serif" font-size="10.00">rare.components.extra.console.</text>
<text text-anchor="middle" x="215" y="-141.5" font-family="Helvetica,sans-Serif" font-size="10.00">ConsoleEdit.log</text>
</a>
</g>
</g>
<!-- Node1&#45;&gt;Node3 -->
<g id="edge4" class="edge">
<title>Node1&#45;&gt;Node3</title>
<path fill="none" stroke="midnightblue" d="M104.38,-149.5C112.52,-149.5 121.11,-149.5 129.77,-149.5"/>
<polygon fill="midnightblue" stroke="midnightblue" points="129.93,-153 139.93,-149.5 129.93,-146 129.93,-153"/>
</g>
<!-- Node5 -->
<g id="node5" class="node">
<title>Node5</title>
<g id="a_node5"><a xlink:href="classlegendary_1_1models_1_1manifest_1_1_chunk_info.html#a6b1e32f2c123c71cc748a37d174cbd0a" target="_top" xlink:title=" ">
<polygon fill="white" stroke="black" points="148,-67.5 148,-97.5 282,-97.5 282,-67.5 148,-67.5"/>
<text text-anchor="start" x="156" y="-85.5" font-family="Helvetica,sans-Serif" font-size="10.00">legendary.models.manifest.</text>
<text text-anchor="middle" x="215" y="-74.5" font-family="Helvetica,sans-Serif" font-size="10.00">ChunkInfo.path</text>
</a>
</g>
</g>
<!-- Node1&#45;&gt;Node5 -->
<g id="edge8" class="edge">
<title>Node1&#45;&gt;Node5</title>
<path fill="none" stroke="midnightblue" d="M76.07,-139.9C100.08,-129.91 138.3,-114 168.43,-101.46"/>
<polygon fill="midnightblue" stroke="midnightblue" points="170.02,-104.6 177.9,-97.52 167.33,-98.13 170.02,-104.6"/>
</g>
<!-- Node2&#45;&gt;Node2 -->
<g id="edge3" class="edge">
<title>Node2&#45;&gt;Node2</title>
<path fill="none" stroke="midnightblue" d="M186.77,-231.66C179.96,-241.06 189.37,-250 215,-250 230.62,-250 240.21,-246.68 243.79,-241.96"/>
<polygon fill="midnightblue" stroke="midnightblue" points="247.26,-241.46 243.23,-231.66 240.27,-241.83 247.26,-241.46"/>
</g>
<!-- Node3&#45;&gt;Node3 -->
<g id="edge5" class="edge">
<title>Node3&#45;&gt;Node3</title>
<path fill="none" stroke="midnightblue" d="M186.77,-164.66C179.96,-174.06 189.37,-183 215,-183 230.62,-183 240.21,-179.68 243.79,-174.96"/>
<polygon fill="midnightblue" stroke="midnightblue" points="247.26,-174.46 243.23,-164.66 240.27,-174.83 247.26,-174.46"/>
</g>
<!-- Node4 -->
<g id="node4" class="node">
<title>Node4</title>
<g id="a_node4"><a xlink:href="classrare_1_1components_1_1extra_1_1console_1_1_console_edit.html#ad89ca21019805240d01e41fe61cdbb56" target="_top" xlink:title=" ">
<polygon fill="white" stroke="black" points="326,-134.5 326,-164.5 476,-164.5 476,-134.5 326,-134.5"/>
<text text-anchor="start" x="334" y="-152.5" font-family="Helvetica,sans-Serif" font-size="10.00">rare.components.extra.console.</text>
<text text-anchor="middle" x="401" y="-141.5" font-family="Helvetica,sans-Serif" font-size="10.00">ConsoleEdit.scroll_to_last_line</text>
</a>
</g>
</g>
<!-- Node3&#45;&gt;Node4 -->
<g id="edge6" class="edge">
<title>Node3&#45;&gt;Node4</title>
<path fill="none" stroke="midnightblue" d="M290.04,-149.5C298.51,-149.5 307.19,-149.5 315.78,-149.5"/>
<polygon fill="midnightblue" stroke="midnightblue" points="315.81,-153 325.81,-149.5 315.81,-146 315.81,-153"/>
</g>
<!-- Node4&#45;&gt;Node4 -->
<g id="edge7" class="edge">
<title>Node4&#45;&gt;Node4</title>
<path fill="none" stroke="midnightblue" d="M368.93,-164.66C361.2,-174.06 371.89,-183 401,-183 418.74,-183 429.64,-179.68 433.69,-174.96"/>
<polygon fill="midnightblue" stroke="midnightblue" points="437.17,-174.43 433.07,-164.66 430.18,-174.85 437.17,-174.43"/>
</g>
<!-- Node5&#45;&gt;Node5 -->
<g id="edge13" class="edge">
<title>Node5&#45;&gt;Node5</title>
<path fill="none" stroke="midnightblue" d="M186.77,-97.66C179.96,-107.06 189.37,-116 215,-116 230.62,-116 240.21,-112.68 243.79,-107.96"/>
<polygon fill="midnightblue" stroke="midnightblue" points="247.26,-107.46 243.23,-97.66 240.27,-107.83 247.26,-107.46"/>
</g>
<!-- Node6 -->
<g id="node6" class="node">
<title>Node6</title>
<g id="a_node6"><a xlink:href="namespacelegendary_1_1models_1_1manifest.html#a221860029661c07ad8ce093079cf09ac" target="_top" xlink:title=" ">
<polygon fill="white" stroke="black" points="327.5,-67.5 327.5,-97.5 474.5,-97.5 474.5,-67.5 327.5,-67.5"/>
<text text-anchor="start" x="335.5" y="-85.5" font-family="Helvetica,sans-Serif" font-size="10.00">legendary.models.manifest.get</text>
<text text-anchor="middle" x="401" y="-74.5" font-family="Helvetica,sans-Serif" font-size="10.00">_chunk_dir</text>
</a>
</g>
</g>
<!-- Node5&#45;&gt;Node6 -->
<g id="edge9" class="edge">
<title>Node5&#45;&gt;Node6</title>
<path fill="none" stroke="midnightblue" d="M282.17,-82.5C293.48,-82.5 305.37,-82.5 317.05,-82.5"/>
<polygon fill="midnightblue" stroke="midnightblue" points="317.25,-86 327.25,-82.5 317.25,-79 317.25,-86"/>
</g>
<!-- Node7 -->
<g id="node7" class="node">
<title>Node7</title>
<g id="a_node7"><a xlink:href="classlegendary_1_1models_1_1manifest_1_1_chunk_info.html#ae98d4cfdc3a64178222b88d61255a5ad" target="_top" xlink:title=" ">
<polygon fill="white" stroke="black" points="334,-0.5 334,-30.5 468,-30.5 468,-0.5 334,-0.5"/>
<text text-anchor="start" x="342" y="-18.5" font-family="Helvetica,sans-Serif" font-size="10.00">legendary.models.manifest.</text>
<text text-anchor="middle" x="401" y="-7.5" font-family="Helvetica,sans-Serif" font-size="10.00">ChunkInfo.group_num</text>
</a>
</g>
</g>
<!-- Node5&#45;&gt;Node7 -->
<g id="edge11" class="edge">
<title>Node5&#45;&gt;Node7</title>
<path fill="none" stroke="midnightblue" d="M257.29,-67.46C284.42,-57.58 320.11,-44.59 349.01,-34.07"/>
<polygon fill="midnightblue" stroke="midnightblue" points="350.33,-37.31 358.53,-30.6 347.93,-30.73 350.33,-37.31"/>
</g>
<!-- Node6&#45;&gt;Node6 -->
<g id="edge10" class="edge">
<title>Node6&#45;&gt;Node6</title>
<path fill="none" stroke="midnightblue" d="M368.93,-97.66C361.2,-107.06 371.89,-116 401,-116 418.74,-116 429.64,-112.68 433.69,-107.96"/>
<polygon fill="midnightblue" stroke="midnightblue" points="437.17,-107.43 433.07,-97.66 430.18,-107.85 437.17,-107.43"/>
</g>
<!-- Node7&#45;&gt;Node7 -->
<g id="edge12" class="edge">
<title>Node7&#45;&gt;Node7</title>
<path fill="none" stroke="midnightblue" d="M368.93,-30.66C361.2,-40.06 371.89,-49 401,-49 418.74,-49 429.64,-45.68 433.69,-40.96"/>
<polygon fill="midnightblue" stroke="midnightblue" points="437.17,-40.43 433.07,-30.66 430.18,-40.85 437.17,-40.43"/>
</g>
</g>
</svg>
