<?xml version="1.0" encoding="UTF-8" standalone="no"?>
<!DOCTYPE svg PUBLIC "-//W3C//DTD SVG 1.1//EN"
 "http://www.w3.org/Graphics/SVG/1.1/DTD/svg11.dtd">
<!-- Generated by graphviz version 2.49.3 (20211027.1534)
 -->
<!-- Title: action Pages: 1 -->
<!--zoomable 1044 -->
<svg id="main" version="1.1" xmlns="http://www.w3.org/2000/svg" xmlns:xlink="http://www.w3.org/1999/xlink" xml:space="preserve" onload="init(evt)">
<style type="text/css"><![CDATA[
.edge:hover path { stroke: red; }
.edge:hover polygon { stroke: red; fill: red; }
]]></style>
<script type="text/javascript"><![CDATA[
var edges = document.getElementsByTagName('g');
if (edges && edges.length) {
  for (var i=0;i<edges.length;i++) {
    if (edges[i].id.substr(0,4)=='edge') {
      edges[i].setAttribute('class','edge');
    }
  }
}
]]></script>
        <defs>
                <circle id="rim" cx="0" cy="0" r="7"/>
                <circle id="rim2" cx="0" cy="0" r="3.5"/>
                <g id="zoomPlus">
                        <use xlink:href="#rim" fill="#404040">
                                <set attributeName="fill" to="#808080" begin="zoomplus.mouseover" end="zoomplus.mouseout"/>
                        </use>
                        <path d="M-4,0h8M0,-4v8" fill="none" stroke="white" stroke-width="1.5" pointer-events="none"/>
                </g>
                <g id="zoomMin">
                        <use xlink:href="#rim" fill="#404040">
                                <set attributeName="fill" to="#808080" begin="zoomminus.mouseover" end="zoomminus.mouseout"/>
                        </use>
                        <path d="M-4,0h8" fill="none" stroke="white" stroke-width="1.5" pointer-events="none"/>
                </g>
                <g id="dirArrow">
                        <path fill="none" stroke="white" stroke-width="1.5" d="M0,-3.0v7 M-2.5,-0.5L0,-3.0L2.5,-0.5"/>
                </g>
               <g id="resetDef">
                       <use xlink:href="#rim2" fill="#404040">
                               <set attributeName="fill" to="#808080" begin="reset.mouseover" end="reset.mouseout"/>
                       </use>
               </g>
        </defs>

<script type="text/javascript">
var viewWidth = 1246;
var viewHeight = 1044;
var sectionId = 'dynsection-4';
</script>
<script xlink:href="svgpan.js"/>
<svg id="graph" class="graph">
<g id="viewport">
<title>action</title>
<polygon fill="white" stroke="transparent" points="-4,4 -4,-1039.62 1242.05,-1039.62 1242.05,4 -4,4"/>
<!-- Node1 -->
<g id="node1" class="node">
<title>Node1</title>
<g id="a_node1"><a xlink:title=" ">
<polygon fill="#bfbfbf" stroke="black" points="5.05,-881.24 5.05,-900.24 48.05,-900.24 48.05,-881.24 5.05,-881.24"/>
<text text-anchor="middle" x="26.55" y="-888.24" font-family="Helvetica,sans-Serif" font-size="10.00">action</text>
</a>
</g>
</g>
<!-- Node1&#45;&gt;Node1 -->
<g id="edge1" class="edge">
<title>Node1&#45;&gt;Node1</title>
<path fill="none" stroke="midnightblue" d="M4.97,-900.5C-5.53,-909.31 1.66,-918.74 26.55,-918.74 42.49,-918.74 51.17,-914.87 52.59,-909.77"/>
<polygon fill="midnightblue" stroke="midnightblue" points="55.62,-907.99 48.13,-900.5 49.31,-911.03 55.62,-907.99"/>
</g>
<!-- Node2 -->
<g id="node2" class="node">
<title>Node2</title>
<g id="a_node2"><a xlink:href="classrare_1_1components_1_1dialogs_1_1install__dialog_1_1_install_dialog.html#a91c6c5717fad488963fe42e9bc046c11" target="_top" xlink:title=" ">
<polygon fill="white" stroke="black" points="84.05,-912.74 84.05,-942.74 252.05,-942.74 252.05,-912.74 84.05,-912.74"/>
<text text-anchor="start" x="92.05" y="-930.74" font-family="Helvetica,sans-Serif" font-size="10.00">rare.components.dialogs.install</text>
<text text-anchor="middle" x="168.05" y="-919.74" font-family="Helvetica,sans-Serif" font-size="10.00">_dialog.InstallDialog.action_handler</text>
</a>
</g>
</g>
<!-- Node1&#45;&gt;Node2 -->
<g id="edge2" class="edge">
<title>Node1&#45;&gt;Node2</title>
<path fill="none" stroke="midnightblue" d="M48.13,-896.2C62.14,-899.92 81.52,-905.06 100.58,-910.11"/>
<polygon fill="midnightblue" stroke="midnightblue" points="99.92,-913.56 110.49,-912.74 101.72,-906.79 99.92,-913.56"/>
</g>
<!-- Node8 -->
<g id="node8" class="node">
<title>Node8</title>
<g id="a_node8"><a xlink:href="classrare_1_1widgets_1_1dialogs_1_1_action_dialog.html#a7e718e840cb7305e8bf707e866dc75e5" target="_top" xlink:title=" ">
<polygon fill="white" stroke="black" points="739.55,-918.24 739.55,-937.24 797.55,-937.24 797.55,-918.24 739.55,-918.24"/>
<text text-anchor="middle" x="768.55" y="-925.24" font-family="Helvetica,sans-Serif" font-size="10.00">setActive</text>
</a>
</g>
</g>
<!-- Node1&#45;&gt;Node8 -->
<g id="edge59" class="edge">
<title>Node1&#45;&gt;Node8</title>
<path fill="none" stroke="midnightblue" d="M30.94,-900.43C37.77,-918.24 55.06,-955.73 84.05,-970.74 310.57,-1088.08 407.39,-1018.2 658.05,-970.74 687.11,-965.24 718.33,-952.2 739.97,-941.92"/>
<polygon fill="midnightblue" stroke="midnightblue" points="741.74,-944.95 749.2,-937.42 738.67,-938.66 741.74,-944.95"/>
</g>
<!-- Node27 -->
<g id="node27" class="node">
<title>Node27</title>
<g id="a_node27"><a xlink:href="classrare_1_1components_1_1dialogs_1_1move__dialog_1_1_move_dialog.html#a91c6c5717fad488963fe42e9bc046c11" target="_top" xlink:title=" ">
<polygon fill="white" stroke="black" points="94.05,-834.24 94.05,-875.24 242.05,-875.24 242.05,-834.24 94.05,-834.24"/>
<text text-anchor="start" x="102.05" y="-863.24" font-family="Helvetica,sans-Serif" font-size="10.00">rare.components.dialogs.move</text>
<text text-anchor="start" x="102.05" y="-852.24" font-family="Helvetica,sans-Serif" font-size="10.00">_dialog.MoveDialog.action</text>
<text text-anchor="middle" x="168.05" y="-841.24" font-family="Helvetica,sans-Serif" font-size="10.00">_handler</text>
</a>
</g>
</g>
<!-- Node1&#45;&gt;Node27 -->
<g id="edge55" class="edge">
<title>Node1&#45;&gt;Node27</title>
<path fill="none" stroke="midnightblue" d="M48.13,-885.43C58.07,-882.87 70.72,-879.6 84.05,-876.16"/>
<polygon fill="midnightblue" stroke="midnightblue" points="85.03,-879.52 93.83,-873.64 83.28,-872.75 85.03,-879.52"/>
</g>
<!-- Node28 -->
<g id="node28" class="node">
<title>Node28</title>
<g id="a_node28"><a xlink:href="classrare_1_1widgets_1_1dialogs_1_1_action_dialog.html#a91c6c5717fad488963fe42e9bc046c11" target="_top" xlink:title=" ">
<polygon fill="white" stroke="black" points="128.05,-778.24 128.05,-797.24 208.05,-797.24 208.05,-778.24 128.05,-778.24"/>
<text text-anchor="middle" x="168.05" y="-785.24" font-family="Helvetica,sans-Serif" font-size="10.00">action_handler</text>
</a>
</g>
</g>
<!-- Node1&#45;&gt;Node28 -->
<g id="edge57" class="edge">
<title>Node1&#45;&gt;Node28</title>
<path fill="none" stroke="midnightblue" d="M33.78,-881.04C43.19,-867.01 62.29,-840.98 84.05,-824.74 97.09,-815.01 113.11,-807.11 127.58,-801.15"/>
<polygon fill="midnightblue" stroke="midnightblue" points="129.27,-804.25 137.29,-797.33 126.71,-797.73 129.27,-804.25"/>
</g>
<!-- Node2&#45;&gt;Node2 -->
<g id="edge3" class="edge">
<title>Node2&#45;&gt;Node2</title>
<path fill="none" stroke="midnightblue" d="M143.65,-942.9C137.77,-952.3 145.9,-961.24 168.05,-961.24 181.54,-961.24 189.84,-957.92 192.92,-953.2"/>
<polygon fill="midnightblue" stroke="midnightblue" points="196.41,-952.73 192.45,-942.9 189.41,-953.05 196.41,-952.73"/>
</g>
<!-- Node3 -->
<g id="node3" class="node">
<title>Node3</title>
<g id="a_node3"><a xlink:href="classrare_1_1components_1_1dialogs_1_1install__dialog_1_1_install_dialog.html#a138282883753fa5f7af306a3bb35ceaf" target="_top" xlink:title=" ">
<polygon fill="white" stroke="black" points="694.05,-974.74 694.05,-1004.74 843.05,-1004.74 843.05,-974.74 694.05,-974.74"/>
<text text-anchor="start" x="702.05" y="-992.74" font-family="Helvetica,sans-Serif" font-size="10.00">rare.components.dialogs.install</text>
<text text-anchor="middle" x="768.55" y="-981.74" font-family="Helvetica,sans-Serif" font-size="10.00">_dialog.InstallDialog.error_box</text>
</a>
</g>
</g>
<!-- Node2&#45;&gt;Node3 -->
<g id="edge4" class="edge">
<title>Node2&#45;&gt;Node3</title>
<path fill="none" stroke="midnightblue" d="M202.12,-942.81C225.57,-952.71 258.08,-964.88 288.05,-970.74 424.72,-997.48 587.35,-997.4 683.77,-994.13"/>
<polygon fill="midnightblue" stroke="midnightblue" points="684.17,-997.61 694.04,-993.76 683.92,-990.62 684.17,-997.61"/>
</g>
<!-- Node4 -->
<g id="node4" class="node">
<title>Node4</title>
<g id="a_node4"><a xlink:href="classrare_1_1components_1_1dialogs_1_1install__dialog_1_1_install_dialog.html#aca780d78b993a295a93507a4a6d12a69" target="_top" xlink:title=" ">
<polygon fill="white" stroke="black" points="291.05,-716.24 291.05,-757.24 440.05,-757.24 440.05,-716.24 291.05,-716.24"/>
<text text-anchor="start" x="299.05" y="-745.24" font-family="Helvetica,sans-Serif" font-size="10.00">rare.components.dialogs.install</text>
<text text-anchor="start" x="299.05" y="-734.24" font-family="Helvetica,sans-Serif" font-size="10.00">_dialog.InstallDialog.get</text>
<text text-anchor="middle" x="365.55" y="-723.24" font-family="Helvetica,sans-Serif" font-size="10.00">_download_info</text>
</a>
</g>
</g>
<!-- Node2&#45;&gt;Node4 -->
<g id="edge6" class="edge">
<title>Node2&#45;&gt;Node4</title>
<path fill="none" stroke="midnightblue" d="M234.98,-912.58C241.03,-909.83 246.83,-906.58 252.05,-902.74 300.46,-867.16 334.72,-804.11 351.92,-766.8"/>
<polygon fill="midnightblue" stroke="midnightblue" points="355.21,-768.01 356.11,-757.45 348.82,-765.14 355.21,-768.01"/>
</g>
<!-- Node2&#45;&gt;Node8 -->
<g id="edge54" class="edge">
<title>Node2&#45;&gt;Node8</title>
<path fill="none" stroke="midnightblue" d="M231.69,-912.68C249.76,-909 269.59,-905.59 288.05,-903.74 451.68,-887.41 494.56,-886.04 658.05,-903.74 682.16,-906.35 708.74,-912.11 729.68,-917.33"/>
<polygon fill="midnightblue" stroke="midnightblue" points="728.91,-920.75 739.46,-919.83 730.64,-913.96 728.91,-920.75"/>
</g>
<!-- Node26 -->
<g id="node26" class="node">
<title>Node26</title>
<g id="a_node26"><a xlink:href="classrare_1_1components_1_1dialogs_1_1install__dialog_1_1_install_dialog.html#a004987011909ef3b326e6d95f6393ec0" target="_top" xlink:title=" ">
<polygon fill="white" stroke="black" points="288.05,-912.74 288.05,-942.74 443.05,-942.74 443.05,-912.74 288.05,-912.74"/>
<text text-anchor="start" x="296.05" y="-930.74" font-family="Helvetica,sans-Serif" font-size="10.00">rare.components.dialogs.install</text>
<text text-anchor="middle" x="365.55" y="-919.74" font-family="Helvetica,sans-Serif" font-size="10.00">_dialog.InstallDialog.get_options</text>
</a>
</g>
</g>
<!-- Node2&#45;&gt;Node26 -->
<g id="edge52" class="edge">
<title>Node2&#45;&gt;Node26</title>
<path fill="none" stroke="midnightblue" d="M252.24,-927.74C260.66,-927.74 269.23,-927.74 277.69,-927.74"/>
<polygon fill="midnightblue" stroke="midnightblue" points="277.94,-931.24 287.94,-927.74 277.94,-924.24 277.94,-931.24"/>
</g>
<!-- Node3&#45;&gt;Node3 -->
<g id="edge5" class="edge">
<title>Node3&#45;&gt;Node3</title>
<path fill="none" stroke="midnightblue" d="M733.69,-1004.9C725.29,-1014.3 736.91,-1023.24 768.55,-1023.24 787.83,-1023.24 799.67,-1019.92 804.08,-1015.2"/>
<polygon fill="midnightblue" stroke="midnightblue" points="807.56,-1014.65 803.4,-1004.9 800.57,-1015.11 807.56,-1014.65"/>
</g>
<!-- Node4&#45;&gt;Node4 -->
<g id="edge10" class="edge">
<title>Node4&#45;&gt;Node4</title>
<path fill="none" stroke="midnightblue" d="M329.52,-757.61C325.59,-767.29 337.6,-775.74 365.55,-775.74 383.01,-775.74 394.25,-772.44 399.27,-767.6"/>
<polygon fill="midnightblue" stroke="midnightblue" points="402.74,-768.14 401.57,-757.61 395.91,-766.57 402.74,-768.14"/>
</g>
<!-- Node5 -->
<g id="node5" class="node">
<title>Node5</title>
<g id="a_node5"><a xlink:href="classrare_1_1shared_1_1image__manager_1_1_image_manager.html#a807a18e046713d82f8c5828f7837d229" target="_top" xlink:title=" ">
<polygon fill="white" stroke="black" points="1100.05,-252.74 1100.05,-282.74 1238.05,-282.74 1238.05,-252.74 1100.05,-252.74"/>
<text text-anchor="start" x="1108.05" y="-270.74" font-family="Helvetica,sans-Serif" font-size="10.00">rare.shared.image_manager.</text>
<text text-anchor="middle" x="1169.05" y="-259.74" font-family="Helvetica,sans-Serif" font-size="10.00">ImageManager.__download</text>
</a>
</g>
</g>
<!-- Node4&#45;&gt;Node5 -->
<g id="edge7" class="edge">
<title>Node4&#45;&gt;Node5</title>
<path fill="none" stroke="midnightblue" d="M373.05,-716.16C399.9,-633.96 509.5,-324.89 694.05,-141.74 814.96,-21.75 920.61,50.14 1064.05,-41.74 1134.71,-87.01 1158.02,-193.76 1165.15,-242.58"/>
<polygon fill="midnightblue" stroke="midnightblue" points="1161.7,-243.17 1166.5,-252.61 1168.64,-242.23 1161.7,-243.17"/>
</g>
<!-- Node6 -->
<g id="node6" class="node">
<title>Node6</title>
<g id="a_node6"><a xlink:href="classrare_1_1shared_1_1rare__core_1_1_rare_core.html#a405e1a4f20f16120f872ccd2654a1d56" target="_top" xlink:title=" ">
<polygon fill="white" stroke="black" points="503.55,-687.74 503.55,-717.74 633.55,-717.74 633.55,-687.74 503.55,-687.74"/>
<text text-anchor="start" x="511.55" y="-705.74" font-family="Helvetica,sans-Serif" font-size="10.00">rare.shared.rare_core.Rare</text>
<text text-anchor="middle" x="568.55" y="-694.74" font-family="Helvetica,sans-Serif" font-size="10.00">Core.core</text>
</a>
</g>
</g>
<!-- Node4&#45;&gt;Node6 -->
<g id="edge8" class="edge">
<title>Node4&#45;&gt;Node6</title>
<path fill="none" stroke="midnightblue" d="M440.25,-724.28C457.58,-721.35 476.05,-718.22 493.4,-715.29"/>
<polygon fill="midnightblue" stroke="midnightblue" points="494.19,-718.7 503.46,-713.58 493.02,-711.8 494.19,-718.7"/>
</g>
<!-- Node7 -->
<g id="node7" class="node">
<title>Node7</title>
<g id="a_node7"><a xlink:href="classrare_1_1components_1_1dialogs_1_1install__dialog_1_1_install_dialog.html#a36bb64fa9d259feffe5871168f96c4df" target="_top" xlink:title=" ">
<polygon fill="white" stroke="black" points="479.05,-912.74 479.05,-942.74 658.05,-942.74 658.05,-912.74 479.05,-912.74"/>
<text text-anchor="start" x="487.05" y="-930.74" font-family="Helvetica,sans-Serif" font-size="10.00">rare.components.dialogs.install</text>
<text text-anchor="middle" x="568.55" y="-919.74" font-family="Helvetica,sans-Serif" font-size="10.00">_dialog.InstallDialog.on_worker_failed</text>
</a>
</g>
</g>
<!-- Node4&#45;&gt;Node7 -->
<g id="edge11" class="edge">
<title>Node4&#45;&gt;Node7</title>
<path fill="none" stroke="midnightblue" d="M388.44,-757.55C426.69,-793.9 505.33,-868.62 544.43,-905.77"/>
<polygon fill="midnightblue" stroke="midnightblue" points="542.04,-908.33 551.7,-912.68 546.86,-903.25 542.04,-908.33"/>
</g>
<!-- Node9 -->
<g id="node9" class="node">
<title>Node9</title>
<g id="a_node9"><a xlink:href="classrare_1_1components_1_1dialogs_1_1install__dialog_1_1_install_dialog.html#a64dd35f139577016bc6417719d65d969" target="_top" xlink:title=" ">
<polygon fill="white" stroke="black" points="479.05,-754.74 479.05,-784.74 658.05,-784.74 658.05,-754.74 479.05,-754.74"/>
<text text-anchor="start" x="487.05" y="-772.74" font-family="Helvetica,sans-Serif" font-size="10.00">rare.components.dialogs.install</text>
<text text-anchor="middle" x="568.55" y="-761.74" font-family="Helvetica,sans-Serif" font-size="10.00">_dialog.InstallDialog.on_worker_result</text>
</a>
</g>
</g>
<!-- Node4&#45;&gt;Node9 -->
<g id="edge16" class="edge">
<title>Node4&#45;&gt;Node9</title>
<path fill="none" stroke="midnightblue" d="M440.25,-748.84C449.56,-750.37 459.21,-751.96 468.83,-753.54"/>
<polygon fill="midnightblue" stroke="midnightblue" points="468.4,-757.01 478.84,-755.18 469.54,-750.11 468.4,-757.01"/>
</g>
<!-- Node25 -->
<g id="node25" class="node">
<title>Node25</title>
<g id="a_node25"><a xlink:href="namespacerare_1_1components.html#a019ee207f5c041fb0d2e61f76eafa958" target="_top" xlink:title=" ">
<polygon fill="white" stroke="black" points="513.55,-631.24 513.55,-650.24 623.55,-650.24 623.55,-631.24 513.55,-631.24"/>
<text text-anchor="middle" x="568.55" y="-638.24" font-family="Helvetica,sans-Serif" font-size="10.00">rare.components.start</text>
</a>
</g>
</g>
<!-- Node4&#45;&gt;Node25 -->
<g id="edge50" class="edge">
<title>Node4&#45;&gt;Node25</title>
<path fill="none" stroke="midnightblue" d="M404.74,-716.2C426.36,-704.79 454.01,-690.56 479.05,-678.74 497.25,-670.16 517.9,-661.24 534.68,-654.21"/>
<polygon fill="midnightblue" stroke="midnightblue" points="536.17,-657.38 544.06,-650.3 533.48,-650.92 536.17,-657.38"/>
</g>
<!-- Node6&#45;&gt;Node6 -->
<g id="edge9" class="edge">
<title>Node6&#45;&gt;Node6</title>
<path fill="none" stroke="midnightblue" d="M533.69,-717.9C525.29,-727.3 536.91,-736.24 568.55,-736.24 587.83,-736.24 599.67,-732.92 604.08,-728.2"/>
<polygon fill="midnightblue" stroke="midnightblue" points="607.56,-727.65 603.4,-717.9 600.57,-728.11 607.56,-727.65"/>
</g>
<!-- Node7&#45;&gt;Node3 -->
<g id="edge12" class="edge">
<title>Node7&#45;&gt;Node3</title>
<path fill="none" stroke="midnightblue" d="M617.48,-942.75C645.24,-951.45 680.38,-962.45 709.68,-971.62"/>
<polygon fill="midnightblue" stroke="midnightblue" points="708.78,-975.01 719.37,-974.66 710.88,-968.33 708.78,-975.01"/>
</g>
<!-- Node7&#45;&gt;Node7 -->
<g id="edge13" class="edge">
<title>Node7&#45;&gt;Node7</title>
<path fill="none" stroke="midnightblue" d="M533.69,-942.9C525.29,-952.3 536.91,-961.24 568.55,-961.24 587.83,-961.24 599.67,-957.92 604.08,-953.2"/>
<polygon fill="midnightblue" stroke="midnightblue" points="607.56,-952.65 603.4,-942.9 600.57,-953.11 607.56,-952.65"/>
</g>
<!-- Node7&#45;&gt;Node8 -->
<g id="edge14" class="edge">
<title>Node7&#45;&gt;Node8</title>
<path fill="none" stroke="midnightblue" d="M658.12,-927.74C683.02,-927.74 708.82,-927.74 729.1,-927.74"/>
<polygon fill="midnightblue" stroke="midnightblue" points="729.17,-931.24 739.17,-927.74 729.17,-924.24 729.17,-931.24"/>
</g>
<!-- Node8&#45;&gt;Node8 -->
<g id="edge15" class="edge">
<title>Node8&#45;&gt;Node8</title>
<path fill="none" stroke="midnightblue" d="M739.29,-936.63C722.08,-945.68 731.83,-955.74 768.55,-955.74 796.09,-955.74 808.46,-950.08 805.66,-943.43"/>
<polygon fill="midnightblue" stroke="midnightblue" points="807.66,-940.53 797.81,-936.63 803.07,-945.82 807.66,-940.53"/>
</g>
<!-- Node9&#45;&gt;Node5 -->
<g id="edge17" class="edge">
<title>Node9&#45;&gt;Node5</title>
<path fill="none" stroke="midnightblue" d="M639.7,-754.74C646.11,-752.19 652.33,-749.21 658.05,-745.74 678.22,-733.51 672.95,-717.3 694.05,-706.74 841.89,-632.78 938.65,-776.46 1064.05,-668.74 1122.28,-618.73 1155.71,-373.32 1165.21,-293.14"/>
<polygon fill="midnightblue" stroke="midnightblue" points="1168.72,-293.3 1166.39,-282.96 1161.76,-292.49 1168.72,-293.3"/>
</g>
<!-- Node9&#45;&gt;Node8 -->
<g id="edge49" class="edge">
<title>Node9&#45;&gt;Node8</title>
<path fill="none" stroke="midnightblue" d="M582.9,-784.88C614.31,-820.46 690.54,-906.61 694.05,-908.74 704.78,-915.27 717.71,-919.58 729.71,-922.4"/>
<polygon fill="midnightblue" stroke="midnightblue" points="729,-925.83 739.51,-924.45 730.43,-918.98 729,-925.83"/>
</g>
<!-- Node9&#45;&gt;Node9 -->
<g id="edge46" class="edge">
<title>Node9&#45;&gt;Node9</title>
<path fill="none" stroke="midnightblue" d="M533.69,-784.9C525.29,-794.3 536.91,-803.24 568.55,-803.24 587.83,-803.24 599.67,-799.92 604.08,-795.2"/>
<polygon fill="midnightblue" stroke="midnightblue" points="607.56,-794.65 603.4,-784.9 600.57,-795.11 607.56,-794.65"/>
</g>
<!-- Node10 -->
<g id="node10" class="node">
<title>Node10</title>
<g id="a_node10"><a xlink:href="classrare_1_1launcher_1_1console__dialog_1_1_console_dialog.html#a7df04f32b8c03f8466e5b558ba482582" target="_top" xlink:title=" ">
<polygon fill="white" stroke="black" points="697.05,-151.74 697.05,-181.74 840.05,-181.74 840.05,-151.74 697.05,-151.74"/>
<text text-anchor="start" x="705.05" y="-169.74" font-family="Helvetica,sans-Serif" font-size="10.00">rare.launcher.console</text>
<text text-anchor="middle" x="768.55" y="-158.74" font-family="Helvetica,sans-Serif" font-size="10.00">_dialog.ConsoleDialog.accept</text>
</a>
</g>
</g>
<!-- Node9&#45;&gt;Node10 -->
<g id="edge18" class="edge">
<title>Node9&#45;&gt;Node10</title>
<path fill="none" stroke="midnightblue" d="M648.15,-754.55C651.78,-752.03 655.13,-749.11 658.05,-745.74 700.61,-696.7 682.02,-519.56 694.05,-455.74 712.67,-356.92 745.35,-241.68 760.03,-191.83"/>
<polygon fill="midnightblue" stroke="midnightblue" points="763.47,-192.53 762.96,-181.94 756.76,-190.54 763.47,-192.53"/>
</g>
<!-- Node14 -->
<g id="node14" class="node">
<title>Node14</title>
<g id="a_node14"><a xlink:href="classrare_1_1widgets_1_1dialogs_1_1_button_dialog.html#a783ddce0cb0d324bc475e9b39f7a6f2f" target="_top" xlink:title=" ">
<polygon fill="white" stroke="black" points="702.05,-465.74 702.05,-495.74 835.05,-495.74 835.05,-465.74 702.05,-465.74"/>
<text text-anchor="start" x="710.05" y="-483.74" font-family="Helvetica,sans-Serif" font-size="10.00">rare.widgets.dialogs.Button</text>
<text text-anchor="middle" x="768.55" y="-472.74" font-family="Helvetica,sans-Serif" font-size="10.00">Dialog.accept</text>
</a>
</g>
</g>
<!-- Node9&#45;&gt;Node14 -->
<g id="edge26" class="edge">
<title>Node9&#45;&gt;Node14</title>
<path fill="none" stroke="midnightblue" d="M645.04,-754.74C649.71,-752.19 654.1,-749.21 658.05,-745.74 667.71,-737.23 733.3,-569.34 758.09,-505.28"/>
<polygon fill="midnightblue" stroke="midnightblue" points="761.36,-506.52 761.7,-495.93 754.83,-504 761.36,-506.52"/>
</g>
<!-- Node21 -->
<g id="node21" class="node">
<title>Node21</title>
<g id="a_node21"><a xlink:href="classrare_1_1widgets_1_1dialogs_1_1_test_dialog.html#a783ddce0cb0d324bc475e9b39f7a6f2f" target="_top" xlink:title=" ">
<polygon fill="white" stroke="black" points="706.55,-850.74 706.55,-880.74 830.55,-880.74 830.55,-850.74 706.55,-850.74"/>
<text text-anchor="start" x="714.55" y="-868.74" font-family="Helvetica,sans-Serif" font-size="10.00">rare.widgets.dialogs.Test</text>
<text text-anchor="middle" x="768.55" y="-857.74" font-family="Helvetica,sans-Serif" font-size="10.00">Dialog.accept</text>
</a>
</g>
</g>
<!-- Node9&#45;&gt;Node21 -->
<g id="edge41" class="edge">
<title>Node9&#45;&gt;Node21</title>
<path fill="none" stroke="midnightblue" d="M593.17,-785.02C617.69,-800.45 657.52,-824.3 694.05,-840.74 698.96,-842.96 704.14,-845.09 709.37,-847.11"/>
<polygon fill="midnightblue" stroke="midnightblue" points="708.21,-850.42 718.8,-850.63 710.66,-843.86 708.21,-850.42"/>
</g>
<!-- Node23 -->
<g id="node23" class="node">
<title>Node23</title>
<g id="a_node23"><a xlink:href="namespacerare_1_1utils_1_1misc.html#a3544b31f50ff739b7e8bb4ab751026b7" target="_top" xlink:title=" ">
<polygon fill="white" stroke="black" points="704.05,-794.24 704.05,-813.24 833.05,-813.24 833.05,-794.24 704.05,-794.24"/>
<text text-anchor="middle" x="768.55" y="-801.24" font-family="Helvetica,sans-Serif" font-size="10.00">rare.utils.misc.format_size</text>
</a>
</g>
</g>
<!-- Node9&#45;&gt;Node23 -->
<g id="edge44" class="edge">
<title>Node9&#45;&gt;Node23</title>
<path fill="none" stroke="midnightblue" d="M656.97,-784.76C672.06,-787.35 687.51,-790 701.9,-792.47"/>
<polygon fill="midnightblue" stroke="midnightblue" points="701.72,-795.99 712.17,-794.23 702.9,-789.09 701.72,-795.99"/>
</g>
<!-- Node24 -->
<g id="node24" class="node">
<title>Node24</title>
<g id="a_node24"><a xlink:href="classrare_1_1components_1_1dialogs_1_1install__dialog_1_1_install_dialog.html#a28b2dbb84b35512e356dcdff0827aac2" target="_top" xlink:title=" ">
<polygon fill="white" stroke="black" points="694.05,-716.24 694.05,-757.24 843.05,-757.24 843.05,-716.24 694.05,-716.24"/>
<text text-anchor="start" x="702.05" y="-745.24" font-family="Helvetica,sans-Serif" font-size="10.00">rare.components.dialogs.install</text>
<text text-anchor="start" x="702.05" y="-734.24" font-family="Helvetica,sans-Serif" font-size="10.00">_dialog.InstallDialog.same</text>
<text text-anchor="middle" x="768.55" y="-723.24" font-family="Helvetica,sans-Serif" font-size="10.00">_platform</text>
</a>
</g>
</g>
<!-- Node9&#45;&gt;Node24 -->
<g id="edge47" class="edge">
<title>Node9&#45;&gt;Node24</title>
<path fill="none" stroke="midnightblue" d="M658.12,-754.98C666.71,-753.55 675.4,-752.1 683.93,-750.68"/>
<polygon fill="midnightblue" stroke="midnightblue" points="684.57,-754.12 693.86,-749.02 683.42,-747.22 684.57,-754.12"/>
</g>
<!-- Node10&#45;&gt;Node10 -->
<g id="edge19" class="edge">
<title>Node10&#45;&gt;Node10</title>
<path fill="none" stroke="midnightblue" d="M733.69,-181.9C725.29,-191.3 736.91,-200.24 768.55,-200.24 787.83,-200.24 799.67,-196.92 804.08,-192.2"/>
<polygon fill="midnightblue" stroke="midnightblue" points="807.56,-191.65 803.4,-181.9 800.57,-192.11 807.56,-191.65"/>
</g>
<!-- Node11 -->
<g id="node11" class="node">
<title>Node11</title>
<g id="a_node11"><a xlink:href="classrare_1_1components_1_1main__window_1_1_main_window.html#ad9f81f4c56e23ca3c206b1e9374fc137" target="_top" xlink:title=" ">
<polygon fill="white" stroke="black" points="902.55,-51.74 902.55,-81.74 1040.55,-81.74 1040.55,-51.74 902.55,-51.74"/>
<text text-anchor="start" x="910.55" y="-69.74" font-family="Helvetica,sans-Serif" font-size="10.00">rare.components.main</text>
<text text-anchor="middle" x="971.55" y="-58.74" font-family="Helvetica,sans-Serif" font-size="10.00">_window.MainWindow.close</text>
</a>
</g>
</g>
<!-- Node10&#45;&gt;Node11 -->
<g id="edge20" class="edge">
<title>Node10&#45;&gt;Node11</title>
<path fill="none" stroke="midnightblue" d="M797.23,-151.52C819.23,-139.56 850.89,-122.65 879.05,-108.74 894.62,-101.05 911.89,-93 927.2,-86.03"/>
<polygon fill="midnightblue" stroke="midnightblue" points="928.77,-89.16 936.44,-81.85 925.88,-82.79 928.77,-89.16"/>
</g>
<!-- Node12 -->
<g id="node12" class="node">
<title>Node12</title>
<g id="a_node12"><a xlink:href="classrare_1_1widgets_1_1dialogs_1_1_button_dialog.html#a8639372c33e15084a7f7c4d9d87b7bfe" target="_top" xlink:title=" ">
<polygon fill="white" stroke="black" points="905.05,-185.74 905.05,-215.74 1038.05,-215.74 1038.05,-185.74 905.05,-185.74"/>
<text text-anchor="start" x="913.05" y="-203.74" font-family="Helvetica,sans-Serif" font-size="10.00">rare.widgets.dialogs.Button</text>
<text text-anchor="middle" x="971.55" y="-192.74" font-family="Helvetica,sans-Serif" font-size="10.00">Dialog.close</text>
</a>
</g>
</g>
<!-- Node10&#45;&gt;Node12 -->
<g id="edge22" class="edge">
<title>Node10&#45;&gt;Node12</title>
<path fill="none" stroke="midnightblue" d="M840.13,-178.68C857.8,-181.67 876.83,-184.89 894.74,-187.92"/>
<polygon fill="midnightblue" stroke="midnightblue" points="894.4,-191.41 904.85,-189.63 895.57,-184.51 894.4,-191.41"/>
</g>
<!-- Node13 -->
<g id="node13" class="node">
<title>Node13</title>
<g id="a_node13"><a xlink:href="classrare_1_1widgets_1_1dialogs_1_1_test_dialog.html#a8639372c33e15084a7f7c4d9d87b7bfe" target="_top" xlink:title=" ">
<polygon fill="white" stroke="black" points="909.55,-118.74 909.55,-148.74 1033.55,-148.74 1033.55,-118.74 909.55,-118.74"/>
<text text-anchor="start" x="917.55" y="-136.74" font-family="Helvetica,sans-Serif" font-size="10.00">rare.widgets.dialogs.Test</text>
<text text-anchor="middle" x="971.55" y="-125.74" font-family="Helvetica,sans-Serif" font-size="10.00">Dialog.close</text>
</a>
</g>
</g>
<!-- Node10&#45;&gt;Node13 -->
<g id="edge24" class="edge">
<title>Node10&#45;&gt;Node13</title>
<path fill="none" stroke="midnightblue" d="M840.13,-155.16C859.4,-151.99 880.27,-148.56 899.56,-145.4"/>
<polygon fill="midnightblue" stroke="midnightblue" points="900.19,-148.84 909.49,-143.77 899.05,-141.93 900.19,-148.84"/>
</g>
<!-- Node11&#45;&gt;Node11 -->
<g id="edge21" class="edge">
<title>Node11&#45;&gt;Node11</title>
<path fill="none" stroke="midnightblue" d="M937.39,-81.9C929.15,-91.3 940.54,-100.24 971.55,-100.24 990.44,-100.24 1002.05,-96.92 1006.37,-92.2"/>
<polygon fill="midnightblue" stroke="midnightblue" points="1009.85,-91.65 1005.7,-81.9 1002.86,-92.11 1009.85,-91.65"/>
</g>
<!-- Node12&#45;&gt;Node12 -->
<g id="edge23" class="edge">
<title>Node12&#45;&gt;Node12</title>
<path fill="none" stroke="midnightblue" d="M937.39,-215.9C929.15,-225.3 940.54,-234.24 971.55,-234.24 990.44,-234.24 1002.05,-230.92 1006.37,-226.2"/>
<polygon fill="midnightblue" stroke="midnightblue" points="1009.85,-225.65 1005.7,-215.9 1002.86,-226.11 1009.85,-225.65"/>
</g>
<!-- Node13&#45;&gt;Node13 -->
<g id="edge25" class="edge">
<title>Node13&#45;&gt;Node13</title>
<path fill="none" stroke="midnightblue" d="M937.39,-148.9C929.15,-158.3 940.54,-167.24 971.55,-167.24 990.44,-167.24 1002.05,-163.92 1006.37,-159.2"/>
<polygon fill="midnightblue" stroke="midnightblue" points="1009.85,-158.65 1005.7,-148.9 1002.86,-159.11 1009.85,-158.65"/>
</g>
<!-- Node14&#45;&gt;Node14 -->
<g id="edge27" class="edge">
<title>Node14&#45;&gt;Node14</title>
<path fill="none" stroke="midnightblue" d="M733.69,-495.9C725.29,-505.3 736.91,-514.24 768.55,-514.24 787.83,-514.24 799.67,-510.92 804.08,-506.2"/>
<polygon fill="midnightblue" stroke="midnightblue" points="807.56,-505.65 803.4,-495.9 800.57,-506.11 807.56,-505.65"/>
</g>
<!-- Node15 -->
<g id="node15" class="node">
<title>Node15</title>
<g id="a_node15"><a xlink:href="classrare_1_1components_1_1dialogs_1_1install__dialog_1_1_install_dialog.html#a5786ae567b9d7f6957dfb2ae04f22e63" target="_top" xlink:title=" ">
<polygon fill="white" stroke="black" points="886.05,-252.74 886.05,-282.74 1057.05,-282.74 1057.05,-252.74 886.05,-252.74"/>
<text text-anchor="start" x="894.05" y="-270.74" font-family="Helvetica,sans-Serif" font-size="10.00">rare.components.dialogs.install</text>
<text text-anchor="middle" x="971.55" y="-259.74" font-family="Helvetica,sans-Serif" font-size="10.00">_dialog.InstallDialog.accept_handler</text>
</a>
</g>
</g>
<!-- Node14&#45;&gt;Node15 -->
<g id="edge28" class="edge">
<title>Node14&#45;&gt;Node15</title>
<path fill="none" stroke="midnightblue" d="M775.75,-465.44C789.68,-432.79 826.38,-355.55 879.05,-309.74 889.66,-300.51 902.64,-292.94 915.45,-286.89"/>
<polygon fill="midnightblue" stroke="midnightblue" points="917.02,-290.02 924.72,-282.75 914.16,-283.63 917.02,-290.02"/>
</g>
<!-- Node16 -->
<g id="node16" class="node">
<title>Node16</title>
<g id="a_node16"><a xlink:href="classrare_1_1components_1_1dialogs_1_1move__dialog_1_1_move_dialog.html#a5786ae567b9d7f6957dfb2ae04f22e63" target="_top" xlink:title=" ">
<polygon fill="white" stroke="black" points="897.55,-600.24 897.55,-641.24 1045.55,-641.24 1045.55,-600.24 897.55,-600.24"/>
<text text-anchor="start" x="905.55" y="-629.24" font-family="Helvetica,sans-Serif" font-size="10.00">rare.components.dialogs.move</text>
<text text-anchor="start" x="905.55" y="-618.24" font-family="Helvetica,sans-Serif" font-size="10.00">_dialog.MoveDialog.accept</text>
<text text-anchor="middle" x="971.55" y="-607.24" font-family="Helvetica,sans-Serif" font-size="10.00">_handler</text>
</a>
</g>
</g>
<!-- Node14&#45;&gt;Node16 -->
<g id="edge31" class="edge">
<title>Node14&#45;&gt;Node16</title>
<path fill="none" stroke="midnightblue" d="M780.64,-495.78C798.74,-519.29 836.84,-564.73 879.05,-590.74 881.98,-592.55 885.04,-594.26 888.18,-595.88"/>
<polygon fill="midnightblue" stroke="midnightblue" points="886.68,-599.05 897.21,-600.2 889.7,-592.73 886.68,-599.05"/>
</g>
<!-- Node17 -->
<g id="node17" class="node">
<title>Node17</title>
<g id="a_node17"><a xlink:href="classrare_1_1components_1_1dialogs_1_1selective__dialog_1_1_selective_dialog.html#a5786ae567b9d7f6957dfb2ae04f22e63" target="_top" xlink:title=" ">
<polygon fill="white" stroke="black" points="879.05,-532.74 879.05,-562.74 1064.05,-562.74 1064.05,-532.74 879.05,-532.74"/>
<text text-anchor="start" x="887.05" y="-550.74" font-family="Helvetica,sans-Serif" font-size="10.00">rare.components.dialogs.selective</text>
<text text-anchor="middle" x="971.55" y="-539.74" font-family="Helvetica,sans-Serif" font-size="10.00">_dialog.SelectiveDialog.accept_handler</text>
</a>
</g>
</g>
<!-- Node14&#45;&gt;Node17 -->
<g id="edge33" class="edge">
<title>Node14&#45;&gt;Node17</title>
<path fill="none" stroke="midnightblue" d="M806.22,-495.86C827.33,-504.3 854.47,-514.7 879.05,-522.74 886.61,-525.22 894.58,-527.65 902.54,-529.97"/>
<polygon fill="midnightblue" stroke="midnightblue" points="901.63,-533.35 912.2,-532.74 903.55,-526.62 901.63,-533.35"/>
</g>
<!-- Node18 -->
<g id="node18" class="node">
<title>Node18</title>
<g id="a_node18"><a xlink:href="classrare_1_1components_1_1dialogs_1_1uninstall__dialog_1_1_uninstall_dialog.html#a5786ae567b9d7f6957dfb2ae04f22e63" target="_top" xlink:title=" ">
<polygon fill="white" stroke="black" points="880.05,-465.74 880.05,-495.74 1063.05,-495.74 1063.05,-465.74 880.05,-465.74"/>
<text text-anchor="start" x="888.05" y="-483.74" font-family="Helvetica,sans-Serif" font-size="10.00">rare.components.dialogs.uninstall</text>
<text text-anchor="middle" x="971.55" y="-472.74" font-family="Helvetica,sans-Serif" font-size="10.00">_dialog.UninstallDialog.accept_handler</text>
</a>
</g>
</g>
<!-- Node14&#45;&gt;Node18 -->
<g id="edge35" class="edge">
<title>Node14&#45;&gt;Node18</title>
<path fill="none" stroke="midnightblue" d="M835.08,-480.74C846.16,-480.74 857.88,-480.74 869.61,-480.74"/>
<polygon fill="midnightblue" stroke="midnightblue" points="869.91,-484.24 879.91,-480.74 869.91,-477.24 869.91,-484.24"/>
</g>
<!-- Node19 -->
<g id="node19" class="node">
<title>Node19</title>
<g id="a_node19"><a xlink:href="classrare_1_1launcher_1_1cloud__sync__dialog_1_1_cloud_sync_dialog.html#a5786ae567b9d7f6957dfb2ae04f22e63" target="_top" xlink:title=" ">
<polygon fill="white" stroke="black" points="881.55,-387.24 881.55,-428.24 1061.55,-428.24 1061.55,-387.24 881.55,-387.24"/>
<text text-anchor="start" x="889.55" y="-416.24" font-family="Helvetica,sans-Serif" font-size="10.00">rare.launcher.cloud</text>
<text text-anchor="start" x="889.55" y="-405.24" font-family="Helvetica,sans-Serif" font-size="10.00">_sync_dialog.CloudSyncDialog.accept</text>
<text text-anchor="middle" x="971.55" y="-394.24" font-family="Helvetica,sans-Serif" font-size="10.00">_handler</text>
</a>
</g>
</g>
<!-- Node14&#45;&gt;Node19 -->
<g id="edge37" class="edge">
<title>Node14&#45;&gt;Node19</title>
<path fill="none" stroke="midnightblue" d="M811.19,-465.62C838.07,-455.86 873.61,-442.95 904.31,-431.8"/>
<polygon fill="midnightblue" stroke="midnightblue" points="905.88,-434.95 914.09,-428.25 903.49,-428.37 905.88,-434.95"/>
</g>
<!-- Node20 -->
<g id="node20" class="node">
<title>Node20</title>
<g id="a_node20"><a xlink:href="classrare_1_1widgets_1_1dialogs_1_1_button_dialog.html#a5786ae567b9d7f6957dfb2ae04f22e63" target="_top" xlink:title=" ">
<polygon fill="white" stroke="black" points="905.05,-319.74 905.05,-349.74 1038.05,-349.74 1038.05,-319.74 905.05,-319.74"/>
<text text-anchor="start" x="913.05" y="-337.74" font-family="Helvetica,sans-Serif" font-size="10.00">rare.widgets.dialogs.Button</text>
<text text-anchor="middle" x="971.55" y="-326.74" font-family="Helvetica,sans-Serif" font-size="10.00">Dialog.accept_handler</text>
</a>
</g>
</g>
<!-- Node14&#45;&gt;Node20 -->
<g id="edge39" class="edge">
<title>Node14&#45;&gt;Node20</title>
<path fill="none" stroke="midnightblue" d="M782.82,-465.52C802.27,-443.9 840.41,-404.01 879.05,-377.74 892.38,-368.68 907.93,-360.58 922.39,-353.92"/>
<polygon fill="midnightblue" stroke="midnightblue" points="924,-357.04 931.7,-349.76 921.14,-350.65 924,-357.04"/>
</g>
<!-- Node15&#45;&gt;Node5 -->
<g id="edge29" class="edge">
<title>Node15&#45;&gt;Node5</title>
<path fill="none" stroke="midnightblue" d="M1057.16,-267.74C1067.95,-267.74 1078.96,-267.74 1089.65,-267.74"/>
<polygon fill="midnightblue" stroke="midnightblue" points="1089.78,-271.24 1099.78,-267.74 1089.78,-264.24 1089.78,-271.24"/>
</g>
<!-- Node15&#45;&gt;Node15 -->
<g id="edge30" class="edge">
<title>Node15&#45;&gt;Node15</title>
<path fill="none" stroke="midnightblue" d="M937.39,-282.9C929.15,-292.3 940.54,-301.24 971.55,-301.24 990.44,-301.24 1002.05,-297.92 1006.37,-293.2"/>
<polygon fill="midnightblue" stroke="midnightblue" points="1009.85,-292.65 1005.7,-282.9 1002.86,-293.11 1009.85,-292.65"/>
</g>
<!-- Node16&#45;&gt;Node16 -->
<g id="edge32" class="edge">
<title>Node16&#45;&gt;Node16</title>
<path fill="none" stroke="midnightblue" d="M935.52,-641.61C931.59,-651.29 943.6,-659.74 971.55,-659.74 989.01,-659.74 1000.25,-656.44 1005.27,-651.6"/>
<polygon fill="midnightblue" stroke="midnightblue" points="1008.74,-652.14 1007.57,-641.61 1001.91,-650.57 1008.74,-652.14"/>
</g>
<!-- Node17&#45;&gt;Node17 -->
<g id="edge34" class="edge">
<title>Node17&#45;&gt;Node17</title>
<path fill="none" stroke="midnightblue" d="M937.39,-562.9C929.15,-572.3 940.54,-581.24 971.55,-581.24 990.44,-581.24 1002.05,-577.92 1006.37,-573.2"/>
<polygon fill="midnightblue" stroke="midnightblue" points="1009.85,-572.65 1005.7,-562.9 1002.86,-573.11 1009.85,-572.65"/>
</g>
<!-- Node18&#45;&gt;Node18 -->
<g id="edge36" class="edge">
<title>Node18&#45;&gt;Node18</title>
<path fill="none" stroke="midnightblue" d="M937.39,-495.9C929.15,-505.3 940.54,-514.24 971.55,-514.24 990.44,-514.24 1002.05,-510.92 1006.37,-506.2"/>
<polygon fill="midnightblue" stroke="midnightblue" points="1009.85,-505.65 1005.7,-495.9 1002.86,-506.11 1009.85,-505.65"/>
</g>
<!-- Node19&#45;&gt;Node19 -->
<g id="edge38" class="edge">
<title>Node19&#45;&gt;Node19</title>
<path fill="none" stroke="midnightblue" d="M935.52,-428.61C931.59,-438.29 943.6,-446.74 971.55,-446.74 989.01,-446.74 1000.25,-443.44 1005.27,-438.6"/>
<polygon fill="midnightblue" stroke="midnightblue" points="1008.74,-439.14 1007.57,-428.61 1001.91,-437.57 1008.74,-439.14"/>
</g>
<!-- Node20&#45;&gt;Node20 -->
<g id="edge40" class="edge">
<title>Node20&#45;&gt;Node20</title>
<path fill="none" stroke="midnightblue" d="M937.39,-349.9C929.15,-359.3 940.54,-368.24 971.55,-368.24 990.44,-368.24 1002.05,-364.92 1006.37,-360.2"/>
<polygon fill="midnightblue" stroke="midnightblue" points="1009.85,-359.65 1005.7,-349.9 1002.86,-360.11 1009.85,-359.65"/>
</g>
<!-- Node21&#45;&gt;Node21 -->
<g id="edge43" class="edge">
<title>Node21&#45;&gt;Node21</title>
<path fill="none" stroke="midnightblue" d="M733.69,-880.9C725.29,-890.3 736.91,-899.24 768.55,-899.24 787.83,-899.24 799.67,-895.92 804.08,-891.2"/>
<polygon fill="midnightblue" stroke="midnightblue" points="807.56,-890.65 803.4,-880.9 800.57,-891.11 807.56,-890.65"/>
</g>
<!-- Node22 -->
<g id="node22" class="node">
<title>Node22</title>
<g id="a_node22"><a xlink:href="classrare_1_1widgets_1_1dialogs_1_1_test_dialog.html#aabea3c93766dc521bfb00bb34037879d" target="_top" xlink:title=" ">
<polygon fill="white" stroke="black" points="909.55,-850.74 909.55,-880.74 1033.55,-880.74 1033.55,-850.74 909.55,-850.74"/>
<text text-anchor="start" x="917.55" y="-868.74" font-family="Helvetica,sans-Serif" font-size="10.00">rare.widgets.dialogs.Test</text>
<text text-anchor="middle" x="971.55" y="-857.74" font-family="Helvetica,sans-Serif" font-size="10.00">Dialog._on_accept</text>
</a>
</g>
</g>
<!-- Node21&#45;&gt;Node22 -->
<g id="edge42" class="edge">
<title>Node21&#45;&gt;Node22</title>
<path fill="none" stroke="midnightblue" d="M830.67,-865.74C852.31,-865.74 876.83,-865.74 899.24,-865.74"/>
<polygon fill="midnightblue" stroke="midnightblue" points="899.37,-869.24 909.37,-865.74 899.37,-862.24 899.37,-869.24"/>
</g>
<!-- Node23&#45;&gt;Node23 -->
<g id="edge45" class="edge">
<title>Node23&#45;&gt;Node23</title>
<path fill="none" stroke="midnightblue" d="M737.72,-813.5C722.73,-822.31 733,-831.74 768.55,-831.74 793.54,-831.74 806.04,-827.08 806.05,-821.25"/>
<polygon fill="midnightblue" stroke="midnightblue" points="808.55,-818.79 799.37,-813.5 803.25,-823.36 808.55,-818.79"/>
</g>
<!-- Node24&#45;&gt;Node24 -->
<g id="edge48" class="edge">
<title>Node24&#45;&gt;Node24</title>
<path fill="none" stroke="midnightblue" d="M731.79,-757.61C727.78,-767.29 740.03,-775.74 768.55,-775.74 786.37,-775.74 797.84,-772.44 802.96,-767.6"/>
<polygon fill="midnightblue" stroke="midnightblue" points="806.42,-768.14 805.31,-757.61 799.61,-766.54 806.42,-768.14"/>
</g>
<!-- Node25&#45;&gt;Node25 -->
<g id="edge51" class="edge">
<title>Node25&#45;&gt;Node25</title>
<path fill="none" stroke="midnightblue" d="M537.72,-650.5C522.73,-659.31 533,-668.74 568.55,-668.74 593.54,-668.74 606.04,-664.08 606.05,-658.25"/>
<polygon fill="midnightblue" stroke="midnightblue" points="608.55,-655.79 599.37,-650.5 603.25,-660.36 608.55,-655.79"/>
</g>
<!-- Node26&#45;&gt;Node26 -->
<g id="edge53" class="edge">
<title>Node26&#45;&gt;Node26</title>
<path fill="none" stroke="midnightblue" d="M331.39,-942.9C323.15,-952.3 334.54,-961.24 365.55,-961.24 384.44,-961.24 396.05,-957.92 400.37,-953.2"/>
<polygon fill="midnightblue" stroke="midnightblue" points="403.85,-952.65 399.7,-942.9 396.86,-953.11 403.85,-952.65"/>
</g>
<!-- Node27&#45;&gt;Node27 -->
<g id="edge56" class="edge">
<title>Node27&#45;&gt;Node27</title>
<path fill="none" stroke="midnightblue" d="M142.32,-875.61C139.51,-885.29 148.09,-893.74 168.05,-893.74 180.52,-893.74 188.55,-890.44 192.13,-885.6"/>
<polygon fill="midnightblue" stroke="midnightblue" points="195.61,-886.04 193.78,-875.61 188.7,-884.91 195.61,-886.04"/>
</g>
<!-- Node28&#45;&gt;Node28 -->
<g id="edge58" class="edge">
<title>Node28&#45;&gt;Node28</title>
<path fill="none" stroke="midnightblue" d="M146.47,-797.5C135.97,-806.31 143.16,-815.74 168.05,-815.74 183.99,-815.74 192.67,-811.87 194.09,-806.77"/>
<polygon fill="midnightblue" stroke="midnightblue" points="197.12,-804.99 189.63,-797.5 190.81,-808.03 197.12,-804.99"/>
</g>
</g>
</svg>
        <g id="navigator" transform="translate(0 0)" fill="#404254">
                <rect fill="#f2f5e9" fill-opacity="0.5" stroke="#606060" stroke-width=".5" x="0" y="0" width="60" height="60"/>
                <use id="zoomplus" xlink:href="#zoomPlus" x="17" y="9" onmousedown="handleZoom(evt,'in')"/>
                <use id="zoomminus" xlink:href="#zoomMin" x="42" y="9" onmousedown="handleZoom(evt,'out')"/>
                <use id="reset" xlink:href="#resetDef" x="30" y="36" onmousedown="handleReset()"/>
                <g id="arrowUp" xlink:href="#dirArrow" transform="translate(30 24)" onmousedown="handlePan(0,-1)">
                  <use xlink:href="#rim" fill="#404040">
                        <set attributeName="fill" to="#808080" begin="arrowUp.mouseover" end="arrowUp.mouseout"/>
                  </use>
                  <path fill="none" stroke="white" stroke-width="1.5" d="M0,-3.0v7 M-2.5,-0.5L0,-3.0L2.5,-0.5"/>
                </g>
                <g id="arrowRight" xlink:href="#dirArrow" transform="rotate(90) translate(36 -43)" onmousedown="handlePan(1,0)">
                  <use xlink:href="#rim" fill="#404040">
                        <set attributeName="fill" to="#808080" begin="arrowRight.mouseover" end="arrowRight.mouseout"/>
                  </use>
                  <path fill="none" stroke="white" stroke-width="1.5" d="M0,-3.0v7 M-2.5,-0.5L0,-3.0L2.5,-0.5"/>
                </g>
                <g id="arrowDown" xlink:href="#dirArrow" transform="rotate(180) translate(-30 -48)" onmousedown="handlePan(0,1)">
                  <use xlink:href="#rim" fill="#404040">
                        <set attributeName="fill" to="#808080" begin="arrowDown.mouseover" end="arrowDown.mouseout"/>
                  </use>
                  <path fill="none" stroke="white" stroke-width="1.5" d="M0,-3.0v7 M-2.5,-0.5L0,-3.0L2.5,-0.5"/>
                </g>
                <g id="arrowLeft" xlink:href="#dirArrow" transform="rotate(270) translate(-36 17)" onmousedown="handlePan(-1,0)">
                  <use xlink:href="#rim" fill="#404040">
                        <set attributeName="fill" to="#808080" begin="arrowLeft.mouseover" end="arrowLeft.mouseout"/>
                  </use>
                  <path fill="none" stroke="white" stroke-width="1.5" d="M0,-3.0v7 M-2.5,-0.5L0,-3.0L2.5,-0.5"/>
                </g>
        </g>
        <svg viewBox="0 0 15 15" width="100%" height="30px" preserveAspectRatio="xMaxYMin meet">
         <g id="arrow_out" transform="scale(0.3 0.3)">
          <a xlink:href="classrare_1_1widgets_1_1dialogs_1_1_action_dialog_a10c562aecba2dac76244db2a3ffd290d_cgraph_org.svg" target="_base">
           <rect id="button" ry="5" rx="5" y="6" x="6" height="38" width="38"
                fill="#f2f5e9" fill-opacity="0.5" stroke="#606060" stroke-width="1.0"/>
           <path id="arrow"
             d="M 11.500037,31.436501 C 11.940474,20.09759 22.043105,11.32322 32.158766,21.979434 L 37.068811,17.246167 C 37.068811,17.246167 37.088388,32 37.088388,32 L 22.160133,31.978069 C 22.160133,31.978069 26.997745,27.140456 26.997745,27.140456 C 18.528582,18.264221 13.291696,25.230495 11.500037,31.436501 z"
             style="fill:#404040;"/>
          </a>
         </g>
        </svg>
</svg>
