<?xml version="1.0" encoding="UTF-8" standalone="no"?>
<!DOCTYPE svg PUBLIC "-//W3C//DTD SVG 1.1//EN"
 "http://www.w3.org/Graphics/SVG/1.1/DTD/svg11.dtd">
<!-- Generated by graphviz version 2.49.3 (20211027.1534)
 -->
<!-- Title: fetch Pages: 1 -->
<svg width="387pt" height="152pt"
 viewBox="0.00 0.00 386.75 152.00" xmlns="http://www.w3.org/2000/svg" xmlns:xlink="http://www.w3.org/1999/xlink">
<g id="graph0" class="graph" transform="scale(1 1) rotate(0) translate(4 148)">
<title>fetch</title>
<polygon fill="white" stroke="transparent" points="-4,4 -4,-148 382.75,-148 382.75,4 -4,4"/>
<!-- Node1 -->
<g id="node1" class="node">
<title>Node1</title>
<g id="a_node1"><a xlink:title=" ">
<polygon fill="#bfbfbf" stroke="black" points="3.75,-62.5 3.75,-81.5 41.75,-81.5 41.75,-62.5 3.75,-62.5"/>
<text text-anchor="middle" x="22.75" y="-69.5" font-family="Helvetica,sans-Serif" font-size="10.00">fetch</text>
</a>
</g>
</g>
<!-- Node1&#45;&gt;Node1 -->
<g id="edge2" class="edge">
<title>Node1&#45;&gt;Node1</title>
<path fill="none" stroke="midnightblue" d="M4.26,-81.76C-4.74,-90.57 1.43,-100 22.75,-100 36.42,-100 43.86,-96.13 45.08,-91.03"/>
<polygon fill="midnightblue" stroke="midnightblue" points="48.3,-89.67 41.25,-81.76 41.83,-92.34 48.3,-89.67"/>
</g>
<!-- Node2 -->
<g id="node2" class="node">
<title>Node2</title>
<g id="a_node2"><a xlink:href="classrare_1_1shared_1_1rare__core_1_1_rare_core.html#ad163fa5dceffc259ee11e1726d141cbf" target="_top" xlink:title=" ">
<polygon fill="white" stroke="black" points="95.75,-124.5 95.75,-143.5 189.75,-143.5 189.75,-124.5 95.75,-124.5"/>
<text text-anchor="middle" x="142.75" y="-131.5" font-family="Helvetica,sans-Serif" font-size="10.00">__on_fetch_result</text>
</a>
</g>
</g>
<!-- Node1&#45;&gt;Node2 -->
<g id="edge1" class="edge">
<title>Node1&#45;&gt;Node2</title>
<path fill="none" stroke="midnightblue" d="M33.29,-81.51C43.49,-91.19 60.54,-106.03 77.75,-115 82.03,-117.23 86.6,-119.23 91.26,-121.03"/>
<polygon fill="midnightblue" stroke="midnightblue" points="90.29,-124.4 100.89,-124.42 92.62,-117.8 90.29,-124.4"/>
</g>
<!-- Node3 -->
<g id="node3" class="node">
<title>Node3</title>
<g id="a_node3"><a xlink:href="classrare_1_1shared_1_1workers_1_1move_1_1_move_worker.html#a0f9f88b07029d9ad56e4b094074fe596" target="_top" xlink:title=" ">
<polygon fill="white" stroke="black" points="77.75,-57 77.75,-87 207.75,-87 207.75,-57 77.75,-57"/>
<text text-anchor="start" x="85.75" y="-75" font-family="Helvetica,sans-Serif" font-size="10.00">rare.shared.workers.move.</text>
<text text-anchor="middle" x="142.75" y="-64" font-family="Helvetica,sans-Serif" font-size="10.00">MoveWorker.progress</text>
</a>
</g>
</g>
<!-- Node1&#45;&gt;Node3 -->
<g id="edge3" class="edge">
<title>Node1&#45;&gt;Node3</title>
<path fill="none" stroke="midnightblue" d="M41.93,-72C49.23,-72 58.15,-72 67.64,-72"/>
<polygon fill="midnightblue" stroke="midnightblue" points="67.68,-75.5 77.68,-72 67.68,-68.5 67.68,-75.5"/>
</g>
<!-- Node6 -->
<g id="node6" class="node">
<title>Node6</title>
<g id="a_node6"><a xlink:href="namespacerare_1_1components.html#a019ee207f5c041fb0d2e61f76eafa958" target="_top" xlink:title=" ">
<polygon fill="white" stroke="black" points="87.75,-0.5 87.75,-19.5 197.75,-19.5 197.75,-0.5 87.75,-0.5"/>
<text text-anchor="middle" x="142.75" y="-7.5" font-family="Helvetica,sans-Serif" font-size="10.00">rare.components.start</text>
</a>
</g>
</g>
<!-- Node1&#45;&gt;Node6 -->
<g id="edge9" class="edge">
<title>Node1&#45;&gt;Node6</title>
<path fill="none" stroke="midnightblue" d="M41.93,-62.45C61.28,-52.28 92.11,-36.08 114.39,-24.38"/>
<polygon fill="midnightblue" stroke="midnightblue" points="116.14,-27.41 123.36,-19.66 112.88,-21.22 116.14,-27.41"/>
</g>
<!-- Node3&#45;&gt;Node3 -->
<g id="edge4" class="edge">
<title>Node3&#45;&gt;Node3</title>
<path fill="none" stroke="midnightblue" d="M121.84,-87.16C116.8,-96.56 123.77,-105.5 142.75,-105.5 154.32,-105.5 161.43,-102.18 164.08,-97.46"/>
<polygon fill="midnightblue" stroke="midnightblue" points="167.56,-97.01 163.67,-87.16 160.57,-97.29 167.56,-97.01"/>
</g>
<!-- Node4 -->
<g id="node4" class="node">
<title>Node4</title>
<g id="a_node4"><a xlink:href="classrare_1_1shared_1_1workers_1_1worker_1_1_worker.html#a9998d928f5b6f30ebb69dc655c0756a8" target="_top" xlink:title=" ">
<polygon fill="white" stroke="black" points="243.75,-88 243.75,-118 378.75,-118 378.75,-88 243.75,-88"/>
<text text-anchor="start" x="251.75" y="-106" font-family="Helvetica,sans-Serif" font-size="10.00">rare.shared.workers.worker.</text>
<text text-anchor="middle" x="311.25" y="-95" font-family="Helvetica,sans-Serif" font-size="10.00">Worker.signals</text>
</a>
</g>
</g>
<!-- Node3&#45;&gt;Node4 -->
<g id="edge5" class="edge">
<title>Node3&#45;&gt;Node4</title>
<path fill="none" stroke="midnightblue" d="M208.13,-83.99C216.48,-85.54 225.1,-87.15 233.63,-88.73"/>
<polygon fill="midnightblue" stroke="midnightblue" points="233.1,-92.2 243.58,-90.59 234.39,-85.31 233.1,-92.2"/>
</g>
<!-- Node5 -->
<g id="node5" class="node">
<title>Node5</title>
<g id="a_node5"><a xlink:href="classrare_1_1shared_1_1rare__core_1_1_rare_core.html#a135560fc58fcc2e5cff07ec25c23a06c" target="_top" xlink:title=" ">
<polygon fill="white" stroke="black" points="287.75,-31.5 287.75,-50.5 334.75,-50.5 334.75,-31.5 287.75,-31.5"/>
<text text-anchor="middle" x="311.25" y="-38.5" font-family="Helvetica,sans-Serif" font-size="10.00">signals</text>
</a>
</g>
</g>
<!-- Node3&#45;&gt;Node5 -->
<g id="edge7" class="edge">
<title>Node3&#45;&gt;Node5</title>
<path fill="none" stroke="midnightblue" d="M208.13,-60.01C231.86,-55.6 257.76,-50.77 277.54,-47.09"/>
<polygon fill="midnightblue" stroke="midnightblue" points="278.37,-50.5 287.56,-45.23 277.09,-43.62 278.37,-50.5"/>
</g>
<!-- Node4&#45;&gt;Node4 -->
<g id="edge6" class="edge">
<title>Node4&#45;&gt;Node4</title>
<path fill="none" stroke="midnightblue" d="M281.98,-118.16C274.92,-127.56 284.68,-136.5 311.25,-136.5 327.45,-136.5 337.4,-133.18 341.11,-128.46"/>
<polygon fill="midnightblue" stroke="midnightblue" points="344.58,-127.95 340.53,-118.16 337.59,-128.34 344.58,-127.95"/>
</g>
<!-- Node5&#45;&gt;Node5 -->
<g id="edge8" class="edge">
<title>Node5&#45;&gt;Node5</title>
<path fill="none" stroke="midnightblue" d="M287.63,-49.31C271.88,-58.5 279.75,-69 311.25,-69 334.88,-69 345.22,-63.09 342.26,-56.26"/>
<polygon fill="midnightblue" stroke="midnightblue" points="344.56,-53.62 334.88,-49.31 339.76,-58.72 344.56,-53.62"/>
</g>
<!-- Node6&#45;&gt;Node6 -->
<g id="edge10" class="edge">
<title>Node6&#45;&gt;Node6</title>
<path fill="none" stroke="midnightblue" d="M124.26,-19.76C115.26,-28.57 121.43,-38 142.75,-38 156.42,-38 163.86,-34.13 165.08,-29.03"/>
<polygon fill="midnightblue" stroke="midnightblue" points="168.3,-27.67 161.25,-19.76 161.83,-30.34 168.3,-27.67"/>
</g>
</g>
</svg>
