<?xml version="1.0" encoding="UTF-8" standalone="no"?>
<!DOCTYPE svg PUBLIC "-//W3C//DTD SVG 1.1//EN"
 "http://www.w3.org/Graphics/SVG/1.1/DTD/svg11.dtd">
<!-- Generated by graphviz version 2.49.3 (20211027.1534)
 -->
<!-- Title: launch_game Pages: 1 -->
<!--zoomable 495 -->
<svg id="main" version="1.1" xmlns="http://www.w3.org/2000/svg" xmlns:xlink="http://www.w3.org/1999/xlink" xml:space="preserve" onload="init(evt)">
<style type="text/css"><![CDATA[
.edge:hover path { stroke: red; }
.edge:hover polygon { stroke: red; fill: red; }
]]></style>
<script type="text/javascript"><![CDATA[
var edges = document.getElementsByTagName('g');
if (edges && edges.length) {
  for (var i=0;i<edges.length;i++) {
    if (edges[i].id.substr(0,4)=='edge') {
      edges[i].setAttribute('class','edge');
    }
  }
}
]]></script>
        <defs>
                <circle id="rim" cx="0" cy="0" r="7"/>
                <circle id="rim2" cx="0" cy="0" r="3.5"/>
                <g id="zoomPlus">
                        <use xlink:href="#rim" fill="#404040">
                                <set attributeName="fill" to="#808080" begin="zoomplus.mouseover" end="zoomplus.mouseout"/>
                        </use>
                        <path d="M-4,0h8M0,-4v8" fill="none" stroke="white" stroke-width="1.5" pointer-events="none"/>
                </g>
                <g id="zoomMin">
                        <use xlink:href="#rim" fill="#404040">
                                <set attributeName="fill" to="#808080" begin="zoomminus.mouseover" end="zoomminus.mouseout"/>
                        </use>
                        <path d="M-4,0h8" fill="none" stroke="white" stroke-width="1.5" pointer-events="none"/>
                </g>
                <g id="dirArrow">
                        <path fill="none" stroke="white" stroke-width="1.5" d="M0,-3.0v7 M-2.5,-0.5L0,-3.0L2.5,-0.5"/>
                </g>
               <g id="resetDef">
                       <use xlink:href="#rim2" fill="#404040">
                               <set attributeName="fill" to="#808080" begin="reset.mouseover" end="reset.mouseout"/>
                       </use>
               </g>
        </defs>

<script type="text/javascript">
var viewWidth = 645;
var viewHeight = 495;
var sectionId = 'dynsection-27';
</script>
<script xlink:href="svgpan.js"/>
<svg id="graph" class="graph">
<g id="viewport">
<title>launch_game</title>
<polygon fill="white" stroke="transparent" points="-4,4 -4,-490.77 641,-490.77 641,4 -4,4"/>
<!-- Node1 -->
<g id="node1" class="node">
<title>Node1</title>
<g id="a_node1"><a xlink:title=" ">
<polygon fill="#bfbfbf" stroke="black" points="0,-312.27 0,-331.27 74,-331.27 74,-312.27 0,-312.27"/>
<text text-anchor="middle" x="37" y="-319.27" font-family="Helvetica,sans-Serif" font-size="10.00">launch_game</text>
</a>
</g>
</g>
<!-- Node1&#45;&gt;Node1 -->
<g id="edge25" class="edge">
<title>Node1&#45;&gt;Node1</title>
<path fill="none" stroke="midnightblue" d="M12.96,-331.53C1.26,-340.34 9.27,-349.77 37,-349.77 55.2,-349.77 64.9,-345.71 66.12,-340.42"/>
<polygon fill="midnightblue" stroke="midnightblue" points="69.04,-338.48 61.04,-331.53 62.96,-341.95 69.04,-338.48"/>
</g>
<!-- Node2 -->
<g id="node2" class="node">
<title>Node2</title>
<g id="a_node2"><a xlink:href="classrare_1_1components_1_1tabs_1_1games_1_1game__utils_1_1_game_utils.html#a7cdf5fdee61d4cb8e8c23deea2daed95" target="_top" xlink:title=" ">
<polygon fill="white" stroke="black" points="110,-407.77 110,-437.77 277,-437.77 277,-407.77 110,-407.77"/>
<text text-anchor="start" x="118" y="-425.77" font-family="Helvetica,sans-Serif" font-size="10.00">rare.components.tabs.games.game</text>
<text text-anchor="middle" x="193.5" y="-414.77" font-family="Helvetica,sans-Serif" font-size="10.00">_utils.GameUtils._launch_origin</text>
</a>
</g>
</g>
<!-- Node1&#45;&gt;Node2 -->
<g id="edge1" class="edge">
<title>Node1&#45;&gt;Node2</title>
<path fill="none" stroke="midnightblue" d="M44.57,-331.46C55.99,-347.59 81.08,-379.91 110,-397.77 113.41,-399.88 117.01,-401.82 120.73,-403.6"/>
<polygon fill="midnightblue" stroke="midnightblue" points="119.58,-406.92 130.15,-407.73 122.39,-400.51 119.58,-406.92"/>
</g>
<!-- Node3 -->
<g id="node3" class="node">
<title>Node3</title>
<g id="a_node3"><a xlink:href="classlegendary_1_1cli_1_1_legendary_c_l_i.html#a8874ae9686caf8e5f7ada83bf16d3502" target="_top" xlink:title=" ">
<polygon fill="white" stroke="black" points="154,-369.27 154,-388.27 233,-388.27 233,-369.27 154,-369.27"/>
<text text-anchor="middle" x="193.5" y="-376.27" font-family="Helvetica,sans-Serif" font-size="10.00">_launch_origin</text>
</a>
</g>
</g>
<!-- Node1&#45;&gt;Node3 -->
<g id="edge2" class="edge">
<title>Node1&#45;&gt;Node3</title>
<path fill="none" stroke="midnightblue" d="M53.19,-331.28C67.4,-339.81 89.47,-352.13 110,-359.77 120.65,-363.73 132.4,-367.03 143.6,-369.71"/>
<polygon fill="midnightblue" stroke="midnightblue" points="143.17,-373.2 153.69,-372 144.71,-366.38 143.17,-373.2"/>
</g>
<!-- Node4 -->
<g id="node4" class="node">
<title>Node4</title>
<g id="a_node4"><a xlink:href="classlegendary_1_1cli_1_1_legendary_c_l_i.html#a36b3fa477ce9c95dcbabbe0981b6ce5c" target="_top" xlink:title=" ">
<polygon fill="white" stroke="black" points="161.5,-331.27 161.5,-350.27 225.5,-350.27 225.5,-331.27 161.5,-331.27"/>
<text text-anchor="middle" x="193.5" y="-338.27" font-family="Helvetica,sans-Serif" font-size="10.00">_print_json</text>
</a>
</g>
</g>
<!-- Node1&#45;&gt;Node4 -->
<g id="edge3" class="edge">
<title>Node1&#45;&gt;Node4</title>
<path fill="none" stroke="midnightblue" d="M74.22,-326.22C97.3,-329.06 127.25,-332.75 151.24,-335.7"/>
<polygon fill="midnightblue" stroke="midnightblue" points="151.11,-339.21 161.46,-336.95 151.96,-332.26 151.11,-339.21"/>
</g>
<!-- Node5 -->
<g id="node5" class="node">
<title>Node5</title>
<g id="a_node5"><a xlink:href="classlegendary_1_1cli_1_1_legendary_c_l_i.html#a8f1867fc20fc1dd8a0a8d3491b049504" target="_top" xlink:title=" ">
<polygon fill="white" stroke="black" points="340.5,-467.27 340.5,-486.27 429.5,-486.27 429.5,-467.27 340.5,-467.27"/>
<text text-anchor="middle" x="385" y="-474.27" font-family="Helvetica,sans-Serif" font-size="10.00">_resolve_aliases</text>
</a>
</g>
</g>
<!-- Node1&#45;&gt;Node5 -->
<g id="edge4" class="edge">
<title>Node1&#45;&gt;Node5</title>
<path fill="none" stroke="midnightblue" d="M65.01,-312.18C113.14,-296.97 214.53,-273.68 277,-321.77 326.55,-359.91 268.85,-413.5 313,-457.77 317.96,-462.75 324.08,-466.46 330.62,-469.23"/>
<polygon fill="midnightblue" stroke="midnightblue" points="329.83,-472.66 340.43,-472.64 332.13,-466.05 329.83,-472.66"/>
</g>
<!-- Node6 -->
<g id="node6" class="node">
<title>Node6</title>
<g id="a_node6"><a xlink:href="classlegendary_1_1cli_1_1_legendary_c_l_i.html#af4fbd273910cd54acfef28e15b69d6ef" target="_top" xlink:title=" ">
<polygon fill="white" stroke="black" points="149,-237.27 149,-256.27 238,-256.27 238,-237.27 149,-237.27"/>
<text text-anchor="middle" x="193.5" y="-244.27" font-family="Helvetica,sans-Serif" font-size="10.00">crossover_setup</text>
</a>
</g>
</g>
<!-- Node1&#45;&gt;Node6 -->
<g id="edge5" class="edge">
<title>Node1&#45;&gt;Node6</title>
<path fill="none" stroke="midnightblue" d="M57.88,-312.12C84.65,-299.12 132.47,-275.91 163.32,-260.93"/>
<polygon fill="midnightblue" stroke="midnightblue" points="165.23,-263.9 172.69,-256.38 162.17,-257.6 165.23,-263.9"/>
</g>
<!-- Node13 -->
<g id="node13" class="node">
<title>Node13</title>
<g id="a_node13"><a xlink:href="namespacelegendary_1_1utils_1_1crossover.html#afcb04a9cdcff5e94b0c53b7f92276795" target="_top" xlink:title=" ">
<polygon fill="white" stroke="black" points="493,-56.77 493,-86.77 637,-86.77 637,-56.77 493,-56.77"/>
<text text-anchor="start" x="501" y="-74.77" font-family="Helvetica,sans-Serif" font-size="10.00">legendary.utils.crossover.mac</text>
<text text-anchor="middle" x="565" y="-63.77" font-family="Helvetica,sans-Serif" font-size="10.00">_is_valid_bottle</text>
</a>
</g>
</g>
<!-- Node1&#45;&gt;Node13 -->
<g id="edge26" class="edge">
<title>Node1&#45;&gt;Node13</title>
<path fill="none" stroke="midnightblue" d="M42.62,-312.17C64.77,-267.43 165.2,-78.88 313,-15.77 371.86,9.36 394.85,-0.49 457,-15.77 484.85,-22.62 513.48,-38.13 534.11,-51.1"/>
<polygon fill="midnightblue" stroke="midnightblue" points="532.41,-54.17 542.71,-56.65 536.21,-48.29 532.41,-54.17"/>
</g>
<!-- Node6&#45;&gt;Node5 -->
<g id="edge6" class="edge">
<title>Node6&#45;&gt;Node5</title>
<path fill="none" stroke="midnightblue" d="M228.42,-256.3C245.44,-262.78 264.96,-273.09 277,-288.77 323.77,-349.68 260.12,-402.08 313,-457.77 317.84,-462.87 323.89,-466.65 330.39,-469.45"/>
<polygon fill="midnightblue" stroke="midnightblue" points="329.58,-472.87 340.17,-472.88 331.9,-466.27 329.58,-472.87"/>
</g>
<!-- Node6&#45;&gt;Node6 -->
<g id="edge9" class="edge">
<title>Node6&#45;&gt;Node6</title>
<path fill="none" stroke="midnightblue" d="M169.46,-256.53C157.76,-265.34 165.77,-274.77 193.5,-274.77 211.7,-274.77 221.4,-270.71 222.62,-265.42"/>
<polygon fill="midnightblue" stroke="midnightblue" points="225.54,-263.48 217.54,-256.53 219.46,-266.95 225.54,-263.48"/>
</g>
<!-- Node7 -->
<g id="node7" class="node">
<title>Node7</title>
<g id="a_node7"><a xlink:href="namespacelegendary_1_1utils_1_1lfs.html#a46950c517bb47a4dbf895890512fcd10" target="_top" xlink:title=" ">
<polygon fill="white" stroke="black" points="327,-399.77 327,-429.77 443,-429.77 443,-399.77 327,-399.77"/>
<text text-anchor="start" x="335" y="-417.77" font-family="Helvetica,sans-Serif" font-size="10.00">legendary.utils.lfs.clean</text>
<text text-anchor="middle" x="385" y="-406.77" font-family="Helvetica,sans-Serif" font-size="10.00">_filename</text>
</a>
</g>
</g>
<!-- Node6&#45;&gt;Node7 -->
<g id="edge7" class="edge">
<title>Node6&#45;&gt;Node7</title>
<path fill="none" stroke="midnightblue" d="M225.99,-256.32C243.14,-262.96 263.55,-273.42 277,-288.77 308.68,-324.93 278.78,-357 313,-390.77 314.66,-392.4 316.43,-393.93 318.29,-395.35"/>
<polygon fill="midnightblue" stroke="midnightblue" points="316.65,-398.46 326.96,-400.93 320.44,-392.57 316.65,-398.46"/>
</g>
<!-- Node8 -->
<g id="node8" class="node">
<title>Node8</title>
<g id="a_node8"><a xlink:href="namespacelegendary_1_1utils_1_1cli.html#a5e8c34d0dce0b665a289cffe6b705fa9" target="_top" xlink:title=" ">
<polygon fill="white" stroke="black" points="332,-332.77 332,-362.77 438,-362.77 438,-332.77 332,-332.77"/>
<text text-anchor="start" x="340" y="-350.77" font-family="Helvetica,sans-Serif" font-size="10.00">legendary.utils.cli.get</text>
<text text-anchor="middle" x="385" y="-339.77" font-family="Helvetica,sans-Serif" font-size="10.00">_boolean_choice</text>
</a>
</g>
</g>
<!-- Node6&#45;&gt;Node8 -->
<g id="edge10" class="edge">
<title>Node6&#45;&gt;Node8</title>
<path fill="none" stroke="midnightblue" d="M217.61,-256.28C234.76,-263.86 258.31,-275.4 277,-288.77 295.15,-301.76 293.96,-312.13 313,-323.77 316.13,-325.68 319.42,-327.46 322.82,-329.12"/>
<polygon fill="midnightblue" stroke="midnightblue" points="321.41,-332.32 331.97,-333.21 324.27,-325.93 321.41,-332.32"/>
</g>
<!-- Node9 -->
<g id="node9" class="node">
<title>Node9</title>
<g id="a_node9"><a xlink:href="namespacelegendary_1_1utils_1_1cli.html#a56171997f5fe14d47b31556172fe0044" target="_top" xlink:title=" ">
<polygon fill="white" stroke="black" points="332,-265.77 332,-295.77 438,-295.77 438,-265.77 332,-265.77"/>
<text text-anchor="start" x="340" y="-283.77" font-family="Helvetica,sans-Serif" font-size="10.00">legendary.utils.cli.get</text>
<text text-anchor="middle" x="385" y="-272.77" font-family="Helvetica,sans-Serif" font-size="10.00">_int_choice</text>
</a>
</g>
</g>
<!-- Node6&#45;&gt;Node9 -->
<g id="edge12" class="edge">
<title>Node6&#45;&gt;Node9</title>
<path fill="none" stroke="midnightblue" d="M238.45,-254.66C263.28,-259.11 294.72,-264.75 322.02,-269.65"/>
<polygon fill="midnightblue" stroke="midnightblue" points="321.41,-273.1 331.87,-271.42 322.65,-266.21 321.41,-273.1"/>
</g>
<!-- Node10 -->
<g id="node10" class="node">
<title>Node10</title>
<g id="a_node10"><a xlink:href="namespacelegendary_1_1utils_1_1crossover.html#ab0581e55936af2c92558b9a8ffdb906b" target="_top" xlink:title=" ">
<polygon fill="white" stroke="black" points="313,-198.77 313,-228.77 457,-228.77 457,-198.77 313,-198.77"/>
<text text-anchor="start" x="321" y="-216.77" font-family="Helvetica,sans-Serif" font-size="10.00">legendary.utils.crossover.mac</text>
<text text-anchor="middle" x="385" y="-205.77" font-family="Helvetica,sans-Serif" font-size="10.00">_find_crossover_apps</text>
</a>
</g>
</g>
<!-- Node6&#45;&gt;Node10 -->
<g id="edge14" class="edge">
<title>Node6&#45;&gt;Node10</title>
<path fill="none" stroke="midnightblue" d="M238.45,-239.12C257.6,-235.78 280.69,-231.76 302.77,-227.92"/>
<polygon fill="midnightblue" stroke="midnightblue" points="303.58,-231.33 312.83,-226.16 302.38,-224.43 303.58,-231.33"/>
</g>
<!-- Node11 -->
<g id="node11" class="node">
<title>Node11</title>
<g id="a_node11"><a xlink:href="namespacelegendary_1_1utils_1_1crossover.html#a79316780c8fdab3118397fd892bea306" target="_top" xlink:title=" ">
<polygon fill="white" stroke="black" points="493,-176.77 493,-206.77 637,-206.77 637,-176.77 493,-176.77"/>
<text text-anchor="start" x="501" y="-194.77" font-family="Helvetica,sans-Serif" font-size="10.00">legendary.utils.crossover.mac</text>
<text text-anchor="middle" x="565" y="-183.77" font-family="Helvetica,sans-Serif" font-size="10.00">_get_crossover_version</text>
</a>
</g>
</g>
<!-- Node6&#45;&gt;Node11 -->
<g id="edge22" class="edge">
<title>Node6&#45;&gt;Node11</title>
<path fill="none" stroke="midnightblue" d="M209.04,-237.1C230.63,-223.37 272.94,-198.9 313,-189.77 368.65,-177.08 433.06,-177.9 482.69,-181.73"/>
<polygon fill="midnightblue" stroke="midnightblue" points="482.48,-185.22 492.74,-182.56 483.06,-178.24 482.48,-185.22"/>
</g>
<!-- Node12 -->
<g id="node12" class="node">
<title>Node12</title>
<g id="a_node12"><a xlink:href="namespacelegendary_1_1utils_1_1crossover.html#aa0edbed7fe6c00fdf4885a6d544e3618" target="_top" xlink:title=" ">
<polygon fill="white" stroke="black" points="313,-92.77 313,-122.77 457,-122.77 457,-92.77 313,-92.77"/>
<text text-anchor="start" x="321" y="-110.77" font-family="Helvetica,sans-Serif" font-size="10.00">legendary.utils.crossover.mac</text>
<text text-anchor="middle" x="385" y="-99.77" font-family="Helvetica,sans-Serif" font-size="10.00">_get_crossover_bottles</text>
</a>
</g>
</g>
<!-- Node6&#45;&gt;Node12 -->
<g id="edge18" class="edge">
<title>Node6&#45;&gt;Node12</title>
<path fill="none" stroke="midnightblue" d="M206.43,-237.22C227.6,-220.38 273.23,-184.44 313,-155.77 325.72,-146.6 340.01,-136.84 352.41,-128.53"/>
<polygon fill="midnightblue" stroke="midnightblue" points="354.67,-131.23 361.06,-122.77 350.79,-125.4 354.67,-131.23"/>
</g>
<!-- Node14 -->
<g id="node14" class="node">
<title>Node14</title>
<g id="a_node14"><a xlink:href="namespacelegendary_1_1utils_1_1crossover.html#a1d98ed5dc4f8b67b5c28ed02ccb013dc" target="_top" xlink:title=" ">
<polygon fill="white" stroke="black" points="313,-25.77 313,-55.77 457,-55.77 457,-25.77 313,-25.77"/>
<text text-anchor="start" x="321" y="-43.77" font-family="Helvetica,sans-Serif" font-size="10.00">legendary.utils.crossover.mac</text>
<text text-anchor="middle" x="385" y="-32.77" font-family="Helvetica,sans-Serif" font-size="10.00">_is_crossover_running</text>
</a>
</g>
</g>
<!-- Node6&#45;&gt;Node14 -->
<g id="edge23" class="edge">
<title>Node6&#45;&gt;Node14</title>
<path fill="none" stroke="midnightblue" d="M199.79,-236.92C214.68,-209.84 259.43,-133.02 313,-83.77 322.28,-75.24 333.51,-67.51 344.28,-61.04"/>
<polygon fill="midnightblue" stroke="midnightblue" points="346.25,-63.95 353.16,-55.91 342.75,-57.88 346.25,-63.95"/>
</g>
<!-- Node7&#45;&gt;Node7 -->
<g id="edge8" class="edge">
<title>Node7&#45;&gt;Node7</title>
<path fill="none" stroke="midnightblue" d="M353.63,-429.93C346.07,-439.33 356.52,-448.27 385,-448.27 402.35,-448.27 413.01,-444.95 416.98,-440.23"/>
<polygon fill="midnightblue" stroke="midnightblue" points="420.46,-439.7 416.37,-429.93 413.47,-440.12 420.46,-439.7"/>
</g>
<!-- Node8&#45;&gt;Node8 -->
<g id="edge11" class="edge">
<title>Node8&#45;&gt;Node8</title>
<path fill="none" stroke="midnightblue" d="M353.63,-362.93C346.07,-372.33 356.52,-381.27 385,-381.27 402.35,-381.27 413.01,-377.95 416.98,-373.23"/>
<polygon fill="midnightblue" stroke="midnightblue" points="420.46,-372.7 416.37,-362.93 413.47,-373.12 420.46,-372.7"/>
</g>
<!-- Node9&#45;&gt;Node9 -->
<g id="edge13" class="edge">
<title>Node9&#45;&gt;Node9</title>
<path fill="none" stroke="midnightblue" d="M353.63,-295.93C346.07,-305.33 356.52,-314.27 385,-314.27 402.35,-314.27 413.01,-310.95 416.98,-306.23"/>
<polygon fill="midnightblue" stroke="midnightblue" points="420.46,-305.7 416.37,-295.93 413.47,-306.12 420.46,-305.7"/>
</g>
<!-- Node10&#45;&gt;Node10 -->
<g id="edge15" class="edge">
<title>Node10&#45;&gt;Node10</title>
<path fill="none" stroke="midnightblue" d="M353.63,-228.93C346.07,-238.33 356.52,-247.27 385,-247.27 402.35,-247.27 413.01,-243.95 416.98,-239.23"/>
<polygon fill="midnightblue" stroke="midnightblue" points="420.46,-238.7 416.37,-228.93 413.47,-239.12 420.46,-238.7"/>
</g>
<!-- Node10&#45;&gt;Node11 -->
<g id="edge16" class="edge">
<title>Node10&#45;&gt;Node11</title>
<path fill="none" stroke="midnightblue" d="M457.12,-204.98C465.61,-203.93 474.33,-202.85 482.94,-201.79"/>
<polygon fill="midnightblue" stroke="midnightblue" points="483.5,-205.25 493,-200.55 482.64,-198.3 483.5,-205.25"/>
</g>
<!-- Node11&#45;&gt;Node11 -->
<g id="edge17" class="edge">
<title>Node11&#45;&gt;Node11</title>
<path fill="none" stroke="midnightblue" d="M533.63,-206.93C526.07,-216.33 536.52,-225.27 565,-225.27 582.35,-225.27 593.01,-221.95 596.98,-217.23"/>
<polygon fill="midnightblue" stroke="midnightblue" points="600.46,-216.7 596.37,-206.93 593.47,-217.12 600.46,-216.7"/>
</g>
<!-- Node12&#45;&gt;Node12 -->
<g id="edge19" class="edge">
<title>Node12&#45;&gt;Node12</title>
<path fill="none" stroke="midnightblue" d="M353.63,-122.93C346.07,-132.33 356.52,-141.27 385,-141.27 402.35,-141.27 413.01,-137.95 416.98,-133.23"/>
<polygon fill="midnightblue" stroke="midnightblue" points="420.46,-132.7 416.37,-122.93 413.47,-133.12 420.46,-132.7"/>
</g>
<!-- Node12&#45;&gt;Node13 -->
<g id="edge20" class="edge">
<title>Node12&#45;&gt;Node13</title>
<path fill="none" stroke="midnightblue" d="M457.12,-93.39C465.61,-91.67 474.33,-89.91 482.94,-88.16"/>
<polygon fill="midnightblue" stroke="midnightblue" points="483.89,-91.54 493,-86.13 482.5,-84.68 483.89,-91.54"/>
</g>
<!-- Node13&#45;&gt;Node13 -->
<g id="edge21" class="edge">
<title>Node13&#45;&gt;Node13</title>
<path fill="none" stroke="midnightblue" d="M533.63,-86.93C526.07,-96.33 536.52,-105.27 565,-105.27 582.35,-105.27 593.01,-101.95 596.98,-97.23"/>
<polygon fill="midnightblue" stroke="midnightblue" points="600.46,-96.7 596.37,-86.93 593.47,-97.12 600.46,-96.7"/>
</g>
<!-- Node14&#45;&gt;Node14 -->
<g id="edge24" class="edge">
<title>Node14&#45;&gt;Node14</title>
<path fill="none" stroke="midnightblue" d="M353.63,-55.93C346.07,-65.33 356.52,-74.27 385,-74.27 402.35,-74.27 413.01,-70.95 416.98,-66.23"/>
<polygon fill="midnightblue" stroke="midnightblue" points="420.46,-65.7 416.37,-55.93 413.47,-66.12 420.46,-65.7"/>
</g>
</g>
</svg>
        <g id="navigator" transform="translate(0 0)" fill="#404254">
                <rect fill="#f2f5e9" fill-opacity="0.5" stroke="#606060" stroke-width=".5" x="0" y="0" width="60" height="60"/>
                <use id="zoomplus" xlink:href="#zoomPlus" x="17" y="9" onmousedown="handleZoom(evt,'in')"/>
                <use id="zoomminus" xlink:href="#zoomMin" x="42" y="9" onmousedown="handleZoom(evt,'out')"/>
                <use id="reset" xlink:href="#resetDef" x="30" y="36" onmousedown="handleReset()"/>
                <g id="arrowUp" xlink:href="#dirArrow" transform="translate(30 24)" onmousedown="handlePan(0,-1)">
                  <use xlink:href="#rim" fill="#404040">
                        <set attributeName="fill" to="#808080" begin="arrowUp.mouseover" end="arrowUp.mouseout"/>
                  </use>
                  <path fill="none" stroke="white" stroke-width="1.5" d="M0,-3.0v7 M-2.5,-0.5L0,-3.0L2.5,-0.5"/>
                </g>
                <g id="arrowRight" xlink:href="#dirArrow" transform="rotate(90) translate(36 -43)" onmousedown="handlePan(1,0)">
                  <use xlink:href="#rim" fill="#404040">
                        <set attributeName="fill" to="#808080" begin="arrowRight.mouseover" end="arrowRight.mouseout"/>
                  </use>
                  <path fill="none" stroke="white" stroke-width="1.5" d="M0,-3.0v7 M-2.5,-0.5L0,-3.0L2.5,-0.5"/>
                </g>
                <g id="arrowDown" xlink:href="#dirArrow" transform="rotate(180) translate(-30 -48)" onmousedown="handlePan(0,1)">
                  <use xlink:href="#rim" fill="#404040">
                        <set attributeName="fill" to="#808080" begin="arrowDown.mouseover" end="arrowDown.mouseout"/>
                  </use>
                  <path fill="none" stroke="white" stroke-width="1.5" d="M0,-3.0v7 M-2.5,-0.5L0,-3.0L2.5,-0.5"/>
                </g>
                <g id="arrowLeft" xlink:href="#dirArrow" transform="rotate(270) translate(-36 17)" onmousedown="handlePan(-1,0)">
                  <use xlink:href="#rim" fill="#404040">
                        <set attributeName="fill" to="#808080" begin="arrowLeft.mouseover" end="arrowLeft.mouseout"/>
                  </use>
                  <path fill="none" stroke="white" stroke-width="1.5" d="M0,-3.0v7 M-2.5,-0.5L0,-3.0L2.5,-0.5"/>
                </g>
        </g>
        <svg viewBox="0 0 15 15" width="100%" height="30px" preserveAspectRatio="xMaxYMin meet">
         <g id="arrow_out" transform="scale(0.3 0.3)">
          <a xlink:href="classlegendary_1_1cli_1_1_legendary_c_l_i_aaa446a5a3dd51ddb063bbd7f3fc99bb5_cgraph_org.svg" target="_base">
           <rect id="button" ry="5" rx="5" y="6" x="6" height="38" width="38"
                fill="#f2f5e9" fill-opacity="0.5" stroke="#606060" stroke-width="1.0"/>
           <path id="arrow"
             d="M 11.500037,31.436501 C 11.940474,20.09759 22.043105,11.32322 32.158766,21.979434 L 37.068811,17.246167 C 37.068811,17.246167 37.088388,32 37.088388,32 L 22.160133,31.978069 C 22.160133,31.978069 26.997745,27.140456 26.997745,27.140456 C 18.528582,18.264221 13.291696,25.230495 11.500037,31.436501 z"
             style="fill:#404040;"/>
          </a>
         </g>
        </svg>
</svg>
