<?xml version="1.0" encoding="UTF-8" standalone="no"?>
<!DOCTYPE svg PUBLIC "-//W3C//DTD SVG 1.1//EN"
 "http://www.w3.org/Graphics/SVG/1.1/DTD/svg11.dtd">
<!-- Generated by graphviz version 2.49.3 (20211027.1534)
 -->
<!-- Title: download_image_blocking Pages: 1 -->
<!--zoomable 268 -->
<svg id="main" version="1.1" xmlns="http://www.w3.org/2000/svg" xmlns:xlink="http://www.w3.org/1999/xlink" xml:space="preserve" onload="init(evt)">
<style type="text/css"><![CDATA[
.edge:hover path { stroke: red; }
.edge:hover polygon { stroke: red; fill: red; }
]]></style>
<script type="text/javascript"><![CDATA[
var edges = document.getElementsByTagName('g');
if (edges && edges.length) {
  for (var i=0;i<edges.length;i++) {
    if (edges[i].id.substr(0,4)=='edge') {
      edges[i].setAttribute('class','edge');
    }
  }
}
]]></script>
        <defs>
                <circle id="rim" cx="0" cy="0" r="7"/>
                <circle id="rim2" cx="0" cy="0" r="3.5"/>
                <g id="zoomPlus">
                        <use xlink:href="#rim" fill="#404040">
                                <set attributeName="fill" to="#808080" begin="zoomplus.mouseover" end="zoomplus.mouseout"/>
                        </use>
                        <path d="M-4,0h8M0,-4v8" fill="none" stroke="white" stroke-width="1.5" pointer-events="none"/>
                </g>
                <g id="zoomMin">
                        <use xlink:href="#rim" fill="#404040">
                                <set attributeName="fill" to="#808080" begin="zoomminus.mouseover" end="zoomminus.mouseout"/>
                        </use>
                        <path d="M-4,0h8" fill="none" stroke="white" stroke-width="1.5" pointer-events="none"/>
                </g>
                <g id="dirArrow">
                        <path fill="none" stroke="white" stroke-width="1.5" d="M0,-3.0v7 M-2.5,-0.5L0,-3.0L2.5,-0.5"/>
                </g>
               <g id="resetDef">
                       <use xlink:href="#rim2" fill="#404040">
                               <set attributeName="fill" to="#808080" begin="reset.mouseover" end="reset.mouseout"/>
                       </use>
               </g>
        </defs>

<script type="text/javascript">
var viewWidth = 739;
var viewHeight = 268;
var sectionId = 'dynsection-6';
</script>
<script xlink:href="svgpan.js"/>
<svg id="graph" class="graph">
<g id="viewport">
<title>download_image_blocking</title>
<polygon fill="white" stroke="transparent" points="-4,4 -4,-263.5 735,-263.5 735,4 -4,4"/>
<!-- Node1 -->
<g id="node1" class="node">
<title>Node1</title>
<g id="a_node1"><a xlink:title=" ">
<polygon fill="#bfbfbf" stroke="black" points="0,-140 0,-159 131,-159 131,-140 0,-140"/>
<text text-anchor="middle" x="65.5" y="-147" font-family="Helvetica,sans-Serif" font-size="10.00">download_image_blocking</text>
</a>
</g>
</g>
<!-- Node1&#45;&gt;Node1 -->
<g id="edge3" class="edge">
<title>Node1&#45;&gt;Node1</title>
<path fill="none" stroke="midnightblue" d="M41.76,-159.26C30.22,-168.07 38.13,-177.5 65.5,-177.5 83.46,-177.5 93.04,-173.44 94.25,-168.15"/>
<polygon fill="midnightblue" stroke="midnightblue" points="97.19,-166.25 89.24,-159.26 91.09,-169.69 97.19,-166.25"/>
</g>
<!-- Node2 -->
<g id="node2" class="node">
<title>Node2</title>
<g id="a_node2"><a xlink:href="classrare_1_1shared_1_1image__manager_1_1_image_manager.html#aa1af2e48ef5d21eae429581cfe81f00b" target="_top" xlink:title=" ">
<polygon fill="white" stroke="black" points="187,-240 187,-259 255,-259 255,-240 187,-240"/>
<text text-anchor="middle" x="221" y="-247" font-family="Helvetica,sans-Serif" font-size="10.00">__download</text>
</a>
</g>
</g>
<!-- Node1&#45;&gt;Node2 -->
<g id="edge1" class="edge">
<title>Node1&#45;&gt;Node2</title>
<path fill="none" stroke="midnightblue" d="M76.23,-159.25C93.28,-175.86 130.26,-209.89 167,-230.5 170.64,-232.54 174.55,-234.44 178.53,-236.17"/>
<polygon fill="midnightblue" stroke="midnightblue" points="177.27,-239.43 187.85,-239.92 179.88,-232.94 177.27,-239.43"/>
</g>
<!-- Node3 -->
<g id="node3" class="node">
<title>Node3</title>
<g id="a_node3"><a xlink:href="classrare_1_1shared_1_1image__manager_1_1_image_manager.html#a4159dfc5e42dddbb3aef008534f2b82e" target="_top" xlink:title=" ">
<polygon fill="white" stroke="black" points="168,-202 168,-221 274,-221 274,-202 168,-202"/>
<text text-anchor="middle" x="221" y="-209" font-family="Helvetica,sans-Serif" font-size="10.00">__prepare_download</text>
</a>
</g>
</g>
<!-- Node1&#45;&gt;Node3 -->
<g id="edge2" class="edge">
<title>Node1&#45;&gt;Node3</title>
<path fill="none" stroke="midnightblue" d="M87.91,-159.1C108.15,-168.08 139.44,-181.68 167,-192.5 172.12,-194.51 177.55,-196.55 182.9,-198.52"/>
<polygon fill="midnightblue" stroke="midnightblue" points="181.78,-201.84 192.37,-201.95 184.16,-195.26 181.78,-201.84"/>
</g>
<!-- Node4 -->
<g id="node4" class="node">
<title>Node4</title>
<g id="a_node4"><a xlink:href="namespacerare_1_1utils_1_1paths.html#a90103beacb68901d003fc7d4982e99ba" target="_top" xlink:title=" ">
<polygon fill="white" stroke="black" points="167,-134.5 167,-164.5 275,-164.5 275,-134.5 167,-134.5"/>
<text text-anchor="start" x="175" y="-152.5" font-family="Helvetica,sans-Serif" font-size="10.00">rare.utils.paths.image</text>
<text text-anchor="middle" x="221" y="-141.5" font-family="Helvetica,sans-Serif" font-size="10.00">_icon_path</text>
</a>
</g>
</g>
<!-- Node1&#45;&gt;Node4 -->
<g id="edge4" class="edge">
<title>Node1&#45;&gt;Node4</title>
<path fill="none" stroke="midnightblue" d="M131.15,-149.5C139.54,-149.5 148.13,-149.5 156.5,-149.5"/>
<polygon fill="midnightblue" stroke="midnightblue" points="156.57,-153 166.57,-149.5 156.57,-146 156.57,-153"/>
</g>
<!-- Node8 -->
<g id="node8" class="node">
<title>Node8</title>
<g id="a_node8"><a xlink:href="namespacerare_1_1utils_1_1paths.html#a073747eac70d67ea5a25acb5e0ad9010" target="_top" xlink:title=" ">
<polygon fill="white" stroke="black" points="167,-67.5 167,-97.5 275,-97.5 275,-67.5 167,-67.5"/>
<text text-anchor="start" x="175" y="-85.5" font-family="Helvetica,sans-Serif" font-size="10.00">rare.utils.paths.image</text>
<text text-anchor="middle" x="221" y="-74.5" font-family="Helvetica,sans-Serif" font-size="10.00">_tall_path</text>
</a>
</g>
</g>
<!-- Node1&#45;&gt;Node8 -->
<g id="edge12" class="edge">
<title>Node1&#45;&gt;Node8</title>
<path fill="none" stroke="midnightblue" d="M88.49,-139.9C111.28,-129.95 147.52,-114.14 176.18,-101.63"/>
<polygon fill="midnightblue" stroke="midnightblue" points="177.82,-104.73 185.58,-97.52 175.02,-98.31 177.82,-104.73"/>
</g>
<!-- Node9 -->
<g id="node9" class="node">
<title>Node9</title>
<g id="a_node9"><a xlink:href="namespacerare_1_1utils_1_1paths.html#a63ca50e1dbf62bd5632bc84b8bda2f22" target="_top" xlink:title=" ">
<polygon fill="white" stroke="black" points="167,-0.5 167,-30.5 275,-30.5 275,-0.5 167,-0.5"/>
<text text-anchor="start" x="175" y="-18.5" font-family="Helvetica,sans-Serif" font-size="10.00">rare.utils.paths.image</text>
<text text-anchor="middle" x="221" y="-7.5" font-family="Helvetica,sans-Serif" font-size="10.00">_wide_path</text>
</a>
</g>
</g>
<!-- Node1&#45;&gt;Node9 -->
<g id="edge15" class="edge">
<title>Node1&#45;&gt;Node9</title>
<path fill="none" stroke="midnightblue" d="M76.89,-139.75C94.95,-122.88 133.4,-87.3 167,-58.5 175.23,-51.44 184.35,-43.94 192.67,-37.21"/>
<polygon fill="midnightblue" stroke="midnightblue" points="195.06,-39.77 200.66,-30.78 190.67,-34.32 195.06,-39.77"/>
</g>
<!-- Node4&#45;&gt;Node4 -->
<g id="edge11" class="edge">
<title>Node4&#45;&gt;Node4</title>
<path fill="none" stroke="midnightblue" d="M195.91,-164.66C189.85,-174.06 198.22,-183 221,-183 234.88,-183 243.41,-179.68 246.59,-174.96"/>
<polygon fill="midnightblue" stroke="midnightblue" points="250.07,-174.48 246.09,-164.66 243.08,-174.81 250.07,-174.48"/>
</g>
<!-- Node5 -->
<g id="node5" class="node">
<title>Node5</title>
<g id="a_node5"><a xlink:href="namespacerare_1_1utils_1_1paths.html#a26cca1020569c6b5f07f09723c3607b9" target="_top" xlink:title=" ">
<polygon fill="white" stroke="black" points="311,-67.5 311,-97.5 419,-97.5 419,-67.5 311,-67.5"/>
<text text-anchor="start" x="319" y="-85.5" font-family="Helvetica,sans-Serif" font-size="10.00">rare.utils.paths.image</text>
<text text-anchor="middle" x="365" y="-74.5" font-family="Helvetica,sans-Serif" font-size="10.00">_dir_game</text>
</a>
</g>
</g>
<!-- Node4&#45;&gt;Node5 -->
<g id="edge5" class="edge">
<title>Node4&#45;&gt;Node5</title>
<path fill="none" stroke="midnightblue" d="M255.7,-134.39C262.12,-131.47 268.78,-128.41 275,-125.5 291.09,-117.97 308.72,-109.5 324.01,-102.08"/>
<polygon fill="midnightblue" stroke="midnightblue" points="325.74,-105.13 333.2,-97.61 322.67,-98.84 325.74,-105.13"/>
</g>
<!-- Node5&#45;&gt;Node5 -->
<g id="edge10" class="edge">
<title>Node5&#45;&gt;Node5</title>
<path fill="none" stroke="midnightblue" d="M339.91,-97.66C333.85,-107.06 342.22,-116 365,-116 378.88,-116 387.41,-112.68 390.59,-107.96"/>
<polygon fill="midnightblue" stroke="midnightblue" points="394.07,-107.48 390.09,-97.66 387.08,-107.81 394.07,-107.48"/>
</g>
<!-- Node6 -->
<g id="node6" class="node">
<title>Node6</title>
<g id="a_node6"><a xlink:href="namespacerare_1_1utils_1_1paths.html#ada300860b11ac604daaa4afc32f76fb7" target="_top" xlink:title=" ">
<polygon fill="white" stroke="black" points="455,-73 455,-92 579,-92 579,-73 455,-73"/>
<text text-anchor="middle" x="517" y="-80" font-family="Helvetica,sans-Serif" font-size="10.00">rare.utils.paths.image_dir</text>
</a>
</g>
</g>
<!-- Node5&#45;&gt;Node6 -->
<g id="edge6" class="edge">
<title>Node5&#45;&gt;Node6</title>
<path fill="none" stroke="midnightblue" d="M419.31,-82.5C427.6,-82.5 436.28,-82.5 444.89,-82.5"/>
<polygon fill="midnightblue" stroke="midnightblue" points="444.94,-86 454.94,-82.5 444.94,-79 444.94,-86"/>
</g>
<!-- Node6&#45;&gt;Node6 -->
<g id="edge9" class="edge">
<title>Node6&#45;&gt;Node6</title>
<path fill="none" stroke="midnightblue" d="M493.57,-92.26C482.18,-101.07 489.98,-110.5 517,-110.5 534.73,-110.5 544.19,-106.44 545.37,-101.15"/>
<polygon fill="midnightblue" stroke="midnightblue" points="548.34,-99.3 540.43,-92.26 542.23,-102.7 548.34,-99.3"/>
</g>
<!-- Node7 -->
<g id="node7" class="node">
<title>Node7</title>
<g id="a_node7"><a xlink:href="namespacerare_1_1utils_1_1paths.html#aa160c55be4d6aad43da3d35e8a1dc97b" target="_top" xlink:title=" ">
<polygon fill="white" stroke="black" points="615,-73 615,-92 731,-92 731,-73 615,-73"/>
<text text-anchor="middle" x="673" y="-80" font-family="Helvetica,sans-Serif" font-size="10.00">rare.utils.paths.data_dir</text>
</a>
</g>
</g>
<!-- Node6&#45;&gt;Node7 -->
<g id="edge7" class="edge">
<title>Node6&#45;&gt;Node7</title>
<path fill="none" stroke="midnightblue" d="M579.31,-82.5C587.66,-82.5 596.26,-82.5 604.71,-82.5"/>
<polygon fill="midnightblue" stroke="midnightblue" points="604.91,-86 614.91,-82.5 604.91,-79 604.91,-86"/>
</g>
<!-- Node7&#45;&gt;Node7 -->
<g id="edge8" class="edge">
<title>Node7&#45;&gt;Node7</title>
<path fill="none" stroke="midnightblue" d="M648.96,-92.26C637.26,-101.07 645.27,-110.5 673,-110.5 691.2,-110.5 700.9,-106.44 702.12,-101.15"/>
<polygon fill="midnightblue" stroke="midnightblue" points="705.04,-99.21 697.04,-92.26 698.96,-102.68 705.04,-99.21"/>
</g>
<!-- Node8&#45;&gt;Node5 -->
<g id="edge13" class="edge">
<title>Node8&#45;&gt;Node5</title>
<path fill="none" stroke="midnightblue" d="M275.28,-82.5C283.56,-82.5 292.18,-82.5 300.66,-82.5"/>
<polygon fill="midnightblue" stroke="midnightblue" points="300.89,-86 310.89,-82.5 300.89,-79 300.89,-86"/>
</g>
<!-- Node8&#45;&gt;Node8 -->
<g id="edge14" class="edge">
<title>Node8&#45;&gt;Node8</title>
<path fill="none" stroke="midnightblue" d="M195.91,-97.66C189.85,-107.06 198.22,-116 221,-116 234.88,-116 243.41,-112.68 246.59,-107.96"/>
<polygon fill="midnightblue" stroke="midnightblue" points="250.07,-107.48 246.09,-97.66 243.08,-107.81 250.07,-107.48"/>
</g>
<!-- Node9&#45;&gt;Node5 -->
<g id="edge16" class="edge">
<title>Node9&#45;&gt;Node5</title>
<path fill="none" stroke="midnightblue" d="M253.87,-30.54C274.19,-40.12 300.73,-52.65 322.66,-62.99"/>
<polygon fill="midnightblue" stroke="midnightblue" points="321.21,-66.18 331.75,-67.28 324.2,-59.85 321.21,-66.18"/>
</g>
<!-- Node9&#45;&gt;Node9 -->
<g id="edge17" class="edge">
<title>Node9&#45;&gt;Node9</title>
<path fill="none" stroke="midnightblue" d="M195.91,-30.66C189.85,-40.06 198.22,-49 221,-49 234.88,-49 243.41,-45.68 246.59,-40.96"/>
<polygon fill="midnightblue" stroke="midnightblue" points="250.07,-40.48 246.09,-30.66 243.08,-40.81 250.07,-40.48"/>
</g>
</g>
</svg>
        <g id="navigator" transform="translate(0 0)" fill="#404254">
                <rect fill="#f2f5e9" fill-opacity="0.5" stroke="#606060" stroke-width=".5" x="0" y="0" width="60" height="60"/>
                <use id="zoomplus" xlink:href="#zoomPlus" x="17" y="9" onmousedown="handleZoom(evt,'in')"/>
                <use id="zoomminus" xlink:href="#zoomMin" x="42" y="9" onmousedown="handleZoom(evt,'out')"/>
                <use id="reset" xlink:href="#resetDef" x="30" y="36" onmousedown="handleReset()"/>
                <g id="arrowUp" xlink:href="#dirArrow" transform="translate(30 24)" onmousedown="handlePan(0,-1)">
                  <use xlink:href="#rim" fill="#404040">
                        <set attributeName="fill" to="#808080" begin="arrowUp.mouseover" end="arrowUp.mouseout"/>
                  </use>
                  <path fill="none" stroke="white" stroke-width="1.5" d="M0,-3.0v7 M-2.5,-0.5L0,-3.0L2.5,-0.5"/>
                </g>
                <g id="arrowRight" xlink:href="#dirArrow" transform="rotate(90) translate(36 -43)" onmousedown="handlePan(1,0)">
                  <use xlink:href="#rim" fill="#404040">
                        <set attributeName="fill" to="#808080" begin="arrowRight.mouseover" end="arrowRight.mouseout"/>
                  </use>
                  <path fill="none" stroke="white" stroke-width="1.5" d="M0,-3.0v7 M-2.5,-0.5L0,-3.0L2.5,-0.5"/>
                </g>
                <g id="arrowDown" xlink:href="#dirArrow" transform="rotate(180) translate(-30 -48)" onmousedown="handlePan(0,1)">
                  <use xlink:href="#rim" fill="#404040">
                        <set attributeName="fill" to="#808080" begin="arrowDown.mouseover" end="arrowDown.mouseout"/>
                  </use>
                  <path fill="none" stroke="white" stroke-width="1.5" d="M0,-3.0v7 M-2.5,-0.5L0,-3.0L2.5,-0.5"/>
                </g>
                <g id="arrowLeft" xlink:href="#dirArrow" transform="rotate(270) translate(-36 17)" onmousedown="handlePan(-1,0)">
                  <use xlink:href="#rim" fill="#404040">
                        <set attributeName="fill" to="#808080" begin="arrowLeft.mouseover" end="arrowLeft.mouseout"/>
                  </use>
                  <path fill="none" stroke="white" stroke-width="1.5" d="M0,-3.0v7 M-2.5,-0.5L0,-3.0L2.5,-0.5"/>
                </g>
        </g>
        <svg viewBox="0 0 15 15" width="100%" height="30px" preserveAspectRatio="xMaxYMin meet">
         <g id="arrow_out" transform="scale(0.3 0.3)">
          <a xlink:href="classrare_1_1shared_1_1image__manager_1_1_image_manager_a0f33d11820dcab6878441e35121d8402_cgraph_org.svg" target="_base">
           <rect id="button" ry="5" rx="5" y="6" x="6" height="38" width="38"
                fill="#f2f5e9" fill-opacity="0.5" stroke="#606060" stroke-width="1.0"/>
           <path id="arrow"
             d="M 11.500037,31.436501 C 11.940474,20.09759 22.043105,11.32322 32.158766,21.979434 L 37.068811,17.246167 C 37.068811,17.246167 37.088388,32 37.088388,32 L 22.160133,31.978069 C 22.160133,31.978069 26.997745,27.140456 26.997745,27.140456 C 18.528582,18.264221 13.291696,25.230495 11.500037,31.436501 z"
             style="fill:#404040;"/>
          </a>
         </g>
        </svg>
</svg>
