<?xml version="1.0" encoding="UTF-8" standalone="no"?>
<!DOCTYPE svg PUBLIC "-//W3C//DTD SVG 1.1//EN"
 "http://www.w3.org/Graphics/SVG/1.1/DTD/svg11.dtd">
<!-- Generated by graphviz version 2.49.3 (20211027.1534)
 -->
<!-- Title: sizeHint Pages: 1 -->
<svg width="156pt" height="46pt"
 viewBox="0.00 0.00 156.00 46.00" xmlns="http://www.w3.org/2000/svg" xmlns:xlink="http://www.w3.org/1999/xlink">
<g id="graph0" class="graph" transform="scale(1 1) rotate(0) translate(4 42)">
<title>sizeHint</title>
<polygon fill="white" stroke="transparent" points="-4,4 -4,-42 152,-42 152,4 -4,4"/>
<!-- Node1 -->
<g id="node1" class="node">
<title>Node1</title>
<g id="a_node1"><a xlink:title=" ">
<polygon fill="#bfbfbf" stroke="black" points="96,-0.5 96,-19.5 148,-19.5 148,-0.5 96,-0.5"/>
<text text-anchor="middle" x="122" y="-7.5" font-family="Helvetica,sans-Serif" font-size="10.00">sizeHint</text>
</a>
</g>
</g>
<!-- Node1&#45;&gt;Node1 -->
<g id="edge3" class="edge">
<title>Node1&#45;&gt;Node1</title>
<path fill="none" stroke="midnightblue" d="M139.04,-29.4C137.9,-34.31 132.22,-38 122,-38 105.65,-38 100.92,-28.57 107.82,-19.76"/>
<polygon fill="midnightblue" stroke="midnightblue" points="142.38,-28.35 136.18,-19.76 135.66,-30.34 142.38,-28.35"/>
</g>
<!-- Node2 -->
<g id="node2" class="node">
<title>Node2</title>
<g id="a_node2"><a xlink:href="classrare_1_1widgets_1_1collapsible__widget_1_1_collapsible_base.html#a58e1dc91f8780e6ffd61ed5fdc02b6cd" target="_top" xlink:title=" ">
<polygon fill="white" stroke="black" points="0,-0.5 0,-19.5 60,-19.5 60,-0.5 0,-0.5"/>
<text text-anchor="middle" x="30" y="-7.5" font-family="Helvetica,sans-Serif" font-size="10.00">setWidget</text>
</a>
</g>
</g>
<!-- Node1&#45;&gt;Node2 -->
<g id="edge1" class="edge">
<title>Node1&#45;&gt;Node2</title>
<path fill="none" stroke="midnightblue" d="M85.85,-10C77.32,-10 68.29,-10 60.07,-10"/>
<polygon fill="midnightblue" stroke="midnightblue" points="85.93,-13.5 95.93,-10 85.93,-6.5 85.93,-13.5"/>
</g>
<!-- Node2&#45;&gt;Node2 -->
<g id="edge2" class="edge">
<title>Node2&#45;&gt;Node2</title>
<path fill="none" stroke="midnightblue" d="M47.04,-29.4C45.9,-34.31 40.22,-38 30,-38 13.65,-38 8.92,-28.57 15.82,-19.76"/>
<polygon fill="midnightblue" stroke="midnightblue" points="50.38,-28.35 44.18,-19.76 43.66,-30.34 50.38,-28.35"/>
</g>
</g>
</svg>
