<?xml version="1.0" encoding="UTF-8" standalone="no"?>
<!DOCTYPE svg PUBLIC "-//W3C//DTD SVG 1.1//EN"
 "http://www.w3.org/Graphics/SVG/1.1/DTD/svg11.dtd">
<!-- Generated by graphviz version 2.49.3 (20211027.1534)
 -->
<!-- Title: install_game Pages: 1 -->
<svg width="701pt" height="272pt"
 viewBox="0.00 0.00 701.00 271.50" xmlns="http://www.w3.org/2000/svg" xmlns:xlink="http://www.w3.org/1999/xlink">
<g id="graph0" class="graph" transform="scale(1 1) rotate(0) translate(4 267.5)">
<title>install_game</title>
<polygon fill="white" stroke="transparent" points="-4,4 -4,-267.5 697,-267.5 697,4 -4,4"/>
<!-- Node1 -->
<g id="node1" class="node">
<title>Node1</title>
<g id="a_node1"><a xlink:title=" ">
<polygon fill="#bfbfbf" stroke="black" points="622,-151 622,-170 693,-170 693,-151 622,-151"/>
<text text-anchor="middle" x="657.5" y="-158" font-family="Helvetica,sans-Serif" font-size="10.00">install_game</text>
</a>
</g>
</g>
<!-- Node1&#45;&gt;Node1 -->
<g id="edge3" class="edge">
<title>Node1&#45;&gt;Node1</title>
<path fill="none" stroke="midnightblue" d="M688.56,-178.77C687.68,-184.24 677.32,-188.5 657.5,-188.5 628,-188.5 619.47,-179.07 631.91,-170.26"/>
<polygon fill="midnightblue" stroke="midnightblue" points="691.44,-176.77 683.09,-170.26 685.55,-180.56 691.44,-176.77"/>
</g>
<!-- Node2 -->
<g id="node2" class="node">
<title>Node2</title>
<g id="a_node2"><a xlink:href="classrare_1_1lgndr_1_1cli_1_1_legendary_c_l_i.html#a881d11b24342715864e29b218219f5f4" target="_top" xlink:title=" ">
<polygon fill="white" stroke="black" points="455,-226 455,-245 528,-245 528,-226 455,-226"/>
<text text-anchor="middle" x="491.5" y="-233" font-family="Helvetica,sans-Serif" font-size="10.00">import_game</text>
</a>
</g>
</g>
<!-- Node1&#45;&gt;Node2 -->
<g id="edge1" class="edge">
<title>Node1&#45;&gt;Node2</title>
<path fill="none" stroke="midnightblue" d="M640.03,-177.36C626.64,-190.06 606.65,-206.88 586,-216.5 567.98,-224.89 546.31,-229.59 528.37,-232.22"/>
<polygon fill="midnightblue" stroke="midnightblue" points="642.76,-179.58 647.45,-170.09 637.86,-174.58 642.76,-179.58"/>
</g>
<!-- Node3 -->
<g id="node3" class="node">
<title>Node3</title>
<g id="a_node3"><a xlink:href="classrare_1_1lgndr_1_1cli_1_1_legendary_c_l_i.html#a7de93b9e2b51b491d5c70be49680f66d" target="_top" xlink:title=" ">
<polygon fill="white" stroke="black" points="436.5,-170 436.5,-189 546.5,-189 546.5,-170 436.5,-170"/>
<text text-anchor="middle" x="491.5" y="-177" font-family="Helvetica,sans-Serif" font-size="10.00">install_game_cleanup</text>
</a>
</g>
</g>
<!-- Node1&#45;&gt;Node3 -->
<g id="edge4" class="edge">
<title>Node1&#45;&gt;Node3</title>
<path fill="none" stroke="midnightblue" d="M611.41,-159.62C584.54,-161.72 550.99,-165.78 526.39,-169.99"/>
<polygon fill="midnightblue" stroke="midnightblue" points="611.99,-163.09 621.72,-158.89 611.5,-156.11 611.99,-163.09"/>
</g>
<!-- Node4 -->
<g id="node4" class="node">
<title>Node4</title>
<g id="a_node4"><a xlink:href="classrare_1_1lgndr_1_1cli_1_1_legendary_c_l_i.html#ae0eac5fbd08c37bc6646b98c91d9f847" target="_top" xlink:title=" ">
<polygon fill="white" stroke="black" points="233,-158 233,-177 325,-177 325,-158 233,-158"/>
<text text-anchor="middle" x="279" y="-165" font-family="Helvetica,sans-Serif" font-size="10.00">install_game_real</text>
</a>
</g>
</g>
<!-- Node1&#45;&gt;Node4 -->
<g id="edge9" class="edge">
<title>Node1&#45;&gt;Node4</title>
<path fill="none" stroke="midnightblue" d="M611.48,-159.68C559.72,-158.94 472.2,-158.25 397,-160.5 373.3,-161.21 346.95,-162.72 325.25,-164.16"/>
<polygon fill="midnightblue" stroke="midnightblue" points="611.6,-163.19 621.65,-159.84 611.71,-156.19 611.6,-163.19"/>
</g>
<!-- Node5 -->
<g id="node5" class="node">
<title>Node5</title>
<g id="a_node5"><a xlink:href="classrare_1_1lgndr_1_1cli_1_1_legendary_c_l_i.html#a72a86e9e97d577472c8a8af9e4a67949" target="_top" xlink:title=" ">
<polygon fill="white" stroke="black" points="471,-76 471,-95 512,-95 512,-76 471,-76"/>
<text text-anchor="middle" x="491.5" y="-83" font-family="Helvetica,sans-Serif" font-size="10.00">move</text>
</a>
</g>
</g>
<!-- Node1&#45;&gt;Node5 -->
<g id="edge10" class="edge">
<title>Node1&#45;&gt;Node5</title>
<path fill="none" stroke="midnightblue" d="M627.04,-146.58C614.42,-140.66 599.51,-133.7 586,-127.5 560.6,-115.85 531.19,-102.7 512.24,-94.26"/>
<polygon fill="midnightblue" stroke="midnightblue" points="625.64,-149.79 636.18,-150.88 628.62,-143.46 625.64,-149.79"/>
</g>
<!-- Node7 -->
<g id="node7" class="node">
<title>Node7</title>
<g id="a_node7"><a xlink:href="classrare_1_1components_1_1tabs_1_1downloads_1_1_downloads_tab.html#ae7c3da1b257767f97a06a0f0f679036e" target="_top" xlink:title=" ">
<polygon fill="white" stroke="black" points="397,-5.5 397,-35.5 586,-35.5 586,-5.5 397,-5.5"/>
<text text-anchor="start" x="405" y="-23.5" font-family="Helvetica,sans-Serif" font-size="10.00">rare.components.tabs.downloads.</text>
<text text-anchor="middle" x="491.5" y="-12.5" font-family="Helvetica,sans-Serif" font-size="10.00">DownloadsTab.on_install_dialog_closed</text>
</a>
</g>
</g>
<!-- Node1&#45;&gt;Node7 -->
<g id="edge14" class="edge">
<title>Node1&#45;&gt;Node7</title>
<path fill="none" stroke="midnightblue" d="M646.29,-142.06C634.13,-121.47 612.16,-88.19 586,-66.5 570.4,-53.57 550.56,-43.15 533.16,-35.51"/>
<polygon fill="midnightblue" stroke="midnightblue" points="643.29,-143.86 651.3,-150.79 649.36,-140.37 643.29,-143.86"/>
</g>
<!-- Node2&#45;&gt;Node2 -->
<g id="edge2" class="edge">
<title>Node2&#45;&gt;Node2</title>
<path fill="none" stroke="midnightblue" d="M522.56,-253.77C521.68,-259.24 511.32,-263.5 491.5,-263.5 462,-263.5 453.47,-254.07 465.91,-245.26"/>
<polygon fill="midnightblue" stroke="midnightblue" points="525.44,-251.77 517.09,-245.26 519.55,-255.56 525.44,-251.77"/>
</g>
<!-- Node3&#45;&gt;Node1 -->
<g id="edge5" class="edge">
<title>Node3&#45;&gt;Node1</title>
<path fill="none" stroke="midnightblue" d="M556.91,-178.65C579.32,-176.41 603.56,-173.27 622.52,-170.03"/>
<polygon fill="midnightblue" stroke="midnightblue" points="556.4,-175.18 546.77,-179.61 557.06,-182.15 556.4,-175.18"/>
</g>
<!-- Node3&#45;&gt;Node3 -->
<g id="edge6" class="edge">
<title>Node3&#45;&gt;Node3</title>
<path fill="none" stroke="midnightblue" d="M522.56,-197.77C521.68,-203.24 511.32,-207.5 491.5,-207.5 462,-207.5 453.47,-198.07 465.91,-189.26"/>
<polygon fill="midnightblue" stroke="midnightblue" points="525.44,-195.77 517.09,-189.26 519.55,-199.56 525.44,-195.77"/>
</g>
<!-- Node3&#45;&gt;Node4 -->
<g id="edge7" class="edge">
<title>Node3&#45;&gt;Node4</title>
<path fill="none" stroke="midnightblue" d="M425.94,-175.82C393.31,-173.96 354.52,-171.75 325.14,-170.07"/>
<polygon fill="midnightblue" stroke="midnightblue" points="426.11,-179.33 436.29,-176.41 426.51,-172.35 426.11,-179.33"/>
</g>
<!-- Node4&#45;&gt;Node4 -->
<g id="edge8" class="edge">
<title>Node4&#45;&gt;Node4</title>
<path fill="none" stroke="midnightblue" d="M316.12,-185C316.12,-190.84 303.74,-195.5 279,-195.5 243.81,-195.5 233.64,-186.07 248.48,-177.26"/>
<polygon fill="midnightblue" stroke="midnightblue" points="318.67,-182.59 309.52,-177.26 313.34,-187.14 318.67,-182.59"/>
</g>
<!-- Node5&#45;&gt;Node5 -->
<g id="edge11" class="edge">
<title>Node5&#45;&gt;Node5</title>
<path fill="none" stroke="midnightblue" d="M520.56,-98.32C527.28,-106.12 517.59,-113.5 491.5,-113.5 458.75,-113.5 451.85,-101.88 470.78,-92.39"/>
<polygon fill="midnightblue" stroke="midnightblue" points="522.4,-95.33 512.22,-92.39 518.34,-101.04 522.4,-95.33"/>
</g>
<!-- Node6 -->
<g id="node6" class="node">
<title>Node6</title>
<g id="a_node6"><a xlink:href="classrare_1_1components_1_1main__window_1_1_main_window.html#afc38d280c34aec053559c9e55ade68a0" target="_top" xlink:title=" ">
<polygon fill="white" stroke="black" points="210,-68 210,-109 348,-109 348,-68 210,-68"/>
<text text-anchor="start" x="218" y="-97" font-family="Helvetica,sans-Serif" font-size="10.00">rare.components.main</text>
<text text-anchor="start" x="218" y="-86" font-family="Helvetica,sans-Serif" font-size="10.00">_window.MainWindow.show</text>
<text text-anchor="middle" x="279" y="-75" font-family="Helvetica,sans-Serif" font-size="10.00">_window_centered</text>
</a>
</g>
</g>
<!-- Node5&#45;&gt;Node6 -->
<g id="edge12" class="edge">
<title>Node5&#45;&gt;Node6</title>
<path fill="none" stroke="midnightblue" d="M460.35,-85.93C431.18,-86.35 385.94,-86.99 348.07,-87.53"/>
<polygon fill="midnightblue" stroke="midnightblue" points="460.75,-89.42 470.7,-85.78 460.65,-82.43 460.75,-89.42"/>
</g>
<!-- Node6&#45;&gt;Node6 -->
<g id="edge13" class="edge">
<title>Node6&#45;&gt;Node6</title>
<path fill="none" stroke="midnightblue" d="M313.06,-119.36C308,-124.2 296.64,-127.5 279,-127.5 250.77,-127.5 238.64,-119.04 242.61,-109.36"/>
<polygon fill="midnightblue" stroke="midnightblue" points="316.53,-119.9 315.39,-109.36 309.71,-118.31 316.53,-119.9"/>
</g>
<!-- Node7&#45;&gt;Node7 -->
<g id="edge19" class="edge">
<title>Node7&#45;&gt;Node7</title>
<path fill="none" stroke="midnightblue" d="M521,-45.96C517.34,-50.68 507.5,-54 491.5,-54 465.24,-54 455.6,-45.06 462.57,-35.66"/>
<polygon fill="midnightblue" stroke="midnightblue" points="524.47,-45.45 520.43,-35.66 517.48,-45.84 524.47,-45.45"/>
</g>
<!-- Node8 -->
<g id="node8" class="node">
<title>Node8</title>
<g id="a_node8"><a xlink:href="classrare_1_1components_1_1tabs_1_1downloads_1_1_downloads_tab.html#a34dfac3ae00e55c098b07fd107a14daa" target="_top" xlink:title=" ">
<polygon fill="white" stroke="black" points="197,-0.5 197,-30.5 361,-30.5 361,-0.5 197,-0.5"/>
<text text-anchor="start" x="205" y="-18.5" font-family="Helvetica,sans-Serif" font-size="10.00">rare.components.tabs.downloads.</text>
<text text-anchor="middle" x="279" y="-7.5" font-family="Helvetica,sans-Serif" font-size="10.00">DownloadsTab.get_install_options</text>
</a>
</g>
</g>
<!-- Node7&#45;&gt;Node8 -->
<g id="edge15" class="edge">
<title>Node7&#45;&gt;Node8</title>
<path fill="none" stroke="midnightblue" d="M386.81,-18.04C378.16,-17.83 369.5,-17.63 361.06,-17.43"/>
<polygon fill="midnightblue" stroke="midnightblue" points="386.87,-21.54 396.95,-18.28 387.03,-14.54 386.87,-21.54"/>
</g>
<!-- Node8&#45;&gt;Node8 -->
<g id="edge18" class="edge">
<title>Node8&#45;&gt;Node8</title>
<path fill="none" stroke="midnightblue" d="M314.18,-40.96C309.82,-45.68 298.09,-49 279,-49 247.68,-49 236.17,-40.06 244.49,-30.66"/>
<polygon fill="midnightblue" stroke="midnightblue" points="317.65,-40.41 313.51,-30.66 310.67,-40.87 317.65,-40.41"/>
</g>
<!-- Node9 -->
<g id="node9" class="node">
<title>Node9</title>
<g id="a_node9"><a xlink:href="classrare_1_1components_1_1tabs_1_1downloads_1_1_downloads_tab.html#a5b1b8c18cd3c7bb3fac72567db6d4f1e" target="_top" xlink:title=" ">
<polygon fill="white" stroke="black" points="0,-0.5 0,-30.5 161,-30.5 161,-0.5 0,-0.5"/>
<text text-anchor="start" x="8" y="-18.5" font-family="Helvetica,sans-Serif" font-size="10.00">rare.components.tabs.downloads.</text>
<text text-anchor="middle" x="80.5" y="-7.5" font-family="Helvetica,sans-Serif" font-size="10.00">DownloadsTab.add_update</text>
</a>
</g>
</g>
<!-- Node8&#45;&gt;Node9 -->
<g id="edge16" class="edge">
<title>Node8&#45;&gt;Node9</title>
<path fill="none" stroke="midnightblue" d="M186.89,-15.5C178.28,-15.5 169.59,-15.5 161.11,-15.5"/>
<polygon fill="midnightblue" stroke="midnightblue" points="186.94,-19 196.94,-15.5 186.94,-12 186.94,-19"/>
</g>
<!-- Node9&#45;&gt;Node9 -->
<g id="edge17" class="edge">
<title>Node9&#45;&gt;Node9</title>
<path fill="none" stroke="midnightblue" d="M115.68,-40.96C111.32,-45.68 99.59,-49 80.5,-49 49.18,-49 37.67,-40.06 45.99,-30.66"/>
<polygon fill="midnightblue" stroke="midnightblue" points="119.15,-40.41 115.01,-30.66 112.17,-40.87 119.15,-40.41"/>
</g>
</g>
</svg>
