<?xml version="1.0" encoding="UTF-8" standalone="no"?>
<!DOCTYPE svg PUBLIC "-//W3C//DTD SVG 1.1//EN"
 "http://www.w3.org/Graphics/SVG/1.1/DTD/svg11.dtd">
<!-- Generated by graphviz version 2.49.3 (20211027.1534)
 -->
<!-- Title: sizeHint Pages: 1 -->
<svg width="171pt" height="46pt"
 viewBox="0.00 0.00 171.00 46.00" xmlns="http://www.w3.org/2000/svg" xmlns:xlink="http://www.w3.org/1999/xlink">
<g id="graph0" class="graph" transform="scale(1 1) rotate(0) translate(4 42)">
<title>sizeHint</title>
<polygon fill="white" stroke="transparent" points="-4,4 -4,-42 167,-42 167,4 -4,4"/>
<!-- Node1 -->
<g id="node1" class="node">
<title>Node1</title>
<g id="a_node1"><a xlink:title=" ">
<polygon fill="#bfbfbf" stroke="black" points="0,-0.5 0,-19.5 52,-19.5 52,-0.5 0,-0.5"/>
<text text-anchor="middle" x="26" y="-7.5" font-family="Helvetica,sans-Serif" font-size="10.00">sizeHint</text>
</a>
</g>
</g>
<!-- Node1&#45;&gt;Node1 -->
<g id="edge3" class="edge">
<title>Node1&#45;&gt;Node1</title>
<path fill="none" stroke="midnightblue" d="M10.9,-19.76C3.55,-28.57 8.58,-38 26,-38 36.89,-38 42.94,-34.31 44.15,-29.4"/>
<polygon fill="midnightblue" stroke="midnightblue" points="47.45,-28.24 41.1,-19.76 40.78,-30.35 47.45,-28.24"/>
</g>
<!-- Node2 -->
<g id="node2" class="node">
<title>Node2</title>
<g id="a_node2"><a xlink:href="classrare_1_1utils_1_1extra__widgets_1_1_flow_layout.html#acd7a5b208d0d18ac43cc317209bd759c" target="_top" xlink:title=" ">
<polygon fill="white" stroke="black" points="88,-0.5 88,-19.5 163,-19.5 163,-0.5 88,-0.5"/>
<text text-anchor="middle" x="125.5" y="-7.5" font-family="Helvetica,sans-Serif" font-size="10.00">minimumSize</text>
</a>
</g>
</g>
<!-- Node1&#45;&gt;Node2 -->
<g id="edge1" class="edge">
<title>Node1&#45;&gt;Node2</title>
<path fill="none" stroke="midnightblue" d="M52.11,-10C59.9,-10 68.74,-10 77.51,-10"/>
<polygon fill="midnightblue" stroke="midnightblue" points="77.71,-13.5 87.71,-10 77.71,-6.5 77.71,-13.5"/>
</g>
<!-- Node2&#45;&gt;Node2 -->
<g id="edge2" class="edge">
<title>Node2&#45;&gt;Node2</title>
<path fill="none" stroke="midnightblue" d="M110.4,-19.76C103.05,-28.57 108.08,-38 125.5,-38 136.39,-38 142.44,-34.31 143.65,-29.4"/>
<polygon fill="midnightblue" stroke="midnightblue" points="146.95,-28.24 140.6,-19.76 140.28,-30.35 146.95,-28.24"/>
</g>
</g>
</svg>
