<?xml version="1.0" encoding="UTF-8" standalone="no"?>
<!DOCTYPE svg PUBLIC "-//W3C//DTD SVG 1.1//EN"
 "http://www.w3.org/Graphics/SVG/1.1/DTD/svg11.dtd">
<!-- Generated by graphviz version 2.49.3 (20211027.1534)
 -->
<!-- Title: centralWidget Pages: 1 -->
<!--zoomable 284 -->
<svg id="main" version="1.1" xmlns="http://www.w3.org/2000/svg" xmlns:xlink="http://www.w3.org/1999/xlink" xml:space="preserve" onload="init(evt)">
<style type="text/css"><![CDATA[
.edge:hover path { stroke: red; }
.edge:hover polygon { stroke: red; fill: red; }
]]></style>
<script type="text/javascript"><![CDATA[
var edges = document.getElementsByTagName('g');
if (edges && edges.length) {
  for (var i=0;i<edges.length;i++) {
    if (edges[i].id.substr(0,4)=='edge') {
      edges[i].setAttribute('class','edge');
    }
  }
}
]]></script>
        <defs>
                <circle id="rim" cx="0" cy="0" r="7"/>
                <circle id="rim2" cx="0" cy="0" r="3.5"/>
                <g id="zoomPlus">
                        <use xlink:href="#rim" fill="#404040">
                                <set attributeName="fill" to="#808080" begin="zoomplus.mouseover" end="zoomplus.mouseout"/>
                        </use>
                        <path d="M-4,0h8M0,-4v8" fill="none" stroke="white" stroke-width="1.5" pointer-events="none"/>
                </g>
                <g id="zoomMin">
                        <use xlink:href="#rim" fill="#404040">
                                <set attributeName="fill" to="#808080" begin="zoomminus.mouseover" end="zoomminus.mouseout"/>
                        </use>
                        <path d="M-4,0h8" fill="none" stroke="white" stroke-width="1.5" pointer-events="none"/>
                </g>
                <g id="dirArrow">
                        <path fill="none" stroke="white" stroke-width="1.5" d="M0,-3.0v7 M-2.5,-0.5L0,-3.0L2.5,-0.5"/>
                </g>
               <g id="resetDef">
                       <use xlink:href="#rim2" fill="#404040">
                               <set attributeName="fill" to="#808080" begin="reset.mouseover" end="reset.mouseout"/>
                       </use>
               </g>
        </defs>

<script type="text/javascript">
var viewWidth = 864;
var viewHeight = 284;
var sectionId = 'dynsection-11';
</script>
<script xlink:href="svgpan.js"/>
<svg id="graph" class="graph">
<g id="viewport">
<title>centralWidget</title>
<polygon fill="white" stroke="transparent" points="-4,4 -4,-280.48 860,-280.48 860,4 -4,4"/>
<!-- Node1 -->
<g id="node1" class="node">
<title>Node1</title>
<g id="a_node1"><a xlink:title=" ">
<polygon fill="#bfbfbf" stroke="black" points="780,-140 780,-159 856,-159 856,-140 780,-140"/>
<text text-anchor="middle" x="818" y="-147" font-family="Helvetica,sans-Serif" font-size="10.00">centralWidget</text>
</a>
</g>
</g>
<!-- Node1&#45;&gt;Node1 -->
<g id="edge1" class="edge">
<title>Node1&#45;&gt;Node1</title>
<path fill="none" stroke="midnightblue" d="M844.04,-168.53C842.62,-173.63 833.94,-177.5 818,-177.5 793.12,-177.5 785.92,-168.07 796.42,-159.26"/>
<polygon fill="midnightblue" stroke="midnightblue" points="847.07,-166.75 839.58,-159.26 840.76,-169.79 847.07,-166.75"/>
</g>
<!-- Node2 -->
<g id="node2" class="node">
<title>Node2</title>
<g id="a_node2"><a xlink:href="classrare_1_1widgets_1_1dialogs_1_1_action_dialog.html#af158ac9042a7aeb74a4f085f0f9c8552" target="_top" xlink:title=" ">
<polygon fill="white" stroke="black" points="612,-134.5 612,-164.5 744,-164.5 744,-134.5 612,-134.5"/>
<text text-anchor="start" x="620" y="-152.5" font-family="Helvetica,sans-Serif" font-size="10.00">rare.widgets.dialogs.Action</text>
<text text-anchor="middle" x="678" y="-141.5" font-family="Helvetica,sans-Serif" font-size="10.00">Dialog.setActive</text>
</a>
</g>
</g>
<!-- Node1&#45;&gt;Node2 -->
<g id="edge2" class="edge">
<title>Node1&#45;&gt;Node2</title>
<path fill="none" stroke="midnightblue" d="M769.52,-149.5C761.3,-149.5 752.62,-149.5 744.03,-149.5"/>
<polygon fill="midnightblue" stroke="midnightblue" points="769.66,-153 779.66,-149.5 769.66,-146 769.66,-153"/>
</g>
<!-- Node2&#45;&gt;Node2 -->
<g id="edge22" class="edge">
<title>Node2&#45;&gt;Node2</title>
<path fill="none" stroke="midnightblue" d="M702.88,-174.96C699.79,-179.68 691.5,-183 678,-183 655.85,-183 647.72,-174.06 653.6,-164.66"/>
<polygon fill="midnightblue" stroke="midnightblue" points="706.36,-174.49 702.4,-164.66 699.37,-174.81 706.36,-174.49"/>
</g>
<!-- Node3 -->
<g id="node3" class="node">
<title>Node3</title>
<g id="a_node3"><a xlink:href="classrare_1_1widgets_1_1dialogs_1_1_action_dialog.html#a10c562aecba2dac76244db2a3ffd290d" target="_top" xlink:title=" ">
<polygon fill="white" stroke="black" points="205.5,-201.5 205.5,-231.5 337.5,-231.5 337.5,-201.5 205.5,-201.5"/>
<text text-anchor="start" x="213.5" y="-219.5" font-family="Helvetica,sans-Serif" font-size="10.00">rare.widgets.dialogs.Action</text>
<text text-anchor="middle" x="271.5" y="-208.5" font-family="Helvetica,sans-Serif" font-size="10.00">Dialog.action</text>
</a>
</g>
</g>
<!-- Node2&#45;&gt;Node3 -->
<g id="edge3" class="edge">
<title>Node2&#45;&gt;Node3</title>
<path fill="none" stroke="midnightblue" d="M663.59,-173.26C646.98,-199.99 615.92,-241.96 576,-259.5 483.19,-300.28 360.44,-256.56 303.71,-231.51"/>
<polygon fill="midnightblue" stroke="midnightblue" points="666.7,-174.88 668.85,-164.51 660.7,-171.28 666.7,-174.88"/>
</g>
<!-- Node4 -->
<g id="node4" class="node">
<title>Node4</title>
<g id="a_node4"><a xlink:href="classrare_1_1components_1_1dialogs_1_1install_1_1dialog_1_1_install_dialog.html#a91c6c5717fad488963fe42e9bc046c11" target="_top" xlink:title=" ">
<polygon fill="white" stroke="black" points="397,-134.5 397,-164.5 576,-164.5 576,-134.5 397,-134.5"/>
<text text-anchor="start" x="405" y="-152.5" font-family="Helvetica,sans-Serif" font-size="10.00">rare.components.dialogs.install.dialog.</text>
<text text-anchor="middle" x="486.5" y="-141.5" font-family="Helvetica,sans-Serif" font-size="10.00">InstallDialog.action_handler</text>
</a>
</g>
</g>
<!-- Node2&#45;&gt;Node4 -->
<g id="edge5" class="edge">
<title>Node2&#45;&gt;Node4</title>
<path fill="none" stroke="midnightblue" d="M601.71,-149.5C593.35,-149.5 584.77,-149.5 576.27,-149.5"/>
<polygon fill="midnightblue" stroke="midnightblue" points="601.78,-153 611.78,-149.5 601.78,-146 601.78,-153"/>
</g>
<!-- Node6 -->
<g id="node6" class="node">
<title>Node6</title>
<g id="a_node6"><a xlink:href="classrare_1_1components_1_1dialogs_1_1move_1_1_move_dialog.html#a91c6c5717fad488963fe42e9bc046c11" target="_top" xlink:title=" ">
<polygon fill="white" stroke="black" points="411.5,-201.5 411.5,-231.5 561.5,-231.5 561.5,-201.5 411.5,-201.5"/>
<text text-anchor="start" x="419.5" y="-219.5" font-family="Helvetica,sans-Serif" font-size="10.00">rare.components.dialogs.move.</text>
<text text-anchor="middle" x="486.5" y="-208.5" font-family="Helvetica,sans-Serif" font-size="10.00">MoveDialog.action_handler</text>
</a>
</g>
</g>
<!-- Node2&#45;&gt;Node6 -->
<g id="edge10" class="edge">
<title>Node2&#45;&gt;Node6</title>
<path fill="none" stroke="midnightblue" d="M635.09,-168.87C617.12,-176.78 595.75,-185.65 576,-192.5 566.82,-195.68 557,-198.71 547.35,-201.47"/>
<polygon fill="midnightblue" stroke="midnightblue" points="636.98,-171.86 644.7,-164.6 634.14,-165.47 636.98,-171.86"/>
</g>
<!-- Node7 -->
<g id="node7" class="node">
<title>Node7</title>
<g id="a_node7"><a xlink:href="classrare_1_1components_1_1dialogs_1_1move_1_1_move_dialog.html#ad19ad97d4c365a238e29bf69deae4636" target="_top" xlink:title=" ">
<polygon fill="white" stroke="black" points="411.5,-67.5 411.5,-97.5 561.5,-97.5 561.5,-67.5 411.5,-67.5"/>
<text text-anchor="start" x="419.5" y="-85.5" font-family="Helvetica,sans-Serif" font-size="10.00">rare.components.dialogs.move.</text>
<text text-anchor="middle" x="486.5" y="-74.5" font-family="Helvetica,sans-Serif" font-size="10.00">MoveDialog.reject_handler</text>
</a>
</g>
</g>
<!-- Node2&#45;&gt;Node7 -->
<g id="edge14" class="edge">
<title>Node2&#45;&gt;Node7</title>
<path fill="none" stroke="midnightblue" d="M624.68,-131C594.95,-120.49 558.19,-107.49 530.21,-97.6"/>
<polygon fill="midnightblue" stroke="midnightblue" points="623.88,-134.43 634.47,-134.46 626.21,-127.83 623.88,-134.43"/>
</g>
<!-- Node10 -->
<g id="node10" class="node">
<title>Node10</title>
<g id="a_node10"><a xlink:href="classrare_1_1components_1_1dialogs_1_1install_1_1dialog_1_1_install_dialog.html#a28b2dbb84b35512e356dcdff0827aac2" target="_top" xlink:title=" ">
<polygon fill="white" stroke="black" points="397,-0.5 397,-30.5 576,-30.5 576,-0.5 397,-0.5"/>
<text text-anchor="start" x="405" y="-18.5" font-family="Helvetica,sans-Serif" font-size="10.00">rare.components.dialogs.install.dialog.</text>
<text text-anchor="middle" x="486.5" y="-7.5" font-family="Helvetica,sans-Serif" font-size="10.00">InstallDialog.same_platform</text>
</a>
</g>
</g>
<!-- Node2&#45;&gt;Node10 -->
<g id="edge20" class="edge">
<title>Node2&#45;&gt;Node10</title>
<path fill="none" stroke="midnightblue" d="M655.97,-126.86C636.57,-106.86 606.26,-77.8 576,-57.5 560.32,-46.98 541.6,-37.69 525.43,-30.54"/>
<polygon fill="midnightblue" stroke="midnightblue" points="653.66,-129.5 663.1,-134.31 658.71,-124.66 653.66,-129.5"/>
</g>
<!-- Node3&#45;&gt;Node3 -->
<g id="edge4" class="edge">
<title>Node3&#45;&gt;Node3</title>
<path fill="none" stroke="midnightblue" d="M306.68,-241.96C302.32,-246.68 290.59,-250 271.5,-250 240.18,-250 228.67,-241.06 236.99,-231.66"/>
<polygon fill="midnightblue" stroke="midnightblue" points="310.15,-241.41 306.01,-231.66 303.17,-241.87 310.15,-241.41"/>
</g>
<!-- Node4&#45;&gt;Node3 -->
<g id="edge6" class="edge">
<title>Node4&#45;&gt;Node3</title>
<path fill="none" stroke="midnightblue" d="M434.57,-167.96C412.13,-175.87 385.37,-185 361,-192.5 351.11,-195.54 340.54,-198.59 330.27,-201.44"/>
<polygon fill="midnightblue" stroke="midnightblue" points="435.97,-171.18 444.23,-164.54 433.64,-164.58 435.97,-171.18"/>
</g>
<!-- Node4&#45;&gt;Node4 -->
<g id="edge7" class="edge">
<title>Node4&#45;&gt;Node4</title>
<path fill="none" stroke="midnightblue" d="M520.26,-174.96C516.07,-179.68 504.82,-183 486.5,-183 456.44,-183 445.4,-174.06 453.39,-164.66"/>
<polygon fill="midnightblue" stroke="midnightblue" points="523.73,-174.42 519.61,-164.66 516.75,-174.86 523.73,-174.42"/>
</g>
<!-- Node5 -->
<g id="node5" class="node">
<title>Node5</title>
<g id="a_node5"><a xlink:href="classrare_1_1components_1_1dialogs_1_1install_1_1dialog_1_1_install_dialog.html#aa902973791e81c8c4542da337b86289b" target="_top" xlink:title=" ">
<polygon fill="white" stroke="black" points="182,-134.5 182,-164.5 361,-164.5 361,-134.5 182,-134.5"/>
<text text-anchor="start" x="190" y="-152.5" font-family="Helvetica,sans-Serif" font-size="10.00">rare.components.dialogs.install.dialog.</text>
<text text-anchor="middle" x="271.5" y="-141.5" font-family="Helvetica,sans-Serif" font-size="10.00">InstallDialog.execute</text>
</a>
</g>
</g>
<!-- Node4&#45;&gt;Node5 -->
<g id="edge8" class="edge">
<title>Node4&#45;&gt;Node5</title>
<path fill="none" stroke="midnightblue" d="M386.46,-149.5C378.01,-149.5 369.5,-149.5 361.14,-149.5"/>
<polygon fill="midnightblue" stroke="midnightblue" points="386.71,-153 396.71,-149.5 386.71,-146 386.71,-153"/>
</g>
<!-- Node5&#45;&gt;Node5 -->
<g id="edge9" class="edge">
<title>Node5&#45;&gt;Node5</title>
<path fill="none" stroke="midnightblue" d="M306.68,-174.96C302.32,-179.68 290.59,-183 271.5,-183 240.18,-183 228.67,-174.06 236.99,-164.66"/>
<polygon fill="midnightblue" stroke="midnightblue" points="310.15,-174.41 306.01,-164.66 303.17,-174.87 310.15,-174.41"/>
</g>
<!-- Node6&#45;&gt;Node3 -->
<g id="edge11" class="edge">
<title>Node6&#45;&gt;Node3</title>
<path fill="none" stroke="midnightblue" d="M401.04,-216.5C379.92,-216.5 357.58,-216.5 337.56,-216.5"/>
<polygon fill="midnightblue" stroke="midnightblue" points="401.3,-220 411.3,-216.5 401.3,-213 401.3,-220"/>
</g>
<!-- Node6&#45;&gt;Node5 -->
<g id="edge13" class="edge">
<title>Node6&#45;&gt;Node5</title>
<path fill="none" stroke="midnightblue" d="M418.05,-198.72C410.92,-196.69 403.8,-194.59 397,-192.5 369.03,-183.89 337.9,-173.14 313.77,-164.54"/>
<polygon fill="midnightblue" stroke="midnightblue" points="417.16,-202.1 427.73,-201.44 419.05,-195.37 417.16,-202.1"/>
</g>
<!-- Node6&#45;&gt;Node6 -->
<g id="edge12" class="edge">
<title>Node6&#45;&gt;Node6</title>
<path fill="none" stroke="midnightblue" d="M520.26,-241.96C516.07,-246.68 504.82,-250 486.5,-250 456.44,-250 445.4,-241.06 453.39,-231.66"/>
<polygon fill="midnightblue" stroke="midnightblue" points="523.73,-241.42 519.61,-231.66 516.75,-241.86 523.73,-241.42"/>
</g>
<!-- Node7&#45;&gt;Node7 -->
<g id="edge19" class="edge">
<title>Node7&#45;&gt;Node7</title>
<path fill="none" stroke="midnightblue" d="M520.26,-107.96C516.07,-112.68 504.82,-116 486.5,-116 456.44,-116 445.4,-107.06 453.39,-97.66"/>
<polygon fill="midnightblue" stroke="midnightblue" points="523.73,-107.42 519.61,-97.66 516.75,-107.86 523.73,-107.42"/>
</g>
<!-- Node8 -->
<g id="node8" class="node">
<title>Node8</title>
<g id="a_node8"><a xlink:href="classrare_1_1widgets_1_1dialogs_1_1_button_dialog.html#aa236e1c39388858634236a92a98ff13e" target="_top" xlink:title=" ">
<polygon fill="white" stroke="black" points="251,-73 251,-92 292,-92 292,-73 251,-73"/>
<text text-anchor="middle" x="271.5" y="-80" font-family="Helvetica,sans-Serif" font-size="10.00">reject</text>
</a>
</g>
</g>
<!-- Node7&#45;&gt;Node8 -->
<g id="edge15" class="edge">
<title>Node7&#45;&gt;Node8</title>
<path fill="none" stroke="midnightblue" d="M401.27,-82.5C361.4,-82.5 317.18,-82.5 292.31,-82.5"/>
<polygon fill="midnightblue" stroke="midnightblue" points="401.3,-86 411.3,-82.5 401.3,-79 401.3,-86"/>
</g>
<!-- Node8&#45;&gt;Node8 -->
<g id="edge18" class="edge">
<title>Node8&#45;&gt;Node8</title>
<path fill="none" stroke="midnightblue" d="M301.76,-92.11C316.98,-100.96 306.89,-110.5 271.5,-110.5 230.31,-110.5 223.4,-97.58 250.75,-87.86"/>
<polygon fill="midnightblue" stroke="midnightblue" points="302.81,-88.74 292.25,-87.86 299.96,-95.13 302.81,-88.74"/>
</g>
<!-- Node9 -->
<g id="node9" class="node">
<title>Node9</title>
<g id="a_node9"><a xlink:href="classrare_1_1components_1_1dialogs_1_1login_1_1_login_dialog.html#a6c3ea5ef9b9848bf1214c66978e3d59d" target="_top" xlink:title=" ">
<polygon fill="white" stroke="black" points="0,-67.5 0,-97.5 146,-97.5 146,-67.5 0,-67.5"/>
<text text-anchor="start" x="8" y="-85.5" font-family="Helvetica,sans-Serif" font-size="10.00">rare.components.dialogs.login.</text>
<text text-anchor="middle" x="73" y="-74.5" font-family="Helvetica,sans-Serif" font-size="10.00">LoginDialog.login</text>
</a>
</g>
</g>
<!-- Node8&#45;&gt;Node9 -->
<g id="edge16" class="edge">
<title>Node8&#45;&gt;Node9</title>
<path fill="none" stroke="midnightblue" d="M240.64,-82.5C215.58,-82.5 178.74,-82.5 146.07,-82.5"/>
<polygon fill="midnightblue" stroke="midnightblue" points="240.94,-86 250.94,-82.5 240.94,-79 240.94,-86"/>
</g>
<!-- Node9&#45;&gt;Node9 -->
<g id="edge17" class="edge">
<title>Node9&#45;&gt;Node9</title>
<path fill="none" stroke="midnightblue" d="M108.18,-107.96C103.82,-112.68 92.09,-116 73,-116 41.68,-116 30.17,-107.06 38.49,-97.66"/>
<polygon fill="midnightblue" stroke="midnightblue" points="111.65,-107.41 107.51,-97.66 104.67,-107.87 111.65,-107.41"/>
</g>
<!-- Node10&#45;&gt;Node10 -->
<g id="edge21" class="edge">
<title>Node10&#45;&gt;Node10</title>
<path fill="none" stroke="midnightblue" d="M520.26,-40.96C516.07,-45.68 504.82,-49 486.5,-49 456.44,-49 445.4,-40.06 453.39,-30.66"/>
<polygon fill="midnightblue" stroke="midnightblue" points="523.73,-40.42 519.61,-30.66 516.75,-40.86 523.73,-40.42"/>
</g>
</g>
</svg>
        <g id="navigator" transform="translate(0 0)" fill="#404254">
                <rect fill="#f2f5e9" fill-opacity="0.5" stroke="#606060" stroke-width=".5" x="0" y="0" width="60" height="60"/>
                <use id="zoomplus" xlink:href="#zoomPlus" x="17" y="9" onmousedown="handleZoom(evt,'in')"/>
                <use id="zoomminus" xlink:href="#zoomMin" x="42" y="9" onmousedown="handleZoom(evt,'out')"/>
                <use id="reset" xlink:href="#resetDef" x="30" y="36" onmousedown="handleReset()"/>
                <g id="arrowUp" xlink:href="#dirArrow" transform="translate(30 24)" onmousedown="handlePan(0,-1)">
                  <use xlink:href="#rim" fill="#404040">
                        <set attributeName="fill" to="#808080" begin="arrowUp.mouseover" end="arrowUp.mouseout"/>
                  </use>
                  <path fill="none" stroke="white" stroke-width="1.5" d="M0,-3.0v7 M-2.5,-0.5L0,-3.0L2.5,-0.5"/>
                </g>
                <g id="arrowRight" xlink:href="#dirArrow" transform="rotate(90) translate(36 -43)" onmousedown="handlePan(1,0)">
                  <use xlink:href="#rim" fill="#404040">
                        <set attributeName="fill" to="#808080" begin="arrowRight.mouseover" end="arrowRight.mouseout"/>
                  </use>
                  <path fill="none" stroke="white" stroke-width="1.5" d="M0,-3.0v7 M-2.5,-0.5L0,-3.0L2.5,-0.5"/>
                </g>
                <g id="arrowDown" xlink:href="#dirArrow" transform="rotate(180) translate(-30 -48)" onmousedown="handlePan(0,1)">
                  <use xlink:href="#rim" fill="#404040">
                        <set attributeName="fill" to="#808080" begin="arrowDown.mouseover" end="arrowDown.mouseout"/>
                  </use>
                  <path fill="none" stroke="white" stroke-width="1.5" d="M0,-3.0v7 M-2.5,-0.5L0,-3.0L2.5,-0.5"/>
                </g>
                <g id="arrowLeft" xlink:href="#dirArrow" transform="rotate(270) translate(-36 17)" onmousedown="handlePan(-1,0)">
                  <use xlink:href="#rim" fill="#404040">
                        <set attributeName="fill" to="#808080" begin="arrowLeft.mouseover" end="arrowLeft.mouseout"/>
                  </use>
                  <path fill="none" stroke="white" stroke-width="1.5" d="M0,-3.0v7 M-2.5,-0.5L0,-3.0L2.5,-0.5"/>
                </g>
        </g>
        <svg viewBox="0 0 15 15" width="100%" height="30px" preserveAspectRatio="xMaxYMin meet">
         <g id="arrow_out" transform="scale(0.3 0.3)">
          <a xlink:href="classrare_1_1widgets_1_1dialogs_1_1_button_dialog_acfe7313b68b17f07cefdc9aa5d2dfe6b_icgraph_org.svg" target="_base">
           <rect id="button" ry="5" rx="5" y="6" x="6" height="38" width="38"
                fill="#f2f5e9" fill-opacity="0.5" stroke="#606060" stroke-width="1.0"/>
           <path id="arrow"
             d="M 11.500037,31.436501 C 11.940474,20.09759 22.043105,11.32322 32.158766,21.979434 L 37.068811,17.246167 C 37.068811,17.246167 37.088388,32 37.088388,32 L 22.160133,31.978069 C 22.160133,31.978069 26.997745,27.140456 26.997745,27.140456 C 18.528582,18.264221 13.291696,25.230495 11.500037,31.436501 z"
             style="fill:#404040;"/>
          </a>
         </g>
        </svg>
</svg>
