<?xml version="1.0" encoding="UTF-8" standalone="no"?>
<!DOCTYPE svg PUBLIC "-//W3C//DTD SVG 1.1//EN"
 "http://www.w3.org/Graphics/SVG/1.1/DTD/svg11.dtd">
<!-- Generated by graphviz version 2.49.3 (20211027.1534)
 -->
<!-- Title: EntitlementsWorker Pages: 1 -->
<svg width="109pt" height="425pt"
 viewBox="0.00 0.00 109.00 425.00" xmlns="http://www.w3.org/2000/svg" xmlns:xlink="http://www.w3.org/1999/xlink">
<g id="graph0" class="graph" transform="scale(1 1) rotate(0) translate(4 421)">
<title>EntitlementsWorker</title>
<polygon fill="white" stroke="transparent" points="-4,4 -4,-421 105,-421 105,4 -4,4"/>
<!-- Node1 -->
<g id="node1" class="node">
<title>Node1</title>
<g id="a_node1"><a xlink:title=" ">
<polygon fill="#bfbfbf" stroke="black" points="0,-0.5 0,-57.5 101,-57.5 101,-0.5 0,-0.5"/>
<text text-anchor="middle" x="50.5" y="-45.5" font-family="Helvetica,sans-Serif" font-size="10.00">EntitlementsWorker</text>
<polyline fill="none" stroke="black" points="0,-38.5 101,-38.5 "/>
<text text-anchor="middle" x="50.5" y="-26.5" font-family="Helvetica,sans-Serif" font-size="10.00"> </text>
<polyline fill="none" stroke="black" points="0,-19.5 101,-19.5 "/>
<text text-anchor="start" x="8" y="-7.5" font-family="Helvetica,sans-Serif" font-size="10.00">+ run_real()</text>
</a>
</g>
</g>
<!-- Node2 -->
<g id="node2" class="node">
<title>Node2</title>
<g id="a_node2"><a xlink:href="classrare_1_1shared_1_1workers_1_1fetch_1_1_fetch_worker.html" target="_top" xlink:title=" ">
<polygon fill="white" stroke="black" points="14.5,-94.5 14.5,-184.5 86.5,-184.5 86.5,-94.5 14.5,-94.5"/>
<text text-anchor="middle" x="50.5" y="-172.5" font-family="Helvetica,sans-Serif" font-size="10.00">FetchWorker</text>
<polyline fill="none" stroke="black" points="14.5,-165.5 86.5,-165.5 "/>
<text text-anchor="start" x="22.5" y="-153.5" font-family="Helvetica,sans-Serif" font-size="10.00">+ signals</text>
<text text-anchor="start" x="22.5" y="-142.5" font-family="Helvetica,sans-Serif" font-size="10.00">+ core</text>
<text text-anchor="start" x="22.5" y="-131.5" font-family="Helvetica,sans-Serif" font-size="10.00">+ args</text>
<text text-anchor="start" x="22.5" y="-120.5" font-family="Helvetica,sans-Serif" font-size="10.00">+ settings</text>
<polyline fill="none" stroke="black" points="14.5,-113.5 86.5,-113.5 "/>
<text text-anchor="start" x="22.5" y="-101.5" font-family="Helvetica,sans-Serif" font-size="10.00">+ __init__()</text>
</a>
</g>
</g>
<!-- Node2&#45;&gt;Node1 -->
<g id="edge1" class="edge">
<title>Node2&#45;&gt;Node1</title>
<path fill="none" stroke="midnightblue" d="M50.5,-84.35C50.5,-75.07 50.5,-65.79 50.5,-57.59"/>
<polygon fill="none" stroke="midnightblue" points="47,-84.37 50.5,-94.37 54,-84.37 47,-84.37"/>
</g>
<!-- Node3 -->
<g id="node3" class="node">
<title>Node3</title>
<g id="a_node3"><a xlink:href="classrare_1_1shared_1_1workers_1_1worker_1_1_worker.html" target="_top" xlink:title="Base QRunnable class.">
<polygon fill="white" stroke="black" points="18,-221.5 18,-322.5 83,-322.5 83,-221.5 18,-221.5"/>
<text text-anchor="middle" x="50.5" y="-310.5" font-family="Helvetica,sans-Serif" font-size="10.00">Worker</text>
<polyline fill="none" stroke="black" points="18,-303.5 83,-303.5 "/>
<text text-anchor="middle" x="50.5" y="-291.5" font-family="Helvetica,sans-Serif" font-size="10.00"> </text>
<polyline fill="none" stroke="black" points="18,-284.5 83,-284.5 "/>
<text text-anchor="start" x="26" y="-272.5" font-family="Helvetica,sans-Serif" font-size="10.00">+ __init__()</text>
<text text-anchor="start" x="26" y="-261.5" font-family="Helvetica,sans-Serif" font-size="10.00">+ signals()</text>
<text text-anchor="start" x="26" y="-250.5" font-family="Helvetica,sans-Serif" font-size="10.00">+ signals()</text>
<text text-anchor="start" x="26" y="-239.5" font-family="Helvetica,sans-Serif" font-size="10.00">+ run_real()</text>
<text text-anchor="start" x="26" y="-228.5" font-family="Helvetica,sans-Serif" font-size="10.00">+ run()</text>
</a>
</g>
</g>
<!-- Node3&#45;&gt;Node2 -->
<g id="edge2" class="edge">
<title>Node3&#45;&gt;Node2</title>
<path fill="none" stroke="midnightblue" d="M50.5,-211.23C50.5,-202.24 50.5,-193.1 50.5,-184.52"/>
<polygon fill="none" stroke="midnightblue" points="47,-211.29 50.5,-221.29 54,-211.29 47,-211.29"/>
</g>
<!-- Node4 -->
<g id="node4" class="node">
<title>Node4</title>
<g id="a_node4"><a xlink:title=" ">
<polygon fill="white" stroke="#bfbfbf" points="18,-359.5 18,-416.5 83,-416.5 83,-359.5 18,-359.5"/>
<text text-anchor="middle" x="50.5" y="-404.5" font-family="Helvetica,sans-Serif" font-size="10.00">QRunnable</text>
<polyline fill="none" stroke="#bfbfbf" points="18,-397.5 83,-397.5 "/>
<text text-anchor="middle" x="50.5" y="-385.5" font-family="Helvetica,sans-Serif" font-size="10.00"> </text>
<polyline fill="none" stroke="#bfbfbf" points="18,-378.5 83,-378.5 "/>
<text text-anchor="middle" x="50.5" y="-366.5" font-family="Helvetica,sans-Serif" font-size="10.00"> </text>
</a>
</g>
</g>
<!-- Node4&#45;&gt;Node3 -->
<g id="edge3" class="edge">
<title>Node4&#45;&gt;Node3</title>
<path fill="none" stroke="midnightblue" d="M50.5,-349.35C50.5,-340.8 50.5,-331.58 50.5,-322.61"/>
<polygon fill="none" stroke="midnightblue" points="47,-349.4 50.5,-359.4 54,-349.4 47,-349.4"/>
</g>
</g>
</svg>
