<?xml version="1.0" encoding="UTF-8" standalone="no"?>
<!DOCTYPE svg PUBLIC "-//W3C//DTD SVG 1.1//EN"
 "http://www.w3.org/Graphics/SVG/1.1/DTD/svg11.dtd">
<!-- Generated by graphviz version 2.49.3 (20211027.1534)
 -->
<!-- Title: start_installation Pages: 1 -->
<svg width="670pt" height="248pt"
 viewBox="0.00 0.00 670.00 247.50" xmlns="http://www.w3.org/2000/svg" xmlns:xlink="http://www.w3.org/1999/xlink">
<g id="graph0" class="graph" transform="scale(1 1) rotate(0) translate(4 243.5)">
<title>start_installation</title>
<polygon fill="white" stroke="transparent" points="-4,4 -4,-243.5 666,-243.5 666,4 -4,4"/>
<!-- Node1 -->
<g id="node1" class="node">
<title>Node1</title>
<g id="a_node1"><a xlink:title=" ">
<polygon fill="#bfbfbf" stroke="black" points="574,-134 574,-153 662,-153 662,-134 574,-134"/>
<text text-anchor="middle" x="618" y="-141" font-family="Helvetica,sans-Serif" font-size="10.00">start_installation</text>
</a>
</g>
</g>
<!-- Node1&#45;&gt;Node1 -->
<g id="edge9" class="edge">
<title>Node1&#45;&gt;Node1</title>
<path fill="none" stroke="midnightblue" d="M639.11,-162.9C637.7,-167.81 630.66,-171.5 618,-171.5 597.74,-171.5 591.88,-162.07 600.43,-153.26"/>
<polygon fill="midnightblue" stroke="midnightblue" points="642.3,-161.44 635.57,-153.26 635.73,-163.85 642.3,-161.44"/>
</g>
<!-- Node2 -->
<g id="node2" class="node">
<title>Node2</title>
<g id="a_node2"><a xlink:href="classrare_1_1components_1_1tabs_1_1downloads_1_1_downloads_tab.html#a66eac4632760c14c4544b244b2108e93" target="_top" xlink:title=" ">
<polygon fill="white" stroke="black" points="467,-182 467,-201 538,-201 538,-182 467,-182"/>
<text text-anchor="middle" x="502.5" y="-189" font-family="Helvetica,sans-Serif" font-size="10.00">install_game</text>
</a>
</g>
</g>
<!-- Node1&#45;&gt;Node2 -->
<g id="edge1" class="edge">
<title>Node1&#45;&gt;Node2</title>
<path fill="none" stroke="midnightblue" d="M584.97,-157.05C566.22,-164.97 543,-174.79 526.16,-181.92"/>
<polygon fill="midnightblue" stroke="midnightblue" points="586.46,-160.22 594.3,-153.1 583.73,-153.77 586.46,-160.22"/>
</g>
<!-- Node6 -->
<g id="node6" class="node">
<title>Node6</title>
<g id="a_node6"><a xlink:href="classrare_1_1components_1_1tabs_1_1downloads_1_1_downloads_tab.html#aad3d96348eedab03f9c9d1a0e79c3531" target="_top" xlink:title=" ">
<polygon fill="white" stroke="black" points="480.5,-106 480.5,-125 524.5,-125 524.5,-106 480.5,-106"/>
<text text-anchor="middle" x="502.5" y="-113" font-family="Helvetica,sans-Serif" font-size="10.00">status</text>
</a>
</g>
</g>
<!-- Node1&#45;&gt;Node6 -->
<g id="edge10" class="edge">
<title>Node1&#45;&gt;Node6</title>
<path fill="none" stroke="midnightblue" d="M568.35,-131.5C553.03,-127.72 536.9,-123.74 524.56,-120.7"/>
<polygon fill="midnightblue" stroke="midnightblue" points="567.71,-134.95 578.26,-133.94 569.39,-128.15 567.71,-134.95"/>
</g>
<!-- Node2&#45;&gt;Node2 -->
<g id="edge2" class="edge">
<title>Node2&#45;&gt;Node2</title>
<path fill="none" stroke="midnightblue" d="M523.61,-210.9C522.2,-215.81 515.16,-219.5 502.5,-219.5 482.24,-219.5 476.38,-210.07 484.93,-201.26"/>
<polygon fill="midnightblue" stroke="midnightblue" points="526.8,-209.44 520.07,-201.26 520.23,-211.85 526.8,-209.44"/>
</g>
<!-- Node3 -->
<g id="node3" class="node">
<title>Node3</title>
<g id="a_node3"><a xlink:href="classrare_1_1components_1_1tabs_1_1downloads_1_1_downloads_tab.html#ae7c3da1b257767f97a06a0f0f679036e" target="_top" xlink:title=" ">
<polygon fill="white" stroke="black" points="273,-202 273,-221 395,-221 395,-202 273,-202"/>
<text text-anchor="middle" x="334" y="-209" font-family="Helvetica,sans-Serif" font-size="10.00">on_install_dialog_closed</text>
</a>
</g>
</g>
<!-- Node2&#45;&gt;Node3 -->
<g id="edge3" class="edge">
<title>Node2&#45;&gt;Node3</title>
<path fill="none" stroke="midnightblue" d="M456.48,-196.91C437.6,-199.18 415.36,-201.85 395.11,-204.28"/>
<polygon fill="midnightblue" stroke="midnightblue" points="457.08,-200.36 466.6,-195.69 456.25,-193.41 457.08,-200.36"/>
</g>
<!-- Node3&#45;&gt;Node3 -->
<g id="edge8" class="edge">
<title>Node3&#45;&gt;Node3</title>
<path fill="none" stroke="midnightblue" d="M365.44,-229.77C364.54,-235.24 354.06,-239.5 334,-239.5 304.14,-239.5 295.51,-230.07 308.11,-221.26"/>
<polygon fill="midnightblue" stroke="midnightblue" points="368.28,-227.73 359.89,-221.26 362.42,-231.55 368.28,-227.73"/>
</g>
<!-- Node4 -->
<g id="node4" class="node">
<title>Node4</title>
<g id="a_node4"><a xlink:href="classrare_1_1components_1_1tabs_1_1downloads_1_1_downloads_tab.html#a34dfac3ae00e55c098b07fd107a14daa" target="_top" xlink:title=" ">
<polygon fill="white" stroke="black" points="103,-202 103,-221 201,-221 201,-202 103,-202"/>
<text text-anchor="middle" x="152" y="-209" font-family="Helvetica,sans-Serif" font-size="10.00">get_install_options</text>
</a>
</g>
</g>
<!-- Node3&#45;&gt;Node4 -->
<g id="edge4" class="edge">
<title>Node3&#45;&gt;Node4</title>
<path fill="none" stroke="midnightblue" d="M262.54,-211.5C242,-211.5 220.02,-211.5 201.19,-211.5"/>
<polygon fill="midnightblue" stroke="midnightblue" points="262.81,-215 272.81,-211.5 262.81,-208 262.81,-215"/>
</g>
<!-- Node4&#45;&gt;Node4 -->
<g id="edge7" class="edge">
<title>Node4&#45;&gt;Node4</title>
<path fill="none" stroke="midnightblue" d="M173.95,-230.53C172.75,-235.63 165.44,-239.5 152,-239.5 131.03,-239.5 124.96,-230.07 133.81,-221.26"/>
<polygon fill="midnightblue" stroke="midnightblue" points="177.19,-229.21 170.19,-221.26 170.7,-231.84 177.19,-229.21"/>
</g>
<!-- Node5 -->
<g id="node5" class="node">
<title>Node5</title>
<g id="a_node5"><a xlink:href="classrare_1_1components_1_1tabs_1_1downloads_1_1_downloads_tab.html#a5b1b8c18cd3c7bb3fac72567db6d4f1e" target="_top" xlink:title=" ">
<polygon fill="white" stroke="black" points="0,-202 0,-221 67,-221 67,-202 0,-202"/>
<text text-anchor="middle" x="33.5" y="-209" font-family="Helvetica,sans-Serif" font-size="10.00">add_update</text>
</a>
</g>
</g>
<!-- Node4&#45;&gt;Node5 -->
<g id="edge5" class="edge">
<title>Node4&#45;&gt;Node5</title>
<path fill="none" stroke="midnightblue" d="M92.69,-211.5C83.92,-211.5 75.16,-211.5 67.18,-211.5"/>
<polygon fill="midnightblue" stroke="midnightblue" points="92.94,-215 102.94,-211.5 92.94,-208 92.94,-215"/>
</g>
<!-- Node5&#45;&gt;Node5 -->
<g id="edge6" class="edge">
<title>Node5&#45;&gt;Node5</title>
<path fill="none" stroke="midnightblue" d="M55.45,-230.53C54.25,-235.63 46.94,-239.5 33.5,-239.5 12.53,-239.5 6.46,-230.07 15.31,-221.26"/>
<polygon fill="midnightblue" stroke="midnightblue" points="58.69,-229.21 51.69,-221.26 52.2,-231.84 58.69,-229.21"/>
</g>
<!-- Node6&#45;&gt;Node6 -->
<g id="edge17" class="edge">
<title>Node6&#45;&gt;Node6</title>
<path fill="none" stroke="midnightblue" d="M523.61,-134.9C522.2,-139.81 515.16,-143.5 502.5,-143.5 482.24,-143.5 476.38,-134.07 484.93,-125.26"/>
<polygon fill="midnightblue" stroke="midnightblue" points="526.8,-133.44 520.07,-125.26 520.23,-135.85 526.8,-133.44"/>
</g>
<!-- Node7 -->
<g id="node7" class="node">
<title>Node7</title>
<g id="a_node7"><a xlink:href="classrare_1_1components_1_1tabs_1_1games_1_1cloud__save__utils_1_1_cloud_save_dialog.html#afa8e1ad1d19f3a1d2c0f53ba53651a65" target="_top" xlink:title=" ">
<polygon fill="white" stroke="black" points="237,-134.5 237,-164.5 431,-164.5 431,-134.5 237,-134.5"/>
<text text-anchor="start" x="245" y="-152.5" font-family="Helvetica,sans-Serif" font-size="10.00">rare.components.tabs.games.cloud</text>
<text text-anchor="middle" x="334" y="-141.5" font-family="Helvetica,sans-Serif" font-size="10.00">_save_utils.CloudSaveDialog.btn_clicked</text>
</a>
</g>
</g>
<!-- Node6&#45;&gt;Node7 -->
<g id="edge11" class="edge">
<title>Node6&#45;&gt;Node7</title>
<path fill="none" stroke="midnightblue" d="M470.26,-121.88C452.83,-125.44 430.31,-130.04 408.67,-134.46"/>
<polygon fill="midnightblue" stroke="midnightblue" points="471.32,-125.24 480.41,-119.81 469.91,-118.38 471.32,-125.24"/>
</g>
<!-- Node8 -->
<g id="node8" class="node">
<title>Node8</title>
<g id="a_node8"><a xlink:href="classrare_1_1components_1_1tabs_1_1games_1_1cloud__save__utils_1_1_cloud_save_dialog.html#ac0dc8bacd7d672a4a9963c685dd0ab9a" target="_top" xlink:title=" ">
<polygon fill="white" stroke="black" points="239,-67.5 239,-97.5 429,-97.5 429,-67.5 239,-67.5"/>
<text text-anchor="start" x="247" y="-85.5" font-family="Helvetica,sans-Serif" font-size="10.00">rare.components.tabs.games.cloud</text>
<text text-anchor="middle" x="334" y="-74.5" font-family="Helvetica,sans-Serif" font-size="10.00">_save_utils.CloudSaveDialog.get_action</text>
</a>
</g>
</g>
<!-- Node6&#45;&gt;Node8 -->
<g id="edge13" class="edge">
<title>Node6&#45;&gt;Node8</title>
<path fill="none" stroke="midnightblue" d="M470.58,-109.37C453.7,-106.03 432,-101.73 410.93,-97.55"/>
<polygon fill="midnightblue" stroke="midnightblue" points="469.92,-112.81 480.41,-111.32 471.28,-105.94 469.92,-112.81"/>
</g>
<!-- Node9 -->
<g id="node9" class="node">
<title>Node9</title>
<g id="a_node9"><a xlink:href="classrare_1_1lgndr_1_1api__monkeys_1_1_lgndr_indirect_logger.html#a71817f6d5b11c2c96a53e7e59bed38b8" target="_top" xlink:title=" ">
<polygon fill="white" stroke="black" points="262.5,-0.5 262.5,-30.5 405.5,-30.5 405.5,-0.5 262.5,-0.5"/>
<text text-anchor="start" x="270.5" y="-18.5" font-family="Helvetica,sans-Serif" font-size="10.00">rare.lgndr.api_monkeys.Lgndr</text>
<text text-anchor="middle" x="334" y="-7.5" font-family="Helvetica,sans-Serif" font-size="10.00">IndirectLogger.set_level</text>
</a>
</g>
</g>
<!-- Node6&#45;&gt;Node9 -->
<g id="edge15" class="edge">
<title>Node6&#45;&gt;Node9</title>
<path fill="none" stroke="midnightblue" d="M484.02,-98.79C470.35,-86.32 450.46,-69.45 431,-57.5 413.94,-47.03 393.82,-37.81 376.42,-30.69"/>
<polygon fill="midnightblue" stroke="midnightblue" points="481.96,-101.65 491.67,-105.9 486.73,-96.53 481.96,-101.65"/>
</g>
<!-- Node7&#45;&gt;Node7 -->
<g id="edge12" class="edge">
<title>Node7&#45;&gt;Node7</title>
<path fill="none" stroke="midnightblue" d="M363.85,-174.96C360.15,-179.68 350.2,-183 334,-183 307.42,-183 297.66,-174.06 304.72,-164.66"/>
<polygon fill="midnightblue" stroke="midnightblue" points="367.33,-174.45 363.28,-164.66 360.34,-174.84 367.33,-174.45"/>
</g>
<!-- Node8&#45;&gt;Node8 -->
<g id="edge14" class="edge">
<title>Node8&#45;&gt;Node8</title>
<path fill="none" stroke="midnightblue" d="M363.85,-107.96C360.15,-112.68 350.2,-116 334,-116 307.42,-116 297.66,-107.06 304.72,-97.66"/>
<polygon fill="midnightblue" stroke="midnightblue" points="367.33,-107.45 363.28,-97.66 360.34,-107.84 367.33,-107.45"/>
</g>
<!-- Node9&#45;&gt;Node9 -->
<g id="edge16" class="edge">
<title>Node9&#45;&gt;Node9</title>
<path fill="none" stroke="midnightblue" d="M363.85,-40.96C360.15,-45.68 350.2,-49 334,-49 307.42,-49 297.66,-40.06 304.72,-30.66"/>
<polygon fill="midnightblue" stroke="midnightblue" points="367.33,-40.45 363.28,-30.66 360.34,-40.84 367.33,-40.45"/>
</g>
</g>
</svg>
