<?xml version="1.0" encoding="UTF-8" standalone="no"?>
<!DOCTYPE svg PUBLIC "-//W3C//DTD SVG 1.1//EN"
 "http://www.w3.org/Graphics/SVG/1.1/DTD/svg11.dtd">
<!-- Generated by graphviz version 2.49.3 (20211027.1534)
 -->
<!-- Title: MoveWorker Pages: 1 -->
<svg width="89pt" height="502pt"
 viewBox="0.00 0.00 89.00 502.00" xmlns="http://www.w3.org/2000/svg" xmlns:xlink="http://www.w3.org/1999/xlink">
<g id="graph0" class="graph" transform="scale(1 1) rotate(0) translate(4 498)">
<title>MoveWorker</title>
<polygon fill="white" stroke="transparent" points="-4,4 -4,-498 85,-498 85,4 -4,4"/>
<!-- Node1 -->
<g id="node1" class="node">
<title>Node1</title>
<g id="a_node1"><a xlink:title=" ">
<polygon fill="#bfbfbf" stroke="black" points="0,-0.5 0,-134.5 81,-134.5 81,-0.5 0,-0.5"/>
<text text-anchor="middle" x="40.5" y="-122.5" font-family="Helvetica,sans-Serif" font-size="10.00">MoveWorker</text>
<polyline fill="none" stroke="black" points="0,-115.5 81,-115.5 "/>
<text text-anchor="start" x="8" y="-103.5" font-family="Helvetica,sans-Serif" font-size="10.00">+ signals</text>
<text text-anchor="start" x="8" y="-92.5" font-family="Helvetica,sans-Serif" font-size="10.00">+ core</text>
<text text-anchor="start" x="8" y="-81.5" font-family="Helvetica,sans-Serif" font-size="10.00">+ rgame</text>
<text text-anchor="start" x="8" y="-70.5" font-family="Helvetica,sans-Serif" font-size="10.00">+ dst_path</text>
<text text-anchor="start" x="8" y="-59.5" font-family="Helvetica,sans-Serif" font-size="10.00">+ dst_exists</text>
<polyline fill="none" stroke="black" points="0,-52.5 81,-52.5 "/>
<text text-anchor="start" x="8" y="-40.5" font-family="Helvetica,sans-Serif" font-size="10.00">+ __init__()</text>
<text text-anchor="start" x="8" y="-29.5" font-family="Helvetica,sans-Serif" font-size="10.00">+ worker_info()</text>
<text text-anchor="start" x="8" y="-18.5" font-family="Helvetica,sans-Serif" font-size="10.00">+ progress()</text>
<text text-anchor="start" x="8" y="-7.5" font-family="Helvetica,sans-Serif" font-size="10.00">+ run_real()</text>
</a>
</g>
</g>
<!-- Node2 -->
<g id="node2" class="node">
<title>Node2</title>
<g id="a_node2"><a xlink:href="classrare_1_1shared_1_1workers_1_1worker_1_1_queue_worker.html" target="_top" xlink:title="Base queueable worker class.">
<polygon fill="white" stroke="black" points="0,-171.5 0,-261.5 81,-261.5 81,-171.5 0,-171.5"/>
<text text-anchor="middle" x="40.5" y="-249.5" font-family="Helvetica,sans-Serif" font-size="10.00">QueueWorker</text>
<polyline fill="none" stroke="black" points="0,-242.5 81,-242.5 "/>
<text text-anchor="start" x="8" y="-230.5" font-family="Helvetica,sans-Serif" font-size="10.00">+ feedback</text>
<text text-anchor="start" x="8" y="-219.5" font-family="Helvetica,sans-Serif" font-size="10.00">+ state</text>
<polyline fill="none" stroke="black" points="0,-212.5 81,-212.5 "/>
<text text-anchor="start" x="8" y="-200.5" font-family="Helvetica,sans-Serif" font-size="10.00">+ __init__()</text>
<text text-anchor="start" x="8" y="-189.5" font-family="Helvetica,sans-Serif" font-size="10.00">+ run()</text>
<text text-anchor="start" x="8" y="-178.5" font-family="Helvetica,sans-Serif" font-size="10.00">+ worker_info()</text>
</a>
</g>
</g>
<!-- Node2&#45;&gt;Node1 -->
<g id="edge1" class="edge">
<title>Node2&#45;&gt;Node1</title>
<path fill="none" stroke="midnightblue" d="M40.5,-161.37C40.5,-152.66 40.5,-143.55 40.5,-134.59"/>
<polygon fill="none" stroke="midnightblue" points="37,-161.4 40.5,-171.4 44,-161.4 37,-161.4"/>
</g>
<!-- Node3 -->
<g id="node3" class="node">
<title>Node3</title>
<g id="a_node3"><a xlink:href="classrare_1_1shared_1_1workers_1_1worker_1_1_worker.html" target="_top" xlink:title="Base QRunnable class.">
<polygon fill="white" stroke="black" points="8,-298.5 8,-399.5 73,-399.5 73,-298.5 8,-298.5"/>
<text text-anchor="middle" x="40.5" y="-387.5" font-family="Helvetica,sans-Serif" font-size="10.00">Worker</text>
<polyline fill="none" stroke="black" points="8,-380.5 73,-380.5 "/>
<text text-anchor="middle" x="40.5" y="-368.5" font-family="Helvetica,sans-Serif" font-size="10.00"> </text>
<polyline fill="none" stroke="black" points="8,-361.5 73,-361.5 "/>
<text text-anchor="start" x="16" y="-349.5" font-family="Helvetica,sans-Serif" font-size="10.00">+ __init__()</text>
<text text-anchor="start" x="16" y="-338.5" font-family="Helvetica,sans-Serif" font-size="10.00">+ signals()</text>
<text text-anchor="start" x="16" y="-327.5" font-family="Helvetica,sans-Serif" font-size="10.00">+ signals()</text>
<text text-anchor="start" x="16" y="-316.5" font-family="Helvetica,sans-Serif" font-size="10.00">+ run_real()</text>
<text text-anchor="start" x="16" y="-305.5" font-family="Helvetica,sans-Serif" font-size="10.00">+ run()</text>
</a>
</g>
</g>
<!-- Node3&#45;&gt;Node2 -->
<g id="edge2" class="edge">
<title>Node3&#45;&gt;Node2</title>
<path fill="none" stroke="midnightblue" d="M40.5,-288.23C40.5,-279.24 40.5,-270.1 40.5,-261.52"/>
<polygon fill="none" stroke="midnightblue" points="37,-288.29 40.5,-298.29 44,-288.29 37,-288.29"/>
</g>
<!-- Node4 -->
<g id="node4" class="node">
<title>Node4</title>
<g id="a_node4"><a xlink:title=" ">
<polygon fill="white" stroke="#bfbfbf" points="8,-436.5 8,-493.5 73,-493.5 73,-436.5 8,-436.5"/>
<text text-anchor="middle" x="40.5" y="-481.5" font-family="Helvetica,sans-Serif" font-size="10.00">QRunnable</text>
<polyline fill="none" stroke="#bfbfbf" points="8,-474.5 73,-474.5 "/>
<text text-anchor="middle" x="40.5" y="-462.5" font-family="Helvetica,sans-Serif" font-size="10.00"> </text>
<polyline fill="none" stroke="#bfbfbf" points="8,-455.5 73,-455.5 "/>
<text text-anchor="middle" x="40.5" y="-443.5" font-family="Helvetica,sans-Serif" font-size="10.00"> </text>
</a>
</g>
</g>
<!-- Node4&#45;&gt;Node3 -->
<g id="edge3" class="edge">
<title>Node4&#45;&gt;Node3</title>
<path fill="none" stroke="midnightblue" d="M40.5,-426.35C40.5,-417.8 40.5,-408.58 40.5,-399.61"/>
<polygon fill="none" stroke="midnightblue" points="37,-426.4 40.5,-436.4 44,-426.4 37,-426.4"/>
</g>
</g>
</svg>
