<?xml version="1.0" encoding="UTF-8" standalone="no"?>
<!DOCTYPE svg PUBLIC "-//W3C//DTD SVG 1.1//EN"
 "http://www.w3.org/Graphics/SVG/1.1/DTD/svg11.dtd">
<!-- Generated by graphviz version 2.49.3 (20211027.1534)
 -->
<!-- Title: items Pages: 1 -->
<svg width="294pt" height="57pt"
 viewBox="0.00 0.00 294.21 57.00" xmlns="http://www.w3.org/2000/svg" xmlns:xlink="http://www.w3.org/1999/xlink">
<g id="graph0" class="graph" transform="scale(1 1) rotate(0) translate(4 53)">
<title>items</title>
<polygon fill="white" stroke="transparent" points="-4,4 -4,-53 290.21,-53 290.21,4 -4,4"/>
<!-- Node1 -->
<g id="node1" class="node">
<title>Node1</title>
<g id="a_node1"><a xlink:title=" ">
<polygon fill="#bfbfbf" stroke="black" points="9.21,-6 9.21,-25 50.21,-25 50.21,-6 9.21,-6"/>
<text text-anchor="middle" x="29.71" y="-13" font-family="Helvetica,sans-Serif" font-size="10.00">items</text>
</a>
</g>
</g>
<!-- Node1&#45;&gt;Node1 -->
<g id="edge1" class="edge">
<title>Node1&#45;&gt;Node1</title>
<path fill="none" stroke="midnightblue" d="M9.21,-22.96C-7.29,-32.33 -0.46,-43.5 29.71,-43.5 52.8,-43.5 62.22,-36.95 57.96,-29.68"/>
<polygon fill="midnightblue" stroke="midnightblue" points="60.06,-26.86 50.21,-22.96 55.47,-32.15 60.06,-26.86"/>
</g>
<!-- Node2 -->
<g id="node2" class="node">
<title>Node2</title>
<g id="a_node2"><a xlink:href="classrare_1_1components_1_1tabs_1_1library_1_1widgets_1_1game__widget_1_1_game_widget.html#aa660d748bc3a0c7c2dfaa15cee8e6ba6" target="_top" xlink:title=" ">
<polygon fill="white" stroke="black" points="86.21,-0.5 86.21,-30.5 286.21,-30.5 286.21,-0.5 86.21,-0.5"/>
<text text-anchor="start" x="94.21" y="-18.5" font-family="Helvetica,sans-Serif" font-size="10.00">rare.components.tabs.library.widgets.game</text>
<text text-anchor="middle" x="186.21" y="-7.5" font-family="Helvetica,sans-Serif" font-size="10.00">_widget.GameWidget.ui</text>
</a>
</g>
</g>
<!-- Node1&#45;&gt;Node2 -->
<g id="edge2" class="edge">
<title>Node1&#45;&gt;Node2</title>
<path fill="none" stroke="midnightblue" d="M50.28,-15.5C57.51,-15.5 66.31,-15.5 75.91,-15.5"/>
<polygon fill="midnightblue" stroke="midnightblue" points="76.17,-19 86.17,-15.5 76.17,-12 76.17,-19"/>
</g>
<!-- Node2&#45;&gt;Node2 -->
<g id="edge3" class="edge">
<title>Node2&#45;&gt;Node2</title>
<path fill="none" stroke="midnightblue" d="M159.02,-30.66C152.47,-40.06 161.53,-49 186.21,-49 201.25,-49 210.49,-45.68 213.93,-40.96"/>
<polygon fill="midnightblue" stroke="midnightblue" points="217.41,-40.46 213.39,-30.66 210.42,-40.83 217.41,-40.46"/>
</g>
</g>
</svg>
