<?xml version="1.0" encoding="UTF-8" standalone="no"?>
<!DOCTYPE svg PUBLIC "-//W3C//DTD SVG 1.1//EN"
 "http://www.w3.org/Graphics/SVG/1.1/DTD/svg11.dtd">
<!-- Generated by graphviz version 2.49.3 (20211027.1534)
 -->
<!-- Title: load Pages: 1 -->
<!--zoomable 281 -->
<svg id="main" version="1.1" xmlns="http://www.w3.org/2000/svg" xmlns:xlink="http://www.w3.org/1999/xlink" xml:space="preserve" onload="init(evt)">
<style type="text/css"><![CDATA[
.edge:hover path { stroke: red; }
.edge:hover polygon { stroke: red; fill: red; }
]]></style>
<script type="text/javascript"><![CDATA[
var edges = document.getElementsByTagName('g');
if (edges && edges.length) {
  for (var i=0;i<edges.length;i++) {
    if (edges[i].id.substr(0,4)=='edge') {
      edges[i].setAttribute('class','edge');
    }
  }
}
]]></script>
        <defs>
                <circle id="rim" cx="0" cy="0" r="7"/>
                <circle id="rim2" cx="0" cy="0" r="3.5"/>
                <g id="zoomPlus">
                        <use xlink:href="#rim" fill="#404040">
                                <set attributeName="fill" to="#808080" begin="zoomplus.mouseover" end="zoomplus.mouseout"/>
                        </use>
                        <path d="M-4,0h8M0,-4v8" fill="none" stroke="white" stroke-width="1.5" pointer-events="none"/>
                </g>
                <g id="zoomMin">
                        <use xlink:href="#rim" fill="#404040">
                                <set attributeName="fill" to="#808080" begin="zoomminus.mouseover" end="zoomminus.mouseout"/>
                        </use>
                        <path d="M-4,0h8" fill="none" stroke="white" stroke-width="1.5" pointer-events="none"/>
                </g>
                <g id="dirArrow">
                        <path fill="none" stroke="white" stroke-width="1.5" d="M0,-3.0v7 M-2.5,-0.5L0,-3.0L2.5,-0.5"/>
                </g>
               <g id="resetDef">
                       <use xlink:href="#rim2" fill="#404040">
                               <set attributeName="fill" to="#808080" begin="reset.mouseover" end="reset.mouseout"/>
                       </use>
               </g>
        </defs>

<script type="text/javascript">
var viewWidth = 696;
var viewHeight = 281;
var sectionId = 'dynsection-13';
</script>
<script xlink:href="svgpan.js"/>
<svg id="graph" class="graph">
<g id="viewport">
<title>load</title>
<polygon fill="white" stroke="transparent" points="-4,4 -4,-277 692.26,-277 692.26,4 -4,4"/>
<!-- Node1 -->
<g id="node1" class="node">
<title>Node1</title>
<g id="a_node1"><a xlink:title=" ">
<polygon fill="#bfbfbf" stroke="black" points="7.26,-121 7.26,-140 42.26,-140 42.26,-121 7.26,-121"/>
<text text-anchor="middle" x="24.76" y="-128" font-family="Helvetica,sans-Serif" font-size="10.00">load</text>
</a>
</g>
</g>
<!-- Node1&#45;&gt;Node1 -->
<g id="edge20" class="edge">
<title>Node1&#45;&gt;Node1</title>
<path fill="none" stroke="midnightblue" d="M6.87,-138.53C-5.83,-147.78 0.13,-158.5 24.76,-158.5 42.46,-158.5 50.52,-152.96 48.94,-146.41"/>
<polygon fill="midnightblue" stroke="midnightblue" points="51.63,-144.16 42.66,-138.53 46.15,-148.53 51.63,-144.16"/>
</g>
<!-- Node2 -->
<g id="node2" class="node">
<title>Node2</title>
<g id="a_node2"><a xlink:href="classrare_1_1components_1_1tabs_1_1shop_1_1_shop.html#aea7c4ced230e9462362c980c5ea47b4d" target="_top" xlink:title=" ">
<polygon fill="white" stroke="black" points="88.76,-216.5 88.76,-246.5 223.76,-246.5 223.76,-216.5 88.76,-216.5"/>
<text text-anchor="start" x="96.76" y="-234.5" font-family="Helvetica,sans-Serif" font-size="10.00">rare.components.tabs.shop.</text>
<text text-anchor="middle" x="156.26" y="-223.5" font-family="Helvetica,sans-Serif" font-size="10.00">Shop.load</text>
</a>
</g>
</g>
<!-- Node1&#45;&gt;Node2 -->
<g id="edge1" class="edge">
<title>Node1&#45;&gt;Node2</title>
<path fill="none" stroke="midnightblue" d="M29.73,-140.08C36.96,-156.36 53.81,-189.4 78.26,-207.5 80.14,-208.89 82.09,-210.2 84.11,-211.43"/>
<polygon fill="midnightblue" stroke="midnightblue" points="82.85,-214.73 93.32,-216.38 86.17,-208.56 82.85,-214.73"/>
</g>
<!-- Node3 -->
<g id="node3" class="node">
<title>Node3</title>
<g id="a_node3"><a xlink:href="classrare_1_1components_1_1tabs_1_1shop_1_1shop__widget_1_1_shop_widget.html#aea7c4ced230e9462362c980c5ea47b4d" target="_top" xlink:title=" ">
<polygon fill="white" stroke="black" points="78.26,-149.5 78.26,-179.5 234.26,-179.5 234.26,-149.5 78.26,-149.5"/>
<text text-anchor="start" x="86.26" y="-167.5" font-family="Helvetica,sans-Serif" font-size="10.00">rare.components.tabs.shop.shop</text>
<text text-anchor="middle" x="156.26" y="-156.5" font-family="Helvetica,sans-Serif" font-size="10.00">_widget.ShopWidget.load</text>
</a>
</g>
</g>
<!-- Node1&#45;&gt;Node3 -->
<g id="edge3" class="edge">
<title>Node1&#45;&gt;Node3</title>
<path fill="none" stroke="midnightblue" d="M42.43,-134.88C54.25,-137.98 70.97,-142.37 87.92,-146.82"/>
<polygon fill="midnightblue" stroke="midnightblue" points="87.34,-150.28 97.9,-149.44 89.11,-143.51 87.34,-150.28"/>
</g>
<!-- Node10 -->
<g id="node10" class="node">
<title>Node10</title>
<g id="a_node10"><a xlink:href="classrare_1_1utils_1_1json__formatter_1_1_q_json_model.html#a7125a31f39d8e562e0cd2a4da479966d" target="_top" xlink:title="Load from dictionary.">
<polygon fill="white" stroke="black" points="96.26,-82.5 96.26,-112.5 216.26,-112.5 216.26,-82.5 96.26,-82.5"/>
<text text-anchor="start" x="104.26" y="-100.5" font-family="Helvetica,sans-Serif" font-size="10.00">rare.utils.json_formatter.</text>
<text text-anchor="middle" x="156.26" y="-89.5" font-family="Helvetica,sans-Serif" font-size="10.00">QJsonModel.load</text>
</a>
</g>
</g>
<!-- Node1&#45;&gt;Node10 -->
<g id="edge18" class="edge">
<title>Node1&#45;&gt;Node10</title>
<path fill="none" stroke="midnightblue" d="M42.43,-126.25C53.9,-123.33 70,-119.23 86.45,-115.04"/>
<polygon fill="midnightblue" stroke="midnightblue" points="87.31,-118.43 96.14,-112.57 85.59,-111.64 87.31,-118.43"/>
</g>
<!-- Node11 -->
<g id="node11" class="node">
<title>Node11</title>
<g id="a_node11"><a xlink:href="classrare_1_1utils_1_1json__formatter_1_1_q_json_tree_item.html#aff464267544e4efc9b770c8320c8f199" target="_top" xlink:title=" ">
<polygon fill="white" stroke="black" points="138.76,-26 138.76,-45 173.76,-45 173.76,-26 138.76,-26"/>
<text text-anchor="middle" x="156.26" y="-33" font-family="Helvetica,sans-Serif" font-size="10.00">type</text>
</a>
</g>
</g>
<!-- Node1&#45;&gt;Node11 -->
<g id="edge21" class="edge">
<title>Node1&#45;&gt;Node11</title>
<path fill="none" stroke="midnightblue" d="M33.03,-120.59C42.4,-108.33 59.73,-87.36 78.26,-73.5 93.83,-61.85 113.52,-52.21 129.09,-45.55"/>
<polygon fill="midnightblue" stroke="midnightblue" points="130.73,-48.66 138.65,-41.62 128.07,-42.19 130.73,-48.66"/>
</g>
<!-- Node2&#45;&gt;Node2 -->
<g id="edge2" class="edge">
<title>Node2&#45;&gt;Node2</title>
<path fill="none" stroke="midnightblue" d="M133.61,-246.66C128.14,-256.06 135.69,-265 156.26,-265 168.79,-265 176.49,-261.68 179.36,-256.96"/>
<polygon fill="midnightblue" stroke="midnightblue" points="182.84,-256.5 178.92,-246.66 175.85,-256.8 182.84,-256.5"/>
</g>
<!-- Node3&#45;&gt;Node3 -->
<g id="edge11" class="edge">
<title>Node3&#45;&gt;Node3</title>
<path fill="none" stroke="midnightblue" d="M133.61,-179.66C128.14,-189.06 135.69,-198 156.26,-198 168.79,-198 176.49,-194.68 179.36,-189.96"/>
<polygon fill="midnightblue" stroke="midnightblue" points="182.84,-189.5 178.92,-179.66 175.85,-189.8 182.84,-189.5"/>
</g>
<!-- Node4 -->
<g id="node4" class="node">
<title>Node4</title>
<g id="a_node4"><a xlink:href="classrare_1_1components_1_1tabs_1_1shop_1_1shop__widget_1_1_shop_widget.html#acc22d28ca5b75335e3309accf015adc6" target="_top" xlink:title=" ">
<polygon fill="white" stroke="black" points="276.26,-224.5 276.26,-254.5 455.26,-254.5 455.26,-224.5 276.26,-224.5"/>
<text text-anchor="start" x="284.26" y="-242.5" font-family="Helvetica,sans-Serif" font-size="10.00">rare.components.tabs.shop.shop</text>
<text text-anchor="middle" x="365.76" y="-231.5" font-family="Helvetica,sans-Serif" font-size="10.00">_widget.ShopWidget.add_free_games</text>
</a>
</g>
</g>
<!-- Node3&#45;&gt;Node4 -->
<g id="edge4" class="edge">
<title>Node3&#45;&gt;Node4</title>
<path fill="none" stroke="midnightblue" d="M193.14,-179.55C215.23,-188.63 244.21,-200.19 270.26,-209.5 281.53,-213.53 293.65,-217.58 305.33,-221.35"/>
<polygon fill="midnightblue" stroke="midnightblue" points="304.41,-224.73 315,-224.44 306.54,-218.06 304.41,-224.73"/>
</g>
<!-- Node5 -->
<g id="node5" class="node">
<title>Node5</title>
<g id="a_node5"><a xlink:href="classrare_1_1components_1_1tabs_1_1shop_1_1game__info_1_1_shop_game_info.html#a3fc8c31e9c09c30d1480d83be79cd5bd" target="_top" xlink:title=" ">
<polygon fill="white" stroke="black" points="497.26,-165.5 497.26,-195.5 688.26,-195.5 688.26,-165.5 497.26,-165.5"/>
<text text-anchor="start" x="505.26" y="-183.5" font-family="Helvetica,sans-Serif" font-size="10.00">rare.components.tabs.shop.game</text>
<text text-anchor="middle" x="592.76" y="-172.5" font-family="Helvetica,sans-Serif" font-size="10.00">_info.ShopGameInfo.add_wishlist_items</text>
</a>
</g>
</g>
<!-- Node3&#45;&gt;Node5 -->
<g id="edge6" class="edge">
<title>Node3&#45;&gt;Node5</title>
<path fill="none" stroke="midnightblue" d="M234.38,-173.66C246.38,-174.8 258.64,-175.81 270.26,-176.5 342.44,-180.77 423.89,-181.75 486.75,-181.66"/>
<polygon fill="midnightblue" stroke="midnightblue" points="487.08,-185.16 497.07,-181.64 487.07,-178.16 487.08,-185.16"/>
</g>
<!-- Node6 -->
<g id="node6" class="node">
<title>Node6</title>
<g id="a_node6"><a xlink:href="classrare_1_1components_1_1tabs_1_1shop_1_1shop__widget_1_1_shop_widget.html#a3fc8c31e9c09c30d1480d83be79cd5bd" target="_top" xlink:title=" ">
<polygon fill="white" stroke="black" points="270.26,-118.5 270.26,-148.5 461.26,-148.5 461.26,-118.5 270.26,-118.5"/>
<text text-anchor="start" x="278.26" y="-136.5" font-family="Helvetica,sans-Serif" font-size="10.00">rare.components.tabs.shop.shop</text>
<text text-anchor="middle" x="365.76" y="-125.5" font-family="Helvetica,sans-Serif" font-size="10.00">_widget.ShopWidget.add_wishlist_items</text>
</a>
</g>
</g>
<!-- Node3&#45;&gt;Node6 -->
<g id="edge8" class="edge">
<title>Node3&#45;&gt;Node6</title>
<path fill="none" stroke="midnightblue" d="M234.53,-152.96C242.89,-151.71 251.5,-150.42 260.12,-149.13"/>
<polygon fill="midnightblue" stroke="midnightblue" points="260.86,-152.56 270.23,-147.62 259.82,-145.64 260.86,-152.56"/>
</g>
<!-- Node7 -->
<g id="node7" class="node">
<title>Node7</title>
<g id="a_node7"><a xlink:href="classrare_1_1components_1_1tabs_1_1shop_1_1shop__widget_1_1_shop_widget.html#ad40685079c149157f03614f3b66fe2f3" target="_top" xlink:title=" ">
<polygon fill="white" stroke="black" points="277.26,-51.5 277.26,-81.5 454.26,-81.5 454.26,-51.5 277.26,-51.5"/>
<text text-anchor="start" x="285.26" y="-69.5" font-family="Helvetica,sans-Serif" font-size="10.00">rare.components.tabs.shop.shop</text>
<text text-anchor="middle" x="365.76" y="-58.5" font-family="Helvetica,sans-Serif" font-size="10.00">_widget.ShopWidget.prepare_request</text>
</a>
</g>
</g>
<!-- Node3&#45;&gt;Node7 -->
<g id="edge12" class="edge">
<title>Node3&#45;&gt;Node7</title>
<path fill="none" stroke="midnightblue" d="M214.7,-149.49C221.47,-146.88 228.14,-143.9 234.26,-140.5 252.72,-130.26 252.47,-120.88 270.26,-109.5 284.35,-100.49 300.63,-92.37 315.67,-85.67"/>
<polygon fill="midnightblue" stroke="midnightblue" points="317.06,-88.88 324.84,-81.69 314.28,-82.46 317.06,-88.88"/>
</g>
<!-- Node4&#45;&gt;Node4 -->
<g id="edge5" class="edge">
<title>Node4&#45;&gt;Node4</title>
<path fill="none" stroke="midnightblue" d="M329.51,-254.66C320.77,-264.06 332.85,-273 365.76,-273 385.81,-273 398.13,-269.68 402.72,-264.96"/>
<polygon fill="midnightblue" stroke="midnightblue" points="406.19,-264.39 402.01,-254.66 399.21,-264.88 406.19,-264.39"/>
</g>
<!-- Node5&#45;&gt;Node5 -->
<g id="edge7" class="edge">
<title>Node5&#45;&gt;Node5</title>
<path fill="none" stroke="midnightblue" d="M553.38,-195.66C543.88,-205.06 557.01,-214 592.76,-214 614.55,-214 627.93,-210.68 632.92,-205.96"/>
<polygon fill="midnightblue" stroke="midnightblue" points="636.38,-205.37 632.15,-195.66 629.4,-205.89 636.38,-205.37"/>
</g>
<!-- Node6&#45;&gt;Node5 -->
<g id="edge9" class="edge">
<title>Node6&#45;&gt;Node5</title>
<path fill="none" stroke="midnightblue" d="M438.57,-148.5C461.3,-153.25 486.6,-158.53 509.97,-163.42"/>
<polygon fill="midnightblue" stroke="midnightblue" points="509.36,-166.86 519.86,-165.48 510.79,-160.01 509.36,-166.86"/>
</g>
<!-- Node6&#45;&gt;Node6 -->
<g id="edge10" class="edge">
<title>Node6&#45;&gt;Node6</title>
<path fill="none" stroke="midnightblue" d="M329.51,-148.66C320.77,-158.06 332.85,-167 365.76,-167 385.81,-167 398.13,-163.68 402.72,-158.96"/>
<polygon fill="midnightblue" stroke="midnightblue" points="406.19,-158.39 402.01,-148.66 399.21,-158.88 406.19,-158.39"/>
</g>
<!-- Node7&#45;&gt;Node7 -->
<g id="edge15" class="edge">
<title>Node7&#45;&gt;Node7</title>
<path fill="none" stroke="midnightblue" d="M329.51,-81.66C320.77,-91.06 332.85,-100 365.76,-100 385.81,-100 398.13,-96.68 402.72,-91.96"/>
<polygon fill="midnightblue" stroke="midnightblue" points="406.19,-91.39 402.01,-81.66 399.21,-91.88 406.19,-91.39"/>
</g>
<!-- Node8 -->
<g id="node8" class="node">
<title>Node8</title>
<g id="a_node8"><a xlink:href="classrare_1_1shared_1_1rare__core_1_1_rare_core.html#a405e1a4f20f16120f872ccd2654a1d56" target="_top" xlink:title=" ">
<polygon fill="white" stroke="black" points="527.76,-67.5 527.76,-97.5 657.76,-97.5 657.76,-67.5 527.76,-67.5"/>
<text text-anchor="start" x="535.76" y="-85.5" font-family="Helvetica,sans-Serif" font-size="10.00">rare.shared.rare_core.Rare</text>
<text text-anchor="middle" x="592.76" y="-74.5" font-family="Helvetica,sans-Serif" font-size="10.00">Core.core</text>
</a>
</g>
</g>
<!-- Node7&#45;&gt;Node8 -->
<g id="edge13" class="edge">
<title>Node7&#45;&gt;Node8</title>
<path fill="none" stroke="midnightblue" d="M454.4,-72.73C475.3,-74.22 497.4,-75.79 517.63,-77.23"/>
<polygon fill="midnightblue" stroke="midnightblue" points="517.48,-80.73 527.7,-77.94 517.98,-73.74 517.48,-80.73"/>
</g>
<!-- Node9 -->
<g id="node9" class="node">
<title>Node9</title>
<g id="a_node9"><a xlink:href="classrare_1_1components_1_1tabs_1_1shop_1_1shop__widget_1_1_shop_widget.html#afe8e8ac663d9c09dad3a1364f128945b" target="_top" xlink:title=" ">
<polygon fill="white" stroke="black" points="510.26,-0.5 510.26,-30.5 675.26,-30.5 675.26,-0.5 510.26,-0.5"/>
<text text-anchor="start" x="518.26" y="-18.5" font-family="Helvetica,sans-Serif" font-size="10.00">rare.components.tabs.shop.shop</text>
<text text-anchor="middle" x="592.76" y="-7.5" font-family="Helvetica,sans-Serif" font-size="10.00">_widget.ShopWidget.show_games</text>
</a>
</g>
</g>
<!-- Node7&#45;&gt;Node9 -->
<g id="edge16" class="edge">
<title>Node7&#45;&gt;Node9</title>
<path fill="none" stroke="midnightblue" d="M433.05,-51.47C458.91,-45.61 488.72,-38.86 515.47,-32.79"/>
<polygon fill="midnightblue" stroke="midnightblue" points="516.58,-36.13 525.56,-30.51 515.03,-29.3 516.58,-36.13"/>
</g>
<!-- Node8&#45;&gt;Node8 -->
<g id="edge14" class="edge">
<title>Node8&#45;&gt;Node8</title>
<path fill="none" stroke="midnightblue" d="M553.38,-97.66C543.88,-107.06 557.01,-116 592.76,-116 614.55,-116 627.93,-112.68 632.92,-107.96"/>
<polygon fill="midnightblue" stroke="midnightblue" points="636.38,-107.37 632.15,-97.66 629.4,-107.89 636.38,-107.37"/>
</g>
<!-- Node9&#45;&gt;Node9 -->
<g id="edge17" class="edge">
<title>Node9&#45;&gt;Node9</title>
<path fill="none" stroke="midnightblue" d="M553.38,-30.66C543.88,-40.06 557.01,-49 592.76,-49 614.55,-49 627.93,-45.68 632.92,-40.96"/>
<polygon fill="midnightblue" stroke="midnightblue" points="636.38,-40.37 632.15,-30.66 629.4,-40.89 636.38,-40.37"/>
</g>
<!-- Node10&#45;&gt;Node10 -->
<g id="edge19" class="edge">
<title>Node10&#45;&gt;Node10</title>
<path fill="none" stroke="midnightblue" d="M133.61,-112.66C128.14,-122.06 135.69,-131 156.26,-131 168.79,-131 176.49,-127.68 179.36,-122.96"/>
<polygon fill="midnightblue" stroke="midnightblue" points="182.84,-122.5 178.92,-112.66 175.85,-122.8 182.84,-122.5"/>
</g>
<!-- Node11&#45;&gt;Node11 -->
<g id="edge22" class="edge">
<title>Node11&#45;&gt;Node11</title>
<path fill="none" stroke="midnightblue" d="M138.37,-43.53C125.67,-52.78 131.63,-63.5 156.26,-63.5 173.96,-63.5 182.02,-57.96 180.44,-51.41"/>
<polygon fill="midnightblue" stroke="midnightblue" points="183.13,-49.16 174.16,-43.53 177.65,-53.53 183.13,-49.16"/>
</g>
</g>
</svg>
        <g id="navigator" transform="translate(0 0)" fill="#404254">
                <rect fill="#f2f5e9" fill-opacity="0.5" stroke="#606060" stroke-width=".5" x="0" y="0" width="60" height="60"/>
                <use id="zoomplus" xlink:href="#zoomPlus" x="17" y="9" onmousedown="handleZoom(evt,'in')"/>
                <use id="zoomminus" xlink:href="#zoomMin" x="42" y="9" onmousedown="handleZoom(evt,'out')"/>
                <use id="reset" xlink:href="#resetDef" x="30" y="36" onmousedown="handleReset()"/>
                <g id="arrowUp" xlink:href="#dirArrow" transform="translate(30 24)" onmousedown="handlePan(0,-1)">
                  <use xlink:href="#rim" fill="#404040">
                        <set attributeName="fill" to="#808080" begin="arrowUp.mouseover" end="arrowUp.mouseout"/>
                  </use>
                  <path fill="none" stroke="white" stroke-width="1.5" d="M0,-3.0v7 M-2.5,-0.5L0,-3.0L2.5,-0.5"/>
                </g>
                <g id="arrowRight" xlink:href="#dirArrow" transform="rotate(90) translate(36 -43)" onmousedown="handlePan(1,0)">
                  <use xlink:href="#rim" fill="#404040">
                        <set attributeName="fill" to="#808080" begin="arrowRight.mouseover" end="arrowRight.mouseout"/>
                  </use>
                  <path fill="none" stroke="white" stroke-width="1.5" d="M0,-3.0v7 M-2.5,-0.5L0,-3.0L2.5,-0.5"/>
                </g>
                <g id="arrowDown" xlink:href="#dirArrow" transform="rotate(180) translate(-30 -48)" onmousedown="handlePan(0,1)">
                  <use xlink:href="#rim" fill="#404040">
                        <set attributeName="fill" to="#808080" begin="arrowDown.mouseover" end="arrowDown.mouseout"/>
                  </use>
                  <path fill="none" stroke="white" stroke-width="1.5" d="M0,-3.0v7 M-2.5,-0.5L0,-3.0L2.5,-0.5"/>
                </g>
                <g id="arrowLeft" xlink:href="#dirArrow" transform="rotate(270) translate(-36 17)" onmousedown="handlePan(-1,0)">
                  <use xlink:href="#rim" fill="#404040">
                        <set attributeName="fill" to="#808080" begin="arrowLeft.mouseover" end="arrowLeft.mouseout"/>
                  </use>
                  <path fill="none" stroke="white" stroke-width="1.5" d="M0,-3.0v7 M-2.5,-0.5L0,-3.0L2.5,-0.5"/>
                </g>
        </g>
        <svg viewBox="0 0 15 15" width="100%" height="30px" preserveAspectRatio="xMaxYMin meet">
         <g id="arrow_out" transform="scale(0.3 0.3)">
          <a xlink:href="classrare_1_1utils_1_1json__formatter_1_1_q_json_tree_item_ac9b61a5d2b7f34200733fd959135686f_cgraph_org.svg" target="_base">
           <rect id="button" ry="5" rx="5" y="6" x="6" height="38" width="38"
                fill="#f2f5e9" fill-opacity="0.5" stroke="#606060" stroke-width="1.0"/>
           <path id="arrow"
             d="M 11.500037,31.436501 C 11.940474,20.09759 22.043105,11.32322 32.158766,21.979434 L 37.068811,17.246167 C 37.068811,17.246167 37.088388,32 37.088388,32 L 22.160133,31.978069 C 22.160133,31.978069 26.997745,27.140456 26.997745,27.140456 C 18.528582,18.264221 13.291696,25.230495 11.500037,31.436501 z"
             style="fill:#404040;"/>
          </a>
         </g>
        </svg>
</svg>
