<?xml version="1.0" encoding="UTF-8" standalone="no"?>
<!DOCTYPE svg PUBLIC "-//W3C//DTD SVG 1.1//EN"
 "http://www.w3.org/Graphics/SVG/1.1/DTD/svg11.dtd">
<!-- Generated by graphviz version 2.49.3 (20211027.1534)
 -->
<!-- Title: get_widget_version Pages: 1 -->
<svg width="337pt" height="137pt"
 viewBox="0.00 0.00 337.00 137.00" xmlns="http://www.w3.org/2000/svg" xmlns:xlink="http://www.w3.org/1999/xlink">
<g id="graph0" class="graph" transform="scale(1 1) rotate(0) translate(4 133)">
<title>get_widget_version</title>
<polygon fill="white" stroke="transparent" points="-4,4 -4,-133 333,-133 333,4 -4,4"/>
<!-- Node1 -->
<g id="node1" class="node">
<title>Node1</title>
<g id="a_node1"><a xlink:title=" ">
<polygon fill="#bfbfbf" stroke="black" points="0,-65.5 0,-84.5 101,-84.5 101,-65.5 0,-65.5"/>
<text text-anchor="middle" x="50.5" y="-72.5" font-family="Helvetica,sans-Serif" font-size="10.00">get_widget_version</text>
</a>
</g>
</g>
<!-- Node1&#45;&gt;Node1 -->
<g id="edge4" class="edge">
<title>Node1&#45;&gt;Node1</title>
<path fill="none" stroke="midnightblue" d="M22.45,-84.76C8.8,-93.57 18.15,-103 50.5,-103 72.74,-103 84.11,-98.54 84.61,-92.89"/>
<polygon fill="midnightblue" stroke="midnightblue" points="87.33,-90.69 78.55,-84.76 81.72,-94.87 87.33,-90.69"/>
</g>
<!-- Node2 -->
<g id="node2" class="node">
<title>Node2</title>
<g id="a_node2"><a xlink:href="classrare_1_1components_1_1tabs_1_1downloads_1_1groups_1_1_update_group.html#ab2e839f79f74112bc4f6c85e4159e217" target="_top" xlink:title=" ">
<polygon fill="white" stroke="black" points="195,-109.5 195,-128.5 271,-128.5 271,-109.5 195,-109.5"/>
<text text-anchor="middle" x="233" y="-116.5" font-family="Helvetica,sans-Serif" font-size="10.00">__find_widget</text>
</a>
</g>
</g>
<!-- Node1&#45;&gt;Node2 -->
<g id="edge1" class="edge">
<title>Node1&#45;&gt;Node2</title>
<path fill="none" stroke="midnightblue" d="M81.8,-84.56C98.07,-89.51 118.53,-95.46 137,-100 152.39,-103.78 169.33,-107.36 184.59,-110.36"/>
<polygon fill="midnightblue" stroke="midnightblue" points="184.36,-113.88 194.84,-112.34 185.69,-107.01 184.36,-113.88"/>
</g>
<!-- Node3 -->
<g id="node3" class="node">
<title>Node3</title>
<g id="a_node3"><a xlink:href="classrare_1_1components_1_1tabs_1_1downloads_1_1groups_1_1_queue_group.html#a40cbc229430213d2d834c3440098a875" target="_top" xlink:title=" ">
<polygon fill="white" stroke="black" points="137,-60 137,-90 329,-90 329,-60 137,-60"/>
<text text-anchor="start" x="145" y="-78" font-family="Helvetica,sans-Serif" font-size="10.00">rare.components.tabs.downloads.groups.</text>
<text text-anchor="middle" x="233" y="-67" font-family="Helvetica,sans-Serif" font-size="10.00">QueueGroup.__find_widget</text>
</a>
</g>
</g>
<!-- Node1&#45;&gt;Node3 -->
<g id="edge2" class="edge">
<title>Node1&#45;&gt;Node3</title>
<path fill="none" stroke="midnightblue" d="M101.3,-75C109.41,-75 118.07,-75 126.93,-75"/>
<polygon fill="midnightblue" stroke="midnightblue" points="127,-78.5 137,-75 127,-71.5 127,-78.5"/>
</g>
<!-- Node4 -->
<g id="node4" class="node">
<title>Node4</title>
<g id="a_node4"><a xlink:href="classrare_1_1components_1_1tabs_1_1games_1_1game__widgets_1_1_library_widget_controller.html#a3e5644faa03dce0cb52a471bb244b83b" target="_top" xlink:title=" ">
<polygon fill="white" stroke="black" points="149.5,-0.5 149.5,-41.5 316.5,-41.5 316.5,-0.5 149.5,-0.5"/>
<text text-anchor="start" x="157.5" y="-29.5" font-family="Helvetica,sans-Serif" font-size="10.00">rare.components.tabs.games.game</text>
<text text-anchor="start" x="157.5" y="-18.5" font-family="Helvetica,sans-Serif" font-size="10.00">_widgets.LibraryWidgetController.</text>
<text text-anchor="middle" x="233" y="-7.5" font-family="Helvetica,sans-Serif" font-size="10.00">__find_widget</text>
</a>
</g>
</g>
<!-- Node1&#45;&gt;Node4 -->
<g id="edge3" class="edge">
<title>Node1&#45;&gt;Node4</title>
<path fill="none" stroke="midnightblue" d="M83.35,-65.47C102.92,-59.62 128.91,-51.84 153.67,-44.43"/>
<polygon fill="midnightblue" stroke="midnightblue" points="154.87,-47.73 163.45,-41.51 152.87,-41.02 154.87,-47.73"/>
</g>
</g>
</svg>
