<?xml version="1.0" encoding="UTF-8" standalone="no"?>
<!DOCTYPE svg PUBLIC "-//W3C//DTD SVG 1.1//EN"
 "http://www.w3.org/Graphics/SVG/1.1/DTD/svg11.dtd">
<!-- Generated by graphviz version 2.49.3 (20211027.1534)
 -->
<!-- Title: CollapsibleFrame Pages: 1 -->
<svg width="254pt" height="601pt"
 viewBox="0.00 0.00 253.50 601.00" xmlns="http://www.w3.org/2000/svg" xmlns:xlink="http://www.w3.org/1999/xlink">
<g id="graph0" class="graph" transform="scale(1 1) rotate(0) translate(4 597)">
<title>CollapsibleFrame</title>
<polygon fill="white" stroke="transparent" points="-4,4 -4,-597 249.5,-597 249.5,4 -4,4"/>
<!-- Node1 -->
<g id="node1" class="node">
<title>Node1</title>
<g id="a_node1"><a xlink:title=" ">
<polygon fill="#bfbfbf" stroke="black" points="74.5,-138.5 74.5,-294.5 168.5,-294.5 168.5,-138.5 74.5,-138.5"/>
<text text-anchor="middle" x="121.5" y="-282.5" font-family="Helvetica,sans-Serif" font-size="10.00">CollapsibleFrame</text>
<polyline fill="none" stroke="black" points="74.5,-275.5 168.5,-275.5 "/>
<text text-anchor="start" x="82.5" y="-263.5" font-family="Helvetica,sans-Serif" font-size="10.00">+ toggle_button</text>
<text text-anchor="start" x="82.5" y="-252.5" font-family="Helvetica,sans-Serif" font-size="10.00">+ title_label</text>
<text text-anchor="start" x="82.5" y="-241.5" font-family="Helvetica,sans-Serif" font-size="10.00">+ main_layout</text>
<polyline fill="none" stroke="black" points="74.5,-234.5 168.5,-234.5 "/>
<text text-anchor="start" x="82.5" y="-222.5" font-family="Helvetica,sans-Serif" font-size="10.00">+ __init__()</text>
<text text-anchor="start" x="82.5" y="-211.5" font-family="Helvetica,sans-Serif" font-size="10.00">+ setTitle()</text>
<text text-anchor="start" x="82.5" y="-200.5" font-family="Helvetica,sans-Serif" font-size="10.00">+ setText()</text>
<text text-anchor="start" x="82.5" y="-189.5" font-family="Helvetica,sans-Serif" font-size="10.00">+ isChecked()</text>
<text text-anchor="start" x="82.5" y="-178.5" font-family="Helvetica,sans-Serif" font-size="10.00">+ click()</text>
<text text-anchor="start" x="82.5" y="-167.5" font-family="Helvetica,sans-Serif" font-size="10.00">+ addToLayout()</text>
<text text-anchor="start" x="82.5" y="-156.5" font-family="Helvetica,sans-Serif" font-size="10.00">+ sizeHint()</text>
<text text-anchor="start" x="82.5" y="-145.5" font-family="Helvetica,sans-Serif" font-size="10.00">+ animationStart()</text>
</a>
</g>
</g>
<!-- Node5 -->
<g id="node5" class="node">
<title>Node5</title>
<g id="a_node5"><a xlink:href="classrare_1_1components_1_1dialogs_1_1install__dialog_1_1_install_dialog_advanced.html" target="_top" xlink:title=" ">
<polygon fill="white" stroke="black" points="0,-17 0,-85 113,-85 113,-17 0,-17"/>
<text text-anchor="middle" x="56.5" y="-73" font-family="Helvetica,sans-Serif" font-size="10.00">InstallDialogAdvanced</text>
<polyline fill="none" stroke="black" points="0,-66 113,-66 "/>
<text text-anchor="start" x="8" y="-54" font-family="Helvetica,sans-Serif" font-size="10.00">+ widget</text>
<text text-anchor="start" x="8" y="-43" font-family="Helvetica,sans-Serif" font-size="10.00">+ ui</text>
<polyline fill="none" stroke="black" points="0,-36 113,-36 "/>
<text text-anchor="start" x="8" y="-24" font-family="Helvetica,sans-Serif" font-size="10.00">+ __init__()</text>
</a>
</g>
</g>
<!-- Node1&#45;&gt;Node5 -->
<g id="edge4" class="edge">
<title>Node1&#45;&gt;Node5</title>
<path fill="none" stroke="midnightblue" d="M86.89,-128.43C80.75,-113 74.71,-97.81 69.66,-85.1"/>
<polygon fill="none" stroke="midnightblue" points="83.77,-130.06 90.71,-138.06 90.27,-127.47 83.77,-130.06"/>
</g>
<!-- Node6 -->
<g id="node6" class="node">
<title>Node6</title>
<g id="a_node6"><a xlink:href="classrare_1_1components_1_1dialogs_1_1install__dialog_1_1_install_dialog_selective.html" target="_top" xlink:title=" ">
<polygon fill="white" stroke="black" points="131.5,-0.5 131.5,-101.5 241.5,-101.5 241.5,-0.5 131.5,-0.5"/>
<text text-anchor="middle" x="186.5" y="-89.5" font-family="Helvetica,sans-Serif" font-size="10.00">InstallDialogSelective</text>
<polyline fill="none" stroke="black" points="131.5,-82.5 241.5,-82.5 "/>
<text text-anchor="start" x="139.5" y="-70.5" font-family="Helvetica,sans-Serif" font-size="10.00">+ rgame</text>
<text text-anchor="start" x="139.5" y="-59.5" font-family="Helvetica,sans-Serif" font-size="10.00">+ widget</text>
<text text-anchor="start" x="139.5" y="-48.5" font-family="Helvetica,sans-Serif" font-size="10.00">+ Signal</text>
<polyline fill="none" stroke="black" points="131.5,-41.5 241.5,-41.5 "/>
<text text-anchor="start" x="139.5" y="-29.5" font-family="Helvetica,sans-Serif" font-size="10.00">+ __init__()</text>
<text text-anchor="start" x="139.5" y="-18.5" font-family="Helvetica,sans-Serif" font-size="10.00">+ update_list()</text>
<text text-anchor="start" x="139.5" y="-7.5" font-family="Helvetica,sans-Serif" font-size="10.00">+ install_tags()</text>
</a>
</g>
</g>
<!-- Node1&#45;&gt;Node6 -->
<g id="edge5" class="edge">
<title>Node1&#45;&gt;Node6</title>
<path fill="none" stroke="midnightblue" d="M156.1,-128.48C159.75,-119.29 163.36,-110.2 166.76,-101.66"/>
<polygon fill="none" stroke="midnightblue" points="152.73,-127.47 152.29,-138.06 159.23,-130.06 152.73,-127.47"/>
</g>
<!-- Node2 -->
<g id="node2" class="node">
<title>Node2</title>
<g id="a_node2"><a xlink:title=" ">
<polygon fill="white" stroke="#bfbfbf" points="39.5,-386.5 39.5,-443.5 91.5,-443.5 91.5,-386.5 39.5,-386.5"/>
<text text-anchor="middle" x="65.5" y="-431.5" font-family="Helvetica,sans-Serif" font-size="10.00">QFrame</text>
<polyline fill="none" stroke="#bfbfbf" points="39.5,-424.5 91.5,-424.5 "/>
<text text-anchor="middle" x="65.5" y="-412.5" font-family="Helvetica,sans-Serif" font-size="10.00"> </text>
<polyline fill="none" stroke="#bfbfbf" points="39.5,-405.5 91.5,-405.5 "/>
<text text-anchor="middle" x="65.5" y="-393.5" font-family="Helvetica,sans-Serif" font-size="10.00"> </text>
</a>
</g>
</g>
<!-- Node2&#45;&gt;Node1 -->
<g id="edge1" class="edge">
<title>Node2&#45;&gt;Node1</title>
<path fill="none" stroke="midnightblue" d="M76.18,-376.51C82.78,-353.37 91.48,-322.82 99.5,-294.7"/>
<polygon fill="none" stroke="midnightblue" points="72.78,-375.69 73.4,-386.26 79.51,-377.61 72.78,-375.69"/>
</g>
<!-- Node3 -->
<g id="node3" class="node">
<title>Node3</title>
<g id="a_node3"><a xlink:href="classrare_1_1widgets_1_1collapsible__widget_1_1_collapsible_base.html" target="_top" xlink:title="References:">
<polygon fill="white" stroke="black" points="109.5,-331.5 109.5,-498.5 245.5,-498.5 245.5,-331.5 109.5,-331.5"/>
<text text-anchor="middle" x="177.5" y="-486.5" font-family="Helvetica,sans-Serif" font-size="10.00">CollapsibleBase</text>
<polyline fill="none" stroke="black" points="109.5,-479.5 245.5,-479.5 "/>
<text text-anchor="start" x="117.5" y="-467.5" font-family="Helvetica,sans-Serif" font-size="10.00">+ animation_duration</text>
<text text-anchor="start" x="117.5" y="-456.5" font-family="Helvetica,sans-Serif" font-size="10.00">+ toggle_animation</text>
<text text-anchor="start" x="117.5" y="-445.5" font-family="Helvetica,sans-Serif" font-size="10.00">+ content_area</text>
<text text-anchor="start" x="117.5" y="-434.5" font-family="Helvetica,sans-Serif" font-size="10.00">+ content_toggle_animation</text>
<polyline fill="none" stroke="black" points="109.5,-427.5 245.5,-427.5 "/>
<text text-anchor="start" x="117.5" y="-415.5" font-family="Helvetica,sans-Serif" font-size="10.00">+ __init__()</text>
<text text-anchor="start" x="117.5" y="-404.5" font-family="Helvetica,sans-Serif" font-size="10.00">+ setup()</text>
<text text-anchor="start" x="117.5" y="-393.5" font-family="Helvetica,sans-Serif" font-size="10.00">+ isChecked()</text>
<text text-anchor="start" x="117.5" y="-382.5" font-family="Helvetica,sans-Serif" font-size="10.00">+ click()</text>
<text text-anchor="start" x="117.5" y="-371.5" font-family="Helvetica,sans-Serif" font-size="10.00">+ addToLayout()</text>
<text text-anchor="start" x="117.5" y="-360.5" font-family="Helvetica,sans-Serif" font-size="10.00">+ sizeHint()</text>
<text text-anchor="start" x="117.5" y="-349.5" font-family="Helvetica,sans-Serif" font-size="10.00">+ animationStart()</text>
<text text-anchor="start" x="117.5" y="-338.5" font-family="Helvetica,sans-Serif" font-size="10.00">+ setWidget()</text>
</a>
</g>
</g>
<!-- Node3&#45;&gt;Node1 -->
<g id="edge2" class="edge">
<title>Node3&#45;&gt;Node1</title>
<path fill="none" stroke="midnightblue" d="M151.13,-321.49C148.56,-312.46 145.97,-303.38 143.45,-294.53"/>
<polygon fill="none" stroke="midnightblue" points="147.81,-322.58 153.91,-331.24 154.54,-320.66 147.81,-322.58"/>
</g>
<!-- Node4 -->
<g id="node4" class="node">
<title>Node4</title>
<g id="a_node4"><a xlink:title=" ">
<polygon fill="white" stroke="#bfbfbf" points="156,-535.5 156,-592.5 199,-592.5 199,-535.5 156,-535.5"/>
<text text-anchor="middle" x="177.5" y="-580.5" font-family="Helvetica,sans-Serif" font-size="10.00">object</text>
<polyline fill="none" stroke="#bfbfbf" points="156,-573.5 199,-573.5 "/>
<text text-anchor="middle" x="177.5" y="-561.5" font-family="Helvetica,sans-Serif" font-size="10.00"> </text>
<polyline fill="none" stroke="#bfbfbf" points="156,-554.5 199,-554.5 "/>
<text text-anchor="middle" x="177.5" y="-542.5" font-family="Helvetica,sans-Serif" font-size="10.00"> </text>
</a>
</g>
</g>
<!-- Node4&#45;&gt;Node3 -->
<g id="edge3" class="edge">
<title>Node4&#45;&gt;Node3</title>
<path fill="none" stroke="midnightblue" d="M177.5,-525.35C177.5,-517.08 177.5,-508.01 177.5,-498.74"/>
<polygon fill="none" stroke="midnightblue" points="174,-525.35 177.5,-535.35 181,-525.35 174,-525.35"/>
</g>
</g>
</svg>
