<?xml version="1.0" encoding="UTF-8" standalone="no"?>
<!DOCTYPE svg PUBLIC "-//W3C//DTD SVG 1.1//EN"
 "http://www.w3.org/Graphics/SVG/1.1/DTD/svg11.dtd">
<!-- Generated by graphviz version 2.49.3 (20211027.1534)
 -->
<!-- Title: add_button_pressed Pages: 1 -->
<!--zoomable 206 -->
<svg id="main" version="1.1" xmlns="http://www.w3.org/2000/svg" xmlns:xlink="http://www.w3.org/1999/xlink" xml:space="preserve" onload="init(evt)">
<style type="text/css"><![CDATA[
.edge:hover path { stroke: red; }
.edge:hover polygon { stroke: red; fill: red; }
]]></style>
<script type="text/javascript"><![CDATA[
var edges = document.getElementsByTagName('g');
if (edges && edges.length) {
  for (var i=0;i<edges.length;i++) {
    if (edges[i].id.substr(0,4)=='edge') {
      edges[i].setAttribute('class','edge');
    }
  }
}
]]></script>
        <defs>
                <circle id="rim" cx="0" cy="0" r="7"/>
                <circle id="rim2" cx="0" cy="0" r="3.5"/>
                <g id="zoomPlus">
                        <use xlink:href="#rim" fill="#404040">
                                <set attributeName="fill" to="#808080" begin="zoomplus.mouseover" end="zoomplus.mouseout"/>
                        </use>
                        <path d="M-4,0h8M0,-4v8" fill="none" stroke="white" stroke-width="1.5" pointer-events="none"/>
                </g>
                <g id="zoomMin">
                        <use xlink:href="#rim" fill="#404040">
                                <set attributeName="fill" to="#808080" begin="zoomminus.mouseover" end="zoomminus.mouseout"/>
                        </use>
                        <path d="M-4,0h8" fill="none" stroke="white" stroke-width="1.5" pointer-events="none"/>
                </g>
                <g id="dirArrow">
                        <path fill="none" stroke="white" stroke-width="1.5" d="M0,-3.0v7 M-2.5,-0.5L0,-3.0L2.5,-0.5"/>
                </g>
               <g id="resetDef">
                       <use xlink:href="#rim2" fill="#404040">
                               <set attributeName="fill" to="#808080" begin="reset.mouseover" end="reset.mouseout"/>
                       </use>
               </g>
        </defs>

<script type="text/javascript">
var viewWidth = 1039;
var viewHeight = 206;
var sectionId = 'dynsection-4';
</script>
<script xlink:href="svgpan.js"/>
<svg id="graph" class="graph">
<g id="viewport">
<title>add_button_pressed</title>
<polygon fill="white" stroke="transparent" points="-4,4 -4,-201.91 1035,-201.91 1035,4 -4,4"/>
<!-- Node1 -->
<g id="node1" class="node">
<title>Node1</title>
<g id="a_node1"><a xlink:title=" ">
<polygon fill="#bfbfbf" stroke="black" points="0,-56.41 0,-75.41 104,-75.41 104,-56.41 0,-56.41"/>
<text text-anchor="middle" x="52" y="-63.41" font-family="Helvetica,sans-Serif" font-size="10.00">add_button_pressed</text>
</a>
</g>
</g>
<!-- Node1&#45;&gt;Node1 -->
<g id="edge1" class="edge">
<title>Node1&#45;&gt;Node1</title>
<path fill="none" stroke="midnightblue" d="M32.89,-75.66C23.59,-84.47 29.96,-93.91 52,-93.91 66.12,-93.91 73.81,-90.03 75.07,-84.94"/>
<polygon fill="midnightblue" stroke="midnightblue" points="78.25,-83.49 71.11,-75.66 71.81,-86.23 78.25,-83.49"/>
</g>
<!-- Node2 -->
<g id="node2" class="node">
<title>Node2</title>
<g id="a_node2"><a xlink:href="classrare_1_1components_1_1tabs_1_1settings_1_1widgets_1_1wrapper_1_1_wrapper_settings.html#a3f49eaa82385854d6627d30c27dc1fa7" target="_top" xlink:title=" ">
<polygon fill="white" stroke="black" points="140,-56.41 140,-75.41 212,-75.41 212,-56.41 140,-56.41"/>
<text text-anchor="middle" x="176" y="-63.41" font-family="Helvetica,sans-Serif" font-size="10.00">add_wrapper</text>
</a>
</g>
</g>
<!-- Node1&#45;&gt;Node2 -->
<g id="edge2" class="edge">
<title>Node1&#45;&gt;Node2</title>
<path fill="none" stroke="midnightblue" d="M104.03,-65.91C112.48,-65.91 121.19,-65.91 129.49,-65.91"/>
<polygon fill="midnightblue" stroke="midnightblue" points="129.73,-69.41 139.73,-65.91 129.73,-62.41 129.73,-69.41"/>
</g>
<!-- Node2&#45;&gt;Node2 -->
<g id="edge3" class="edge">
<title>Node2&#45;&gt;Node2</title>
<path fill="none" stroke="midnightblue" d="M158.12,-75.66C149.42,-84.47 155.38,-93.91 176,-93.91 188.89,-93.91 196.05,-90.22 197.48,-85.31"/>
<polygon fill="midnightblue" stroke="midnightblue" points="200.66,-83.81 193.88,-75.66 194.1,-86.26 200.66,-83.81"/>
</g>
<!-- Node3 -->
<g id="node3" class="node">
<title>Node3</title>
<g id="a_node3"><a xlink:href="classrare_1_1components_1_1tabs_1_1settings_1_1widgets_1_1wrapper_1_1_wrapper_settings.html#ab03ce50c7793dbc7bd5d9a26ec204db1" target="_top" xlink:title=" ">
<polygon fill="white" stroke="black" points="248,-160.41 248,-179.41 338,-179.41 338,-160.41 248,-160.41"/>
<text text-anchor="middle" x="293" y="-167.41" font-family="Helvetica,sans-Serif" font-size="10.00">adjust_scrollarea</text>
</a>
</g>
</g>
<!-- Node2&#45;&gt;Node3 -->
<g id="edge4" class="edge">
<title>Node2&#45;&gt;Node3</title>
<path fill="none" stroke="midnightblue" d="M183.77,-75.5C195.47,-91.56 220.83,-124.28 248,-145.91 252.23,-149.27 257,-152.42 261.8,-155.26"/>
<polygon fill="midnightblue" stroke="midnightblue" points="260.48,-158.53 270.93,-160.3 263.87,-152.4 260.48,-158.53"/>
</g>
<!-- Node4 -->
<g id="node4" class="node">
<title>Node4</title>
<g id="a_node4"><a xlink:href="classrare_1_1components_1_1tabs_1_1settings_1_1widgets_1_1wrapper_1_1_wrapper_settings.html#ad9cf11ee037042a34e4226af64798193" target="_top" xlink:title=" ">
<polygon fill="white" stroke="black" points="374,-47.41 374,-66.41 457,-66.41 457,-47.41 374,-47.41"/>
<text text-anchor="middle" x="415.5" y="-54.41" font-family="Helvetica,sans-Serif" font-size="10.00">delete_wrapper</text>
</a>
</g>
</g>
<!-- Node2&#45;&gt;Node4 -->
<g id="edge6" class="edge">
<title>Node2&#45;&gt;Node4</title>
<path fill="none" stroke="midnightblue" d="M212.28,-71.34C244.97,-75.55 294.9,-79.91 338,-74.91 348.89,-73.64 360.47,-71.4 371.25,-68.92"/>
<polygon fill="midnightblue" stroke="midnightblue" points="372.39,-72.24 381.28,-66.49 370.74,-65.44 372.39,-72.24"/>
</g>
<!-- Node5 -->
<g id="node5" class="node">
<title>Node5</title>
<g id="a_node5"><a xlink:href="classrare_1_1components_1_1tabs_1_1settings_1_1widgets_1_1wrapper_1_1_wrapper_settings.html#a564562f082521e37c7029e239abb56c6" target="_top" xlink:title=" ">
<polygon fill="white" stroke="black" points="558.5,-75.41 558.5,-94.41 596.5,-94.41 596.5,-75.41 558.5,-75.41"/>
<text text-anchor="middle" x="577.5" y="-82.41" font-family="Helvetica,sans-Serif" font-size="10.00">save</text>
</a>
</g>
</g>
<!-- Node2&#45;&gt;Node5 -->
<g id="edge19" class="edge">
<title>Node2&#45;&gt;Node5</title>
<path fill="none" stroke="midnightblue" d="M199.57,-75.44C213.31,-80.75 231.35,-86.9 248,-89.91 357.68,-109.73 491.32,-96.38 548.43,-88.95"/>
<polygon fill="midnightblue" stroke="midnightblue" points="549.05,-92.39 558.5,-87.59 548.12,-85.46 549.05,-92.39"/>
</g>
<!-- Node9 -->
<g id="node9" class="node">
<title>Node9</title>
<g id="a_node9"><a xlink:href="classrare_1_1launcher_1_1console_1_1_console.html#a564562f082521e37c7029e239abb56c6" target="_top" xlink:title=" ">
<polygon fill="white" stroke="black" points="493,-9.41 493,-28.41 662,-28.41 662,-9.41 493,-9.41"/>
<text text-anchor="middle" x="577.5" y="-16.41" font-family="Helvetica,sans-Serif" font-size="10.00">rare.launcher.console.Console.save</text>
</a>
</g>
</g>
<!-- Node2&#45;&gt;Node9 -->
<g id="edge20" class="edge">
<title>Node2&#45;&gt;Node9</title>
<path fill="none" stroke="midnightblue" d="M187.51,-56.01C200.52,-44.5 223.94,-26.15 248,-18.91 336.18,7.63 443.8,0.7 511.26,-8.05"/>
<polygon fill="midnightblue" stroke="midnightblue" points="510.95,-11.54 521.33,-9.4 511.89,-4.6 510.95,-11.54"/>
</g>
<!-- Node10 -->
<g id="node10" class="node">
<title>Node10</title>
<g id="a_node10"><a xlink:href="classrare_1_1components_1_1tabs_1_1settings_1_1widgets_1_1wrapper_1_1_wrapper_settings.html#ac7dec68a9f412451fd5ee8851d15b2ec" target="_top" xlink:title=" ">
<polygon fill="white" stroke="black" points="250,-28.41 250,-47.41 336,-47.41 336,-28.41 250,-28.41"/>
<text text-anchor="middle" x="293" y="-35.41" font-family="Helvetica,sans-Serif" font-size="10.00">update_wrapper</text>
</a>
</g>
</g>
<!-- Node2&#45;&gt;Node10 -->
<g id="edge21" class="edge">
<title>Node2&#45;&gt;Node10</title>
<path fill="none" stroke="midnightblue" d="M195.22,-56.38C207.29,-52.2 223.77,-47.64 239.71,-43.91"/>
<polygon fill="midnightblue" stroke="midnightblue" points="240.53,-47.31 249.52,-41.71 239,-40.49 240.53,-47.31"/>
</g>
<!-- Node3&#45;&gt;Node3 -->
<g id="edge5" class="edge">
<title>Node3&#45;&gt;Node3</title>
<path fill="none" stroke="midnightblue" d="M275.12,-179.66C266.42,-188.47 272.38,-197.91 293,-197.91 305.89,-197.91 313.05,-194.22 314.48,-189.31"/>
<polygon fill="midnightblue" stroke="midnightblue" points="317.66,-187.81 310.88,-179.66 311.1,-190.26 317.66,-187.81"/>
</g>
<!-- Node4&#45;&gt;Node4 -->
<g id="edge7" class="edge">
<title>Node4&#45;&gt;Node4</title>
<path fill="none" stroke="midnightblue" d="M396.7,-66.66C387.55,-75.47 393.82,-84.91 415.5,-84.91 429.39,-84.91 436.96,-81.03 438.19,-75.94"/>
<polygon fill="midnightblue" stroke="midnightblue" points="441.4,-74.53 434.3,-66.66 434.94,-77.24 441.4,-74.53"/>
</g>
<!-- Node4&#45;&gt;Node5 -->
<g id="edge8" class="edge">
<title>Node4&#45;&gt;Node5</title>
<path fill="none" stroke="midnightblue" d="M457.29,-64.04C485.81,-69.03 523.15,-75.57 548.39,-79.99"/>
<polygon fill="midnightblue" stroke="midnightblue" points="547.95,-83.46 558.4,-81.74 549.15,-76.57 547.95,-83.46"/>
</g>
<!-- Node4&#45;&gt;Node9 -->
<g id="edge17" class="edge">
<title>Node4&#45;&gt;Node9</title>
<path fill="none" stroke="midnightblue" d="M456.87,-47.32C477.99,-42.3 504.03,-36.12 526.42,-30.8"/>
<polygon fill="midnightblue" stroke="midnightblue" points="527.49,-34.14 536.42,-28.43 525.88,-27.33 527.49,-34.14"/>
</g>
<!-- Node5&#45;&gt;Node5 -->
<g id="edge16" class="edge">
<title>Node5&#45;&gt;Node5</title>
<path fill="none" stroke="midnightblue" d="M558.4,-91.23C538.54,-100.82 544.91,-112.91 577.5,-112.91 603.98,-112.91 613.15,-104.93 605,-96.79"/>
<polygon fill="midnightblue" stroke="midnightblue" points="606.87,-93.83 596.6,-91.23 603.01,-99.67 606.87,-93.83"/>
</g>
<!-- Node6 -->
<g id="node6" class="node">
<title>Node6</title>
<g id="a_node6"><a xlink:href="classrare_1_1components_1_1tabs_1_1games_1_1integrations_1_1egl__sync__group_1_1_e_g_l_sync_list_item.html#a9c470cc60eae203f55455d0e0d7f5712" target="_top" xlink:title=" ">
<polygon fill="white" stroke="black" points="698,-131.91 698,-161.91 907,-161.91 907,-131.91 698,-131.91"/>
<text text-anchor="start" x="706" y="-149.91" font-family="Helvetica,sans-Serif" font-size="10.00">rare.components.tabs.games.integrations.egl</text>
<text text-anchor="middle" x="802.5" y="-138.91" font-family="Helvetica,sans-Serif" font-size="10.00">_sync_group.EGLSyncListItem.app_name</text>
</a>
</g>
</g>
<!-- Node5&#45;&gt;Node6 -->
<g id="edge9" class="edge">
<title>Node5&#45;&gt;Node6</title>
<path fill="none" stroke="midnightblue" d="M596.62,-90.91C619.94,-98.54 661.78,-111.93 698,-121.91 707.19,-124.44 716.88,-126.96 726.5,-129.38"/>
<polygon fill="midnightblue" stroke="midnightblue" points="725.92,-132.84 736.47,-131.86 727.61,-126.05 725.92,-132.84"/>
</g>
<!-- Node7 -->
<g id="node7" class="node">
<title>Node7</title>
<g id="a_node7"><a xlink:href="classrare_1_1components_1_1tabs_1_1settings_1_1widgets_1_1wrapper_1_1_wrapper_settings.html#af704077af9c417ed9938e7b3f271faa5" target="_top" xlink:title=" ">
<polygon fill="white" stroke="black" points="943,-56.41 943,-75.41 1031,-75.41 1031,-56.41 943,-56.41"/>
<text text-anchor="middle" x="987" y="-63.41" font-family="Helvetica,sans-Serif" font-size="10.00">get_wrapper_list</text>
</a>
</g>
</g>
<!-- Node5&#45;&gt;Node7 -->
<g id="edge11" class="edge">
<title>Node5&#45;&gt;Node7</title>
<path fill="none" stroke="midnightblue" d="M596.61,-81.11C619.93,-76.44 661.77,-68.77 698,-65.91 779.82,-59.44 875.12,-61.27 932.97,-63.41"/>
<polygon fill="midnightblue" stroke="midnightblue" points="932.85,-66.91 942.98,-63.8 933.12,-59.91 932.85,-66.91"/>
</g>
<!-- Node8 -->
<g id="node8" class="node">
<title>Node8</title>
<g id="a_node8"><a xlink:href="classrare_1_1components_1_1tabs_1_1settings_1_1widgets_1_1wrapper_1_1_wrapper_settings.html#ab720efcdbf6d746c9008125db4703236" target="_top" xlink:title=" ">
<polygon fill="white" stroke="black" points="753,-75.41 753,-94.41 852,-94.41 852,-75.41 753,-75.41"/>
<text text-anchor="middle" x="802.5" y="-82.41" font-family="Helvetica,sans-Serif" font-size="10.00">get_wrapper_string</text>
</a>
</g>
</g>
<!-- Node5&#45;&gt;Node8 -->
<g id="edge13" class="edge">
<title>Node5&#45;&gt;Node8</title>
<path fill="none" stroke="midnightblue" d="M596.75,-84.91C628.21,-84.91 693.97,-84.91 742.51,-84.91"/>
<polygon fill="midnightblue" stroke="midnightblue" points="742.59,-88.41 752.59,-84.91 742.59,-81.41 742.59,-88.41"/>
</g>
<!-- Node6&#45;&gt;Node6 -->
<g id="edge10" class="edge">
<title>Node6&#45;&gt;Node6</title>
<path fill="none" stroke="midnightblue" d="M770.43,-162.07C762.7,-171.46 773.39,-180.41 802.5,-180.41 820.24,-180.41 831.14,-177.09 835.19,-172.36"/>
<polygon fill="midnightblue" stroke="midnightblue" points="838.67,-171.83 834.57,-162.07 831.68,-172.26 838.67,-171.83"/>
</g>
<!-- Node7&#45;&gt;Node7 -->
<g id="edge12" class="edge">
<title>Node7&#45;&gt;Node7</title>
<path fill="none" stroke="midnightblue" d="M958.64,-75.66C944.84,-84.47 954.3,-93.91 987,-93.91 1009.48,-93.91 1020.98,-89.45 1021.48,-83.8"/>
<polygon fill="midnightblue" stroke="midnightblue" points="1024.17,-81.55 1015.36,-75.66 1018.58,-85.76 1024.17,-81.55"/>
</g>
<!-- Node8&#45;&gt;Node7 -->
<g id="edge14" class="edge">
<title>Node8&#45;&gt;Node7</title>
<path fill="none" stroke="midnightblue" d="M852.41,-79.81C877.18,-77.23 907.31,-74.1 932.68,-71.46"/>
<polygon fill="midnightblue" stroke="midnightblue" points="933.29,-74.91 942.87,-70.4 932.56,-67.95 933.29,-74.91"/>
</g>
<!-- Node8&#45;&gt;Node8 -->
<g id="edge15" class="edge">
<title>Node8&#45;&gt;Node8</title>
<path fill="none" stroke="midnightblue" d="M774.14,-94.66C760.34,-103.47 769.8,-112.91 802.5,-112.91 824.98,-112.91 836.48,-108.45 836.98,-102.8"/>
<polygon fill="midnightblue" stroke="midnightblue" points="839.67,-100.55 830.86,-94.66 834.08,-104.76 839.67,-100.55"/>
</g>
<!-- Node9&#45;&gt;Node9 -->
<g id="edge18" class="edge">
<title>Node9&#45;&gt;Node9</title>
<path fill="none" stroke="midnightblue" d="M552.53,-28.66C540.38,-37.47 548.71,-46.91 577.5,-46.91 596.85,-46.91 606.95,-42.65 607.81,-37.18"/>
<polygon fill="midnightblue" stroke="midnightblue" points="610.75,-35.27 602.47,-28.66 604.82,-38.99 610.75,-35.27"/>
</g>
<!-- Node10&#45;&gt;Node2 -->
<g id="edge22" class="edge">
<title>Node10&#45;&gt;Node2</title>
<path fill="none" stroke="midnightblue" d="M273.75,-47.44C259.82,-52.26 240.01,-57.59 221.94,-61.57"/>
<polygon fill="midnightblue" stroke="midnightblue" points="221.2,-58.15 212.13,-63.63 222.63,-65 221.2,-58.15"/>
</g>
<!-- Node10&#45;&gt;Node4 -->
<g id="edge23" class="edge">
<title>Node10&#45;&gt;Node4</title>
<path fill="none" stroke="midnightblue" d="M336.15,-44.55C345.02,-45.95 354.47,-47.44 363.63,-48.89"/>
<polygon fill="midnightblue" stroke="midnightblue" points="363.38,-52.39 373.8,-50.49 364.47,-45.47 363.38,-52.39"/>
</g>
<!-- Node10&#45;&gt;Node10 -->
<g id="edge24" class="edge">
<title>Node10&#45;&gt;Node10</title>
<path fill="none" stroke="midnightblue" d="M275.12,-47.66C266.42,-56.47 272.38,-65.91 293,-65.91 305.89,-65.91 313.05,-62.22 314.48,-57.31"/>
<polygon fill="midnightblue" stroke="midnightblue" points="317.66,-55.81 310.88,-47.66 311.1,-58.26 317.66,-55.81"/>
</g>
</g>
</svg>
        <g id="navigator" transform="translate(0 0)" fill="#404254">
                <rect fill="#f2f5e9" fill-opacity="0.5" stroke="#606060" stroke-width=".5" x="0" y="0" width="60" height="60"/>
                <use id="zoomplus" xlink:href="#zoomPlus" x="17" y="9" onmousedown="handleZoom(evt,'in')"/>
                <use id="zoomminus" xlink:href="#zoomMin" x="42" y="9" onmousedown="handleZoom(evt,'out')"/>
                <use id="reset" xlink:href="#resetDef" x="30" y="36" onmousedown="handleReset()"/>
                <g id="arrowUp" xlink:href="#dirArrow" transform="translate(30 24)" onmousedown="handlePan(0,-1)">
                  <use xlink:href="#rim" fill="#404040">
                        <set attributeName="fill" to="#808080" begin="arrowUp.mouseover" end="arrowUp.mouseout"/>
                  </use>
                  <path fill="none" stroke="white" stroke-width="1.5" d="M0,-3.0v7 M-2.5,-0.5L0,-3.0L2.5,-0.5"/>
                </g>
                <g id="arrowRight" xlink:href="#dirArrow" transform="rotate(90) translate(36 -43)" onmousedown="handlePan(1,0)">
                  <use xlink:href="#rim" fill="#404040">
                        <set attributeName="fill" to="#808080" begin="arrowRight.mouseover" end="arrowRight.mouseout"/>
                  </use>
                  <path fill="none" stroke="white" stroke-width="1.5" d="M0,-3.0v7 M-2.5,-0.5L0,-3.0L2.5,-0.5"/>
                </g>
                <g id="arrowDown" xlink:href="#dirArrow" transform="rotate(180) translate(-30 -48)" onmousedown="handlePan(0,1)">
                  <use xlink:href="#rim" fill="#404040">
                        <set attributeName="fill" to="#808080" begin="arrowDown.mouseover" end="arrowDown.mouseout"/>
                  </use>
                  <path fill="none" stroke="white" stroke-width="1.5" d="M0,-3.0v7 M-2.5,-0.5L0,-3.0L2.5,-0.5"/>
                </g>
                <g id="arrowLeft" xlink:href="#dirArrow" transform="rotate(270) translate(-36 17)" onmousedown="handlePan(-1,0)">
                  <use xlink:href="#rim" fill="#404040">
                        <set attributeName="fill" to="#808080" begin="arrowLeft.mouseover" end="arrowLeft.mouseout"/>
                  </use>
                  <path fill="none" stroke="white" stroke-width="1.5" d="M0,-3.0v7 M-2.5,-0.5L0,-3.0L2.5,-0.5"/>
                </g>
        </g>
        <svg viewBox="0 0 15 15" width="100%" height="30px" preserveAspectRatio="xMaxYMin meet">
         <g id="arrow_out" transform="scale(0.3 0.3)">
          <a xlink:href="classrare_1_1components_1_1tabs_1_1settings_1_1widgets_1_1wrapper_1_1_wrapper_settings_a20a157d42aada3e8763402bf91304b88_cgraph_org.svg" target="_base">
           <rect id="button" ry="5" rx="5" y="6" x="6" height="38" width="38"
                fill="#f2f5e9" fill-opacity="0.5" stroke="#606060" stroke-width="1.0"/>
           <path id="arrow"
             d="M 11.500037,31.436501 C 11.940474,20.09759 22.043105,11.32322 32.158766,21.979434 L 37.068811,17.246167 C 37.068811,17.246167 37.088388,32 37.088388,32 L 22.160133,31.978069 C 22.160133,31.978069 26.997745,27.140456 26.997745,27.140456 C 18.528582,18.264221 13.291696,25.230495 11.500037,31.436501 z"
             style="fill:#404040;"/>
          </a>
         </g>
        </svg>
</svg>
