<?xml version="1.0" encoding="UTF-8" standalone="no"?>
<!DOCTYPE svg PUBLIC "-//W3C//DTD SVG 1.1//EN"
 "http://www.w3.org/Graphics/SVG/1.1/DTD/svg11.dtd">
<!-- Generated by graphviz version 2.49.3 (20211027.1534)
 -->
<!-- Title: verify_game Pages: 1 -->
<svg width="650pt" height="423pt"
 viewBox="0.00 0.00 650.00 422.50" xmlns="http://www.w3.org/2000/svg" xmlns:xlink="http://www.w3.org/1999/xlink">
<g id="graph0" class="graph" transform="scale(1 1) rotate(0) translate(4 418.5)">
<title>verify_game</title>
<polygon fill="white" stroke="transparent" points="-4,4 -4,-418.5 646,-418.5 646,4 -4,4"/>
<!-- Node1 -->
<g id="node1" class="node">
<title>Node1</title>
<g id="a_node1"><a xlink:title=" ">
<polygon fill="#bfbfbf" stroke="black" points="0,-195 0,-214 69,-214 69,-195 0,-195"/>
<text text-anchor="middle" x="34.5" y="-202" font-family="Helvetica,sans-Serif" font-size="10.00">verify_game</text>
</a>
</g>
</g>
<!-- Node1&#45;&gt;Node1 -->
<g id="edge27" class="edge">
<title>Node1&#45;&gt;Node1</title>
<path fill="none" stroke="midnightblue" d="M13.85,-214.26C3.8,-223.07 10.68,-232.5 34.5,-232.5 49.76,-232.5 58.07,-228.63 59.43,-223.53"/>
<polygon fill="midnightblue" stroke="midnightblue" points="62.52,-221.87 55.15,-214.26 56.16,-224.8 62.52,-221.87"/>
</g>
<!-- Node2 -->
<g id="node2" class="node">
<title>Node2</title>
<g id="a_node2"><a xlink:href="classrare_1_1components_1_1tabs_1_1library_1_1details_1_1details_1_1_game_details.html#a48e6e062bb4c90c9cc95fa4fbfa1a730" target="_top" xlink:title=" ">
<polygon fill="white" stroke="black" points="115.5,-395 115.5,-414 224.5,-414 224.5,-395 115.5,-395"/>
<text text-anchor="middle" x="170" y="-402" font-family="Helvetica,sans-Serif" font-size="10.00">__on_verify_progress</text>
</a>
</g>
</g>
<!-- Node1&#45;&gt;Node2 -->
<g id="edge1" class="edge">
<title>Node1&#45;&gt;Node2</title>
<path fill="none" stroke="midnightblue" d="M36.31,-214.41C39.33,-244.72 52.61,-337.05 105,-385.5 106.69,-387.07 108.51,-388.5 110.42,-389.82"/>
<polygon fill="midnightblue" stroke="midnightblue" points="108.89,-392.98 119.31,-394.89 112.36,-386.9 108.89,-392.98"/>
</g>
<!-- Node3 -->
<g id="node3" class="node">
<title>Node3</title>
<g id="a_node3"><a xlink:href="classrare_1_1components_1_1tabs_1_1library_1_1details_1_1details_1_1_game_details.html#abcf1aa5c72bdb972b0e74623fdf5f38f" target="_top" xlink:title=" ">
<polygon fill="white" stroke="black" points="122.5,-357 122.5,-376 217.5,-376 217.5,-357 122.5,-357"/>
<text text-anchor="middle" x="170" y="-364" font-family="Helvetica,sans-Serif" font-size="10.00">__on_verify_result</text>
</a>
</g>
</g>
<!-- Node1&#45;&gt;Node3 -->
<g id="edge2" class="edge">
<title>Node1&#45;&gt;Node3</title>
<path fill="none" stroke="midnightblue" d="M37.71,-214.01C43.93,-238.72 63.88,-305.59 105,-342.5 109.47,-346.51 114.67,-349.88 120.15,-352.69"/>
<polygon fill="midnightblue" stroke="midnightblue" points="118.97,-356 129.53,-356.93 121.85,-349.62 118.97,-356"/>
</g>
<!-- Node4 -->
<g id="node4" class="node">
<title>Node4</title>
<g id="a_node4"><a xlink:href="classrare_1_1components_1_1tabs_1_1library_1_1details_1_1details_1_1_game_details.html#a6051424c6fb282ae329b5c3eb42170c0" target="_top" xlink:title=" ">
<polygon fill="white" stroke="black" points="322.5,-366 322.5,-385 419.5,-385 419.5,-366 322.5,-366"/>
<text text-anchor="middle" x="371" y="-373" font-family="Helvetica,sans-Serif" font-size="10.00">__on_worker_error</text>
</a>
</g>
</g>
<!-- Node1&#45;&gt;Node4 -->
<g id="edge3" class="edge">
<title>Node1&#45;&gt;Node4</title>
<path fill="none" stroke="midnightblue" d="M39.02,-214.06C47.18,-234.87 69.47,-284.4 105,-309.5 122.08,-321.57 241.51,-348.36 314.09,-363.84"/>
<polygon fill="midnightblue" stroke="midnightblue" points="313.49,-367.29 324,-365.94 314.95,-360.44 313.49,-367.29"/>
</g>
<!-- Node5 -->
<g id="node5" class="node">
<title>Node5</title>
<g id="a_node5"><a xlink:href="classrare_1_1shared_1_1rare__core_1_1_rare_core.html#a673cb72b40e8c1b2dfab6dbc0e0e39e4" target="_top" xlink:title=" ">
<polygon fill="white" stroke="black" points="105,-251.5 105,-281.5 235,-281.5 235,-251.5 105,-251.5"/>
<text text-anchor="start" x="113" y="-269.5" font-family="Helvetica,sans-Serif" font-size="10.00">rare.shared.rare_core.Rare</text>
<text text-anchor="middle" x="170" y="-258.5" font-family="Helvetica,sans-Serif" font-size="10.00">Core.args</text>
</a>
</g>
</g>
<!-- Node1&#45;&gt;Node5 -->
<g id="edge4" class="edge">
<title>Node1&#45;&gt;Node5</title>
<path fill="none" stroke="midnightblue" d="M52.08,-214.03C65.99,-221.86 86.49,-232.99 105,-241.5 109.44,-243.54 114.1,-245.57 118.79,-247.54"/>
<polygon fill="midnightblue" stroke="midnightblue" points="117.83,-250.92 128.41,-251.47 120.48,-244.45 117.83,-250.92"/>
</g>
<!-- Node6 -->
<g id="node6" class="node">
<title>Node6</title>
<g id="a_node6"><a xlink:href="classrare_1_1shared_1_1rare__core_1_1_rare_core.html#a405e1a4f20f16120f872ccd2654a1d56" target="_top" xlink:title=" ">
<polygon fill="white" stroke="black" points="509.5,-67.5 509.5,-97.5 639.5,-97.5 639.5,-67.5 509.5,-67.5"/>
<text text-anchor="start" x="517.5" y="-85.5" font-family="Helvetica,sans-Serif" font-size="10.00">rare.shared.rare_core.Rare</text>
<text text-anchor="middle" x="574.5" y="-74.5" font-family="Helvetica,sans-Serif" font-size="10.00">Core.core</text>
</a>
</g>
</g>
<!-- Node1&#45;&gt;Node6 -->
<g id="edge6" class="edge">
<title>Node1&#45;&gt;Node6</title>
<path fill="none" stroke="midnightblue" d="M46,-194.59C58.96,-182.84 82.09,-163.36 105,-151.5 231.99,-85.79 402.66,-77.51 499.05,-78.96"/>
<polygon fill="midnightblue" stroke="midnightblue" points="499.22,-82.47 509.29,-79.16 499.35,-75.47 499.22,-82.47"/>
</g>
<!-- Node7 -->
<g id="node7" class="node">
<title>Node7</title>
<g id="a_node7"><a xlink:href="classrare_1_1components_1_1tabs_1_1library_1_1details_1_1details_1_1_game_details.html#ab5496f80e54a69d968995df463181716" target="_top" xlink:title=" ">
<polygon fill="white" stroke="black" points="135,-195 135,-214 205,-214 205,-195 135,-195"/>
<text text-anchor="middle" x="170" y="-202" font-family="Helvetica,sans-Serif" font-size="10.00">move_game</text>
</a>
</g>
</g>
<!-- Node1&#45;&gt;Node7 -->
<g id="edge8" class="edge">
<title>Node1&#45;&gt;Node7</title>
<path fill="none" stroke="midnightblue" d="M69.19,-204.5C86.05,-204.5 106.69,-204.5 124.81,-204.5"/>
<polygon fill="midnightblue" stroke="midnightblue" points="124.86,-208 134.86,-204.5 124.86,-201 124.86,-208"/>
</g>
<!-- Node12 -->
<g id="node12" class="node">
<title>Node12</title>
<g id="a_node12"><a xlink:href="classrare_1_1components_1_1tabs_1_1library_1_1widgets_1_1game__widget_1_1_game_widget.html#aa660d748bc3a0c7c2dfaa15cee8e6ba6" target="_top" xlink:title=" ">
<polygon fill="white" stroke="black" points="271,-108.5 271,-138.5 471,-138.5 471,-108.5 271,-108.5"/>
<text text-anchor="start" x="279" y="-126.5" font-family="Helvetica,sans-Serif" font-size="10.00">rare.components.tabs.library.widgets.game</text>
<text text-anchor="middle" x="371" y="-115.5" font-family="Helvetica,sans-Serif" font-size="10.00">_widget.GameWidget.ui</text>
</a>
</g>
</g>
<!-- Node1&#45;&gt;Node12 -->
<g id="edge26" class="edge">
<title>Node1&#45;&gt;Node12</title>
<path fill="none" stroke="midnightblue" d="M69.02,-195.07C80.41,-191.93 93.24,-188.48 105,-185.5 167.93,-169.54 239.64,-152.86 292.58,-140.82"/>
<polygon fill="midnightblue" stroke="midnightblue" points="293.6,-144.18 302.58,-138.55 292.05,-137.35 293.6,-144.18"/>
</g>
<!-- Node13 -->
<g id="node13" class="node">
<title>Node13</title>
<g id="a_node13"><a xlink:href="classrare_1_1components_1_1tabs_1_1library_1_1details_1_1details_1_1_game_details.html#a0c1ec5a8b5b81f2e8b0483bfd9330a81" target="_top" xlink:title=" ">
<polygon fill="white" stroke="black" points="135,-14 135,-33 205,-33 205,-14 135,-14"/>
<text text-anchor="middle" x="170" y="-21" font-family="Helvetica,sans-Serif" font-size="10.00">repair_game</text>
</a>
</g>
</g>
<!-- Node1&#45;&gt;Node13 -->
<g id="edge18" class="edge">
<title>Node1&#45;&gt;Node13</title>
<path fill="none" stroke="midnightblue" d="M37.22,-194.98C43.42,-169.07 66.27,-100.05 105,-56.5 111.03,-49.72 118.4,-43.57 125.96,-38.36"/>
<polygon fill="midnightblue" stroke="midnightblue" points="128.29,-41.02 134.85,-32.71 124.54,-35.12 128.29,-41.02"/>
</g>
<!-- Node5&#45;&gt;Node5 -->
<g id="edge5" class="edge">
<title>Node5&#45;&gt;Node5</title>
<path fill="none" stroke="midnightblue" d="M146.65,-281.66C141.02,-291.06 148.8,-300 170,-300 182.92,-300 190.86,-296.68 193.81,-291.96"/>
<polygon fill="midnightblue" stroke="midnightblue" points="197.29,-291.49 193.35,-281.66 190.3,-291.8 197.29,-291.49"/>
</g>
<!-- Node6&#45;&gt;Node6 -->
<g id="edge7" class="edge">
<title>Node6&#45;&gt;Node6</title>
<path fill="none" stroke="midnightblue" d="M539.3,-97.66C530.81,-107.06 542.54,-116 574.5,-116 593.97,-116 605.94,-112.68 610.39,-107.96"/>
<polygon fill="midnightblue" stroke="midnightblue" points="613.86,-107.4 609.7,-97.66 606.88,-107.87 613.86,-107.4"/>
</g>
<!-- Node7&#45;&gt;Node4 -->
<g id="edge13" class="edge">
<title>Node7&#45;&gt;Node4</title>
<path fill="none" stroke="midnightblue" d="M195.86,-214.13C209.14,-220.41 224.8,-229.81 235,-242.5 266.96,-282.27 233.49,-316.92 271,-351.5 282.25,-361.87 297.21,-367.98 312.08,-371.51"/>
<polygon fill="midnightblue" stroke="midnightblue" points="311.82,-375.03 322.31,-373.57 313.2,-368.17 311.82,-375.03"/>
</g>
<!-- Node7&#45;&gt;Node6 -->
<g id="edge14" class="edge">
<title>Node7&#45;&gt;Node6</title>
<path fill="none" stroke="midnightblue" d="M194.03,-214.03C207.36,-220.47 223.69,-230.08 235,-242.5 260.17,-270.13 239.42,-298.51 271,-318.5 346.11,-366.03 396.67,-367.25 471,-318.5 544.08,-270.57 565.32,-158.06 571.28,-107.68"/>
<polygon fill="midnightblue" stroke="midnightblue" points="574.77,-107.95 572.36,-97.64 567.81,-107.21 574.77,-107.95"/>
</g>
<!-- Node7&#45;&gt;Node7 -->
<g id="edge15" class="edge">
<title>Node7&#45;&gt;Node7</title>
<path fill="none" stroke="midnightblue" d="M149.35,-214.26C139.3,-223.07 146.18,-232.5 170,-232.5 185.26,-232.5 193.57,-228.63 194.93,-223.53"/>
<polygon fill="midnightblue" stroke="midnightblue" points="198.02,-221.87 190.65,-214.26 191.66,-224.8 198.02,-221.87"/>
</g>
<!-- Node8 -->
<g id="node8" class="node">
<title>Node8</title>
<g id="a_node8"><a xlink:href="classrare_1_1components_1_1tabs_1_1library_1_1details_1_1details_1_1_game_details.html#aea1fe2575697ff132d6bd9629fe6c2df" target="_top" xlink:title=" ">
<polygon fill="white" stroke="black" points="316,-290 316,-309 426,-309 426,-290 316,-290"/>
<text text-anchor="middle" x="371" y="-297" font-family="Helvetica,sans-Serif" font-size="10.00">__on_move_progress</text>
</a>
</g>
</g>
<!-- Node7&#45;&gt;Node8 -->
<g id="edge9" class="edge">
<title>Node7&#45;&gt;Node8</title>
<path fill="none" stroke="midnightblue" d="M190.09,-214.03C203.31,-221.05 220.97,-231.29 235,-242.5 253.18,-257.02 250.59,-269.33 271,-280.5 281.61,-286.31 293.71,-290.37 305.73,-293.2"/>
<polygon fill="midnightblue" stroke="midnightblue" points="305.26,-296.68 315.76,-295.3 306.69,-289.82 305.26,-296.68"/>
</g>
<!-- Node9 -->
<g id="node9" class="node">
<title>Node9</title>
<g id="a_node9"><a xlink:href="classrare_1_1components_1_1tabs_1_1library_1_1details_1_1details_1_1_game_details.html#a849f0844767f52dfa892223327e312f9" target="_top" xlink:title=" ">
<polygon fill="white" stroke="black" points="323,-252 323,-271 419,-271 419,-252 323,-252"/>
<text text-anchor="middle" x="371" y="-259" font-family="Helvetica,sans-Serif" font-size="10.00">__on_move_result</text>
</a>
</g>
</g>
<!-- Node7&#45;&gt;Node9 -->
<g id="edge10" class="edge">
<title>Node7&#45;&gt;Node9</title>
<path fill="none" stroke="midnightblue" d="M192.87,-214.07C212.89,-222.53 243.48,-234.7 271,-242.5 284.41,-246.3 299.07,-249.58 312.89,-252.29"/>
<polygon fill="midnightblue" stroke="midnightblue" points="312.3,-255.74 322.77,-254.16 313.6,-248.86 312.3,-255.74"/>
</g>
<!-- Node10 -->
<g id="node10" class="node">
<title>Node10</title>
<g id="a_node10"><a xlink:href="classrare_1_1components_1_1tabs_1_1library_1_1details_1_1details_1_1_game_details.html#a42083eb39004e2e8253615373b7b6214" target="_top" xlink:title=" ">
<polygon fill="white" stroke="black" points="317.5,-214 317.5,-233 424.5,-233 424.5,-214 317.5,-214"/>
<text text-anchor="middle" x="371" y="-221" font-family="Helvetica,sans-Serif" font-size="10.00">__on_tag_add_result</text>
</a>
</g>
</g>
<!-- Node7&#45;&gt;Node10 -->
<g id="edge11" class="edge">
<title>Node7&#45;&gt;Node10</title>
<path fill="none" stroke="midnightblue" d="M205.21,-207.77C233.11,-210.43 273.26,-214.26 306.95,-217.48"/>
<polygon fill="midnightblue" stroke="midnightblue" points="306.89,-220.99 317.17,-218.46 307.55,-214.02 306.89,-220.99"/>
</g>
<!-- Node11 -->
<g id="node11" class="node">
<title>Node11</title>
<g id="a_node11"><a xlink:href="classrare_1_1components_1_1tabs_1_1library_1_1details_1_1details_1_1_game_details.html#a8e830fc7e80a44be82d86c2234671aa3" target="_top" xlink:title=" ">
<polygon fill="white" stroke="black" points="322,-176 322,-195 420,-195 420,-176 322,-176"/>
<text text-anchor="middle" x="371" y="-183" font-family="Helvetica,sans-Serif" font-size="10.00">__on_tag_changed</text>
</a>
</g>
</g>
<!-- Node7&#45;&gt;Node11 -->
<g id="edge12" class="edge">
<title>Node7&#45;&gt;Node11</title>
<path fill="none" stroke="midnightblue" d="M205.21,-201.23C234.44,-198.44 277.13,-194.37 311.73,-191.06"/>
<polygon fill="midnightblue" stroke="midnightblue" points="312.1,-194.54 321.73,-190.11 311.44,-187.58 312.1,-194.54"/>
</g>
<!-- Node7&#45;&gt;Node12 -->
<g id="edge16" class="edge">
<title>Node7&#45;&gt;Node12</title>
<path fill="none" stroke="midnightblue" d="M194.61,-194.89C226.25,-182.01 283.11,-158.87 323.51,-142.42"/>
<polygon fill="midnightblue" stroke="midnightblue" points="324.94,-145.62 332.88,-138.61 322.3,-139.14 324.94,-145.62"/>
</g>
<!-- Node12&#45;&gt;Node12 -->
<g id="edge17" class="edge">
<title>Node12&#45;&gt;Node12</title>
<path fill="none" stroke="midnightblue" d="M336.15,-138.66C327.74,-148.06 339.36,-157 371,-157 390.28,-157 402.13,-153.68 406.54,-148.96"/>
<polygon fill="midnightblue" stroke="midnightblue" points="410.01,-148.41 405.85,-138.66 403.02,-148.87 410.01,-148.41"/>
</g>
<!-- Node13&#45;&gt;Node1 -->
<g id="edge20" class="edge">
<title>Node13&#45;&gt;Node1</title>
<path fill="none" stroke="midnightblue" d="M160.08,-33.23C146.64,-42.82 121.07,-56.42 105,-74.5 74.77,-108.5 54.21,-158.01 43.7,-185.28"/>
<polygon fill="midnightblue" stroke="midnightblue" points="40.33,-184.29 40.04,-194.88 46.87,-186.78 40.33,-184.29"/>
</g>
<!-- Node13&#45;&gt;Node13 -->
<g id="edge19" class="edge">
<title>Node13&#45;&gt;Node13</title>
<path fill="none" stroke="midnightblue" d="M149.35,-33.26C139.3,-42.07 146.18,-51.5 170,-51.5 185.26,-51.5 193.57,-47.63 194.93,-42.53"/>
<polygon fill="midnightblue" stroke="midnightblue" points="198.02,-40.87 190.65,-33.26 191.66,-43.8 198.02,-40.87"/>
</g>
<!-- Node14 -->
<g id="node14" class="node">
<title>Node14</title>
<g id="a_node14"><a xlink:href="classrare_1_1lgndr_1_1cli_1_1_legendary_c_l_i.html#a94921a35f33d553ff01281b05fa2428d" target="_top" xlink:title=" ">
<polygon fill="white" stroke="black" points="313,-2.5 313,-32.5 429,-32.5 429,-2.5 313,-2.5"/>
<text text-anchor="start" x="321" y="-20.5" font-family="Helvetica,sans-Serif" font-size="10.00">rare.lgndr.cli.Legendary</text>
<text text-anchor="middle" x="371" y="-9.5" font-family="Helvetica,sans-Serif" font-size="10.00">CLI.verify_game</text>
</a>
</g>
</g>
<!-- Node13&#45;&gt;Node14 -->
<g id="edge21" class="edge">
<title>Node13&#45;&gt;Node14</title>
<path fill="none" stroke="midnightblue" d="M205.21,-22.47C232,-21.66 270.09,-20.51 302.91,-19.52"/>
<polygon fill="midnightblue" stroke="midnightblue" points="303.01,-23.02 312.9,-19.22 302.8,-16.02 303.01,-23.02"/>
</g>
<!-- Node14&#45;&gt;Node6 -->
<g id="edge22" class="edge">
<title>Node14&#45;&gt;Node6</title>
<path fill="none" stroke="midnightblue" d="M418.73,-32.58C448,-42.02 485.91,-54.24 516.88,-64.23"/>
<polygon fill="midnightblue" stroke="midnightblue" points="516.08,-67.65 526.67,-67.39 518.23,-60.99 516.08,-67.65"/>
</g>
<!-- Node14&#45;&gt;Node14 -->
<g id="edge25" class="edge">
<title>Node14&#45;&gt;Node14</title>
<path fill="none" stroke="midnightblue" d="M336.15,-32.66C327.74,-42.06 339.36,-51 371,-51 390.28,-51 402.13,-47.68 406.54,-42.96"/>
<polygon fill="midnightblue" stroke="midnightblue" points="410.01,-42.41 405.85,-32.66 403.02,-42.87 410.01,-42.41"/>
</g>
<!-- Node15 -->
<g id="node15" class="node">
<title>Node15</title>
<g id="a_node15"><a xlink:href="classrare_1_1shared_1_1workers_1_1worker_1_1_worker.html#a5d3220537164bdcd6c040b54ef85f656" target="_top" xlink:title=" ">
<polygon fill="white" stroke="black" points="507,-0.5 507,-30.5 642,-30.5 642,-0.5 507,-0.5"/>
<text text-anchor="start" x="515" y="-18.5" font-family="Helvetica,sans-Serif" font-size="10.00">rare.shared.workers.worker.</text>
<text text-anchor="middle" x="574.5" y="-7.5" font-family="Helvetica,sans-Serif" font-size="10.00">Worker.logger</text>
</a>
</g>
</g>
<!-- Node14&#45;&gt;Node15 -->
<g id="edge23" class="edge">
<title>Node14&#45;&gt;Node15</title>
<path fill="none" stroke="midnightblue" d="M429.2,-16.93C450.19,-16.72 474.3,-16.48 496.72,-16.26"/>
<polygon fill="midnightblue" stroke="midnightblue" points="496.93,-19.76 506.89,-16.16 496.86,-12.76 496.93,-19.76"/>
</g>
<!-- Node15&#45;&gt;Node15 -->
<g id="edge24" class="edge">
<title>Node15&#45;&gt;Node15</title>
<path fill="none" stroke="midnightblue" d="M539.3,-30.66C530.81,-40.06 542.54,-49 574.5,-49 593.97,-49 605.94,-45.68 610.39,-40.96"/>
<polygon fill="midnightblue" stroke="midnightblue" points="613.86,-40.4 609.7,-30.66 606.88,-40.87 613.86,-40.4"/>
</g>
</g>
</svg>
