<?xml version="1.0" encoding="UTF-8" standalone="no"?>
<!DOCTYPE svg PUBLIC "-//W3C//DTD SVG 1.1//EN"
 "http://www.w3.org/Graphics/SVG/1.1/DTD/svg11.dtd">
<!-- Generated by graphviz version 2.49.3 (20211027.1534)
 -->
<!-- Title: setText Pages: 1 -->
<svg width="252pt" height="192pt"
 viewBox="0.00 0.00 252.17 192.00" xmlns="http://www.w3.org/2000/svg" xmlns:xlink="http://www.w3.org/1999/xlink">
<g id="graph0" class="graph" transform="scale(1 1) rotate(0) translate(4 188)">
<title>setText</title>
<polygon fill="white" stroke="transparent" points="-4,4 -4,-188 248.17,-188 248.17,4 -4,4"/>
<!-- Node1 -->
<g id="node1" class="node">
<title>Node1</title>
<g id="a_node1"><a xlink:title=" ">
<polygon fill="#bfbfbf" stroke="black" points="194,-62.5 194,-81.5 243,-81.5 243,-62.5 194,-62.5"/>
<text text-anchor="middle" x="218.5" y="-69.5" font-family="Helvetica,sans-Serif" font-size="10.00">setText</text>
</a>
</g>
</g>
<!-- Node1&#45;&gt;Node1 -->
<g id="edge7" class="edge">
<title>Node1&#45;&gt;Node1</title>
<path fill="none" stroke="midnightblue" d="M244.17,-91.03C242.77,-96.13 234.21,-100 218.5,-100 193.97,-100 186.88,-90.57 197.23,-81.76"/>
<polygon fill="midnightblue" stroke="midnightblue" points="247.22,-89.29 239.77,-81.76 240.89,-92.29 247.22,-89.29"/>
</g>
<!-- Node2 -->
<g id="node2" class="node">
<title>Node2</title>
<g id="a_node2"><a xlink:href="classrare_1_1components_1_1tabs_1_1tab__utils_1_1_tab_button_widget.html#aa78134c28498001255dce821de1d6497" target="_top" xlink:title=" ">
<polygon fill="white" stroke="black" points="16.5,-124.5 16.5,-165.5 141.5,-165.5 141.5,-124.5 16.5,-124.5"/>
<text text-anchor="start" x="24.5" y="-153.5" font-family="Helvetica,sans-Serif" font-size="10.00">rare.components.tabs.tab</text>
<text text-anchor="start" x="24.5" y="-142.5" font-family="Helvetica,sans-Serif" font-size="10.00">_utils.TabButtonWidget.</text>
<text text-anchor="middle" x="79" y="-131.5" font-family="Helvetica,sans-Serif" font-size="10.00">__init__</text>
</a>
</g>
</g>
<!-- Node1&#45;&gt;Node2 -->
<g id="edge1" class="edge">
<title>Node1&#45;&gt;Node2</title>
<path fill="none" stroke="midnightblue" d="M198.38,-87.78C187.1,-96.56 172.29,-107.26 158,-115 151.88,-118.32 145.31,-121.45 138.67,-124.34"/>
<polygon fill="midnightblue" stroke="midnightblue" points="200.6,-90.48 206.24,-81.51 196.24,-85 200.6,-90.48"/>
</g>
<!-- Node3 -->
<g id="node3" class="node">
<title>Node3</title>
<g id="a_node3"><a xlink:href="classrare_1_1components_1_1dialogs_1_1install__dialog_1_1_q_data_check_box.html#a66ac18f1cec6258fd5e204fd22349eae" target="_top" xlink:title=" ">
<polygon fill="white" stroke="black" points="0,-57 0,-87 158,-87 158,-57 0,-57"/>
<text text-anchor="start" x="8" y="-75" font-family="Helvetica,sans-Serif" font-size="10.00">rare.components.dialogs.install</text>
<text text-anchor="middle" x="79" y="-64" font-family="Helvetica,sans-Serif" font-size="10.00">_dialog.QDataCheckBox.__init__</text>
</a>
</g>
</g>
<!-- Node1&#45;&gt;Node3 -->
<g id="edge3" class="edge">
<title>Node1&#45;&gt;Node3</title>
<path fill="none" stroke="midnightblue" d="M183.65,-72C175.74,-72 166.98,-72 158.02,-72"/>
<polygon fill="midnightblue" stroke="midnightblue" points="183.86,-75.5 193.86,-72 183.86,-68.5 183.86,-75.5"/>
</g>
<!-- Node4 -->
<g id="node4" class="node">
<title>Node4</title>
<g id="a_node4"><a xlink:href="classrare_1_1utils_1_1extra__widgets_1_1_indicator_line_edit.html#a63a40ae26735345d977dd52233e9bc3c" target="_top" xlink:title=" ">
<polygon fill="white" stroke="black" points="45.5,-0.5 45.5,-19.5 112.5,-19.5 112.5,-0.5 45.5,-0.5"/>
<text text-anchor="middle" x="79" y="-7.5" font-family="Helvetica,sans-Serif" font-size="10.00">setHintText</text>
</a>
</g>
</g>
<!-- Node1&#45;&gt;Node4 -->
<g id="edge5" class="edge">
<title>Node1&#45;&gt;Node4</title>
<path fill="none" stroke="midnightblue" d="M186.94,-58.22C160.98,-46.51 124.38,-30.01 101.43,-19.66"/>
<polygon fill="midnightblue" stroke="midnightblue" points="185.76,-61.53 196.32,-62.45 188.64,-55.15 185.76,-61.53"/>
</g>
<!-- Node2&#45;&gt;Node2 -->
<g id="edge2" class="edge">
<title>Node2&#45;&gt;Node2</title>
<path fill="none" stroke="midnightblue" d="M102.74,-175.86C99.21,-180.7 91.3,-184 79,-184 59.32,-184 50.87,-175.54 53.64,-165.86"/>
<polygon fill="midnightblue" stroke="midnightblue" points="106.22,-176.3 104.36,-165.86 99.31,-175.17 106.22,-176.3"/>
</g>
<!-- Node3&#45;&gt;Node3 -->
<g id="edge4" class="edge">
<title>Node3&#45;&gt;Node3</title>
<path fill="none" stroke="midnightblue" d="M103.52,-97.46C100.48,-102.18 92.3,-105.5 79,-105.5 57.17,-105.5 49.15,-96.56 54.95,-87.16"/>
<polygon fill="midnightblue" stroke="midnightblue" points="107,-96.99 103.05,-87.16 100.01,-97.31 107,-96.99"/>
</g>
<!-- Node4&#45;&gt;Node4 -->
<g id="edge6" class="edge">
<title>Node4&#45;&gt;Node4</title>
<path fill="none" stroke="midnightblue" d="M104.67,-29.03C103.27,-34.13 94.71,-38 79,-38 54.47,-38 47.38,-28.57 57.73,-19.76"/>
<polygon fill="midnightblue" stroke="midnightblue" points="107.72,-27.29 100.27,-19.76 101.39,-30.29 107.72,-27.29"/>
</g>
</g>
</svg>
