<?xml version="1.0" encoding="UTF-8" standalone="no"?>
<!DOCTYPE svg PUBLIC "-//W3C//DTD SVG 1.1//EN"
 "http://www.w3.org/Graphics/SVG/1.1/DTD/svg11.dtd">
<!-- Generated by graphviz version 2.49.3 (20211027.1534)
 -->
<!-- Title: is_non_asset Pages: 1 -->
<svg width="554pt" height="108pt"
 viewBox="0.00 0.00 554.00 107.50" xmlns="http://www.w3.org/2000/svg" xmlns:xlink="http://www.w3.org/1999/xlink">
<g id="graph0" class="graph" transform="scale(1 1) rotate(0) translate(4 103.5)">
<title>is_non_asset</title>
<polygon fill="white" stroke="transparent" points="-4,4 -4,-103.5 550,-103.5 550,4 -4,4"/>
<!-- Node1 -->
<g id="node1" class="node">
<title>Node1</title>
<g id="a_node1"><a xlink:title="Property to report if a Game doesn&#39;t have assets.">
<polygon fill="#bfbfbf" stroke="black" points="472,-28.5 472,-47.5 546,-47.5 546,-28.5 472,-28.5"/>
<text text-anchor="middle" x="509" y="-35.5" font-family="Helvetica,sans-Serif" font-size="10.00">is_non_asset</text>
</a>
</g>
</g>
<!-- Node1&#45;&gt;Node1 -->
<g id="edge9" class="edge">
<title>Node1&#45;&gt;Node1</title>
<path fill="none" stroke="midnightblue" d="M528.26,-57.4C526.97,-62.31 520.55,-66 509,-66 490.52,-66 485.17,-56.57 492.97,-47.76"/>
<polygon fill="midnightblue" stroke="midnightblue" points="531.52,-56.13 525.03,-47.76 524.89,-58.35 531.52,-56.13"/>
</g>
<!-- Node2 -->
<g id="node2" class="node">
<title>Node2</title>
<g id="a_node2"><a xlink:href="classrare_1_1models_1_1game_1_1_rare_game.html#a823ab7286cb07208f430cc54252c82bb" target="_top" xlink:title="Property to report if a game is installed.">
<polygon fill="white" stroke="black" points="371,-56.5 371,-75.5 436,-75.5 436,-56.5 371,-56.5"/>
<text text-anchor="middle" x="403.5" y="-63.5" font-family="Helvetica,sans-Serif" font-size="10.00">is_installed</text>
</a>
</g>
</g>
<!-- Node1&#45;&gt;Node2 -->
<g id="edge1" class="edge">
<title>Node1&#45;&gt;Node2</title>
<path fill="none" stroke="midnightblue" d="M462.74,-50.24C453.79,-52.67 444.58,-55.16 436.2,-57.42"/>
<polygon fill="midnightblue" stroke="midnightblue" points="463.93,-53.55 472.67,-47.56 462.1,-46.79 463.93,-53.55"/>
</g>
<!-- Node6 -->
<g id="node6" class="node">
<title>Node6</title>
<g id="a_node6"><a xlink:href="classrare_1_1models_1_1game_1_1_rare_game.html#a9830be59bfb2ba21c1f2afb0a715f61e" target="_top" xlink:title="Property to report if a Game is an Unreal Engine bundle.">
<polygon fill="white" stroke="black" points="375.5,-0.5 375.5,-19.5 431.5,-19.5 431.5,-0.5 375.5,-0.5"/>
<text text-anchor="middle" x="403.5" y="-7.5" font-family="Helvetica,sans-Serif" font-size="10.00">is_unreal</text>
</a>
</g>
</g>
<!-- Node1&#45;&gt;Node6 -->
<g id="edge10" class="edge">
<title>Node1&#45;&gt;Node6</title>
<path fill="none" stroke="midnightblue" d="M462.98,-25.82C452.25,-22.92 441.13,-19.91 431.5,-17.3"/>
<polygon fill="midnightblue" stroke="midnightblue" points="462.1,-29.21 472.67,-28.44 463.93,-22.45 462.1,-29.21"/>
</g>
<!-- Node2&#45;&gt;Node2 -->
<g id="edge8" class="edge">
<title>Node2&#45;&gt;Node2</title>
<path fill="none" stroke="midnightblue" d="M422.02,-85.4C420.78,-90.31 414.61,-94 403.5,-94 385.73,-94 380.59,-84.57 388.09,-75.76"/>
<polygon fill="midnightblue" stroke="midnightblue" points="425.31,-84.2 418.91,-75.76 418.65,-86.35 425.31,-84.2"/>
</g>
<!-- Node3 -->
<g id="node3" class="node">
<title>Node3</title>
<g id="a_node3"><a xlink:href="classrare_1_1models_1_1game_1_1_rare_game.html#a4431ce8cf18e5dd3414d8882e585bd8d" target="_top" xlink:title=" ">
<polygon fill="white" stroke="black" points="269,-56.5 269,-75.5 335,-75.5 335,-56.5 269,-56.5"/>
<text text-anchor="middle" x="302" y="-63.5" font-family="Helvetica,sans-Serif" font-size="10.00">can_launch</text>
</a>
</g>
</g>
<!-- Node2&#45;&gt;Node3 -->
<g id="edge2" class="edge">
<title>Node2&#45;&gt;Node3</title>
<path fill="none" stroke="midnightblue" d="M360.59,-66C352.07,-66 343.25,-66 335.14,-66"/>
<polygon fill="midnightblue" stroke="midnightblue" points="360.74,-69.5 370.74,-66 360.74,-62.5 360.74,-69.5"/>
</g>
<!-- Node3&#45;&gt;Node3 -->
<g id="edge3" class="edge">
<title>Node3&#45;&gt;Node3</title>
<path fill="none" stroke="midnightblue" d="M318.67,-85.4C317.55,-90.31 312,-94 302,-94 286,-94 281.38,-84.57 288.13,-75.76"/>
<polygon fill="midnightblue" stroke="midnightblue" points="322.02,-84.39 315.87,-75.76 315.29,-86.34 322.02,-84.39"/>
</g>
<!-- Node4 -->
<g id="node4" class="node">
<title>Node4</title>
<g id="a_node4"><a xlink:href="classrare_1_1models_1_1game_1_1_rare_game.html#a85bbc141f37871de7813ebd9ab8b6925" target="_top" xlink:title=" ">
<polygon fill="white" stroke="black" points="188,-56.5 188,-75.5 233,-75.5 233,-56.5 188,-56.5"/>
<text text-anchor="middle" x="210.5" y="-63.5" font-family="Helvetica,sans-Serif" font-size="10.00">launch</text>
</a>
</g>
</g>
<!-- Node3&#45;&gt;Node4 -->
<g id="edge4" class="edge">
<title>Node3&#45;&gt;Node4</title>
<path fill="none" stroke="midnightblue" d="M258.73,-66C249.91,-66 240.96,-66 233.26,-66"/>
<polygon fill="midnightblue" stroke="midnightblue" points="258.94,-69.5 268.94,-66 258.94,-62.5 258.94,-69.5"/>
</g>
<!-- Node4&#45;&gt;Node4 -->
<g id="edge5" class="edge">
<title>Node4&#45;&gt;Node4</title>
<path fill="none" stroke="midnightblue" d="M227.17,-85.4C226.05,-90.31 220.5,-94 210.5,-94 194.5,-94 189.88,-84.57 196.63,-75.76"/>
<polygon fill="midnightblue" stroke="midnightblue" points="230.52,-84.39 224.37,-75.76 223.79,-86.34 230.52,-84.39"/>
</g>
<!-- Node5 -->
<g id="node5" class="node">
<title>Node5</title>
<g id="a_node5"><a xlink:href="classrare_1_1components_1_1dialogs_1_1launch__dialog_1_1_launch_dialog.html#a6c3ea5ef9b9848bf1214c66978e3d59d" target="_top" xlink:title=" ">
<polygon fill="white" stroke="black" points="0,-51 0,-81 152,-81 152,-51 0,-51"/>
<text text-anchor="start" x="8" y="-69" font-family="Helvetica,sans-Serif" font-size="10.00">rare.components.dialogs.launch</text>
<text text-anchor="middle" x="76" y="-58" font-family="Helvetica,sans-Serif" font-size="10.00">_dialog.LaunchDialog.login</text>
</a>
</g>
</g>
<!-- Node4&#45;&gt;Node5 -->
<g id="edge6" class="edge">
<title>Node4&#45;&gt;Node5</title>
<path fill="none" stroke="midnightblue" d="M177.81,-66C169.94,-66 161.17,-66 152.17,-66"/>
<polygon fill="midnightblue" stroke="midnightblue" points="177.92,-69.5 187.92,-66 177.92,-62.5 177.92,-69.5"/>
</g>
<!-- Node5&#45;&gt;Node5 -->
<g id="edge7" class="edge">
<title>Node5&#45;&gt;Node5</title>
<path fill="none" stroke="midnightblue" d="M99.81,-91.46C96.86,-96.18 88.92,-99.5 76,-99.5 54.8,-99.5 47.02,-90.56 52.65,-81.16"/>
<polygon fill="midnightblue" stroke="midnightblue" points="103.29,-90.99 99.35,-81.16 96.3,-91.3 103.29,-90.99"/>
</g>
<!-- Node6&#45;&gt;Node6 -->
<g id="edge11" class="edge">
<title>Node6&#45;&gt;Node6</title>
<path fill="none" stroke="midnightblue" d="M422.02,-29.4C420.78,-34.31 414.61,-38 403.5,-38 385.73,-38 380.59,-28.57 388.09,-19.76"/>
<polygon fill="midnightblue" stroke="midnightblue" points="425.31,-28.2 418.91,-19.76 418.65,-30.35 425.31,-28.2"/>
</g>
</g>
</svg>
