<?xml version="1.0" encoding="UTF-8" standalone="no"?>
<!DOCTYPE svg PUBLIC "-//W3C//DTD SVG 1.1//EN"
 "http://www.w3.org/Graphics/SVG/1.1/DTD/svg11.dtd">
<!-- Generated by graphviz version 2.49.3 (20211027.1534)
 -->
<!-- Title: modify Pages: 1 -->
<svg width="306pt" height="258pt"
 viewBox="0.00 0.00 306.35 258.00" xmlns="http://www.w3.org/2000/svg" xmlns:xlink="http://www.w3.org/1999/xlink">
<g id="graph0" class="graph" transform="scale(1 1) rotate(0) translate(4 254)">
<title>modify</title>
<polygon fill="white" stroke="transparent" points="-4,4 -4,-254 302.35,-254 302.35,4 -4,4"/>
<!-- Node1 -->
<g id="node1" class="node">
<title>Node1</title>
<g id="a_node1"><a xlink:title=" ">
<polygon fill="#bfbfbf" stroke="black" points="8.35,-106 8.35,-125 53.35,-125 53.35,-106 8.35,-106"/>
<text text-anchor="middle" x="30.85" y="-113" font-family="Helvetica,sans-Serif" font-size="10.00">modify</text>
</a>
</g>
</g>
<!-- Node1&#45;&gt;Node1 -->
<g id="edge5" class="edge">
<title>Node1&#45;&gt;Node1</title>
<path fill="none" stroke="midnightblue" d="M8.07,-123.81C-7.12,-133 0.47,-143.5 30.85,-143.5 53.16,-143.5 63.18,-137.84 60.91,-131.19"/>
<polygon fill="midnightblue" stroke="midnightblue" points="63.15,-128.47 53.63,-123.81 58.16,-133.39 63.15,-128.47"/>
</g>
<!-- Node2 -->
<g id="node2" class="node">
<title>Node2</title>
<g id="a_node2"><a xlink:href="classrare_1_1components_1_1tabs_1_1games_1_1integrations_1_1egl__sync__group_1_1_e_g_l_sync_list_item.html#a9c470cc60eae203f55455d0e0d7f5712" target="_top" xlink:title=" ">
<polygon fill="white" stroke="black" points="89.35,-201.5 89.35,-231.5 298.35,-231.5 298.35,-201.5 89.35,-201.5"/>
<text text-anchor="start" x="97.35" y="-219.5" font-family="Helvetica,sans-Serif" font-size="10.00">rare.components.tabs.games.integrations.egl</text>
<text text-anchor="middle" x="193.85" y="-208.5" font-family="Helvetica,sans-Serif" font-size="10.00">_sync_group.EGLSyncListItem.app_name</text>
</a>
</g>
</g>
<!-- Node1&#45;&gt;Node2 -->
<g id="edge1" class="edge">
<title>Node1&#45;&gt;Node2</title>
<path fill="none" stroke="midnightblue" d="M36.18,-125.02C44.19,-141.5 62.95,-175.26 89.35,-192.5 91.81,-194.11 94.37,-195.61 97,-197.01"/>
<polygon fill="midnightblue" stroke="midnightblue" points="95.65,-200.25 106.19,-201.4 98.67,-193.93 95.65,-200.25"/>
</g>
<!-- Node3 -->
<g id="node3" class="node">
<title>Node3</title>
<g id="a_node3"><a xlink:href="classrare_1_1models_1_1base__game_1_1_rare_game_base.html#a5c91214c9c0ce70e64033ac6a3494d76" target="_top" xlink:title=" ">
<polygon fill="white" stroke="black" points="122.85,-134.5 122.85,-164.5 264.85,-164.5 264.85,-134.5 122.85,-134.5"/>
<text text-anchor="start" x="130.85" y="-152.5" font-family="Helvetica,sans-Serif" font-size="10.00">rare.models.base_game.Rare</text>
<text text-anchor="middle" x="193.85" y="-141.5" font-family="Helvetica,sans-Serif" font-size="10.00">GameBase.is_idle</text>
</a>
</g>
</g>
<!-- Node1&#45;&gt;Node3 -->
<g id="edge3" class="edge">
<title>Node1&#45;&gt;Node3</title>
<path fill="none" stroke="midnightblue" d="M53.56,-120.09C69.04,-123.35 90.91,-127.97 112.73,-132.58"/>
<polygon fill="midnightblue" stroke="midnightblue" points="112.22,-136.05 122.73,-134.69 113.67,-129.2 112.22,-136.05"/>
</g>
<!-- Node4 -->
<g id="node4" class="node">
<title>Node4</title>
<g id="a_node4"><a xlink:href="classrare_1_1shared_1_1workers_1_1worker_1_1_worker.html#a9998d928f5b6f30ebb69dc655c0756a8" target="_top" xlink:title=" ">
<polygon fill="white" stroke="black" points="126.35,-67.5 126.35,-97.5 261.35,-97.5 261.35,-67.5 126.35,-67.5"/>
<text text-anchor="start" x="134.35" y="-85.5" font-family="Helvetica,sans-Serif" font-size="10.00">rare.shared.workers.worker.</text>
<text text-anchor="middle" x="193.85" y="-74.5" font-family="Helvetica,sans-Serif" font-size="10.00">Worker.signals</text>
</a>
</g>
</g>
<!-- Node1&#45;&gt;Node4 -->
<g id="edge6" class="edge">
<title>Node1&#45;&gt;Node4</title>
<path fill="none" stroke="midnightblue" d="M53.56,-111.05C69.94,-107.69 93.44,-102.88 116.49,-98.15"/>
<polygon fill="midnightblue" stroke="midnightblue" points="117.23,-101.57 126.32,-96.14 115.82,-94.72 117.23,-101.57"/>
</g>
<!-- Node5 -->
<g id="node5" class="node">
<title>Node5</title>
<g id="a_node5"><a xlink:href="classrare_1_1shared_1_1rare__core_1_1_rare_core.html#a135560fc58fcc2e5cff07ec25c23a06c" target="_top" xlink:title=" ">
<polygon fill="white" stroke="black" points="128.85,-0.5 128.85,-30.5 258.85,-30.5 258.85,-0.5 128.85,-0.5"/>
<text text-anchor="start" x="136.85" y="-18.5" font-family="Helvetica,sans-Serif" font-size="10.00">rare.shared.rare_core.Rare</text>
<text text-anchor="middle" x="193.85" y="-7.5" font-family="Helvetica,sans-Serif" font-size="10.00">Core.signals</text>
</a>
</g>
</g>
<!-- Node1&#45;&gt;Node5 -->
<g id="edge8" class="edge">
<title>Node1&#45;&gt;Node5</title>
<path fill="none" stroke="midnightblue" d="M39.5,-105.87C49.74,-93.52 68.99,-72.05 89.35,-58.5 103.7,-48.94 120.52,-40.85 136.37,-34.36"/>
<polygon fill="midnightblue" stroke="midnightblue" points="138.08,-37.45 146.09,-30.52 135.5,-30.94 138.08,-37.45"/>
</g>
<!-- Node2&#45;&gt;Node2 -->
<g id="edge2" class="edge">
<title>Node2&#45;&gt;Node2</title>
<path fill="none" stroke="midnightblue" d="M165.62,-231.66C158.81,-241.06 168.22,-250 193.85,-250 209.47,-250 219.06,-246.68 222.64,-241.96"/>
<polygon fill="midnightblue" stroke="midnightblue" points="226.11,-241.46 222.08,-231.66 219.12,-241.83 226.11,-241.46"/>
</g>
<!-- Node3&#45;&gt;Node3 -->
<g id="edge4" class="edge">
<title>Node3&#45;&gt;Node3</title>
<path fill="none" stroke="midnightblue" d="M165.62,-164.66C158.81,-174.06 168.22,-183 193.85,-183 209.47,-183 219.06,-179.68 222.64,-174.96"/>
<polygon fill="midnightblue" stroke="midnightblue" points="226.11,-174.46 222.08,-164.66 219.12,-174.83 226.11,-174.46"/>
</g>
<!-- Node4&#45;&gt;Node4 -->
<g id="edge7" class="edge">
<title>Node4&#45;&gt;Node4</title>
<path fill="none" stroke="midnightblue" d="M165.62,-97.66C158.81,-107.06 168.22,-116 193.85,-116 209.47,-116 219.06,-112.68 222.64,-107.96"/>
<polygon fill="midnightblue" stroke="midnightblue" points="226.11,-107.46 222.08,-97.66 219.12,-107.83 226.11,-107.46"/>
</g>
<!-- Node5&#45;&gt;Node5 -->
<g id="edge9" class="edge">
<title>Node5&#45;&gt;Node5</title>
<path fill="none" stroke="midnightblue" d="M165.62,-30.66C158.81,-40.06 168.22,-49 193.85,-49 209.47,-49 219.06,-45.68 222.64,-40.96"/>
<polygon fill="midnightblue" stroke="midnightblue" points="226.11,-40.46 222.08,-30.66 219.12,-40.83 226.11,-40.46"/>
</g>
</g>
</svg>
