<?xml version="1.0" encoding="UTF-8" standalone="no"?>
<!DOCTYPE svg PUBLIC "-//W3C//DTD SVG 1.1//EN"
 "http://www.w3.org/Graphics/SVG/1.1/DTD/svg11.dtd">
<!-- Generated by graphviz version 2.49.3 (20211027.1534)
 -->
<!-- Title: is_installed Pages: 1 -->
<svg width="423pt" height="124pt"
 viewBox="0.00 0.00 423.00 124.00" xmlns="http://www.w3.org/2000/svg" xmlns:xlink="http://www.w3.org/1999/xlink">
<g id="graph0" class="graph" transform="scale(1 1) rotate(0) translate(4 120)">
<title>is_installed</title>
<polygon fill="white" stroke="transparent" points="-4,4 -4,-120 419,-120 419,4 -4,4"/>
<!-- Node1 -->
<g id="node1" class="node">
<title>Node1</title>
<g id="a_node1"><a xlink:title=" ">
<polygon fill="#bfbfbf" stroke="black" points="0,-39 0,-58 65,-58 65,-39 0,-39"/>
<text text-anchor="middle" x="32.5" y="-46" font-family="Helvetica,sans-Serif" font-size="10.00">is_installed</text>
</a>
</g>
</g>
<!-- Node1&#45;&gt;Node1 -->
<g id="edge1" class="edge">
<title>Node1&#45;&gt;Node1</title>
<path fill="none" stroke="midnightblue" d="M11.23,-58.26C0.88,-67.07 7.97,-76.5 32.5,-76.5 48.21,-76.5 56.77,-72.63 58.17,-67.53"/>
<polygon fill="midnightblue" stroke="midnightblue" points="61.22,-65.79 53.77,-58.26 54.89,-68.79 61.22,-65.79"/>
</g>
<!-- Node2 -->
<g id="node2" class="node">
<title>Node2</title>
<g id="a_node2"><a xlink:href="classrare_1_1models_1_1game__slim_1_1_rare_game_base.html#a281d1b65eeb74be3163e7f2c4cf4a90f" target="_top" xlink:title=" ">
<polygon fill="white" stroke="black" points="101,-33.5 101,-63.5 240,-63.5 240,-33.5 101,-33.5"/>
<text text-anchor="start" x="109" y="-51.5" font-family="Helvetica,sans-Serif" font-size="10.00">rare.models.game_slim.Rare</text>
<text text-anchor="middle" x="170.5" y="-40.5" font-family="Helvetica,sans-Serif" font-size="10.00">GameBase.is_third_party</text>
</a>
</g>
</g>
<!-- Node1&#45;&gt;Node2 -->
<g id="edge2" class="edge">
<title>Node1&#45;&gt;Node2</title>
<path fill="none" stroke="midnightblue" d="M65.04,-48.5C72.85,-48.5 81.58,-48.5 90.56,-48.5"/>
<polygon fill="midnightblue" stroke="midnightblue" points="90.78,-52 100.78,-48.5 90.78,-45 90.78,-52"/>
</g>
<!-- Node2&#45;&gt;Node2 -->
<g id="edge5" class="edge">
<title>Node2&#45;&gt;Node2</title>
<path fill="none" stroke="midnightblue" d="M146.45,-63.66C140.65,-73.06 148.67,-82 170.5,-82 183.8,-82 191.98,-78.68 195.02,-73.96"/>
<polygon fill="midnightblue" stroke="midnightblue" points="198.5,-73.49 194.55,-63.66 191.51,-73.81 198.5,-73.49"/>
</g>
<!-- Node3 -->
<g id="node3" class="node">
<title>Node3</title>
<g id="a_node3"><a xlink:href="classrare_1_1models_1_1game__slim_1_1_rare_game_base.html#a278563422a00c7eb39dfc65d0b71f51a" target="_top" xlink:title=" ">
<polygon fill="white" stroke="black" points="276,-67.5 276,-97.5 415,-97.5 415,-67.5 276,-67.5"/>
<text text-anchor="start" x="284" y="-85.5" font-family="Helvetica,sans-Serif" font-size="10.00">rare.models.game_slim.Rare</text>
<text text-anchor="middle" x="345.5" y="-74.5" font-family="Helvetica,sans-Serif" font-size="10.00">GameBase.is_origin</text>
</a>
</g>
</g>
<!-- Node2&#45;&gt;Node3 -->
<g id="edge3" class="edge">
<title>Node2&#45;&gt;Node3</title>
<path fill="none" stroke="midnightblue" d="M240.37,-62.04C248.77,-63.69 257.4,-65.38 265.92,-67.06"/>
<polygon fill="midnightblue" stroke="midnightblue" points="265.38,-70.52 275.87,-69.01 266.73,-63.65 265.38,-70.52"/>
</g>
<!-- Node4 -->
<g id="node4" class="node">
<title>Node4</title>
<g id="a_node4"><a xlink:href="classrare_1_1models_1_1game__slim_1_1_rare_game_base.html#acd0b13e14a42884135db535b9d575942" target="_top" xlink:title=" ">
<polygon fill="white" stroke="black" points="276,-0.5 276,-30.5 415,-30.5 415,-0.5 276,-0.5"/>
<text text-anchor="start" x="284" y="-18.5" font-family="Helvetica,sans-Serif" font-size="10.00">rare.models.game_slim.Rare</text>
<text text-anchor="middle" x="345.5" y="-7.5" font-family="Helvetica,sans-Serif" font-size="10.00">GameBase.is_ubisoft</text>
</a>
</g>
</g>
<!-- Node2&#45;&gt;Node4 -->
<g id="edge6" class="edge">
<title>Node2&#45;&gt;Node4</title>
<path fill="none" stroke="midnightblue" d="M240.37,-35.36C248.77,-33.76 257.4,-32.11 265.92,-30.49"/>
<polygon fill="midnightblue" stroke="midnightblue" points="266.7,-33.9 275.87,-28.59 265.39,-27.03 266.7,-33.9"/>
</g>
<!-- Node3&#45;&gt;Node3 -->
<g id="edge4" class="edge">
<title>Node3&#45;&gt;Node3</title>
<path fill="none" stroke="midnightblue" d="M315.18,-97.66C307.86,-107.06 317.97,-116 345.5,-116 362.27,-116 372.58,-112.68 376.42,-107.96"/>
<polygon fill="midnightblue" stroke="midnightblue" points="379.89,-107.44 375.82,-97.66 372.91,-107.84 379.89,-107.44"/>
</g>
<!-- Node4&#45;&gt;Node4 -->
<g id="edge7" class="edge">
<title>Node4&#45;&gt;Node4</title>
<path fill="none" stroke="midnightblue" d="M315.18,-30.66C307.86,-40.06 317.97,-49 345.5,-49 362.27,-49 372.58,-45.68 376.42,-40.96"/>
<polygon fill="midnightblue" stroke="midnightblue" points="379.89,-40.44 375.82,-30.66 372.91,-40.84 379.89,-40.44"/>
</g>
</g>
</svg>
