<?xml version="1.0" encoding="UTF-8" standalone="no"?>
<!DOCTYPE svg PUBLIC "-//W3C//DTD SVG 1.1//EN"
 "http://www.w3.org/Graphics/SVG/1.1/DTD/svg11.dtd">
<!-- Generated by graphviz version 2.49.3 (20211027.1534)
 -->
<!-- Title: activate Pages: 1 -->
<!--zoomable 764 -->
<svg id="main" version="1.1" xmlns="http://www.w3.org/2000/svg" xmlns:xlink="http://www.w3.org/1999/xlink" xml:space="preserve" onload="init(evt)">
<style type="text/css"><![CDATA[
.edge:hover path { stroke: red; }
.edge:hover polygon { stroke: red; fill: red; }
]]></style>
<script type="text/javascript"><![CDATA[
var edges = document.getElementsByTagName('g');
if (edges && edges.length) {
  for (var i=0;i<edges.length;i++) {
    if (edges[i].id.substr(0,4)=='edge') {
      edges[i].setAttribute('class','edge');
    }
  }
}
]]></script>
        <defs>
                <circle id="rim" cx="0" cy="0" r="7"/>
                <circle id="rim2" cx="0" cy="0" r="3.5"/>
                <g id="zoomPlus">
                        <use xlink:href="#rim" fill="#404040">
                                <set attributeName="fill" to="#808080" begin="zoomplus.mouseover" end="zoomplus.mouseout"/>
                        </use>
                        <path d="M-4,0h8M0,-4v8" fill="none" stroke="white" stroke-width="1.5" pointer-events="none"/>
                </g>
                <g id="zoomMin">
                        <use xlink:href="#rim" fill="#404040">
                                <set attributeName="fill" to="#808080" begin="zoomminus.mouseover" end="zoomminus.mouseout"/>
                        </use>
                        <path d="M-4,0h8" fill="none" stroke="white" stroke-width="1.5" pointer-events="none"/>
                </g>
                <g id="dirArrow">
                        <path fill="none" stroke="white" stroke-width="1.5" d="M0,-3.0v7 M-2.5,-0.5L0,-3.0L2.5,-0.5"/>
                </g>
               <g id="resetDef">
                       <use xlink:href="#rim2" fill="#404040">
                               <set attributeName="fill" to="#808080" begin="reset.mouseover" end="reset.mouseout"/>
                       </use>
               </g>
        </defs>

<script type="text/javascript">
var viewWidth = 1322;
var viewHeight = 764;
var sectionId = 'dynsection-4';
</script>
<script xlink:href="svgpan.js"/>
<svg id="graph" class="graph">
<g id="viewport">
<title>activate</title>
<polygon fill="white" stroke="transparent" points="-4,4 -4,-760 1317.81,-760 1317.81,4 -4,4"/>
<!-- Node1 -->
<g id="node1" class="node">
<title>Node1</title>
<g id="a_node1"><a xlink:title=" ">
<polygon fill="#bfbfbf" stroke="black" points="1.81,-465 1.81,-484 52.81,-484 52.81,-465 1.81,-465"/>
<text text-anchor="middle" x="27.31" y="-472" font-family="Helvetica,sans-Serif" font-size="10.00">activate</text>
</a>
</g>
</g>
<!-- Node1&#45;&gt;Node1 -->
<g id="edge1" class="edge">
<title>Node1&#45;&gt;Node1</title>
<path fill="none" stroke="midnightblue" d="M5.11,-484.26C-5.69,-493.07 1.71,-502.5 27.31,-502.5 44.1,-502.5 53.06,-498.44 54.19,-493.15"/>
<polygon fill="midnightblue" stroke="midnightblue" points="57.26,-491.47 49.5,-484.26 51.06,-494.74 57.26,-491.47"/>
</g>
<!-- Node2 -->
<g id="node2" class="node">
<title>Node2</title>
<g id="a_node2"><a xlink:href="namespacerare_1_1utils_1_1utils.html#a1cb4b41d139090ec167011904697693d" target="_top" xlink:title=" ">
<polygon fill="white" stroke="black" points="343.31,-543 343.31,-562 437.31,-562 437.31,-543 343.31,-543"/>
<text text-anchor="middle" x="390.31" y="-550" font-family="Helvetica,sans-Serif" font-size="10.00">rare.utils.utils.icon</text>
</a>
</g>
</g>
<!-- Node1&#45;&gt;Node2 -->
<g id="edge2" class="edge">
<title>Node1&#45;&gt;Node2</title>
<path fill="none" stroke="midnightblue" d="M33.86,-484.21C43.06,-499.24 63.05,-527.62 88.81,-539.5 167.52,-575.81 270.51,-570.5 333.19,-562.27"/>
<polygon fill="midnightblue" stroke="midnightblue" points="333.85,-565.71 343.28,-560.88 332.89,-558.78 333.85,-565.71"/>
</g>
<!-- Node3 -->
<g id="node3" class="node">
<title>Node3</title>
<g id="a_node3"><a xlink:href="namespacerare_1_1app.html#a37fb442592b19edb2dcdd368df2d2d76" target="_top" xlink:title=" ">
<polygon fill="white" stroke="black" points="135.81,-437 135.81,-456 208.81,-456 208.81,-437 135.81,-437"/>
<text text-anchor="middle" x="172.31" y="-444" font-family="Helvetica,sans-Serif" font-size="10.00">rare.app.start</text>
</a>
</g>
</g>
<!-- Node1&#45;&gt;Node3 -->
<g id="edge4" class="edge">
<title>Node1&#45;&gt;Node3</title>
<path fill="none" stroke="midnightblue" d="M52.89,-469.69C72.8,-465.79 101.41,-460.19 125.52,-455.47"/>
<polygon fill="midnightblue" stroke="midnightblue" points="126.39,-458.86 135.54,-453.5 125.05,-451.99 126.39,-458.86"/>
</g>
<!-- Node4 -->
<g id="node4" class="node">
<title>Node4</title>
<g id="a_node4"><a xlink:href="classrare_1_1components_1_1tabs_1_1settings_1_1widgets_1_1ubisoft__activation_1_1_ubi_link_widget.html#a4f1fc3fc743e9e74ae4d1c677928ef3f" target="_top" xlink:title=" ">
<polygon fill="white" stroke="black" points="130.31,-493 130.31,-512 214.31,-512 214.31,-493 130.31,-493"/>
<text text-anchor="middle" x="172.31" y="-500" font-family="Helvetica,sans-Serif" font-size="10.00">worker_finished</text>
</a>
</g>
</g>
<!-- Node1&#45;&gt;Node4 -->
<g id="edge6" class="edge">
<title>Node1&#45;&gt;Node4</title>
<path fill="none" stroke="midnightblue" d="M52.89,-479.31C71.39,-482.94 97.4,-488.03 120.33,-492.52"/>
<polygon fill="midnightblue" stroke="midnightblue" points="119.79,-495.98 130.28,-494.47 121.13,-489.11 119.79,-495.98"/>
</g>
<!-- Node5 -->
<g id="node5" class="node">
<title>Node5</title>
<g id="a_node5"><a xlink:href="classrare_1_1components_1_1tabs_1_1games_1_1cloud__save__utils_1_1_cloud_save_utils.html#a305cbdbdf1c59aacea30610a562ac40d" target="_top" xlink:title=" ">
<polygon fill="white" stroke="black" points="88.81,-359 88.81,-400 255.81,-400 255.81,-359 88.81,-359"/>
<text text-anchor="start" x="96.81" y="-388" font-family="Helvetica,sans-Serif" font-size="10.00">rare.components.tabs.games.cloud</text>
<text text-anchor="start" x="96.81" y="-377" font-family="Helvetica,sans-Serif" font-size="10.00">_save_utils.CloudSaveUtils.worker</text>
<text text-anchor="middle" x="172.31" y="-366" font-family="Helvetica,sans-Serif" font-size="10.00">_finished</text>
</a>
</g>
</g>
<!-- Node1&#45;&gt;Node5 -->
<g id="edge9" class="edge">
<title>Node1&#45;&gt;Node5</title>
<path fill="none" stroke="midnightblue" d="M40.01,-464.65C51.94,-454.79 71.17,-439.41 88.81,-427.5 100.08,-419.89 112.6,-412.23 124.42,-405.33"/>
<polygon fill="midnightblue" stroke="midnightblue" points="126.37,-408.24 133.28,-400.21 122.87,-402.18 126.37,-408.24"/>
</g>
<!-- Node2&#45;&gt;Node2 -->
<g id="edge3" class="edge">
<title>Node2&#45;&gt;Node2</title>
<path fill="none" stroke="midnightblue" d="M356.98,-562.11C340.24,-570.96 351.35,-580.5 390.31,-580.5 418.92,-580.5 432.51,-575.36 431.08,-569.12"/>
<polygon fill="midnightblue" stroke="midnightblue" points="433.32,-566.42 423.63,-562.11 428.52,-571.51 433.32,-566.42"/>
</g>
<!-- Node3&#45;&gt;Node3 -->
<g id="edge5" class="edge">
<title>Node3&#45;&gt;Node3</title>
<path fill="none" stroke="midnightblue" d="M150.11,-456.26C139.31,-465.07 146.71,-474.5 172.31,-474.5 189.1,-474.5 198.06,-470.44 199.19,-465.15"/>
<polygon fill="midnightblue" stroke="midnightblue" points="202.26,-463.47 194.5,-456.26 196.06,-466.74 202.26,-463.47"/>
</g>
<!-- Node4&#45;&gt;Node2 -->
<g id="edge7" class="edge">
<title>Node4&#45;&gt;Node2</title>
<path fill="none" stroke="midnightblue" d="M214.44,-512.02C249.61,-520.16 300.38,-531.91 338.16,-540.66"/>
<polygon fill="midnightblue" stroke="midnightblue" points="337.42,-544.08 347.96,-542.93 339,-537.26 337.42,-544.08"/>
</g>
<!-- Node4&#45;&gt;Node4 -->
<g id="edge8" class="edge">
<title>Node4&#45;&gt;Node4</title>
<path fill="none" stroke="midnightblue" d="M150.11,-512.26C139.31,-521.07 146.71,-530.5 172.31,-530.5 189.1,-530.5 198.06,-526.44 199.19,-521.15"/>
<polygon fill="midnightblue" stroke="midnightblue" points="202.26,-519.47 194.5,-512.26 196.06,-522.74 202.26,-519.47"/>
</g>
<!-- Node5&#45;&gt;Node5 -->
<g id="edge59" class="edge">
<title>Node5&#45;&gt;Node5</title>
<path fill="none" stroke="midnightblue" d="M145.84,-400.36C142.95,-410.04 151.77,-418.5 172.31,-418.5 185.14,-418.5 193.4,-415.2 197.08,-410.36"/>
<polygon fill="midnightblue" stroke="midnightblue" points="200.55,-410.81 198.77,-400.36 193.65,-409.64 200.55,-410.81"/>
</g>
<!-- Node6 -->
<g id="node6" class="node">
<title>Node6</title>
<g id="a_node6"><a xlink:href="classrare_1_1components_1_1tabs_1_1games_1_1cloud__save__utils_1_1_cloud_save_utils.html#a79020ced32dfb0a8446a3728e2991ef2" target="_top" xlink:title=" ">
<polygon fill="white" stroke="black" points="306.81,-210 306.81,-251 473.81,-251 473.81,-210 306.81,-210"/>
<text text-anchor="start" x="314.81" y="-239" font-family="Helvetica,sans-Serif" font-size="10.00">rare.components.tabs.games.cloud</text>
<text text-anchor="start" x="314.81" y="-228" font-family="Helvetica,sans-Serif" font-size="10.00">_save_utils.CloudSaveUtils.get</text>
<text text-anchor="middle" x="390.31" y="-217" font-family="Helvetica,sans-Serif" font-size="10.00">_latest_saves</text>
</a>
</g>
</g>
<!-- Node5&#45;&gt;Node6 -->
<g id="edge10" class="edge">
<title>Node5&#45;&gt;Node6</title>
<path fill="none" stroke="midnightblue" d="M194.28,-358.78C217.02,-337.04 254.99,-302.71 291.81,-278.5 304.36,-270.25 318.53,-262.48 332.11,-255.7"/>
<polygon fill="midnightblue" stroke="midnightblue" points="333.94,-258.71 341.39,-251.17 330.86,-252.42 333.94,-258.71"/>
</g>
<!-- Node7 -->
<g id="node7" class="node">
<title>Node7</title>
<g id="a_node7"><a xlink:href="classrare_1_1components_1_1tabs_1_1games_1_1game__utils_1_1_game_utils.html#aa5166679a6b1c69dd24d2e6faa34dc7b" target="_top" xlink:title=" ">
<polygon fill="white" stroke="black" points="306.81,-463.5 306.81,-493.5 473.81,-493.5 473.81,-463.5 306.81,-463.5"/>
<text text-anchor="start" x="314.81" y="-481.5" font-family="Helvetica,sans-Serif" font-size="10.00">rare.components.tabs.games.game</text>
<text text-anchor="middle" x="390.31" y="-470.5" font-family="Helvetica,sans-Serif" font-size="10.00">_utils.GameUtils.sync_finished</text>
</a>
</g>
</g>
<!-- Node5&#45;&gt;Node7 -->
<g id="edge12" class="edge">
<title>Node5&#45;&gt;Node7</title>
<path fill="none" stroke="midnightblue" d="M217.43,-400.11C239.7,-410.49 267.16,-423.22 291.81,-434.5 309.62,-442.65 329.3,-451.55 346.29,-459.21"/>
<polygon fill="midnightblue" stroke="midnightblue" points="344.87,-462.4 355.42,-463.32 347.74,-456.02 344.87,-462.4"/>
</g>
<!-- Node26 -->
<g id="node26" class="node">
<title>Node26</title>
<g id="a_node26"><a xlink:href="classrare_1_1components_1_1tabs_1_1games_1_1game__widgets_1_1game__widget_1_1_game_widget.html#aa5166679a6b1c69dd24d2e6faa34dc7b" target="_top" xlink:title=" ">
<polygon fill="white" stroke="black" points="291.81,-366 291.81,-407 488.81,-407 488.81,-366 291.81,-366"/>
<text text-anchor="start" x="299.81" y="-395" font-family="Helvetica,sans-Serif" font-size="10.00">rare.components.tabs.games.game</text>
<text text-anchor="start" x="299.81" y="-384" font-family="Helvetica,sans-Serif" font-size="10.00">_widgets.game_widget.GameWidget.sync</text>
<text text-anchor="middle" x="390.31" y="-373" font-family="Helvetica,sans-Serif" font-size="10.00">_finished</text>
</a>
</g>
</g>
<!-- Node5&#45;&gt;Node26 -->
<g id="edge48" class="edge">
<title>Node5&#45;&gt;Node26</title>
<path fill="none" stroke="midnightblue" d="M255.89,-382.18C264.28,-382.45 272.89,-382.73 281.49,-383.01"/>
<polygon fill="midnightblue" stroke="midnightblue" points="281.47,-386.51 291.58,-383.33 281.7,-379.51 281.47,-386.51"/>
</g>
<!-- Node27 -->
<g id="node27" class="node">
<title>Node27</title>
<g id="a_node27"><a xlink:href="classrare_1_1components_1_1tabs_1_1games_1_1game__widgets_1_1icon__game__widget_1_1_icon_game_widget.html#aa5166679a6b1c69dd24d2e6faa34dc7b" target="_top" xlink:title=" ">
<polygon fill="white" stroke="black" points="297.31,-288 297.31,-329 483.31,-329 483.31,-288 297.31,-288"/>
<text text-anchor="start" x="305.31" y="-317" font-family="Helvetica,sans-Serif" font-size="10.00">rare.components.tabs.games.game</text>
<text text-anchor="start" x="305.31" y="-306" font-family="Helvetica,sans-Serif" font-size="10.00">_widgets.icon_game_widget.IconGame</text>
<text text-anchor="middle" x="390.31" y="-295" font-family="Helvetica,sans-Serif" font-size="10.00">Widget.sync_finished</text>
</a>
</g>
</g>
<!-- Node5&#45;&gt;Node27 -->
<g id="edge50" class="edge">
<title>Node5&#45;&gt;Node27</title>
<path fill="none" stroke="midnightblue" d="M235.78,-358.96C261.19,-350.61 290.72,-340.91 317.05,-332.25"/>
<polygon fill="midnightblue" stroke="midnightblue" points="318.19,-335.56 326.6,-329.11 316,-328.91 318.19,-335.56"/>
</g>
<!-- Node6&#45;&gt;Node6 -->
<g id="edge11" class="edge">
<title>Node6&#45;&gt;Node6</title>
<path fill="none" stroke="midnightblue" d="M350.24,-251.36C345.87,-261.04 359.22,-269.5 390.31,-269.5 409.73,-269.5 422.23,-266.2 427.81,-261.36"/>
<polygon fill="midnightblue" stroke="midnightblue" points="431.28,-261.92 430.37,-251.36 424.5,-260.18 431.28,-261.92"/>
</g>
<!-- Node7&#45;&gt;Node7 -->
<g id="edge47" class="edge">
<title>Node7&#45;&gt;Node7</title>
<path fill="none" stroke="midnightblue" d="M352.31,-493.66C343.15,-503.06 355.82,-512 390.31,-512 411.32,-512 424.23,-508.68 429.04,-503.96"/>
<polygon fill="midnightblue" stroke="midnightblue" points="432.51,-503.38 428.3,-493.66 425.53,-503.89 432.51,-503.38"/>
</g>
<!-- Node8 -->
<g id="node8" class="node">
<title>Node8</title>
<g id="a_node8"><a xlink:href="classlegendary_1_1cli_1_1_legendary_c_l_i.html#aaa446a5a3dd51ddb063bbd7f3fc99bb5" target="_top" xlink:title=" ">
<polygon fill="white" stroke="black" points="524.81,-469 524.81,-488 717.81,-488 717.81,-469 524.81,-469"/>
<text text-anchor="middle" x="621.31" y="-476" font-family="Helvetica,sans-Serif" font-size="10.00">legendary.cli.LegendaryCLI.launch_game</text>
</a>
</g>
</g>
<!-- Node7&#45;&gt;Node8 -->
<g id="edge13" class="edge">
<title>Node7&#45;&gt;Node8</title>
<path fill="none" stroke="midnightblue" d="M473.98,-478.5C487.05,-478.5 500.72,-478.5 514.23,-478.5"/>
<polygon fill="midnightblue" stroke="midnightblue" points="514.52,-482 524.52,-478.5 514.52,-475 514.52,-482"/>
</g>
<!-- Node22 -->
<g id="node22" class="node">
<title>Node22</title>
<g id="a_node22"><a xlink:href="classrare_1_1components_1_1tabs_1_1games_1_1game__utils_1_1_game_utils.html#a6d84f785e188bb4dc5e05413dd1302ad" target="_top" xlink:title=" ">
<polygon fill="white" stroke="black" points="537.81,-602.5 537.81,-632.5 704.81,-632.5 704.81,-602.5 537.81,-602.5"/>
<text text-anchor="start" x="545.81" y="-620.5" font-family="Helvetica,sans-Serif" font-size="10.00">rare.components.tabs.games.game</text>
<text text-anchor="middle" x="621.31" y="-609.5" font-family="Helvetica,sans-Serif" font-size="10.00">_utils.GameUtils.launch_game</text>
</a>
</g>
</g>
<!-- Node7&#45;&gt;Node22 -->
<g id="edge40" class="edge">
<title>Node7&#45;&gt;Node22</title>
<path fill="none" stroke="midnightblue" d="M418.85,-493.51C438.51,-504.35 465.48,-519.49 488.81,-533.5 523.44,-554.31 562.35,-579.38 588.8,-596.69"/>
<polygon fill="midnightblue" stroke="midnightblue" points="586.99,-599.68 597.27,-602.24 590.83,-593.83 586.99,-599.68"/>
</g>
<!-- Node8&#45;&gt;Node8 -->
<g id="edge38" class="edge">
<title>Node8&#45;&gt;Node8</title>
<path fill="none" stroke="midnightblue" d="M586.14,-488.11C568.48,-496.96 580.2,-506.5 621.31,-506.5 652.13,-506.5 666.43,-501.13 664.21,-494.72"/>
<polygon fill="midnightblue" stroke="midnightblue" points="666.35,-491.94 656.47,-488.11 661.8,-497.27 666.35,-491.94"/>
</g>
<!-- Node9 -->
<g id="node9" class="node">
<title>Node9</title>
<g id="a_node9"><a xlink:href="classrare_1_1components_1_1tabs_1_1games_1_1game__utils_1_1_game_utils.html#a7cdf5fdee61d4cb8e8c23deea2daed95" target="_top" xlink:title=" ">
<polygon fill="white" stroke="black" points="770.31,-529.5 770.31,-559.5 937.31,-559.5 937.31,-529.5 770.31,-529.5"/>
<text text-anchor="start" x="778.31" y="-547.5" font-family="Helvetica,sans-Serif" font-size="10.00">rare.components.tabs.games.game</text>
<text text-anchor="middle" x="853.81" y="-536.5" font-family="Helvetica,sans-Serif" font-size="10.00">_utils.GameUtils._launch_origin</text>
</a>
</g>
</g>
<!-- Node8&#45;&gt;Node9 -->
<g id="edge14" class="edge">
<title>Node8&#45;&gt;Node9</title>
<path fill="none" stroke="midnightblue" d="M655.82,-488.1C690.92,-498.15 746.86,-514.16 790.17,-526.57"/>
<polygon fill="midnightblue" stroke="midnightblue" points="789.47,-530 800.05,-529.39 791.4,-523.28 789.47,-530"/>
</g>
<!-- Node10 -->
<g id="node10" class="node">
<title>Node10</title>
<g id="a_node10"><a xlink:href="classlegendary_1_1cli_1_1_legendary_c_l_i.html#a8874ae9686caf8e5f7ada83bf16d3502" target="_top" xlink:title=" ">
<polygon fill="white" stroke="black" points="786.31,-578.5 786.31,-608.5 921.31,-608.5 921.31,-578.5 786.31,-578.5"/>
<text text-anchor="start" x="794.31" y="-596.5" font-family="Helvetica,sans-Serif" font-size="10.00">legendary.cli.LegendaryCLI.</text>
<text text-anchor="middle" x="853.81" y="-585.5" font-family="Helvetica,sans-Serif" font-size="10.00">_launch_origin</text>
</a>
</g>
</g>
<!-- Node8&#45;&gt;Node10 -->
<g id="edge15" class="edge">
<title>Node8&#45;&gt;Node10</title>
<path fill="none" stroke="midnightblue" d="M633.06,-488.05C654.48,-506.56 704.66,-547.46 753.81,-569.5 760.95,-572.71 768.59,-575.52 776.34,-577.98"/>
<polygon fill="midnightblue" stroke="midnightblue" points="775.59,-581.41 786.18,-580.92 777.59,-574.71 775.59,-581.41"/>
</g>
<!-- Node11 -->
<g id="node11" class="node">
<title>Node11</title>
<g id="a_node11"><a xlink:href="classlegendary_1_1cli_1_1_legendary_c_l_i.html#a36b3fa477ce9c95dcbabbe0981b6ce5c" target="_top" xlink:title=" ">
<polygon fill="white" stroke="black" points="786.31,-441.5 786.31,-471.5 921.31,-471.5 921.31,-441.5 786.31,-441.5"/>
<text text-anchor="start" x="794.31" y="-459.5" font-family="Helvetica,sans-Serif" font-size="10.00">legendary.cli.LegendaryCLI.</text>
<text text-anchor="middle" x="853.81" y="-448.5" font-family="Helvetica,sans-Serif" font-size="10.00">_print_json</text>
</a>
</g>
</g>
<!-- Node8&#45;&gt;Node11 -->
<g id="edge16" class="edge">
<title>Node8&#45;&gt;Node11</title>
<path fill="none" stroke="midnightblue" d="M718.06,-469.36C737.36,-467.52 757.42,-465.6 775.98,-463.83"/>
<polygon fill="midnightblue" stroke="midnightblue" points="776.5,-467.3 786.12,-462.86 775.84,-460.33 776.5,-467.3"/>
</g>
<!-- Node12 -->
<g id="node12" class="node">
<title>Node12</title>
<g id="a_node12"><a xlink:href="classlegendary_1_1cli_1_1_legendary_c_l_i.html#a8f1867fc20fc1dd8a0a8d3491b049504" target="_top" xlink:title=" ">
<polygon fill="white" stroke="black" points="994.31,-441.5 994.31,-471.5 1129.31,-471.5 1129.31,-441.5 994.31,-441.5"/>
<text text-anchor="start" x="1002.31" y="-459.5" font-family="Helvetica,sans-Serif" font-size="10.00">legendary.cli.LegendaryCLI.</text>
<text text-anchor="middle" x="1061.81" y="-448.5" font-family="Helvetica,sans-Serif" font-size="10.00">_resolve_aliases</text>
</a>
</g>
</g>
<!-- Node8&#45;&gt;Node12 -->
<g id="edge17" class="edge">
<title>Node8&#45;&gt;Node12</title>
<path fill="none" stroke="midnightblue" d="M642.68,-468.94C668.06,-457.62 713.03,-439.43 753.81,-432.5 841.44,-417.61 865.46,-422.71 953.81,-432.5 967.08,-433.97 981.1,-436.44 994.48,-439.24"/>
<polygon fill="midnightblue" stroke="midnightblue" points="994.04,-442.73 1004.56,-441.44 995.53,-435.89 994.04,-442.73"/>
</g>
<!-- Node13 -->
<g id="node13" class="node">
<title>Node13</title>
<g id="a_node13"><a xlink:href="classlegendary_1_1cli_1_1_legendary_c_l_i.html#af4fbd273910cd54acfef28e15b69d6ef" target="_top" xlink:title=" ">
<polygon fill="white" stroke="black" points="764.81,-288.5 764.81,-318.5 942.81,-318.5 942.81,-288.5 764.81,-288.5"/>
<text text-anchor="start" x="772.81" y="-306.5" font-family="Helvetica,sans-Serif" font-size="10.00">legendary.cli.LegendaryCLI.crossover</text>
<text text-anchor="middle" x="853.81" y="-295.5" font-family="Helvetica,sans-Serif" font-size="10.00">_setup</text>
</a>
</g>
</g>
<!-- Node8&#45;&gt;Node13 -->
<g id="edge18" class="edge">
<title>Node8&#45;&gt;Node13</title>
<path fill="none" stroke="midnightblue" d="M635.03,-468.84C671.07,-441.48 774.51,-362.94 824.75,-324.8"/>
<polygon fill="midnightblue" stroke="midnightblue" points="827.07,-327.44 832.91,-318.6 822.83,-321.86 827.07,-327.44"/>
</g>
<!-- Node20 -->
<g id="node20" class="node">
<title>Node20</title>
<g id="a_node20"><a xlink:href="namespacelegendary_1_1utils_1_1crossover.html#afcb04a9cdcff5e94b0c53b7f92276795" target="_top" xlink:title=" ">
<polygon fill="white" stroke="black" points="1169.81,-395.5 1169.81,-425.5 1313.81,-425.5 1313.81,-395.5 1169.81,-395.5"/>
<text text-anchor="start" x="1177.81" y="-413.5" font-family="Helvetica,sans-Serif" font-size="10.00">legendary.utils.crossover.mac</text>
<text text-anchor="middle" x="1241.81" y="-402.5" font-family="Helvetica,sans-Serif" font-size="10.00">_is_valid_bottle</text>
</a>
</g>
</g>
<!-- Node8&#45;&gt;Node20 -->
<g id="edge39" class="edge">
<title>Node8&#45;&gt;Node20</title>
<path fill="none" stroke="midnightblue" d="M670.54,-488.01C762.86,-504.22 969.93,-530.93 1133.81,-481.5 1165.51,-471.94 1196.44,-449.57 1216.83,-432.48"/>
<polygon fill="midnightblue" stroke="midnightblue" points="1219.34,-434.94 1224.63,-425.76 1214.77,-429.63 1219.34,-434.94"/>
</g>
<!-- Node13&#45;&gt;Node12 -->
<g id="edge19" class="edge">
<title>Node13&#45;&gt;Node12</title>
<path fill="none" stroke="midnightblue" d="M870.58,-318.66C905.83,-352.52 988.06,-431.45 989.81,-432.5 992.59,-434.18 995.5,-435.77 998.5,-437.26"/>
<polygon fill="midnightblue" stroke="midnightblue" points="997.13,-440.48 1007.68,-441.43 1000.03,-434.11 997.13,-440.48"/>
</g>
<!-- Node13&#45;&gt;Node13 -->
<g id="edge22" class="edge">
<title>Node13&#45;&gt;Node13</title>
<path fill="none" stroke="midnightblue" d="M817.56,-318.66C808.82,-328.06 820.9,-337 853.81,-337 873.86,-337 886.18,-333.68 890.76,-328.96"/>
<polygon fill="midnightblue" stroke="midnightblue" points="894.23,-328.39 890.05,-318.66 887.25,-328.88 894.23,-328.39"/>
</g>
<!-- Node14 -->
<g id="node14" class="node">
<title>Node14</title>
<g id="a_node14"><a xlink:href="namespacelegendary_1_1utils_1_1lfs.html#a46950c517bb47a4dbf895890512fcd10" target="_top" xlink:title=" ">
<polygon fill="white" stroke="black" points="1003.81,-134.5 1003.81,-164.5 1119.81,-164.5 1119.81,-134.5 1003.81,-134.5"/>
<text text-anchor="start" x="1011.81" y="-152.5" font-family="Helvetica,sans-Serif" font-size="10.00">legendary.utils.lfs.clean</text>
<text text-anchor="middle" x="1061.81" y="-141.5" font-family="Helvetica,sans-Serif" font-size="10.00">_filename</text>
</a>
</g>
</g>
<!-- Node13&#45;&gt;Node14 -->
<g id="edge20" class="edge">
<title>Node13&#45;&gt;Node14</title>
<path fill="none" stroke="midnightblue" d="M939.22,-288.35C944.45,-285.58 949.38,-282.33 953.81,-278.5 985.46,-251.13 962.39,-223.11 989.81,-191.5 997.21,-182.97 1006.78,-175.71 1016.5,-169.74"/>
<polygon fill="midnightblue" stroke="midnightblue" points="1018.47,-172.65 1025.39,-164.63 1014.98,-166.58 1018.47,-172.65"/>
</g>
<!-- Node15 -->
<g id="node15" class="node">
<title>Node15</title>
<g id="a_node15"><a xlink:href="namespacelegendary_1_1utils_1_1cli.html#a5e8c34d0dce0b665a289cffe6b705fa9" target="_top" xlink:title=" ">
<polygon fill="white" stroke="black" points="1008.81,-67.5 1008.81,-97.5 1114.81,-97.5 1114.81,-67.5 1008.81,-67.5"/>
<text text-anchor="start" x="1016.81" y="-85.5" font-family="Helvetica,sans-Serif" font-size="10.00">legendary.utils.cli.get</text>
<text text-anchor="middle" x="1061.81" y="-74.5" font-family="Helvetica,sans-Serif" font-size="10.00">_boolean_choice</text>
</a>
</g>
</g>
<!-- Node13&#45;&gt;Node15 -->
<g id="edge23" class="edge">
<title>Node13&#45;&gt;Node15</title>
<path fill="none" stroke="midnightblue" d="M941.33,-288.32C945.87,-285.54 950.08,-282.29 953.81,-278.5 1003.07,-228.36 948.22,-181.17 989.81,-124.5 996.16,-115.84 1004.89,-108.65 1014.06,-102.81"/>
<polygon fill="midnightblue" stroke="midnightblue" points="1016.05,-105.69 1022.91,-97.62 1012.52,-99.65 1016.05,-105.69"/>
</g>
<!-- Node16 -->
<g id="node16" class="node">
<title>Node16</title>
<g id="a_node16"><a xlink:href="namespacelegendary_1_1utils_1_1cli.html#a56171997f5fe14d47b31556172fe0044" target="_top" xlink:title=" ">
<polygon fill="white" stroke="black" points="1008.81,-0.5 1008.81,-30.5 1114.81,-30.5 1114.81,-0.5 1008.81,-0.5"/>
<text text-anchor="start" x="1016.81" y="-18.5" font-family="Helvetica,sans-Serif" font-size="10.00">legendary.utils.cli.get</text>
<text text-anchor="middle" x="1061.81" y="-7.5" font-family="Helvetica,sans-Serif" font-size="10.00">_int_choice</text>
</a>
</g>
</g>
<!-- Node13&#45;&gt;Node16 -->
<g id="edge25" class="edge">
<title>Node13&#45;&gt;Node16</title>
<path fill="none" stroke="midnightblue" d="M942.08,-288.32C946.37,-285.54 950.33,-282.29 953.81,-278.5 1021.09,-205.18 933.69,-139.69 989.81,-57.5 995.8,-48.72 1004.3,-41.49 1013.33,-35.67"/>
<polygon fill="midnightblue" stroke="midnightblue" points="1015.26,-38.59 1022.1,-30.5 1011.71,-32.56 1015.26,-38.59"/>
</g>
<!-- Node17 -->
<g id="node17" class="node">
<title>Node17</title>
<g id="a_node17"><a xlink:href="namespacelegendary_1_1utils_1_1crossover.html#ab0581e55936af2c92558b9a8ffdb906b" target="_top" xlink:title=" ">
<polygon fill="white" stroke="black" points="989.81,-268.5 989.81,-298.5 1133.81,-298.5 1133.81,-268.5 989.81,-268.5"/>
<text text-anchor="start" x="997.81" y="-286.5" font-family="Helvetica,sans-Serif" font-size="10.00">legendary.utils.crossover.mac</text>
<text text-anchor="middle" x="1061.81" y="-275.5" font-family="Helvetica,sans-Serif" font-size="10.00">_find_crossover_apps</text>
</a>
</g>
</g>
<!-- Node13&#45;&gt;Node17 -->
<g id="edge27" class="edge">
<title>Node13&#45;&gt;Node17</title>
<path fill="none" stroke="midnightblue" d="M943.06,-294.93C955.06,-293.77 967.32,-292.58 979.19,-291.42"/>
<polygon fill="midnightblue" stroke="midnightblue" points="979.89,-294.87 989.51,-290.42 979.21,-287.91 979.89,-294.87"/>
</g>
<!-- Node18 -->
<g id="node18" class="node">
<title>Node18</title>
<g id="a_node18"><a xlink:href="namespacelegendary_1_1utils_1_1crossover.html#a79316780c8fdab3118397fd892bea306" target="_top" xlink:title=" ">
<polygon fill="white" stroke="black" points="1169.81,-309.5 1169.81,-339.5 1313.81,-339.5 1313.81,-309.5 1169.81,-309.5"/>
<text text-anchor="start" x="1177.81" y="-327.5" font-family="Helvetica,sans-Serif" font-size="10.00">legendary.utils.crossover.mac</text>
<text text-anchor="middle" x="1241.81" y="-316.5" font-family="Helvetica,sans-Serif" font-size="10.00">_get_crossover_version</text>
</a>
</g>
</g>
<!-- Node13&#45;&gt;Node18 -->
<g id="edge35" class="edge">
<title>Node13&#45;&gt;Node18</title>
<path fill="none" stroke="midnightblue" d="M929.5,-318.54C949.04,-321.83 970.14,-324.84 989.81,-326.5 1053.58,-331.89 1069.81,-327.1 1133.81,-326.5 1142.15,-326.42 1150.86,-326.31 1159.56,-326.18"/>
<polygon fill="midnightblue" stroke="midnightblue" points="1159.78,-329.67 1169.73,-326.01 1159.67,-322.68 1159.78,-329.67"/>
</g>
<!-- Node19 -->
<g id="node19" class="node">
<title>Node19</title>
<g id="a_node19"><a xlink:href="namespacelegendary_1_1utils_1_1crossover.html#aa0edbed7fe6c00fdf4885a6d544e3618" target="_top" xlink:title=" ">
<polygon fill="white" stroke="black" points="989.81,-374.5 989.81,-404.5 1133.81,-404.5 1133.81,-374.5 989.81,-374.5"/>
<text text-anchor="start" x="997.81" y="-392.5" font-family="Helvetica,sans-Serif" font-size="10.00">legendary.utils.crossover.mac</text>
<text text-anchor="middle" x="1061.81" y="-381.5" font-family="Helvetica,sans-Serif" font-size="10.00">_get_crossover_bottles</text>
</a>
</g>
</g>
<!-- Node13&#45;&gt;Node19 -->
<g id="edge31" class="edge">
<title>Node13&#45;&gt;Node19</title>
<path fill="none" stroke="midnightblue" d="M891.16,-318.68C925.73,-333.11 977.84,-354.86 1015.18,-370.45"/>
<polygon fill="midnightblue" stroke="midnightblue" points="1014.24,-373.85 1024.81,-374.47 1016.94,-367.39 1014.24,-373.85"/>
</g>
<!-- Node21 -->
<g id="node21" class="node">
<title>Node21</title>
<g id="a_node21"><a xlink:href="namespacelegendary_1_1utils_1_1crossover.html#a1d98ed5dc4f8b67b5c28ed02ccb013dc" target="_top" xlink:title=" ">
<polygon fill="white" stroke="black" points="989.81,-201.5 989.81,-231.5 1133.81,-231.5 1133.81,-201.5 989.81,-201.5"/>
<text text-anchor="start" x="997.81" y="-219.5" font-family="Helvetica,sans-Serif" font-size="10.00">legendary.utils.crossover.mac</text>
<text text-anchor="middle" x="1061.81" y="-208.5" font-family="Helvetica,sans-Serif" font-size="10.00">_is_crossover_running</text>
</a>
</g>
</g>
<!-- Node13&#45;&gt;Node21 -->
<g id="edge36" class="edge">
<title>Node13&#45;&gt;Node21</title>
<path fill="none" stroke="midnightblue" d="M924.56,-288.49C934.52,-285.6 944.53,-282.27 953.81,-278.5 957.68,-276.92 996.51,-254.28 1026.28,-236.81"/>
<polygon fill="midnightblue" stroke="midnightblue" points="1028.34,-239.67 1035.19,-231.58 1024.79,-233.63 1028.34,-239.67"/>
</g>
<!-- Node14&#45;&gt;Node14 -->
<g id="edge21" class="edge">
<title>Node14&#45;&gt;Node14</title>
<path fill="none" stroke="midnightblue" d="M1030.44,-164.66C1022.87,-174.06 1033.33,-183 1061.81,-183 1079.16,-183 1089.82,-179.68 1093.79,-174.96"/>
<polygon fill="midnightblue" stroke="midnightblue" points="1097.26,-174.43 1093.17,-164.66 1090.28,-174.85 1097.26,-174.43"/>
</g>
<!-- Node15&#45;&gt;Node15 -->
<g id="edge24" class="edge">
<title>Node15&#45;&gt;Node15</title>
<path fill="none" stroke="midnightblue" d="M1030.44,-97.66C1022.87,-107.06 1033.33,-116 1061.81,-116 1079.16,-116 1089.82,-112.68 1093.79,-107.96"/>
<polygon fill="midnightblue" stroke="midnightblue" points="1097.26,-107.43 1093.17,-97.66 1090.28,-107.85 1097.26,-107.43"/>
</g>
<!-- Node16&#45;&gt;Node16 -->
<g id="edge26" class="edge">
<title>Node16&#45;&gt;Node16</title>
<path fill="none" stroke="midnightblue" d="M1030.44,-30.66C1022.87,-40.06 1033.33,-49 1061.81,-49 1079.16,-49 1089.82,-45.68 1093.79,-40.96"/>
<polygon fill="midnightblue" stroke="midnightblue" points="1097.26,-40.43 1093.17,-30.66 1090.28,-40.85 1097.26,-40.43"/>
</g>
<!-- Node17&#45;&gt;Node17 -->
<g id="edge28" class="edge">
<title>Node17&#45;&gt;Node17</title>
<path fill="none" stroke="midnightblue" d="M1030.44,-298.66C1022.87,-308.06 1033.33,-317 1061.81,-317 1079.16,-317 1089.82,-313.68 1093.79,-308.96"/>
<polygon fill="midnightblue" stroke="midnightblue" points="1097.26,-308.43 1093.17,-298.66 1090.28,-308.85 1097.26,-308.43"/>
</g>
<!-- Node17&#45;&gt;Node18 -->
<g id="edge29" class="edge">
<title>Node17&#45;&gt;Node18</title>
<path fill="none" stroke="midnightblue" d="M1128.08,-298.53C1140.29,-301.35 1153.15,-304.31 1165.63,-307.18"/>
<polygon fill="midnightblue" stroke="midnightblue" points="1165.01,-310.63 1175.54,-309.47 1166.58,-303.81 1165.01,-310.63"/>
</g>
<!-- Node18&#45;&gt;Node18 -->
<g id="edge30" class="edge">
<title>Node18&#45;&gt;Node18</title>
<path fill="none" stroke="midnightblue" d="M1210.44,-339.66C1202.87,-349.06 1213.33,-358 1241.81,-358 1259.16,-358 1269.82,-354.68 1273.79,-349.96"/>
<polygon fill="midnightblue" stroke="midnightblue" points="1277.26,-349.43 1273.17,-339.66 1270.28,-349.85 1277.26,-349.43"/>
</g>
<!-- Node19&#45;&gt;Node19 -->
<g id="edge32" class="edge">
<title>Node19&#45;&gt;Node19</title>
<path fill="none" stroke="midnightblue" d="M1030.44,-404.66C1022.87,-414.06 1033.33,-423 1061.81,-423 1079.16,-423 1089.82,-419.68 1093.79,-414.96"/>
<polygon fill="midnightblue" stroke="midnightblue" points="1097.26,-414.43 1093.17,-404.66 1090.28,-414.85 1097.26,-414.43"/>
</g>
<!-- Node19&#45;&gt;Node20 -->
<g id="edge33" class="edge">
<title>Node19&#45;&gt;Node20</title>
<path fill="none" stroke="midnightblue" d="M1133.92,-397.89C1142.41,-398.89 1151.13,-399.92 1159.75,-400.94"/>
<polygon fill="midnightblue" stroke="midnightblue" points="1159.46,-404.43 1169.8,-402.12 1160.28,-397.48 1159.46,-404.43"/>
</g>
<!-- Node20&#45;&gt;Node20 -->
<g id="edge34" class="edge">
<title>Node20&#45;&gt;Node20</title>
<path fill="none" stroke="midnightblue" d="M1210.44,-425.66C1202.87,-435.06 1213.33,-444 1241.81,-444 1259.16,-444 1269.82,-440.68 1273.79,-435.96"/>
<polygon fill="midnightblue" stroke="midnightblue" points="1277.26,-435.43 1273.17,-425.66 1270.28,-435.85 1277.26,-435.43"/>
</g>
<!-- Node21&#45;&gt;Node21 -->
<g id="edge37" class="edge">
<title>Node21&#45;&gt;Node21</title>
<path fill="none" stroke="midnightblue" d="M1030.44,-231.66C1022.87,-241.06 1033.33,-250 1061.81,-250 1079.16,-250 1089.82,-246.68 1093.79,-241.96"/>
<polygon fill="midnightblue" stroke="midnightblue" points="1097.26,-241.43 1093.17,-231.66 1090.28,-241.85 1097.26,-241.43"/>
</g>
<!-- Node22&#45;&gt;Node9 -->
<g id="edge43" class="edge">
<title>Node22&#45;&gt;Node9</title>
<path fill="none" stroke="midnightblue" d="M660.22,-602.49C686.3,-592.45 721.87,-579.33 753.81,-569.5 762.05,-566.96 770.74,-564.48 779.41,-562.14"/>
<polygon fill="midnightblue" stroke="midnightblue" points="780.4,-565.5 789.16,-559.54 778.6,-558.73 780.4,-565.5"/>
</g>
<!-- Node22&#45;&gt;Node10 -->
<g id="edge44" class="edge">
<title>Node22&#45;&gt;Node10</title>
<path fill="none" stroke="midnightblue" d="M704.87,-608.9C728.05,-606.49 753.15,-603.88 775.99,-601.5"/>
<polygon fill="midnightblue" stroke="midnightblue" points="776.38,-604.98 785.96,-600.46 775.65,-598.01 776.38,-604.98"/>
</g>
<!-- Node22&#45;&gt;Node22 -->
<g id="edge46" class="edge">
<title>Node22&#45;&gt;Node22</title>
<path fill="none" stroke="midnightblue" d="M581.22,-632.66C571.56,-642.06 584.92,-651 621.31,-651 644.05,-651 657.79,-647.51 662.55,-642.59"/>
<polygon fill="midnightblue" stroke="midnightblue" points="666.02,-642.19 661.39,-632.66 659.07,-643 666.02,-642.19"/>
</g>
<!-- Node23 -->
<g id="node23" class="node">
<title>Node23</title>
<g id="a_node23"><a xlink:href="classrare_1_1components_1_1tabs_1_1games_1_1game__utils_1_1_game_utils.html#a70fca93772b830bb721b371a81c5fee4" target="_top" xlink:title=" ">
<polygon fill="white" stroke="black" points="770.31,-627.5 770.31,-657.5 937.31,-657.5 937.31,-627.5 770.31,-627.5"/>
<text text-anchor="start" x="778.31" y="-645.5" font-family="Helvetica,sans-Serif" font-size="10.00">rare.components.tabs.games.game</text>
<text text-anchor="middle" x="853.81" y="-634.5" font-family="Helvetica,sans-Serif" font-size="10.00">_utils.GameUtils._get_process</text>
</a>
</g>
</g>
<!-- Node22&#45;&gt;Node23 -->
<g id="edge41" class="edge">
<title>Node22&#45;&gt;Node23</title>
<path fill="none" stroke="midnightblue" d="M704.87,-626.45C722.75,-628.39 741.76,-630.46 760,-632.43"/>
<polygon fill="midnightblue" stroke="midnightblue" points="759.72,-635.92 770.04,-633.52 760.48,-628.97 759.72,-635.92"/>
</g>
<!-- Node24 -->
<g id="node24" class="node">
<title>Node24</title>
<g id="a_node24"><a xlink:href="classrare_1_1components_1_1tabs_1_1games_1_1game__utils_1_1_game_utils.html#a3681d90fed5c5591e66e16f21f8bbd53" target="_top" xlink:title=" ">
<polygon fill="white" stroke="black" points="770.31,-725.5 770.31,-755.5 937.31,-755.5 937.31,-725.5 770.31,-725.5"/>
<text text-anchor="start" x="778.31" y="-743.5" font-family="Helvetica,sans-Serif" font-size="10.00">rare.components.tabs.games.game</text>
<text text-anchor="middle" x="853.81" y="-732.5" font-family="Helvetica,sans-Serif" font-size="10.00">_utils.GameUtils._launch_game</text>
</a>
</g>
</g>
<!-- Node22&#45;&gt;Node24 -->
<g id="edge42" class="edge">
<title>Node22&#45;&gt;Node24</title>
<path fill="none" stroke="midnightblue" d="M637.9,-632.68C661.18,-654.5 707.3,-694.52 753.81,-716.5 758.13,-718.54 762.64,-720.42 767.25,-722.15"/>
<polygon fill="midnightblue" stroke="midnightblue" points="766.24,-725.5 776.83,-725.48 768.54,-718.89 766.24,-725.5"/>
</g>
<!-- Node25 -->
<g id="node25" class="node">
<title>Node25</title>
<g id="a_node25"><a xlink:href="classrare_1_1components_1_1tabs_1_1games_1_1game__utils_1_1_game_utils.html#a6ef370be8503a3ae91f5161c66eaf2a6" target="_top" xlink:title=" ">
<polygon fill="white" stroke="black" points="758.31,-676.5 758.31,-706.5 949.31,-706.5 949.31,-676.5 758.31,-676.5"/>
<text text-anchor="start" x="766.31" y="-694.5" font-family="Helvetica,sans-Serif" font-size="10.00">rare.components.tabs.games.game</text>
<text text-anchor="middle" x="853.81" y="-683.5" font-family="Helvetica,sans-Serif" font-size="10.00">_utils.GameUtils._launch_pre_command</text>
</a>
</g>
</g>
<!-- Node22&#45;&gt;Node25 -->
<g id="edge45" class="edge">
<title>Node22&#45;&gt;Node25</title>
<path fill="none" stroke="midnightblue" d="M658.16,-632.53C684.36,-643.17 720.91,-657.3 753.81,-667.5 760.97,-669.72 768.48,-671.86 776.02,-673.9"/>
<polygon fill="midnightblue" stroke="midnightblue" points="775.37,-677.34 785.93,-676.5 777.14,-670.57 775.37,-677.34"/>
</g>
<!-- Node26&#45;&gt;Node26 -->
<g id="edge49" class="edge">
<title>Node26&#45;&gt;Node26</title>
<path fill="none" stroke="midnightblue" d="M350.24,-407.36C345.87,-417.04 359.22,-425.5 390.31,-425.5 409.73,-425.5 422.23,-422.2 427.81,-417.36"/>
<polygon fill="midnightblue" stroke="midnightblue" points="431.28,-417.92 430.37,-407.36 424.5,-416.18 431.28,-417.92"/>
</g>
<!-- Node27&#45;&gt;Node27 -->
<g id="edge58" class="edge">
<title>Node27&#45;&gt;Node27</title>
<path fill="none" stroke="midnightblue" d="M350.24,-329.36C345.87,-339.04 359.22,-347.5 390.31,-347.5 409.73,-347.5 422.23,-344.2 427.81,-339.36"/>
<polygon fill="midnightblue" stroke="midnightblue" points="431.28,-339.92 430.37,-329.36 424.5,-338.18 431.28,-339.92"/>
</g>
<!-- Node28 -->
<g id="node28" class="node">
<title>Node28</title>
<g id="a_node28"><a xlink:href="classrare_1_1components_1_1tabs_1_1games_1_1game__widgets_1_1icon__game__widget_1_1_icon_game_widget.html#ac9598940a0d04d2961aa445b09bc9d50" target="_top" xlink:title=" ">
<polygon fill="white" stroke="black" points="528.31,-288 528.31,-329 714.31,-329 714.31,-288 528.31,-288"/>
<text text-anchor="start" x="536.31" y="-317" font-family="Helvetica,sans-Serif" font-size="10.00">rare.components.tabs.games.game</text>
<text text-anchor="start" x="536.31" y="-306" font-family="Helvetica,sans-Serif" font-size="10.00">_widgets.icon_game_widget.IconGame</text>
<text text-anchor="middle" x="621.31" y="-295" font-family="Helvetica,sans-Serif" font-size="10.00">Widget.leaveEvent</text>
</a>
</g>
</g>
<!-- Node27&#45;&gt;Node28 -->
<g id="edge51" class="edge">
<title>Node27&#45;&gt;Node28</title>
<path fill="none" stroke="midnightblue" d="M483.46,-308.5C494.8,-308.5 506.45,-308.5 517.93,-308.5"/>
<polygon fill="midnightblue" stroke="midnightblue" points="517.97,-312 527.97,-308.5 517.97,-305 517.97,-312"/>
</g>
<!-- Node30 -->
<g id="node30" class="node">
<title>Node30</title>
<g id="a_node30"><a xlink:href="classrare_1_1components_1_1tabs_1_1games_1_1game__widgets_1_1list__game__widget_1_1_list_game_widget.html#ac9598940a0d04d2961aa445b09bc9d50" target="_top" xlink:title=" ">
<polygon fill="white" stroke="black" points="531.81,-210 531.81,-251 710.81,-251 710.81,-210 531.81,-210"/>
<text text-anchor="start" x="539.81" y="-239" font-family="Helvetica,sans-Serif" font-size="10.00">rare.components.tabs.games.game</text>
<text text-anchor="start" x="539.81" y="-228" font-family="Helvetica,sans-Serif" font-size="10.00">_widgets.list_game_widget.ListGame</text>
<text text-anchor="middle" x="621.31" y="-217" font-family="Helvetica,sans-Serif" font-size="10.00">Widget.leaveEvent</text>
</a>
</g>
</g>
<!-- Node27&#45;&gt;Node30 -->
<g id="edge55" class="edge">
<title>Node27&#45;&gt;Node30</title>
<path fill="none" stroke="midnightblue" d="M459.64,-287.96C469.45,-284.87 479.4,-281.66 488.81,-278.5 510.88,-271.08 534.85,-262.49 556.21,-254.64"/>
<polygon fill="midnightblue" stroke="midnightblue" points="557.65,-257.84 565.82,-251.1 555.23,-251.28 557.65,-257.84"/>
</g>
<!-- Node28&#45;&gt;Node28 -->
<g id="edge52" class="edge">
<title>Node28&#45;&gt;Node28</title>
<path fill="none" stroke="midnightblue" d="M579.03,-329.36C574.42,-339.04 588.51,-347.5 621.31,-347.5 641.8,-347.5 654.99,-344.2 660.88,-339.36"/>
<polygon fill="midnightblue" stroke="midnightblue" points="664.35,-339.93 663.58,-329.36 657.59,-338.1 664.35,-339.93"/>
</g>
<!-- Node29 -->
<g id="node29" class="node">
<title>Node29</title>
<g id="a_node29"><a xlink:href="classrare_1_1components_1_1tabs_1_1games_1_1game__widgets_1_1game__widget_1_1_game_widget.html#ae522151c6b7af5e1b83262172bad557f" target="_top" xlink:title=" ">
<polygon fill="white" stroke="black" points="753.81,-210 753.81,-251 953.81,-251 953.81,-210 753.81,-210"/>
<text text-anchor="start" x="761.81" y="-239" font-family="Helvetica,sans-Serif" font-size="10.00">rare.components.tabs.games.game</text>
<text text-anchor="start" x="761.81" y="-228" font-family="Helvetica,sans-Serif" font-size="10.00">_widgets.game_widget.GameWidget.leave</text>
<text text-anchor="middle" x="853.81" y="-217" font-family="Helvetica,sans-Serif" font-size="10.00">EventText</text>
</a>
</g>
</g>
<!-- Node28&#45;&gt;Node29 -->
<g id="edge53" class="edge">
<title>Node28&#45;&gt;Node29</title>
<path fill="none" stroke="midnightblue" d="M688.68,-288C698.47,-284.88 708.41,-281.64 717.81,-278.5 740.41,-270.93 765,-262.31 786.93,-254.47"/>
<polygon fill="midnightblue" stroke="midnightblue" points="788.25,-257.72 796.48,-251.05 785.89,-251.13 788.25,-257.72"/>
</g>
<!-- Node29&#45;&gt;Node29 -->
<g id="edge54" class="edge">
<title>Node29&#45;&gt;Node29</title>
<path fill="none" stroke="midnightblue" d="M815.58,-251.36C811.41,-261.04 824.15,-269.5 853.81,-269.5 872.34,-269.5 884.27,-266.2 889.59,-261.36"/>
<polygon fill="midnightblue" stroke="midnightblue" points="893.06,-261.91 892.03,-251.36 886.26,-260.25 893.06,-261.91"/>
</g>
<!-- Node30&#45;&gt;Node29 -->
<g id="edge57" class="edge">
<title>Node30&#45;&gt;Node29</title>
<path fill="none" stroke="midnightblue" d="M711.09,-230.5C721.77,-230.5 732.78,-230.5 743.7,-230.5"/>
<polygon fill="midnightblue" stroke="midnightblue" points="743.71,-234 753.71,-230.5 743.71,-227 743.71,-234"/>
</g>
<!-- Node30&#45;&gt;Node30 -->
<g id="edge56" class="edge">
<title>Node30&#45;&gt;Node30</title>
<path fill="none" stroke="midnightblue" d="M579.03,-251.36C574.42,-261.04 588.51,-269.5 621.31,-269.5 641.8,-269.5 654.99,-266.2 660.88,-261.36"/>
<polygon fill="midnightblue" stroke="midnightblue" points="664.35,-261.93 663.58,-251.36 657.59,-260.1 664.35,-261.93"/>
</g>
</g>
</svg>
        <g id="navigator" transform="translate(0 0)" fill="#404254">
                <rect fill="#f2f5e9" fill-opacity="0.5" stroke="#606060" stroke-width=".5" x="0" y="0" width="60" height="60"/>
                <use id="zoomplus" xlink:href="#zoomPlus" x="17" y="9" onmousedown="handleZoom(evt,'in')"/>
                <use id="zoomminus" xlink:href="#zoomMin" x="42" y="9" onmousedown="handleZoom(evt,'out')"/>
                <use id="reset" xlink:href="#resetDef" x="30" y="36" onmousedown="handleReset()"/>
                <g id="arrowUp" xlink:href="#dirArrow" transform="translate(30 24)" onmousedown="handlePan(0,-1)">
                  <use xlink:href="#rim" fill="#404040">
                        <set attributeName="fill" to="#808080" begin="arrowUp.mouseover" end="arrowUp.mouseout"/>
                  </use>
                  <path fill="none" stroke="white" stroke-width="1.5" d="M0,-3.0v7 M-2.5,-0.5L0,-3.0L2.5,-0.5"/>
                </g>
                <g id="arrowRight" xlink:href="#dirArrow" transform="rotate(90) translate(36 -43)" onmousedown="handlePan(1,0)">
                  <use xlink:href="#rim" fill="#404040">
                        <set attributeName="fill" to="#808080" begin="arrowRight.mouseover" end="arrowRight.mouseout"/>
                  </use>
                  <path fill="none" stroke="white" stroke-width="1.5" d="M0,-3.0v7 M-2.5,-0.5L0,-3.0L2.5,-0.5"/>
                </g>
                <g id="arrowDown" xlink:href="#dirArrow" transform="rotate(180) translate(-30 -48)" onmousedown="handlePan(0,1)">
                  <use xlink:href="#rim" fill="#404040">
                        <set attributeName="fill" to="#808080" begin="arrowDown.mouseover" end="arrowDown.mouseout"/>
                  </use>
                  <path fill="none" stroke="white" stroke-width="1.5" d="M0,-3.0v7 M-2.5,-0.5L0,-3.0L2.5,-0.5"/>
                </g>
                <g id="arrowLeft" xlink:href="#dirArrow" transform="rotate(270) translate(-36 17)" onmousedown="handlePan(-1,0)">
                  <use xlink:href="#rim" fill="#404040">
                        <set attributeName="fill" to="#808080" begin="arrowLeft.mouseover" end="arrowLeft.mouseout"/>
                  </use>
                  <path fill="none" stroke="white" stroke-width="1.5" d="M0,-3.0v7 M-2.5,-0.5L0,-3.0L2.5,-0.5"/>
                </g>
        </g>
        <svg viewBox="0 0 15 15" width="100%" height="30px" preserveAspectRatio="xMaxYMin meet">
         <g id="arrow_out" transform="scale(0.3 0.3)">
          <a xlink:href="classrare_1_1components_1_1tabs_1_1settings_1_1widgets_1_1ubisoft__activation_1_1_ubi_link_widget_a8f9705707225e3a806138596d5edae0d_cgraph_org.svg" target="_base">
           <rect id="button" ry="5" rx="5" y="6" x="6" height="38" width="38"
                fill="#f2f5e9" fill-opacity="0.5" stroke="#606060" stroke-width="1.0"/>
           <path id="arrow"
             d="M 11.500037,31.436501 C 11.940474,20.09759 22.043105,11.32322 32.158766,21.979434 L 37.068811,17.246167 C 37.068811,17.246167 37.088388,32 37.088388,32 L 22.160133,31.978069 C 22.160133,31.978069 26.997745,27.140456 26.997745,27.140456 C 18.528582,18.264221 13.291696,25.230495 11.500037,31.436501 z"
             style="fill:#404040;"/>
          </a>
         </g>
        </svg>
</svg>
