<?xml version="1.0" encoding="UTF-8" standalone="no"?>
<!DOCTYPE svg PUBLIC "-//W3C//DTD SVG 1.1//EN"
 "http://www.w3.org/Graphics/SVG/1.1/DTD/svg11.dtd">
<!-- Generated by graphviz version 2.49.3 (20211027.1534)
 -->
<!-- Title: origin_games Pages: 1 -->
<svg width="195pt" height="46pt"
 viewBox="0.00 0.00 195.00 46.00" xmlns="http://www.w3.org/2000/svg" xmlns:xlink="http://www.w3.org/1999/xlink">
<g id="graph0" class="graph" transform="scale(1 1) rotate(0) translate(4 42)">
<title>origin_games</title>
<polygon fill="white" stroke="transparent" points="-4,4 -4,-42 191,-42 191,4 -4,4"/>
<!-- Node1 -->
<g id="node1" class="node">
<title>Node1</title>
<g id="a_node1"><a xlink:title=" ">
<polygon fill="#bfbfbf" stroke="black" points="113,-0.5 113,-19.5 187,-19.5 187,-0.5 113,-0.5"/>
<text text-anchor="middle" x="150" y="-7.5" font-family="Helvetica,sans-Serif" font-size="10.00">origin_games</text>
</a>
</g>
</g>
<!-- Node1&#45;&gt;Node1 -->
<g id="edge1" class="edge">
<title>Node1&#45;&gt;Node1</title>
<path fill="none" stroke="midnightblue" d="M170.37,-29.4C169.01,-34.31 162.22,-38 150,-38 130.45,-38 124.8,-28.57 133.05,-19.76"/>
<polygon fill="midnightblue" stroke="midnightblue" points="173.59,-28.01 166.95,-19.76 166.99,-30.35 173.59,-28.01"/>
</g>
<!-- Node2 -->
<g id="node2" class="node">
<title>Node2</title>
<g id="a_node2"><a xlink:href="classrare_1_1shared_1_1rare__core_1_1_rare_core.html#af29ac67bc30fc5530252b2a234b84188" target="_top" xlink:title=" ">
<polygon fill="white" stroke="black" points="0,-0.5 0,-19.5 77,-19.5 77,-0.5 0,-0.5"/>
<text text-anchor="middle" x="38.5" y="-7.5" font-family="Helvetica,sans-Serif" font-size="10.00">resolve_origin</text>
</a>
</g>
</g>
<!-- Node1&#45;&gt;Node2 -->
<g id="edge2" class="edge">
<title>Node1&#45;&gt;Node2</title>
<path fill="none" stroke="midnightblue" d="M102.65,-10C94.13,-10 85.34,-10 77.12,-10"/>
<polygon fill="midnightblue" stroke="midnightblue" points="102.84,-13.5 112.84,-10 102.84,-6.5 102.84,-13.5"/>
</g>
<!-- Node2&#45;&gt;Node2 -->
<g id="edge3" class="edge">
<title>Node2&#45;&gt;Node2</title>
<path fill="none" stroke="midnightblue" d="M58.87,-29.4C57.51,-34.31 50.72,-38 38.5,-38 18.95,-38 13.3,-28.57 21.55,-19.76"/>
<polygon fill="midnightblue" stroke="midnightblue" points="62.09,-28.01 55.45,-19.76 55.49,-30.35 62.09,-28.01"/>
</g>
</g>
</svg>
