<?xml version="1.0" encoding="UTF-8" standalone="no"?>
<!DOCTYPE svg PUBLIC "-//W3C//DTD SVG 1.1//EN"
 "http://www.w3.org/Graphics/SVG/1.1/DTD/svg11.dtd">
<!-- Generated by graphviz version 2.49.3 (20211027.1534)
 -->
<!-- Title: LegendarySettings Pages: 1 -->
<svg width="210pt" height="507pt"
 viewBox="0.00 0.00 209.50 507.00" xmlns="http://www.w3.org/2000/svg" xmlns:xlink="http://www.w3.org/1999/xlink">
<g id="graph0" class="graph" transform="scale(1 1) rotate(0) translate(4 503)">
<title>LegendarySettings</title>
<polygon fill="white" stroke="transparent" points="-4,4 -4,-503 205.5,-503 205.5,4 -4,4"/>
<!-- Node1 -->
<g id="node1" class="node">
<title>Node1</title>
<g id="a_node1"><a xlink:title=" ">
<polygon fill="#bfbfbf" stroke="black" points="24,-0.5 24,-189.5 140,-189.5 140,-0.5 24,-0.5"/>
<text text-anchor="middle" x="82" y="-177.5" font-family="Helvetica,sans-Serif" font-size="10.00">LegendarySettings</text>
<polyline fill="none" stroke="black" points="24,-170.5 140,-170.5 "/>
<text text-anchor="start" x="32" y="-158.5" font-family="Helvetica,sans-Serif" font-size="10.00">+ settings</text>
<text text-anchor="start" x="32" y="-147.5" font-family="Helvetica,sans-Serif" font-size="10.00">+ core</text>
<text text-anchor="start" x="32" y="-136.5" font-family="Helvetica,sans-Serif" font-size="10.00">+ mac_install_dir</text>
<text text-anchor="start" x="32" y="-125.5" font-family="Helvetica,sans-Serif" font-size="10.00">+ install_dir</text>
<text text-anchor="start" x="32" y="-114.5" font-family="Helvetica,sans-Serif" font-size="10.00">+ locale_edit</text>
<polyline fill="none" stroke="black" points="24,-107.5 140,-107.5 "/>
<text text-anchor="start" x="32" y="-95.5" font-family="Helvetica,sans-Serif" font-size="10.00">+ __init__()</text>
<text text-anchor="start" x="32" y="-84.5" font-family="Helvetica,sans-Serif" font-size="10.00">+ refresh_metadata()</text>
<text text-anchor="start" x="32" y="-73.5" font-family="Helvetica,sans-Serif" font-size="10.00">+ locale_save_cb()</text>
<text text-anchor="start" x="32" y="-62.5" font-family="Helvetica,sans-Serif" font-size="10.00">+ max_worker_save()</text>
<text text-anchor="start" x="32" y="-51.5" font-family="Helvetica,sans-Serif" font-size="10.00">+ max_memory_save()</text>
<text text-anchor="start" x="32" y="-40.5" font-family="Helvetica,sans-Serif" font-size="10.00">+ preferred_cdn_save()</text>
<text text-anchor="start" x="32" y="-29.5" font-family="Helvetica,sans-Serif" font-size="10.00">+ disable_https_save()</text>
<text text-anchor="start" x="32" y="-18.5" font-family="Helvetica,sans-Serif" font-size="10.00">+ cleanup()</text>
<text text-anchor="start" x="32" y="-7.5" font-family="Helvetica,sans-Serif" font-size="10.00">+ locale_edit_cb()</text>
</a>
</g>
</g>
<!-- Node2 -->
<g id="node2" class="node">
<title>Node2</title>
<g id="a_node2"><a xlink:title=" ">
<polygon fill="white" stroke="#bfbfbf" points="0,-287 0,-344 54,-344 54,-287 0,-287"/>
<text text-anchor="middle" x="27" y="-332" font-family="Helvetica,sans-Serif" font-size="10.00">QWidget</text>
<polyline fill="none" stroke="#bfbfbf" points="0,-325 54,-325 "/>
<text text-anchor="middle" x="27" y="-313" font-family="Helvetica,sans-Serif" font-size="10.00"> </text>
<polyline fill="none" stroke="#bfbfbf" points="0,-306 54,-306 "/>
<text text-anchor="middle" x="27" y="-294" font-family="Helvetica,sans-Serif" font-size="10.00"> </text>
</a>
</g>
</g>
<!-- Node2&#45;&gt;Node1 -->
<g id="edge1" class="edge">
<title>Node2&#45;&gt;Node1</title>
<path fill="none" stroke="midnightblue" d="M36.43,-277.04C42.49,-252.94 50.66,-220.49 58.41,-189.71"/>
<polygon fill="none" stroke="midnightblue" points="33.01,-276.27 33.97,-286.83 39.8,-277.98 33.01,-276.27"/>
</g>
<!-- Node3 -->
<g id="node3" class="node">
<title>Node3</title>
<g id="a_node3"><a xlink:href="classrare_1_1ui_1_1components_1_1tabs_1_1settings_1_1legendary_1_1_ui___legendary_settings.html" target="_top" xlink:title=" ">
<polygon fill="white" stroke="black" points="72.5,-226.5 72.5,-404.5 201.5,-404.5 201.5,-226.5 72.5,-226.5"/>
<text text-anchor="middle" x="137" y="-392.5" font-family="Helvetica,sans-Serif" font-size="10.00">Ui_LegendarySettings</text>
<polyline fill="none" stroke="black" points="72.5,-385.5 201.5,-385.5 "/>
<text text-anchor="start" x="80.5" y="-373.5" font-family="Helvetica,sans-Serif" font-size="10.00">+ legendary_layout</text>
<text text-anchor="start" x="80.5" y="-362.5" font-family="Helvetica,sans-Serif" font-size="10.00">+ left_layout</text>
<text text-anchor="start" x="80.5" y="-351.5" font-family="Helvetica,sans-Serif" font-size="10.00">+ install_dir_group</text>
<text text-anchor="start" x="80.5" y="-340.5" font-family="Helvetica,sans-Serif" font-size="10.00">+ install_dir_layout</text>
<text text-anchor="start" x="80.5" y="-329.5" font-family="Helvetica,sans-Serif" font-size="10.00">+ download_group</text>
<text text-anchor="start" x="80.5" y="-318.5" font-family="Helvetica,sans-Serif" font-size="10.00">+ download_layout</text>
<text text-anchor="start" x="80.5" y="-307.5" font-family="Helvetica,sans-Serif" font-size="10.00">+ max_workers_label</text>
<text text-anchor="start" x="80.5" y="-296.5" font-family="Helvetica,sans-Serif" font-size="10.00">+ max_workers_layout</text>
<text text-anchor="start" x="80.5" y="-285.5" font-family="Helvetica,sans-Serif" font-size="10.00">+ max_worker_spin</text>
<text text-anchor="start" x="80.5" y="-274.5" font-family="Helvetica,sans-Serif" font-size="10.00">+ max_workers_info_label</text>
<text text-anchor="start" x="80.5" y="-263.5" font-family="Helvetica,sans-Serif" font-size="10.00">and 24 more...</text>
<polyline fill="none" stroke="black" points="72.5,-256.5 201.5,-256.5 "/>
<text text-anchor="start" x="80.5" y="-244.5" font-family="Helvetica,sans-Serif" font-size="10.00">+ setupUi()</text>
<text text-anchor="start" x="80.5" y="-233.5" font-family="Helvetica,sans-Serif" font-size="10.00">+ retranslateUi()</text>
</a>
</g>
</g>
<!-- Node3&#45;&gt;Node1 -->
<g id="edge2" class="edge">
<title>Node3&#45;&gt;Node1</title>
<path fill="none" stroke="midnightblue" d="M112.28,-216.28C110.04,-207.39 107.78,-198.41 105.55,-189.57"/>
<polygon fill="none" stroke="midnightblue" points="108.95,-217.41 114.79,-226.26 115.74,-215.71 108.95,-217.41"/>
</g>
<!-- Node4 -->
<g id="node4" class="node">
<title>Node4</title>
<g id="a_node4"><a xlink:title=" ">
<polygon fill="white" stroke="#bfbfbf" points="115.5,-441.5 115.5,-498.5 158.5,-498.5 158.5,-441.5 115.5,-441.5"/>
<text text-anchor="middle" x="137" y="-486.5" font-family="Helvetica,sans-Serif" font-size="10.00">object</text>
<polyline fill="none" stroke="#bfbfbf" points="115.5,-479.5 158.5,-479.5 "/>
<text text-anchor="middle" x="137" y="-467.5" font-family="Helvetica,sans-Serif" font-size="10.00"> </text>
<polyline fill="none" stroke="#bfbfbf" points="115.5,-460.5 158.5,-460.5 "/>
<text text-anchor="middle" x="137" y="-448.5" font-family="Helvetica,sans-Serif" font-size="10.00"> </text>
</a>
</g>
</g>
<!-- Node4&#45;&gt;Node3 -->
<g id="edge3" class="edge">
<title>Node4&#45;&gt;Node3</title>
<path fill="none" stroke="midnightblue" d="M137,-431.37C137,-423.09 137,-413.98 137,-404.62"/>
<polygon fill="none" stroke="midnightblue" points="133.5,-431.38 137,-441.38 140.5,-431.38 133.5,-431.38"/>
</g>
</g>
</svg>
