<?xml version="1.0" encoding="UTF-8" standalone="no"?>
<!DOCTYPE svg PUBLIC "-//W3C//DTD SVG 1.1//EN"
 "http://www.w3.org/Graphics/SVG/1.1/DTD/svg11.dtd">
<!-- Generated by graphviz version 2.49.3 (20211027.1534)
 -->
<!-- Title: compat_tool_enabled Pages: 1 -->
<svg width="351pt" height="57pt"
 viewBox="0.00 0.00 351.00 57.00" xmlns="http://www.w3.org/2000/svg" xmlns:xlink="http://www.w3.org/1999/xlink">
<g id="graph0" class="graph" transform="scale(1 1) rotate(0) translate(4 53)">
<title>compat_tool_enabled</title>
<polygon fill="white" stroke="transparent" points="-4,4 -4,-53 347,-53 347,4 -4,4"/>
<!-- Node1 -->
<g id="node1" class="node">
<title>Node1</title>
<g id="a_node1"><a xlink:title=" ">
<polygon fill="#bfbfbf" stroke="black" points="0,-6 0,-25 109,-25 109,-6 0,-6"/>
<text text-anchor="middle" x="54.5" y="-13" font-family="Helvetica,sans-Serif" font-size="10.00">compat_tool_enabled</text>
</a>
</g>
</g>
<!-- Node1&#45;&gt;Node1 -->
<g id="edge3" class="edge">
<title>Node1&#45;&gt;Node1</title>
<path fill="none" stroke="midnightblue" d="M25.52,-25.26C11.43,-34.07 21.09,-43.5 54.5,-43.5 77.47,-43.5 89.22,-39.04 89.73,-33.39"/>
<polygon fill="midnightblue" stroke="midnightblue" points="92.35,-31.05 83.48,-25.26 86.8,-35.32 92.35,-31.05"/>
</g>
<!-- Node2 -->
<g id="node2" class="node">
<title>Node2</title>
<g id="a_node2"><a xlink:href="classrare_1_1components_1_1tabs_1_1integrations_1_1egl__sync__group_1_1_e_g_l_sync_list_item.html#a9c470cc60eae203f55455d0e0d7f5712" target="_top" xlink:title=" ">
<polygon fill="white" stroke="black" points="145,-0.5 145,-30.5 343,-30.5 343,-0.5 145,-0.5"/>
<text text-anchor="start" x="153" y="-18.5" font-family="Helvetica,sans-Serif" font-size="10.00">rare.components.tabs.integrations.egl</text>
<text text-anchor="middle" x="244" y="-7.5" font-family="Helvetica,sans-Serif" font-size="10.00">_sync_group.EGLSyncListItem.app_name</text>
</a>
</g>
</g>
<!-- Node1&#45;&gt;Node2 -->
<g id="edge1" class="edge">
<title>Node1&#45;&gt;Node2</title>
<path fill="none" stroke="midnightblue" d="M109.23,-15.5C117.41,-15.5 126.08,-15.5 134.94,-15.5"/>
<polygon fill="midnightblue" stroke="midnightblue" points="134.99,-19 144.99,-15.5 134.99,-12 134.99,-19"/>
</g>
<!-- Node2&#45;&gt;Node2 -->
<g id="edge2" class="edge">
<title>Node2&#45;&gt;Node2</title>
<path fill="none" stroke="midnightblue" d="M211.24,-30.66C203.34,-40.06 214.26,-49 244,-49 262.12,-49 273.26,-45.68 277.41,-40.96"/>
<polygon fill="midnightblue" stroke="midnightblue" points="280.88,-40.42 276.76,-30.66 273.89,-40.86 280.88,-40.42"/>
</g>
</g>
</svg>
