<?xml version="1.0" encoding="UTF-8" standalone="no"?>
<!DOCTYPE svg PUBLIC "-//W3C//DTD SVG 1.1//EN"
 "http://www.w3.org/Graphics/SVG/1.1/DTD/svg11.dtd">
<!-- Generated by graphviz version 2.49.3 (20211027.1534)
 -->
<!-- Title: insertWidget Pages: 1 -->
<svg width="199pt" height="102pt"
 viewBox="0.00 0.00 199.00 102.00" xmlns="http://www.w3.org/2000/svg" xmlns:xlink="http://www.w3.org/1999/xlink">
<g id="graph0" class="graph" transform="scale(1 1) rotate(0) translate(4 98)">
<title>insertWidget</title>
<polygon fill="white" stroke="transparent" points="-4,4 -4,-98 195,-98 195,4 -4,4"/>
<!-- Node1 -->
<g id="node1" class="node">
<title>Node1</title>
<g id="a_node1"><a xlink:title=" ">
<polygon fill="#bfbfbf" stroke="black" points="120,-28.5 120,-47.5 191,-47.5 191,-28.5 120,-28.5"/>
<text text-anchor="middle" x="155.5" y="-35.5" font-family="Helvetica,sans-Serif" font-size="10.00">insertWidget</text>
</a>
</g>
</g>
<!-- Node1&#45;&gt;Node1 -->
<g id="edge5" class="edge">
<title>Node1&#45;&gt;Node1</title>
<path fill="none" stroke="midnightblue" d="M176.24,-57.4C174.85,-62.31 167.94,-66 155.5,-66 135.59,-66 129.84,-56.57 138.24,-47.76"/>
<polygon fill="midnightblue" stroke="midnightblue" points="179.45,-55.98 172.76,-47.76 172.86,-58.35 179.45,-55.98"/>
</g>
<!-- Node2 -->
<g id="node2" class="node">
<title>Node2</title>
<g id="a_node2"><a xlink:href="classrare_1_1components_1_1tabs_1_1settings_1_1widgets_1_1wrappers_1_1_wrapper_container.html#aeeeb35fae7255f3bc84c878dbe33630e" target="_top" xlink:title=" ">
<polygon fill="white" stroke="black" points="0,-56.5 0,-75.5 84,-75.5 84,-56.5 0,-56.5"/>
<text text-anchor="middle" x="42" y="-63.5" font-family="Helvetica,sans-Serif" font-size="10.00">dragMoveEvent</text>
</a>
</g>
</g>
<!-- Node1&#45;&gt;Node2 -->
<g id="edge1" class="edge">
<title>Node1&#45;&gt;Node2</title>
<path fill="none" stroke="midnightblue" d="M110.07,-49.16C100.49,-51.56 90.45,-54.08 81.14,-56.42"/>
<polygon fill="midnightblue" stroke="midnightblue" points="110.99,-52.54 119.83,-46.71 109.28,-45.75 110.99,-52.54"/>
</g>
<!-- Node3 -->
<g id="node3" class="node">
<title>Node3</title>
<g id="a_node3"><a xlink:href="classrare_1_1components_1_1tabs_1_1settings_1_1widgets_1_1wrappers_1_1_wrapper_container.html#a635f7652b6a8b627b7448d53603de00a" target="_top" xlink:title=" ">
<polygon fill="white" stroke="black" points="12,-0.5 12,-19.5 72,-19.5 72,-0.5 12,-0.5"/>
<text text-anchor="middle" x="42" y="-7.5" font-family="Helvetica,sans-Serif" font-size="10.00">dropEvent</text>
</a>
</g>
</g>
<!-- Node1&#45;&gt;Node3 -->
<g id="edge3" class="edge">
<title>Node1&#45;&gt;Node3</title>
<path fill="none" stroke="midnightblue" d="M109.84,-26.79C97.11,-23.59 83.56,-20.19 72.02,-17.29"/>
<polygon fill="midnightblue" stroke="midnightblue" points="109.28,-30.25 119.83,-29.29 110.99,-23.46 109.28,-30.25"/>
</g>
<!-- Node2&#45;&gt;Node2 -->
<g id="edge2" class="edge">
<title>Node2&#45;&gt;Node2</title>
<path fill="none" stroke="midnightblue" d="M62.74,-85.4C61.35,-90.31 54.44,-94 42,-94 22.09,-94 16.34,-84.57 24.74,-75.76"/>
<polygon fill="midnightblue" stroke="midnightblue" points="65.95,-83.98 59.26,-75.76 59.36,-86.35 65.95,-83.98"/>
</g>
<!-- Node3&#45;&gt;Node3 -->
<g id="edge4" class="edge">
<title>Node3&#45;&gt;Node3</title>
<path fill="none" stroke="midnightblue" d="M62.74,-29.4C61.35,-34.31 54.44,-38 42,-38 22.09,-38 16.34,-28.57 24.74,-19.76"/>
<polygon fill="midnightblue" stroke="midnightblue" points="65.95,-27.98 59.26,-19.76 59.36,-30.35 65.95,-27.98"/>
</g>
</g>
</svg>
