<?xml version="1.0" encoding="UTF-8" standalone="no"?>
<!DOCTYPE svg PUBLIC "-//W3C//DTD SVG 1.1//EN"
 "http://www.w3.org/Graphics/SVG/1.1/DTD/svg11.dtd">
<!-- Generated by graphviz version 2.49.3 (20211027.1534)
 -->
<!-- Title: slideInNext Pages: 1 -->
<svg width="465pt" height="114pt"
 viewBox="0.00 0.00 465.00 113.50" xmlns="http://www.w3.org/2000/svg" xmlns:xlink="http://www.w3.org/1999/xlink">
<g id="graph0" class="graph" transform="scale(1 1) rotate(0) translate(4 109.5)">
<title>slideInNext</title>
<polygon fill="white" stroke="transparent" points="-4,4 -4,-109.5 461,-109.5 461,4 -4,4"/>
<!-- Node1 -->
<g id="node1" class="node">
<title>Node1</title>
<g id="a_node1"><a xlink:title=" ">
<polygon fill="#bfbfbf" stroke="black" points="0,-34.5 0,-53.5 65,-53.5 65,-34.5 0,-34.5"/>
<text text-anchor="middle" x="32.5" y="-41.5" font-family="Helvetica,sans-Serif" font-size="10.00">slideInNext</text>
</a>
</g>
</g>
<!-- Node1&#45;&gt;Node1 -->
<g id="edge10" class="edge">
<title>Node1&#45;&gt;Node1</title>
<path fill="none" stroke="midnightblue" d="M16.78,-53.76C9.13,-62.57 14.37,-72 32.5,-72 43.83,-72 50.13,-68.31 51.39,-63.4"/>
<polygon fill="midnightblue" stroke="midnightblue" points="54.67,-62.17 48.22,-53.76 48.02,-64.35 54.67,-62.17"/>
</g>
<!-- Node2 -->
<g id="node2" class="node">
<title>Node2</title>
<g id="a_node2"><a xlink:href="classrare_1_1utils_1_1extra__widgets_1_1_flow_layout.html#a5eb880efb244834d39c062297388252b" target="_top" xlink:title=" ">
<polygon fill="white" stroke="black" points="205,-57 205,-87 323,-87 323,-57 205,-57"/>
<text text-anchor="start" x="213" y="-75" font-family="Helvetica,sans-Serif" font-size="10.00">rare.utils.extra_widgets.</text>
<text text-anchor="middle" x="264" y="-64" font-family="Helvetica,sans-Serif" font-size="10.00">FlowLayout.count</text>
</a>
</g>
</g>
<!-- Node1&#45;&gt;Node2 -->
<g id="edge1" class="edge">
<title>Node1&#45;&gt;Node2</title>
<path fill="none" stroke="midnightblue" d="M65.08,-48.32C76.4,-49.84 89.27,-51.53 101,-53 131.79,-56.86 165.9,-60.89 194.85,-64.25"/>
<polygon fill="midnightblue" stroke="midnightblue" points="194.53,-67.74 204.86,-65.41 195.33,-60.78 194.53,-67.74"/>
</g>
<!-- Node3 -->
<g id="node3" class="node">
<title>Node3</title>
<g id="a_node3"><a xlink:href="classrare_1_1utils_1_1extra__widgets_1_1_sliding_stacked_widget.html#a14a7f7a305b607aa29aa0dfa7f6047d5" target="_top" xlink:title=" ">
<polygon fill="white" stroke="black" points="101,-6.5 101,-25.5 169,-25.5 169,-6.5 101,-6.5"/>
<text text-anchor="middle" x="135" y="-13.5" font-family="Helvetica,sans-Serif" font-size="10.00">slideInIndex</text>
</a>
</g>
</g>
<!-- Node1&#45;&gt;Node3 -->
<g id="edge3" class="edge">
<title>Node1&#45;&gt;Node3</title>
<path fill="none" stroke="midnightblue" d="M65.02,-35.22C73.3,-32.91 82.38,-30.38 91.14,-27.94"/>
<polygon fill="midnightblue" stroke="midnightblue" points="92.16,-31.29 100.85,-25.24 90.28,-24.55 92.16,-31.29"/>
</g>
<!-- Node2&#45;&gt;Node2 -->
<g id="edge2" class="edge">
<title>Node2&#45;&gt;Node2</title>
<path fill="none" stroke="midnightblue" d="M241.69,-87.16C236.31,-96.56 243.75,-105.5 264,-105.5 276.34,-105.5 283.92,-102.18 286.74,-97.46"/>
<polygon fill="midnightblue" stroke="midnightblue" points="290.23,-97 286.31,-87.16 283.23,-97.3 290.23,-97"/>
</g>
<!-- Node3&#45;&gt;Node2 -->
<g id="edge4" class="edge">
<title>Node3&#45;&gt;Node2</title>
<path fill="none" stroke="midnightblue" d="M157.1,-25.58C170.74,-31.75 188.89,-39.91 205,-47 209.35,-48.91 213.89,-50.9 218.43,-52.87"/>
<polygon fill="midnightblue" stroke="midnightblue" points="217.12,-56.12 227.69,-56.88 219.91,-49.7 217.12,-56.12"/>
</g>
<!-- Node3&#45;&gt;Node3 -->
<g id="edge5" class="edge">
<title>Node3&#45;&gt;Node3</title>
<path fill="none" stroke="midnightblue" d="M119.28,-25.76C111.63,-34.57 116.87,-44 135,-44 146.33,-44 152.63,-40.31 153.89,-35.4"/>
<polygon fill="midnightblue" stroke="midnightblue" points="157.17,-34.17 150.72,-25.76 150.52,-36.35 157.17,-34.17"/>
</g>
<!-- Node4 -->
<g id="node4" class="node">
<title>Node4</title>
<g id="a_node4"><a xlink:href="classrare_1_1utils_1_1extra__widgets_1_1_sliding_stacked_widget.html#ab032482dfc53fdfe48836e74a00f0871" target="_top" xlink:title=" ">
<polygon fill="white" stroke="black" points="226.5,-0.5 226.5,-19.5 301.5,-19.5 301.5,-0.5 226.5,-0.5"/>
<text text-anchor="middle" x="264" y="-7.5" font-family="Helvetica,sans-Serif" font-size="10.00">slideInWidget</text>
</a>
</g>
</g>
<!-- Node3&#45;&gt;Node4 -->
<g id="edge6" class="edge">
<title>Node3&#45;&gt;Node4</title>
<path fill="none" stroke="midnightblue" d="M169.04,-14.44C183.39,-13.76 200.45,-12.95 216.08,-12.22"/>
<polygon fill="midnightblue" stroke="midnightblue" points="216.28,-15.71 226.1,-11.74 215.95,-8.72 216.28,-15.71"/>
</g>
<!-- Node4&#45;&gt;Node4 -->
<g id="edge9" class="edge">
<title>Node4&#45;&gt;Node4</title>
<path fill="none" stroke="midnightblue" d="M244.27,-19.76C234.67,-28.57 241.25,-38 264,-38 278.57,-38 286.51,-34.13 287.81,-29.03"/>
<polygon fill="midnightblue" stroke="midnightblue" points="290.96,-27.5 283.73,-19.76 284.55,-30.32 290.96,-27.5"/>
</g>
<!-- Node5 -->
<g id="node5" class="node">
<title>Node5</title>
<g id="a_node5"><a xlink:href="classrare_1_1utils_1_1extra__widgets_1_1_sliding_stacked_widget.html#ad33b03cf3496c64ea301895641933e64" target="_top" xlink:title=" ">
<polygon fill="white" stroke="black" points="359,-0.5 359,-19.5 457,-19.5 457,-0.5 359,-0.5"/>
<text text-anchor="middle" x="408" y="-7.5" font-family="Helvetica,sans-Serif" font-size="10.00">animationDoneSlot</text>
</a>
</g>
</g>
<!-- Node4&#45;&gt;Node5 -->
<g id="edge7" class="edge">
<title>Node4&#45;&gt;Node5</title>
<path fill="none" stroke="midnightblue" d="M301.57,-10C315.86,-10 332.61,-10 348.49,-10"/>
<polygon fill="midnightblue" stroke="midnightblue" points="348.77,-13.5 358.77,-10 348.77,-6.5 348.77,-13.5"/>
</g>
<!-- Node5&#45;&gt;Node5 -->
<g id="edge8" class="edge">
<title>Node5&#45;&gt;Node5</title>
<path fill="none" stroke="midnightblue" d="M385.81,-19.76C375.01,-28.57 382.41,-38 408,-38 424.8,-38 433.76,-33.94 434.88,-28.65"/>
<polygon fill="midnightblue" stroke="midnightblue" points="437.95,-26.97 430.19,-19.76 431.76,-30.24 437.95,-26.97"/>
</g>
</g>
</svg>
