<?xml version="1.0" encoding="UTF-8" standalone="no"?>
<!DOCTYPE svg PUBLIC "-//W3C//DTD SVG 1.1//EN"
 "http://www.w3.org/Graphics/SVG/1.1/DTD/svg11.dtd">
<!-- Generated by graphviz version 2.49.3 (20211027.1534)
 -->
<!-- Title: cleanup Pages: 1 -->
<svg width="206pt" height="46pt"
 viewBox="0.00 0.00 206.00 46.00" xmlns="http://www.w3.org/2000/svg" xmlns:xlink="http://www.w3.org/1999/xlink">
<g id="graph0" class="graph" transform="scale(1 1) rotate(0) translate(4 42)">
<title>cleanup</title>
<polygon fill="white" stroke="transparent" points="-4,4 -4,-42 202,-42 202,4 -4,4"/>
<!-- Node1 -->
<g id="node1" class="node">
<title>Node1</title>
<g id="a_node1"><a xlink:title=" ">
<polygon fill="#bfbfbf" stroke="black" points="0,-0.5 0,-19.5 50,-19.5 50,-0.5 0,-0.5"/>
<text text-anchor="middle" x="25" y="-7.5" font-family="Helvetica,sans-Serif" font-size="10.00">cleanup</text>
</a>
</g>
</g>
<!-- Node1&#45;&gt;Node1 -->
<g id="edge1" class="edge">
<title>Node1&#45;&gt;Node1</title>
<path fill="none" stroke="midnightblue" d="M7.12,-19.76C-1.58,-28.57 4.38,-38 25,-38 37.89,-38 45.05,-34.31 46.48,-29.4"/>
<polygon fill="midnightblue" stroke="midnightblue" points="49.66,-27.9 42.88,-19.76 43.1,-30.35 49.66,-27.9"/>
</g>
<!-- Node2 -->
<g id="node2" class="node">
<title>Node2</title>
<g id="a_node2"><a xlink:href="namespacerare_1_1utils_1_1utils.html#a76b25bb1934f2b8bad17a35703027a9a" target="_top" xlink:title=" ">
<polygon fill="white" stroke="black" points="86,-0.5 86,-19.5 198,-19.5 198,-0.5 86,-0.5"/>
<text text-anchor="middle" x="142" y="-7.5" font-family="Helvetica,sans-Serif" font-size="10.00">rare.utils.utils.get_size</text>
</a>
</g>
</g>
<!-- Node1&#45;&gt;Node2 -->
<g id="edge2" class="edge">
<title>Node1&#45;&gt;Node2</title>
<path fill="none" stroke="midnightblue" d="M50.11,-10C57.67,-10 66.41,-10 75.42,-10"/>
<polygon fill="midnightblue" stroke="midnightblue" points="75.66,-13.5 85.66,-10 75.66,-6.5 75.66,-13.5"/>
</g>
<!-- Node2&#45;&gt;Node2 -->
<g id="edge3" class="edge">
<title>Node2&#45;&gt;Node2</title>
<path fill="none" stroke="midnightblue" d="M124.12,-19.76C115.42,-28.57 121.38,-38 142,-38 154.89,-38 162.05,-34.31 163.48,-29.4"/>
<polygon fill="midnightblue" stroke="midnightblue" points="166.66,-27.9 159.88,-19.76 160.1,-30.35 166.66,-27.9"/>
</g>
</g>
</svg>
