<?xml version="1.0" encoding="UTF-8" standalone="no"?>
<!DOCTYPE svg PUBLIC "-//W3C//DTD SVG 1.1//EN"
 "http://www.w3.org/Graphics/SVG/1.1/DTD/svg11.dtd">
<!-- Generated by graphviz version 2.49.3 (20211027.1534)
 -->
<!-- Title: __init__ Pages: 1 -->
<svg width="456pt" height="124pt"
 viewBox="0.00 0.00 455.93 124.00" xmlns="http://www.w3.org/2000/svg" xmlns:xlink="http://www.w3.org/1999/xlink">
<g id="graph0" class="graph" transform="scale(1 1) rotate(0) translate(4 120)">
<title>__init__</title>
<polygon fill="white" stroke="transparent" points="-4,4 -4,-120 451.93,-120 451.93,4 -4,4"/>
<!-- Node1 -->
<g id="node1" class="node">
<title>Node1</title>
<g id="a_node1"><a xlink:title=" ">
<polygon fill="#bfbfbf" stroke="black" points="1.93,-39 1.93,-58 51.93,-58 51.93,-39 1.93,-39"/>
<text text-anchor="middle" x="26.93" y="-46" font-family="Helvetica,sans-Serif" font-size="10.00">__init__</text>
</a>
</g>
</g>
<!-- Node1&#45;&gt;Node1 -->
<g id="edge1" class="edge">
<title>Node1&#45;&gt;Node1</title>
<path fill="none" stroke="midnightblue" d="M5.04,-58.26C-5.61,-67.07 1.69,-76.5 26.93,-76.5 43.49,-76.5 52.32,-72.44 53.43,-67.15"/>
<polygon fill="midnightblue" stroke="midnightblue" points="56.53,-65.52 48.81,-58.26 50.31,-68.74 56.53,-65.52"/>
</g>
<!-- Node2 -->
<g id="node2" class="node">
<title>Node2</title>
<g id="a_node2"><a xlink:href="classrare_1_1widgets_1_1side__tab_1_1_side_tab_container.html#a91ab0752374c3f97048137450dd3f146" target="_top" xlink:title=" ">
<polygon fill="white" stroke="black" points="103.93,-67.5 103.93,-97.5 233.93,-97.5 233.93,-67.5 103.93,-67.5"/>
<text text-anchor="start" x="111.93" y="-85.5" font-family="Helvetica,sans-Serif" font-size="10.00">rare.widgets.side_tab.Side</text>
<text text-anchor="middle" x="168.93" y="-74.5" font-family="Helvetica,sans-Serif" font-size="10.00">TabContainer.setTitle</text>
</a>
</g>
</g>
<!-- Node1&#45;&gt;Node2 -->
<g id="edge2" class="edge">
<title>Node1&#45;&gt;Node2</title>
<path fill="none" stroke="midnightblue" d="M51.99,-54.34C64.36,-57.35 80.15,-61.18 96.07,-65.05"/>
<polygon fill="midnightblue" stroke="midnightblue" points="95.42,-68.49 105.97,-67.45 97.07,-61.69 95.42,-68.49"/>
</g>
<!-- Node3 -->
<g id="node3" class="node">
<title>Node3</title>
<g id="a_node3"><a xlink:href="classrare_1_1widgets_1_1collapsible__widget_1_1_collapsible_frame.html#ad92dbb83d29958c5b365b9c4b231c057" target="_top" xlink:title=" ">
<polygon fill="white" stroke="black" points="87.93,-0.5 87.93,-30.5 249.93,-30.5 249.93,-0.5 87.93,-0.5"/>
<text text-anchor="start" x="95.93" y="-18.5" font-family="Helvetica,sans-Serif" font-size="10.00">rare.widgets.collapsible</text>
<text text-anchor="middle" x="168.93" y="-7.5" font-family="Helvetica,sans-Serif" font-size="10.00">_widget.CollapsibleFrame.setTitle</text>
</a>
</g>
</g>
<!-- Node1&#45;&gt;Node3 -->
<g id="edge4" class="edge">
<title>Node1&#45;&gt;Node3</title>
<path fill="none" stroke="midnightblue" d="M51.99,-42.83C63.86,-40.03 78.87,-36.49 94.13,-32.89"/>
<polygon fill="midnightblue" stroke="midnightblue" points="95.23,-36.23 104.16,-30.53 93.63,-29.42 95.23,-36.23"/>
</g>
<!-- Node2&#45;&gt;Node2 -->
<g id="edge3" class="edge">
<title>Node2&#45;&gt;Node2</title>
<path fill="none" stroke="midnightblue" d="M144.18,-97.66C138.21,-107.06 146.46,-116 168.93,-116 182.62,-116 191.03,-112.68 194.16,-107.96"/>
<polygon fill="midnightblue" stroke="midnightblue" points="197.64,-107.48 193.67,-97.66 190.65,-107.81 197.64,-107.48"/>
</g>
<!-- Node3&#45;&gt;Node3 -->
<g id="edge7" class="edge">
<title>Node3&#45;&gt;Node3</title>
<path fill="none" stroke="midnightblue" d="M144.18,-30.66C138.21,-40.06 146.46,-49 168.93,-49 182.62,-49 191.03,-45.68 194.16,-40.96"/>
<polygon fill="midnightblue" stroke="midnightblue" points="197.64,-40.48 193.67,-30.66 190.65,-40.81 197.64,-40.48"/>
</g>
<!-- Node4 -->
<g id="node4" class="node">
<title>Node4</title>
<g id="a_node4"><a xlink:href="classrare_1_1widgets_1_1collapsible__widget_1_1_collapsible_frame.html#aa1ce5c203733553579a07cf1db0da9df" target="_top" xlink:title=" ">
<polygon fill="white" stroke="black" points="285.93,-0.5 285.93,-30.5 447.93,-30.5 447.93,-0.5 285.93,-0.5"/>
<text text-anchor="start" x="293.93" y="-18.5" font-family="Helvetica,sans-Serif" font-size="10.00">rare.widgets.collapsible</text>
<text text-anchor="middle" x="366.93" y="-7.5" font-family="Helvetica,sans-Serif" font-size="10.00">_widget.CollapsibleFrame.setText</text>
</a>
</g>
</g>
<!-- Node3&#45;&gt;Node4 -->
<g id="edge5" class="edge">
<title>Node3&#45;&gt;Node4</title>
<path fill="none" stroke="midnightblue" d="M249.93,-15.5C258.45,-15.5 267.16,-15.5 275.79,-15.5"/>
<polygon fill="midnightblue" stroke="midnightblue" points="275.86,-19 285.86,-15.5 275.86,-12 275.86,-19"/>
</g>
<!-- Node4&#45;&gt;Node4 -->
<g id="edge6" class="edge">
<title>Node4&#45;&gt;Node4</title>
<path fill="none" stroke="midnightblue" d="M332.42,-30.66C324.1,-40.06 335.6,-49 366.93,-49 386.01,-49 397.74,-45.68 402.11,-40.96"/>
<polygon fill="midnightblue" stroke="midnightblue" points="405.58,-40.41 401.43,-30.66 398.6,-40.87 405.58,-40.41"/>
</g>
</g>
</svg>
