<?xml version="1.0" encoding="UTF-8" standalone="no"?>
<!DOCTYPE svg PUBLIC "-//W3C//DTD SVG 1.1//EN"
 "http://www.w3.org/Graphics/SVG/1.1/DTD/svg11.dtd">
<!-- Generated by graphviz version 2.49.3 (20211027.1534)
 -->
<!-- Title: install_path Pages: 1 -->
<svg width="214pt" height="46pt"
 viewBox="0.00 0.00 214.00 46.00" xmlns="http://www.w3.org/2000/svg" xmlns:xlink="http://www.w3.org/1999/xlink">
<g id="graph0" class="graph" transform="scale(1 1) rotate(0) translate(4 42)">
<title>install_path</title>
<polygon fill="white" stroke="transparent" points="-4,4 -4,-42 210,-42 210,4 -4,4"/>
<!-- Node1 -->
<g id="node1" class="node">
<title>Node1</title>
<g id="a_node1"><a xlink:title=" ">
<polygon fill="#bfbfbf" stroke="black" points="140,-0.5 140,-19.5 206,-19.5 206,-0.5 140,-0.5"/>
<text text-anchor="middle" x="173" y="-7.5" font-family="Helvetica,sans-Serif" font-size="10.00">install_path</text>
</a>
</g>
</g>
<!-- Node2 -->
<g id="node2" class="node">
<title>Node2</title>
<g id="a_node2"><a xlink:href="classrare_1_1models_1_1game_1_1_rare_game.html#afb0966909d9062fa9eb0e80827694818" target="_top" xlink:title=" ">
<polygon fill="white" stroke="black" points="0,-0.5 0,-19.5 104,-19.5 104,-0.5 0,-0.5"/>
<text text-anchor="middle" x="52" y="-7.5" font-family="Helvetica,sans-Serif" font-size="10.00">set_origin_attributes</text>
</a>
</g>
</g>
<!-- Node1&#45;&gt;Node2 -->
<g id="edge1" class="edge">
<title>Node1&#45;&gt;Node2</title>
<path fill="none" stroke="midnightblue" d="M129.62,-10C121.34,-10 112.58,-10 104.05,-10"/>
<polygon fill="midnightblue" stroke="midnightblue" points="129.8,-13.5 139.8,-10 129.8,-6.5 129.8,-13.5"/>
</g>
<!-- Node2&#45;&gt;Node2 -->
<g id="edge2" class="edge">
<title>Node2&#45;&gt;Node2</title>
<path fill="none" stroke="midnightblue" d="M74.32,-29.03C73.1,-34.13 65.66,-38 52,-38 30.67,-38 24.51,-28.57 33.5,-19.76"/>
<polygon fill="midnightblue" stroke="midnightblue" points="77.55,-27.67 70.5,-19.76 71.07,-30.34 77.55,-27.67"/>
</g>
</g>
</svg>
