<?xml version="1.0" encoding="UTF-8" standalone="no"?>
<!DOCTYPE svg PUBLIC "-//W3C//DTD SVG 1.1//EN"
 "http://www.w3.org/Graphics/SVG/1.1/DTD/svg11.dtd">
<!-- Generated by graphviz version 2.49.3 (20211027.1534)
 -->
<!-- Title: run Pages: 1 -->
<svg width="573pt" height="258pt"
 viewBox="0.00 0.00 573.09 258.00" xmlns="http://www.w3.org/2000/svg" xmlns:xlink="http://www.w3.org/1999/xlink">
<g id="graph0" class="graph" transform="scale(1 1) rotate(0) translate(4 254)">
<title>run</title>
<polygon fill="white" stroke="transparent" points="-4,4 -4,-254 569.09,-254 569.09,4 -4,4"/>
<!-- Node1 -->
<g id="node1" class="node">
<title>Node1</title>
<g id="a_node1"><a xlink:title=" ">
<polygon fill="#bfbfbf" stroke="black" points="7.09,-84 7.09,-103 37.09,-103 37.09,-84 7.09,-84"/>
<text text-anchor="middle" x="22.09" y="-91" font-family="Helvetica,sans-Serif" font-size="10.00">run</text>
</a>
</g>
</g>
<!-- Node1&#45;&gt;Node1 -->
<g id="edge17" class="edge">
<title>Node1&#45;&gt;Node1</title>
<path fill="none" stroke="midnightblue" d="M6.84,-100.96C-5.42,-110.33 -0.34,-121.5 22.09,-121.5 38.21,-121.5 45.37,-115.73 43.57,-109"/>
<polygon fill="midnightblue" stroke="midnightblue" points="46.23,-106.72 37.34,-100.96 40.69,-111 46.23,-106.72"/>
</g>
<!-- Node2 -->
<g id="node2" class="node">
<title>Node2</title>
<g id="a_node2"><a xlink:href="classrare_1_1shared_1_1rare__core_1_1_rare_core.html#a673cb72b40e8c1b2dfab6dbc0e0e39e4" target="_top" xlink:title=" ">
<polygon fill="white" stroke="black" points="73.09,-159.5 73.09,-189.5 203.09,-189.5 203.09,-159.5 73.09,-159.5"/>
<text text-anchor="start" x="81.09" y="-177.5" font-family="Helvetica,sans-Serif" font-size="10.00">rare.shared.rare_core.Rare</text>
<text text-anchor="middle" x="138.09" y="-166.5" font-family="Helvetica,sans-Serif" font-size="10.00">Core.args</text>
</a>
</g>
</g>
<!-- Node1&#45;&gt;Node2 -->
<g id="edge1" class="edge">
<title>Node1&#45;&gt;Node2</title>
<path fill="none" stroke="midnightblue" d="M29.46,-103.07C38.06,-115.34 54.47,-136.56 73.09,-149.5 75.78,-151.37 78.64,-153.13 81.59,-154.78"/>
<polygon fill="midnightblue" stroke="midnightblue" points="80.15,-157.97 90.65,-159.39 83.32,-151.73 80.15,-157.97"/>
</g>
<!-- Node3 -->
<g id="node3" class="node">
<title>Node3</title>
<g id="a_node3"><a xlink:href="classrare_1_1commands_1_1launcher_1_1_pre_launch.html#a1919862a03530a651067c3d8d482c618" target="_top" xlink:title=" ">
<polygon fill="white" stroke="black" points="96.59,-103 96.59,-122 179.59,-122 179.59,-103 96.59,-103"/>
<text text-anchor="middle" x="138.09" y="-110" font-family="Helvetica,sans-Serif" font-size="10.00">prepare_launch</text>
</a>
</g>
</g>
<!-- Node1&#45;&gt;Node3 -->
<g id="edge3" class="edge">
<title>Node1&#45;&gt;Node3</title>
<path fill="none" stroke="midnightblue" d="M37.53,-95.91C49.9,-97.97 68.48,-101.07 86.26,-104.03"/>
<polygon fill="midnightblue" stroke="midnightblue" points="86.14,-107.56 96.58,-105.75 87.29,-100.65 86.14,-107.56"/>
</g>
<!-- Node8 -->
<g id="node8" class="node">
<title>Node8</title>
<g id="a_node8"><a xlink:href="classrare_1_1shared_1_1rare__core_1_1_rare_core.html#a135560fc58fcc2e5cff07ec25c23a06c" target="_top" xlink:title=" ">
<polygon fill="white" stroke="black" points="250.59,-67.5 250.59,-97.5 380.59,-97.5 380.59,-67.5 250.59,-67.5"/>
<text text-anchor="start" x="258.59" y="-85.5" font-family="Helvetica,sans-Serif" font-size="10.00">rare.shared.rare_core.Rare</text>
<text text-anchor="middle" x="315.59" y="-74.5" font-family="Helvetica,sans-Serif" font-size="10.00">Core.signals</text>
</a>
</g>
</g>
<!-- Node1&#45;&gt;Node8 -->
<g id="edge19" class="edge">
<title>Node1&#45;&gt;Node8</title>
<path fill="none" stroke="midnightblue" d="M37.15,-92.97C73.25,-91.61 171.2,-87.91 240.46,-85.3"/>
<polygon fill="midnightblue" stroke="midnightblue" points="240.59,-88.79 250.46,-84.92 240.33,-81.8 240.59,-88.79"/>
</g>
<!-- Node9 -->
<g id="node9" class="node">
<title>Node9</title>
<g id="a_node9"><a xlink:href="classrare_1_1shared_1_1workers_1_1worker_1_1_worker.html#a9998d928f5b6f30ebb69dc655c0756a8" target="_top" xlink:title=" ">
<polygon fill="white" stroke="black" points="248.09,-0.5 248.09,-30.5 383.09,-30.5 383.09,-0.5 248.09,-0.5"/>
<text text-anchor="start" x="256.09" y="-18.5" font-family="Helvetica,sans-Serif" font-size="10.00">rare.shared.workers.worker.</text>
<text text-anchor="middle" x="315.59" y="-7.5" font-family="Helvetica,sans-Serif" font-size="10.00">Worker.signals</text>
</a>
</g>
</g>
<!-- Node1&#45;&gt;Node9 -->
<g id="edge18" class="edge">
<title>Node1&#45;&gt;Node9</title>
<path fill="none" stroke="midnightblue" d="M37.15,-89.74C74.65,-79.7 178.95,-51.8 248.43,-33.2"/>
<polygon fill="midnightblue" stroke="midnightblue" points="249.66,-36.5 258.42,-30.53 247.85,-29.73 249.66,-36.5"/>
</g>
<!-- Node2&#45;&gt;Node2 -->
<g id="edge2" class="edge">
<title>Node2&#45;&gt;Node2</title>
<path fill="none" stroke="midnightblue" d="M117.87,-189.66C113,-199.06 119.74,-208 138.09,-208 149.27,-208 156.14,-204.68 158.7,-199.96"/>
<polygon fill="midnightblue" stroke="midnightblue" points="162.19,-199.52 158.31,-189.66 155.19,-199.79 162.19,-199.52"/>
</g>
<!-- Node3&#45;&gt;Node3 -->
<g id="edge12" class="edge">
<title>Node3&#45;&gt;Node3</title>
<path fill="none" stroke="midnightblue" d="M120.21,-122.26C111.51,-131.07 117.47,-140.5 138.09,-140.5 150.98,-140.5 158.14,-136.81 159.57,-131.9"/>
<polygon fill="midnightblue" stroke="midnightblue" points="162.75,-130.4 155.97,-122.26 156.19,-132.85 162.75,-130.4"/>
</g>
<!-- Node4 -->
<g id="node4" class="node">
<title>Node4</title>
<g id="a_node4"><a xlink:href="namespacerare_1_1commands_1_1launcher_1_1lgd__helper.html#a9759496f746c478547ac939b6271959e" target="_top" xlink:title=" ">
<polygon fill="white" stroke="black" points="239.09,-201.5 239.09,-231.5 392.09,-231.5 392.09,-201.5 239.09,-201.5"/>
<text text-anchor="start" x="247.09" y="-219.5" font-family="Helvetica,sans-Serif" font-size="10.00">rare.commands.launcher.lgd</text>
<text text-anchor="middle" x="315.59" y="-208.5" font-family="Helvetica,sans-Serif" font-size="10.00">_helper.get_configured_process</text>
</a>
</g>
</g>
<!-- Node3&#45;&gt;Node4 -->
<g id="edge4" class="edge">
<title>Node3&#45;&gt;Node4</title>
<path fill="none" stroke="midnightblue" d="M158.94,-122.12C172.16,-129.03 189.54,-139.11 203.09,-150.5 221.91,-166.32 218.59,-178.92 239.09,-192.5 241.51,-194.1 244.04,-195.6 246.65,-197.01"/>
<polygon fill="midnightblue" stroke="midnightblue" points="245.26,-200.22 255.79,-201.43 248.31,-193.92 245.26,-200.22"/>
</g>
<!-- Node5 -->
<g id="node5" class="node">
<title>Node5</title>
<g id="a_node5"><a xlink:href="namespacerare_1_1commands_1_1launcher_1_1lgd__helper.html#abf2d7d38da6177ee9d089cef4917abdd" target="_top" xlink:title=" ">
<polygon fill="white" stroke="black" points="247.09,-134.5 247.09,-164.5 384.09,-164.5 384.09,-134.5 247.09,-134.5"/>
<text text-anchor="start" x="255.09" y="-152.5" font-family="Helvetica,sans-Serif" font-size="10.00">rare.commands.launcher.lgd</text>
<text text-anchor="middle" x="315.59" y="-141.5" font-family="Helvetica,sans-Serif" font-size="10.00">_helper.get_launch_args</text>
</a>
</g>
</g>
<!-- Node3&#45;&gt;Node5 -->
<g id="edge6" class="edge">
<title>Node3&#45;&gt;Node5</title>
<path fill="none" stroke="midnightblue" d="M179.79,-121.08C196.86,-124.68 217.29,-128.99 237.03,-133.15"/>
<polygon fill="midnightblue" stroke="midnightblue" points="236.45,-136.6 246.96,-135.24 237.89,-129.75 236.45,-136.6"/>
</g>
<!-- Node3&#45;&gt;Node8 -->
<g id="edge13" class="edge">
<title>Node3&#45;&gt;Node8</title>
<path fill="none" stroke="midnightblue" d="M179.79,-105.54C197.81,-102.46 219.58,-98.74 240.31,-95.2"/>
<polygon fill="midnightblue" stroke="midnightblue" points="241.13,-98.61 250.39,-93.47 239.95,-91.71 241.13,-98.61"/>
</g>
<!-- Node3&#45;&gt;Node9 -->
<g id="edge15" class="edge">
<title>Node3&#45;&gt;Node9</title>
<path fill="none" stroke="midnightblue" d="M156.56,-102.84C184.77,-87.25 240.96,-56.19 278.17,-35.63"/>
<polygon fill="midnightblue" stroke="midnightblue" points="280.13,-38.55 287.19,-30.64 276.74,-32.42 280.13,-38.55"/>
</g>
<!-- Node4&#45;&gt;Node4 -->
<g id="edge5" class="edge">
<title>Node4&#45;&gt;Node4</title>
<path fill="none" stroke="midnightblue" d="M284.92,-231.66C277.52,-241.06 287.75,-250 315.59,-250 332.56,-250 342.98,-246.68 346.86,-241.96"/>
<polygon fill="midnightblue" stroke="midnightblue" points="350.34,-241.44 346.26,-231.66 343.35,-241.85 350.34,-241.44"/>
</g>
<!-- Node5&#45;&gt;Node5 -->
<g id="edge9" class="edge">
<title>Node5&#45;&gt;Node5</title>
<path fill="none" stroke="midnightblue" d="M284.92,-164.66C277.52,-174.06 287.75,-183 315.59,-183 332.56,-183 342.98,-179.68 346.86,-174.96"/>
<polygon fill="midnightblue" stroke="midnightblue" points="350.34,-174.44 346.26,-164.66 343.35,-174.85 350.34,-174.44"/>
</g>
<!-- Node6 -->
<g id="node6" class="node">
<title>Node6</title>
<g id="a_node6"><a xlink:href="namespacerare_1_1commands_1_1launcher_1_1lgd__helper.html#a994d4b312004fac05d64b47fe1f7e55c" target="_top" xlink:title=" ">
<polygon fill="white" stroke="black" points="428.09,-167.5 428.09,-197.5 565.09,-197.5 565.09,-167.5 428.09,-167.5"/>
<text text-anchor="start" x="436.09" y="-185.5" font-family="Helvetica,sans-Serif" font-size="10.00">rare.commands.launcher.lgd</text>
<text text-anchor="middle" x="496.59" y="-174.5" font-family="Helvetica,sans-Serif" font-size="10.00">_helper.get_game_params</text>
</a>
</g>
</g>
<!-- Node5&#45;&gt;Node6 -->
<g id="edge7" class="edge">
<title>Node5&#45;&gt;Node6</title>
<path fill="none" stroke="midnightblue" d="M384.26,-161.98C395.18,-163.99 406.55,-166.09 417.69,-168.14"/>
<polygon fill="midnightblue" stroke="midnightblue" points="417.35,-171.64 427.82,-170.01 418.62,-164.75 417.35,-171.64"/>
</g>
<!-- Node7 -->
<g id="node7" class="node">
<title>Node7</title>
<g id="a_node7"><a xlink:href="namespacerare_1_1commands_1_1launcher_1_1lgd__helper.html#aa9cac0757a279f375bc3641b0aa936f8" target="_top" xlink:title=" ">
<polygon fill="white" stroke="black" points="428.09,-100.5 428.09,-130.5 565.09,-130.5 565.09,-100.5 428.09,-100.5"/>
<text text-anchor="start" x="436.09" y="-118.5" font-family="Helvetica,sans-Serif" font-size="10.00">rare.commands.launcher.lgd</text>
<text text-anchor="middle" x="496.59" y="-107.5" font-family="Helvetica,sans-Serif" font-size="10.00">_helper.get_origin_params</text>
</a>
</g>
</g>
<!-- Node5&#45;&gt;Node7 -->
<g id="edge10" class="edge">
<title>Node5&#45;&gt;Node7</title>
<path fill="none" stroke="midnightblue" d="M384.26,-136.65C395.18,-134.57 406.55,-132.41 417.69,-130.3"/>
<polygon fill="midnightblue" stroke="midnightblue" points="418.65,-133.68 427.82,-128.37 417.34,-126.8 418.65,-133.68"/>
</g>
<!-- Node6&#45;&gt;Node6 -->
<g id="edge8" class="edge">
<title>Node6&#45;&gt;Node6</title>
<path fill="none" stroke="midnightblue" d="M465.22,-197.66C457.66,-207.06 468.11,-216 496.59,-216 513.94,-216 524.6,-212.68 528.57,-207.96"/>
<polygon fill="midnightblue" stroke="midnightblue" points="532.05,-207.43 527.96,-197.66 525.06,-207.85 532.05,-207.43"/>
</g>
<!-- Node7&#45;&gt;Node7 -->
<g id="edge11" class="edge">
<title>Node7&#45;&gt;Node7</title>
<path fill="none" stroke="midnightblue" d="M465.22,-130.66C457.66,-140.06 468.11,-149 496.59,-149 513.94,-149 524.6,-145.68 528.57,-140.96"/>
<polygon fill="midnightblue" stroke="midnightblue" points="532.05,-140.43 527.96,-130.66 525.06,-140.85 532.05,-140.43"/>
</g>
<!-- Node8&#45;&gt;Node8 -->
<g id="edge14" class="edge">
<title>Node8&#45;&gt;Node8</title>
<path fill="none" stroke="midnightblue" d="M284.92,-97.66C277.52,-107.06 287.75,-116 315.59,-116 332.56,-116 342.98,-112.68 346.86,-107.96"/>
<polygon fill="midnightblue" stroke="midnightblue" points="350.34,-107.44 346.26,-97.66 343.35,-107.85 350.34,-107.44"/>
</g>
<!-- Node9&#45;&gt;Node9 -->
<g id="edge16" class="edge">
<title>Node9&#45;&gt;Node9</title>
<path fill="none" stroke="midnightblue" d="M284.92,-30.66C277.52,-40.06 287.75,-49 315.59,-49 332.56,-49 342.98,-45.68 346.86,-40.96"/>
<polygon fill="midnightblue" stroke="midnightblue" points="350.34,-40.44 346.26,-30.66 343.35,-40.85 350.34,-40.44"/>
</g>
</g>
</svg>
