<?xml version="1.0" encoding="UTF-8" standalone="no"?>
<!DOCTYPE svg PUBLIC "-//W3C//DTD SVG 1.1//EN"
 "http://www.w3.org/Graphics/SVG/1.1/DTD/svg11.dtd">
<!-- Generated by graphviz version 2.49.3 (20211027.1534)
 -->
<!-- Title: get_install_options Pages: 1 -->
<!--zoomable 374 -->
<svg id="main" version="1.1" xmlns="http://www.w3.org/2000/svg" xmlns:xlink="http://www.w3.org/1999/xlink" xml:space="preserve" onload="init(evt)">
<style type="text/css"><![CDATA[
.edge:hover path { stroke: red; }
.edge:hover polygon { stroke: red; fill: red; }
]]></style>
<script type="text/javascript"><![CDATA[
var edges = document.getElementsByTagName('g');
if (edges && edges.length) {
  for (var i=0;i<edges.length;i++) {
    if (edges[i].id.substr(0,4)=='edge') {
      edges[i].setAttribute('class','edge');
    }
  }
}
]]></script>
        <defs>
                <circle id="rim" cx="0" cy="0" r="7"/>
                <circle id="rim2" cx="0" cy="0" r="3.5"/>
                <g id="zoomPlus">
                        <use xlink:href="#rim" fill="#404040">
                                <set attributeName="fill" to="#808080" begin="zoomplus.mouseover" end="zoomplus.mouseout"/>
                        </use>
                        <path d="M-4,0h8M0,-4v8" fill="none" stroke="white" stroke-width="1.5" pointer-events="none"/>
                </g>
                <g id="zoomMin">
                        <use xlink:href="#rim" fill="#404040">
                                <set attributeName="fill" to="#808080" begin="zoomminus.mouseover" end="zoomminus.mouseout"/>
                        </use>
                        <path d="M-4,0h8" fill="none" stroke="white" stroke-width="1.5" pointer-events="none"/>
                </g>
                <g id="dirArrow">
                        <path fill="none" stroke="white" stroke-width="1.5" d="M0,-3.0v7 M-2.5,-0.5L0,-3.0L2.5,-0.5"/>
                </g>
               <g id="resetDef">
                       <use xlink:href="#rim2" fill="#404040">
                               <set attributeName="fill" to="#808080" begin="reset.mouseover" end="reset.mouseout"/>
                       </use>
               </g>
        </defs>

<script type="text/javascript">
var viewWidth = 929;
var viewHeight = 374;
var sectionId = 'dynsection-8';
</script>
<script xlink:href="svgpan.js"/>
<svg id="graph" class="graph">
<g id="viewport">
<title>get_install_options</title>
<polygon fill="white" stroke="transparent" points="-4,4 -4,-369.5 925,-369.5 925,4 -4,4"/>
<!-- Node1 -->
<g id="node1" class="node">
<title>Node1</title>
<g id="a_node1"><a xlink:title=" ">
<polygon fill="#bfbfbf" stroke="black" points="0,-105.5 0,-124.5 98,-124.5 98,-105.5 0,-105.5"/>
<text text-anchor="middle" x="49" y="-112.5" font-family="Helvetica,sans-Serif" font-size="10.00">get_install_options</text>
</a>
</g>
</g>
<!-- Node1&#45;&gt;Node1 -->
<g id="edge1" class="edge">
<title>Node1&#45;&gt;Node1</title>
<path fill="none" stroke="midnightblue" d="M26.5,-124.76C15.55,-133.57 23.05,-143 49,-143 66.03,-143 75.11,-138.94 76.25,-133.65"/>
<polygon fill="midnightblue" stroke="midnightblue" points="79.3,-131.93 71.5,-124.76 73.12,-135.23 79.3,-131.93"/>
</g>
<!-- Node2 -->
<g id="node2" class="node">
<title>Node2</title>
<g id="a_node2"><a xlink:href="classrare_1_1components_1_1tabs_1_1downloads_1_1_downloads_tab.html#ae7c3da1b257767f97a06a0f0f679036e" target="_top" xlink:title=" ">
<polygon fill="white" stroke="black" points="134,-105.5 134,-124.5 256,-124.5 256,-105.5 134,-105.5"/>
<text text-anchor="middle" x="195" y="-112.5" font-family="Helvetica,sans-Serif" font-size="10.00">on_install_dialog_closed</text>
</a>
</g>
</g>
<!-- Node1&#45;&gt;Node2 -->
<g id="edge2" class="edge">
<title>Node1&#45;&gt;Node2</title>
<path fill="none" stroke="midnightblue" d="M98.35,-115C106.51,-115 115.13,-115 123.72,-115"/>
<polygon fill="midnightblue" stroke="midnightblue" points="123.75,-118.5 133.75,-115 123.75,-111.5 123.75,-118.5"/>
</g>
<!-- Node2&#45;&gt;Node2 -->
<g id="edge29" class="edge">
<title>Node2&#45;&gt;Node2</title>
<path fill="none" stroke="midnightblue" d="M172.5,-124.76C161.55,-133.57 169.05,-143 195,-143 212.03,-143 221.11,-138.94 222.25,-133.65"/>
<polygon fill="midnightblue" stroke="midnightblue" points="225.3,-131.93 217.5,-124.76 219.12,-135.23 225.3,-131.93"/>
</g>
<!-- Node3 -->
<g id="node3" class="node">
<title>Node3</title>
<g id="a_node3"><a xlink:href="classrare_1_1components_1_1tabs_1_1games_1_1game__info_1_1game__dlc_1_1_game_dlc_widget.html#abb32e37b8ffc3927ad711556854f45cb" target="_top" xlink:title=" ">
<polygon fill="white" stroke="black" points="292,-173 292,-203 504,-203 504,-173 292,-173"/>
<text text-anchor="start" x="300" y="-191" font-family="Helvetica,sans-Serif" font-size="10.00">rare.components.tabs.games.game</text>
<text text-anchor="middle" x="398" y="-180" font-family="Helvetica,sans-Serif" font-size="10.00">_info.game_dlc.GameDlcWidget.install_game</text>
</a>
</g>
</g>
<!-- Node2&#45;&gt;Node3 -->
<g id="edge3" class="edge">
<title>Node2&#45;&gt;Node3</title>
<path fill="none" stroke="midnightblue" d="M212.14,-124.52C230.81,-135.18 262.75,-152.37 292,-163 299.18,-165.61 306.74,-168.02 314.37,-170.24"/>
<polygon fill="midnightblue" stroke="midnightblue" points="313.49,-173.62 324.06,-172.93 315.36,-166.88 313.49,-173.62"/>
</g>
<!-- Node6 -->
<g id="node6" class="node">
<title>Node6</title>
<g id="a_node6"><a xlink:href="classrare_1_1shared_1_1rare__core_1_1_rare_core.html#a135560fc58fcc2e5cff07ec25c23a06c" target="_top" xlink:title=" ">
<polygon fill="white" stroke="black" points="774.5,-89 774.5,-119 904.5,-119 904.5,-89 774.5,-89"/>
<text text-anchor="start" x="782.5" y="-107" font-family="Helvetica,sans-Serif" font-size="10.00">rare.shared.rare_core.Rare</text>
<text text-anchor="middle" x="839.5" y="-96" font-family="Helvetica,sans-Serif" font-size="10.00">Core.signals</text>
</a>
</g>
</g>
<!-- Node2&#45;&gt;Node6 -->
<g id="edge30" class="edge">
<title>Node2&#45;&gt;Node6</title>
<path fill="none" stroke="midnightblue" d="M219.59,-105.42C238.74,-98.19 266.63,-88.87 292,-85 459.29,-59.47 658.57,-78.7 764.18,-92.74"/>
<polygon fill="midnightblue" stroke="midnightblue" points="763.73,-96.21 774.11,-94.08 764.67,-89.28 763.73,-96.21"/>
</g>
<!-- Node9 -->
<g id="node9" class="node">
<title>Node9</title>
<g id="a_node9"><a xlink:href="classrare_1_1components_1_1tabs_1_1games_1_1game__info_1_1uninstalled__info_1_1_uninstalled_info.html#abb32e37b8ffc3927ad711556854f45cb" target="_top" xlink:title=" ">
<polygon fill="white" stroke="black" points="314.5,-94.5 314.5,-135.5 481.5,-135.5 481.5,-94.5 314.5,-94.5"/>
<text text-anchor="start" x="322.5" y="-123.5" font-family="Helvetica,sans-Serif" font-size="10.00">rare.components.tabs.games.game</text>
<text text-anchor="start" x="322.5" y="-112.5" font-family="Helvetica,sans-Serif" font-size="10.00">_info.uninstalled_info.Uninstalled</text>
<text text-anchor="middle" x="398" y="-101.5" font-family="Helvetica,sans-Serif" font-size="10.00">Info.install_game</text>
</a>
</g>
</g>
<!-- Node2&#45;&gt;Node9 -->
<g id="edge15" class="edge">
<title>Node2&#45;&gt;Node9</title>
<path fill="none" stroke="midnightblue" d="M256.03,-115C271.17,-115 287.78,-115 304.11,-115"/>
<polygon fill="midnightblue" stroke="midnightblue" points="304.23,-118.5 314.23,-115 304.23,-111.5 304.23,-118.5"/>
</g>
<!-- Node10 -->
<g id="node10" class="node">
<title>Node10</title>
<g id="a_node10"><a xlink:href="classrare_1_1components_1_1tabs_1_1downloads_1_1_downloads_tab.html#a66eac4632760c14c4544b244b2108e93" target="_top" xlink:title=" ">
<polygon fill="white" stroke="black" points="362.5,-0.5 362.5,-19.5 433.5,-19.5 433.5,-0.5 362.5,-0.5"/>
<text text-anchor="middle" x="398" y="-7.5" font-family="Helvetica,sans-Serif" font-size="10.00">install_game</text>
</a>
</g>
</g>
<!-- Node2&#45;&gt;Node10 -->
<g id="edge18" class="edge">
<title>Node2&#45;&gt;Node10</title>
<path fill="none" stroke="midnightblue" d="M208.85,-105.36C226.8,-92.19 260.71,-68.31 292,-52 313.54,-40.77 338.79,-30.58 359.13,-23.05"/>
<polygon fill="midnightblue" stroke="midnightblue" points="360.49,-26.28 368.69,-19.58 358.09,-19.71 360.49,-26.28"/>
</g>
<!-- Node12 -->
<g id="node12" class="node">
<title>Node12</title>
<g id="a_node12"><a xlink:href="classrare_1_1lgndr_1_1cli_1_1_legendary_c_l_i.html#a4aaa726f3b4643dc9fc5f027294fc9c9" target="_top" xlink:title=" ">
<polygon fill="white" stroke="black" points="340,-295 340,-325 456,-325 456,-295 340,-295"/>
<text text-anchor="start" x="348" y="-313" font-family="Helvetica,sans-Serif" font-size="10.00">rare.lgndr.cli.Legendary</text>
<text text-anchor="middle" x="398" y="-302" font-family="Helvetica,sans-Serif" font-size="10.00">CLI.install_game</text>
</a>
</g>
</g>
<!-- Node2&#45;&gt;Node12 -->
<g id="edge22" class="edge">
<title>Node2&#45;&gt;Node12</title>
<path fill="none" stroke="midnightblue" d="M202.79,-124.66C217.61,-145.41 254.56,-195.26 292,-231 314.77,-252.74 343.5,-273.99 365.15,-288.97"/>
<polygon fill="midnightblue" stroke="midnightblue" points="363.43,-292.04 373.66,-294.79 367.38,-286.26 363.43,-292.04"/>
</g>
<!-- Node3&#45;&gt;Node3 -->
<g id="edge14" class="edge">
<title>Node3&#45;&gt;Node3</title>
<path fill="none" stroke="midnightblue" d="M362.8,-203.16C354.31,-212.56 366.04,-221.5 398,-221.5 417.47,-221.5 429.44,-218.18 433.89,-213.46"/>
<polygon fill="midnightblue" stroke="midnightblue" points="437.36,-212.9 433.2,-203.16 430.38,-213.37 437.36,-212.9"/>
</g>
<!-- Node4 -->
<g id="node4" class="node">
<title>Node4</title>
<g id="a_node4"><a xlink:href="classrare_1_1components_1_1tabs_1_1games_1_1game__info_1_1game__dlc_1_1_game_dlc.html#ad3e66f623ddf8df77ec747a6f860526d" target="_top" xlink:title=" ">
<polygon fill="white" stroke="black" points="547.5,-133 547.5,-163 714.5,-163 714.5,-133 547.5,-133"/>
<text text-anchor="start" x="555.5" y="-151" font-family="Helvetica,sans-Serif" font-size="10.00">rare.components.tabs.games.game</text>
<text text-anchor="middle" x="631" y="-140" font-family="Helvetica,sans-Serif" font-size="10.00">_info.game_dlc.GameDlc.install</text>
</a>
</g>
</g>
<!-- Node3&#45;&gt;Node4 -->
<g id="edge4" class="edge">
<title>Node3&#45;&gt;Node4</title>
<path fill="none" stroke="midnightblue" d="M485.67,-172.99C502.58,-170.06 520.37,-166.98 537.46,-164.02"/>
<polygon fill="midnightblue" stroke="midnightblue" points="538.18,-167.45 547.43,-162.3 536.98,-160.56 538.18,-167.45"/>
</g>
<!-- Node7 -->
<g id="node7" class="node">
<title>Node7</title>
<g id="a_node7"><a xlink:href="classrare_1_1components_1_1tabs_1_1games_1_1game__widgets_1_1base__uninstalled__widget_1_1_base_uninstalled_widget.html#a0ac02141fcf00adc3945e2ccb01fb2c1" target="_top" xlink:title=" ">
<polygon fill="white" stroke="black" points="540,-200.5 540,-241.5 722,-241.5 722,-200.5 540,-200.5"/>
<text text-anchor="start" x="548" y="-229.5" font-family="Helvetica,sans-Serif" font-size="10.00">rare.components.tabs.games.game</text>
<text text-anchor="start" x="548" y="-218.5" font-family="Helvetica,sans-Serif" font-size="10.00">_widgets.base_uninstalled</text>
<text text-anchor="middle" x="631" y="-207.5" font-family="Helvetica,sans-Serif" font-size="10.00">_widget.BaseUninstalledWidget.install</text>
</a>
</g>
</g>
<!-- Node3&#45;&gt;Node7 -->
<g id="edge10" class="edge">
<title>Node3&#45;&gt;Node7</title>
<path fill="none" stroke="midnightblue" d="M504.02,-203C512.59,-204.23 521.23,-205.46 529.76,-206.68"/>
<polygon fill="midnightblue" stroke="midnightblue" points="529.32,-210.15 539.72,-208.1 530.31,-203.22 529.32,-210.15"/>
</g>
<!-- Node4&#45;&gt;Node4 -->
<g id="edge7" class="edge">
<title>Node4&#45;&gt;Node4</title>
<path fill="none" stroke="midnightblue" d="M594.75,-163.16C586.01,-172.56 598.09,-181.5 631,-181.5 651.05,-181.5 663.37,-178.18 667.96,-173.46"/>
<polygon fill="midnightblue" stroke="midnightblue" points="671.43,-172.89 667.25,-163.16 664.45,-173.38 671.43,-172.89"/>
</g>
<!-- Node5 -->
<g id="node5" class="node">
<title>Node5</title>
<g id="a_node5"><a xlink:href="classrare_1_1shared_1_1rare__core_1_1_rare_core.html#a405e1a4f20f16120f872ccd2654a1d56" target="_top" xlink:title=" ">
<polygon fill="white" stroke="black" points="774.5,-273 774.5,-303 904.5,-303 904.5,-273 774.5,-273"/>
<text text-anchor="start" x="782.5" y="-291" font-family="Helvetica,sans-Serif" font-size="10.00">rare.shared.rare_core.Rare</text>
<text text-anchor="middle" x="839.5" y="-280" font-family="Helvetica,sans-Serif" font-size="10.00">Core.core</text>
</a>
</g>
</g>
<!-- Node4&#45;&gt;Node5 -->
<g id="edge5" class="edge">
<title>Node4&#45;&gt;Node5</title>
<path fill="none" stroke="midnightblue" d="M678.27,-163.09C693.58,-169.79 709.8,-178.95 722,-191 747.74,-216.42 730.36,-240.66 758,-264 760.37,-266.01 762.91,-267.84 765.57,-269.53"/>
<polygon fill="midnightblue" stroke="midnightblue" points="763.96,-272.64 774.4,-274.4 767.34,-266.51 763.96,-272.64"/>
</g>
<!-- Node4&#45;&gt;Node6 -->
<g id="edge8" class="edge">
<title>Node4&#45;&gt;Node6</title>
<path fill="none" stroke="midnightblue" d="M702.49,-132.98C722.38,-128.74 744.08,-124.12 764.19,-119.83"/>
<polygon fill="midnightblue" stroke="midnightblue" points="765.17,-123.2 774.22,-117.7 763.71,-116.36 765.17,-123.2"/>
</g>
<!-- Node5&#45;&gt;Node5 -->
<g id="edge6" class="edge">
<title>Node5&#45;&gt;Node5</title>
<path fill="none" stroke="midnightblue" d="M803.25,-303.16C794.51,-312.56 806.59,-321.5 839.5,-321.5 859.55,-321.5 871.87,-318.18 876.46,-313.46"/>
<polygon fill="midnightblue" stroke="midnightblue" points="879.93,-312.89 875.75,-303.16 872.95,-313.38 879.93,-312.89"/>
</g>
<!-- Node6&#45;&gt;Node6 -->
<g id="edge9" class="edge">
<title>Node6&#45;&gt;Node6</title>
<path fill="none" stroke="midnightblue" d="M803.25,-119.16C794.51,-128.56 806.59,-137.5 839.5,-137.5 859.55,-137.5 871.87,-134.18 876.46,-129.46"/>
<polygon fill="midnightblue" stroke="midnightblue" points="879.93,-128.89 875.75,-119.16 872.95,-129.38 879.93,-128.89"/>
</g>
<!-- Node7&#45;&gt;Node7 -->
<g id="edge11" class="edge">
<title>Node7&#45;&gt;Node7</title>
<path fill="none" stroke="midnightblue" d="M592.77,-241.86C588.6,-251.54 601.34,-260 631,-260 649.54,-260 661.46,-256.7 666.79,-251.86"/>
<polygon fill="midnightblue" stroke="midnightblue" points="670.25,-252.41 669.23,-241.86 663.45,-250.75 670.25,-252.41"/>
</g>
<!-- Node8 -->
<g id="node8" class="node">
<title>Node8</title>
<g id="a_node8"><a xlink:href="classrare_1_1components_1_1tabs_1_1games_1_1_games_tab.html#a8e8b8383bfb0203281dfa30f18213235" target="_top" xlink:title=" ">
<polygon fill="white" stroke="black" points="758,-206 758,-236 921,-236 921,-206 758,-206"/>
<text text-anchor="start" x="766" y="-224" font-family="Helvetica,sans-Serif" font-size="10.00">rare.components.tabs.games.</text>
<text text-anchor="middle" x="839.5" y="-213" font-family="Helvetica,sans-Serif" font-size="10.00">GamesTab.show_uninstalled_info</text>
</a>
</g>
</g>
<!-- Node7&#45;&gt;Node8 -->
<g id="edge12" class="edge">
<title>Node7&#45;&gt;Node8</title>
<path fill="none" stroke="midnightblue" d="M722.27,-221C730.68,-221 739.21,-221 747.63,-221"/>
<polygon fill="midnightblue" stroke="midnightblue" points="747.82,-224.5 757.82,-221 747.82,-217.5 747.82,-224.5"/>
</g>
<!-- Node8&#45;&gt;Node8 -->
<g id="edge13" class="edge">
<title>Node8&#45;&gt;Node8</title>
<path fill="none" stroke="midnightblue" d="M803.25,-236.16C794.51,-245.56 806.59,-254.5 839.5,-254.5 859.55,-254.5 871.87,-251.18 876.46,-246.46"/>
<polygon fill="midnightblue" stroke="midnightblue" points="879.93,-245.89 875.75,-236.16 872.95,-246.38 879.93,-245.89"/>
</g>
<!-- Node9&#45;&gt;Node6 -->
<g id="edge17" class="edge">
<title>Node9&#45;&gt;Node6</title>
<path fill="none" stroke="midnightblue" d="M481.67,-112.93C562.93,-110.9 685.85,-107.82 764.13,-105.86"/>
<polygon fill="midnightblue" stroke="midnightblue" points="764.48,-109.35 774.39,-105.6 764.31,-102.36 764.48,-109.35"/>
</g>
<!-- Node9&#45;&gt;Node9 -->
<g id="edge16" class="edge">
<title>Node9&#45;&gt;Node9</title>
<path fill="none" stroke="midnightblue" d="M360.87,-135.86C356.82,-145.54 369.2,-154 398,-154 416,-154 427.58,-150.7 432.75,-145.86"/>
<polygon fill="midnightblue" stroke="midnightblue" points="436.22,-146.4 435.13,-135.86 429.41,-144.78 436.22,-146.4"/>
</g>
<!-- Node10&#45;&gt;Node10 -->
<g id="edge19" class="edge">
<title>Node10&#45;&gt;Node10</title>
<path fill="none" stroke="midnightblue" d="M366.87,-19.76C351.72,-28.57 362.1,-38 398,-38 423.24,-38 435.87,-33.34 435.87,-27.5"/>
<polygon fill="midnightblue" stroke="midnightblue" points="438.34,-25 429.13,-19.76 433.06,-29.6 438.34,-25"/>
</g>
<!-- Node11 -->
<g id="node11" class="node">
<title>Node11</title>
<g id="a_node11"><a xlink:href="classrare_1_1components_1_1tabs_1_1downloads_1_1_downloads_tab.html#ad220cc0780ac6b0d74f99652344b4e3a" target="_top" xlink:title=" ">
<polygon fill="white" stroke="black" points="587,-0.5 587,-19.5 675,-19.5 675,-0.5 587,-0.5"/>
<text text-anchor="middle" x="631" y="-7.5" font-family="Helvetica,sans-Serif" font-size="10.00">start_installation</text>
</a>
</g>
</g>
<!-- Node10&#45;&gt;Node11 -->
<g id="edge20" class="edge">
<title>Node10&#45;&gt;Node11</title>
<path fill="none" stroke="midnightblue" d="M433.58,-10C471.45,-10 532.64,-10 576.67,-10"/>
<polygon fill="midnightblue" stroke="midnightblue" points="576.91,-13.5 586.91,-10 576.91,-6.5 576.91,-13.5"/>
</g>
<!-- Node11&#45;&gt;Node11 -->
<g id="edge21" class="edge">
<title>Node11&#45;&gt;Node11</title>
<path fill="none" stroke="midnightblue" d="M599.2,-19.61C583.23,-28.46 593.83,-38 631,-38 657.72,-38 670.71,-33.07 669.97,-27.01"/>
<polygon fill="midnightblue" stroke="midnightblue" points="672.27,-24.36 662.8,-19.61 667.24,-29.23 672.27,-24.36"/>
</g>
<!-- Node12&#45;&gt;Node5 -->
<g id="edge23" class="edge">
<title>Node12&#45;&gt;Node5</title>
<path fill="none" stroke="midnightblue" d="M456.01,-307.15C534.87,-303.2 677.36,-296.07 764.4,-291.71"/>
<polygon fill="midnightblue" stroke="midnightblue" points="764.66,-295.2 774.47,-291.21 764.31,-288.21 764.66,-295.2"/>
</g>
<!-- Node12&#45;&gt;Node12 -->
<g id="edge24" class="edge">
<title>Node12&#45;&gt;Node12</title>
<path fill="none" stroke="midnightblue" d="M362.8,-325.16C354.31,-334.56 366.04,-343.5 398,-343.5 417.47,-343.5 429.44,-340.18 433.89,-335.46"/>
<polygon fill="midnightblue" stroke="midnightblue" points="437.36,-334.9 433.2,-325.16 430.38,-335.37 437.36,-334.9"/>
</g>
<!-- Node13 -->
<g id="node13" class="node">
<title>Node13</title>
<g id="a_node13"><a xlink:href="classrare_1_1lgndr_1_1cli_1_1_legendary_c_l_i.html#a7de93b9e2b51b491d5c70be49680f66d" target="_top" xlink:title=" ">
<polygon fill="white" stroke="black" points="567,-317 567,-347 695,-347 695,-317 567,-317"/>
<text text-anchor="start" x="575" y="-335" font-family="Helvetica,sans-Serif" font-size="10.00">rare.lgndr.cli.Legendary</text>
<text text-anchor="middle" x="631" y="-324" font-family="Helvetica,sans-Serif" font-size="10.00">CLI.install_game_cleanup</text>
</a>
</g>
</g>
<!-- Node12&#45;&gt;Node13 -->
<g id="edge25" class="edge">
<title>Node12&#45;&gt;Node13</title>
<path fill="none" stroke="midnightblue" d="M456.1,-309.52C486.36,-311.46 523.88,-314.89 556.31,-318.64"/>
<polygon fill="midnightblue" stroke="midnightblue" points="556.3,-322.17 566.65,-319.87 557.13,-315.21 556.3,-322.17"/>
</g>
<!-- Node13&#45;&gt;Node5 -->
<g id="edge26" class="edge">
<title>Node13&#45;&gt;Node5</title>
<path fill="none" stroke="midnightblue" d="M695.08,-318.56C716.98,-313.89 741.74,-308.62 764.45,-303.78"/>
<polygon fill="midnightblue" stroke="midnightblue" points="765.33,-307.17 774.38,-301.66 763.87,-300.32 765.33,-307.17"/>
</g>
<!-- Node13&#45;&gt;Node12 -->
<g id="edge27" class="edge">
<title>Node13&#45;&gt;Node12</title>
<path fill="none" stroke="midnightblue" d="M566.65,-332.06C535.46,-329.93 497.85,-326.38 466.17,-322.59"/>
<polygon fill="midnightblue" stroke="midnightblue" points="466.45,-319.1 456.1,-321.35 465.6,-326.05 466.45,-319.1"/>
</g>
<!-- Node13&#45;&gt;Node13 -->
<g id="edge28" class="edge">
<title>Node13&#45;&gt;Node13</title>
<path fill="none" stroke="midnightblue" d="M594.75,-347.16C586.01,-356.56 598.09,-365.5 631,-365.5 651.05,-365.5 663.37,-362.18 667.96,-357.46"/>
<polygon fill="midnightblue" stroke="midnightblue" points="671.43,-356.89 667.25,-347.16 664.45,-357.38 671.43,-356.89"/>
</g>
</g>
</svg>
        <g id="navigator" transform="translate(0 0)" fill="#404254">
                <rect fill="#f2f5e9" fill-opacity="0.5" stroke="#606060" stroke-width=".5" x="0" y="0" width="60" height="60"/>
                <use id="zoomplus" xlink:href="#zoomPlus" x="17" y="9" onmousedown="handleZoom(evt,'in')"/>
                <use id="zoomminus" xlink:href="#zoomMin" x="42" y="9" onmousedown="handleZoom(evt,'out')"/>
                <use id="reset" xlink:href="#resetDef" x="30" y="36" onmousedown="handleReset()"/>
                <g id="arrowUp" xlink:href="#dirArrow" transform="translate(30 24)" onmousedown="handlePan(0,-1)">
                  <use xlink:href="#rim" fill="#404040">
                        <set attributeName="fill" to="#808080" begin="arrowUp.mouseover" end="arrowUp.mouseout"/>
                  </use>
                  <path fill="none" stroke="white" stroke-width="1.5" d="M0,-3.0v7 M-2.5,-0.5L0,-3.0L2.5,-0.5"/>
                </g>
                <g id="arrowRight" xlink:href="#dirArrow" transform="rotate(90) translate(36 -43)" onmousedown="handlePan(1,0)">
                  <use xlink:href="#rim" fill="#404040">
                        <set attributeName="fill" to="#808080" begin="arrowRight.mouseover" end="arrowRight.mouseout"/>
                  </use>
                  <path fill="none" stroke="white" stroke-width="1.5" d="M0,-3.0v7 M-2.5,-0.5L0,-3.0L2.5,-0.5"/>
                </g>
                <g id="arrowDown" xlink:href="#dirArrow" transform="rotate(180) translate(-30 -48)" onmousedown="handlePan(0,1)">
                  <use xlink:href="#rim" fill="#404040">
                        <set attributeName="fill" to="#808080" begin="arrowDown.mouseover" end="arrowDown.mouseout"/>
                  </use>
                  <path fill="none" stroke="white" stroke-width="1.5" d="M0,-3.0v7 M-2.5,-0.5L0,-3.0L2.5,-0.5"/>
                </g>
                <g id="arrowLeft" xlink:href="#dirArrow" transform="rotate(270) translate(-36 17)" onmousedown="handlePan(-1,0)">
                  <use xlink:href="#rim" fill="#404040">
                        <set attributeName="fill" to="#808080" begin="arrowLeft.mouseover" end="arrowLeft.mouseout"/>
                  </use>
                  <path fill="none" stroke="white" stroke-width="1.5" d="M0,-3.0v7 M-2.5,-0.5L0,-3.0L2.5,-0.5"/>
                </g>
        </g>
        <svg viewBox="0 0 15 15" width="100%" height="30px" preserveAspectRatio="xMaxYMin meet">
         <g id="arrow_out" transform="scale(0.3 0.3)">
          <a xlink:href="classrare_1_1components_1_1tabs_1_1downloads_1_1_downloads_tab_a34dfac3ae00e55c098b07fd107a14daa_cgraph_org.svg" target="_base">
           <rect id="button" ry="5" rx="5" y="6" x="6" height="38" width="38"
                fill="#f2f5e9" fill-opacity="0.5" stroke="#606060" stroke-width="1.0"/>
           <path id="arrow"
             d="M 11.500037,31.436501 C 11.940474,20.09759 22.043105,11.32322 32.158766,21.979434 L 37.068811,17.246167 C 37.068811,17.246167 37.088388,32 37.088388,32 L 22.160133,31.978069 C 22.160133,31.978069 26.997745,27.140456 26.997745,27.140456 C 18.528582,18.264221 13.291696,25.230495 11.500037,31.436501 z"
             style="fill:#404040;"/>
          </a>
         </g>
        </svg>
</svg>
