<?xml version="1.0" encoding="UTF-8" standalone="no"?>
<!DOCTYPE svg PUBLIC "-//W3C//DTD SVG 1.1//EN"
 "http://www.w3.org/Graphics/SVG/1.1/DTD/svg11.dtd">
<!-- Generated by graphviz version 2.49.3 (20211027.1534)
 -->
<!-- Title: __init__ Pages: 1 -->
<svg width="416pt" height="304pt"
 viewBox="0.00 0.00 416.34 303.50" xmlns="http://www.w3.org/2000/svg" xmlns:xlink="http://www.w3.org/1999/xlink">
<g id="graph0" class="graph" transform="scale(1 1) rotate(0) translate(4 299.5)">
<title>__init__</title>
<polygon fill="white" stroke="transparent" points="-4,4 -4,-299.5 412.34,-299.5 412.34,4 -4,4"/>
<!-- Node1 -->
<g id="node1" class="node">
<title>Node1</title>
<g id="a_node1"><a xlink:title=" ">
<polygon fill="#bfbfbf" stroke="black" points="5.34,-140 5.34,-159 55.34,-159 55.34,-140 5.34,-140"/>
<text text-anchor="middle" x="30.34" y="-147" font-family="Helvetica,sans-Serif" font-size="10.00">__init__</text>
</a>
</g>
</g>
<!-- Node1&#45;&gt;Node1 -->
<g id="edge1" class="edge">
<title>Node1&#45;&gt;Node1</title>
<path fill="none" stroke="midnightblue" d="M5.68,-159.26C-6.32,-168.07 1.9,-177.5 30.34,-177.5 49.45,-177.5 59.43,-173.24 60.28,-167.77"/>
<polygon fill="midnightblue" stroke="midnightblue" points="63.24,-165.91 55,-159.26 57.29,-169.6 63.24,-165.91"/>
</g>
<!-- Node2 -->
<g id="node2" class="node">
<title>Node2</title>
<g id="a_node2"><a xlink:href="classrare_1_1widgets_1_1elide__label_1_1_elide_label.html#aad69b7a2ccd3b4aa49ddfb04545a0b7e" target="_top" xlink:title=" ">
<polygon fill="white" stroke="black" points="150.84,-258 150.84,-277 232.84,-277 232.84,-258 150.84,-258"/>
<text text-anchor="middle" x="191.84" y="-265" font-family="Helvetica,sans-Serif" font-size="10.00">setFixedHeight</text>
</a>
</g>
</g>
<!-- Node1&#45;&gt;Node2 -->
<g id="edge2" class="edge">
<title>Node1&#45;&gt;Node2</title>
<path fill="none" stroke="midnightblue" d="M34.25,-159.25C40.82,-179.46 58.83,-225.91 91.34,-248.5 105.57,-258.39 123.59,-263.48 140.37,-266"/>
<polygon fill="midnightblue" stroke="midnightblue" points="140.26,-269.52 150.62,-267.26 141.12,-262.57 140.26,-269.52"/>
</g>
<!-- Node3 -->
<g id="node3" class="node">
<title>Node3</title>
<g id="a_node3"><a xlink:href="classrare_1_1widgets_1_1elide__label_1_1_elide_label.html#aa25390a39bbdce0c91c93bb8adac619b" target="_top" xlink:title=" ">
<polygon fill="white" stroke="black" points="167.34,-202 167.34,-221 216.34,-221 216.34,-202 167.34,-202"/>
<text text-anchor="middle" x="191.84" y="-209" font-family="Helvetica,sans-Serif" font-size="10.00">setText</text>
</a>
</g>
</g>
<!-- Node1&#45;&gt;Node3 -->
<g id="edge4" class="edge">
<title>Node1&#45;&gt;Node3</title>
<path fill="none" stroke="midnightblue" d="M42.01,-159.05C53.41,-168.73 72.4,-183.39 91.34,-191.5 112.21,-200.44 137.28,-205.44 157.03,-208.21"/>
<polygon fill="midnightblue" stroke="midnightblue" points="156.75,-211.7 167.11,-209.5 157.63,-204.76 156.75,-211.7"/>
</g>
<!-- Node6 -->
<g id="node6" class="node">
<title>Node6</title>
<g id="a_node6"><a xlink:href="classrare_1_1widgets_1_1collapsible__widget_1_1_collapsible_frame.html#aa1ce5c203733553579a07cf1db0da9df" target="_top" xlink:title=" ">
<polygon fill="white" stroke="black" points="110.84,-134.5 110.84,-164.5 272.84,-164.5 272.84,-134.5 110.84,-134.5"/>
<text text-anchor="start" x="118.84" y="-152.5" font-family="Helvetica,sans-Serif" font-size="10.00">rare.widgets.collapsible</text>
<text text-anchor="middle" x="191.84" y="-141.5" font-family="Helvetica,sans-Serif" font-size="10.00">_widget.CollapsibleFrame.setText</text>
</a>
</g>
</g>
<!-- Node1&#45;&gt;Node6 -->
<g id="edge9" class="edge">
<title>Node1&#45;&gt;Node6</title>
<path fill="none" stroke="midnightblue" d="M55.56,-149.5C67.91,-149.5 83.77,-149.5 100.26,-149.5"/>
<polygon fill="midnightblue" stroke="midnightblue" points="100.58,-153 110.58,-149.5 100.58,-146 100.58,-153"/>
</g>
<!-- Node7 -->
<g id="node7" class="node">
<title>Node7</title>
<g id="a_node7"><a xlink:href="classrare_1_1widgets_1_1indicator__edit_1_1_indicator_line_edit.html#aa1ce5c203733553579a07cf1db0da9df" target="_top" xlink:title=" ">
<polygon fill="white" stroke="black" points="118.34,-67.5 118.34,-97.5 265.34,-97.5 265.34,-67.5 118.34,-67.5"/>
<text text-anchor="start" x="126.34" y="-85.5" font-family="Helvetica,sans-Serif" font-size="10.00">rare.widgets.indicator</text>
<text text-anchor="middle" x="191.84" y="-74.5" font-family="Helvetica,sans-Serif" font-size="10.00">_edit.IndicatorLineEdit.setText</text>
</a>
</g>
</g>
<!-- Node1&#45;&gt;Node7 -->
<g id="edge11" class="edge">
<title>Node1&#45;&gt;Node7</title>
<path fill="none" stroke="midnightblue" d="M54.19,-139.9C77.98,-129.91 115.85,-114 145.7,-101.46"/>
<polygon fill="midnightblue" stroke="midnightblue" points="147.21,-104.62 155.08,-97.52 144.5,-98.17 147.21,-104.62"/>
</g>
<!-- Node8 -->
<g id="node8" class="node">
<title>Node8</title>
<g id="a_node8"><a xlink:href="classrare_1_1components_1_1tabs_1_1library_1_1details_1_1details_1_1_game_tag_check_box.html#ac6d573c455e1ee6bdc8b9e7573b7923c" target="_top" xlink:title=" ">
<polygon fill="white" stroke="black" points="91.34,-0.5 91.34,-30.5 292.34,-30.5 292.34,-0.5 91.34,-0.5"/>
<text text-anchor="start" x="99.34" y="-18.5" font-family="Helvetica,sans-Serif" font-size="10.00">rare.components.tabs.library.details.details.</text>
<text text-anchor="middle" x="191.84" y="-7.5" font-family="Helvetica,sans-Serif" font-size="10.00">GameTagCheckBox.setText</text>
</a>
</g>
</g>
<!-- Node1&#45;&gt;Node8 -->
<g id="edge13" class="edge">
<title>Node1&#45;&gt;Node8</title>
<path fill="none" stroke="midnightblue" d="M35.32,-139.82C43.34,-121.41 63.1,-81.1 91.34,-57.5 102.62,-48.07 116.32,-40.48 129.91,-34.48"/>
<polygon fill="midnightblue" stroke="midnightblue" points="131.38,-37.66 139.26,-30.58 128.69,-31.2 131.38,-37.66"/>
</g>
<!-- Node2&#45;&gt;Node2 -->
<g id="edge3" class="edge">
<title>Node2&#45;&gt;Node2</title>
<path fill="none" stroke="midnightblue" d="M167.18,-277.26C155.18,-286.07 163.4,-295.5 191.84,-295.5 210.95,-295.5 220.93,-291.24 221.78,-285.77"/>
<polygon fill="midnightblue" stroke="midnightblue" points="224.74,-283.91 216.5,-277.26 218.79,-287.6 224.74,-283.91"/>
</g>
<!-- Node3&#45;&gt;Node3 -->
<g id="edge6" class="edge">
<title>Node3&#45;&gt;Node3</title>
<path fill="none" stroke="midnightblue" d="M167.18,-221.26C155.18,-230.07 163.4,-239.5 191.84,-239.5 210.95,-239.5 220.93,-235.24 221.78,-229.77"/>
<polygon fill="midnightblue" stroke="midnightblue" points="224.74,-227.91 216.5,-221.26 218.79,-231.6 224.74,-227.91"/>
</g>
<!-- Node4 -->
<g id="node4" class="node">
<title>Node4</title>
<g id="a_node4"><a xlink:href="classrare_1_1widgets_1_1elide__label_1_1_elide_label.html#ad0cb63dd476fec536e87e7176b127a36" target="_top" xlink:title=" ">
<polygon fill="white" stroke="black" points="328.34,-230 328.34,-249 408.34,-249 408.34,-230 328.34,-230"/>
<text text-anchor="middle" x="368.34" y="-237" font-family="Helvetica,sans-Serif" font-size="10.00">__setElideText</text>
</a>
</g>
</g>
<!-- Node3&#45;&gt;Node4 -->
<g id="edge5" class="edge">
<title>Node3&#45;&gt;Node4</title>
<path fill="none" stroke="midnightblue" d="M216.37,-215.28C242.34,-219.44 284.86,-226.27 318.17,-231.61"/>
<polygon fill="midnightblue" stroke="midnightblue" points="317.76,-235.09 328.19,-233.22 318.87,-228.18 317.76,-235.09"/>
</g>
<!-- Node5 -->
<g id="node5" class="node">
<title>Node5</title>
<g id="a_node5"><a xlink:href="classrare_1_1widgets_1_1elide__label_1_1_elide_label.html#a33360da8f4ed32e6e51e3f3490c3a9da" target="_top" xlink:title=" ">
<polygon fill="white" stroke="black" points="337.34,-174 337.34,-193 399.34,-193 399.34,-174 337.34,-174"/>
<text text-anchor="middle" x="368.34" y="-181" font-family="Helvetica,sans-Serif" font-size="10.00">setToolTip</text>
</a>
</g>
</g>
<!-- Node3&#45;&gt;Node5 -->
<g id="edge7" class="edge">
<title>Node3&#45;&gt;Node5</title>
<path fill="none" stroke="midnightblue" d="M216.37,-207.72C244.7,-203.18 292.73,-195.47 327.01,-189.97"/>
<polygon fill="midnightblue" stroke="midnightblue" points="327.85,-193.38 337.17,-188.34 326.74,-186.47 327.85,-193.38"/>
</g>
<!-- Node5&#45;&gt;Node5 -->
<g id="edge8" class="edge">
<title>Node5&#45;&gt;Node5</title>
<path fill="none" stroke="midnightblue" d="M341.21,-193.26C328.02,-202.07 337.06,-211.5 368.34,-211.5 389.85,-211.5 400.84,-207.04 401.32,-201.39"/>
<polygon fill="midnightblue" stroke="midnightblue" points="404.15,-199.33 395.47,-193.26 398.47,-203.42 404.15,-199.33"/>
</g>
<!-- Node6&#45;&gt;Node6 -->
<g id="edge10" class="edge">
<title>Node6&#45;&gt;Node6</title>
<path fill="none" stroke="midnightblue" d="M163.96,-164.66C157.23,-174.06 166.53,-183 191.84,-183 207.26,-183 216.74,-179.68 220.27,-174.96"/>
<polygon fill="midnightblue" stroke="midnightblue" points="223.75,-174.46 219.72,-164.66 216.76,-174.83 223.75,-174.46"/>
</g>
<!-- Node7&#45;&gt;Node7 -->
<g id="edge12" class="edge">
<title>Node7&#45;&gt;Node7</title>
<path fill="none" stroke="midnightblue" d="M163.96,-97.66C157.23,-107.06 166.53,-116 191.84,-116 207.26,-116 216.74,-112.68 220.27,-107.96"/>
<polygon fill="midnightblue" stroke="midnightblue" points="223.75,-107.46 219.72,-97.66 216.76,-107.83 223.75,-107.46"/>
</g>
<!-- Node8&#45;&gt;Node8 -->
<g id="edge14" class="edge">
<title>Node8&#45;&gt;Node8</title>
<path fill="none" stroke="midnightblue" d="M163.96,-30.66C157.23,-40.06 166.53,-49 191.84,-49 207.26,-49 216.74,-45.68 220.27,-40.96"/>
<polygon fill="midnightblue" stroke="midnightblue" points="223.75,-40.46 219.72,-30.66 216.76,-40.83 223.75,-40.46"/>
</g>
</g>
</svg>
