<?xml version="1.0" encoding="UTF-8" standalone="no"?>
<!DOCTYPE svg PUBLIC "-//W3C//DTD SVG 1.1//EN"
 "http://www.w3.org/Graphics/SVG/1.1/DTD/svg11.dtd">
<!-- Generated by graphviz version 2.49.3 (20211027.1534)
 -->
<!-- Title: launch Pages: 1 -->
<!--zoomable 390 -->
<svg id="main" version="1.1" xmlns="http://www.w3.org/2000/svg" xmlns:xlink="http://www.w3.org/1999/xlink" xml:space="preserve" onload="init(evt)">
<style type="text/css"><![CDATA[
.edge:hover path { stroke: red; }
.edge:hover polygon { stroke: red; fill: red; }
]]></style>
<script type="text/javascript"><![CDATA[
var edges = document.getElementsByTagName('g');
if (edges && edges.length) {
  for (var i=0;i<edges.length;i++) {
    if (edges[i].id.substr(0,4)=='edge') {
      edges[i].setAttribute('class','edge');
    }
  }
}
]]></script>
        <defs>
                <circle id="rim" cx="0" cy="0" r="7"/>
                <circle id="rim2" cx="0" cy="0" r="3.5"/>
                <g id="zoomPlus">
                        <use xlink:href="#rim" fill="#404040">
                                <set attributeName="fill" to="#808080" begin="zoomplus.mouseover" end="zoomplus.mouseout"/>
                        </use>
                        <path d="M-4,0h8M0,-4v8" fill="none" stroke="white" stroke-width="1.5" pointer-events="none"/>
                </g>
                <g id="zoomMin">
                        <use xlink:href="#rim" fill="#404040">
                                <set attributeName="fill" to="#808080" begin="zoomminus.mouseover" end="zoomminus.mouseout"/>
                        </use>
                        <path d="M-4,0h8" fill="none" stroke="white" stroke-width="1.5" pointer-events="none"/>
                </g>
                <g id="dirArrow">
                        <path fill="none" stroke="white" stroke-width="1.5" d="M0,-3.0v7 M-2.5,-0.5L0,-3.0L2.5,-0.5"/>
                </g>
               <g id="resetDef">
                       <use xlink:href="#rim2" fill="#404040">
                               <set attributeName="fill" to="#808080" begin="reset.mouseover" end="reset.mouseout"/>
                       </use>
               </g>
        </defs>

<script type="text/javascript">
var viewWidth = 764;
var viewHeight = 390;
var sectionId = 'dynsection-8';
</script>
<script xlink:href="svgpan.js"/>
<svg id="graph" class="graph">
<g id="viewport">
<title>launch</title>
<polygon fill="white" stroke="transparent" points="-4,4 -4,-385.5 759.91,-385.5 759.91,4 -4,4"/>
<!-- Node1 -->
<g id="node1" class="node">
<title>Node1</title>
<g id="a_node1"><a xlink:title=" ">
<polygon fill="#bfbfbf" stroke="black" points="2.91,-181.5 2.91,-200.5 47.91,-200.5 47.91,-181.5 2.91,-181.5"/>
<text text-anchor="middle" x="25.41" y="-188.5" font-family="Helvetica,sans-Serif" font-size="10.00">launch</text>
</a>
</g>
</g>
<!-- Node1&#45;&gt;Node1 -->
<g id="edge18" class="edge">
<title>Node1&#45;&gt;Node1</title>
<path fill="none" stroke="midnightblue" d="M4.76,-200.76C-5.29,-209.57 1.59,-219 25.41,-219 40.67,-219 48.98,-215.13 50.34,-210.03"/>
<polygon fill="midnightblue" stroke="midnightblue" points="53.43,-208.37 46.06,-200.76 47.07,-211.3 53.43,-208.37"/>
</g>
<!-- Node2 -->
<g id="node2" class="node">
<title>Node2</title>
<g id="a_node2"><a xlink:href="classrare_1_1shared_1_1rare__core_1_1_rare_core.html#a673cb72b40e8c1b2dfab6dbc0e0e39e4" target="_top" xlink:title=" ">
<polygon fill="white" stroke="black" points="94.91,-333 94.91,-363 224.91,-363 224.91,-333 94.91,-333"/>
<text text-anchor="start" x="102.91" y="-351" font-family="Helvetica,sans-Serif" font-size="10.00">rare.shared.rare_core.Rare</text>
<text text-anchor="middle" x="159.91" y="-340" font-family="Helvetica,sans-Serif" font-size="10.00">Core.args</text>
</a>
</g>
</g>
<!-- Node1&#45;&gt;Node2 -->
<g id="edge1" class="edge">
<title>Node1&#45;&gt;Node2</title>
<path fill="none" stroke="midnightblue" d="M28.22,-200.71C33.05,-224.08 48.4,-284.04 83.91,-318 87.9,-321.82 92.44,-325.17 97.26,-328.11"/>
<polygon fill="midnightblue" stroke="midnightblue" points="95.73,-331.26 106.19,-332.97 99.08,-325.11 95.73,-331.26"/>
</g>
<!-- Node3 -->
<g id="node3" class="node">
<title>Node3</title>
<g id="a_node3"><a xlink:href="classrare_1_1shared_1_1rare__core_1_1_rare_core.html#a405e1a4f20f16120f872ccd2654a1d56" target="_top" xlink:title=" ">
<polygon fill="white" stroke="black" points="434.91,-285 434.91,-315 564.91,-315 564.91,-285 434.91,-285"/>
<text text-anchor="start" x="442.91" y="-303" font-family="Helvetica,sans-Serif" font-size="10.00">rare.shared.rare_core.Rare</text>
<text text-anchor="middle" x="499.91" y="-292" font-family="Helvetica,sans-Serif" font-size="10.00">Core.core</text>
</a>
</g>
</g>
<!-- Node1&#45;&gt;Node3 -->
<g id="edge3" class="edge">
<title>Node1&#45;&gt;Node3</title>
<path fill="none" stroke="midnightblue" d="M30.21,-200.53C37.62,-217.69 55.79,-253.45 83.91,-269 190.8,-328.1 337.5,-322.66 424.81,-312.15"/>
<polygon fill="midnightblue" stroke="midnightblue" points="425.41,-315.6 434.89,-310.88 424.54,-308.66 425.41,-315.6"/>
</g>
<!-- Node4 -->
<g id="node4" class="node">
<title>Node4</title>
<g id="a_node4"><a xlink:href="classrare_1_1components_1_1dialogs_1_1launch__dialog_1_1_launch_dialog.html#aef61a46ee0001482844bc4bd4a210663" target="_top" xlink:title=" ">
<polygon fill="white" stroke="black" points="480.41,-168.5 480.41,-187.5 519.41,-187.5 519.41,-168.5 480.41,-168.5"/>
<text text-anchor="middle" x="499.91" y="-175.5" font-family="Helvetica,sans-Serif" font-size="10.00">finish</text>
</a>
</g>
</g>
<!-- Node1&#45;&gt;Node4 -->
<g id="edge5" class="edge">
<title>Node1&#45;&gt;Node4</title>
<path fill="none" stroke="midnightblue" d="M48.15,-185.87C58.87,-183.5 72.01,-180.81 83.91,-179 222.55,-157.96 259.18,-149.21 398.91,-161 423.16,-163.05 450.36,-167.84 470.26,-171.81"/>
<polygon fill="midnightblue" stroke="midnightblue" points="469.73,-175.27 480.23,-173.86 471.14,-168.42 469.73,-175.27"/>
</g>
<!-- Node8 -->
<g id="node8" class="node">
<title>Node8</title>
<g id="a_node8"><a xlink:href="classrare_1_1components_1_1dialogs_1_1launch__dialog_1_1_launch_dialog.html#aee4569ca4c897dc7267f45b238710288" target="_top" xlink:title=" ">
<polygon fill="white" stroke="black" points="271.91,-230.5 271.91,-249.5 398.91,-249.5 398.91,-230.5 271.91,-230.5"/>
<text text-anchor="middle" x="335.41" y="-237.5" font-family="Helvetica,sans-Serif" font-size="10.00">handle_api_worker_result</text>
</a>
</g>
</g>
<!-- Node1&#45;&gt;Node8 -->
<g id="edge13" class="edge">
<title>Node1&#45;&gt;Node8</title>
<path fill="none" stroke="midnightblue" d="M32.77,-200.83C42.11,-214.23 60.93,-237.66 83.91,-247 151.36,-274.42 237.66,-263 289.36,-251.8"/>
<polygon fill="midnightblue" stroke="midnightblue" points="290.23,-255.19 299.22,-249.58 288.69,-248.36 290.23,-255.19"/>
</g>
<!-- Node9 -->
<g id="node9" class="node">
<title>Node9</title>
<g id="a_node9"><a xlink:href="namespacerare_1_1app.html#a37fb442592b19edb2dcdd368df2d2d76" target="_top" xlink:title=" ">
<polygon fill="white" stroke="black" points="298.91,-170.5 298.91,-189.5 371.91,-189.5 371.91,-170.5 298.91,-170.5"/>
<text text-anchor="middle" x="335.41" y="-177.5" font-family="Helvetica,sans-Serif" font-size="10.00">rare.app.start</text>
</a>
</g>
</g>
<!-- Node1&#45;&gt;Node9 -->
<g id="edge19" class="edge">
<title>Node1&#45;&gt;Node9</title>
<path fill="none" stroke="midnightblue" d="M48.07,-190.23C97.78,-188.45 220.98,-184.05 288.44,-181.64"/>
<polygon fill="midnightblue" stroke="midnightblue" points="288.9,-185.13 298.77,-181.27 288.65,-178.13 288.9,-185.13"/>
</g>
<!-- Node10 -->
<g id="node10" class="node">
<title>Node10</title>
<g id="a_node10"><a xlink:href="classrare_1_1components_1_1dialogs_1_1launch__dialog_1_1_launch_dialog.html#a56ebc7d291a804d91f54ac948321822d" target="_top" xlink:title=" ">
<polygon fill="white" stroke="black" points="111.41,-200.5 111.41,-219.5 208.41,-219.5 208.41,-200.5 111.41,-200.5"/>
<text text-anchor="middle" x="159.91" y="-207.5" font-family="Helvetica,sans-Serif" font-size="10.00">start_api_requests</text>
</a>
</g>
</g>
<!-- Node1&#45;&gt;Node10 -->
<g id="edge21" class="edge">
<title>Node1&#45;&gt;Node10</title>
<path fill="none" stroke="midnightblue" d="M47.99,-194.09C62.48,-196.17 82.29,-199.01 101.17,-201.72"/>
<polygon fill="midnightblue" stroke="midnightblue" points="100.82,-205.21 111.22,-203.16 101.82,-198.28 100.82,-205.21"/>
</g>
<!-- Node11 -->
<g id="node11" class="node">
<title>Node11</title>
<g id="a_node11"><a xlink:href="classrare_1_1components_1_1dialogs_1_1launch__dialog_1_1_image_worker.html#abfb44fdc3f5ec4c03f5d2e72900deb61" target="_top" xlink:title=" ">
<polygon fill="white" stroke="black" points="83.91,-57 83.91,-87 235.91,-87 235.91,-57 83.91,-57"/>
<text text-anchor="start" x="91.91" y="-75" font-family="Helvetica,sans-Serif" font-size="10.00">rare.components.dialogs.launch</text>
<text text-anchor="middle" x="159.91" y="-64" font-family="Helvetica,sans-Serif" font-size="10.00">_dialog.ImageWorker.tr</text>
</a>
</g>
</g>
<!-- Node1&#45;&gt;Node11 -->
<g id="edge25" class="edge">
<title>Node1&#45;&gt;Node11</title>
<path fill="none" stroke="midnightblue" d="M32.65,-181.46C42.41,-167.01 62.39,-139.24 83.91,-120 95.31,-109.8 109.11,-100.31 121.75,-92.51"/>
<polygon fill="midnightblue" stroke="midnightblue" points="123.92,-95.29 130.69,-87.14 120.31,-89.29 123.92,-95.29"/>
</g>
<!-- Node12 -->
<g id="node12" class="node">
<title>Node12</title>
<g id="a_node12"><a xlink:href="classrare_1_1components_1_1dialogs_1_1launch__dialog_1_1_launch_dialog.html#a06c4b536741879fff3171eae8160d5dc" target="_top" xlink:title=" ">
<polygon fill="white" stroke="black" points="115.41,-0.5 115.41,-19.5 204.41,-19.5 204.41,-0.5 115.41,-0.5"/>
<text text-anchor="middle" x="159.91" y="-7.5" font-family="Helvetica,sans-Serif" font-size="10.00">update_progress</text>
</a>
</g>
</g>
<!-- Node1&#45;&gt;Node12 -->
<g id="edge27" class="edge">
<title>Node1&#45;&gt;Node12</title>
<path fill="none" stroke="midnightblue" d="M27.82,-181.33C31.97,-156.15 46.26,-87.72 83.91,-47 93.26,-36.89 105.97,-29.19 118.27,-23.51"/>
<polygon fill="midnightblue" stroke="midnightblue" points="119.72,-26.7 127.54,-19.55 116.97,-20.26 119.72,-26.7"/>
</g>
<!-- Node2&#45;&gt;Node2 -->
<g id="edge2" class="edge">
<title>Node2&#45;&gt;Node2</title>
<path fill="none" stroke="midnightblue" d="M136.56,-363.16C130.93,-372.56 138.71,-381.5 159.91,-381.5 172.83,-381.5 180.76,-378.18 183.72,-373.46"/>
<polygon fill="midnightblue" stroke="midnightblue" points="187.2,-372.99 183.26,-363.16 180.21,-373.3 187.2,-372.99"/>
</g>
<!-- Node3&#45;&gt;Node3 -->
<g id="edge4" class="edge">
<title>Node3&#45;&gt;Node3</title>
<path fill="none" stroke="midnightblue" d="M471.33,-315.16C464.44,-324.56 473.96,-333.5 499.91,-333.5 515.72,-333.5 525.43,-330.18 529.05,-325.46"/>
<polygon fill="midnightblue" stroke="midnightblue" points="532.53,-324.95 528.49,-315.16 525.54,-325.33 532.53,-324.95"/>
</g>
<!-- Node4&#45;&gt;Node4 -->
<g id="edge10" class="edge">
<title>Node4&#45;&gt;Node4</title>
<path fill="none" stroke="midnightblue" d="M480.29,-184.47C460.54,-194.03 467.08,-206 499.91,-206 526.59,-206 535.91,-198.1 527.87,-190.01"/>
<polygon fill="midnightblue" stroke="midnightblue" points="529.8,-187.09 519.53,-184.47 525.92,-192.92 529.8,-187.09"/>
</g>
<!-- Node5 -->
<g id="node5" class="node">
<title>Node5</title>
<g id="a_node5"><a xlink:href="classrare_1_1shared_1_1rare__core_1_1_rare_core.html#aabbe79631981014e737e83fa4e978346" target="_top" xlink:title=" ">
<polygon fill="white" stroke="black" points="613.41,-225 613.41,-255 743.41,-255 743.41,-225 613.41,-225"/>
<text text-anchor="start" x="621.41" y="-243" font-family="Helvetica,sans-Serif" font-size="10.00">rare.shared.rare_core.Rare</text>
<text text-anchor="middle" x="678.41" y="-232" font-family="Helvetica,sans-Serif" font-size="10.00">Core.api_results</text>
</a>
</g>
</g>
<!-- Node4&#45;&gt;Node5 -->
<g id="edge6" class="edge">
<title>Node4&#45;&gt;Node5</title>
<path fill="none" stroke="midnightblue" d="M519.63,-185.17C539.67,-192.79 572.41,-205.08 600.91,-215 607.29,-217.22 614,-219.5 620.67,-221.73"/>
<polygon fill="midnightblue" stroke="midnightblue" points="619.79,-225.12 630.38,-224.95 621.99,-218.48 619.79,-225.12"/>
</g>
<!-- Node6 -->
<g id="node6" class="node">
<title>Node6</title>
<g id="a_node6"><a xlink:href="namespacerare_1_1shared.html#a85c0c971674daed7d514febc1ef18eb2" target="_top" xlink:title=" ">
<polygon fill="white" stroke="black" points="600.91,-168.5 600.91,-187.5 755.91,-187.5 755.91,-168.5 600.91,-168.5"/>
<text text-anchor="middle" x="678.41" y="-175.5" font-family="Helvetica,sans-Serif" font-size="10.00">rare.shared.ApiResultsSingleton</text>
</a>
</g>
</g>
<!-- Node4&#45;&gt;Node6 -->
<g id="edge8" class="edge">
<title>Node4&#45;&gt;Node6</title>
<path fill="none" stroke="midnightblue" d="M519.46,-178C536.73,-178 563.77,-178 590.62,-178"/>
<polygon fill="midnightblue" stroke="midnightblue" points="590.89,-181.5 600.89,-178 590.89,-174.5 590.89,-181.5"/>
</g>
<!-- Node7 -->
<g id="node7" class="node">
<title>Node7</title>
<g id="a_node7"><a xlink:href="classrare_1_1app_1_1_app.html#a00347c5912221be99bd702b4fc741d29" target="_top" xlink:title=" ">
<polygon fill="white" stroke="black" points="621.91,-112.5 621.91,-131.5 734.91,-131.5 734.91,-112.5 621.91,-112.5"/>
<text text-anchor="middle" x="678.41" y="-119.5" font-family="Helvetica,sans-Serif" font-size="10.00">rare.app.App.start_app</text>
</a>
</g>
</g>
<!-- Node4&#45;&gt;Node7 -->
<g id="edge11" class="edge">
<title>Node4&#45;&gt;Node7</title>
<path fill="none" stroke="midnightblue" d="M519.46,-172.11C547.29,-163.28 600.51,-146.4 637.44,-134.68"/>
<polygon fill="midnightblue" stroke="midnightblue" points="638.91,-137.89 647.39,-131.53 636.8,-131.21 638.91,-137.89"/>
</g>
<!-- Node5&#45;&gt;Node5 -->
<g id="edge7" class="edge">
<title>Node5&#45;&gt;Node5</title>
<path fill="none" stroke="midnightblue" d="M647.39,-255.16C639.91,-264.56 650.25,-273.5 678.41,-273.5 695.57,-273.5 706.11,-270.18 710.04,-265.46"/>
<polygon fill="midnightblue" stroke="midnightblue" points="713.51,-264.94 709.43,-255.16 706.53,-265.35 713.51,-264.94"/>
</g>
<!-- Node6&#45;&gt;Node6 -->
<g id="edge9" class="edge">
<title>Node6&#45;&gt;Node6</title>
<path fill="none" stroke="midnightblue" d="M650.97,-187.76C637.63,-196.57 646.77,-206 678.41,-206 700.16,-206 711.28,-201.54 711.77,-195.89"/>
<polygon fill="midnightblue" stroke="midnightblue" points="714.56,-193.78 705.84,-187.76 708.9,-197.9 714.56,-193.78"/>
</g>
<!-- Node7&#45;&gt;Node7 -->
<g id="edge12" class="edge">
<title>Node7&#45;&gt;Node7</title>
<path fill="none" stroke="midnightblue" d="M650.97,-131.76C637.63,-140.57 646.77,-150 678.41,-150 700.16,-150 711.28,-145.54 711.77,-139.89"/>
<polygon fill="midnightblue" stroke="midnightblue" points="714.56,-137.78 705.84,-131.76 708.9,-141.9 714.56,-137.78"/>
</g>
<!-- Node8&#45;&gt;Node3 -->
<g id="edge15" class="edge">
<title>Node8&#45;&gt;Node3</title>
<path fill="none" stroke="midnightblue" d="M362.16,-249.51C385.31,-258.06 419.99,-270.86 448.63,-281.44"/>
<polygon fill="midnightblue" stroke="midnightblue" points="447.49,-284.75 458.09,-284.93 449.92,-278.18 447.49,-284.75"/>
</g>
<!-- Node8&#45;&gt;Node4 -->
<g id="edge16" class="edge">
<title>Node8&#45;&gt;Node4</title>
<path fill="none" stroke="midnightblue" d="M362.6,-230.49C373.8,-226.39 387.02,-221.51 398.91,-217 423.21,-207.79 450.7,-197.04 470.71,-189.17"/>
<polygon fill="midnightblue" stroke="midnightblue" points="472.13,-192.37 480.15,-185.44 469.57,-185.85 472.13,-192.37"/>
</g>
<!-- Node8&#45;&gt;Node5 -->
<g id="edge14" class="edge">
<title>Node8&#45;&gt;Node5</title>
<path fill="none" stroke="midnightblue" d="M398.95,-240C456.48,-240 541.86,-240 602.9,-240"/>
<polygon fill="midnightblue" stroke="midnightblue" points="603.24,-243.5 613.24,-240 603.24,-236.5 603.24,-243.5"/>
</g>
<!-- Node8&#45;&gt;Node8 -->
<g id="edge17" class="edge">
<title>Node8&#45;&gt;Node8</title>
<path fill="none" stroke="midnightblue" d="M310.13,-249.76C297.84,-258.57 306.26,-268 335.41,-268 354.99,-268 365.22,-263.74 366.1,-258.27"/>
<polygon fill="midnightblue" stroke="midnightblue" points="369,-256.32 360.69,-249.76 363.1,-260.07 369,-256.32"/>
</g>
<!-- Node9&#45;&gt;Node9 -->
<g id="edge20" class="edge">
<title>Node9&#45;&gt;Node9</title>
<path fill="none" stroke="midnightblue" d="M310.13,-189.76C297.84,-198.57 306.26,-208 335.41,-208 354.99,-208 365.22,-203.74 366.1,-198.27"/>
<polygon fill="midnightblue" stroke="midnightblue" points="369,-196.32 360.69,-189.76 363.1,-200.07 369,-196.32"/>
</g>
<!-- Node10&#45;&gt;Node8 -->
<g id="edge22" class="edge">
<title>Node10&#45;&gt;Node8</title>
<path fill="none" stroke="midnightblue" d="M208.78,-218.28C227.48,-221.51 249.23,-225.27 269.32,-228.75"/>
<polygon fill="midnightblue" stroke="midnightblue" points="268.89,-232.22 279.34,-230.48 270.08,-225.33 268.89,-232.22"/>
</g>
<!-- Node10&#45;&gt;Node9 -->
<g id="edge23" class="edge">
<title>Node10&#45;&gt;Node9</title>
<path fill="none" stroke="midnightblue" d="M208.78,-201.72C233.7,-197.41 264.03,-192.17 288.64,-187.91"/>
<polygon fill="midnightblue" stroke="midnightblue" points="289.55,-191.31 298.81,-186.16 288.36,-184.41 289.55,-191.31"/>
</g>
<!-- Node10&#45;&gt;Node10 -->
<g id="edge24" class="edge">
<title>Node10&#45;&gt;Node10</title>
<path fill="none" stroke="midnightblue" d="M139.26,-219.76C129.21,-228.57 136.09,-238 159.91,-238 175.17,-238 183.48,-234.13 184.84,-229.03"/>
<polygon fill="midnightblue" stroke="midnightblue" points="187.93,-227.37 180.56,-219.76 181.57,-230.3 187.93,-227.37"/>
</g>
<!-- Node11&#45;&gt;Node11 -->
<g id="edge26" class="edge">
<title>Node11&#45;&gt;Node11</title>
<path fill="none" stroke="midnightblue" d="M136.56,-87.16C130.93,-96.56 138.71,-105.5 159.91,-105.5 172.83,-105.5 180.76,-102.18 183.72,-97.46"/>
<polygon fill="midnightblue" stroke="midnightblue" points="187.2,-96.99 183.26,-87.16 180.21,-97.3 187.2,-96.99"/>
</g>
<!-- Node12&#45;&gt;Node12 -->
<g id="edge28" class="edge">
<title>Node12&#45;&gt;Node12</title>
<path fill="none" stroke="midnightblue" d="M139.26,-19.76C129.21,-28.57 136.09,-38 159.91,-38 175.17,-38 183.48,-34.13 184.84,-29.03"/>
<polygon fill="midnightblue" stroke="midnightblue" points="187.93,-27.37 180.56,-19.76 181.57,-30.3 187.93,-27.37"/>
</g>
</g>
</svg>
        <g id="navigator" transform="translate(0 0)" fill="#404254">
                <rect fill="#f2f5e9" fill-opacity="0.5" stroke="#606060" stroke-width=".5" x="0" y="0" width="60" height="60"/>
                <use id="zoomplus" xlink:href="#zoomPlus" x="17" y="9" onmousedown="handleZoom(evt,'in')"/>
                <use id="zoomminus" xlink:href="#zoomMin" x="42" y="9" onmousedown="handleZoom(evt,'out')"/>
                <use id="reset" xlink:href="#resetDef" x="30" y="36" onmousedown="handleReset()"/>
                <g id="arrowUp" xlink:href="#dirArrow" transform="translate(30 24)" onmousedown="handlePan(0,-1)">
                  <use xlink:href="#rim" fill="#404040">
                        <set attributeName="fill" to="#808080" begin="arrowUp.mouseover" end="arrowUp.mouseout"/>
                  </use>
                  <path fill="none" stroke="white" stroke-width="1.5" d="M0,-3.0v7 M-2.5,-0.5L0,-3.0L2.5,-0.5"/>
                </g>
                <g id="arrowRight" xlink:href="#dirArrow" transform="rotate(90) translate(36 -43)" onmousedown="handlePan(1,0)">
                  <use xlink:href="#rim" fill="#404040">
                        <set attributeName="fill" to="#808080" begin="arrowRight.mouseover" end="arrowRight.mouseout"/>
                  </use>
                  <path fill="none" stroke="white" stroke-width="1.5" d="M0,-3.0v7 M-2.5,-0.5L0,-3.0L2.5,-0.5"/>
                </g>
                <g id="arrowDown" xlink:href="#dirArrow" transform="rotate(180) translate(-30 -48)" onmousedown="handlePan(0,1)">
                  <use xlink:href="#rim" fill="#404040">
                        <set attributeName="fill" to="#808080" begin="arrowDown.mouseover" end="arrowDown.mouseout"/>
                  </use>
                  <path fill="none" stroke="white" stroke-width="1.5" d="M0,-3.0v7 M-2.5,-0.5L0,-3.0L2.5,-0.5"/>
                </g>
                <g id="arrowLeft" xlink:href="#dirArrow" transform="rotate(270) translate(-36 17)" onmousedown="handlePan(-1,0)">
                  <use xlink:href="#rim" fill="#404040">
                        <set attributeName="fill" to="#808080" begin="arrowLeft.mouseover" end="arrowLeft.mouseout"/>
                  </use>
                  <path fill="none" stroke="white" stroke-width="1.5" d="M0,-3.0v7 M-2.5,-0.5L0,-3.0L2.5,-0.5"/>
                </g>
        </g>
        <svg viewBox="0 0 15 15" width="100%" height="30px" preserveAspectRatio="xMaxYMin meet">
         <g id="arrow_out" transform="scale(0.3 0.3)">
          <a xlink:href="classrare_1_1components_1_1dialogs_1_1launch__dialog_1_1_launch_dialog_af9075195d51b585cd05540dca2a1eadb_cgraph_org.svg" target="_base">
           <rect id="button" ry="5" rx="5" y="6" x="6" height="38" width="38"
                fill="#f2f5e9" fill-opacity="0.5" stroke="#606060" stroke-width="1.0"/>
           <path id="arrow"
             d="M 11.500037,31.436501 C 11.940474,20.09759 22.043105,11.32322 32.158766,21.979434 L 37.068811,17.246167 C 37.068811,17.246167 37.088388,32 37.088388,32 L 22.160133,31.978069 C 22.160133,31.978069 26.997745,27.140456 26.997745,27.140456 C 18.528582,18.264221 13.291696,25.230495 11.500037,31.436501 z"
             style="fill:#404040;"/>
          </a>
         </g>
        </svg>
</svg>
