<?xml version="1.0" encoding="UTF-8" standalone="no"?>
<!DOCTYPE svg PUBLIC "-//W3C//DTD SVG 1.1//EN"
 "http://www.w3.org/Graphics/SVG/1.1/DTD/svg11.dtd">
<!-- Generated by graphviz version 2.49.3 (20211027.1534)
 -->
<!-- Title: parent Pages: 1 -->
<svg width="1124pt" height="677pt"
 viewBox="0.00 0.00 1123.54 677.00" xmlns="http://www.w3.org/2000/svg" xmlns:xlink="http://www.w3.org/1999/xlink">
<g id="graph0" class="graph" transform="scale(1 1) rotate(0) translate(4 673)">
<title>parent</title>
<polygon fill="white" stroke="transparent" points="-4,4 -4,-673 1119.54,-673 1119.54,4 -4,4"/>
<!-- Node1 -->
<g id="node1" class="node">
<title>Node1</title>
<g id="a_node1"><a xlink:title=" ">
<polygon fill="#bfbfbf" stroke="black" points="1059,-286 1059,-305 1103,-305 1103,-286 1059,-286"/>
<text text-anchor="middle" x="1081" y="-293" font-family="Helvetica,sans-Serif" font-size="10.00">parent</text>
</a>
</g>
</g>
<!-- Node1&#45;&gt;Node1 -->
<g id="edge11" class="edge">
<title>Node1&#45;&gt;Node1</title>
<path fill="none" stroke="midnightblue" d="M1111.83,-307.04C1121.78,-315.29 1111.5,-323.5 1081,-323.5 1044.16,-323.5 1036.83,-311.53 1058.98,-301.97"/>
<polygon fill="midnightblue" stroke="midnightblue" points="1113.43,-303.92 1103.02,-301.97 1109.94,-309.99 1113.43,-303.92"/>
</g>
<!-- Node2 -->
<g id="node2" class="node">
<title>Node2</title>
<g id="a_node2"><a xlink:href="classrare_1_1widgets_1_1library__layout_1_1_library_layout.html#af9a665960a2cd6b746e70425d7486124" target="_top" xlink:title=" ">
<polygon fill="white" stroke="black" points="14.5,-620.5 14.5,-650.5 148.5,-650.5 148.5,-620.5 14.5,-620.5"/>
<text text-anchor="start" x="22.5" y="-638.5" font-family="Helvetica,sans-Serif" font-size="10.00">rare.widgets.library</text>
<text text-anchor="middle" x="81.5" y="-627.5" font-family="Helvetica,sans-Serif" font-size="10.00">_layout.LibraryLayout.insert</text>
</a>
</g>
</g>
<!-- Node1&#45;&gt;Node2 -->
<g id="edge1" class="edge">
<title>Node1&#45;&gt;Node2</title>
<path fill="none" stroke="midnightblue" d="M1079.31,-315.04C1076.98,-352.24 1066.86,-433.83 1023,-482.5 906.08,-612.26 835.67,-635.5 661,-635.5 661,-635.5 661,-635.5 475,-635.5 360.35,-635.5 226.86,-635.5 148.82,-635.5"/>
<polygon fill="midnightblue" stroke="midnightblue" points="1082.81,-315.17 1079.81,-305.01 1075.82,-314.82 1082.81,-315.17"/>
</g>
<!-- Node3 -->
<g id="node3" class="node">
<title>Node3</title>
<g id="a_node3"><a xlink:href="classrare_1_1components_1_1tabs_1_1games_1_1game__info_1_1_game_info_tabs.html#a38473d0107ff68c119a1eba5e50a10a6" target="_top" xlink:title=" ">
<polygon fill="white" stroke="black" points="810,-280.5 810,-310.5 982,-310.5 982,-280.5 810,-280.5"/>
<text text-anchor="start" x="818" y="-298.5" font-family="Helvetica,sans-Serif" font-size="10.00">rare.components.tabs.games.game</text>
<text text-anchor="middle" x="896" y="-287.5" font-family="Helvetica,sans-Serif" font-size="10.00">_info.GameInfoTabs.keyPressEvent</text>
</a>
</g>
</g>
<!-- Node1&#45;&gt;Node3 -->
<g id="edge3" class="edge">
<title>Node1&#45;&gt;Node3</title>
<path fill="none" stroke="midnightblue" d="M1048.51,-295.5C1030.05,-295.5 1005.77,-295.5 982.07,-295.5"/>
<polygon fill="midnightblue" stroke="midnightblue" points="1048.65,-299 1058.65,-295.5 1048.65,-292 1048.65,-299"/>
</g>
<!-- Node4 -->
<g id="node4" class="node">
<title>Node4</title>
<g id="a_node4"><a xlink:href="classrare_1_1components_1_1tabs_1_1games_1_1game__info_1_1uninstalled__info_1_1_uninstalled_info_tabs.html#a38473d0107ff68c119a1eba5e50a10a6" target="_top" xlink:title=" ">
<polygon fill="white" stroke="black" points="812.5,-202 812.5,-243 979.5,-243 979.5,-202 812.5,-202"/>
<text text-anchor="start" x="820.5" y="-231" font-family="Helvetica,sans-Serif" font-size="10.00">rare.components.tabs.games.game</text>
<text text-anchor="start" x="820.5" y="-220" font-family="Helvetica,sans-Serif" font-size="10.00">_info.uninstalled_info.Uninstalled</text>
<text text-anchor="middle" x="896" y="-209" font-family="Helvetica,sans-Serif" font-size="10.00">InfoTabs.keyPressEvent</text>
</a>
</g>
</g>
<!-- Node1&#45;&gt;Node4 -->
<g id="edge5" class="edge">
<title>Node1&#45;&gt;Node4</title>
<path fill="none" stroke="midnightblue" d="M1049.7,-281.88C1041.11,-278.11 1031.72,-274.07 1023,-270.5 1000.15,-261.14 974.73,-251.34 952.74,-243.06"/>
<polygon fill="midnightblue" stroke="midnightblue" points="1048.43,-285.14 1058.99,-285.99 1051.26,-278.74 1048.43,-285.14"/>
</g>
<!-- Node5 -->
<g id="node5" class="node">
<title>Node5</title>
<g id="a_node5"><a xlink:href="classrare_1_1components_1_1dialogs_1_1launch__dialog_1_1_launch_dialog.html#a6c3ea5ef9b9848bf1214c66978e3d59d" target="_top" xlink:title=" ">
<polygon fill="white" stroke="black" points="820,-134.5 820,-164.5 972,-164.5 972,-134.5 820,-134.5"/>
<text text-anchor="start" x="828" y="-152.5" font-family="Helvetica,sans-Serif" font-size="10.00">rare.components.dialogs.launch</text>
<text text-anchor="middle" x="896" y="-141.5" font-family="Helvetica,sans-Serif" font-size="10.00">_dialog.LaunchDialog.login</text>
</a>
</g>
</g>
<!-- Node1&#45;&gt;Node5 -->
<g id="edge7" class="edge">
<title>Node1&#45;&gt;Node5</title>
<path fill="none" stroke="midnightblue" d="M1074.05,-276.02C1066.05,-252.94 1049.65,-214.81 1023,-192.5 1007.94,-179.89 988.99,-170.91 970.39,-164.54"/>
<polygon fill="midnightblue" stroke="midnightblue" points="1070.79,-277.31 1077.23,-285.73 1077.45,-275.14 1070.79,-277.31"/>
</g>
<!-- Node6 -->
<g id="node6" class="node">
<title>Node6</title>
<g id="a_node6"><a xlink:href="classrare_1_1components_1_1tabs_1_1account_1_1_account_widget.html#a674007c506f7fe69c039f7f08438879e" target="_top" xlink:title=" ">
<polygon fill="white" stroke="black" points="821.5,-67.5 821.5,-97.5 970.5,-97.5 970.5,-67.5 821.5,-67.5"/>
<text text-anchor="start" x="829.5" y="-85.5" font-family="Helvetica,sans-Serif" font-size="10.00">rare.components.tabs.account.</text>
<text text-anchor="middle" x="896" y="-74.5" font-family="Helvetica,sans-Serif" font-size="10.00">AccountWidget.logout</text>
</a>
</g>
</g>
<!-- Node1&#45;&gt;Node6 -->
<g id="edge9" class="edge">
<title>Node1&#45;&gt;Node6</title>
<path fill="none" stroke="midnightblue" d="M1078.95,-275.41C1076.03,-240.04 1064.95,-166.45 1023,-124.5 1008.81,-110.31 989.72,-100.92 970.69,-94.7"/>
<polygon fill="midnightblue" stroke="midnightblue" points="1075.49,-276.1 1079.66,-285.83 1082.47,-275.62 1075.49,-276.1"/>
</g>
<!-- Node7 -->
<g id="node7" class="node">
<title>Node7</title>
<g id="a_node7"><a xlink:href="classrare_1_1widgets_1_1library__layout_1_1_library_layout.html#a0c76d6c4aeb4752c64514fdb40f8f817" target="_top" xlink:title=" ">
<polygon fill="white" stroke="black" points="10,-486.5 10,-516.5 153,-516.5 153,-486.5 10,-486.5"/>
<text text-anchor="start" x="18" y="-504.5" font-family="Helvetica,sans-Serif" font-size="10.00">rare.widgets.library</text>
<text text-anchor="middle" x="81.5" y="-493.5" font-family="Helvetica,sans-Serif" font-size="10.00">_layout.LibraryLayout.remove</text>
</a>
</g>
</g>
<!-- Node1&#45;&gt;Node7 -->
<g id="edge12" class="edge">
<title>Node1&#45;&gt;Node7</title>
<path fill="none" stroke="midnightblue" d="M1070.96,-314.15C1061.56,-331.27 1045.12,-355.73 1023,-367.5 880.56,-443.33 822.37,-395.5 661,-395.5 661,-395.5 661,-395.5 475,-395.5 413.52,-395.5 251.08,-381.83 199,-414.5 171.68,-431.64 188.26,-457.46 163,-477.5 158.66,-480.94 153.83,-483.9 148.76,-486.42"/>
<polygon fill="midnightblue" stroke="midnightblue" points="1074.18,-315.55 1075.67,-305.06 1067.96,-312.33 1074.18,-315.55"/>
</g>
<!-- Node8 -->
<g id="node8" class="node">
<title>Node8</title>
<g id="a_node8"><a xlink:href="classrare_1_1components_1_1tabs_1_1games_1_1import__sync_1_1egl__sync__group_1_1_e_g_l_sync_list_group.html#aafa1e11ada81eb7dd55ad735904ed92f" target="_top" xlink:title=" ">
<polygon fill="white" stroke="black" points="769,-0.5 769,-30.5 1023,-30.5 1023,-0.5 769,-0.5"/>
<text text-anchor="start" x="777" y="-18.5" font-family="Helvetica,sans-Serif" font-size="10.00">rare.components.tabs.games.import</text>
<text text-anchor="middle" x="896" y="-7.5" font-family="Helvetica,sans-Serif" font-size="10.00">_sync.egl_sync_group.EGLSyncListGroup.show_errors</text>
</a>
</g>
</g>
<!-- Node1&#45;&gt;Node8 -->
<g id="edge14" class="edge">
<title>Node1&#45;&gt;Node8</title>
<path fill="none" stroke="midnightblue" d="M1077.75,-275.79C1071.53,-224.72 1052.63,-89.82 1023,-57.5 1011.86,-45.35 997.11,-36.71 981.64,-30.57"/>
<polygon fill="midnightblue" stroke="midnightblue" points="1074.29,-276.34 1078.94,-285.86 1081.24,-275.52 1074.29,-276.34"/>
</g>
<!-- Node9 -->
<g id="node9" class="node">
<title>Node9</title>
<g id="a_node9"><a xlink:href="classrare_1_1widgets_1_1flow__layout_1_1_flow_layout.html#a2e8d545883a85a6757198adec7da2731" target="_top" xlink:title=" ">
<polygon fill="white" stroke="black" points="831.5,-424.5 831.5,-454.5 960.5,-454.5 960.5,-424.5 831.5,-424.5"/>
<text text-anchor="start" x="839.5" y="-442.5" font-family="Helvetica,sans-Serif" font-size="10.00">rare.widgets.flow_layout.</text>
<text text-anchor="middle" x="896" y="-431.5" font-family="Helvetica,sans-Serif" font-size="10.00">FlowLayout.smartSpacing</text>
</a>
</g>
</g>
<!-- Node1&#45;&gt;Node9 -->
<g id="edge16" class="edge">
<title>Node1&#45;&gt;Node9</title>
<path fill="none" stroke="midnightblue" d="M1075.61,-315.25C1068.85,-340.96 1053.36,-385.43 1023,-409.5 1005.38,-423.47 982.3,-431.11 960.71,-435.22"/>
<polygon fill="midnightblue" stroke="midnightblue" points="1079.1,-315.74 1078.06,-305.2 1072.3,-314.09 1079.1,-315.74"/>
</g>
<!-- Node15 -->
<g id="node15" class="node">
<title>Node15</title>
<g id="a_node15"><a xlink:href="classrare_1_1widgets_1_1library__layout_1_1_library_layout.html#ac9632f6438f5820ccb6a0b04991a4e7d" target="_top" xlink:title=" ">
<polygon fill="white" stroke="black" points="18,-419.5 18,-449.5 145,-449.5 145,-419.5 18,-419.5"/>
<text text-anchor="start" x="26" y="-437.5" font-family="Helvetica,sans-Serif" font-size="10.00">rare.widgets.library</text>
<text text-anchor="middle" x="81.5" y="-426.5" font-family="Helvetica,sans-Serif" font-size="10.00">_layout.LibraryLayout.sort</text>
</a>
</g>
</g>
<!-- Node1&#45;&gt;Node15 -->
<g id="edge47" class="edge">
<title>Node1&#45;&gt;Node15</title>
<path fill="none" stroke="midnightblue" d="M1062.95,-312.21C1052.37,-321.45 1037.97,-332.12 1023,-337.5 871.37,-392.01 822.13,-357.5 661,-357.5 661,-357.5 661,-357.5 475,-357.5 351.87,-357.5 318.09,-350.22 199,-381.5 166.55,-390.02 131.85,-406.93 108.84,-419.37"/>
<polygon fill="midnightblue" stroke="midnightblue" points="1065.55,-314.57 1070.56,-305.23 1060.82,-309.41 1065.55,-314.57"/>
</g>
<!-- Node2&#45;&gt;Node2 -->
<g id="edge2" class="edge">
<title>Node2&#45;&gt;Node2</title>
<path fill="none" stroke="midnightblue" d="M117.04,-660.96C112.63,-665.68 100.78,-669 81.5,-669 49.86,-669 38.24,-660.06 46.65,-650.66"/>
<polygon fill="midnightblue" stroke="midnightblue" points="120.51,-660.41 116.35,-650.66 113.52,-660.87 120.51,-660.41"/>
</g>
<!-- Node3&#45;&gt;Node3 -->
<g id="edge4" class="edge">
<title>Node3&#45;&gt;Node3</title>
<path fill="none" stroke="midnightblue" d="M928.69,-320.96C924.64,-325.68 913.74,-329 896,-329 866.89,-329 856.2,-320.06 863.93,-310.66"/>
<polygon fill="midnightblue" stroke="midnightblue" points="932.17,-320.43 928.07,-310.66 925.18,-320.85 932.17,-320.43"/>
</g>
<!-- Node4&#45;&gt;Node4 -->
<g id="edge6" class="edge">
<title>Node4&#45;&gt;Node4</title>
<path fill="none" stroke="midnightblue" d="M927.66,-253.36C922.95,-258.2 912.4,-261.5 896,-261.5 869.77,-261.5 858.49,-253.04 862.18,-243.36"/>
<polygon fill="midnightblue" stroke="midnightblue" points="931.12,-253.88 929.82,-243.36 924.28,-252.4 931.12,-253.88"/>
</g>
<!-- Node5&#45;&gt;Node5 -->
<g id="edge8" class="edge">
<title>Node5&#45;&gt;Node5</title>
<path fill="none" stroke="midnightblue" d="M928.69,-174.96C924.64,-179.68 913.74,-183 896,-183 866.89,-183 856.2,-174.06 863.93,-164.66"/>
<polygon fill="midnightblue" stroke="midnightblue" points="932.17,-174.43 928.07,-164.66 925.18,-174.85 932.17,-174.43"/>
</g>
<!-- Node6&#45;&gt;Node6 -->
<g id="edge10" class="edge">
<title>Node6&#45;&gt;Node6</title>
<path fill="none" stroke="midnightblue" d="M928.69,-107.96C924.64,-112.68 913.74,-116 896,-116 866.89,-116 856.2,-107.06 863.93,-97.66"/>
<polygon fill="midnightblue" stroke="midnightblue" points="932.17,-107.43 928.07,-97.66 925.18,-107.85 932.17,-107.43"/>
</g>
<!-- Node7&#45;&gt;Node7 -->
<g id="edge13" class="edge">
<title>Node7&#45;&gt;Node7</title>
<path fill="none" stroke="midnightblue" d="M117.04,-526.96C112.63,-531.68 100.78,-535 81.5,-535 49.86,-535 38.24,-526.06 46.65,-516.66"/>
<polygon fill="midnightblue" stroke="midnightblue" points="120.51,-526.41 116.35,-516.66 113.52,-526.87 120.51,-526.41"/>
</g>
<!-- Node8&#45;&gt;Node8 -->
<g id="edge15" class="edge">
<title>Node8&#45;&gt;Node8</title>
<path fill="none" stroke="midnightblue" d="M928.69,-40.96C924.64,-45.68 913.74,-49 896,-49 866.89,-49 856.2,-40.06 863.93,-30.66"/>
<polygon fill="midnightblue" stroke="midnightblue" points="932.17,-40.43 928.07,-30.66 925.18,-40.85 932.17,-40.43"/>
</g>
<!-- Node9&#45;&gt;Node9 -->
<g id="edge42" class="edge">
<title>Node9&#45;&gt;Node9</title>
<path fill="none" stroke="midnightblue" d="M928.69,-464.96C924.64,-469.68 913.74,-473 896,-473 866.89,-473 856.2,-464.06 863.93,-454.66"/>
<polygon fill="midnightblue" stroke="midnightblue" points="932.17,-464.43 928.07,-454.66 925.18,-464.85 932.17,-464.43"/>
</g>
<!-- Node10 -->
<g id="node10" class="node">
<title>Node10</title>
<g id="a_node10"><a xlink:href="classrare_1_1widgets_1_1flow__layout_1_1_flow_layout.html#a198240b6ed8eb4be3d26adb4ca03aa8d" target="_top" xlink:title=" ">
<polygon fill="white" stroke="black" points="587,-491.5 587,-521.5 733,-521.5 733,-491.5 587,-491.5"/>
<text text-anchor="start" x="595" y="-509.5" font-family="Helvetica,sans-Serif" font-size="10.00">rare.widgets.flow_layout.</text>
<text text-anchor="middle" x="660" y="-498.5" font-family="Helvetica,sans-Serif" font-size="10.00">FlowLayout.horizontalSpacing</text>
</a>
</g>
</g>
<!-- Node9&#45;&gt;Node10 -->
<g id="edge17" class="edge">
<title>Node9&#45;&gt;Node10</title>
<path fill="none" stroke="midnightblue" d="M832.78,-457.32C795.66,-467.94 749.05,-481.29 713.74,-491.4"/>
<polygon fill="midnightblue" stroke="midnightblue" points="833.84,-460.65 842.49,-454.54 831.91,-453.92 833.84,-460.65"/>
</g>
<!-- Node18 -->
<g id="node18" class="node">
<title>Node18</title>
<g id="a_node18"><a xlink:href="classrare_1_1widgets_1_1flow__layout_1_1_flow_layout.html#a339c0461a90b6d3b3eee250fbc47aefb" target="_top" xlink:title=" ">
<polygon fill="white" stroke="black" points="592,-424.5 592,-454.5 728,-454.5 728,-424.5 592,-424.5"/>
<text text-anchor="start" x="600" y="-442.5" font-family="Helvetica,sans-Serif" font-size="10.00">rare.widgets.flow_layout.</text>
<text text-anchor="middle" x="660" y="-431.5" font-family="Helvetica,sans-Serif" font-size="10.00">FlowLayout.verticalSpacing</text>
</a>
</g>
</g>
<!-- Node9&#45;&gt;Node18 -->
<g id="edge43" class="edge">
<title>Node9&#45;&gt;Node18</title>
<path fill="none" stroke="midnightblue" d="M821.05,-439.5C791.34,-439.5 757.32,-439.5 728.3,-439.5"/>
<polygon fill="midnightblue" stroke="midnightblue" points="821.37,-443 831.37,-439.5 821.37,-436 821.37,-443"/>
</g>
<!-- Node10&#45;&gt;Node10 -->
<g id="edge41" class="edge">
<title>Node10&#45;&gt;Node10</title>
<path fill="none" stroke="midnightblue" d="M692.69,-531.96C688.64,-536.68 677.74,-540 660,-540 630.89,-540 620.2,-531.06 627.93,-521.66"/>
<polygon fill="midnightblue" stroke="midnightblue" points="696.17,-531.43 692.07,-521.66 689.18,-531.85 696.17,-531.43"/>
</g>
<!-- Node11 -->
<g id="node11" class="node">
<title>Node11</title>
<g id="a_node11"><a xlink:href="classrare_1_1widgets_1_1flow__layout_1_1_flow_layout.html#aea5fef774da86c1a120b393f7d8cdd6a" target="_top" xlink:title=" ">
<polygon fill="white" stroke="black" points="415,-491.5 415,-521.5 537,-521.5 537,-491.5 415,-491.5"/>
<text text-anchor="start" x="423" y="-509.5" font-family="Helvetica,sans-Serif" font-size="10.00">rare.widgets.flow_layout.</text>
<text text-anchor="middle" x="476" y="-498.5" font-family="Helvetica,sans-Serif" font-size="10.00">FlowLayout.doLayout</text>
</a>
</g>
</g>
<!-- Node10&#45;&gt;Node11 -->
<g id="edge18" class="edge">
<title>Node10&#45;&gt;Node11</title>
<path fill="none" stroke="midnightblue" d="M576.68,-506.5C563.35,-506.5 549.77,-506.5 537.09,-506.5"/>
<polygon fill="midnightblue" stroke="midnightblue" points="576.81,-510 586.81,-506.5 576.81,-503 576.81,-510"/>
</g>
<!-- Node17 -->
<g id="node17" class="node">
<title>Node17</title>
<g id="a_node17"><a xlink:href="classrare_1_1widgets_1_1library__layout_1_1_library_layout.html#aea5fef774da86c1a120b393f7d8cdd6a" target="_top" xlink:title="Arranges the widgets for this layout.">
<polygon fill="white" stroke="black" points="401,-424.5 401,-454.5 551,-454.5 551,-424.5 401,-424.5"/>
<text text-anchor="start" x="409" y="-442.5" font-family="Helvetica,sans-Serif" font-size="10.00">rare.widgets.library</text>
<text text-anchor="middle" x="476" y="-431.5" font-family="Helvetica,sans-Serif" font-size="10.00">_layout.LibraryLayout.doLayout</text>
</a>
</g>
</g>
<!-- Node10&#45;&gt;Node17 -->
<g id="edge36" class="edge">
<title>Node10&#45;&gt;Node17</title>
<path fill="none" stroke="midnightblue" d="M603.04,-488.16C597.61,-486.28 592.19,-484.38 587,-482.5 562.51,-473.64 535.25,-462.99 513.99,-454.5"/>
<polygon fill="midnightblue" stroke="midnightblue" points="602.19,-491.57 612.79,-491.48 604.45,-484.94 602.19,-491.57"/>
</g>
<!-- Node11&#45;&gt;Node11 -->
<g id="edge19" class="edge">
<title>Node11&#45;&gt;Node11</title>
<path fill="none" stroke="midnightblue" d="M508.69,-531.96C504.64,-536.68 493.74,-540 476,-540 446.89,-540 436.2,-531.06 443.93,-521.66"/>
<polygon fill="midnightblue" stroke="midnightblue" points="512.17,-531.43 508.07,-521.66 505.18,-531.85 512.17,-531.43"/>
</g>
<!-- Node12 -->
<g id="node12" class="node">
<title>Node12</title>
<g id="a_node12"><a xlink:href="classrare_1_1widgets_1_1flow__layout_1_1_flow_layout.html#a79a95bc3b25357794eb45d452b5fa4c6" target="_top" xlink:title=" ">
<polygon fill="white" stroke="black" points="215,-424.5 215,-454.5 349,-454.5 349,-424.5 215,-424.5"/>
<text text-anchor="start" x="223" y="-442.5" font-family="Helvetica,sans-Serif" font-size="10.00">rare.widgets.flow_layout.</text>
<text text-anchor="middle" x="282" y="-431.5" font-family="Helvetica,sans-Serif" font-size="10.00">FlowLayout.heightForWidth</text>
</a>
</g>
</g>
<!-- Node11&#45;&gt;Node12 -->
<g id="edge20" class="edge">
<title>Node11&#45;&gt;Node12</title>
<path fill="none" stroke="midnightblue" d="M417.94,-488.22C412.2,-486.32 406.48,-484.39 401,-482.5 375.02,-473.56 346.03,-463 323.29,-454.59"/>
<polygon fill="midnightblue" stroke="midnightblue" points="416.95,-491.58 427.54,-491.39 419.14,-484.93 416.95,-491.58"/>
</g>
<!-- Node13 -->
<g id="node13" class="node">
<title>Node13</title>
<g id="a_node13"><a xlink:href="classrare_1_1widgets_1_1flow__layout_1_1_flow_layout.html#af87928df2c164a948da59b9e41bcc8e3" target="_top" xlink:title=" ">
<polygon fill="white" stroke="black" points="219.5,-558.5 219.5,-588.5 344.5,-588.5 344.5,-558.5 219.5,-558.5"/>
<text text-anchor="start" x="227.5" y="-576.5" font-family="Helvetica,sans-Serif" font-size="10.00">rare.widgets.flow_layout.</text>
<text text-anchor="middle" x="282" y="-565.5" font-family="Helvetica,sans-Serif" font-size="10.00">FlowLayout.setGeometry</text>
</a>
</g>
</g>
<!-- Node11&#45;&gt;Node13 -->
<g id="edge22" class="edge">
<title>Node11&#45;&gt;Node13</title>
<path fill="none" stroke="midnightblue" d="M429.31,-525.4C409.66,-533.26 386.35,-542.22 365,-549.5 356.01,-552.56 346.4,-555.6 337.03,-558.42"/>
<polygon fill="midnightblue" stroke="midnightblue" points="430.66,-528.63 438.63,-521.65 428.05,-522.13 430.66,-528.63"/>
</g>
<!-- Node16 -->
<g id="node16" class="node">
<title>Node16</title>
<g id="a_node16"><a xlink:href="classrare_1_1widgets_1_1library__layout_1_1_library_layout.html#af87928df2c164a948da59b9e41bcc8e3" target="_top" xlink:title=" ">
<polygon fill="white" stroke="black" points="199,-491.5 199,-521.5 365,-521.5 365,-491.5 199,-491.5"/>
<text text-anchor="start" x="207" y="-509.5" font-family="Helvetica,sans-Serif" font-size="10.00">rare.widgets.library</text>
<text text-anchor="middle" x="282" y="-498.5" font-family="Helvetica,sans-Serif" font-size="10.00">_layout.LibraryLayout.setGeometry</text>
</a>
</g>
</g>
<!-- Node11&#45;&gt;Node16 -->
<g id="edge30" class="edge">
<title>Node11&#45;&gt;Node16</title>
<path fill="none" stroke="midnightblue" d="M404.64,-506.5C391.81,-506.5 378.32,-506.5 365.17,-506.5"/>
<polygon fill="midnightblue" stroke="midnightblue" points="404.78,-510 414.78,-506.5 404.78,-503 404.78,-510"/>
</g>
<!-- Node12&#45;&gt;Node12 -->
<g id="edge21" class="edge">
<title>Node12&#45;&gt;Node12</title>
<path fill="none" stroke="midnightblue" d="M316.47,-464.96C312.19,-469.68 300.7,-473 282,-473 251.31,-473 240.04,-464.06 248.19,-454.66"/>
<polygon fill="midnightblue" stroke="midnightblue" points="319.94,-464.41 315.81,-454.66 312.96,-464.86 319.94,-464.41"/>
</g>
<!-- Node13&#45;&gt;Node2 -->
<g id="edge25" class="edge">
<title>Node13&#45;&gt;Node2</title>
<path fill="none" stroke="midnightblue" d="M225.39,-591.68C205.71,-598.04 183.4,-605.18 163,-611.5 153.53,-614.44 143.41,-617.51 133.65,-620.43"/>
<polygon fill="midnightblue" stroke="midnightblue" points="226.69,-594.94 235.12,-588.53 224.53,-588.28 226.69,-594.94"/>
</g>
<!-- Node13&#45;&gt;Node7 -->
<g id="edge26" class="edge">
<title>Node13&#45;&gt;Node7</title>
<path fill="none" stroke="midnightblue" d="M216.93,-555.46C210.84,-553.53 204.79,-551.53 199,-549.5 170.72,-539.57 139.35,-526.52 116.29,-516.53"/>
<polygon fill="midnightblue" stroke="midnightblue" points="215.9,-558.81 226.49,-558.43 217.97,-552.12 215.9,-558.81"/>
</g>
<!-- Node13&#45;&gt;Node13 -->
<g id="edge27" class="edge">
<title>Node13&#45;&gt;Node13</title>
<path fill="none" stroke="midnightblue" d="M316.47,-598.96C312.19,-603.68 300.7,-607 282,-607 251.31,-607 240.04,-598.06 248.19,-588.66"/>
<polygon fill="midnightblue" stroke="midnightblue" points="319.94,-598.41 315.81,-588.66 312.96,-598.86 319.94,-598.41"/>
</g>
<!-- Node14 -->
<g id="node14" class="node">
<title>Node14</title>
<g id="a_node14"><a xlink:href="classrare_1_1game__launch__helper_1_1console_1_1_console.html#a39d165427992dd2720f91929a88cde17" target="_top" xlink:title=" ">
<polygon fill="white" stroke="black" points="0,-553.5 0,-583.5 163,-583.5 163,-553.5 0,-553.5"/>
<text text-anchor="start" x="8" y="-571.5" font-family="Helvetica,sans-Serif" font-size="10.00">rare.game_launch_helper.console.</text>
<text text-anchor="middle" x="81.5" y="-560.5" font-family="Helvetica,sans-Serif" font-size="10.00">Console.__init__</text>
</a>
</g>
</g>
<!-- Node13&#45;&gt;Node14 -->
<g id="edge23" class="edge">
<title>Node13&#45;&gt;Node14</title>
<path fill="none" stroke="midnightblue" d="M209.11,-571.69C194.2,-571.31 178.38,-570.92 163.17,-570.53"/>
<polygon fill="midnightblue" stroke="midnightblue" points="209.2,-575.19 219.28,-571.95 209.37,-568.19 209.2,-575.19"/>
</g>
<!-- Node13&#45;&gt;Node15 -->
<g id="edge28" class="edge">
<title>Node13&#45;&gt;Node15</title>
<path fill="none" stroke="midnightblue" d="M210.35,-557.22C206.32,-554.97 202.49,-552.41 199,-549.5 171.54,-526.56 187.95,-503.14 163,-477.5 151.62,-465.81 136.36,-456.56 122.19,-449.69"/>
<polygon fill="midnightblue" stroke="midnightblue" points="208.95,-560.43 219.47,-561.67 212.01,-554.14 208.95,-560.43"/>
</g>
<!-- Node14&#45;&gt;Node14 -->
<g id="edge24" class="edge">
<title>Node14&#45;&gt;Node14</title>
<path fill="none" stroke="midnightblue" d="M117.04,-593.96C112.63,-598.68 100.78,-602 81.5,-602 49.86,-602 38.24,-593.06 46.65,-583.66"/>
<polygon fill="midnightblue" stroke="midnightblue" points="120.51,-593.41 116.35,-583.66 113.52,-593.87 120.51,-593.41"/>
</g>
<!-- Node15&#45;&gt;Node15 -->
<g id="edge29" class="edge">
<title>Node15&#45;&gt;Node15</title>
<path fill="none" stroke="midnightblue" d="M117.04,-459.96C112.63,-464.68 100.78,-468 81.5,-468 49.86,-468 38.24,-459.06 46.65,-449.66"/>
<polygon fill="midnightblue" stroke="midnightblue" points="120.51,-459.41 116.35,-449.66 113.52,-459.87 120.51,-459.41"/>
</g>
<!-- Node16&#45;&gt;Node2 -->
<g id="edge32" class="edge">
<title>Node16&#45;&gt;Node2</title>
<path fill="none" stroke="midnightblue" d="M232.76,-526.07C220.84,-532.38 208.71,-540.2 199,-549.5 175.99,-571.54 188.03,-591.78 163,-611.5 158.65,-614.93 153.81,-617.87 148.74,-620.39"/>
<polygon fill="midnightblue" stroke="midnightblue" points="234.42,-529.16 241.79,-521.55 231.28,-522.9 234.42,-529.16"/>
</g>
<!-- Node16&#45;&gt;Node7 -->
<g id="edge33" class="edge">
<title>Node16&#45;&gt;Node7</title>
<path fill="none" stroke="midnightblue" d="M188.83,-504.18C176.86,-503.88 164.76,-503.57 153.22,-503.28"/>
<polygon fill="midnightblue" stroke="midnightblue" points="188.74,-507.68 198.83,-504.43 188.92,-500.68 188.74,-507.68"/>
</g>
<!-- Node16&#45;&gt;Node14 -->
<g id="edge31" class="edge">
<title>Node16&#45;&gt;Node14</title>
<path fill="none" stroke="midnightblue" d="M225.39,-524.68C205.71,-531.04 183.4,-538.18 163,-544.5 153.53,-547.44 143.41,-550.51 133.65,-553.43"/>
<polygon fill="midnightblue" stroke="midnightblue" points="226.69,-527.94 235.12,-521.53 224.53,-521.28 226.69,-527.94"/>
</g>
<!-- Node16&#45;&gt;Node15 -->
<g id="edge35" class="edge">
<title>Node16&#45;&gt;Node15</title>
<path fill="none" stroke="midnightblue" d="M216.93,-488.46C210.84,-486.53 204.79,-484.53 199,-482.5 170.72,-472.57 139.35,-459.52 116.29,-449.53"/>
<polygon fill="midnightblue" stroke="midnightblue" points="215.9,-491.81 226.49,-491.43 217.97,-485.12 215.9,-491.81"/>
</g>
<!-- Node16&#45;&gt;Node16 -->
<g id="edge34" class="edge">
<title>Node16&#45;&gt;Node16</title>
<path fill="none" stroke="midnightblue" d="M316.47,-531.96C312.19,-536.68 300.7,-540 282,-540 251.31,-540 240.04,-531.06 248.19,-521.66"/>
<polygon fill="midnightblue" stroke="midnightblue" points="319.94,-531.41 315.81,-521.66 312.96,-531.86 319.94,-531.41"/>
</g>
<!-- Node17&#45;&gt;Node12 -->
<g id="edge38" class="edge">
<title>Node17&#45;&gt;Node12</title>
<path fill="none" stroke="midnightblue" d="M390.72,-439.5C376.82,-439.5 362.58,-439.5 349.2,-439.5"/>
<polygon fill="midnightblue" stroke="midnightblue" points="390.77,-443 400.77,-439.5 390.77,-436 390.77,-443"/>
</g>
<!-- Node17&#45;&gt;Node13 -->
<g id="edge39" class="edge">
<title>Node17&#45;&gt;Node13</title>
<path fill="none" stroke="midnightblue" d="M431.27,-459.59C420.52,-465.89 409.64,-473.57 401,-482.5 377.5,-506.8 391.26,-528.21 365,-549.5 359.01,-554.36 352.07,-558.23 344.81,-561.32"/>
<polygon fill="midnightblue" stroke="midnightblue" points="433.16,-462.54 440.21,-454.63 429.77,-456.42 433.16,-462.54"/>
</g>
<!-- Node17&#45;&gt;Node16 -->
<g id="edge40" class="edge">
<title>Node17&#45;&gt;Node16</title>
<path fill="none" stroke="midnightblue" d="M429.31,-458.4C409.66,-466.26 386.35,-475.22 365,-482.5 356.01,-485.56 346.4,-488.6 337.03,-491.42"/>
<polygon fill="midnightblue" stroke="midnightblue" points="430.66,-461.63 438.63,-454.65 428.05,-455.13 430.66,-461.63"/>
</g>
<!-- Node17&#45;&gt;Node17 -->
<g id="edge37" class="edge">
<title>Node17&#45;&gt;Node17</title>
<path fill="none" stroke="midnightblue" d="M508.69,-464.96C504.64,-469.68 493.74,-473 476,-473 446.89,-473 436.2,-464.06 443.93,-454.66"/>
<polygon fill="midnightblue" stroke="midnightblue" points="512.17,-464.43 508.07,-454.66 505.18,-464.85 512.17,-464.43"/>
</g>
<!-- Node18&#45;&gt;Node11 -->
<g id="edge44" class="edge">
<title>Node18&#45;&gt;Node11</title>
<path fill="none" stroke="midnightblue" d="M613.35,-458.44C594.2,-466.19 571.62,-475.06 551,-482.5 542.62,-485.53 533.64,-488.59 524.92,-491.46"/>
<polygon fill="midnightblue" stroke="midnightblue" points="614.79,-461.63 622.73,-454.63 612.15,-455.15 614.79,-461.63"/>
</g>
<!-- Node18&#45;&gt;Node17 -->
<g id="edge45" class="edge">
<title>Node18&#45;&gt;Node17</title>
<path fill="none" stroke="midnightblue" d="M581.68,-439.5C571.52,-439.5 561.12,-439.5 551.02,-439.5"/>
<polygon fill="midnightblue" stroke="midnightblue" points="581.75,-443 591.75,-439.5 581.75,-436 581.75,-443"/>
</g>
<!-- Node18&#45;&gt;Node18 -->
<g id="edge46" class="edge">
<title>Node18&#45;&gt;Node18</title>
<path fill="none" stroke="midnightblue" d="M692.69,-464.96C688.64,-469.68 677.74,-473 660,-473 630.89,-473 620.2,-464.06 627.93,-454.66"/>
<polygon fill="midnightblue" stroke="midnightblue" points="696.17,-464.43 692.07,-454.66 689.18,-464.85 696.17,-464.43"/>
</g>
</g>
</svg>
