<?xml version="1.0" encoding="UTF-8" standalone="no"?>
<!DOCTYPE svg PUBLIC "-//W3C//DTD SVG 1.1//EN"
 "http://www.w3.org/Graphics/SVG/1.1/DTD/svg11.dtd">
<!-- Generated by graphviz version 2.49.3 (20211027.1534)
 -->
<!-- Title: on_uninstall Pages: 1 -->
<svg width="188pt" height="84pt"
 viewBox="0.00 0.00 188.00 84.00" xmlns="http://www.w3.org/2000/svg" xmlns:xlink="http://www.w3.org/1999/xlink">
<g id="graph0" class="graph" transform="scale(1 1) rotate(0) translate(4 80)">
<title>on_uninstall</title>
<polygon fill="white" stroke="transparent" points="-4,4 -4,-80 184,-80 184,4 -4,4"/>
<!-- Node1 -->
<g id="node1" class="node">
<title>Node1</title>
<g id="a_node1"><a xlink:title=" ">
<polygon fill="#bfbfbf" stroke="black" points="0,-28.5 0,-47.5 68,-47.5 68,-28.5 0,-28.5"/>
<text text-anchor="middle" x="34" y="-35.5" font-family="Helvetica,sans-Serif" font-size="10.00">on_uninstall</text>
</a>
</g>
</g>
<!-- Node1&#45;&gt;Node1 -->
<g id="edge2" class="edge">
<title>Node1&#45;&gt;Node1</title>
<path fill="none" stroke="midnightblue" d="M17.35,-47.76C9.26,-56.57 14.8,-66 34,-66 46,-66 52.66,-62.31 54,-57.4"/>
<polygon fill="midnightblue" stroke="midnightblue" points="57.24,-56.05 50.65,-47.76 50.62,-58.35 57.24,-56.05"/>
</g>
<!-- Node2 -->
<g id="node2" class="node">
<title>Node2</title>
<g id="a_node2"><a xlink:href="classrare_1_1components_1_1tabs_1_1games_1_1game__widgets_1_1_library_widget_controller.html#a1aee302e7e70e117f5deb55ba0c1c7b4" target="_top" xlink:title=" ">
<polygon fill="white" stroke="black" points="104,-56.5 104,-75.5 180,-75.5 180,-56.5 104,-56.5"/>
<text text-anchor="middle" x="142" y="-63.5" font-family="Helvetica,sans-Serif" font-size="10.00">__find_widget</text>
</a>
</g>
</g>
<!-- Node1&#45;&gt;Node2 -->
<g id="edge1" class="edge">
<title>Node1&#45;&gt;Node2</title>
<path fill="none" stroke="midnightblue" d="M68.25,-46.78C76.81,-49.04 86.17,-51.52 95.25,-53.91"/>
<polygon fill="midnightblue" stroke="midnightblue" points="94.37,-57.3 104.93,-56.47 96.15,-50.53 94.37,-57.3"/>
</g>
<!-- Node3 -->
<g id="node3" class="node">
<title>Node3</title>
<g id="a_node3"><a xlink:href="classrare_1_1components_1_1tabs_1_1games_1_1game__widgets_1_1_library_widget_controller.html#afc3cd8ac539d3d010f6913fa6cc85cbb" target="_top" xlink:title=" ">
<polygon fill="white" stroke="black" points="116.5,-0.5 116.5,-19.5 167.5,-19.5 167.5,-0.5 116.5,-0.5"/>
<text text-anchor="middle" x="142" y="-7.5" font-family="Helvetica,sans-Serif" font-size="10.00">sort_list</text>
</a>
</g>
</g>
<!-- Node1&#45;&gt;Node3 -->
<g id="edge3" class="edge">
<title>Node1&#45;&gt;Node3</title>
<path fill="none" stroke="midnightblue" d="M68.25,-29.22C80.39,-26.01 94.15,-22.38 106.41,-19.14"/>
<polygon fill="midnightblue" stroke="midnightblue" points="107.51,-22.47 116.28,-16.53 105.72,-15.7 107.51,-22.47"/>
</g>
<!-- Node3&#45;&gt;Node3 -->
<g id="edge4" class="edge">
<title>Node3&#45;&gt;Node3</title>
<path fill="none" stroke="midnightblue" d="M125.35,-19.76C117.26,-28.57 122.8,-38 142,-38 154,-38 160.66,-34.31 162,-29.4"/>
<polygon fill="midnightblue" stroke="midnightblue" points="165.24,-28.05 158.65,-19.76 158.62,-30.35 165.24,-28.05"/>
</g>
</g>
</svg>
