<?xml version="1.0" encoding="UTF-8" standalone="no"?>
<!DOCTYPE svg PUBLIC "-//W3C//DTD SVG 1.1//EN"
 "http://www.w3.org/Graphics/SVG/1.1/DTD/svg11.dtd">
<!-- Generated by graphviz version 2.49.3 (20211027.1534)
 -->
<!-- Title: is_overlay_install Pages: 1 -->
<svg width="284pt" height="114pt"
 viewBox="0.00 0.00 284.00 113.50" xmlns="http://www.w3.org/2000/svg" xmlns:xlink="http://www.w3.org/1999/xlink">
<g id="graph0" class="graph" transform="scale(1 1) rotate(0) translate(4 109.5)">
<title>is_overlay_install</title>
<polygon fill="white" stroke="transparent" points="-4,4 -4,-109.5 280,-109.5 280,4 -4,4"/>
<!-- Node1 -->
<g id="node1" class="node">
<title>Node1</title>
<g id="a_node1"><a xlink:title=" ">
<polygon fill="#bfbfbf" stroke="black" points="185,-31.5 185,-50.5 276,-50.5 276,-31.5 185,-31.5"/>
<text text-anchor="middle" x="230.5" y="-38.5" font-family="Helvetica,sans-Serif" font-size="10.00">is_overlay_install</text>
</a>
</g>
</g>
<!-- Node1&#45;&gt;Node1 -->
<g id="edge1" class="edge">
<title>Node1&#45;&gt;Node1</title>
<path fill="none" stroke="midnightblue" d="M259.62,-59.65C258.4,-64.94 248.7,-69 230.5,-69 202.77,-69 194.76,-59.57 206.46,-50.76"/>
<polygon fill="midnightblue" stroke="midnightblue" points="262.54,-57.71 254.54,-50.76 256.46,-61.18 262.54,-57.71"/>
</g>
<!-- Node2 -->
<g id="node2" class="node">
<title>Node2</title>
<g id="a_node2"><a xlink:href="classrare_1_1components_1_1dialogs_1_1install__dialog_1_1_install_info_worker.html#ad22709b2e67308af35f55680d5a026e0" target="_top" xlink:title=" ">
<polygon fill="white" stroke="black" points="0,-57 0,-87 149,-87 149,-57 0,-57"/>
<text text-anchor="start" x="8" y="-75" font-family="Helvetica,sans-Serif" font-size="10.00">rare.components.dialogs.install</text>
<text text-anchor="middle" x="74.5" y="-64" font-family="Helvetica,sans-Serif" font-size="10.00">_dialog.InstallInfoWorker.run</text>
</a>
</g>
</g>
<!-- Node1&#45;&gt;Node2 -->
<g id="edge2" class="edge">
<title>Node1&#45;&gt;Node2</title>
<path fill="none" stroke="midnightblue" d="M175,-51.97C166.65,-53.65 157.92,-55.41 149.25,-57.15"/>
<polygon fill="midnightblue" stroke="midnightblue" points="175.84,-55.37 184.96,-49.97 174.46,-48.51 175.84,-55.37"/>
</g>
<!-- Node3 -->
<g id="node3" class="node">
<title>Node3</title>
<g id="a_node3"><a xlink:href="classlegendary_1_1core_1_1_legendary_core.html#ace47decdca318622e0925352eb7780c3" target="_top" xlink:title=" ">
<polygon fill="white" stroke="black" points="15.5,-0.5 15.5,-19.5 133.5,-19.5 133.5,-0.5 15.5,-0.5"/>
<text text-anchor="middle" x="74.5" y="-7.5" font-family="Helvetica,sans-Serif" font-size="10.00">search_overlay_installs</text>
</a>
</g>
</g>
<!-- Node1&#45;&gt;Node3 -->
<g id="edge4" class="edge">
<title>Node1&#45;&gt;Node3</title>
<path fill="none" stroke="midnightblue" d="M175.14,-30.06C158.09,-26.63 139.42,-22.87 122.9,-19.54"/>
<polygon fill="midnightblue" stroke="midnightblue" points="174.46,-33.49 184.96,-32.03 175.84,-26.63 174.46,-33.49"/>
</g>
<!-- Node2&#45;&gt;Node2 -->
<g id="edge3" class="edge">
<title>Node2&#45;&gt;Node2</title>
<path fill="none" stroke="midnightblue" d="M102.22,-97.46C98.78,-102.18 89.54,-105.5 74.5,-105.5 49.82,-105.5 40.76,-96.56 47.31,-87.16"/>
<polygon fill="midnightblue" stroke="midnightblue" points="105.7,-96.96 101.69,-87.16 98.71,-97.33 105.7,-96.96"/>
</g>
<!-- Node3&#45;&gt;Node3 -->
<g id="edge5" class="edge">
<title>Node3&#45;&gt;Node3</title>
<path fill="none" stroke="midnightblue" d="M103.62,-28.65C102.4,-33.94 92.7,-38 74.5,-38 46.77,-38 38.76,-28.57 50.46,-19.76"/>
<polygon fill="midnightblue" stroke="midnightblue" points="106.54,-26.71 98.54,-19.76 100.46,-30.18 106.54,-26.71"/>
</g>
</g>
</svg>
