<?xml version="1.0" encoding="UTF-8" standalone="no"?>
<!DOCTYPE svg PUBLIC "-//W3C//DTD SVG 1.1//EN"
 "http://www.w3.org/Graphics/SVG/1.1/DTD/svg11.dtd">
<!-- Generated by graphviz version 2.49.3 (20211027.1534)
 -->
<!-- Title: state Pages: 1 -->
<!--zoomable 391 -->
<svg id="main" version="1.1" xmlns="http://www.w3.org/2000/svg" xmlns:xlink="http://www.w3.org/1999/xlink" xml:space="preserve" onload="init(evt)">
<style type="text/css"><![CDATA[
.edge:hover path { stroke: red; }
.edge:hover polygon { stroke: red; fill: red; }
]]></style>
<script type="text/javascript"><![CDATA[
var edges = document.getElementsByTagName('g');
if (edges && edges.length) {
  for (var i=0;i<edges.length;i++) {
    if (edges[i].id.substr(0,4)=='edge') {
      edges[i].setAttribute('class','edge');
    }
  }
}
]]></script>
        <defs>
                <circle id="rim" cx="0" cy="0" r="7"/>
                <circle id="rim2" cx="0" cy="0" r="3.5"/>
                <g id="zoomPlus">
                        <use xlink:href="#rim" fill="#404040">
                                <set attributeName="fill" to="#808080" begin="zoomplus.mouseover" end="zoomplus.mouseout"/>
                        </use>
                        <path d="M-4,0h8M0,-4v8" fill="none" stroke="white" stroke-width="1.5" pointer-events="none"/>
                </g>
                <g id="zoomMin">
                        <use xlink:href="#rim" fill="#404040">
                                <set attributeName="fill" to="#808080" begin="zoomminus.mouseover" end="zoomminus.mouseout"/>
                        </use>
                        <path d="M-4,0h8" fill="none" stroke="white" stroke-width="1.5" pointer-events="none"/>
                </g>
                <g id="dirArrow">
                        <path fill="none" stroke="white" stroke-width="1.5" d="M0,-3.0v7 M-2.5,-0.5L0,-3.0L2.5,-0.5"/>
                </g>
               <g id="resetDef">
                       <use xlink:href="#rim2" fill="#404040">
                               <set attributeName="fill" to="#808080" begin="reset.mouseover" end="reset.mouseout"/>
                       </use>
               </g>
        </defs>

<script type="text/javascript">
var viewWidth = 707;
var viewHeight = 391;
var sectionId = 'dynsection-35';
</script>
<script xlink:href="svgpan.js"/>
<svg id="graph" class="graph">
<g id="viewport">
<title>state</title>
<polygon fill="white" stroke="transparent" points="-4,4 -4,-386.5 703,-386.5 703,4 -4,4"/>
<!-- Node1 -->
<g id="node1" class="node">
<title>Node1</title>
<g id="a_node1"><a xlink:title=" ">
<polygon fill="#bfbfbf" stroke="black" points="661,-173 661,-192 699,-192 699,-173 661,-173"/>
<text text-anchor="middle" x="680" y="-180" font-family="Helvetica,sans-Serif" font-size="10.00">state</text>
</a>
</g>
</g>
<!-- Node2 -->
<g id="node2" class="node">
<title>Node2</title>
<g id="a_node2"><a xlink:href="classrare_1_1models_1_1base__game_1_1_rare_game_slim.html#a13a51449b5ed361bfe860829df5a87f5" target="_top" xlink:title=" ">
<polygon fill="white" stroke="black" points="482,-307.5 482,-337.5 624,-337.5 624,-307.5 482,-307.5"/>
<text text-anchor="start" x="490" y="-325.5" font-family="Helvetica,sans-Serif" font-size="10.00">rare.models.base_game.Rare</text>
<text text-anchor="middle" x="553" y="-314.5" font-family="Helvetica,sans-Serif" font-size="10.00">GameSlim.download_saves</text>
</a>
</g>
</g>
<!-- Node1&#45;&gt;Node2 -->
<g id="edge1" class="edge">
<title>Node1&#45;&gt;Node2</title>
<path fill="none" stroke="midnightblue" d="M674.03,-201.9C666.93,-226.08 651.68,-267.28 625,-292.5 618.58,-298.57 610.75,-303.5 602.67,-307.48"/>
<polygon fill="midnightblue" stroke="midnightblue" points="677.45,-202.68 676.74,-192.11 670.7,-200.82 677.45,-202.68"/>
</g>
<!-- Node3 -->
<g id="node3" class="node">
<title>Node3</title>
<g id="a_node3"><a xlink:href="classrare_1_1utils_1_1discord__rpc_1_1_discord_r_p_c.html#a322ebb4953da62177002651ba9b4edc1" target="_top" xlink:title=" ">
<polygon fill="white" stroke="black" points="481,-201.5 481,-231.5 625,-231.5 625,-201.5 481,-201.5"/>
<text text-anchor="start" x="489" y="-219.5" font-family="Helvetica,sans-Serif" font-size="10.00">rare.utils.discord</text>
<text text-anchor="middle" x="553" y="-208.5" font-family="Helvetica,sans-Serif" font-size="10.00">_rpc.DiscordRPC.remove_rpc</text>
</a>
</g>
</g>
<!-- Node1&#45;&gt;Node3 -->
<g id="edge3" class="edge">
<title>Node1&#45;&gt;Node3</title>
<path fill="none" stroke="midnightblue" d="M651.13,-190.08C638.77,-193.44 623.77,-197.52 609.3,-201.46"/>
<polygon fill="midnightblue" stroke="midnightblue" points="652.09,-193.45 660.82,-187.44 650.26,-186.69 652.09,-193.45"/>
</g>
<!-- Node4 -->
<g id="node4" class="node">
<title>Node4</title>
<g id="a_node4"><a xlink:href="classrare_1_1utils_1_1discord__rpc_1_1_discord_r_p_c.html#ab988e5fe435f9b45eab3c4e32ba0862b" target="_top" xlink:title=" ">
<polygon fill="white" stroke="black" points="304,-254.5 304,-284.5 445,-284.5 445,-254.5 304,-254.5"/>
<text text-anchor="start" x="312" y="-272.5" font-family="Helvetica,sans-Serif" font-size="10.00">rare.utils.discord</text>
<text text-anchor="middle" x="374.5" y="-261.5" font-family="Helvetica,sans-Serif" font-size="10.00">_rpc.DiscordRPC.update_rpc</text>
</a>
</g>
</g>
<!-- Node1&#45;&gt;Node4 -->
<g id="edge19" class="edge">
<title>Node1&#45;&gt;Node4</title>
<path fill="none" stroke="midnightblue" d="M671.64,-201.47C663.35,-219.93 647.98,-246.96 625,-259.5 570.11,-289.46 497.86,-288.83 445.24,-282.57"/>
<polygon fill="midnightblue" stroke="midnightblue" points="674.87,-202.83 675.51,-192.25 668.41,-200.11 674.87,-202.83"/>
</g>
<!-- Node9 -->
<g id="node9" class="node">
<title>Node9</title>
<g id="a_node9"><a xlink:href="classrare_1_1shared_1_1workers_1_1worker_1_1_queue_worker.html#ad22709b2e67308af35f55680d5a026e0" target="_top" xlink:title=" ">
<polygon fill="white" stroke="black" points="485.5,-134.5 485.5,-164.5 620.5,-164.5 620.5,-134.5 485.5,-134.5"/>
<text text-anchor="start" x="493.5" y="-152.5" font-family="Helvetica,sans-Serif" font-size="10.00">rare.shared.workers.worker.</text>
<text text-anchor="middle" x="553" y="-141.5" font-family="Helvetica,sans-Serif" font-size="10.00">QueueWorker.run</text>
</a>
</g>
</g>
<!-- Node1&#45;&gt;Node9 -->
<g id="edge17" class="edge">
<title>Node1&#45;&gt;Node9</title>
<path fill="none" stroke="midnightblue" d="M651.08,-175.13C639.21,-171.99 624.9,-168.22 610.96,-164.54"/>
<polygon fill="midnightblue" stroke="midnightblue" points="650.26,-178.53 660.82,-177.7 652.05,-171.76 650.26,-178.53"/>
</g>
<!-- Node10 -->
<g id="node10" class="node">
<title>Node10</title>
<g id="a_node10"><a xlink:href="classrare_1_1shared_1_1workers_1_1move_1_1_move_worker.html#a353be26086318f1f2cdedb1987790ecb" target="_top" xlink:title=" ">
<polygon fill="white" stroke="black" points="488,-67.5 488,-97.5 618,-97.5 618,-67.5 488,-67.5"/>
<text text-anchor="start" x="496" y="-85.5" font-family="Helvetica,sans-Serif" font-size="10.00">rare.shared.workers.move.</text>
<text text-anchor="middle" x="553" y="-74.5" font-family="Helvetica,sans-Serif" font-size="10.00">MoveWorker.worker_info</text>
</a>
</g>
</g>
<!-- Node1&#45;&gt;Node10 -->
<g id="edge20" class="edge">
<title>Node1&#45;&gt;Node10</title>
<path fill="none" stroke="midnightblue" d="M664.68,-164.59C654.41,-152.42 639.83,-136.44 625,-124.5 612.39,-114.35 597.08,-104.98 583.91,-97.68"/>
<polygon fill="midnightblue" stroke="midnightblue" points="662.27,-167.17 671.33,-172.66 667.67,-162.71 662.27,-167.17"/>
</g>
<!-- Node11 -->
<g id="node11" class="node">
<title>Node11</title>
<g id="a_node11"><a xlink:href="classrare_1_1shared_1_1workers_1_1verify_1_1_verify_worker.html#a353be26086318f1f2cdedb1987790ecb" target="_top" xlink:title=" ">
<polygon fill="white" stroke="black" points="488.5,-0.5 488.5,-30.5 617.5,-30.5 617.5,-0.5 488.5,-0.5"/>
<text text-anchor="start" x="496.5" y="-18.5" font-family="Helvetica,sans-Serif" font-size="10.00">rare.shared.workers.verify.</text>
<text text-anchor="middle" x="553" y="-7.5" font-family="Helvetica,sans-Serif" font-size="10.00">VerifyWorker.worker_info</text>
</a>
</g>
</g>
<!-- Node1&#45;&gt;Node11 -->
<g id="edge22" class="edge">
<title>Node1&#45;&gt;Node11</title>
<path fill="none" stroke="midnightblue" d="M674.62,-162.99C667.84,-136.5 652.62,-88.85 625,-57.5 615.15,-46.32 601.59,-37.3 588.95,-30.52"/>
<polygon fill="midnightblue" stroke="midnightblue" points="671.27,-164.04 677.02,-172.94 678.08,-162.4 671.27,-164.04"/>
</g>
<!-- Node2&#45;&gt;Node2 -->
<g id="edge2" class="edge">
<title>Node2&#45;&gt;Node2</title>
<path fill="none" stroke="midnightblue" d="M575.39,-347.96C572.61,-352.68 565.15,-356 553,-356 533.07,-356 525.75,-347.06 531.04,-337.66"/>
<polygon fill="midnightblue" stroke="midnightblue" points="578.87,-347.5 574.96,-337.66 571.88,-347.8 578.87,-347.5"/>
</g>
<!-- Node3&#45;&gt;Node3 -->
<g id="edge4" class="edge">
<title>Node3&#45;&gt;Node3</title>
<path fill="none" stroke="midnightblue" d="M575.39,-241.96C572.61,-246.68 565.15,-250 553,-250 533.07,-250 525.75,-241.06 531.04,-231.66"/>
<polygon fill="midnightblue" stroke="midnightblue" points="578.87,-241.5 574.96,-231.66 571.88,-241.8 578.87,-241.5"/>
</g>
<!-- Node3&#45;&gt;Node4 -->
<g id="edge5" class="edge">
<title>Node3&#45;&gt;Node4</title>
<path fill="none" stroke="midnightblue" d="M492.17,-234.47C470.57,-240.95 446.43,-248.2 425.73,-254.42"/>
<polygon fill="midnightblue" stroke="midnightblue" points="493.32,-237.77 501.89,-231.55 491.31,-231.07 493.32,-237.77"/>
</g>
<!-- Node8 -->
<g id="node8" class="node">
<title>Node8</title>
<g id="a_node8"><a xlink:href="classrare_1_1utils_1_1discord__rpc_1_1_discord_r_p_c.html#ac5fd570d52dbfb2f7c552af6f69b5489" target="_top" xlink:title=" ">
<polygon fill="white" stroke="black" points="1.5,-167 1.5,-208 123.5,-208 123.5,-167 1.5,-167"/>
<text text-anchor="start" x="9.5" y="-196" font-family="Helvetica,sans-Serif" font-size="10.00">rare.utils.discord</text>
<text text-anchor="start" x="9.5" y="-185" font-family="Helvetica,sans-Serif" font-size="10.00">_rpc.DiscordRPC.update</text>
<text text-anchor="middle" x="62.5" y="-174" font-family="Helvetica,sans-Serif" font-size="10.00">_settings</text>
</a>
</g>
</g>
<!-- Node3&#45;&gt;Node8 -->
<g id="edge16" class="edge">
<title>Node3&#45;&gt;Node8</title>
<path fill="none" stroke="midnightblue" d="M470.84,-211.68C373.09,-205.88 211.19,-196.27 123.84,-191.08"/>
<polygon fill="midnightblue" stroke="midnightblue" points="470.78,-215.18 480.97,-212.28 471.19,-208.2 470.78,-215.18"/>
</g>
<!-- Node4&#45;&gt;Node4 -->
<g id="edge15" class="edge">
<title>Node4&#45;&gt;Node4</title>
<path fill="none" stroke="midnightblue" d="M402.93,-294.96C399.4,-299.68 389.92,-303 374.5,-303 349.19,-303 339.89,-294.06 346.62,-284.66"/>
<polygon fill="midnightblue" stroke="midnightblue" points="406.41,-294.46 402.38,-284.66 399.42,-294.83 406.41,-294.46"/>
</g>
<!-- Node5 -->
<g id="node5" class="node">
<title>Node5</title>
<g id="a_node5"><a xlink:href="classrare_1_1utils_1_1discord__rpc_1_1_discord_r_p_c.html#a91d8946fb4a846f63b5c18378e0c7bda" target="_top" xlink:title=" ">
<polygon fill="white" stroke="black" points="161,-245 161,-286 268,-286 268,-245 161,-245"/>
<text text-anchor="start" x="169" y="-274" font-family="Helvetica,sans-Serif" font-size="10.00">rare.utils.discord</text>
<text text-anchor="start" x="169" y="-263" font-family="Helvetica,sans-Serif" font-size="10.00">_rpc.DiscordRPC.set</text>
<text text-anchor="middle" x="214.5" y="-252" font-family="Helvetica,sans-Serif" font-size="10.00">_discord_rpc</text>
</a>
</g>
</g>
<!-- Node4&#45;&gt;Node5 -->
<g id="edge6" class="edge">
<title>Node4&#45;&gt;Node5</title>
<path fill="none" stroke="midnightblue" d="M293.65,-267.48C285.04,-267.26 276.45,-267.04 268.28,-266.84"/>
<polygon fill="midnightblue" stroke="midnightblue" points="293.65,-270.98 303.74,-267.73 293.83,-263.98 293.65,-270.98"/>
</g>
<!-- Node5&#45;&gt;Node3 -->
<g id="edge9" class="edge">
<title>Node5&#45;&gt;Node3</title>
<path fill="none" stroke="midnightblue" d="M278.23,-250.46C286.86,-248.65 295.63,-246.93 304,-245.5 363.29,-235.36 431.16,-227.7 480.89,-222.8"/>
<polygon fill="midnightblue" stroke="midnightblue" points="277.23,-247.1 268.2,-252.63 278.71,-253.94 277.23,-247.1"/>
</g>
<!-- Node5&#45;&gt;Node5 -->
<g id="edge10" class="edge">
<title>Node5&#45;&gt;Node5</title>
<path fill="none" stroke="midnightblue" d="M240.65,-296.36C236.76,-301.2 228.04,-304.5 214.5,-304.5 192.83,-304.5 183.52,-296.04 186.56,-286.36"/>
<polygon fill="midnightblue" stroke="midnightblue" points="244.12,-296.82 242.44,-286.36 237.23,-295.59 244.12,-296.82"/>
</g>
<!-- Node6 -->
<g id="node6" class="node">
<title>Node6</title>
<g id="a_node6"><a xlink:href="classrare_1_1utils_1_1discord__rpc_1_1_discord_r_p_c.html#a914424ca04cbc4c622f65833389f7b36" target="_top" xlink:title=" ">
<polygon fill="white" stroke="black" points="0,-323 0,-364 125,-364 125,-323 0,-323"/>
<text text-anchor="start" x="8" y="-352" font-family="Helvetica,sans-Serif" font-size="10.00">rare.utils.discord</text>
<text text-anchor="start" x="8" y="-341" font-family="Helvetica,sans-Serif" font-size="10.00">_rpc.DiscordRPC.remove</text>
<text text-anchor="middle" x="62.5" y="-330" font-family="Helvetica,sans-Serif" font-size="10.00">_presence</text>
</a>
</g>
</g>
<!-- Node5&#45;&gt;Node6 -->
<g id="edge7" class="edge">
<title>Node5&#45;&gt;Node6</title>
<path fill="none" stroke="midnightblue" d="M167.11,-291.15C153.6,-298.49 138.76,-306.41 125,-313.5 118.98,-316.6 112.59,-319.81 106.3,-322.92"/>
<polygon fill="midnightblue" stroke="midnightblue" points="169.12,-294.04 176.23,-286.18 165.77,-287.89 169.12,-294.04"/>
</g>
<!-- Node7 -->
<g id="node7" class="node">
<title>Node7</title>
<g id="a_node7"><a xlink:href="classrare_1_1utils_1_1discord__rpc_1_1_discord_r_p_c.html#a25cf611ed634b7e951a99a17a079e07e" target="_top" xlink:title=" ">
<polygon fill="white" stroke="black" points="1.5,-245 1.5,-286 123.5,-286 123.5,-245 1.5,-245"/>
<text text-anchor="start" x="9.5" y="-274" font-family="Helvetica,sans-Serif" font-size="10.00">rare.utils.discord</text>
<text text-anchor="start" x="9.5" y="-263" font-family="Helvetica,sans-Serif" font-size="10.00">_rpc.DiscordRPC.update</text>
<text text-anchor="middle" x="62.5" y="-252" font-family="Helvetica,sans-Serif" font-size="10.00">_presence</text>
</a>
</g>
</g>
<!-- Node5&#45;&gt;Node7 -->
<g id="edge11" class="edge">
<title>Node5&#45;&gt;Node7</title>
<path fill="none" stroke="midnightblue" d="M150.34,-265.5C141.48,-265.5 132.39,-265.5 123.58,-265.5"/>
<polygon fill="midnightblue" stroke="midnightblue" points="150.62,-269 160.62,-265.5 150.62,-262 150.62,-269"/>
</g>
<!-- Node5&#45;&gt;Node8 -->
<g id="edge13" class="edge">
<title>Node5&#45;&gt;Node8</title>
<path fill="none" stroke="midnightblue" d="M164.73,-240.14C144.74,-229.74 121.89,-217.86 102.97,-208.02"/>
<polygon fill="midnightblue" stroke="midnightblue" points="163.21,-243.29 173.7,-244.8 166.44,-237.08 163.21,-243.29"/>
</g>
<!-- Node6&#45;&gt;Node6 -->
<g id="edge8" class="edge">
<title>Node6&#45;&gt;Node6</title>
<path fill="none" stroke="midnightblue" d="M88.65,-374.36C84.76,-379.2 76.04,-382.5 62.5,-382.5 40.83,-382.5 31.52,-374.04 34.56,-364.36"/>
<polygon fill="midnightblue" stroke="midnightblue" points="92.12,-374.82 90.44,-364.36 85.23,-373.59 92.12,-374.82"/>
</g>
<!-- Node7&#45;&gt;Node7 -->
<g id="edge12" class="edge">
<title>Node7&#45;&gt;Node7</title>
<path fill="none" stroke="midnightblue" d="M88.65,-296.36C84.76,-301.2 76.04,-304.5 62.5,-304.5 40.83,-304.5 31.52,-296.04 34.56,-286.36"/>
<polygon fill="midnightblue" stroke="midnightblue" points="92.12,-296.82 90.44,-286.36 85.23,-295.59 92.12,-296.82"/>
</g>
<!-- Node8&#45;&gt;Node8 -->
<g id="edge14" class="edge">
<title>Node8&#45;&gt;Node8</title>
<path fill="none" stroke="midnightblue" d="M88.65,-218.36C84.76,-223.2 76.04,-226.5 62.5,-226.5 40.83,-226.5 31.52,-218.04 34.56,-208.36"/>
<polygon fill="midnightblue" stroke="midnightblue" points="92.12,-218.82 90.44,-208.36 85.23,-217.59 92.12,-218.82"/>
</g>
<!-- Node9&#45;&gt;Node9 -->
<g id="edge18" class="edge">
<title>Node9&#45;&gt;Node9</title>
<path fill="none" stroke="midnightblue" d="M575.39,-174.96C572.61,-179.68 565.15,-183 553,-183 533.07,-183 525.75,-174.06 531.04,-164.66"/>
<polygon fill="midnightblue" stroke="midnightblue" points="578.87,-174.5 574.96,-164.66 571.88,-174.8 578.87,-174.5"/>
</g>
<!-- Node10&#45;&gt;Node10 -->
<g id="edge21" class="edge">
<title>Node10&#45;&gt;Node10</title>
<path fill="none" stroke="midnightblue" d="M575.39,-107.96C572.61,-112.68 565.15,-116 553,-116 533.07,-116 525.75,-107.06 531.04,-97.66"/>
<polygon fill="midnightblue" stroke="midnightblue" points="578.87,-107.5 574.96,-97.66 571.88,-107.8 578.87,-107.5"/>
</g>
<!-- Node11&#45;&gt;Node11 -->
<g id="edge23" class="edge">
<title>Node11&#45;&gt;Node11</title>
<path fill="none" stroke="midnightblue" d="M575.39,-40.96C572.61,-45.68 565.15,-49 553,-49 533.07,-49 525.75,-40.06 531.04,-30.66"/>
<polygon fill="midnightblue" stroke="midnightblue" points="578.87,-40.5 574.96,-30.66 571.88,-40.8 578.87,-40.5"/>
</g>
</g>
</svg>
        <g id="navigator" transform="translate(0 0)" fill="#404254">
                <rect fill="#f2f5e9" fill-opacity="0.5" stroke="#606060" stroke-width=".5" x="0" y="0" width="60" height="60"/>
                <use id="zoomplus" xlink:href="#zoomPlus" x="17" y="9" onmousedown="handleZoom(evt,'in')"/>
                <use id="zoomminus" xlink:href="#zoomMin" x="42" y="9" onmousedown="handleZoom(evt,'out')"/>
                <use id="reset" xlink:href="#resetDef" x="30" y="36" onmousedown="handleReset()"/>
                <g id="arrowUp" xlink:href="#dirArrow" transform="translate(30 24)" onmousedown="handlePan(0,-1)">
                  <use xlink:href="#rim" fill="#404040">
                        <set attributeName="fill" to="#808080" begin="arrowUp.mouseover" end="arrowUp.mouseout"/>
                  </use>
                  <path fill="none" stroke="white" stroke-width="1.5" d="M0,-3.0v7 M-2.5,-0.5L0,-3.0L2.5,-0.5"/>
                </g>
                <g id="arrowRight" xlink:href="#dirArrow" transform="rotate(90) translate(36 -43)" onmousedown="handlePan(1,0)">
                  <use xlink:href="#rim" fill="#404040">
                        <set attributeName="fill" to="#808080" begin="arrowRight.mouseover" end="arrowRight.mouseout"/>
                  </use>
                  <path fill="none" stroke="white" stroke-width="1.5" d="M0,-3.0v7 M-2.5,-0.5L0,-3.0L2.5,-0.5"/>
                </g>
                <g id="arrowDown" xlink:href="#dirArrow" transform="rotate(180) translate(-30 -48)" onmousedown="handlePan(0,1)">
                  <use xlink:href="#rim" fill="#404040">
                        <set attributeName="fill" to="#808080" begin="arrowDown.mouseover" end="arrowDown.mouseout"/>
                  </use>
                  <path fill="none" stroke="white" stroke-width="1.5" d="M0,-3.0v7 M-2.5,-0.5L0,-3.0L2.5,-0.5"/>
                </g>
                <g id="arrowLeft" xlink:href="#dirArrow" transform="rotate(270) translate(-36 17)" onmousedown="handlePan(-1,0)">
                  <use xlink:href="#rim" fill="#404040">
                        <set attributeName="fill" to="#808080" begin="arrowLeft.mouseover" end="arrowLeft.mouseout"/>
                  </use>
                  <path fill="none" stroke="white" stroke-width="1.5" d="M0,-3.0v7 M-2.5,-0.5L0,-3.0L2.5,-0.5"/>
                </g>
        </g>
        <svg viewBox="0 0 15 15" width="100%" height="30px" preserveAspectRatio="xMaxYMin meet">
         <g id="arrow_out" transform="scale(0.3 0.3)">
          <a xlink:href="classrare_1_1models_1_1base__game_1_1_rare_game_base_a6e0a6ad2fe4af57f9f196320953d9bdc_icgraph_org.svg" target="_base">
           <rect id="button" ry="5" rx="5" y="6" x="6" height="38" width="38"
                fill="#f2f5e9" fill-opacity="0.5" stroke="#606060" stroke-width="1.0"/>
           <path id="arrow"
             d="M 11.500037,31.436501 C 11.940474,20.09759 22.043105,11.32322 32.158766,21.979434 L 37.068811,17.246167 C 37.068811,17.246167 37.088388,32 37.088388,32 L 22.160133,31.978069 C 22.160133,31.978069 26.997745,27.140456 26.997745,27.140456 C 18.528582,18.264221 13.291696,25.230495 11.500037,31.436501 z"
             style="fill:#404040;"/>
          </a>
         </g>
        </svg>
</svg>
