<?xml version="1.0" encoding="UTF-8" standalone="no"?>
<!DOCTYPE svg PUBLIC "-//W3C//DTD SVG 1.1//EN"
 "http://www.w3.org/Graphics/SVG/1.1/DTD/svg11.dtd">
<!-- Generated by graphviz version 2.49.3 (20211027.1534)
 -->
<!-- Title: ListViewContainer Pages: 1 -->
<svg width="104pt" height="320pt"
 viewBox="0.00 0.00 104.00 320.00" xmlns="http://www.w3.org/2000/svg" xmlns:xlink="http://www.w3.org/1999/xlink">
<g id="graph0" class="graph" transform="scale(1 1) rotate(0) translate(4 316)">
<title>ListViewContainer</title>
<polygon fill="white" stroke="transparent" points="-4,4 -4,-316 100,-316 100,4 -4,4"/>
<!-- Node1 -->
<g id="node1" class="node">
<title>Node1</title>
<g id="a_node1"><a xlink:title=" ">
<polygon fill="#bfbfbf" stroke="black" points="0,-0.5 0,-112.5 96,-112.5 96,-0.5 0,-0.5"/>
<text text-anchor="middle" x="48" y="-100.5" font-family="Helvetica,sans-Serif" font-size="10.00">ListViewContainer</text>
<polyline fill="none" stroke="black" points="0,-93.5 96,-93.5 "/>
<text text-anchor="middle" x="48" y="-81.5" font-family="Helvetica,sans-Serif" font-size="10.00"> </text>
<polyline fill="none" stroke="black" points="0,-74.5 96,-74.5 "/>
<text text-anchor="start" x="8" y="-62.5" font-family="Helvetica,sans-Serif" font-size="10.00">+ __init__()</text>
<text text-anchor="start" x="8" y="-51.5" font-family="Helvetica,sans-Serif" font-size="10.00">+ add_widget()</text>
<text text-anchor="start" x="8" y="-40.5" font-family="Helvetica,sans-Serif" font-size="10.00">+ filter_view()</text>
<text text-anchor="start" x="8" y="-29.5" font-family="Helvetica,sans-Serif" font-size="10.00">+ update_view()</text>
<text text-anchor="start" x="8" y="-18.5" font-family="Helvetica,sans-Serif" font-size="10.00">+ find_widget()</text>
<text text-anchor="start" x="8" y="-7.5" font-family="Helvetica,sans-Serif" font-size="10.00">+ order_view()</text>
</a>
</g>
</g>
<!-- Node2 -->
<g id="node2" class="node">
<title>Node2</title>
<g id="a_node2"><a xlink:href="classrare_1_1components_1_1tabs_1_1library_1_1widgets_1_1_view_container.html" target="_top" xlink:title=" ">
<polygon fill="white" stroke="black" points="8,-149.5 8,-217.5 88,-217.5 88,-149.5 8,-149.5"/>
<text text-anchor="middle" x="48" y="-205.5" font-family="Helvetica,sans-Serif" font-size="10.00">ViewContainer</text>
<polyline fill="none" stroke="black" points="8,-198.5 88,-198.5 "/>
<text text-anchor="middle" x="48" y="-186.5" font-family="Helvetica,sans-Serif" font-size="10.00"> </text>
<polyline fill="none" stroke="black" points="8,-179.5 88,-179.5 "/>
<text text-anchor="start" x="16" y="-167.5" font-family="Helvetica,sans-Serif" font-size="10.00">+ __init__()</text>
<text text-anchor="start" x="16" y="-156.5" font-family="Helvetica,sans-Serif" font-size="10.00">+ order_view()</text>
</a>
</g>
</g>
<!-- Node2&#45;&gt;Node1 -->
<g id="edge1" class="edge">
<title>Node2&#45;&gt;Node1</title>
<path fill="none" stroke="midnightblue" d="M48,-139.18C48,-130.6 48,-121.49 48,-112.59"/>
<polygon fill="none" stroke="midnightblue" points="44.5,-139.33 48,-149.33 51.5,-139.33 44.5,-139.33"/>
</g>
<!-- Node3 -->
<g id="node3" class="node">
<title>Node3</title>
<g id="a_node3"><a xlink:title=" ">
<polygon fill="white" stroke="#bfbfbf" points="21,-254.5 21,-311.5 75,-311.5 75,-254.5 21,-254.5"/>
<text text-anchor="middle" x="48" y="-299.5" font-family="Helvetica,sans-Serif" font-size="10.00">QWidget</text>
<polyline fill="none" stroke="#bfbfbf" points="21,-292.5 75,-292.5 "/>
<text text-anchor="middle" x="48" y="-280.5" font-family="Helvetica,sans-Serif" font-size="10.00"> </text>
<polyline fill="none" stroke="#bfbfbf" points="21,-273.5 75,-273.5 "/>
<text text-anchor="middle" x="48" y="-261.5" font-family="Helvetica,sans-Serif" font-size="10.00"> </text>
</a>
</g>
</g>
<!-- Node3&#45;&gt;Node2 -->
<g id="edge2" class="edge">
<title>Node3&#45;&gt;Node2</title>
<path fill="none" stroke="midnightblue" d="M48,-244.06C48,-235.39 48,-226.24 48,-217.79"/>
<polygon fill="none" stroke="midnightblue" points="44.5,-244.32 48,-254.32 51.5,-244.32 44.5,-244.32"/>
</g>
</g>
</svg>
