<?xml version="1.0" encoding="UTF-8" standalone="no"?>
<!DOCTYPE svg PUBLIC "-//W3C//DTD SVG 1.1//EN"
 "http://www.w3.org/Graphics/SVG/1.1/DTD/svg11.dtd">
<!-- Generated by graphviz version 2.49.3 (20211027.1534)
 -->
<!-- Title: action Pages: 1 -->
<svg width="595pt" height="315pt"
 viewBox="0.00 0.00 594.60 315.00" xmlns="http://www.w3.org/2000/svg" xmlns:xlink="http://www.w3.org/1999/xlink">
<g id="graph0" class="graph" transform="scale(1 1) rotate(0) translate(4 311)">
<title>action</title>
<polygon fill="white" stroke="transparent" points="-4,4 -4,-311 590.6,-311 590.6,4 -4,4"/>
<!-- Node1 -->
<g id="node1" class="node">
<title>Node1</title>
<g id="a_node1"><a xlink:title=" ">
<polygon fill="#bfbfbf" stroke="black" points="11.6,-171 11.6,-190 54.6,-190 54.6,-171 11.6,-171"/>
<text text-anchor="middle" x="33.1" y="-178" font-family="Helvetica,sans-Serif" font-size="10.00">action</text>
</a>
</g>
</g>
<!-- Node1&#45;&gt;Node1 -->
<g id="edge1" class="edge">
<title>Node1&#45;&gt;Node1</title>
<path fill="none" stroke="midnightblue" d="M11.38,-187.39C-8.46,-196.88 -1.22,-208.5 33.1,-208.5 60.45,-208.5 70.61,-201.12 63.56,-193.32"/>
<polygon fill="midnightblue" stroke="midnightblue" points="65.06,-190.11 54.82,-187.39 61.13,-195.9 65.06,-190.11"/>
</g>
<!-- Node2 -->
<g id="node2" class="node">
<title>Node2</title>
<g id="a_node2"><a xlink:href="classrare_1_1components_1_1tabs_1_1games_1_1game__widgets_1_1game__widget_1_1_game_widget.html#ada4904cab960c53f234fc113a7fcf349" target="_top" xlink:title=" ">
<polygon fill="white" stroke="black" points="90.6,-258.5 90.6,-288.5 323.6,-288.5 323.6,-258.5 90.6,-258.5"/>
<text text-anchor="start" x="98.6" y="-276.5" font-family="Helvetica,sans-Serif" font-size="10.00">rare.components.tabs.games.game</text>
<text text-anchor="middle" x="207.1" y="-265.5" font-family="Helvetica,sans-Serif" font-size="10.00">_widgets.game_widget.GameWidget.update_state</text>
</a>
</g>
</g>
<!-- Node1&#45;&gt;Node2 -->
<g id="edge2" class="edge">
<title>Node1&#45;&gt;Node2</title>
<path fill="none" stroke="midnightblue" d="M39.26,-190.13C47.83,-205.13 66.46,-233.85 90.6,-248.5 94.2,-250.68 97.97,-252.68 101.85,-254.5"/>
<polygon fill="midnightblue" stroke="midnightblue" points="100.52,-257.74 111.1,-258.45 103.27,-251.3 100.52,-257.74"/>
</g>
<!-- Node3 -->
<g id="node3" class="node">
<title>Node3</title>
<g id="a_node3"><a xlink:href="classrare_1_1components_1_1tabs_1_1games_1_1integrations_1_1eos__group_1_1_eos_prefix_widget.html#aa56afc440f4694cd7d78c59fb3280b60" target="_top" xlink:title=" ">
<polygon fill="white" stroke="black" points="170.6,-202 170.6,-221 243.6,-221 243.6,-202 170.6,-202"/>
<text text-anchor="middle" x="207.1" y="-209" font-family="Helvetica,sans-Serif" font-size="10.00">update_state</text>
</a>
</g>
</g>
<!-- Node1&#45;&gt;Node3 -->
<g id="edge4" class="edge">
<title>Node1&#45;&gt;Node3</title>
<path fill="none" stroke="midnightblue" d="M54.72,-185.12C65.4,-187.45 78.68,-190.25 90.6,-192.5 113.51,-196.82 139.08,-201.08 160.33,-204.47"/>
<polygon fill="midnightblue" stroke="midnightblue" points="159.96,-207.95 170.38,-206.06 161.05,-201.04 159.96,-207.95"/>
</g>
<!-- Node5 -->
<g id="node5" class="node">
<title>Node5</title>
<g id="a_node5"><a xlink:href="classrare_1_1components_1_1tabs_1_1games_1_1integrations_1_1eos__group_1_1_eos_group.html#ada4904cab960c53f234fc113a7fcf349" target="_top" xlink:title=" ">
<polygon fill="white" stroke="black" points="101.1,-134.5 101.1,-164.5 313.1,-164.5 313.1,-134.5 101.1,-134.5"/>
<text text-anchor="start" x="109.1" y="-152.5" font-family="Helvetica,sans-Serif" font-size="10.00">rare.components.tabs.games.integrations.eos</text>
<text text-anchor="middle" x="207.1" y="-141.5" font-family="Helvetica,sans-Serif" font-size="10.00">_group.EosGroup.update_state</text>
</a>
</g>
</g>
<!-- Node1&#45;&gt;Node5 -->
<g id="edge8" class="edge">
<title>Node1&#45;&gt;Node5</title>
<path fill="none" stroke="midnightblue" d="M54.85,-176.76C69.72,-174.08 90.92,-170.26 112.75,-166.32"/>
<polygon fill="midnightblue" stroke="midnightblue" points="113.59,-169.73 122.81,-164.51 112.35,-162.84 113.59,-169.73"/>
</g>
<!-- Node6 -->
<g id="node6" class="node">
<title>Node6</title>
<g id="a_node6"><a xlink:href="classrare_1_1components_1_1tabs_1_1settings_1_1widgets_1_1wrappers_1_1_wrapper_settings.html#ada4904cab960c53f234fc113a7fcf349" target="_top" xlink:title=" ">
<polygon fill="white" stroke="black" points="93.6,-67.5 93.6,-97.5 320.6,-97.5 320.6,-67.5 93.6,-67.5"/>
<text text-anchor="start" x="101.6" y="-85.5" font-family="Helvetica,sans-Serif" font-size="10.00">rare.components.tabs.settings.widgets.wrappers.</text>
<text text-anchor="middle" x="207.1" y="-74.5" font-family="Helvetica,sans-Serif" font-size="10.00">WrapperSettings.update_state</text>
</a>
</g>
</g>
<!-- Node1&#45;&gt;Node6 -->
<g id="edge10" class="edge">
<title>Node1&#45;&gt;Node6</title>
<path fill="none" stroke="midnightblue" d="M41.53,-170.9C51.5,-158.61 70.3,-137.36 90.6,-124.5 105.67,-114.95 123.21,-107.16 140,-101"/>
<polygon fill="midnightblue" stroke="midnightblue" points="141.51,-104.18 149.78,-97.56 139.19,-97.58 141.51,-104.18"/>
</g>
<!-- Node2&#45;&gt;Node2 -->
<g id="edge3" class="edge">
<title>Node2&#45;&gt;Node2</title>
<path fill="none" stroke="midnightblue" d="M176.78,-288.66C169.47,-298.06 179.57,-307 207.1,-307 223.88,-307 234.18,-303.68 238.02,-298.96"/>
<polygon fill="midnightblue" stroke="midnightblue" points="241.49,-298.44 237.42,-288.66 234.51,-298.84 241.49,-298.44"/>
</g>
<!-- Node3&#45;&gt;Node3 -->
<g id="edge7" class="edge">
<title>Node3&#45;&gt;Node3</title>
<path fill="none" stroke="midnightblue" d="M180.28,-221.26C167.24,-230.07 176.17,-239.5 207.1,-239.5 227.88,-239.5 238.73,-235.24 239.66,-229.77"/>
<polygon fill="midnightblue" stroke="midnightblue" points="242.41,-227.59 233.92,-221.26 236.61,-231.51 242.41,-227.59"/>
</g>
<!-- Node4 -->
<g id="node4" class="node">
<title>Node4</title>
<g id="a_node4"><a xlink:href="namespacerare_1_1utils_1_1misc.html#ad964a362f511f9be2d6532129e7bf731" target="_top" xlink:title=" ">
<polygon fill="white" stroke="black" points="415.1,-202 415.1,-221 531.1,-221 531.1,-202 415.1,-202"/>
<text text-anchor="middle" x="473.1" y="-209" font-family="Helvetica,sans-Serif" font-size="10.00">rare.utils.misc.qta_icon</text>
</a>
</g>
</g>
<!-- Node3&#45;&gt;Node4 -->
<g id="edge5" class="edge">
<title>Node3&#45;&gt;Node4</title>
<path fill="none" stroke="midnightblue" d="M243.7,-211.5C284.87,-211.5 353.54,-211.5 404.86,-211.5"/>
<polygon fill="midnightblue" stroke="midnightblue" points="404.88,-215 414.88,-211.5 404.88,-208 404.88,-215"/>
</g>
<!-- Node4&#45;&gt;Node4 -->
<g id="edge6" class="edge">
<title>Node4&#45;&gt;Node4</title>
<path fill="none" stroke="midnightblue" d="M432.43,-221.11C412.01,-229.96 425.56,-239.5 473.1,-239.5 510.24,-239.5 526.64,-233.68 522.29,-226.91"/>
<polygon fill="midnightblue" stroke="midnightblue" points="524,-223.84 513.77,-221.11 520.07,-229.63 524,-223.84"/>
</g>
<!-- Node5&#45;&gt;Node5 -->
<g id="edge9" class="edge">
<title>Node5&#45;&gt;Node5</title>
<path fill="none" stroke="midnightblue" d="M176.78,-164.66C169.47,-174.06 179.57,-183 207.1,-183 223.88,-183 234.18,-179.68 238.02,-174.96"/>
<polygon fill="midnightblue" stroke="midnightblue" points="241.49,-174.44 237.42,-164.66 234.51,-174.84 241.49,-174.44"/>
</g>
<!-- Node6&#45;&gt;Node6 -->
<g id="edge14" class="edge">
<title>Node6&#45;&gt;Node6</title>
<path fill="none" stroke="midnightblue" d="M176.78,-97.66C169.47,-107.06 179.57,-116 207.1,-116 223.88,-116 234.18,-112.68 238.02,-107.96"/>
<polygon fill="midnightblue" stroke="midnightblue" points="241.49,-107.44 237.42,-97.66 234.51,-107.84 241.49,-107.44"/>
</g>
<!-- Node7 -->
<g id="node7" class="node">
<title>Node7</title>
<g id="a_node7"><a xlink:href="classrare_1_1components_1_1tabs_1_1settings_1_1widgets_1_1wrappers_1_1_wrapper_settings.html#a50f01ffa1457fa05b07dbc24d358cbfb" target="_top" xlink:title=" ">
<polygon fill="white" stroke="black" points="359.6,-134.5 359.6,-164.5 586.6,-164.5 586.6,-134.5 359.6,-134.5"/>
<text text-anchor="start" x="367.6" y="-152.5" font-family="Helvetica,sans-Serif" font-size="10.00">rare.components.tabs.settings.widgets.wrappers.</text>
<text text-anchor="middle" x="473.1" y="-141.5" font-family="Helvetica,sans-Serif" font-size="10.00">WrapperSettings.__add_wrapper</text>
</a>
</g>
</g>
<!-- Node6&#45;&gt;Node7 -->
<g id="edge11" class="edge">
<title>Node6&#45;&gt;Node7</title>
<path fill="none" stroke="midnightblue" d="M259.81,-97.55C289.01,-105.87 326.23,-116.17 359.6,-124.5 370,-127.1 380.98,-129.7 391.84,-132.2"/>
<polygon fill="midnightblue" stroke="midnightblue" points="391.23,-135.65 401.76,-134.46 392.78,-128.82 391.23,-135.65"/>
</g>
<!-- Node8 -->
<g id="node8" class="node">
<title>Node8</title>
<g id="a_node8"><a xlink:href="classrare_1_1components_1_1tabs_1_1games_1_1integrations_1_1egl__sync__group_1_1_e_g_l_sync_list_item.html#a9c470cc60eae203f55455d0e0d7f5712" target="_top" xlink:title=" ">
<polygon fill="white" stroke="black" points="368.6,-67.5 368.6,-97.5 577.6,-97.5 577.6,-67.5 368.6,-67.5"/>
<text text-anchor="start" x="376.6" y="-85.5" font-family="Helvetica,sans-Serif" font-size="10.00">rare.components.tabs.games.integrations.egl</text>
<text text-anchor="middle" x="473.1" y="-74.5" font-family="Helvetica,sans-Serif" font-size="10.00">_sync_group.EGLSyncListItem.app_name</text>
</a>
</g>
</g>
<!-- Node6&#45;&gt;Node8 -->
<g id="edge12" class="edge">
<title>Node6&#45;&gt;Node8</title>
<path fill="none" stroke="midnightblue" d="M320.83,-82.5C333.2,-82.5 345.8,-82.5 358.19,-82.5"/>
<polygon fill="midnightblue" stroke="midnightblue" points="358.53,-86 368.53,-82.5 358.53,-79 358.53,-86"/>
</g>
<!-- Node9 -->
<g id="node9" class="node">
<title>Node9</title>
<g id="a_node9"><a xlink:href="classrare_1_1shared_1_1rare__core_1_1_rare_core.html#a361d22fed4b0c7db6ea4d03e1b0a51ec" target="_top" xlink:title=" ">
<polygon fill="white" stroke="black" points="408.1,-0.5 408.1,-30.5 538.1,-30.5 538.1,-0.5 408.1,-0.5"/>
<text text-anchor="start" x="416.1" y="-18.5" font-family="Helvetica,sans-Serif" font-size="10.00">rare.shared.rare_core.Rare</text>
<text text-anchor="middle" x="473.1" y="-7.5" font-family="Helvetica,sans-Serif" font-size="10.00">Core.wrappers</text>
</a>
</g>
</g>
<!-- Node6&#45;&gt;Node9 -->
<g id="edge15" class="edge">
<title>Node6&#45;&gt;Node9</title>
<path fill="none" stroke="midnightblue" d="M267.35,-67.46C307.46,-57.28 360.6,-43.8 402.7,-33.11"/>
<polygon fill="midnightblue" stroke="midnightblue" points="403.76,-36.45 412.6,-30.6 402.04,-29.67 403.76,-36.45"/>
</g>
<!-- Node8&#45;&gt;Node8 -->
<g id="edge13" class="edge">
<title>Node8&#45;&gt;Node8</title>
<path fill="none" stroke="midnightblue" d="M426.74,-97.66C415.57,-107.06 431.02,-116 473.1,-116 499.4,-116 515.3,-112.51 520.8,-107.59"/>
<polygon fill="midnightblue" stroke="midnightblue" points="524.26,-107.1 519.46,-97.66 517.33,-108.04 524.26,-107.1"/>
</g>
<!-- Node9&#45;&gt;Node9 -->
<g id="edge16" class="edge">
<title>Node9&#45;&gt;Node9</title>
<path fill="none" stroke="midnightblue" d="M426.74,-30.66C415.57,-40.06 431.02,-49 473.1,-49 499.4,-49 515.3,-45.51 520.8,-40.59"/>
<polygon fill="midnightblue" stroke="midnightblue" points="524.26,-40.1 519.46,-30.66 517.33,-41.04 524.26,-40.1"/>
</g>
</g>
</svg>
