<?xml version="1.0" encoding="UTF-8" standalone="no"?>
<!DOCTYPE svg PUBLIC "-//W3C//DTD SVG 1.1//EN"
 "http://www.w3.org/Graphics/SVG/1.1/DTD/svg11.dtd">
<!-- Generated by graphviz version 2.49.3 (20211027.1534)
 -->
<!-- Title: on_install_dialog_closed Pages: 1 -->
<svg width="795pt" height="295pt"
 viewBox="0.00 0.00 795.00 295.00" xmlns="http://www.w3.org/2000/svg" xmlns:xlink="http://www.w3.org/1999/xlink">
<g id="graph0" class="graph" transform="scale(1 1) rotate(0) translate(4 291)">
<title>on_install_dialog_closed</title>
<polygon fill="white" stroke="transparent" points="-4,4 -4,-291 791,-291 791,4 -4,4"/>
<!-- Node1 -->
<g id="node1" class="node">
<title>Node1</title>
<g id="a_node1"><a xlink:title=" ">
<polygon fill="#bfbfbf" stroke="black" points="0,-101 0,-120 122,-120 122,-101 0,-101"/>
<text text-anchor="middle" x="61" y="-108" font-family="Helvetica,sans-Serif" font-size="10.00">on_install_dialog_closed</text>
</a>
</g>
</g>
<!-- Node1&#45;&gt;Node1 -->
<g id="edge20" class="edge">
<title>Node1&#45;&gt;Node1</title>
<path fill="none" stroke="midnightblue" d="M29.87,-120.26C14.72,-129.07 25.1,-138.5 61,-138.5 86.24,-138.5 98.87,-133.84 98.87,-128"/>
<polygon fill="midnightblue" stroke="midnightblue" points="101.34,-125.5 92.13,-120.26 96.06,-130.1 101.34,-125.5"/>
</g>
<!-- Node2 -->
<g id="node2" class="node">
<title>Node2</title>
<g id="a_node2"><a xlink:href="classrare_1_1components_1_1tabs_1_1games_1_1game__info_1_1game__dlc_1_1_game_dlc_widget.html#abb32e37b8ffc3927ad711556854f45cb" target="_top" xlink:title=" ">
<polygon fill="white" stroke="black" points="158,-202.5 158,-232.5 370,-232.5 370,-202.5 158,-202.5"/>
<text text-anchor="start" x="166" y="-220.5" font-family="Helvetica,sans-Serif" font-size="10.00">rare.components.tabs.games.game</text>
<text text-anchor="middle" x="264" y="-209.5" font-family="Helvetica,sans-Serif" font-size="10.00">_info.game_dlc.GameDlcWidget.install_game</text>
</a>
</g>
</g>
<!-- Node1&#45;&gt;Node2 -->
<g id="edge1" class="edge">
<title>Node1&#45;&gt;Node2</title>
<path fill="none" stroke="midnightblue" d="M70.21,-120.01C85.61,-137.22 120.68,-173.53 158,-192.5 162.63,-194.85 167.49,-196.99 172.48,-198.93"/>
<polygon fill="midnightblue" stroke="midnightblue" points="171.59,-202.33 182.19,-202.43 173.96,-195.75 171.59,-202.33"/>
</g>
<!-- Node6 -->
<g id="node6" class="node">
<title>Node6</title>
<g id="a_node6"><a xlink:href="classrare_1_1components_1_1tabs_1_1games_1_1game__info_1_1uninstalled__info_1_1_uninstalled_info.html#abb32e37b8ffc3927ad711556854f45cb" target="_top" xlink:title=" ">
<polygon fill="white" stroke="black" points="180.5,-124 180.5,-165 347.5,-165 347.5,-124 180.5,-124"/>
<text text-anchor="start" x="188.5" y="-153" font-family="Helvetica,sans-Serif" font-size="10.00">rare.components.tabs.games.game</text>
<text text-anchor="start" x="188.5" y="-142" font-family="Helvetica,sans-Serif" font-size="10.00">_info.uninstalled_info.Uninstalled</text>
<text text-anchor="middle" x="264" y="-131" font-family="Helvetica,sans-Serif" font-size="10.00">Info.install_game</text>
</a>
</g>
</g>
<!-- Node1&#45;&gt;Node6 -->
<g id="edge9" class="edge">
<title>Node1&#45;&gt;Node6</title>
<path fill="none" stroke="midnightblue" d="M118.26,-120.02C134.52,-122.77 152.72,-125.85 170.58,-128.87"/>
<polygon fill="midnightblue" stroke="midnightblue" points="170.01,-132.32 180.45,-130.54 171.17,-125.42 170.01,-132.32"/>
</g>
<!-- Node7 -->
<g id="node7" class="node">
<title>Node7</title>
<g id="a_node7"><a xlink:href="classrare_1_1components_1_1tabs_1_1downloads_1_1_downloads_tab.html#a66eac4632760c14c4544b244b2108e93" target="_top" xlink:title=" ">
<polygon fill="white" stroke="black" points="228.5,-68 228.5,-87 299.5,-87 299.5,-68 228.5,-68"/>
<text text-anchor="middle" x="264" y="-75" font-family="Helvetica,sans-Serif" font-size="10.00">install_game</text>
</a>
</g>
</g>
<!-- Node1&#45;&gt;Node7 -->
<g id="edge11" class="edge">
<title>Node1&#45;&gt;Node7</title>
<path fill="none" stroke="midnightblue" d="M119.87,-101C151.16,-95.86 189.23,-89.61 218.24,-84.85"/>
<polygon fill="midnightblue" stroke="midnightblue" points="219.19,-88.24 228.49,-83.17 218.05,-81.33 219.19,-88.24"/>
</g>
<!-- Node9 -->
<g id="node9" class="node">
<title>Node9</title>
<g id="a_node9"><a xlink:href="classrare_1_1lgndr_1_1cli_1_1_legendary_c_l_i.html#a4aaa726f3b4643dc9fc5f027294fc9c9" target="_top" xlink:title=" ">
<polygon fill="white" stroke="black" points="206,-0.5 206,-30.5 322,-30.5 322,-0.5 206,-0.5"/>
<text text-anchor="start" x="214" y="-18.5" font-family="Helvetica,sans-Serif" font-size="10.00">rare.lgndr.cli.Legendary</text>
<text text-anchor="middle" x="264" y="-7.5" font-family="Helvetica,sans-Serif" font-size="10.00">CLI.install_game</text>
</a>
</g>
</g>
<!-- Node1&#45;&gt;Node9 -->
<g id="edge15" class="edge">
<title>Node1&#45;&gt;Node9</title>
<path fill="none" stroke="midnightblue" d="M78.37,-100.93C97.26,-90.05 129.4,-72.06 158,-58.5 175.95,-49.99 196.05,-41.52 213.82,-34.37"/>
<polygon fill="midnightblue" stroke="midnightblue" points="215.43,-37.49 223.42,-30.54 212.84,-30.99 215.43,-37.49"/>
</g>
<!-- Node2&#45;&gt;Node2 -->
<g id="edge8" class="edge">
<title>Node2&#45;&gt;Node2</title>
<path fill="none" stroke="midnightblue" d="M228.8,-232.66C220.31,-242.06 232.04,-251 264,-251 283.47,-251 295.44,-247.68 299.89,-242.96"/>
<polygon fill="midnightblue" stroke="midnightblue" points="303.36,-242.4 299.2,-232.66 296.38,-242.87 303.36,-242.4"/>
</g>
<!-- Node3 -->
<g id="node3" class="node">
<title>Node3</title>
<g id="a_node3"><a xlink:href="classrare_1_1components_1_1tabs_1_1games_1_1game__info_1_1game__dlc_1_1_game_dlc.html#ad3e66f623ddf8df77ec747a6f860526d" target="_top" xlink:title=" ">
<polygon fill="white" stroke="black" points="413.5,-238.5 413.5,-268.5 580.5,-268.5 580.5,-238.5 413.5,-238.5"/>
<text text-anchor="start" x="421.5" y="-256.5" font-family="Helvetica,sans-Serif" font-size="10.00">rare.components.tabs.games.game</text>
<text text-anchor="middle" x="497" y="-245.5" font-family="Helvetica,sans-Serif" font-size="10.00">_info.game_dlc.GameDlc.install</text>
</a>
</g>
</g>
<!-- Node2&#45;&gt;Node3 -->
<g id="edge2" class="edge">
<title>Node2&#45;&gt;Node3</title>
<path fill="none" stroke="midnightblue" d="M361.29,-232.51C375.24,-234.68 389.57,-236.91 403.44,-239.08"/>
<polygon fill="midnightblue" stroke="midnightblue" points="403.03,-242.55 413.45,-240.63 404.11,-235.64 403.03,-242.55"/>
</g>
<!-- Node4 -->
<g id="node4" class="node">
<title>Node4</title>
<g id="a_node4"><a xlink:href="classrare_1_1components_1_1tabs_1_1games_1_1game__widgets_1_1base__uninstalled__widget_1_1_base_uninstalled_widget.html#a0ac02141fcf00adc3945e2ccb01fb2c1" target="_top" xlink:title=" ">
<polygon fill="white" stroke="black" points="406,-160 406,-201 588,-201 588,-160 406,-160"/>
<text text-anchor="start" x="414" y="-189" font-family="Helvetica,sans-Serif" font-size="10.00">rare.components.tabs.games.game</text>
<text text-anchor="start" x="414" y="-178" font-family="Helvetica,sans-Serif" font-size="10.00">_widgets.base_uninstalled</text>
<text text-anchor="middle" x="497" y="-167" font-family="Helvetica,sans-Serif" font-size="10.00">_widget.BaseUninstalledWidget.install</text>
</a>
</g>
</g>
<!-- Node2&#45;&gt;Node4 -->
<g id="edge4" class="edge">
<title>Node2&#45;&gt;Node4</title>
<path fill="none" stroke="midnightblue" d="M358.96,-202.45C371.06,-200.51 383.48,-198.52 395.68,-196.57"/>
<polygon fill="midnightblue" stroke="midnightblue" points="396.54,-199.98 405.86,-194.94 395.43,-193.06 396.54,-199.98"/>
</g>
<!-- Node3&#45;&gt;Node3 -->
<g id="edge3" class="edge">
<title>Node3&#45;&gt;Node3</title>
<path fill="none" stroke="midnightblue" d="M460.75,-268.66C452.01,-278.06 464.09,-287 497,-287 517.05,-287 529.37,-283.68 533.96,-278.96"/>
<polygon fill="midnightblue" stroke="midnightblue" points="537.43,-278.39 533.25,-268.66 530.45,-278.88 537.43,-278.39"/>
</g>
<!-- Node4&#45;&gt;Node4 -->
<g id="edge5" class="edge">
<title>Node4&#45;&gt;Node4</title>
<path fill="none" stroke="midnightblue" d="M458.77,-201.36C454.6,-211.04 467.34,-219.5 497,-219.5 515.54,-219.5 527.46,-216.2 532.79,-211.36"/>
<polygon fill="midnightblue" stroke="midnightblue" points="536.25,-211.91 535.23,-201.36 529.45,-210.25 536.25,-211.91"/>
</g>
<!-- Node5 -->
<g id="node5" class="node">
<title>Node5</title>
<g id="a_node5"><a xlink:href="classrare_1_1components_1_1tabs_1_1games_1_1_games_tab.html#a8e8b8383bfb0203281dfa30f18213235" target="_top" xlink:title=" ">
<polygon fill="white" stroke="black" points="624,-165.5 624,-195.5 787,-195.5 787,-165.5 624,-165.5"/>
<text text-anchor="start" x="632" y="-183.5" font-family="Helvetica,sans-Serif" font-size="10.00">rare.components.tabs.games.</text>
<text text-anchor="middle" x="705.5" y="-172.5" font-family="Helvetica,sans-Serif" font-size="10.00">GamesTab.show_uninstalled_info</text>
</a>
</g>
</g>
<!-- Node4&#45;&gt;Node5 -->
<g id="edge6" class="edge">
<title>Node4&#45;&gt;Node5</title>
<path fill="none" stroke="midnightblue" d="M588.27,-180.5C596.68,-180.5 605.21,-180.5 613.63,-180.5"/>
<polygon fill="midnightblue" stroke="midnightblue" points="613.82,-184 623.82,-180.5 613.82,-177 613.82,-184"/>
</g>
<!-- Node5&#45;&gt;Node5 -->
<g id="edge7" class="edge">
<title>Node5&#45;&gt;Node5</title>
<path fill="none" stroke="midnightblue" d="M669.25,-195.66C660.51,-205.06 672.59,-214 705.5,-214 725.55,-214 737.87,-210.68 742.46,-205.96"/>
<polygon fill="midnightblue" stroke="midnightblue" points="745.93,-205.39 741.75,-195.66 738.95,-205.88 745.93,-205.39"/>
</g>
<!-- Node6&#45;&gt;Node6 -->
<g id="edge10" class="edge">
<title>Node6&#45;&gt;Node6</title>
<path fill="none" stroke="midnightblue" d="M226.87,-165.36C222.82,-175.04 235.2,-183.5 264,-183.5 282,-183.5 293.58,-180.2 298.75,-175.36"/>
<polygon fill="midnightblue" stroke="midnightblue" points="302.22,-175.9 301.13,-165.36 295.41,-174.28 302.22,-175.9"/>
</g>
<!-- Node7&#45;&gt;Node7 -->
<g id="edge12" class="edge">
<title>Node7&#45;&gt;Node7</title>
<path fill="none" stroke="midnightblue" d="M232.87,-87.26C217.72,-96.07 228.1,-105.5 264,-105.5 289.24,-105.5 301.87,-100.84 301.87,-95"/>
<polygon fill="midnightblue" stroke="midnightblue" points="304.34,-92.5 295.13,-87.26 299.06,-97.1 304.34,-92.5"/>
</g>
<!-- Node8 -->
<g id="node8" class="node">
<title>Node8</title>
<g id="a_node8"><a xlink:href="classrare_1_1components_1_1tabs_1_1downloads_1_1_downloads_tab.html#ad220cc0780ac6b0d74f99652344b4e3a" target="_top" xlink:title=" ">
<polygon fill="white" stroke="black" points="453,-68 453,-87 541,-87 541,-68 453,-68"/>
<text text-anchor="middle" x="497" y="-75" font-family="Helvetica,sans-Serif" font-size="10.00">start_installation</text>
</a>
</g>
</g>
<!-- Node7&#45;&gt;Node8 -->
<g id="edge13" class="edge">
<title>Node7&#45;&gt;Node8</title>
<path fill="none" stroke="midnightblue" d="M299.58,-77.5C337.45,-77.5 398.64,-77.5 442.67,-77.5"/>
<polygon fill="midnightblue" stroke="midnightblue" points="442.91,-81 452.91,-77.5 442.91,-74 442.91,-81"/>
</g>
<!-- Node8&#45;&gt;Node8 -->
<g id="edge14" class="edge">
<title>Node8&#45;&gt;Node8</title>
<path fill="none" stroke="midnightblue" d="M465.2,-87.11C449.23,-95.96 459.83,-105.5 497,-105.5 523.72,-105.5 536.71,-100.57 535.97,-94.51"/>
<polygon fill="midnightblue" stroke="midnightblue" points="538.27,-91.86 528.8,-87.11 533.24,-96.73 538.27,-91.86"/>
</g>
<!-- Node9&#45;&gt;Node9 -->
<g id="edge16" class="edge">
<title>Node9&#45;&gt;Node9</title>
<path fill="none" stroke="midnightblue" d="M228.8,-30.66C220.31,-40.06 232.04,-49 264,-49 283.47,-49 295.44,-45.68 299.89,-40.96"/>
<polygon fill="midnightblue" stroke="midnightblue" points="303.36,-40.4 299.2,-30.66 296.38,-40.87 303.36,-40.4"/>
</g>
<!-- Node10 -->
<g id="node10" class="node">
<title>Node10</title>
<g id="a_node10"><a xlink:href="classrare_1_1lgndr_1_1cli_1_1_legendary_c_l_i.html#a7de93b9e2b51b491d5c70be49680f66d" target="_top" xlink:title=" ">
<polygon fill="white" stroke="black" points="433,-0.5 433,-30.5 561,-30.5 561,-0.5 433,-0.5"/>
<text text-anchor="start" x="441" y="-18.5" font-family="Helvetica,sans-Serif" font-size="10.00">rare.lgndr.cli.Legendary</text>
<text text-anchor="middle" x="497" y="-7.5" font-family="Helvetica,sans-Serif" font-size="10.00">CLI.install_game_cleanup</text>
</a>
</g>
</g>
<!-- Node9&#45;&gt;Node10 -->
<g id="edge17" class="edge">
<title>Node9&#45;&gt;Node10</title>
<path fill="none" stroke="midnightblue" d="M322.1,-9.58C352.36,-8.64 389.88,-8.5 422.31,-9.16"/>
<polygon fill="midnightblue" stroke="midnightblue" points="422.57,-12.67 432.65,-9.4 422.73,-5.67 422.57,-12.67"/>
</g>
<!-- Node10&#45;&gt;Node9 -->
<g id="edge18" class="edge">
<title>Node10&#45;&gt;Node9</title>
<path fill="none" stroke="midnightblue" d="M432.65,-21.6C401.46,-22.43 363.85,-22.47 332.17,-21.69"/>
<polygon fill="midnightblue" stroke="midnightblue" points="332.19,-18.19 322.1,-21.42 332,-25.19 332.19,-18.19"/>
</g>
<!-- Node10&#45;&gt;Node10 -->
<g id="edge19" class="edge">
<title>Node10&#45;&gt;Node10</title>
<path fill="none" stroke="midnightblue" d="M460.75,-30.66C452.01,-40.06 464.09,-49 497,-49 517.05,-49 529.37,-45.68 533.96,-40.96"/>
<polygon fill="midnightblue" stroke="midnightblue" points="537.43,-40.39 533.25,-30.66 530.45,-40.88 537.43,-40.39"/>
</g>
</g>
</svg>
