<?xml version="1.0" encoding="UTF-8" standalone="no"?>
<!DOCTYPE svg PUBLIC "-//W3C//DTD SVG 1.1//EN"
 "http://www.w3.org/Graphics/SVG/1.1/DTD/svg11.dtd">
<!-- Generated by graphviz version 2.49.3 (20211027.1534)
 -->
<!-- Title: click Pages: 1 -->
<svg width="141pt" height="46pt"
 viewBox="0.00 0.00 141.00 46.00" xmlns="http://www.w3.org/2000/svg" xmlns:xlink="http://www.w3.org/1999/xlink">
<g id="graph0" class="graph" transform="scale(1 1) rotate(0) translate(4 42)">
<title>click</title>
<polygon fill="white" stroke="transparent" points="-4,4 -4,-42 137,-42 137,4 -4,4"/>
<!-- Node1 -->
<g id="node1" class="node">
<title>Node1</title>
<g id="a_node1"><a xlink:title=" ">
<polygon fill="#bfbfbf" stroke="black" points="96,-0.5 96,-19.5 133,-19.5 133,-0.5 96,-0.5"/>
<text text-anchor="middle" x="114.5" y="-7.5" font-family="Helvetica,sans-Serif" font-size="10.00">click</text>
</a>
</g>
</g>
<!-- Node1&#45;&gt;Node1 -->
<g id="edge1" class="edge">
<title>Node1&#45;&gt;Node1</title>
<path fill="none" stroke="midnightblue" d="M129.97,-29.77C128.75,-34.5 123.6,-38 114.5,-38 99.57,-38 95.25,-28.57 101.55,-19.76"/>
<polygon fill="midnightblue" stroke="midnightblue" points="133.28,-28.6 127.45,-19.76 126.5,-30.31 133.28,-28.6"/>
</g>
<!-- Node2 -->
<g id="node2" class="node">
<title>Node2</title>
<g id="a_node2"><a xlink:href="classrare_1_1widgets_1_1collapsible__widget_1_1_collapsible_base.html#a58e1dc91f8780e6ffd61ed5fdc02b6cd" target="_top" xlink:title=" ">
<polygon fill="white" stroke="black" points="0,-0.5 0,-19.5 60,-19.5 60,-0.5 0,-0.5"/>
<text text-anchor="middle" x="30" y="-7.5" font-family="Helvetica,sans-Serif" font-size="10.00">setWidget</text>
</a>
</g>
</g>
<!-- Node1&#45;&gt;Node2 -->
<g id="edge2" class="edge">
<title>Node1&#45;&gt;Node2</title>
<path fill="none" stroke="midnightblue" d="M85.47,-10C77.33,-10 68.43,-10 60.22,-10"/>
<polygon fill="midnightblue" stroke="midnightblue" points="85.6,-13.5 95.6,-10 85.6,-6.5 85.6,-13.5"/>
</g>
<!-- Node2&#45;&gt;Node2 -->
<g id="edge3" class="edge">
<title>Node2&#45;&gt;Node2</title>
<path fill="none" stroke="midnightblue" d="M45.47,-29.77C44.25,-34.5 39.1,-38 30,-38 15.07,-38 10.75,-28.57 17.05,-19.76"/>
<polygon fill="midnightblue" stroke="midnightblue" points="48.78,-28.6 42.95,-19.76 42,-30.31 48.78,-28.6"/>
</g>
</g>
</svg>
