<?xml version="1.0" encoding="UTF-8" standalone="no"?>
<!DOCTYPE svg PUBLIC "-//W3C//DTD SVG 1.1//EN"
 "http://www.w3.org/Graphics/SVG/1.1/DTD/svg11.dtd">
<!-- Generated by graphviz version 2.49.3 (20211027.1534)
 -->
<!-- Title: download_saves Pages: 1 -->
<!--zoomable 436 -->
<svg id="main" version="1.1" xmlns="http://www.w3.org/2000/svg" xmlns:xlink="http://www.w3.org/1999/xlink" xml:space="preserve" onload="init(evt)">
<style type="text/css"><![CDATA[
.edge:hover path { stroke: red; }
.edge:hover polygon { stroke: red; fill: red; }
]]></style>
<script type="text/javascript"><![CDATA[
var edges = document.getElementsByTagName('g');
if (edges && edges.length) {
  for (var i=0;i<edges.length;i++) {
    if (edges[i].id.substr(0,4)=='edge') {
      edges[i].setAttribute('class','edge');
    }
  }
}
]]></script>
        <defs>
                <circle id="rim" cx="0" cy="0" r="7"/>
                <circle id="rim2" cx="0" cy="0" r="3.5"/>
                <g id="zoomPlus">
                        <use xlink:href="#rim" fill="#404040">
                                <set attributeName="fill" to="#808080" begin="zoomplus.mouseover" end="zoomplus.mouseout"/>
                        </use>
                        <path d="M-4,0h8M0,-4v8" fill="none" stroke="white" stroke-width="1.5" pointer-events="none"/>
                </g>
                <g id="zoomMin">
                        <use xlink:href="#rim" fill="#404040">
                                <set attributeName="fill" to="#808080" begin="zoomminus.mouseover" end="zoomminus.mouseout"/>
                        </use>
                        <path d="M-4,0h8" fill="none" stroke="white" stroke-width="1.5" pointer-events="none"/>
                </g>
                <g id="dirArrow">
                        <path fill="none" stroke="white" stroke-width="1.5" d="M0,-3.0v7 M-2.5,-0.5L0,-3.0L2.5,-0.5"/>
                </g>
               <g id="resetDef">
                       <use xlink:href="#rim2" fill="#404040">
                               <set attributeName="fill" to="#808080" begin="reset.mouseover" end="reset.mouseout"/>
                       </use>
               </g>
        </defs>

<script type="text/javascript">
var viewWidth = 1543;
var viewHeight = 436;
var sectionId = 'dynsection-4';
</script>
<script xlink:href="svgpan.js"/>
<svg id="graph" class="graph">
<g id="viewport">
<title>download_saves</title>
<polygon fill="white" stroke="transparent" points="-4,4 -4,-432.39 1539,-432.39 1539,4 -4,4"/>
<!-- Node1 -->
<g id="node1" class="node">
<title>Node1</title>
<g id="a_node1"><a xlink:title=" ">
<polygon fill="#bfbfbf" stroke="black" points="0,-328.89 0,-347.89 89,-347.89 89,-328.89 0,-328.89"/>
<text text-anchor="middle" x="44.5" y="-335.89" font-family="Helvetica,sans-Serif" font-size="10.00">download_saves</text>
</a>
</g>
</g>
<!-- Node1&#45;&gt;Node1 -->
<g id="edge1" class="edge">
<title>Node1&#45;&gt;Node1</title>
<path fill="none" stroke="midnightblue" d="M14.91,-348.14C0.51,-356.95 10.38,-366.39 44.5,-366.39 68.49,-366.39 80.49,-361.72 80.5,-355.89"/>
<polygon fill="midnightblue" stroke="midnightblue" points="83.16,-353.62 74.09,-348.14 77.77,-358.08 83.16,-353.62"/>
</g>
<!-- Node2 -->
<g id="node2" class="node">
<title>Node2</title>
<g id="a_node2"><a xlink:href="namespacerare_1_1app.html#a37fb442592b19edb2dcdd368df2d2d76" target="_top" xlink:title=" ">
<polygon fill="white" stroke="black" points="201,-390.89 201,-409.89 274,-409.89 274,-390.89 201,-390.89"/>
<text text-anchor="middle" x="237.5" y="-397.89" font-family="Helvetica,sans-Serif" font-size="10.00">rare.app.start</text>
</a>
</g>
</g>
<!-- Node1&#45;&gt;Node2 -->
<g id="edge2" class="edge">
<title>Node1&#45;&gt;Node2</title>
<path fill="none" stroke="midnightblue" d="M59.78,-347.99C75.2,-357.89 100.82,-373.04 125,-381.39 146.04,-388.65 170.31,-393.2 190.82,-396.03"/>
<polygon fill="midnightblue" stroke="midnightblue" points="190.5,-399.51 200.86,-397.31 191.39,-392.57 190.5,-399.51"/>
</g>
<!-- Node3 -->
<g id="node3" class="node">
<title>Node3</title>
<g id="a_node3"><a xlink:href="classrare_1_1components_1_1tabs_1_1games_1_1integrations_1_1ubisoft__group_1_1_ubi_link_widget.html#a4f1fc3fc743e9e74ae4d1c677928ef3f" target="_top" xlink:title=" ">
<polygon fill="white" stroke="black" points="125,-323.39 125,-353.39 350,-353.39 350,-323.39 125,-323.39"/>
<text text-anchor="start" x="133" y="-341.39" font-family="Helvetica,sans-Serif" font-size="10.00">rare.components.tabs.games.integrations.ubisoft</text>
<text text-anchor="middle" x="237.5" y="-330.39" font-family="Helvetica,sans-Serif" font-size="10.00">_group.UbiLinkWidget.worker_finished</text>
</a>
</g>
</g>
<!-- Node1&#45;&gt;Node3 -->
<g id="edge4" class="edge">
<title>Node1&#45;&gt;Node3</title>
<path fill="none" stroke="midnightblue" d="M89.32,-338.39C97.24,-338.39 105.84,-338.39 114.78,-338.39"/>
<polygon fill="midnightblue" stroke="midnightblue" points="114.98,-341.89 124.98,-338.39 114.98,-334.89 114.98,-341.89"/>
</g>
<!-- Node6 -->
<g id="node6" class="node">
<title>Node6</title>
<g id="a_node6"><a xlink:href="classrare_1_1shared_1_1cloud__save__utils_1_1_cloud_save_utils.html#a370a509f80663666f4149bfb4e739c8d" target="_top" xlink:title=" ">
<polygon fill="white" stroke="black" points="195.5,-261.89 195.5,-280.89 279.5,-280.89 279.5,-261.89 195.5,-261.89"/>
<text text-anchor="middle" x="237.5" y="-268.89" font-family="Helvetica,sans-Serif" font-size="10.00">worker_finished</text>
</a>
</g>
</g>
<!-- Node1&#45;&gt;Node6 -->
<g id="edge10" class="edge">
<title>Node1&#45;&gt;Node6</title>
<path fill="none" stroke="midnightblue" d="M72.87,-328.79C106.2,-317.1 162.63,-297.3 199.73,-284.28"/>
<polygon fill="midnightblue" stroke="midnightblue" points="200.91,-287.58 209.19,-280.97 198.59,-280.98 200.91,-287.58"/>
</g>
<!-- Node2&#45;&gt;Node2 -->
<g id="edge3" class="edge">
<title>Node2&#45;&gt;Node2</title>
<path fill="none" stroke="midnightblue" d="M207.91,-410.14C193.51,-418.95 203.38,-428.39 237.5,-428.39 261.49,-428.39 273.49,-423.72 273.5,-417.89"/>
<polygon fill="midnightblue" stroke="midnightblue" points="276.16,-415.62 267.09,-410.14 270.77,-420.08 276.16,-415.62"/>
</g>
<!-- Node3&#45;&gt;Node3 -->
<g id="edge9" class="edge">
<title>Node3&#45;&gt;Node3</title>
<path fill="none" stroke="midnightblue" d="M204.04,-353.55C195.97,-362.94 207.12,-371.89 237.5,-371.89 256.01,-371.89 267.38,-368.57 271.62,-363.85"/>
<polygon fill="midnightblue" stroke="midnightblue" points="275.09,-363.3 270.96,-353.55 268.1,-363.75 275.09,-363.3"/>
</g>
<!-- Node4 -->
<g id="node4" class="node">
<title>Node4</title>
<g id="a_node4"><a xlink:href="namespacerare_1_1utils_1_1misc.html#a5b215592bbad86ea6d2c3b46280baae8" target="_top" xlink:title=" ">
<polygon fill="white" stroke="black" points="413.5,-390.89 413.5,-409.89 510.5,-409.89 510.5,-390.89 413.5,-390.89"/>
<text text-anchor="middle" x="462" y="-397.89" font-family="Helvetica,sans-Serif" font-size="10.00">rare.utils.misc.icon</text>
</a>
</g>
</g>
<!-- Node3&#45;&gt;Node4 -->
<g id="edge5" class="edge">
<title>Node3&#45;&gt;Node4</title>
<path fill="none" stroke="midnightblue" d="M288.55,-353.46C317.05,-361.92 353.44,-372.52 386,-381.39 394.57,-383.72 403.71,-386.12 412.57,-388.39"/>
<polygon fill="midnightblue" stroke="midnightblue" points="411.84,-391.81 422.39,-390.89 413.56,-385.03 411.84,-391.81"/>
</g>
<!-- Node5 -->
<g id="node5" class="node">
<title>Node5</title>
<g id="a_node5"><a xlink:href="classrare_1_1components_1_1dialogs_1_1launch__dialog_1_1_image_worker.html#abfb44fdc3f5ec4c03f5d2e72900deb61" target="_top" xlink:title=" ">
<polygon fill="white" stroke="black" points="386,-323.39 386,-353.39 538,-353.39 538,-323.39 386,-323.39"/>
<text text-anchor="start" x="394" y="-341.39" font-family="Helvetica,sans-Serif" font-size="10.00">rare.components.dialogs.launch</text>
<text text-anchor="middle" x="462" y="-330.39" font-family="Helvetica,sans-Serif" font-size="10.00">_dialog.ImageWorker.tr</text>
</a>
</g>
</g>
<!-- Node3&#45;&gt;Node5 -->
<g id="edge7" class="edge">
<title>Node3&#45;&gt;Node5</title>
<path fill="none" stroke="midnightblue" d="M350.08,-338.39C358.71,-338.39 367.34,-338.39 375.76,-338.39"/>
<polygon fill="midnightblue" stroke="midnightblue" points="375.91,-341.89 385.91,-338.39 375.91,-334.89 375.91,-341.89"/>
</g>
<!-- Node4&#45;&gt;Node4 -->
<g id="edge6" class="edge">
<title>Node4&#45;&gt;Node4</title>
<path fill="none" stroke="midnightblue" d="M432.72,-410.14C418.47,-418.95 428.23,-428.39 462,-428.39 485.74,-428.39 497.62,-423.72 497.62,-417.89"/>
<polygon fill="midnightblue" stroke="midnightblue" points="500.33,-415.67 491.28,-410.14 494.91,-420.1 500.33,-415.67"/>
</g>
<!-- Node5&#45;&gt;Node5 -->
<g id="edge8" class="edge">
<title>Node5&#45;&gt;Node5</title>
<path fill="none" stroke="midnightblue" d="M428.89,-353.55C420.9,-362.94 431.94,-371.89 462,-371.89 480.32,-371.89 491.57,-368.57 495.76,-363.85"/>
<polygon fill="midnightblue" stroke="midnightblue" points="499.23,-363.31 495.11,-353.55 492.25,-363.75 499.23,-363.31"/>
</g>
<!-- Node6&#45;&gt;Node5 -->
<g id="edge42" class="edge">
<title>Node6&#45;&gt;Node5</title>
<path fill="none" stroke="midnightblue" d="M270.38,-280.99C304.49,-291.26 359.38,-307.79 401.52,-320.48"/>
<polygon fill="midnightblue" stroke="midnightblue" points="400.53,-323.83 411.11,-323.37 402.55,-317.13 400.53,-323.83"/>
</g>
<!-- Node6&#45;&gt;Node6 -->
<g id="edge43" class="edge">
<title>Node6&#45;&gt;Node6</title>
<path fill="none" stroke="midnightblue" d="M207.91,-281.14C193.51,-289.95 203.38,-299.39 237.5,-299.39 261.49,-299.39 273.49,-294.72 273.5,-288.89"/>
<polygon fill="midnightblue" stroke="midnightblue" points="276.16,-286.62 267.09,-281.14 270.77,-291.08 276.16,-286.62"/>
</g>
<!-- Node7 -->
<g id="node7" class="node">
<title>Node7</title>
<g id="a_node7"><a xlink:href="classrare_1_1shared_1_1rare__core_1_1_rare_core.html#aabbe79631981014e737e83fa4e978346" target="_top" xlink:title=" ">
<polygon fill="white" stroke="black" points="397,-256.39 397,-286.39 527,-286.39 527,-256.39 397,-256.39"/>
<text text-anchor="start" x="405" y="-274.39" font-family="Helvetica,sans-Serif" font-size="10.00">rare.shared.rare_core.Rare</text>
<text text-anchor="middle" x="462" y="-263.39" font-family="Helvetica,sans-Serif" font-size="10.00">Core.api_results</text>
</a>
</g>
</g>
<!-- Node6&#45;&gt;Node7 -->
<g id="edge11" class="edge">
<title>Node6&#45;&gt;Node7</title>
<path fill="none" stroke="midnightblue" d="M279.57,-271.39C309.4,-271.39 350.6,-271.39 386.21,-271.39"/>
<polygon fill="midnightblue" stroke="midnightblue" points="386.57,-274.89 396.57,-271.39 386.57,-267.89 386.57,-274.89"/>
</g>
<!-- Node8 -->
<g id="node8" class="node">
<title>Node8</title>
<g id="a_node8"><a xlink:href="classrare_1_1shared_1_1cloud__save__utils_1_1_cloud_save_utils.html#a2156cf89d0ec4acb619d120dc8a13b2d" target="_top" xlink:title=" ">
<polygon fill="white" stroke="black" points="606.5,-277.89 606.5,-296.89 697.5,-296.89 697.5,-277.89 606.5,-277.89"/>
<text text-anchor="middle" x="652" y="-284.89" font-family="Helvetica,sans-Serif" font-size="10.00">get_latest_saves</text>
</a>
</g>
</g>
<!-- Node6&#45;&gt;Node8 -->
<g id="edge13" class="edge">
<title>Node6&#45;&gt;Node8</title>
<path fill="none" stroke="midnightblue" d="M279,-261.79C336.83,-249.51 446.23,-231.62 538,-247.39 567.3,-252.42 599.09,-264.29 621.46,-273.8"/>
<polygon fill="midnightblue" stroke="midnightblue" points="620.17,-277.06 630.74,-277.84 622.97,-270.64 620.17,-277.06"/>
</g>
<!-- Node10 -->
<g id="node10" class="node">
<title>Node10</title>
<g id="a_node10"><a xlink:href="classrare_1_1shared_1_1game__utils_1_1_game_utils.html#ac34fa0bdcf4ae84538c915490c49bb28" target="_top" xlink:title=" ">
<polygon fill="white" stroke="black" points="390.5,-150.39 390.5,-180.39 533.5,-180.39 533.5,-150.39 390.5,-150.39"/>
<text text-anchor="start" x="398.5" y="-168.39" font-family="Helvetica,sans-Serif" font-size="10.00">rare.shared.game_utils.Game</text>
<text text-anchor="middle" x="462" y="-157.39" font-family="Helvetica,sans-Serif" font-size="10.00">Utils.sync_finished</text>
</a>
</g>
</g>
<!-- Node6&#45;&gt;Node10 -->
<g id="edge17" class="edge">
<title>Node6&#45;&gt;Node10</title>
<path fill="none" stroke="midnightblue" d="M258.64,-261.79C295.04,-244.45 372.45,-207.57 420.28,-184.79"/>
<polygon fill="midnightblue" stroke="midnightblue" points="421.9,-187.89 429.43,-180.43 418.89,-181.57 421.9,-187.89"/>
</g>
<!-- Node7&#45;&gt;Node7 -->
<g id="edge12" class="edge">
<title>Node7&#45;&gt;Node7</title>
<path fill="none" stroke="midnightblue" d="M428.89,-286.55C420.9,-295.94 431.94,-304.89 462,-304.89 480.32,-304.89 491.57,-301.57 495.76,-296.85"/>
<polygon fill="midnightblue" stroke="midnightblue" points="499.23,-296.31 495.11,-286.55 492.25,-296.75 499.23,-296.31"/>
</g>
<!-- Node8&#45;&gt;Node8 -->
<g id="edge16" class="edge">
<title>Node8&#45;&gt;Node8</title>
<path fill="none" stroke="midnightblue" d="M624.87,-297.14C611.68,-305.95 620.72,-315.39 652,-315.39 673.51,-315.39 684.5,-310.93 684.98,-305.28"/>
<polygon fill="midnightblue" stroke="midnightblue" points="687.81,-303.21 679.13,-297.14 682.13,-307.3 687.81,-303.21"/>
</g>
<!-- Node9 -->
<g id="node9" class="node">
<title>Node9</title>
<g id="a_node9"><a xlink:href="classrare_1_1shared_1_1rare__core_1_1_rare_core.html#a405e1a4f20f16120f872ccd2654a1d56" target="_top" xlink:title=" ">
<polygon fill="white" stroke="black" points="1143,-232.39 1143,-262.39 1273,-262.39 1273,-232.39 1143,-232.39"/>
<text text-anchor="start" x="1151" y="-250.39" font-family="Helvetica,sans-Serif" font-size="10.00">rare.shared.rare_core.Rare</text>
<text text-anchor="middle" x="1208" y="-239.39" font-family="Helvetica,sans-Serif" font-size="10.00">Core.core</text>
</a>
</g>
</g>
<!-- Node8&#45;&gt;Node9 -->
<g id="edge14" class="edge">
<title>Node8&#45;&gt;Node9</title>
<path fill="none" stroke="midnightblue" d="M697.87,-284.15C793.01,-277.28 1015.84,-261.19 1132.62,-252.76"/>
<polygon fill="midnightblue" stroke="midnightblue" points="1133.17,-256.23 1142.89,-252.02 1132.67,-249.25 1133.17,-256.23"/>
</g>
<!-- Node9&#45;&gt;Node9 -->
<g id="edge15" class="edge">
<title>Node9&#45;&gt;Node9</title>
<path fill="none" stroke="midnightblue" d="M1173.49,-262.55C1165.17,-271.94 1176.68,-280.89 1208,-280.89 1227.09,-280.89 1238.82,-277.57 1243.18,-272.85"/>
<polygon fill="midnightblue" stroke="midnightblue" points="1246.65,-272.3 1242.51,-262.55 1239.67,-272.75 1246.65,-272.3"/>
</g>
<!-- Node10&#45;&gt;Node10 -->
<g id="edge41" class="edge">
<title>Node10&#45;&gt;Node10</title>
<path fill="none" stroke="midnightblue" d="M428.89,-180.55C420.9,-189.94 431.94,-198.89 462,-198.89 480.32,-198.89 491.57,-195.57 495.76,-190.85"/>
<polygon fill="midnightblue" stroke="midnightblue" points="499.23,-190.31 495.11,-180.55 492.25,-190.75 499.23,-190.31"/>
</g>
<!-- Node11 -->
<g id="node11" class="node">
<title>Node11</title>
<g id="a_node11"><a xlink:href="classrare_1_1game__launch__helper_1_1_game_process_app.html#a62864ecc73de3f9e4a009737d0c01f01" target="_top" xlink:title=" ">
<polygon fill="white" stroke="black" points="574,-150.39 574,-180.39 730,-180.39 730,-150.39 574,-150.39"/>
<text text-anchor="start" x="582" y="-168.39" font-family="Helvetica,sans-Serif" font-size="10.00">rare.game_launch_helper.</text>
<text text-anchor="middle" x="652" y="-157.39" font-family="Helvetica,sans-Serif" font-size="10.00">GameProcessApp.launch_game</text>
</a>
</g>
</g>
<!-- Node10&#45;&gt;Node11 -->
<g id="edge18" class="edge">
<title>Node10&#45;&gt;Node11</title>
<path fill="none" stroke="midnightblue" d="M533.54,-165.39C543.39,-165.39 553.6,-165.39 563.71,-165.39"/>
<polygon fill="midnightblue" stroke="midnightblue" points="563.76,-168.89 573.76,-165.39 563.76,-161.89 563.76,-168.89"/>
</g>
<!-- Node11&#45;&gt;Node11 -->
<g id="edge23" class="edge">
<title>Node11&#45;&gt;Node11</title>
<path fill="none" stroke="midnightblue" d="M621.33,-180.55C613.93,-189.94 624.16,-198.89 652,-198.89 668.97,-198.89 679.39,-195.57 683.27,-190.85"/>
<polygon fill="midnightblue" stroke="midnightblue" points="686.75,-190.33 682.67,-180.55 679.76,-190.73 686.75,-190.33"/>
</g>
<!-- Node12 -->
<g id="node12" class="node">
<title>Node12</title>
<g id="a_node12"><a xlink:href="classrare_1_1components_1_1tabs_1_1games_1_1integrations_1_1egl__sync__group_1_1_e_g_l_sync_list_item.html#a9c470cc60eae203f55455d0e0d7f5712" target="_top" xlink:title=" ">
<polygon fill="white" stroke="black" points="1326,-188.39 1326,-218.39 1535,-218.39 1535,-188.39 1326,-188.39"/>
<text text-anchor="start" x="1334" y="-206.39" font-family="Helvetica,sans-Serif" font-size="10.00">rare.components.tabs.games.integrations.egl</text>
<text text-anchor="middle" x="1430.5" y="-195.39" font-family="Helvetica,sans-Serif" font-size="10.00">_sync_group.EGLSyncListItem.app_name</text>
</a>
</g>
</g>
<!-- Node11&#45;&gt;Node12 -->
<g id="edge19" class="edge">
<title>Node11&#45;&gt;Node12</title>
<path fill="none" stroke="midnightblue" d="M681.66,-180.54C772.17,-226.35 1059.49,-356.38 1290,-290.39 1334.32,-277.7 1378.25,-246.39 1404.63,-225.01"/>
<polygon fill="midnightblue" stroke="midnightblue" points="1407.09,-227.52 1412.56,-218.45 1402.63,-222.12 1407.09,-227.52"/>
</g>
<!-- Node13 -->
<g id="node13" class="node">
<title>Node13</title>
<g id="a_node13"><a xlink:href="classrare_1_1models_1_1game_1_1_rare_game_base.html#a0afe16b2357823a068971d7af5918a23" target="_top" xlink:title=" ">
<polygon fill="white" stroke="black" points="1359.5,-88.39 1359.5,-118.39 1501.5,-118.39 1501.5,-88.39 1359.5,-88.39"/>
<text text-anchor="start" x="1367.5" y="-106.39" font-family="Helvetica,sans-Serif" font-size="10.00">rare.models.game.RareGame</text>
<text text-anchor="middle" x="1430.5" y="-95.39" font-family="Helvetica,sans-Serif" font-size="10.00">Base.app_name</text>
</a>
</g>
</g>
<!-- Node11&#45;&gt;Node13 -->
<g id="edge21" class="edge">
<title>Node11&#45;&gt;Node13</title>
<path fill="none" stroke="midnightblue" d="M670.5,-150.1C691.68,-132.39 729.11,-103.58 766,-87.39 915.73,-21.65 963.25,-27.34 1126,-11.39 1198.54,-4.28 1220.19,9.56 1290,-11.39 1335.38,-25 1379.64,-58.69 1405.73,-81.3"/>
<polygon fill="midnightblue" stroke="midnightblue" points="1403.74,-84.21 1413.55,-88.21 1408.38,-78.96 1403.74,-84.21"/>
</g>
<!-- Node14 -->
<g id="node14" class="node">
<title>Node14</title>
<g id="a_node14"><a xlink:href="classrare_1_1game__launch__helper_1_1_game_process_app.html#a1ad309148fd22e4786258dc4a79ec7af" target="_top" xlink:title=" ">
<polygon fill="white" stroke="black" points="1126,-21.39 1126,-51.39 1290,-51.39 1290,-21.39 1126,-21.39"/>
<text text-anchor="start" x="1134" y="-39.39" font-family="Helvetica,sans-Serif" font-size="10.00">rare.game_launch_helper.</text>
<text text-anchor="middle" x="1208" y="-28.39" font-family="Helvetica,sans-Serif" font-size="10.00">GameProcessApp.send_message</text>
</a>
</g>
</g>
<!-- Node11&#45;&gt;Node14 -->
<g id="edge24" class="edge">
<title>Node11&#45;&gt;Node14</title>
<path fill="none" stroke="midnightblue" d="M687.06,-150.26C709.2,-140.9 738.89,-129.21 766,-121.39 884.97,-87.07 1026.03,-62.62 1116,-49"/>
<polygon fill="midnightblue" stroke="midnightblue" points="1116.53,-52.46 1125.9,-47.52 1115.49,-45.54 1116.53,-52.46"/>
</g>
<!-- Node15 -->
<g id="node15" class="node">
<title>Node15</title>
<g id="a_node15"><a xlink:href="classrare_1_1game__launch__helper_1_1_game_process_app.html#a711d1d7df9874db34971779c941c4e5e" target="_top" xlink:title=" ">
<polygon fill="white" stroke="black" points="766,-150.39 766,-180.39 893,-180.39 893,-150.39 766,-150.39"/>
<text text-anchor="start" x="774" y="-168.39" font-family="Helvetica,sans-Serif" font-size="10.00">rare.game_launch_helper.</text>
<text text-anchor="middle" x="829.5" y="-157.39" font-family="Helvetica,sans-Serif" font-size="10.00">GameProcessApp.start</text>
</a>
</g>
</g>
<!-- Node11&#45;&gt;Node15 -->
<g id="edge26" class="edge">
<title>Node11&#45;&gt;Node15</title>
<path fill="none" stroke="midnightblue" d="M730.23,-158.68C738.73,-158.61 747.36,-158.63 755.81,-158.73"/>
<polygon fill="midnightblue" stroke="midnightblue" points="755.93,-162.23 765.99,-158.89 756.04,-155.23 755.93,-162.23"/>
</g>
<!-- Node17 -->
<g id="node17" class="node">
<title>Node17</title>
<g id="a_node17"><a xlink:href="classrare_1_1game__launch__helper_1_1_game_process_app.html#a26ca7c1c7fcdd35378e7be97727047a6" target="_top" xlink:title=" ">
<polygon fill="white" stroke="black" points="1144.5,-88.39 1144.5,-118.39 1271.5,-118.39 1271.5,-88.39 1144.5,-88.39"/>
<text text-anchor="start" x="1152.5" y="-106.39" font-family="Helvetica,sans-Serif" font-size="10.00">rare.game_launch_helper.</text>
<text text-anchor="middle" x="1208" y="-95.39" font-family="Helvetica,sans-Serif" font-size="10.00">GameProcessApp.stop</text>
</a>
</g>
</g>
<!-- Node11&#45;&gt;Node17 -->
<g id="edge40" class="edge">
<title>Node11&#45;&gt;Node17</title>
<path fill="none" stroke="midnightblue" d="M714,-150.32C730.77,-146.61 749.02,-142.97 766,-140.39 894.78,-120.83 1046.41,-110.95 1134.14,-106.51"/>
<polygon fill="midnightblue" stroke="midnightblue" points="1134.44,-109.99 1144.25,-106 1134.09,-103 1134.44,-109.99"/>
</g>
<!-- Node12&#45;&gt;Node12 -->
<g id="edge20" class="edge">
<title>Node12&#45;&gt;Node12</title>
<path fill="none" stroke="midnightblue" d="M1391.81,-218.55C1382.48,-227.94 1395.38,-236.89 1430.5,-236.89 1451.9,-236.89 1465.05,-233.57 1469.95,-228.85"/>
<polygon fill="midnightblue" stroke="midnightblue" points="1473.41,-228.26 1469.19,-218.55 1466.43,-228.78 1473.41,-228.26"/>
</g>
<!-- Node13&#45;&gt;Node13 -->
<g id="edge22" class="edge">
<title>Node13&#45;&gt;Node13</title>
<path fill="none" stroke="midnightblue" d="M1391.81,-118.55C1382.48,-127.94 1395.38,-136.89 1430.5,-136.89 1451.9,-136.89 1465.05,-133.57 1469.95,-128.85"/>
<polygon fill="midnightblue" stroke="midnightblue" points="1473.41,-128.26 1469.19,-118.55 1466.43,-128.78 1473.41,-128.26"/>
</g>
<!-- Node14&#45;&gt;Node14 -->
<g id="edge25" class="edge">
<title>Node14&#45;&gt;Node14</title>
<path fill="none" stroke="midnightblue" d="M1173.49,-51.55C1165.17,-60.94 1176.68,-69.89 1208,-69.89 1227.09,-69.89 1238.82,-66.57 1243.18,-61.85"/>
<polygon fill="midnightblue" stroke="midnightblue" points="1246.65,-61.3 1242.51,-51.55 1239.67,-61.75 1246.65,-61.3"/>
</g>
<!-- Node15&#45;&gt;Node9 -->
<g id="edge27" class="edge">
<title>Node15&#45;&gt;Node9</title>
<path fill="none" stroke="midnightblue" d="M859.47,-180.53C878.69,-189.95 904.76,-201.53 929,-208.39 996.44,-227.45 1075.83,-237.4 1132.47,-242.47"/>
<polygon fill="midnightblue" stroke="midnightblue" points="1132.51,-245.98 1142.77,-243.35 1133.11,-239.01 1132.51,-245.98"/>
</g>
<!-- Node15&#45;&gt;Node11 -->
<g id="edge38" class="edge">
<title>Node15&#45;&gt;Node11</title>
<path fill="none" stroke="midnightblue" d="M765.99,-171.88C757.66,-172.05 749.01,-172.14 740.36,-172.14"/>
<polygon fill="midnightblue" stroke="midnightblue" points="740.25,-168.64 730.23,-172.09 740.22,-175.64 740.25,-168.64"/>
</g>
<!-- Node15&#45;&gt;Node15 -->
<g id="edge39" class="edge">
<title>Node15&#45;&gt;Node15</title>
<path fill="none" stroke="midnightblue" d="M798.83,-180.55C791.43,-189.94 801.66,-198.89 829.5,-198.89 846.47,-198.89 856.89,-195.57 860.77,-190.85"/>
<polygon fill="midnightblue" stroke="midnightblue" points="864.25,-190.33 860.17,-180.55 857.26,-190.73 864.25,-190.33"/>
</g>
<!-- Node16 -->
<g id="node16" class="node">
<title>Node16</title>
<g id="a_node16"><a xlink:href="classrare_1_1game__launch__helper_1_1_game_process_app.html#ac2d7fc08d8189d84d207151df722ee19" target="_top" xlink:title=" ">
<polygon fill="white" stroke="black" points="929,-150.39 929,-180.39 1090,-180.39 1090,-150.39 929,-150.39"/>
<text text-anchor="start" x="937" y="-168.39" font-family="Helvetica,sans-Serif" font-size="10.00">rare.game_launch_helper.</text>
<text text-anchor="middle" x="1009.5" y="-157.39" font-family="Helvetica,sans-Serif" font-size="10.00">GameProcessApp.error_occurred</text>
</a>
</g>
</g>
<!-- Node15&#45;&gt;Node16 -->
<g id="edge28" class="edge">
<title>Node15&#45;&gt;Node16</title>
<path fill="none" stroke="midnightblue" d="M893.01,-165.39C901.36,-165.39 910.05,-165.39 918.76,-165.39"/>
<polygon fill="midnightblue" stroke="midnightblue" points="918.96,-168.89 928.96,-165.39 918.96,-161.89 918.96,-168.89"/>
</g>
<!-- Node16&#45;&gt;Node9 -->
<g id="edge31" class="edge">
<title>Node16&#45;&gt;Node9</title>
<path fill="none" stroke="midnightblue" d="M1042.6,-180.55C1065.64,-191.26 1097.51,-205.71 1126,-217.39 1135.37,-221.23 1145.43,-225.12 1155.16,-228.79"/>
<polygon fill="midnightblue" stroke="midnightblue" points="1154.16,-232.15 1164.75,-232.36 1156.6,-225.59 1154.16,-232.15"/>
</g>
<!-- Node16&#45;&gt;Node12 -->
<g id="edge29" class="edge">
<title>Node16&#45;&gt;Node12</title>
<path fill="none" stroke="midnightblue" d="M1090.29,-175.5C1102.25,-176.89 1114.44,-178.23 1126,-179.39 1188.64,-185.66 1258.68,-191.29 1315.69,-195.52"/>
<polygon fill="midnightblue" stroke="midnightblue" points="1315.58,-199.02 1325.81,-196.26 1316.09,-192.04 1315.58,-199.02"/>
</g>
<!-- Node16&#45;&gt;Node13 -->
<g id="edge30" class="edge">
<title>Node16&#45;&gt;Node13</title>
<path fill="none" stroke="midnightblue" d="M1090.3,-164.35C1146.53,-162.48 1223.38,-157.64 1290,-145.39 1319.89,-139.89 1352.45,-130.3 1378.59,-121.67"/>
<polygon fill="midnightblue" stroke="midnightblue" points="1379.91,-124.92 1388.28,-118.42 1377.68,-118.28 1379.91,-124.92"/>
</g>
<!-- Node16&#45;&gt;Node14 -->
<g id="edge33" class="edge">
<title>Node16&#45;&gt;Node14</title>
<path fill="none" stroke="midnightblue" d="M1028.62,-150.23C1050.8,-132.03 1089.89,-101.13 1126,-78.39 1138.51,-70.51 1152.67,-62.79 1165.61,-56.17"/>
<polygon fill="midnightblue" stroke="midnightblue" points="1167.42,-59.17 1174.77,-51.55 1164.27,-52.92 1167.42,-59.17"/>
</g>
<!-- Node16&#45;&gt;Node16 -->
<g id="edge32" class="edge">
<title>Node16&#45;&gt;Node16</title>
<path fill="none" stroke="midnightblue" d="M978.13,-180.55C970.57,-189.94 981.02,-198.89 1009.5,-198.89 1026.85,-198.89 1037.51,-195.57 1041.48,-190.85"/>
<polygon fill="midnightblue" stroke="midnightblue" points="1044.96,-190.32 1040.87,-180.55 1037.97,-190.74 1044.96,-190.32"/>
</g>
<!-- Node16&#45;&gt;Node17 -->
<g id="edge34" class="edge">
<title>Node16&#45;&gt;Node17</title>
<path fill="none" stroke="midnightblue" d="M1058.07,-150.38C1085.62,-141.69 1120.5,-130.68 1149.57,-121.51"/>
<polygon fill="midnightblue" stroke="midnightblue" points="1150.71,-124.82 1159.19,-118.47 1148.6,-118.14 1150.71,-124.82"/>
</g>
<!-- Node17&#45;&gt;Node12 -->
<g id="edge35" class="edge">
<title>Node17&#45;&gt;Node12</title>
<path fill="none" stroke="midnightblue" d="M1242.49,-118.58C1281.24,-136.15 1345.12,-165.12 1387.25,-184.23"/>
<polygon fill="midnightblue" stroke="midnightblue" points="1385.87,-187.44 1396.42,-188.38 1388.76,-181.07 1385.87,-187.44"/>
</g>
<!-- Node17&#45;&gt;Node13 -->
<g id="edge36" class="edge">
<title>Node17&#45;&gt;Node13</title>
<path fill="none" stroke="midnightblue" d="M1271.6,-103.39C1295.76,-103.39 1323.71,-103.39 1349.32,-103.39"/>
<polygon fill="midnightblue" stroke="midnightblue" points="1349.38,-106.89 1359.38,-103.39 1349.38,-99.89 1349.38,-106.89"/>
</g>
<!-- Node17&#45;&gt;Node17 -->
<g id="edge37" class="edge">
<title>Node17&#45;&gt;Node17</title>
<path fill="none" stroke="midnightblue" d="M1173.49,-118.55C1165.17,-127.94 1176.68,-136.89 1208,-136.89 1227.09,-136.89 1238.82,-133.57 1243.18,-128.85"/>
<polygon fill="midnightblue" stroke="midnightblue" points="1246.65,-128.3 1242.51,-118.55 1239.67,-128.75 1246.65,-128.3"/>
</g>
</g>
</svg>
        <g id="navigator" transform="translate(0 0)" fill="#404254">
                <rect fill="#f2f5e9" fill-opacity="0.5" stroke="#606060" stroke-width=".5" x="0" y="0" width="60" height="60"/>
                <use id="zoomplus" xlink:href="#zoomPlus" x="17" y="9" onmousedown="handleZoom(evt,'in')"/>
                <use id="zoomminus" xlink:href="#zoomMin" x="42" y="9" onmousedown="handleZoom(evt,'out')"/>
                <use id="reset" xlink:href="#resetDef" x="30" y="36" onmousedown="handleReset()"/>
                <g id="arrowUp" xlink:href="#dirArrow" transform="translate(30 24)" onmousedown="handlePan(0,-1)">
                  <use xlink:href="#rim" fill="#404040">
                        <set attributeName="fill" to="#808080" begin="arrowUp.mouseover" end="arrowUp.mouseout"/>
                  </use>
                  <path fill="none" stroke="white" stroke-width="1.5" d="M0,-3.0v7 M-2.5,-0.5L0,-3.0L2.5,-0.5"/>
                </g>
                <g id="arrowRight" xlink:href="#dirArrow" transform="rotate(90) translate(36 -43)" onmousedown="handlePan(1,0)">
                  <use xlink:href="#rim" fill="#404040">
                        <set attributeName="fill" to="#808080" begin="arrowRight.mouseover" end="arrowRight.mouseout"/>
                  </use>
                  <path fill="none" stroke="white" stroke-width="1.5" d="M0,-3.0v7 M-2.5,-0.5L0,-3.0L2.5,-0.5"/>
                </g>
                <g id="arrowDown" xlink:href="#dirArrow" transform="rotate(180) translate(-30 -48)" onmousedown="handlePan(0,1)">
                  <use xlink:href="#rim" fill="#404040">
                        <set attributeName="fill" to="#808080" begin="arrowDown.mouseover" end="arrowDown.mouseout"/>
                  </use>
                  <path fill="none" stroke="white" stroke-width="1.5" d="M0,-3.0v7 M-2.5,-0.5L0,-3.0L2.5,-0.5"/>
                </g>
                <g id="arrowLeft" xlink:href="#dirArrow" transform="rotate(270) translate(-36 17)" onmousedown="handlePan(-1,0)">
                  <use xlink:href="#rim" fill="#404040">
                        <set attributeName="fill" to="#808080" begin="arrowLeft.mouseover" end="arrowLeft.mouseout"/>
                  </use>
                  <path fill="none" stroke="white" stroke-width="1.5" d="M0,-3.0v7 M-2.5,-0.5L0,-3.0L2.5,-0.5"/>
                </g>
        </g>
        <svg viewBox="0 0 15 15" width="100%" height="30px" preserveAspectRatio="xMaxYMin meet">
         <g id="arrow_out" transform="scale(0.3 0.3)">
          <a xlink:href="classrare_1_1shared_1_1cloud__save__utils_1_1_cloud_save_utils_a827ed0e99238ed072a0e814e48aa7e46_cgraph_org.svg" target="_base">
           <rect id="button" ry="5" rx="5" y="6" x="6" height="38" width="38"
                fill="#f2f5e9" fill-opacity="0.5" stroke="#606060" stroke-width="1.0"/>
           <path id="arrow"
             d="M 11.500037,31.436501 C 11.940474,20.09759 22.043105,11.32322 32.158766,21.979434 L 37.068811,17.246167 C 37.068811,17.246167 37.088388,32 37.088388,32 L 22.160133,31.978069 C 22.160133,31.978069 26.997745,27.140456 26.997745,27.140456 C 18.528582,18.264221 13.291696,25.230495 11.500037,31.436501 z"
             style="fill:#404040;"/>
          </a>
         </g>
        </svg>
</svg>
