<?xml version="1.0" encoding="UTF-8" standalone="no"?>
<!DOCTYPE svg PUBLIC "-//W3C//DTD SVG 1.1//EN"
 "http://www.w3.org/Graphics/SVG/1.1/DTD/svg11.dtd">
<!-- Generated by graphviz version 2.49.3 (20211027.1534)
 -->
<!-- Title: update_progress Pages: 1 -->
<svg width="1166pt" height="330pt"
 viewBox="0.00 0.00 1166.00 329.50" xmlns="http://www.w3.org/2000/svg" xmlns:xlink="http://www.w3.org/1999/xlink">
<g id="graph0" class="graph" transform="scale(1 1) rotate(0) translate(4 325.5)">
<title>update_progress</title>
<polygon fill="white" stroke="transparent" points="-4,4 -4,-325.5 1162,-325.5 1162,4 -4,4"/>
<!-- Node1 -->
<g id="node1" class="node">
<title>Node1</title>
<g id="a_node1"><a xlink:title=" ">
<polygon fill="#bfbfbf" stroke="black" points="0,-200.5 0,-219.5 89,-219.5 89,-200.5 0,-200.5"/>
<text text-anchor="middle" x="44.5" y="-207.5" font-family="Helvetica,sans-Serif" font-size="10.00">update_progress</text>
</a>
</g>
</g>
<!-- Node1&#45;&gt;Node1 -->
<g id="edge1" class="edge">
<title>Node1&#45;&gt;Node1</title>
<path fill="none" stroke="midnightblue" d="M16.14,-219.76C2.34,-228.57 11.8,-238 44.5,-238 66.98,-238 78.48,-233.54 78.98,-227.89"/>
<polygon fill="midnightblue" stroke="midnightblue" points="81.67,-225.64 72.86,-219.76 76.08,-229.85 81.67,-225.64"/>
</g>
<!-- Node2 -->
<g id="node2" class="node">
<title>Node2</title>
<g id="a_node2"><a xlink:href="classrare_1_1components_1_1tabs_1_1games_1_1game__widgets_1_1library__widget_1_1_library_widget.html#aba6dbd857b7a02c2f1fbd7d472416b54" target="_top" xlink:title=" ">
<polygon fill="white" stroke="black" points="125,-189.5 125,-230.5 335,-230.5 335,-189.5 125,-189.5"/>
<text text-anchor="start" x="133" y="-218.5" font-family="Helvetica,sans-Serif" font-size="10.00">rare.components.tabs.games.game</text>
<text text-anchor="start" x="133" y="-207.5" font-family="Helvetica,sans-Serif" font-size="10.00">_widgets.library_widget.LibraryWidget.update</text>
<text text-anchor="middle" x="230" y="-196.5" font-family="Helvetica,sans-Serif" font-size="10.00">Progress</text>
</a>
</g>
</g>
<!-- Node1&#45;&gt;Node2 -->
<g id="edge2" class="edge">
<title>Node1&#45;&gt;Node2</title>
<path fill="none" stroke="midnightblue" d="M89.45,-210C97.31,-210 105.82,-210 114.62,-210"/>
<polygon fill="midnightblue" stroke="midnightblue" points="114.67,-213.5 124.67,-210 114.67,-206.5 114.67,-213.5"/>
</g>
<!-- Node2&#45;&gt;Node2 -->
<g id="edge22" class="edge">
<title>Node2&#45;&gt;Node2</title>
<path fill="none" stroke="midnightblue" d="M196.18,-230.86C192.49,-240.54 203.77,-249 230,-249 246.4,-249 256.95,-245.7 261.66,-240.86"/>
<polygon fill="midnightblue" stroke="midnightblue" points="265.12,-241.38 263.82,-230.86 258.28,-239.9 265.12,-241.38"/>
</g>
<!-- Node3 -->
<g id="node3" class="node">
<title>Node3</title>
<g id="a_node3"><a xlink:href="classrare_1_1components_1_1tabs_1_1games_1_1game__widgets_1_1library__widget_1_1_library_widget.html#a4561ff9fad441241d27e7fa9d57173cf" target="_top" xlink:title="Paints the color image over the gray images based on progress percentage.">
<polygon fill="white" stroke="black" points="371,-273 371,-303 625,-303 625,-273 371,-273"/>
<text text-anchor="start" x="379" y="-291" font-family="Helvetica,sans-Serif" font-size="10.00">rare.components.tabs.games.game</text>
<text text-anchor="middle" x="498" y="-280" font-family="Helvetica,sans-Serif" font-size="10.00">_widgets.library_widget.LibraryWidget.progress_pixmap</text>
</a>
</g>
</g>
<!-- Node2&#45;&gt;Node3 -->
<g id="edge3" class="edge">
<title>Node2&#45;&gt;Node3</title>
<path fill="none" stroke="midnightblue" d="M286.81,-230.52C312.3,-239.53 342.99,-249.88 371,-258 386.29,-262.43 402.76,-266.71 418.59,-270.57"/>
<polygon fill="midnightblue" stroke="midnightblue" points="417.81,-273.98 428.35,-272.92 419.45,-267.18 417.81,-273.98"/>
</g>
<!-- Node4 -->
<g id="node4" class="node">
<title>Node4</title>
<g id="a_node4"><a xlink:href="classrare_1_1components_1_1tabs_1_1games_1_1game__widgets_1_1list__game__widget_1_1_list_game_widget.html#a4561ff9fad441241d27e7fa9d57173cf" target="_top" xlink:title="Paints the color image over the gray images based on progress percentage.">
<polygon fill="white" stroke="black" points="661,-234.5 661,-275.5 840,-275.5 840,-234.5 661,-234.5"/>
<text text-anchor="start" x="669" y="-263.5" font-family="Helvetica,sans-Serif" font-size="10.00">rare.components.tabs.games.game</text>
<text text-anchor="start" x="669" y="-252.5" font-family="Helvetica,sans-Serif" font-size="10.00">_widgets.list_game_widget.ListGame</text>
<text text-anchor="middle" x="750.5" y="-241.5" font-family="Helvetica,sans-Serif" font-size="10.00">Widget.progress_pixmap</text>
</a>
</g>
</g>
<!-- Node2&#45;&gt;Node4 -->
<g id="edge5" class="edge">
<title>Node2&#45;&gt;Node4</title>
<path fill="none" stroke="midnightblue" d="M335.32,-221.5C347.35,-222.73 359.44,-223.92 371,-225 465.85,-233.84 574.23,-242.26 650.63,-247.92"/>
<polygon fill="midnightblue" stroke="midnightblue" points="650.5,-251.41 660.73,-248.66 651.01,-244.43 650.5,-251.41"/>
</g>
<!-- Node7 -->
<g id="node7" class="node">
<title>Node7</title>
<g id="a_node7"><a xlink:href="classrare_1_1components_1_1tabs_1_1games_1_1game__widgets_1_1list__game__widget_1_1_list_game_widget.html#afe7221063d2a4d7b1e1f42fb85f5d06f" target="_top" xlink:title=" ">
<polygon fill="white" stroke="black" points="408.5,-156.5 408.5,-197.5 587.5,-197.5 587.5,-156.5 408.5,-156.5"/>
<text text-anchor="start" x="416.5" y="-185.5" font-family="Helvetica,sans-Serif" font-size="10.00">rare.components.tabs.games.game</text>
<text text-anchor="start" x="416.5" y="-174.5" font-family="Helvetica,sans-Serif" font-size="10.00">_widgets.list_game_widget.ListGame</text>
<text text-anchor="middle" x="498" y="-163.5" font-family="Helvetica,sans-Serif" font-size="10.00">Widget.setPixmap</text>
</a>
</g>
</g>
<!-- Node2&#45;&gt;Node7 -->
<g id="edge11" class="edge">
<title>Node2&#45;&gt;Node7</title>
<path fill="none" stroke="midnightblue" d="M335.37,-197.05C356.13,-194.48 377.87,-191.78 398.43,-189.23"/>
<polygon fill="midnightblue" stroke="midnightblue" points="398.93,-192.69 408.42,-187.99 398.07,-185.75 398.93,-192.69"/>
</g>
<!-- Node9 -->
<g id="node9" class="node">
<title>Node9</title>
<g id="a_node9"><a xlink:href="classrare_1_1widgets_1_1image__widget_1_1_image_widget.html#afe7221063d2a4d7b1e1f42fb85f5d06f" target="_top" xlink:title=" ">
<polygon fill="white" stroke="black" points="419,-84 419,-114 577,-114 577,-84 419,-84"/>
<text text-anchor="start" x="427" y="-102" font-family="Helvetica,sans-Serif" font-size="10.00">rare.widgets.image</text>
<text text-anchor="middle" x="498" y="-91" font-family="Helvetica,sans-Serif" font-size="10.00">_widget.ImageWidget.setPixmap</text>
</a>
</g>
</g>
<!-- Node2&#45;&gt;Node9 -->
<g id="edge16" class="edge">
<title>Node2&#45;&gt;Node9</title>
<path fill="none" stroke="midnightblue" d="M274.85,-189.47C302.3,-176.82 338.51,-160.49 371,-147 395.5,-136.83 423,-126.26 446.04,-117.64"/>
<polygon fill="midnightblue" stroke="midnightblue" points="447.47,-120.84 455.62,-114.07 445.02,-114.28 447.47,-120.84"/>
</g>
<!-- Node3&#45;&gt;Node3 -->
<g id="edge4" class="edge">
<title>Node3&#45;&gt;Node3</title>
<path fill="none" stroke="midnightblue" d="M454.08,-303.16C443.49,-312.56 458.13,-321.5 498,-321.5 522.92,-321.5 537.98,-318.01 543.19,-313.09"/>
<polygon fill="midnightblue" stroke="midnightblue" points="546.66,-312.63 541.92,-303.16 539.71,-313.52 546.66,-312.63"/>
</g>
<!-- Node4&#45;&gt;Node4 -->
<g id="edge6" class="edge">
<title>Node4&#45;&gt;Node4</title>
<path fill="none" stroke="midnightblue" d="M716.68,-275.86C712.99,-285.54 724.27,-294 750.5,-294 766.9,-294 777.45,-290.7 782.16,-285.86"/>
<polygon fill="midnightblue" stroke="midnightblue" points="785.62,-286.38 784.32,-275.86 778.78,-284.9 785.62,-286.38"/>
</g>
<!-- Node5 -->
<g id="node5" class="node">
<title>Node5</title>
<g id="a_node5"><a xlink:href="classrare_1_1utils_1_1extra__widgets_1_1_flow_layout.html#aff1e7c8521d73ca3ac484759bf2b7597" target="_top" xlink:title=" ">
<polygon fill="white" stroke="black" points="876,-201 876,-231 994,-231 994,-201 876,-201"/>
<text text-anchor="start" x="884" y="-219" font-family="Helvetica,sans-Serif" font-size="10.00">rare.utils.extra_widgets.</text>
<text text-anchor="middle" x="935" y="-208" font-family="Helvetica,sans-Serif" font-size="10.00">FlowLayout.sizeHint</text>
</a>
</g>
</g>
<!-- Node4&#45;&gt;Node5 -->
<g id="edge7" class="edge">
<title>Node4&#45;&gt;Node5</title>
<path fill="none" stroke="midnightblue" d="M840.08,-236.07C848.82,-234.2 857.6,-232.33 866.09,-230.51"/>
<polygon fill="midnightblue" stroke="midnightblue" points="866.86,-233.93 875.91,-228.41 865.4,-227.08 866.86,-233.93"/>
</g>
<!-- Node5&#45;&gt;Node5 -->
<g id="edge10" class="edge">
<title>Node5&#45;&gt;Node5</title>
<path fill="none" stroke="midnightblue" d="M907.47,-231.16C900.83,-240.56 910,-249.5 935,-249.5 950.23,-249.5 959.59,-246.18 963.07,-241.46"/>
<polygon fill="midnightblue" stroke="midnightblue" points="966.55,-240.96 962.53,-231.16 959.56,-241.33 966.55,-240.96"/>
</g>
<!-- Node6 -->
<g id="node6" class="node">
<title>Node6</title>
<g id="a_node6"><a xlink:href="classrare_1_1utils_1_1extra__widgets_1_1_flow_layout.html#acd7a5b208d0d18ac43cc317209bd759c" target="_top" xlink:title=" ">
<polygon fill="white" stroke="black" points="1030,-201 1030,-231 1158,-231 1158,-201 1030,-201"/>
<text text-anchor="start" x="1038" y="-219" font-family="Helvetica,sans-Serif" font-size="10.00">rare.utils.extra_widgets.</text>
<text text-anchor="middle" x="1094" y="-208" font-family="Helvetica,sans-Serif" font-size="10.00">FlowLayout.minimumSize</text>
</a>
</g>
</g>
<!-- Node5&#45;&gt;Node6 -->
<g id="edge8" class="edge">
<title>Node5&#45;&gt;Node6</title>
<path fill="none" stroke="midnightblue" d="M994.01,-216C1002.43,-216 1011.18,-216 1019.84,-216"/>
<polygon fill="midnightblue" stroke="midnightblue" points="1019.95,-219.5 1029.95,-216 1019.95,-212.5 1019.95,-219.5"/>
</g>
<!-- Node6&#45;&gt;Node6 -->
<g id="edge9" class="edge">
<title>Node6&#45;&gt;Node6</title>
<path fill="none" stroke="midnightblue" d="M1066.47,-231.16C1059.83,-240.56 1069,-249.5 1094,-249.5 1109.23,-249.5 1118.59,-246.18 1122.07,-241.46"/>
<polygon fill="midnightblue" stroke="midnightblue" points="1125.55,-240.96 1121.53,-231.16 1118.56,-241.33 1125.55,-240.96"/>
</g>
<!-- Node7&#45;&gt;Node7 -->
<g id="edge15" class="edge">
<title>Node7&#45;&gt;Node7</title>
<path fill="none" stroke="midnightblue" d="M451.68,-197.86C446.63,-207.54 462.07,-216 498,-216 520.46,-216 534.91,-212.7 541.36,-207.86"/>
<polygon fill="midnightblue" stroke="midnightblue" points="544.83,-208.45 544.32,-197.86 538.12,-206.46 544.83,-208.45"/>
</g>
<!-- Node8 -->
<g id="node8" class="node">
<title>Node8</title>
<g id="a_node8"><a xlink:href="classrare_1_1components_1_1tabs_1_1games_1_1game__widgets_1_1list__game__widget_1_1_list_game_widget.html#a7237f0ce0aaddf9396e9801066707c3e" target="_top" xlink:title=" ">
<polygon fill="white" stroke="black" points="661,-156.5 661,-197.5 840,-197.5 840,-156.5 661,-156.5"/>
<text text-anchor="start" x="669" y="-185.5" font-family="Helvetica,sans-Serif" font-size="10.00">rare.components.tabs.games.game</text>
<text text-anchor="start" x="669" y="-174.5" font-family="Helvetica,sans-Serif" font-size="10.00">_widgets.list_game_widget.ListGame</text>
<text text-anchor="middle" x="750.5" y="-163.5" font-family="Helvetica,sans-Serif" font-size="10.00">Widget.prepare_pixmap</text>
</a>
</g>
</g>
<!-- Node7&#45;&gt;Node8 -->
<g id="edge12" class="edge">
<title>Node7&#45;&gt;Node8</title>
<path fill="none" stroke="midnightblue" d="M587.67,-177C608.11,-177 629.98,-177 650.81,-177"/>
<polygon fill="midnightblue" stroke="midnightblue" points="650.95,-180.5 660.95,-177 650.95,-173.5 650.95,-180.5"/>
</g>
<!-- Node8&#45;&gt;Node5 -->
<g id="edge14" class="edge">
<title>Node8&#45;&gt;Node5</title>
<path fill="none" stroke="midnightblue" d="M840.08,-195.93C848.82,-197.8 857.6,-199.67 866.09,-201.49"/>
<polygon fill="midnightblue" stroke="midnightblue" points="865.4,-204.92 875.91,-203.59 866.86,-198.07 865.4,-204.92"/>
</g>
<!-- Node8&#45;&gt;Node8 -->
<g id="edge13" class="edge">
<title>Node8&#45;&gt;Node8</title>
<path fill="none" stroke="midnightblue" d="M716.68,-197.86C712.99,-207.54 724.27,-216 750.5,-216 766.9,-216 777.45,-212.7 782.16,-207.86"/>
<polygon fill="midnightblue" stroke="midnightblue" points="785.62,-208.38 784.32,-197.86 778.78,-206.9 785.62,-208.38"/>
</g>
<!-- Node9&#45;&gt;Node9 -->
<g id="edge21" class="edge">
<title>Node9&#45;&gt;Node9</title>
<path fill="none" stroke="midnightblue" d="M454.08,-114.16C443.49,-123.56 458.13,-132.5 498,-132.5 522.92,-132.5 537.98,-129.01 543.19,-124.09"/>
<polygon fill="midnightblue" stroke="midnightblue" points="546.66,-123.63 541.92,-114.16 539.71,-124.52 546.66,-123.63"/>
</g>
<!-- Node10 -->
<g id="node10" class="node">
<title>Node10</title>
<g id="a_node10"><a xlink:href="classrare_1_1components_1_1tabs_1_1games_1_1game__widgets_1_1list__game__widget_1_1_list_game_widget.html#aa136880b14cd8741ebe60fbcf4d29a2e" target="_top" xlink:title=" ">
<polygon fill="white" stroke="black" points="661,-78.5 661,-119.5 840,-119.5 840,-78.5 661,-78.5"/>
<text text-anchor="start" x="669" y="-107.5" font-family="Helvetica,sans-Serif" font-size="10.00">rare.components.tabs.games.game</text>
<text text-anchor="start" x="669" y="-96.5" font-family="Helvetica,sans-Serif" font-size="10.00">_widgets.list_game_widget.ListGame</text>
<text text-anchor="middle" x="750.5" y="-85.5" font-family="Helvetica,sans-Serif" font-size="10.00">Widget.paint_image_cover</text>
</a>
</g>
</g>
<!-- Node9&#45;&gt;Node10 -->
<g id="edge17" class="edge">
<title>Node9&#45;&gt;Node10</title>
<path fill="none" stroke="midnightblue" d="M577.23,-99C600.57,-99 626.46,-99 650.93,-99"/>
<polygon fill="midnightblue" stroke="midnightblue" points="650.95,-102.5 660.95,-99 650.95,-95.5 650.95,-102.5"/>
</g>
<!-- Node11 -->
<g id="node11" class="node">
<title>Node11</title>
<g id="a_node11"><a xlink:href="classrare_1_1widgets_1_1image__widget_1_1_image_widget.html#aa136880b14cd8741ebe60fbcf4d29a2e" target="_top" xlink:title=" ">
<polygon fill="white" stroke="black" points="684,-0.5 684,-41.5 817,-41.5 817,-0.5 684,-0.5"/>
<text text-anchor="start" x="692" y="-29.5" font-family="Helvetica,sans-Serif" font-size="10.00">rare.widgets.image</text>
<text text-anchor="start" x="692" y="-18.5" font-family="Helvetica,sans-Serif" font-size="10.00">_widget.ImageWidget.paint</text>
<text text-anchor="middle" x="750.5" y="-7.5" font-family="Helvetica,sans-Serif" font-size="10.00">_image_cover</text>
</a>
</g>
</g>
<!-- Node9&#45;&gt;Node11 -->
<g id="edge19" class="edge">
<title>Node9&#45;&gt;Node11</title>
<path fill="none" stroke="midnightblue" d="M547.3,-83.96C583.23,-72.77 632.96,-57.29 674.11,-44.48"/>
<polygon fill="midnightblue" stroke="midnightblue" points="675.32,-47.76 683.83,-41.45 673.24,-41.08 675.32,-47.76"/>
</g>
<!-- Node10&#45;&gt;Node10 -->
<g id="edge18" class="edge">
<title>Node10&#45;&gt;Node10</title>
<path fill="none" stroke="midnightblue" d="M716.68,-119.86C712.99,-129.54 724.27,-138 750.5,-138 766.9,-138 777.45,-134.7 782.16,-129.86"/>
<polygon fill="midnightblue" stroke="midnightblue" points="785.62,-130.38 784.32,-119.86 778.78,-128.9 785.62,-130.38"/>
</g>
<!-- Node11&#45;&gt;Node11 -->
<g id="edge20" class="edge">
<title>Node11&#45;&gt;Node11</title>
<path fill="none" stroke="midnightblue" d="M716.68,-41.86C712.99,-51.54 724.27,-60 750.5,-60 766.9,-60 777.45,-56.7 782.16,-51.86"/>
<polygon fill="midnightblue" stroke="midnightblue" points="785.62,-52.38 784.32,-41.86 778.78,-50.9 785.62,-52.38"/>
</g>
</g>
</svg>
