<?xml version="1.0" encoding="UTF-8" standalone="no"?>
<!DOCTYPE svg PUBLIC "-//W3C//DTD SVG 1.1//EN"
 "http://www.w3.org/Graphics/SVG/1.1/DTD/svg11.dtd">
<!-- Generated by graphviz version 2.49.3 (20211027.1534)
 -->
<!-- Title: state Pages: 1 -->
<!--zoomable 342 -->
<svg id="main" version="1.1" xmlns="http://www.w3.org/2000/svg" xmlns:xlink="http://www.w3.org/1999/xlink" xml:space="preserve" onload="init(evt)">
<style type="text/css"><![CDATA[
.edge:hover path { stroke: red; }
.edge:hover polygon { stroke: red; fill: red; }
]]></style>
<script type="text/javascript"><![CDATA[
var edges = document.getElementsByTagName('g');
if (edges && edges.length) {
  for (var i=0;i<edges.length;i++) {
    if (edges[i].id.substr(0,4)=='edge') {
      edges[i].setAttribute('class','edge');
    }
  }
}
]]></script>
        <defs>
                <circle id="rim" cx="0" cy="0" r="7"/>
                <circle id="rim2" cx="0" cy="0" r="3.5"/>
                <g id="zoomPlus">
                        <use xlink:href="#rim" fill="#404040">
                                <set attributeName="fill" to="#808080" begin="zoomplus.mouseover" end="zoomplus.mouseout"/>
                        </use>
                        <path d="M-4,0h8M0,-4v8" fill="none" stroke="white" stroke-width="1.5" pointer-events="none"/>
                </g>
                <g id="zoomMin">
                        <use xlink:href="#rim" fill="#404040">
                                <set attributeName="fill" to="#808080" begin="zoomminus.mouseover" end="zoomminus.mouseout"/>
                        </use>
                        <path d="M-4,0h8" fill="none" stroke="white" stroke-width="1.5" pointer-events="none"/>
                </g>
                <g id="dirArrow">
                        <path fill="none" stroke="white" stroke-width="1.5" d="M0,-3.0v7 M-2.5,-0.5L0,-3.0L2.5,-0.5"/>
                </g>
               <g id="resetDef">
                       <use xlink:href="#rim2" fill="#404040">
                               <set attributeName="fill" to="#808080" begin="reset.mouseover" end="reset.mouseout"/>
                       </use>
               </g>
        </defs>

<script type="text/javascript">
var viewWidth = 847;
var viewHeight = 342;
var sectionId = 'dynsection-20';
</script>
<script xlink:href="svgpan.js"/>
<svg id="graph" class="graph">
<g id="viewport">
<title>state</title>
<polygon fill="white" stroke="transparent" points="-4,4 -4,-338 843,-338 843,4 -4,4"/>
<!-- Node1 -->
<g id="node1" class="node">
<title>Node1</title>
<g id="a_node1"><a xlink:title=" ">
<polygon fill="#bfbfbf" stroke="black" points="801,-140 801,-159 839,-159 839,-140 801,-140"/>
<text text-anchor="middle" x="820" y="-147" font-family="Helvetica,sans-Serif" font-size="10.00">state</text>
</a>
</g>
</g>
<!-- Node2 -->
<g id="node2" class="node">
<title>Node2</title>
<g id="a_node2"><a xlink:href="classrare_1_1utils_1_1rpc_1_1_discord_r_p_c.html#a322ebb4953da62177002651ba9b4edc1" target="_top" xlink:title=" ">
<polygon fill="white" stroke="black" points="587,-249 587,-268 765,-268 765,-249 587,-249"/>
<text text-anchor="middle" x="676" y="-256" font-family="Helvetica,sans-Serif" font-size="10.00">rare.utils.rpc.DiscordRPC.remove_rpc</text>
</a>
</g>
</g>
<!-- Node1&#45;&gt;Node2 -->
<g id="edge1" class="edge">
<title>Node1&#45;&gt;Node2</title>
<path fill="none" stroke="midnightblue" d="M809.93,-168.08C800.75,-185.15 785.05,-210.07 765,-225.5 751.03,-236.25 733.19,-243.8 717.23,-248.94"/>
<polygon fill="midnightblue" stroke="midnightblue" points="813.11,-169.56 814.57,-159.06 806.88,-166.35 813.11,-169.56"/>
</g>
<!-- Node4 -->
<g id="node4" class="node">
<title>Node4</title>
<g id="a_node4"><a xlink:href="classrare_1_1utils_1_1rpc_1_1_discord_r_p_c.html#ab988e5fe435f9b45eab3c4e32ba0862b" target="_top" xlink:title=" ">
<polygon fill="white" stroke="black" points="376,-197 376,-216 551,-216 551,-197 376,-197"/>
<text text-anchor="middle" x="463.5" y="-204" font-family="Helvetica,sans-Serif" font-size="10.00">rare.utils.rpc.DiscordRPC.update_rpc</text>
</a>
</g>
</g>
<!-- Node1&#45;&gt;Node4 -->
<g id="edge15" class="edge">
<title>Node1&#45;&gt;Node4</title>
<path fill="none" stroke="midnightblue" d="M802.72,-166.51C792.78,-175.69 779.27,-186.2 765,-191.5 696.32,-217 612.7,-219.06 551.12,-215.71"/>
<polygon fill="midnightblue" stroke="midnightblue" points="805.45,-168.73 810.17,-159.25 800.56,-163.72 805.45,-168.73"/>
</g>
<!-- Node7 -->
<g id="node7" class="node">
<title>Node7</title>
<g id="a_node7"><a xlink:href="classrare_1_1shared_1_1workers_1_1worker_1_1_queue_worker.html#ad22709b2e67308af35f55680d5a026e0" target="_top" xlink:title=" ">
<polygon fill="white" stroke="black" points="608.5,-134.5 608.5,-164.5 743.5,-164.5 743.5,-134.5 608.5,-134.5"/>
<text text-anchor="start" x="616.5" y="-152.5" font-family="Helvetica,sans-Serif" font-size="10.00">rare.shared.workers.worker.</text>
<text text-anchor="middle" x="676" y="-141.5" font-family="Helvetica,sans-Serif" font-size="10.00">QueueWorker.run</text>
</a>
</g>
</g>
<!-- Node1&#45;&gt;Node7 -->
<g id="edge13" class="edge">
<title>Node1&#45;&gt;Node7</title>
<path fill="none" stroke="midnightblue" d="M790.64,-149.5C777.1,-149.5 760.28,-149.5 743.76,-149.5"/>
<polygon fill="midnightblue" stroke="midnightblue" points="790.73,-153 800.73,-149.5 790.73,-146 790.73,-153"/>
</g>
<!-- Node8 -->
<g id="node8" class="node">
<title>Node8</title>
<g id="a_node8"><a xlink:href="classrare_1_1shared_1_1workers_1_1move_1_1_move_worker.html#a353be26086318f1f2cdedb1987790ecb" target="_top" xlink:title=" ">
<polygon fill="white" stroke="black" points="611,-67.5 611,-97.5 741,-97.5 741,-67.5 611,-67.5"/>
<text text-anchor="start" x="619" y="-85.5" font-family="Helvetica,sans-Serif" font-size="10.00">rare.shared.workers.move.</text>
<text text-anchor="middle" x="676" y="-74.5" font-family="Helvetica,sans-Serif" font-size="10.00">MoveWorker.worker_info</text>
</a>
</g>
</g>
<!-- Node1&#45;&gt;Node8 -->
<g id="edge16" class="edge">
<title>Node1&#45;&gt;Node8</title>
<path fill="none" stroke="midnightblue" d="M791.62,-136.58C768,-125.44 733.88,-109.34 709.01,-97.6"/>
<polygon fill="midnightblue" stroke="midnightblue" points="790.19,-139.78 800.73,-140.88 793.18,-133.45 790.19,-139.78"/>
</g>
<!-- Node9 -->
<g id="node9" class="node">
<title>Node9</title>
<g id="a_node9"><a xlink:href="classrare_1_1shared_1_1workers_1_1verify_1_1_verify_worker.html#a353be26086318f1f2cdedb1987790ecb" target="_top" xlink:title=" ">
<polygon fill="white" stroke="black" points="611.5,-0.5 611.5,-30.5 740.5,-30.5 740.5,-0.5 611.5,-0.5"/>
<text text-anchor="start" x="619.5" y="-18.5" font-family="Helvetica,sans-Serif" font-size="10.00">rare.shared.workers.verify.</text>
<text text-anchor="middle" x="676" y="-7.5" font-family="Helvetica,sans-Serif" font-size="10.00">VerifyWorker.worker_info</text>
</a>
</g>
</g>
<!-- Node1&#45;&gt;Node9 -->
<g id="edge18" class="edge">
<title>Node1&#45;&gt;Node9</title>
<path fill="none" stroke="midnightblue" d="M811.81,-130.48C803.31,-110.16 787.42,-78.08 765,-57.5 752.53,-46.05 736.37,-37.14 721.31,-30.53"/>
<polygon fill="midnightblue" stroke="midnightblue" points="808.62,-131.93 815.58,-139.92 815.12,-129.33 808.62,-131.93"/>
</g>
<!-- Node2&#45;&gt;Node2 -->
<g id="edge4" class="edge">
<title>Node2&#45;&gt;Node2</title>
<path fill="none" stroke="midnightblue" d="M702.88,-277.15C701.76,-282.44 692.8,-286.5 676,-286.5 650.41,-286.5 643.01,-277.07 653.81,-268.26"/>
<polygon fill="midnightblue" stroke="midnightblue" points="705.95,-275.47 698.19,-268.26 699.76,-278.74 705.95,-275.47"/>
</g>
<!-- Node3 -->
<g id="node3" class="node">
<title>Node3</title>
<g id="a_node3"><a xlink:href="classrare_1_1utils_1_1rpc_1_1_discord_r_p_c.html#a9e68e31374b90c3431e385aebb60e4c1" target="_top" xlink:title=" ">
<polygon fill="white" stroke="black" points="0,-285.5 0,-315.5 164,-315.5 164,-285.5 0,-285.5"/>
<text text-anchor="start" x="8" y="-303.5" font-family="Helvetica,sans-Serif" font-size="10.00">rare.utils.rpc.DiscordRPC.changed</text>
<text text-anchor="middle" x="82" y="-292.5" font-family="Helvetica,sans-Serif" font-size="10.00">_settings</text>
</a>
</g>
</g>
<!-- Node2&#45;&gt;Node3 -->
<g id="edge2" class="edge">
<title>Node2&#45;&gt;Node3</title>
<path fill="none" stroke="midnightblue" d="M576.44,-265.49C460.93,-273.69 271.68,-287.11 164.23,-294.74"/>
<polygon fill="midnightblue" stroke="midnightblue" points="576.96,-268.96 586.69,-264.77 576.47,-261.98 576.96,-268.96"/>
</g>
<!-- Node2&#45;&gt;Node4 -->
<g id="edge5" class="edge">
<title>Node2&#45;&gt;Node4</title>
<path fill="none" stroke="midnightblue" d="M626.22,-246.45C588.81,-237.21 537.86,-224.62 503.22,-216.07"/>
<polygon fill="midnightblue" stroke="midnightblue" points="625.84,-249.96 636.39,-248.96 627.52,-243.17 625.84,-249.96"/>
</g>
<!-- Node3&#45;&gt;Node3 -->
<g id="edge3" class="edge">
<title>Node3&#45;&gt;Node3</title>
<path fill="none" stroke="midnightblue" d="M115.41,-325.96C111.26,-330.68 100.12,-334 82,-334 52.26,-334 41.34,-325.06 49.24,-315.66"/>
<polygon fill="midnightblue" stroke="midnightblue" points="118.88,-325.42 114.76,-315.66 111.89,-325.86 118.88,-325.42"/>
</g>
<!-- Node4&#45;&gt;Node4 -->
<g id="edge12" class="edge">
<title>Node4&#45;&gt;Node4</title>
<path fill="none" stroke="midnightblue" d="M499.5,-224C499.49,-229.84 487.49,-234.5 463.5,-234.5 429.38,-234.5 419.51,-225.07 433.91,-216.26"/>
<polygon fill="midnightblue" stroke="midnightblue" points="502.16,-221.73 493.09,-216.26 496.77,-226.19 502.16,-221.73"/>
</g>
<!-- Node5 -->
<g id="node5" class="node">
<title>Node5</title>
<g id="a_node5"><a xlink:href="classrare_1_1utils_1_1rpc_1_1_discord_r_p_c.html#a91d8946fb4a846f63b5c18378e0c7bda" target="_top" xlink:title=" ">
<polygon fill="white" stroke="black" points="200,-220.5 200,-250.5 340,-250.5 340,-220.5 200,-220.5"/>
<text text-anchor="start" x="208" y="-238.5" font-family="Helvetica,sans-Serif" font-size="10.00">rare.utils.rpc.DiscordRPC.set</text>
<text text-anchor="middle" x="270" y="-227.5" font-family="Helvetica,sans-Serif" font-size="10.00">_discord_rpc</text>
</a>
</g>
</g>
<!-- Node4&#45;&gt;Node5 -->
<g id="edge6" class="edge">
<title>Node4&#45;&gt;Node5</title>
<path fill="none" stroke="midnightblue" d="M389.59,-217.54C373.42,-219.99 356.32,-222.58 340.29,-225.01"/>
<polygon fill="midnightblue" stroke="midnightblue" points="390.17,-220.99 399.53,-216.04 389.12,-214.07 390.17,-220.99"/>
</g>
<!-- Node5&#45;&gt;Node2 -->
<g id="edge8" class="edge">
<title>Node5&#45;&gt;Node2</title>
<path fill="none" stroke="midnightblue" d="M350.31,-241.76C358.98,-242.38 367.67,-242.97 376,-243.5 446.93,-247.98 527.4,-251.95 586.98,-254.68"/>
<polygon fill="midnightblue" stroke="midnightblue" points="350.4,-238.26 340.17,-241.03 349.89,-245.24 350.4,-238.26"/>
</g>
<!-- Node5&#45;&gt;Node3 -->
<g id="edge7" class="edge">
<title>Node5&#45;&gt;Node3</title>
<path fill="none" stroke="midnightblue" d="M221.64,-254.29C203.68,-261.21 182.99,-268.96 164,-275.5 154.26,-278.85 143.79,-282.24 133.72,-285.4"/>
<polygon fill="midnightblue" stroke="midnightblue" points="223.25,-257.42 231.31,-250.54 220.72,-250.89 223.25,-257.42"/>
</g>
<!-- Node5&#45;&gt;Node5 -->
<g id="edge9" class="edge">
<title>Node5&#45;&gt;Node5</title>
<path fill="none" stroke="midnightblue" d="M303.41,-260.96C299.26,-265.68 288.12,-269 270,-269 240.26,-269 229.34,-260.06 237.24,-250.66"/>
<polygon fill="midnightblue" stroke="midnightblue" points="306.88,-260.42 302.76,-250.66 299.89,-260.86 306.88,-260.42"/>
</g>
<!-- Node6 -->
<g id="node6" class="node">
<title>Node6</title>
<g id="a_node6"><a xlink:href="classrare_1_1utils_1_1rpc_1_1_discord_r_p_c.html#a3a87a240b41c5f6830d62b22d483f952" target="_top" xlink:title=" ">
<polygon fill="white" stroke="black" points="4,-218.5 4,-248.5 160,-248.5 160,-218.5 4,-218.5"/>
<text text-anchor="start" x="12" y="-236.5" font-family="Helvetica,sans-Serif" font-size="10.00">rare.utils.rpc.DiscordRPC.update</text>
<text text-anchor="middle" x="82" y="-225.5" font-family="Helvetica,sans-Serif" font-size="10.00">_presence</text>
</a>
</g>
</g>
<!-- Node5&#45;&gt;Node6 -->
<g id="edge10" class="edge">
<title>Node5&#45;&gt;Node6</title>
<path fill="none" stroke="midnightblue" d="M189.64,-234.65C179.86,-234.54 169.88,-234.43 160.13,-234.33"/>
<polygon fill="midnightblue" stroke="midnightblue" points="189.7,-238.15 199.74,-234.76 189.78,-231.15 189.7,-238.15"/>
</g>
<!-- Node6&#45;&gt;Node6 -->
<g id="edge11" class="edge">
<title>Node6&#45;&gt;Node6</title>
<path fill="none" stroke="midnightblue" d="M115.41,-258.96C111.26,-263.68 100.12,-267 82,-267 52.26,-267 41.34,-258.06 49.24,-248.66"/>
<polygon fill="midnightblue" stroke="midnightblue" points="118.88,-258.42 114.76,-248.66 111.89,-258.86 118.88,-258.42"/>
</g>
<!-- Node7&#45;&gt;Node7 -->
<g id="edge14" class="edge">
<title>Node7&#45;&gt;Node7</title>
<path fill="none" stroke="midnightblue" d="M701.59,-174.96C698.41,-179.68 689.88,-183 676,-183 653.22,-183 644.85,-174.06 650.91,-164.66"/>
<polygon fill="midnightblue" stroke="midnightblue" points="705.07,-174.48 701.09,-164.66 698.08,-174.81 705.07,-174.48"/>
</g>
<!-- Node8&#45;&gt;Node8 -->
<g id="edge17" class="edge">
<title>Node8&#45;&gt;Node8</title>
<path fill="none" stroke="midnightblue" d="M701.59,-107.96C698.41,-112.68 689.88,-116 676,-116 653.22,-116 644.85,-107.06 650.91,-97.66"/>
<polygon fill="midnightblue" stroke="midnightblue" points="705.07,-107.48 701.09,-97.66 698.08,-107.81 705.07,-107.48"/>
</g>
<!-- Node9&#45;&gt;Node9 -->
<g id="edge19" class="edge">
<title>Node9&#45;&gt;Node9</title>
<path fill="none" stroke="midnightblue" d="M701.59,-40.96C698.41,-45.68 689.88,-49 676,-49 653.22,-49 644.85,-40.06 650.91,-30.66"/>
<polygon fill="midnightblue" stroke="midnightblue" points="705.07,-40.48 701.09,-30.66 698.08,-40.81 705.07,-40.48"/>
</g>
</g>
</svg>
        <g id="navigator" transform="translate(0 0)" fill="#404254">
                <rect fill="#f2f5e9" fill-opacity="0.5" stroke="#606060" stroke-width=".5" x="0" y="0" width="60" height="60"/>
                <use id="zoomplus" xlink:href="#zoomPlus" x="17" y="9" onmousedown="handleZoom(evt,'in')"/>
                <use id="zoomminus" xlink:href="#zoomMin" x="42" y="9" onmousedown="handleZoom(evt,'out')"/>
                <use id="reset" xlink:href="#resetDef" x="30" y="36" onmousedown="handleReset()"/>
                <g id="arrowUp" xlink:href="#dirArrow" transform="translate(30 24)" onmousedown="handlePan(0,-1)">
                  <use xlink:href="#rim" fill="#404040">
                        <set attributeName="fill" to="#808080" begin="arrowUp.mouseover" end="arrowUp.mouseout"/>
                  </use>
                  <path fill="none" stroke="white" stroke-width="1.5" d="M0,-3.0v7 M-2.5,-0.5L0,-3.0L2.5,-0.5"/>
                </g>
                <g id="arrowRight" xlink:href="#dirArrow" transform="rotate(90) translate(36 -43)" onmousedown="handlePan(1,0)">
                  <use xlink:href="#rim" fill="#404040">
                        <set attributeName="fill" to="#808080" begin="arrowRight.mouseover" end="arrowRight.mouseout"/>
                  </use>
                  <path fill="none" stroke="white" stroke-width="1.5" d="M0,-3.0v7 M-2.5,-0.5L0,-3.0L2.5,-0.5"/>
                </g>
                <g id="arrowDown" xlink:href="#dirArrow" transform="rotate(180) translate(-30 -48)" onmousedown="handlePan(0,1)">
                  <use xlink:href="#rim" fill="#404040">
                        <set attributeName="fill" to="#808080" begin="arrowDown.mouseover" end="arrowDown.mouseout"/>
                  </use>
                  <path fill="none" stroke="white" stroke-width="1.5" d="M0,-3.0v7 M-2.5,-0.5L0,-3.0L2.5,-0.5"/>
                </g>
                <g id="arrowLeft" xlink:href="#dirArrow" transform="rotate(270) translate(-36 17)" onmousedown="handlePan(-1,0)">
                  <use xlink:href="#rim" fill="#404040">
                        <set attributeName="fill" to="#808080" begin="arrowLeft.mouseover" end="arrowLeft.mouseout"/>
                  </use>
                  <path fill="none" stroke="white" stroke-width="1.5" d="M0,-3.0v7 M-2.5,-0.5L0,-3.0L2.5,-0.5"/>
                </g>
        </g>
        <svg viewBox="0 0 15 15" width="100%" height="30px" preserveAspectRatio="xMaxYMin meet">
         <g id="arrow_out" transform="scale(0.3 0.3)">
          <a xlink:href="classrare_1_1models_1_1game_1_1_rare_game_base_a6e0a6ad2fe4af57f9f196320953d9bdc_icgraph_org.svg" target="_base">
           <rect id="button" ry="5" rx="5" y="6" x="6" height="38" width="38"
                fill="#f2f5e9" fill-opacity="0.5" stroke="#606060" stroke-width="1.0"/>
           <path id="arrow"
             d="M 11.500037,31.436501 C 11.940474,20.09759 22.043105,11.32322 32.158766,21.979434 L 37.068811,17.246167 C 37.068811,17.246167 37.088388,32 37.088388,32 L 22.160133,31.978069 C 22.160133,31.978069 26.997745,27.140456 26.997745,27.140456 C 18.528582,18.264221 13.291696,25.230495 11.500037,31.436501 z"
             style="fill:#404040;"/>
          </a>
         </g>
        </svg>
</svg>
