<?xml version="1.0" encoding="UTF-8" standalone="no"?>
<!DOCTYPE svg PUBLIC "-//W3C//DTD SVG 1.1//EN"
 "http://www.w3.org/Graphics/SVG/1.1/DTD/svg11.dtd">
<!-- Generated by graphviz version 2.49.3 (20211027.1534)
 -->
<!-- Title: ButtonDialog Pages: 1 -->
<svg width="346pt" height="970pt"
 viewBox="0.00 0.00 346.00 970.00" xmlns="http://www.w3.org/2000/svg" xmlns:xlink="http://www.w3.org/1999/xlink">
<g id="graph0" class="graph" transform="scale(1 1) rotate(0) translate(4 966)">
<title>ButtonDialog</title>
<polygon fill="white" stroke="transparent" points="-4,4 -4,-966 342,-966 342,4 -4,4"/>
<!-- Node1 -->
<g id="node1" class="node">
<title>Node1</title>
<g id="a_node1"><a xlink:title=" ">
<polygon fill="#bfbfbf" stroke="black" points="114.5,-507.5 114.5,-718.5 219.5,-718.5 219.5,-507.5 114.5,-507.5"/>
<text text-anchor="middle" x="167" y="-706.5" font-family="Helvetica,sans-Serif" font-size="10.00">ButtonDialog</text>
<polyline fill="none" stroke="black" points="114.5,-699.5 219.5,-699.5 "/>
<text text-anchor="start" x="122.5" y="-687.5" font-family="Helvetica,sans-Serif" font-size="10.00">+ reject_button</text>
<text text-anchor="start" x="122.5" y="-676.5" font-family="Helvetica,sans-Serif" font-size="10.00">+ accept_button</text>
<text text-anchor="start" x="122.5" y="-665.5" font-family="Helvetica,sans-Serif" font-size="10.00">+ button_layout</text>
<text text-anchor="start" x="122.5" y="-654.5" font-family="Helvetica,sans-Serif" font-size="10.00">+ main_layout</text>
<polyline fill="none" stroke="black" points="114.5,-647.5 219.5,-647.5 "/>
<text text-anchor="start" x="122.5" y="-635.5" font-family="Helvetica,sans-Serif" font-size="10.00">+ __init__()</text>
<text text-anchor="start" x="122.5" y="-624.5" font-family="Helvetica,sans-Serif" font-size="10.00">+ close()</text>
<text text-anchor="start" x="122.5" y="-613.5" font-family="Helvetica,sans-Serif" font-size="10.00">+ setCentralWidget()</text>
<text text-anchor="start" x="122.5" y="-602.5" font-family="Helvetica,sans-Serif" font-size="10.00">+ setCentralLayout()</text>
<text text-anchor="start" x="122.5" y="-591.5" font-family="Helvetica,sans-Serif" font-size="10.00">+ accept_handler()</text>
<text text-anchor="start" x="122.5" y="-580.5" font-family="Helvetica,sans-Serif" font-size="10.00">+ reject_handler()</text>
<text text-anchor="start" x="122.5" y="-569.5" font-family="Helvetica,sans-Serif" font-size="10.00">+ done_handler()</text>
<text text-anchor="start" x="122.5" y="-558.5" font-family="Helvetica,sans-Serif" font-size="10.00">+ accept()</text>
<text text-anchor="start" x="122.5" y="-547.5" font-family="Helvetica,sans-Serif" font-size="10.00">+ reject()</text>
<text text-anchor="start" x="122.5" y="-536.5" font-family="Helvetica,sans-Serif" font-size="10.00">+ done()</text>
<text text-anchor="start" x="122.5" y="-525.5" font-family="Helvetica,sans-Serif" font-size="10.00">+ keyPressEvent()</text>
<text text-anchor="start" x="122.5" y="-514.5" font-family="Helvetica,sans-Serif" font-size="10.00">+ closeEvent()</text>
</a>
</g>
</g>
<!-- Node4 -->
<g id="node4" class="node">
<title>Node4</title>
<g id="a_node4"><a xlink:href="classrare_1_1components_1_1dialogs_1_1selective__dialog_1_1_selective_dialog.html" target="_top" xlink:title=" ">
<polygon fill="white" stroke="black" points="0,-325.5 0,-470.5 100,-470.5 100,-325.5 0,-325.5"/>
<text text-anchor="middle" x="50" y="-458.5" font-family="Helvetica,sans-Serif" font-size="10.00">SelectiveDialog</text>
<polyline fill="none" stroke="black" points="0,-451.5 100,-451.5 "/>
<text text-anchor="start" x="8" y="-439.5" font-family="Helvetica,sans-Serif" font-size="10.00">+ core</text>
<text text-anchor="start" x="8" y="-428.5" font-family="Helvetica,sans-Serif" font-size="10.00">+ rgame</text>
<text text-anchor="start" x="8" y="-417.5" font-family="Helvetica,sans-Serif" font-size="10.00">+ selectable_layout</text>
<text text-anchor="start" x="8" y="-406.5" font-family="Helvetica,sans-Serif" font-size="10.00">+ config_tags</text>
<text text-anchor="start" x="8" y="-395.5" font-family="Helvetica,sans-Serif" font-size="10.00">+ result_ready</text>
<polyline fill="none" stroke="black" points="0,-388.5 100,-388.5 "/>
<text text-anchor="start" x="8" y="-376.5" font-family="Helvetica,sans-Serif" font-size="10.00">+ __init__()</text>
<text text-anchor="start" x="8" y="-365.5" font-family="Helvetica,sans-Serif" font-size="10.00">+ create_sdl_list()</text>
<text text-anchor="start" x="8" y="-354.5" font-family="Helvetica,sans-Serif" font-size="10.00">+ done_handler()</text>
<text text-anchor="start" x="8" y="-343.5" font-family="Helvetica,sans-Serif" font-size="10.00">+ accept_handler()</text>
<text text-anchor="start" x="8" y="-332.5" font-family="Helvetica,sans-Serif" font-size="10.00">+ reject_handler()</text>
</a>
</g>
</g>
<!-- Node1&#45;&gt;Node4 -->
<g id="edge3" class="edge">
<title>Node1&#45;&gt;Node4</title>
<path fill="none" stroke="midnightblue" d="M109.53,-507.37C102.7,-494.94 95.86,-482.48 89.37,-470.67"/>
<polygon fill="none" stroke="midnightblue" points="106.61,-509.32 114.49,-516.4 112.74,-505.95 106.61,-509.32"/>
</g>
<!-- Node5 -->
<g id="node5" class="node">
<title>Node5</title>
<g id="a_node5"><a xlink:href="classrare_1_1launcher_1_1cloud__sync__dialog_1_1_cloud_sync_dialog.html" target="_top" xlink:title=" ">
<polygon fill="white" stroke="black" points="118.5,-342 118.5,-454 215.5,-454 215.5,-342 118.5,-342"/>
<text text-anchor="middle" x="167" y="-442" font-family="Helvetica,sans-Serif" font-size="10.00">CloudSyncDialog</text>
<polyline fill="none" stroke="black" points="118.5,-435 215.5,-435 "/>
<text text-anchor="start" x="126.5" y="-423" font-family="Helvetica,sans-Serif" font-size="10.00">+ sync_ui</text>
<text text-anchor="start" x="126.5" y="-412" font-family="Helvetica,sans-Serif" font-size="10.00">+ status</text>
<text text-anchor="start" x="126.5" y="-401" font-family="Helvetica,sans-Serif" font-size="10.00">+ pyqtSignal</text>
<polyline fill="none" stroke="black" points="118.5,-394 215.5,-394 "/>
<text text-anchor="start" x="126.5" y="-382" font-family="Helvetica,sans-Serif" font-size="10.00">+ __init__()</text>
<text text-anchor="start" x="126.5" y="-371" font-family="Helvetica,sans-Serif" font-size="10.00">+ done_handler()</text>
<text text-anchor="start" x="126.5" y="-360" font-family="Helvetica,sans-Serif" font-size="10.00">+ accept_handler()</text>
<text text-anchor="start" x="126.5" y="-349" font-family="Helvetica,sans-Serif" font-size="10.00">+ reject_handler()</text>
</a>
</g>
</g>
<!-- Node1&#45;&gt;Node5 -->
<g id="edge4" class="edge">
<title>Node1&#45;&gt;Node5</title>
<path fill="none" stroke="midnightblue" d="M167,-497.02C167,-482.1 167,-467.41 167,-454.12"/>
<polygon fill="none" stroke="midnightblue" points="163.5,-497.37 167,-507.37 170.5,-497.37 163.5,-497.37"/>
</g>
<!-- Node6 -->
<g id="node6" class="node">
<title>Node6</title>
<g id="a_node6"><a xlink:href="classrare_1_1widgets_1_1dialogs_1_1_action_dialog.html" target="_top" xlink:title=" ">
<polygon fill="white" stroke="black" points="234,-336.5 234,-459.5 330,-459.5 330,-336.5 234,-336.5"/>
<text text-anchor="middle" x="282" y="-447.5" font-family="Helvetica,sans-Serif" font-size="10.00">ActionDialog</text>
<polyline fill="none" stroke="black" points="234,-440.5 330,-440.5 "/>
<text text-anchor="start" x="242" y="-428.5" font-family="Helvetica,sans-Serif" font-size="10.00">+ action_button</text>
<polyline fill="none" stroke="black" points="234,-421.5 330,-421.5 "/>
<text text-anchor="start" x="242" y="-409.5" font-family="Helvetica,sans-Serif" font-size="10.00">+ __init__()</text>
<text text-anchor="start" x="242" y="-398.5" font-family="Helvetica,sans-Serif" font-size="10.00">+ active()</text>
<text text-anchor="start" x="242" y="-387.5" font-family="Helvetica,sans-Serif" font-size="10.00">+ setActive()</text>
<text text-anchor="start" x="242" y="-376.5" font-family="Helvetica,sans-Serif" font-size="10.00">+ action_handler()</text>
<text text-anchor="start" x="242" y="-365.5" font-family="Helvetica,sans-Serif" font-size="10.00">+ action()</text>
<text text-anchor="start" x="242" y="-354.5" font-family="Helvetica,sans-Serif" font-size="10.00">+ keyPressEvent()</text>
<text text-anchor="start" x="242" y="-343.5" font-family="Helvetica,sans-Serif" font-size="10.00">+ closeEvent()</text>
</a>
</g>
</g>
<!-- Node1&#45;&gt;Node6 -->
<g id="edge5" class="edge">
<title>Node1&#45;&gt;Node6</title>
<path fill="none" stroke="midnightblue" d="M224.61,-505.3C233.09,-489.59 241.57,-473.89 249.3,-459.56"/>
<polygon fill="none" stroke="midnightblue" points="221.29,-504.08 219.62,-514.54 227.45,-507.4 221.29,-504.08"/>
</g>
<!-- Node2 -->
<g id="node2" class="node">
<title>Node2</title>
<g id="a_node2"><a xlink:href="classrare_1_1widgets_1_1dialogs_1_1_base_dialog.html" target="_top" xlink:title=" ">
<polygon fill="white" stroke="black" points="118,-755.5 118,-867.5 216,-867.5 216,-755.5 118,-755.5"/>
<text text-anchor="middle" x="167" y="-855.5" font-family="Helvetica,sans-Serif" font-size="10.00">BaseDialog</text>
<polyline fill="none" stroke="black" points="118,-848.5 216,-848.5 "/>
<text text-anchor="middle" x="167" y="-836.5" font-family="Helvetica,sans-Serif" font-size="10.00"> </text>
<polyline fill="none" stroke="black" points="118,-829.5 216,-829.5 "/>
<text text-anchor="start" x="126" y="-817.5" font-family="Helvetica,sans-Serif" font-size="10.00">+ __init__()</text>
<text text-anchor="start" x="126" y="-806.5" font-family="Helvetica,sans-Serif" font-size="10.00">+ setWindowTitle()</text>
<text text-anchor="start" x="126" y="-795.5" font-family="Helvetica,sans-Serif" font-size="10.00">+ exec()</text>
<text text-anchor="start" x="126" y="-784.5" font-family="Helvetica,sans-Serif" font-size="10.00">+ exec_()</text>
<text text-anchor="start" x="126" y="-773.5" font-family="Helvetica,sans-Serif" font-size="10.00">+ keyPressEvent()</text>
<text text-anchor="start" x="126" y="-762.5" font-family="Helvetica,sans-Serif" font-size="10.00">+ closeEvent()</text>
</a>
</g>
</g>
<!-- Node2&#45;&gt;Node1 -->
<g id="edge1" class="edge">
<title>Node2&#45;&gt;Node1</title>
<path fill="none" stroke="midnightblue" d="M167,-745.07C167,-736.57 167,-727.7 167,-718.76"/>
<polygon fill="none" stroke="midnightblue" points="163.5,-745.24 167,-755.24 170.5,-745.24 163.5,-745.24"/>
</g>
<!-- Node3 -->
<g id="node3" class="node">
<title>Node3</title>
<g id="a_node3"><a xlink:title=" ">
<polygon fill="white" stroke="#bfbfbf" points="141.5,-904.5 141.5,-961.5 192.5,-961.5 192.5,-904.5 141.5,-904.5"/>
<text text-anchor="middle" x="167" y="-949.5" font-family="Helvetica,sans-Serif" font-size="10.00">QDialog</text>
<polyline fill="none" stroke="#bfbfbf" points="141.5,-942.5 192.5,-942.5 "/>
<text text-anchor="middle" x="167" y="-930.5" font-family="Helvetica,sans-Serif" font-size="10.00"> </text>
<polyline fill="none" stroke="#bfbfbf" points="141.5,-923.5 192.5,-923.5 "/>
<text text-anchor="middle" x="167" y="-911.5" font-family="Helvetica,sans-Serif" font-size="10.00"> </text>
</a>
</g>
</g>
<!-- Node3&#45;&gt;Node2 -->
<g id="edge2" class="edge">
<title>Node3&#45;&gt;Node2</title>
<path fill="none" stroke="midnightblue" d="M167,-894.11C167,-885.75 167,-876.73 167,-867.83"/>
<polygon fill="none" stroke="midnightblue" points="163.5,-894.28 167,-904.28 170.5,-894.28 163.5,-894.28"/>
</g>
<!-- Node7 -->
<g id="node7" class="node">
<title>Node7</title>
<g id="a_node7"><a xlink:href="classrare_1_1components_1_1dialogs_1_1install__dialog_1_1_install_dialog.html" target="_top" xlink:title=" ">
<polygon fill="white" stroke="black" points="226,-0.5 226,-288.5 338,-288.5 338,-0.5 226,-0.5"/>
<text text-anchor="middle" x="282" y="-276.5" font-family="Helvetica,sans-Serif" font-size="10.00">InstallDialog</text>
<polyline fill="none" stroke="black" points="226,-269.5 338,-269.5 "/>
<text text-anchor="start" x="234" y="-257.5" font-family="Helvetica,sans-Serif" font-size="10.00">+ ui</text>
<text text-anchor="start" x="234" y="-246.5" font-family="Helvetica,sans-Serif" font-size="10.00">+ core</text>
<text text-anchor="start" x="234" y="-235.5" font-family="Helvetica,sans-Serif" font-size="10.00">+ rgame</text>
<text text-anchor="start" x="234" y="-224.5" font-family="Helvetica,sans-Serif" font-size="10.00">+ advanced</text>
<text text-anchor="start" x="234" y="-213.5" font-family="Helvetica,sans-Serif" font-size="10.00">+ selectable</text>
<text text-anchor="start" x="234" y="-202.5" font-family="Helvetica,sans-Serif" font-size="10.00">+ options_changed</text>
<text text-anchor="start" x="234" y="-191.5" font-family="Helvetica,sans-Serif" font-size="10.00">+ threadpool</text>
<text text-anchor="start" x="234" y="-180.5" font-family="Helvetica,sans-Serif" font-size="10.00">+ install_dir_edit</text>
<text text-anchor="start" x="234" y="-169.5" font-family="Helvetica,sans-Serif" font-size="10.00">+ config_tags</text>
<text text-anchor="start" x="234" y="-158.5" font-family="Helvetica,sans-Serif" font-size="10.00">+ result_ready</text>
<polyline fill="none" stroke="black" points="226,-151.5 338,-151.5 "/>
<text text-anchor="start" x="234" y="-139.5" font-family="Helvetica,sans-Serif" font-size="10.00">+ __init__()</text>
<text text-anchor="start" x="234" y="-128.5" font-family="Helvetica,sans-Serif" font-size="10.00">+ showEvent()</text>
<text text-anchor="start" x="234" y="-117.5" font-family="Helvetica,sans-Serif" font-size="10.00">+ execute()</text>
<text text-anchor="start" x="234" y="-106.5" font-family="Helvetica,sans-Serif" font-size="10.00">+ reset_install_dir()</text>
<text text-anchor="start" x="234" y="-95.5" font-family="Helvetica,sans-Serif" font-size="10.00">+ reset_sdl_list()</text>
<text text-anchor="start" x="234" y="-84.5" font-family="Helvetica,sans-Serif" font-size="10.00">+ check_incompatible</text>
<text text-anchor="start" x="234" y="-73.5" font-family="Helvetica,sans-Serif" font-size="10.00">_platform()</text>
<text text-anchor="start" x="234" y="-62.5" font-family="Helvetica,sans-Serif" font-size="10.00">+ get_options()</text>
<text text-anchor="start" x="234" y="-51.5" font-family="Helvetica,sans-Serif" font-size="10.00">+ get_download_info()</text>
<text text-anchor="start" x="234" y="-40.5" font-family="Helvetica,sans-Serif" font-size="10.00">+ action_handler()</text>
<text text-anchor="start" x="234" y="-29.5" font-family="Helvetica,sans-Serif" font-size="10.00">+ option_changed()</text>
<text text-anchor="start" x="234" y="-18.5" font-family="Helvetica,sans-Serif" font-size="10.00">and 8 more...</text>
<text text-anchor="start" x="234" y="-7.5" font-family="Helvetica,sans-Serif" font-size="10.00">+ same_platform()</text>
</a>
</g>
</g>
<!-- Node6&#45;&gt;Node7 -->
<g id="edge6" class="edge">
<title>Node6&#45;&gt;Node7</title>
<path fill="none" stroke="midnightblue" d="M282,-326.22C282,-314.34 282,-301.65 282,-288.7"/>
<polygon fill="none" stroke="midnightblue" points="278.5,-326.44 282,-336.44 285.5,-326.44 278.5,-326.44"/>
</g>
</g>
</svg>
