<?xml version="1.0" encoding="UTF-8" standalone="no"?>
<!DOCTYPE svg PUBLIC "-//W3C//DTD SVG 1.1//EN"
 "http://www.w3.org/Graphics/SVG/1.1/DTD/svg11.dtd">
<!-- Generated by graphviz version 2.49.3 (20211027.1534)
 -->
<!-- Title: start Pages: 1 -->
<!--zoomable 304 -->
<svg id="main" version="1.1" xmlns="http://www.w3.org/2000/svg" xmlns:xlink="http://www.w3.org/1999/xlink" xml:space="preserve" onload="init(evt)">
<style type="text/css"><![CDATA[
.edge:hover path { stroke: red; }
.edge:hover polygon { stroke: red; fill: red; }
]]></style>
<script type="text/javascript"><![CDATA[
var edges = document.getElementsByTagName('g');
if (edges && edges.length) {
  for (var i=0;i<edges.length;i++) {
    if (edges[i].id.substr(0,4)=='edge') {
      edges[i].setAttribute('class','edge');
    }
  }
}
]]></script>
        <defs>
                <circle id="rim" cx="0" cy="0" r="7"/>
                <circle id="rim2" cx="0" cy="0" r="3.5"/>
                <g id="zoomPlus">
                        <use xlink:href="#rim" fill="#404040">
                                <set attributeName="fill" to="#808080" begin="zoomplus.mouseover" end="zoomplus.mouseout"/>
                        </use>
                        <path d="M-4,0h8M0,-4v8" fill="none" stroke="white" stroke-width="1.5" pointer-events="none"/>
                </g>
                <g id="zoomMin">
                        <use xlink:href="#rim" fill="#404040">
                                <set attributeName="fill" to="#808080" begin="zoomminus.mouseover" end="zoomminus.mouseout"/>
                        </use>
                        <path d="M-4,0h8" fill="none" stroke="white" stroke-width="1.5" pointer-events="none"/>
                </g>
                <g id="dirArrow">
                        <path fill="none" stroke="white" stroke-width="1.5" d="M0,-3.0v7 M-2.5,-0.5L0,-3.0L2.5,-0.5"/>
                </g>
               <g id="resetDef">
                       <use xlink:href="#rim2" fill="#404040">
                               <set attributeName="fill" to="#808080" begin="reset.mouseover" end="reset.mouseout"/>
                       </use>
               </g>
        </defs>

<script type="text/javascript">
var viewWidth = 544;
var viewHeight = 304;
var sectionId = 'dynsection-18';
</script>
<script xlink:href="svgpan.js"/>
<svg id="graph" class="graph">
<g id="viewport">
<title>start</title>
<polygon fill="white" stroke="transparent" points="-4,4 -4,-300 540,-300 540,4 -4,4"/>
<!-- Node1 -->
<g id="node1" class="node">
<title>Node1</title>
<g id="a_node1"><a xlink:title=" ">
<polygon fill="#bfbfbf" stroke="black" points="0,-135 0,-154 36,-154 36,-135 0,-135"/>
<text text-anchor="middle" x="18" y="-142" font-family="Helvetica,sans-Serif" font-size="10.00">start</text>
</a>
</g>
</g>
<!-- Node1&#45;&gt;Node1 -->
<g id="edge12" class="edge">
<title>Node1&#45;&gt;Node1</title>
<path fill="none" stroke="midnightblue" d="M4.74,-154.26C-1.7,-163.07 2.71,-172.5 18,-172.5 27.55,-172.5 32.86,-168.81 33.93,-163.9"/>
<polygon fill="midnightblue" stroke="midnightblue" points="37.3,-162.96 31.26,-154.26 30.55,-164.83 37.3,-162.96"/>
</g>
<!-- Node2 -->
<g id="node2" class="node">
<title>Node2</title>
<g id="a_node2"><a xlink:href="classrare_1_1shared_1_1rare__core_1_1_rare_core.html#a405e1a4f20f16120f872ccd2654a1d56" target="_top" xlink:title=" ">
<polygon fill="white" stroke="black" points="402,-247.5 402,-277.5 532,-277.5 532,-247.5 402,-247.5"/>
<text text-anchor="start" x="410" y="-265.5" font-family="Helvetica,sans-Serif" font-size="10.00">rare.shared.rare_core.Rare</text>
<text text-anchor="middle" x="467" y="-254.5" font-family="Helvetica,sans-Serif" font-size="10.00">Core.core</text>
</a>
</g>
</g>
<!-- Node1&#45;&gt;Node2 -->
<g id="edge1" class="edge">
<title>Node1&#45;&gt;Node2</title>
<path fill="none" stroke="midnightblue" d="M22.06,-154.15C28.26,-171.95 44.15,-209.65 72,-226.5 170.12,-285.86 307.85,-283.1 391.78,-274.01"/>
<polygon fill="midnightblue" stroke="midnightblue" points="392.2,-277.48 401.74,-272.87 391.41,-270.53 392.2,-277.48"/>
</g>
<!-- Node3 -->
<g id="node3" class="node">
<title>Node3</title>
<g id="a_node3"><a xlink:href="classrare_1_1launcher_1_1_rare_launcher.html#ac2d7fc08d8189d84d207151df722ee19" target="_top" xlink:title=" ">
<polygon fill="white" stroke="black" points="283,-141 283,-160 362,-160 362,-141 283,-141"/>
<text text-anchor="middle" x="322.5" y="-148" font-family="Helvetica,sans-Serif" font-size="10.00">error_occurred</text>
</a>
</g>
</g>
<!-- Node1&#45;&gt;Node3 -->
<g id="edge3" class="edge">
<title>Node1&#45;&gt;Node3</title>
<path fill="none" stroke="midnightblue" d="M23.9,-154.19C31.78,-168.55 48.77,-194.91 72,-205.5 149.81,-240.97 251.92,-191.83 297.61,-165.39"/>
<polygon fill="midnightblue" stroke="midnightblue" points="299.66,-168.25 306.47,-160.14 296.08,-162.23 299.66,-168.25"/>
</g>
<!-- Node7 -->
<g id="node7" class="node">
<title>Node7</title>
<g id="a_node7"><a xlink:href="classrare_1_1launcher_1_1_rare_launcher.html#ac8b8dc7f48f8405350185a34a814e908" target="_top" xlink:title=" ">
<polygon fill="white" stroke="black" points="173,-112 173,-131 247,-131 247,-112 173,-112"/>
<text text-anchor="middle" x="210" y="-119" font-family="Helvetica,sans-Serif" font-size="10.00">start_prepare</text>
</a>
</g>
</g>
<!-- Node1&#45;&gt;Node7 -->
<g id="edge13" class="edge">
<title>Node1&#45;&gt;Node7</title>
<path fill="none" stroke="midnightblue" d="M36.2,-138.34C64.49,-132.12 121.8,-124.58 162.66,-121.22"/>
<polygon fill="midnightblue" stroke="midnightblue" points="162.96,-124.71 172.66,-120.46 162.42,-117.73 162.96,-124.71"/>
</g>
<!-- Node10 -->
<g id="node10" class="node">
<title>Node10</title>
<g id="a_node10"><a xlink:href="classrare_1_1launcher_1_1_rare_launcher.html#abc80b9c0d00c9ee171bcdd5b318f9329" target="_top" xlink:title=" ">
<polygon fill="white" stroke="black" points="72,-159 72,-178 137,-178 137,-159 72,-159"/>
<text text-anchor="middle" x="104.5" y="-166" font-family="Helvetica,sans-Serif" font-size="10.00">sync_ready</text>
</a>
</g>
</g>
<!-- Node1&#45;&gt;Node10 -->
<g id="edge27" class="edge">
<title>Node1&#45;&gt;Node10</title>
<path fill="none" stroke="midnightblue" d="M36.1,-149.36C43.61,-151.49 52.78,-154.09 61.91,-156.69"/>
<polygon fill="midnightblue" stroke="midnightblue" points="61.15,-160.11 71.73,-159.48 63.06,-153.38 61.15,-160.11"/>
</g>
<!-- Node2&#45;&gt;Node2 -->
<g id="edge2" class="edge">
<title>Node2&#45;&gt;Node2</title>
<path fill="none" stroke="midnightblue" d="M441.91,-277.66C435.85,-287.06 444.22,-296 467,-296 480.88,-296 489.41,-292.68 492.59,-287.96"/>
<polygon fill="midnightblue" stroke="midnightblue" points="496.07,-287.48 492.09,-277.66 489.08,-287.81 496.07,-287.48"/>
</g>
<!-- Node3&#45;&gt;Node2 -->
<g id="edge4" class="edge">
<title>Node3&#45;&gt;Node2</title>
<path fill="none" stroke="midnightblue" d="M331.2,-160.03C348.55,-181.42 389.8,-231.8 398,-237.5 400.74,-239.4 403.64,-241.18 406.63,-242.84"/>
<polygon fill="midnightblue" stroke="midnightblue" points="405.35,-246.11 415.86,-247.45 408.48,-239.85 405.35,-246.11"/>
</g>
<!-- Node3&#45;&gt;Node3 -->
<g id="edge5" class="edge">
<title>Node3&#45;&gt;Node3</title>
<path fill="none" stroke="midnightblue" d="M305.24,-160.26C296.84,-169.07 302.59,-178.5 322.5,-178.5 334.94,-178.5 341.85,-174.81 343.24,-169.9"/>
<polygon fill="midnightblue" stroke="midnightblue" points="346.45,-168.48 339.76,-160.26 339.86,-170.85 346.45,-168.48"/>
</g>
<!-- Node4 -->
<g id="node4" class="node">
<title>Node4</title>
<g id="a_node4"><a xlink:href="classrare_1_1launcher_1_1_rare_launcher.html#a1ad309148fd22e4786258dc4a79ec7af" target="_top" xlink:title=" ">
<polygon fill="white" stroke="black" points="425.5,-191 425.5,-210 508.5,-210 508.5,-191 425.5,-191"/>
<text text-anchor="middle" x="467" y="-198" font-family="Helvetica,sans-Serif" font-size="10.00">send_message</text>
</a>
</g>
</g>
<!-- Node3&#45;&gt;Node4 -->
<g id="edge6" class="edge">
<title>Node3&#45;&gt;Node4</title>
<path fill="none" stroke="midnightblue" d="M344.43,-160.01C359.22,-166.54 379.6,-175.13 398,-181.5 404.61,-183.79 411.66,-186.01 418.62,-188.06"/>
<polygon fill="midnightblue" stroke="midnightblue" points="418.11,-191.56 428.69,-190.96 420.05,-184.83 418.11,-191.56"/>
</g>
<!-- Node5 -->
<g id="node5" class="node">
<title>Node5</title>
<g id="a_node5"><a xlink:href="classrare_1_1launcher_1_1_rare_launcher.html#a26ca7c1c7fcdd35378e7be97727047a6" target="_top" xlink:title=" ">
<polygon fill="white" stroke="black" points="449.5,-135 449.5,-154 484.5,-154 484.5,-135 449.5,-135"/>
<text text-anchor="middle" x="467" y="-142" font-family="Helvetica,sans-Serif" font-size="10.00">stop</text>
</a>
</g>
</g>
<!-- Node3&#45;&gt;Node5 -->
<g id="edge8" class="edge">
<title>Node3&#45;&gt;Node5</title>
<path fill="none" stroke="midnightblue" d="M362.06,-148.88C386.46,-147.85 417.39,-146.55 439.14,-145.63"/>
<polygon fill="midnightblue" stroke="midnightblue" points="439.46,-149.12 449.3,-145.2 439.16,-142.13 439.46,-149.12"/>
</g>
<!-- Node6 -->
<g id="node6" class="node">
<title>Node6</title>
<g id="a_node6"><a xlink:href="classrare_1_1widgets_1_1loading__widget_1_1_loading_widget.html#a26ca7c1c7fcdd35378e7be97727047a6" target="_top" xlink:title=" ">
<polygon fill="white" stroke="black" points="398,-67.5 398,-97.5 536,-97.5 536,-67.5 398,-67.5"/>
<text text-anchor="start" x="406" y="-85.5" font-family="Helvetica,sans-Serif" font-size="10.00">rare.widgets.loading</text>
<text text-anchor="middle" x="467" y="-74.5" font-family="Helvetica,sans-Serif" font-size="10.00">_widget.LoadingWidget.stop</text>
</a>
</g>
</g>
<!-- Node3&#45;&gt;Node6 -->
<g id="edge10" class="edge">
<title>Node3&#45;&gt;Node6</title>
<path fill="none" stroke="midnightblue" d="M343.61,-140.9C364.75,-130.81 398.58,-114.67 425.32,-101.91"/>
<polygon fill="midnightblue" stroke="midnightblue" points="426.93,-105.02 434.45,-97.56 423.92,-98.7 426.93,-105.02"/>
</g>
<!-- Node4&#45;&gt;Node4 -->
<g id="edge7" class="edge">
<title>Node4&#45;&gt;Node4</title>
<path fill="none" stroke="midnightblue" d="M444.81,-210.26C434.01,-219.07 441.41,-228.5 467,-228.5 483.8,-228.5 492.76,-224.44 493.88,-219.15"/>
<polygon fill="midnightblue" stroke="midnightblue" points="496.95,-217.47 489.19,-210.26 490.76,-220.74 496.95,-217.47"/>
</g>
<!-- Node5&#45;&gt;Node5 -->
<g id="edge9" class="edge">
<title>Node5&#45;&gt;Node5</title>
<path fill="none" stroke="midnightblue" d="M449.02,-151.39C432.6,-160.88 438.59,-172.5 467,-172.5 488.75,-172.5 497.36,-165.69 492.83,-158.24"/>
<polygon fill="midnightblue" stroke="midnightblue" points="494.81,-155.32 484.98,-151.39 490.21,-160.6 494.81,-155.32"/>
</g>
<!-- Node6&#45;&gt;Node6 -->
<g id="edge11" class="edge">
<title>Node6&#45;&gt;Node6</title>
<path fill="none" stroke="midnightblue" d="M441.91,-97.66C435.85,-107.06 444.22,-116 467,-116 480.88,-116 489.41,-112.68 492.59,-107.96"/>
<polygon fill="midnightblue" stroke="midnightblue" points="496.07,-107.48 492.09,-97.66 489.08,-107.81 496.07,-107.48"/>
</g>
<!-- Node7&#45;&gt;Node1 -->
<g id="edge25" class="edge">
<title>Node7&#45;&gt;Node1</title>
<path fill="none" stroke="midnightblue" d="M174.47,-131.03C137.64,-137.49 80.05,-144.32 46.27,-146.1"/>
<polygon fill="midnightblue" stroke="midnightblue" points="46.05,-142.61 36.2,-146.5 46.33,-149.6 46.05,-142.61"/>
</g>
<!-- Node7&#45;&gt;Node2 -->
<g id="edge16" class="edge">
<title>Node7&#45;&gt;Node2</title>
<path fill="none" stroke="midnightblue" d="M219.5,-131.1C232.21,-145 257.4,-170.87 283,-187.5 321.06,-212.22 368.61,-231.41 405.7,-244.19"/>
<polygon fill="midnightblue" stroke="midnightblue" points="404.78,-247.57 415.38,-247.46 407.02,-240.94 404.78,-247.57"/>
</g>
<!-- Node7&#45;&gt;Node3 -->
<g id="edge17" class="edge">
<title>Node7&#45;&gt;Node3</title>
<path fill="none" stroke="midnightblue" d="M247.18,-131C256.24,-133.37 266.09,-135.96 275.55,-138.44"/>
<polygon fill="midnightblue" stroke="midnightblue" points="274.68,-141.83 285.24,-140.98 276.45,-135.06 274.68,-141.83"/>
</g>
<!-- Node7&#45;&gt;Node7 -->
<g id="edge26" class="edge">
<title>Node7&#45;&gt;Node7</title>
<path fill="none" stroke="midnightblue" d="M193.97,-131.26C186.17,-140.07 191.52,-149.5 210,-149.5 221.55,-149.5 227.97,-145.81 229.26,-140.9"/>
<polygon fill="midnightblue" stroke="midnightblue" points="232.52,-139.63 226.03,-131.26 225.89,-141.85 232.52,-139.63"/>
</g>
<!-- Node8 -->
<g id="node8" class="node">
<title>Node8</title>
<g id="a_node8"><a xlink:href="classrare_1_1shared_1_1rare__core_1_1_rare_core.html#a673cb72b40e8c1b2dfab6dbc0e0e39e4" target="_top" xlink:title=" ">
<polygon fill="white" stroke="black" points="402,-0.5 402,-30.5 532,-30.5 532,-0.5 402,-0.5"/>
<text text-anchor="start" x="410" y="-18.5" font-family="Helvetica,sans-Serif" font-size="10.00">rare.shared.rare_core.Rare</text>
<text text-anchor="middle" x="467" y="-7.5" font-family="Helvetica,sans-Serif" font-size="10.00">Core.args</text>
</a>
</g>
</g>
<!-- Node7&#45;&gt;Node8 -->
<g id="edge14" class="edge">
<title>Node7&#45;&gt;Node8</title>
<path fill="none" stroke="midnightblue" d="M221.95,-111.75C235.44,-100.19 259.47,-81.05 283,-69.5 317.24,-52.7 357.69,-40.09 391.85,-31.3"/>
<polygon fill="midnightblue" stroke="midnightblue" points="392.92,-34.63 401.77,-28.8 391.22,-27.85 392.92,-34.63"/>
</g>
<!-- Node9 -->
<g id="node9" class="node">
<title>Node9</title>
<g id="a_node9"><a xlink:href="classrare_1_1launcher_1_1_rare_launcher.html#a62864ecc73de3f9e4a009737d0c01f01" target="_top" xlink:title=" ">
<polygon fill="white" stroke="black" points="285.5,-79 285.5,-98 359.5,-98 359.5,-79 285.5,-79"/>
<text text-anchor="middle" x="322.5" y="-86" font-family="Helvetica,sans-Serif" font-size="10.00">launch_game</text>
</a>
</g>
</g>
<!-- Node7&#45;&gt;Node9 -->
<g id="edge18" class="edge">
<title>Node7&#45;&gt;Node9</title>
<path fill="none" stroke="midnightblue" d="M242.96,-111.96C254.41,-108.53 267.5,-104.63 279.67,-100.99"/>
<polygon fill="midnightblue" stroke="midnightblue" points="281.03,-104.24 289.61,-98.02 279.03,-97.53 281.03,-104.24"/>
</g>
<!-- Node8&#45;&gt;Node8 -->
<g id="edge15" class="edge">
<title>Node8&#45;&gt;Node8</title>
<path fill="none" stroke="midnightblue" d="M441.91,-30.66C435.85,-40.06 444.22,-49 467,-49 480.88,-49 489.41,-45.68 492.59,-40.96"/>
<polygon fill="midnightblue" stroke="midnightblue" points="496.07,-40.48 492.09,-30.66 489.08,-40.81 496.07,-40.48"/>
</g>
<!-- Node9&#45;&gt;Node1 -->
<g id="edge22" class="edge">
<title>Node9&#45;&gt;Node1</title>
<path fill="none" stroke="midnightblue" d="M285.31,-90.5C255.13,-92.5 211.07,-96.21 173,-102.5 127.48,-110.02 116.34,-113.73 72,-126.5 63.37,-128.99 54.06,-132.02 45.69,-134.89"/>
<polygon fill="midnightblue" stroke="midnightblue" points="44.34,-131.65 36.06,-138.25 46.65,-138.26 44.34,-131.65"/>
</g>
<!-- Node9&#45;&gt;Node4 -->
<g id="edge21" class="edge">
<title>Node9&#45;&gt;Node4</title>
<path fill="none" stroke="midnightblue" d="M332.67,-98.15C340.67,-106.7 352.46,-119.63 362,-131.5 379.16,-152.84 375.55,-165.82 398,-181.5 403.28,-185.18 409.25,-188.16 415.41,-190.55"/>
<polygon fill="midnightblue" stroke="midnightblue" points="414.58,-193.97 425.17,-193.87 416.83,-187.34 414.58,-193.97"/>
</g>
<!-- Node9&#45;&gt;Node5 -->
<g id="edge23" class="edge">
<title>Node9&#45;&gt;Node5</title>
<path fill="none" stroke="midnightblue" d="M341.2,-98.07C356.07,-105.87 378.03,-116.8 398,-124.5 411.36,-129.65 426.64,-134.26 439.32,-137.74"/>
<polygon fill="midnightblue" stroke="midnightblue" points="438.69,-141.2 449.26,-140.4 440.5,-134.44 438.69,-141.2"/>
</g>
<!-- Node9&#45;&gt;Node6 -->
<g id="edge24" class="edge">
<title>Node9&#45;&gt;Node6</title>
<path fill="none" stroke="midnightblue" d="M359.83,-86.97C368.46,-86.61 377.99,-86.21 387.71,-85.8"/>
<polygon fill="midnightblue" stroke="midnightblue" points="388.02,-89.29 397.86,-85.37 387.72,-82.29 388.02,-89.29"/>
</g>
<!-- Node9&#45;&gt;Node8 -->
<g id="edge19" class="edge">
<title>Node9&#45;&gt;Node8</title>
<path fill="none" stroke="midnightblue" d="M342.13,-78.96C363.68,-67.91 399.75,-49.44 427.43,-35.26"/>
<polygon fill="midnightblue" stroke="midnightblue" points="429.15,-38.31 436.46,-30.63 425.96,-32.08 429.15,-38.31"/>
</g>
<!-- Node9&#45;&gt;Node9 -->
<g id="edge20" class="edge">
<title>Node9&#45;&gt;Node9</title>
<path fill="none" stroke="midnightblue" d="M305.24,-98.26C296.84,-107.07 302.59,-116.5 322.5,-116.5 334.94,-116.5 341.85,-112.81 343.24,-107.9"/>
<polygon fill="midnightblue" stroke="midnightblue" points="346.45,-106.48 339.76,-98.26 339.86,-108.85 346.45,-106.48"/>
</g>
<!-- Node10&#45;&gt;Node7 -->
<g id="edge28" class="edge">
<title>Node10&#45;&gt;Node7</title>
<path fill="none" stroke="midnightblue" d="M126.44,-158.99C141.36,-152.22 161.63,-143.01 178.36,-135.41"/>
<polygon fill="midnightblue" stroke="midnightblue" points="180.07,-138.48 187.73,-131.16 177.18,-132.11 180.07,-138.48"/>
</g>
<!-- Node10&#45;&gt;Node10 -->
<g id="edge29" class="edge">
<title>Node10&#45;&gt;Node10</title>
<path fill="none" stroke="midnightblue" d="M91.24,-178.26C84.8,-187.07 89.21,-196.5 104.5,-196.5 114.05,-196.5 119.36,-192.81 120.43,-187.9"/>
<polygon fill="midnightblue" stroke="midnightblue" points="123.8,-186.96 117.76,-178.26 117.05,-188.83 123.8,-186.96"/>
</g>
</g>
</svg>
        <g id="navigator" transform="translate(0 0)" fill="#404254">
                <rect fill="#f2f5e9" fill-opacity="0.5" stroke="#606060" stroke-width=".5" x="0" y="0" width="60" height="60"/>
                <use id="zoomplus" xlink:href="#zoomPlus" x="17" y="9" onmousedown="handleZoom(evt,'in')"/>
                <use id="zoomminus" xlink:href="#zoomMin" x="42" y="9" onmousedown="handleZoom(evt,'out')"/>
                <use id="reset" xlink:href="#resetDef" x="30" y="36" onmousedown="handleReset()"/>
                <g id="arrowUp" xlink:href="#dirArrow" transform="translate(30 24)" onmousedown="handlePan(0,-1)">
                  <use xlink:href="#rim" fill="#404040">
                        <set attributeName="fill" to="#808080" begin="arrowUp.mouseover" end="arrowUp.mouseout"/>
                  </use>
                  <path fill="none" stroke="white" stroke-width="1.5" d="M0,-3.0v7 M-2.5,-0.5L0,-3.0L2.5,-0.5"/>
                </g>
                <g id="arrowRight" xlink:href="#dirArrow" transform="rotate(90) translate(36 -43)" onmousedown="handlePan(1,0)">
                  <use xlink:href="#rim" fill="#404040">
                        <set attributeName="fill" to="#808080" begin="arrowRight.mouseover" end="arrowRight.mouseout"/>
                  </use>
                  <path fill="none" stroke="white" stroke-width="1.5" d="M0,-3.0v7 M-2.5,-0.5L0,-3.0L2.5,-0.5"/>
                </g>
                <g id="arrowDown" xlink:href="#dirArrow" transform="rotate(180) translate(-30 -48)" onmousedown="handlePan(0,1)">
                  <use xlink:href="#rim" fill="#404040">
                        <set attributeName="fill" to="#808080" begin="arrowDown.mouseover" end="arrowDown.mouseout"/>
                  </use>
                  <path fill="none" stroke="white" stroke-width="1.5" d="M0,-3.0v7 M-2.5,-0.5L0,-3.0L2.5,-0.5"/>
                </g>
                <g id="arrowLeft" xlink:href="#dirArrow" transform="rotate(270) translate(-36 17)" onmousedown="handlePan(-1,0)">
                  <use xlink:href="#rim" fill="#404040">
                        <set attributeName="fill" to="#808080" begin="arrowLeft.mouseover" end="arrowLeft.mouseout"/>
                  </use>
                  <path fill="none" stroke="white" stroke-width="1.5" d="M0,-3.0v7 M-2.5,-0.5L0,-3.0L2.5,-0.5"/>
                </g>
        </g>
        <svg viewBox="0 0 15 15" width="100%" height="30px" preserveAspectRatio="xMaxYMin meet">
         <g id="arrow_out" transform="scale(0.3 0.3)">
          <a xlink:href="classrare_1_1launcher_1_1_rare_launcher_a711d1d7df9874db34971779c941c4e5e_cgraph_org.svg" target="_base">
           <rect id="button" ry="5" rx="5" y="6" x="6" height="38" width="38"
                fill="#f2f5e9" fill-opacity="0.5" stroke="#606060" stroke-width="1.0"/>
           <path id="arrow"
             d="M 11.500037,31.436501 C 11.940474,20.09759 22.043105,11.32322 32.158766,21.979434 L 37.068811,17.246167 C 37.068811,17.246167 37.088388,32 37.088388,32 L 22.160133,31.978069 C 22.160133,31.978069 26.997745,27.140456 26.997745,27.140456 C 18.528582,18.264221 13.291696,25.230495 11.500037,31.436501 z"
             style="fill:#404040;"/>
          </a>
         </g>
        </svg>
</svg>
