<?xml version="1.0" encoding="UTF-8" standalone="no"?>
<!DOCTYPE svg PUBLIC "-//W3C//DTD SVG 1.1//EN"
 "http://www.w3.org/Graphics/SVG/1.1/DTD/svg11.dtd">
<!-- Generated by graphviz version 2.49.3 (20211027.1534)
 -->
<!-- Title: set_installed Pages: 1 -->
<svg width="1015pt" height="553pt"
 viewBox="0.00 0.00 1015.00 553.00" xmlns="http://www.w3.org/2000/svg" xmlns:xlink="http://www.w3.org/1999/xlink">
<g id="graph0" class="graph" transform="scale(1 1) rotate(0) translate(4 549)">
<title>set_installed</title>
<polygon fill="white" stroke="transparent" points="-4,4 -4,-549 1011,-549 1011,4 -4,4"/>
<!-- Node1 -->
<g id="node1" class="node">
<title>Node1</title>
<g id="a_node1"><a xlink:title="Sets the installation status of a game.">
<polygon fill="#bfbfbf" stroke="black" points="0,-277.5 0,-296.5 71,-296.5 71,-277.5 0,-277.5"/>
<text text-anchor="middle" x="35.5" y="-284.5" font-family="Helvetica,sans-Serif" font-size="10.00">set_installed</text>
</a>
</g>
</g>
<!-- Node1&#45;&gt;Node1 -->
<g id="edge27" class="edge">
<title>Node1&#45;&gt;Node1</title>
<path fill="none" stroke="midnightblue" d="M8.68,-296.76C-4.37,-305.57 4.57,-315 35.5,-315 56.28,-315 67.13,-310.74 68.06,-305.27"/>
<polygon fill="midnightblue" stroke="midnightblue" points="70.81,-303.09 62.32,-296.76 65.01,-307.01 70.81,-303.09"/>
</g>
<!-- Node2 -->
<g id="node2" class="node">
<title>Node2</title>
<g id="a_node2"><a xlink:href="classrare_1_1models_1_1game_1_1_rare_game.html#a6b409b51197f0d632633fa18b045aeae" target="_top" xlink:title=" ">
<polygon fill="white" stroke="black" points="163.5,-525.5 163.5,-544.5 255.5,-544.5 255.5,-525.5 163.5,-525.5"/>
<text text-anchor="middle" x="209.5" y="-532.5" font-family="Helvetica,sans-Serif" font-size="10.00">__update_pixmap</text>
</a>
</g>
</g>
<!-- Node1&#45;&gt;Node2 -->
<g id="edge1" class="edge">
<title>Node1&#45;&gt;Node2</title>
<path fill="none" stroke="midnightblue" d="M36.23,-296.65C35.79,-332.01 39.34,-455.62 107,-516 119.57,-527.22 136.6,-532.76 153.11,-535.28"/>
<polygon fill="midnightblue" stroke="midnightblue" points="152.93,-538.79 163.28,-536.49 153.76,-531.84 152.93,-538.79"/>
</g>
<!-- Node3 -->
<g id="node3" class="node">
<title>Node3</title>
<g id="a_node3"><a xlink:href="classrare_1_1components_1_1tabs_1_1library_1_1integrations_1_1egl__sync__group_1_1_e_g_l_sync_list_item.html#a9c470cc60eae203f55455d0e0d7f5712" target="_top" xlink:title=" ">
<polygon fill="white" stroke="black" points="107,-458 107,-488 312,-488 312,-458 107,-458"/>
<text text-anchor="start" x="115" y="-476" font-family="Helvetica,sans-Serif" font-size="10.00">rare.components.tabs.library.integrations.egl</text>
<text text-anchor="middle" x="209.5" y="-465" font-family="Helvetica,sans-Serif" font-size="10.00">_sync_group.EGLSyncListItem.app_name</text>
</a>
</g>
</g>
<!-- Node1&#45;&gt;Node3 -->
<g id="edge2" class="edge">
<title>Node1&#45;&gt;Node3</title>
<path fill="none" stroke="midnightblue" d="M37.72,-296.81C41.8,-325.14 57.58,-407.69 107,-449 108.38,-450.16 109.82,-451.26 111.29,-452.31"/>
<polygon fill="midnightblue" stroke="midnightblue" points="109.77,-455.49 120.12,-457.8 113.47,-449.55 109.77,-455.49"/>
</g>
<!-- Node4 -->
<g id="node4" class="node">
<title>Node4</title>
<g id="a_node4"><a xlink:href="namespacerare_1_1utils_1_1workarounds.html#a094d0c41a9fe2bb779d8f5954a355653" target="_top" xlink:title=" ">
<polygon fill="white" stroke="black" points="141.5,-391 141.5,-421 277.5,-421 277.5,-391 141.5,-391"/>
<text text-anchor="start" x="149.5" y="-409" font-family="Helvetica,sans-Serif" font-size="10.00">rare.utils.workarounds.apply</text>
<text text-anchor="middle" x="209.5" y="-398" font-family="Helvetica,sans-Serif" font-size="10.00">_workarounds</text>
</a>
</g>
</g>
<!-- Node1&#45;&gt;Node4 -->
<g id="edge4" class="edge">
<title>Node1&#45;&gt;Node4</title>
<path fill="none" stroke="midnightblue" d="M41.48,-296.65C51.41,-314.93 75.48,-354.7 107,-376 114.6,-381.14 123.1,-385.41 131.86,-388.96"/>
<polygon fill="midnightblue" stroke="midnightblue" points="130.84,-392.32 141.43,-392.54 133.29,-385.76 130.84,-392.32"/>
</g>
<!-- Node5 -->
<g id="node5" class="node">
<title>Node5</title>
<g id="a_node5"><a xlink:href="classrare_1_1shared_1_1rare__core_1_1_rare_core.html#a405e1a4f20f16120f872ccd2654a1d56" target="_top" xlink:title=" ">
<polygon fill="white" stroke="black" points="700,-395 700,-425 830,-425 830,-395 700,-395"/>
<text text-anchor="start" x="708" y="-413" font-family="Helvetica,sans-Serif" font-size="10.00">rare.shared.rare_core.Rare</text>
<text text-anchor="middle" x="765" y="-402" font-family="Helvetica,sans-Serif" font-size="10.00">Core.core</text>
</a>
</g>
</g>
<!-- Node1&#45;&gt;Node5 -->
<g id="edge6" class="edge">
<title>Node1&#45;&gt;Node5</title>
<path fill="none" stroke="midnightblue" d="M71.15,-282.47C186.88,-268.03 558.33,-227.41 658,-287 687.01,-304.35 672.36,-328.03 694,-354 704.95,-367.14 719.4,-379.33 732.33,-388.95"/>
<polygon fill="midnightblue" stroke="midnightblue" points="730.4,-391.87 740.55,-394.88 734.49,-386.19 730.4,-391.87"/>
</g>
<!-- Node7 -->
<g id="node7" class="node">
<title>Node7</title>
<g id="a_node7"><a xlink:href="classrare_1_1models_1_1game_1_1_rare_game.html#a1e914552c775e095849d4c5e6e6840bd" target="_top" xlink:title="Property to report if an InstalledGame has updates available.">
<polygon fill="white" stroke="black" points="176,-296.5 176,-315.5 243,-315.5 243,-296.5 176,-296.5"/>
<text text-anchor="middle" x="209.5" y="-303.5" font-family="Helvetica,sans-Serif" font-size="10.00">has_update</text>
</a>
</g>
</g>
<!-- Node1&#45;&gt;Node7 -->
<g id="edge10" class="edge">
<title>Node1&#45;&gt;Node7</title>
<path fill="none" stroke="midnightblue" d="M71.31,-290.84C98.5,-293.85 136.42,-298.04 165.5,-301.25"/>
<polygon fill="midnightblue" stroke="midnightblue" points="165.46,-304.77 175.78,-302.39 166.23,-297.81 165.46,-304.77"/>
</g>
<!-- Node12 -->
<g id="node12" class="node">
<title>Node12</title>
<g id="a_node12"><a xlink:href="classrare_1_1models_1_1game_1_1_rare_eos_overlay.html#a1e914552c775e095849d4c5e6e6840bd" target="_top" xlink:title=" ">
<polygon fill="white" stroke="black" points="348,-470 348,-500 480,-500 480,-470 348,-470"/>
<text text-anchor="start" x="356" y="-488" font-family="Helvetica,sans-Serif" font-size="10.00">rare.models.game.RareEos</text>
<text text-anchor="middle" x="414" y="-477" font-family="Helvetica,sans-Serif" font-size="10.00">Overlay.has_update</text>
</a>
</g>
</g>
<!-- Node1&#45;&gt;Node12 -->
<g id="edge22" class="edge">
<title>Node1&#45;&gt;Node12</title>
<path fill="none" stroke="midnightblue" d="M45.52,-296.63C58.05,-309.37 81.99,-331.54 107,-343 191.32,-381.63 238.18,-325.85 312,-382 340.79,-403.9 322.09,-429.75 348,-455 351.74,-458.65 356.01,-461.91 360.53,-464.8"/>
<polygon fill="midnightblue" stroke="midnightblue" points="359.04,-467.99 369.45,-469.94 362.53,-461.92 359.04,-467.99"/>
</g>
<!-- Node13 -->
<g id="node13" class="node">
<title>Node13</title>
<g id="a_node13"><a xlink:href="classrare_1_1models_1_1base__game_1_1_rare_game_base.html#aef0a849df11b29e665072d941527d7a5" target="_top" xlink:title="Property to report if Game is a dlc.">
<polygon fill="white" stroke="black" points="138.5,-191 138.5,-221 280.5,-221 280.5,-191 138.5,-191"/>
<text text-anchor="start" x="146.5" y="-209" font-family="Helvetica,sans-Serif" font-size="10.00">rare.models.base_game.Rare</text>
<text text-anchor="middle" x="209.5" y="-198" font-family="Helvetica,sans-Serif" font-size="10.00">GameBase.is_dlc</text>
</a>
</g>
</g>
<!-- Node1&#45;&gt;Node13 -->
<g id="edge25" class="edge">
<title>Node1&#45;&gt;Node13</title>
<path fill="none" stroke="midnightblue" d="M56.91,-277.39C83.91,-264.67 132.16,-241.95 166.98,-225.55"/>
<polygon fill="midnightblue" stroke="midnightblue" points="168.86,-228.53 176.42,-221.11 165.88,-222.2 168.86,-228.53"/>
</g>
<!-- Node14 -->
<g id="node14" class="node">
<title>Node14</title>
<g id="a_node14"><a xlink:href="classrare_1_1shared_1_1rare__core_1_1_rare_core.html#a135560fc58fcc2e5cff07ec25c23a06c" target="_top" xlink:title=" ">
<polygon fill="white" stroke="black" points="144.5,-124 144.5,-154 274.5,-154 274.5,-124 144.5,-124"/>
<text text-anchor="start" x="152.5" y="-142" font-family="Helvetica,sans-Serif" font-size="10.00">rare.shared.rare_core.Rare</text>
<text text-anchor="middle" x="209.5" y="-131" font-family="Helvetica,sans-Serif" font-size="10.00">Core.signals</text>
</a>
</g>
</g>
<!-- Node1&#45;&gt;Node14 -->
<g id="edge28" class="edge">
<title>Node1&#45;&gt;Node14</title>
<path fill="none" stroke="midnightblue" d="M40.51,-277.42C49.51,-257 73.2,-208.79 107,-181 118.49,-171.55 132.4,-163.96 146.19,-157.98"/>
<polygon fill="midnightblue" stroke="midnightblue" points="147.76,-161.12 155.69,-154.09 145.11,-154.64 147.76,-161.12"/>
</g>
<!-- Node15 -->
<g id="node15" class="node">
<title>Node15</title>
<g id="a_node15"><a xlink:href="classrare_1_1shared_1_1workers_1_1worker_1_1_worker.html#a9998d928f5b6f30ebb69dc655c0756a8" target="_top" xlink:title=" ">
<polygon fill="white" stroke="black" points="142,-57 142,-87 277,-87 277,-57 142,-57"/>
<text text-anchor="start" x="150" y="-75" font-family="Helvetica,sans-Serif" font-size="10.00">rare.shared.workers.worker.</text>
<text text-anchor="middle" x="209.5" y="-64" font-family="Helvetica,sans-Serif" font-size="10.00">Worker.signals</text>
</a>
</g>
</g>
<!-- Node1&#45;&gt;Node15 -->
<g id="edge30" class="edge">
<title>Node1&#45;&gt;Node15</title>
<path fill="none" stroke="midnightblue" d="M37.8,-277.34C42.14,-248.58 58.74,-162.52 107,-114 116.48,-104.46 128.45,-97 140.8,-91.18"/>
<polygon fill="midnightblue" stroke="midnightblue" points="142.52,-94.25 150.29,-87.04 139.72,-87.83 142.52,-94.25"/>
</g>
<!-- Node16 -->
<g id="node16" class="node">
<title>Node16</title>
<g id="a_node16"><a xlink:href="classrare_1_1models_1_1game_1_1_rare_game.html#ae8eea7f05df591bbd18ba200690027f8" target="_top" xlink:title=" ">
<polygon fill="white" stroke="black" points="171,-0.5 171,-19.5 248,-19.5 248,-0.5 171,-0.5"/>
<text text-anchor="middle" x="209.5" y="-7.5" font-family="Helvetica,sans-Serif" font-size="10.00">update_igame</text>
</a>
</g>
</g>
<!-- Node1&#45;&gt;Node16 -->
<g id="edge32" class="edge">
<title>Node1&#45;&gt;Node16</title>
<path fill="none" stroke="midnightblue" d="M36.42,-277.27C36.65,-241.54 42.23,-116.05 107,-47 121.1,-31.97 141.78,-23.03 160.81,-17.72"/>
<polygon fill="midnightblue" stroke="midnightblue" points="161.73,-21.09 170.57,-15.25 160.01,-14.31 161.73,-21.09"/>
</g>
<!-- Node3&#45;&gt;Node3 -->
<g id="edge3" class="edge">
<title>Node3&#45;&gt;Node3</title>
<path fill="none" stroke="midnightblue" d="M179.18,-488.16C171.86,-497.56 181.97,-506.5 209.5,-506.5 226.27,-506.5 236.58,-503.18 240.42,-498.46"/>
<polygon fill="midnightblue" stroke="midnightblue" points="243.89,-497.94 239.82,-488.16 236.91,-498.34 243.89,-497.94"/>
</g>
<!-- Node4&#45;&gt;Node4 -->
<g id="edge5" class="edge">
<title>Node4&#45;&gt;Node4</title>
<path fill="none" stroke="midnightblue" d="M179.18,-421.16C171.86,-430.56 181.97,-439.5 209.5,-439.5 226.27,-439.5 236.58,-436.18 240.42,-431.46"/>
<polygon fill="midnightblue" stroke="midnightblue" points="243.89,-430.94 239.82,-421.16 236.91,-431.34 243.89,-430.94"/>
</g>
<!-- Node5&#45;&gt;Node5 -->
<g id="edge7" class="edge">
<title>Node5&#45;&gt;Node5</title>
<path fill="none" stroke="midnightblue" d="M734.68,-425.16C727.36,-434.56 737.47,-443.5 765,-443.5 781.77,-443.5 792.08,-440.18 795.92,-435.46"/>
<polygon fill="midnightblue" stroke="midnightblue" points="799.39,-434.94 795.32,-425.16 792.41,-435.34 799.39,-434.94"/>
</g>
<!-- Node6 -->
<g id="node6" class="node">
<title>Node6</title>
<g id="a_node6"><a xlink:href="classrare_1_1shared_1_1workers_1_1worker_1_1_worker.html#a5d3220537164bdcd6c040b54ef85f656" target="_top" xlink:title=" ">
<polygon fill="white" stroke="black" points="872,-395 872,-425 1007,-425 1007,-395 872,-395"/>
<text text-anchor="start" x="880" y="-413" font-family="Helvetica,sans-Serif" font-size="10.00">rare.shared.workers.worker.</text>
<text text-anchor="middle" x="939.5" y="-402" font-family="Helvetica,sans-Serif" font-size="10.00">Worker.logger</text>
</a>
</g>
</g>
<!-- Node5&#45;&gt;Node6 -->
<g id="edge8" class="edge">
<title>Node5&#45;&gt;Node6</title>
<path fill="none" stroke="midnightblue" d="M830.23,-410C840.54,-410 851.3,-410 861.86,-410"/>
<polygon fill="midnightblue" stroke="midnightblue" points="861.91,-413.5 871.91,-410 861.91,-406.5 861.91,-413.5"/>
</g>
<!-- Node6&#45;&gt;Node6 -->
<g id="edge9" class="edge">
<title>Node6&#45;&gt;Node6</title>
<path fill="none" stroke="midnightblue" d="M909.18,-425.16C901.86,-434.56 911.97,-443.5 939.5,-443.5 956.27,-443.5 966.58,-440.18 970.42,-435.46"/>
<polygon fill="midnightblue" stroke="midnightblue" points="973.89,-434.94 969.82,-425.16 966.91,-435.34 973.89,-434.94"/>
</g>
<!-- Node7&#45;&gt;Node5 -->
<g id="edge11" class="edge">
<title>Node7&#45;&gt;Node5</title>
<path fill="none" stroke="midnightblue" d="M241.79,-315.53C261.96,-321.84 288.68,-330.48 312,-339 403.94,-372.6 419.94,-403.21 516,-422 573.68,-433.29 640.28,-429.14 689.92,-422.81"/>
<polygon fill="midnightblue" stroke="midnightblue" points="690.49,-426.26 699.94,-421.47 689.56,-419.33 690.49,-426.26"/>
</g>
<!-- Node7&#45;&gt;Node7 -->
<g id="edge12" class="edge">
<title>Node7&#45;&gt;Node7</title>
<path fill="none" stroke="midnightblue" d="M182.68,-315.76C169.63,-324.57 178.57,-334 209.5,-334 230.28,-334 241.13,-329.74 242.06,-324.27"/>
<polygon fill="midnightblue" stroke="midnightblue" points="244.81,-322.09 236.32,-315.76 239.01,-326.01 244.81,-322.09"/>
</g>
<!-- Node8 -->
<g id="node8" class="node">
<title>Node8</title>
<g id="a_node8"><a xlink:href="classrare_1_1models_1_1game_1_1_rare_game.html#adf94568f84b36f0c783d76df96936a8b" target="_top" xlink:title="Property to report the remote version of an InstalledGame.">
<polygon fill="white" stroke="black" points="372.5,-302.5 372.5,-321.5 455.5,-321.5 455.5,-302.5 372.5,-302.5"/>
<text text-anchor="middle" x="414" y="-309.5" font-family="Helvetica,sans-Serif" font-size="10.00">remote_version</text>
</a>
</g>
</g>
<!-- Node7&#45;&gt;Node8 -->
<g id="edge13" class="edge">
<title>Node7&#45;&gt;Node8</title>
<path fill="none" stroke="midnightblue" d="M243.04,-306.96C275.12,-307.91 324.65,-309.38 361.97,-310.49"/>
<polygon fill="midnightblue" stroke="midnightblue" points="362.06,-313.99 372.15,-310.79 362.26,-307 362.06,-313.99"/>
</g>
<!-- Node8&#45;&gt;Node8 -->
<g id="edge21" class="edge">
<title>Node8&#45;&gt;Node8</title>
<path fill="none" stroke="midnightblue" d="M387.49,-321.76C374.59,-330.57 383.43,-340 414,-340 434.54,-340 445.27,-335.74 446.19,-330.27"/>
<polygon fill="midnightblue" stroke="midnightblue" points="448.97,-328.14 440.51,-321.76 443.14,-332.02 448.97,-328.14"/>
</g>
<!-- Node9 -->
<g id="node9" class="node">
<title>Node9</title>
<g id="a_node9"><a xlink:href="classrare_1_1lgndr_1_1core_1_1_legendary_core.html#a3ae4fe315e7d530f77daf1e8d63468e3" target="_top" xlink:title=" ">
<polygon fill="white" stroke="black" points="524.5,-364 524.5,-394 649.5,-394 649.5,-364 524.5,-364"/>
<text text-anchor="start" x="532.5" y="-382" font-family="Helvetica,sans-Serif" font-size="10.00">rare.lgndr.core.Legendary</text>
<text text-anchor="middle" x="587" y="-371" font-family="Helvetica,sans-Serif" font-size="10.00">Core.default_platform</text>
</a>
</g>
</g>
<!-- Node8&#45;&gt;Node9 -->
<g id="edge14" class="edge">
<title>Node8&#45;&gt;Node9</title>
<path fill="none" stroke="midnightblue" d="M436.94,-321.5C457.31,-330.24 488.54,-343.4 516,-354 521.48,-356.11 527.21,-358.27 532.95,-360.38"/>
<polygon fill="midnightblue" stroke="midnightblue" points="531.96,-363.74 542.56,-363.87 534.36,-357.16 531.96,-363.74"/>
</g>
<!-- Node10 -->
<g id="node10" class="node">
<title>Node10</title>
<g id="a_node10"><a xlink:href="classrare_1_1models_1_1base__game_1_1_rare_game_base.html#a3ae4fe315e7d530f77daf1e8d63468e3" target="_top" xlink:title=" ">
<polygon fill="white" stroke="black" points="516,-297 516,-327 658,-327 658,-297 516,-297"/>
<text text-anchor="start" x="524" y="-315" font-family="Helvetica,sans-Serif" font-size="10.00">rare.models.base_game.Rare</text>
<text text-anchor="middle" x="587" y="-304" font-family="Helvetica,sans-Serif" font-size="10.00">GameBase.default_platform</text>
</a>
</g>
</g>
<!-- Node8&#45;&gt;Node10 -->
<g id="edge16" class="edge">
<title>Node8&#45;&gt;Node10</title>
<path fill="none" stroke="midnightblue" d="M455.52,-312C470.55,-312 488.17,-312 505.51,-312"/>
<polygon fill="midnightblue" stroke="midnightblue" points="505.67,-315.5 515.67,-312 505.67,-308.5 505.67,-315.5"/>
</g>
<!-- Node9&#45;&gt;Node9 -->
<g id="edge15" class="edge">
<title>Node9&#45;&gt;Node9</title>
<path fill="none" stroke="midnightblue" d="M557.03,-394.16C549.8,-403.56 559.79,-412.5 587,-412.5 603.58,-412.5 613.77,-409.18 617.56,-404.46"/>
<polygon fill="midnightblue" stroke="midnightblue" points="621.04,-403.94 616.97,-394.16 614.05,-404.34 621.04,-403.94"/>
</g>
<!-- Node10&#45;&gt;Node5 -->
<g id="edge17" class="edge">
<title>Node10&#45;&gt;Node5</title>
<path fill="none" stroke="midnightblue" d="M615.11,-327.1C645.35,-343.93 694.38,-371.23 727.85,-389.87"/>
<polygon fill="midnightblue" stroke="midnightblue" points="726.42,-393.08 736.85,-394.89 729.82,-386.96 726.42,-393.08"/>
</g>
<!-- Node10&#45;&gt;Node10 -->
<g id="edge18" class="edge">
<title>Node10&#45;&gt;Node10</title>
<path fill="none" stroke="midnightblue" d="M557.03,-327.16C549.8,-336.56 559.79,-345.5 587,-345.5 603.58,-345.5 613.77,-342.18 617.56,-337.46"/>
<polygon fill="midnightblue" stroke="midnightblue" points="621.04,-336.94 616.97,-327.16 614.05,-337.34 621.04,-336.94"/>
</g>
<!-- Node11 -->
<g id="node11" class="node">
<title>Node11</title>
<g id="a_node11"><a xlink:href="classrare_1_1models_1_1base__game_1_1_rare_game_base.html#a030a686885e9e90bfbcd7f7f61fa318b" target="_top" xlink:title="Property that holds the platforms a game is available for.">
<polygon fill="white" stroke="black" points="694,-297 694,-327 836,-327 836,-297 694,-297"/>
<text text-anchor="start" x="702" y="-315" font-family="Helvetica,sans-Serif" font-size="10.00">rare.models.base_game.Rare</text>
<text text-anchor="middle" x="765" y="-304" font-family="Helvetica,sans-Serif" font-size="10.00">GameBase.platforms</text>
</a>
</g>
</g>
<!-- Node10&#45;&gt;Node11 -->
<g id="edge19" class="edge">
<title>Node10&#45;&gt;Node11</title>
<path fill="none" stroke="midnightblue" d="M658.07,-312C666.54,-312 675.25,-312 683.85,-312"/>
<polygon fill="midnightblue" stroke="midnightblue" points="683.89,-315.5 693.89,-312 683.89,-308.5 683.89,-315.5"/>
</g>
<!-- Node11&#45;&gt;Node11 -->
<g id="edge20" class="edge">
<title>Node11&#45;&gt;Node11</title>
<path fill="none" stroke="midnightblue" d="M734.68,-327.16C727.36,-336.56 737.47,-345.5 765,-345.5 781.77,-345.5 792.08,-342.18 795.92,-337.46"/>
<polygon fill="midnightblue" stroke="midnightblue" points="799.39,-336.94 795.32,-327.16 792.41,-337.34 799.39,-336.94"/>
</g>
<!-- Node12&#45;&gt;Node5 -->
<g id="edge23" class="edge">
<title>Node12&#45;&gt;Node5</title>
<path fill="none" stroke="midnightblue" d="M480.15,-481.89C529.62,-478.35 598.98,-470.84 658,-455 681.07,-448.81 705.69,-438.6 725.39,-429.47"/>
<polygon fill="midnightblue" stroke="midnightblue" points="727.09,-432.53 734.63,-425.09 724.1,-426.21 727.09,-432.53"/>
</g>
<!-- Node12&#45;&gt;Node12 -->
<g id="edge24" class="edge">
<title>Node12&#45;&gt;Node12</title>
<path fill="none" stroke="midnightblue" d="M384.03,-500.16C376.8,-509.56 386.79,-518.5 414,-518.5 430.58,-518.5 440.77,-515.18 444.56,-510.46"/>
<polygon fill="midnightblue" stroke="midnightblue" points="448.04,-509.94 443.97,-500.16 441.05,-510.34 448.04,-509.94"/>
</g>
<!-- Node13&#45;&gt;Node13 -->
<g id="edge26" class="edge">
<title>Node13&#45;&gt;Node13</title>
<path fill="none" stroke="midnightblue" d="M179.18,-221.16C171.86,-230.56 181.97,-239.5 209.5,-239.5 226.27,-239.5 236.58,-236.18 240.42,-231.46"/>
<polygon fill="midnightblue" stroke="midnightblue" points="243.89,-230.94 239.82,-221.16 236.91,-231.34 243.89,-230.94"/>
</g>
<!-- Node14&#45;&gt;Node14 -->
<g id="edge29" class="edge">
<title>Node14&#45;&gt;Node14</title>
<path fill="none" stroke="midnightblue" d="M179.18,-154.16C171.86,-163.56 181.97,-172.5 209.5,-172.5 226.27,-172.5 236.58,-169.18 240.42,-164.46"/>
<polygon fill="midnightblue" stroke="midnightblue" points="243.89,-163.94 239.82,-154.16 236.91,-164.34 243.89,-163.94"/>
</g>
<!-- Node15&#45;&gt;Node15 -->
<g id="edge31" class="edge">
<title>Node15&#45;&gt;Node15</title>
<path fill="none" stroke="midnightblue" d="M179.18,-87.16C171.86,-96.56 181.97,-105.5 209.5,-105.5 226.27,-105.5 236.58,-102.18 240.42,-97.46"/>
<polygon fill="midnightblue" stroke="midnightblue" points="243.89,-96.94 239.82,-87.16 236.91,-97.34 243.89,-96.94"/>
</g>
<!-- Node16&#45;&gt;Node16 -->
<g id="edge33" class="edge">
<title>Node16&#45;&gt;Node16</title>
<path fill="none" stroke="midnightblue" d="M182.68,-19.76C169.63,-28.57 178.57,-38 209.5,-38 230.28,-38 241.13,-33.74 242.06,-28.27"/>
<polygon fill="midnightblue" stroke="midnightblue" points="244.81,-26.09 236.32,-19.76 239.01,-30.01 244.81,-26.09"/>
</g>
</g>
</svg>
