<?xml version="1.0" encoding="UTF-8" standalone="no"?>
<!DOCTYPE svg PUBLIC "-//W3C//DTD SVG 1.1//EN"
 "http://www.w3.org/Graphics/SVG/1.1/DTD/svg11.dtd">
<!-- Generated by graphviz version 2.49.3 (20211027.1534)
 -->
<!-- Title: update_saves Pages: 1 -->
<!--zoomable 384 -->
<svg id="main" version="1.1" xmlns="http://www.w3.org/2000/svg" xmlns:xlink="http://www.w3.org/1999/xlink" xml:space="preserve" onload="init(evt)">
<style type="text/css"><![CDATA[
.edge:hover path { stroke: red; }
.edge:hover polygon { stroke: red; fill: red; }
]]></style>
<script type="text/javascript"><![CDATA[
var edges = document.getElementsByTagName('g');
if (edges && edges.length) {
  for (var i=0;i<edges.length;i++) {
    if (edges[i].id.substr(0,4)=='edge') {
      edges[i].setAttribute('class','edge');
    }
  }
}
]]></script>
        <defs>
                <circle id="rim" cx="0" cy="0" r="7"/>
                <circle id="rim2" cx="0" cy="0" r="3.5"/>
                <g id="zoomPlus">
                        <use xlink:href="#rim" fill="#404040">
                                <set attributeName="fill" to="#808080" begin="zoomplus.mouseover" end="zoomplus.mouseout"/>
                        </use>
                        <path d="M-4,0h8M0,-4v8" fill="none" stroke="white" stroke-width="1.5" pointer-events="none"/>
                </g>
                <g id="zoomMin">
                        <use xlink:href="#rim" fill="#404040">
                                <set attributeName="fill" to="#808080" begin="zoomminus.mouseover" end="zoomminus.mouseout"/>
                        </use>
                        <path d="M-4,0h8" fill="none" stroke="white" stroke-width="1.5" pointer-events="none"/>
                </g>
                <g id="dirArrow">
                        <path fill="none" stroke="white" stroke-width="1.5" d="M0,-3.0v7 M-2.5,-0.5L0,-3.0L2.5,-0.5"/>
                </g>
               <g id="resetDef">
                       <use xlink:href="#rim2" fill="#404040">
                               <set attributeName="fill" to="#808080" begin="reset.mouseover" end="reset.mouseout"/>
                       </use>
               </g>
        </defs>

<script type="text/javascript">
var viewWidth = 888;
var viewHeight = 384;
var sectionId = 'dynsection-28';
</script>
<script xlink:href="svgpan.js"/>
<svg id="graph" class="graph">
<g id="viewport">
<title>update_saves</title>
<polygon fill="white" stroke="transparent" points="-4,4 -4,-380 884,-380 884,4 -4,4"/>
<!-- Node1 -->
<g id="node1" class="node">
<title>Node1</title>
<g id="a_node1"><a xlink:title="Use only in a thread.">
<polygon fill="#bfbfbf" stroke="black" points="0,-289 0,-308 77,-308 77,-289 0,-289"/>
<text text-anchor="middle" x="38.5" y="-296" font-family="Helvetica,sans-Serif" font-size="10.00">update_saves</text>
</a>
</g>
</g>
<!-- Node1&#45;&gt;Node1 -->
<g id="edge23" class="edge">
<title>Node1&#45;&gt;Node1</title>
<path fill="none" stroke="midnightblue" d="M11.37,-308.26C-1.82,-317.07 7.22,-326.5 38.5,-326.5 60.01,-326.5 71,-322.04 71.48,-316.39"/>
<polygon fill="midnightblue" stroke="midnightblue" points="74.31,-314.33 65.63,-308.26 68.63,-318.42 74.31,-314.33"/>
</g>
<!-- Node2 -->
<g id="node2" class="node">
<title>Node2</title>
<g id="a_node2"><a xlink:href="classrare_1_1components_1_1tabs_1_1library_1_1integrations_1_1egl__sync__group_1_1_e_g_l_sync_list_item.html#a9c470cc60eae203f55455d0e0d7f5712" target="_top" xlink:title=" ">
<polygon fill="white" stroke="black" points="113,-327.5 113,-357.5 318,-357.5 318,-327.5 113,-327.5"/>
<text text-anchor="start" x="121" y="-345.5" font-family="Helvetica,sans-Serif" font-size="10.00">rare.components.tabs.library.integrations.egl</text>
<text text-anchor="middle" x="215.5" y="-334.5" font-family="Helvetica,sans-Serif" font-size="10.00">_sync_group.EGLSyncListItem.app_name</text>
</a>
</g>
</g>
<!-- Node1&#45;&gt;Node2 -->
<g id="edge1" class="edge">
<title>Node1&#45;&gt;Node2</title>
<path fill="none" stroke="midnightblue" d="M77.04,-307.94C96.81,-312.91 121.7,-319.17 144.85,-324.99"/>
<polygon fill="midnightblue" stroke="midnightblue" points="144.1,-328.41 154.65,-327.45 145.8,-321.62 144.1,-328.41"/>
</g>
<!-- Node3 -->
<g id="node3" class="node">
<title>Node3</title>
<g id="a_node3"><a xlink:href="classrare_1_1shared_1_1rare__core_1_1_rare_core.html#a405e1a4f20f16120f872ccd2654a1d56" target="_top" xlink:title=" ">
<polygon fill="white" stroke="black" points="383.5,-314.5 383.5,-344.5 513.5,-344.5 513.5,-314.5 383.5,-314.5"/>
<text text-anchor="start" x="391.5" y="-332.5" font-family="Helvetica,sans-Serif" font-size="10.00">rare.shared.rare_core.Rare</text>
<text text-anchor="middle" x="448.5" y="-321.5" font-family="Helvetica,sans-Serif" font-size="10.00">Core.core</text>
</a>
</g>
</g>
<!-- Node1&#45;&gt;Node3 -->
<g id="edge3" class="edge">
<title>Node1&#45;&gt;Node3</title>
<path fill="none" stroke="midnightblue" d="M77.35,-301.06C130.94,-304.72 231.98,-311.76 318,-318.5 335.85,-319.9 355.08,-321.49 373.12,-323.01"/>
<polygon fill="midnightblue" stroke="midnightblue" points="373.03,-326.52 383.29,-323.88 373.62,-319.54 373.03,-326.52"/>
</g>
<!-- Node5 -->
<g id="node5" class="node">
<title>Node5</title>
<g id="a_node5"><a xlink:href="classrare_1_1models_1_1base__game_1_1_rare_game_slim.html#a09658b980eca0a97191099319bf89b84" target="_top" xlink:title="Use only in a thread.">
<polygon fill="white" stroke="black" points="182.5,-202 182.5,-221 248.5,-221 248.5,-202 182.5,-202"/>
<text text-anchor="middle" x="215.5" y="-209" font-family="Helvetica,sans-Serif" font-size="10.00">load_saves</text>
</a>
</g>
</g>
<!-- Node1&#45;&gt;Node5 -->
<g id="edge7" class="edge">
<title>Node1&#45;&gt;Node5</title>
<path fill="none" stroke="midnightblue" d="M58.9,-288.86C89.73,-273.53 150.07,-243.53 185.88,-225.73"/>
<polygon fill="midnightblue" stroke="midnightblue" points="187.89,-228.64 195.28,-221.05 184.77,-222.37 187.89,-228.64"/>
</g>
<!-- Node2&#45;&gt;Node2 -->
<g id="edge2" class="edge">
<title>Node2&#45;&gt;Node2</title>
<path fill="none" stroke="midnightblue" d="M184.83,-357.66C177.43,-367.06 187.66,-376 215.5,-376 232.47,-376 242.89,-372.68 246.77,-367.96"/>
<polygon fill="midnightblue" stroke="midnightblue" points="250.25,-367.44 246.17,-357.66 243.26,-367.85 250.25,-367.44"/>
</g>
<!-- Node3&#45;&gt;Node3 -->
<g id="edge4" class="edge">
<title>Node3&#45;&gt;Node3</title>
<path fill="none" stroke="midnightblue" d="M413.99,-344.66C405.67,-354.06 417.18,-363 448.5,-363 467.59,-363 479.32,-359.68 483.68,-354.96"/>
<polygon fill="midnightblue" stroke="midnightblue" points="487.15,-354.41 483.01,-344.66 480.17,-354.87 487.15,-354.41"/>
</g>
<!-- Node4 -->
<g id="node4" class="node">
<title>Node4</title>
<g id="a_node4"><a xlink:href="classrare_1_1shared_1_1workers_1_1worker_1_1_worker.html#a5d3220537164bdcd6c040b54ef85f656" target="_top" xlink:title=" ">
<polygon fill="white" stroke="black" points="579,-314.5 579,-344.5 714,-344.5 714,-314.5 579,-314.5"/>
<text text-anchor="start" x="587" y="-332.5" font-family="Helvetica,sans-Serif" font-size="10.00">rare.shared.workers.worker.</text>
<text text-anchor="middle" x="646.5" y="-321.5" font-family="Helvetica,sans-Serif" font-size="10.00">Worker.logger</text>
</a>
</g>
</g>
<!-- Node3&#45;&gt;Node4 -->
<g id="edge5" class="edge">
<title>Node3&#45;&gt;Node4</title>
<path fill="none" stroke="midnightblue" d="M513.68,-329.5C531.29,-329.5 550.57,-329.5 568.81,-329.5"/>
<polygon fill="midnightblue" stroke="midnightblue" points="568.82,-333 578.82,-329.5 568.82,-326 568.82,-333"/>
</g>
<!-- Node4&#45;&gt;Node4 -->
<g id="edge6" class="edge">
<title>Node4&#45;&gt;Node4</title>
<path fill="none" stroke="midnightblue" d="M617.22,-344.66C610.16,-354.06 619.92,-363 646.5,-363 662.7,-363 672.65,-359.68 676.35,-354.96"/>
<polygon fill="midnightblue" stroke="midnightblue" points="679.83,-354.45 675.78,-344.66 672.84,-354.84 679.83,-354.45"/>
</g>
<!-- Node5&#45;&gt;Node3 -->
<g id="edge8" class="edge">
<title>Node5&#45;&gt;Node3</title>
<path fill="none" stroke="midnightblue" d="M229.6,-221.19C258.61,-242.5 327.78,-292.54 354,-304.5 360.16,-307.31 366.7,-309.86 373.35,-312.15"/>
<polygon fill="midnightblue" stroke="midnightblue" points="372.54,-315.57 383.13,-315.33 374.7,-308.91 372.54,-315.57"/>
</g>
<!-- Node5&#45;&gt;Node5 -->
<g id="edge9" class="edge">
<title>Node5&#45;&gt;Node5</title>
<path fill="none" stroke="midnightblue" d="M188.37,-221.26C175.18,-230.07 184.22,-239.5 215.5,-239.5 237.01,-239.5 248,-235.04 248.48,-229.39"/>
<polygon fill="midnightblue" stroke="midnightblue" points="251.31,-227.33 242.63,-221.26 245.63,-231.42 251.31,-227.33"/>
</g>
<!-- Node6 -->
<g id="node6" class="node">
<title>Node6</title>
<g id="a_node6"><a xlink:href="classrare_1_1models_1_1base__game_1_1_rare_game_slim.html#ae67c92b74c05707f28c4430681aaa860" target="_top" xlink:title=" ">
<polygon fill="white" stroke="black" points="417.5,-258 417.5,-277 479.5,-277 479.5,-258 417.5,-258"/>
<text text-anchor="middle" x="448.5" y="-265" font-family="Helvetica,sans-Serif" font-size="10.00">save_path</text>
</a>
</g>
</g>
<!-- Node5&#45;&gt;Node6 -->
<g id="edge10" class="edge">
<title>Node5&#45;&gt;Node6</title>
<path fill="none" stroke="midnightblue" d="M248.58,-220.74C276.36,-228.6 317.67,-239.93 354,-248.5 371.49,-252.63 390.95,-256.67 407.56,-259.95"/>
<polygon fill="midnightblue" stroke="midnightblue" points="407.01,-263.41 417.5,-261.9 408.36,-256.54 407.01,-263.41"/>
</g>
<!-- Node7 -->
<g id="node7" class="node">
<title>Node7</title>
<g id="a_node7"><a xlink:href="classrare_1_1models_1_1game_1_1_rare_game.html#ae67c92b74c05707f28c4430681aaa860" target="_top" xlink:title=" ">
<polygon fill="white" stroke="black" points="354,-202 354,-221 543,-221 543,-202 354,-202"/>
<text text-anchor="middle" x="448.5" y="-209" font-family="Helvetica,sans-Serif" font-size="10.00">rare.models.game.RareGame.save_path</text>
</a>
</g>
</g>
<!-- Node5&#45;&gt;Node7 -->
<g id="edge12" class="edge">
<title>Node5&#45;&gt;Node7</title>
<path fill="none" stroke="midnightblue" d="M248.62,-211.5C273.44,-211.5 309.27,-211.5 343.69,-211.5"/>
<polygon fill="midnightblue" stroke="midnightblue" points="343.83,-215 353.83,-211.5 343.83,-208 343.83,-215"/>
</g>
<!-- Node8 -->
<g id="node8" class="node">
<title>Node8</title>
<g id="a_node8"><a xlink:href="classrare_1_1shared_1_1rare__core_1_1_rare_core.html#a4c5d7b0b818760d1a69d2dca743a2f4b" target="_top" xlink:title="SaveGameFiles across games.">
<polygon fill="white" stroke="black" points="383.5,-134.5 383.5,-164.5 513.5,-164.5 513.5,-134.5 383.5,-134.5"/>
<text text-anchor="start" x="391.5" y="-152.5" font-family="Helvetica,sans-Serif" font-size="10.00">rare.shared.rare_core.Rare</text>
<text text-anchor="middle" x="448.5" y="-141.5" font-family="Helvetica,sans-Serif" font-size="10.00">Core.saves</text>
</a>
</g>
</g>
<!-- Node5&#45;&gt;Node8 -->
<g id="edge14" class="edge">
<title>Node5&#45;&gt;Node8</title>
<path fill="none" stroke="midnightblue" d="M248.62,-202.88C282.85,-193.69 338,-178.89 381.55,-167.2"/>
<polygon fill="midnightblue" stroke="midnightblue" points="382.47,-170.58 391.22,-164.6 380.66,-163.82 382.47,-170.58"/>
</g>
<!-- Node11 -->
<g id="node11" class="node">
<title>Node11</title>
<g id="a_node11"><a xlink:href="classrare_1_1shared_1_1workers_1_1worker_1_1_worker.html#a9998d928f5b6f30ebb69dc655c0756a8" target="_top" xlink:title=" ">
<polygon fill="white" stroke="black" points="381,-67.5 381,-97.5 516,-97.5 516,-67.5 381,-67.5"/>
<text text-anchor="start" x="389" y="-85.5" font-family="Helvetica,sans-Serif" font-size="10.00">rare.shared.workers.worker.</text>
<text text-anchor="middle" x="448.5" y="-74.5" font-family="Helvetica,sans-Serif" font-size="10.00">Worker.signals</text>
</a>
</g>
</g>
<!-- Node5&#45;&gt;Node11 -->
<g id="edge19" class="edge">
<title>Node5&#45;&gt;Node11</title>
<path fill="none" stroke="midnightblue" d="M230.59,-201.84C255.1,-185.24 307.42,-150.64 354,-125.5 369.49,-117.14 386.91,-108.84 402.48,-101.8"/>
<polygon fill="midnightblue" stroke="midnightblue" points="404.2,-104.86 411.9,-97.59 401.34,-98.47 404.2,-104.86"/>
</g>
<!-- Node12 -->
<g id="node12" class="node">
<title>Node12</title>
<g id="a_node12"><a xlink:href="classrare_1_1shared_1_1rare__core_1_1_rare_core.html#a135560fc58fcc2e5cff07ec25c23a06c" target="_top" xlink:title=" ">
<polygon fill="white" stroke="black" points="383.5,-0.5 383.5,-30.5 513.5,-30.5 513.5,-0.5 383.5,-0.5"/>
<text text-anchor="start" x="391.5" y="-18.5" font-family="Helvetica,sans-Serif" font-size="10.00">rare.shared.rare_core.Rare</text>
<text text-anchor="middle" x="448.5" y="-7.5" font-family="Helvetica,sans-Serif" font-size="10.00">Core.signals</text>
</a>
</g>
</g>
<!-- Node5&#45;&gt;Node12 -->
<g id="edge21" class="edge">
<title>Node5&#45;&gt;Node12</title>
<path fill="none" stroke="midnightblue" d="M223.14,-201.65C241.31,-175.32 294.48,-102.34 354,-58.5 366.74,-49.11 381.87,-41.07 396.19,-34.57"/>
<polygon fill="midnightblue" stroke="midnightblue" points="397.7,-37.73 405.46,-30.52 394.9,-31.32 397.7,-37.73"/>
</g>
<!-- Node6&#45;&gt;Node6 -->
<g id="edge11" class="edge">
<title>Node6&#45;&gt;Node6</title>
<path fill="none" stroke="midnightblue" d="M417.98,-277.26C403.14,-286.07 413.31,-295.5 448.5,-295.5 473.24,-295.5 485.62,-290.84 485.62,-285"/>
<polygon fill="midnightblue" stroke="midnightblue" points="488.17,-282.59 479.02,-277.26 482.84,-287.14 488.17,-282.59"/>
</g>
<!-- Node7&#45;&gt;Node7 -->
<g id="edge13" class="edge">
<title>Node7&#45;&gt;Node7</title>
<path fill="none" stroke="midnightblue" d="M417.98,-221.26C403.14,-230.07 413.31,-239.5 448.5,-239.5 473.24,-239.5 485.62,-234.84 485.62,-229"/>
<polygon fill="midnightblue" stroke="midnightblue" points="488.17,-226.59 479.02,-221.26 482.84,-231.14 488.17,-226.59"/>
</g>
<!-- Node8&#45;&gt;Node8 -->
<g id="edge18" class="edge">
<title>Node8&#45;&gt;Node8</title>
<path fill="none" stroke="midnightblue" d="M413.99,-164.66C405.67,-174.06 417.18,-183 448.5,-183 467.59,-183 479.32,-179.68 483.68,-174.96"/>
<polygon fill="midnightblue" stroke="midnightblue" points="487.15,-174.41 483.01,-164.66 480.17,-174.87 487.15,-174.41"/>
</g>
<!-- Node9 -->
<g id="node9" class="node">
<title>Node9</title>
<g id="a_node9"><a xlink:href="classrare_1_1shared_1_1rare__core_1_1_rare_core.html#a68395f7577f6b1a63a7a62dbf1a4c6d0" target="_top" xlink:title="RareGames that have SaveGameFiles associated with them.">
<polygon fill="white" stroke="black" points="581.5,-134.5 581.5,-164.5 711.5,-164.5 711.5,-134.5 581.5,-134.5"/>
<text text-anchor="start" x="589.5" y="-152.5" font-family="Helvetica,sans-Serif" font-size="10.00">rare.shared.rare_core.Rare</text>
<text text-anchor="middle" x="646.5" y="-141.5" font-family="Helvetica,sans-Serif" font-size="10.00">Core.has_saves</text>
</a>
</g>
</g>
<!-- Node8&#45;&gt;Node9 -->
<g id="edge15" class="edge">
<title>Node8&#45;&gt;Node9</title>
<path fill="none" stroke="midnightblue" d="M513.68,-149.5C532.04,-149.5 552.2,-149.5 571.12,-149.5"/>
<polygon fill="midnightblue" stroke="midnightblue" points="571.18,-153 581.18,-149.5 571.18,-146 571.18,-153"/>
</g>
<!-- Node9&#45;&gt;Node9 -->
<g id="edge17" class="edge">
<title>Node9&#45;&gt;Node9</title>
<path fill="none" stroke="midnightblue" d="M617.22,-164.66C610.16,-174.06 619.92,-183 646.5,-183 662.7,-183 672.65,-179.68 676.35,-174.96"/>
<polygon fill="midnightblue" stroke="midnightblue" points="679.83,-174.45 675.78,-164.66 672.84,-174.84 679.83,-174.45"/>
</g>
<!-- Node10 -->
<g id="node10" class="node">
<title>Node10</title>
<g id="a_node10"><a xlink:href="classrare_1_1shared_1_1rare__core_1_1_rare_core.html#a311e604b365ca958c3ae7b143b6190ce" target="_top" xlink:title=" ">
<polygon fill="white" stroke="black" points="750,-134.5 750,-164.5 880,-164.5 880,-134.5 750,-134.5"/>
<text text-anchor="start" x="758" y="-152.5" font-family="Helvetica,sans-Serif" font-size="10.00">rare.shared.rare_core.Rare</text>
<text text-anchor="middle" x="815" y="-141.5" font-family="Helvetica,sans-Serif" font-size="10.00">Core.__filter_games</text>
</a>
</g>
</g>
<!-- Node9&#45;&gt;Node10 -->
<g id="edge16" class="edge">
<title>Node9&#45;&gt;Node10</title>
<path fill="none" stroke="midnightblue" d="M711.87,-149.5C721.01,-149.5 730.47,-149.5 739.78,-149.5"/>
<polygon fill="midnightblue" stroke="midnightblue" points="739.8,-153 749.8,-149.5 739.8,-146 739.8,-153"/>
</g>
<!-- Node11&#45;&gt;Node11 -->
<g id="edge20" class="edge">
<title>Node11&#45;&gt;Node11</title>
<path fill="none" stroke="midnightblue" d="M413.99,-97.66C405.67,-107.06 417.18,-116 448.5,-116 467.59,-116 479.32,-112.68 483.68,-107.96"/>
<polygon fill="midnightblue" stroke="midnightblue" points="487.15,-107.41 483.01,-97.66 480.17,-107.87 487.15,-107.41"/>
</g>
<!-- Node12&#45;&gt;Node12 -->
<g id="edge22" class="edge">
<title>Node12&#45;&gt;Node12</title>
<path fill="none" stroke="midnightblue" d="M413.99,-30.66C405.67,-40.06 417.18,-49 448.5,-49 467.59,-49 479.32,-45.68 483.68,-40.96"/>
<polygon fill="midnightblue" stroke="midnightblue" points="487.15,-40.41 483.01,-30.66 480.17,-40.87 487.15,-40.41"/>
</g>
</g>
</svg>
        <g id="navigator" transform="translate(0 0)" fill="#404254">
                <rect fill="#f2f5e9" fill-opacity="0.5" stroke="#606060" stroke-width=".5" x="0" y="0" width="60" height="60"/>
                <use id="zoomplus" xlink:href="#zoomPlus" x="17" y="9" onmousedown="handleZoom(evt,'in')"/>
                <use id="zoomminus" xlink:href="#zoomMin" x="42" y="9" onmousedown="handleZoom(evt,'out')"/>
                <use id="reset" xlink:href="#resetDef" x="30" y="36" onmousedown="handleReset()"/>
                <g id="arrowUp" xlink:href="#dirArrow" transform="translate(30 24)" onmousedown="handlePan(0,-1)">
                  <use xlink:href="#rim" fill="#404040">
                        <set attributeName="fill" to="#808080" begin="arrowUp.mouseover" end="arrowUp.mouseout"/>
                  </use>
                  <path fill="none" stroke="white" stroke-width="1.5" d="M0,-3.0v7 M-2.5,-0.5L0,-3.0L2.5,-0.5"/>
                </g>
                <g id="arrowRight" xlink:href="#dirArrow" transform="rotate(90) translate(36 -43)" onmousedown="handlePan(1,0)">
                  <use xlink:href="#rim" fill="#404040">
                        <set attributeName="fill" to="#808080" begin="arrowRight.mouseover" end="arrowRight.mouseout"/>
                  </use>
                  <path fill="none" stroke="white" stroke-width="1.5" d="M0,-3.0v7 M-2.5,-0.5L0,-3.0L2.5,-0.5"/>
                </g>
                <g id="arrowDown" xlink:href="#dirArrow" transform="rotate(180) translate(-30 -48)" onmousedown="handlePan(0,1)">
                  <use xlink:href="#rim" fill="#404040">
                        <set attributeName="fill" to="#808080" begin="arrowDown.mouseover" end="arrowDown.mouseout"/>
                  </use>
                  <path fill="none" stroke="white" stroke-width="1.5" d="M0,-3.0v7 M-2.5,-0.5L0,-3.0L2.5,-0.5"/>
                </g>
                <g id="arrowLeft" xlink:href="#dirArrow" transform="rotate(270) translate(-36 17)" onmousedown="handlePan(-1,0)">
                  <use xlink:href="#rim" fill="#404040">
                        <set attributeName="fill" to="#808080" begin="arrowLeft.mouseover" end="arrowLeft.mouseout"/>
                  </use>
                  <path fill="none" stroke="white" stroke-width="1.5" d="M0,-3.0v7 M-2.5,-0.5L0,-3.0L2.5,-0.5"/>
                </g>
        </g>
        <svg viewBox="0 0 15 15" width="100%" height="30px" preserveAspectRatio="xMaxYMin meet">
         <g id="arrow_out" transform="scale(0.3 0.3)">
          <a xlink:href="classrare_1_1models_1_1base__game_1_1_rare_game_slim_a538e01960833eed6bbda62ccc518f22f_cgraph_org.svg" target="_base">
           <rect id="button" ry="5" rx="5" y="6" x="6" height="38" width="38"
                fill="#f2f5e9" fill-opacity="0.5" stroke="#606060" stroke-width="1.0"/>
           <path id="arrow"
             d="M 11.500037,31.436501 C 11.940474,20.09759 22.043105,11.32322 32.158766,21.979434 L 37.068811,17.246167 C 37.068811,17.246167 37.088388,32 37.088388,32 L 22.160133,31.978069 C 22.160133,31.978069 26.997745,27.140456 26.997745,27.140456 C 18.528582,18.264221 13.291696,25.230495 11.500037,31.436501 z"
             style="fill:#404040;"/>
          </a>
         </g>
        </svg>
</svg>
