<?xml version="1.0" encoding="UTF-8" standalone="no"?>
<!DOCTYPE svg PUBLIC "-//W3C//DTD SVG 1.1//EN"
 "http://www.w3.org/Graphics/SVG/1.1/DTD/svg11.dtd">
<!-- Generated by graphviz version 2.49.3 (20211027.1534)
 -->
<!-- Title: prepare_pixmap Pages: 1 -->
<svg width="794pt" height="203pt"
 viewBox="0.00 0.00 794.00 202.50" xmlns="http://www.w3.org/2000/svg" xmlns:xlink="http://www.w3.org/1999/xlink">
<g id="graph0" class="graph" transform="scale(1 1) rotate(0) translate(4 198.5)">
<title>prepare_pixmap</title>
<polygon fill="white" stroke="transparent" points="-4,4 -4,-198.5 790,-198.5 790,4 -4,4"/>
<!-- Node1 -->
<g id="node1" class="node">
<title>Node1</title>
<g id="a_node1"><a xlink:title=" ">
<polygon fill="#bfbfbf" stroke="black" points="701,-83.5 701,-102.5 786,-102.5 786,-83.5 701,-83.5"/>
<text text-anchor="middle" x="743.5" y="-90.5" font-family="Helvetica,sans-Serif" font-size="10.00">prepare_pixmap</text>
</a>
</g>
</g>
<!-- Node1&#45;&gt;Node1 -->
<g id="edge1" class="edge">
<title>Node1&#45;&gt;Node1</title>
<path fill="none" stroke="midnightblue" d="M774.94,-111.27C774.04,-116.74 763.56,-121 743.5,-121 713.64,-121 705.01,-111.57 717.61,-102.76"/>
<polygon fill="midnightblue" stroke="midnightblue" points="777.78,-109.23 769.39,-102.76 771.92,-113.05 777.78,-109.23"/>
</g>
<!-- Node2 -->
<g id="node2" class="node">
<title>Node2</title>
<g id="a_node2"><a xlink:href="classrare_1_1components_1_1tabs_1_1downloads_1_1download_1_1_download_widget.html#afe7221063d2a4d7b1e1f42fb85f5d06f" target="_top" xlink:title=" ">
<polygon fill="white" stroke="black" points="544.5,-117.5 544.5,-136.5 606.5,-136.5 606.5,-117.5 544.5,-117.5"/>
<text text-anchor="middle" x="575.5" y="-124.5" font-family="Helvetica,sans-Serif" font-size="10.00">setPixmap</text>
</a>
</g>
</g>
<!-- Node1&#45;&gt;Node2 -->
<g id="edge2" class="edge">
<title>Node1&#45;&gt;Node2</title>
<path fill="none" stroke="midnightblue" d="M690.7,-103.61C663.05,-109.27 630.01,-116.04 606.59,-120.84"/>
<polygon fill="midnightblue" stroke="midnightblue" points="691.52,-107.02 700.61,-101.58 690.11,-100.16 691.52,-107.02"/>
</g>
<!-- Node7 -->
<g id="node7" class="node">
<title>Node7</title>
<g id="a_node7"><a xlink:href="classrare_1_1components_1_1tabs_1_1games_1_1game__widgets_1_1list__game__widget_1_1_list_game_widget.html#afe7221063d2a4d7b1e1f42fb85f5d06f" target="_top" xlink:title=" ">
<polygon fill="white" stroke="black" points="486,-39.5 486,-80.5 665,-80.5 665,-39.5 486,-39.5"/>
<text text-anchor="start" x="494" y="-68.5" font-family="Helvetica,sans-Serif" font-size="10.00">rare.components.tabs.games.game</text>
<text text-anchor="start" x="494" y="-57.5" font-family="Helvetica,sans-Serif" font-size="10.00">_widgets.list_game_widget.ListGame</text>
<text text-anchor="middle" x="575.5" y="-46.5" font-family="Helvetica,sans-Serif" font-size="10.00">Widget.setPixmap</text>
</a>
</g>
</g>
<!-- Node1&#45;&gt;Node7 -->
<g id="edge12" class="edge">
<title>Node1&#45;&gt;Node7</title>
<path fill="none" stroke="midnightblue" d="M690.55,-82.67C682.39,-81.05 673.76,-79.33 665.04,-77.6"/>
<polygon fill="midnightblue" stroke="midnightblue" points="690.12,-86.16 700.61,-84.67 691.49,-79.29 690.12,-86.16"/>
</g>
<!-- Node2&#45;&gt;Node2 -->
<g id="edge5" class="edge">
<title>Node2&#45;&gt;Node2</title>
<path fill="none" stroke="midnightblue" d="M606.94,-145.27C606.04,-150.74 595.56,-155 575.5,-155 545.64,-155 537.01,-145.57 549.61,-136.76"/>
<polygon fill="midnightblue" stroke="midnightblue" points="609.78,-143.23 601.39,-136.76 603.92,-147.05 609.78,-143.23"/>
</g>
<!-- Node3 -->
<g id="node3" class="node">
<title>Node3</title>
<g id="a_node3"><a xlink:href="classrare_1_1utils_1_1extra__widgets_1_1_image_label.html#a29f0251454b3bdbf53b196a41cfb5c44" target="_top" xlink:title=" ">
<polygon fill="white" stroke="black" points="282.5,-146 282.5,-176 407.5,-176 407.5,-146 282.5,-146"/>
<text text-anchor="start" x="290.5" y="-164" font-family="Helvetica,sans-Serif" font-size="10.00">rare.utils.extra_widgets.</text>
<text text-anchor="middle" x="345" y="-153" font-family="Helvetica,sans-Serif" font-size="10.00">ImageLabel.image_ready</text>
</a>
</g>
</g>
<!-- Node2&#45;&gt;Node3 -->
<g id="edge3" class="edge">
<title>Node2&#45;&gt;Node3</title>
<path fill="none" stroke="midnightblue" d="M533.85,-133.05C498.9,-138.25 447.94,-145.83 407.91,-151.79"/>
<polygon fill="midnightblue" stroke="midnightblue" points="534.78,-136.45 544.16,-131.51 533.75,-129.52 534.78,-136.45"/>
</g>
<!-- Node4 -->
<g id="node4" class="node">
<title>Node4</title>
<g id="a_node4"><a xlink:href="classrare_1_1utils_1_1extra__widgets_1_1_image_label.html#aab3809d017e8e9a18638a2b3caf6e7b5" target="_top" xlink:title=" ">
<polygon fill="white" stroke="black" points="282.5,-79 282.5,-109 407.5,-109 407.5,-79 282.5,-79"/>
<text text-anchor="start" x="290.5" y="-97" font-family="Helvetica,sans-Serif" font-size="10.00">rare.utils.extra_widgets.</text>
<text text-anchor="middle" x="345" y="-86" font-family="Helvetica,sans-Serif" font-size="10.00">ImageLabel.show_image</text>
</a>
</g>
</g>
<!-- Node2&#45;&gt;Node4 -->
<g id="edge6" class="edge">
<title>Node2&#45;&gt;Node4</title>
<path fill="none" stroke="midnightblue" d="M533.85,-121.13C498.9,-116.08 447.94,-108.72 407.91,-102.94"/>
<polygon fill="midnightblue" stroke="midnightblue" points="533.76,-124.65 544.16,-122.62 534.76,-117.72 533.76,-124.65"/>
</g>
<!-- Node5 -->
<g id="node5" class="node">
<title>Node5</title>
<g id="a_node5"><a xlink:href="classrare_1_1components_1_1tabs_1_1games_1_1game__widgets_1_1library__widget_1_1_library_widget.html#aba6dbd857b7a02c2f1fbd7d472416b54" target="_top" xlink:title=" ">
<polygon fill="white" stroke="black" points="240,-0.5 240,-41.5 450,-41.5 450,-0.5 240,-0.5"/>
<text text-anchor="start" x="248" y="-29.5" font-family="Helvetica,sans-Serif" font-size="10.00">rare.components.tabs.games.game</text>
<text text-anchor="start" x="248" y="-18.5" font-family="Helvetica,sans-Serif" font-size="10.00">_widgets.library_widget.LibraryWidget.update</text>
<text text-anchor="middle" x="345" y="-7.5" font-family="Helvetica,sans-Serif" font-size="10.00">Progress</text>
</a>
</g>
</g>
<!-- Node2&#45;&gt;Node5 -->
<g id="edge8" class="edge">
<title>Node2&#45;&gt;Node5</title>
<path fill="none" stroke="midnightblue" d="M534.14,-123.62C518.34,-120.99 500.56,-116.3 486,-108 465.51,-96.31 469.08,-82.88 450,-69 435.21,-58.24 417.61,-49.01 401.14,-41.61"/>
<polygon fill="midnightblue" stroke="midnightblue" points="533.78,-127.11 544.18,-125.08 534.79,-120.18 533.78,-127.11"/>
</g>
<!-- Node3&#45;&gt;Node3 -->
<g id="edge4" class="edge">
<title>Node3&#45;&gt;Node3</title>
<path fill="none" stroke="midnightblue" d="M386.24,-186.09C381.49,-191.01 367.74,-194.5 345,-194.5 308.61,-194.5 295.25,-185.56 304.92,-176.16"/>
<polygon fill="midnightblue" stroke="midnightblue" points="389.72,-185.69 385.08,-176.16 382.77,-186.5 389.72,-185.69"/>
</g>
<!-- Node4&#45;&gt;Node4 -->
<g id="edge7" class="edge">
<title>Node4&#45;&gt;Node4</title>
<path fill="none" stroke="midnightblue" d="M386.24,-119.09C381.49,-124.01 367.74,-127.5 345,-127.5 308.61,-127.5 295.25,-118.56 304.92,-109.16"/>
<polygon fill="midnightblue" stroke="midnightblue" points="389.72,-118.69 385.08,-109.16 382.77,-119.5 389.72,-118.69"/>
</g>
<!-- Node5&#45;&gt;Node5 -->
<g id="edge11" class="edge">
<title>Node5&#45;&gt;Node5</title>
<path fill="none" stroke="midnightblue" d="M384.57,-51.86C378.69,-56.7 365.5,-60 345,-60 312.21,-60 298.12,-51.54 302.73,-41.86"/>
<polygon fill="midnightblue" stroke="midnightblue" points="388.04,-52.43 387.27,-41.86 381.28,-50.6 388.04,-52.43"/>
</g>
<!-- Node6 -->
<g id="node6" class="node">
<title>Node6</title>
<g id="a_node6"><a xlink:href="classrare_1_1components_1_1tabs_1_1games_1_1game__widgets_1_1library__widget_1_1_library_widget.html#a1990ae73849da7538f16b24becb60023" target="_top" xlink:title=" ">
<polygon fill="white" stroke="black" points="0,-0.5 0,-41.5 204,-41.5 204,-0.5 0,-0.5"/>
<text text-anchor="start" x="8" y="-29.5" font-family="Helvetica,sans-Serif" font-size="10.00">rare.components.tabs.games.game</text>
<text text-anchor="start" x="8" y="-18.5" font-family="Helvetica,sans-Serif" font-size="10.00">_widgets.library_widget.LibraryWidget.show</text>
<text text-anchor="middle" x="102" y="-7.5" font-family="Helvetica,sans-Serif" font-size="10.00">Progress</text>
</a>
</g>
</g>
<!-- Node5&#45;&gt;Node6 -->
<g id="edge9" class="edge">
<title>Node5&#45;&gt;Node6</title>
<path fill="none" stroke="midnightblue" d="M229.67,-21C221.11,-21 212.51,-21 204.03,-21"/>
<polygon fill="midnightblue" stroke="midnightblue" points="229.7,-24.5 239.7,-21 229.7,-17.5 229.7,-24.5"/>
</g>
<!-- Node6&#45;&gt;Node6 -->
<g id="edge10" class="edge">
<title>Node6&#45;&gt;Node6</title>
<path fill="none" stroke="midnightblue" d="M143.63,-51.86C137.44,-56.7 123.56,-60 102,-60 67.5,-60 52.67,-51.54 57.52,-41.86"/>
<polygon fill="midnightblue" stroke="midnightblue" points="147.11,-52.44 146.48,-41.86 140.37,-50.52 147.11,-52.44"/>
</g>
<!-- Node7&#45;&gt;Node3 -->
<g id="edge13" class="edge">
<title>Node7&#45;&gt;Node3</title>
<path fill="none" stroke="midnightblue" d="M523.62,-85.55C511.06,-92.41 497.82,-100.13 486,-108 468.9,-119.39 468.48,-128.02 450,-137 436.83,-143.4 421.89,-148.14 407.52,-151.62"/>
<polygon fill="midnightblue" stroke="midnightblue" points="525.46,-88.54 532.62,-80.72 522.15,-82.37 525.46,-88.54"/>
</g>
<!-- Node7&#45;&gt;Node4 -->
<g id="edge15" class="edge">
<title>Node7&#45;&gt;Node4</title>
<path fill="none" stroke="midnightblue" d="M475.66,-74.71C452.59,-78.14 428.67,-81.7 407.75,-84.81"/>
<polygon fill="midnightblue" stroke="midnightblue" points="476.45,-78.13 485.83,-73.19 475.42,-71.2 476.45,-78.13"/>
</g>
<!-- Node7&#45;&gt;Node5 -->
<g id="edge16" class="edge">
<title>Node7&#45;&gt;Node5</title>
<path fill="none" stroke="midnightblue" d="M475.91,-43.17C467.4,-41.72 458.77,-40.25 450.22,-38.79"/>
<polygon fill="midnightblue" stroke="midnightblue" points="475.38,-46.63 485.83,-44.87 476.56,-39.73 475.38,-46.63"/>
</g>
<!-- Node7&#45;&gt;Node7 -->
<g id="edge14" class="edge">
<title>Node7&#45;&gt;Node7</title>
<path fill="none" stroke="midnightblue" d="M604.4,-90.86C600.11,-95.7 590.47,-99 575.5,-99 551.55,-99 541.25,-90.54 544.62,-80.86"/>
<polygon fill="midnightblue" stroke="midnightblue" points="607.87,-91.35 606.38,-80.86 601.01,-90 607.87,-91.35"/>
</g>
</g>
</svg>
