<?xml version="1.0" encoding="UTF-8" standalone="no"?>
<!DOCTYPE svg PUBLIC "-//W3C//DTD SVG 1.1//EN"
 "http://www.w3.org/Graphics/SVG/1.1/DTD/svg11.dtd">
<!-- Generated by graphviz version 2.49.3 (20211027.1534)
 -->
<!-- Title: done_handler Pages: 1 -->
<svg width="251pt" height="57pt"
 viewBox="0.00 0.00 251.00 57.00" xmlns="http://www.w3.org/2000/svg" xmlns:xlink="http://www.w3.org/1999/xlink">
<g id="graph0" class="graph" transform="scale(1 1) rotate(0) translate(4 53)">
<title>done_handler</title>
<polygon fill="white" stroke="transparent" points="-4,4 -4,-53 247,-53 247,4 -4,4"/>
<!-- Node1 -->
<g id="node1" class="node">
<title>Node1</title>
<g id="a_node1"><a xlink:title=" ">
<polygon fill="#bfbfbf" stroke="black" points="169,-6 169,-25 243,-25 243,-6 169,-6"/>
<text text-anchor="middle" x="206" y="-13" font-family="Helvetica,sans-Serif" font-size="10.00">done_handler</text>
</a>
</g>
</g>
<!-- Node2 -->
<g id="node2" class="node">
<title>Node2</title>
<g id="a_node2"><a xlink:href="classrare_1_1widgets_1_1dialogs_1_1_button_dialog.html#a97eae6fc819daae12bcbe59b520e6d59" target="_top" xlink:title=" ">
<polygon fill="white" stroke="black" points="0,-0.5 0,-30.5 133,-30.5 133,-0.5 0,-0.5"/>
<text text-anchor="start" x="8" y="-18.5" font-family="Helvetica,sans-Serif" font-size="10.00">rare.widgets.dialogs.Button</text>
<text text-anchor="middle" x="66.5" y="-7.5" font-family="Helvetica,sans-Serif" font-size="10.00">Dialog.done</text>
</a>
</g>
</g>
<!-- Node1&#45;&gt;Node2 -->
<g id="edge1" class="edge">
<title>Node1&#45;&gt;Node2</title>
<path fill="none" stroke="midnightblue" d="M158.75,-15.5C150.53,-15.5 141.82,-15.5 133.17,-15.5"/>
<polygon fill="midnightblue" stroke="midnightblue" points="158.87,-19 168.87,-15.5 158.87,-12 158.87,-19"/>
</g>
<!-- Node2&#45;&gt;Node2 -->
<g id="edge2" class="edge">
<title>Node2&#45;&gt;Node2</title>
<path fill="none" stroke="midnightblue" d="M91.02,-40.96C87.98,-45.68 79.8,-49 66.5,-49 44.67,-49 36.65,-40.06 42.45,-30.66"/>
<polygon fill="midnightblue" stroke="midnightblue" points="94.5,-40.49 90.55,-30.66 87.51,-40.81 94.5,-40.49"/>
</g>
</g>
</svg>
