<?xml version="1.0" encoding="UTF-8" standalone="no"?>
<!DOCTYPE svg PUBLIC "-//W3C//DTD SVG 1.1//EN"
 "http://www.w3.org/Graphics/SVG/1.1/DTD/svg11.dtd">
<!-- Generated by graphviz version 2.49.3 (20211027.1534)
 -->
<!-- Title: headerData Pages: 1 -->
<svg width="207pt" height="236pt"
 viewBox="0.00 0.00 207.00 236.00" xmlns="http://www.w3.org/2000/svg" xmlns:xlink="http://www.w3.org/1999/xlink">
<g id="graph0" class="graph" transform="scale(1 1) rotate(0) translate(4 232)">
<title>headerData</title>
<polygon fill="white" stroke="transparent" points="-4,4 -4,-232 203,-232 203,4 -4,4"/>
<!-- Node1 -->
<g id="node1" class="node">
<title>Node1</title>
<g id="a_node1"><a xlink:title=" ">
<polygon fill="#bfbfbf" stroke="black" points="0,-113.5 0,-132.5 66,-132.5 66,-113.5 0,-113.5"/>
<text text-anchor="middle" x="33" y="-120.5" font-family="Helvetica,sans-Serif" font-size="10.00">headerData</text>
</a>
</g>
</g>
<!-- Node1&#45;&gt;Node1 -->
<g id="edge6" class="edge">
<title>Node1&#45;&gt;Node1</title>
<path fill="none" stroke="midnightblue" d="M15.12,-132.76C6.42,-141.57 12.38,-151 33,-151 45.89,-151 53.05,-147.31 54.48,-142.4"/>
<polygon fill="midnightblue" stroke="midnightblue" points="57.66,-140.9 50.88,-132.76 51.1,-143.35 57.66,-140.9"/>
</g>
<!-- Node2 -->
<g id="node2" class="node">
<title>Node2</title>
<g id="a_node2"><a xlink:href="classrare_1_1components_1_1tabs_1_1settings_1_1widgets_1_1env__vars__model_1_1_env_vars_table_model.html#a785ebf9c544297050f8105f2be49dc7d" target="_top" xlink:title=" ">
<polygon fill="white" stroke="black" points="112,-208.5 112,-227.5 189,-227.5 189,-208.5 112,-208.5"/>
<text text-anchor="middle" x="150.5" y="-215.5" font-family="Helvetica,sans-Serif" font-size="10.00">__data_length</text>
</a>
</g>
</g>
<!-- Node1&#45;&gt;Node2 -->
<g id="edge1" class="edge">
<title>Node1&#45;&gt;Node2</title>
<path fill="none" stroke="midnightblue" d="M40.42,-132.7C51.35,-148.55 75.02,-180.12 102,-199 104.54,-200.78 107.27,-202.42 110.08,-203.94"/>
<polygon fill="midnightblue" stroke="midnightblue" points="108.75,-207.18 119.28,-208.35 111.77,-200.87 108.75,-207.18"/>
</g>
<!-- Node3 -->
<g id="node3" class="node">
<title>Node3</title>
<g id="a_node3"><a xlink:href="classrare_1_1components_1_1tabs_1_1settings_1_1widgets_1_1env__vars__model_1_1_env_vars_table_model.html#ab5de135c48bebbea9ab36c9decedbf50" target="_top" xlink:title=" ">
<polygon fill="white" stroke="black" points="118,-170.5 118,-189.5 183,-189.5 183,-170.5 118,-170.5"/>
<text text-anchor="middle" x="150.5" y="-177.5" font-family="Helvetica,sans-Serif" font-size="10.00">__is_global</text>
</a>
</g>
</g>
<!-- Node1&#45;&gt;Node3 -->
<g id="edge2" class="edge">
<title>Node1&#45;&gt;Node3</title>
<path fill="none" stroke="midnightblue" d="M49.9,-132.66C63.49,-140.72 83.69,-152.27 102,-161 105.88,-162.85 109.99,-164.68 114.1,-166.43"/>
<polygon fill="midnightblue" stroke="midnightblue" points="113.02,-169.77 123.6,-170.34 115.69,-163.3 113.02,-169.77"/>
</g>
<!-- Node4 -->
<g id="node4" class="node">
<title>Node4</title>
<g id="a_node4"><a xlink:href="classrare_1_1components_1_1tabs_1_1settings_1_1widgets_1_1env__vars__model_1_1_env_vars_table_model.html#a901261c7f98a9bc6aec033a630868d64" target="_top" xlink:title=" ">
<polygon fill="white" stroke="black" points="120.5,-132.5 120.5,-151.5 180.5,-151.5 180.5,-132.5 120.5,-132.5"/>
<text text-anchor="middle" x="150.5" y="-139.5" font-family="Helvetica,sans-Serif" font-size="10.00">__is_local</text>
</a>
</g>
</g>
<!-- Node1&#45;&gt;Node4 -->
<g id="edge3" class="edge">
<title>Node1&#45;&gt;Node4</title>
<path fill="none" stroke="midnightblue" d="M66.17,-128.29C79.82,-130.54 95.85,-133.17 110.18,-135.53"/>
<polygon fill="midnightblue" stroke="midnightblue" points="109.83,-139.02 120.26,-137.19 110.96,-132.11 109.83,-139.02"/>
</g>
<!-- Node5 -->
<g id="node5" class="node">
<title>Node5</title>
<g id="a_node5"><a xlink:href="classrare_1_1components_1_1tabs_1_1settings_1_1widgets_1_1env__vars__model_1_1_env_vars_table_model.html#a4c1e57163ed097b7531e834b114e82bd" target="_top" xlink:title=" ">
<polygon fill="white" stroke="black" points="112.5,-94.5 112.5,-113.5 188.5,-113.5 188.5,-94.5 112.5,-94.5"/>
<text text-anchor="middle" x="150.5" y="-101.5" font-family="Helvetica,sans-Serif" font-size="10.00">__is_readonly</text>
</a>
</g>
</g>
<!-- Node1&#45;&gt;Node5 -->
<g id="edge4" class="edge">
<title>Node1&#45;&gt;Node5</title>
<path fill="none" stroke="midnightblue" d="M66.17,-117.71C77.33,-115.87 90.09,-113.77 102.21,-111.78"/>
<polygon fill="midnightblue" stroke="midnightblue" points="102.89,-115.21 112.19,-110.14 101.76,-108.31 102.89,-115.21"/>
</g>
<!-- Node6 -->
<g id="node6" class="node">
<title>Node6</title>
<g id="a_node6"><a xlink:href="classrare_1_1components_1_1tabs_1_1settings_1_1widgets_1_1env__vars__model_1_1_env_vars_table_model.html#a118c99cd58c664300312fd78b5c93122" target="_top" xlink:title=" ">
<polygon fill="white" stroke="black" points="129,-56.5 129,-75.5 172,-75.5 172,-56.5 129,-56.5"/>
<text text-anchor="middle" x="150.5" y="-63.5" font-family="Helvetica,sans-Serif" font-size="10.00">__title</text>
</a>
</g>
</g>
<!-- Node1&#45;&gt;Node6 -->
<g id="edge5" class="edge">
<title>Node1&#45;&gt;Node6</title>
<path fill="none" stroke="midnightblue" d="M49.9,-113.34C63.49,-105.28 83.69,-93.73 102,-85 107.55,-82.35 113.56,-79.75 119.39,-77.36"/>
<polygon fill="midnightblue" stroke="midnightblue" points="120.92,-80.52 128.91,-73.57 118.32,-74.02 120.92,-80.52"/>
</g>
<!-- Node7 -->
<g id="node7" class="node">
<title>Node7</title>
<g id="a_node7"><a xlink:href="namespacerare_1_1utils_1_1misc.html#a5b215592bbad86ea6d2c3b46280baae8" target="_top" xlink:title=" ">
<polygon fill="white" stroke="black" points="102,-0.5 102,-19.5 199,-19.5 199,-0.5 102,-0.5"/>
<text text-anchor="middle" x="150.5" y="-7.5" font-family="Helvetica,sans-Serif" font-size="10.00">rare.utils.misc.icon</text>
</a>
</g>
</g>
<!-- Node1&#45;&gt;Node7 -->
<g id="edge7" class="edge">
<title>Node1&#45;&gt;Node7</title>
<path fill="none" stroke="midnightblue" d="M41.86,-113.13C54.02,-98.13 78.45,-69 102,-47 109.94,-39.59 119.26,-32.09 127.53,-25.81"/>
<polygon fill="midnightblue" stroke="midnightblue" points="129.74,-28.53 135.67,-19.75 125.56,-22.92 129.74,-28.53"/>
</g>
<!-- Node7&#45;&gt;Node7 -->
<g id="edge8" class="edge">
<title>Node7&#45;&gt;Node7</title>
<path fill="none" stroke="midnightblue" d="M132.62,-19.76C123.92,-28.57 129.88,-38 150.5,-38 163.39,-38 170.55,-34.31 171.98,-29.4"/>
<polygon fill="midnightblue" stroke="midnightblue" points="175.16,-27.9 168.38,-19.76 168.6,-30.35 175.16,-27.9"/>
</g>
</g>
</svg>
