<?xml version="1.0" encoding="UTF-8" standalone="no"?>
<!DOCTYPE svg PUBLIC "-//W3C//DTD SVG 1.1//EN"
 "http://www.w3.org/Graphics/SVG/1.1/DTD/svg11.dtd">
<!-- Generated by graphviz version 2.49.3 (20211027.1534)
 -->
<!-- Title: egl_restore_or_uninstall Pages: 1 -->
<!--zoomable 688 -->
<svg id="main" version="1.1" xmlns="http://www.w3.org/2000/svg" xmlns:xlink="http://www.w3.org/1999/xlink" xml:space="preserve" onload="init(evt)">
<style type="text/css"><![CDATA[
.edge:hover path { stroke: red; }
.edge:hover polygon { stroke: red; fill: red; }
]]></style>
<script type="text/javascript"><![CDATA[
var edges = document.getElementsByTagName('g');
if (edges && edges.length) {
  for (var i=0;i<edges.length;i++) {
    if (edges[i].id.substr(0,4)=='edge') {
      edges[i].setAttribute('class','edge');
    }
  }
}
]]></script>
        <defs>
                <circle id="rim" cx="0" cy="0" r="7"/>
                <circle id="rim2" cx="0" cy="0" r="3.5"/>
                <g id="zoomPlus">
                        <use xlink:href="#rim" fill="#404040">
                                <set attributeName="fill" to="#808080" begin="zoomplus.mouseover" end="zoomplus.mouseout"/>
                        </use>
                        <path d="M-4,0h8M0,-4v8" fill="none" stroke="white" stroke-width="1.5" pointer-events="none"/>
                </g>
                <g id="zoomMin">
                        <use xlink:href="#rim" fill="#404040">
                                <set attributeName="fill" to="#808080" begin="zoomminus.mouseover" end="zoomminus.mouseout"/>
                        </use>
                        <path d="M-4,0h8" fill="none" stroke="white" stroke-width="1.5" pointer-events="none"/>
                </g>
                <g id="dirArrow">
                        <path fill="none" stroke="white" stroke-width="1.5" d="M0,-3.0v7 M-2.5,-0.5L0,-3.0L2.5,-0.5"/>
                </g>
               <g id="resetDef">
                       <use xlink:href="#rim2" fill="#404040">
                               <set attributeName="fill" to="#808080" begin="reset.mouseover" end="reset.mouseout"/>
                       </use>
               </g>
        </defs>

<script type="text/javascript">
var viewWidth = 2057;
var viewHeight = 688;
var sectionId = 'dynsection-40';
</script>
<script xlink:href="svgpan.js"/>
<svg id="graph" class="graph">
<g id="viewport">
<title>egl_restore_or_uninstall</title>
<polygon fill="white" stroke="transparent" points="-4,4 -4,-683.5 2053,-683.5 2053,4 -4,4"/>
<!-- Node1 -->
<g id="node1" class="node">
<title>Node1</title>
<g id="a_node1"><a xlink:title=" ">
<polygon fill="#bfbfbf" stroke="black" points="1930,-478.5 1930,-497.5 2049,-497.5 2049,-478.5 1930,-478.5"/>
<text text-anchor="middle" x="1989.5" y="-485.5" font-family="Helvetica,sans-Serif" font-size="10.00">egl_restore_or_uninstall</text>
</a>
</g>
</g>
<!-- Node1&#45;&gt;Node1 -->
<g id="edge1" class="edge">
<title>Node1&#45;&gt;Node1</title>
<path fill="none" stroke="midnightblue" d="M2012.19,-507.03C2010.96,-512.13 2003.39,-516 1989.5,-516 1967.82,-516 1961.55,-506.57 1970.7,-497.76"/>
<polygon fill="midnightblue" stroke="midnightblue" points="2015.4,-505.62 2008.3,-497.76 2008.94,-508.33 2015.4,-505.62"/>
</g>
<!-- Node2 -->
<g id="node2" class="node">
<title>Node2</title>
<g id="a_node2"><a xlink:href="classlegendary_1_1core_1_1_legendary_core.html#a989b9bc897ba25d6d660df7df57512d1" target="_top" xlink:title="Sync game installs between Legendary and the Epic Games Launcher.">
<polygon fill="white" stroke="black" points="1839,-422.5 1839,-441.5 1894,-441.5 1894,-422.5 1839,-422.5"/>
<text text-anchor="middle" x="1866.5" y="-429.5" font-family="Helvetica,sans-Serif" font-size="10.00">egl_sync</text>
</a>
</g>
</g>
<!-- Node1&#45;&gt;Node2 -->
<g id="edge2" class="edge">
<title>Node1&#45;&gt;Node2</title>
<path fill="none" stroke="midnightblue" d="M1958.49,-474.11C1936.55,-463.96 1907.36,-450.45 1888.03,-441.5"/>
<polygon fill="midnightblue" stroke="midnightblue" points="1957.15,-477.35 1967.7,-478.37 1960.09,-471 1957.15,-477.35"/>
</g>
<!-- Node2&#45;&gt;Node2 -->
<g id="edge3" class="edge">
<title>Node2&#45;&gt;Node2</title>
<path fill="none" stroke="midnightblue" d="M1887.61,-451.4C1886.2,-456.31 1879.16,-460 1866.5,-460 1846.24,-460 1840.38,-450.57 1848.93,-441.76"/>
<polygon fill="midnightblue" stroke="midnightblue" points="1890.8,-449.94 1884.07,-441.76 1884.23,-452.35 1890.8,-449.94"/>
</g>
<!-- Node3 -->
<g id="node3" class="node">
<title>Node3</title>
<g id="a_node3"><a xlink:href="classlegendary_1_1core_1_1_legendary_core.html#a05f6dd83ad472e402b9251fd06f8fb57" target="_top" xlink:title=" ">
<polygon fill="white" stroke="black" points="1702,-224.5 1702,-243.5 1803,-243.5 1803,-224.5 1702,-224.5"/>
<text text-anchor="middle" x="1752.5" y="-231.5" font-family="Helvetica,sans-Serif" font-size="10.00">get_installed_game</text>
</a>
</g>
</g>
<!-- Node2&#45;&gt;Node3 -->
<g id="edge4" class="edge">
<title>Node2&#45;&gt;Node3</title>
<path fill="none" stroke="midnightblue" d="M1855.06,-413.54C1831.89,-372.58 1776.85,-275.28 1759.11,-243.92"/>
<polygon fill="midnightblue" stroke="midnightblue" points="1852.13,-415.47 1860.1,-422.45 1858.22,-412.02 1852.13,-415.47"/>
</g>
<!-- Node31 -->
<g id="node31" class="node">
<title>Node31</title>
<g id="a_node31"><a xlink:href="classlegendary_1_1core_1_1_legendary_core.html#a9c8d72515701a6616f40301e838936ce" target="_top" xlink:title=" ">
<polygon fill="white" stroke="black" points="1708,-422.5 1708,-441.5 1797,-441.5 1797,-422.5 1708,-422.5"/>
<text text-anchor="middle" x="1752.5" y="-429.5" font-family="Helvetica,sans-Serif" font-size="10.00">get_installed_list</text>
</a>
</g>
</g>
<!-- Node2&#45;&gt;Node31 -->
<g id="edge71" class="edge">
<title>Node2&#45;&gt;Node31</title>
<path fill="none" stroke="midnightblue" d="M1828.88,-432C1818.81,-432 1807.79,-432 1797.36,-432"/>
<polygon fill="midnightblue" stroke="midnightblue" points="1828.96,-435.5 1838.96,-432 1828.96,-428.5 1828.96,-435.5"/>
</g>
<!-- Node3&#45;&gt;Node3 -->
<g id="edge9" class="edge">
<title>Node3&#45;&gt;Node3</title>
<path fill="none" stroke="midnightblue" d="M1773.61,-253.4C1772.2,-258.31 1765.16,-262 1752.5,-262 1732.24,-262 1726.38,-252.57 1734.93,-243.76"/>
<polygon fill="midnightblue" stroke="midnightblue" points="1776.8,-251.94 1770.07,-243.76 1770.23,-254.35 1776.8,-251.94"/>
</g>
<!-- Node4 -->
<g id="node4" class="node">
<title>Node4</title>
<g id="a_node4"><a xlink:href="classlegendary_1_1core_1_1_legendary_core.html#a7469385a673fc01a494b68576fd3bf2e" target="_top" xlink:title=" ">
<polygon fill="white" stroke="black" points="483,-333.5 483,-352.5 578,-352.5 578,-333.5 483,-333.5"/>
<text text-anchor="middle" x="530.5" y="-340.5" font-family="Helvetica,sans-Serif" font-size="10.00">clean_post_install</text>
</a>
</g>
</g>
<!-- Node3&#45;&gt;Node4 -->
<g id="edge5" class="edge">
<title>Node3&#45;&gt;Node4</title>
<path fill="none" stroke="midnightblue" d="M1737.42,-251.74C1722.02,-269.7 1695.55,-296.54 1666,-309 1566.39,-351.01 1531.61,-328 1423.5,-328 1423.5,-328 1423.5,-328 1041,-328 870.43,-328 667.88,-336.5 578.2,-340.71"/>
<polygon fill="midnightblue" stroke="midnightblue" points="1740.37,-253.67 1744.06,-243.74 1734.98,-249.2 1740.37,-253.67"/>
</g>
<!-- Node5 -->
<g id="node5" class="node">
<title>Node5</title>
<g id="a_node5"><a xlink:href="classlegendary_1_1core_1_1_legendary_core.html#a305f6de8f6046ca1e04347e08f0bf62d" target="_top" xlink:title=" ">
<polygon fill="white" stroke="black" points="250.5,-257.5 250.5,-276.5 345.5,-276.5 345.5,-257.5 250.5,-257.5"/>
<text text-anchor="middle" x="298" y="-264.5" font-family="Helvetica,sans-Serif" font-size="10.00">prepare_download</text>
</a>
</g>
</g>
<!-- Node3&#45;&gt;Node5 -->
<g id="edge67" class="edge">
<title>Node3&#45;&gt;Node5</title>
<path fill="none" stroke="midnightblue" d="M1741.7,-252.73C1728.16,-276.51 1701.35,-316.78 1666,-336 1570.6,-387.89 1532.1,-366 1423.5,-366 1423.5,-366 1423.5,-366 1041,-366 903.4,-366 485.78,-298.27 345.51,-274.85"/>
<polygon fill="midnightblue" stroke="midnightblue" points="1744.94,-254.1 1746.68,-243.65 1738.8,-250.74 1744.94,-254.1"/>
</g>
<!-- Node6 -->
<g id="node6" class="node">
<title>Node6</title>
<g id="a_node6"><a xlink:href="classlegendary_1_1core_1_1_legendary_core.html#af037f498338b01de437c0919de29db97" target="_top" xlink:title=" ">
<polygon fill="white" stroke="black" points="1548,-112.5 1548,-131.5 1666,-131.5 1666,-112.5 1548,-112.5"/>
<text text-anchor="middle" x="1607" y="-119.5" font-family="Helvetica,sans-Serif" font-size="10.00">get_launch_parameters</text>
</a>
</g>
</g>
<!-- Node3&#45;&gt;Node6 -->
<g id="edge10" class="edge">
<title>Node3&#45;&gt;Node6</title>
<path fill="none" stroke="midnightblue" d="M1734.24,-217.46C1717.42,-201.68 1690.83,-177.64 1666,-159 1652.53,-148.89 1636.3,-138.69 1624.44,-131.57"/>
<polygon fill="midnightblue" stroke="midnightblue" points="1731.99,-220.15 1741.66,-224.47 1736.8,-215.06 1731.99,-220.15"/>
</g>
<!-- Node7 -->
<g id="node7" class="node">
<title>Node7</title>
<g id="a_node7"><a xlink:href="classlegendary_1_1core_1_1_legendary_core.html#ad5f4c1b9437e23f202ba4bde43242f68" target="_top" xlink:title=" ">
<polygon fill="white" stroke="black" points="1567,-56.5 1567,-75.5 1647,-75.5 1647,-56.5 1567,-56.5"/>
<text text-anchor="middle" x="1607" y="-63.5" font-family="Helvetica,sans-Serif" font-size="10.00">get_save_path</text>
</a>
</g>
</g>
<!-- Node3&#45;&gt;Node7 -->
<g id="edge12" class="edge">
<title>Node3&#45;&gt;Node7</title>
<path fill="none" stroke="midnightblue" d="M1742.56,-215.31C1728.9,-188.18 1700.75,-137.39 1666,-103 1654.62,-91.74 1639.27,-82.13 1627.21,-75.53"/>
<polygon fill="midnightblue" stroke="midnightblue" points="1739.51,-217.04 1747.06,-224.47 1745.79,-213.95 1739.51,-217.04"/>
</g>
<!-- Node8 -->
<g id="node8" class="node">
<title>Node8</title>
<g id="a_node8"><a xlink:href="classlegendary_1_1core_1_1_legendary_core.html#a8ab54612b142f9a9733bc557567b1728" target="_top" xlink:title=" ">
<polygon fill="white" stroke="black" points="1574.5,-168.5 1574.5,-187.5 1639.5,-187.5 1639.5,-168.5 1574.5,-168.5"/>
<text text-anchor="middle" x="1607" y="-175.5" font-family="Helvetica,sans-Serif" font-size="10.00">is_installed</text>
</a>
</g>
</g>
<!-- Node3&#45;&gt;Node8 -->
<g id="edge14" class="edge">
<title>Node3&#45;&gt;Node8</title>
<path fill="none" stroke="midnightblue" d="M1717.3,-220.65C1691.13,-210.44 1655.68,-196.61 1632.35,-187.5"/>
<polygon fill="midnightblue" stroke="midnightblue" points="1716.24,-224 1726.83,-224.37 1718.79,-217.48 1716.24,-224"/>
</g>
<!-- Node28 -->
<g id="node28" class="node">
<title>Node28</title>
<g id="a_node28"><a xlink:href="classlegendary_1_1core_1_1_legendary_core.html#a215215304886d89c395d1e39b718b24b" target="_top" xlink:title=" ">
<polygon fill="white" stroke="black" points="1388,-262.5 1388,-281.5 1457,-281.5 1457,-262.5 1388,-262.5"/>
<text text-anchor="middle" x="1422.5" y="-269.5" font-family="Helvetica,sans-Serif" font-size="10.00">verify_game</text>
</a>
</g>
</g>
<!-- Node3&#45;&gt;Node28 -->
<g id="edge70" class="edge">
<title>Node3&#45;&gt;Node28</title>
<path fill="none" stroke="midnightblue" d="M1691.65,-238.66C1651.06,-242.05 1596.21,-247.08 1548,-253 1517.18,-256.79 1482.25,-262.22 1457.24,-266.31"/>
<polygon fill="midnightblue" stroke="midnightblue" points="1691.97,-242.15 1701.65,-237.84 1691.4,-235.17 1691.97,-242.15"/>
</g>
<!-- Node29 -->
<g id="node29" class="node">
<title>Node29</title>
<g id="a_node29"><a xlink:href="classlegendary_1_1core_1_1_legendary_core.html#a3287b57cbb3e055af5ef5cd01ff4fcb8" target="_top" xlink:title=" ">
<polygon fill="white" stroke="black" points="1580.5,-0.5 1580.5,-19.5 1633.5,-19.5 1633.5,-0.5 1580.5,-0.5"/>
<text text-anchor="middle" x="1607" y="-7.5" font-family="Helvetica,sans-Serif" font-size="10.00">is_latest</text>
</a>
</g>
</g>
<!-- Node3&#45;&gt;Node29 -->
<g id="edge65" class="edge">
<title>Node3&#45;&gt;Node29</title>
<path fill="none" stroke="midnightblue" d="M1746.59,-214.55C1736.62,-178.15 1711.01,-98.75 1666,-47 1655.81,-35.28 1641.01,-25.93 1628.91,-19.55"/>
<polygon fill="midnightblue" stroke="midnightblue" points="1743.26,-215.61 1749.19,-224.39 1750.02,-213.82 1743.26,-215.61"/>
</g>
<!-- Node30 -->
<g id="node30" class="node">
<title>Node30</title>
<g id="a_node30"><a xlink:href="classlegendary_1_1core_1_1_legendary_core.html#a09d04b204810defa3c86a83dcd05873c" target="_top" xlink:title=" ">
<polygon fill="white" stroke="black" points="1564.5,-262.5 1564.5,-281.5 1649.5,-281.5 1649.5,-262.5 1564.5,-262.5"/>
<text text-anchor="middle" x="1607" y="-269.5" font-family="Helvetica,sans-Serif" font-size="10.00">prereq_installed</text>
</a>
</g>
</g>
<!-- Node3&#45;&gt;Node30 -->
<g id="edge68" class="edge">
<title>Node3&#45;&gt;Node30</title>
<path fill="none" stroke="midnightblue" d="M1705.53,-246.17C1685.68,-251.43 1662.81,-257.49 1644.2,-262.41"/>
<polygon fill="midnightblue" stroke="midnightblue" points="1706.52,-249.53 1715.29,-243.59 1704.73,-242.77 1706.52,-249.53"/>
</g>
<!-- Node4&#45;&gt;Node4 -->
<g id="edge6" class="edge">
<title>Node4&#45;&gt;Node4</title>
<path fill="none" stroke="midnightblue" d="M572.65,-359.22C574.84,-365.63 560.79,-371 530.5,-371 490.11,-371 478.59,-361.46 495.95,-352.61"/>
<polygon fill="midnightblue" stroke="midnightblue" points="574.9,-356.53 565.05,-352.61 570.3,-361.81 574.9,-356.53"/>
</g>
<!-- Node4&#45;&gt;Node5 -->
<g id="edge7" class="edge">
<title>Node4&#45;&gt;Node5</title>
<path fill="none" stroke="midnightblue" d="M477.44,-330.94C463.56,-327.4 448.63,-323.32 435,-319 394.52,-306.17 348.6,-287.78 321.81,-276.66"/>
<polygon fill="midnightblue" stroke="midnightblue" points="476.79,-334.38 487.34,-333.41 478.48,-327.59 476.79,-334.38"/>
</g>
<!-- Node5&#45;&gt;Node5 -->
<g id="edge8" class="edge">
<title>Node5&#45;&gt;Node5</title>
<path fill="none" stroke="midnightblue" d="M338.4,-283.62C339.81,-289.86 326.35,-295 298,-295 259.4,-295 248.39,-285.46 264.98,-276.61"/>
<polygon fill="midnightblue" stroke="midnightblue" points="340.68,-280.96 331.02,-276.61 335.86,-286.04 340.68,-280.96"/>
</g>
<!-- Node6&#45;&gt;Node6 -->
<g id="edge11" class="edge">
<title>Node6&#45;&gt;Node6</title>
<path fill="none" stroke="midnightblue" d="M1633.88,-140.65C1632.76,-145.94 1623.8,-150 1607,-150 1581.41,-150 1574.01,-140.57 1584.81,-131.76"/>
<polygon fill="midnightblue" stroke="midnightblue" points="1636.95,-138.97 1629.19,-131.76 1630.76,-142.24 1636.95,-138.97"/>
</g>
<!-- Node7&#45;&gt;Node7 -->
<g id="edge13" class="edge">
<title>Node7&#45;&gt;Node7</title>
<path fill="none" stroke="midnightblue" d="M1633.88,-84.65C1632.76,-89.94 1623.8,-94 1607,-94 1581.41,-94 1574.01,-84.57 1584.81,-75.76"/>
<polygon fill="midnightblue" stroke="midnightblue" points="1636.95,-82.97 1629.19,-75.76 1630.76,-86.24 1636.95,-82.97"/>
</g>
<!-- Node8&#45;&gt;Node5 -->
<g id="edge61" class="edge">
<title>Node8&#45;&gt;Node5</title>
<path fill="none" stroke="midnightblue" d="M1564.8,-169.12C1558.72,-166.55 1552.87,-163.25 1548,-159 1520.44,-134.96 1542.26,-105.55 1512,-85 1418.9,-21.78 1372.04,-66 1259.5,-66 1259.5,-66 1259.5,-66 756,-66 563.58,-66 361.22,-217.15 310.86,-257.31"/>
<polygon fill="midnightblue" stroke="midnightblue" points="1563.84,-172.5 1574.43,-172.58 1566.2,-165.91 1563.84,-172.5"/>
</g>
<!-- Node8&#45;&gt;Node8 -->
<g id="edge60" class="edge">
<title>Node8&#45;&gt;Node8</title>
<path fill="none" stroke="midnightblue" d="M1633.88,-196.65C1632.76,-201.94 1623.8,-206 1607,-206 1581.41,-206 1574.01,-196.57 1584.81,-187.76"/>
<polygon fill="midnightblue" stroke="midnightblue" points="1636.95,-194.97 1629.19,-187.76 1630.76,-198.24 1636.95,-194.97"/>
</g>
<!-- Node9 -->
<g id="node9" class="node">
<title>Node9</title>
<g id="a_node9"><a xlink:href="classrare_1_1models_1_1game_1_1_rare_game.html#ae7613f0ab037b52049792ff9ea7f8f65" target="_top" xlink:title=" ">
<polygon fill="white" stroke="black" points="1333,-150.5 1333,-169.5 1512,-169.5 1512,-150.5 1333,-150.5"/>
<text text-anchor="middle" x="1422.5" y="-157.5" font-family="Helvetica,sans-Serif" font-size="10.00">rare.models.game.RareGame.can_run</text>
</a>
</g>
</g>
<!-- Node8&#45;&gt;Node9 -->
<g id="edge15" class="edge">
<title>Node8&#45;&gt;Node9</title>
<path fill="none" stroke="midnightblue" d="M1563.94,-173.85C1548.44,-172.32 1530.23,-170.53 1512.16,-168.74"/>
<polygon fill="midnightblue" stroke="midnightblue" points="1563.92,-177.37 1574.21,-174.86 1564.6,-170.4 1563.92,-177.37"/>
</g>
<!-- Node10 -->
<g id="node10" class="node">
<title>Node10</title>
<g id="a_node10"><a xlink:href="classlegendary_1_1core_1_1_legendary_core.html#a2a0af57c41cdfa32a8125ace5e6a84c2" target="_top" xlink:title=" ">
<polygon fill="white" stroke="black" points="1373.5,-206.5 1373.5,-225.5 1471.5,-225.5 1471.5,-206.5 1373.5,-206.5"/>
<text text-anchor="middle" x="1422.5" y="-213.5" font-family="Helvetica,sans-Serif" font-size="10.00">egl_get_importable</text>
</a>
</g>
</g>
<!-- Node8&#45;&gt;Node10 -->
<g id="edge17" class="edge">
<title>Node8&#45;&gt;Node10</title>
<path fill="none" stroke="midnightblue" d="M1564.22,-186.7C1535.88,-192.6 1498.43,-200.4 1469.29,-206.47"/>
<polygon fill="midnightblue" stroke="midnightblue" points="1565.13,-190.08 1574.21,-184.62 1563.71,-183.23 1565.13,-190.08"/>
</g>
<!-- Node11 -->
<g id="node11" class="node">
<title>Node11</title>
<g id="a_node11"><a xlink:href="classlegendary_1_1core_1_1_legendary_core.html#a9d951e740eb66c73c62e200669f9e819" target="_top" xlink:title=" ">
<polygon fill="white" stroke="black" points="1364.5,-94.5 1364.5,-113.5 1480.5,-113.5 1480.5,-94.5 1364.5,-94.5"/>
<text text-anchor="middle" x="1422.5" y="-101.5" font-family="Helvetica,sans-Serif" font-size="10.00">get_game_and_dlc_list</text>
</a>
</g>
</g>
<!-- Node8&#45;&gt;Node11 -->
<g id="edge19" class="edge">
<title>Node8&#45;&gt;Node11</title>
<path fill="none" stroke="midnightblue" d="M1564.88,-165.36C1559.16,-163.36 1553.4,-161.22 1548,-159 1531.46,-152.2 1528.26,-148.45 1512,-141 1490.5,-131.15 1465.62,-120.84 1447.73,-113.61"/>
<polygon fill="midnightblue" stroke="midnightblue" points="1563.79,-168.69 1574.39,-168.58 1566.04,-162.06 1563.79,-168.69"/>
</g>
<!-- Node8&#45;&gt;Node28 -->
<g id="edge62" class="edge">
<title>Node8&#45;&gt;Node28</title>
<path fill="none" stroke="midnightblue" d="M1583.62,-193.3C1572.66,-201.02 1559.4,-210.7 1548,-220 1531.18,-233.72 1531.29,-243.04 1512,-253 1495.11,-261.73 1474.41,-266.45 1457.28,-269"/>
<polygon fill="midnightblue" stroke="midnightblue" points="1585.63,-196.16 1591.83,-187.58 1581.63,-190.42 1585.63,-196.16"/>
</g>
<!-- Node9&#45;&gt;Node9 -->
<g id="edge16" class="edge">
<title>Node9&#45;&gt;Node9</title>
<path fill="none" stroke="midnightblue" d="M1453.19,-178.27C1452.31,-183.74 1442.08,-188 1422.5,-188 1393.35,-188 1384.93,-178.57 1397.22,-169.76"/>
<polygon fill="midnightblue" stroke="midnightblue" points="1456.09,-176.32 1447.78,-169.76 1450.19,-180.07 1456.09,-176.32"/>
</g>
<!-- Node10&#45;&gt;Node10 -->
<g id="edge18" class="edge">
<title>Node10&#45;&gt;Node10</title>
<path fill="none" stroke="midnightblue" d="M1453.19,-234.27C1452.31,-239.74 1442.08,-244 1422.5,-244 1393.35,-244 1384.93,-234.57 1397.22,-225.76"/>
<polygon fill="midnightblue" stroke="midnightblue" points="1456.09,-232.32 1447.78,-225.76 1450.19,-236.07 1456.09,-232.32"/>
</g>
<!-- Node11&#45;&gt;Node11 -->
<g id="edge22" class="edge">
<title>Node11&#45;&gt;Node11</title>
<path fill="none" stroke="midnightblue" d="M1453.19,-122.27C1452.31,-127.74 1442.08,-132 1422.5,-132 1393.35,-132 1384.93,-122.57 1397.22,-113.76"/>
<polygon fill="midnightblue" stroke="midnightblue" points="1456.09,-120.32 1447.78,-113.76 1450.19,-124.07 1456.09,-120.32"/>
</g>
<!-- Node12 -->
<g id="node12" class="node">
<title>Node12</title>
<g id="a_node12"><a xlink:href="classlegendary_1_1core_1_1_legendary_core.html#af61a2323cf70b55aeed6b23c43b80b7b" target="_top" xlink:title=" ">
<polygon fill="white" stroke="black" points="995,-103.5 995,-122.5 1089,-122.5 1089,-103.5 995,-103.5"/>
<text text-anchor="middle" x="1042" y="-110.5" font-family="Helvetica,sans-Serif" font-size="10.00">get_dlc_for_game</text>
</a>
</g>
</g>
<!-- Node11&#45;&gt;Node12 -->
<g id="edge20" class="edge">
<title>Node11&#45;&gt;Node12</title>
<path fill="none" stroke="midnightblue" d="M1353.97,-105.61C1277.63,-107.42 1155.39,-110.33 1089.2,-111.9"/>
<polygon fill="midnightblue" stroke="midnightblue" points="1354.51,-109.09 1364.42,-105.36 1354.34,-102.1 1354.51,-109.09"/>
</g>
<!-- Node13 -->
<g id="node13" class="node">
<title>Node13</title>
<g id="a_node13"><a xlink:href="classlegendary_1_1core_1_1_legendary_core.html#af3d3c0bc12d5c34eaea1d16c62b400ca" target="_top" xlink:title=" ">
<polygon fill="white" stroke="black" points="1220,-132.5 1220,-151.5 1297,-151.5 1297,-132.5 1220,-132.5"/>
<text text-anchor="middle" x="1258.5" y="-139.5" font-family="Helvetica,sans-Serif" font-size="10.00">get_game_list</text>
</a>
</g>
</g>
<!-- Node11&#45;&gt;Node13 -->
<g id="edge23" class="edge">
<title>Node11&#45;&gt;Node13</title>
<path fill="none" stroke="midnightblue" d="M1370.68,-115.92C1346.84,-121.51 1318.93,-128.06 1297.04,-133.2"/>
<polygon fill="midnightblue" stroke="midnightblue" points="1371.68,-119.28 1380.62,-113.59 1370.09,-112.47 1371.68,-119.28"/>
</g>
<!-- Node12&#45;&gt;Node12 -->
<g id="edge21" class="edge">
<title>Node12&#45;&gt;Node12</title>
<path fill="none" stroke="midnightblue" d="M1062.74,-132.4C1061.35,-137.31 1054.44,-141 1042,-141 1022.09,-141 1016.34,-131.57 1024.74,-122.76"/>
<polygon fill="midnightblue" stroke="midnightblue" points="1065.95,-130.98 1059.26,-122.76 1059.36,-133.35 1065.95,-130.98"/>
</g>
<!-- Node13&#45;&gt;Node13 -->
<g id="edge59" class="edge">
<title>Node13&#45;&gt;Node13</title>
<path fill="none" stroke="midnightblue" d="M1277.76,-161.4C1276.47,-166.31 1270.05,-170 1258.5,-170 1240.02,-170 1234.67,-160.57 1242.47,-151.76"/>
<polygon fill="midnightblue" stroke="midnightblue" points="1281.02,-160.13 1274.53,-151.76 1274.39,-162.35 1281.02,-160.13"/>
</g>
<!-- Node14 -->
<g id="node14" class="node">
<title>Node14</title>
<g id="a_node14"><a xlink:href="classlegendary_1_1core_1_1_legendary_core.html#ade5d8c8f28d886b75f06818173f72439" target="_top" xlink:title=" ">
<polygon fill="white" stroke="black" points="1125,-175.5 1125,-194.5 1184,-194.5 1184,-175.5 1125,-175.5"/>
<text text-anchor="middle" x="1154.5" y="-182.5" font-family="Helvetica,sans-Serif" font-size="10.00">get_game</text>
</a>
</g>
</g>
<!-- Node13&#45;&gt;Node14 -->
<g id="edge24" class="edge">
<title>Node13&#45;&gt;Node14</title>
<path fill="none" stroke="midnightblue" d="M1225.23,-155.6C1209.89,-162.07 1191.93,-169.64 1178.07,-175.48"/>
<polygon fill="midnightblue" stroke="midnightblue" points="1227.01,-158.65 1234.86,-151.54 1224.29,-152.2 1227.01,-158.65"/>
</g>
<!-- Node14&#45;&gt;Node5 -->
<g id="edge58" class="edge">
<title>Node14&#45;&gt;Node5</title>
<path fill="none" stroke="midnightblue" d="M1114.95,-181.75C1069.46,-178.19 991.54,-173 924.5,-173 924.5,-173 924.5,-173 756,-173 589.54,-173 395.84,-233.57 325.9,-257.47"/>
<polygon fill="midnightblue" stroke="midnightblue" points="1114.72,-185.24 1124.96,-182.54 1115.27,-178.26 1114.72,-185.24"/>
</g>
<!-- Node14&#45;&gt;Node11 -->
<g id="edge55" class="edge">
<title>Node14&#45;&gt;Node11</title>
<path fill="none" stroke="midnightblue" d="M1194.38,-190.97C1223.88,-193.74 1264.72,-193.7 1297,-179 1318.17,-169.36 1313.85,-154.22 1333,-141 1350.41,-128.98 1372.32,-119.78 1389.99,-113.56"/>
<polygon fill="midnightblue" stroke="midnightblue" points="1194.38,-187.45 1184.06,-189.85 1193.62,-194.41 1194.38,-187.45"/>
</g>
<!-- Node14&#45;&gt;Node12 -->
<g id="edge53" class="edge">
<title>Node14&#45;&gt;Node12</title>
<path fill="none" stroke="midnightblue" d="M1130.19,-169.81C1108.29,-155.54 1076.19,-134.63 1057.67,-122.56"/>
<polygon fill="midnightblue" stroke="midnightblue" points="1128.31,-172.76 1138.6,-175.29 1132.13,-166.9 1128.31,-172.76"/>
</g>
<!-- Node14&#45;&gt;Node14 -->
<g id="edge54" class="edge">
<title>Node14&#45;&gt;Node14</title>
<path fill="none" stroke="midnightblue" d="M1173.76,-204.4C1172.47,-209.31 1166.05,-213 1154.5,-213 1136.02,-213 1130.67,-203.57 1138.47,-194.76"/>
<polygon fill="midnightblue" stroke="midnightblue" points="1177.02,-203.13 1170.53,-194.76 1170.39,-205.35 1177.02,-203.13"/>
</g>
<!-- Node15 -->
<g id="node15" class="node">
<title>Node15</title>
<g id="a_node15"><a xlink:href="classlegendary_1_1core_1_1_legendary_core.html#af7515f96f174207e59d14b1e1c288aad" target="_top" xlink:title=" ">
<polygon fill="white" stroke="black" points="1011.5,-485.5 1011.5,-504.5 1072.5,-504.5 1072.5,-485.5 1011.5,-485.5"/>
<text text-anchor="middle" x="1042" y="-492.5" font-family="Helvetica,sans-Serif" font-size="10.00">egl_export</text>
</a>
</g>
</g>
<!-- Node14&#45;&gt;Node15 -->
<g id="edge25" class="edge">
<title>Node14&#45;&gt;Node15</title>
<path fill="none" stroke="midnightblue" d="M1146.64,-204.25C1125.49,-263.58 1061.81,-442.24 1046.39,-485.49"/>
<polygon fill="midnightblue" stroke="midnightblue" points="1150.01,-205.21 1150.07,-194.62 1143.42,-202.86 1150.01,-205.21"/>
</g>
<!-- Node27 -->
<g id="node27" class="node">
<title>Node27</title>
<g id="a_node27"><a xlink:href="classlegendary_1_1core_1_1_legendary_core.html#a81e4b355cd5b8015fecd975ae0322f65" target="_top" xlink:title=" ">
<polygon fill="white" stroke="black" points="1005,-201.5 1005,-220.5 1079,-220.5 1079,-201.5 1005,-201.5"/>
<text text-anchor="middle" x="1042" y="-208.5" font-family="Helvetica,sans-Serif" font-size="10.00">get_origin_uri</text>
</a>
</g>
</g>
<!-- Node14&#45;&gt;Node27 -->
<g id="edge56" class="edge">
<title>Node14&#45;&gt;Node27</title>
<path fill="none" stroke="midnightblue" d="M1114.89,-194.09C1103.27,-196.82 1090.57,-199.81 1079.12,-202.5"/>
<polygon fill="midnightblue" stroke="midnightblue" points="1115.82,-197.46 1124.76,-191.76 1114.22,-190.65 1115.82,-197.46"/>
</g>
<!-- Node15&#45;&gt;Node1 -->
<g id="edge27" class="edge">
<title>Node15&#45;&gt;Node1</title>
<path fill="none" stroke="midnightblue" d="M1082.8,-501.24C1125.78,-507.43 1196.32,-516 1257.5,-516 1753.5,-516 1753.5,-516 1753.5,-516 1817.39,-516 1890.37,-505.67 1937.82,-497.56"/>
<polygon fill="midnightblue" stroke="midnightblue" points="1083.15,-497.76 1072.75,-499.77 1082.14,-504.68 1083.15,-497.76"/>
</g>
<!-- Node15&#45;&gt;Node15 -->
<g id="edge26" class="edge">
<title>Node15&#45;&gt;Node15</title>
<path fill="none" stroke="midnightblue" d="M1062.74,-514.4C1061.35,-519.31 1054.44,-523 1042,-523 1022.09,-523 1016.34,-513.57 1024.74,-504.76"/>
<polygon fill="midnightblue" stroke="midnightblue" points="1065.95,-512.98 1059.26,-504.76 1059.36,-515.35 1065.95,-512.98"/>
</g>
<!-- Node16 -->
<g id="node16" class="node">
<title>Node16</title>
<g id="a_node16"><a xlink:href="classlegendary_1_1core_1_1_legendary_core.html#a44321822fb934fa3265d521e6e1dbbc2" target="_top" xlink:title=" ">
<polygon fill="white" stroke="black" points="888,-485.5 888,-504.5 959,-504.5 959,-485.5 888,-485.5"/>
<text text-anchor="middle" x="923.5" y="-492.5" font-family="Helvetica,sans-Serif" font-size="10.00">install_game</text>
</a>
</g>
</g>
<!-- Node15&#45;&gt;Node16 -->
<g id="edge28" class="edge">
<title>Node15&#45;&gt;Node16</title>
<path fill="none" stroke="midnightblue" d="M1001.2,-495C987.52,-495 972.33,-495 959.11,-495"/>
<polygon fill="midnightblue" stroke="midnightblue" points="1001.3,-498.5 1011.3,-495 1001.3,-491.5 1001.3,-498.5"/>
</g>
<!-- Node16&#45;&gt;Node4 -->
<g id="edge29" class="edge">
<title>Node16&#45;&gt;Node4</title>
<path fill="none" stroke="midnightblue" d="M888.28,-481.7C810.73,-451.55 623.14,-378.62 555.95,-352.5"/>
<polygon fill="midnightblue" stroke="midnightblue" points="887.45,-485.13 898.04,-485.49 889.99,-478.61 887.45,-485.13"/>
</g>
<!-- Node16&#45;&gt;Node16 -->
<g id="edge51" class="edge">
<title>Node16&#45;&gt;Node16</title>
<path fill="none" stroke="midnightblue" d="M945.45,-514.03C944.25,-519.13 936.94,-523 923.5,-523 902.53,-523 896.46,-513.57 905.31,-504.76"/>
<polygon fill="midnightblue" stroke="midnightblue" points="948.69,-512.71 941.69,-504.76 942.2,-515.34 948.69,-512.71"/>
</g>
<!-- Node17 -->
<g id="node17" class="node">
<title>Node17</title>
<g id="a_node17"><a xlink:href="classlegendary_1_1cli_1_1_legendary_c_l_i.html#ab6e93bcf0f1422e16132188b8f93af70" target="_top" xlink:title=" ">
<polygon fill="white" stroke="black" points="662,-485.5 662,-504.5 852,-504.5 852,-485.5 662,-485.5"/>
<text text-anchor="middle" x="757" y="-492.5" font-family="Helvetica,sans-Serif" font-size="10.00">legendary.cli.LegendaryCLI.install_game</text>
</a>
</g>
</g>
<!-- Node16&#45;&gt;Node17 -->
<g id="edge30" class="edge">
<title>Node16&#45;&gt;Node17</title>
<path fill="none" stroke="midnightblue" d="M877.46,-495C869.45,-495 860.84,-495 852.04,-495"/>
<polygon fill="midnightblue" stroke="midnightblue" points="877.61,-498.5 887.61,-495 877.61,-491.5 877.61,-498.5"/>
</g>
<!-- Node24 -->
<g id="node24" class="node">
<title>Node24</title>
<g id="a_node24"><a xlink:href="classrare_1_1components_1_1tabs_1_1downloads_1_1_downloads_tab.html#ae7c3da1b257767f97a06a0f0f679036e" target="_top" xlink:title=" ">
<polygon fill="white" stroke="black" points="436,-626 436,-656 625,-656 625,-626 436,-626"/>
<text text-anchor="start" x="444" y="-644" font-family="Helvetica,sans-Serif" font-size="10.00">rare.components.tabs.downloads.</text>
<text text-anchor="middle" x="530.5" y="-633" font-family="Helvetica,sans-Serif" font-size="10.00">DownloadsTab.on_install_dialog_closed</text>
</a>
</g>
</g>
<!-- Node16&#45;&gt;Node24 -->
<g id="edge52" class="edge">
<title>Node16&#45;&gt;Node24</title>
<path fill="none" stroke="midnightblue" d="M896.74,-509.53C883.56,-516.7 867.14,-525.25 852,-532 754.14,-575.65 728.14,-583.59 626,-616 615.08,-619.46 603.35,-622.84 592,-625.93"/>
<polygon fill="midnightblue" stroke="midnightblue" points="898.64,-512.48 905.7,-504.59 895.26,-506.35 898.64,-512.48"/>
</g>
<!-- Node17&#45;&gt;Node4 -->
<g id="edge31" class="edge">
<title>Node17&#45;&gt;Node4</title>
<path fill="none" stroke="midnightblue" d="M728.26,-480.56C708.36,-469.34 681.7,-452.44 662,-433 641.73,-413 648.25,-397.76 626,-380 609.89,-367.14 588.77,-358.31 570.58,-352.5"/>
<polygon fill="midnightblue" stroke="midnightblue" points="726.7,-483.7 737.15,-485.46 730.08,-477.57 726.7,-483.7"/>
</g>
<!-- Node17&#45;&gt;Node17 -->
<g id="edge38" class="edge">
<title>Node17&#45;&gt;Node17</title>
<path fill="none" stroke="midnightblue" d="M788.06,-513.27C787.18,-518.74 776.82,-523 757,-523 727.5,-523 718.97,-513.57 731.41,-504.76"/>
<polygon fill="midnightblue" stroke="midnightblue" points="790.94,-511.27 782.59,-504.76 785.05,-515.06 790.94,-511.27"/>
</g>
<!-- Node18 -->
<g id="node18" class="node">
<title>Node18</title>
<g id="a_node18"><a xlink:href="classlegendary_1_1cli_1_1_legendary_c_l_i.html#ab83dc4a70b642b97fdfe1b8163f10d98" target="_top" xlink:title=" ">
<polygon fill="white" stroke="black" points="442.5,-457.5 442.5,-476.5 618.5,-476.5 618.5,-457.5 442.5,-457.5"/>
<text text-anchor="middle" x="530.5" y="-464.5" font-family="Helvetica,sans-Serif" font-size="10.00">legendary.cli.LegendaryCLI.egs_sync</text>
</a>
</g>
</g>
<!-- Node17&#45;&gt;Node18 -->
<g id="edge32" class="edge">
<title>Node17&#45;&gt;Node18</title>
<path fill="none" stroke="midnightblue" d="M669.52,-484.21C649.25,-481.69 627.79,-479.01 607.99,-476.54"/>
<polygon fill="midnightblue" stroke="midnightblue" points="669.32,-487.72 679.68,-485.48 670.19,-480.77 669.32,-487.72"/>
</g>
<!-- Node19 -->
<g id="node19" class="node">
<title>Node19</title>
<g id="a_node19"><a xlink:href="classlegendary_1_1cli_1_1_legendary_c_l_i.html#aa5b516f4f9831f6af42abf8cfcf5ef3c" target="_top" xlink:title=" ">
<polygon fill="white" stroke="black" points="435,-569.5 435,-588.5 626,-588.5 626,-569.5 435,-569.5"/>
<text text-anchor="middle" x="530.5" y="-576.5" font-family="Helvetica,sans-Serif" font-size="10.00">legendary.cli.LegendaryCLI.import_game</text>
</a>
</g>
</g>
<!-- Node17&#45;&gt;Node19 -->
<g id="edge34" class="edge">
<title>Node17&#45;&gt;Node19</title>
<path fill="none" stroke="midnightblue" d="M731.55,-509.7C706.04,-524.43 664.47,-546.78 626,-560 615,-563.78 603.01,-566.91 591.37,-569.46"/>
<polygon fill="midnightblue" stroke="midnightblue" points="733.32,-512.72 740.19,-504.65 729.79,-506.68 733.32,-512.72"/>
</g>
<!-- Node21 -->
<g id="node21" class="node">
<title>Node21</title>
<g id="a_node21"><a xlink:href="classlegendary_1_1cli_1_1_legendary_c_l_i.html#a3e60a8839a35a1830b0072d365a35970" target="_top" xlink:title=" ">
<polygon fill="white" stroke="black" points="456.5,-390 456.5,-420 604.5,-420 604.5,-390 456.5,-390"/>
<text text-anchor="start" x="464.5" y="-408" font-family="Helvetica,sans-Serif" font-size="10.00">legendary.cli.LegendaryCLI.list</text>
<text text-anchor="middle" x="530.5" y="-397" font-family="Helvetica,sans-Serif" font-size="10.00">_installed</text>
</a>
</g>
</g>
<!-- Node17&#45;&gt;Node21 -->
<g id="edge39" class="edge">
<title>Node17&#45;&gt;Node21</title>
<path fill="none" stroke="midnightblue" d="M722.68,-481.64C681.62,-465.18 612.05,-437.29 569.12,-420.08"/>
<polygon fill="midnightblue" stroke="midnightblue" points="721.39,-484.9 731.97,-485.37 724,-478.4 721.39,-484.9"/>
</g>
<!-- Node22 -->
<g id="node22" class="node">
<title>Node22</title>
<g id="a_node22"><a xlink:href="classlegendary_1_1cli_1_1_legendary_c_l_i.html#a72a86e9e97d577472c8a8af9e4a67949" target="_top" xlink:title=" ">
<polygon fill="white" stroke="black" points="451,-513.5 451,-532.5 610,-532.5 610,-513.5 451,-513.5"/>
<text text-anchor="middle" x="530.5" y="-520.5" font-family="Helvetica,sans-Serif" font-size="10.00">legendary.cli.LegendaryCLI.move</text>
</a>
</g>
</g>
<!-- Node17&#45;&gt;Node22 -->
<g id="edge41" class="edge">
<title>Node17&#45;&gt;Node22</title>
<path fill="none" stroke="midnightblue" d="M669.52,-505.79C649.25,-508.31 627.79,-510.99 607.99,-513.46"/>
<polygon fill="midnightblue" stroke="midnightblue" points="670.19,-509.23 679.68,-504.52 669.32,-502.28 670.19,-509.23"/>
</g>
<!-- Node17&#45;&gt;Node24 -->
<g id="edge45" class="edge">
<title>Node17&#45;&gt;Node24</title>
<path fill="none" stroke="midnightblue" d="M737.94,-511.62C718.98,-529.09 688.32,-557.39 662,-582 645.92,-597.03 645.23,-605.3 626,-616 619.03,-619.88 611.43,-623.17 603.68,-625.97"/>
<polygon fill="midnightblue" stroke="midnightblue" points="740.55,-513.97 745.54,-504.62 735.81,-508.82 740.55,-513.97"/>
</g>
<!-- Node18&#45;&gt;Node18 -->
<g id="edge33" class="edge">
<title>Node18&#45;&gt;Node18</title>
<path fill="none" stroke="midnightblue" d="M572.65,-483.22C574.84,-489.63 560.79,-495 530.5,-495 490.11,-495 478.59,-485.46 495.95,-476.61"/>
<polygon fill="midnightblue" stroke="midnightblue" points="574.9,-480.53 565.05,-476.61 570.3,-485.81 574.9,-480.53"/>
</g>
<!-- Node19&#45;&gt;Node19 -->
<g id="edge35" class="edge">
<title>Node19&#45;&gt;Node19</title>
<path fill="none" stroke="midnightblue" d="M572.65,-595.22C574.84,-601.63 560.79,-607 530.5,-607 490.11,-607 478.59,-597.46 495.95,-588.61"/>
<polygon fill="midnightblue" stroke="midnightblue" points="574.9,-592.53 565.05,-588.61 570.3,-597.81 574.9,-592.53"/>
</g>
<!-- Node20 -->
<g id="node20" class="node">
<title>Node20</title>
<g id="a_node20"><a xlink:href="classrare_1_1components_1_1tabs_1_1games_1_1import__sync_1_1egl__sync__group_1_1_e_g_l_sync_worker.html#ad22709b2e67308af35f55680d5a026e0" target="_top" xlink:title=" ">
<polygon fill="white" stroke="black" points="197,-564 197,-594 399,-594 399,-564 197,-564"/>
<text text-anchor="start" x="205" y="-582" font-family="Helvetica,sans-Serif" font-size="10.00">rare.components.tabs.games.import</text>
<text text-anchor="middle" x="298" y="-571" font-family="Helvetica,sans-Serif" font-size="10.00">_sync.egl_sync_group.EGLSyncWorker.run</text>
</a>
</g>
</g>
<!-- Node19&#45;&gt;Node20 -->
<g id="edge36" class="edge">
<title>Node19&#45;&gt;Node20</title>
<path fill="none" stroke="midnightblue" d="M424.57,-579C416.18,-579 407.72,-579 399.36,-579"/>
<polygon fill="midnightblue" stroke="midnightblue" points="424.75,-582.5 434.75,-579 424.75,-575.5 424.75,-582.5"/>
</g>
<!-- Node20&#45;&gt;Node20 -->
<g id="edge37" class="edge">
<title>Node20&#45;&gt;Node20</title>
<path fill="none" stroke="midnightblue" d="M336.38,-604.46C331.62,-609.18 318.82,-612.5 298,-612.5 263.83,-612.5 251.28,-603.56 260.36,-594.16"/>
<polygon fill="midnightblue" stroke="midnightblue" points="339.85,-603.88 335.64,-594.16 332.87,-604.38 339.85,-603.88"/>
</g>
<!-- Node21&#45;&gt;Node21 -->
<g id="edge40" class="edge">
<title>Node21&#45;&gt;Node21</title>
<path fill="none" stroke="midnightblue" d="M570.66,-430.46C565.67,-435.18 552.29,-438.5 530.5,-438.5 494.75,-438.5 481.62,-429.56 491.11,-420.16"/>
<polygon fill="midnightblue" stroke="midnightblue" points="574.12,-429.87 569.89,-420.16 567.14,-430.39 574.12,-429.87"/>
</g>
<!-- Node22&#45;&gt;Node22 -->
<g id="edge42" class="edge">
<title>Node22&#45;&gt;Node22</title>
<path fill="none" stroke="midnightblue" d="M572.65,-539.22C574.84,-545.63 560.79,-551 530.5,-551 490.11,-551 478.59,-541.46 495.95,-532.61"/>
<polygon fill="midnightblue" stroke="midnightblue" points="574.9,-536.53 565.05,-532.61 570.3,-541.81 574.9,-536.53"/>
</g>
<!-- Node23 -->
<g id="node23" class="node">
<title>Node23</title>
<g id="a_node23"><a xlink:href="classrare_1_1components_1_1main__window_1_1_main_window.html#afc38d280c34aec053559c9e55ade68a0" target="_top" xlink:title=" ">
<polygon fill="white" stroke="black" points="229,-485.5 229,-526.5 367,-526.5 367,-485.5 229,-485.5"/>
<text text-anchor="start" x="237" y="-514.5" font-family="Helvetica,sans-Serif" font-size="10.00">rare.components.main</text>
<text text-anchor="start" x="237" y="-503.5" font-family="Helvetica,sans-Serif" font-size="10.00">_window.MainWindow.show</text>
<text text-anchor="middle" x="298" y="-492.5" font-family="Helvetica,sans-Serif" font-size="10.00">_window_centered</text>
</a>
</g>
</g>
<!-- Node22&#45;&gt;Node23 -->
<g id="edge43" class="edge">
<title>Node22&#45;&gt;Node23</title>
<path fill="none" stroke="midnightblue" d="M440.84,-516.46C416.45,-514.66 390.37,-512.74 367.32,-511.04"/>
<polygon fill="midnightblue" stroke="midnightblue" points="440.59,-519.95 450.82,-517.2 441.1,-512.97 440.59,-519.95"/>
</g>
<!-- Node23&#45;&gt;Node23 -->
<g id="edge44" class="edge">
<title>Node23&#45;&gt;Node23</title>
<path fill="none" stroke="midnightblue" d="M335.16,-536.86C329.64,-541.7 317.25,-545 298,-545 267.2,-545 253.97,-536.54 258.3,-526.86"/>
<polygon fill="midnightblue" stroke="midnightblue" points="338.63,-537.42 337.7,-526.86 331.85,-535.7 338.63,-537.42"/>
</g>
<!-- Node24&#45;&gt;Node24 -->
<g id="edge50" class="edge">
<title>Node24&#45;&gt;Node24</title>
<path fill="none" stroke="midnightblue" d="M570.66,-666.46C565.67,-671.18 552.29,-674.5 530.5,-674.5 494.75,-674.5 481.62,-665.56 491.11,-656.16"/>
<polygon fill="midnightblue" stroke="midnightblue" points="574.12,-665.87 569.89,-656.16 567.14,-666.39 574.12,-665.87"/>
</g>
<!-- Node25 -->
<g id="node25" class="node">
<title>Node25</title>
<g id="a_node25"><a xlink:href="classrare_1_1components_1_1tabs_1_1downloads_1_1_downloads_tab.html#a34dfac3ae00e55c098b07fd107a14daa" target="_top" xlink:title=" ">
<polygon fill="white" stroke="black" points="216,-631 216,-661 380,-661 380,-631 216,-631"/>
<text text-anchor="start" x="224" y="-649" font-family="Helvetica,sans-Serif" font-size="10.00">rare.components.tabs.downloads.</text>
<text text-anchor="middle" x="298" y="-638" font-family="Helvetica,sans-Serif" font-size="10.00">DownloadsTab.get_install_options</text>
</a>
</g>
</g>
<!-- Node24&#45;&gt;Node25 -->
<g id="edge46" class="edge">
<title>Node24&#45;&gt;Node25</title>
<path fill="none" stroke="midnightblue" d="M425.74,-643.25C410.44,-643.58 394.86,-643.92 380.1,-644.24"/>
<polygon fill="midnightblue" stroke="midnightblue" points="425.83,-646.75 435.75,-643.03 425.67,-639.75 425.83,-646.75"/>
</g>
<!-- Node25&#45;&gt;Node25 -->
<g id="edge49" class="edge">
<title>Node25&#45;&gt;Node25</title>
<path fill="none" stroke="midnightblue" d="M336.38,-671.46C331.62,-676.18 318.82,-679.5 298,-679.5 263.83,-679.5 251.28,-670.56 260.36,-661.16"/>
<polygon fill="midnightblue" stroke="midnightblue" points="339.85,-670.88 335.64,-661.16 332.87,-671.38 339.85,-670.88"/>
</g>
<!-- Node26 -->
<g id="node26" class="node">
<title>Node26</title>
<g id="a_node26"><a xlink:href="classrare_1_1components_1_1tabs_1_1downloads_1_1_downloads_tab.html#a83a97ccf6be350f23f2276203f82a5bf" target="_top" xlink:title=" ">
<polygon fill="white" stroke="black" points="0,-631 0,-661 161,-661 161,-631 0,-631"/>
<text text-anchor="start" x="8" y="-649" font-family="Helvetica,sans-Serif" font-size="10.00">rare.components.tabs.downloads.</text>
<text text-anchor="middle" x="80.5" y="-638" font-family="Helvetica,sans-Serif" font-size="10.00">DownloadsTab.add_update</text>
</a>
</g>
</g>
<!-- Node25&#45;&gt;Node26 -->
<g id="edge47" class="edge">
<title>Node25&#45;&gt;Node26</title>
<path fill="none" stroke="midnightblue" d="M205.67,-646C190.88,-646 175.65,-646 161.16,-646"/>
<polygon fill="midnightblue" stroke="midnightblue" points="205.84,-649.5 215.84,-646 205.84,-642.5 205.84,-649.5"/>
</g>
<!-- Node26&#45;&gt;Node26 -->
<g id="edge48" class="edge">
<title>Node26&#45;&gt;Node26</title>
<path fill="none" stroke="midnightblue" d="M118.88,-671.46C114.12,-676.18 101.32,-679.5 80.5,-679.5 46.33,-679.5 33.78,-670.56 42.86,-661.16"/>
<polygon fill="midnightblue" stroke="midnightblue" points="122.35,-670.88 118.14,-661.16 115.37,-671.38 122.35,-670.88"/>
</g>
<!-- Node27&#45;&gt;Node27 -->
<g id="edge57" class="edge">
<title>Node27&#45;&gt;Node27</title>
<path fill="none" stroke="midnightblue" d="M1062.74,-230.4C1061.35,-235.31 1054.44,-239 1042,-239 1022.09,-239 1016.34,-229.57 1024.74,-220.76"/>
<polygon fill="midnightblue" stroke="midnightblue" points="1065.95,-228.98 1059.26,-220.76 1059.36,-231.35 1065.95,-228.98"/>
</g>
<!-- Node28&#45;&gt;Node5 -->
<g id="edge63" class="edge">
<title>Node28&#45;&gt;Node5</title>
<path fill="none" stroke="midnightblue" d="M1377.91,-270.68C1325.22,-269.2 1233.88,-267 1155.5,-267 1155.5,-267 1155.5,-267 756,-267 606.05,-267 428.42,-267 345.71,-267"/>
<polygon fill="midnightblue" stroke="midnightblue" points="1377.82,-274.18 1387.91,-270.96 1378.02,-267.18 1377.82,-274.18"/>
</g>
<!-- Node28&#45;&gt;Node28 -->
<g id="edge64" class="edge">
<title>Node28&#45;&gt;Node28</title>
<path fill="none" stroke="midnightblue" d="M1453.19,-290.27C1452.31,-295.74 1442.08,-300 1422.5,-300 1393.35,-300 1384.93,-290.57 1397.22,-281.76"/>
<polygon fill="midnightblue" stroke="midnightblue" points="1456.09,-288.32 1447.78,-281.76 1450.19,-292.07 1456.09,-288.32"/>
</g>
<!-- Node29&#45;&gt;Node29 -->
<g id="edge66" class="edge">
<title>Node29&#45;&gt;Node29</title>
<path fill="none" stroke="midnightblue" d="M1633.88,-28.65C1632.76,-33.94 1623.8,-38 1607,-38 1581.41,-38 1574.01,-28.57 1584.81,-19.76"/>
<polygon fill="midnightblue" stroke="midnightblue" points="1636.95,-26.97 1629.19,-19.76 1630.76,-30.24 1636.95,-26.97"/>
</g>
<!-- Node30&#45;&gt;Node30 -->
<g id="edge69" class="edge">
<title>Node30&#45;&gt;Node30</title>
<path fill="none" stroke="midnightblue" d="M1633.88,-290.65C1632.76,-295.94 1623.8,-300 1607,-300 1581.41,-300 1574.01,-290.57 1584.81,-281.76"/>
<polygon fill="midnightblue" stroke="midnightblue" points="1636.95,-288.97 1629.19,-281.76 1630.76,-292.24 1636.95,-288.97"/>
</g>
<!-- Node31&#45;&gt;Node31 -->
<g id="edge76" class="edge">
<title>Node31&#45;&gt;Node31</title>
<path fill="none" stroke="midnightblue" d="M1773.61,-451.4C1772.2,-456.31 1765.16,-460 1752.5,-460 1732.24,-460 1726.38,-450.57 1734.93,-441.76"/>
<polygon fill="midnightblue" stroke="midnightblue" points="1776.8,-449.94 1770.07,-441.76 1770.23,-452.35 1776.8,-449.94"/>
</g>
<!-- Node32 -->
<g id="node32" class="node">
<title>Node32</title>
<g id="a_node32"><a xlink:href="classlegendary_1_1core_1_1_legendary_core.html#a7251c82b5cb1e5e663108c32f3f0e8de" target="_top" xlink:title=" ">
<polygon fill="white" stroke="black" points="1558,-394.5 1558,-413.5 1656,-413.5 1656,-394.5 1558,-394.5"/>
<text text-anchor="middle" x="1607" y="-401.5" font-family="Helvetica,sans-Serif" font-size="10.00">egl_get_exportable</text>
</a>
</g>
</g>
<!-- Node31&#45;&gt;Node32 -->
<g id="edge72" class="edge">
<title>Node31&#45;&gt;Node32</title>
<path fill="none" stroke="midnightblue" d="M1697.47,-421.46C1683.87,-418.8 1669.36,-415.97 1656.06,-413.38"/>
<polygon fill="midnightblue" stroke="midnightblue" points="1697.18,-424.97 1707.67,-423.45 1698.52,-418.1 1697.18,-424.97"/>
</g>
<!-- Node33 -->
<g id="node33" class="node">
<title>Node33</title>
<g id="a_node33"><a xlink:href="classlegendary_1_1core_1_1_legendary_core.html#a9a1328e97704fa34e612fdd83a765587" target="_top" xlink:title=" ">
<polygon fill="white" stroke="black" points="1553.5,-450.5 1553.5,-469.5 1660.5,-469.5 1660.5,-450.5 1553.5,-450.5"/>
<text text-anchor="middle" x="1607" y="-457.5" font-family="Helvetica,sans-Serif" font-size="10.00">get_installed_dlc_list</text>
</a>
</g>
</g>
<!-- Node31&#45;&gt;Node33 -->
<g id="edge74" class="edge">
<title>Node31&#45;&gt;Node33</title>
<path fill="none" stroke="midnightblue" d="M1697.63,-442.51C1684.24,-445.12 1669.96,-447.91 1656.82,-450.47"/>
<polygon fill="midnightblue" stroke="midnightblue" points="1698.52,-445.9 1707.67,-440.55 1697.18,-439.03 1698.52,-445.9"/>
</g>
<!-- Node32&#45;&gt;Node32 -->
<g id="edge73" class="edge">
<title>Node32&#45;&gt;Node32</title>
<path fill="none" stroke="midnightblue" d="M1633.88,-422.65C1632.76,-427.94 1623.8,-432 1607,-432 1581.41,-432 1574.01,-422.57 1584.81,-413.76"/>
<polygon fill="midnightblue" stroke="midnightblue" points="1636.95,-420.97 1629.19,-413.76 1630.76,-424.24 1636.95,-420.97"/>
</g>
<!-- Node33&#45;&gt;Node33 -->
<g id="edge75" class="edge">
<title>Node33&#45;&gt;Node33</title>
<path fill="none" stroke="midnightblue" d="M1633.88,-478.65C1632.76,-483.94 1623.8,-488 1607,-488 1581.41,-488 1574.01,-478.57 1584.81,-469.76"/>
<polygon fill="midnightblue" stroke="midnightblue" points="1636.95,-476.97 1629.19,-469.76 1630.76,-480.24 1636.95,-476.97"/>
</g>
</g>
</svg>
        <g id="navigator" transform="translate(0 0)" fill="#404254">
                <rect fill="#f2f5e9" fill-opacity="0.5" stroke="#606060" stroke-width=".5" x="0" y="0" width="60" height="60"/>
                <use id="zoomplus" xlink:href="#zoomPlus" x="17" y="9" onmousedown="handleZoom(evt,'in')"/>
                <use id="zoomminus" xlink:href="#zoomMin" x="42" y="9" onmousedown="handleZoom(evt,'out')"/>
                <use id="reset" xlink:href="#resetDef" x="30" y="36" onmousedown="handleReset()"/>
                <g id="arrowUp" xlink:href="#dirArrow" transform="translate(30 24)" onmousedown="handlePan(0,-1)">
                  <use xlink:href="#rim" fill="#404040">
                        <set attributeName="fill" to="#808080" begin="arrowUp.mouseover" end="arrowUp.mouseout"/>
                  </use>
                  <path fill="none" stroke="white" stroke-width="1.5" d="M0,-3.0v7 M-2.5,-0.5L0,-3.0L2.5,-0.5"/>
                </g>
                <g id="arrowRight" xlink:href="#dirArrow" transform="rotate(90) translate(36 -43)" onmousedown="handlePan(1,0)">
                  <use xlink:href="#rim" fill="#404040">
                        <set attributeName="fill" to="#808080" begin="arrowRight.mouseover" end="arrowRight.mouseout"/>
                  </use>
                  <path fill="none" stroke="white" stroke-width="1.5" d="M0,-3.0v7 M-2.5,-0.5L0,-3.0L2.5,-0.5"/>
                </g>
                <g id="arrowDown" xlink:href="#dirArrow" transform="rotate(180) translate(-30 -48)" onmousedown="handlePan(0,1)">
                  <use xlink:href="#rim" fill="#404040">
                        <set attributeName="fill" to="#808080" begin="arrowDown.mouseover" end="arrowDown.mouseout"/>
                  </use>
                  <path fill="none" stroke="white" stroke-width="1.5" d="M0,-3.0v7 M-2.5,-0.5L0,-3.0L2.5,-0.5"/>
                </g>
                <g id="arrowLeft" xlink:href="#dirArrow" transform="rotate(270) translate(-36 17)" onmousedown="handlePan(-1,0)">
                  <use xlink:href="#rim" fill="#404040">
                        <set attributeName="fill" to="#808080" begin="arrowLeft.mouseover" end="arrowLeft.mouseout"/>
                  </use>
                  <path fill="none" stroke="white" stroke-width="1.5" d="M0,-3.0v7 M-2.5,-0.5L0,-3.0L2.5,-0.5"/>
                </g>
        </g>
        <svg viewBox="0 0 15 15" width="100%" height="30px" preserveAspectRatio="xMaxYMin meet">
         <g id="arrow_out" transform="scale(0.3 0.3)">
          <a xlink:href="classlegendary_1_1core_1_1_legendary_core_af529a47488667ff596456b66bc01a5c6_icgraph_org.svg" target="_base">
           <rect id="button" ry="5" rx="5" y="6" x="6" height="38" width="38"
                fill="#f2f5e9" fill-opacity="0.5" stroke="#606060" stroke-width="1.0"/>
           <path id="arrow"
             d="M 11.500037,31.436501 C 11.940474,20.09759 22.043105,11.32322 32.158766,21.979434 L 37.068811,17.246167 C 37.068811,17.246167 37.088388,32 37.088388,32 L 22.160133,31.978069 C 22.160133,31.978069 26.997745,27.140456 26.997745,27.140456 C 18.528582,18.264221 13.291696,25.230495 11.500037,31.436501 z"
             style="fill:#404040;"/>
          </a>
         </g>
        </svg>
</svg>
