<?xml version="1.0" encoding="UTF-8" standalone="no"?>
<!DOCTYPE svg PUBLIC "-//W3C//DTD SVG 1.1//EN"
 "http://www.w3.org/Graphics/SVG/1.1/DTD/svg11.dtd">
<!-- Generated by graphviz version 2.49.3 (20211027.1534)
 -->
<!-- Title: add_game Pages: 1 -->
<svg width="236pt" height="57pt"
 viewBox="0.00 0.00 236.00 57.00" xmlns="http://www.w3.org/2000/svg" xmlns:xlink="http://www.w3.org/1999/xlink">
<g id="graph0" class="graph" transform="scale(1 1) rotate(0) translate(4 53)">
<title>add_game</title>
<polygon fill="white" stroke="transparent" points="-4,4 -4,-53 232,-53 232,4 -4,4"/>
<!-- Node1 -->
<g id="node1" class="node">
<title>Node1</title>
<g id="a_node1"><a xlink:title=" ">
<polygon fill="#bfbfbf" stroke="black" points="166,-6 166,-25 228,-25 228,-6 166,-6"/>
<text text-anchor="middle" x="197" y="-13" font-family="Helvetica,sans-Serif" font-size="10.00">add_game</text>
</a>
</g>
</g>
<!-- Node1&#45;&gt;Node1 -->
<g id="edge3" class="edge">
<title>Node1&#45;&gt;Node1</title>
<path fill="none" stroke="midnightblue" d="M221.55,-34.53C220.21,-39.63 212.03,-43.5 197,-43.5 173.54,-43.5 166.76,-34.07 176.65,-25.26"/>
<polygon fill="midnightblue" stroke="midnightblue" points="224.67,-32.92 217.35,-25.26 218.29,-35.81 224.67,-32.92"/>
</g>
<!-- Node2 -->
<g id="node2" class="node">
<title>Node2</title>
<g id="a_node2"><a xlink:href="classrare_1_1shared_1_1rare__core_1_1_rare_core.html#a273a54ccfdf33df3cdb14f78914802d4" target="_top" xlink:title=" ">
<polygon fill="white" stroke="black" points="0,-0.5 0,-30.5 130,-30.5 130,-0.5 0,-0.5"/>
<text text-anchor="start" x="8" y="-18.5" font-family="Helvetica,sans-Serif" font-size="10.00">rare.shared.rare_core.Rare</text>
<text text-anchor="middle" x="65" y="-7.5" font-family="Helvetica,sans-Serif" font-size="10.00">Core.add_game</text>
</a>
</g>
</g>
<!-- Node1&#45;&gt;Node2 -->
<g id="edge1" class="edge">
<title>Node1&#45;&gt;Node2</title>
<path fill="none" stroke="midnightblue" d="M155.6,-15.5C147.5,-15.5 138.8,-15.5 130.12,-15.5"/>
<polygon fill="midnightblue" stroke="midnightblue" points="155.85,-19 165.85,-15.5 155.85,-12 155.85,-19"/>
</g>
<!-- Node2&#45;&gt;Node2 -->
<g id="edge2" class="edge">
<title>Node2&#45;&gt;Node2</title>
<path fill="none" stroke="midnightblue" d="M88.45,-40.96C85.54,-45.68 77.73,-49 65,-49 44.12,-49 36.45,-40.06 42,-30.66"/>
<polygon fill="midnightblue" stroke="midnightblue" points="91.94,-40.5 88,-30.66 84.94,-40.8 91.94,-40.5"/>
</g>
</g>
</svg>
