<?xml version="1.0" encoding="UTF-8" standalone="no"?>
<!DOCTYPE svg PUBLIC "-//W3C//DTD SVG 1.1//EN"
 "http://www.w3.org/Graphics/SVG/1.1/DTD/svg11.dtd">
<!-- Generated by graphviz version 2.49.3 (20211027.1534)
 -->
<!-- Title: retranslateUi Pages: 1 -->
<svg width="432pt" height="57pt"
 viewBox="0.00 0.00 432.00 57.00" xmlns="http://www.w3.org/2000/svg" xmlns:xlink="http://www.w3.org/1999/xlink">
<g id="graph0" class="graph" transform="scale(1 1) rotate(0) translate(4 53)">
<title>retranslateUi</title>
<polygon fill="white" stroke="transparent" points="-4,4 -4,-53 428,-53 428,4 -4,4"/>
<!-- Node1 -->
<g id="node1" class="node">
<title>Node1</title>
<g id="a_node1"><a xlink:title=" ">
<polygon fill="#bfbfbf" stroke="black" points="0,-6 0,-25 72,-25 72,-6 0,-6"/>
<text text-anchor="middle" x="36" y="-13" font-family="Helvetica,sans-Serif" font-size="10.00">retranslateUi</text>
</a>
</g>
</g>
<!-- Node1&#45;&gt;Node1 -->
<g id="edge5" class="edge">
<title>Node1&#45;&gt;Node1</title>
<path fill="none" stroke="midnightblue" d="M12.26,-25.26C0.72,-34.07 8.63,-43.5 36,-43.5 53.96,-43.5 63.54,-39.44 64.75,-34.15"/>
<polygon fill="midnightblue" stroke="midnightblue" points="67.69,-32.25 59.74,-25.26 61.59,-35.69 67.69,-32.25"/>
</g>
<!-- Node2 -->
<g id="node2" class="node">
<title>Node2</title>
<g id="a_node2"><a xlink:href="classrare_1_1components_1_1tabs_1_1games_1_1head__bar_1_1_select_view_widget.html#a4bfff48519307b26beadeeb3050a7d8b" target="_top" xlink:title=" ">
<polygon fill="white" stroke="black" points="108,-0.5 108,-30.5 272,-30.5 272,-0.5 108,-0.5"/>
<text text-anchor="start" x="116" y="-18.5" font-family="Helvetica,sans-Serif" font-size="10.00">rare.components.tabs.games.head</text>
<text text-anchor="middle" x="190" y="-7.5" font-family="Helvetica,sans-Serif" font-size="10.00">_bar.SelectViewWidget.list</text>
</a>
</g>
</g>
<!-- Node1&#45;&gt;Node2 -->
<g id="edge1" class="edge">
<title>Node1&#45;&gt;Node2</title>
<path fill="none" stroke="midnightblue" d="M72.25,-15.5C80.09,-15.5 88.75,-15.5 97.7,-15.5"/>
<polygon fill="midnightblue" stroke="midnightblue" points="97.91,-19 107.91,-15.5 97.91,-12 97.91,-19"/>
</g>
<!-- Node2&#45;&gt;Node2 -->
<g id="edge2" class="edge">
<title>Node2&#45;&gt;Node2</title>
<path fill="none" stroke="midnightblue" d="M163.16,-30.66C156.69,-40.06 165.64,-49 190,-49 204.85,-49 213.97,-45.68 217.36,-40.96"/>
<polygon fill="midnightblue" stroke="midnightblue" points="220.84,-40.47 216.84,-30.66 213.85,-40.82 220.84,-40.47"/>
</g>
<!-- Node3 -->
<g id="node3" class="node">
<title>Node3</title>
<g id="a_node3"><a xlink:href="namespacerare_1_1utils_1_1misc.html#ad964a362f511f9be2d6532129e7bf731" target="_top" xlink:title=" ">
<polygon fill="white" stroke="black" points="308,-6 308,-25 424,-25 424,-6 308,-6"/>
<text text-anchor="middle" x="366" y="-13" font-family="Helvetica,sans-Serif" font-size="10.00">rare.utils.misc.qta_icon</text>
</a>
</g>
</g>
<!-- Node2&#45;&gt;Node3 -->
<g id="edge3" class="edge">
<title>Node2&#45;&gt;Node3</title>
<path fill="none" stroke="midnightblue" d="M272.14,-15.5C280.71,-15.5 289.35,-15.5 297.73,-15.5"/>
<polygon fill="midnightblue" stroke="midnightblue" points="297.81,-19 307.81,-15.5 297.81,-12 297.81,-19"/>
</g>
<!-- Node3&#45;&gt;Node3 -->
<g id="edge4" class="edge">
<title>Node3&#45;&gt;Node3</title>
<path fill="none" stroke="midnightblue" d="M338.87,-25.26C325.68,-34.07 334.72,-43.5 366,-43.5 387.51,-43.5 398.5,-39.04 398.98,-33.39"/>
<polygon fill="midnightblue" stroke="midnightblue" points="401.81,-31.33 393.13,-25.26 396.13,-35.42 401.81,-31.33"/>
</g>
</g>
</svg>
