<?xml version="1.0" encoding="UTF-8" standalone="no"?>
<!DOCTYPE svg PUBLIC "-//W3C//DTD SVG 1.1//EN"
 "http://www.w3.org/Graphics/SVG/1.1/DTD/svg11.dtd">
<!-- Generated by graphviz version 2.49.3 (20211027.1534)
 -->
<!-- Title: StoreItemWidget Pages: 1 -->
<svg width="136pt" height="662pt"
 viewBox="0.00 0.00 136.00 662.00" xmlns="http://www.w3.org/2000/svg" xmlns:xlink="http://www.w3.org/1999/xlink">
<g id="graph0" class="graph" transform="scale(1 1) rotate(0) translate(4 658)">
<title>StoreItemWidget</title>
<polygon fill="white" stroke="transparent" points="-4,4 -4,-658 132,-658 132,4 -4,4"/>
<!-- Node1 -->
<g id="node1" class="node">
<title>Node1</title>
<g id="a_node1"><a xlink:title=" ">
<polygon fill="#bfbfbf" stroke="black" points="19.5,-0.5 19.5,-68.5 108.5,-68.5 108.5,-0.5 19.5,-0.5"/>
<text text-anchor="middle" x="64" y="-56.5" font-family="Helvetica,sans-Serif" font-size="10.00">StoreItemWidget</text>
<polyline fill="none" stroke="black" points="19.5,-49.5 108.5,-49.5 "/>
<text text-anchor="middle" x="64" y="-37.5" font-family="Helvetica,sans-Serif" font-size="10.00"> </text>
<polyline fill="none" stroke="black" points="19.5,-30.5 108.5,-30.5 "/>
<text text-anchor="start" x="27.5" y="-18.5" font-family="Helvetica,sans-Serif" font-size="10.00">+ __init__()</text>
<text text-anchor="start" x="27.5" y="-7.5" font-family="Helvetica,sans-Serif" font-size="10.00">+ init_ui()</text>
</a>
</g>
</g>
<!-- Node2 -->
<g id="node2" class="node">
<title>Node2</title>
<g id="a_node2"><a xlink:href="classrare_1_1components_1_1tabs_1_1store_1_1widgets_1_1items_1_1_item_widget.html" target="_top" xlink:title=" ">
<polygon fill="white" stroke="black" points="9,-105.5 9,-184.5 119,-184.5 119,-105.5 9,-105.5"/>
<text text-anchor="middle" x="64" y="-172.5" font-family="Helvetica,sans-Serif" font-size="10.00">ItemWidget</text>
<polyline fill="none" stroke="black" points="9,-165.5 119,-165.5 "/>
<text text-anchor="start" x="17" y="-153.5" font-family="Helvetica,sans-Serif" font-size="10.00">+ catalog_game</text>
<text text-anchor="start" x="17" y="-142.5" font-family="Helvetica,sans-Serif" font-size="10.00">+ show_details</text>
<polyline fill="none" stroke="black" points="9,-135.5 119,-135.5 "/>
<text text-anchor="start" x="17" y="-123.5" font-family="Helvetica,sans-Serif" font-size="10.00">+ __init__()</text>
<text text-anchor="start" x="17" y="-112.5" font-family="Helvetica,sans-Serif" font-size="10.00">+ mousePressEvent()</text>
</a>
</g>
</g>
<!-- Node2&#45;&gt;Node1 -->
<g id="edge1" class="edge">
<title>Node2&#45;&gt;Node1</title>
<path fill="none" stroke="midnightblue" d="M64,-95.35C64,-86.28 64,-77 64,-68.54"/>
<polygon fill="none" stroke="midnightblue" points="60.5,-95.44 64,-105.44 67.5,-95.44 60.5,-95.44"/>
</g>
<!-- Node3 -->
<g id="node3" class="node">
<title>Node3</title>
<g id="a_node3"><a xlink:href="classrare_1_1components_1_1tabs_1_1store_1_1widgets_1_1image_1_1_loading_image_widget.html" target="_top" xlink:title=" ">
<polygon fill="white" stroke="black" points="10,-221.5 10,-311.5 118,-311.5 118,-221.5 10,-221.5"/>
<text text-anchor="middle" x="64" y="-299.5" font-family="Helvetica,sans-Serif" font-size="10.00">LoadingImageWidget</text>
<polyline fill="none" stroke="black" points="10,-292.5 118,-292.5 "/>
<text text-anchor="start" x="18" y="-280.5" font-family="Helvetica,sans-Serif" font-size="10.00">+ ui</text>
<text text-anchor="start" x="18" y="-269.5" font-family="Helvetica,sans-Serif" font-size="10.00">+ spinner</text>
<text text-anchor="start" x="18" y="-258.5" font-family="Helvetica,sans-Serif" font-size="10.00">+ manager</text>
<polyline fill="none" stroke="black" points="10,-251.5 118,-251.5 "/>
<text text-anchor="start" x="18" y="-239.5" font-family="Helvetica,sans-Serif" font-size="10.00">+ __init__()</text>
<text text-anchor="start" x="18" y="-228.5" font-family="Helvetica,sans-Serif" font-size="10.00">+ fetchPixmap()</text>
</a>
</g>
</g>
<!-- Node3&#45;&gt;Node2 -->
<g id="edge2" class="edge">
<title>Node3&#45;&gt;Node2</title>
<path fill="none" stroke="midnightblue" d="M64,-211.08C64,-202.23 64,-193.23 64,-184.86"/>
<polygon fill="none" stroke="midnightblue" points="60.5,-211.34 64,-221.34 67.5,-211.34 60.5,-211.34"/>
</g>
<!-- Node4 -->
<g id="node4" class="node">
<title>Node4</title>
<g id="a_node4"><a xlink:href="classrare_1_1widgets_1_1image__widget_1_1_image_widget.html" target="_top" xlink:title=" ">
<polygon fill="white" stroke="black" points="0,-348.5 0,-559.5 128,-559.5 128,-348.5 0,-348.5"/>
<text text-anchor="middle" x="64" y="-547.5" font-family="Helvetica,sans-Serif" font-size="10.00">ImageWidget</text>
<polyline fill="none" stroke="black" points="0,-540.5 128,-540.5 "/>
<text text-anchor="start" x="8" y="-528.5" font-family="Helvetica,sans-Serif" font-size="10.00">+ paint_image</text>
<text text-anchor="start" x="8" y="-517.5" font-family="Helvetica,sans-Serif" font-size="10.00">+ paint_overlay</text>
<text text-anchor="start" x="8" y="-506.5" font-family="Helvetica,sans-Serif" font-size="10.00">+ float</text>
<text text-anchor="start" x="8" y="-495.5" font-family="Helvetica,sans-Serif" font-size="10.00">+ bool</text>
<polyline fill="none" stroke="black" points="0,-488.5 128,-488.5 "/>
<text text-anchor="start" x="8" y="-476.5" font-family="Helvetica,sans-Serif" font-size="10.00">+ __init__()</text>
<text text-anchor="start" x="8" y="-465.5" font-family="Helvetica,sans-Serif" font-size="10.00">+ setOpacity()</text>
<text text-anchor="start" x="8" y="-454.5" font-family="Helvetica,sans-Serif" font-size="10.00">+ setPixmap()</text>
<text text-anchor="start" x="8" y="-443.5" font-family="Helvetica,sans-Serif" font-size="10.00">+ sizeHint()</text>
<text text-anchor="start" x="8" y="-432.5" font-family="Helvetica,sans-Serif" font-size="10.00">+ minimumSizeHint()</text>
<text text-anchor="start" x="8" y="-421.5" font-family="Helvetica,sans-Serif" font-size="10.00">+ setFixedSize()</text>
<text text-anchor="start" x="8" y="-410.5" font-family="Helvetica,sans-Serif" font-size="10.00">+ setBorder()</text>
<text text-anchor="start" x="8" y="-399.5" font-family="Helvetica,sans-Serif" font-size="10.00">+ paint_image_empty()</text>
<text text-anchor="start" x="8" y="-388.5" font-family="Helvetica,sans-Serif" font-size="10.00">+ paint_image_cover()</text>
<text text-anchor="start" x="8" y="-377.5" font-family="Helvetica,sans-Serif" font-size="10.00">+ paint_overlay_rounded()</text>
<text text-anchor="start" x="8" y="-366.5" font-family="Helvetica,sans-Serif" font-size="10.00">+ paint_overlay_squared()</text>
<text text-anchor="start" x="8" y="-355.5" font-family="Helvetica,sans-Serif" font-size="10.00">+ paintEvent()</text>
</a>
</g>
</g>
<!-- Node4&#45;&gt;Node3 -->
<g id="edge3" class="edge">
<title>Node4&#45;&gt;Node3</title>
<path fill="none" stroke="midnightblue" d="M64,-338.19C64,-328.95 64,-320.02 64,-311.79"/>
<polygon fill="none" stroke="midnightblue" points="60.5,-338.32 64,-348.32 67.5,-338.32 60.5,-338.32"/>
</g>
<!-- Node5 -->
<g id="node5" class="node">
<title>Node5</title>
<g id="a_node5"><a xlink:title=" ">
<polygon fill="white" stroke="#bfbfbf" points="37,-596.5 37,-653.5 91,-653.5 91,-596.5 37,-596.5"/>
<text text-anchor="middle" x="64" y="-641.5" font-family="Helvetica,sans-Serif" font-size="10.00">QWidget</text>
<polyline fill="none" stroke="#bfbfbf" points="37,-634.5 91,-634.5 "/>
<text text-anchor="middle" x="64" y="-622.5" font-family="Helvetica,sans-Serif" font-size="10.00"> </text>
<polyline fill="none" stroke="#bfbfbf" points="37,-615.5 91,-615.5 "/>
<text text-anchor="middle" x="64" y="-603.5" font-family="Helvetica,sans-Serif" font-size="10.00"> </text>
</a>
</g>
</g>
<!-- Node5&#45;&gt;Node4 -->
<g id="edge4" class="edge">
<title>Node5&#45;&gt;Node4</title>
<path fill="none" stroke="midnightblue" d="M64,-586.23C64,-578.04 64,-568.99 64,-559.58"/>
<polygon fill="none" stroke="midnightblue" points="60.5,-586.47 64,-596.47 67.5,-586.47 60.5,-586.47"/>
</g>
</g>
</svg>
