<?xml version="1.0" encoding="UTF-8" standalone="no"?>
<!DOCTYPE svg PUBLIC "-//W3C//DTD SVG 1.1//EN"
 "http://www.w3.org/Graphics/SVG/1.1/DTD/svg11.dtd">
<!-- Generated by graphviz version 2.49.3 (20211027.1534)
 -->
<!-- Title: QueueWorker Pages: 1 -->
<svg width="188pt" height="513pt"
 viewBox="0.00 0.00 188.00 513.00" xmlns="http://www.w3.org/2000/svg" xmlns:xlink="http://www.w3.org/1999/xlink">
<g id="graph0" class="graph" transform="scale(1 1) rotate(0) translate(4 509)">
<title>QueueWorker</title>
<polygon fill="white" stroke="transparent" points="-4,4 -4,-509 184,-509 184,4 -4,4"/>
<!-- Node1 -->
<g id="node1" class="node">
<title>Node1</title>
<g id="a_node1"><a xlink:title="Base queueable worker class.">
<polygon fill="#bfbfbf" stroke="black" points="49,-171.5 49,-272.5 130,-272.5 130,-171.5 49,-171.5"/>
<text text-anchor="middle" x="89.5" y="-260.5" font-family="Helvetica,sans-Serif" font-size="10.00">QueueWorker</text>
<polyline fill="none" stroke="black" points="49,-253.5 130,-253.5 "/>
<text text-anchor="start" x="57" y="-241.5" font-family="Helvetica,sans-Serif" font-size="10.00">+ feedback</text>
<text text-anchor="start" x="57" y="-230.5" font-family="Helvetica,sans-Serif" font-size="10.00">+ state</text>
<polyline fill="none" stroke="black" points="49,-223.5 130,-223.5 "/>
<text text-anchor="start" x="57" y="-211.5" font-family="Helvetica,sans-Serif" font-size="10.00">+ __init__()</text>
<text text-anchor="start" x="57" y="-200.5" font-family="Helvetica,sans-Serif" font-size="10.00">+ run()</text>
<text text-anchor="start" x="57" y="-189.5" font-family="Helvetica,sans-Serif" font-size="10.00">+ worker_info()</text>
<text text-anchor="start" x="57" y="-178.5" font-family="Helvetica,sans-Serif" font-size="10.00">+ kill()</text>
</a>
</g>
</g>
<!-- Node4 -->
<g id="node4" class="node">
<title>Node4</title>
<g id="a_node4"><a xlink:href="classrare_1_1shared_1_1workers_1_1move_1_1_move_worker.html" target="_top" xlink:title=" ">
<polygon fill="white" stroke="black" points="0,-0.5 0,-134.5 81,-134.5 81,-0.5 0,-0.5"/>
<text text-anchor="middle" x="40.5" y="-122.5" font-family="Helvetica,sans-Serif" font-size="10.00">MoveWorker</text>
<polyline fill="none" stroke="black" points="0,-115.5 81,-115.5 "/>
<text text-anchor="start" x="8" y="-103.5" font-family="Helvetica,sans-Serif" font-size="10.00">+ signals</text>
<text text-anchor="start" x="8" y="-92.5" font-family="Helvetica,sans-Serif" font-size="10.00">+ core</text>
<text text-anchor="start" x="8" y="-81.5" font-family="Helvetica,sans-Serif" font-size="10.00">+ rgame</text>
<text text-anchor="start" x="8" y="-70.5" font-family="Helvetica,sans-Serif" font-size="10.00">+ dst_path</text>
<text text-anchor="start" x="8" y="-59.5" font-family="Helvetica,sans-Serif" font-size="10.00">+ dst_exists</text>
<polyline fill="none" stroke="black" points="0,-52.5 81,-52.5 "/>
<text text-anchor="start" x="8" y="-40.5" font-family="Helvetica,sans-Serif" font-size="10.00">+ __init__()</text>
<text text-anchor="start" x="8" y="-29.5" font-family="Helvetica,sans-Serif" font-size="10.00">+ worker_info()</text>
<text text-anchor="start" x="8" y="-18.5" font-family="Helvetica,sans-Serif" font-size="10.00">+ progress()</text>
<text text-anchor="start" x="8" y="-7.5" font-family="Helvetica,sans-Serif" font-size="10.00">+ run_real()</text>
</a>
</g>
</g>
<!-- Node1&#45;&gt;Node4 -->
<g id="edge3" class="edge">
<title>Node1&#45;&gt;Node4</title>
<path fill="none" stroke="midnightblue" d="M70.53,-161.95C67.66,-153.02 64.68,-143.76 61.77,-134.69"/>
<polygon fill="none" stroke="midnightblue" points="67.2,-163.04 73.59,-171.49 73.86,-160.9 67.2,-163.04"/>
</g>
<!-- Node5 -->
<g id="node5" class="node">
<title>Node5</title>
<g id="a_node5"><a xlink:href="classrare_1_1shared_1_1workers_1_1verify_1_1_verify_worker.html" target="_top" xlink:title=" ">
<polygon fill="white" stroke="black" points="99,-11.5 99,-123.5 180,-123.5 180,-11.5 99,-11.5"/>
<text text-anchor="middle" x="139.5" y="-111.5" font-family="Helvetica,sans-Serif" font-size="10.00">VerifyWorker</text>
<polyline fill="none" stroke="black" points="99,-104.5 180,-104.5 "/>
<text text-anchor="start" x="107" y="-92.5" font-family="Helvetica,sans-Serif" font-size="10.00">+ signals</text>
<text text-anchor="start" x="107" y="-81.5" font-family="Helvetica,sans-Serif" font-size="10.00">+ core</text>
<text text-anchor="start" x="107" y="-70.5" font-family="Helvetica,sans-Serif" font-size="10.00">+ args</text>
<text text-anchor="start" x="107" y="-59.5" font-family="Helvetica,sans-Serif" font-size="10.00">+ rgame</text>
<polyline fill="none" stroke="black" points="99,-52.5 180,-52.5 "/>
<text text-anchor="start" x="107" y="-40.5" font-family="Helvetica,sans-Serif" font-size="10.00">+ __init__()</text>
<text text-anchor="start" x="107" y="-29.5" font-family="Helvetica,sans-Serif" font-size="10.00">+ worker_info()</text>
<text text-anchor="start" x="107" y="-18.5" font-family="Helvetica,sans-Serif" font-size="10.00">+ run_real()</text>
</a>
</g>
</g>
<!-- Node1&#45;&gt;Node5 -->
<g id="edge4" class="edge">
<title>Node1&#45;&gt;Node5</title>
<path fill="none" stroke="midnightblue" d="M108.85,-161.98C112.99,-149.35 117.35,-136.05 121.44,-123.57"/>
<polygon fill="none" stroke="midnightblue" points="105.52,-160.89 105.73,-171.49 112.17,-163.08 105.52,-160.89"/>
</g>
<!-- Node2 -->
<g id="node2" class="node">
<title>Node2</title>
<g id="a_node2"><a xlink:href="classrare_1_1shared_1_1workers_1_1worker_1_1_worker.html" target="_top" xlink:title="Base QRunnable class.">
<polygon fill="white" stroke="black" points="57,-309.5 57,-410.5 122,-410.5 122,-309.5 57,-309.5"/>
<text text-anchor="middle" x="89.5" y="-398.5" font-family="Helvetica,sans-Serif" font-size="10.00">Worker</text>
<polyline fill="none" stroke="black" points="57,-391.5 122,-391.5 "/>
<text text-anchor="middle" x="89.5" y="-379.5" font-family="Helvetica,sans-Serif" font-size="10.00"> </text>
<polyline fill="none" stroke="black" points="57,-372.5 122,-372.5 "/>
<text text-anchor="start" x="65" y="-360.5" font-family="Helvetica,sans-Serif" font-size="10.00">+ __init__()</text>
<text text-anchor="start" x="65" y="-349.5" font-family="Helvetica,sans-Serif" font-size="10.00">+ signals()</text>
<text text-anchor="start" x="65" y="-338.5" font-family="Helvetica,sans-Serif" font-size="10.00">+ signals()</text>
<text text-anchor="start" x="65" y="-327.5" font-family="Helvetica,sans-Serif" font-size="10.00">+ run_real()</text>
<text text-anchor="start" x="65" y="-316.5" font-family="Helvetica,sans-Serif" font-size="10.00">+ run()</text>
</a>
</g>
</g>
<!-- Node2&#45;&gt;Node1 -->
<g id="edge1" class="edge">
<title>Node2&#45;&gt;Node1</title>
<path fill="none" stroke="midnightblue" d="M89.5,-299C89.5,-290.27 89.5,-281.36 89.5,-272.86"/>
<polygon fill="none" stroke="midnightblue" points="86,-299.13 89.5,-309.13 93,-299.13 86,-299.13"/>
</g>
<!-- Node3 -->
<g id="node3" class="node">
<title>Node3</title>
<g id="a_node3"><a xlink:title=" ">
<polygon fill="white" stroke="#bfbfbf" points="57,-447.5 57,-504.5 122,-504.5 122,-447.5 57,-447.5"/>
<text text-anchor="middle" x="89.5" y="-492.5" font-family="Helvetica,sans-Serif" font-size="10.00">QRunnable</text>
<polyline fill="none" stroke="#bfbfbf" points="57,-485.5 122,-485.5 "/>
<text text-anchor="middle" x="89.5" y="-473.5" font-family="Helvetica,sans-Serif" font-size="10.00"> </text>
<polyline fill="none" stroke="#bfbfbf" points="57,-466.5 122,-466.5 "/>
<text text-anchor="middle" x="89.5" y="-454.5" font-family="Helvetica,sans-Serif" font-size="10.00"> </text>
</a>
</g>
</g>
<!-- Node3&#45;&gt;Node2 -->
<g id="edge2" class="edge">
<title>Node3&#45;&gt;Node2</title>
<path fill="none" stroke="midnightblue" d="M89.5,-437.35C89.5,-428.8 89.5,-419.58 89.5,-410.61"/>
<polygon fill="none" stroke="midnightblue" points="86,-437.4 89.5,-447.4 93,-437.4 86,-437.4"/>
</g>
</g>
</svg>
