<?xml version="1.0" encoding="UTF-8" standalone="no"?>
<!DOCTYPE svg PUBLIC "-//W3C//DTD SVG 1.1//EN"
 "http://www.w3.org/Graphics/SVG/1.1/DTD/svg11.dtd">
<!-- Generated by graphviz version 2.49.3 (20211027.1534)
 -->
<!-- Title: setText Pages: 1 -->
<!--zoomable 367 -->
<svg id="main" version="1.1" xmlns="http://www.w3.org/2000/svg" xmlns:xlink="http://www.w3.org/1999/xlink" xml:space="preserve" onload="init(evt)">
<style type="text/css"><![CDATA[
.edge:hover path { stroke: red; }
.edge:hover polygon { stroke: red; fill: red; }
]]></style>
<script type="text/javascript"><![CDATA[
var edges = document.getElementsByTagName('g');
if (edges && edges.length) {
  for (var i=0;i<edges.length;i++) {
    if (edges[i].id.substr(0,4)=='edge') {
      edges[i].setAttribute('class','edge');
    }
  }
}
]]></script>
        <defs>
                <circle id="rim" cx="0" cy="0" r="7"/>
                <circle id="rim2" cx="0" cy="0" r="3.5"/>
                <g id="zoomPlus">
                        <use xlink:href="#rim" fill="#404040">
                                <set attributeName="fill" to="#808080" begin="zoomplus.mouseover" end="zoomplus.mouseout"/>
                        </use>
                        <path d="M-4,0h8M0,-4v8" fill="none" stroke="white" stroke-width="1.5" pointer-events="none"/>
                </g>
                <g id="zoomMin">
                        <use xlink:href="#rim" fill="#404040">
                                <set attributeName="fill" to="#808080" begin="zoomminus.mouseover" end="zoomminus.mouseout"/>
                        </use>
                        <path d="M-4,0h8" fill="none" stroke="white" stroke-width="1.5" pointer-events="none"/>
                </g>
                <g id="dirArrow">
                        <path fill="none" stroke="white" stroke-width="1.5" d="M0,-3.0v7 M-2.5,-0.5L0,-3.0L2.5,-0.5"/>
                </g>
               <g id="resetDef">
                       <use xlink:href="#rim2" fill="#404040">
                               <set attributeName="fill" to="#808080" begin="reset.mouseover" end="reset.mouseout"/>
                       </use>
               </g>
        </defs>

<script type="text/javascript">
var viewWidth = 572;
var viewHeight = 367;
var sectionId = 'dynsection-11';
</script>
<script xlink:href="svgpan.js"/>
<svg id="graph" class="graph">
<g id="viewport">
<title>setText</title>
<polygon fill="white" stroke="transparent" points="-4,4 -4,-363 568.21,-363 568.21,4 -4,4"/>
<!-- Node1 -->
<g id="node1" class="node">
<title>Node1</title>
<g id="a_node1"><a xlink:title=" ">
<polygon fill="#bfbfbf" stroke="black" points="508,-157 508,-176 557,-176 557,-157 508,-157"/>
<text text-anchor="middle" x="532.5" y="-164" font-family="Helvetica,sans-Serif" font-size="10.00">setText</text>
</a>
</g>
</g>
<!-- Node1&#45;&gt;Node1 -->
<g id="edge17" class="edge">
<title>Node1&#45;&gt;Node1</title>
<path fill="none" stroke="midnightblue" d="M563.9,-183.02C565.14,-189.3 554.67,-194.5 532.5,-194.5 501.66,-194.5 493.46,-184.43 507.92,-175.39"/>
<polygon fill="midnightblue" stroke="midnightblue" points="566.35,-180.51 557.08,-175.39 561.14,-185.17 566.35,-180.51"/>
</g>
<!-- Node2 -->
<g id="node2" class="node">
<title>Node2</title>
<g id="a_node2"><a xlink:href="classrare_1_1components_1_1dialogs_1_1install__dialog_1_1_tag_check_box.html#a76ea5a4239cce08ee2dc391579a2f2e2" target="_top" xlink:title=" ">
<polygon fill="white" stroke="black" points="288.5,-310.5 288.5,-340.5 437.5,-340.5 437.5,-310.5 288.5,-310.5"/>
<text text-anchor="start" x="296.5" y="-328.5" font-family="Helvetica,sans-Serif" font-size="10.00">rare.components.dialogs.install</text>
<text text-anchor="middle" x="363" y="-317.5" font-family="Helvetica,sans-Serif" font-size="10.00">_dialog.TagCheckBox.__init__</text>
</a>
</g>
</g>
<!-- Node1&#45;&gt;Node2 -->
<g id="edge1" class="edge">
<title>Node1&#45;&gt;Node2</title>
<path fill="none" stroke="midnightblue" d="M528.48,-185.9C522.84,-215.32 507.85,-270.9 472,-300.5 462.13,-308.65 450.1,-314.25 437.7,-318.08"/>
<polygon fill="midnightblue" stroke="midnightblue" points="531.93,-186.47 530.2,-176.02 525.03,-185.27 531.93,-186.47"/>
</g>
<!-- Node3 -->
<g id="node3" class="node">
<title>Node3</title>
<g id="a_node3"><a xlink:href="classrare_1_1widgets_1_1elide__label_1_1_elide_label.html#afd72e8ba55945f7de018094f120bd3c8" target="_top" xlink:title=" ">
<polygon fill="white" stroke="black" points="314.5,-232 314.5,-273 411.5,-273 411.5,-232 314.5,-232"/>
<text text-anchor="start" x="322.5" y="-261" font-family="Helvetica,sans-Serif" font-size="10.00">rare.widgets.elide</text>
<text text-anchor="start" x="322.5" y="-250" font-family="Helvetica,sans-Serif" font-size="10.00">_label.ElideLabel._</text>
<text text-anchor="middle" x="363" y="-239" font-family="Helvetica,sans-Serif" font-size="10.00">_init__</text>
</a>
</g>
</g>
<!-- Node1&#45;&gt;Node3 -->
<g id="edge3" class="edge">
<title>Node1&#45;&gt;Node3</title>
<path fill="none" stroke="midnightblue" d="M516.91,-184.21C505.79,-196.61 489.47,-212.66 472,-222.5 453.52,-232.91 431.2,-239.89 411.65,-244.48"/>
<polygon fill="midnightblue" stroke="midnightblue" points="519.82,-186.18 523.72,-176.33 514.53,-181.6 519.82,-186.18"/>
</g>
<!-- Node4 -->
<g id="node4" class="node">
<title>Node4</title>
<g id="a_node4"><a xlink:href="classrare_1_1widgets_1_1indicator__edit_1_1_indicator_line_edit.html#a051a5c88b188dc1e47f120d327dd4d99" target="_top" xlink:title=" ">
<polygon fill="white" stroke="black" points="320.5,-176 320.5,-195 405.5,-195 405.5,-176 320.5,-176"/>
<text text-anchor="middle" x="363" y="-183" font-family="Helvetica,sans-Serif" font-size="10.00">extend_reasons</text>
</a>
</g>
</g>
<!-- Node1&#45;&gt;Node4 -->
<g id="edge5" class="edge">
<title>Node1&#45;&gt;Node4</title>
<path fill="none" stroke="midnightblue" d="M497.88,-170.31C471.3,-173.33 434.07,-177.55 405.61,-180.78"/>
<polygon fill="midnightblue" stroke="midnightblue" points="498.31,-173.79 507.86,-169.18 497.53,-166.83 498.31,-173.79"/>
</g>
<!-- Node5 -->
<g id="node5" class="node">
<title>Node5</title>
<g id="a_node5"><a xlink:href="classrare_1_1components_1_1tabs_1_1settings_1_1widgets_1_1overlay_1_1_overlay_line_edit.html#ae8cc8c5a2c7576b6684240f0104a3345" target="_top" xlink:title=" ">
<polygon fill="white" stroke="black" points="254,-70.5 254,-100.5 472,-100.5 472,-70.5 254,-70.5"/>
<text text-anchor="start" x="262" y="-88.5" font-family="Helvetica,sans-Serif" font-size="10.00">rare.components.tabs.settings.widgets.overlay.</text>
<text text-anchor="middle" x="363" y="-77.5" font-family="Helvetica,sans-Serif" font-size="10.00">OverlayLineEdit.setDefault</text>
</a>
</g>
</g>
<!-- Node1&#45;&gt;Node5 -->
<g id="edge7" class="edge">
<title>Node1&#45;&gt;Node5</title>
<path fill="none" stroke="midnightblue" d="M506.05,-151.74C495.61,-145.85 483.33,-139.15 472,-133.5 448.31,-121.69 421.07,-109.6 399.88,-100.5"/>
<polygon fill="midnightblue" stroke="midnightblue" points="504.62,-154.95 515.04,-156.86 508.08,-148.87 504.62,-154.95"/>
</g>
<!-- Node6 -->
<g id="node6" class="node">
<title>Node6</title>
<g id="a_node6"><a xlink:href="classrare_1_1components_1_1tabs_1_1settings_1_1widgets_1_1overlay_1_1_overlay_line_edit.html#a9ff4a771b55b705e2653927926385052" target="_top" xlink:title=" ">
<polygon fill="white" stroke="black" points="0,-134.5 0,-164.5 218,-164.5 218,-134.5 0,-134.5"/>
<text text-anchor="start" x="8" y="-152.5" font-family="Helvetica,sans-Serif" font-size="10.00">rare.components.tabs.settings.widgets.overlay.</text>
<text text-anchor="middle" x="109" y="-141.5" font-family="Helvetica,sans-Serif" font-size="10.00">OverlayLineEdit.setValue</text>
</a>
</g>
</g>
<!-- Node1&#45;&gt;Node6 -->
<g id="edge18" class="edge">
<title>Node1&#45;&gt;Node6</title>
<path fill="none" stroke="midnightblue" d="M497.91,-165.15C438.07,-162.73 310.61,-157.59 218.08,-153.86"/>
<polygon fill="midnightblue" stroke="midnightblue" points="497.8,-168.64 507.94,-165.55 498.08,-161.65 497.8,-168.64"/>
</g>
<!-- Node8 -->
<g id="node8" class="node">
<title>Node8</title>
<g id="a_node8"><a xlink:href="classrare_1_1widgets_1_1indicator__edit_1_1_path_edit.html#aeaf557bb52a3d67dab87e51fbc54afa6" target="_top" xlink:title=" ">
<polygon fill="white" stroke="black" points="296.5,-2.5 296.5,-32.5 429.5,-32.5 429.5,-2.5 296.5,-2.5"/>
<text text-anchor="start" x="304.5" y="-20.5" font-family="Helvetica,sans-Serif" font-size="10.00">rare.widgets.indicator</text>
<text text-anchor="middle" x="363" y="-9.5" font-family="Helvetica,sans-Serif" font-size="10.00">_edit.PathEdit.setRootPath</text>
</a>
</g>
</g>
<!-- Node1&#45;&gt;Node8 -->
<g id="edge13" class="edge">
<title>Node1&#45;&gt;Node8</title>
<path fill="none" stroke="midnightblue" d="M525.26,-147.35C516.72,-123.9 499.26,-84.37 472,-60.5 457.88,-48.14 439.76,-39.08 422.42,-32.56"/>
<polygon fill="midnightblue" stroke="midnightblue" points="521.98,-148.58 528.56,-156.88 528.6,-146.29 521.98,-148.58"/>
</g>
<!-- Node2&#45;&gt;Node2 -->
<g id="edge2" class="edge">
<title>Node2&#45;&gt;Node2</title>
<path fill="none" stroke="midnightblue" d="M392.85,-350.96C389.15,-355.68 379.2,-359 363,-359 336.42,-359 326.66,-350.06 333.72,-340.66"/>
<polygon fill="midnightblue" stroke="midnightblue" points="396.33,-350.45 392.28,-340.66 389.34,-350.84 396.33,-350.45"/>
</g>
<!-- Node3&#45;&gt;Node3 -->
<g id="edge4" class="edge">
<title>Node3&#45;&gt;Node3</title>
<path fill="none" stroke="midnightblue" d="M391.9,-283.36C387.61,-288.2 377.97,-291.5 363,-291.5 339.05,-291.5 328.75,-283.04 332.12,-273.36"/>
<polygon fill="midnightblue" stroke="midnightblue" points="395.37,-283.85 393.88,-273.36 388.51,-282.5 395.37,-283.85"/>
</g>
<!-- Node4&#45;&gt;Node4 -->
<g id="edge6" class="edge">
<title>Node4&#45;&gt;Node4</title>
<path fill="none" stroke="midnightblue" d="M394.44,-203.77C393.54,-209.24 383.06,-213.5 363,-213.5 333.14,-213.5 324.51,-204.07 337.11,-195.26"/>
<polygon fill="midnightblue" stroke="midnightblue" points="397.28,-201.73 388.89,-195.26 391.42,-205.55 397.28,-201.73"/>
</g>
<!-- Node5&#45;&gt;Node5 -->
<g id="edge8" class="edge">
<title>Node5&#45;&gt;Node5</title>
<path fill="none" stroke="midnightblue" d="M392.85,-110.96C389.15,-115.68 379.2,-119 363,-119 336.42,-119 326.66,-110.06 333.72,-100.66"/>
<polygon fill="midnightblue" stroke="midnightblue" points="396.33,-110.45 392.28,-100.66 389.34,-110.84 396.33,-110.45"/>
</g>
<!-- Node5&#45;&gt;Node6 -->
<g id="edge9" class="edge">
<title>Node5&#45;&gt;Node6</title>
<path fill="none" stroke="midnightblue" d="M298.69,-103.19C273.62,-110.05 244.5,-117.85 218,-124.5 204.65,-127.85 190.34,-131.28 176.63,-134.48"/>
<polygon fill="midnightblue" stroke="midnightblue" points="299.73,-106.53 308.44,-100.51 297.87,-99.78 299.73,-106.53"/>
</g>
<!-- Node7 -->
<g id="node7" class="node">
<title>Node7</title>
<g id="a_node7"><a xlink:href="classrare_1_1components_1_1tabs_1_1settings_1_1widgets_1_1overlay_1_1_overlay_combo_box.html#a9ff4a771b55b705e2653927926385052" target="_top" xlink:title=" ">
<polygon fill="white" stroke="black" points="0,-67.5 0,-97.5 218,-97.5 218,-67.5 0,-67.5"/>
<text text-anchor="start" x="8" y="-85.5" font-family="Helvetica,sans-Serif" font-size="10.00">rare.components.tabs.settings.widgets.overlay.</text>
<text text-anchor="middle" x="109" y="-74.5" font-family="Helvetica,sans-Serif" font-size="10.00">OverlayComboBox.setValue</text>
</a>
</g>
</g>
<!-- Node5&#45;&gt;Node7 -->
<g id="edge11" class="edge">
<title>Node5&#45;&gt;Node7</title>
<path fill="none" stroke="midnightblue" d="M243.44,-84.09C235.04,-83.99 226.59,-83.89 218.24,-83.79"/>
<polygon fill="midnightblue" stroke="midnightblue" points="243.63,-87.59 253.67,-84.21 243.71,-80.59 243.63,-87.59"/>
</g>
<!-- Node6&#45;&gt;Node6 -->
<g id="edge10" class="edge">
<title>Node6&#45;&gt;Node6</title>
<path fill="none" stroke="midnightblue" d="M154.55,-174.59C149.3,-179.51 134.11,-183 109,-183 68.82,-183 54.06,-174.06 64.74,-164.66"/>
<polygon fill="midnightblue" stroke="midnightblue" points="158.01,-174.13 153.26,-164.66 151.07,-175.02 158.01,-174.13"/>
</g>
<!-- Node7&#45;&gt;Node7 -->
<g id="edge12" class="edge">
<title>Node7&#45;&gt;Node7</title>
<path fill="none" stroke="midnightblue" d="M154.55,-107.59C149.3,-112.51 134.11,-116 109,-116 68.82,-116 54.06,-107.06 64.74,-97.66"/>
<polygon fill="midnightblue" stroke="midnightblue" points="158.01,-107.13 153.26,-97.66 151.07,-108.02 158.01,-107.13"/>
</g>
<!-- Node8&#45;&gt;Node8 -->
<g id="edge16" class="edge">
<title>Node8&#45;&gt;Node8</title>
<path fill="none" stroke="midnightblue" d="M392.85,-42.96C389.15,-47.68 379.2,-51 363,-51 336.42,-51 326.66,-42.06 333.72,-32.66"/>
<polygon fill="midnightblue" stroke="midnightblue" points="396.33,-42.45 392.28,-32.66 389.34,-42.84 396.33,-42.45"/>
</g>
<!-- Node9 -->
<g id="node9" class="node">
<title>Node9</title>
<g id="a_node9"><a xlink:href="classrare_1_1widgets_1_1indicator__edit_1_1_path_edit.html#a637b244331bea981ce1c6dc9f2fbfc0f" target="_top" xlink:title=" ">
<polygon fill="white" stroke="black" points="52.5,-0.5 52.5,-30.5 165.5,-30.5 165.5,-0.5 52.5,-0.5"/>
<text text-anchor="start" x="60.5" y="-18.5" font-family="Helvetica,sans-Serif" font-size="10.00">rare.widgets.indicator</text>
<text text-anchor="middle" x="109" y="-7.5" font-family="Helvetica,sans-Serif" font-size="10.00">_edit.PathEdit.__init__</text>
</a>
</g>
</g>
<!-- Node8&#45;&gt;Node9 -->
<g id="edge14" class="edge">
<title>Node8&#45;&gt;Node9</title>
<path fill="none" stroke="midnightblue" d="M286.26,-16.9C247.55,-16.59 201.26,-16.22 165.83,-15.94"/>
<polygon fill="midnightblue" stroke="midnightblue" points="286.42,-20.4 296.45,-16.98 286.48,-13.4 286.42,-20.4"/>
</g>
<!-- Node9&#45;&gt;Node9 -->
<g id="edge15" class="edge">
<title>Node9&#45;&gt;Node9</title>
<path fill="none" stroke="midnightblue" d="M154.55,-40.59C149.3,-45.51 134.11,-49 109,-49 68.82,-49 54.06,-40.06 64.74,-30.66"/>
<polygon fill="midnightblue" stroke="midnightblue" points="158.01,-40.13 153.26,-30.66 151.07,-41.02 158.01,-40.13"/>
</g>
</g>
</svg>
        <g id="navigator" transform="translate(0 0)" fill="#404254">
                <rect fill="#f2f5e9" fill-opacity="0.5" stroke="#606060" stroke-width=".5" x="0" y="0" width="60" height="60"/>
                <use id="zoomplus" xlink:href="#zoomPlus" x="17" y="9" onmousedown="handleZoom(evt,'in')"/>
                <use id="zoomminus" xlink:href="#zoomMin" x="42" y="9" onmousedown="handleZoom(evt,'out')"/>
                <use id="reset" xlink:href="#resetDef" x="30" y="36" onmousedown="handleReset()"/>
                <g id="arrowUp" xlink:href="#dirArrow" transform="translate(30 24)" onmousedown="handlePan(0,-1)">
                  <use xlink:href="#rim" fill="#404040">
                        <set attributeName="fill" to="#808080" begin="arrowUp.mouseover" end="arrowUp.mouseout"/>
                  </use>
                  <path fill="none" stroke="white" stroke-width="1.5" d="M0,-3.0v7 M-2.5,-0.5L0,-3.0L2.5,-0.5"/>
                </g>
                <g id="arrowRight" xlink:href="#dirArrow" transform="rotate(90) translate(36 -43)" onmousedown="handlePan(1,0)">
                  <use xlink:href="#rim" fill="#404040">
                        <set attributeName="fill" to="#808080" begin="arrowRight.mouseover" end="arrowRight.mouseout"/>
                  </use>
                  <path fill="none" stroke="white" stroke-width="1.5" d="M0,-3.0v7 M-2.5,-0.5L0,-3.0L2.5,-0.5"/>
                </g>
                <g id="arrowDown" xlink:href="#dirArrow" transform="rotate(180) translate(-30 -48)" onmousedown="handlePan(0,1)">
                  <use xlink:href="#rim" fill="#404040">
                        <set attributeName="fill" to="#808080" begin="arrowDown.mouseover" end="arrowDown.mouseout"/>
                  </use>
                  <path fill="none" stroke="white" stroke-width="1.5" d="M0,-3.0v7 M-2.5,-0.5L0,-3.0L2.5,-0.5"/>
                </g>
                <g id="arrowLeft" xlink:href="#dirArrow" transform="rotate(270) translate(-36 17)" onmousedown="handlePan(-1,0)">
                  <use xlink:href="#rim" fill="#404040">
                        <set attributeName="fill" to="#808080" begin="arrowLeft.mouseover" end="arrowLeft.mouseout"/>
                  </use>
                  <path fill="none" stroke="white" stroke-width="1.5" d="M0,-3.0v7 M-2.5,-0.5L0,-3.0L2.5,-0.5"/>
                </g>
        </g>
        <svg viewBox="0 0 15 15" width="100%" height="30px" preserveAspectRatio="xMaxYMin meet">
         <g id="arrow_out" transform="scale(0.3 0.3)">
          <a xlink:href="classrare_1_1widgets_1_1indicator__edit_1_1_indicator_line_edit_aa1ce5c203733553579a07cf1db0da9df_icgraph_org.svg" target="_base">
           <rect id="button" ry="5" rx="5" y="6" x="6" height="38" width="38"
                fill="#f2f5e9" fill-opacity="0.5" stroke="#606060" stroke-width="1.0"/>
           <path id="arrow"
             d="M 11.500037,31.436501 C 11.940474,20.09759 22.043105,11.32322 32.158766,21.979434 L 37.068811,17.246167 C 37.068811,17.246167 37.088388,32 37.088388,32 L 22.160133,31.978069 C 22.160133,31.978069 26.997745,27.140456 26.997745,27.140456 C 18.528582,18.264221 13.291696,25.230495 11.500037,31.436501 z"
             style="fill:#404040;"/>
          </a>
         </g>
        </svg>
</svg>
