<?xml version="1.0" encoding="UTF-8" standalone="no"?>
<!DOCTYPE svg PUBLIC "-//W3C//DTD SVG 1.1//EN"
 "http://www.w3.org/Graphics/SVG/1.1/DTD/svg11.dtd">
<!-- Generated by graphviz version 2.49.3 (20211027.1534)
 -->
<!-- Title: on_worker_result Pages: 1 -->
<!--zoomable 779 -->
<svg id="main" version="1.1" xmlns="http://www.w3.org/2000/svg" xmlns:xlink="http://www.w3.org/1999/xlink" xml:space="preserve" onload="init(evt)">
<style type="text/css"><![CDATA[
.edge:hover path { stroke: red; }
.edge:hover polygon { stroke: red; fill: red; }
]]></style>
<script type="text/javascript"><![CDATA[
var edges = document.getElementsByTagName('g');
if (edges && edges.length) {
  for (var i=0;i<edges.length;i++) {
    if (edges[i].id.substr(0,4)=='edge') {
      edges[i].setAttribute('class','edge');
    }
  }
}
]]></script>
        <defs>
                <circle id="rim" cx="0" cy="0" r="7"/>
                <circle id="rim2" cx="0" cy="0" r="3.5"/>
                <g id="zoomPlus">
                        <use xlink:href="#rim" fill="#404040">
                                <set attributeName="fill" to="#808080" begin="zoomplus.mouseover" end="zoomplus.mouseout"/>
                        </use>
                        <path d="M-4,0h8M0,-4v8" fill="none" stroke="white" stroke-width="1.5" pointer-events="none"/>
                </g>
                <g id="zoomMin">
                        <use xlink:href="#rim" fill="#404040">
                                <set attributeName="fill" to="#808080" begin="zoomminus.mouseover" end="zoomminus.mouseout"/>
                        </use>
                        <path d="M-4,0h8" fill="none" stroke="white" stroke-width="1.5" pointer-events="none"/>
                </g>
                <g id="dirArrow">
                        <path fill="none" stroke="white" stroke-width="1.5" d="M0,-3.0v7 M-2.5,-0.5L0,-3.0L2.5,-0.5"/>
                </g>
               <g id="resetDef">
                       <use xlink:href="#rim2" fill="#404040">
                               <set attributeName="fill" to="#808080" begin="reset.mouseover" end="reset.mouseout"/>
                       </use>
               </g>
        </defs>

<script type="text/javascript">
var viewWidth = 730;
var viewHeight = 779;
var sectionId = 'dynsection-28';
</script>
<script xlink:href="svgpan.js"/>
<svg id="graph" class="graph">
<g id="viewport">
<title>on_worker_result</title>
<polygon fill="white" stroke="transparent" points="-4,4 -4,-774.59 726,-774.59 726,4 -4,4"/>
<!-- Node1 -->
<g id="node1" class="node">
<title>Node1</title>
<g id="a_node1"><a xlink:title=" ">
<polygon fill="#bfbfbf" stroke="black" points="0,-225 0,-244 91,-244 91,-225 0,-225"/>
<text text-anchor="middle" x="45.5" y="-232" font-family="Helvetica,sans-Serif" font-size="10.00">on_worker_result</text>
</a>
</g>
</g>
<!-- Node1&#45;&gt;Node1 -->
<g id="edge32" class="edge">
<title>Node1&#45;&gt;Node1</title>
<path fill="none" stroke="midnightblue" d="M20.84,-244.26C8.84,-253.07 17.06,-262.5 45.5,-262.5 64.61,-262.5 74.59,-258.24 75.44,-252.77"/>
<polygon fill="midnightblue" stroke="midnightblue" points="78.4,-250.91 70.16,-244.26 72.45,-254.6 78.4,-250.91"/>
</g>
<!-- Node2 -->
<g id="node2" class="node">
<title>Node2</title>
<g id="a_node2"><a xlink:href="classrare_1_1shared_1_1image__manager_1_1_image_manager.html#aa1af2e48ef5d21eae429581cfe81f00b" target="_top" xlink:title=" ">
<polygon fill="white" stroke="black" points="584,-558.5 584,-588.5 722,-588.5 722,-558.5 584,-558.5"/>
<text text-anchor="start" x="592" y="-576.5" font-family="Helvetica,sans-Serif" font-size="10.00">rare.shared.image_manager.</text>
<text text-anchor="middle" x="653" y="-565.5" font-family="Helvetica,sans-Serif" font-size="10.00">ImageManager.__download</text>
</a>
</g>
</g>
<!-- Node1&#45;&gt;Node2 -->
<g id="edge1" class="edge">
<title>Node1&#45;&gt;Node2</title>
<path fill="none" stroke="midnightblue" d="M47.38,-244.06C52.46,-297.48 79.47,-558.71 127,-621.5 243.13,-774.92 377.39,-811.48 548,-722.5 598.41,-696.21 629.38,-633.1 643.31,-598.03"/>
<polygon fill="midnightblue" stroke="midnightblue" points="646.64,-599.12 646.93,-588.53 640.1,-596.63 646.64,-599.12"/>
</g>
<!-- Node3 -->
<g id="node3" class="node">
<title>Node3</title>
<g id="a_node3"><a xlink:href="classrare_1_1commands_1_1launcher_1_1console__dialog_1_1_console_dialog.html#a7df04f32b8c03f8466e5b558ba482582" target="_top" xlink:title=" ">
<polygon fill="white" stroke="black" points="127,-563.5 127,-593.5 285,-593.5 285,-563.5 127,-563.5"/>
<text text-anchor="start" x="135" y="-581.5" font-family="Helvetica,sans-Serif" font-size="10.00">rare.commands.launcher.console</text>
<text text-anchor="middle" x="206" y="-570.5" font-family="Helvetica,sans-Serif" font-size="10.00">_dialog.ConsoleDialog.accept</text>
</a>
</g>
</g>
<!-- Node1&#45;&gt;Node3 -->
<g id="edge2" class="edge">
<title>Node1&#45;&gt;Node3</title>
<path fill="none" stroke="midnightblue" d="M50.9,-244.06C71.87,-289.57 161.88,-484.9 193.75,-554.09"/>
<polygon fill="midnightblue" stroke="midnightblue" points="190.66,-555.73 198.02,-563.35 197.01,-552.8 190.66,-555.73"/>
</g>
<!-- Node7 -->
<g id="node7" class="node">
<title>Node7</title>
<g id="a_node7"><a xlink:href="classrare_1_1widgets_1_1dialogs_1_1_button_dialog.html#a783ddce0cb0d324bc475e9b39f7a6f2f" target="_top" xlink:title=" ">
<polygon fill="white" stroke="black" points="139.5,-286.5 139.5,-316.5 272.5,-316.5 272.5,-286.5 139.5,-286.5"/>
<text text-anchor="start" x="147.5" y="-304.5" font-family="Helvetica,sans-Serif" font-size="10.00">rare.widgets.dialogs.Button</text>
<text text-anchor="middle" x="206" y="-293.5" font-family="Helvetica,sans-Serif" font-size="10.00">Dialog.accept</text>
</a>
</g>
</g>
<!-- Node1&#45;&gt;Node7 -->
<g id="edge10" class="edge">
<title>Node1&#45;&gt;Node7</title>
<path fill="none" stroke="midnightblue" d="M62.4,-244.17C78.32,-253.57 103.74,-267.82 127,-277.5 131.7,-279.46 136.62,-281.34 141.61,-283.13"/>
<polygon fill="midnightblue" stroke="midnightblue" points="140.63,-286.49 151.23,-286.45 142.92,-279.88 140.63,-286.49"/>
</g>
<!-- Node15 -->
<g id="node15" class="node">
<title>Node15</title>
<g id="a_node15"><a xlink:href="classrare_1_1widgets_1_1dialogs_1_1_test_dialog.html#a783ddce0cb0d324bc475e9b39f7a6f2f" target="_top" xlink:title=" ">
<polygon fill="white" stroke="black" points="144,-219.5 144,-249.5 268,-249.5 268,-219.5 144,-219.5"/>
<text text-anchor="start" x="152" y="-237.5" font-family="Helvetica,sans-Serif" font-size="10.00">rare.widgets.dialogs.Test</text>
<text text-anchor="middle" x="206" y="-226.5" font-family="Helvetica,sans-Serif" font-size="10.00">Dialog.accept</text>
</a>
</g>
</g>
<!-- Node1&#45;&gt;Node15 -->
<g id="edge27" class="edge">
<title>Node1&#45;&gt;Node15</title>
<path fill="none" stroke="midnightblue" d="M91.07,-234.5C104.39,-234.5 119.33,-234.5 133.91,-234.5"/>
<polygon fill="midnightblue" stroke="midnightblue" points="133.91,-238 143.91,-234.5 133.91,-231 133.91,-238"/>
</g>
<!-- Node17 -->
<g id="node17" class="node">
<title>Node17</title>
<g id="a_node17"><a xlink:href="namespacerare_1_1utils_1_1misc.html#a3544b31f50ff739b7e8bb4ab751026b7" target="_top" xlink:title=" ">
<polygon fill="white" stroke="black" points="141.5,-163 141.5,-182 270.5,-182 270.5,-163 141.5,-163"/>
<text text-anchor="middle" x="206" y="-170" font-family="Helvetica,sans-Serif" font-size="10.00">rare.utils.misc.format_size</text>
</a>
</g>
</g>
<!-- Node1&#45;&gt;Node17 -->
<g id="edge30" class="edge">
<title>Node1&#45;&gt;Node17</title>
<path fill="none" stroke="midnightblue" d="M70.92,-224.95C97.68,-214.48 140.8,-197.61 170.89,-185.84"/>
<polygon fill="midnightblue" stroke="midnightblue" points="172.52,-188.96 180.55,-182.06 169.97,-182.45 172.52,-188.96"/>
</g>
<!-- Node18 -->
<g id="node18" class="node">
<title>Node18</title>
<g id="a_node18"><a xlink:href="classrare_1_1components_1_1dialogs_1_1install__dialog_1_1_install_dialog.html#a28b2dbb84b35512e356dcdff0827aac2" target="_top" xlink:title=" ">
<polygon fill="white" stroke="black" points="165.5,-107 165.5,-126 246.5,-126 246.5,-107 165.5,-107"/>
<text text-anchor="middle" x="206" y="-114" font-family="Helvetica,sans-Serif" font-size="10.00">same_platform</text>
</a>
</g>
</g>
<!-- Node1&#45;&gt;Node18 -->
<g id="edge33" class="edge">
<title>Node1&#45;&gt;Node18</title>
<path fill="none" stroke="midnightblue" d="M54.08,-224.95C67.42,-208.62 96.57,-175.03 127,-153.5 140.12,-144.22 155.94,-136.22 169.89,-130.06"/>
<polygon fill="midnightblue" stroke="midnightblue" points="171.37,-133.23 179.2,-126.09 168.62,-126.79 171.37,-133.23"/>
</g>
<!-- Node19 -->
<g id="node19" class="node">
<title>Node19</title>
<g id="a_node19"><a xlink:href="classrare_1_1widgets_1_1dialogs_1_1_action_dialog.html#a7e718e840cb7305e8bf707e866dc75e5" target="_top" xlink:title=" ">
<polygon fill="white" stroke="black" points="140,-39.5 140,-69.5 272,-69.5 272,-39.5 140,-39.5"/>
<text text-anchor="start" x="148" y="-57.5" font-family="Helvetica,sans-Serif" font-size="10.00">rare.widgets.dialogs.Action</text>
<text text-anchor="middle" x="206" y="-46.5" font-family="Helvetica,sans-Serif" font-size="10.00">Dialog.setActive</text>
</a>
</g>
</g>
<!-- Node1&#45;&gt;Node19 -->
<g id="edge35" class="edge">
<title>Node1&#45;&gt;Node19</title>
<path fill="none" stroke="midnightblue" d="M50.12,-224.7C59.5,-200.44 86.66,-136.74 127,-97.5 136.36,-88.4 148.03,-80.62 159.46,-74.29"/>
<polygon fill="midnightblue" stroke="midnightblue" points="161.32,-77.27 168.54,-69.52 158.06,-71.07 161.32,-77.27"/>
</g>
<!-- Node3&#45;&gt;Node3 -->
<g id="edge3" class="edge">
<title>Node3&#45;&gt;Node3</title>
<path fill="none" stroke="midnightblue" d="M178.12,-593.66C171.39,-603.06 180.69,-612 206,-612 221.42,-612 230.9,-608.68 234.43,-603.96"/>
<polygon fill="midnightblue" stroke="midnightblue" points="237.91,-603.46 233.88,-593.66 230.92,-603.83 237.91,-603.46"/>
</g>
<!-- Node4 -->
<g id="node4" class="node">
<title>Node4</title>
<g id="a_node4"><a xlink:href="classrare_1_1components_1_1main__window_1_1_main_window.html#ad9f81f4c56e23ca3c206b1e9374fc137" target="_top" xlink:title=" ">
<polygon fill="white" stroke="black" points="365.5,-664.5 365.5,-694.5 503.5,-694.5 503.5,-664.5 365.5,-664.5"/>
<text text-anchor="start" x="373.5" y="-682.5" font-family="Helvetica,sans-Serif" font-size="10.00">rare.components.main</text>
<text text-anchor="middle" x="434.5" y="-671.5" font-family="Helvetica,sans-Serif" font-size="10.00">_window.MainWindow.close</text>
</a>
</g>
</g>
<!-- Node3&#45;&gt;Node4 -->
<g id="edge4" class="edge">
<title>Node3&#45;&gt;Node4</title>
<path fill="none" stroke="midnightblue" d="M224.68,-593.66C246.07,-611.21 283.86,-639.7 321,-655.5 331.84,-660.11 343.66,-663.87 355.43,-666.93"/>
<polygon fill="midnightblue" stroke="midnightblue" points="354.73,-670.36 365.28,-669.33 356.39,-663.56 354.73,-670.36"/>
</g>
<!-- Node5 -->
<g id="node5" class="node">
<title>Node5</title>
<g id="a_node5"><a xlink:href="classrare_1_1widgets_1_1dialogs_1_1_button_dialog.html#a8639372c33e15084a7f7c4d9d87b7bfe" target="_top" xlink:title=" ">
<polygon fill="white" stroke="black" points="368,-597.5 368,-627.5 501,-627.5 501,-597.5 368,-597.5"/>
<text text-anchor="start" x="376" y="-615.5" font-family="Helvetica,sans-Serif" font-size="10.00">rare.widgets.dialogs.Button</text>
<text text-anchor="middle" x="434.5" y="-604.5" font-family="Helvetica,sans-Serif" font-size="10.00">Dialog.close</text>
</a>
</g>
</g>
<!-- Node3&#45;&gt;Node5 -->
<g id="edge6" class="edge">
<title>Node3&#45;&gt;Node5</title>
<path fill="none" stroke="midnightblue" d="M285.27,-590.25C308.66,-593.76 334.26,-597.6 357.5,-601.09"/>
<polygon fill="midnightblue" stroke="midnightblue" points="357.24,-604.59 367.65,-602.61 358.28,-597.67 357.24,-604.59"/>
</g>
<!-- Node6 -->
<g id="node6" class="node">
<title>Node6</title>
<g id="a_node6"><a xlink:href="classrare_1_1widgets_1_1dialogs_1_1_test_dialog.html#a8639372c33e15084a7f7c4d9d87b7bfe" target="_top" xlink:title=" ">
<polygon fill="white" stroke="black" points="372.5,-530.5 372.5,-560.5 496.5,-560.5 496.5,-530.5 372.5,-530.5"/>
<text text-anchor="start" x="380.5" y="-548.5" font-family="Helvetica,sans-Serif" font-size="10.00">rare.widgets.dialogs.Test</text>
<text text-anchor="middle" x="434.5" y="-537.5" font-family="Helvetica,sans-Serif" font-size="10.00">Dialog.close</text>
</a>
</g>
</g>
<!-- Node3&#45;&gt;Node6 -->
<g id="edge8" class="edge">
<title>Node3&#45;&gt;Node6</title>
<path fill="none" stroke="midnightblue" d="M285.27,-567.1C310.33,-563.45 337.92,-559.43 362.44,-555.85"/>
<polygon fill="midnightblue" stroke="midnightblue" points="363,-559.31 372.39,-554.4 361.99,-552.38 363,-559.31"/>
</g>
<!-- Node4&#45;&gt;Node4 -->
<g id="edge5" class="edge">
<title>Node4&#45;&gt;Node4</title>
<path fill="none" stroke="midnightblue" d="M396.51,-694.66C387.35,-704.06 400.01,-713 434.5,-713 455.52,-713 468.43,-709.68 473.24,-704.96"/>
<polygon fill="midnightblue" stroke="midnightblue" points="476.7,-704.38 472.49,-694.66 469.72,-704.89 476.7,-704.38"/>
</g>
<!-- Node5&#45;&gt;Node5 -->
<g id="edge7" class="edge">
<title>Node5&#45;&gt;Node5</title>
<path fill="none" stroke="midnightblue" d="M396.51,-627.66C387.35,-637.06 400.01,-646 434.5,-646 455.52,-646 468.43,-642.68 473.24,-637.96"/>
<polygon fill="midnightblue" stroke="midnightblue" points="476.7,-637.38 472.49,-627.66 469.72,-637.89 476.7,-637.38"/>
</g>
<!-- Node6&#45;&gt;Node6 -->
<g id="edge9" class="edge">
<title>Node6&#45;&gt;Node6</title>
<path fill="none" stroke="midnightblue" d="M396.51,-560.66C387.35,-570.06 400.01,-579 434.5,-579 455.52,-579 468.43,-575.68 473.24,-570.96"/>
<polygon fill="midnightblue" stroke="midnightblue" points="476.7,-570.38 472.49,-560.66 469.72,-570.89 476.7,-570.38"/>
</g>
<!-- Node7&#45;&gt;Node7 -->
<g id="edge11" class="edge">
<title>Node7&#45;&gt;Node7</title>
<path fill="none" stroke="midnightblue" d="M178.12,-316.66C171.39,-326.06 180.69,-335 206,-335 221.42,-335 230.9,-331.68 234.43,-326.96"/>
<polygon fill="midnightblue" stroke="midnightblue" points="237.91,-326.46 233.88,-316.66 230.92,-326.83 237.91,-326.46"/>
</g>
<!-- Node8 -->
<g id="node8" class="node">
<title>Node8</title>
<g id="a_node8"><a xlink:href="classrare_1_1commands_1_1launcher_1_1cloud__sync__dialog_1_1_cloud_sync_dialog.html#a5786ae567b9d7f6957dfb2ae04f22e63" target="_top" xlink:title=" ">
<polygon fill="white" stroke="black" points="344.5,-452 344.5,-493 524.5,-493 524.5,-452 344.5,-452"/>
<text text-anchor="start" x="352.5" y="-481" font-family="Helvetica,sans-Serif" font-size="10.00">rare.commands.launcher.cloud</text>
<text text-anchor="start" x="352.5" y="-470" font-family="Helvetica,sans-Serif" font-size="10.00">_sync_dialog.CloudSyncDialog.accept</text>
<text text-anchor="middle" x="434.5" y="-459" font-family="Helvetica,sans-Serif" font-size="10.00">_handler</text>
</a>
</g>
</g>
<!-- Node7&#45;&gt;Node8 -->
<g id="edge12" class="edge">
<title>Node7&#45;&gt;Node8</title>
<path fill="none" stroke="midnightblue" d="M215.06,-316.9C231.12,-346.08 270.04,-409.42 321,-442.5 325.39,-445.35 330.05,-447.93 334.86,-450.27"/>
<polygon fill="midnightblue" stroke="midnightblue" points="333.75,-453.6 344.31,-454.47 336.59,-447.21 333.75,-453.6"/>
</g>
<!-- Node9 -->
<g id="node9" class="node">
<title>Node9</title>
<g id="a_node9"><a xlink:href="classrare_1_1components_1_1dialogs_1_1install__dialog_1_1_install_dialog.html#a5786ae567b9d7f6957dfb2ae04f22e63" target="_top" xlink:title=" ">
<polygon fill="white" stroke="black" points="393,-396 393,-415 476,-415 476,-396 393,-396"/>
<text text-anchor="middle" x="434.5" y="-403" font-family="Helvetica,sans-Serif" font-size="10.00">accept_handler</text>
</a>
</g>
</g>
<!-- Node7&#45;&gt;Node9 -->
<g id="edge14" class="edge">
<title>Node7&#45;&gt;Node9</title>
<path fill="none" stroke="midnightblue" d="M222.09,-316.54C242.59,-336.03 281.27,-369.52 321,-386.5 340.31,-394.76 362.92,-399.43 382.79,-402.08"/>
<polygon fill="midnightblue" stroke="midnightblue" points="382.55,-405.57 392.89,-403.28 383.38,-398.62 382.55,-405.57"/>
</g>
<!-- Node10 -->
<g id="node10" class="node">
<title>Node10</title>
<g id="a_node10"><a xlink:href="classrare_1_1components_1_1dialogs_1_1move__dialog_1_1_move_dialog.html#a5786ae567b9d7f6957dfb2ae04f22e63" target="_top" xlink:title=" ">
<polygon fill="white" stroke="black" points="360.5,-318 360.5,-359 508.5,-359 508.5,-318 360.5,-318"/>
<text text-anchor="start" x="368.5" y="-347" font-family="Helvetica,sans-Serif" font-size="10.00">rare.components.dialogs.move</text>
<text text-anchor="start" x="368.5" y="-336" font-family="Helvetica,sans-Serif" font-size="10.00">_dialog.MoveDialog.accept</text>
<text text-anchor="middle" x="434.5" y="-325" font-family="Helvetica,sans-Serif" font-size="10.00">_handler</text>
</a>
</g>
</g>
<!-- Node7&#45;&gt;Node10 -->
<g id="edge17" class="edge">
<title>Node7&#45;&gt;Node10</title>
<path fill="none" stroke="midnightblue" d="M272.51,-312.2C296.73,-316.16 324.52,-320.7 350.12,-324.88"/>
<polygon fill="midnightblue" stroke="midnightblue" points="349.75,-328.37 360.18,-326.52 350.88,-321.46 349.75,-328.37"/>
</g>
<!-- Node11 -->
<g id="node11" class="node">
<title>Node11</title>
<g id="a_node11"><a xlink:href="classrare_1_1components_1_1dialogs_1_1selective__dialog_1_1_selective_dialog.html#a5786ae567b9d7f6957dfb2ae04f22e63" target="_top" xlink:title=" ">
<polygon fill="white" stroke="black" points="342,-250.5 342,-280.5 527,-280.5 527,-250.5 342,-250.5"/>
<text text-anchor="start" x="350" y="-268.5" font-family="Helvetica,sans-Serif" font-size="10.00">rare.components.dialogs.selective</text>
<text text-anchor="middle" x="434.5" y="-257.5" font-family="Helvetica,sans-Serif" font-size="10.00">_dialog.SelectiveDialog.accept_handler</text>
</a>
</g>
</g>
<!-- Node7&#45;&gt;Node11 -->
<g id="edge19" class="edge">
<title>Node7&#45;&gt;Node11</title>
<path fill="none" stroke="midnightblue" d="M272.51,-291.09C290.96,-288.16 311.46,-284.9 331.5,-281.71"/>
<polygon fill="midnightblue" stroke="midnightblue" points="332.27,-285.13 341.6,-280.11 331.18,-278.22 332.27,-285.13"/>
</g>
<!-- Node12 -->
<g id="node12" class="node">
<title>Node12</title>
<g id="a_node12"><a xlink:href="classrare_1_1components_1_1dialogs_1_1uninstall__dialog_1_1_uninstall_dialog.html#a5786ae567b9d7f6957dfb2ae04f22e63" target="_top" xlink:title=" ">
<polygon fill="white" stroke="black" points="343,-183.5 343,-213.5 526,-213.5 526,-183.5 343,-183.5"/>
<text text-anchor="start" x="351" y="-201.5" font-family="Helvetica,sans-Serif" font-size="10.00">rare.components.dialogs.uninstall</text>
<text text-anchor="middle" x="434.5" y="-190.5" font-family="Helvetica,sans-Serif" font-size="10.00">_dialog.UninstallDialog.accept_handler</text>
</a>
</g>
</g>
<!-- Node7&#45;&gt;Node12 -->
<g id="edge21" class="edge">
<title>Node7&#45;&gt;Node12</title>
<path fill="none" stroke="midnightblue" d="M266.67,-286.5C273.06,-283.92 279.3,-280.93 285,-277.5 304.39,-265.83 302.01,-253.81 321,-241.5 336.18,-231.66 353.95,-223.56 370.82,-217.14"/>
<polygon fill="midnightblue" stroke="midnightblue" points="372.44,-220.28 380.63,-213.56 370.03,-213.71 372.44,-220.28"/>
</g>
<!-- Node13 -->
<g id="node13" class="node">
<title>Node13</title>
<g id="a_node13"><a xlink:href="classrare_1_1components_1_1tabs_1_1settings_1_1widgets_1_1wrappers_1_1_wrapper_edit_dialog.html#a5786ae567b9d7f6957dfb2ae04f22e63" target="_top" xlink:title=" ">
<polygon fill="white" stroke="black" points="321,-116.5 321,-146.5 548,-146.5 548,-116.5 321,-116.5"/>
<text text-anchor="start" x="329" y="-134.5" font-family="Helvetica,sans-Serif" font-size="10.00">rare.components.tabs.settings.widgets.wrappers.</text>
<text text-anchor="middle" x="434.5" y="-123.5" font-family="Helvetica,sans-Serif" font-size="10.00">WrapperEditDialog.accept_handler</text>
</a>
</g>
</g>
<!-- Node7&#45;&gt;Node13 -->
<g id="edge23" class="edge">
<title>Node7&#45;&gt;Node13</title>
<path fill="none" stroke="midnightblue" d="M272.67,-286.63C277.14,-284.06 281.33,-281.04 285,-277.5 319.93,-243.86 287.21,-209.28 321,-174.5 330.85,-164.36 343.34,-156.58 356.39,-150.62"/>
<polygon fill="midnightblue" stroke="midnightblue" points="358.1,-153.69 365.96,-146.59 355.39,-147.24 358.1,-153.69"/>
</g>
<!-- Node14 -->
<g id="node14" class="node">
<title>Node14</title>
<g id="a_node14"><a xlink:href="classrare_1_1widgets_1_1dialogs_1_1_button_dialog.html#a5786ae567b9d7f6957dfb2ae04f22e63" target="_top" xlink:title=" ">
<polygon fill="white" stroke="black" points="368,-49.5 368,-79.5 501,-79.5 501,-49.5 368,-49.5"/>
<text text-anchor="start" x="376" y="-67.5" font-family="Helvetica,sans-Serif" font-size="10.00">rare.widgets.dialogs.Button</text>
<text text-anchor="middle" x="434.5" y="-56.5" font-family="Helvetica,sans-Serif" font-size="10.00">Dialog.accept_handler</text>
</a>
</g>
</g>
<!-- Node7&#45;&gt;Node14 -->
<g id="edge25" class="edge">
<title>Node7&#45;&gt;Node14</title>
<path fill="none" stroke="midnightblue" d="M272.82,-287.36C277.32,-284.63 281.47,-281.37 285,-277.5 337.36,-220.14 270.35,-165.37 321,-106.5 330.93,-94.96 344.34,-86.59 358.45,-80.51"/>
<polygon fill="midnightblue" stroke="midnightblue" points="359.76,-83.76 367.79,-76.84 357.2,-77.24 359.76,-83.76"/>
</g>
<!-- Node8&#45;&gt;Node8 -->
<g id="edge13" class="edge">
<title>Node8&#45;&gt;Node8</title>
<path fill="none" stroke="midnightblue" d="M394.43,-493.36C390.06,-503.04 403.42,-511.5 434.5,-511.5 453.93,-511.5 466.43,-508.2 472.01,-503.36"/>
<polygon fill="midnightblue" stroke="midnightblue" points="475.47,-503.92 474.57,-493.36 468.69,-502.18 475.47,-503.92"/>
</g>
<!-- Node9&#45;&gt;Node2 -->
<g id="edge15" class="edge">
<title>Node9&#45;&gt;Node2</title>
<path fill="none" stroke="midnightblue" d="M476.09,-412.84C498.72,-418.35 526.58,-427.57 548,-442.5 588.84,-470.97 621.62,-520.06 638.82,-549.38"/>
<polygon fill="midnightblue" stroke="midnightblue" points="635.84,-551.22 643.85,-558.16 641.92,-547.74 635.84,-551.22"/>
</g>
<!-- Node9&#45;&gt;Node9 -->
<g id="edge16" class="edge">
<title>Node9&#45;&gt;Node9</title>
<path fill="none" stroke="midnightblue" d="M401.17,-415.11C384.43,-423.96 395.54,-433.5 434.5,-433.5 463.11,-433.5 476.7,-428.36 475.27,-422.12"/>
<polygon fill="midnightblue" stroke="midnightblue" points="477.51,-419.42 467.83,-415.11 472.71,-424.51 477.51,-419.42"/>
</g>
<!-- Node10&#45;&gt;Node10 -->
<g id="edge18" class="edge">
<title>Node10&#45;&gt;Node10</title>
<path fill="none" stroke="midnightblue" d="M394.43,-359.36C390.06,-369.04 403.42,-377.5 434.5,-377.5 453.93,-377.5 466.43,-374.2 472.01,-369.36"/>
<polygon fill="midnightblue" stroke="midnightblue" points="475.47,-369.92 474.57,-359.36 468.69,-368.18 475.47,-369.92"/>
</g>
<!-- Node11&#45;&gt;Node11 -->
<g id="edge20" class="edge">
<title>Node11&#45;&gt;Node11</title>
<path fill="none" stroke="midnightblue" d="M396.51,-280.66C387.35,-290.06 400.01,-299 434.5,-299 455.52,-299 468.43,-295.68 473.24,-290.96"/>
<polygon fill="midnightblue" stroke="midnightblue" points="476.7,-290.38 472.49,-280.66 469.72,-290.89 476.7,-290.38"/>
</g>
<!-- Node12&#45;&gt;Node12 -->
<g id="edge22" class="edge">
<title>Node12&#45;&gt;Node12</title>
<path fill="none" stroke="midnightblue" d="M396.51,-213.66C387.35,-223.06 400.01,-232 434.5,-232 455.52,-232 468.43,-228.68 473.24,-223.96"/>
<polygon fill="midnightblue" stroke="midnightblue" points="476.7,-223.38 472.49,-213.66 469.72,-223.89 476.7,-223.38"/>
</g>
<!-- Node13&#45;&gt;Node13 -->
<g id="edge24" class="edge">
<title>Node13&#45;&gt;Node13</title>
<path fill="none" stroke="midnightblue" d="M396.51,-146.66C387.35,-156.06 400.01,-165 434.5,-165 455.52,-165 468.43,-161.68 473.24,-156.96"/>
<polygon fill="midnightblue" stroke="midnightblue" points="476.7,-156.38 472.49,-146.66 469.72,-156.89 476.7,-156.38"/>
</g>
<!-- Node14&#45;&gt;Node14 -->
<g id="edge26" class="edge">
<title>Node14&#45;&gt;Node14</title>
<path fill="none" stroke="midnightblue" d="M396.51,-79.66C387.35,-89.06 400.01,-98 434.5,-98 455.52,-98 468.43,-94.68 473.24,-89.96"/>
<polygon fill="midnightblue" stroke="midnightblue" points="476.7,-89.38 472.49,-79.66 469.72,-89.89 476.7,-89.38"/>
</g>
<!-- Node15&#45;&gt;Node15 -->
<g id="edge29" class="edge">
<title>Node15&#45;&gt;Node15</title>
<path fill="none" stroke="midnightblue" d="M178.12,-249.66C171.39,-259.06 180.69,-268 206,-268 221.42,-268 230.9,-264.68 234.43,-259.96"/>
<polygon fill="midnightblue" stroke="midnightblue" points="237.91,-259.46 233.88,-249.66 230.92,-259.83 237.91,-259.46"/>
</g>
<!-- Node16 -->
<g id="node16" class="node">
<title>Node16</title>
<g id="a_node16"><a xlink:href="classrare_1_1widgets_1_1dialogs_1_1_test_dialog.html#aabea3c93766dc521bfb00bb34037879d" target="_top" xlink:title=" ">
<polygon fill="white" stroke="black" points="372.5,-0.5 372.5,-30.5 496.5,-30.5 496.5,-0.5 372.5,-0.5"/>
<text text-anchor="start" x="380.5" y="-18.5" font-family="Helvetica,sans-Serif" font-size="10.00">rare.widgets.dialogs.Test</text>
<text text-anchor="middle" x="434.5" y="-7.5" font-family="Helvetica,sans-Serif" font-size="10.00">Dialog._on_accept</text>
</a>
</g>
</g>
<!-- Node15&#45;&gt;Node16 -->
<g id="edge28" class="edge">
<title>Node15&#45;&gt;Node16</title>
<path fill="none" stroke="midnightblue" d="M268.36,-222.04C274.59,-218.78 280.33,-214.67 285,-209.5 336.77,-152.19 266.43,-94.15 321,-39.5 332.11,-28.37 347.03,-21.82 362.37,-18.08"/>
<polygon fill="midnightblue" stroke="midnightblue" points="363.38,-21.44 372.47,-16.01 361.97,-14.59 363.38,-21.44"/>
</g>
<!-- Node17&#45;&gt;Node17 -->
<g id="edge31" class="edge">
<title>Node17&#45;&gt;Node17</title>
<path fill="none" stroke="midnightblue" d="M181.34,-182.26C169.34,-191.07 177.56,-200.5 206,-200.5 225.11,-200.5 235.09,-196.24 235.94,-190.77"/>
<polygon fill="midnightblue" stroke="midnightblue" points="238.9,-188.91 230.66,-182.26 232.95,-192.6 238.9,-188.91"/>
</g>
<!-- Node18&#45;&gt;Node18 -->
<g id="edge34" class="edge">
<title>Node18&#45;&gt;Node18</title>
<path fill="none" stroke="midnightblue" d="M181.34,-126.26C169.34,-135.07 177.56,-144.5 206,-144.5 225.11,-144.5 235.09,-140.24 235.94,-134.77"/>
<polygon fill="midnightblue" stroke="midnightblue" points="238.9,-132.91 230.66,-126.26 232.95,-136.6 238.9,-132.91"/>
</g>
<!-- Node19&#45;&gt;Node19 -->
<g id="edge36" class="edge">
<title>Node19&#45;&gt;Node19</title>
<path fill="none" stroke="midnightblue" d="M178.12,-69.66C171.39,-79.06 180.69,-88 206,-88 221.42,-88 230.9,-84.68 234.43,-79.96"/>
<polygon fill="midnightblue" stroke="midnightblue" points="237.91,-79.46 233.88,-69.66 230.92,-79.83 237.91,-79.46"/>
</g>
</g>
</svg>
        <g id="navigator" transform="translate(0 0)" fill="#404254">
                <rect fill="#f2f5e9" fill-opacity="0.5" stroke="#606060" stroke-width=".5" x="0" y="0" width="60" height="60"/>
                <use id="zoomplus" xlink:href="#zoomPlus" x="17" y="9" onmousedown="handleZoom(evt,'in')"/>
                <use id="zoomminus" xlink:href="#zoomMin" x="42" y="9" onmousedown="handleZoom(evt,'out')"/>
                <use id="reset" xlink:href="#resetDef" x="30" y="36" onmousedown="handleReset()"/>
                <g id="arrowUp" xlink:href="#dirArrow" transform="translate(30 24)" onmousedown="handlePan(0,-1)">
                  <use xlink:href="#rim" fill="#404040">
                        <set attributeName="fill" to="#808080" begin="arrowUp.mouseover" end="arrowUp.mouseout"/>
                  </use>
                  <path fill="none" stroke="white" stroke-width="1.5" d="M0,-3.0v7 M-2.5,-0.5L0,-3.0L2.5,-0.5"/>
                </g>
                <g id="arrowRight" xlink:href="#dirArrow" transform="rotate(90) translate(36 -43)" onmousedown="handlePan(1,0)">
                  <use xlink:href="#rim" fill="#404040">
                        <set attributeName="fill" to="#808080" begin="arrowRight.mouseover" end="arrowRight.mouseout"/>
                  </use>
                  <path fill="none" stroke="white" stroke-width="1.5" d="M0,-3.0v7 M-2.5,-0.5L0,-3.0L2.5,-0.5"/>
                </g>
                <g id="arrowDown" xlink:href="#dirArrow" transform="rotate(180) translate(-30 -48)" onmousedown="handlePan(0,1)">
                  <use xlink:href="#rim" fill="#404040">
                        <set attributeName="fill" to="#808080" begin="arrowDown.mouseover" end="arrowDown.mouseout"/>
                  </use>
                  <path fill="none" stroke="white" stroke-width="1.5" d="M0,-3.0v7 M-2.5,-0.5L0,-3.0L2.5,-0.5"/>
                </g>
                <g id="arrowLeft" xlink:href="#dirArrow" transform="rotate(270) translate(-36 17)" onmousedown="handlePan(-1,0)">
                  <use xlink:href="#rim" fill="#404040">
                        <set attributeName="fill" to="#808080" begin="arrowLeft.mouseover" end="arrowLeft.mouseout"/>
                  </use>
                  <path fill="none" stroke="white" stroke-width="1.5" d="M0,-3.0v7 M-2.5,-0.5L0,-3.0L2.5,-0.5"/>
                </g>
        </g>
        <svg viewBox="0 0 15 15" width="100%" height="30px" preserveAspectRatio="xMaxYMin meet">
         <g id="arrow_out" transform="scale(0.3 0.3)">
          <a xlink:href="classrare_1_1components_1_1dialogs_1_1install__dialog_1_1_install_dialog_a64dd35f139577016bc6417719d65d969_cgraph_org.svg" target="_base">
           <rect id="button" ry="5" rx="5" y="6" x="6" height="38" width="38"
                fill="#f2f5e9" fill-opacity="0.5" stroke="#606060" stroke-width="1.0"/>
           <path id="arrow"
             d="M 11.500037,31.436501 C 11.940474,20.09759 22.043105,11.32322 32.158766,21.979434 L 37.068811,17.246167 C 37.068811,17.246167 37.088388,32 37.088388,32 L 22.160133,31.978069 C 22.160133,31.978069 26.997745,27.140456 26.997745,27.140456 C 18.528582,18.264221 13.291696,25.230495 11.500037,31.436501 z"
             style="fill:#404040;"/>
          </a>
         </g>
        </svg>
</svg>
