<?xml version="1.0" encoding="UTF-8" standalone="no"?>
<!DOCTYPE svg PUBLIC "-//W3C//DTD SVG 1.1//EN"
 "http://www.w3.org/Graphics/SVG/1.1/DTD/svg11.dtd">
<!-- Generated by graphviz version 2.49.3 (20211027.1534)
 -->
<!-- Title: launch Pages: 1 -->
<svg width="244pt" height="57pt"
 viewBox="0.00 0.00 243.91 57.00" xmlns="http://www.w3.org/2000/svg" xmlns:xlink="http://www.w3.org/1999/xlink">
<g id="graph0" class="graph" transform="scale(1 1) rotate(0) translate(4 53)">
<title>launch</title>
<polygon fill="white" stroke="transparent" points="-4,4 -4,-53 239.91,-53 239.91,4 -4,4"/>
<!-- Node1 -->
<g id="node1" class="node">
<title>Node1</title>
<g id="a_node1"><a xlink:title=" ">
<polygon fill="#bfbfbf" stroke="black" points="2.91,-6 2.91,-25 47.91,-25 47.91,-6 2.91,-6"/>
<text text-anchor="middle" x="25.41" y="-13" font-family="Helvetica,sans-Serif" font-size="10.00">launch</text>
</a>
</g>
</g>
<!-- Node1&#45;&gt;Node1 -->
<g id="edge1" class="edge">
<title>Node1&#45;&gt;Node1</title>
<path fill="none" stroke="midnightblue" d="M4.76,-25.26C-5.29,-34.07 1.59,-43.5 25.41,-43.5 40.67,-43.5 48.98,-39.63 50.34,-34.53"/>
<polygon fill="midnightblue" stroke="midnightblue" points="53.43,-32.87 46.06,-25.26 47.07,-35.8 53.43,-32.87"/>
</g>
<!-- Node2 -->
<g id="node2" class="node">
<title>Node2</title>
<g id="a_node2"><a xlink:href="classrare_1_1components_1_1dialogs_1_1launch__dialog_1_1_image_worker.html#abfb44fdc3f5ec4c03f5d2e72900deb61" target="_top" xlink:title=" ">
<polygon fill="white" stroke="black" points="83.91,-0.5 83.91,-30.5 235.91,-30.5 235.91,-0.5 83.91,-0.5"/>
<text text-anchor="start" x="91.91" y="-18.5" font-family="Helvetica,sans-Serif" font-size="10.00">rare.components.dialogs.launch</text>
<text text-anchor="middle" x="159.91" y="-7.5" font-family="Helvetica,sans-Serif" font-size="10.00">_dialog.ImageWorker.tr</text>
</a>
</g>
</g>
<!-- Node1&#45;&gt;Node2 -->
<g id="edge2" class="edge">
<title>Node1&#45;&gt;Node2</title>
<path fill="none" stroke="midnightblue" d="M47.99,-15.5C55.37,-15.5 64.13,-15.5 73.45,-15.5"/>
<polygon fill="midnightblue" stroke="midnightblue" points="73.74,-19 83.74,-15.5 73.74,-12 73.74,-19"/>
</g>
<!-- Node2&#45;&gt;Node2 -->
<g id="edge3" class="edge">
<title>Node2&#45;&gt;Node2</title>
<path fill="none" stroke="midnightblue" d="M136.56,-30.66C130.93,-40.06 138.71,-49 159.91,-49 172.83,-49 180.76,-45.68 183.72,-40.96"/>
<polygon fill="midnightblue" stroke="midnightblue" points="187.2,-40.49 183.26,-30.66 180.21,-40.8 187.2,-40.49"/>
</g>
</g>
</svg>
