<?xml version="1.0" encoding="UTF-8" standalone="no"?>
<!DOCTYPE svg PUBLIC "-//W3C//DTD SVG 1.1//EN"
 "http://www.w3.org/Graphics/SVG/1.1/DTD/svg11.dtd">
<!-- Generated by graphviz version 2.49.3 (20211027.1534)
 -->
<!-- Title: update_progress Pages: 1 -->
<svg width="404pt" height="124pt"
 viewBox="0.00 0.00 404.00 124.00" xmlns="http://www.w3.org/2000/svg" xmlns:xlink="http://www.w3.org/1999/xlink">
<g id="graph0" class="graph" transform="scale(1 1) rotate(0) translate(4 120)">
<title>update_progress</title>
<polygon fill="white" stroke="transparent" points="-4,4 -4,-120 400,-120 400,4 -4,4"/>
<!-- Node1 -->
<g id="node1" class="node">
<title>Node1</title>
<g id="a_node1"><a xlink:title=" ">
<polygon fill="#bfbfbf" stroke="black" points="307,-44.5 307,-63.5 396,-63.5 396,-44.5 307,-44.5"/>
<text text-anchor="middle" x="351.5" y="-51.5" font-family="Helvetica,sans-Serif" font-size="10.00">update_progress</text>
</a>
</g>
</g>
<!-- Node1&#45;&gt;Node1 -->
<g id="edge7" class="edge">
<title>Node1&#45;&gt;Node1</title>
<path fill="none" stroke="midnightblue" d="M370.39,-73.4C369.13,-78.31 362.83,-82 351.5,-82 333.37,-82 328.13,-72.57 335.78,-63.76"/>
<polygon fill="midnightblue" stroke="midnightblue" points="373.67,-72.17 367.22,-63.76 367.02,-74.35 373.67,-72.17"/>
</g>
<!-- Node2 -->
<g id="node2" class="node">
<title>Node2</title>
<g id="a_node2"><a xlink:href="classrare_1_1components_1_1dialogs_1_1launch__dialog_1_1_launch_dialog.html#af9075195d51b585cd05540dca2a1eadb" target="_top" xlink:title=" ">
<polygon fill="white" stroke="black" points="226,-44.5 226,-63.5 271,-63.5 271,-44.5 226,-44.5"/>
<text text-anchor="middle" x="248.5" y="-51.5" font-family="Helvetica,sans-Serif" font-size="10.00">launch</text>
</a>
</g>
</g>
<!-- Node1&#45;&gt;Node2 -->
<g id="edge1" class="edge">
<title>Node1&#45;&gt;Node2</title>
<path fill="none" stroke="midnightblue" d="M296.58,-54C287.54,-54 278.64,-54 271.06,-54"/>
<polygon fill="midnightblue" stroke="midnightblue" points="296.79,-57.5 306.79,-54 296.79,-50.5 296.79,-57.5"/>
</g>
<!-- Node2&#45;&gt;Node2 -->
<g id="edge2" class="edge">
<title>Node2&#45;&gt;Node2</title>
<path fill="none" stroke="midnightblue" d="M267.39,-73.4C266.13,-78.31 259.83,-82 248.5,-82 230.37,-82 225.13,-72.57 232.78,-63.76"/>
<polygon fill="midnightblue" stroke="midnightblue" points="270.67,-72.17 264.22,-63.76 264.02,-74.35 270.67,-72.17"/>
</g>
<!-- Node3 -->
<g id="node3" class="node">
<title>Node3</title>
<g id="a_node3"><a xlink:href="classrare_1_1components_1_1dialogs_1_1launch__dialog_1_1_launch_dialog.html#a6c3ea5ef9b9848bf1214c66978e3d59d" target="_top" xlink:title=" ">
<polygon fill="white" stroke="black" points="76.5,-78.5 76.5,-97.5 113.5,-97.5 113.5,-78.5 76.5,-78.5"/>
<text text-anchor="middle" x="95" y="-85.5" font-family="Helvetica,sans-Serif" font-size="10.00">login</text>
</a>
</g>
</g>
<!-- Node2&#45;&gt;Node3 -->
<g id="edge3" class="edge">
<title>Node2&#45;&gt;Node3</title>
<path fill="none" stroke="midnightblue" d="M216.12,-62.52C207.67,-64.73 198.5,-67.03 190,-69 163.56,-75.12 132.68,-81.15 113.73,-84.72"/>
<polygon fill="midnightblue" stroke="midnightblue" points="217.23,-65.85 226,-59.91 215.44,-59.08 217.23,-65.85"/>
</g>
<!-- Node4 -->
<g id="node4" class="node">
<title>Node4</title>
<g id="a_node4"><a xlink:href="classrare_1_1components_1_1tabs_1_1games_1_1game__widgets_1_1installed__icon__widget_1_1_installed_icon_widget.html#a2a84750d2732323b5eafab7a626a12ac" target="_top" xlink:title=" ">
<polygon fill="white" stroke="black" points="0,-0.5 0,-41.5 190,-41.5 190,-0.5 0,-0.5"/>
<text text-anchor="start" x="8" y="-29.5" font-family="Helvetica,sans-Serif" font-size="10.00">rare.components.tabs.games.game</text>
<text text-anchor="start" x="8" y="-18.5" font-family="Helvetica,sans-Serif" font-size="10.00">_widgets.installed_icon_widget.Installed</text>
<text text-anchor="middle" x="95" y="-7.5" font-family="Helvetica,sans-Serif" font-size="10.00">IconWidget.mousePressEvent</text>
</a>
</g>
</g>
<!-- Node2&#45;&gt;Node4 -->
<g id="edge5" class="edge">
<title>Node2&#45;&gt;Node4</title>
<path fill="none" stroke="midnightblue" d="M215.81,-47.1C208.02,-45.4 199.28,-43.5 190.15,-41.51"/>
<polygon fill="midnightblue" stroke="midnightblue" points="215.28,-50.56 225.79,-49.27 216.77,-43.72 215.28,-50.56"/>
</g>
<!-- Node3&#45;&gt;Node3 -->
<g id="edge4" class="edge">
<title>Node3&#45;&gt;Node3</title>
<path fill="none" stroke="midnightblue" d="M121.87,-101.17C127.5,-108.84 118.54,-116 95,-116 64.87,-116 58.63,-104.26 76.28,-94.75"/>
<polygon fill="midnightblue" stroke="midnightblue" points="123.74,-98.18 113.72,-94.75 119.41,-103.68 123.74,-98.18"/>
</g>
<!-- Node4&#45;&gt;Node4 -->
<g id="edge6" class="edge">
<title>Node4&#45;&gt;Node4</title>
<path fill="none" stroke="midnightblue" d="M121.15,-51.86C117.26,-56.7 108.54,-60 95,-60 73.33,-60 64.02,-51.54 67.06,-41.86"/>
<polygon fill="midnightblue" stroke="midnightblue" points="124.62,-52.32 122.94,-41.86 117.73,-51.09 124.62,-52.32"/>
</g>
</g>
</svg>
