<?xml version="1.0" encoding="UTF-8" standalone="no"?>
<!DOCTYPE svg PUBLIC "-//W3C//DTD SVG 1.1//EN"
 "http://www.w3.org/Graphics/SVG/1.1/DTD/svg11.dtd">
<!-- Generated by graphviz version 2.49.3 (20211027.1534)
 -->
<!-- Title: __init__ Pages: 1 -->
<svg width="473pt" height="314pt"
 viewBox="0.00 0.00 473.34 313.50" xmlns="http://www.w3.org/2000/svg" xmlns:xlink="http://www.w3.org/1999/xlink">
<g id="graph0" class="graph" transform="scale(1 1) rotate(0) translate(4 309.5)">
<title>__init__</title>
<polygon fill="white" stroke="transparent" points="-4,4 -4,-309.5 469.34,-309.5 469.34,4 -4,4"/>
<!-- Node1 -->
<g id="node1" class="node">
<title>Node1</title>
<g id="a_node1"><a xlink:title=" ">
<polygon fill="#bfbfbf" stroke="black" points="5.34,-140 5.34,-159 55.34,-159 55.34,-140 5.34,-140"/>
<text text-anchor="middle" x="30.34" y="-147" font-family="Helvetica,sans-Serif" font-size="10.00">__init__</text>
</a>
</g>
</g>
<!-- Node1&#45;&gt;Node1 -->
<g id="edge1" class="edge">
<title>Node1&#45;&gt;Node1</title>
<path fill="none" stroke="midnightblue" d="M5.68,-159.26C-6.32,-168.07 1.9,-177.5 30.34,-177.5 49.45,-177.5 59.43,-173.24 60.28,-167.77"/>
<polygon fill="midnightblue" stroke="midnightblue" points="63.24,-165.91 55,-159.26 57.29,-169.6 63.24,-165.91"/>
</g>
<!-- Node2 -->
<g id="node2" class="node">
<title>Node2</title>
<g id="a_node2"><a xlink:href="classrare_1_1widgets_1_1elide__label_1_1_elide_label.html#aa25390a39bbdce0c91c93bb8adac619b" target="_top" xlink:title=" ">
<polygon fill="white" stroke="black" points="129.84,-240.5 129.84,-270.5 253.84,-270.5 253.84,-240.5 129.84,-240.5"/>
<text text-anchor="start" x="137.84" y="-258.5" font-family="Helvetica,sans-Serif" font-size="10.00">rare.widgets.elide</text>
<text text-anchor="middle" x="191.84" y="-247.5" font-family="Helvetica,sans-Serif" font-size="10.00">_label.ElideLabel.setText</text>
</a>
</g>
</g>
<!-- Node1&#45;&gt;Node2 -->
<g id="edge2" class="edge">
<title>Node1&#45;&gt;Node2</title>
<path fill="none" stroke="midnightblue" d="M36.4,-159.23C45.32,-175.41 65.35,-207.81 91.34,-225.5 100.04,-231.42 109.95,-236.21 120.05,-240.06"/>
<polygon fill="midnightblue" stroke="midnightblue" points="119.18,-243.46 129.77,-243.48 121.5,-236.86 119.18,-243.46"/>
</g>
<!-- Node4 -->
<g id="node4" class="node">
<title>Node4</title>
<g id="a_node4"><a xlink:href="classrare_1_1widgets_1_1elide__label_1_1_elide_label.html#a33360da8f4ed32e6e51e3f3490c3a9da" target="_top" xlink:title=" ">
<polygon fill="white" stroke="black" points="328.34,-196.5 328.34,-226.5 465.34,-226.5 465.34,-196.5 328.34,-196.5"/>
<text text-anchor="start" x="336.34" y="-214.5" font-family="Helvetica,sans-Serif" font-size="10.00">rare.widgets.elide</text>
<text text-anchor="middle" x="396.84" y="-203.5" font-family="Helvetica,sans-Serif" font-size="10.00">_label.ElideLabel.setToolTip</text>
</a>
</g>
</g>
<!-- Node1&#45;&gt;Node4 -->
<g id="edge13" class="edge">
<title>Node1&#45;&gt;Node4</title>
<path fill="none" stroke="midnightblue" d="M41.4,-159.19C52.58,-169.29 71.67,-184.58 91.34,-191.5 165.08,-217.43 254.96,-220.12 317.88,-217.74"/>
<polygon fill="midnightblue" stroke="midnightblue" points="318.3,-221.22 328.14,-217.29 317.99,-214.23 318.3,-221.22"/>
</g>
<!-- Node5 -->
<g id="node5" class="node">
<title>Node5</title>
<g id="a_node5"><a xlink:href="classrare_1_1widgets_1_1collapsible__widget_1_1_collapsible_frame.html#aa1ce5c203733553579a07cf1db0da9df" target="_top" xlink:title=" ">
<polygon fill="white" stroke="black" points="110.84,-134.5 110.84,-164.5 272.84,-164.5 272.84,-134.5 110.84,-134.5"/>
<text text-anchor="start" x="118.84" y="-152.5" font-family="Helvetica,sans-Serif" font-size="10.00">rare.widgets.collapsible</text>
<text text-anchor="middle" x="191.84" y="-141.5" font-family="Helvetica,sans-Serif" font-size="10.00">_widget.CollapsibleFrame.setText</text>
</a>
</g>
</g>
<!-- Node1&#45;&gt;Node5 -->
<g id="edge7" class="edge">
<title>Node1&#45;&gt;Node5</title>
<path fill="none" stroke="midnightblue" d="M55.56,-149.5C67.91,-149.5 83.77,-149.5 100.26,-149.5"/>
<polygon fill="midnightblue" stroke="midnightblue" points="100.58,-153 110.58,-149.5 100.58,-146 100.58,-153"/>
</g>
<!-- Node6 -->
<g id="node6" class="node">
<title>Node6</title>
<g id="a_node6"><a xlink:href="classrare_1_1widgets_1_1indicator__edit_1_1_indicator_line_edit.html#aa1ce5c203733553579a07cf1db0da9df" target="_top" xlink:title=" ">
<polygon fill="white" stroke="black" points="118.34,-67.5 118.34,-97.5 265.34,-97.5 265.34,-67.5 118.34,-67.5"/>
<text text-anchor="start" x="126.34" y="-85.5" font-family="Helvetica,sans-Serif" font-size="10.00">rare.widgets.indicator</text>
<text text-anchor="middle" x="191.84" y="-74.5" font-family="Helvetica,sans-Serif" font-size="10.00">_edit.IndicatorLineEdit.setText</text>
</a>
</g>
</g>
<!-- Node1&#45;&gt;Node6 -->
<g id="edge9" class="edge">
<title>Node1&#45;&gt;Node6</title>
<path fill="none" stroke="midnightblue" d="M54.19,-139.9C77.98,-129.91 115.85,-114 145.7,-101.46"/>
<polygon fill="midnightblue" stroke="midnightblue" points="147.21,-104.62 155.08,-97.52 144.5,-98.17 147.21,-104.62"/>
</g>
<!-- Node7 -->
<g id="node7" class="node">
<title>Node7</title>
<g id="a_node7"><a xlink:href="classrare_1_1components_1_1tabs_1_1library_1_1details_1_1details_1_1_game_tag_check_box.html#ac6d573c455e1ee6bdc8b9e7573b7923c" target="_top" xlink:title=" ">
<polygon fill="white" stroke="black" points="91.34,-0.5 91.34,-30.5 292.34,-30.5 292.34,-0.5 91.34,-0.5"/>
<text text-anchor="start" x="99.34" y="-18.5" font-family="Helvetica,sans-Serif" font-size="10.00">rare.components.tabs.library.details.details.</text>
<text text-anchor="middle" x="191.84" y="-7.5" font-family="Helvetica,sans-Serif" font-size="10.00">GameTagCheckBox.setText</text>
</a>
</g>
</g>
<!-- Node1&#45;&gt;Node7 -->
<g id="edge11" class="edge">
<title>Node1&#45;&gt;Node7</title>
<path fill="none" stroke="midnightblue" d="M35.32,-139.82C43.34,-121.41 63.1,-81.1 91.34,-57.5 102.62,-48.07 116.32,-40.48 129.91,-34.48"/>
<polygon fill="midnightblue" stroke="midnightblue" points="131.38,-37.66 139.26,-30.58 128.69,-31.2 131.38,-37.66"/>
</g>
<!-- Node2&#45;&gt;Node2 -->
<g id="edge4" class="edge">
<title>Node2&#45;&gt;Node2</title>
<path fill="none" stroke="midnightblue" d="M163.96,-270.66C157.23,-280.06 166.53,-289 191.84,-289 207.26,-289 216.74,-285.68 220.27,-280.96"/>
<polygon fill="midnightblue" stroke="midnightblue" points="223.75,-280.46 219.72,-270.66 216.76,-280.83 223.75,-280.46"/>
</g>
<!-- Node3 -->
<g id="node3" class="node">
<title>Node3</title>
<g id="a_node3"><a xlink:href="classrare_1_1widgets_1_1elide__label_1_1_elide_label.html#ad0cb63dd476fec536e87e7176b127a36" target="_top" xlink:title=" ">
<polygon fill="white" stroke="black" points="348.34,-264 348.34,-305 445.34,-305 445.34,-264 348.34,-264"/>
<text text-anchor="start" x="356.34" y="-293" font-family="Helvetica,sans-Serif" font-size="10.00">rare.widgets.elide</text>
<text text-anchor="start" x="356.34" y="-282" font-family="Helvetica,sans-Serif" font-size="10.00">_label.ElideLabel._</text>
<text text-anchor="middle" x="396.84" y="-271" font-family="Helvetica,sans-Serif" font-size="10.00">_setElideText</text>
</a>
</g>
</g>
<!-- Node2&#45;&gt;Node3 -->
<g id="edge3" class="edge">
<title>Node2&#45;&gt;Node3</title>
<path fill="none" stroke="midnightblue" d="M254.02,-264.24C280.71,-268.05 311.85,-272.5 338.14,-276.26"/>
<polygon fill="midnightblue" stroke="midnightblue" points="337.93,-279.76 348.33,-277.71 338.92,-272.83 337.93,-279.76"/>
</g>
<!-- Node2&#45;&gt;Node4 -->
<g id="edge5" class="edge">
<title>Node2&#45;&gt;Node4</title>
<path fill="none" stroke="midnightblue" d="M254.02,-242.24C274.18,-237.87 296.87,-232.95 318.09,-228.35"/>
<polygon fill="midnightblue" stroke="midnightblue" points="319.01,-231.73 328.05,-226.19 317.53,-224.89 319.01,-231.73"/>
</g>
<!-- Node4&#45;&gt;Node4 -->
<g id="edge6" class="edge">
<title>Node4&#45;&gt;Node4</title>
<path fill="none" stroke="midnightblue" d="M361.29,-226.66C352.72,-236.06 364.57,-245 396.84,-245 416.51,-245 428.59,-241.68 433.09,-236.96"/>
<polygon fill="midnightblue" stroke="midnightblue" points="436.56,-236.4 432.39,-226.66 429.57,-236.87 436.56,-236.4"/>
</g>
<!-- Node5&#45;&gt;Node5 -->
<g id="edge8" class="edge">
<title>Node5&#45;&gt;Node5</title>
<path fill="none" stroke="midnightblue" d="M163.96,-164.66C157.23,-174.06 166.53,-183 191.84,-183 207.26,-183 216.74,-179.68 220.27,-174.96"/>
<polygon fill="midnightblue" stroke="midnightblue" points="223.75,-174.46 219.72,-164.66 216.76,-174.83 223.75,-174.46"/>
</g>
<!-- Node6&#45;&gt;Node6 -->
<g id="edge10" class="edge">
<title>Node6&#45;&gt;Node6</title>
<path fill="none" stroke="midnightblue" d="M163.96,-97.66C157.23,-107.06 166.53,-116 191.84,-116 207.26,-116 216.74,-112.68 220.27,-107.96"/>
<polygon fill="midnightblue" stroke="midnightblue" points="223.75,-107.46 219.72,-97.66 216.76,-107.83 223.75,-107.46"/>
</g>
<!-- Node7&#45;&gt;Node7 -->
<g id="edge12" class="edge">
<title>Node7&#45;&gt;Node7</title>
<path fill="none" stroke="midnightblue" d="M163.96,-30.66C157.23,-40.06 166.53,-49 191.84,-49 207.26,-49 216.74,-45.68 220.27,-40.96"/>
<polygon fill="midnightblue" stroke="midnightblue" points="223.75,-40.46 219.72,-30.66 216.76,-40.83 223.75,-40.46"/>
</g>
</g>
</svg>
