<?xml version="1.0" encoding="UTF-8" standalone="no"?>
<!DOCTYPE svg PUBLIC "-//W3C//DTD SVG 1.1//EN"
 "http://www.w3.org/Graphics/SVG/1.1/DTD/svg11.dtd">
<!-- Generated by graphviz version 2.49.3 (20211027.1534)
 -->
<!-- Title: uninstall Pages: 1 -->
<svg width="485pt" height="516pt"
 viewBox="0.00 0.00 484.60 516.00" xmlns="http://www.w3.org/2000/svg" xmlns:xlink="http://www.w3.org/1999/xlink">
<g id="graph0" class="graph" transform="scale(1 1) rotate(0) translate(4 512)">
<title>uninstall</title>
<polygon fill="white" stroke="transparent" points="-4,4 -4,-512 480.6,-512 480.6,4 -4,4"/>
<!-- Node1 -->
<g id="node1" class="node">
<title>Node1</title>
<g id="a_node1"><a xlink:title=" ">
<polygon fill="#bfbfbf" stroke="black" points="4.6,-230 4.6,-249 57.6,-249 57.6,-230 4.6,-230"/>
<text text-anchor="middle" x="31.1" y="-237" font-family="Helvetica,sans-Serif" font-size="10.00">uninstall</text>
</a>
</g>
</g>
<!-- Node1&#45;&gt;Node1 -->
<g id="edge20" class="edge">
<title>Node1&#45;&gt;Node1</title>
<path fill="none" stroke="midnightblue" d="M5.82,-249.26C-6.48,-258.07 1.95,-267.5 31.1,-267.5 50.68,-267.5 60.91,-263.24 61.79,-257.77"/>
<polygon fill="midnightblue" stroke="midnightblue" points="64.69,-255.82 56.38,-249.26 58.78,-259.57 64.69,-255.82"/>
</g>
<!-- Node2 -->
<g id="node2" class="node">
<title>Node2</title>
<g id="a_node2"><a xlink:href="classrare_1_1components_1_1tabs_1_1library_1_1integrations_1_1egl__sync__group_1_1_e_g_l_sync_list_item.html#a9c470cc60eae203f55455d0e0d7f5712" target="_top" xlink:title=" ">
<polygon fill="white" stroke="black" points="93.6,-459.5 93.6,-489.5 298.6,-489.5 298.6,-459.5 93.6,-459.5"/>
<text text-anchor="start" x="101.6" y="-477.5" font-family="Helvetica,sans-Serif" font-size="10.00">rare.components.tabs.library.integrations.egl</text>
<text text-anchor="middle" x="196.1" y="-466.5" font-family="Helvetica,sans-Serif" font-size="10.00">_sync_group.EGLSyncListItem.app_name</text>
</a>
</g>
</g>
<!-- Node1&#45;&gt;Node2 -->
<g id="edge1" class="edge">
<title>Node1&#45;&gt;Node2</title>
<path fill="none" stroke="midnightblue" d="M31.76,-249.19C31.14,-282.55 33.84,-393.74 93.6,-450.5 94.71,-451.55 95.85,-452.56 97.03,-453.53"/>
<polygon fill="midnightblue" stroke="midnightblue" points="95.07,-456.43 105.26,-459.33 99.1,-450.71 95.07,-456.43"/>
</g>
<!-- Node3 -->
<g id="node3" class="node">
<title>Node3</title>
<g id="a_node3"><a xlink:href="classrare_1_1models_1_1base__game_1_1_rare_game_base.html#a5c91214c9c0ce70e64033ac6a3494d76" target="_top" xlink:title=" ">
<polygon fill="white" stroke="black" points="125.1,-392.5 125.1,-422.5 267.1,-422.5 267.1,-392.5 125.1,-392.5"/>
<text text-anchor="start" x="133.1" y="-410.5" font-family="Helvetica,sans-Serif" font-size="10.00">rare.models.base_game.Rare</text>
<text text-anchor="middle" x="196.1" y="-399.5" font-family="Helvetica,sans-Serif" font-size="10.00">GameBase.is_idle</text>
</a>
</g>
</g>
<!-- Node1&#45;&gt;Node3 -->
<g id="edge3" class="edge">
<title>Node1&#45;&gt;Node3</title>
<path fill="none" stroke="midnightblue" d="M33.26,-249.32C36.91,-275.48 50.55,-347.26 93.6,-383.5 100.07,-388.95 107.56,-393.21 115.48,-396.53"/>
<polygon fill="midnightblue" stroke="midnightblue" points="114.35,-399.84 124.94,-400.01 116.77,-393.27 114.35,-399.84"/>
</g>
<!-- Node4 -->
<g id="node4" class="node">
<title>Node4</title>
<g id="a_node4"><a xlink:href="classrare_1_1models_1_1base__game_1_1_rare_game_base.html#a823ab7286cb07208f430cc54252c82bb" target="_top" xlink:title=" ">
<polygon fill="white" stroke="black" points="125.1,-325.5 125.1,-355.5 267.1,-355.5 267.1,-325.5 125.1,-325.5"/>
<text text-anchor="start" x="133.1" y="-343.5" font-family="Helvetica,sans-Serif" font-size="10.00">rare.models.base_game.Rare</text>
<text text-anchor="middle" x="196.1" y="-332.5" font-family="Helvetica,sans-Serif" font-size="10.00">GameBase.is_installed</text>
</a>
</g>
</g>
<!-- Node1&#45;&gt;Node4 -->
<g id="edge5" class="edge">
<title>Node1&#45;&gt;Node4</title>
<path fill="none" stroke="midnightblue" d="M36.92,-249.01C45.78,-265.48 66.28,-299.2 93.6,-316.5 100.27,-320.72 107.61,-324.2 115.2,-327.07"/>
<polygon fill="midnightblue" stroke="midnightblue" points="114.32,-330.47 124.92,-330.39 116.58,-323.85 114.32,-330.47"/>
</g>
<!-- Node5 -->
<g id="node5" class="node">
<title>Node5</title>
<g id="a_node5"><a xlink:href="classrare_1_1models_1_1base__game_1_1_rare_game_slim.html#a823ab7286cb07208f430cc54252c82bb" target="_top" xlink:title=" ">
<polygon fill="white" stroke="black" points="125.1,-258.5 125.1,-288.5 267.1,-288.5 267.1,-258.5 125.1,-258.5"/>
<text text-anchor="start" x="133.1" y="-276.5" font-family="Helvetica,sans-Serif" font-size="10.00">rare.models.base_game.Rare</text>
<text text-anchor="middle" x="196.1" y="-265.5" font-family="Helvetica,sans-Serif" font-size="10.00">GameSlim.is_installed</text>
</a>
</g>
</g>
<!-- Node1&#45;&gt;Node5 -->
<g id="edge7" class="edge">
<title>Node1&#45;&gt;Node5</title>
<path fill="none" stroke="midnightblue" d="M57.93,-244.89C73.58,-248.15 94.48,-252.51 115.24,-256.84"/>
<polygon fill="midnightblue" stroke="midnightblue" points="114.57,-260.28 125.08,-258.89 116,-253.43 114.57,-260.28"/>
</g>
<!-- Node7 -->
<g id="node7" class="node">
<title>Node7</title>
<g id="a_node7"><a xlink:href="classrare_1_1models_1_1game_1_1_rare_game.html#a823ab7286cb07208f430cc54252c82bb" target="_top" xlink:title="Property to report if a game is installed.">
<polygon fill="white" stroke="black" points="120.1,-191.5 120.1,-221.5 272.1,-221.5 272.1,-191.5 120.1,-191.5"/>
<text text-anchor="start" x="128.1" y="-209.5" font-family="Helvetica,sans-Serif" font-size="10.00">rare.models.game.RareGame.is</text>
<text text-anchor="middle" x="196.1" y="-198.5" font-family="Helvetica,sans-Serif" font-size="10.00">_installed</text>
</a>
</g>
</g>
<!-- Node1&#45;&gt;Node7 -->
<g id="edge11" class="edge">
<title>Node1&#45;&gt;Node7</title>
<path fill="none" stroke="midnightblue" d="M57.93,-234.27C72.45,-231.33 91.49,-227.48 110.75,-223.58"/>
<polygon fill="midnightblue" stroke="midnightblue" points="111.71,-226.95 120.81,-221.54 110.32,-220.09 111.71,-226.95"/>
</g>
<!-- Node8 -->
<g id="node8" class="node">
<title>Node8</title>
<g id="a_node8"><a xlink:href="classrare_1_1models_1_1game_1_1_rare_eos_overlay.html#a823ab7286cb07208f430cc54252c82bb" target="_top" xlink:title=" ">
<polygon fill="white" stroke="black" points="163.6,-135 163.6,-154 228.6,-154 228.6,-135 163.6,-135"/>
<text text-anchor="middle" x="196.1" y="-142" font-family="Helvetica,sans-Serif" font-size="10.00">is_installed</text>
</a>
</g>
</g>
<!-- Node1&#45;&gt;Node8 -->
<g id="edge14" class="edge">
<title>Node1&#45;&gt;Node8</title>
<path fill="none" stroke="midnightblue" d="M40.35,-229.8C51.38,-217.35 72.04,-195.8 93.6,-182.5 112.14,-171.06 134.68,-162.19 153.81,-155.91"/>
<polygon fill="midnightblue" stroke="midnightblue" points="154.97,-159.21 163.46,-152.86 152.87,-152.54 154.97,-159.21"/>
</g>
<!-- Node9 -->
<g id="node9" class="node">
<title>Node9</title>
<g id="a_node9"><a xlink:href="classrare_1_1shared_1_1rare__core_1_1_rare_core.html#a135560fc58fcc2e5cff07ec25c23a06c" target="_top" xlink:title=" ">
<polygon fill="white" stroke="black" points="131.1,-67.5 131.1,-97.5 261.1,-97.5 261.1,-67.5 131.1,-67.5"/>
<text text-anchor="start" x="139.1" y="-85.5" font-family="Helvetica,sans-Serif" font-size="10.00">rare.shared.rare_core.Rare</text>
<text text-anchor="middle" x="196.1" y="-74.5" font-family="Helvetica,sans-Serif" font-size="10.00">Core.signals</text>
</a>
</g>
</g>
<!-- Node1&#45;&gt;Node9 -->
<g id="edge16" class="edge">
<title>Node1&#45;&gt;Node9</title>
<path fill="none" stroke="midnightblue" d="M34.86,-229.87C41.51,-208.32 60.34,-155.77 93.6,-125.5 104.58,-115.5 118.23,-107.62 131.92,-101.48"/>
<polygon fill="midnightblue" stroke="midnightblue" points="133.51,-104.61 141.37,-97.51 130.8,-98.16 133.51,-104.61"/>
</g>
<!-- Node10 -->
<g id="node10" class="node">
<title>Node10</title>
<g id="a_node10"><a xlink:href="classrare_1_1shared_1_1workers_1_1worker_1_1_worker.html#a9998d928f5b6f30ebb69dc655c0756a8" target="_top" xlink:title=" ">
<polygon fill="white" stroke="black" points="128.6,-0.5 128.6,-30.5 263.6,-30.5 263.6,-0.5 128.6,-0.5"/>
<text text-anchor="start" x="136.6" y="-18.5" font-family="Helvetica,sans-Serif" font-size="10.00">rare.shared.workers.worker.</text>
<text text-anchor="middle" x="196.1" y="-7.5" font-family="Helvetica,sans-Serif" font-size="10.00">Worker.signals</text>
</a>
</g>
</g>
<!-- Node1&#45;&gt;Node10 -->
<g id="edge18" class="edge">
<title>Node1&#45;&gt;Node10</title>
<path fill="none" stroke="midnightblue" d="M32.68,-229.86C34.96,-200.34 45.7,-110.04 93.6,-58.5 102.93,-48.46 114.98,-40.67 127.51,-34.66"/>
<polygon fill="midnightblue" stroke="midnightblue" points="128.95,-37.85 136.67,-30.59 126.11,-31.45 128.95,-37.85"/>
</g>
<!-- Node2&#45;&gt;Node2 -->
<g id="edge2" class="edge">
<title>Node2&#45;&gt;Node2</title>
<path fill="none" stroke="midnightblue" d="M167.52,-489.66C160.63,-499.06 170.15,-508 196.1,-508 211.91,-508 221.62,-504.68 225.24,-499.96"/>
<polygon fill="midnightblue" stroke="midnightblue" points="228.72,-499.45 224.68,-489.66 221.73,-499.83 228.72,-499.45"/>
</g>
<!-- Node3&#45;&gt;Node3 -->
<g id="edge4" class="edge">
<title>Node3&#45;&gt;Node3</title>
<path fill="none" stroke="midnightblue" d="M167.52,-422.66C160.63,-432.06 170.15,-441 196.1,-441 211.91,-441 221.62,-437.68 225.24,-432.96"/>
<polygon fill="midnightblue" stroke="midnightblue" points="228.72,-432.45 224.68,-422.66 221.73,-432.83 228.72,-432.45"/>
</g>
<!-- Node4&#45;&gt;Node4 -->
<g id="edge6" class="edge">
<title>Node4&#45;&gt;Node4</title>
<path fill="none" stroke="midnightblue" d="M167.52,-355.66C160.63,-365.06 170.15,-374 196.1,-374 211.91,-374 221.62,-370.68 225.24,-365.96"/>
<polygon fill="midnightblue" stroke="midnightblue" points="228.72,-365.45 224.68,-355.66 221.73,-365.83 228.72,-365.45"/>
</g>
<!-- Node5&#45;&gt;Node5 -->
<g id="edge8" class="edge">
<title>Node5&#45;&gt;Node5</title>
<path fill="none" stroke="midnightblue" d="M167.52,-288.66C160.63,-298.06 170.15,-307 196.1,-307 211.91,-307 221.62,-303.68 225.24,-298.96"/>
<polygon fill="midnightblue" stroke="midnightblue" points="228.72,-298.45 224.68,-288.66 221.73,-298.83 228.72,-298.45"/>
</g>
<!-- Node6 -->
<g id="node6" class="node">
<title>Node6</title>
<g id="a_node6"><a xlink:href="classrare_1_1models_1_1base__game_1_1_rare_game_base.html#a278563422a00c7eb39dfc65d0b71f51a" target="_top" xlink:title="Property to report if a Game is an Origin game.">
<polygon fill="white" stroke="black" points="334.6,-224.5 334.6,-254.5 476.6,-254.5 476.6,-224.5 334.6,-224.5"/>
<text text-anchor="start" x="342.6" y="-242.5" font-family="Helvetica,sans-Serif" font-size="10.00">rare.models.base_game.Rare</text>
<text text-anchor="middle" x="405.6" y="-231.5" font-family="Helvetica,sans-Serif" font-size="10.00">GameBase.is_origin</text>
</a>
</g>
</g>
<!-- Node5&#45;&gt;Node6 -->
<g id="edge9" class="edge">
<title>Node5&#45;&gt;Node6</title>
<path fill="none" stroke="midnightblue" d="M267.35,-261.99C285.69,-258.98 305.59,-255.72 324.4,-252.64"/>
<polygon fill="midnightblue" stroke="midnightblue" points="325.12,-256.07 334.42,-251 323.99,-249.16 325.12,-256.07"/>
</g>
<!-- Node6&#45;&gt;Node6 -->
<g id="edge10" class="edge">
<title>Node6&#45;&gt;Node6</title>
<path fill="none" stroke="midnightblue" d="M369.35,-254.66C360.61,-264.06 372.69,-273 405.6,-273 425.65,-273 437.97,-269.68 442.56,-264.96"/>
<polygon fill="midnightblue" stroke="midnightblue" points="446.03,-264.39 441.85,-254.66 439.04,-264.88 446.03,-264.39"/>
</g>
<!-- Node7&#45;&gt;Node6 -->
<g id="edge13" class="edge">
<title>Node7&#45;&gt;Node6</title>
<path fill="none" stroke="midnightblue" d="M272.3,-218.46C289.27,-221.16 307.34,-224.03 324.5,-226.76"/>
<polygon fill="midnightblue" stroke="midnightblue" points="324.06,-230.24 334.48,-228.35 325.16,-223.32 324.06,-230.24"/>
</g>
<!-- Node7&#45;&gt;Node7 -->
<g id="edge12" class="edge">
<title>Node7&#45;&gt;Node7</title>
<path fill="none" stroke="midnightblue" d="M167.52,-221.66C160.63,-231.06 170.15,-240 196.1,-240 211.91,-240 221.62,-236.68 225.24,-231.96"/>
<polygon fill="midnightblue" stroke="midnightblue" points="228.72,-231.45 224.68,-221.66 221.73,-231.83 228.72,-231.45"/>
</g>
<!-- Node8&#45;&gt;Node8 -->
<g id="edge15" class="edge">
<title>Node8&#45;&gt;Node8</title>
<path fill="none" stroke="midnightblue" d="M170.82,-154.26C158.52,-163.07 166.95,-172.5 196.1,-172.5 215.68,-172.5 225.91,-168.24 226.79,-162.77"/>
<polygon fill="midnightblue" stroke="midnightblue" points="229.69,-160.82 221.38,-154.26 223.78,-164.57 229.69,-160.82"/>
</g>
<!-- Node9&#45;&gt;Node9 -->
<g id="edge17" class="edge">
<title>Node9&#45;&gt;Node9</title>
<path fill="none" stroke="midnightblue" d="M167.52,-97.66C160.63,-107.06 170.15,-116 196.1,-116 211.91,-116 221.62,-112.68 225.24,-107.96"/>
<polygon fill="midnightblue" stroke="midnightblue" points="228.72,-107.45 224.68,-97.66 221.73,-107.83 228.72,-107.45"/>
</g>
<!-- Node10&#45;&gt;Node10 -->
<g id="edge19" class="edge">
<title>Node10&#45;&gt;Node10</title>
<path fill="none" stroke="midnightblue" d="M167.52,-30.66C160.63,-40.06 170.15,-49 196.1,-49 211.91,-49 221.62,-45.68 225.24,-40.96"/>
<polygon fill="midnightblue" stroke="midnightblue" points="228.72,-40.45 224.68,-30.66 221.73,-40.83 228.72,-40.45"/>
</g>
</g>
</svg>
