<?xml version="1.0" encoding="UTF-8" standalone="no"?>
<!DOCTYPE svg PUBLIC "-//W3C//DTD SVG 1.1//EN"
 "http://www.w3.org/Graphics/SVG/1.1/DTD/svg11.dtd">
<!-- Generated by graphviz version 2.49.3 (20211027.1534)
 -->
<!-- Title: showEvent Pages: 1 -->
<svg width="553pt" height="386pt"
 viewBox="0.00 0.00 553.39 386.00" xmlns="http://www.w3.org/2000/svg" xmlns:xlink="http://www.w3.org/1999/xlink">
<g id="graph0" class="graph" transform="scale(1 1) rotate(0) translate(4 382)">
<title>showEvent</title>
<polygon fill="white" stroke="transparent" points="-4,4 -4,-382 549.39,-382 549.39,4 -4,4"/>
<!-- Node1 -->
<g id="node1" class="node">
<title>Node1</title>
<g id="a_node1"><a xlink:title=" ">
<polygon fill="#bfbfbf" stroke="black" points="2.39,-129.5 2.39,-148.5 67.39,-148.5 67.39,-129.5 2.39,-129.5"/>
<text text-anchor="middle" x="34.89" y="-136.5" font-family="Helvetica,sans-Serif" font-size="10.00">showEvent</text>
</a>
</g>
</g>
<!-- Node1&#45;&gt;Node1 -->
<g id="edge11" class="edge">
<title>Node1&#45;&gt;Node1</title>
<path fill="none" stroke="midnightblue" d="M6.53,-148.76C-7.27,-157.57 2.19,-167 34.89,-167 57.37,-167 68.87,-162.54 69.37,-156.89"/>
<polygon fill="midnightblue" stroke="midnightblue" points="72.06,-154.64 63.25,-148.76 66.47,-158.85 72.06,-154.64"/>
</g>
<!-- Node2 -->
<g id="node2" class="node">
<title>Node2</title>
<g id="a_node2"><a xlink:href="classrare_1_1components_1_1tabs_1_1games_1_1integrations_1_1eos__group_1_1_eos_group.html#a1ec89c41387bccb9b467b28aa0a358b8" target="_top" xlink:title=" ">
<polygon fill="white" stroke="black" points="172.89,-247.5 172.89,-266.5 266.89,-266.5 266.89,-247.5 172.89,-247.5"/>
<text text-anchor="middle" x="219.89" y="-254.5" font-family="Helvetica,sans-Serif" font-size="10.00">check_for_update</text>
</a>
</g>
</g>
<!-- Node1&#45;&gt;Node2 -->
<g id="edge1" class="edge">
<title>Node1&#45;&gt;Node2</title>
<path fill="none" stroke="midnightblue" d="M39.37,-148.53C47.28,-168.74 68.66,-215.85 103.39,-238 120.91,-249.17 142.85,-254.45 162.89,-256.76"/>
<polygon fill="midnightblue" stroke="midnightblue" points="162.58,-260.25 172.86,-257.69 163.23,-253.28 162.58,-260.25"/>
</g>
<!-- Node7 -->
<g id="node7" class="node">
<title>Node7</title>
<g id="a_node7"><a xlink:href="classrare_1_1components_1_1tabs_1_1games_1_1integrations_1_1eos__group_1_1_eos_group.html#ae51350a186f0277d85d4e0e7fd5a8518" target="_top" xlink:title=" ">
<polygon fill="white" stroke="black" points="177.89,-191.5 177.89,-210.5 261.89,-210.5 261.89,-191.5 177.89,-191.5"/>
<text text-anchor="middle" x="219.89" y="-198.5" font-family="Helvetica,sans-Serif" font-size="10.00">update_prefixes</text>
</a>
</g>
</g>
<!-- Node1&#45;&gt;Node7 -->
<g id="edge12" class="edge">
<title>Node1&#45;&gt;Node7</title>
<path fill="none" stroke="midnightblue" d="M47.53,-148.52C60.39,-158.5 82.11,-173.86 103.39,-182 123.69,-189.76 147.18,-194.35 167.66,-197.07"/>
<polygon fill="midnightblue" stroke="midnightblue" points="167.4,-200.56 177.75,-198.29 168.24,-193.61 167.4,-200.56"/>
</g>
<!-- Node8 -->
<g id="node8" class="node">
<title>Node8</title>
<g id="a_node8"><a xlink:href="classrare_1_1components_1_1tabs_1_1games_1_1game__widgets_1_1game__widget_1_1_game_widget.html#ada4904cab960c53f234fc113a7fcf349" target="_top" xlink:title=" ">
<polygon fill="white" stroke="black" points="103.39,-124 103.39,-154 336.39,-154 336.39,-124 103.39,-124"/>
<text text-anchor="start" x="111.39" y="-142" font-family="Helvetica,sans-Serif" font-size="10.00">rare.components.tabs.games.game</text>
<text text-anchor="middle" x="219.89" y="-131" font-family="Helvetica,sans-Serif" font-size="10.00">_widgets.game_widget.GameWidget.update_state</text>
</a>
</g>
</g>
<!-- Node1&#45;&gt;Node8 -->
<g id="edge14" class="edge">
<title>Node1&#45;&gt;Node8</title>
<path fill="none" stroke="midnightblue" d="M67.77,-139C75.36,-139 83.93,-139 93.03,-139"/>
<polygon fill="midnightblue" stroke="midnightblue" points="93.08,-142.5 103.08,-139 93.08,-135.5 93.08,-142.5"/>
</g>
<!-- Node9 -->
<g id="node9" class="node">
<title>Node9</title>
<g id="a_node9"><a xlink:href="classrare_1_1components_1_1tabs_1_1games_1_1integrations_1_1eos__group_1_1_eos_prefix_widget.html#aa56afc440f4694cd7d78c59fb3280b60" target="_top" xlink:title=" ">
<polygon fill="white" stroke="black" points="113.89,-57 113.89,-87 325.89,-87 325.89,-57 113.89,-57"/>
<text text-anchor="start" x="121.89" y="-75" font-family="Helvetica,sans-Serif" font-size="10.00">rare.components.tabs.games.integrations.eos</text>
<text text-anchor="middle" x="219.89" y="-64" font-family="Helvetica,sans-Serif" font-size="10.00">_group.EosPrefixWidget.update_state</text>
</a>
</g>
</g>
<!-- Node1&#45;&gt;Node9 -->
<g id="edge16" class="edge">
<title>Node1&#45;&gt;Node9</title>
<path fill="none" stroke="midnightblue" d="M62.11,-129.4C89.75,-119.28 133.98,-103.09 168.43,-90.48"/>
<polygon fill="midnightblue" stroke="midnightblue" points="169.67,-93.75 177.86,-87.02 167.27,-87.17 169.67,-93.75"/>
</g>
<!-- Node11 -->
<g id="node11" class="node">
<title>Node11</title>
<g id="a_node11"><a xlink:href="classrare_1_1components_1_1tabs_1_1games_1_1integrations_1_1eos__group_1_1_eos_group.html#ada4904cab960c53f234fc113a7fcf349" target="_top" xlink:title=" ">
<polygon fill="white" stroke="black" points="183.39,-0.5 183.39,-19.5 256.39,-19.5 256.39,-0.5 183.39,-0.5"/>
<text text-anchor="middle" x="219.89" y="-7.5" font-family="Helvetica,sans-Serif" font-size="10.00">update_state</text>
</a>
</g>
</g>
<!-- Node1&#45;&gt;Node11 -->
<g id="edge20" class="edge">
<title>Node1&#45;&gt;Node11</title>
<path fill="none" stroke="midnightblue" d="M40.36,-129.38C49.52,-110.71 72.2,-69.45 103.39,-47 123.92,-32.23 150.6,-23.17 173.16,-17.72"/>
<polygon fill="midnightblue" stroke="midnightblue" points="174.2,-21.07 183.19,-15.46 172.66,-14.24 174.2,-21.07"/>
</g>
<!-- Node2&#45;&gt;Node2 -->
<g id="edge2" class="edge">
<title>Node2&#45;&gt;Node2</title>
<path fill="none" stroke="midnightblue" d="M191.53,-266.76C177.73,-275.57 187.19,-285 219.89,-285 242.37,-285 253.87,-280.54 254.37,-274.89"/>
<polygon fill="midnightblue" stroke="midnightblue" points="257.06,-272.64 248.25,-266.76 251.47,-276.85 257.06,-272.64"/>
</g>
<!-- Node3 -->
<g id="node3" class="node">
<title>Node3</title>
<g id="a_node3"><a xlink:href="classrare_1_1components_1_1tabs_1_1games_1_1integrations_1_1eos__group_1_1_eos_group.html#a16fab60d0e910c62312a374c23572f99" target="_top" xlink:title=" ">
<polygon fill="white" stroke="black" points="392.89,-340.5 392.89,-359.5 524.89,-359.5 524.89,-340.5 392.89,-340.5"/>
<text text-anchor="middle" x="458.89" y="-347.5" font-family="Helvetica,sans-Serif" font-size="10.00">check_for_update_finished</text>
</a>
</g>
</g>
<!-- Node2&#45;&gt;Node3 -->
<g id="edge3" class="edge">
<title>Node2&#45;&gt;Node3</title>
<path fill="none" stroke="midnightblue" d="M237.15,-266.54C264.31,-282.1 321,-313.02 372.39,-331 379.94,-333.64 388,-336 396.04,-338.08"/>
<polygon fill="midnightblue" stroke="midnightblue" points="395.25,-341.49 405.8,-340.48 396.92,-334.69 395.25,-341.49"/>
</g>
<!-- Node4 -->
<g id="node4" class="node">
<title>Node4</title>
<g id="a_node4"><a xlink:href="classrare_1_1shared_1_1rare__core_1_1_rare_core.html#a405e1a4f20f16120f872ccd2654a1d56" target="_top" xlink:title=" ">
<polygon fill="white" stroke="black" points="393.89,-273 393.89,-303 523.89,-303 523.89,-273 393.89,-273"/>
<text text-anchor="start" x="401.89" y="-291" font-family="Helvetica,sans-Serif" font-size="10.00">rare.shared.rare_core.Rare</text>
<text text-anchor="middle" x="458.89" y="-280" font-family="Helvetica,sans-Serif" font-size="10.00">Core.core</text>
</a>
</g>
</g>
<!-- Node2&#45;&gt;Node4 -->
<g id="edge5" class="edge">
<title>Node2&#45;&gt;Node4</title>
<path fill="none" stroke="midnightblue" d="M267.15,-263.05C300.29,-267.39 345.62,-273.31 383.78,-278.31"/>
<polygon fill="midnightblue" stroke="midnightblue" points="383.45,-281.79 393.82,-279.62 384.36,-274.85 383.45,-281.79"/>
</g>
<!-- Node5 -->
<g id="node5" class="node">
<title>Node5</title>
<g id="a_node5"><a xlink:href="namespacerare_1_1components.html#a019ee207f5c041fb0d2e61f76eafa958" target="_top" xlink:title=" ">
<polygon fill="white" stroke="black" points="403.89,-216.5 403.89,-235.5 513.89,-235.5 513.89,-216.5 403.89,-216.5"/>
<text text-anchor="middle" x="458.89" y="-223.5" font-family="Helvetica,sans-Serif" font-size="10.00">rare.components.start</text>
</a>
</g>
</g>
<!-- Node2&#45;&gt;Node5 -->
<g id="edge7" class="edge">
<title>Node2&#45;&gt;Node5</title>
<path fill="none" stroke="midnightblue" d="M267.15,-250.95C303.29,-246.22 353.92,-239.6 393.94,-234.37"/>
<polygon fill="midnightblue" stroke="midnightblue" points="394.41,-237.83 403.87,-233.07 393.5,-230.89 394.41,-237.83"/>
</g>
<!-- Node6 -->
<g id="node6" class="node">
<title>Node6</title>
<g id="a_node6"><a xlink:href="classrare_1_1models_1_1game_1_1_rare_game.html#a2ea70458cdf24fb494a2872ce9685e11" target="_top" xlink:title=" ">
<polygon fill="white" stroke="black" points="372.39,-160.5 372.39,-179.5 545.39,-179.5 545.39,-160.5 372.39,-160.5"/>
<text text-anchor="middle" x="458.89" y="-167.5" font-family="Helvetica,sans-Serif" font-size="10.00">rare.models.game.RareGame.worker</text>
</a>
</g>
</g>
<!-- Node2&#45;&gt;Node6 -->
<g id="edge9" class="edge">
<title>Node2&#45;&gt;Node6</title>
<path fill="none" stroke="midnightblue" d="M267.01,-255.18C288.87,-252.9 314.85,-248.06 336.39,-238 355.52,-229.06 354.5,-218.21 372.39,-207 387.34,-197.63 405.08,-189.53 420.51,-183.31"/>
<polygon fill="midnightblue" stroke="midnightblue" points="422.23,-186.4 430.27,-179.51 419.68,-179.88 422.23,-186.4"/>
</g>
<!-- Node3&#45;&gt;Node3 -->
<g id="edge4" class="edge">
<title>Node3&#45;&gt;Node3</title>
<path fill="none" stroke="midnightblue" d="M422.5,-359.61C404.23,-368.46 416.36,-378 458.89,-378 490.79,-378 505.59,-372.63 503.28,-366.22"/>
<polygon fill="midnightblue" stroke="midnightblue" points="505.22,-363.28 495.28,-359.61 500.76,-368.68 505.22,-363.28"/>
</g>
<!-- Node4&#45;&gt;Node4 -->
<g id="edge6" class="edge">
<title>Node4&#45;&gt;Node4</title>
<path fill="none" stroke="midnightblue" d="M417.41,-303.16C407.41,-312.56 421.24,-321.5 458.89,-321.5 482.42,-321.5 496.65,-318.01 501.57,-313.09"/>
<polygon fill="midnightblue" stroke="midnightblue" points="505.04,-312.67 500.37,-303.16 498.09,-313.51 505.04,-312.67"/>
</g>
<!-- Node5&#45;&gt;Node5 -->
<g id="edge8" class="edge">
<title>Node5&#45;&gt;Node5</title>
<path fill="none" stroke="midnightblue" d="M422.5,-235.61C404.23,-244.46 416.36,-254 458.89,-254 490.79,-254 505.59,-248.63 503.28,-242.22"/>
<polygon fill="midnightblue" stroke="midnightblue" points="505.22,-239.28 495.28,-235.61 500.76,-244.68 505.22,-239.28"/>
</g>
<!-- Node6&#45;&gt;Node6 -->
<g id="edge10" class="edge">
<title>Node6&#45;&gt;Node6</title>
<path fill="none" stroke="midnightblue" d="M422.5,-179.61C404.23,-188.46 416.36,-198 458.89,-198 490.79,-198 505.59,-192.63 503.28,-186.22"/>
<polygon fill="midnightblue" stroke="midnightblue" points="505.22,-183.28 495.28,-179.61 500.76,-188.68 505.22,-183.28"/>
</g>
<!-- Node7&#45;&gt;Node7 -->
<g id="edge13" class="edge">
<title>Node7&#45;&gt;Node7</title>
<path fill="none" stroke="midnightblue" d="M191.53,-210.76C177.73,-219.57 187.19,-229 219.89,-229 242.37,-229 253.87,-224.54 254.37,-218.89"/>
<polygon fill="midnightblue" stroke="midnightblue" points="257.06,-216.64 248.25,-210.76 251.47,-220.85 257.06,-216.64"/>
</g>
<!-- Node8&#45;&gt;Node8 -->
<g id="edge15" class="edge">
<title>Node8&#45;&gt;Node8</title>
<path fill="none" stroke="midnightblue" d="M187.82,-154.16C180.09,-163.56 190.78,-172.5 219.89,-172.5 237.63,-172.5 248.53,-169.18 252.59,-164.46"/>
<polygon fill="midnightblue" stroke="midnightblue" points="256.06,-163.93 251.96,-154.16 249.07,-164.35 256.06,-163.93"/>
</g>
<!-- Node9&#45;&gt;Node9 -->
<g id="edge19" class="edge">
<title>Node9&#45;&gt;Node9</title>
<path fill="none" stroke="midnightblue" d="M187.82,-87.16C180.09,-96.56 190.78,-105.5 219.89,-105.5 237.63,-105.5 248.53,-102.18 252.59,-97.46"/>
<polygon fill="midnightblue" stroke="midnightblue" points="256.06,-96.93 251.96,-87.16 249.07,-97.35 256.06,-96.93"/>
</g>
<!-- Node10 -->
<g id="node10" class="node">
<title>Node10</title>
<g id="a_node10"><a xlink:href="namespacerare_1_1utils_1_1misc.html#a5b215592bbad86ea6d2c3b46280baae8" target="_top" xlink:title=" ">
<polygon fill="white" stroke="black" points="410.39,-62.5 410.39,-81.5 507.39,-81.5 507.39,-62.5 410.39,-62.5"/>
<text text-anchor="middle" x="458.89" y="-69.5" font-family="Helvetica,sans-Serif" font-size="10.00">rare.utils.misc.icon</text>
</a>
</g>
</g>
<!-- Node9&#45;&gt;Node10 -->
<g id="edge17" class="edge">
<title>Node9&#45;&gt;Node10</title>
<path fill="none" stroke="midnightblue" d="M326.22,-72C351.52,-72 377.62,-72 399.85,-72"/>
<polygon fill="midnightblue" stroke="midnightblue" points="400.1,-75.5 410.1,-72 400.1,-68.5 400.1,-75.5"/>
</g>
<!-- Node10&#45;&gt;Node10 -->
<g id="edge18" class="edge">
<title>Node10&#45;&gt;Node10</title>
<path fill="none" stroke="midnightblue" d="M422.5,-81.61C404.23,-90.46 416.36,-100 458.89,-100 490.79,-100 505.59,-94.63 503.28,-88.22"/>
<polygon fill="midnightblue" stroke="midnightblue" points="505.22,-85.28 495.28,-81.61 500.76,-90.68 505.22,-85.28"/>
</g>
<!-- Node11&#45;&gt;Node11 -->
<g id="edge21" class="edge">
<title>Node11&#45;&gt;Node11</title>
<path fill="none" stroke="midnightblue" d="M191.53,-19.76C177.73,-28.57 187.19,-38 219.89,-38 242.37,-38 253.87,-33.54 254.37,-27.89"/>
<polygon fill="midnightblue" stroke="midnightblue" points="257.06,-25.64 248.25,-19.76 251.47,-29.85 257.06,-25.64"/>
</g>
</g>
</svg>
