<?xml version="1.0" encoding="UTF-8" standalone="no"?>
<!DOCTYPE svg PUBLIC "-//W3C//DTD SVG 1.1//EN"
 "http://www.w3.org/Graphics/SVG/1.1/DTD/svg11.dtd">
<!-- Generated by graphviz version 2.49.3 (20211027.1534)
 -->
<!-- Title: add_wrapper Pages: 1 -->
<svg width="774pt" height="222pt"
 viewBox="0.00 0.00 774.00 222.00" xmlns="http://www.w3.org/2000/svg" xmlns:xlink="http://www.w3.org/1999/xlink">
<g id="graph0" class="graph" transform="scale(1 1) rotate(0) translate(4 218)">
<title>add_wrapper</title>
<polygon fill="white" stroke="transparent" points="-4,4 -4,-218 770,-218 770,4 -4,4"/>
<!-- Node1 -->
<g id="node1" class="node">
<title>Node1</title>
<g id="a_node1"><a xlink:title=" ">
<polygon fill="#bfbfbf" stroke="black" points="0,-75 0,-94 72,-94 72,-75 0,-75"/>
<text text-anchor="middle" x="36" y="-82" font-family="Helvetica,sans-Serif" font-size="10.00">add_wrapper</text>
</a>
</g>
</g>
<!-- Node1&#45;&gt;Node1 -->
<g id="edge1" class="edge">
<title>Node1&#45;&gt;Node1</title>
<path fill="none" stroke="midnightblue" d="M18.12,-94.26C9.42,-103.07 15.38,-112.5 36,-112.5 48.89,-112.5 56.05,-108.81 57.48,-103.9"/>
<polygon fill="midnightblue" stroke="midnightblue" points="60.66,-102.4 53.88,-94.26 54.1,-104.85 60.66,-102.4"/>
</g>
<!-- Node2 -->
<g id="node2" class="node">
<title>Node2</title>
<g id="a_node2"><a xlink:href="classrare_1_1components_1_1tabs_1_1settings_1_1widgets_1_1wrapper_1_1_wrapper_settings.html#ab03ce50c7793dbc7bd5d9a26ec204db1" target="_top" xlink:title=" ">
<polygon fill="white" stroke="black" points="108,-169 108,-188 198,-188 198,-169 108,-169"/>
<text text-anchor="middle" x="153" y="-176" font-family="Helvetica,sans-Serif" font-size="10.00">adjust_scrollarea</text>
</a>
</g>
</g>
<!-- Node1&#45;&gt;Node2 -->
<g id="edge2" class="edge">
<title>Node1&#45;&gt;Node2</title>
<path fill="none" stroke="midnightblue" d="M45.44,-94.43C58.05,-108.86 82.99,-135.92 108,-154.5 112.54,-157.87 117.61,-161.08 122.65,-163.99"/>
<polygon fill="midnightblue" stroke="midnightblue" points="121.12,-167.14 131.57,-168.87 124.48,-161 121.12,-167.14"/>
</g>
<!-- Node3 -->
<g id="node3" class="node">
<title>Node3</title>
<g id="a_node3"><a xlink:href="classrare_1_1components_1_1tabs_1_1settings_1_1widgets_1_1wrapper_1_1_wrapper_settings.html#ad9cf11ee037042a34e4226af64798193" target="_top" xlink:title=" ">
<polygon fill="white" stroke="black" points="111.5,-75 111.5,-94 194.5,-94 194.5,-75 111.5,-75"/>
<text text-anchor="middle" x="153" y="-82" font-family="Helvetica,sans-Serif" font-size="10.00">delete_wrapper</text>
</a>
</g>
</g>
<!-- Node1&#45;&gt;Node3 -->
<g id="edge4" class="edge">
<title>Node1&#45;&gt;Node3</title>
<path fill="none" stroke="midnightblue" d="M72.13,-84.5C81.35,-84.5 91.47,-84.5 101.32,-84.5"/>
<polygon fill="midnightblue" stroke="midnightblue" points="101.45,-88 111.45,-84.5 101.45,-81 101.45,-88"/>
</g>
<!-- Node4 -->
<g id="node4" class="node">
<title>Node4</title>
<g id="a_node4"><a xlink:href="classrare_1_1components_1_1tabs_1_1settings_1_1widgets_1_1wrapper_1_1_wrapper_settings.html#a564562f082521e37c7029e239abb56c6" target="_top" xlink:title=" ">
<polygon fill="white" stroke="black" points="296.5,-127 296.5,-146 334.5,-146 334.5,-127 296.5,-127"/>
<text text-anchor="middle" x="315.5" y="-134" font-family="Helvetica,sans-Serif" font-size="10.00">save</text>
</a>
</g>
</g>
<!-- Node1&#45;&gt;Node4 -->
<g id="edge19" class="edge">
<title>Node1&#45;&gt;Node4</title>
<path fill="none" stroke="midnightblue" d="M51.22,-94.15C65.06,-102.98 87.01,-115.54 108,-121.5 169.77,-139.03 245.87,-139.4 286.24,-138.02"/>
<polygon fill="midnightblue" stroke="midnightblue" points="286.55,-141.51 296.4,-137.61 286.27,-134.52 286.55,-141.51"/>
</g>
<!-- Node8 -->
<g id="node8" class="node">
<title>Node8</title>
<g id="a_node8"><a xlink:href="classrare_1_1game__launch__helper_1_1console_1_1_console.html#a564562f082521e37c7029e239abb56c6" target="_top" xlink:title=" ">
<polygon fill="white" stroke="black" points="234,-37.5 234,-67.5 397,-67.5 397,-37.5 234,-37.5"/>
<text text-anchor="start" x="242" y="-55.5" font-family="Helvetica,sans-Serif" font-size="10.00">rare.game_launch_helper.console.</text>
<text text-anchor="middle" x="315.5" y="-44.5" font-family="Helvetica,sans-Serif" font-size="10.00">Console.save</text>
</a>
</g>
</g>
<!-- Node1&#45;&gt;Node8 -->
<g id="edge20" class="edge">
<title>Node1&#45;&gt;Node8</title>
<path fill="none" stroke="midnightblue" d="M67.46,-74.92C79.91,-71.39 94.53,-67.7 108,-65.5 145.59,-59.35 187.46,-56.06 223.63,-54.33"/>
<polygon fill="midnightblue" stroke="midnightblue" points="223.84,-57.82 233.67,-53.87 223.52,-50.83 223.84,-57.82"/>
</g>
<!-- Node9 -->
<g id="node9" class="node">
<title>Node9</title>
<g id="a_node9"><a xlink:href="classrare_1_1components_1_1dialogs_1_1launch__dialog_1_1_image_worker.html#abfb44fdc3f5ec4c03f5d2e72900deb61" target="_top" xlink:title=" ">
<polygon fill="white" stroke="black" points="461.5,-0.5 461.5,-30.5 613.5,-30.5 613.5,-0.5 461.5,-0.5"/>
<text text-anchor="start" x="469.5" y="-18.5" font-family="Helvetica,sans-Serif" font-size="10.00">rare.components.dialogs.launch</text>
<text text-anchor="middle" x="537.5" y="-7.5" font-family="Helvetica,sans-Serif" font-size="10.00">_dialog.ImageWorker.tr</text>
</a>
</g>
</g>
<!-- Node1&#45;&gt;Node9 -->
<g id="edge21" class="edge">
<title>Node1&#45;&gt;Node9</title>
<path fill="none" stroke="midnightblue" d="M55.23,-74.89C69.31,-67.82 89.46,-58.43 108,-52.5 222.76,-15.78 363.09,-10.65 451.16,-11.88"/>
<polygon fill="midnightblue" stroke="midnightblue" points="451.32,-15.38 461.38,-12.05 451.44,-8.38 451.32,-15.38"/>
</g>
<!-- Node2&#45;&gt;Node2 -->
<g id="edge3" class="edge">
<title>Node2&#45;&gt;Node2</title>
<path fill="none" stroke="midnightblue" d="M135.12,-188.26C126.42,-197.07 132.38,-206.5 153,-206.5 165.89,-206.5 173.05,-202.81 174.48,-197.9"/>
<polygon fill="midnightblue" stroke="midnightblue" points="177.66,-196.4 170.88,-188.26 171.1,-198.85 177.66,-196.4"/>
</g>
<!-- Node3&#45;&gt;Node3 -->
<g id="edge5" class="edge">
<title>Node3&#45;&gt;Node3</title>
<path fill="none" stroke="midnightblue" d="M135.12,-94.26C126.42,-103.07 132.38,-112.5 153,-112.5 165.89,-112.5 173.05,-108.81 174.48,-103.9"/>
<polygon fill="midnightblue" stroke="midnightblue" points="177.66,-102.4 170.88,-94.26 171.1,-104.85 177.66,-102.4"/>
</g>
<!-- Node3&#45;&gt;Node4 -->
<g id="edge6" class="edge">
<title>Node3&#45;&gt;Node4</title>
<path fill="none" stroke="midnightblue" d="M183.44,-94.04C212.78,-103.54 257.51,-118.03 286.37,-127.39"/>
<polygon fill="midnightblue" stroke="midnightblue" points="285.64,-130.83 296.24,-130.58 287.8,-124.17 285.64,-130.83"/>
</g>
<!-- Node3&#45;&gt;Node8 -->
<g id="edge15" class="edge">
<title>Node3&#45;&gt;Node8</title>
<path fill="none" stroke="midnightblue" d="M194.5,-76.43C205.09,-74.31 216.92,-71.95 228.91,-69.56"/>
<polygon fill="midnightblue" stroke="midnightblue" points="229.87,-72.94 238.99,-67.55 228.5,-66.08 229.87,-72.94"/>
</g>
<!-- Node4&#45;&gt;Node4 -->
<g id="edge14" class="edge">
<title>Node4&#45;&gt;Node4</title>
<path fill="none" stroke="midnightblue" d="M296.4,-142.83C276.54,-152.41 282.91,-164.5 315.5,-164.5 341.98,-164.5 351.15,-156.52 343,-148.39"/>
<polygon fill="midnightblue" stroke="midnightblue" points="344.87,-145.43 334.6,-142.83 341.01,-151.26 344.87,-145.43"/>
</g>
<!-- Node5 -->
<g id="node5" class="node">
<title>Node5</title>
<g id="a_node5"><a xlink:href="classrare_1_1components_1_1tabs_1_1games_1_1integrations_1_1egl__sync__group_1_1_e_g_l_sync_list_item.html#a9c470cc60eae203f55455d0e0d7f5712" target="_top" xlink:title=" ">
<polygon fill="white" stroke="black" points="433,-165.5 433,-195.5 642,-195.5 642,-165.5 433,-165.5"/>
<text text-anchor="start" x="441" y="-183.5" font-family="Helvetica,sans-Serif" font-size="10.00">rare.components.tabs.games.integrations.egl</text>
<text text-anchor="middle" x="537.5" y="-172.5" font-family="Helvetica,sans-Serif" font-size="10.00">_sync_group.EGLSyncListItem.app_name</text>
</a>
</g>
</g>
<!-- Node4&#45;&gt;Node5 -->
<g id="edge7" class="edge">
<title>Node4&#45;&gt;Node5</title>
<path fill="none" stroke="midnightblue" d="M334.5,-140.1C360.02,-145.2 408.39,-154.88 451.4,-163.48"/>
<polygon fill="midnightblue" stroke="midnightblue" points="450.84,-166.94 461.34,-165.47 452.22,-160.07 450.84,-166.94"/>
</g>
<!-- Node6 -->
<g id="node6" class="node">
<title>Node6</title>
<g id="a_node6"><a xlink:href="classrare_1_1components_1_1tabs_1_1settings_1_1widgets_1_1wrapper_1_1_wrapper_settings.html#af704077af9c417ed9938e7b3f271faa5" target="_top" xlink:title=" ">
<polygon fill="white" stroke="black" points="678,-99 678,-118 766,-118 766,-99 678,-99"/>
<text text-anchor="middle" x="722" y="-106" font-family="Helvetica,sans-Serif" font-size="10.00">get_wrapper_list</text>
</a>
</g>
</g>
<!-- Node4&#45;&gt;Node6 -->
<g id="edge9" class="edge">
<title>Node4&#45;&gt;Node6</title>
<path fill="none" stroke="midnightblue" d="M334.52,-135.8C383.81,-133.8 524.97,-127.57 642,-117.5 650.4,-116.78 659.29,-115.89 667.96,-114.95"/>
<polygon fill="midnightblue" stroke="midnightblue" points="668.44,-118.42 677.99,-113.84 667.67,-111.46 668.44,-118.42"/>
</g>
<!-- Node7 -->
<g id="node7" class="node">
<title>Node7</title>
<g id="a_node7"><a xlink:href="classrare_1_1components_1_1tabs_1_1settings_1_1widgets_1_1wrapper_1_1_wrapper_settings.html#ab720efcdbf6d746c9008125db4703236" target="_top" xlink:title=" ">
<polygon fill="white" stroke="black" points="488,-71 488,-90 587,-90 587,-71 488,-71"/>
<text text-anchor="middle" x="537.5" y="-78" font-family="Helvetica,sans-Serif" font-size="10.00">get_wrapper_string</text>
</a>
</g>
</g>
<!-- Node4&#45;&gt;Node7 -->
<g id="edge11" class="edge">
<title>Node4&#45;&gt;Node7</title>
<path fill="none" stroke="midnightblue" d="M334.5,-131.92C367.94,-123.41 440.62,-104.9 489.06,-92.58"/>
<polygon fill="midnightblue" stroke="midnightblue" points="490.18,-95.9 499.01,-90.04 488.45,-89.12 490.18,-95.9"/>
</g>
<!-- Node5&#45;&gt;Node5 -->
<g id="edge8" class="edge">
<title>Node5&#45;&gt;Node5</title>
<path fill="none" stroke="midnightblue" d="M505.43,-195.66C497.7,-205.06 508.39,-214 537.5,-214 555.24,-214 566.14,-210.68 570.19,-205.96"/>
<polygon fill="midnightblue" stroke="midnightblue" points="573.67,-205.43 569.57,-195.66 566.68,-205.85 573.67,-205.43"/>
</g>
<!-- Node6&#45;&gt;Node6 -->
<g id="edge10" class="edge">
<title>Node6&#45;&gt;Node6</title>
<path fill="none" stroke="midnightblue" d="M693.64,-118.26C679.84,-127.07 689.3,-136.5 722,-136.5 744.48,-136.5 755.98,-132.04 756.48,-126.39"/>
<polygon fill="midnightblue" stroke="midnightblue" points="759.17,-124.14 750.36,-118.26 753.58,-128.35 759.17,-124.14"/>
</g>
<!-- Node7&#45;&gt;Node6 -->
<g id="edge12" class="edge">
<title>Node7&#45;&gt;Node6</title>
<path fill="none" stroke="midnightblue" d="M587.41,-88C612.18,-91.8 642.31,-96.43 667.68,-100.32"/>
<polygon fill="midnightblue" stroke="midnightblue" points="667.46,-103.83 677.87,-101.88 668.52,-96.91 667.46,-103.83"/>
</g>
<!-- Node7&#45;&gt;Node7 -->
<g id="edge13" class="edge">
<title>Node7&#45;&gt;Node7</title>
<path fill="none" stroke="midnightblue" d="M509.14,-90.26C495.34,-99.07 504.8,-108.5 537.5,-108.5 559.98,-108.5 571.48,-104.04 571.98,-98.39"/>
<polygon fill="midnightblue" stroke="midnightblue" points="574.67,-96.14 565.86,-90.26 569.08,-100.35 574.67,-96.14"/>
</g>
<!-- Node8&#45;&gt;Node8 -->
<g id="edge16" class="edge">
<title>Node8&#45;&gt;Node8</title>
<path fill="none" stroke="midnightblue" d="M287.27,-67.66C280.46,-77.06 289.87,-86 315.5,-86 331.12,-86 340.71,-82.68 344.29,-77.96"/>
<polygon fill="midnightblue" stroke="midnightblue" points="347.76,-77.46 343.73,-67.66 340.77,-77.83 347.76,-77.46"/>
</g>
<!-- Node8&#45;&gt;Node9 -->
<g id="edge17" class="edge">
<title>Node8&#45;&gt;Node9</title>
<path fill="none" stroke="midnightblue" d="M397.17,-38.93C414.7,-35.98 433.3,-32.86 451.01,-29.88"/>
<polygon fill="midnightblue" stroke="midnightblue" points="452.04,-33.25 461.32,-28.14 450.88,-26.35 452.04,-33.25"/>
</g>
<!-- Node9&#45;&gt;Node9 -->
<g id="edge18" class="edge">
<title>Node9&#45;&gt;Node9</title>
<path fill="none" stroke="midnightblue" d="M505.43,-30.66C497.7,-40.06 508.39,-49 537.5,-49 555.24,-49 566.14,-45.68 570.19,-40.96"/>
<polygon fill="midnightblue" stroke="midnightblue" points="573.67,-40.43 569.57,-30.66 566.68,-40.85 573.67,-40.43"/>
</g>
</g>
</svg>
