<?xml version="1.0" encoding="UTF-8" standalone="no"?>
<!DOCTYPE svg PUBLIC "-//W3C//DTD SVG 1.1//EN"
 "http://www.w3.org/Graphics/SVG/1.1/DTD/svg11.dtd">
<!-- Generated by graphviz version 2.49.3 (20211027.1534)
 -->
<!-- Title: get_tmp_path Pages: 1 -->
<svg width="437pt" height="124pt"
 viewBox="0.00 0.00 437.00 124.00" xmlns="http://www.w3.org/2000/svg" xmlns:xlink="http://www.w3.org/1999/xlink">
<g id="graph0" class="graph" transform="scale(1 1) rotate(0) translate(4 120)">
<title>get_tmp_path</title>
<polygon fill="white" stroke="transparent" points="-4,4 -4,-120 433,-120 433,4 -4,4"/>
<!-- Node1 -->
<g id="node1" class="node">
<title>Node1</title>
<g id="a_node1"><a xlink:title=" ">
<polygon fill="#bfbfbf" stroke="black" points="0,-39 0,-58 76,-58 76,-39 0,-39"/>
<text text-anchor="middle" x="38" y="-46" font-family="Helvetica,sans-Serif" font-size="10.00">get_tmp_path</text>
</a>
</g>
</g>
<!-- Node1&#45;&gt;Node1 -->
<g id="edge1" class="edge">
<title>Node1&#45;&gt;Node1</title>
<path fill="none" stroke="midnightblue" d="M16.42,-58.26C5.92,-67.07 13.12,-76.5 38,-76.5 53.94,-76.5 62.62,-72.63 64.04,-67.53"/>
<polygon fill="midnightblue" stroke="midnightblue" points="67.07,-65.75 59.58,-58.26 60.76,-68.79 67.07,-65.75"/>
</g>
<!-- Node2 -->
<g id="node2" class="node">
<title>Node2</title>
<g id="a_node2"><a xlink:href="classlegendary_1_1models_1_1manifest_1_1_chunk_info.html#a6b1e32f2c123c71cc748a37d174cbd0a" target="_top" xlink:title=" ">
<polygon fill="white" stroke="black" points="112,-33.5 112,-63.5 246,-63.5 246,-33.5 112,-33.5"/>
<text text-anchor="start" x="120" y="-51.5" font-family="Helvetica,sans-Serif" font-size="10.00">legendary.models.manifest.</text>
<text text-anchor="middle" x="179" y="-40.5" font-family="Helvetica,sans-Serif" font-size="10.00">ChunkInfo.path</text>
</a>
</g>
</g>
<!-- Node1&#45;&gt;Node2 -->
<g id="edge2" class="edge">
<title>Node1&#45;&gt;Node2</title>
<path fill="none" stroke="midnightblue" d="M76.25,-48.5C84.25,-48.5 92.99,-48.5 101.88,-48.5"/>
<polygon fill="midnightblue" stroke="midnightblue" points="101.94,-52 111.94,-48.5 101.94,-45 101.94,-52"/>
</g>
<!-- Node2&#45;&gt;Node2 -->
<g id="edge7" class="edge">
<title>Node2&#45;&gt;Node2</title>
<path fill="none" stroke="midnightblue" d="M154.6,-63.66C148.72,-73.06 156.85,-82 179,-82 192.5,-82 200.79,-78.68 203.88,-73.96"/>
<polygon fill="midnightblue" stroke="midnightblue" points="207.36,-73.49 203.4,-63.66 200.37,-73.81 207.36,-73.49"/>
</g>
<!-- Node3 -->
<g id="node3" class="node">
<title>Node3</title>
<g id="a_node3"><a xlink:href="namespacelegendary_1_1models_1_1manifest.html#a221860029661c07ad8ce093079cf09ac" target="_top" xlink:title=" ">
<polygon fill="white" stroke="black" points="282,-67.5 282,-97.5 429,-97.5 429,-67.5 282,-67.5"/>
<text text-anchor="start" x="290" y="-85.5" font-family="Helvetica,sans-Serif" font-size="10.00">legendary.models.manifest.get</text>
<text text-anchor="middle" x="355.5" y="-74.5" font-family="Helvetica,sans-Serif" font-size="10.00">_chunk_dir</text>
</a>
</g>
</g>
<!-- Node2&#45;&gt;Node3 -->
<g id="edge3" class="edge">
<title>Node2&#45;&gt;Node3</title>
<path fill="none" stroke="midnightblue" d="M246.47,-61.45C254.78,-63.07 263.35,-64.74 271.87,-66.4"/>
<polygon fill="midnightblue" stroke="midnightblue" points="271.33,-69.86 281.82,-68.34 272.67,-62.99 271.33,-69.86"/>
</g>
<!-- Node4 -->
<g id="node4" class="node">
<title>Node4</title>
<g id="a_node4"><a xlink:href="classlegendary_1_1models_1_1manifest_1_1_chunk_info.html#ae98d4cfdc3a64178222b88d61255a5ad" target="_top" xlink:title=" ">
<polygon fill="white" stroke="black" points="288.5,-0.5 288.5,-30.5 422.5,-30.5 422.5,-0.5 288.5,-0.5"/>
<text text-anchor="start" x="296.5" y="-18.5" font-family="Helvetica,sans-Serif" font-size="10.00">legendary.models.manifest.</text>
<text text-anchor="middle" x="355.5" y="-7.5" font-family="Helvetica,sans-Serif" font-size="10.00">ChunkInfo.group_num</text>
</a>
</g>
</g>
<!-- Node2&#45;&gt;Node4 -->
<g id="edge5" class="edge">
<title>Node2&#45;&gt;Node4</title>
<path fill="none" stroke="midnightblue" d="M246.47,-35.93C256.83,-33.97 267.61,-31.93 278.18,-29.93"/>
<polygon fill="midnightblue" stroke="midnightblue" points="279.04,-33.33 288.22,-28.04 277.74,-26.45 279.04,-33.33"/>
</g>
<!-- Node3&#45;&gt;Node3 -->
<g id="edge4" class="edge">
<title>Node3&#45;&gt;Node3</title>
<path fill="none" stroke="midnightblue" d="M324.83,-97.66C317.43,-107.06 327.66,-116 355.5,-116 372.47,-116 382.89,-112.68 386.77,-107.96"/>
<polygon fill="midnightblue" stroke="midnightblue" points="390.25,-107.44 386.17,-97.66 383.26,-107.85 390.25,-107.44"/>
</g>
<!-- Node4&#45;&gt;Node4 -->
<g id="edge6" class="edge">
<title>Node4&#45;&gt;Node4</title>
<path fill="none" stroke="midnightblue" d="M324.83,-30.66C317.43,-40.06 327.66,-49 355.5,-49 372.47,-49 382.89,-45.68 386.77,-40.96"/>
<polygon fill="midnightblue" stroke="midnightblue" points="390.25,-40.44 386.17,-30.66 383.26,-40.85 390.25,-40.44"/>
</g>
</g>
</svg>
