<?xml version="1.0" encoding="UTF-8" standalone="no"?>
<!DOCTYPE svg PUBLIC "-//W3C//DTD SVG 1.1//EN"
 "http://www.w3.org/Graphics/SVG/1.1/DTD/svg11.dtd">
<!-- Generated by graphviz version 2.49.3 (20211027.1534)
 -->
<!-- Title: accept Pages: 1 -->
<svg width="501pt" height="472pt"
 viewBox="0.00 0.00 500.76 472.00" xmlns="http://www.w3.org/2000/svg" xmlns:xlink="http://www.w3.org/1999/xlink">
<g id="graph0" class="graph" transform="scale(1 1) rotate(0) translate(4 468)">
<title>accept</title>
<polygon fill="white" stroke="transparent" points="-4,4 -4,-468 496.76,-468 496.76,4 -4,4"/>
<!-- Node1 -->
<g id="node1" class="node">
<title>Node1</title>
<g id="a_node1"><a xlink:title=" ">
<polygon fill="#bfbfbf" stroke="black" points="9.76,-196.5 9.76,-215.5 55.76,-215.5 55.76,-196.5 9.76,-196.5"/>
<text text-anchor="middle" x="32.76" y="-203.5" font-family="Helvetica,sans-Serif" font-size="10.00">accept</text>
</a>
</g>
</g>
<!-- Node1&#45;&gt;Node1 -->
<g id="edge1" class="edge">
<title>Node1&#45;&gt;Node1</title>
<path fill="none" stroke="midnightblue" d="M9.61,-213.74C-7.88,-223.06 -0.16,-234 32.76,-234 58.48,-234 68.82,-227.32 63.77,-219.96"/>
<polygon fill="midnightblue" stroke="midnightblue" points="65.92,-217.2 55.91,-213.74 61.58,-222.69 65.92,-217.2"/>
</g>
<!-- Node2 -->
<g id="node2" class="node">
<title>Node2</title>
<g id="a_node2"><a xlink:href="classrare_1_1commands_1_1launcher_1_1cloud__sync__dialog_1_1_cloud_sync_dialog.html#a5786ae567b9d7f6957dfb2ae04f22e63" target="_top" xlink:title=" ">
<polygon fill="white" stroke="black" points="115.26,-404.5 115.26,-445.5 295.26,-445.5 295.26,-404.5 115.26,-404.5"/>
<text text-anchor="start" x="123.26" y="-433.5" font-family="Helvetica,sans-Serif" font-size="10.00">rare.commands.launcher.cloud</text>
<text text-anchor="start" x="123.26" y="-422.5" font-family="Helvetica,sans-Serif" font-size="10.00">_sync_dialog.CloudSyncDialog.accept</text>
<text text-anchor="middle" x="205.26" y="-411.5" font-family="Helvetica,sans-Serif" font-size="10.00">_handler</text>
</a>
</g>
</g>
<!-- Node1&#45;&gt;Node2 -->
<g id="edge2" class="edge">
<title>Node1&#45;&gt;Node2</title>
<path fill="none" stroke="midnightblue" d="M33.66,-215.91C33.92,-247.12 39.11,-344.27 91.76,-395 96.1,-399.18 100.95,-402.79 106.13,-405.91"/>
<polygon fill="midnightblue" stroke="midnightblue" points="104.68,-409.1 115.15,-410.71 107.97,-402.92 104.68,-409.1"/>
</g>
<!-- Node3 -->
<g id="node3" class="node">
<title>Node3</title>
<g id="a_node3"><a xlink:href="classrare_1_1components_1_1dialogs_1_1install__dialog_1_1_install_dialog.html#a5786ae567b9d7f6957dfb2ae04f22e63" target="_top" xlink:title=" ">
<polygon fill="white" stroke="black" points="119.76,-337 119.76,-367 290.76,-367 290.76,-337 119.76,-337"/>
<text text-anchor="start" x="127.76" y="-355" font-family="Helvetica,sans-Serif" font-size="10.00">rare.components.dialogs.install</text>
<text text-anchor="middle" x="205.26" y="-344" font-family="Helvetica,sans-Serif" font-size="10.00">_dialog.InstallDialog.accept_handler</text>
</a>
</g>
</g>
<!-- Node1&#45;&gt;Node3 -->
<g id="edge4" class="edge">
<title>Node1&#45;&gt;Node3</title>
<path fill="none" stroke="midnightblue" d="M35.43,-215.63C39.96,-238.74 54.73,-297.59 91.76,-327 97.42,-331.49 103.71,-335.21 110.36,-338.29"/>
<polygon fill="midnightblue" stroke="midnightblue" points="109.03,-341.53 119.61,-342.11 111.7,-335.06 109.03,-341.53"/>
</g>
<!-- Node5 -->
<g id="node5" class="node">
<title>Node5</title>
<g id="a_node5"><a xlink:href="classrare_1_1components_1_1dialogs_1_1move__dialog_1_1_move_dialog.html#a5786ae567b9d7f6957dfb2ae04f22e63" target="_top" xlink:title=" ">
<polygon fill="white" stroke="black" points="131.26,-258.5 131.26,-299.5 279.26,-299.5 279.26,-258.5 131.26,-258.5"/>
<text text-anchor="start" x="139.26" y="-287.5" font-family="Helvetica,sans-Serif" font-size="10.00">rare.components.dialogs.move</text>
<text text-anchor="start" x="139.26" y="-276.5" font-family="Helvetica,sans-Serif" font-size="10.00">_dialog.MoveDialog.accept</text>
<text text-anchor="middle" x="205.26" y="-265.5" font-family="Helvetica,sans-Serif" font-size="10.00">_handler</text>
</a>
</g>
</g>
<!-- Node1&#45;&gt;Node5 -->
<g id="edge7" class="edge">
<title>Node1&#45;&gt;Node5</title>
<path fill="none" stroke="midnightblue" d="M44.08,-215.57C55.1,-225.3 73.47,-240.18 91.76,-249 101.07,-253.49 111.16,-257.38 121.33,-260.74"/>
<polygon fill="midnightblue" stroke="midnightblue" points="120.5,-264.15 131.09,-263.8 122.59,-257.47 120.5,-264.15"/>
</g>
<!-- Node6 -->
<g id="node6" class="node">
<title>Node6</title>
<g id="a_node6"><a xlink:href="classrare_1_1components_1_1dialogs_1_1selective__dialog_1_1_selective_dialog.html#a5786ae567b9d7f6957dfb2ae04f22e63" target="_top" xlink:title=" ">
<polygon fill="white" stroke="black" points="112.76,-191 112.76,-221 297.76,-221 297.76,-191 112.76,-191"/>
<text text-anchor="start" x="120.76" y="-209" font-family="Helvetica,sans-Serif" font-size="10.00">rare.components.dialogs.selective</text>
<text text-anchor="middle" x="205.26" y="-198" font-family="Helvetica,sans-Serif" font-size="10.00">_dialog.SelectiveDialog.accept_handler</text>
</a>
</g>
</g>
<!-- Node1&#45;&gt;Node6 -->
<g id="edge9" class="edge">
<title>Node1&#45;&gt;Node6</title>
<path fill="none" stroke="midnightblue" d="M56.05,-206C68.43,-206 84.8,-206 102.14,-206"/>
<polygon fill="midnightblue" stroke="midnightblue" points="102.45,-209.5 112.45,-206 102.45,-202.5 102.45,-209.5"/>
</g>
<!-- Node7 -->
<g id="node7" class="node">
<title>Node7</title>
<g id="a_node7"><a xlink:href="classrare_1_1components_1_1dialogs_1_1uninstall__dialog_1_1_uninstall_dialog.html#a5786ae567b9d7f6957dfb2ae04f22e63" target="_top" xlink:title=" ">
<polygon fill="white" stroke="black" points="113.76,-124 113.76,-154 296.76,-154 296.76,-124 113.76,-124"/>
<text text-anchor="start" x="121.76" y="-142" font-family="Helvetica,sans-Serif" font-size="10.00">rare.components.dialogs.uninstall</text>
<text text-anchor="middle" x="205.26" y="-131" font-family="Helvetica,sans-Serif" font-size="10.00">_dialog.UninstallDialog.accept_handler</text>
</a>
</g>
</g>
<!-- Node1&#45;&gt;Node7 -->
<g id="edge11" class="edge">
<title>Node1&#45;&gt;Node7</title>
<path fill="none" stroke="midnightblue" d="M56.01,-196.63C66.78,-192.13 79.91,-186.71 91.76,-182 112.3,-173.83 135.05,-165.07 154.7,-157.61"/>
<polygon fill="midnightblue" stroke="midnightblue" points="155.96,-160.88 164.07,-154.06 153.48,-154.33 155.96,-160.88"/>
</g>
<!-- Node8 -->
<g id="node8" class="node">
<title>Node8</title>
<g id="a_node8"><a xlink:href="classrare_1_1components_1_1tabs_1_1settings_1_1widgets_1_1wrappers_1_1_wrapper_edit_dialog.html#a5786ae567b9d7f6957dfb2ae04f22e63" target="_top" xlink:title=" ">
<polygon fill="white" stroke="black" points="91.76,-57 91.76,-87 318.76,-87 318.76,-57 91.76,-57"/>
<text text-anchor="start" x="99.76" y="-75" font-family="Helvetica,sans-Serif" font-size="10.00">rare.components.tabs.settings.widgets.wrappers.</text>
<text text-anchor="middle" x="205.26" y="-64" font-family="Helvetica,sans-Serif" font-size="10.00">WrapperEditDialog.accept_handler</text>
</a>
</g>
</g>
<!-- Node1&#45;&gt;Node8 -->
<g id="edge13" class="edge">
<title>Node1&#45;&gt;Node8</title>
<path fill="none" stroke="midnightblue" d="M37.48,-196.33C45,-177.97 63.74,-137.85 91.76,-115 104.31,-104.77 119.56,-96.79 134.72,-90.64"/>
<polygon fill="midnightblue" stroke="midnightblue" points="136.04,-93.88 144.13,-87.04 133.54,-87.35 136.04,-93.88"/>
</g>
<!-- Node9 -->
<g id="node9" class="node">
<title>Node9</title>
<g id="a_node9"><a xlink:href="classrare_1_1widgets_1_1dialogs_1_1_button_dialog.html#a5786ae567b9d7f6957dfb2ae04f22e63" target="_top" xlink:title=" ">
<polygon fill="white" stroke="black" points="163.76,-0.5 163.76,-19.5 246.76,-19.5 246.76,-0.5 163.76,-0.5"/>
<text text-anchor="middle" x="205.26" y="-7.5" font-family="Helvetica,sans-Serif" font-size="10.00">accept_handler</text>
</a>
</g>
</g>
<!-- Node1&#45;&gt;Node9 -->
<g id="edge15" class="edge">
<title>Node1&#45;&gt;Node9</title>
<path fill="none" stroke="midnightblue" d="M34.48,-196.29C37.04,-168.96 48.02,-90.62 91.76,-48 108.4,-31.79 132.18,-22.49 153.59,-17.16"/>
<polygon fill="midnightblue" stroke="midnightblue" points="154.57,-20.52 163.55,-14.91 153.03,-13.7 154.57,-20.52"/>
</g>
<!-- Node2&#45;&gt;Node2 -->
<g id="edge3" class="edge">
<title>Node2&#45;&gt;Node2</title>
<path fill="none" stroke="midnightblue" d="M173.65,-445.86C170.2,-455.54 180.74,-464 205.26,-464 220.59,-464 230.45,-460.7 234.85,-455.86"/>
<polygon fill="midnightblue" stroke="midnightblue" points="238.32,-456.36 236.87,-445.86 231.46,-454.97 238.32,-456.36"/>
</g>
<!-- Node3&#45;&gt;Node3 -->
<g id="edge6" class="edge">
<title>Node3&#45;&gt;Node3</title>
<path fill="none" stroke="midnightblue" d="M175.29,-367.16C168.06,-376.56 178.05,-385.5 205.26,-385.5 221.84,-385.5 232.03,-382.18 235.82,-377.46"/>
<polygon fill="midnightblue" stroke="midnightblue" points="239.3,-376.94 235.24,-367.16 232.31,-377.34 239.3,-376.94"/>
</g>
<!-- Node4 -->
<g id="node4" class="node">
<title>Node4</title>
<g id="a_node4"><a xlink:href="classrare_1_1shared_1_1image__manager_1_1_image_manager.html#aa1af2e48ef5d21eae429581cfe81f00b" target="_top" xlink:title=" ">
<polygon fill="white" stroke="black" points="354.76,-337 354.76,-367 492.76,-367 492.76,-337 354.76,-337"/>
<text text-anchor="start" x="362.76" y="-355" font-family="Helvetica,sans-Serif" font-size="10.00">rare.shared.image_manager.</text>
<text text-anchor="middle" x="423.76" y="-344" font-family="Helvetica,sans-Serif" font-size="10.00">ImageManager.__download</text>
</a>
</g>
</g>
<!-- Node3&#45;&gt;Node4 -->
<g id="edge5" class="edge">
<title>Node3&#45;&gt;Node4</title>
<path fill="none" stroke="midnightblue" d="M290.9,-352C308.54,-352 327.07,-352 344.48,-352"/>
<polygon fill="midnightblue" stroke="midnightblue" points="344.58,-355.5 354.58,-352 344.58,-348.5 344.58,-355.5"/>
</g>
<!-- Node5&#45;&gt;Node5 -->
<g id="edge8" class="edge">
<title>Node5&#45;&gt;Node5</title>
<path fill="none" stroke="midnightblue" d="M173.65,-299.86C170.2,-309.54 180.74,-318 205.26,-318 220.59,-318 230.45,-314.7 234.85,-309.86"/>
<polygon fill="midnightblue" stroke="midnightblue" points="238.32,-310.36 236.87,-299.86 231.46,-308.97 238.32,-310.36"/>
</g>
<!-- Node6&#45;&gt;Node6 -->
<g id="edge10" class="edge">
<title>Node6&#45;&gt;Node6</title>
<path fill="none" stroke="midnightblue" d="M175.29,-221.16C168.06,-230.56 178.05,-239.5 205.26,-239.5 221.84,-239.5 232.03,-236.18 235.82,-231.46"/>
<polygon fill="midnightblue" stroke="midnightblue" points="239.3,-230.94 235.24,-221.16 232.31,-231.34 239.3,-230.94"/>
</g>
<!-- Node7&#45;&gt;Node7 -->
<g id="edge12" class="edge">
<title>Node7&#45;&gt;Node7</title>
<path fill="none" stroke="midnightblue" d="M175.29,-154.16C168.06,-163.56 178.05,-172.5 205.26,-172.5 221.84,-172.5 232.03,-169.18 235.82,-164.46"/>
<polygon fill="midnightblue" stroke="midnightblue" points="239.3,-163.94 235.24,-154.16 232.31,-164.34 239.3,-163.94"/>
</g>
<!-- Node8&#45;&gt;Node8 -->
<g id="edge14" class="edge">
<title>Node8&#45;&gt;Node8</title>
<path fill="none" stroke="midnightblue" d="M175.29,-87.16C168.06,-96.56 178.05,-105.5 205.26,-105.5 221.84,-105.5 232.03,-102.18 235.82,-97.46"/>
<polygon fill="midnightblue" stroke="midnightblue" points="239.3,-96.94 235.24,-87.16 232.31,-97.34 239.3,-96.94"/>
</g>
<!-- Node9&#45;&gt;Node9 -->
<g id="edge16" class="edge">
<title>Node9&#45;&gt;Node9</title>
<path fill="none" stroke="midnightblue" d="M178.75,-19.76C165.85,-28.57 174.69,-38 205.26,-38 225.8,-38 236.53,-33.74 237.45,-28.27"/>
<polygon fill="midnightblue" stroke="midnightblue" points="240.23,-26.14 231.77,-19.76 234.4,-30.02 240.23,-26.14"/>
</g>
</g>
</svg>
