<?xml version="1.0" encoding="UTF-8" standalone="no"?>
<!DOCTYPE svg PUBLIC "-//W3C//DTD SVG 1.1//EN"
 "http://www.w3.org/Graphics/SVG/1.1/DTD/svg11.dtd">
<!-- Generated by graphviz version 2.49.3 (20211027.1534)
 -->
<!-- Title: executable Pages: 1 -->
<svg width="241pt" height="57pt"
 viewBox="0.00 0.00 241.00 57.00" xmlns="http://www.w3.org/2000/svg" xmlns:xlink="http://www.w3.org/1999/xlink">
<g id="graph0" class="graph" transform="scale(1 1) rotate(0) translate(4 53)">
<title>executable</title>
<polygon fill="white" stroke="transparent" points="-4,4 -4,-53 237,-53 237,4 -4,4"/>
<!-- Node1 -->
<g id="node1" class="node">
<title>Node1</title>
<g id="a_node1"><a xlink:title=" ">
<polygon fill="#bfbfbf" stroke="black" points="170,-6 170,-25 233,-25 233,-6 170,-6"/>
<text text-anchor="middle" x="201.5" y="-13" font-family="Helvetica,sans-Serif" font-size="10.00">executable</text>
</a>
</g>
</g>
<!-- Node1&#45;&gt;Node1 -->
<g id="edge3" class="edge">
<title>Node1&#45;&gt;Node1</title>
<path fill="none" stroke="midnightblue" d="M226.43,-34.53C225.07,-39.63 216.76,-43.5 201.5,-43.5 177.68,-43.5 170.8,-34.07 180.85,-25.26"/>
<polygon fill="midnightblue" stroke="midnightblue" points="229.52,-32.87 222.15,-25.26 223.16,-35.8 229.52,-32.87"/>
</g>
<!-- Node2 -->
<g id="node2" class="node">
<title>Node2</title>
<g id="a_node2"><a xlink:href="classlauncher_1_1lgd__helper_1_1_launch_args.html#a3dd81f64b703eff31446b257a4628090" target="_top" xlink:title=" ">
<polygon fill="white" stroke="black" points="0,-0.5 0,-30.5 134,-30.5 134,-0.5 0,-0.5"/>
<text text-anchor="start" x="8" y="-18.5" font-family="Helvetica,sans-Serif" font-size="10.00">launcher.lgd_helper.Launch</text>
<text text-anchor="middle" x="67" y="-7.5" font-family="Helvetica,sans-Serif" font-size="10.00">Args.__bool__</text>
</a>
</g>
</g>
<!-- Node1&#45;&gt;Node2 -->
<g id="edge1" class="edge">
<title>Node1&#45;&gt;Node2</title>
<path fill="none" stroke="midnightblue" d="M159.55,-15.5C151.47,-15.5 142.81,-15.5 134.15,-15.5"/>
<polygon fill="midnightblue" stroke="midnightblue" points="159.77,-19 169.77,-15.5 159.77,-12 159.77,-19"/>
</g>
<!-- Node2&#45;&gt;Node2 -->
<g id="edge2" class="edge">
<title>Node2&#45;&gt;Node2</title>
<path fill="none" stroke="midnightblue" d="M90.81,-40.96C87.86,-45.68 79.92,-49 67,-49 45.8,-49 38.02,-40.06 43.65,-30.66"/>
<polygon fill="midnightblue" stroke="midnightblue" points="94.29,-40.49 90.35,-30.66 87.3,-40.8 94.29,-40.49"/>
</g>
</g>
</svg>
