<?xml version="1.0" encoding="UTF-8" standalone="no"?>
<!DOCTYPE svg PUBLIC "-//W3C//DTD SVG 1.1//EN"
 "http://www.w3.org/Graphics/SVG/1.1/DTD/svg11.dtd">
<!-- Generated by graphviz version 2.49.3 (20211027.1534)
 -->
<!-- Title: tool_enabled Pages: 1 -->
<svg width="324pt" height="57pt"
 viewBox="0.00 0.00 324.00 57.00" xmlns="http://www.w3.org/2000/svg" xmlns:xlink="http://www.w3.org/1999/xlink">
<g id="graph0" class="graph" transform="scale(1 1) rotate(0) translate(4 53)">
<title>tool_enabled</title>
<polygon fill="white" stroke="transparent" points="-4,4 -4,-53 320,-53 320,4 -4,4"/>
<!-- Node1 -->
<g id="node1" class="node">
<title>Node1</title>
<g id="a_node1"><a xlink:title=" ">
<polygon fill="#bfbfbf" stroke="black" points="0,-6 0,-25 71,-25 71,-6 0,-6"/>
<text text-anchor="middle" x="35.5" y="-13" font-family="Helvetica,sans-Serif" font-size="10.00">tool_enabled</text>
</a>
</g>
</g>
<!-- Node1&#45;&gt;Node1 -->
<g id="edge3" class="edge">
<title>Node1&#45;&gt;Node1</title>
<path fill="none" stroke="midnightblue" d="M8.37,-25.26C-4.82,-34.07 4.22,-43.5 35.5,-43.5 57.01,-43.5 68,-39.04 68.48,-33.39"/>
<polygon fill="midnightblue" stroke="midnightblue" points="71.31,-31.33 62.63,-25.26 65.63,-35.42 71.31,-31.33"/>
</g>
<!-- Node2 -->
<g id="node2" class="node">
<title>Node2</title>
<g id="a_node2"><a xlink:href="classrare_1_1components_1_1tabs_1_1games_1_1integrations_1_1egl__sync__group_1_1_e_g_l_sync_list_item.html#a9c470cc60eae203f55455d0e0d7f5712" target="_top" xlink:title=" ">
<polygon fill="white" stroke="black" points="107,-0.5 107,-30.5 316,-30.5 316,-0.5 107,-0.5"/>
<text text-anchor="start" x="115" y="-18.5" font-family="Helvetica,sans-Serif" font-size="10.00">rare.components.tabs.games.integrations.egl</text>
<text text-anchor="middle" x="211.5" y="-7.5" font-family="Helvetica,sans-Serif" font-size="10.00">_sync_group.EGLSyncListItem.app_name</text>
</a>
</g>
</g>
<!-- Node1&#45;&gt;Node2 -->
<g id="edge1" class="edge">
<title>Node1&#45;&gt;Node2</title>
<path fill="none" stroke="midnightblue" d="M71.29,-15.5C79.09,-15.5 87.77,-15.5 96.88,-15.5"/>
<polygon fill="midnightblue" stroke="midnightblue" points="96.91,-19 106.91,-15.5 96.91,-12 96.91,-19"/>
</g>
<!-- Node2&#45;&gt;Node2 -->
<g id="edge2" class="edge">
<title>Node2&#45;&gt;Node2</title>
<path fill="none" stroke="midnightblue" d="M180.83,-30.66C173.43,-40.06 183.66,-49 211.5,-49 228.47,-49 238.89,-45.68 242.77,-40.96"/>
<polygon fill="midnightblue" stroke="midnightblue" points="246.25,-40.44 242.17,-30.66 239.26,-40.85 246.25,-40.44"/>
</g>
</g>
</svg>
