<?xml version="1.0" encoding="UTF-8" standalone="no"?>
<!DOCTYPE svg PUBLIC "-//W3C//DTD SVG 1.1//EN"
 "http://www.w3.org/Graphics/SVG/1.1/DTD/svg11.dtd">
<!-- Generated by graphviz version 2.49.3 (20211027.1534)
 -->
<!-- Title: EGLSyncImportItem Pages: 1 -->
<svg width="113pt" height="331pt"
 viewBox="0.00 0.00 113.00 331.00" xmlns="http://www.w3.org/2000/svg" xmlns:xlink="http://www.w3.org/1999/xlink">
<g id="graph0" class="graph" transform="scale(1 1) rotate(0) translate(4 327)">
<title>EGLSyncImportItem</title>
<polygon fill="white" stroke="transparent" points="-4,4 -4,-327 109,-327 109,4 -4,4"/>
<!-- Node1 -->
<g id="node1" class="node">
<title>Node1</title>
<g id="a_node1"><a xlink:title=" ">
<polygon fill="#bfbfbf" stroke="black" points="0,-0.5 0,-79.5 105,-79.5 105,-0.5 0,-0.5"/>
<text text-anchor="middle" x="52.5" y="-67.5" font-family="Helvetica,sans-Serif" font-size="10.00">EGLSyncImportItem</text>
<polyline fill="none" stroke="black" points="0,-60.5 105,-60.5 "/>
<text text-anchor="middle" x="52.5" y="-48.5" font-family="Helvetica,sans-Serif" font-size="10.00"> </text>
<polyline fill="none" stroke="black" points="0,-41.5 105,-41.5 "/>
<text text-anchor="start" x="8" y="-29.5" font-family="Helvetica,sans-Serif" font-size="10.00">+ __init__()</text>
<text text-anchor="start" x="8" y="-18.5" font-family="Helvetica,sans-Serif" font-size="10.00">+ action()</text>
<text text-anchor="start" x="8" y="-7.5" font-family="Helvetica,sans-Serif" font-size="10.00">+ app_title()</text>
</a>
</g>
</g>
<!-- Node2 -->
<g id="node2" class="node">
<title>Node2</title>
<g id="a_node2"><a xlink:href="classrare_1_1components_1_1tabs_1_1library_1_1integrations_1_1egl__sync__group_1_1_e_g_l_sync_list_item.html" target="_top" xlink:title=" ">
<polygon fill="white" stroke="black" points="5.5,-116.5 5.5,-228.5 99.5,-228.5 99.5,-116.5 5.5,-116.5"/>
<text text-anchor="middle" x="52.5" y="-216.5" font-family="Helvetica,sans-Serif" font-size="10.00">EGLSyncListItem</text>
<polyline fill="none" stroke="black" points="5.5,-209.5 99.5,-209.5 "/>
<text text-anchor="start" x="13.5" y="-197.5" font-family="Helvetica,sans-Serif" font-size="10.00">+ core</text>
<text text-anchor="start" x="13.5" y="-186.5" font-family="Helvetica,sans-Serif" font-size="10.00">+ game</text>
<polyline fill="none" stroke="black" points="5.5,-179.5 99.5,-179.5 "/>
<text text-anchor="start" x="13.5" y="-167.5" font-family="Helvetica,sans-Serif" font-size="10.00">+ __init__()</text>
<text text-anchor="start" x="13.5" y="-156.5" font-family="Helvetica,sans-Serif" font-size="10.00">+ is_checked()</text>
<text text-anchor="start" x="13.5" y="-145.5" font-family="Helvetica,sans-Serif" font-size="10.00">+ action()</text>
<text text-anchor="start" x="13.5" y="-134.5" font-family="Helvetica,sans-Serif" font-size="10.00">+ app_name()</text>
<text text-anchor="start" x="13.5" y="-123.5" font-family="Helvetica,sans-Serif" font-size="10.00">+ app_title()</text>
</a>
</g>
</g>
<!-- Node2&#45;&gt;Node1 -->
<g id="edge1" class="edge">
<title>Node2&#45;&gt;Node1</title>
<path fill="none" stroke="midnightblue" d="M52.5,-106.06C52.5,-97.08 52.5,-88.11 52.5,-79.82"/>
<polygon fill="none" stroke="midnightblue" points="49,-106.16 52.5,-116.16 56,-106.16 49,-106.16"/>
</g>
<!-- Node3 -->
<g id="node3" class="node">
<title>Node3</title>
<g id="a_node3"><a xlink:title=" ">
<polygon fill="white" stroke="#bfbfbf" points="7.5,-265.5 7.5,-322.5 97.5,-322.5 97.5,-265.5 7.5,-265.5"/>
<text text-anchor="middle" x="52.5" y="-310.5" font-family="Helvetica,sans-Serif" font-size="10.00">QListWidgetItem</text>
<polyline fill="none" stroke="#bfbfbf" points="7.5,-303.5 97.5,-303.5 "/>
<text text-anchor="middle" x="52.5" y="-291.5" font-family="Helvetica,sans-Serif" font-size="10.00"> </text>
<polyline fill="none" stroke="#bfbfbf" points="7.5,-284.5 97.5,-284.5 "/>
<text text-anchor="middle" x="52.5" y="-272.5" font-family="Helvetica,sans-Serif" font-size="10.00"> </text>
</a>
</g>
</g>
<!-- Node3&#45;&gt;Node2 -->
<g id="edge2" class="edge">
<title>Node3&#45;&gt;Node2</title>
<path fill="none" stroke="midnightblue" d="M52.5,-255.11C52.5,-246.75 52.5,-237.73 52.5,-228.83"/>
<polygon fill="none" stroke="midnightblue" points="49,-255.28 52.5,-265.28 56,-255.28 49,-255.28"/>
</g>
</g>
</svg>
