<?xml version="1.0" encoding="UTF-8" standalone="no"?>
<!DOCTYPE svg PUBLIC "-//W3C//DTD SVG 1.1//EN"
 "http://www.w3.org/Graphics/SVG/1.1/DTD/svg11.dtd">
<!-- Generated by graphviz version 2.49.3 (20211027.1534)
 -->
<!-- Title: on_style_select_changed Pages: 1 -->
<svg width="428pt" height="124pt"
 viewBox="0.00 0.00 428.00 124.00" xmlns="http://www.w3.org/2000/svg" xmlns:xlink="http://www.w3.org/1999/xlink">
<g id="graph0" class="graph" transform="scale(1 1) rotate(0) translate(4 120)">
<title>on_style_select_changed</title>
<polygon fill="white" stroke="transparent" points="-4,4 -4,-120 424,-120 424,4 -4,4"/>
<!-- Node1 -->
<g id="node1" class="node">
<title>Node1</title>
<g id="a_node1"><a xlink:title=" ">
<polygon fill="#bfbfbf" stroke="black" points="0,-39 0,-58 126,-58 126,-39 0,-39"/>
<text text-anchor="middle" x="63" y="-46" font-family="Helvetica,sans-Serif" font-size="10.00">on_style_select_changed</text>
</a>
</g>
</g>
<!-- Node1&#45;&gt;Node1 -->
<g id="edge1" class="edge">
<title>Node1&#45;&gt;Node1</title>
<path fill="none" stroke="midnightblue" d="M37.72,-58.26C25.43,-67.07 33.85,-76.5 63,-76.5 82.58,-76.5 92.81,-72.24 93.69,-66.77"/>
<polygon fill="midnightblue" stroke="midnightblue" points="96.59,-64.82 88.28,-58.26 90.69,-68.57 96.59,-64.82"/>
</g>
<!-- Node2 -->
<g id="node2" class="node">
<title>Node2</title>
<g id="a_node2"><a xlink:href="namespacerare_1_1utils_1_1misc.html#a0e697f47ccaa4704ff2b095b9d6e397f" target="_top" xlink:title=" ">
<polygon fill="white" stroke="black" points="181,-67.5 181,-97.5 273,-97.5 273,-67.5 181,-67.5"/>
<text text-anchor="start" x="189" y="-85.5" font-family="Helvetica,sans-Serif" font-size="10.00">rare.utils.misc.set</text>
<text text-anchor="middle" x="227" y="-74.5" font-family="Helvetica,sans-Serif" font-size="10.00">_style_sheet</text>
</a>
</g>
</g>
<!-- Node1&#45;&gt;Node2 -->
<g id="edge2" class="edge">
<title>Node1&#45;&gt;Node2</title>
<path fill="none" stroke="midnightblue" d="M109.56,-58.06C128.61,-62.06 150.92,-66.74 170.89,-70.93"/>
<polygon fill="midnightblue" stroke="midnightblue" points="170.28,-74.38 180.78,-73.01 171.72,-67.53 170.28,-74.38"/>
</g>
<!-- Node4 -->
<g id="node4" class="node">
<title>Node4</title>
<g id="a_node4"><a xlink:href="classrare_1_1shared_1_1rare__core_1_1_rare_core.html#aa1576e9b0056403059061071172ff834" target="_top" xlink:title=" ">
<polygon fill="white" stroke="black" points="162,-0.5 162,-30.5 292,-30.5 292,-0.5 162,-0.5"/>
<text text-anchor="start" x="170" y="-18.5" font-family="Helvetica,sans-Serif" font-size="10.00">rare.shared.rare_core.Rare</text>
<text text-anchor="middle" x="227" y="-7.5" font-family="Helvetica,sans-Serif" font-size="10.00">Core.settings</text>
</a>
</g>
</g>
<!-- Node1&#45;&gt;Node4 -->
<g id="edge6" class="edge">
<title>Node1&#45;&gt;Node4</title>
<path fill="none" stroke="midnightblue" d="M110.86,-38.96C123.64,-36.35 137.81,-33.46 151.72,-30.63"/>
<polygon fill="midnightblue" stroke="midnightblue" points="152.67,-34.01 161.77,-28.58 151.28,-27.15 152.67,-34.01"/>
</g>
<!-- Node2&#45;&gt;Node2 -->
<g id="edge5" class="edge">
<title>Node2&#45;&gt;Node2</title>
<path fill="none" stroke="midnightblue" d="M201.56,-97.66C195.42,-107.06 203.9,-116 227,-116 241.08,-116 249.72,-112.68 252.94,-107.96"/>
<polygon fill="midnightblue" stroke="midnightblue" points="256.42,-107.48 252.44,-97.66 249.43,-107.82 256.42,-107.48"/>
</g>
<!-- Node3 -->
<g id="node3" class="node">
<title>Node3</title>
<g id="a_node3"><a xlink:href="namespacerare_1_1utils_1_1misc.html#aa3e62dd2834c428ff219c692cd724722" target="_top" xlink:title=" ">
<polygon fill="white" stroke="black" points="328,-67.5 328,-97.5 420,-97.5 420,-67.5 328,-67.5"/>
<text text-anchor="start" x="336" y="-85.5" font-family="Helvetica,sans-Serif" font-size="10.00">rare.utils.misc.get</text>
<text text-anchor="middle" x="374" y="-74.5" font-family="Helvetica,sans-Serif" font-size="10.00">_static_style</text>
</a>
</g>
</g>
<!-- Node2&#45;&gt;Node3 -->
<g id="edge3" class="edge">
<title>Node2&#45;&gt;Node3</title>
<path fill="none" stroke="midnightblue" d="M273.08,-82.5C287.27,-82.5 303.1,-82.5 317.9,-82.5"/>
<polygon fill="midnightblue" stroke="midnightblue" points="317.94,-86 327.94,-82.5 317.94,-79 317.94,-86"/>
</g>
<!-- Node3&#45;&gt;Node3 -->
<g id="edge4" class="edge">
<title>Node3&#45;&gt;Node3</title>
<path fill="none" stroke="midnightblue" d="M348.56,-97.66C342.42,-107.06 350.9,-116 374,-116 388.08,-116 396.72,-112.68 399.94,-107.96"/>
<polygon fill="midnightblue" stroke="midnightblue" points="403.42,-107.48 399.44,-97.66 396.43,-107.82 403.42,-107.48"/>
</g>
<!-- Node4&#45;&gt;Node4 -->
<g id="edge7" class="edge">
<title>Node4&#45;&gt;Node4</title>
<path fill="none" stroke="midnightblue" d="M201.56,-30.66C195.42,-40.06 203.9,-49 227,-49 241.08,-49 249.72,-45.68 252.94,-40.96"/>
<polygon fill="midnightblue" stroke="midnightblue" points="256.42,-40.48 252.44,-30.66 249.43,-40.82 256.42,-40.48"/>
</g>
</g>
</svg>
