<?xml version="1.0" encoding="UTF-8" standalone="no"?>
<!DOCTYPE svg PUBLIC "-//W3C//DTD SVG 1.1//EN"
 "http://www.w3.org/Graphics/SVG/1.1/DTD/svg11.dtd">
<!-- Generated by graphviz version 2.49.3 (20211027.1534)
 -->
<!-- Title: update_env_vars Pages: 1 -->
<svg width="420pt" height="181pt"
 viewBox="0.00 0.00 420.00 180.50" xmlns="http://www.w3.org/2000/svg" xmlns:xlink="http://www.w3.org/1999/xlink">
<g id="graph0" class="graph" transform="scale(1 1) rotate(0) translate(4 176.5)">
<title>update_env_vars</title>
<polygon fill="white" stroke="transparent" points="-4,4 -4,-176.5 416,-176.5 416,4 -4,4"/>
<!-- Node1 -->
<g id="node1" class="node">
<title>Node1</title>
<g id="a_node1"><a xlink:title=" ">
<polygon fill="#bfbfbf" stroke="black" points="0,-73 0,-92 91,-92 91,-73 0,-73"/>
<text text-anchor="middle" x="45.5" y="-80" font-family="Helvetica,sans-Serif" font-size="10.00">update_env_vars</text>
</a>
</g>
</g>
<!-- Node1&#45;&gt;Node1 -->
<g id="edge9" class="edge">
<title>Node1&#45;&gt;Node1</title>
<path fill="none" stroke="midnightblue" d="M21.46,-92.26C9.76,-101.07 17.77,-110.5 45.5,-110.5 63.7,-110.5 73.4,-106.44 74.62,-101.15"/>
<polygon fill="midnightblue" stroke="midnightblue" points="77.54,-99.21 69.54,-92.26 71.46,-102.68 77.54,-99.21"/>
</g>
<!-- Node2 -->
<g id="node2" class="node">
<title>Node2</title>
<g id="a_node2"><a xlink:href="classrare_1_1components_1_1tabs_1_1settings_1_1widgets_1_1env__vars_1_1_env_vars.html#ae38c470a1cbefa92857f68f71d1ecfc1" target="_top" xlink:title=" ">
<polygon fill="white" stroke="black" points="168.5,-135 168.5,-154 237.5,-154 237.5,-135 168.5,-135"/>
<text text-anchor="middle" x="203" y="-142" font-family="Helvetica,sans-Serif" font-size="10.00">append_row</text>
</a>
</g>
</g>
<!-- Node1&#45;&gt;Node2 -->
<g id="edge1" class="edge">
<title>Node1&#45;&gt;Node2</title>
<path fill="none" stroke="midnightblue" d="M61.7,-92.07C77.5,-101.66 103.21,-116.29 127,-125.5 136.97,-129.36 147.98,-132.65 158.44,-135.36"/>
<polygon fill="midnightblue" stroke="midnightblue" points="157.68,-138.78 168.23,-137.78 159.36,-131.99 157.68,-138.78"/>
</g>
<!-- Node4 -->
<g id="node4" class="node">
<title>Node4</title>
<g id="a_node4"><a xlink:href="classrare_1_1shared_1_1rare__core_1_1_rare_core.html#a405e1a4f20f16120f872ccd2654a1d56" target="_top" xlink:title=" ">
<polygon fill="white" stroke="black" points="138,-67.5 138,-97.5 268,-97.5 268,-67.5 138,-67.5"/>
<text text-anchor="start" x="146" y="-85.5" font-family="Helvetica,sans-Serif" font-size="10.00">rare.shared.rare_core.Rare</text>
<text text-anchor="middle" x="203" y="-74.5" font-family="Helvetica,sans-Serif" font-size="10.00">Core.core</text>
</a>
</g>
</g>
<!-- Node1&#45;&gt;Node4 -->
<g id="edge5" class="edge">
<title>Node1&#45;&gt;Node4</title>
<path fill="none" stroke="midnightblue" d="M91.06,-82.5C102.53,-82.5 115.19,-82.5 127.73,-82.5"/>
<polygon fill="midnightblue" stroke="midnightblue" points="127.73,-86 137.73,-82.5 127.73,-79 127.73,-86"/>
</g>
<!-- Node5 -->
<g id="node5" class="node">
<title>Node5</title>
<g id="a_node5"><a xlink:href="classrare_1_1components_1_1dialogs_1_1launch__dialog_1_1_image_worker.html#abfb44fdc3f5ec4c03f5d2e72900deb61" target="_top" xlink:title=" ">
<polygon fill="white" stroke="black" points="127,-0.5 127,-30.5 279,-30.5 279,-0.5 127,-0.5"/>
<text text-anchor="start" x="135" y="-18.5" font-family="Helvetica,sans-Serif" font-size="10.00">rare.components.dialogs.launch</text>
<text text-anchor="middle" x="203" y="-7.5" font-family="Helvetica,sans-Serif" font-size="10.00">_dialog.ImageWorker.tr</text>
</a>
</g>
</g>
<!-- Node1&#45;&gt;Node5 -->
<g id="edge7" class="edge">
<title>Node1&#45;&gt;Node5</title>
<path fill="none" stroke="midnightblue" d="M68.78,-72.9C91.87,-62.95 128.57,-47.14 157.61,-34.63"/>
<polygon fill="midnightblue" stroke="midnightblue" points="159.34,-37.69 167.14,-30.52 156.57,-31.26 159.34,-37.69"/>
</g>
<!-- Node2&#45;&gt;Node2 -->
<g id="edge2" class="edge">
<title>Node2&#45;&gt;Node2</title>
<path fill="none" stroke="midnightblue" d="M178.96,-154.26C167.26,-163.07 175.27,-172.5 203,-172.5 221.2,-172.5 230.9,-168.44 232.12,-163.15"/>
<polygon fill="midnightblue" stroke="midnightblue" points="235.04,-161.21 227.04,-154.26 228.96,-164.68 235.04,-161.21"/>
</g>
<!-- Node3 -->
<g id="node3" class="node">
<title>Node3</title>
<g id="a_node3"><a xlink:href="namespacerare_1_1utils_1_1misc.html#a5b215592bbad86ea6d2c3b46280baae8" target="_top" xlink:title=" ">
<polygon fill="white" stroke="black" points="315,-135 315,-154 412,-154 412,-135 315,-135"/>
<text text-anchor="middle" x="363.5" y="-142" font-family="Helvetica,sans-Serif" font-size="10.00">rare.utils.misc.icon</text>
</a>
</g>
</g>
<!-- Node2&#45;&gt;Node3 -->
<g id="edge3" class="edge">
<title>Node2&#45;&gt;Node3</title>
<path fill="none" stroke="midnightblue" d="M237.61,-144.5C257.08,-144.5 282.11,-144.5 304.65,-144.5"/>
<polygon fill="midnightblue" stroke="midnightblue" points="304.8,-148 314.8,-144.5 304.8,-141 304.8,-148"/>
</g>
<!-- Node3&#45;&gt;Node3 -->
<g id="edge4" class="edge">
<title>Node3&#45;&gt;Node3</title>
<path fill="none" stroke="midnightblue" d="M338.84,-154.26C326.84,-163.07 335.06,-172.5 363.5,-172.5 382.61,-172.5 392.59,-168.24 393.44,-162.77"/>
<polygon fill="midnightblue" stroke="midnightblue" points="396.4,-160.91 388.16,-154.26 390.45,-164.6 396.4,-160.91"/>
</g>
<!-- Node4&#45;&gt;Node4 -->
<g id="edge6" class="edge">
<title>Node4&#45;&gt;Node4</title>
<path fill="none" stroke="midnightblue" d="M175.81,-97.66C169.26,-107.06 178.32,-116 203,-116 218.04,-116 227.28,-112.68 230.72,-107.96"/>
<polygon fill="midnightblue" stroke="midnightblue" points="234.2,-107.46 230.19,-97.66 227.21,-107.83 234.2,-107.46"/>
</g>
<!-- Node5&#45;&gt;Node5 -->
<g id="edge8" class="edge">
<title>Node5&#45;&gt;Node5</title>
<path fill="none" stroke="midnightblue" d="M175.81,-30.66C169.26,-40.06 178.32,-49 203,-49 218.04,-49 227.28,-45.68 230.72,-40.96"/>
<polygon fill="midnightblue" stroke="midnightblue" points="234.2,-40.46 230.19,-30.66 227.21,-40.83 234.2,-40.46"/>
</g>
</g>
</svg>
