<?xml version="1.0" encoding="UTF-8" standalone="no"?>
<!DOCTYPE svg PUBLIC "-//W3C//DTD SVG 1.1//EN"
 "http://www.w3.org/Graphics/SVG/1.1/DTD/svg11.dtd">
<!-- Generated by graphviz version 2.49.3 (20211027.1534)
 -->
<!-- Title: install_game Pages: 1 -->
<svg width="562pt" height="109pt"
 viewBox="0.00 0.00 562.00 108.85" xmlns="http://www.w3.org/2000/svg" xmlns:xlink="http://www.w3.org/1999/xlink">
<g id="graph0" class="graph" transform="scale(1 1) rotate(0) translate(4 104.85)">
<title>install_game</title>
<polygon fill="white" stroke="transparent" points="-4,4 -4,-104.85 558,-104.85 558,4 -4,4"/>
<!-- Node1 -->
<g id="node1" class="node">
<title>Node1</title>
<g id="a_node1"><a xlink:title=" ">
<polygon fill="#bfbfbf" stroke="black" points="0,-28.5 0,-47.5 71,-47.5 71,-28.5 0,-28.5"/>
<text text-anchor="middle" x="35.5" y="-35.5" font-family="Helvetica,sans-Serif" font-size="10.00">install_game</text>
</a>
</g>
</g>
<!-- Node1&#45;&gt;Node1 -->
<g id="edge5" class="edge">
<title>Node1&#45;&gt;Node1</title>
<path fill="none" stroke="midnightblue" d="M16.08,-47.76C6.63,-56.57 13.11,-66 35.5,-66 49.85,-66 57.66,-62.13 58.94,-57.03"/>
<polygon fill="midnightblue" stroke="midnightblue" points="62.11,-55.54 54.92,-47.76 55.68,-58.32 62.11,-55.54"/>
</g>
<!-- Node2 -->
<g id="node2" class="node">
<title>Node2</title>
<g id="a_node2"><a xlink:href="classrare_1_1shared_1_1rare__core_1_1_rare_core.html#a405e1a4f20f16120f872ccd2654a1d56" target="_top" xlink:title=" ">
<polygon fill="white" stroke="black" points="253,-33 253,-63 383,-63 383,-33 253,-33"/>
<text text-anchor="start" x="261" y="-51" font-family="Helvetica,sans-Serif" font-size="10.00">rare.shared.rare_core.Rare</text>
<text text-anchor="middle" x="318" y="-40" font-family="Helvetica,sans-Serif" font-size="10.00">Core.core</text>
</a>
</g>
</g>
<!-- Node1&#45;&gt;Node2 -->
<g id="edge1" class="edge">
<title>Node1&#45;&gt;Node2</title>
<path fill="none" stroke="midnightblue" d="M71.2,-43.29C82.58,-44.79 95.3,-46.23 107,-47 151.85,-49.96 202.19,-50.3 242.35,-49.86"/>
<polygon fill="midnightblue" stroke="midnightblue" points="242.64,-53.35 252.59,-49.73 242.55,-46.36 242.64,-53.35"/>
</g>
<!-- Node3 -->
<g id="node3" class="node">
<title>Node3</title>
<g id="a_node3"><a xlink:href="classrare_1_1shared_1_1workers_1_1worker_1_1_worker.html#a5d3220537164bdcd6c040b54ef85f656" target="_top" xlink:title=" ">
<polygon fill="white" stroke="black" points="419,-33 419,-63 554,-63 554,-33 419,-33"/>
<text text-anchor="start" x="427" y="-51" font-family="Helvetica,sans-Serif" font-size="10.00">rare.shared.workers.worker.</text>
<text text-anchor="middle" x="486.5" y="-40" font-family="Helvetica,sans-Serif" font-size="10.00">Worker.logger</text>
</a>
</g>
</g>
<!-- Node1&#45;&gt;Node3 -->
<g id="edge11" class="edge">
<title>Node1&#45;&gt;Node3</title>
<path fill="none" stroke="midnightblue" d="M60.35,-47.52C73.87,-52.64 91.19,-58.76 107,-63 226.05,-94.9 262.07,-113.81 383,-90 405.44,-85.58 429.14,-76.21 448.1,-67.43"/>
<polygon fill="midnightblue" stroke="midnightblue" points="449.75,-70.52 457.28,-63.06 446.74,-64.2 449.75,-70.52"/>
</g>
<!-- Node4 -->
<g id="node4" class="node">
<title>Node4</title>
<g id="a_node4"><a xlink:href="classrare_1_1lgndr_1_1cli_1_1_legendary_c_l_i.html#a7de93b9e2b51b491d5c70be49680f66d" target="_top" xlink:title=" ">
<polygon fill="white" stroke="black" points="107,-0.5 107,-19.5 217,-19.5 217,-0.5 107,-0.5"/>
<text text-anchor="middle" x="162" y="-7.5" font-family="Helvetica,sans-Serif" font-size="10.00">install_game_cleanup</text>
</a>
</g>
</g>
<!-- Node1&#45;&gt;Node4 -->
<g id="edge6" class="edge">
<title>Node1&#45;&gt;Node4</title>
<path fill="none" stroke="midnightblue" d="M56.23,-28.47C67.48,-24.87 82.27,-20.99 97.19,-17.6"/>
<polygon fill="midnightblue" stroke="midnightblue" points="97.96,-21.02 106.98,-15.45 96.46,-14.18 97.96,-21.02"/>
</g>
<!-- Node2&#45;&gt;Node2 -->
<g id="edge2" class="edge">
<title>Node2&#45;&gt;Node2</title>
<path fill="none" stroke="midnightblue" d="M290.81,-63.16C284.26,-72.56 293.32,-81.5 318,-81.5 333.04,-81.5 342.28,-78.18 345.72,-73.46"/>
<polygon fill="midnightblue" stroke="midnightblue" points="349.2,-72.96 345.19,-63.16 342.21,-73.33 349.2,-72.96"/>
</g>
<!-- Node2&#45;&gt;Node3 -->
<g id="edge3" class="edge">
<title>Node2&#45;&gt;Node3</title>
<path fill="none" stroke="midnightblue" d="M383.37,-48C391.64,-48 400.16,-48 408.6,-48"/>
<polygon fill="midnightblue" stroke="midnightblue" points="408.82,-51.5 418.82,-48 408.82,-44.5 408.82,-51.5"/>
</g>
<!-- Node3&#45;&gt;Node3 -->
<g id="edge4" class="edge">
<title>Node3&#45;&gt;Node3</title>
<path fill="none" stroke="midnightblue" d="M457.22,-63.16C450.16,-72.56 459.92,-81.5 486.5,-81.5 502.7,-81.5 512.65,-78.18 516.35,-73.46"/>
<polygon fill="midnightblue" stroke="midnightblue" points="519.83,-72.95 515.78,-63.16 512.84,-73.34 519.83,-72.95"/>
</g>
<!-- Node4&#45;&gt;Node1 -->
<g id="edge8" class="edge">
<title>Node4&#45;&gt;Node1</title>
<path fill="none" stroke="midnightblue" d="M141.23,-19.54C125.08,-24.7 101.64,-30.45 81.03,-34.49"/>
<polygon fill="midnightblue" stroke="midnightblue" points="80.37,-31.05 71.18,-36.32 81.65,-37.93 80.37,-31.05"/>
</g>
<!-- Node4&#45;&gt;Node2 -->
<g id="edge7" class="edge">
<title>Node4&#45;&gt;Node2</title>
<path fill="none" stroke="midnightblue" d="M201.86,-19.59C215.31,-22.91 230.84,-26.74 246.05,-30.49"/>
<polygon fill="midnightblue" stroke="midnightblue" points="245.42,-33.94 255.97,-32.94 247.1,-27.15 245.42,-33.94"/>
</g>
<!-- Node4&#45;&gt;Node3 -->
<g id="edge10" class="edge">
<title>Node4&#45;&gt;Node3</title>
<path fill="none" stroke="midnightblue" d="M217.08,-10.49C261.78,-11.54 326.81,-14.56 383,-23 395.65,-24.9 409.02,-27.62 421.79,-30.58"/>
<polygon fill="midnightblue" stroke="midnightblue" points="421.33,-34.07 431.87,-32.99 422.96,-27.26 421.33,-34.07"/>
</g>
<!-- Node4&#45;&gt;Node4 -->
<g id="edge9" class="edge">
<title>Node4&#45;&gt;Node4</title>
<path fill="none" stroke="midnightblue" d="M142.58,-19.76C133.13,-28.57 139.61,-38 162,-38 176.35,-38 184.16,-34.13 185.44,-29.03"/>
<polygon fill="midnightblue" stroke="midnightblue" points="188.61,-27.54 181.42,-19.76 182.18,-30.32 188.61,-27.54"/>
</g>
</g>
</svg>
