<?xml version="1.0" encoding="UTF-8" standalone="no"?>
<!DOCTYPE svg PUBLIC "-//W3C//DTD SVG 1.1//EN"
 "http://www.w3.org/Graphics/SVG/1.1/DTD/svg11.dtd">
<!-- Generated by graphviz version 2.49.3 (20211027.1534)
 -->
<!-- Title: paint_image_cover Pages: 1 -->
<!--zoomable 343 -->
<svg id="main" version="1.1" xmlns="http://www.w3.org/2000/svg" xmlns:xlink="http://www.w3.org/1999/xlink" xml:space="preserve" onload="init(evt)">
<style type="text/css"><![CDATA[
.edge:hover path { stroke: red; }
.edge:hover polygon { stroke: red; fill: red; }
]]></style>
<script type="text/javascript"><![CDATA[
var edges = document.getElementsByTagName('g');
if (edges && edges.length) {
  for (var i=0;i<edges.length;i++) {
    if (edges[i].id.substr(0,4)=='edge') {
      edges[i].setAttribute('class','edge');
    }
  }
}
]]></script>
        <defs>
                <circle id="rim" cx="0" cy="0" r="7"/>
                <circle id="rim2" cx="0" cy="0" r="3.5"/>
                <g id="zoomPlus">
                        <use xlink:href="#rim" fill="#404040">
                                <set attributeName="fill" to="#808080" begin="zoomplus.mouseover" end="zoomplus.mouseout"/>
                        </use>
                        <path d="M-4,0h8M0,-4v8" fill="none" stroke="white" stroke-width="1.5" pointer-events="none"/>
                </g>
                <g id="zoomMin">
                        <use xlink:href="#rim" fill="#404040">
                                <set attributeName="fill" to="#808080" begin="zoomminus.mouseover" end="zoomminus.mouseout"/>
                        </use>
                        <path d="M-4,0h8" fill="none" stroke="white" stroke-width="1.5" pointer-events="none"/>
                </g>
                <g id="dirArrow">
                        <path fill="none" stroke="white" stroke-width="1.5" d="M0,-3.0v7 M-2.5,-0.5L0,-3.0L2.5,-0.5"/>
                </g>
               <g id="resetDef">
                       <use xlink:href="#rim2" fill="#404040">
                               <set attributeName="fill" to="#808080" begin="reset.mouseover" end="reset.mouseout"/>
                       </use>
               </g>
        </defs>

<script type="text/javascript">
var viewWidth = 1054;
var viewHeight = 343;
var sectionId = 'dynsection-9';
</script>
<script xlink:href="svgpan.js"/>
<svg id="graph" class="graph">
<g id="viewport">
<title>paint_image_cover</title>
<polygon fill="white" stroke="transparent" points="-4,4 -4,-338.5 1050,-338.5 1050,4 -4,4"/>
<!-- Node1 -->
<g id="node1" class="node">
<title>Node1</title>
<g id="a_node1"><a xlink:title=" ">
<polygon fill="#bfbfbf" stroke="black" points="948,-126.5 948,-145.5 1046,-145.5 1046,-126.5 948,-126.5"/>
<text text-anchor="middle" x="997" y="-133.5" font-family="Helvetica,sans-Serif" font-size="10.00">paint_image_cover</text>
</a>
</g>
</g>
<!-- Node1&#45;&gt;Node1 -->
<g id="edge1" class="edge">
<title>Node1&#45;&gt;Node1</title>
<path fill="none" stroke="midnightblue" d="M1027.69,-154.27C1026.81,-159.74 1016.58,-164 997,-164 967.85,-164 959.43,-154.57 971.72,-145.76"/>
<polygon fill="midnightblue" stroke="midnightblue" points="1030.59,-152.32 1022.28,-145.76 1024.69,-156.07 1030.59,-152.32"/>
</g>
<!-- Node2 -->
<g id="node2" class="node">
<title>Node2</title>
<g id="a_node2"><a xlink:href="classrare_1_1widgets_1_1image__widget_1_1_image_widget.html#afe7221063d2a4d7b1e1f42fb85f5d06f" target="_top" xlink:title=" ">
<polygon fill="white" stroke="black" points="754,-121 754,-151 912,-151 912,-121 754,-121"/>
<text text-anchor="start" x="762" y="-139" font-family="Helvetica,sans-Serif" font-size="10.00">rare.widgets.image</text>
<text text-anchor="middle" x="833" y="-128" font-family="Helvetica,sans-Serif" font-size="10.00">_widget.ImageWidget.setPixmap</text>
</a>
</g>
</g>
<!-- Node1&#45;&gt;Node2 -->
<g id="edge2" class="edge">
<title>Node1&#45;&gt;Node2</title>
<path fill="none" stroke="midnightblue" d="M937.82,-136C929.44,-136 920.71,-136 912.02,-136"/>
<polygon fill="midnightblue" stroke="midnightblue" points="937.83,-139.5 947.83,-136 937.83,-132.5 937.83,-139.5"/>
</g>
<!-- Node2&#45;&gt;Node2 -->
<g id="edge13" class="edge">
<title>Node2&#45;&gt;Node2</title>
<path fill="none" stroke="midnightblue" d="M862.14,-161.46C858.52,-166.18 848.81,-169.5 833,-169.5 807.05,-169.5 797.53,-160.56 804.42,-151.16"/>
<polygon fill="midnightblue" stroke="midnightblue" points="865.62,-160.95 861.58,-151.16 858.63,-161.33 865.62,-160.95"/>
</g>
<!-- Node3 -->
<g id="node3" class="node">
<title>Node3</title>
<g id="a_node3"><a xlink:href="classrare_1_1components_1_1tabs_1_1store_1_1widgets_1_1image_1_1_loading_image_widget.html#a5e746b7db8fca760d821d8bdd801fc52" target="_top" xlink:title=" ">
<polygon fill="white" stroke="black" points="506,-219 506,-249 706,-249 706,-219 506,-219"/>
<text text-anchor="start" x="514" y="-237" font-family="Helvetica,sans-Serif" font-size="10.00">rare.components.tabs.store.widgets.image.</text>
<text text-anchor="middle" x="606" y="-226" font-family="Helvetica,sans-Serif" font-size="10.00">LoadingImageWidget.fetchPixmap</text>
</a>
</g>
</g>
<!-- Node2&#45;&gt;Node3 -->
<g id="edge3" class="edge">
<title>Node2&#45;&gt;Node3</title>
<path fill="none" stroke="midnightblue" d="M805.21,-157.43C783.05,-174.12 750.12,-196.63 718,-210 709.72,-213.45 700.87,-216.43 691.93,-219"/>
<polygon fill="midnightblue" stroke="midnightblue" points="807.63,-159.98 813.44,-151.12 803.37,-154.43 807.63,-159.98"/>
</g>
<!-- Node8 -->
<g id="node8" class="node">
<title>Node8</title>
<g id="a_node8"><a xlink:href="classrare_1_1components_1_1tabs_1_1library_1_1widgets_1_1icon__game__widget_1_1_icon_game_widget.html#abdf6072ecf79d4ad6dc5afd130bdf19d" target="_top" xlink:title=" ">
<polygon fill="white" stroke="black" points="494,-152 494,-182 718,-182 718,-152 494,-152"/>
<text text-anchor="start" x="502" y="-170" font-family="Helvetica,sans-Serif" font-size="10.00">rare.components.tabs.library.widgets.icon</text>
<text text-anchor="middle" x="606" y="-159" font-family="Helvetica,sans-Serif" font-size="10.00">_game_widget.IconGameWidget.update_pixmap</text>
</a>
</g>
</g>
<!-- Node2&#45;&gt;Node8 -->
<g id="edge14" class="edge">
<title>Node2&#45;&gt;Node8</title>
<path fill="none" stroke="midnightblue" d="M743.82,-148.15C734.77,-149.4 725.49,-150.67 716.25,-151.95"/>
<polygon fill="midnightblue" stroke="midnightblue" points="744.51,-151.59 753.94,-146.76 743.55,-144.65 744.51,-151.59"/>
</g>
<!-- Node9 -->
<g id="node9" class="node">
<title>Node9</title>
<g id="a_node9"><a xlink:href="classrare_1_1components_1_1tabs_1_1library_1_1widgets_1_1list__game__widget_1_1_list_game_widget.html#abdf6072ecf79d4ad6dc5afd130bdf19d" target="_top" xlink:title=" ">
<polygon fill="white" stroke="black" points="565,-95.5 565,-114.5 647,-114.5 647,-95.5 565,-95.5"/>
<text text-anchor="middle" x="606" y="-102.5" font-family="Helvetica,sans-Serif" font-size="10.00">update_pixmap</text>
</a>
</g>
</g>
<!-- Node2&#45;&gt;Node9 -->
<g id="edge16" class="edge">
<title>Node2&#45;&gt;Node9</title>
<path fill="none" stroke="midnightblue" d="M743.68,-123.83C710.26,-119.23 673.85,-114.21 647.02,-110.51"/>
<polygon fill="midnightblue" stroke="midnightblue" points="743.55,-127.35 753.94,-125.24 744.51,-120.41 743.55,-127.35"/>
</g>
<!-- Node10 -->
<g id="node10" class="node">
<title>Node10</title>
<g id="a_node10"><a xlink:href="classrare_1_1components_1_1tabs_1_1library_1_1widgets_1_1library__widget_1_1_library_widget.html#aba6dbd857b7a02c2f1fbd7d472416b54" target="_top" xlink:title=" ">
<polygon fill="white" stroke="black" points="505.5,-28 505.5,-58 706.5,-58 706.5,-28 505.5,-28"/>
<text text-anchor="start" x="513.5" y="-46" font-family="Helvetica,sans-Serif" font-size="10.00">rare.components.tabs.library.widgets.library</text>
<text text-anchor="middle" x="606" y="-35" font-family="Helvetica,sans-Serif" font-size="10.00">_widget.LibraryWidget.updateProgress</text>
</a>
</g>
</g>
<!-- Node2&#45;&gt;Node10 -->
<g id="edge18" class="edge">
<title>Node2&#45;&gt;Node10</title>
<path fill="none" stroke="midnightblue" d="M789.61,-116.88C768.23,-107.37 741.84,-95.84 718,-86 694.6,-76.34 668.18,-66.08 646.98,-58"/>
<polygon fill="midnightblue" stroke="midnightblue" points="788.18,-120.08 798.74,-120.96 791.04,-113.69 788.18,-120.08"/>
</g>
<!-- Node3&#45;&gt;Node3 -->
<g id="edge8" class="edge">
<title>Node3&#45;&gt;Node3</title>
<path fill="none" stroke="midnightblue" d="M646.16,-259.46C641.17,-264.18 627.79,-267.5 606,-267.5 570.25,-267.5 557.12,-258.56 566.61,-249.16"/>
<polygon fill="midnightblue" stroke="midnightblue" points="649.62,-258.87 645.39,-249.16 642.64,-259.39 649.62,-258.87"/>
</g>
<!-- Node4 -->
<g id="node4" class="node">
<title>Node4</title>
<g id="a_node4"><a xlink:href="classrare_1_1components_1_1tabs_1_1store_1_1widgets_1_1items_1_1_search_item_widget.html#aa6e4a481f332ad11a870b247a793e7d1" target="_top" xlink:title=" ">
<polygon fill="white" stroke="black" points="258.5,-286 258.5,-316 456.5,-316 456.5,-286 258.5,-286"/>
<text text-anchor="start" x="266.5" y="-304" font-family="Helvetica,sans-Serif" font-size="10.00">rare.components.tabs.store.widgets.items.</text>
<text text-anchor="middle" x="357.5" y="-293" font-family="Helvetica,sans-Serif" font-size="10.00">SearchItemWidget.__init__</text>
</a>
</g>
</g>
<!-- Node3&#45;&gt;Node4 -->
<g id="edge4" class="edge">
<title>Node3&#45;&gt;Node4</title>
<path fill="none" stroke="midnightblue" d="M546.21,-251.9C519.39,-259.88 487.17,-269.22 458,-277 446.67,-280.02 434.57,-283.08 422.84,-285.96"/>
<polygon fill="midnightblue" stroke="midnightblue" points="547.25,-255.24 555.83,-249.02 545.25,-248.53 547.25,-255.24"/>
</g>
<!-- Node5 -->
<g id="node5" class="node">
<title>Node5</title>
<g id="a_node5"><a xlink:href="classrare_1_1components_1_1tabs_1_1store_1_1widgets_1_1items_1_1_wishlist_item_widget.html#aa6e4a481f332ad11a870b247a793e7d1" target="_top" xlink:title=" ">
<polygon fill="white" stroke="black" points="258.5,-219 258.5,-249 456.5,-249 456.5,-219 258.5,-219"/>
<text text-anchor="start" x="266.5" y="-237" font-family="Helvetica,sans-Serif" font-size="10.00">rare.components.tabs.store.widgets.items.</text>
<text text-anchor="middle" x="357.5" y="-226" font-family="Helvetica,sans-Serif" font-size="10.00">WishlistItemWidget.__init__</text>
</a>
</g>
</g>
<!-- Node3&#45;&gt;Node5 -->
<g id="edge6" class="edge">
<title>Node3&#45;&gt;Node5</title>
<path fill="none" stroke="midnightblue" d="M495.5,-234C482.57,-234 469.44,-234 456.69,-234"/>
<polygon fill="midnightblue" stroke="midnightblue" points="495.8,-237.5 505.8,-234 495.8,-230.5 495.8,-237.5"/>
</g>
<!-- Node6 -->
<g id="node6" class="node">
<title>Node6</title>
<g id="a_node6"><a xlink:href="classrare_1_1components_1_1tabs_1_1store_1_1widgets_1_1items_1_1_store_item_widget.html#a25fcdb296abc02d48b1b9c473f1b7597" target="_top" xlink:title=" ">
<polygon fill="white" stroke="black" points="258.5,-152 258.5,-182 456.5,-182 456.5,-152 258.5,-152"/>
<text text-anchor="start" x="266.5" y="-170" font-family="Helvetica,sans-Serif" font-size="10.00">rare.components.tabs.store.widgets.items.</text>
<text text-anchor="middle" x="357.5" y="-159" font-family="Helvetica,sans-Serif" font-size="10.00">StoreItemWidget.init_ui</text>
</a>
</g>
</g>
<!-- Node3&#45;&gt;Node6 -->
<g id="edge9" class="edge">
<title>Node3&#45;&gt;Node6</title>
<path fill="none" stroke="midnightblue" d="M520.88,-216.69C511.78,-214.56 502.68,-212.31 494,-210 463.11,-201.78 428.8,-190.87 402.43,-182.1"/>
<polygon fill="midnightblue" stroke="midnightblue" points="520.2,-220.13 530.73,-218.96 521.77,-213.3 520.2,-220.13"/>
</g>
<!-- Node4&#45;&gt;Node4 -->
<g id="edge5" class="edge">
<title>Node4&#45;&gt;Node4</title>
<path fill="none" stroke="midnightblue" d="M401.61,-326.09C396.53,-331.01 381.82,-334.5 357.5,-334.5 318.58,-334.5 304.29,-325.56 314.63,-316.16"/>
<polygon fill="midnightblue" stroke="midnightblue" points="405.08,-325.65 400.37,-316.16 398.14,-326.52 405.08,-325.65"/>
</g>
<!-- Node5&#45;&gt;Node5 -->
<g id="edge7" class="edge">
<title>Node5&#45;&gt;Node5</title>
<path fill="none" stroke="midnightblue" d="M401.61,-259.09C396.53,-264.01 381.82,-267.5 357.5,-267.5 318.58,-267.5 304.29,-258.56 314.63,-249.16"/>
<polygon fill="midnightblue" stroke="midnightblue" points="405.08,-258.65 400.37,-249.16 398.14,-259.52 405.08,-258.65"/>
</g>
<!-- Node6&#45;&gt;Node6 -->
<g id="edge12" class="edge">
<title>Node6&#45;&gt;Node6</title>
<path fill="none" stroke="midnightblue" d="M401.61,-192.09C396.53,-197.01 381.82,-200.5 357.5,-200.5 318.58,-200.5 304.29,-191.56 314.63,-182.16"/>
<polygon fill="midnightblue" stroke="midnightblue" points="405.08,-191.65 400.37,-182.16 398.14,-192.52 405.08,-191.65"/>
</g>
<!-- Node7 -->
<g id="node7" class="node">
<title>Node7</title>
<g id="a_node7"><a xlink:href="classrare_1_1components_1_1tabs_1_1store_1_1widgets_1_1items_1_1_store_item_widget.html#a10bc7e3ba7dbaf8018c30feaee63e609" target="_top" xlink:title=" ">
<polygon fill="white" stroke="black" points="11.5,-152 11.5,-182 209.5,-182 209.5,-152 11.5,-152"/>
<text text-anchor="start" x="19.5" y="-170" font-family="Helvetica,sans-Serif" font-size="10.00">rare.components.tabs.store.widgets.items.</text>
<text text-anchor="middle" x="110.5" y="-159" font-family="Helvetica,sans-Serif" font-size="10.00">StoreItemWidget.__init__</text>
</a>
</g>
</g>
<!-- Node6&#45;&gt;Node7 -->
<g id="edge10" class="edge">
<title>Node6&#45;&gt;Node7</title>
<path fill="none" stroke="midnightblue" d="M248.09,-167C235.33,-167 222.37,-167 209.76,-167"/>
<polygon fill="midnightblue" stroke="midnightblue" points="248.26,-170.5 258.26,-167 248.26,-163.5 248.26,-170.5"/>
</g>
<!-- Node7&#45;&gt;Node7 -->
<g id="edge11" class="edge">
<title>Node7&#45;&gt;Node7</title>
<path fill="none" stroke="midnightblue" d="M154.61,-192.09C149.53,-197.01 134.82,-200.5 110.5,-200.5 71.58,-200.5 57.29,-191.56 67.63,-182.16"/>
<polygon fill="midnightblue" stroke="midnightblue" points="158.08,-191.65 153.37,-182.16 151.14,-192.52 158.08,-191.65"/>
</g>
<!-- Node8&#45;&gt;Node8 -->
<g id="edge15" class="edge">
<title>Node8&#45;&gt;Node8</title>
<path fill="none" stroke="midnightblue" d="M646.16,-192.46C641.17,-197.18 627.79,-200.5 606,-200.5 570.25,-200.5 557.12,-191.56 566.61,-182.16"/>
<polygon fill="midnightblue" stroke="midnightblue" points="649.62,-191.87 645.39,-182.16 642.64,-192.39 649.62,-191.87"/>
</g>
<!-- Node9&#45;&gt;Node9 -->
<g id="edge17" class="edge">
<title>Node9&#45;&gt;Node9</title>
<path fill="none" stroke="midnightblue" d="M648.15,-121.22C650.34,-127.63 636.29,-133 606,-133 565.61,-133 554.09,-123.46 571.45,-114.61"/>
<polygon fill="midnightblue" stroke="midnightblue" points="650.4,-118.53 640.55,-114.61 645.8,-123.81 650.4,-118.53"/>
</g>
<!-- Node10&#45;&gt;Node10 -->
<g id="edge25" class="edge">
<title>Node10&#45;&gt;Node10</title>
<path fill="none" stroke="midnightblue" d="M646.16,-68.46C641.17,-73.18 627.79,-76.5 606,-76.5 570.25,-76.5 557.12,-67.56 566.61,-58.16"/>
<polygon fill="midnightblue" stroke="midnightblue" points="649.62,-67.87 645.39,-58.16 642.64,-68.39 649.62,-67.87"/>
</g>
<!-- Node11 -->
<g id="node11" class="node">
<title>Node11</title>
<g id="a_node11"><a xlink:href="classrare_1_1components_1_1tabs_1_1library_1_1widgets_1_1library__widget_1_1_library_widget.html#a1990ae73849da7538f16b24becb60023" target="_top" xlink:title=" ">
<polygon fill="white" stroke="black" points="257,-28 257,-58 458,-58 458,-28 257,-28"/>
<text text-anchor="start" x="265" y="-46" font-family="Helvetica,sans-Serif" font-size="10.00">rare.components.tabs.library.widgets.library</text>
<text text-anchor="middle" x="357.5" y="-35" font-family="Helvetica,sans-Serif" font-size="10.00">_widget.LibraryWidget.showProgress</text>
</a>
</g>
</g>
<!-- Node10&#45;&gt;Node11 -->
<g id="edge19" class="edge">
<title>Node10&#45;&gt;Node11</title>
<path fill="none" stroke="midnightblue" d="M495.13,-43C482.77,-43 470.23,-43 458.02,-43"/>
<polygon fill="midnightblue" stroke="midnightblue" points="495.45,-46.5 505.45,-43 495.45,-39.5 495.45,-46.5"/>
</g>
<!-- Node11&#45;&gt;Node11 -->
<g id="edge20" class="edge">
<title>Node11&#45;&gt;Node11</title>
<path fill="none" stroke="midnightblue" d="M401.61,-68.09C396.53,-73.01 381.82,-76.5 357.5,-76.5 318.58,-76.5 304.29,-67.56 314.63,-58.16"/>
<polygon fill="midnightblue" stroke="midnightblue" points="405.08,-67.65 400.37,-58.16 398.14,-68.52 405.08,-67.65"/>
</g>
<!-- Node12 -->
<g id="node12" class="node">
<title>Node12</title>
<g id="a_node12"><a xlink:href="classrare_1_1components_1_1tabs_1_1library_1_1widgets_1_1icon__game__widget_1_1_icon_game_widget.html#a7452c15bd2987cd55fca73d67d8d25cd" target="_top" xlink:title=" ">
<polygon fill="white" stroke="black" points="0,-57 0,-87 221,-87 221,-57 0,-57"/>
<text text-anchor="start" x="8" y="-75" font-family="Helvetica,sans-Serif" font-size="10.00">rare.components.tabs.library.widgets.icon</text>
<text text-anchor="middle" x="110.5" y="-64" font-family="Helvetica,sans-Serif" font-size="10.00">_game_widget.IconGameWidget.start_progress</text>
</a>
</g>
</g>
<!-- Node11&#45;&gt;Node12 -->
<g id="edge21" class="edge">
<title>Node11&#45;&gt;Node12</title>
<path fill="none" stroke="midnightblue" d="M246.84,-55.98C238.27,-56.99 229.62,-58.02 221.06,-59.03"/>
<polygon fill="midnightblue" stroke="midnightblue" points="247.33,-59.45 256.85,-54.8 246.51,-52.5 247.33,-59.45"/>
</g>
<!-- Node13 -->
<g id="node13" class="node">
<title>Node13</title>
<g id="a_node13"><a xlink:href="classrare_1_1components_1_1tabs_1_1library_1_1widgets_1_1list__game__widget_1_1_list_game_widget.html#a7452c15bd2987cd55fca73d67d8d25cd" target="_top" xlink:title=" ">
<polygon fill="white" stroke="black" points="71,-0.5 71,-19.5 150,-19.5 150,-0.5 71,-0.5"/>
<text text-anchor="middle" x="110.5" y="-7.5" font-family="Helvetica,sans-Serif" font-size="10.00">start_progress</text>
</a>
</g>
</g>
<!-- Node11&#45;&gt;Node13 -->
<g id="edge23" class="edge">
<title>Node11&#45;&gt;Node13</title>
<path fill="none" stroke="midnightblue" d="M246.68,-28.21C212.18,-23.56 176.33,-18.73 150.22,-15.22"/>
<polygon fill="midnightblue" stroke="midnightblue" points="246.47,-31.71 256.85,-29.58 247.41,-24.77 246.47,-31.71"/>
</g>
<!-- Node12&#45;&gt;Node12 -->
<g id="edge22" class="edge">
<title>Node12&#45;&gt;Node12</title>
<path fill="none" stroke="midnightblue" d="M154.61,-97.09C149.53,-102.01 134.82,-105.5 110.5,-105.5 71.58,-105.5 57.29,-96.56 67.63,-87.16"/>
<polygon fill="midnightblue" stroke="midnightblue" points="158.08,-96.65 153.37,-87.16 151.14,-97.52 158.08,-96.65"/>
</g>
<!-- Node13&#45;&gt;Node13 -->
<g id="edge24" class="edge">
<title>Node13&#45;&gt;Node13</title>
<path fill="none" stroke="midnightblue" d="M156.21,-25.82C159.4,-32.41 144.16,-38 110.5,-38 66.54,-38 54,-28.46 72.89,-19.61"/>
<polygon fill="midnightblue" stroke="midnightblue" points="158.18,-22.91 148.11,-19.61 153.92,-28.47 158.18,-22.91"/>
</g>
</g>
</svg>
        <g id="navigator" transform="translate(0 0)" fill="#404254">
                <rect fill="#f2f5e9" fill-opacity="0.5" stroke="#606060" stroke-width=".5" x="0" y="0" width="60" height="60"/>
                <use id="zoomplus" xlink:href="#zoomPlus" x="17" y="9" onmousedown="handleZoom(evt,'in')"/>
                <use id="zoomminus" xlink:href="#zoomMin" x="42" y="9" onmousedown="handleZoom(evt,'out')"/>
                <use id="reset" xlink:href="#resetDef" x="30" y="36" onmousedown="handleReset()"/>
                <g id="arrowUp" xlink:href="#dirArrow" transform="translate(30 24)" onmousedown="handlePan(0,-1)">
                  <use xlink:href="#rim" fill="#404040">
                        <set attributeName="fill" to="#808080" begin="arrowUp.mouseover" end="arrowUp.mouseout"/>
                  </use>
                  <path fill="none" stroke="white" stroke-width="1.5" d="M0,-3.0v7 M-2.5,-0.5L0,-3.0L2.5,-0.5"/>
                </g>
                <g id="arrowRight" xlink:href="#dirArrow" transform="rotate(90) translate(36 -43)" onmousedown="handlePan(1,0)">
                  <use xlink:href="#rim" fill="#404040">
                        <set attributeName="fill" to="#808080" begin="arrowRight.mouseover" end="arrowRight.mouseout"/>
                  </use>
                  <path fill="none" stroke="white" stroke-width="1.5" d="M0,-3.0v7 M-2.5,-0.5L0,-3.0L2.5,-0.5"/>
                </g>
                <g id="arrowDown" xlink:href="#dirArrow" transform="rotate(180) translate(-30 -48)" onmousedown="handlePan(0,1)">
                  <use xlink:href="#rim" fill="#404040">
                        <set attributeName="fill" to="#808080" begin="arrowDown.mouseover" end="arrowDown.mouseout"/>
                  </use>
                  <path fill="none" stroke="white" stroke-width="1.5" d="M0,-3.0v7 M-2.5,-0.5L0,-3.0L2.5,-0.5"/>
                </g>
                <g id="arrowLeft" xlink:href="#dirArrow" transform="rotate(270) translate(-36 17)" onmousedown="handlePan(-1,0)">
                  <use xlink:href="#rim" fill="#404040">
                        <set attributeName="fill" to="#808080" begin="arrowLeft.mouseover" end="arrowLeft.mouseout"/>
                  </use>
                  <path fill="none" stroke="white" stroke-width="1.5" d="M0,-3.0v7 M-2.5,-0.5L0,-3.0L2.5,-0.5"/>
                </g>
        </g>
        <svg viewBox="0 0 15 15" width="100%" height="30px" preserveAspectRatio="xMaxYMin meet">
         <g id="arrow_out" transform="scale(0.3 0.3)">
          <a xlink:href="classrare_1_1components_1_1tabs_1_1library_1_1widgets_1_1list__game__widget_1_1_list_game_widget_aa136880b14cd8741ebe60fbcf4d29a2e_icgraph_org.svg" target="_base">
           <rect id="button" ry="5" rx="5" y="6" x="6" height="38" width="38"
                fill="#f2f5e9" fill-opacity="0.5" stroke="#606060" stroke-width="1.0"/>
           <path id="arrow"
             d="M 11.500037,31.436501 C 11.940474,20.09759 22.043105,11.32322 32.158766,21.979434 L 37.068811,17.246167 C 37.068811,17.246167 37.088388,32 37.088388,32 L 22.160133,31.978069 C 22.160133,31.978069 26.997745,27.140456 26.997745,27.140456 C 18.528582,18.264221 13.291696,25.230495 11.500037,31.436501 z"
             style="fill:#404040;"/>
          </a>
         </g>
        </svg>
</svg>
