<?xml version="1.0" encoding="UTF-8" standalone="no"?>
<!DOCTYPE svg PUBLIC "-//W3C//DTD SVG 1.1//EN"
 "http://www.w3.org/Graphics/SVG/1.1/DTD/svg11.dtd">
<!-- Generated by graphviz version 2.49.3 (20211027.1534)
 -->
<!-- Title: progressPixmap Pages: 1 -->
<svg width="416pt" height="57pt"
 viewBox="0.00 0.00 416.00 57.00" xmlns="http://www.w3.org/2000/svg" xmlns:xlink="http://www.w3.org/1999/xlink">
<g id="graph0" class="graph" transform="scale(1 1) rotate(0) translate(4 53)">
<title>progressPixmap</title>
<polygon fill="white" stroke="transparent" points="-4,4 -4,-53 412,-53 412,4 -4,4"/>
<!-- Node1 -->
<g id="node1" class="node">
<title>Node1</title>
<g id="a_node1"><a xlink:title="Paints the color image over the gray images based on progress percentage.">
<polygon fill="#bfbfbf" stroke="black" points="0,-6 0,-25 86,-25 86,-6 0,-6"/>
<text text-anchor="middle" x="43" y="-13" font-family="Helvetica,sans-Serif" font-size="10.00">progressPixmap</text>
</a>
</g>
</g>
<!-- Node1&#45;&gt;Node1 -->
<g id="edge1" class="edge">
<title>Node1&#45;&gt;Node1</title>
<path fill="none" stroke="midnightblue" d="M21.42,-25.26C10.92,-34.07 18.12,-43.5 43,-43.5 58.94,-43.5 67.62,-39.63 69.04,-34.53"/>
<polygon fill="midnightblue" stroke="midnightblue" points="72.07,-32.75 64.58,-25.26 65.76,-35.79 72.07,-32.75"/>
</g>
<!-- Node2 -->
<g id="node2" class="node">
<title>Node2</title>
<g id="a_node2"><a xlink:href="classrare_1_1widgets_1_1flow__layout_1_1_flow_layout.html#aff1e7c8521d73ca3ac484759bf2b7597" target="_top" xlink:title=" ">
<polygon fill="white" stroke="black" points="122,-0.5 122,-30.5 244,-30.5 244,-0.5 122,-0.5"/>
<text text-anchor="start" x="130" y="-18.5" font-family="Helvetica,sans-Serif" font-size="10.00">rare.widgets.flow_layout.</text>
<text text-anchor="middle" x="183" y="-7.5" font-family="Helvetica,sans-Serif" font-size="10.00">FlowLayout.sizeHint</text>
</a>
</g>
</g>
<!-- Node1&#45;&gt;Node2 -->
<g id="edge2" class="edge">
<title>Node1&#45;&gt;Node2</title>
<path fill="none" stroke="midnightblue" d="M86.15,-15.5C94.24,-15.5 102.92,-15.5 111.62,-15.5"/>
<polygon fill="midnightblue" stroke="midnightblue" points="111.82,-19 121.82,-15.5 111.82,-12 111.82,-19"/>
</g>
<!-- Node2&#45;&gt;Node2 -->
<g id="edge5" class="edge">
<title>Node2&#45;&gt;Node2</title>
<path fill="none" stroke="midnightblue" d="M158.6,-30.66C152.72,-40.06 160.85,-49 183,-49 196.5,-49 204.79,-45.68 207.88,-40.96"/>
<polygon fill="midnightblue" stroke="midnightblue" points="211.36,-40.49 207.4,-30.66 204.37,-40.81 211.36,-40.49"/>
</g>
<!-- Node3 -->
<g id="node3" class="node">
<title>Node3</title>
<g id="a_node3"><a xlink:href="classrare_1_1widgets_1_1flow__layout_1_1_flow_layout.html#acd7a5b208d0d18ac43cc317209bd759c" target="_top" xlink:title=" ">
<polygon fill="white" stroke="black" points="280,-0.5 280,-30.5 408,-30.5 408,-0.5 280,-0.5"/>
<text text-anchor="start" x="288" y="-18.5" font-family="Helvetica,sans-Serif" font-size="10.00">rare.widgets.flow_layout.</text>
<text text-anchor="middle" x="344" y="-7.5" font-family="Helvetica,sans-Serif" font-size="10.00">FlowLayout.minimumSize</text>
</a>
</g>
</g>
<!-- Node2&#45;&gt;Node3 -->
<g id="edge3" class="edge">
<title>Node2&#45;&gt;Node3</title>
<path fill="none" stroke="midnightblue" d="M244.11,-15.5C252.52,-15.5 261.23,-15.5 269.85,-15.5"/>
<polygon fill="midnightblue" stroke="midnightblue" points="269.89,-19 279.89,-15.5 269.89,-12 269.89,-19"/>
</g>
<!-- Node3&#45;&gt;Node3 -->
<g id="edge4" class="edge">
<title>Node3&#45;&gt;Node3</title>
<path fill="none" stroke="midnightblue" d="M316.12,-30.66C309.39,-40.06 318.69,-49 344,-49 359.42,-49 368.9,-45.68 372.43,-40.96"/>
<polygon fill="midnightblue" stroke="midnightblue" points="375.91,-40.46 371.88,-30.66 368.92,-40.83 375.91,-40.46"/>
</g>
</g>
</svg>
