<?xml version="1.0" encoding="UTF-8" standalone="no"?>
<!DOCTYPE svg PUBLIC "-//W3C//DTD SVG 1.1//EN"
 "http://www.w3.org/Graphics/SVG/1.1/DTD/svg11.dtd">
<!-- Generated by graphviz version 2.49.3 (20211027.1534)
 -->
<!-- Title: stop_download Pages: 1 -->
<!--zoomable 947 -->
<svg id="main" version="1.1" xmlns="http://www.w3.org/2000/svg" xmlns:xlink="http://www.w3.org/1999/xlink" xml:space="preserve" onload="init(evt)">
<style type="text/css"><![CDATA[
.edge:hover path { stroke: red; }
.edge:hover polygon { stroke: red; fill: red; }
]]></style>
<script type="text/javascript"><![CDATA[
var edges = document.getElementsByTagName('g');
if (edges && edges.length) {
  for (var i=0;i<edges.length;i++) {
    if (edges[i].id.substr(0,4)=='edge') {
      edges[i].setAttribute('class','edge');
    }
  }
}
]]></script>
        <defs>
                <circle id="rim" cx="0" cy="0" r="7"/>
                <circle id="rim2" cx="0" cy="0" r="3.5"/>
                <g id="zoomPlus">
                        <use xlink:href="#rim" fill="#404040">
                                <set attributeName="fill" to="#808080" begin="zoomplus.mouseover" end="zoomplus.mouseout"/>
                        </use>
                        <path d="M-4,0h8M0,-4v8" fill="none" stroke="white" stroke-width="1.5" pointer-events="none"/>
                </g>
                <g id="zoomMin">
                        <use xlink:href="#rim" fill="#404040">
                                <set attributeName="fill" to="#808080" begin="zoomminus.mouseover" end="zoomminus.mouseout"/>
                        </use>
                        <path d="M-4,0h8" fill="none" stroke="white" stroke-width="1.5" pointer-events="none"/>
                </g>
                <g id="dirArrow">
                        <path fill="none" stroke="white" stroke-width="1.5" d="M0,-3.0v7 M-2.5,-0.5L0,-3.0L2.5,-0.5"/>
                </g>
               <g id="resetDef">
                       <use xlink:href="#rim2" fill="#404040">
                               <set attributeName="fill" to="#808080" begin="reset.mouseover" end="reset.mouseout"/>
                       </use>
               </g>
        </defs>

<script type="text/javascript">
var viewWidth = 992;
var viewHeight = 947;
var sectionId = 'dynsection-6';
</script>
<script xlink:href="svgpan.js"/>
<svg id="graph" class="graph">
<g id="viewport">
<title>stop_download</title>
<polygon fill="white" stroke="transparent" points="-4,4 -4,-943 988,-943 988,4 -4,4"/>
<!-- Node1 -->
<g id="node1" class="node">
<title>Node1</title>
<g id="a_node1"><a xlink:title="Stops the active download, by optionally skipping the queue.">
<polygon fill="#bfbfbf" stroke="black" points="0,-525.5 0,-544.5 82,-544.5 82,-525.5 0,-525.5"/>
<text text-anchor="middle" x="41" y="-532.5" font-family="Helvetica,sans-Serif" font-size="10.00">stop_download</text>
</a>
</g>
</g>
<!-- Node1&#45;&gt;Node1 -->
<g id="edge47" class="edge">
<title>Node1&#45;&gt;Node1</title>
<path fill="none" stroke="midnightblue" d="M13.87,-544.76C0.68,-553.57 9.72,-563 41,-563 62.51,-563 73.5,-558.54 73.98,-552.89"/>
<polygon fill="midnightblue" stroke="midnightblue" points="76.81,-550.83 68.13,-544.76 71.13,-554.92 76.81,-550.83"/>
</g>
<!-- Node2 -->
<g id="node2" class="node">
<title>Node2</title>
<g id="a_node2"><a xlink:href="classrare_1_1components_1_1tabs_1_1downloads_1_1_downloads_tab.html#ad04e39f7a02542bec368b03b2a0430e1" target="_top" xlink:title=" ">
<polygon fill="white" stroke="black" points="153.5,-919.5 153.5,-938.5 280.5,-938.5 280.5,-919.5 153.5,-919.5"/>
<text text-anchor="middle" x="217" y="-926.5" font-family="Helvetica,sans-Serif" font-size="10.00">__on_download_progress</text>
</a>
</g>
</g>
<!-- Node1&#45;&gt;Node2 -->
<g id="edge1" class="edge">
<title>Node1&#45;&gt;Node2</title>
<path fill="none" stroke="midnightblue" d="M42.56,-544.85C45.79,-598.63 63.99,-856.45 118,-910 125.15,-917.09 134.11,-921.94 143.68,-925.21"/>
<polygon fill="midnightblue" stroke="midnightblue" points="142.84,-928.61 153.42,-927.96 144.75,-921.87 142.84,-928.61"/>
</g>
<!-- Node3 -->
<g id="node3" class="node">
<title>Node3</title>
<g id="a_node3"><a xlink:href="classrare_1_1components_1_1tabs_1_1downloads_1_1_downloads_tab.html#a9f7a02e315c0de328c345850d56c4ca5" target="_top" xlink:title=" ">
<polygon fill="white" stroke="black" points="160.5,-881.5 160.5,-900.5 273.5,-900.5 273.5,-881.5 160.5,-881.5"/>
<text text-anchor="middle" x="217" y="-888.5" font-family="Helvetica,sans-Serif" font-size="10.00">__on_download_result</text>
</a>
</g>
</g>
<!-- Node1&#45;&gt;Node3 -->
<g id="edge2" class="edge">
<title>Node1&#45;&gt;Node3</title>
<path fill="none" stroke="midnightblue" d="M42.77,-544.5C46.98,-594.27 68.93,-824.39 118,-872 126.84,-880.58 138.33,-885.86 150.32,-889.01"/>
<polygon fill="midnightblue" stroke="midnightblue" points="149.94,-892.51 160.45,-891.18 151.41,-885.66 149.94,-892.51"/>
</g>
<!-- Node4 -->
<g id="node4" class="node">
<title>Node4</title>
<g id="a_node4"><a xlink:href="classrare_1_1components_1_1tabs_1_1downloads_1_1_downloads_tab.html#a5eac5cb663f6096b4b8181455c9e5802" target="_top" xlink:title=" ">
<polygon fill="white" stroke="black" points="167.5,-832 167.5,-862 266.5,-862 266.5,-832 167.5,-832"/>
<text text-anchor="start" x="175.5" y="-850" font-family="Helvetica,sans-Serif" font-size="10.00">__on_install_dialog</text>
<text text-anchor="middle" x="217" y="-839" font-family="Helvetica,sans-Serif" font-size="10.00">_closed</text>
</a>
</g>
</g>
<!-- Node1&#45;&gt;Node4 -->
<g id="edge3" class="edge">
<title>Node1&#45;&gt;Node4</title>
<path fill="none" stroke="midnightblue" d="M43.21,-544.55C49.12,-589.8 76.41,-782.14 118,-823 128.61,-833.42 142.96,-839.57 157.41,-843.14"/>
<polygon fill="midnightblue" stroke="midnightblue" points="156.87,-846.6 167.38,-845.21 158.3,-839.75 156.87,-846.6"/>
</g>
<!-- Node5 -->
<g id="node5" class="node">
<title>Node5</title>
<g id="a_node5"><a xlink:href="classrare_1_1components_1_1tabs_1_1downloads_1_1_downloads_tab.html#a094047d434eb737f9a81ea3edf77eca2" target="_top" xlink:title=" ">
<polygon fill="white" stroke="black" points="162,-783 162,-813 272,-813 272,-783 162,-783"/>
<text text-anchor="start" x="170" y="-801" font-family="Helvetica,sans-Serif" font-size="10.00">__on_uninstall_dialog</text>
<text text-anchor="middle" x="217" y="-790" font-family="Helvetica,sans-Serif" font-size="10.00">_closed</text>
</a>
</g>
</g>
<!-- Node1&#45;&gt;Node5 -->
<g id="edge4" class="edge">
<title>Node1&#45;&gt;Node5</title>
<path fill="none" stroke="midnightblue" d="M41.94,-544.95C42.3,-581.45 48.65,-709.19 118,-774 127.39,-782.78 139.45,-788.49 151.88,-792.18"/>
<polygon fill="midnightblue" stroke="midnightblue" points="151.33,-795.65 161.88,-794.73 153.05,-788.87 151.33,-795.65"/>
</g>
<!-- Node6 -->
<g id="node6" class="node">
<title>Node6</title>
<g id="a_node6"><a xlink:href="classrare_1_1components_1_1tabs_1_1downloads_1_1_downloads_tab.html#ab3429d02b68e058727114720e0ee6822" target="_top" xlink:title=" ">
<polygon fill="white" stroke="black" points="160.5,-734 160.5,-764 273.5,-764 273.5,-734 160.5,-734"/>
<text text-anchor="start" x="168.5" y="-752" font-family="Helvetica,sans-Serif" font-size="10.00">__on_uninstall_worker</text>
<text text-anchor="middle" x="217" y="-741" font-family="Helvetica,sans-Serif" font-size="10.00">_result</text>
</a>
</g>
</g>
<!-- Node1&#45;&gt;Node6 -->
<g id="edge5" class="edge">
<title>Node1&#45;&gt;Node6</title>
<path fill="none" stroke="midnightblue" d="M42.87,-544.57C46.21,-575.57 61.06,-674.15 118,-724 127.19,-732.04 138.61,-737.56 150.38,-741.33"/>
<polygon fill="midnightblue" stroke="midnightblue" points="149.74,-744.79 160.31,-744.11 151.62,-738.04 149.74,-744.79"/>
</g>
<!-- Node7 -->
<g id="node7" class="node">
<title>Node7</title>
<g id="a_node7"><a xlink:href="classrare_1_1components_1_1tabs_1_1downloads_1_1_downloads_tab.html#a7ac4bc65b80da44f2f86f1007fa939ff" target="_top" xlink:title=" ">
<polygon fill="white" stroke="black" points="165,-695.5 165,-714.5 269,-714.5 269,-695.5 165,-695.5"/>
<text text-anchor="middle" x="217" y="-702.5" font-family="Helvetica,sans-Serif" font-size="10.00">__refresh_download</text>
</a>
</g>
</g>
<!-- Node1&#45;&gt;Node7 -->
<g id="edge6" class="edge">
<title>Node1&#45;&gt;Node7</title>
<path fill="none" stroke="midnightblue" d="M43.8,-544.66C49.39,-571.76 69.1,-648.98 118,-686 128.63,-694.04 141.71,-698.97 154.82,-701.93"/>
<polygon fill="midnightblue" stroke="midnightblue" points="154.33,-705.39 164.81,-703.82 155.63,-698.52 154.33,-705.39"/>
</g>
<!-- Node8 -->
<g id="node8" class="node">
<title>Node8</title>
<g id="a_node8"><a xlink:href="classrare_1_1components_1_1tabs_1_1downloads_1_1_downloads_tab.html#ac341c26dcd575a15a5dbb83ce46c293e" target="_top" xlink:title=" ">
<polygon fill="white" stroke="black" points="163,-657.5 163,-676.5 271,-676.5 271,-657.5 163,-657.5"/>
<text text-anchor="middle" x="217" y="-664.5" font-family="Helvetica,sans-Serif" font-size="10.00">__requeue_download</text>
</a>
</g>
</g>
<!-- Node1&#45;&gt;Node8 -->
<g id="edge7" class="edge">
<title>Node1&#45;&gt;Node8</title>
<path fill="none" stroke="midnightblue" d="M45.53,-544.77C54.13,-567.06 78.38,-621.75 118,-648 128.43,-654.91 140.77,-659.43 153.12,-662.37"/>
<polygon fill="midnightblue" stroke="midnightblue" points="152.48,-665.81 162.98,-664.4 153.89,-658.95 152.48,-665.81"/>
</g>
<!-- Node9 -->
<g id="node9" class="node">
<title>Node9</title>
<g id="a_node9"><a xlink:href="classrare_1_1components_1_1tabs_1_1downloads_1_1_downloads_tab.html#ad2f822331bcc1303cdea2a90405a0ecc" target="_top" xlink:title=" ">
<polygon fill="white" stroke="black" points="169.5,-619.5 169.5,-638.5 264.5,-638.5 264.5,-619.5 169.5,-619.5"/>
<text text-anchor="middle" x="217" y="-626.5" font-family="Helvetica,sans-Serif" font-size="10.00">__reset_download</text>
</a>
</g>
</g>
<!-- Node1&#45;&gt;Node9 -->
<g id="edge8" class="edge">
<title>Node1&#45;&gt;Node9</title>
<path fill="none" stroke="midnightblue" d="M49.75,-544.79C62.38,-560.06 88.91,-589.4 118,-605 130.67,-611.79 145.29,-616.7 159.31,-620.23"/>
<polygon fill="midnightblue" stroke="midnightblue" points="158.84,-623.71 169.37,-622.56 160.42,-616.89 158.84,-623.71"/>
</g>
<!-- Node10 -->
<g id="node10" class="node">
<title>Node10</title>
<g id="a_node10"><a xlink:href="classrare_1_1components_1_1tabs_1_1downloads_1_1_downloads_tab.html#a8f95c12331473621465737e24f2ded05" target="_top" xlink:title=" ">
<polygon fill="white" stroke="black" points="551,-581.5 551,-600.5 644,-600.5 644,-581.5 551,-581.5"/>
<text text-anchor="middle" x="597.5" y="-588.5" font-family="Helvetica,sans-Serif" font-size="10.00">__start_download</text>
</a>
</g>
</g>
<!-- Node1&#45;&gt;Node10 -->
<g id="edge9" class="edge">
<title>Node1&#45;&gt;Node10</title>
<path fill="none" stroke="midnightblue" d="M57,-544.63C71.83,-553.58 95.51,-566.35 118,-572 267.06,-609.49 450.38,-602.74 540.73,-596.1"/>
<polygon fill="midnightblue" stroke="midnightblue" points="541.06,-599.58 550.76,-595.33 540.52,-592.6 541.06,-599.58"/>
</g>
<!-- Node11 -->
<g id="node11" class="node">
<title>Node11</title>
<g id="a_node11"><a xlink:href="classrare_1_1shared_1_1rare__core_1_1_rare_core.html#a673cb72b40e8c1b2dfab6dbc0e0e39e4" target="_top" xlink:title=" ">
<polygon fill="white" stroke="black" points="152,-420 152,-450 282,-450 282,-420 152,-420"/>
<text text-anchor="start" x="160" y="-438" font-family="Helvetica,sans-Serif" font-size="10.00">rare.shared.rare_core.Rare</text>
<text text-anchor="middle" x="217" y="-427" font-family="Helvetica,sans-Serif" font-size="10.00">Core.args</text>
</a>
</g>
</g>
<!-- Node1&#45;&gt;Node11 -->
<g id="edge10" class="edge">
<title>Node1&#45;&gt;Node11</title>
<path fill="none" stroke="midnightblue" d="M54.81,-525.39C69.62,-514.48 94.93,-496.45 118,-483 135.54,-472.78 155.57,-462.7 172.92,-454.44"/>
<polygon fill="midnightblue" stroke="midnightblue" points="174.7,-457.47 182.26,-450.05 171.72,-451.14 174.7,-457.47"/>
</g>
<!-- Node12 -->
<g id="node12" class="node">
<title>Node12</title>
<g id="a_node12"><a xlink:href="classrare_1_1shared_1_1rare__core_1_1_rare_core.html#a405e1a4f20f16120f872ccd2654a1d56" target="_top" xlink:title=" ">
<polygon fill="white" stroke="black" points="152,-353 152,-383 282,-383 282,-353 152,-353"/>
<text text-anchor="start" x="160" y="-371" font-family="Helvetica,sans-Serif" font-size="10.00">rare.shared.rare_core.Rare</text>
<text text-anchor="middle" x="217" y="-360" font-family="Helvetica,sans-Serif" font-size="10.00">Core.core</text>
</a>
</g>
</g>
<!-- Node1&#45;&gt;Node12 -->
<g id="edge12" class="edge">
<title>Node1&#45;&gt;Node12</title>
<path fill="none" stroke="midnightblue" d="M45.59,-525.25C54.46,-502.35 79.56,-444.52 118,-411 129.26,-401.18 143.12,-393.28 156.84,-387.07"/>
<polygon fill="midnightblue" stroke="midnightblue" points="158.45,-390.19 166.27,-383.04 155.7,-383.75 158.45,-390.19"/>
</g>
<!-- Node14 -->
<g id="node14" class="node">
<title>Node14</title>
<g id="a_node14"><a xlink:href="namespacerare_1_1utils_1_1paths.html#a6013706d2f5027e7d2979078186b11e5" target="_top" xlink:title="Creates a desktop or start menu shortcut link.">
<polygon fill="white" stroke="black" points="162.5,-286 162.5,-316 271.5,-316 271.5,-286 162.5,-286"/>
<text text-anchor="start" x="170.5" y="-304" font-family="Helvetica,sans-Serif" font-size="10.00">rare.utils.paths.create</text>
<text text-anchor="middle" x="217" y="-293" font-family="Helvetica,sans-Serif" font-size="10.00">_desktop_link</text>
</a>
</g>
</g>
<!-- Node1&#45;&gt;Node14 -->
<g id="edge16" class="edge">
<title>Node1&#45;&gt;Node14</title>
<path fill="none" stroke="midnightblue" d="M43.24,-525.27C47.65,-494.59 65.19,-398.68 118,-344 127.71,-333.94 140.18,-326.09 152.94,-320"/>
<polygon fill="midnightblue" stroke="midnightblue" points="154.53,-323.13 162.26,-315.88 151.7,-316.73 154.53,-323.13"/>
</g>
<!-- Node22 -->
<g id="node22" class="node">
<title>Node22</title>
<g id="a_node22"><a xlink:href="namespacerare_1_1utils_1_1paths.html#a328faa5a142700be21313b72953aab76" target="_top" xlink:title=" ">
<polygon fill="white" stroke="black" points="361.5,-132 361.5,-162 477.5,-162 477.5,-132 361.5,-132"/>
<text text-anchor="start" x="369.5" y="-150" font-family="Helvetica,sans-Serif" font-size="10.00">rare.utils.paths.desktop</text>
<text text-anchor="middle" x="419.5" y="-139" font-family="Helvetica,sans-Serif" font-size="10.00">_links_supported</text>
</a>
</g>
</g>
<!-- Node1&#45;&gt;Node22 -->
<g id="edge38" class="edge">
<title>Node1&#45;&gt;Node22</title>
<path fill="none" stroke="midnightblue" d="M41.59,-525.49C40.52,-487.65 41.92,-346.38 118,-277 184.27,-216.56 240.05,-285.71 316,-238 338.58,-223.81 332.5,-208.19 352,-190 360.86,-181.73 371.51,-174.06 381.66,-167.55"/>
<polygon fill="midnightblue" stroke="midnightblue" points="383.73,-170.38 390.4,-162.15 380.05,-164.43 383.73,-170.38"/>
</g>
<!-- Node25 -->
<g id="node25" class="node">
<title>Node25</title>
<g id="a_node25"><a xlink:href="namespacerare_1_1components_1_1tabs_1_1downloads.html#a8959f5451ccd1f3d58344ffe90257d7a" target="_top" xlink:title=" ">
<polygon fill="white" stroke="black" points="118,-191.5 118,-210.5 316,-210.5 316,-191.5 118,-191.5"/>
<text text-anchor="middle" x="217" y="-198.5" font-family="Helvetica,sans-Serif" font-size="10.00">rare.components.tabs.downloads.get_time</text>
</a>
</g>
</g>
<!-- Node1&#45;&gt;Node25 -->
<g id="edge39" class="edge">
<title>Node1&#45;&gt;Node25</title>
<path fill="none" stroke="midnightblue" d="M41.65,-525.31C40.71,-485.31 42.34,-330.97 118,-243 129.5,-229.63 146.02,-220.39 162.23,-214.06"/>
<polygon fill="midnightblue" stroke="midnightblue" points="163.46,-217.34 171.69,-210.66 161.1,-210.75 163.46,-217.34"/>
</g>
<!-- Node26 -->
<g id="node26" class="node">
<title>Node26</title>
<g id="a_node26"><a xlink:href="classrare_1_1shared_1_1workers_1_1worker_1_1_worker.html#a9998d928f5b6f30ebb69dc655c0756a8" target="_top" xlink:title=" ">
<polygon fill="white" stroke="black" points="149.5,-124 149.5,-154 284.5,-154 284.5,-124 149.5,-124"/>
<text text-anchor="start" x="157.5" y="-142" font-family="Helvetica,sans-Serif" font-size="10.00">rare.shared.workers.worker.</text>
<text text-anchor="middle" x="217" y="-131" font-family="Helvetica,sans-Serif" font-size="10.00">Worker.signals</text>
</a>
</g>
</g>
<!-- Node1&#45;&gt;Node26 -->
<g id="edge41" class="edge">
<title>Node1&#45;&gt;Node26</title>
<path fill="none" stroke="midnightblue" d="M42.91,-525.24C47.83,-474.11 72.8,-237.36 118,-182 126.07,-172.12 136.85,-164.45 148.32,-158.51"/>
<polygon fill="midnightblue" stroke="midnightblue" points="150.08,-161.55 157.63,-154.11 147.09,-155.22 150.08,-161.55"/>
</g>
<!-- Node27 -->
<g id="node27" class="node">
<title>Node27</title>
<g id="a_node27"><a xlink:href="classrare_1_1shared_1_1rare__core_1_1_rare_core.html#a135560fc58fcc2e5cff07ec25c23a06c" target="_top" xlink:title=" ">
<polygon fill="white" stroke="black" points="152,-57 152,-87 282,-87 282,-57 152,-57"/>
<text text-anchor="start" x="160" y="-75" font-family="Helvetica,sans-Serif" font-size="10.00">rare.shared.rare_core.Rare</text>
<text text-anchor="middle" x="217" y="-64" font-family="Helvetica,sans-Serif" font-size="10.00">Core.signals</text>
</a>
</g>
</g>
<!-- Node1&#45;&gt;Node27 -->
<g id="edge43" class="edge">
<title>Node1&#45;&gt;Node27</title>
<path fill="none" stroke="midnightblue" d="M42.53,-525.29C45.77,-468.65 64.69,-180.97 118,-114 125.52,-104.55 135.57,-97.19 146.37,-91.47"/>
<polygon fill="midnightblue" stroke="midnightblue" points="148.09,-94.53 155.59,-87.04 145.06,-88.22 148.09,-94.53"/>
</g>
<!-- Node28 -->
<g id="node28" class="node">
<title>Node28</title>
<g id="a_node28"><a xlink:href="namespacerare_1_1components.html#a019ee207f5c041fb0d2e61f76eafa958" target="_top" xlink:title=" ">
<polygon fill="white" stroke="black" points="162,-0.5 162,-19.5 272,-19.5 272,-0.5 162,-0.5"/>
<text text-anchor="middle" x="217" y="-7.5" font-family="Helvetica,sans-Serif" font-size="10.00">rare.components.start</text>
</a>
</g>
</g>
<!-- Node1&#45;&gt;Node28 -->
<g id="edge45" class="edge">
<title>Node1&#45;&gt;Node28</title>
<path fill="none" stroke="midnightblue" d="M42.22,-525.37C43.78,-463.72 55.16,-124.37 118,-47 126.86,-36.1 139.29,-28.4 152.34,-22.98"/>
<polygon fill="midnightblue" stroke="midnightblue" points="153.76,-26.18 161.91,-19.41 151.31,-19.62 153.76,-26.18"/>
</g>
<!-- Node29 -->
<g id="node29" class="node">
<title>Node29</title>
<g id="a_node29"><a xlink:href="classrare_1_1components_1_1tabs_1_1downloads_1_1_downloads_tab.html#a11794ca2c7c3add2ed90cd2edb79b927" target="_top" xlink:title=" ">
<polygon fill="white" stroke="black" points="161,-525.5 161,-544.5 273,-544.5 273,-525.5 161,-525.5"/>
<text text-anchor="middle" x="217" y="-532.5" font-family="Helvetica,sans-Serif" font-size="10.00">update_queues_count</text>
</a>
</g>
</g>
<!-- Node1&#45;&gt;Node29 -->
<g id="edge48" class="edge">
<title>Node1&#45;&gt;Node29</title>
<path fill="none" stroke="midnightblue" d="M82.36,-535C102.65,-535 127.74,-535 150.68,-535"/>
<polygon fill="midnightblue" stroke="midnightblue" points="150.71,-538.5 160.71,-535 150.71,-531.5 150.71,-538.5"/>
</g>
<!-- Node11&#45;&gt;Node11 -->
<g id="edge11" class="edge">
<title>Node11&#45;&gt;Node11</title>
<path fill="none" stroke="midnightblue" d="M186.33,-450.16C178.93,-459.56 189.16,-468.5 217,-468.5 233.97,-468.5 244.39,-465.18 248.27,-460.46"/>
<polygon fill="midnightblue" stroke="midnightblue" points="251.75,-459.94 247.67,-450.16 244.76,-460.35 251.75,-459.94"/>
</g>
<!-- Node12&#45;&gt;Node12 -->
<g id="edge13" class="edge">
<title>Node12&#45;&gt;Node12</title>
<path fill="none" stroke="midnightblue" d="M186.33,-383.16C178.93,-392.56 189.16,-401.5 217,-401.5 233.97,-401.5 244.39,-398.18 248.27,-393.46"/>
<polygon fill="midnightblue" stroke="midnightblue" points="251.75,-392.94 247.67,-383.16 244.76,-393.35 251.75,-392.94"/>
</g>
<!-- Node13 -->
<g id="node13" class="node">
<title>Node13</title>
<g id="a_node13"><a xlink:href="classrare_1_1shared_1_1workers_1_1worker_1_1_worker.html#a5d3220537164bdcd6c040b54ef85f656" target="_top" xlink:title=" ">
<polygon fill="white" stroke="black" points="352,-457 352,-487 487,-487 487,-457 352,-457"/>
<text text-anchor="start" x="360" y="-475" font-family="Helvetica,sans-Serif" font-size="10.00">rare.shared.workers.worker.</text>
<text text-anchor="middle" x="419.5" y="-464" font-family="Helvetica,sans-Serif" font-size="10.00">Worker.logger</text>
</a>
</g>
</g>
<!-- Node12&#45;&gt;Node13 -->
<g id="edge14" class="edge">
<title>Node12&#45;&gt;Node13</title>
<path fill="none" stroke="midnightblue" d="M261.86,-383.03C279.49,-390.13 299.51,-399.57 316,-411 334.85,-424.07 332.72,-435.57 352,-448 354.42,-449.56 356.95,-451.03 359.56,-452.43"/>
<polygon fill="midnightblue" stroke="midnightblue" points="358.12,-455.62 368.64,-456.85 361.18,-449.32 358.12,-455.62"/>
</g>
<!-- Node13&#45;&gt;Node13 -->
<g id="edge15" class="edge">
<title>Node13&#45;&gt;Node13</title>
<path fill="none" stroke="midnightblue" d="M388.48,-487.16C381,-496.56 391.34,-505.5 419.5,-505.5 436.66,-505.5 447.2,-502.18 451.13,-497.46"/>
<polygon fill="midnightblue" stroke="midnightblue" points="454.6,-496.94 450.52,-487.16 447.62,-497.35 454.6,-496.94"/>
</g>
<!-- Node14&#45;&gt;Node14 -->
<g id="edge17" class="edge">
<title>Node14&#45;&gt;Node14</title>
<path fill="none" stroke="midnightblue" d="M186.33,-316.16C178.93,-325.56 189.16,-334.5 217,-334.5 233.97,-334.5 244.39,-331.18 248.27,-326.46"/>
<polygon fill="midnightblue" stroke="midnightblue" points="251.75,-325.94 247.67,-316.16 244.76,-326.35 251.75,-325.94"/>
</g>
<!-- Node15 -->
<g id="node15" class="node">
<title>Node15</title>
<g id="a_node15"><a xlink:href="namespacerare_1_1utils_1_1paths.html#af4d56a3b4065900877c517e24bddc366" target="_top" xlink:title=" ">
<polygon fill="white" stroke="black" points="361.5,-390 361.5,-420 477.5,-420 477.5,-390 361.5,-390"/>
<text text-anchor="start" x="369.5" y="-408" font-family="Helvetica,sans-Serif" font-size="10.00">rare.utils.paths.desktop</text>
<text text-anchor="middle" x="419.5" y="-397" font-family="Helvetica,sans-Serif" font-size="10.00">_icon_path</text>
</a>
</g>
</g>
<!-- Node14&#45;&gt;Node15 -->
<g id="edge18" class="edge">
<title>Node14&#45;&gt;Node15</title>
<path fill="none" stroke="midnightblue" d="M261.86,-316.03C279.49,-323.13 299.51,-332.57 316,-344 334.85,-357.07 332.72,-368.57 352,-381 354.42,-382.56 356.95,-384.03 359.56,-385.43"/>
<polygon fill="midnightblue" stroke="midnightblue" points="358.12,-388.62 368.64,-389.85 361.18,-382.32 358.12,-388.62"/>
</g>
<!-- Node21 -->
<g id="node21" class="node">
<title>Node21</title>
<g id="a_node21"><a xlink:href="namespacerare_1_1utils_1_1paths.html#ac2e6ac6baa5376d3ea5aa8b63e2af2bd" target="_top" xlink:title="Creates the path of a shortcut link.">
<polygon fill="white" stroke="black" points="361.5,-323 361.5,-353 477.5,-353 477.5,-323 361.5,-323"/>
<text text-anchor="start" x="369.5" y="-341" font-family="Helvetica,sans-Serif" font-size="10.00">rare.utils.paths.desktop</text>
<text text-anchor="middle" x="419.5" y="-330" font-family="Helvetica,sans-Serif" font-size="10.00">_link_path</text>
</a>
</g>
</g>
<!-- Node14&#45;&gt;Node21 -->
<g id="edge30" class="edge">
<title>Node14&#45;&gt;Node21</title>
<path fill="none" stroke="midnightblue" d="M271.73,-310.92C296.2,-315.43 325.43,-320.83 351.34,-325.61"/>
<polygon fill="midnightblue" stroke="midnightblue" points="350.99,-329.1 361.46,-327.47 352.26,-322.22 350.99,-329.1"/>
</g>
<!-- Node14&#45;&gt;Node22 -->
<g id="edge32" class="edge">
<title>Node14&#45;&gt;Node22</title>
<path fill="none" stroke="midnightblue" d="M271.53,-293.34C287.29,-288.93 303.61,-281.97 316,-271 345.49,-244.88 326.4,-219.94 352,-190 359.39,-181.36 368.94,-173.82 378.49,-167.56"/>
<polygon fill="midnightblue" stroke="midnightblue" points="380.53,-170.42 387.2,-162.18 376.85,-164.46 380.53,-170.42"/>
</g>
<!-- Node23 -->
<g id="node23" class="node">
<title>Node23</title>
<g id="a_node23"><a xlink:href="namespacerare_1_1utils_1_1paths.html#a5aae2af81c71e81b5a7ce0c16db5ba19" target="_top" xlink:title=" ">
<polygon fill="white" stroke="black" points="372,-256 372,-286 467,-286 467,-256 372,-256"/>
<text text-anchor="start" x="380" y="-274" font-family="Helvetica,sans-Serif" font-size="10.00">rare.utils.paths.get</text>
<text text-anchor="middle" x="419.5" y="-263" font-family="Helvetica,sans-Serif" font-size="10.00">_rare_executable</text>
</a>
</g>
</g>
<!-- Node14&#45;&gt;Node23 -->
<g id="edge34" class="edge">
<title>Node14&#45;&gt;Node23</title>
<path fill="none" stroke="midnightblue" d="M271.73,-292.96C299.52,-288.8 333.44,-283.73 361.67,-279.5"/>
<polygon fill="midnightblue" stroke="midnightblue" points="362.41,-282.93 371.79,-277.99 361.38,-276.01 362.41,-282.93"/>
</g>
<!-- Node24 -->
<g id="node24" class="node">
<title>Node24</title>
<g id="a_node24"><a xlink:href="namespacerare_1_1utils_1_1paths.html#a71f5a7ae998e88f396ed58bb5ec6c67b" target="_top" xlink:title=" ">
<polygon fill="white" stroke="black" points="358.5,-199.5 358.5,-218.5 480.5,-218.5 480.5,-199.5 358.5,-199.5"/>
<text text-anchor="middle" x="419.5" y="-206.5" font-family="Helvetica,sans-Serif" font-size="10.00">rare.utils.paths.home_dir</text>
</a>
</g>
</g>
<!-- Node14&#45;&gt;Node24 -->
<g id="edge36" class="edge">
<title>Node14&#45;&gt;Node24</title>
<path fill="none" stroke="midnightblue" d="M271.53,-287.88C286.3,-283.39 302.07,-277.76 316,-271 333.52,-262.49 335.47,-256.3 352,-246 364.69,-238.09 379.15,-229.95 391.34,-223.32"/>
<polygon fill="midnightblue" stroke="midnightblue" points="393.01,-226.4 400.16,-218.57 389.69,-220.23 393.01,-226.4"/>
</g>
<!-- Node15&#45;&gt;Node15 -->
<g id="edge23" class="edge">
<title>Node15&#45;&gt;Node15</title>
<path fill="none" stroke="midnightblue" d="M388.48,-420.16C381,-429.56 391.34,-438.5 419.5,-438.5 436.66,-438.5 447.2,-435.18 451.13,-430.46"/>
<polygon fill="midnightblue" stroke="midnightblue" points="454.6,-429.94 450.52,-420.16 447.62,-430.35 454.6,-429.94"/>
</g>
<!-- Node16 -->
<g id="node16" class="node">
<title>Node16</title>
<g id="a_node16"><a xlink:href="namespacerare_1_1utils_1_1paths.html#a929db13896ab79cbbe77bc82ad2698fc" target="_top" xlink:title=" ">
<polygon fill="white" stroke="black" points="523,-449.5 523,-468.5 672,-468.5 672,-449.5 523,-449.5"/>
<text text-anchor="middle" x="597.5" y="-456.5" font-family="Helvetica,sans-Serif" font-size="10.00">rare.utils.paths.applications_dir</text>
</a>
</g>
</g>
<!-- Node15&#45;&gt;Node16 -->
<g id="edge19" class="edge">
<title>Node15&#45;&gt;Node16</title>
<path fill="none" stroke="midnightblue" d="M462.16,-420.03C480.68,-426.5 502.83,-433.96 523,-440 530.9,-442.37 539.33,-444.71 547.55,-446.9"/>
<polygon fill="midnightblue" stroke="midnightblue" points="546.88,-450.34 557.44,-449.49 548.65,-443.57 546.88,-450.34"/>
</g>
<!-- Node17 -->
<g id="node17" class="node">
<title>Node17</title>
<g id="a_node17"><a xlink:href="namespacerare_1_1utils_1_1paths.html#a68fd6933dc93b4140e22a3fb1380354f" target="_top" xlink:title=" ">
<polygon fill="white" stroke="black" points="531.5,-393.5 531.5,-412.5 663.5,-412.5 663.5,-393.5 531.5,-393.5"/>
<text text-anchor="middle" x="597.5" y="-400.5" font-family="Helvetica,sans-Serif" font-size="10.00">rare.utils.paths.desktop_dir</text>
</a>
</g>
</g>
<!-- Node15&#45;&gt;Node17 -->
<g id="edge21" class="edge">
<title>Node15&#45;&gt;Node17</title>
<path fill="none" stroke="midnightblue" d="M477.64,-404.35C491.59,-404.19 506.72,-404.02 521.36,-403.85"/>
<polygon fill="midnightblue" stroke="midnightblue" points="521.44,-407.35 531.4,-403.74 521.36,-400.35 521.44,-407.35"/>
</g>
<!-- Node18 -->
<g id="node18" class="node">
<title>Node18</title>
<g id="a_node18"><a xlink:href="namespacerare_1_1utils_1_1paths.html#a26cca1020569c6b5f07f09723c3607b9" target="_top" xlink:title=" ">
<polygon fill="white" stroke="black" points="543.5,-326 543.5,-356 651.5,-356 651.5,-326 543.5,-326"/>
<text text-anchor="start" x="551.5" y="-344" font-family="Helvetica,sans-Serif" font-size="10.00">rare.utils.paths.image</text>
<text text-anchor="middle" x="597.5" y="-333" font-family="Helvetica,sans-Serif" font-size="10.00">_dir_game</text>
</a>
</g>
</g>
<!-- Node15&#45;&gt;Node18 -->
<g id="edge24" class="edge">
<title>Node15&#45;&gt;Node18</title>
<path fill="none" stroke="midnightblue" d="M462.37,-389.92C470.54,-386.97 479.04,-383.89 487,-381 506.28,-374 527.45,-366.27 546,-359.49"/>
<polygon fill="midnightblue" stroke="midnightblue" points="547.25,-362.77 555.44,-356.04 544.84,-356.19 547.25,-362.77"/>
</g>
<!-- Node16&#45;&gt;Node16 -->
<g id="edge20" class="edge">
<title>Node16&#45;&gt;Node16</title>
<path fill="none" stroke="midnightblue" d="M570.99,-468.76C558.09,-477.57 566.93,-487 597.5,-487 618.04,-487 628.77,-482.74 629.69,-477.27"/>
<polygon fill="midnightblue" stroke="midnightblue" points="632.47,-475.14 624.01,-468.76 626.64,-479.02 632.47,-475.14"/>
</g>
<!-- Node17&#45;&gt;Node17 -->
<g id="edge22" class="edge">
<title>Node17&#45;&gt;Node17</title>
<path fill="none" stroke="midnightblue" d="M570.99,-412.76C558.09,-421.57 566.93,-431 597.5,-431 618.04,-431 628.77,-426.74 629.69,-421.27"/>
<polygon fill="midnightblue" stroke="midnightblue" points="632.47,-419.14 624.01,-412.76 626.64,-423.02 632.47,-419.14"/>
</g>
<!-- Node18&#45;&gt;Node18 -->
<g id="edge29" class="edge">
<title>Node18&#45;&gt;Node18</title>
<path fill="none" stroke="midnightblue" d="M567.53,-356.16C560.3,-365.56 570.29,-374.5 597.5,-374.5 614.08,-374.5 624.27,-371.18 628.06,-366.46"/>
<polygon fill="midnightblue" stroke="midnightblue" points="631.54,-365.94 627.47,-356.16 624.55,-366.34 631.54,-365.94"/>
</g>
<!-- Node19 -->
<g id="node19" class="node">
<title>Node19</title>
<g id="a_node19"><a xlink:href="namespacerare_1_1utils_1_1paths.html#ada300860b11ac604daaa4afc32f76fb7" target="_top" xlink:title=" ">
<polygon fill="white" stroke="black" points="708,-331.5 708,-350.5 832,-350.5 832,-331.5 708,-331.5"/>
<text text-anchor="middle" x="770" y="-338.5" font-family="Helvetica,sans-Serif" font-size="10.00">rare.utils.paths.image_dir</text>
</a>
</g>
</g>
<!-- Node18&#45;&gt;Node19 -->
<g id="edge25" class="edge">
<title>Node18&#45;&gt;Node19</title>
<path fill="none" stroke="midnightblue" d="M651.51,-341C666.19,-341 682.36,-341 697.88,-341"/>
<polygon fill="midnightblue" stroke="midnightblue" points="697.97,-344.5 707.97,-341 697.97,-337.5 697.97,-344.5"/>
</g>
<!-- Node19&#45;&gt;Node19 -->
<g id="edge28" class="edge">
<title>Node19&#45;&gt;Node19</title>
<path fill="none" stroke="midnightblue" d="M745.96,-350.76C734.26,-359.57 742.27,-369 770,-369 788.2,-369 797.9,-364.94 799.12,-359.65"/>
<polygon fill="midnightblue" stroke="midnightblue" points="802.04,-357.71 794.04,-350.76 795.96,-361.18 802.04,-357.71"/>
</g>
<!-- Node20 -->
<g id="node20" class="node">
<title>Node20</title>
<g id="a_node20"><a xlink:href="namespacerare_1_1utils_1_1paths.html#aa160c55be4d6aad43da3d35e8a1dc97b" target="_top" xlink:title=" ">
<polygon fill="white" stroke="black" points="868,-331.5 868,-350.5 984,-350.5 984,-331.5 868,-331.5"/>
<text text-anchor="middle" x="926" y="-338.5" font-family="Helvetica,sans-Serif" font-size="10.00">rare.utils.paths.data_dir</text>
</a>
</g>
</g>
<!-- Node19&#45;&gt;Node20 -->
<g id="edge26" class="edge">
<title>Node19&#45;&gt;Node20</title>
<path fill="none" stroke="midnightblue" d="M832.31,-341C840.66,-341 849.26,-341 857.71,-341"/>
<polygon fill="midnightblue" stroke="midnightblue" points="857.91,-344.5 867.91,-341 857.91,-337.5 857.91,-344.5"/>
</g>
<!-- Node20&#45;&gt;Node20 -->
<g id="edge27" class="edge">
<title>Node20&#45;&gt;Node20</title>
<path fill="none" stroke="midnightblue" d="M901.96,-350.76C890.26,-359.57 898.27,-369 926,-369 944.2,-369 953.9,-364.94 955.12,-359.65"/>
<polygon fill="midnightblue" stroke="midnightblue" points="958.04,-357.71 950.04,-350.76 951.96,-361.18 958.04,-357.71"/>
</g>
<!-- Node21&#45;&gt;Node21 -->
<g id="edge31" class="edge">
<title>Node21&#45;&gt;Node21</title>
<path fill="none" stroke="midnightblue" d="M388.48,-353.16C381,-362.56 391.34,-371.5 419.5,-371.5 436.66,-371.5 447.2,-368.18 451.13,-363.46"/>
<polygon fill="midnightblue" stroke="midnightblue" points="454.6,-362.94 450.52,-353.16 447.62,-363.35 454.6,-362.94"/>
</g>
<!-- Node22&#45;&gt;Node22 -->
<g id="edge33" class="edge">
<title>Node22&#45;&gt;Node22</title>
<path fill="none" stroke="midnightblue" d="M388.48,-162.16C381,-171.56 391.34,-180.5 419.5,-180.5 436.66,-180.5 447.2,-177.18 451.13,-172.46"/>
<polygon fill="midnightblue" stroke="midnightblue" points="454.6,-171.94 450.52,-162.16 447.62,-172.35 454.6,-171.94"/>
</g>
<!-- Node23&#45;&gt;Node23 -->
<g id="edge35" class="edge">
<title>Node23&#45;&gt;Node23</title>
<path fill="none" stroke="midnightblue" d="M388.48,-286.16C381,-295.56 391.34,-304.5 419.5,-304.5 436.66,-304.5 447.2,-301.18 451.13,-296.46"/>
<polygon fill="midnightblue" stroke="midnightblue" points="454.6,-295.94 450.52,-286.16 447.62,-296.35 454.6,-295.94"/>
</g>
<!-- Node24&#45;&gt;Node24 -->
<g id="edge37" class="edge">
<title>Node24&#45;&gt;Node24</title>
<path fill="none" stroke="midnightblue" d="M392.07,-218.76C378.72,-227.57 387.86,-237 419.5,-237 441.25,-237 452.37,-232.54 452.86,-226.89"/>
<polygon fill="midnightblue" stroke="midnightblue" points="455.65,-224.78 446.93,-218.76 449.99,-228.9 455.65,-224.78"/>
</g>
<!-- Node25&#45;&gt;Node25 -->
<g id="edge40" class="edge">
<title>Node25&#45;&gt;Node25</title>
<path fill="none" stroke="midnightblue" d="M189.87,-210.76C176.68,-219.57 185.72,-229 217,-229 238.51,-229 249.5,-224.54 249.98,-218.89"/>
<polygon fill="midnightblue" stroke="midnightblue" points="252.81,-216.83 244.13,-210.76 247.13,-220.92 252.81,-216.83"/>
</g>
<!-- Node26&#45;&gt;Node26 -->
<g id="edge42" class="edge">
<title>Node26&#45;&gt;Node26</title>
<path fill="none" stroke="midnightblue" d="M186.33,-154.16C178.93,-163.56 189.16,-172.5 217,-172.5 233.97,-172.5 244.39,-169.18 248.27,-164.46"/>
<polygon fill="midnightblue" stroke="midnightblue" points="251.75,-163.94 247.67,-154.16 244.76,-164.35 251.75,-163.94"/>
</g>
<!-- Node27&#45;&gt;Node27 -->
<g id="edge44" class="edge">
<title>Node27&#45;&gt;Node27</title>
<path fill="none" stroke="midnightblue" d="M186.33,-87.16C178.93,-96.56 189.16,-105.5 217,-105.5 233.97,-105.5 244.39,-102.18 248.27,-97.46"/>
<polygon fill="midnightblue" stroke="midnightblue" points="251.75,-96.94 247.67,-87.16 244.76,-97.35 251.75,-96.94"/>
</g>
<!-- Node28&#45;&gt;Node28 -->
<g id="edge46" class="edge">
<title>Node28&#45;&gt;Node28</title>
<path fill="none" stroke="midnightblue" d="M189.87,-19.76C176.68,-28.57 185.72,-38 217,-38 238.51,-38 249.5,-33.54 249.98,-27.89"/>
<polygon fill="midnightblue" stroke="midnightblue" points="252.81,-25.83 244.13,-19.76 247.13,-29.92 252.81,-25.83"/>
</g>
<!-- Node29&#45;&gt;Node29 -->
<g id="edge56" class="edge">
<title>Node29&#45;&gt;Node29</title>
<path fill="none" stroke="midnightblue" d="M189.87,-544.76C176.68,-553.57 185.72,-563 217,-563 238.51,-563 249.5,-558.54 249.98,-552.89"/>
<polygon fill="midnightblue" stroke="midnightblue" points="252.81,-550.83 244.13,-544.76 247.13,-554.92 252.81,-550.83"/>
</g>
<!-- Node30 -->
<g id="node30" class="node">
<title>Node30</title>
<g id="a_node30"><a xlink:href="classrare_1_1components_1_1tabs_1_1downloads_1_1_downloads_tab.html#a91ee81dee5df73fb4e3057d7c12624e0" target="_top" xlink:title=" ">
<polygon fill="white" stroke="black" points="368.5,-525.5 368.5,-544.5 470.5,-544.5 470.5,-525.5 368.5,-525.5"/>
<text text-anchor="middle" x="419.5" y="-532.5" font-family="Helvetica,sans-Serif" font-size="10.00">is_download_active</text>
</a>
</g>
</g>
<!-- Node29&#45;&gt;Node30 -->
<g id="edge49" class="edge">
<title>Node29&#45;&gt;Node30</title>
<path fill="none" stroke="midnightblue" d="M273.05,-528.9C299.47,-528.09 331.19,-528.04 358.25,-528.75"/>
<polygon fill="midnightblue" stroke="midnightblue" points="358.27,-532.25 368.37,-529.06 358.49,-525.26 358.27,-532.25"/>
</g>
<!-- Node30&#45;&gt;Node1 -->
<g id="edge54" class="edge">
<title>Node30&#45;&gt;Node1</title>
<path fill="none" stroke="midnightblue" d="M376.85,-525.49C358.33,-521.72 336.19,-517.86 316,-516 228.37,-507.95 205.34,-505.25 118,-516 106.31,-517.44 93.83,-520.08 82.43,-522.94"/>
<polygon fill="midnightblue" stroke="midnightblue" points="81.52,-519.56 72.74,-525.49 83.3,-526.33 81.52,-519.56"/>
</g>
<!-- Node30&#45;&gt;Node10 -->
<g id="edge52" class="edge">
<title>Node30&#45;&gt;Node10</title>
<path fill="none" stroke="midnightblue" d="M445.14,-544.63C465.76,-552.51 496.07,-563.68 523,-572 530.7,-574.38 538.91,-576.71 546.96,-578.87"/>
<polygon fill="midnightblue" stroke="midnightblue" points="546.08,-582.26 556.64,-581.42 547.86,-575.49 546.08,-582.26"/>
</g>
<!-- Node30&#45;&gt;Node29 -->
<g id="edge55" class="edge">
<title>Node30&#45;&gt;Node29</title>
<path fill="none" stroke="midnightblue" d="M368.37,-540.94C342.55,-541.85 310.75,-541.99 283.05,-541.37"/>
<polygon fill="midnightblue" stroke="midnightblue" points="283.14,-537.87 273.05,-541.1 282.96,-544.86 283.14,-537.87"/>
</g>
<!-- Node30&#45;&gt;Node30 -->
<g id="edge53" class="edge">
<title>Node30&#45;&gt;Node30</title>
<path fill="none" stroke="midnightblue" d="M392.07,-544.76C378.72,-553.57 387.86,-563 419.5,-563 441.25,-563 452.37,-558.54 452.86,-552.89"/>
<polygon fill="midnightblue" stroke="midnightblue" points="455.65,-550.78 446.93,-544.76 449.99,-554.9 455.65,-550.78"/>
</g>
<!-- Node31 -->
<g id="node31" class="node">
<title>Node31</title>
<g id="a_node31"><a xlink:href="classrare_1_1components_1_1tabs_1_1downloads_1_1_downloads_tab.html#a931935b52d12b9df6a8ae07501a97d92" target="_top" xlink:title=" ">
<polygon fill="white" stroke="black" points="559,-543.5 559,-562.5 636,-562.5 636,-543.5 559,-543.5"/>
<text text-anchor="middle" x="597.5" y="-550.5" font-family="Helvetica,sans-Serif" font-size="10.00">__add_update</text>
</a>
</g>
</g>
<!-- Node30&#45;&gt;Node31 -->
<g id="edge50" class="edge">
<title>Node30&#45;&gt;Node31</title>
<path fill="none" stroke="midnightblue" d="M470.93,-540.16C495.47,-542.67 524.79,-545.67 548.93,-548.13"/>
<polygon fill="midnightblue" stroke="midnightblue" points="548.62,-551.62 558.93,-549.16 549.34,-544.66 548.62,-551.62"/>
</g>
<!-- Node32 -->
<g id="node32" class="node">
<title>Node32</title>
<g id="a_node32"><a xlink:href="classrare_1_1components_1_1tabs_1_1downloads_1_1_downloads_tab.html#a7a75dfd263a4034413d91a6204e0c286" target="_top" xlink:title=" ">
<polygon fill="white" stroke="black" points="543.5,-505.5 543.5,-524.5 651.5,-524.5 651.5,-505.5 543.5,-505.5"/>
<text text-anchor="middle" x="597.5" y="-512.5" font-family="Helvetica,sans-Serif" font-size="10.00">__get_install_options</text>
</a>
</g>
</g>
<!-- Node30&#45;&gt;Node32 -->
<g id="edge51" class="edge">
<title>Node30&#45;&gt;Node32</title>
<path fill="none" stroke="midnightblue" d="M470.93,-529.27C490.31,-527.07 512.68,-524.52 533.12,-522.2"/>
<polygon fill="midnightblue" stroke="midnightblue" points="533.76,-525.65 543.3,-521.05 532.96,-518.7 533.76,-525.65"/>
</g>
</g>
</svg>
        <g id="navigator" transform="translate(0 0)" fill="#404254">
                <rect fill="#f2f5e9" fill-opacity="0.5" stroke="#606060" stroke-width=".5" x="0" y="0" width="60" height="60"/>
                <use id="zoomplus" xlink:href="#zoomPlus" x="17" y="9" onmousedown="handleZoom(evt,'in')"/>
                <use id="zoomminus" xlink:href="#zoomMin" x="42" y="9" onmousedown="handleZoom(evt,'out')"/>
                <use id="reset" xlink:href="#resetDef" x="30" y="36" onmousedown="handleReset()"/>
                <g id="arrowUp" xlink:href="#dirArrow" transform="translate(30 24)" onmousedown="handlePan(0,-1)">
                  <use xlink:href="#rim" fill="#404040">
                        <set attributeName="fill" to="#808080" begin="arrowUp.mouseover" end="arrowUp.mouseout"/>
                  </use>
                  <path fill="none" stroke="white" stroke-width="1.5" d="M0,-3.0v7 M-2.5,-0.5L0,-3.0L2.5,-0.5"/>
                </g>
                <g id="arrowRight" xlink:href="#dirArrow" transform="rotate(90) translate(36 -43)" onmousedown="handlePan(1,0)">
                  <use xlink:href="#rim" fill="#404040">
                        <set attributeName="fill" to="#808080" begin="arrowRight.mouseover" end="arrowRight.mouseout"/>
                  </use>
                  <path fill="none" stroke="white" stroke-width="1.5" d="M0,-3.0v7 M-2.5,-0.5L0,-3.0L2.5,-0.5"/>
                </g>
                <g id="arrowDown" xlink:href="#dirArrow" transform="rotate(180) translate(-30 -48)" onmousedown="handlePan(0,1)">
                  <use xlink:href="#rim" fill="#404040">
                        <set attributeName="fill" to="#808080" begin="arrowDown.mouseover" end="arrowDown.mouseout"/>
                  </use>
                  <path fill="none" stroke="white" stroke-width="1.5" d="M0,-3.0v7 M-2.5,-0.5L0,-3.0L2.5,-0.5"/>
                </g>
                <g id="arrowLeft" xlink:href="#dirArrow" transform="rotate(270) translate(-36 17)" onmousedown="handlePan(-1,0)">
                  <use xlink:href="#rim" fill="#404040">
                        <set attributeName="fill" to="#808080" begin="arrowLeft.mouseover" end="arrowLeft.mouseout"/>
                  </use>
                  <path fill="none" stroke="white" stroke-width="1.5" d="M0,-3.0v7 M-2.5,-0.5L0,-3.0L2.5,-0.5"/>
                </g>
        </g>
        <svg viewBox="0 0 15 15" width="100%" height="30px" preserveAspectRatio="xMaxYMin meet">
         <g id="arrow_out" transform="scale(0.3 0.3)">
          <a xlink:href="classrare_1_1components_1_1tabs_1_1downloads_1_1_downloads_tab_ad688e83ab96ce32b1ed9e5ccc83d0ee8_cgraph_org.svg" target="_base">
           <rect id="button" ry="5" rx="5" y="6" x="6" height="38" width="38"
                fill="#f2f5e9" fill-opacity="0.5" stroke="#606060" stroke-width="1.0"/>
           <path id="arrow"
             d="M 11.500037,31.436501 C 11.940474,20.09759 22.043105,11.32322 32.158766,21.979434 L 37.068811,17.246167 C 37.068811,17.246167 37.088388,32 37.088388,32 L 22.160133,31.978069 C 22.160133,31.978069 26.997745,27.140456 26.997745,27.140456 C 18.528582,18.264221 13.291696,25.230495 11.500037,31.436501 z"
             style="fill:#404040;"/>
          </a>
         </g>
        </svg>
</svg>
