<?xml version="1.0" encoding="UTF-8" standalone="no"?>
<!DOCTYPE svg PUBLIC "-//W3C//DTD SVG 1.1//EN"
 "http://www.w3.org/Graphics/SVG/1.1/DTD/svg11.dtd">
<!-- Generated by graphviz version 2.49.3 (20211027.1534)
 -->
<!-- Title: available_paths Pages: 1 -->
<svg width="419pt" height="57pt"
 viewBox="0.00 0.00 419.00 57.00" xmlns="http://www.w3.org/2000/svg" xmlns:xlink="http://www.w3.org/1999/xlink">
<g id="graph0" class="graph" transform="scale(1 1) rotate(0) translate(4 53)">
<title>available_paths</title>
<polygon fill="white" stroke="transparent" points="-4,4 -4,-53 415,-53 415,4 -4,4"/>
<!-- Node1 -->
<g id="node1" class="node">
<title>Node1</title>
<g id="a_node1"><a xlink:title=" ">
<polygon fill="#bfbfbf" stroke="black" points="327,-6 327,-25 411,-25 411,-6 327,-6"/>
<text text-anchor="middle" x="369" y="-13" font-family="Helvetica,sans-Serif" font-size="10.00">available_paths</text>
</a>
</g>
</g>
<!-- Node1&#45;&gt;Node1 -->
<g id="edge1" class="edge">
<title>Node1&#45;&gt;Node1</title>
<path fill="none" stroke="midnightblue" d="M387.52,-34.9C386.28,-39.81 380.11,-43.5 369,-43.5 351.23,-43.5 346.09,-34.07 353.59,-25.26"/>
<polygon fill="midnightblue" stroke="midnightblue" points="390.81,-33.7 384.41,-25.26 384.15,-35.85 390.81,-33.7"/>
</g>
<!-- Node2 -->
<g id="node2" class="node">
<title>Node2</title>
<g id="a_node2"><a xlink:href="classrare_1_1models_1_1game_1_1_rare_eos_overlay.html#a490161fe09206c763886fa3a9528a8b5" target="_top" xlink:title=" ">
<polygon fill="white" stroke="black" points="246,-6 246,-25 291,-25 291,-6 246,-6"/>
<text text-anchor="middle" x="268.5" y="-13" font-family="Helvetica,sans-Serif" font-size="10.00">enable</text>
</a>
</g>
</g>
<!-- Node1&#45;&gt;Node2 -->
<g id="edge2" class="edge">
<title>Node1&#45;&gt;Node2</title>
<path fill="none" stroke="midnightblue" d="M316.68,-15.5C307.69,-15.5 298.79,-15.5 291.19,-15.5"/>
<polygon fill="midnightblue" stroke="midnightblue" points="316.8,-19 326.8,-15.5 316.8,-12 316.8,-19"/>
</g>
<!-- Node2&#45;&gt;Node2 -->
<g id="edge3" class="edge">
<title>Node2&#45;&gt;Node2</title>
<path fill="none" stroke="midnightblue" d="M287.02,-34.9C285.78,-39.81 279.61,-43.5 268.5,-43.5 250.73,-43.5 245.59,-34.07 253.09,-25.26"/>
<polygon fill="midnightblue" stroke="midnightblue" points="290.31,-33.7 283.91,-25.26 283.65,-35.85 290.31,-33.7"/>
</g>
<!-- Node3 -->
<g id="node3" class="node">
<title>Node3</title>
<g id="a_node3"><a xlink:href="classrare_1_1ui_1_1components_1_1tabs_1_1settings_1_1widgets_1_1rpc_1_1_ui___r_p_c_settings.html#a0b3cd97952a6c2547871997da9f33efe" target="_top" xlink:title=" ">
<polygon fill="white" stroke="black" points="0,-0.5 0,-30.5 210,-30.5 210,-0.5 0,-0.5"/>
<text text-anchor="start" x="8" y="-18.5" font-family="Helvetica,sans-Serif" font-size="10.00">rare.ui.components.tabs.settings.widgets.rpc.</text>
<text text-anchor="middle" x="105" y="-7.5" font-family="Helvetica,sans-Serif" font-size="10.00">Ui_RPCSettings.retranslateUi</text>
</a>
</g>
</g>
<!-- Node2&#45;&gt;Node3 -->
<g id="edge4" class="edge">
<title>Node2&#45;&gt;Node3</title>
<path fill="none" stroke="midnightblue" d="M235.55,-15.5C227.88,-15.5 219.27,-15.5 210.23,-15.5"/>
<polygon fill="midnightblue" stroke="midnightblue" points="235.72,-19 245.72,-15.5 235.72,-12 235.72,-19"/>
</g>
<!-- Node3&#45;&gt;Node3 -->
<g id="edge5" class="edge">
<title>Node3&#45;&gt;Node3</title>
<path fill="none" stroke="midnightblue" d="M133.79,-40.96C130.21,-45.68 120.62,-49 105,-49 79.37,-49 69.96,-40.06 76.77,-30.66"/>
<polygon fill="midnightblue" stroke="midnightblue" points="137.26,-40.46 133.23,-30.66 130.27,-40.83 137.26,-40.46"/>
</g>
</g>
</svg>
