<?xml version="1.0" encoding="UTF-8" standalone="no"?>
<!DOCTYPE svg PUBLIC "-//W3C//DTD SVG 1.1//EN"
 "http://www.w3.org/Graphics/SVG/1.1/DTD/svg11.dtd">
<!-- Generated by graphviz version 2.49.3 (20211027.1534)
 -->
<!-- Title: InstallDialog Pages: 1 -->
<svg width="193pt" height="606pt"
 viewBox="0.00 0.00 192.50 606.00" xmlns="http://www.w3.org/2000/svg" xmlns:xlink="http://www.w3.org/1999/xlink">
<g id="graph0" class="graph" transform="scale(1 1) rotate(0) translate(4 602)">
<title>InstallDialog</title>
<polygon fill="white" stroke="transparent" points="-4,4 -4,-602 188.5,-602 188.5,4 -4,4"/>
<!-- Node1 -->
<g id="node1" class="node">
<title>Node1</title>
<g id="a_node1"><a xlink:title=" ">
<polygon fill="#bfbfbf" stroke="black" points="0,-0.5 0,-288.5 152,-288.5 152,-0.5 0,-0.5"/>
<text text-anchor="middle" x="76" y="-276.5" font-family="Helvetica,sans-Serif" font-size="10.00">InstallDialog</text>
<polyline fill="none" stroke="black" points="0,-269.5 152,-269.5 "/>
<text text-anchor="start" x="8" y="-257.5" font-family="Helvetica,sans-Serif" font-size="10.00">+ core</text>
<text text-anchor="start" x="8" y="-246.5" font-family="Helvetica,sans-Serif" font-size="10.00">+ api_results</text>
<text text-anchor="start" x="8" y="-235.5" font-family="Helvetica,sans-Serif" font-size="10.00">+ dl_item</text>
<text text-anchor="start" x="8" y="-224.5" font-family="Helvetica,sans-Serif" font-size="10.00">+ app_name</text>
<text text-anchor="start" x="8" y="-213.5" font-family="Helvetica,sans-Serif" font-size="10.00">+ game</text>
<text text-anchor="start" x="8" y="-202.5" font-family="Helvetica,sans-Serif" font-size="10.00">+ advanced_widget</text>
<text text-anchor="start" x="8" y="-191.5" font-family="Helvetica,sans-Serif" font-size="10.00">+ game_path</text>
<text text-anchor="start" x="8" y="-180.5" font-family="Helvetica,sans-Serif" font-size="10.00">+ update</text>
<text text-anchor="start" x="8" y="-169.5" font-family="Helvetica,sans-Serif" font-size="10.00">+ repair</text>
<text text-anchor="start" x="8" y="-158.5" font-family="Helvetica,sans-Serif" font-size="10.00">+ silent</text>
<text text-anchor="start" x="8" y="-147.5" font-family="Helvetica,sans-Serif" font-size="10.00">and 6 more...</text>
<text text-anchor="start" x="8" y="-136.5" font-family="Helvetica,sans-Serif" font-size="10.00">+ result_ready</text>
<polyline fill="none" stroke="black" points="0,-129.5 152,-129.5 "/>
<text text-anchor="start" x="8" y="-117.5" font-family="Helvetica,sans-Serif" font-size="10.00">+ __init__()</text>
<text text-anchor="start" x="8" y="-106.5" font-family="Helvetica,sans-Serif" font-size="10.00">+ execute()</text>
<text text-anchor="start" x="8" y="-95.5" font-family="Helvetica,sans-Serif" font-size="10.00">+ setup_sdl_list()</text>
<text text-anchor="start" x="8" y="-84.5" font-family="Helvetica,sans-Serif" font-size="10.00">+ get_options()</text>
<text text-anchor="start" x="8" y="-73.5" font-family="Helvetica,sans-Serif" font-size="10.00">+ get_download_info()</text>
<text text-anchor="start" x="8" y="-62.5" font-family="Helvetica,sans-Serif" font-size="10.00">+ verify_clicked()</text>
<text text-anchor="start" x="8" y="-51.5" font-family="Helvetica,sans-Serif" font-size="10.00">+ option_changed()</text>
<text text-anchor="start" x="8" y="-40.5" font-family="Helvetica,sans-Serif" font-size="10.00">+ non_reload_option_changed()</text>
<text text-anchor="start" x="8" y="-29.5" font-family="Helvetica,sans-Serif" font-size="10.00">+ cancel_clicked()</text>
<text text-anchor="start" x="8" y="-18.5" font-family="Helvetica,sans-Serif" font-size="10.00">+ install_clicked()</text>
<text text-anchor="start" x="8" y="-7.5" font-family="Helvetica,sans-Serif" font-size="10.00">and 6 more...</text>
</a>
</g>
</g>
<!-- Node2 -->
<g id="node2" class="node">
<title>Node2</title>
<g id="a_node2"><a xlink:title=" ">
<polygon fill="white" stroke="#bfbfbf" points="0.5,-386 0.5,-443 51.5,-443 51.5,-386 0.5,-386"/>
<text text-anchor="middle" x="26" y="-431" font-family="Helvetica,sans-Serif" font-size="10.00">QDialog</text>
<polyline fill="none" stroke="#bfbfbf" points="0.5,-424 51.5,-424 "/>
<text text-anchor="middle" x="26" y="-412" font-family="Helvetica,sans-Serif" font-size="10.00"> </text>
<polyline fill="none" stroke="#bfbfbf" points="0.5,-405 51.5,-405 "/>
<text text-anchor="middle" x="26" y="-393" font-family="Helvetica,sans-Serif" font-size="10.00"> </text>
</a>
</g>
</g>
<!-- Node2&#45;&gt;Node1 -->
<g id="edge1" class="edge">
<title>Node2&#45;&gt;Node1</title>
<path fill="none" stroke="midnightblue" d="M33.04,-375.74C37.39,-352.47 43.26,-321 49.26,-288.81"/>
<polygon fill="none" stroke="midnightblue" points="29.56,-375.36 31.16,-385.83 36.44,-376.64 29.56,-375.36"/>
</g>
<!-- Node3 -->
<g id="node3" class="node">
<title>Node3</title>
<g id="a_node3"><a xlink:href="classrare_1_1ui_1_1components_1_1dialogs_1_1install__dialog_1_1_ui___install_dialog.html" target="_top" xlink:title=" ">
<polygon fill="white" stroke="black" points="69.5,-325.5 69.5,-503.5 184.5,-503.5 184.5,-325.5 69.5,-325.5"/>
<text text-anchor="middle" x="127" y="-491.5" font-family="Helvetica,sans-Serif" font-size="10.00">Ui_InstallDialog</text>
<polyline fill="none" stroke="black" points="69.5,-484.5 184.5,-484.5 "/>
<text text-anchor="start" x="77.5" y="-472.5" font-family="Helvetica,sans-Serif" font-size="10.00">+ install_dialog_layout</text>
<text text-anchor="start" x="77.5" y="-461.5" font-family="Helvetica,sans-Serif" font-size="10.00">+ install_dialog_label</text>
<text text-anchor="start" x="77.5" y="-450.5" font-family="Helvetica,sans-Serif" font-size="10.00">+ install_dir_label</text>
<text text-anchor="start" x="77.5" y="-439.5" font-family="Helvetica,sans-Serif" font-size="10.00">+ install_dir_layout</text>
<text text-anchor="start" x="77.5" y="-428.5" font-family="Helvetica,sans-Serif" font-size="10.00">+ platform_label</text>
<text text-anchor="start" x="77.5" y="-417.5" font-family="Helvetica,sans-Serif" font-size="10.00">+ platform_combo_box</text>
<text text-anchor="start" x="77.5" y="-406.5" font-family="Helvetica,sans-Serif" font-size="10.00">+ shortcut_lbl</text>
<text text-anchor="start" x="77.5" y="-395.5" font-family="Helvetica,sans-Serif" font-size="10.00">+ shortcut_cb</text>
<text text-anchor="start" x="77.5" y="-384.5" font-family="Helvetica,sans-Serif" font-size="10.00">+ sdl_list_label</text>
<text text-anchor="start" x="77.5" y="-373.5" font-family="Helvetica,sans-Serif" font-size="10.00">+ sdl_list_frame</text>
<text text-anchor="start" x="77.5" y="-362.5" font-family="Helvetica,sans-Serif" font-size="10.00">and 31 more...</text>
<polyline fill="none" stroke="black" points="69.5,-355.5 184.5,-355.5 "/>
<text text-anchor="start" x="77.5" y="-343.5" font-family="Helvetica,sans-Serif" font-size="10.00">+ setupUi()</text>
<text text-anchor="start" x="77.5" y="-332.5" font-family="Helvetica,sans-Serif" font-size="10.00">+ retranslateUi()</text>
</a>
</g>
</g>
<!-- Node3&#45;&gt;Node1 -->
<g id="edge2" class="edge">
<title>Node3&#45;&gt;Node1</title>
<path fill="none" stroke="midnightblue" d="M108.32,-315.35C106.68,-306.71 104.99,-297.86 103.3,-288.96"/>
<polygon fill="none" stroke="midnightblue" points="104.92,-316.21 110.23,-325.38 111.8,-314.9 104.92,-316.21"/>
</g>
<!-- Node4 -->
<g id="node4" class="node">
<title>Node4</title>
<g id="a_node4"><a xlink:title=" ">
<polygon fill="white" stroke="#bfbfbf" points="105.5,-540.5 105.5,-597.5 148.5,-597.5 148.5,-540.5 105.5,-540.5"/>
<text text-anchor="middle" x="127" y="-585.5" font-family="Helvetica,sans-Serif" font-size="10.00">object</text>
<polyline fill="none" stroke="#bfbfbf" points="105.5,-578.5 148.5,-578.5 "/>
<text text-anchor="middle" x="127" y="-566.5" font-family="Helvetica,sans-Serif" font-size="10.00"> </text>
<polyline fill="none" stroke="#bfbfbf" points="105.5,-559.5 148.5,-559.5 "/>
<text text-anchor="middle" x="127" y="-547.5" font-family="Helvetica,sans-Serif" font-size="10.00"> </text>
</a>
</g>
</g>
<!-- Node4&#45;&gt;Node3 -->
<g id="edge3" class="edge">
<title>Node4&#45;&gt;Node3</title>
<path fill="none" stroke="midnightblue" d="M127,-530.37C127,-522.09 127,-512.98 127,-503.62"/>
<polygon fill="none" stroke="midnightblue" points="123.5,-530.38 127,-540.38 130.5,-530.38 123.5,-530.38"/>
</g>
</g>
</svg>
