<?xml version="1.0" encoding="UTF-8" standalone="no"?>
<!DOCTYPE svg PUBLIC "-//W3C//DTD SVG 1.1//EN"
 "http://www.w3.org/Graphics/SVG/1.1/DTD/svg11.dtd">
<!-- Generated by graphviz version 2.49.3 (20211027.1534)
 -->
<!-- Title: start_download Pages: 1 -->
<svg width="322pt" height="46pt"
 viewBox="0.00 0.00 322.00 46.00" xmlns="http://www.w3.org/2000/svg" xmlns:xlink="http://www.w3.org/1999/xlink">
<g id="graph0" class="graph" transform="scale(1 1) rotate(0) translate(4 42)">
<title>start_download</title>
<polygon fill="white" stroke="transparent" points="-4,4 -4,-42 318,-42 318,4 -4,4"/>
<!-- Node1 -->
<g id="node1" class="node">
<title>Node1</title>
<g id="a_node1"><a xlink:title=" ">
<polygon fill="#bfbfbf" stroke="black" points="0,-0.5 0,-19.5 83,-19.5 83,-0.5 0,-0.5"/>
<text text-anchor="middle" x="41.5" y="-7.5" font-family="Helvetica,sans-Serif" font-size="10.00">start_download</text>
</a>
</g>
</g>
<!-- Node1&#45;&gt;Node1 -->
<g id="edge5" class="edge">
<title>Node1&#45;&gt;Node1</title>
<path fill="none" stroke="midnightblue" d="M24.24,-19.76C15.84,-28.57 21.59,-38 41.5,-38 53.94,-38 60.85,-34.31 62.24,-29.4"/>
<polygon fill="midnightblue" stroke="midnightblue" points="65.45,-27.98 58.76,-19.76 58.86,-30.35 65.45,-27.98"/>
</g>
<!-- Node2 -->
<g id="node2" class="node">
<title>Node2</title>
<g id="a_node2"><a xlink:href="classrare_1_1components_1_1tabs_1_1downloads_1_1_downloads_tab.html#a66eac4632760c14c4544b244b2108e93" target="_top" xlink:title=" ">
<polygon fill="white" stroke="black" points="119,-0.5 119,-19.5 190,-19.5 190,-0.5 119,-0.5"/>
<text text-anchor="middle" x="154.5" y="-7.5" font-family="Helvetica,sans-Serif" font-size="10.00">install_game</text>
</a>
</g>
</g>
<!-- Node1&#45;&gt;Node2 -->
<g id="edge1" class="edge">
<title>Node1&#45;&gt;Node2</title>
<path fill="none" stroke="midnightblue" d="M83.2,-10C91.47,-10 100.21,-10 108.62,-10"/>
<polygon fill="midnightblue" stroke="midnightblue" points="108.65,-13.5 118.65,-10 108.65,-6.5 108.65,-13.5"/>
</g>
<!-- Node2&#45;&gt;Node2 -->
<g id="edge2" class="edge">
<title>Node2&#45;&gt;Node2</title>
<path fill="none" stroke="midnightblue" d="M137.24,-19.76C128.84,-28.57 134.59,-38 154.5,-38 166.94,-38 173.85,-34.31 175.24,-29.4"/>
<polygon fill="midnightblue" stroke="midnightblue" points="178.45,-27.98 171.76,-19.76 171.86,-30.35 178.45,-27.98"/>
</g>
<!-- Node3 -->
<g id="node3" class="node">
<title>Node3</title>
<g id="a_node3"><a xlink:href="classrare_1_1components_1_1tabs_1_1downloads_1_1_downloads_tab.html#ad220cc0780ac6b0d74f99652344b4e3a" target="_top" xlink:title=" ">
<polygon fill="white" stroke="black" points="226,-0.5 226,-19.5 314,-19.5 314,-0.5 226,-0.5"/>
<text text-anchor="middle" x="270" y="-7.5" font-family="Helvetica,sans-Serif" font-size="10.00">start_installation</text>
</a>
</g>
</g>
<!-- Node2&#45;&gt;Node3 -->
<g id="edge3" class="edge">
<title>Node2&#45;&gt;Node3</title>
<path fill="none" stroke="midnightblue" d="M190.17,-10C198.23,-10 206.99,-10 215.65,-10"/>
<polygon fill="midnightblue" stroke="midnightblue" points="215.72,-13.5 225.72,-10 215.72,-6.5 215.72,-13.5"/>
</g>
<!-- Node3&#45;&gt;Node3 -->
<g id="edge4" class="edge">
<title>Node3&#45;&gt;Node3</title>
<path fill="none" stroke="midnightblue" d="M252.43,-19.76C243.88,-28.57 249.74,-38 270,-38 282.66,-38 289.7,-34.31 291.11,-29.4"/>
<polygon fill="midnightblue" stroke="midnightblue" points="294.3,-27.94 287.57,-19.76 287.73,-30.35 294.3,-27.94"/>
</g>
</g>
</svg>
