<?xml version="1.0" encoding="UTF-8" standalone="no"?>
<!DOCTYPE svg PUBLIC "-//W3C//DTD SVG 1.1//EN"
 "http://www.w3.org/Graphics/SVG/1.1/DTD/svg11.dtd">
<!-- Generated by graphviz version 2.49.3 (20211027.1534)
 -->
<!-- Title: unlock_installed Pages: 1 -->
<!--zoomable 130 -->
<svg id="main" version="1.1" xmlns="http://www.w3.org/2000/svg" xmlns:xlink="http://www.w3.org/1999/xlink" xml:space="preserve" onload="init(evt)">
<style type="text/css"><![CDATA[
.edge:hover path { stroke: red; }
.edge:hover polygon { stroke: red; fill: red; }
]]></style>
<script type="text/javascript"><![CDATA[
var edges = document.getElementsByTagName('g');
if (edges && edges.length) {
  for (var i=0;i<edges.length;i++) {
    if (edges[i].id.substr(0,4)=='edge') {
      edges[i].setAttribute('class','edge');
    }
  }
}
]]></script>
        <defs>
                <circle id="rim" cx="0" cy="0" r="7"/>
                <circle id="rim2" cx="0" cy="0" r="3.5"/>
                <g id="zoomPlus">
                        <use xlink:href="#rim" fill="#404040">
                                <set attributeName="fill" to="#808080" begin="zoomplus.mouseover" end="zoomplus.mouseout"/>
                        </use>
                        <path d="M-4,0h8M0,-4v8" fill="none" stroke="white" stroke-width="1.5" pointer-events="none"/>
                </g>
                <g id="zoomMin">
                        <use xlink:href="#rim" fill="#404040">
                                <set attributeName="fill" to="#808080" begin="zoomminus.mouseover" end="zoomminus.mouseout"/>
                        </use>
                        <path d="M-4,0h8" fill="none" stroke="white" stroke-width="1.5" pointer-events="none"/>
                </g>
                <g id="dirArrow">
                        <path fill="none" stroke="white" stroke-width="1.5" d="M0,-3.0v7 M-2.5,-0.5L0,-3.0L2.5,-0.5"/>
                </g>
               <g id="resetDef">
                       <use xlink:href="#rim2" fill="#404040">
                               <set attributeName="fill" to="#808080" begin="reset.mouseover" end="reset.mouseout"/>
                       </use>
               </g>
        </defs>

<script type="text/javascript">
var viewWidth = 676;
var viewHeight = 130;
var sectionId = 'dynsection-22';
</script>
<script xlink:href="svgpan.js"/>
<svg id="graph" class="graph">
<g id="viewport">
<title>unlock_installed</title>
<polygon fill="white" stroke="transparent" points="-4,4 -4,-125.5 672,-125.5 672,4 -4,4"/>
<!-- Node1 -->
<g id="node1" class="node">
<title>Node1</title>
<g id="a_node1"><a xlink:title=" ">
<polygon fill="#bfbfbf" stroke="black" points="0,-44.5 0,-63.5 86,-63.5 86,-44.5 0,-44.5"/>
<text text-anchor="middle" x="43" y="-51.5" font-family="Helvetica,sans-Serif" font-size="10.00">unlock_installed</text>
</a>
</g>
</g>
<!-- Node1&#45;&gt;Node1 -->
<g id="edge9" class="edge">
<title>Node1&#45;&gt;Node1</title>
<path fill="none" stroke="midnightblue" d="M18.65,-63.76C6.8,-72.57 14.92,-82 43,-82 61.43,-82 71.26,-77.94 72.49,-72.65"/>
<polygon fill="midnightblue" stroke="midnightblue" points="75.39,-70.66 67.35,-63.76 69.32,-74.17 75.39,-70.66"/>
</g>
<!-- Node2 -->
<g id="node2" class="node">
<title>Node2</title>
<g id="a_node2"><a xlink:href="classrare_1_1commands_1_1launcher_1_1console__dialog_1_1_console_dialog.html#a9df25d182cd11f7cac9d5a7083f8be61" target="_top" xlink:title=" ">
<polygon fill="white" stroke="black" points="122,-73 122,-103 280,-103 280,-73 122,-73"/>
<text text-anchor="start" x="130" y="-91" font-family="Helvetica,sans-Serif" font-size="10.00">rare.commands.launcher.console</text>
<text text-anchor="middle" x="201" y="-80" font-family="Helvetica,sans-Serif" font-size="10.00">_dialog.ConsoleDialog.log</text>
</a>
</g>
</g>
<!-- Node1&#45;&gt;Node2 -->
<g id="edge1" class="edge">
<title>Node1&#45;&gt;Node2</title>
<path fill="none" stroke="midnightblue" d="M86.22,-63.2C97,-65.55 108.95,-68.16 120.94,-70.77"/>
<polygon fill="midnightblue" stroke="midnightblue" points="120.47,-74.25 130.99,-72.96 121.96,-67.41 120.47,-74.25"/>
</g>
<!-- Node3 -->
<g id="node3" class="node">
<title>Node3</title>
<g id="a_node3"><a xlink:href="classrare_1_1commands_1_1launcher_1_1console__dialog_1_1_console_edit.html#ac05aadedf6e1be5c365c818989f98d50" target="_top" xlink:title=" ">
<polygon fill="white" stroke="black" points="122,-6 122,-36 280,-36 280,-6 122,-6"/>
<text text-anchor="start" x="130" y="-24" font-family="Helvetica,sans-Serif" font-size="10.00">rare.commands.launcher.console</text>
<text text-anchor="middle" x="201" y="-13" font-family="Helvetica,sans-Serif" font-size="10.00">_dialog.ConsoleEdit.log</text>
</a>
</g>
</g>
<!-- Node1&#45;&gt;Node3 -->
<g id="edge3" class="edge">
<title>Node1&#45;&gt;Node3</title>
<path fill="none" stroke="midnightblue" d="M86.22,-45.07C96.41,-42.91 107.63,-40.54 118.95,-38.15"/>
<polygon fill="midnightblue" stroke="midnightblue" points="119.83,-41.54 128.89,-36.04 118.38,-34.69 119.83,-41.54"/>
</g>
<!-- Node2&#45;&gt;Node2 -->
<g id="edge2" class="edge">
<title>Node2&#45;&gt;Node2</title>
<path fill="none" stroke="midnightblue" d="M173.47,-103.16C166.83,-112.56 176,-121.5 201,-121.5 216.23,-121.5 225.59,-118.18 229.07,-113.46"/>
<polygon fill="midnightblue" stroke="midnightblue" points="232.55,-112.96 228.53,-103.16 225.56,-113.33 232.55,-112.96"/>
</g>
<!-- Node3&#45;&gt;Node3 -->
<g id="edge4" class="edge">
<title>Node3&#45;&gt;Node3</title>
<path fill="none" stroke="midnightblue" d="M173.47,-36.16C166.83,-45.56 176,-54.5 201,-54.5 216.23,-54.5 225.59,-51.18 229.07,-46.46"/>
<polygon fill="midnightblue" stroke="midnightblue" points="232.55,-45.96 228.53,-36.16 225.56,-46.33 232.55,-45.96"/>
</g>
<!-- Node4 -->
<g id="node4" class="node">
<title>Node4</title>
<g id="a_node4"><a xlink:href="classrare_1_1commands_1_1launcher_1_1console__dialog_1_1_console_edit.html#a5b65c15a31a59d304c2987f7d3f8ab7b" target="_top" xlink:title=" ">
<polygon fill="white" stroke="black" points="316,-0.5 316,-41.5 474,-41.5 474,-0.5 316,-0.5"/>
<text text-anchor="start" x="324" y="-29.5" font-family="Helvetica,sans-Serif" font-size="10.00">rare.commands.launcher.console</text>
<text text-anchor="start" x="324" y="-18.5" font-family="Helvetica,sans-Serif" font-size="10.00">_dialog.ConsoleEdit.print</text>
<text text-anchor="middle" x="395" y="-7.5" font-family="Helvetica,sans-Serif" font-size="10.00">_to_console</text>
</a>
</g>
</g>
<!-- Node3&#45;&gt;Node4 -->
<g id="edge5" class="edge">
<title>Node3&#45;&gt;Node4</title>
<path fill="none" stroke="midnightblue" d="M280.09,-21C288.6,-21 297.3,-21 305.92,-21"/>
<polygon fill="midnightblue" stroke="midnightblue" points="305.98,-24.5 315.98,-21 305.98,-17.5 305.98,-24.5"/>
</g>
<!-- Node4&#45;&gt;Node4 -->
<g id="edge6" class="edge">
<title>Node4&#45;&gt;Node4</title>
<path fill="none" stroke="midnightblue" d="M359.71,-41.86C355.86,-51.54 367.62,-60 395,-60 412.11,-60 423.12,-56.7 428.03,-51.86"/>
<polygon fill="midnightblue" stroke="midnightblue" points="431.5,-52.39 430.29,-41.86 424.67,-50.85 431.5,-52.39"/>
</g>
<!-- Node5 -->
<g id="node5" class="node">
<title>Node5</title>
<g id="a_node5"><a xlink:href="classrare_1_1commands_1_1launcher_1_1console__dialog_1_1_console_edit.html#ad89ca21019805240d01e41fe61cdbb56" target="_top" xlink:title=" ">
<polygon fill="white" stroke="black" points="510,-0.5 510,-41.5 668,-41.5 668,-0.5 510,-0.5"/>
<text text-anchor="start" x="518" y="-29.5" font-family="Helvetica,sans-Serif" font-size="10.00">rare.commands.launcher.console</text>
<text text-anchor="start" x="518" y="-18.5" font-family="Helvetica,sans-Serif" font-size="10.00">_dialog.ConsoleEdit.scroll</text>
<text text-anchor="middle" x="589" y="-7.5" font-family="Helvetica,sans-Serif" font-size="10.00">_to_last_line</text>
</a>
</g>
</g>
<!-- Node4&#45;&gt;Node5 -->
<g id="edge7" class="edge">
<title>Node4&#45;&gt;Node5</title>
<path fill="none" stroke="midnightblue" d="M474.09,-21C482.6,-21 491.3,-21 499.92,-21"/>
<polygon fill="midnightblue" stroke="midnightblue" points="499.98,-24.5 509.98,-21 499.98,-17.5 499.98,-24.5"/>
</g>
<!-- Node5&#45;&gt;Node5 -->
<g id="edge8" class="edge">
<title>Node5&#45;&gt;Node5</title>
<path fill="none" stroke="midnightblue" d="M553.71,-41.86C549.86,-51.54 561.62,-60 589,-60 606.11,-60 617.12,-56.7 622.03,-51.86"/>
<polygon fill="midnightblue" stroke="midnightblue" points="625.5,-52.39 624.29,-41.86 618.67,-50.85 625.5,-52.39"/>
</g>
</g>
</svg>
        <g id="navigator" transform="translate(0 0)" fill="#404254">
                <rect fill="#f2f5e9" fill-opacity="0.5" stroke="#606060" stroke-width=".5" x="0" y="0" width="60" height="60"/>
                <use id="zoomplus" xlink:href="#zoomPlus" x="17" y="9" onmousedown="handleZoom(evt,'in')"/>
                <use id="zoomminus" xlink:href="#zoomMin" x="42" y="9" onmousedown="handleZoom(evt,'out')"/>
                <use id="reset" xlink:href="#resetDef" x="30" y="36" onmousedown="handleReset()"/>
                <g id="arrowUp" xlink:href="#dirArrow" transform="translate(30 24)" onmousedown="handlePan(0,-1)">
                  <use xlink:href="#rim" fill="#404040">
                        <set attributeName="fill" to="#808080" begin="arrowUp.mouseover" end="arrowUp.mouseout"/>
                  </use>
                  <path fill="none" stroke="white" stroke-width="1.5" d="M0,-3.0v7 M-2.5,-0.5L0,-3.0L2.5,-0.5"/>
                </g>
                <g id="arrowRight" xlink:href="#dirArrow" transform="rotate(90) translate(36 -43)" onmousedown="handlePan(1,0)">
                  <use xlink:href="#rim" fill="#404040">
                        <set attributeName="fill" to="#808080" begin="arrowRight.mouseover" end="arrowRight.mouseout"/>
                  </use>
                  <path fill="none" stroke="white" stroke-width="1.5" d="M0,-3.0v7 M-2.5,-0.5L0,-3.0L2.5,-0.5"/>
                </g>
                <g id="arrowDown" xlink:href="#dirArrow" transform="rotate(180) translate(-30 -48)" onmousedown="handlePan(0,1)">
                  <use xlink:href="#rim" fill="#404040">
                        <set attributeName="fill" to="#808080" begin="arrowDown.mouseover" end="arrowDown.mouseout"/>
                  </use>
                  <path fill="none" stroke="white" stroke-width="1.5" d="M0,-3.0v7 M-2.5,-0.5L0,-3.0L2.5,-0.5"/>
                </g>
                <g id="arrowLeft" xlink:href="#dirArrow" transform="rotate(270) translate(-36 17)" onmousedown="handlePan(-1,0)">
                  <use xlink:href="#rim" fill="#404040">
                        <set attributeName="fill" to="#808080" begin="arrowLeft.mouseover" end="arrowLeft.mouseout"/>
                  </use>
                  <path fill="none" stroke="white" stroke-width="1.5" d="M0,-3.0v7 M-2.5,-0.5L0,-3.0L2.5,-0.5"/>
                </g>
        </g>
        <svg viewBox="0 0 15 15" width="100%" height="30px" preserveAspectRatio="xMaxYMin meet">
         <g id="arrow_out" transform="scale(0.3 0.3)">
          <a xlink:href="classrare_1_1lgndr_1_1core_1_1_legendary_core_a68e2edbfa7f0dad7739886294d891b02_cgraph_org.svg" target="_base">
           <rect id="button" ry="5" rx="5" y="6" x="6" height="38" width="38"
                fill="#f2f5e9" fill-opacity="0.5" stroke="#606060" stroke-width="1.0"/>
           <path id="arrow"
             d="M 11.500037,31.436501 C 11.940474,20.09759 22.043105,11.32322 32.158766,21.979434 L 37.068811,17.246167 C 37.068811,17.246167 37.088388,32 37.088388,32 L 22.160133,31.978069 C 22.160133,31.978069 26.997745,27.140456 26.997745,27.140456 C 18.528582,18.264221 13.291696,25.230495 11.500037,31.436501 z"
             style="fill:#404040;"/>
          </a>
         </g>
        </svg>
</svg>
