<?xml version="1.0" encoding="UTF-8" standalone="no"?>
<!DOCTYPE svg PUBLIC "-//W3C//DTD SVG 1.1//EN"
 "http://www.w3.org/Graphics/SVG/1.1/DTD/svg11.dtd">
<!-- Generated by graphviz version 2.49.3 (20211027.1534)
 -->
<!-- Title: dropEvent Pages: 1 -->
<!--zoomable 247 -->
<svg id="main" version="1.1" xmlns="http://www.w3.org/2000/svg" xmlns:xlink="http://www.w3.org/1999/xlink" xml:space="preserve" onload="init(evt)">
<style type="text/css"><![CDATA[
.edge:hover path { stroke: red; }
.edge:hover polygon { stroke: red; fill: red; }
]]></style>
<script type="text/javascript"><![CDATA[
var edges = document.getElementsByTagName('g');
if (edges && edges.length) {
  for (var i=0;i<edges.length;i++) {
    if (edges[i].id.substr(0,4)=='edge') {
      edges[i].setAttribute('class','edge');
    }
  }
}
]]></script>
        <defs>
                <circle id="rim" cx="0" cy="0" r="7"/>
                <circle id="rim2" cx="0" cy="0" r="3.5"/>
                <g id="zoomPlus">
                        <use xlink:href="#rim" fill="#404040">
                                <set attributeName="fill" to="#808080" begin="zoomplus.mouseover" end="zoomplus.mouseout"/>
                        </use>
                        <path d="M-4,0h8M0,-4v8" fill="none" stroke="white" stroke-width="1.5" pointer-events="none"/>
                </g>
                <g id="zoomMin">
                        <use xlink:href="#rim" fill="#404040">
                                <set attributeName="fill" to="#808080" begin="zoomminus.mouseover" end="zoomminus.mouseout"/>
                        </use>
                        <path d="M-4,0h8" fill="none" stroke="white" stroke-width="1.5" pointer-events="none"/>
                </g>
                <g id="dirArrow">
                        <path fill="none" stroke="white" stroke-width="1.5" d="M0,-3.0v7 M-2.5,-0.5L0,-3.0L2.5,-0.5"/>
                </g>
               <g id="resetDef">
                       <use xlink:href="#rim2" fill="#404040">
                               <set attributeName="fill" to="#808080" begin="reset.mouseover" end="reset.mouseout"/>
                       </use>
               </g>
        </defs>

<script type="text/javascript">
var viewWidth = 842;
var viewHeight = 247;
var sectionId = 'dynsection-8';
</script>
<script xlink:href="svgpan.js"/>
<svg id="graph" class="graph">
<g id="viewport">
<title>dropEvent</title>
<polygon fill="white" stroke="transparent" points="-4,4 -4,-242.5 838.37,-242.5 838.37,4 -4,4"/>
<!-- Node1 -->
<g id="node1" class="node">
<title>Node1</title>
<g id="a_node1"><a xlink:title=" ">
<polygon fill="#bfbfbf" stroke="black" points="3.37,-123 3.37,-142 63.37,-142 63.37,-123 3.37,-123"/>
<text text-anchor="middle" x="33.37" y="-130" font-family="Helvetica,sans-Serif" font-size="10.00">dropEvent</text>
</a>
</g>
</g>
<!-- Node1&#45;&gt;Node1 -->
<g id="edge2" class="edge">
<title>Node1&#45;&gt;Node1</title>
<path fill="none" stroke="midnightblue" d="M6.25,-142.26C-6.95,-151.07 2.09,-160.5 33.37,-160.5 54.88,-160.5 65.87,-156.04 66.36,-150.39"/>
<polygon fill="midnightblue" stroke="midnightblue" points="69.18,-148.33 60.5,-142.26 63.5,-152.42 69.18,-148.33"/>
</g>
<!-- Node2 -->
<g id="node2" class="node">
<title>Node2</title>
<g id="a_node2"><a xlink:href="classrare_1_1components_1_1tabs_1_1settings_1_1widgets_1_1wrapper_1_1_wrapper_container.html#a23c33ff970e7829b07b1443ca54a4245" target="_top" xlink:title=" ">
<polygon fill="white" stroke="black" points="166.37,-219 166.37,-238 253.37,-238 253.37,-219 166.37,-219"/>
<text text-anchor="middle" x="209.87" y="-226" font-family="Helvetica,sans-Serif" font-size="10.00">_get_drop_index</text>
</a>
</g>
</g>
<!-- Node1&#45;&gt;Node2 -->
<g id="edge1" class="edge">
<title>Node1&#45;&gt;Node2</title>
<path fill="none" stroke="midnightblue" d="M39.51,-142.18C48.93,-158.92 70.69,-193.05 99.37,-209.5 116.47,-219.31 137.35,-224.31 156.28,-226.79"/>
<polygon fill="midnightblue" stroke="midnightblue" points="155.94,-230.27 166.27,-227.89 156.71,-223.31 155.94,-230.27"/>
</g>
<!-- Node3 -->
<g id="node3" class="node">
<title>Node3</title>
<g id="a_node3"><a xlink:href="classrare_1_1widgets_1_1side__tab_1_1_side_tab_contents_protocol.html#ab056178eceee89fe1afe038a9b5dbfe8" target="_top" xlink:title=" ">
<polygon fill="white" stroke="black" points="141.87,-151.5 141.87,-181.5 277.87,-181.5 277.87,-151.5 141.87,-151.5"/>
<text text-anchor="start" x="149.87" y="-169.5" font-family="Helvetica,sans-Serif" font-size="10.00">rare.widgets.side_tab.Side</text>
<text text-anchor="middle" x="209.87" y="-158.5" font-family="Helvetica,sans-Serif" font-size="10.00">TabContentsProtocol.layout</text>
</a>
</g>
</g>
<!-- Node1&#45;&gt;Node3 -->
<g id="edge3" class="edge">
<title>Node1&#45;&gt;Node3</title>
<path fill="none" stroke="midnightblue" d="M63.58,-138.19C82.34,-141.85 107.65,-146.78 131.89,-151.5"/>
<polygon fill="midnightblue" stroke="midnightblue" points="131.35,-154.96 141.83,-153.44 132.69,-148.09 131.35,-154.96"/>
</g>
<!-- Node4 -->
<g id="node4" class="node">
<title>Node4</title>
<g id="a_node4"><a xlink:href="classrare_1_1components_1_1tabs_1_1settings_1_1widgets_1_1wrapper_1_1_wrapper_settings.html#a564562f082521e37c7029e239abb56c6" target="_top" xlink:title=" ">
<polygon fill="white" stroke="black" points="99.37,-84.5 99.37,-114.5 320.37,-114.5 320.37,-84.5 99.37,-84.5"/>
<text text-anchor="start" x="107.37" y="-102.5" font-family="Helvetica,sans-Serif" font-size="10.00">rare.components.tabs.settings.widgets.wrapper.</text>
<text text-anchor="middle" x="209.87" y="-91.5" font-family="Helvetica,sans-Serif" font-size="10.00">WrapperSettings.save</text>
</a>
</g>
</g>
<!-- Node1&#45;&gt;Node4 -->
<g id="edge5" class="edge">
<title>Node1&#45;&gt;Node4</title>
<path fill="none" stroke="midnightblue" d="M63.58,-126.98C79.17,-124.03 99.29,-120.22 119.56,-116.39"/>
<polygon fill="midnightblue" stroke="midnightblue" points="120.32,-119.81 129.5,-114.51 119.02,-112.93 120.32,-119.81"/>
</g>
<!-- Node9 -->
<g id="node9" class="node">
<title>Node9</title>
<g id="a_node9"><a xlink:href="classrare_1_1game__launch__helper_1_1console_1_1_console.html#a564562f082521e37c7029e239abb56c6" target="_top" xlink:title=" ">
<polygon fill="white" stroke="black" points="128.37,-17.5 128.37,-47.5 291.37,-47.5 291.37,-17.5 128.37,-17.5"/>
<text text-anchor="start" x="136.37" y="-35.5" font-family="Helvetica,sans-Serif" font-size="10.00">rare.game_launch_helper.console.</text>
<text text-anchor="middle" x="209.87" y="-24.5" font-family="Helvetica,sans-Serif" font-size="10.00">Console.save</text>
</a>
</g>
</g>
<!-- Node1&#45;&gt;Node9 -->
<g id="edge16" class="edge">
<title>Node1&#45;&gt;Node9</title>
<path fill="none" stroke="midnightblue" d="M43.24,-122.88C55.06,-110.54 77.07,-89.08 99.37,-75.5 115.05,-65.95 133.21,-57.81 150.18,-51.26"/>
<polygon fill="midnightblue" stroke="midnightblue" points="151.87,-54.37 160.01,-47.59 149.42,-47.81 151.87,-54.37"/>
</g>
<!-- Node3&#45;&gt;Node3 -->
<g id="edge4" class="edge">
<title>Node3&#45;&gt;Node3</title>
<path fill="none" stroke="midnightblue" d="M179.2,-181.66C171.81,-191.06 182.03,-200 209.87,-200 226.84,-200 237.27,-196.68 241.15,-191.96"/>
<polygon fill="midnightblue" stroke="midnightblue" points="244.62,-191.44 240.55,-181.66 237.63,-191.85 244.62,-191.44"/>
</g>
<!-- Node4&#45;&gt;Node4 -->
<g id="edge15" class="edge">
<title>Node4&#45;&gt;Node4</title>
<path fill="none" stroke="midnightblue" d="M179.2,-114.66C171.81,-124.06 182.03,-133 209.87,-133 226.84,-133 237.27,-129.68 241.15,-124.96"/>
<polygon fill="midnightblue" stroke="midnightblue" points="244.62,-124.44 240.55,-114.66 237.63,-124.85 244.62,-124.44"/>
</g>
<!-- Node5 -->
<g id="node5" class="node">
<title>Node5</title>
<g id="a_node5"><a xlink:href="classrare_1_1components_1_1tabs_1_1games_1_1integrations_1_1egl__sync__group_1_1_e_g_l_sync_list_item.html#a9c470cc60eae203f55455d0e0d7f5712" target="_top" xlink:title=" ">
<polygon fill="white" stroke="black" points="362.37,-173.5 362.37,-203.5 571.37,-203.5 571.37,-173.5 362.37,-173.5"/>
<text text-anchor="start" x="370.37" y="-191.5" font-family="Helvetica,sans-Serif" font-size="10.00">rare.components.tabs.games.integrations.egl</text>
<text text-anchor="middle" x="466.87" y="-180.5" font-family="Helvetica,sans-Serif" font-size="10.00">_sync_group.EGLSyncListItem.app_name</text>
</a>
</g>
</g>
<!-- Node4&#45;&gt;Node5 -->
<g id="edge6" class="edge">
<title>Node4&#45;&gt;Node5</title>
<path fill="none" stroke="midnightblue" d="M254.27,-114.55C274.69,-122.14 299.16,-131.95 320.37,-142.5 337.16,-150.85 338.98,-157.51 356.37,-164.5 361.81,-166.69 367.48,-168.69 373.26,-170.52"/>
<polygon fill="midnightblue" stroke="midnightblue" points="372.48,-173.94 383.06,-173.45 374.48,-167.23 372.48,-173.94"/>
</g>
<!-- Node6 -->
<g id="node6" class="node">
<title>Node6</title>
<g id="a_node6"><a xlink:href="classrare_1_1models_1_1base__game_1_1_rare_game_base.html#a0afe16b2357823a068971d7af5918a23" target="_top" xlink:title=" ">
<polygon fill="white" stroke="black" points="395.87,-106.5 395.87,-136.5 537.87,-136.5 537.87,-106.5 395.87,-106.5"/>
<text text-anchor="start" x="403.87" y="-124.5" font-family="Helvetica,sans-Serif" font-size="10.00">rare.models.base_game.Rare</text>
<text text-anchor="middle" x="466.87" y="-113.5" font-family="Helvetica,sans-Serif" font-size="10.00">GameBase.app_name</text>
</a>
</g>
</g>
<!-- Node4&#45;&gt;Node6 -->
<g id="edge8" class="edge">
<title>Node4&#45;&gt;Node6</title>
<path fill="none" stroke="midnightblue" d="M320.5,-108.96C342.42,-110.85 365.07,-112.8 385.77,-114.59"/>
<polygon fill="midnightblue" stroke="midnightblue" points="385.5,-118.08 395.76,-115.45 386.1,-111.1 385.5,-118.08"/>
</g>
<!-- Node7 -->
<g id="node7" class="node">
<title>Node7</title>
<g id="a_node7"><a xlink:href="classrare_1_1components_1_1tabs_1_1settings_1_1widgets_1_1wrapper_1_1_wrapper_settings.html#af704077af9c417ed9938e7b3f271faa5" target="_top" xlink:title=" ">
<polygon fill="white" stroke="black" points="613.37,-31.5 613.37,-61.5 834.37,-61.5 834.37,-31.5 613.37,-31.5"/>
<text text-anchor="start" x="621.37" y="-49.5" font-family="Helvetica,sans-Serif" font-size="10.00">rare.components.tabs.settings.widgets.wrapper.</text>
<text text-anchor="middle" x="723.87" y="-38.5" font-family="Helvetica,sans-Serif" font-size="10.00">WrapperSettings.get_wrapper_list</text>
</a>
</g>
</g>
<!-- Node4&#45;&gt;Node7 -->
<g id="edge10" class="edge">
<title>Node4&#45;&gt;Node7</title>
<path fill="none" stroke="midnightblue" d="M320.4,-88.16C403.47,-79.56 517.57,-67.75 603.07,-58.9"/>
<polygon fill="midnightblue" stroke="midnightblue" points="603.5,-62.38 613.08,-57.86 602.78,-55.41 603.5,-62.38"/>
</g>
<!-- Node8 -->
<g id="node8" class="node">
<title>Node8</title>
<g id="a_node8"><a xlink:href="classrare_1_1components_1_1tabs_1_1settings_1_1widgets_1_1wrapper_1_1_wrapper_settings.html#ab720efcdbf6d746c9008125db4703236" target="_top" xlink:title=" ">
<polygon fill="white" stroke="black" points="356.37,-0.5 356.37,-30.5 577.37,-30.5 577.37,-0.5 356.37,-0.5"/>
<text text-anchor="start" x="364.37" y="-18.5" font-family="Helvetica,sans-Serif" font-size="10.00">rare.components.tabs.settings.widgets.wrapper.</text>
<text text-anchor="middle" x="466.87" y="-7.5" font-family="Helvetica,sans-Serif" font-size="10.00">WrapperSettings.get_wrapper_string</text>
</a>
</g>
</g>
<!-- Node4&#45;&gt;Node8 -->
<g id="edge12" class="edge">
<title>Node4&#45;&gt;Node8</title>
<path fill="none" stroke="midnightblue" d="M284.35,-84.44C296.47,-81.47 308.84,-78.13 320.37,-74.5 356,-63.29 395.17,-47.18 423.88,-34.62"/>
<polygon fill="midnightblue" stroke="midnightblue" points="425.46,-37.75 433.2,-30.52 422.64,-31.35 425.46,-37.75"/>
</g>
<!-- Node5&#45;&gt;Node5 -->
<g id="edge7" class="edge">
<title>Node5&#45;&gt;Node5</title>
<path fill="none" stroke="midnightblue" d="M422.26,-203.66C411.5,-213.06 426.37,-222 466.87,-222 492.19,-222 507.49,-218.51 512.78,-213.59"/>
<polygon fill="midnightblue" stroke="midnightblue" points="516.25,-213.12 511.49,-203.66 509.3,-214.03 516.25,-213.12"/>
</g>
<!-- Node6&#45;&gt;Node6 -->
<g id="edge9" class="edge">
<title>Node6&#45;&gt;Node6</title>
<path fill="none" stroke="midnightblue" d="M422.26,-136.66C411.5,-146.06 426.37,-155 466.87,-155 492.19,-155 507.49,-151.51 512.78,-146.59"/>
<polygon fill="midnightblue" stroke="midnightblue" points="516.25,-146.12 511.49,-136.66 509.3,-147.03 516.25,-146.12"/>
</g>
<!-- Node7&#45;&gt;Node7 -->
<g id="edge11" class="edge">
<title>Node7&#45;&gt;Node7</title>
<path fill="none" stroke="midnightblue" d="M679.26,-61.66C668.5,-71.06 683.37,-80 723.87,-80 749.19,-80 764.49,-76.51 769.78,-71.59"/>
<polygon fill="midnightblue" stroke="midnightblue" points="773.25,-71.12 768.49,-61.66 766.3,-72.03 773.25,-71.12"/>
</g>
<!-- Node8&#45;&gt;Node7 -->
<g id="edge13" class="edge">
<title>Node8&#45;&gt;Node7</title>
<path fill="none" stroke="midnightblue" d="M577.5,-28.83C586.03,-29.86 594.68,-30.92 603.28,-31.96"/>
<polygon fill="midnightblue" stroke="midnightblue" points="602.99,-35.45 613.34,-33.18 603.84,-28.5 602.99,-35.45"/>
</g>
<!-- Node8&#45;&gt;Node8 -->
<g id="edge14" class="edge">
<title>Node8&#45;&gt;Node8</title>
<path fill="none" stroke="midnightblue" d="M422.26,-30.66C411.5,-40.06 426.37,-49 466.87,-49 492.19,-49 507.49,-45.51 512.78,-40.59"/>
<polygon fill="midnightblue" stroke="midnightblue" points="516.25,-40.12 511.49,-30.66 509.3,-41.03 516.25,-40.12"/>
</g>
<!-- Node9&#45;&gt;Node9 -->
<g id="edge17" class="edge">
<title>Node9&#45;&gt;Node9</title>
<path fill="none" stroke="midnightblue" d="M179.2,-47.66C171.81,-57.06 182.03,-66 209.87,-66 226.84,-66 237.27,-62.68 241.15,-57.96"/>
<polygon fill="midnightblue" stroke="midnightblue" points="244.62,-57.44 240.55,-47.66 237.63,-57.85 244.62,-57.44"/>
</g>
</g>
</svg>
        <g id="navigator" transform="translate(0 0)" fill="#404254">
                <rect fill="#f2f5e9" fill-opacity="0.5" stroke="#606060" stroke-width=".5" x="0" y="0" width="60" height="60"/>
                <use id="zoomplus" xlink:href="#zoomPlus" x="17" y="9" onmousedown="handleZoom(evt,'in')"/>
                <use id="zoomminus" xlink:href="#zoomMin" x="42" y="9" onmousedown="handleZoom(evt,'out')"/>
                <use id="reset" xlink:href="#resetDef" x="30" y="36" onmousedown="handleReset()"/>
                <g id="arrowUp" xlink:href="#dirArrow" transform="translate(30 24)" onmousedown="handlePan(0,-1)">
                  <use xlink:href="#rim" fill="#404040">
                        <set attributeName="fill" to="#808080" begin="arrowUp.mouseover" end="arrowUp.mouseout"/>
                  </use>
                  <path fill="none" stroke="white" stroke-width="1.5" d="M0,-3.0v7 M-2.5,-0.5L0,-3.0L2.5,-0.5"/>
                </g>
                <g id="arrowRight" xlink:href="#dirArrow" transform="rotate(90) translate(36 -43)" onmousedown="handlePan(1,0)">
                  <use xlink:href="#rim" fill="#404040">
                        <set attributeName="fill" to="#808080" begin="arrowRight.mouseover" end="arrowRight.mouseout"/>
                  </use>
                  <path fill="none" stroke="white" stroke-width="1.5" d="M0,-3.0v7 M-2.5,-0.5L0,-3.0L2.5,-0.5"/>
                </g>
                <g id="arrowDown" xlink:href="#dirArrow" transform="rotate(180) translate(-30 -48)" onmousedown="handlePan(0,1)">
                  <use xlink:href="#rim" fill="#404040">
                        <set attributeName="fill" to="#808080" begin="arrowDown.mouseover" end="arrowDown.mouseout"/>
                  </use>
                  <path fill="none" stroke="white" stroke-width="1.5" d="M0,-3.0v7 M-2.5,-0.5L0,-3.0L2.5,-0.5"/>
                </g>
                <g id="arrowLeft" xlink:href="#dirArrow" transform="rotate(270) translate(-36 17)" onmousedown="handlePan(-1,0)">
                  <use xlink:href="#rim" fill="#404040">
                        <set attributeName="fill" to="#808080" begin="arrowLeft.mouseover" end="arrowLeft.mouseout"/>
                  </use>
                  <path fill="none" stroke="white" stroke-width="1.5" d="M0,-3.0v7 M-2.5,-0.5L0,-3.0L2.5,-0.5"/>
                </g>
        </g>
        <svg viewBox="0 0 15 15" width="100%" height="30px" preserveAspectRatio="xMaxYMin meet">
         <g id="arrow_out" transform="scale(0.3 0.3)">
          <a xlink:href="classrare_1_1components_1_1tabs_1_1settings_1_1widgets_1_1wrapper_1_1_wrapper_container_a635f7652b6a8b627b7448d53603de00a_cgraph_org.svg" target="_base">
           <rect id="button" ry="5" rx="5" y="6" x="6" height="38" width="38"
                fill="#f2f5e9" fill-opacity="0.5" stroke="#606060" stroke-width="1.0"/>
           <path id="arrow"
             d="M 11.500037,31.436501 C 11.940474,20.09759 22.043105,11.32322 32.158766,21.979434 L 37.068811,17.246167 C 37.068811,17.246167 37.088388,32 37.088388,32 L 22.160133,31.978069 C 22.160133,31.978069 26.997745,27.140456 26.997745,27.140456 C 18.528582,18.264221 13.291696,25.230495 11.500037,31.436501 z"
             style="fill:#404040;"/>
          </a>
         </g>
        </svg>
</svg>
