<?xml version="1.0" encoding="UTF-8" standalone="no"?>
<!DOCTYPE svg PUBLIC "-//W3C//DTD SVG 1.1//EN"
 "http://www.w3.org/Graphics/SVG/1.1/DTD/svg11.dtd">
<!-- Generated by graphviz version 2.49.3 (20211027.1534)
 -->
<!-- Title: update_wrapper Pages: 1 -->
<!--zoomable 180 -->
<svg id="main" version="1.1" xmlns="http://www.w3.org/2000/svg" xmlns:xlink="http://www.w3.org/1999/xlink" xml:space="preserve" onload="init(evt)">
<style type="text/css"><![CDATA[
.edge:hover path { stroke: red; }
.edge:hover polygon { stroke: red; fill: red; }
]]></style>
<script type="text/javascript"><![CDATA[
var edges = document.getElementsByTagName('g');
if (edges && edges.length) {
  for (var i=0;i<edges.length;i++) {
    if (edges[i].id.substr(0,4)=='edge') {
      edges[i].setAttribute('class','edge');
    }
  }
}
]]></script>
        <defs>
                <circle id="rim" cx="0" cy="0" r="7"/>
                <circle id="rim2" cx="0" cy="0" r="3.5"/>
                <g id="zoomPlus">
                        <use xlink:href="#rim" fill="#404040">
                                <set attributeName="fill" to="#808080" begin="zoomplus.mouseover" end="zoomplus.mouseout"/>
                        </use>
                        <path d="M-4,0h8M0,-4v8" fill="none" stroke="white" stroke-width="1.5" pointer-events="none"/>
                </g>
                <g id="zoomMin">
                        <use xlink:href="#rim" fill="#404040">
                                <set attributeName="fill" to="#808080" begin="zoomminus.mouseover" end="zoomminus.mouseout"/>
                        </use>
                        <path d="M-4,0h8" fill="none" stroke="white" stroke-width="1.5" pointer-events="none"/>
                </g>
                <g id="dirArrow">
                        <path fill="none" stroke="white" stroke-width="1.5" d="M0,-3.0v7 M-2.5,-0.5L0,-3.0L2.5,-0.5"/>
                </g>
               <g id="resetDef">
                       <use xlink:href="#rim2" fill="#404040">
                               <set attributeName="fill" to="#808080" begin="reset.mouseover" end="reset.mouseout"/>
                       </use>
               </g>
        </defs>

<script type="text/javascript">
var viewWidth = 868;
var viewHeight = 180;
var sectionId = 'dynsection-20';
</script>
<script xlink:href="svgpan.js"/>
<svg id="graph" class="graph">
<g id="viewport">
<title>update_wrapper</title>
<polygon fill="white" stroke="transparent" points="-4,4 -4,-175.5 864,-175.5 864,4 -4,4"/>
<!-- Node1 -->
<g id="node1" class="node">
<title>Node1</title>
<g id="a_node1"><a xlink:title=" ">
<polygon fill="#bfbfbf" stroke="black" points="0,-76.5 0,-95.5 86,-95.5 86,-76.5 0,-76.5"/>
<text text-anchor="middle" x="43" y="-83.5" font-family="Helvetica,sans-Serif" font-size="10.00">update_wrapper</text>
</a>
</g>
</g>
<!-- Node1&#45;&gt;Node1 -->
<g id="edge22" class="edge">
<title>Node1&#45;&gt;Node1</title>
<path fill="none" stroke="midnightblue" d="M25.43,-95.76C16.88,-104.57 22.74,-114 43,-114 55.66,-114 62.7,-110.31 64.11,-105.4"/>
<polygon fill="midnightblue" stroke="midnightblue" points="67.3,-103.94 60.57,-95.76 60.73,-106.35 67.3,-103.94"/>
</g>
<!-- Node2 -->
<g id="node2" class="node">
<title>Node2</title>
<g id="a_node2"><a xlink:href="classrare_1_1components_1_1tabs_1_1settings_1_1widgets_1_1wrapper_1_1_wrapper_settings.html#a3f49eaa82385854d6627d30c27dc1fa7" target="_top" xlink:title=" ">
<polygon fill="white" stroke="black" points="122,-76.5 122,-95.5 194,-95.5 194,-76.5 122,-76.5"/>
<text text-anchor="middle" x="158" y="-83.5" font-family="Helvetica,sans-Serif" font-size="10.00">add_wrapper</text>
</a>
</g>
</g>
<!-- Node1&#45;&gt;Node2 -->
<g id="edge1" class="edge">
<title>Node1&#45;&gt;Node2</title>
<path fill="none" stroke="midnightblue" d="M86.08,-79.45C94.46,-79.21 103.31,-79.19 111.79,-79.37"/>
<polygon fill="midnightblue" stroke="midnightblue" points="111.81,-82.87 121.91,-79.7 112.03,-75.88 111.81,-82.87"/>
</g>
<!-- Node4 -->
<g id="node4" class="node">
<title>Node4</title>
<g id="a_node4"><a xlink:href="classrare_1_1components_1_1tabs_1_1settings_1_1widgets_1_1wrapper_1_1_wrapper_settings.html#ad9cf11ee037042a34e4226af64798193" target="_top" xlink:title=" ">
<polygon fill="white" stroke="black" points="233.5,-132.5 233.5,-151.5 316.5,-151.5 316.5,-132.5 233.5,-132.5"/>
<text text-anchor="middle" x="275" y="-139.5" font-family="Helvetica,sans-Serif" font-size="10.00">delete_wrapper</text>
</a>
</g>
</g>
<!-- Node1&#45;&gt;Node4 -->
<g id="edge21" class="edge">
<title>Node1&#45;&gt;Node4</title>
<path fill="none" stroke="midnightblue" d="M60.13,-95.53C75.5,-104.15 99.55,-116.46 122,-123 154.89,-132.59 193.16,-137.34 223.08,-139.69"/>
<polygon fill="midnightblue" stroke="midnightblue" points="223.06,-143.2 233.29,-140.43 223.56,-136.22 223.06,-143.2"/>
</g>
<!-- Node2&#45;&gt;Node1 -->
<g id="edge20" class="edge">
<title>Node2&#45;&gt;Node1</title>
<path fill="none" stroke="midnightblue" d="M121.91,-92.3C113.76,-92.66 104.91,-92.8 96.19,-92.73"/>
<polygon fill="midnightblue" stroke="midnightblue" points="96.14,-89.23 86.08,-92.55 96.01,-96.23 96.14,-89.23"/>
</g>
<!-- Node2&#45;&gt;Node2 -->
<g id="edge2" class="edge">
<title>Node2&#45;&gt;Node2</title>
<path fill="none" stroke="midnightblue" d="M140.43,-95.76C131.88,-104.57 137.74,-114 158,-114 170.66,-114 177.7,-110.31 179.11,-105.4"/>
<polygon fill="midnightblue" stroke="midnightblue" points="182.3,-103.94 175.57,-95.76 175.73,-106.35 182.3,-103.94"/>
</g>
<!-- Node3 -->
<g id="node3" class="node">
<title>Node3</title>
<g id="a_node3"><a xlink:href="classrare_1_1components_1_1tabs_1_1settings_1_1widgets_1_1wrapper_1_1_wrapper_settings.html#ab03ce50c7793dbc7bd5d9a26ec204db1" target="_top" xlink:title=" ">
<polygon fill="white" stroke="black" points="230,-0.5 230,-19.5 320,-19.5 320,-0.5 230,-0.5"/>
<text text-anchor="middle" x="275" y="-7.5" font-family="Helvetica,sans-Serif" font-size="10.00">adjust_scrollarea</text>
</a>
</g>
</g>
<!-- Node2&#45;&gt;Node3 -->
<g id="edge3" class="edge">
<title>Node2&#45;&gt;Node3</title>
<path fill="none" stroke="midnightblue" d="M173.56,-76.37C193.09,-63.47 227.97,-40.42 251.05,-25.17"/>
<polygon fill="midnightblue" stroke="midnightblue" points="253.14,-27.98 259.55,-19.55 249.28,-22.14 253.14,-27.98"/>
</g>
<!-- Node2&#45;&gt;Node4 -->
<g id="edge5" class="edge">
<title>Node2&#45;&gt;Node4</title>
<path fill="none" stroke="midnightblue" d="M178.77,-95.63C197.15,-104.58 224.73,-118.01 245.49,-128.12"/>
<polygon fill="midnightblue" stroke="midnightblue" points="243.97,-131.27 254.49,-132.5 247.03,-124.97 243.97,-131.27"/>
</g>
<!-- Node5 -->
<g id="node5" class="node">
<title>Node5</title>
<g id="a_node5"><a xlink:href="classrare_1_1components_1_1tabs_1_1settings_1_1widgets_1_1wrapper_1_1_wrapper_settings.html#a564562f082521e37c7029e239abb56c6" target="_top" xlink:title=" ">
<polygon fill="white" stroke="black" points="404.5,-63.5 404.5,-82.5 442.5,-82.5 442.5,-63.5 404.5,-63.5"/>
<text text-anchor="middle" x="423.5" y="-70.5" font-family="Helvetica,sans-Serif" font-size="10.00">save</text>
</a>
</g>
</g>
<!-- Node2&#45;&gt;Node5 -->
<g id="edge18" class="edge">
<title>Node2&#45;&gt;Node5</title>
<path fill="none" stroke="midnightblue" d="M194.26,-84.26C247.07,-81.66 345.64,-76.79 394.11,-74.4"/>
<polygon fill="midnightblue" stroke="midnightblue" points="394.39,-77.89 404.2,-73.9 394.04,-70.9 394.39,-77.89"/>
</g>
<!-- Node9 -->
<g id="node9" class="node">
<title>Node9</title>
<g id="a_node9"><a xlink:href="classrare_1_1launcher_1_1console__dialog_1_1_console_dialog.html#a564562f082521e37c7029e239abb56c6" target="_top" xlink:title=" ">
<polygon fill="white" stroke="black" points="356,-123 356,-153 491,-153 491,-123 356,-123"/>
<text text-anchor="start" x="364" y="-141" font-family="Helvetica,sans-Serif" font-size="10.00">rare.launcher.console</text>
<text text-anchor="middle" x="423.5" y="-130" font-family="Helvetica,sans-Serif" font-size="10.00">_dialog.ConsoleDialog.save</text>
</a>
</g>
</g>
<!-- Node2&#45;&gt;Node9 -->
<g id="edge19" class="edge">
<title>Node2&#45;&gt;Node9</title>
<path fill="none" stroke="midnightblue" d="M194.26,-92.96C232.85,-100.57 295.88,-113.01 345.94,-122.89"/>
<polygon fill="midnightblue" stroke="midnightblue" points="345.28,-126.33 355.77,-124.83 346.63,-119.46 345.28,-126.33"/>
</g>
<!-- Node3&#45;&gt;Node3 -->
<g id="edge4" class="edge">
<title>Node3&#45;&gt;Node3</title>
<path fill="none" stroke="midnightblue" d="M257.12,-19.76C248.42,-28.57 254.38,-38 275,-38 287.89,-38 295.05,-34.31 296.48,-29.4"/>
<polygon fill="midnightblue" stroke="midnightblue" points="299.66,-27.9 292.88,-19.76 293.1,-30.35 299.66,-27.9"/>
</g>
<!-- Node4&#45;&gt;Node4 -->
<g id="edge6" class="edge">
<title>Node4&#45;&gt;Node4</title>
<path fill="none" stroke="midnightblue" d="M257.12,-151.76C248.42,-160.57 254.38,-170 275,-170 287.89,-170 295.05,-166.31 296.48,-161.4"/>
<polygon fill="midnightblue" stroke="midnightblue" points="299.66,-159.9 292.88,-151.76 293.1,-162.35 299.66,-159.9"/>
</g>
<!-- Node4&#45;&gt;Node5 -->
<g id="edge7" class="edge">
<title>Node4&#45;&gt;Node5</title>
<path fill="none" stroke="midnightblue" d="M296.37,-132.41C322.08,-120.3 366.41,-99.42 395.08,-85.92"/>
<polygon fill="midnightblue" stroke="midnightblue" points="396.59,-89.07 404.15,-81.64 393.61,-82.74 396.59,-89.07"/>
</g>
<!-- Node4&#45;&gt;Node9 -->
<g id="edge16" class="edge">
<title>Node4&#45;&gt;Node9</title>
<path fill="none" stroke="midnightblue" d="M316.81,-140.89C325.89,-140.64 335.8,-140.37 345.8,-140.09"/>
<polygon fill="midnightblue" stroke="midnightblue" points="345.9,-143.59 355.8,-139.82 345.71,-136.6 345.9,-143.59"/>
</g>
<!-- Node5&#45;&gt;Node5 -->
<g id="edge15" class="edge">
<title>Node5&#45;&gt;Node5</title>
<path fill="none" stroke="midnightblue" d="M404.05,-80.46C388.4,-89.83 394.88,-101 423.5,-101 444.96,-101 453.98,-94.72 450.54,-87.62"/>
<polygon fill="midnightblue" stroke="midnightblue" points="452.62,-84.78 442.95,-80.46 447.82,-89.87 452.62,-84.78"/>
</g>
<!-- Node6 -->
<g id="node6" class="node">
<title>Node6</title>
<g id="a_node6"><a xlink:href="classrare_1_1components_1_1tabs_1_1games_1_1integrations_1_1egl__sync__group_1_1_e_g_l_sync_list_item.html#a9c470cc60eae203f55455d0e0d7f5712" target="_top" xlink:title=" ">
<polygon fill="white" stroke="black" points="527,-120 527,-150 736,-150 736,-120 527,-120"/>
<text text-anchor="start" x="535" y="-138" font-family="Helvetica,sans-Serif" font-size="10.00">rare.components.tabs.games.integrations.egl</text>
<text text-anchor="middle" x="631.5" y="-127" font-family="Helvetica,sans-Serif" font-size="10.00">_sync_group.EGLSyncListItem.app_name</text>
</a>
</g>
</g>
<!-- Node5&#45;&gt;Node6 -->
<g id="edge8" class="edge">
<title>Node5&#45;&gt;Node6</title>
<path fill="none" stroke="midnightblue" d="M442.81,-80.3C463.16,-88.25 497.1,-101.02 527,-110 535.65,-112.6 544.76,-115.11 553.85,-117.48"/>
<polygon fill="midnightblue" stroke="midnightblue" points="553.12,-120.91 563.68,-120 554.86,-114.13 553.12,-120.91"/>
</g>
<!-- Node7 -->
<g id="node7" class="node">
<title>Node7</title>
<g id="a_node7"><a xlink:href="classrare_1_1components_1_1tabs_1_1settings_1_1widgets_1_1wrapper_1_1_wrapper_settings.html#af704077af9c417ed9938e7b3f271faa5" target="_top" xlink:title=" ">
<polygon fill="white" stroke="black" points="772,-44.5 772,-63.5 860,-63.5 860,-44.5 772,-44.5"/>
<text text-anchor="middle" x="816" y="-51.5" font-family="Helvetica,sans-Serif" font-size="10.00">get_wrapper_list</text>
</a>
</g>
</g>
<!-- Node5&#45;&gt;Node7 -->
<g id="edge10" class="edge">
<title>Node5&#45;&gt;Node7</title>
<path fill="none" stroke="midnightblue" d="M442.51,-68.63C462.87,-63.92 497.08,-56.75 527,-54 608.73,-46.49 704.05,-48.61 761.94,-51.1"/>
<polygon fill="midnightblue" stroke="midnightblue" points="761.8,-54.6 771.95,-51.55 762.12,-47.6 761.8,-54.6"/>
</g>
<!-- Node8 -->
<g id="node8" class="node">
<title>Node8</title>
<g id="a_node8"><a xlink:href="classrare_1_1components_1_1tabs_1_1settings_1_1widgets_1_1wrapper_1_1_wrapper_settings.html#ab720efcdbf6d746c9008125db4703236" target="_top" xlink:title=" ">
<polygon fill="white" stroke="black" points="582,-63.5 582,-82.5 681,-82.5 681,-63.5 582,-63.5"/>
<text text-anchor="middle" x="631.5" y="-70.5" font-family="Helvetica,sans-Serif" font-size="10.00">get_wrapper_string</text>
</a>
</g>
</g>
<!-- Node5&#45;&gt;Node8 -->
<g id="edge12" class="edge">
<title>Node5&#45;&gt;Node8</title>
<path fill="none" stroke="midnightblue" d="M442.78,-73C471.41,-73 528.04,-73 571.65,-73"/>
<polygon fill="midnightblue" stroke="midnightblue" points="571.86,-76.5 581.86,-73 571.86,-69.5 571.86,-76.5"/>
</g>
<!-- Node6&#45;&gt;Node6 -->
<g id="edge9" class="edge">
<title>Node6&#45;&gt;Node6</title>
<path fill="none" stroke="midnightblue" d="M599.43,-150.16C591.7,-159.56 602.39,-168.5 631.5,-168.5 649.24,-168.5 660.14,-165.18 664.19,-160.46"/>
<polygon fill="midnightblue" stroke="midnightblue" points="667.67,-159.93 663.57,-150.16 660.68,-160.35 667.67,-159.93"/>
</g>
<!-- Node7&#45;&gt;Node7 -->
<g id="edge11" class="edge">
<title>Node7&#45;&gt;Node7</title>
<path fill="none" stroke="midnightblue" d="M787.64,-63.76C773.84,-72.57 783.3,-82 816,-82 838.48,-82 849.98,-77.54 850.48,-71.89"/>
<polygon fill="midnightblue" stroke="midnightblue" points="853.17,-69.64 844.36,-63.76 847.58,-73.85 853.17,-69.64"/>
</g>
<!-- Node8&#45;&gt;Node7 -->
<g id="edge13" class="edge">
<title>Node8&#45;&gt;Node7</title>
<path fill="none" stroke="midnightblue" d="M681.41,-67.91C706.18,-65.33 736.31,-62.19 761.68,-59.55"/>
<polygon fill="midnightblue" stroke="midnightblue" points="762.29,-63.01 771.87,-58.49 761.56,-56.04 762.29,-63.01"/>
</g>
<!-- Node8&#45;&gt;Node8 -->
<g id="edge14" class="edge">
<title>Node8&#45;&gt;Node8</title>
<path fill="none" stroke="midnightblue" d="M603.14,-82.76C589.34,-91.57 598.8,-101 631.5,-101 653.98,-101 665.48,-96.54 665.98,-90.89"/>
<polygon fill="midnightblue" stroke="midnightblue" points="668.67,-88.64 659.86,-82.76 663.08,-92.85 668.67,-88.64"/>
</g>
<!-- Node9&#45;&gt;Node9 -->
<g id="edge17" class="edge">
<title>Node9&#45;&gt;Node9</title>
<path fill="none" stroke="midnightblue" d="M397.71,-153.16C391.49,-162.56 400.09,-171.5 423.5,-171.5 437.77,-171.5 446.53,-168.18 449.8,-163.46"/>
<polygon fill="midnightblue" stroke="midnightblue" points="453.28,-162.98 449.29,-153.16 446.29,-163.32 453.28,-162.98"/>
</g>
</g>
</svg>
        <g id="navigator" transform="translate(0 0)" fill="#404254">
                <rect fill="#f2f5e9" fill-opacity="0.5" stroke="#606060" stroke-width=".5" x="0" y="0" width="60" height="60"/>
                <use id="zoomplus" xlink:href="#zoomPlus" x="17" y="9" onmousedown="handleZoom(evt,'in')"/>
                <use id="zoomminus" xlink:href="#zoomMin" x="42" y="9" onmousedown="handleZoom(evt,'out')"/>
                <use id="reset" xlink:href="#resetDef" x="30" y="36" onmousedown="handleReset()"/>
                <g id="arrowUp" xlink:href="#dirArrow" transform="translate(30 24)" onmousedown="handlePan(0,-1)">
                  <use xlink:href="#rim" fill="#404040">
                        <set attributeName="fill" to="#808080" begin="arrowUp.mouseover" end="arrowUp.mouseout"/>
                  </use>
                  <path fill="none" stroke="white" stroke-width="1.5" d="M0,-3.0v7 M-2.5,-0.5L0,-3.0L2.5,-0.5"/>
                </g>
                <g id="arrowRight" xlink:href="#dirArrow" transform="rotate(90) translate(36 -43)" onmousedown="handlePan(1,0)">
                  <use xlink:href="#rim" fill="#404040">
                        <set attributeName="fill" to="#808080" begin="arrowRight.mouseover" end="arrowRight.mouseout"/>
                  </use>
                  <path fill="none" stroke="white" stroke-width="1.5" d="M0,-3.0v7 M-2.5,-0.5L0,-3.0L2.5,-0.5"/>
                </g>
                <g id="arrowDown" xlink:href="#dirArrow" transform="rotate(180) translate(-30 -48)" onmousedown="handlePan(0,1)">
                  <use xlink:href="#rim" fill="#404040">
                        <set attributeName="fill" to="#808080" begin="arrowDown.mouseover" end="arrowDown.mouseout"/>
                  </use>
                  <path fill="none" stroke="white" stroke-width="1.5" d="M0,-3.0v7 M-2.5,-0.5L0,-3.0L2.5,-0.5"/>
                </g>
                <g id="arrowLeft" xlink:href="#dirArrow" transform="rotate(270) translate(-36 17)" onmousedown="handlePan(-1,0)">
                  <use xlink:href="#rim" fill="#404040">
                        <set attributeName="fill" to="#808080" begin="arrowLeft.mouseover" end="arrowLeft.mouseout"/>
                  </use>
                  <path fill="none" stroke="white" stroke-width="1.5" d="M0,-3.0v7 M-2.5,-0.5L0,-3.0L2.5,-0.5"/>
                </g>
        </g>
        <svg viewBox="0 0 15 15" width="100%" height="30px" preserveAspectRatio="xMaxYMin meet">
         <g id="arrow_out" transform="scale(0.3 0.3)">
          <a xlink:href="classrare_1_1components_1_1tabs_1_1settings_1_1widgets_1_1wrapper_1_1_wrapper_settings_ac7dec68a9f412451fd5ee8851d15b2ec_cgraph_org.svg" target="_base">
           <rect id="button" ry="5" rx="5" y="6" x="6" height="38" width="38"
                fill="#f2f5e9" fill-opacity="0.5" stroke="#606060" stroke-width="1.0"/>
           <path id="arrow"
             d="M 11.500037,31.436501 C 11.940474,20.09759 22.043105,11.32322 32.158766,21.979434 L 37.068811,17.246167 C 37.068811,17.246167 37.088388,32 37.088388,32 L 22.160133,31.978069 C 22.160133,31.978069 26.997745,27.140456 26.997745,27.140456 C 18.528582,18.264221 13.291696,25.230495 11.500037,31.436501 z"
             style="fill:#404040;"/>
          </a>
         </g>
        </svg>
</svg>
