<?xml version="1.0" encoding="UTF-8" standalone="no"?>
<!DOCTYPE svg PUBLIC "-//W3C//DTD SVG 1.1//EN"
 "http://www.w3.org/Graphics/SVG/1.1/DTD/svg11.dtd">
<!-- Generated by graphviz version 2.49.3 (20211027.1534)
 -->
<!-- Title: add_wrapper Pages: 1 -->
<svg width="338pt" height="46pt"
 viewBox="0.00 0.00 338.00 46.00" xmlns="http://www.w3.org/2000/svg" xmlns:xlink="http://www.w3.org/1999/xlink">
<g id="graph0" class="graph" transform="scale(1 1) rotate(0) translate(4 42)">
<title>add_wrapper</title>
<polygon fill="white" stroke="transparent" points="-4,4 -4,-42 334,-42 334,4 -4,4"/>
<!-- Node1 -->
<g id="node1" class="node">
<title>Node1</title>
<g id="a_node1"><a xlink:title=" ">
<polygon fill="#bfbfbf" stroke="black" points="258,-0.5 258,-19.5 330,-19.5 330,-0.5 258,-0.5"/>
<text text-anchor="middle" x="294" y="-7.5" font-family="Helvetica,sans-Serif" font-size="10.00">add_wrapper</text>
</a>
</g>
</g>
<!-- Node1&#45;&gt;Node1 -->
<g id="edge5" class="edge">
<title>Node1&#45;&gt;Node1</title>
<path fill="none" stroke="midnightblue" d="M316.32,-29.03C315.1,-34.13 307.66,-38 294,-38 272.67,-38 266.51,-28.57 275.5,-19.76"/>
<polygon fill="midnightblue" stroke="midnightblue" points="319.55,-27.67 312.5,-19.76 313.07,-30.34 319.55,-27.67"/>
</g>
<!-- Node2 -->
<g id="node2" class="node">
<title>Node2</title>
<g id="a_node2"><a xlink:href="classrare_1_1components_1_1tabs_1_1settings_1_1widgets_1_1wrappers_1_1_wrapper_settings.html#a8c66b2c6b6ef5832845e0aa7abfda812" target="_top" xlink:title=" ">
<polygon fill="white" stroke="black" points="126,-0.5 126,-19.5 222,-19.5 222,-0.5 126,-0.5"/>
<text text-anchor="middle" x="174" y="-7.5" font-family="Helvetica,sans-Serif" font-size="10.00">add_user_wrapper</text>
</a>
</g>
</g>
<!-- Node1&#45;&gt;Node2 -->
<g id="edge1" class="edge">
<title>Node1&#45;&gt;Node2</title>
<path fill="none" stroke="midnightblue" d="M247.68,-10C239.4,-10 230.74,-10 222.4,-10"/>
<polygon fill="midnightblue" stroke="midnightblue" points="247.92,-13.5 257.92,-10 247.92,-6.5 247.92,-13.5"/>
</g>
<!-- Node2&#45;&gt;Node2 -->
<g id="edge2" class="edge">
<title>Node2&#45;&gt;Node2</title>
<path fill="none" stroke="midnightblue" d="M196.32,-29.03C195.1,-34.13 187.66,-38 174,-38 152.67,-38 146.51,-28.57 155.5,-19.76"/>
<polygon fill="midnightblue" stroke="midnightblue" points="199.55,-27.67 192.5,-19.76 193.07,-30.34 199.55,-27.67"/>
</g>
<!-- Node3 -->
<g id="node3" class="node">
<title>Node3</title>
<g id="a_node3"><a xlink:href="classrare_1_1components_1_1tabs_1_1settings_1_1widgets_1_1wrappers_1_1_wrapper_settings.html#a2f664fb8f9dae719ea9fb780f3decedc" target="_top" xlink:title=" ">
<polygon fill="white" stroke="black" points="0,-0.5 0,-19.5 90,-19.5 90,-0.5 0,-0.5"/>
<text text-anchor="middle" x="45" y="-7.5" font-family="Helvetica,sans-Serif" font-size="10.00">adjust_scrollarea</text>
</a>
</g>
</g>
<!-- Node2&#45;&gt;Node3 -->
<g id="edge3" class="edge">
<title>Node2&#45;&gt;Node3</title>
<path fill="none" stroke="midnightblue" d="M115.53,-10C107.09,-10 98.51,-10 90.38,-10"/>
<polygon fill="midnightblue" stroke="midnightblue" points="115.71,-13.5 125.71,-10 115.71,-6.5 115.71,-13.5"/>
</g>
<!-- Node3&#45;&gt;Node3 -->
<g id="edge4" class="edge">
<title>Node3&#45;&gt;Node3</title>
<path fill="none" stroke="midnightblue" d="M68.81,-29.03C67.51,-34.13 59.57,-38 45,-38 22.25,-38 15.67,-28.57 25.27,-19.76"/>
<polygon fill="midnightblue" stroke="midnightblue" points="71.96,-27.5 64.73,-19.76 65.55,-30.32 71.96,-27.5"/>
</g>
</g>
</svg>
