<?xml version="1.0" encoding="UTF-8" standalone="no"?>
<!DOCTYPE svg PUBLIC "-//W3C//DTD SVG 1.1//EN"
 "http://www.w3.org/Graphics/SVG/1.1/DTD/svg11.dtd">
<!-- Generated by graphviz version 2.49.3 (20211027.1534)
 -->
<!-- Title: showEvent Pages: 1 -->
<!--zoomable 567 -->
<svg id="main" version="1.1" xmlns="http://www.w3.org/2000/svg" xmlns:xlink="http://www.w3.org/1999/xlink" xml:space="preserve" onload="init(evt)">
<style type="text/css"><![CDATA[
.edge:hover path { stroke: red; }
.edge:hover polygon { stroke: red; fill: red; }
]]></style>
<script type="text/javascript"><![CDATA[
var edges = document.getElementsByTagName('g');
if (edges && edges.length) {
  for (var i=0;i<edges.length;i++) {
    if (edges[i].id.substr(0,4)=='edge') {
      edges[i].setAttribute('class','edge');
    }
  }
}
]]></script>
        <defs>
                <circle id="rim" cx="0" cy="0" r="7"/>
                <circle id="rim2" cx="0" cy="0" r="3.5"/>
                <g id="zoomPlus">
                        <use xlink:href="#rim" fill="#404040">
                                <set attributeName="fill" to="#808080" begin="zoomplus.mouseover" end="zoomplus.mouseout"/>
                        </use>
                        <path d="M-4,0h8M0,-4v8" fill="none" stroke="white" stroke-width="1.5" pointer-events="none"/>
                </g>
                <g id="zoomMin">
                        <use xlink:href="#rim" fill="#404040">
                                <set attributeName="fill" to="#808080" begin="zoomminus.mouseover" end="zoomminus.mouseout"/>
                        </use>
                        <path d="M-4,0h8" fill="none" stroke="white" stroke-width="1.5" pointer-events="none"/>
                </g>
                <g id="dirArrow">
                        <path fill="none" stroke="white" stroke-width="1.5" d="M0,-3.0v7 M-2.5,-0.5L0,-3.0L2.5,-0.5"/>
                </g>
               <g id="resetDef">
                       <use xlink:href="#rim2" fill="#404040">
                               <set attributeName="fill" to="#808080" begin="reset.mouseover" end="reset.mouseout"/>
                       </use>
               </g>
        </defs>

<script type="text/javascript">
var viewWidth = 794;
var viewHeight = 567;
var sectionId = 'dynsection-8';
</script>
<script xlink:href="svgpan.js"/>
<svg id="graph" class="graph">
<g id="viewport">
<title>showEvent</title>
<polygon fill="white" stroke="transparent" points="-4,4 -4,-562.5 790.12,-562.5 790.12,4 -4,4"/>
<!-- Node1 -->
<g id="node1" class="node">
<title>Node1</title>
<g id="a_node1"><a xlink:title=" ">
<polygon fill="#bfbfbf" stroke="black" points="0.12,-303 0.12,-322 65.12,-322 65.12,-303 0.12,-303"/>
<text text-anchor="middle" x="32.62" y="-310" font-family="Helvetica,sans-Serif" font-size="10.00">showEvent</text>
</a>
</g>
</g>
<!-- Node1&#45;&gt;Node1 -->
<g id="edge17" class="edge">
<title>Node1&#45;&gt;Node1</title>
<path fill="none" stroke="midnightblue" d="M6.11,-322.26C-6.79,-331.07 2.04,-340.5 32.62,-340.5 53.15,-340.5 63.88,-336.24 64.8,-330.77"/>
<polygon fill="midnightblue" stroke="midnightblue" points="67.58,-328.64 59.13,-322.26 61.76,-332.52 67.58,-328.64"/>
</g>
<!-- Node2 -->
<g id="node2" class="node">
<title>Node2</title>
<g id="a_node2"><a xlink:href="classrare_1_1components_1_1tabs_1_1settings_1_1widgets_1_1wrappers_1_1_wrapper_settings.html#a5193ba157e081c7b21a588afaa7c1746" target="_top" xlink:title=" ">
<polygon fill="white" stroke="black" points="158.62,-539 158.62,-558 251.62,-558 251.62,-539 158.62,-539"/>
<text text-anchor="middle" x="205.12" y="-546" font-family="Helvetica,sans-Serif" font-size="10.00">__delete_wrapper</text>
</a>
</g>
</g>
<!-- Node1&#45;&gt;Node2 -->
<g id="edge1" class="edge">
<title>Node1&#45;&gt;Node2</title>
<path fill="none" stroke="midnightblue" d="M33.38,-322.12C33.1,-356.27 37.08,-472.67 101.12,-529.5 113.96,-540.89 131.33,-546.47 148.15,-548.97"/>
<polygon fill="midnightblue" stroke="midnightblue" points="148.18,-552.49 158.51,-550.15 148.97,-545.54 148.18,-552.49"/>
</g>
<!-- Node3 -->
<g id="node3" class="node">
<title>Node3</title>
<g id="a_node3"><a xlink:href="classrare_1_1components_1_1tabs_1_1settings_1_1widgets_1_1wrappers_1_1_wrapper_settings.html#af51bd676b20efaecbb69888934c24393" target="_top" xlink:title=" ">
<polygon fill="white" stroke="black" points="161.12,-501 161.12,-520 249.12,-520 249.12,-501 161.12,-501"/>
<text text-anchor="middle" x="205.12" y="-508" font-family="Helvetica,sans-Serif" font-size="10.00">__on_add_result</text>
</a>
</g>
</g>
<!-- Node1&#45;&gt;Node3 -->
<g id="edge2" class="edge">
<title>Node1&#45;&gt;Node3</title>
<path fill="none" stroke="midnightblue" d="M34.09,-322.11C36.15,-352.34 46.84,-446.13 101.12,-491.5 114.88,-503 133.33,-508.46 150.81,-510.83"/>
<polygon fill="midnightblue" stroke="midnightblue" points="150.63,-514.33 160.94,-511.89 151.36,-507.37 150.63,-514.33"/>
</g>
<!-- Node4 -->
<g id="node4" class="node">
<title>Node4</title>
<g id="a_node4"><a xlink:href="classrare_1_1components_1_1tabs_1_1settings_1_1widgets_1_1wrappers_1_1_wrapper_settings.html#a66a23c4983a2af555819a0ce9c5c3b61" target="_top" xlink:title=" ">
<polygon fill="white" stroke="black" points="157.12,-463 157.12,-482 253.12,-482 253.12,-463 157.12,-463"/>
<text text-anchor="middle" x="205.12" y="-470" font-family="Helvetica,sans-Serif" font-size="10.00">__update_wrapper</text>
</a>
</g>
</g>
<!-- Node1&#45;&gt;Node4 -->
<g id="edge3" class="edge">
<title>Node1&#45;&gt;Node4</title>
<path fill="none" stroke="midnightblue" d="M35.46,-322.18C40.78,-347.27 58.54,-414.8 101.12,-448.5 114.17,-458.83 130.9,-464.86 147.06,-468.33"/>
<polygon fill="midnightblue" stroke="midnightblue" points="146.55,-471.79 157.02,-470.18 147.82,-464.91 146.55,-471.79"/>
</g>
<!-- Node5 -->
<g id="node5" class="node">
<title>Node5</title>
<g id="a_node5"><a xlink:href="classrare_1_1components_1_1tabs_1_1settings_1_1widgets_1_1wrappers_1_1_wrapper_settings.html#a8c66b2c6b6ef5832845e0aa7abfda812" target="_top" xlink:title=" ">
<polygon fill="white" stroke="black" points="157.12,-331 157.12,-350 253.12,-350 253.12,-331 157.12,-331"/>
<text text-anchor="middle" x="205.12" y="-338" font-family="Helvetica,sans-Serif" font-size="10.00">add_user_wrapper</text>
</a>
</g>
</g>
<!-- Node1&#45;&gt;Node5 -->
<g id="edge4" class="edge">
<title>Node1&#45;&gt;Node5</title>
<path fill="none" stroke="midnightblue" d="M65.29,-317.7C88.09,-321.45 119.48,-326.6 146.66,-331.06"/>
<polygon fill="midnightblue" stroke="midnightblue" points="146.4,-334.57 156.83,-332.74 147.53,-327.66 146.4,-334.57"/>
</g>
<!-- Node8 -->
<g id="node8" class="node">
<title>Node8</title>
<g id="a_node8"><a xlink:href="classrare_1_1components_1_1tabs_1_1library_1_1integrations_1_1egl__sync__group_1_1_e_g_l_sync_list_item.html#a9c470cc60eae203f55455d0e0d7f5712" target="_top" xlink:title=" ">
<polygon fill="white" stroke="black" points="581.12,-247.5 581.12,-277.5 786.12,-277.5 786.12,-247.5 581.12,-247.5"/>
<text text-anchor="start" x="589.12" y="-265.5" font-family="Helvetica,sans-Serif" font-size="10.00">rare.components.tabs.library.integrations.egl</text>
<text text-anchor="middle" x="683.62" y="-254.5" font-family="Helvetica,sans-Serif" font-size="10.00">_sync_group.EGLSyncListItem.app_name</text>
</a>
</g>
</g>
<!-- Node1&#45;&gt;Node8 -->
<g id="edge16" class="edge">
<title>Node1&#45;&gt;Node8</title>
<path fill="none" stroke="midnightblue" d="M59,-302.9C71.54,-298.4 86.99,-293.22 101.12,-289.5 292.97,-239 347.19,-229.89 545.12,-243.5 555.23,-244.2 565.73,-245.17 576.22,-246.33"/>
<polygon fill="midnightblue" stroke="midnightblue" points="575.92,-249.82 586.26,-247.48 576.72,-242.86 575.92,-249.82"/>
</g>
<!-- Node9 -->
<g id="node9" class="node">
<title>Node9</title>
<g id="a_node9"><a xlink:href="classrare_1_1shared_1_1rare__core_1_1_rare_core.html#a361d22fed4b0c7db6ea4d03e1b0a51ec" target="_top" xlink:title=" ">
<polygon fill="white" stroke="black" points="618.62,-394.5 618.62,-424.5 748.62,-424.5 748.62,-394.5 618.62,-394.5"/>
<text text-anchor="start" x="626.62" y="-412.5" font-family="Helvetica,sans-Serif" font-size="10.00">rare.shared.rare_core.Rare</text>
<text text-anchor="middle" x="683.62" y="-401.5" font-family="Helvetica,sans-Serif" font-size="10.00">Core.wrappers</text>
</a>
</g>
</g>
<!-- Node1&#45;&gt;Node9 -->
<g id="edge34" class="edge">
<title>Node1&#45;&gt;Node9</title>
<path fill="none" stroke="midnightblue" d="M40.65,-322.32C51.71,-336.95 74.67,-364.18 101.12,-377.5 278.11,-466.63 347.05,-424.98 545.12,-418.5 565.57,-417.83 587.71,-416.6 608.12,-415.27"/>
<polygon fill="midnightblue" stroke="midnightblue" points="608.56,-418.75 618.3,-414.58 608.09,-411.76 608.56,-418.75"/>
</g>
<!-- Node10 -->
<g id="node10" class="node">
<title>Node10</title>
<g id="a_node10"><a xlink:href="classrare_1_1components_1_1tabs_1_1library_1_1integrations_1_1eos__group_1_1_eos_prefix_widget.html#aa56afc440f4694cd7d78c59fb3280b60" target="_top" xlink:title=" ">
<polygon fill="white" stroke="black" points="101.12,-134.5 101.12,-164.5 309.12,-164.5 309.12,-134.5 101.12,-134.5"/>
<text text-anchor="start" x="109.12" y="-152.5" font-family="Helvetica,sans-Serif" font-size="10.00">rare.components.tabs.library.integrations.eos</text>
<text text-anchor="middle" x="205.12" y="-141.5" font-family="Helvetica,sans-Serif" font-size="10.00">_group.EosPrefixWidget.update_state</text>
</a>
</g>
</g>
<!-- Node1&#45;&gt;Node10 -->
<g id="edge18" class="edge">
<title>Node1&#45;&gt;Node10</title>
<path fill="none" stroke="midnightblue" d="M36.98,-302.87C44.93,-281.32 66.86,-228.65 101.12,-197.5 114.35,-185.46 131.14,-175.93 147.3,-168.63"/>
<polygon fill="midnightblue" stroke="midnightblue" points="148.9,-171.76 156.71,-164.6 146.14,-165.32 148.9,-171.76"/>
</g>
<!-- Node12 -->
<g id="node12" class="node">
<title>Node12</title>
<g id="a_node12"><a xlink:href="classrare_1_1components_1_1tabs_1_1library_1_1integrations_1_1eos__group_1_1_eos_group.html#ada4904cab960c53f234fc113a7fcf349" target="_top" xlink:title=" ">
<polygon fill="white" stroke="black" points="101.12,-67.5 101.12,-97.5 309.12,-97.5 309.12,-67.5 101.12,-67.5"/>
<text text-anchor="start" x="109.12" y="-85.5" font-family="Helvetica,sans-Serif" font-size="10.00">rare.components.tabs.library.integrations.eos</text>
<text text-anchor="middle" x="205.12" y="-74.5" font-family="Helvetica,sans-Serif" font-size="10.00">_group.EosGroup.update_state</text>
</a>
</g>
</g>
<!-- Node1&#45;&gt;Node12 -->
<g id="edge22" class="edge">
<title>Node1&#45;&gt;Node12</title>
<path fill="none" stroke="midnightblue" d="M34.4,-302.95C37.36,-272.84 50.42,-178.74 101.12,-125.5 110.68,-115.45 122.96,-107.66 135.68,-101.65"/>
<polygon fill="midnightblue" stroke="midnightblue" points="137.23,-104.79 144.99,-97.58 134.42,-98.37 137.23,-104.79"/>
</g>
<!-- Node14 -->
<g id="node14" class="node">
<title>Node14</title>
<g id="a_node14"><a xlink:href="classrare_1_1components_1_1tabs_1_1library_1_1widgets_1_1game__widget_1_1_game_widget.html#ada4904cab960c53f234fc113a7fcf349" target="_top" xlink:title=" ">
<polygon fill="white" stroke="black" points="105.12,-0.5 105.12,-30.5 305.12,-30.5 305.12,-0.5 105.12,-0.5"/>
<text text-anchor="start" x="113.12" y="-18.5" font-family="Helvetica,sans-Serif" font-size="10.00">rare.components.tabs.library.widgets.game</text>
<text text-anchor="middle" x="205.12" y="-7.5" font-family="Helvetica,sans-Serif" font-size="10.00">_widget.GameWidget.update_state</text>
</a>
</g>
</g>
<!-- Node1&#45;&gt;Node14 -->
<g id="edge26" class="edge">
<title>Node1&#45;&gt;Node14</title>
<path fill="none" stroke="midnightblue" d="M33.29,-302.78C32.57,-265.89 34.89,-132.82 101.12,-57.5 109.52,-47.94 120.42,-40.53 131.97,-34.78"/>
<polygon fill="midnightblue" stroke="midnightblue" points="133.69,-37.84 141.34,-30.51 130.79,-31.47 133.69,-37.84"/>
</g>
<!-- Node15 -->
<g id="node15" class="node">
<title>Node15</title>
<g id="a_node15"><a xlink:href="classrare_1_1components_1_1tabs_1_1settings_1_1widgets_1_1wrappers_1_1_wrapper_settings.html#ada4904cab960c53f234fc113a7fcf349" target="_top" xlink:title=" ">
<polygon fill="white" stroke="black" points="408.62,-275 408.62,-294 481.62,-294 481.62,-275 408.62,-275"/>
<text text-anchor="middle" x="445.12" y="-282" font-family="Helvetica,sans-Serif" font-size="10.00">update_state</text>
</a>
</g>
</g>
<!-- Node1&#45;&gt;Node15 -->
<g id="edge29" class="edge">
<title>Node1&#45;&gt;Node15</title>
<path fill="none" stroke="midnightblue" d="M65.14,-310.35C137.23,-305.43 314.35,-293.35 398.41,-287.62"/>
<polygon fill="midnightblue" stroke="midnightblue" points="398.69,-291.11 408.43,-286.93 398.21,-284.12 398.69,-291.11"/>
</g>
<!-- Node5&#45;&gt;Node5 -->
<g id="edge6" class="edge">
<title>Node5&#45;&gt;Node5</title>
<path fill="none" stroke="midnightblue" d="M178.61,-350.26C165.71,-359.07 174.54,-368.5 205.12,-368.5 225.65,-368.5 236.38,-364.24 237.3,-358.77"/>
<polygon fill="midnightblue" stroke="midnightblue" points="240.08,-356.64 231.63,-350.26 234.26,-360.52 240.08,-356.64"/>
</g>
<!-- Node6 -->
<g id="node6" class="node">
<title>Node6</title>
<g id="a_node6"><a xlink:href="classrare_1_1components_1_1tabs_1_1settings_1_1widgets_1_1wrappers_1_1_wrapper_settings.html#a50f01ffa1457fa05b07dbc24d358cbfb" target="_top" xlink:title=" ">
<polygon fill="white" stroke="black" points="642.12,-331 642.12,-350 725.12,-350 725.12,-331 642.12,-331"/>
<text text-anchor="middle" x="683.62" y="-338" font-family="Helvetica,sans-Serif" font-size="10.00">__add_wrapper</text>
</a>
</g>
</g>
<!-- Node5&#45;&gt;Node6 -->
<g id="edge5" class="edge">
<title>Node5&#45;&gt;Node6</title>
<path fill="none" stroke="midnightblue" d="M233.38,-350.02C261.1,-359.16 305.5,-372.32 345.12,-377.5 433.25,-389.03 456.99,-389.15 545.12,-377.5 580.04,-372.88 618.69,-361.94 646.09,-353.15"/>
<polygon fill="midnightblue" stroke="midnightblue" points="647.24,-356.46 655.65,-350.02 645.06,-349.8 647.24,-356.46"/>
</g>
<!-- Node7 -->
<g id="node7" class="node">
<title>Node7</title>
<g id="a_node7"><a xlink:href="classrare_1_1components_1_1tabs_1_1settings_1_1widgets_1_1wrappers_1_1_wrapper_settings.html#a4976da2b2fe198b99aa5df08e0eafc63" target="_top" xlink:title=" ">
<polygon fill="white" stroke="black" points="409.12,-331 409.12,-350 481.12,-350 481.12,-331 409.12,-331"/>
<text text-anchor="middle" x="445.12" y="-338" font-family="Helvetica,sans-Serif" font-size="10.00">add_wrapper</text>
</a>
</g>
</g>
<!-- Node5&#45;&gt;Node7 -->
<g id="edge7" class="edge">
<title>Node5&#45;&gt;Node7</title>
<path fill="none" stroke="midnightblue" d="M253.14,-340.5C295.35,-340.5 356.91,-340.5 398.64,-340.5"/>
<polygon fill="midnightblue" stroke="midnightblue" points="398.8,-344 408.8,-340.5 398.8,-337 398.8,-344"/>
</g>
<!-- Node5&#45;&gt;Node8 -->
<g id="edge14" class="edge">
<title>Node5&#45;&gt;Node8</title>
<path fill="none" stroke="midnightblue" d="M218.64,-330.97C241.98,-313.88 294.39,-278.55 345.12,-265.5 418.66,-246.58 504.23,-246.04 570.81,-250.13"/>
<polygon fill="midnightblue" stroke="midnightblue" points="570.7,-253.63 580.91,-250.8 571.16,-246.65 570.7,-253.63"/>
</g>
<!-- Node5&#45;&gt;Node9 -->
<g id="edge15" class="edge">
<title>Node5&#45;&gt;Node9</title>
<path fill="none" stroke="midnightblue" d="M224.38,-350.04C250.38,-363.07 299.93,-385.91 345.12,-395.5 434.06,-414.38 539.06,-415.52 608.04,-413.49"/>
<polygon fill="midnightblue" stroke="midnightblue" points="608.49,-416.98 618.38,-413.16 608.27,-409.98 608.49,-416.98"/>
</g>
<!-- Node7&#45;&gt;Node6 -->
<g id="edge8" class="edge">
<title>Node7&#45;&gt;Node6</title>
<path fill="none" stroke="midnightblue" d="M481.27,-340.5C521.14,-340.5 586.5,-340.5 631.89,-340.5"/>
<polygon fill="midnightblue" stroke="midnightblue" points="632.11,-344 642.11,-340.5 632.11,-337 632.11,-344"/>
</g>
<!-- Node7&#45;&gt;Node7 -->
<g id="edge9" class="edge">
<title>Node7&#45;&gt;Node7</title>
<path fill="none" stroke="midnightblue" d="M409.03,-349.97C390.32,-358.86 402.35,-368.5 445.12,-368.5 477.86,-368.5 492.58,-362.85 489.29,-356.21"/>
<polygon fill="midnightblue" stroke="midnightblue" points="491.25,-353.3 481.2,-349.97 486.98,-358.85 491.25,-353.3"/>
</g>
<!-- Node7&#45;&gt;Node8 -->
<g id="edge10" class="edge">
<title>Node7&#45;&gt;Node8</title>
<path fill="none" stroke="midnightblue" d="M481.39,-335.63C500.49,-332.52 524.37,-327.86 545.12,-321.5 579.33,-311.01 616.54,-294.73 643.61,-281.92"/>
<polygon fill="midnightblue" stroke="midnightblue" points="645.23,-285.02 652.74,-277.55 642.21,-278.71 645.23,-285.02"/>
</g>
<!-- Node7&#45;&gt;Node9 -->
<g id="edge12" class="edge">
<title>Node7&#45;&gt;Node9</title>
<path fill="none" stroke="midnightblue" d="M479,-350.09C515.66,-360.79 575.75,-378.32 621.17,-391.57"/>
<polygon fill="midnightblue" stroke="midnightblue" points="620.34,-394.98 630.92,-394.42 622.3,-388.26 620.34,-394.98"/>
</g>
<!-- Node8&#45;&gt;Node8 -->
<g id="edge11" class="edge">
<title>Node8&#45;&gt;Node8</title>
<path fill="none" stroke="midnightblue" d="M642.14,-277.66C632.14,-287.06 645.96,-296 683.62,-296 707.15,-296 721.37,-292.51 726.29,-287.59"/>
<polygon fill="midnightblue" stroke="midnightblue" points="729.77,-287.17 725.09,-277.66 722.82,-288.01 729.77,-287.17"/>
</g>
<!-- Node9&#45;&gt;Node9 -->
<g id="edge13" class="edge">
<title>Node9&#45;&gt;Node9</title>
<path fill="none" stroke="midnightblue" d="M642.14,-424.66C632.14,-434.06 645.96,-443 683.62,-443 707.15,-443 721.37,-439.51 726.29,-434.59"/>
<polygon fill="midnightblue" stroke="midnightblue" points="729.77,-434.17 725.09,-424.66 722.82,-435.01 729.77,-434.17"/>
</g>
<!-- Node10&#45;&gt;Node10 -->
<g id="edge21" class="edge">
<title>Node10&#45;&gt;Node10</title>
<path fill="none" stroke="midnightblue" d="M175.14,-164.66C167.91,-174.06 177.9,-183 205.12,-183 221.7,-183 231.88,-179.68 235.68,-174.96"/>
<polygon fill="midnightblue" stroke="midnightblue" points="239.15,-174.44 235.09,-164.66 232.17,-174.84 239.15,-174.44"/>
</g>
<!-- Node11 -->
<g id="node11" class="node">
<title>Node11</title>
<g id="a_node11"><a xlink:href="namespacerare_1_1utils_1_1misc.html#ad964a362f511f9be2d6532129e7bf731" target="_top" xlink:title=" ">
<polygon fill="white" stroke="black" points="387.12,-140 387.12,-159 503.12,-159 503.12,-140 387.12,-140"/>
<text text-anchor="middle" x="445.12" y="-147" font-family="Helvetica,sans-Serif" font-size="10.00">rare.utils.misc.qta_icon</text>
</a>
</g>
</g>
<!-- Node10&#45;&gt;Node11 -->
<g id="edge19" class="edge">
<title>Node10&#45;&gt;Node11</title>
<path fill="none" stroke="midnightblue" d="M309.12,-149.5C332.01,-149.5 355.7,-149.5 376.73,-149.5"/>
<polygon fill="midnightblue" stroke="midnightblue" points="376.82,-153 386.82,-149.5 376.82,-146 376.82,-153"/>
</g>
<!-- Node11&#45;&gt;Node11 -->
<g id="edge20" class="edge">
<title>Node11&#45;&gt;Node11</title>
<path fill="none" stroke="midnightblue" d="M408.73,-159.11C390.45,-167.96 402.58,-177.5 445.12,-177.5 477.02,-177.5 491.81,-172.13 489.51,-165.72"/>
<polygon fill="midnightblue" stroke="midnightblue" points="491.44,-162.78 481.5,-159.11 486.99,-168.18 491.44,-162.78"/>
</g>
<!-- Node12&#45;&gt;Node12 -->
<g id="edge25" class="edge">
<title>Node12&#45;&gt;Node12</title>
<path fill="none" stroke="midnightblue" d="M175.14,-97.66C167.91,-107.06 177.9,-116 205.12,-116 221.7,-116 231.88,-112.68 235.68,-107.96"/>
<polygon fill="midnightblue" stroke="midnightblue" points="239.15,-107.44 235.09,-97.66 232.17,-107.84 239.15,-107.44"/>
</g>
<!-- Node13 -->
<g id="node13" class="node">
<title>Node13</title>
<g id="a_node13"><a xlink:href="classrare_1_1components_1_1tabs_1_1library_1_1widgets_1_1game__widget_1_1_game_widget.html#aa660d748bc3a0c7c2dfaa15cee8e6ba6" target="_top" xlink:title=" ">
<polygon fill="white" stroke="black" points="345.12,-34.5 345.12,-64.5 545.12,-64.5 545.12,-34.5 345.12,-34.5"/>
<text text-anchor="start" x="353.12" y="-52.5" font-family="Helvetica,sans-Serif" font-size="10.00">rare.components.tabs.library.widgets.game</text>
<text text-anchor="middle" x="445.12" y="-41.5" font-family="Helvetica,sans-Serif" font-size="10.00">_widget.GameWidget.ui</text>
</a>
</g>
</g>
<!-- Node12&#45;&gt;Node13 -->
<g id="edge23" class="edge">
<title>Node12&#45;&gt;Node13</title>
<path fill="none" stroke="midnightblue" d="M309.12,-68.22C317.7,-67.03 326.39,-65.82 335.01,-64.63"/>
<polygon fill="midnightblue" stroke="midnightblue" points="335.66,-68.07 345.09,-63.23 334.7,-61.14 335.66,-68.07"/>
</g>
<!-- Node13&#45;&gt;Node13 -->
<g id="edge24" class="edge">
<title>Node13&#45;&gt;Node13</title>
<path fill="none" stroke="midnightblue" d="M403.64,-64.66C393.64,-74.06 407.46,-83 445.12,-83 468.65,-83 482.87,-79.51 487.79,-74.59"/>
<polygon fill="midnightblue" stroke="midnightblue" points="491.27,-74.17 486.59,-64.66 484.32,-75.01 491.27,-74.17"/>
</g>
<!-- Node14&#45;&gt;Node13 -->
<g id="edge27" class="edge">
<title>Node14&#45;&gt;Node13</title>
<path fill="none" stroke="midnightblue" d="M305.33,-29.67C315.18,-31.08 325.22,-32.51 335.16,-33.94"/>
<polygon fill="midnightblue" stroke="midnightblue" points="334.67,-37.4 345.07,-35.35 335.66,-30.47 334.67,-37.4"/>
</g>
<!-- Node14&#45;&gt;Node14 -->
<g id="edge28" class="edge">
<title>Node14&#45;&gt;Node14</title>
<path fill="none" stroke="midnightblue" d="M175.14,-30.66C167.91,-40.06 177.9,-49 205.12,-49 221.7,-49 231.88,-45.68 235.68,-40.96"/>
<polygon fill="midnightblue" stroke="midnightblue" points="239.15,-40.44 235.09,-30.66 232.17,-40.84 239.15,-40.44"/>
</g>
<!-- Node15&#45;&gt;Node6 -->
<g id="edge30" class="edge">
<title>Node15&#45;&gt;Node6</title>
<path fill="none" stroke="midnightblue" d="M481.78,-292.94C521.85,-302.43 587.18,-317.9 632.4,-328.61"/>
<polygon fill="midnightblue" stroke="midnightblue" points="631.76,-332.06 642.3,-330.95 633.37,-325.24 631.76,-332.06"/>
</g>
<!-- Node15&#45;&gt;Node8 -->
<g id="edge31" class="edge">
<title>Node15&#45;&gt;Node8</title>
<path fill="none" stroke="midnightblue" d="M481.78,-281.18C505.69,-278.96 538.61,-275.9 570.88,-272.89"/>
<polygon fill="midnightblue" stroke="midnightblue" points="571.23,-276.38 580.86,-271.97 570.58,-269.41 571.23,-276.38"/>
</g>
<!-- Node15&#45;&gt;Node9 -->
<g id="edge33" class="edge">
<title>Node15&#45;&gt;Node9</title>
<path fill="none" stroke="midnightblue" d="M481.86,-293.56C501.56,-299.57 525.84,-308.73 545.12,-321.5 564.51,-334.35 562.39,-345.7 581.12,-359.5 597.39,-371.5 616.99,-381.93 634.61,-390.12"/>
<polygon fill="midnightblue" stroke="midnightblue" points="633.6,-393.5 644.16,-394.43 636.48,-387.12 633.6,-393.5"/>
</g>
<!-- Node15&#45;&gt;Node15 -->
<g id="edge32" class="edge">
<title>Node15&#45;&gt;Node15</title>
<path fill="none" stroke="midnightblue" d="M408.73,-294.11C390.45,-302.96 402.58,-312.5 445.12,-312.5 477.02,-312.5 491.81,-307.13 489.51,-300.72"/>
<polygon fill="midnightblue" stroke="midnightblue" points="491.44,-297.78 481.5,-294.11 486.99,-303.18 491.44,-297.78"/>
</g>
</g>
</svg>
        <g id="navigator" transform="translate(0 0)" fill="#404254">
                <rect fill="#f2f5e9" fill-opacity="0.5" stroke="#606060" stroke-width=".5" x="0" y="0" width="60" height="60"/>
                <use id="zoomplus" xlink:href="#zoomPlus" x="17" y="9" onmousedown="handleZoom(evt,'in')"/>
                <use id="zoomminus" xlink:href="#zoomMin" x="42" y="9" onmousedown="handleZoom(evt,'out')"/>
                <use id="reset" xlink:href="#resetDef" x="30" y="36" onmousedown="handleReset()"/>
                <g id="arrowUp" xlink:href="#dirArrow" transform="translate(30 24)" onmousedown="handlePan(0,-1)">
                  <use xlink:href="#rim" fill="#404040">
                        <set attributeName="fill" to="#808080" begin="arrowUp.mouseover" end="arrowUp.mouseout"/>
                  </use>
                  <path fill="none" stroke="white" stroke-width="1.5" d="M0,-3.0v7 M-2.5,-0.5L0,-3.0L2.5,-0.5"/>
                </g>
                <g id="arrowRight" xlink:href="#dirArrow" transform="rotate(90) translate(36 -43)" onmousedown="handlePan(1,0)">
                  <use xlink:href="#rim" fill="#404040">
                        <set attributeName="fill" to="#808080" begin="arrowRight.mouseover" end="arrowRight.mouseout"/>
                  </use>
                  <path fill="none" stroke="white" stroke-width="1.5" d="M0,-3.0v7 M-2.5,-0.5L0,-3.0L2.5,-0.5"/>
                </g>
                <g id="arrowDown" xlink:href="#dirArrow" transform="rotate(180) translate(-30 -48)" onmousedown="handlePan(0,1)">
                  <use xlink:href="#rim" fill="#404040">
                        <set attributeName="fill" to="#808080" begin="arrowDown.mouseover" end="arrowDown.mouseout"/>
                  </use>
                  <path fill="none" stroke="white" stroke-width="1.5" d="M0,-3.0v7 M-2.5,-0.5L0,-3.0L2.5,-0.5"/>
                </g>
                <g id="arrowLeft" xlink:href="#dirArrow" transform="rotate(270) translate(-36 17)" onmousedown="handlePan(-1,0)">
                  <use xlink:href="#rim" fill="#404040">
                        <set attributeName="fill" to="#808080" begin="arrowLeft.mouseover" end="arrowLeft.mouseout"/>
                  </use>
                  <path fill="none" stroke="white" stroke-width="1.5" d="M0,-3.0v7 M-2.5,-0.5L0,-3.0L2.5,-0.5"/>
                </g>
        </g>
        <svg viewBox="0 0 15 15" width="100%" height="30px" preserveAspectRatio="xMaxYMin meet">
         <g id="arrow_out" transform="scale(0.3 0.3)">
          <a xlink:href="classrare_1_1components_1_1tabs_1_1settings_1_1widgets_1_1wrappers_1_1_wrapper_settings_a5b6a943cccc85daffddbc61bb1b9345d_cgraph_org.svg" target="_base">
           <rect id="button" ry="5" rx="5" y="6" x="6" height="38" width="38"
                fill="#f2f5e9" fill-opacity="0.5" stroke="#606060" stroke-width="1.0"/>
           <path id="arrow"
             d="M 11.500037,31.436501 C 11.940474,20.09759 22.043105,11.32322 32.158766,21.979434 L 37.068811,17.246167 C 37.068811,17.246167 37.088388,32 37.088388,32 L 22.160133,31.978069 C 22.160133,31.978069 26.997745,27.140456 26.997745,27.140456 C 18.528582,18.264221 13.291696,25.230495 11.500037,31.436501 z"
             style="fill:#404040;"/>
          </a>
         </g>
        </svg>
</svg>
