<?xml version="1.0" encoding="UTF-8" standalone="no"?>
<!DOCTYPE svg PUBLIC "-//W3C//DTD SVG 1.1//EN"
 "http://www.w3.org/Graphics/SVG/1.1/DTD/svg11.dtd">
<!-- Generated by graphviz version 2.49.3 (20211027.1534)
 -->
<!-- Title: parent Pages: 1 -->
<!--zoomable 543 -->
<svg id="main" version="1.1" xmlns="http://www.w3.org/2000/svg" xmlns:xlink="http://www.w3.org/1999/xlink" xml:space="preserve" onload="init(evt)">
<style type="text/css"><![CDATA[
.edge:hover path { stroke: red; }
.edge:hover polygon { stroke: red; fill: red; }
]]></style>
<script type="text/javascript"><![CDATA[
var edges = document.getElementsByTagName('g');
if (edges && edges.length) {
  for (var i=0;i<edges.length;i++) {
    if (edges[i].id.substr(0,4)=='edge') {
      edges[i].setAttribute('class','edge');
    }
  }
}
]]></script>
        <defs>
                <circle id="rim" cx="0" cy="0" r="7"/>
                <circle id="rim2" cx="0" cy="0" r="3.5"/>
                <g id="zoomPlus">
                        <use xlink:href="#rim" fill="#404040">
                                <set attributeName="fill" to="#808080" begin="zoomplus.mouseover" end="zoomplus.mouseout"/>
                        </use>
                        <path d="M-4,0h8M0,-4v8" fill="none" stroke="white" stroke-width="1.5" pointer-events="none"/>
                </g>
                <g id="zoomMin">
                        <use xlink:href="#rim" fill="#404040">
                                <set attributeName="fill" to="#808080" begin="zoomminus.mouseover" end="zoomminus.mouseout"/>
                        </use>
                        <path d="M-4,0h8" fill="none" stroke="white" stroke-width="1.5" pointer-events="none"/>
                </g>
                <g id="dirArrow">
                        <path fill="none" stroke="white" stroke-width="1.5" d="M0,-3.0v7 M-2.5,-0.5L0,-3.0L2.5,-0.5"/>
                </g>
               <g id="resetDef">
                       <use xlink:href="#rim2" fill="#404040">
                               <set attributeName="fill" to="#808080" begin="reset.mouseover" end="reset.mouseout"/>
                       </use>
               </g>
        </defs>

<script type="text/javascript">
var viewWidth = 1079;
var viewHeight = 543;
var sectionId = 'dynsection-23';
</script>
<script xlink:href="svgpan.js"/>
<svg id="graph" class="graph">
<g id="viewport">
<title>parent</title>
<polygon fill="white" stroke="transparent" points="-4,4 -4,-539 1075.03,-539 1075.03,4 -4,4"/>
<!-- Node1 -->
<g id="node1" class="node">
<title>Node1</title>
<g id="a_node1"><a xlink:title=" ">
<polygon fill="#bfbfbf" stroke="black" points="1018,-214 1018,-233 1062,-233 1062,-214 1018,-214"/>
<text text-anchor="middle" x="1040" y="-221" font-family="Helvetica,sans-Serif" font-size="10.00">parent</text>
</a>
</g>
</g>
<!-- Node1&#45;&gt;Node1 -->
<g id="edge7" class="edge">
<title>Node1&#45;&gt;Node1</title>
<path fill="none" stroke="midnightblue" d="M1069.84,-237.9C1073.98,-245.09 1064.03,-251.5 1040,-251.5 1008.61,-251.5 1001.25,-240.56 1017.93,-231.24"/>
<polygon fill="midnightblue" stroke="midnightblue" points="1071.94,-235.09 1062.07,-231.24 1067.39,-240.41 1071.94,-235.09"/>
</g>
<!-- Node2 -->
<g id="node2" class="node">
<title>Node2</title>
<g id="a_node2"><a xlink:href="classrare_1_1widgets_1_1library__layout_1_1_library_layout.html#af9a665960a2cd6b746e70425d7486124" target="_top" xlink:title=" ">
<polygon fill="white" stroke="black" points="14.5,-486.5 14.5,-516.5 148.5,-516.5 148.5,-486.5 14.5,-486.5"/>
<text text-anchor="start" x="22.5" y="-504.5" font-family="Helvetica,sans-Serif" font-size="10.00">rare.widgets.library</text>
<text text-anchor="middle" x="81.5" y="-493.5" font-family="Helvetica,sans-Serif" font-size="10.00">_layout.LibraryLayout.insert</text>
</a>
</g>
</g>
<!-- Node1&#45;&gt;Node2 -->
<g id="edge1" class="edge">
<title>Node1&#45;&gt;Node2</title>
<path fill="none" stroke="midnightblue" d="M1034.59,-243.02C1027.61,-269.87 1011.69,-318.3 982,-348.5 871.2,-461.2 819.04,-501.5 661,-501.5 661,-501.5 661,-501.5 475,-501.5 360.35,-501.5 226.86,-501.5 148.82,-501.5"/>
<polygon fill="midnightblue" stroke="midnightblue" points="1038,-243.8 1036.97,-233.25 1031.2,-242.14 1038,-243.8"/>
</g>
<!-- Node3 -->
<g id="node3" class="node">
<title>Node3</title>
<g id="a_node3"><a xlink:href="classrare_1_1components_1_1tabs_1_1games_1_1game__info_1_1_game_info_tabs.html#a38473d0107ff68c119a1eba5e50a10a6" target="_top" xlink:title=" ">
<polygon fill="white" stroke="black" points="789.5,-146.5 789.5,-176.5 961.5,-176.5 961.5,-146.5 789.5,-146.5"/>
<text text-anchor="start" x="797.5" y="-164.5" font-family="Helvetica,sans-Serif" font-size="10.00">rare.components.tabs.games.game</text>
<text text-anchor="middle" x="875.5" y="-153.5" font-family="Helvetica,sans-Serif" font-size="10.00">_info.GameInfoTabs.keyPressEvent</text>
</a>
</g>
</g>
<!-- Node1&#45;&gt;Node3 -->
<g id="edge3" class="edge">
<title>Node1&#45;&gt;Node3</title>
<path fill="none" stroke="midnightblue" d="M1008.33,-211.8C982.12,-201.8 944.25,-187.35 915.82,-176.5"/>
<polygon fill="midnightblue" stroke="midnightblue" points="1007.17,-215.1 1017.76,-215.39 1009.66,-208.56 1007.17,-215.1"/>
</g>
<!-- Node4 -->
<g id="node4" class="node">
<title>Node4</title>
<g id="a_node4"><a xlink:href="classrare_1_1components_1_1tabs_1_1games_1_1game__info_1_1uninstalled__info_1_1_uninstalled_info_tabs.html#a38473d0107ff68c119a1eba5e50a10a6" target="_top" xlink:title=" ">
<polygon fill="white" stroke="black" points="792,-68 792,-109 959,-109 959,-68 792,-68"/>
<text text-anchor="start" x="800" y="-97" font-family="Helvetica,sans-Serif" font-size="10.00">rare.components.tabs.games.game</text>
<text text-anchor="start" x="800" y="-86" font-family="Helvetica,sans-Serif" font-size="10.00">_info.uninstalled_info.Uninstalled</text>
<text text-anchor="middle" x="875.5" y="-75" font-family="Helvetica,sans-Serif" font-size="10.00">InfoTabs.keyPressEvent</text>
</a>
</g>
</g>
<!-- Node1&#45;&gt;Node4 -->
<g id="edge5" class="edge">
<title>Node1&#45;&gt;Node4</title>
<path fill="none" stroke="midnightblue" d="M1030.55,-204.59C1021.11,-185.29 1004.19,-155.53 982,-136.5 968.94,-125.3 952.84,-116.23 937.18,-109.11"/>
<polygon fill="midnightblue" stroke="midnightblue" points="1027.49,-206.3 1034.91,-213.86 1033.82,-203.32 1027.49,-206.3"/>
</g>
<!-- Node5 -->
<g id="node5" class="node">
<title>Node5</title>
<g id="a_node5"><a xlink:href="classrare_1_1widgets_1_1library__layout_1_1_library_layout.html#a0c76d6c4aeb4752c64514fdb40f8f817" target="_top" xlink:title=" ">
<polygon fill="white" stroke="black" points="10,-352.5 10,-382.5 153,-382.5 153,-352.5 10,-352.5"/>
<text text-anchor="start" x="18" y="-370.5" font-family="Helvetica,sans-Serif" font-size="10.00">rare.widgets.library</text>
<text text-anchor="middle" x="81.5" y="-359.5" font-family="Helvetica,sans-Serif" font-size="10.00">_layout.LibraryLayout.remove</text>
</a>
</g>
</g>
<!-- Node1&#45;&gt;Node5 -->
<g id="edge8" class="edge">
<title>Node1&#45;&gt;Node5</title>
<path fill="none" stroke="midnightblue" d="M1008.01,-232.1C999.63,-234.16 990.51,-236.15 982,-237.5 840.71,-259.97 804.06,-261.5 661,-261.5 661,-261.5 661,-261.5 475,-261.5 413.52,-261.5 251.08,-247.83 199,-280.5 171.68,-297.64 188.26,-323.46 163,-343.5 158.66,-346.94 153.83,-349.9 148.76,-352.42"/>
<polygon fill="midnightblue" stroke="midnightblue" points="1008.97,-235.47 1017.79,-229.6 1007.23,-228.69 1008.97,-235.47"/>
</g>
<!-- Node6 -->
<g id="node6" class="node">
<title>Node6</title>
<g id="a_node6"><a xlink:href="classrare_1_1components_1_1tabs_1_1games_1_1integrations_1_1egl__sync__group_1_1_e_g_l_sync_list_group.html#aafa1e11ada81eb7dd55ad735904ed92f" target="_top" xlink:title=" ">
<polygon fill="white" stroke="black" points="769,-0.5 769,-30.5 982,-30.5 982,-0.5 769,-0.5"/>
<text text-anchor="start" x="777" y="-18.5" font-family="Helvetica,sans-Serif" font-size="10.00">rare.components.tabs.games.integrations.egl</text>
<text text-anchor="middle" x="875.5" y="-7.5" font-family="Helvetica,sans-Serif" font-size="10.00">_sync_group.EGLSyncListGroup.show_errors</text>
</a>
</g>
</g>
<!-- Node1&#45;&gt;Node6 -->
<g id="edge10" class="edge">
<title>Node1&#45;&gt;Node6</title>
<path fill="none" stroke="midnightblue" d="M1037.4,-203.88C1033.64,-169.96 1021.32,-100.02 982,-58.5 970.1,-45.93 954.01,-36.93 937.98,-30.53"/>
<polygon fill="midnightblue" stroke="midnightblue" points="1033.93,-204.29 1038.38,-213.91 1040.9,-203.62 1033.93,-204.29"/>
</g>
<!-- Node7 -->
<g id="node7" class="node">
<title>Node7</title>
<g id="a_node7"><a xlink:href="classrare_1_1widgets_1_1flow__layout_1_1_flow_layout.html#a2e8d545883a85a6757198adec7da2731" target="_top" xlink:title=" ">
<polygon fill="white" stroke="black" points="811,-290.5 811,-320.5 940,-320.5 940,-290.5 811,-290.5"/>
<text text-anchor="start" x="819" y="-308.5" font-family="Helvetica,sans-Serif" font-size="10.00">rare.widgets.flow_layout.</text>
<text text-anchor="middle" x="875.5" y="-297.5" font-family="Helvetica,sans-Serif" font-size="10.00">FlowLayout.smartSpacing</text>
</a>
</g>
</g>
<!-- Node1&#45;&gt;Node7 -->
<g id="edge12" class="edge">
<title>Node1&#45;&gt;Node7</title>
<path fill="none" stroke="midnightblue" d="M1023.85,-241.02C1013.18,-252.35 998.01,-266.58 982,-275.5 969.11,-282.68 954.35,-288.27 940.04,-292.56"/>
<polygon fill="midnightblue" stroke="midnightblue" points="1026.63,-243.17 1030.76,-233.41 1021.44,-238.46 1026.63,-243.17"/>
</g>
<!-- Node13 -->
<g id="node13" class="node">
<title>Node13</title>
<g id="a_node13"><a xlink:href="classrare_1_1widgets_1_1library__layout_1_1_library_layout.html#ac9632f6438f5820ccb6a0b04991a4e7d" target="_top" xlink:title=" ">
<polygon fill="white" stroke="black" points="18,-285.5 18,-315.5 145,-315.5 145,-285.5 18,-285.5"/>
<text text-anchor="start" x="26" y="-303.5" font-family="Helvetica,sans-Serif" font-size="10.00">rare.widgets.library</text>
<text text-anchor="middle" x="81.5" y="-292.5" font-family="Helvetica,sans-Serif" font-size="10.00">_layout.LibraryLayout.sort</text>
</a>
</g>
</g>
<!-- Node1&#45;&gt;Node13 -->
<g id="edge43" class="edge">
<title>Node1&#45;&gt;Node13</title>
<path fill="none" stroke="midnightblue" d="M1007.32,-223.5C942.37,-223.5 789.41,-223.5 661,-223.5 661,-223.5 661,-223.5 475,-223.5 351.87,-223.5 318.09,-216.22 199,-247.5 166.55,-256.02 131.85,-272.93 108.84,-285.37"/>
<polygon fill="midnightblue" stroke="midnightblue" points="1007.69,-227 1017.69,-223.5 1007.69,-220 1007.69,-227"/>
</g>
<!-- Node2&#45;&gt;Node2 -->
<g id="edge2" class="edge">
<title>Node2&#45;&gt;Node2</title>
<path fill="none" stroke="midnightblue" d="M117.04,-526.96C112.63,-531.68 100.78,-535 81.5,-535 49.86,-535 38.24,-526.06 46.65,-516.66"/>
<polygon fill="midnightblue" stroke="midnightblue" points="120.51,-526.41 116.35,-516.66 113.52,-526.87 120.51,-526.41"/>
</g>
<!-- Node3&#45;&gt;Node3 -->
<g id="edge4" class="edge">
<title>Node3&#45;&gt;Node3</title>
<path fill="none" stroke="midnightblue" d="M904.64,-186.96C901.02,-191.68 891.31,-195 875.5,-195 849.55,-195 840.03,-186.06 846.92,-176.66"/>
<polygon fill="midnightblue" stroke="midnightblue" points="908.12,-186.45 904.08,-176.66 901.13,-186.83 908.12,-186.45"/>
</g>
<!-- Node4&#45;&gt;Node4 -->
<g id="edge6" class="edge">
<title>Node4&#45;&gt;Node4</title>
<path fill="none" stroke="midnightblue" d="M903.72,-119.36C899.52,-124.2 890.11,-127.5 875.5,-127.5 852.12,-127.5 842.07,-119.04 845.36,-109.36"/>
<polygon fill="midnightblue" stroke="midnightblue" points="907.19,-119.85 905.64,-109.36 900.31,-118.52 907.19,-119.85"/>
</g>
<!-- Node5&#45;&gt;Node5 -->
<g id="edge9" class="edge">
<title>Node5&#45;&gt;Node5</title>
<path fill="none" stroke="midnightblue" d="M117.04,-392.96C112.63,-397.68 100.78,-401 81.5,-401 49.86,-401 38.24,-392.06 46.65,-382.66"/>
<polygon fill="midnightblue" stroke="midnightblue" points="120.51,-392.41 116.35,-382.66 113.52,-392.87 120.51,-392.41"/>
</g>
<!-- Node6&#45;&gt;Node6 -->
<g id="edge11" class="edge">
<title>Node6&#45;&gt;Node6</title>
<path fill="none" stroke="midnightblue" d="M904.64,-40.96C901.02,-45.68 891.31,-49 875.5,-49 849.55,-49 840.03,-40.06 846.92,-30.66"/>
<polygon fill="midnightblue" stroke="midnightblue" points="908.12,-40.45 904.08,-30.66 901.13,-40.83 908.12,-40.45"/>
</g>
<!-- Node7&#45;&gt;Node7 -->
<g id="edge38" class="edge">
<title>Node7&#45;&gt;Node7</title>
<path fill="none" stroke="midnightblue" d="M904.64,-330.96C901.02,-335.68 891.31,-339 875.5,-339 849.55,-339 840.03,-330.06 846.92,-320.66"/>
<polygon fill="midnightblue" stroke="midnightblue" points="908.12,-330.45 904.08,-320.66 901.13,-330.83 908.12,-330.45"/>
</g>
<!-- Node8 -->
<g id="node8" class="node">
<title>Node8</title>
<g id="a_node8"><a xlink:href="classrare_1_1widgets_1_1flow__layout_1_1_flow_layout.html#a198240b6ed8eb4be3d26adb4ca03aa8d" target="_top" xlink:title=" ">
<polygon fill="white" stroke="black" points="587,-357.5 587,-387.5 733,-387.5 733,-357.5 587,-357.5"/>
<text text-anchor="start" x="595" y="-375.5" font-family="Helvetica,sans-Serif" font-size="10.00">rare.widgets.flow_layout.</text>
<text text-anchor="middle" x="660" y="-364.5" font-family="Helvetica,sans-Serif" font-size="10.00">FlowLayout.horizontalSpacing</text>
</a>
</g>
</g>
<!-- Node7&#45;&gt;Node8 -->
<g id="edge13" class="edge">
<title>Node7&#45;&gt;Node8</title>
<path fill="none" stroke="midnightblue" d="M816.86,-323.59C783.14,-334.17 741.06,-347.38 709.12,-357.4"/>
<polygon fill="midnightblue" stroke="midnightblue" points="818.09,-326.87 826.59,-320.54 816,-320.19 818.09,-326.87"/>
</g>
<!-- Node16 -->
<g id="node16" class="node">
<title>Node16</title>
<g id="a_node16"><a xlink:href="classrare_1_1widgets_1_1flow__layout_1_1_flow_layout.html#a339c0461a90b6d3b3eee250fbc47aefb" target="_top" xlink:title=" ">
<polygon fill="white" stroke="black" points="592,-290.5 592,-320.5 728,-320.5 728,-290.5 592,-290.5"/>
<text text-anchor="start" x="600" y="-308.5" font-family="Helvetica,sans-Serif" font-size="10.00">rare.widgets.flow_layout.</text>
<text text-anchor="middle" x="660" y="-297.5" font-family="Helvetica,sans-Serif" font-size="10.00">FlowLayout.verticalSpacing</text>
</a>
</g>
</g>
<!-- Node7&#45;&gt;Node16 -->
<g id="edge39" class="edge">
<title>Node7&#45;&gt;Node16</title>
<path fill="none" stroke="midnightblue" d="M800.47,-305.5C776.97,-305.5 751.13,-305.5 728.15,-305.5"/>
<polygon fill="midnightblue" stroke="midnightblue" points="800.73,-309 810.73,-305.5 800.73,-302 800.73,-309"/>
</g>
<!-- Node8&#45;&gt;Node8 -->
<g id="edge37" class="edge">
<title>Node8&#45;&gt;Node8</title>
<path fill="none" stroke="midnightblue" d="M692.69,-397.96C688.64,-402.68 677.74,-406 660,-406 630.89,-406 620.2,-397.06 627.93,-387.66"/>
<polygon fill="midnightblue" stroke="midnightblue" points="696.17,-397.43 692.07,-387.66 689.18,-397.85 696.17,-397.43"/>
</g>
<!-- Node9 -->
<g id="node9" class="node">
<title>Node9</title>
<g id="a_node9"><a xlink:href="classrare_1_1widgets_1_1flow__layout_1_1_flow_layout.html#aea5fef774da86c1a120b393f7d8cdd6a" target="_top" xlink:title=" ">
<polygon fill="white" stroke="black" points="415,-357.5 415,-387.5 537,-387.5 537,-357.5 415,-357.5"/>
<text text-anchor="start" x="423" y="-375.5" font-family="Helvetica,sans-Serif" font-size="10.00">rare.widgets.flow_layout.</text>
<text text-anchor="middle" x="476" y="-364.5" font-family="Helvetica,sans-Serif" font-size="10.00">FlowLayout.doLayout</text>
</a>
</g>
</g>
<!-- Node8&#45;&gt;Node9 -->
<g id="edge14" class="edge">
<title>Node8&#45;&gt;Node9</title>
<path fill="none" stroke="midnightblue" d="M576.68,-372.5C563.35,-372.5 549.77,-372.5 537.09,-372.5"/>
<polygon fill="midnightblue" stroke="midnightblue" points="576.81,-376 586.81,-372.5 576.81,-369 576.81,-376"/>
</g>
<!-- Node15 -->
<g id="node15" class="node">
<title>Node15</title>
<g id="a_node15"><a xlink:href="classrare_1_1widgets_1_1library__layout_1_1_library_layout.html#aea5fef774da86c1a120b393f7d8cdd6a" target="_top" xlink:title="Arranges the widgets for this layout.">
<polygon fill="white" stroke="black" points="401,-290.5 401,-320.5 551,-320.5 551,-290.5 401,-290.5"/>
<text text-anchor="start" x="409" y="-308.5" font-family="Helvetica,sans-Serif" font-size="10.00">rare.widgets.library</text>
<text text-anchor="middle" x="476" y="-297.5" font-family="Helvetica,sans-Serif" font-size="10.00">_layout.LibraryLayout.doLayout</text>
</a>
</g>
</g>
<!-- Node8&#45;&gt;Node15 -->
<g id="edge32" class="edge">
<title>Node8&#45;&gt;Node15</title>
<path fill="none" stroke="midnightblue" d="M603.04,-354.16C597.61,-352.28 592.19,-350.38 587,-348.5 562.51,-339.64 535.25,-328.99 513.99,-320.5"/>
<polygon fill="midnightblue" stroke="midnightblue" points="602.19,-357.57 612.79,-357.48 604.45,-350.94 602.19,-357.57"/>
</g>
<!-- Node9&#45;&gt;Node9 -->
<g id="edge15" class="edge">
<title>Node9&#45;&gt;Node9</title>
<path fill="none" stroke="midnightblue" d="M508.69,-397.96C504.64,-402.68 493.74,-406 476,-406 446.89,-406 436.2,-397.06 443.93,-387.66"/>
<polygon fill="midnightblue" stroke="midnightblue" points="512.17,-397.43 508.07,-387.66 505.18,-397.85 512.17,-397.43"/>
</g>
<!-- Node10 -->
<g id="node10" class="node">
<title>Node10</title>
<g id="a_node10"><a xlink:href="classrare_1_1widgets_1_1flow__layout_1_1_flow_layout.html#a79a95bc3b25357794eb45d452b5fa4c6" target="_top" xlink:title=" ">
<polygon fill="white" stroke="black" points="215,-290.5 215,-320.5 349,-320.5 349,-290.5 215,-290.5"/>
<text text-anchor="start" x="223" y="-308.5" font-family="Helvetica,sans-Serif" font-size="10.00">rare.widgets.flow_layout.</text>
<text text-anchor="middle" x="282" y="-297.5" font-family="Helvetica,sans-Serif" font-size="10.00">FlowLayout.heightForWidth</text>
</a>
</g>
</g>
<!-- Node9&#45;&gt;Node10 -->
<g id="edge16" class="edge">
<title>Node9&#45;&gt;Node10</title>
<path fill="none" stroke="midnightblue" d="M417.94,-354.22C412.2,-352.32 406.48,-350.39 401,-348.5 375.02,-339.56 346.03,-329 323.29,-320.59"/>
<polygon fill="midnightblue" stroke="midnightblue" points="416.95,-357.58 427.54,-357.39 419.14,-350.93 416.95,-357.58"/>
</g>
<!-- Node11 -->
<g id="node11" class="node">
<title>Node11</title>
<g id="a_node11"><a xlink:href="classrare_1_1widgets_1_1flow__layout_1_1_flow_layout.html#af87928df2c164a948da59b9e41bcc8e3" target="_top" xlink:title=" ">
<polygon fill="white" stroke="black" points="219.5,-424.5 219.5,-454.5 344.5,-454.5 344.5,-424.5 219.5,-424.5"/>
<text text-anchor="start" x="227.5" y="-442.5" font-family="Helvetica,sans-Serif" font-size="10.00">rare.widgets.flow_layout.</text>
<text text-anchor="middle" x="282" y="-431.5" font-family="Helvetica,sans-Serif" font-size="10.00">FlowLayout.setGeometry</text>
</a>
</g>
</g>
<!-- Node9&#45;&gt;Node11 -->
<g id="edge18" class="edge">
<title>Node9&#45;&gt;Node11</title>
<path fill="none" stroke="midnightblue" d="M429.31,-391.4C409.66,-399.26 386.35,-408.22 365,-415.5 356.01,-418.56 346.4,-421.6 337.03,-424.42"/>
<polygon fill="midnightblue" stroke="midnightblue" points="430.66,-394.63 438.63,-387.65 428.05,-388.13 430.66,-394.63"/>
</g>
<!-- Node14 -->
<g id="node14" class="node">
<title>Node14</title>
<g id="a_node14"><a xlink:href="classrare_1_1widgets_1_1library__layout_1_1_library_layout.html#af87928df2c164a948da59b9e41bcc8e3" target="_top" xlink:title=" ">
<polygon fill="white" stroke="black" points="199,-357.5 199,-387.5 365,-387.5 365,-357.5 199,-357.5"/>
<text text-anchor="start" x="207" y="-375.5" font-family="Helvetica,sans-Serif" font-size="10.00">rare.widgets.library</text>
<text text-anchor="middle" x="282" y="-364.5" font-family="Helvetica,sans-Serif" font-size="10.00">_layout.LibraryLayout.setGeometry</text>
</a>
</g>
</g>
<!-- Node9&#45;&gt;Node14 -->
<g id="edge26" class="edge">
<title>Node9&#45;&gt;Node14</title>
<path fill="none" stroke="midnightblue" d="M404.64,-372.5C391.81,-372.5 378.32,-372.5 365.17,-372.5"/>
<polygon fill="midnightblue" stroke="midnightblue" points="404.78,-376 414.78,-372.5 404.78,-369 404.78,-376"/>
</g>
<!-- Node10&#45;&gt;Node10 -->
<g id="edge17" class="edge">
<title>Node10&#45;&gt;Node10</title>
<path fill="none" stroke="midnightblue" d="M316.47,-330.96C312.19,-335.68 300.7,-339 282,-339 251.31,-339 240.04,-330.06 248.19,-320.66"/>
<polygon fill="midnightblue" stroke="midnightblue" points="319.94,-330.41 315.81,-320.66 312.96,-330.86 319.94,-330.41"/>
</g>
<!-- Node11&#45;&gt;Node2 -->
<g id="edge21" class="edge">
<title>Node11&#45;&gt;Node2</title>
<path fill="none" stroke="midnightblue" d="M225.39,-457.68C205.71,-464.04 183.4,-471.18 163,-477.5 153.53,-480.44 143.41,-483.51 133.65,-486.43"/>
<polygon fill="midnightblue" stroke="midnightblue" points="226.69,-460.94 235.12,-454.53 224.53,-454.28 226.69,-460.94"/>
</g>
<!-- Node11&#45;&gt;Node5 -->
<g id="edge22" class="edge">
<title>Node11&#45;&gt;Node5</title>
<path fill="none" stroke="midnightblue" d="M216.93,-421.46C210.84,-419.53 204.79,-417.53 199,-415.5 170.72,-405.57 139.35,-392.52 116.29,-382.53"/>
<polygon fill="midnightblue" stroke="midnightblue" points="215.9,-424.81 226.49,-424.43 217.97,-418.12 215.9,-424.81"/>
</g>
<!-- Node11&#45;&gt;Node11 -->
<g id="edge23" class="edge">
<title>Node11&#45;&gt;Node11</title>
<path fill="none" stroke="midnightblue" d="M316.47,-464.96C312.19,-469.68 300.7,-473 282,-473 251.31,-473 240.04,-464.06 248.19,-454.66"/>
<polygon fill="midnightblue" stroke="midnightblue" points="319.94,-464.41 315.81,-454.66 312.96,-464.86 319.94,-464.41"/>
</g>
<!-- Node12 -->
<g id="node12" class="node">
<title>Node12</title>
<g id="a_node12"><a xlink:href="classrare_1_1game__launch__helper_1_1console_1_1_console.html#a39d165427992dd2720f91929a88cde17" target="_top" xlink:title=" ">
<polygon fill="white" stroke="black" points="0,-419.5 0,-449.5 163,-449.5 163,-419.5 0,-419.5"/>
<text text-anchor="start" x="8" y="-437.5" font-family="Helvetica,sans-Serif" font-size="10.00">rare.game_launch_helper.console.</text>
<text text-anchor="middle" x="81.5" y="-426.5" font-family="Helvetica,sans-Serif" font-size="10.00">Console.__init__</text>
</a>
</g>
</g>
<!-- Node11&#45;&gt;Node12 -->
<g id="edge19" class="edge">
<title>Node11&#45;&gt;Node12</title>
<path fill="none" stroke="midnightblue" d="M209.11,-437.69C194.2,-437.31 178.38,-436.92 163.17,-436.53"/>
<polygon fill="midnightblue" stroke="midnightblue" points="209.2,-441.19 219.28,-437.95 209.37,-434.19 209.2,-441.19"/>
</g>
<!-- Node11&#45;&gt;Node13 -->
<g id="edge24" class="edge">
<title>Node11&#45;&gt;Node13</title>
<path fill="none" stroke="midnightblue" d="M210.35,-423.22C206.32,-420.97 202.49,-418.41 199,-415.5 171.54,-392.56 187.95,-369.14 163,-343.5 151.62,-331.81 136.36,-322.56 122.19,-315.69"/>
<polygon fill="midnightblue" stroke="midnightblue" points="208.95,-426.43 219.47,-427.67 212.01,-420.14 208.95,-426.43"/>
</g>
<!-- Node12&#45;&gt;Node12 -->
<g id="edge20" class="edge">
<title>Node12&#45;&gt;Node12</title>
<path fill="none" stroke="midnightblue" d="M117.04,-459.96C112.63,-464.68 100.78,-468 81.5,-468 49.86,-468 38.24,-459.06 46.65,-449.66"/>
<polygon fill="midnightblue" stroke="midnightblue" points="120.51,-459.41 116.35,-449.66 113.52,-459.87 120.51,-459.41"/>
</g>
<!-- Node13&#45;&gt;Node13 -->
<g id="edge25" class="edge">
<title>Node13&#45;&gt;Node13</title>
<path fill="none" stroke="midnightblue" d="M117.04,-325.96C112.63,-330.68 100.78,-334 81.5,-334 49.86,-334 38.24,-325.06 46.65,-315.66"/>
<polygon fill="midnightblue" stroke="midnightblue" points="120.51,-325.41 116.35,-315.66 113.52,-325.87 120.51,-325.41"/>
</g>
<!-- Node14&#45;&gt;Node2 -->
<g id="edge28" class="edge">
<title>Node14&#45;&gt;Node2</title>
<path fill="none" stroke="midnightblue" d="M232.76,-392.07C220.84,-398.38 208.71,-406.2 199,-415.5 175.99,-437.54 188.03,-457.78 163,-477.5 158.65,-480.93 153.81,-483.87 148.74,-486.39"/>
<polygon fill="midnightblue" stroke="midnightblue" points="234.42,-395.16 241.79,-387.55 231.28,-388.9 234.42,-395.16"/>
</g>
<!-- Node14&#45;&gt;Node5 -->
<g id="edge29" class="edge">
<title>Node14&#45;&gt;Node5</title>
<path fill="none" stroke="midnightblue" d="M188.83,-370.18C176.86,-369.88 164.76,-369.57 153.22,-369.28"/>
<polygon fill="midnightblue" stroke="midnightblue" points="188.74,-373.68 198.83,-370.43 188.92,-366.68 188.74,-373.68"/>
</g>
<!-- Node14&#45;&gt;Node12 -->
<g id="edge27" class="edge">
<title>Node14&#45;&gt;Node12</title>
<path fill="none" stroke="midnightblue" d="M225.39,-390.68C205.71,-397.04 183.4,-404.18 163,-410.5 153.53,-413.44 143.41,-416.51 133.65,-419.43"/>
<polygon fill="midnightblue" stroke="midnightblue" points="226.69,-393.94 235.12,-387.53 224.53,-387.28 226.69,-393.94"/>
</g>
<!-- Node14&#45;&gt;Node13 -->
<g id="edge31" class="edge">
<title>Node14&#45;&gt;Node13</title>
<path fill="none" stroke="midnightblue" d="M216.93,-354.46C210.84,-352.53 204.79,-350.53 199,-348.5 170.72,-338.57 139.35,-325.52 116.29,-315.53"/>
<polygon fill="midnightblue" stroke="midnightblue" points="215.9,-357.81 226.49,-357.43 217.97,-351.12 215.9,-357.81"/>
</g>
<!-- Node14&#45;&gt;Node14 -->
<g id="edge30" class="edge">
<title>Node14&#45;&gt;Node14</title>
<path fill="none" stroke="midnightblue" d="M316.47,-397.96C312.19,-402.68 300.7,-406 282,-406 251.31,-406 240.04,-397.06 248.19,-387.66"/>
<polygon fill="midnightblue" stroke="midnightblue" points="319.94,-397.41 315.81,-387.66 312.96,-397.86 319.94,-397.41"/>
</g>
<!-- Node15&#45;&gt;Node10 -->
<g id="edge34" class="edge">
<title>Node15&#45;&gt;Node10</title>
<path fill="none" stroke="midnightblue" d="M390.72,-305.5C376.82,-305.5 362.58,-305.5 349.2,-305.5"/>
<polygon fill="midnightblue" stroke="midnightblue" points="390.77,-309 400.77,-305.5 390.77,-302 390.77,-309"/>
</g>
<!-- Node15&#45;&gt;Node11 -->
<g id="edge35" class="edge">
<title>Node15&#45;&gt;Node11</title>
<path fill="none" stroke="midnightblue" d="M431.27,-325.59C420.52,-331.89 409.64,-339.57 401,-348.5 377.5,-372.8 391.26,-394.21 365,-415.5 359.01,-420.36 352.07,-424.23 344.81,-427.32"/>
<polygon fill="midnightblue" stroke="midnightblue" points="433.16,-328.54 440.21,-320.63 429.77,-322.42 433.16,-328.54"/>
</g>
<!-- Node15&#45;&gt;Node14 -->
<g id="edge36" class="edge">
<title>Node15&#45;&gt;Node14</title>
<path fill="none" stroke="midnightblue" d="M429.31,-324.4C409.66,-332.26 386.35,-341.22 365,-348.5 356.01,-351.56 346.4,-354.6 337.03,-357.42"/>
<polygon fill="midnightblue" stroke="midnightblue" points="430.66,-327.63 438.63,-320.65 428.05,-321.13 430.66,-327.63"/>
</g>
<!-- Node15&#45;&gt;Node15 -->
<g id="edge33" class="edge">
<title>Node15&#45;&gt;Node15</title>
<path fill="none" stroke="midnightblue" d="M508.69,-330.96C504.64,-335.68 493.74,-339 476,-339 446.89,-339 436.2,-330.06 443.93,-320.66"/>
<polygon fill="midnightblue" stroke="midnightblue" points="512.17,-330.43 508.07,-320.66 505.18,-330.85 512.17,-330.43"/>
</g>
<!-- Node16&#45;&gt;Node9 -->
<g id="edge40" class="edge">
<title>Node16&#45;&gt;Node9</title>
<path fill="none" stroke="midnightblue" d="M613.35,-324.44C594.2,-332.19 571.62,-341.06 551,-348.5 542.62,-351.53 533.64,-354.59 524.92,-357.46"/>
<polygon fill="midnightblue" stroke="midnightblue" points="614.79,-327.63 622.73,-320.63 612.15,-321.15 614.79,-327.63"/>
</g>
<!-- Node16&#45;&gt;Node15 -->
<g id="edge41" class="edge">
<title>Node16&#45;&gt;Node15</title>
<path fill="none" stroke="midnightblue" d="M581.68,-305.5C571.52,-305.5 561.12,-305.5 551.02,-305.5"/>
<polygon fill="midnightblue" stroke="midnightblue" points="581.75,-309 591.75,-305.5 581.75,-302 581.75,-309"/>
</g>
<!-- Node16&#45;&gt;Node16 -->
<g id="edge42" class="edge">
<title>Node16&#45;&gt;Node16</title>
<path fill="none" stroke="midnightblue" d="M692.69,-330.96C688.64,-335.68 677.74,-339 660,-339 630.89,-339 620.2,-330.06 627.93,-320.66"/>
<polygon fill="midnightblue" stroke="midnightblue" points="696.17,-330.43 692.07,-320.66 689.18,-330.85 696.17,-330.43"/>
</g>
</g>
</svg>
        <g id="navigator" transform="translate(0 0)" fill="#404254">
                <rect fill="#f2f5e9" fill-opacity="0.5" stroke="#606060" stroke-width=".5" x="0" y="0" width="60" height="60"/>
                <use id="zoomplus" xlink:href="#zoomPlus" x="17" y="9" onmousedown="handleZoom(evt,'in')"/>
                <use id="zoomminus" xlink:href="#zoomMin" x="42" y="9" onmousedown="handleZoom(evt,'out')"/>
                <use id="reset" xlink:href="#resetDef" x="30" y="36" onmousedown="handleReset()"/>
                <g id="arrowUp" xlink:href="#dirArrow" transform="translate(30 24)" onmousedown="handlePan(0,-1)">
                  <use xlink:href="#rim" fill="#404040">
                        <set attributeName="fill" to="#808080" begin="arrowUp.mouseover" end="arrowUp.mouseout"/>
                  </use>
                  <path fill="none" stroke="white" stroke-width="1.5" d="M0,-3.0v7 M-2.5,-0.5L0,-3.0L2.5,-0.5"/>
                </g>
                <g id="arrowRight" xlink:href="#dirArrow" transform="rotate(90) translate(36 -43)" onmousedown="handlePan(1,0)">
                  <use xlink:href="#rim" fill="#404040">
                        <set attributeName="fill" to="#808080" begin="arrowRight.mouseover" end="arrowRight.mouseout"/>
                  </use>
                  <path fill="none" stroke="white" stroke-width="1.5" d="M0,-3.0v7 M-2.5,-0.5L0,-3.0L2.5,-0.5"/>
                </g>
                <g id="arrowDown" xlink:href="#dirArrow" transform="rotate(180) translate(-30 -48)" onmousedown="handlePan(0,1)">
                  <use xlink:href="#rim" fill="#404040">
                        <set attributeName="fill" to="#808080" begin="arrowDown.mouseover" end="arrowDown.mouseout"/>
                  </use>
                  <path fill="none" stroke="white" stroke-width="1.5" d="M0,-3.0v7 M-2.5,-0.5L0,-3.0L2.5,-0.5"/>
                </g>
                <g id="arrowLeft" xlink:href="#dirArrow" transform="rotate(270) translate(-36 17)" onmousedown="handlePan(-1,0)">
                  <use xlink:href="#rim" fill="#404040">
                        <set attributeName="fill" to="#808080" begin="arrowLeft.mouseover" end="arrowLeft.mouseout"/>
                  </use>
                  <path fill="none" stroke="white" stroke-width="1.5" d="M0,-3.0v7 M-2.5,-0.5L0,-3.0L2.5,-0.5"/>
                </g>
        </g>
        <svg viewBox="0 0 15 15" width="100%" height="30px" preserveAspectRatio="xMaxYMin meet">
         <g id="arrow_out" transform="scale(0.3 0.3)">
          <a xlink:href="classrare_1_1utils_1_1json__formatter_1_1_q_json_model_acbb44b417d59fdabb258afc05df6e499_icgraph_org.svg" target="_base">
           <rect id="button" ry="5" rx="5" y="6" x="6" height="38" width="38"
                fill="#f2f5e9" fill-opacity="0.5" stroke="#606060" stroke-width="1.0"/>
           <path id="arrow"
             d="M 11.500037,31.436501 C 11.940474,20.09759 22.043105,11.32322 32.158766,21.979434 L 37.068811,17.246167 C 37.068811,17.246167 37.088388,32 37.088388,32 L 22.160133,31.978069 C 22.160133,31.978069 26.997745,27.140456 26.997745,27.140456 C 18.528582,18.264221 13.291696,25.230495 11.500037,31.436501 z"
             style="fill:#404040;"/>
          </a>
         </g>
        </svg>
</svg>
