<?xml version="1.0" encoding="UTF-8" standalone="no"?>
<!DOCTYPE svg PUBLIC "-//W3C//DTD SVG 1.1//EN"
 "http://www.w3.org/Graphics/SVG/1.1/DTD/svg11.dtd">
<!-- Generated by graphviz version 2.49.3 (20211027.1534)
 -->
<!-- Title: remote_version Pages: 1 -->
<svg width="194pt" height="46pt"
 viewBox="0.00 0.00 194.00 46.00" xmlns="http://www.w3.org/2000/svg" xmlns:xlink="http://www.w3.org/1999/xlink">
<g id="graph0" class="graph" transform="scale(1 1) rotate(0) translate(4 42)">
<title>remote_version</title>
<polygon fill="white" stroke="transparent" points="-4,4 -4,-42 190,-42 190,4 -4,4"/>
<!-- Node1 -->
<g id="node1" class="node">
<title>Node1</title>
<g id="a_node1"><a xlink:title="Property to report the remote version of an InstalledGame.">
<polygon fill="#bfbfbf" stroke="black" points="103,-0.5 103,-19.5 186,-19.5 186,-0.5 103,-0.5"/>
<text text-anchor="middle" x="144.5" y="-7.5" font-family="Helvetica,sans-Serif" font-size="10.00">remote_version</text>
</a>
</g>
</g>
<!-- Node1&#45;&gt;Node1 -->
<g id="edge3" class="edge">
<title>Node1&#45;&gt;Node1</title>
<path fill="none" stroke="midnightblue" d="M164.87,-29.4C163.51,-34.31 156.72,-38 144.5,-38 124.95,-38 119.3,-28.57 127.55,-19.76"/>
<polygon fill="midnightblue" stroke="midnightblue" points="168.09,-28.01 161.45,-19.76 161.49,-30.35 168.09,-28.01"/>
</g>
<!-- Node2 -->
<g id="node2" class="node">
<title>Node2</title>
<g id="a_node2"><a xlink:href="classrare_1_1models_1_1game_1_1_rare_game.html#a1e914552c775e095849d4c5e6e6840bd" target="_top" xlink:title="Property to report if an InstalledGame has updates available.">
<polygon fill="white" stroke="black" points="0,-0.5 0,-19.5 67,-19.5 67,-0.5 0,-0.5"/>
<text text-anchor="middle" x="33.5" y="-7.5" font-family="Helvetica,sans-Serif" font-size="10.00">has_update</text>
</a>
</g>
</g>
<!-- Node1&#45;&gt;Node2 -->
<g id="edge1" class="edge">
<title>Node1&#45;&gt;Node2</title>
<path fill="none" stroke="midnightblue" d="M92.84,-10C84.16,-10 75.35,-10 67.3,-10"/>
<polygon fill="midnightblue" stroke="midnightblue" points="92.91,-13.5 102.91,-10 92.91,-6.5 92.91,-13.5"/>
</g>
<!-- Node2&#45;&gt;Node2 -->
<g id="edge2" class="edge">
<title>Node2&#45;&gt;Node2</title>
<path fill="none" stroke="midnightblue" d="M53.87,-29.4C52.51,-34.31 45.72,-38 33.5,-38 13.95,-38 8.3,-28.57 16.55,-19.76"/>
<polygon fill="midnightblue" stroke="midnightblue" points="57.09,-28.01 50.45,-19.76 50.49,-30.35 57.09,-28.01"/>
</g>
</g>
</svg>
