<?xml version="1.0" encoding="UTF-8" standalone="no"?>
<!DOCTYPE svg PUBLIC "-//W3C//DTD SVG 1.1//EN"
 "http://www.w3.org/Graphics/SVG/1.1/DTD/svg11.dtd">
<!-- Generated by graphviz version 2.49.3 (20211027.1534)
 -->
<!-- Title: init_filter Pages: 1 -->
<svg width="537pt" height="119pt"
 viewBox="0.00 0.00 537.00 119.00" xmlns="http://www.w3.org/2000/svg" xmlns:xlink="http://www.w3.org/1999/xlink">
<g id="graph0" class="graph" transform="scale(1 1) rotate(0) translate(4 115)">
<title>init_filter</title>
<polygon fill="white" stroke="transparent" points="-4,4 -4,-115 533,-115 533,4 -4,4"/>
<!-- Node1 -->
<g id="node1" class="node">
<title>Node1</title>
<g id="a_node1"><a xlink:title=" ">
<polygon fill="#bfbfbf" stroke="black" points="0,-37 0,-56 53,-56 53,-37 0,-37"/>
<text text-anchor="middle" x="26.5" y="-44" font-family="Helvetica,sans-Serif" font-size="10.00">init_filter</text>
</a>
</g>
</g>
<!-- Node1&#45;&gt;Node1 -->
<g id="edge1" class="edge">
<title>Node1&#45;&gt;Node1</title>
<path fill="none" stroke="midnightblue" d="M10.47,-56.26C2.67,-65.07 8.02,-74.5 26.5,-74.5 38.05,-74.5 44.47,-70.81 45.76,-65.9"/>
<polygon fill="midnightblue" stroke="midnightblue" points="49.02,-64.63 42.53,-56.26 42.39,-66.85 49.02,-64.63"/>
</g>
<!-- Node2 -->
<g id="node2" class="node">
<title>Node2</title>
<g id="a_node2"><a xlink:href="classrare_1_1components_1_1tabs_1_1shop_1_1shop__widget_1_1_shop_widget.html#ad40685079c149157f03614f3b66fe2f3" target="_top" xlink:title=" ">
<polygon fill="white" stroke="black" points="89,-37 89,-56 175,-56 175,-37 89,-37"/>
<text text-anchor="middle" x="132" y="-44" font-family="Helvetica,sans-Serif" font-size="10.00">prepare_request</text>
</a>
</g>
</g>
<!-- Node1&#45;&gt;Node2 -->
<g id="edge2" class="edge">
<title>Node1&#45;&gt;Node2</title>
<path fill="none" stroke="midnightblue" d="M53.08,-46.5C60.91,-46.5 69.83,-46.5 78.76,-46.5"/>
<polygon fill="midnightblue" stroke="midnightblue" points="78.8,-50 88.8,-46.5 78.8,-43 78.8,-50"/>
</g>
<!-- Node2&#45;&gt;Node2 -->
<g id="edge5" class="edge">
<title>Node2&#45;&gt;Node2</title>
<path fill="none" stroke="midnightblue" d="M115.97,-56.26C108.17,-65.07 113.52,-74.5 132,-74.5 143.55,-74.5 149.97,-70.81 151.26,-65.9"/>
<polygon fill="midnightblue" stroke="midnightblue" points="154.52,-64.63 148.03,-56.26 147.89,-66.85 154.52,-64.63"/>
</g>
<!-- Node3 -->
<g id="node3" class="node">
<title>Node3</title>
<g id="a_node3"><a xlink:href="classrare_1_1shared_1_1rare__core_1_1_rare_core.html#a405e1a4f20f16120f872ccd2654a1d56" target="_top" xlink:title=" ">
<polygon fill="white" stroke="black" points="211,-62.5 211,-92.5 341,-92.5 341,-62.5 211,-62.5"/>
<text text-anchor="start" x="219" y="-80.5" font-family="Helvetica,sans-Serif" font-size="10.00">rare.shared.rare_core.Rare</text>
<text text-anchor="middle" x="276" y="-69.5" font-family="Helvetica,sans-Serif" font-size="10.00">Core.core</text>
</a>
</g>
</g>
<!-- Node2&#45;&gt;Node3 -->
<g id="edge3" class="edge">
<title>Node2&#45;&gt;Node3</title>
<path fill="none" stroke="midnightblue" d="M175.22,-55.72C183.36,-57.49 192.1,-59.4 200.91,-61.33"/>
<polygon fill="midnightblue" stroke="midnightblue" points="200.34,-64.78 210.85,-63.5 201.83,-57.94 200.34,-64.78"/>
</g>
<!-- Node4 -->
<g id="node4" class="node">
<title>Node4</title>
<g id="a_node4"><a xlink:href="classrare_1_1components_1_1tabs_1_1shop_1_1shop__widget_1_1_shop_widget.html#afe8e8ac663d9c09dad3a1364f128945b" target="_top" xlink:title=" ">
<polygon fill="white" stroke="black" points="239,-6 239,-25 313,-25 313,-6 239,-6"/>
<text text-anchor="middle" x="276" y="-13" font-family="Helvetica,sans-Serif" font-size="10.00">show_games</text>
</a>
</g>
</g>
<!-- Node2&#45;&gt;Node4 -->
<g id="edge6" class="edge">
<title>Node2&#45;&gt;Node4</title>
<path fill="none" stroke="midnightblue" d="M175.22,-37.28C192.17,-33.58 211.75,-29.31 229.06,-25.53"/>
<polygon fill="midnightblue" stroke="midnightblue" points="229.92,-28.92 238.94,-23.37 228.43,-22.08 229.92,-28.92"/>
</g>
<!-- Node3&#45;&gt;Node3 -->
<g id="edge4" class="edge">
<title>Node3&#45;&gt;Node3</title>
<path fill="none" stroke="midnightblue" d="M250.91,-92.66C244.85,-102.06 253.22,-111 276,-111 289.88,-111 298.41,-107.68 301.59,-102.96"/>
<polygon fill="midnightblue" stroke="midnightblue" points="305.07,-102.48 301.09,-92.66 298.08,-102.81 305.07,-102.48"/>
</g>
<!-- Node4&#45;&gt;Node4 -->
<g id="edge7" class="edge">
<title>Node4&#45;&gt;Node4</title>
<path fill="none" stroke="midnightblue" d="M253.81,-25.26C243.01,-34.07 250.41,-43.5 276,-43.5 292.8,-43.5 301.76,-39.44 302.88,-34.15"/>
<polygon fill="midnightblue" stroke="midnightblue" points="305.95,-32.47 298.19,-25.26 299.76,-35.74 305.95,-32.47"/>
</g>
<!-- Node5 -->
<g id="node5" class="node">
<title>Node5</title>
<g id="a_node5"><a xlink:href="classrare_1_1components_1_1dialogs_1_1launch__dialog_1_1_image_worker.html#abfb44fdc3f5ec4c03f5d2e72900deb61" target="_top" xlink:title=" ">
<polygon fill="white" stroke="black" points="377,-0.5 377,-30.5 529,-30.5 529,-0.5 377,-0.5"/>
<text text-anchor="start" x="385" y="-18.5" font-family="Helvetica,sans-Serif" font-size="10.00">rare.components.dialogs.launch</text>
<text text-anchor="middle" x="453" y="-7.5" font-family="Helvetica,sans-Serif" font-size="10.00">_dialog.ImageWorker.tr</text>
</a>
</g>
</g>
<!-- Node4&#45;&gt;Node5 -->
<g id="edge8" class="edge">
<title>Node4&#45;&gt;Node5</title>
<path fill="none" stroke="midnightblue" d="M313.26,-15.5C328.87,-15.5 347.85,-15.5 366.69,-15.5"/>
<polygon fill="midnightblue" stroke="midnightblue" points="366.82,-19 376.82,-15.5 366.82,-12 366.82,-19"/>
</g>
<!-- Node5&#45;&gt;Node5 -->
<g id="edge9" class="edge">
<title>Node5&#45;&gt;Node5</title>
<path fill="none" stroke="midnightblue" d="M422.33,-30.66C414.93,-40.06 425.16,-49 453,-49 469.97,-49 480.39,-45.68 484.27,-40.96"/>
<polygon fill="midnightblue" stroke="midnightblue" points="487.75,-40.44 483.67,-30.66 480.76,-40.85 487.75,-40.44"/>
</g>
</g>
</svg>
