<?xml version="1.0" encoding="UTF-8" standalone="no"?>
<!DOCTYPE svg PUBLIC "-//W3C//DTD SVG 1.1//EN"
 "http://www.w3.org/Graphics/SVG/1.1/DTD/svg11.dtd">
<!-- Generated by graphviz version 2.49.3 (20211027.1534)
 -->
<!-- Title: verify_clicked Pages: 1 -->
<!--zoomable 466 -->
<svg id="main" version="1.1" xmlns="http://www.w3.org/2000/svg" xmlns:xlink="http://www.w3.org/1999/xlink" xml:space="preserve" onload="init(evt)">
<style type="text/css"><![CDATA[
.edge:hover path { stroke: red; }
.edge:hover polygon { stroke: red; fill: red; }
]]></style>
<script type="text/javascript"><![CDATA[
var edges = document.getElementsByTagName('g');
if (edges && edges.length) {
  for (var i=0;i<edges.length;i++) {
    if (edges[i].id.substr(0,4)=='edge') {
      edges[i].setAttribute('class','edge');
    }
  }
}
]]></script>
        <defs>
                <circle id="rim" cx="0" cy="0" r="7"/>
                <circle id="rim2" cx="0" cy="0" r="3.5"/>
                <g id="zoomPlus">
                        <use xlink:href="#rim" fill="#404040">
                                <set attributeName="fill" to="#808080" begin="zoomplus.mouseover" end="zoomplus.mouseout"/>
                        </use>
                        <path d="M-4,0h8M0,-4v8" fill="none" stroke="white" stroke-width="1.5" pointer-events="none"/>
                </g>
                <g id="zoomMin">
                        <use xlink:href="#rim" fill="#404040">
                                <set attributeName="fill" to="#808080" begin="zoomminus.mouseover" end="zoomminus.mouseout"/>
                        </use>
                        <path d="M-4,0h8" fill="none" stroke="white" stroke-width="1.5" pointer-events="none"/>
                </g>
                <g id="dirArrow">
                        <path fill="none" stroke="white" stroke-width="1.5" d="M0,-3.0v7 M-2.5,-0.5L0,-3.0L2.5,-0.5"/>
                </g>
               <g id="resetDef">
                       <use xlink:href="#rim2" fill="#404040">
                               <set attributeName="fill" to="#808080" begin="reset.mouseover" end="reset.mouseout"/>
                       </use>
               </g>
        </defs>

<script type="text/javascript">
var viewWidth = 1523;
var viewHeight = 466;
var sectionId = 'dynsection-32';
</script>
<script xlink:href="svgpan.js"/>
<svg id="graph" class="graph">
<g id="viewport">
<title>verify_clicked</title>
<polygon fill="white" stroke="transparent" points="-4,4 -4,-462 1519,-462 1519,4 -4,4"/>
<!-- Node1 -->
<g id="node1" class="node">
<title>Node1</title>
<g id="a_node1"><a xlink:title=" ">
<polygon fill="#bfbfbf" stroke="black" points="0,-186.5 0,-205.5 76,-205.5 76,-186.5 0,-186.5"/>
<text text-anchor="middle" x="38" y="-193.5" font-family="Helvetica,sans-Serif" font-size="10.00">verify_clicked</text>
</a>
</g>
</g>
<!-- Node1&#45;&gt;Node1 -->
<g id="edge53" class="edge">
<title>Node1&#45;&gt;Node1</title>
<path fill="none" stroke="midnightblue" d="M13.96,-205.76C2.26,-214.57 10.27,-224 38,-224 56.2,-224 65.9,-219.94 67.12,-214.65"/>
<polygon fill="midnightblue" stroke="midnightblue" points="70.04,-212.71 62.04,-205.76 63.96,-216.18 70.04,-212.71"/>
</g>
<!-- Node2 -->
<g id="node2" class="node">
<title>Node2</title>
<g id="a_node2"><a xlink:href="classrare_1_1components_1_1dialogs_1_1install__dialog_1_1_install_dialog.html#a138282883753fa5f7af306a3bb35ceaf" target="_top" xlink:title=" ">
<polygon fill="white" stroke="black" points="572.5,-420.5 572.5,-439.5 628.5,-439.5 628.5,-420.5 572.5,-420.5"/>
<text text-anchor="middle" x="600.5" y="-427.5" font-family="Helvetica,sans-Serif" font-size="10.00">error_box</text>
</a>
</g>
</g>
<!-- Node1&#45;&gt;Node2 -->
<g id="edge1" class="edge">
<title>Node1&#45;&gt;Node2</title>
<path fill="none" stroke="midnightblue" d="M47.25,-205.65C78.06,-240.89 191.06,-362.78 315,-406 399.64,-435.51 506.67,-435.31 562.22,-432.64"/>
<polygon fill="midnightblue" stroke="midnightblue" points="562.5,-436.13 572.3,-432.1 562.13,-429.14 562.5,-436.13"/>
</g>
<!-- Node3 -->
<g id="node3" class="node">
<title>Node3</title>
<g id="a_node3"><a xlink:href="classrare_1_1components_1_1dialogs_1_1install__dialog_1_1_install_dialog.html#aca780d78b993a295a93507a4a6d12a69" target="_top" xlink:title=" ">
<polygon fill="white" stroke="black" points="146.5,-224.5 146.5,-243.5 244.5,-243.5 244.5,-224.5 146.5,-224.5"/>
<text text-anchor="middle" x="195.5" y="-231.5" font-family="Helvetica,sans-Serif" font-size="10.00">get_download_info</text>
</a>
</g>
</g>
<!-- Node1&#45;&gt;Node3 -->
<g id="edge3" class="edge">
<title>Node1&#45;&gt;Node3</title>
<path fill="none" stroke="midnightblue" d="M76.25,-205.1C96.97,-210.17 123.03,-216.53 145.4,-222"/>
<polygon fill="midnightblue" stroke="midnightblue" points="144.84,-225.47 155.39,-224.44 146.5,-218.67 144.84,-225.47"/>
</g>
<!-- Node13 -->
<g id="node13" class="node">
<title>Node13</title>
<g id="a_node13"><a xlink:href="classrare_1_1components_1_1dialogs_1_1launch__dialog_1_1_image_worker.html#abfb44fdc3f5ec4c03f5d2e72900deb61" target="_top" xlink:title=" ">
<polygon fill="white" stroke="black" points="524.5,-181 524.5,-211 676.5,-211 676.5,-181 524.5,-181"/>
<text text-anchor="start" x="532.5" y="-199" font-family="Helvetica,sans-Serif" font-size="10.00">rare.components.dialogs.launch</text>
<text text-anchor="middle" x="600.5" y="-188" font-family="Helvetica,sans-Serif" font-size="10.00">_dialog.ImageWorker.tr</text>
</a>
</g>
</g>
<!-- Node1&#45;&gt;Node13 -->
<g id="edge52" class="edge">
<title>Node1&#45;&gt;Node13</title>
<path fill="none" stroke="midnightblue" d="M76.21,-196C164.8,-196 390.05,-196 514.19,-196"/>
<polygon fill="midnightblue" stroke="midnightblue" points="514.41,-199.5 524.41,-196 514.41,-192.5 514.41,-199.5"/>
</g>
<!-- Node20 -->
<g id="node20" class="node">
<title>Node20</title>
<g id="a_node20"><a xlink:href="classrare_1_1components_1_1dialogs_1_1install__dialog_1_1_install_dialog.html#a004987011909ef3b326e6d95f6393ec0" target="_top" xlink:title=" ">
<polygon fill="white" stroke="black" points="162,-130.5 162,-149.5 229,-149.5 229,-130.5 162,-130.5"/>
<text text-anchor="middle" x="195.5" y="-137.5" font-family="Helvetica,sans-Serif" font-size="10.00">get_options</text>
</a>
</g>
</g>
<!-- Node1&#45;&gt;Node20 -->
<g id="edge46" class="edge">
<title>Node1&#45;&gt;Node20</title>
<path fill="none" stroke="midnightblue" d="M65.73,-186.37C91.36,-177.14 130.24,-163.14 158.58,-152.94"/>
<polygon fill="midnightblue" stroke="midnightblue" points="159.89,-156.18 168.12,-149.5 157.52,-149.6 159.89,-156.18"/>
</g>
<!-- Node22 -->
<g id="node22" class="node">
<title>Node22</title>
<g id="a_node22"><a xlink:href="classrare_1_1components_1_1dialogs_1_1uninstall__dialog_1_1_uninstall_dialog.html#ae1375c7c84ae9c095d26a26d20c73d24" target="_top" xlink:title=" ">
<polygon fill="white" stroke="black" points="112,-63 112,-93 279,-93 279,-63 112,-63"/>
<text text-anchor="start" x="120" y="-81" font-family="Helvetica,sans-Serif" font-size="10.00">rare.components.dialogs.uninstall</text>
<text text-anchor="middle" x="195.5" y="-70" font-family="Helvetica,sans-Serif" font-size="10.00">_dialog.UninstallDialog.get_options</text>
</a>
</g>
</g>
<!-- Node1&#45;&gt;Node22 -->
<g id="edge50" class="edge">
<title>Node1&#45;&gt;Node22</title>
<path fill="none" stroke="midnightblue" d="M46.71,-186.28C59.2,-170.97 85.18,-140.96 112,-121 123.78,-112.23 137.6,-104.27 150.53,-97.64"/>
<polygon fill="midnightblue" stroke="midnightblue" points="152.34,-100.65 159.74,-93.06 149.23,-94.38 152.34,-100.65"/>
</g>
<!-- Node2&#45;&gt;Node2 -->
<g id="edge2" class="edge">
<title>Node2&#45;&gt;Node2</title>
<path fill="none" stroke="midnightblue" d="M572.37,-438.46C554.19,-447.61 563.57,-458 600.5,-458 629.35,-458 641.39,-451.66 636.6,-444.52"/>
<polygon fill="midnightblue" stroke="midnightblue" points="638.71,-441.72 628.63,-438.46 634.47,-447.29 638.71,-441.72"/>
</g>
<!-- Node3&#45;&gt;Node3 -->
<g id="edge6" class="edge">
<title>Node3&#45;&gt;Node3</title>
<path fill="none" stroke="midnightblue" d="M171.46,-243.76C159.76,-252.57 167.77,-262 195.5,-262 213.7,-262 223.4,-257.94 224.62,-252.65"/>
<polygon fill="midnightblue" stroke="midnightblue" points="227.54,-250.71 219.54,-243.76 221.46,-254.18 227.54,-250.71"/>
</g>
<!-- Node4 -->
<g id="node4" class="node">
<title>Node4</title>
<g id="a_node4"><a xlink:href="classrare_1_1shared_1_1rare__core_1_1_rare_core.html#a405e1a4f20f16120f872ccd2654a1d56" target="_top" xlink:title=" ">
<polygon fill="white" stroke="black" points="1385,-320 1385,-350 1515,-350 1515,-320 1385,-320"/>
<text text-anchor="start" x="1393" y="-338" font-family="Helvetica,sans-Serif" font-size="10.00">rare.shared.rare_core.Rare</text>
<text text-anchor="middle" x="1450" y="-327" font-family="Helvetica,sans-Serif" font-size="10.00">Core.core</text>
</a>
</g>
</g>
<!-- Node3&#45;&gt;Node4 -->
<g id="edge4" class="edge">
<title>Node3&#45;&gt;Node4</title>
<path fill="none" stroke="midnightblue" d="M230.38,-243.63C246.39,-249.4 265.01,-257.99 279,-270 301.73,-289.52 290.55,-309.69 315,-327 420.86,-401.94 469.8,-392 599.5,-392 599.5,-392 599.5,-392 1128,-392 1219.2,-392 1322.76,-369.42 1387,-352.68"/>
<polygon fill="midnightblue" stroke="midnightblue" points="1388.18,-355.99 1396.96,-350.05 1386.4,-349.22 1388.18,-355.99"/>
</g>
<!-- Node5 -->
<g id="node5" class="node">
<title>Node5</title>
<g id="a_node5"><a xlink:href="classrare_1_1components_1_1dialogs_1_1install__dialog_1_1_install_dialog.html#a36bb64fa9d259feffe5871168f96c4df" target="_top" xlink:title=" ">
<polygon fill="white" stroke="black" points="354,-280.5 354,-299.5 444,-299.5 444,-280.5 354,-280.5"/>
<text text-anchor="middle" x="399" y="-287.5" font-family="Helvetica,sans-Serif" font-size="10.00">on_worker_failed</text>
</a>
</g>
</g>
<!-- Node3&#45;&gt;Node5 -->
<g id="edge7" class="edge">
<title>Node3&#45;&gt;Node5</title>
<path fill="none" stroke="midnightblue" d="M225.05,-243.6C248.94,-251.47 284,-262.63 315,-271 324.32,-273.52 334.29,-275.99 343.97,-278.27"/>
<polygon fill="midnightblue" stroke="midnightblue" points="343.37,-281.73 353.91,-280.57 344.95,-274.91 343.37,-281.73"/>
</g>
<!-- Node14 -->
<g id="node14" class="node">
<title>Node14</title>
<g id="a_node14"><a xlink:href="classrare_1_1components_1_1dialogs_1_1install__dialog_1_1_install_dialog.html#a0e948650b87686717868c3ee60c2c910" target="_top" xlink:title=" ">
<polygon fill="white" stroke="black" points="349,-224.5 349,-243.5 449,-243.5 449,-224.5 349,-224.5"/>
<text text-anchor="middle" x="399" y="-231.5" font-family="Helvetica,sans-Serif" font-size="10.00">on_worker_finished</text>
</a>
</g>
</g>
<!-- Node3&#45;&gt;Node14 -->
<g id="edge33" class="edge">
<title>Node3&#45;&gt;Node14</title>
<path fill="none" stroke="midnightblue" d="M244.51,-234C272.73,-234 308.63,-234 338.62,-234"/>
<polygon fill="midnightblue" stroke="midnightblue" points="338.96,-237.5 348.96,-234 338.96,-230.5 338.96,-237.5"/>
</g>
<!-- Node15 -->
<g id="node15" class="node">
<title>Node15</title>
<g id="a_node15"><a xlink:href="classrare_1_1components_1_1dialogs_1_1install__dialog_1_1_install_dialog.html#affdc8bae01bd071a92392ce437a43bf9" target="_top" xlink:title=" ">
<polygon fill="white" stroke="black" points="353.5,-130.5 353.5,-149.5 444.5,-149.5 444.5,-130.5 353.5,-130.5"/>
<text text-anchor="middle" x="399" y="-137.5" font-family="Helvetica,sans-Serif" font-size="10.00">on_worker_result</text>
</a>
</g>
</g>
<!-- Node3&#45;&gt;Node15 -->
<g id="edge35" class="edge">
<title>Node3&#45;&gt;Node15</title>
<path fill="none" stroke="midnightblue" d="M216.93,-224.47C252.68,-207.79 326.73,-173.25 368.21,-153.9"/>
<polygon fill="midnightblue" stroke="midnightblue" points="369.93,-156.96 377.52,-149.56 366.97,-150.61 369.93,-156.96"/>
</g>
<!-- Node19 -->
<g id="node19" class="node">
<title>Node19</title>
<g id="a_node19"><a xlink:href="namespacerare_1_1app.html#a37fb442592b19edb2dcdd368df2d2d76" target="_top" xlink:title=" ">
<polygon fill="white" stroke="black" points="362.5,-74.5 362.5,-93.5 435.5,-93.5 435.5,-74.5 362.5,-74.5"/>
<text text-anchor="middle" x="399" y="-81.5" font-family="Helvetica,sans-Serif" font-size="10.00">rare.app.start</text>
</a>
</g>
</g>
<!-- Node3&#45;&gt;Node19 -->
<g id="edge44" class="edge">
<title>Node3&#45;&gt;Node19</title>
<path fill="none" stroke="midnightblue" d="M214.43,-224.41C232.25,-214.28 259.63,-197.02 279,-177 299.57,-155.73 292.55,-140.27 315,-121 326.77,-110.9 341.74,-103.1 355.72,-97.32"/>
<polygon fill="midnightblue" stroke="midnightblue" points="357.13,-100.53 365.18,-93.64 354.59,-94 357.13,-100.53"/>
</g>
<!-- Node4&#45;&gt;Node4 -->
<g id="edge5" class="edge">
<title>Node4&#45;&gt;Node4</title>
<path fill="none" stroke="midnightblue" d="M1421.42,-350.16C1414.53,-359.56 1424.05,-368.5 1450,-368.5 1465.81,-368.5 1475.52,-365.18 1479.14,-360.46"/>
<polygon fill="midnightblue" stroke="midnightblue" points="1482.62,-359.95 1478.58,-350.16 1475.63,-360.33 1482.62,-359.95"/>
</g>
<!-- Node5&#45;&gt;Node2 -->
<g id="edge8" class="edge">
<title>Node5&#45;&gt;Node2</title>
<path fill="none" stroke="midnightblue" d="M413.71,-299.62C447.75,-323.51 536.32,-385.67 577.66,-414.67"/>
<polygon fill="midnightblue" stroke="midnightblue" points="575.76,-417.62 585.96,-420.5 579.78,-411.89 575.76,-417.62"/>
</g>
<!-- Node5&#45;&gt;Node5 -->
<g id="edge9" class="edge">
<title>Node5&#45;&gt;Node5</title>
<path fill="none" stroke="midnightblue" d="M368.17,-299.76C353.18,-308.57 363.45,-318 399,-318 423.99,-318 436.49,-313.34 436.5,-307.5"/>
<polygon fill="midnightblue" stroke="midnightblue" points="439,-305.05 429.83,-299.76 433.7,-309.62 439,-305.05"/>
</g>
<!-- Node6 -->
<g id="node6" class="node">
<title>Node6</title>
<g id="a_node6"><a xlink:href="classrare_1_1components_1_1main__window_1_1_main_window.html#a7e95a1a89e48f7f756bcea2a62a14a62" target="_top" xlink:title=" ">
<polygon fill="white" stroke="black" points="531.5,-315 531.5,-345 669.5,-345 669.5,-315 531.5,-315"/>
<text text-anchor="start" x="539.5" y="-333" font-family="Helvetica,sans-Serif" font-size="10.00">rare.components.main</text>
<text text-anchor="middle" x="600.5" y="-322" font-family="Helvetica,sans-Serif" font-size="10.00">_window.MainWindow.show</text>
</a>
</g>
</g>
<!-- Node5&#45;&gt;Node6 -->
<g id="edge10" class="edge">
<title>Node5&#45;&gt;Node6</title>
<path fill="none" stroke="midnightblue" d="M444.28,-298.88C466.97,-303.43 495.29,-309.11 521.51,-314.36"/>
<polygon fill="midnightblue" stroke="midnightblue" points="520.94,-317.82 531.43,-316.35 522.32,-310.95 520.94,-317.82"/>
</g>
<!-- Node12 -->
<g id="node12" class="node">
<title>Node12</title>
<g id="a_node12"><a xlink:href="classrare_1_1game__launch__helper_1_1console_1_1_console.html#a7e95a1a89e48f7f756bcea2a62a14a62" target="_top" xlink:title=" ">
<polygon fill="white" stroke="black" points="519,-248 519,-278 682,-278 682,-248 519,-248"/>
<text text-anchor="start" x="527" y="-266" font-family="Helvetica,sans-Serif" font-size="10.00">rare.game_launch_helper.console.</text>
<text text-anchor="middle" x="600.5" y="-255" font-family="Helvetica,sans-Serif" font-size="10.00">Console.show</text>
</a>
</g>
</g>
<!-- Node5&#45;&gt;Node12 -->
<g id="edge27" class="edge">
<title>Node5&#45;&gt;Node12</title>
<path fill="none" stroke="midnightblue" d="M444.28,-284.01C463.37,-281.42 486.45,-278.3 508.91,-275.26"/>
<polygon fill="midnightblue" stroke="midnightblue" points="509.38,-278.73 518.82,-273.92 508.44,-271.79 509.38,-278.73"/>
</g>
<!-- Node5&#45;&gt;Node13 -->
<g id="edge31" class="edge">
<title>Node5&#45;&gt;Node13</title>
<path fill="none" stroke="midnightblue" d="M444.09,-284.18C457.1,-281.34 471.04,-277.16 483,-271 502.03,-261.19 501.44,-251.24 519,-239 531.13,-230.54 545.12,-222.54 558,-215.78"/>
<polygon fill="midnightblue" stroke="midnightblue" points="559.84,-218.77 567.14,-211.09 556.64,-212.54 559.84,-218.77"/>
</g>
<!-- Node6&#45;&gt;Node6 -->
<g id="edge26" class="edge">
<title>Node6&#45;&gt;Node6</title>
<path fill="none" stroke="midnightblue" d="M565.99,-345.16C557.67,-354.56 569.18,-363.5 600.5,-363.5 619.59,-363.5 631.32,-360.18 635.68,-355.46"/>
<polygon fill="midnightblue" stroke="midnightblue" points="639.15,-354.91 635.01,-345.16 632.17,-355.37 639.15,-354.91"/>
</g>
<!-- Node7 -->
<g id="node7" class="node">
<title>Node7</title>
<g id="a_node7"><a xlink:href="classrare_1_1components_1_1main__window_1_1_main_window.html#a91465b9ae57cdea67cbcbb58986892d7" target="_top" xlink:title=" ">
<polygon fill="white" stroke="black" points="728.5,-304.5 728.5,-345.5 870.5,-345.5 870.5,-304.5 728.5,-304.5"/>
<text text-anchor="start" x="736.5" y="-333.5" font-family="Helvetica,sans-Serif" font-size="10.00">rare.components.main</text>
<text text-anchor="start" x="736.5" y="-322.5" font-family="Helvetica,sans-Serif" font-size="10.00">_window.MainWindow.center</text>
<text text-anchor="middle" x="799.5" y="-311.5" font-family="Helvetica,sans-Serif" font-size="10.00">_window</text>
</a>
</g>
</g>
<!-- Node6&#45;&gt;Node7 -->
<g id="edge11" class="edge">
<title>Node6&#45;&gt;Node7</title>
<path fill="none" stroke="midnightblue" d="M669.57,-328.27C685.17,-327.88 701.9,-327.45 717.97,-327.04"/>
<polygon fill="midnightblue" stroke="midnightblue" points="718.51,-330.53 728.42,-326.78 718.33,-323.53 718.51,-330.53"/>
</g>
<!-- Node11 -->
<g id="node11" class="node">
<title>Node11</title>
<g id="a_node11"><a xlink:href="classrare_1_1game__launch__helper_1_1console_1_1_console.html#a91465b9ae57cdea67cbcbb58986892d7" target="_top" xlink:title=" ">
<polygon fill="white" stroke="black" points="718,-237 718,-267 881,-267 881,-237 718,-237"/>
<text text-anchor="start" x="726" y="-255" font-family="Helvetica,sans-Serif" font-size="10.00">rare.game_launch_helper.console.</text>
<text text-anchor="middle" x="799.5" y="-244" font-family="Helvetica,sans-Serif" font-size="10.00">Console.center_window</text>
</a>
</g>
</g>
<!-- Node6&#45;&gt;Node11 -->
<g id="edge23" class="edge">
<title>Node6&#45;&gt;Node11</title>
<path fill="none" stroke="midnightblue" d="M655.98,-314.92C664.75,-312.16 673.68,-309.15 682,-306 708.45,-295.99 737.3,-282.63 759.67,-271.71"/>
<polygon fill="midnightblue" stroke="midnightblue" points="761.41,-274.76 768.84,-267.2 758.32,-268.48 761.41,-274.76"/>
</g>
<!-- Node7&#45;&gt;Node7 -->
<g id="edge12" class="edge">
<title>Node7&#45;&gt;Node7</title>
<path fill="none" stroke="midnightblue" d="M767.52,-345.86C764.03,-355.54 774.69,-364 799.5,-364 815.01,-364 824.98,-360.7 829.44,-355.86"/>
<polygon fill="midnightblue" stroke="midnightblue" points="832.9,-356.36 831.48,-345.86 826.05,-354.96 832.9,-356.36"/>
</g>
<!-- Node8 -->
<g id="node8" class="node">
<title>Node8</title>
<g id="a_node8"><a xlink:href="classrare_1_1lgndr_1_1cli_1_1_legendary_c_l_i.html#a72a86e9e97d577472c8a8af9e4a67949" target="_top" xlink:title=" ">
<polygon fill="white" stroke="black" points="917,-292 917,-322 1033,-322 1033,-292 917,-292"/>
<text text-anchor="start" x="925" y="-310" font-family="Helvetica,sans-Serif" font-size="10.00">rare.lgndr.cli.Legendary</text>
<text text-anchor="middle" x="975" y="-299" font-family="Helvetica,sans-Serif" font-size="10.00">CLI.move</text>
</a>
</g>
</g>
<!-- Node7&#45;&gt;Node8 -->
<g id="edge13" class="edge">
<title>Node7&#45;&gt;Node8</title>
<path fill="none" stroke="midnightblue" d="M870.57,-317.73C882.5,-316.49 894.87,-315.21 906.72,-313.98"/>
<polygon fill="midnightblue" stroke="midnightblue" points="907.4,-317.43 916.98,-312.92 906.68,-310.47 907.4,-317.43"/>
</g>
<!-- Node8&#45;&gt;Node4 -->
<g id="edge14" class="edge">
<title>Node8&#45;&gt;Node4</title>
<path fill="none" stroke="midnightblue" d="M1033.03,-312.21C1044.91,-313.21 1057.36,-314.19 1069,-315 1175.12,-322.35 1298.08,-328.37 1374.71,-331.82"/>
<polygon fill="midnightblue" stroke="midnightblue" points="1374.6,-335.32 1384.75,-332.27 1374.92,-328.33 1374.6,-335.32"/>
</g>
<!-- Node8&#45;&gt;Node8 -->
<g id="edge22" class="edge">
<title>Node8&#45;&gt;Node8</title>
<path fill="none" stroke="midnightblue" d="M948.51,-322.16C942.12,-331.56 950.95,-340.5 975,-340.5 989.65,-340.5 998.66,-337.18 1002.01,-332.46"/>
<polygon fill="midnightblue" stroke="midnightblue" points="1005.49,-331.97 1001.49,-322.16 998.5,-332.32 1005.49,-331.97"/>
</g>
<!-- Node9 -->
<g id="node9" class="node">
<title>Node9</title>
<g id="a_node9"><a xlink:href="classrare_1_1lgndr_1_1cli_1_1_legendary_c_l_i.html#a4aaa726f3b4643dc9fc5f027294fc9c9" target="_top" xlink:title=" ">
<polygon fill="white" stroke="black" points="1069,-257 1069,-287 1185,-287 1185,-257 1069,-257"/>
<text text-anchor="start" x="1077" y="-275" font-family="Helvetica,sans-Serif" font-size="10.00">rare.lgndr.cli.Legendary</text>
<text text-anchor="middle" x="1127" y="-264" font-family="Helvetica,sans-Serif" font-size="10.00">CLI.install_game</text>
</a>
</g>
</g>
<!-- Node8&#45;&gt;Node9 -->
<g id="edge15" class="edge">
<title>Node8&#45;&gt;Node9</title>
<path fill="none" stroke="midnightblue" d="M1033.14,-293.67C1041.47,-291.72 1050.11,-289.71 1058.62,-287.72"/>
<polygon fill="midnightblue" stroke="midnightblue" points="1059.58,-291.09 1068.53,-285.41 1057.99,-284.27 1059.58,-291.09"/>
</g>
<!-- Node9&#45;&gt;Node4 -->
<g id="edge16" class="edge">
<title>Node9&#45;&gt;Node4</title>
<path fill="none" stroke="midnightblue" d="M1180.41,-287.05C1193.6,-290.57 1207.77,-294.13 1221,-297 1272.04,-308.09 1330.12,-317.72 1374.88,-324.52"/>
<polygon fill="midnightblue" stroke="midnightblue" points="1374.39,-327.98 1384.8,-326.01 1375.43,-321.06 1374.39,-327.98"/>
</g>
<!-- Node9&#45;&gt;Node9 -->
<g id="edge17" class="edge">
<title>Node9&#45;&gt;Node9</title>
<path fill="none" stroke="midnightblue" d="M1100.51,-287.16C1094.12,-296.56 1102.95,-305.5 1127,-305.5 1141.65,-305.5 1150.66,-302.18 1154.01,-297.46"/>
<polygon fill="midnightblue" stroke="midnightblue" points="1157.49,-296.97 1153.49,-287.16 1150.5,-297.32 1157.49,-296.97"/>
</g>
<!-- Node10 -->
<g id="node10" class="node">
<title>Node10</title>
<g id="a_node10"><a xlink:href="classrare_1_1lgndr_1_1cli_1_1_legendary_c_l_i.html#a7de93b9e2b51b491d5c70be49680f66d" target="_top" xlink:title=" ">
<polygon fill="white" stroke="black" points="1221,-239 1221,-269 1349,-269 1349,-239 1221,-239"/>
<text text-anchor="start" x="1229" y="-257" font-family="Helvetica,sans-Serif" font-size="10.00">rare.lgndr.cli.Legendary</text>
<text text-anchor="middle" x="1285" y="-246" font-family="Helvetica,sans-Serif" font-size="10.00">CLI.install_game_cleanup</text>
</a>
</g>
</g>
<!-- Node9&#45;&gt;Node10 -->
<g id="edge18" class="edge">
<title>Node9&#45;&gt;Node10</title>
<path fill="none" stroke="midnightblue" d="M1185.2,-258.87C1193.52,-257.73 1202.17,-256.66 1210.74,-255.71"/>
<polygon fill="midnightblue" stroke="midnightblue" points="1211.17,-259.19 1220.75,-254.66 1210.44,-252.23 1211.17,-259.19"/>
</g>
<!-- Node10&#45;&gt;Node4 -->
<g id="edge19" class="edge">
<title>Node10&#45;&gt;Node4</title>
<path fill="none" stroke="midnightblue" d="M1316.28,-269.05C1342.5,-282.08 1380.62,-301.02 1409.28,-315.26"/>
<polygon fill="midnightblue" stroke="midnightblue" points="1408.1,-318.58 1418.61,-319.9 1411.21,-312.31 1408.1,-318.58"/>
</g>
<!-- Node10&#45;&gt;Node9 -->
<g id="edge20" class="edge">
<title>Node10&#45;&gt;Node9</title>
<path fill="none" stroke="midnightblue" d="M1220.75,-267.94C1212.39,-269.03 1203.8,-270.04 1195.37,-270.92"/>
<polygon fill="midnightblue" stroke="midnightblue" points="1194.81,-267.46 1185.2,-271.93 1195.5,-274.42 1194.81,-267.46"/>
</g>
<!-- Node10&#45;&gt;Node10 -->
<g id="edge21" class="edge">
<title>Node10&#45;&gt;Node10</title>
<path fill="none" stroke="midnightblue" d="M1257.47,-269.16C1250.83,-278.56 1260,-287.5 1285,-287.5 1300.23,-287.5 1309.59,-284.18 1313.07,-279.46"/>
<polygon fill="midnightblue" stroke="midnightblue" points="1316.55,-278.96 1312.53,-269.16 1309.56,-279.33 1316.55,-278.96"/>
</g>
<!-- Node11&#45;&gt;Node8 -->
<g id="edge25" class="edge">
<title>Node11&#45;&gt;Node8</title>
<path fill="none" stroke="midnightblue" d="M847.91,-267.03C869.23,-273.79 894.58,-281.82 916.94,-288.91"/>
<polygon fill="midnightblue" stroke="midnightblue" points="916.06,-292.3 926.65,-291.99 918.17,-285.63 916.06,-292.3"/>
</g>
<!-- Node11&#45;&gt;Node11 -->
<g id="edge24" class="edge">
<title>Node11&#45;&gt;Node11</title>
<path fill="none" stroke="midnightblue" d="M769.18,-267.16C761.86,-276.56 771.97,-285.5 799.5,-285.5 816.27,-285.5 826.58,-282.18 830.42,-277.46"/>
<polygon fill="midnightblue" stroke="midnightblue" points="833.89,-276.94 829.82,-267.16 826.91,-277.34 833.89,-276.94"/>
</g>
<!-- Node12&#45;&gt;Node7 -->
<g id="edge28" class="edge">
<title>Node12&#45;&gt;Node7</title>
<path fill="none" stroke="midnightblue" d="M649.19,-278.01C671.4,-285 698.37,-293.49 723.24,-301.31"/>
<polygon fill="midnightblue" stroke="midnightblue" points="722.43,-304.73 733.02,-304.39 724.53,-298.05 722.43,-304.73"/>
</g>
<!-- Node12&#45;&gt;Node11 -->
<g id="edge29" class="edge">
<title>Node12&#45;&gt;Node11</title>
<path fill="none" stroke="midnightblue" d="M682.2,-258.49C690.67,-258.02 699.33,-257.54 707.91,-257.06"/>
<polygon fill="midnightblue" stroke="midnightblue" points="708.14,-260.55 717.93,-256.5 707.75,-253.56 708.14,-260.55"/>
</g>
<!-- Node12&#45;&gt;Node12 -->
<g id="edge30" class="edge">
<title>Node12&#45;&gt;Node12</title>
<path fill="none" stroke="midnightblue" d="M565.99,-278.16C557.67,-287.56 569.18,-296.5 600.5,-296.5 619.59,-296.5 631.32,-293.18 635.68,-288.46"/>
<polygon fill="midnightblue" stroke="midnightblue" points="639.15,-287.91 635.01,-278.16 632.17,-288.37 639.15,-287.91"/>
</g>
<!-- Node13&#45;&gt;Node13 -->
<g id="edge32" class="edge">
<title>Node13&#45;&gt;Node13</title>
<path fill="none" stroke="midnightblue" d="M565.99,-211.16C557.67,-220.56 569.18,-229.5 600.5,-229.5 619.59,-229.5 631.32,-226.18 635.68,-221.46"/>
<polygon fill="midnightblue" stroke="midnightblue" points="639.15,-220.91 635.01,-211.16 632.17,-221.37 639.15,-220.91"/>
</g>
<!-- Node14&#45;&gt;Node14 -->
<g id="edge34" class="edge">
<title>Node14&#45;&gt;Node14</title>
<path fill="none" stroke="midnightblue" d="M368.17,-243.76C353.18,-252.57 363.45,-262 399,-262 423.99,-262 436.49,-257.34 436.5,-251.5"/>
<polygon fill="midnightblue" stroke="midnightblue" points="439,-249.05 429.83,-243.76 433.7,-253.62 439,-249.05"/>
</g>
<!-- Node15&#45;&gt;Node13 -->
<g id="edge43" class="edge">
<title>Node15&#45;&gt;Node13</title>
<path fill="none" stroke="midnightblue" d="M434.3,-149.63C462.18,-157.45 502.28,-168.71 535.99,-178.17"/>
<polygon fill="midnightblue" stroke="midnightblue" points="535.2,-181.59 545.77,-180.92 537.09,-174.85 535.2,-181.59"/>
</g>
<!-- Node15&#45;&gt;Node15 -->
<g id="edge42" class="edge">
<title>Node15&#45;&gt;Node15</title>
<path fill="none" stroke="midnightblue" d="M368.17,-149.76C353.18,-158.57 363.45,-168 399,-168 423.99,-168 436.49,-163.34 436.5,-157.5"/>
<polygon fill="midnightblue" stroke="midnightblue" points="439,-155.05 429.83,-149.76 433.7,-159.62 439,-155.05"/>
</g>
<!-- Node16 -->
<g id="node16" class="node">
<title>Node16</title>
<g id="a_node16"><a xlink:href="namespacerare_1_1shared.html#a5acede398e4ceb67fa3e6bc1c91734d0" target="_top" xlink:title=" ">
<polygon fill="white" stroke="black" points="523,-124.5 523,-143.5 678,-143.5 678,-124.5 523,-124.5"/>
<text text-anchor="middle" x="600.5" y="-131.5" font-family="Helvetica,sans-Serif" font-size="10.00">rare.shared.ArgumentsSingleton</text>
</a>
</g>
</g>
<!-- Node15&#45;&gt;Node16 -->
<g id="edge36" class="edge">
<title>Node15&#45;&gt;Node16</title>
<path fill="none" stroke="midnightblue" d="M444.77,-138.65C464.79,-138.05 489.1,-137.32 512.46,-136.62"/>
<polygon fill="midnightblue" stroke="midnightblue" points="512.86,-140.11 522.75,-136.31 512.65,-133.11 512.86,-140.11"/>
</g>
<!-- Node17 -->
<g id="node17" class="node">
<title>Node17</title>
<g id="a_node17"><a xlink:href="classrare_1_1components_1_1main__window_1_1_main_window.html#ad9f81f4c56e23ca3c206b1e9374fc137" target="_top" xlink:title=" ">
<polygon fill="white" stroke="black" points="531.5,-57 531.5,-87 669.5,-87 669.5,-57 531.5,-57"/>
<text text-anchor="start" x="539.5" y="-75" font-family="Helvetica,sans-Serif" font-size="10.00">rare.components.main</text>
<text text-anchor="middle" x="600.5" y="-64" font-family="Helvetica,sans-Serif" font-size="10.00">_window.MainWindow.close</text>
</a>
</g>
</g>
<!-- Node15&#45;&gt;Node17 -->
<g id="edge38" class="edge">
<title>Node15&#45;&gt;Node17</title>
<path fill="none" stroke="midnightblue" d="M444.75,-131.25C457.25,-128.4 470.76,-124.94 483,-121 508.65,-112.74 536.51,-101.12 558.55,-91.28"/>
<polygon fill="midnightblue" stroke="midnightblue" points="560.25,-94.35 567.92,-87.04 557.37,-87.97 560.25,-94.35"/>
</g>
<!-- Node18 -->
<g id="node18" class="node">
<title>Node18</title>
<g id="a_node18"><a xlink:href="namespacerare_1_1utils_1_1misc.html#a1316c13802b7e0cd9c6301199c789346" target="_top" xlink:title=" ">
<polygon fill="white" stroke="black" points="543,-0.5 543,-19.5 658,-19.5 658,-0.5 543,-0.5"/>
<text text-anchor="middle" x="600.5" y="-7.5" font-family="Helvetica,sans-Serif" font-size="10.00">rare.utils.misc.get_size</text>
</a>
</g>
</g>
<!-- Node15&#45;&gt;Node18 -->
<g id="edge40" class="edge">
<title>Node15&#45;&gt;Node18</title>
<path fill="none" stroke="midnightblue" d="M444.58,-137.19C458.04,-134.5 472.12,-129.65 483,-121 511.63,-98.24 492.86,-72.58 519,-47 529.44,-36.79 543.21,-29.06 556.4,-23.38"/>
<polygon fill="midnightblue" stroke="midnightblue" points="557.87,-26.56 565.85,-19.6 555.27,-20.06 557.87,-26.56"/>
</g>
<!-- Node16&#45;&gt;Node16 -->
<g id="edge37" class="edge">
<title>Node16&#45;&gt;Node16</title>
<path fill="none" stroke="midnightblue" d="M569.98,-143.76C555.14,-152.57 565.31,-162 600.5,-162 625.24,-162 637.62,-157.34 637.62,-151.5"/>
<polygon fill="midnightblue" stroke="midnightblue" points="640.17,-149.09 631.02,-143.76 634.84,-153.64 640.17,-149.09"/>
</g>
<!-- Node17&#45;&gt;Node17 -->
<g id="edge39" class="edge">
<title>Node17&#45;&gt;Node17</title>
<path fill="none" stroke="midnightblue" d="M565.99,-87.16C557.67,-96.56 569.18,-105.5 600.5,-105.5 619.59,-105.5 631.32,-102.18 635.68,-97.46"/>
<polygon fill="midnightblue" stroke="midnightblue" points="639.15,-96.91 635.01,-87.16 632.17,-97.37 639.15,-96.91"/>
</g>
<!-- Node18&#45;&gt;Node18 -->
<g id="edge41" class="edge">
<title>Node18&#45;&gt;Node18</title>
<path fill="none" stroke="midnightblue" d="M569.98,-19.76C555.14,-28.57 565.31,-38 600.5,-38 625.24,-38 637.62,-33.34 637.62,-27.5"/>
<polygon fill="midnightblue" stroke="midnightblue" points="640.17,-25.09 631.02,-19.76 634.84,-29.64 640.17,-25.09"/>
</g>
<!-- Node19&#45;&gt;Node19 -->
<g id="edge45" class="edge">
<title>Node19&#45;&gt;Node19</title>
<path fill="none" stroke="midnightblue" d="M368.17,-93.76C353.18,-102.57 363.45,-112 399,-112 423.99,-112 436.49,-107.34 436.5,-101.5"/>
<polygon fill="midnightblue" stroke="midnightblue" points="439,-99.05 429.83,-93.76 433.7,-103.62 439,-99.05"/>
</g>
<!-- Node20&#45;&gt;Node20 -->
<g id="edge47" class="edge">
<title>Node20&#45;&gt;Node20</title>
<path fill="none" stroke="midnightblue" d="M171.46,-149.76C159.76,-158.57 167.77,-168 195.5,-168 213.7,-168 223.4,-163.94 224.62,-158.65"/>
<polygon fill="midnightblue" stroke="midnightblue" points="227.54,-156.71 219.54,-149.76 221.46,-160.18 227.54,-156.71"/>
</g>
<!-- Node21 -->
<g id="node21" class="node">
<title>Node21</title>
<g id="a_node21"><a xlink:href="classrare_1_1lgndr_1_1api__monkeys_1_1_d_l_manager_signals.html#a2e157b8a54419ee393d56143a3260aa9" target="_top" xlink:title=" ">
<polygon fill="white" stroke="black" points="315,-7 315,-37 483,-37 483,-7 315,-7"/>
<text text-anchor="start" x="323" y="-25" font-family="Helvetica,sans-Serif" font-size="10.00">rare.lgndr.api_monkeys.DLManager</text>
<text text-anchor="middle" x="399" y="-14" font-family="Helvetica,sans-Serif" font-size="10.00">Signals.update</text>
</a>
</g>
</g>
<!-- Node20&#45;&gt;Node21 -->
<g id="edge48" class="edge">
<title>Node20&#45;&gt;Node21</title>
<path fill="none" stroke="midnightblue" d="M229.38,-137.7C245.52,-135.23 264.55,-130.2 279,-120 302.87,-103.16 293.32,-84.58 315,-65 325.17,-55.81 337.67,-48 349.85,-41.67"/>
<polygon fill="midnightblue" stroke="midnightblue" points="351.64,-44.68 359.05,-37.11 348.54,-38.41 351.64,-44.68"/>
</g>
<!-- Node21&#45;&gt;Node21 -->
<g id="edge49" class="edge">
<title>Node21&#45;&gt;Node21</title>
<path fill="none" stroke="midnightblue" d="M364.15,-37.16C355.74,-46.56 367.36,-55.5 399,-55.5 418.28,-55.5 430.13,-52.18 434.54,-47.46"/>
<polygon fill="midnightblue" stroke="midnightblue" points="438.01,-46.91 433.85,-37.16 431.02,-47.37 438.01,-46.91"/>
</g>
<!-- Node22&#45;&gt;Node22 -->
<g id="edge51" class="edge">
<title>Node22&#45;&gt;Node22</title>
<path fill="none" stroke="midnightblue" d="M168.31,-93.16C161.76,-102.56 170.82,-111.5 195.5,-111.5 210.54,-111.5 219.78,-108.18 223.22,-103.46"/>
<polygon fill="midnightblue" stroke="midnightblue" points="226.7,-102.96 222.69,-93.16 219.71,-103.33 226.7,-102.96"/>
</g>
</g>
</svg>
        <g id="navigator" transform="translate(0 0)" fill="#404254">
                <rect fill="#f2f5e9" fill-opacity="0.5" stroke="#606060" stroke-width=".5" x="0" y="0" width="60" height="60"/>
                <use id="zoomplus" xlink:href="#zoomPlus" x="17" y="9" onmousedown="handleZoom(evt,'in')"/>
                <use id="zoomminus" xlink:href="#zoomMin" x="42" y="9" onmousedown="handleZoom(evt,'out')"/>
                <use id="reset" xlink:href="#resetDef" x="30" y="36" onmousedown="handleReset()"/>
                <g id="arrowUp" xlink:href="#dirArrow" transform="translate(30 24)" onmousedown="handlePan(0,-1)">
                  <use xlink:href="#rim" fill="#404040">
                        <set attributeName="fill" to="#808080" begin="arrowUp.mouseover" end="arrowUp.mouseout"/>
                  </use>
                  <path fill="none" stroke="white" stroke-width="1.5" d="M0,-3.0v7 M-2.5,-0.5L0,-3.0L2.5,-0.5"/>
                </g>
                <g id="arrowRight" xlink:href="#dirArrow" transform="rotate(90) translate(36 -43)" onmousedown="handlePan(1,0)">
                  <use xlink:href="#rim" fill="#404040">
                        <set attributeName="fill" to="#808080" begin="arrowRight.mouseover" end="arrowRight.mouseout"/>
                  </use>
                  <path fill="none" stroke="white" stroke-width="1.5" d="M0,-3.0v7 M-2.5,-0.5L0,-3.0L2.5,-0.5"/>
                </g>
                <g id="arrowDown" xlink:href="#dirArrow" transform="rotate(180) translate(-30 -48)" onmousedown="handlePan(0,1)">
                  <use xlink:href="#rim" fill="#404040">
                        <set attributeName="fill" to="#808080" begin="arrowDown.mouseover" end="arrowDown.mouseout"/>
                  </use>
                  <path fill="none" stroke="white" stroke-width="1.5" d="M0,-3.0v7 M-2.5,-0.5L0,-3.0L2.5,-0.5"/>
                </g>
                <g id="arrowLeft" xlink:href="#dirArrow" transform="rotate(270) translate(-36 17)" onmousedown="handlePan(-1,0)">
                  <use xlink:href="#rim" fill="#404040">
                        <set attributeName="fill" to="#808080" begin="arrowLeft.mouseover" end="arrowLeft.mouseout"/>
                  </use>
                  <path fill="none" stroke="white" stroke-width="1.5" d="M0,-3.0v7 M-2.5,-0.5L0,-3.0L2.5,-0.5"/>
                </g>
        </g>
        <svg viewBox="0 0 15 15" width="100%" height="30px" preserveAspectRatio="xMaxYMin meet">
         <g id="arrow_out" transform="scale(0.3 0.3)">
          <a xlink:href="classrare_1_1components_1_1dialogs_1_1install__dialog_1_1_install_dialog_a77e69cb6973b2c8a40dfed17abe7d453_cgraph_org.svg" target="_base">
           <rect id="button" ry="5" rx="5" y="6" x="6" height="38" width="38"
                fill="#f2f5e9" fill-opacity="0.5" stroke="#606060" stroke-width="1.0"/>
           <path id="arrow"
             d="M 11.500037,31.436501 C 11.940474,20.09759 22.043105,11.32322 32.158766,21.979434 L 37.068811,17.246167 C 37.068811,17.246167 37.088388,32 37.088388,32 L 22.160133,31.978069 C 22.160133,31.978069 26.997745,27.140456 26.997745,27.140456 C 18.528582,18.264221 13.291696,25.230495 11.500037,31.436501 z"
             style="fill:#404040;"/>
          </a>
         </g>
        </svg>
</svg>
