<?xml version="1.0" encoding="UTF-8" standalone="no"?>
<!DOCTYPE svg PUBLIC "-//W3C//DTD SVG 1.1//EN"
 "http://www.w3.org/Graphics/SVG/1.1/DTD/svg11.dtd">
<!-- Generated by graphviz version 2.49.3 (20211027.1534)
 -->
<!-- Title: import_game Pages: 1 -->
<!--zoomable 274 -->
<svg id="main" version="1.1" xmlns="http://www.w3.org/2000/svg" xmlns:xlink="http://www.w3.org/1999/xlink" xml:space="preserve" onload="init(evt)">
<style type="text/css"><![CDATA[
.edge:hover path { stroke: red; }
.edge:hover polygon { stroke: red; fill: red; }
]]></style>
<script type="text/javascript"><![CDATA[
var edges = document.getElementsByTagName('g');
if (edges && edges.length) {
  for (var i=0;i<edges.length;i++) {
    if (edges[i].id.substr(0,4)=='edge') {
      edges[i].setAttribute('class','edge');
    }
  }
}
]]></script>
        <defs>
                <circle id="rim" cx="0" cy="0" r="7"/>
                <circle id="rim2" cx="0" cy="0" r="3.5"/>
                <g id="zoomPlus">
                        <use xlink:href="#rim" fill="#404040">
                                <set attributeName="fill" to="#808080" begin="zoomplus.mouseover" end="zoomplus.mouseout"/>
                        </use>
                        <path d="M-4,0h8M0,-4v8" fill="none" stroke="white" stroke-width="1.5" pointer-events="none"/>
                </g>
                <g id="zoomMin">
                        <use xlink:href="#rim" fill="#404040">
                                <set attributeName="fill" to="#808080" begin="zoomminus.mouseover" end="zoomminus.mouseout"/>
                        </use>
                        <path d="M-4,0h8" fill="none" stroke="white" stroke-width="1.5" pointer-events="none"/>
                </g>
                <g id="dirArrow">
                        <path fill="none" stroke="white" stroke-width="1.5" d="M0,-3.0v7 M-2.5,-0.5L0,-3.0L2.5,-0.5"/>
                </g>
               <g id="resetDef">
                       <use xlink:href="#rim2" fill="#404040">
                               <set attributeName="fill" to="#808080" begin="reset.mouseover" end="reset.mouseout"/>
                       </use>
               </g>
        </defs>

<script type="text/javascript">
var viewWidth = 649;
var viewHeight = 274;
var sectionId = 'dynsection-109';
</script>
<script xlink:href="svgpan.js"/>
<svg id="graph" class="graph">
<g id="viewport">
<title>import_game</title>
<polygon fill="white" stroke="transparent" points="-4,4 -4,-269.5 645,-269.5 645,4 -4,4"/>
<!-- Node1 -->
<g id="node1" class="node">
<title>Node1</title>
<g id="a_node1"><a xlink:title=" ">
<polygon fill="#bfbfbf" stroke="black" points="0,-100.5 0,-119.5 73,-119.5 73,-100.5 0,-100.5"/>
<text text-anchor="middle" x="36.5" y="-107.5" font-family="Helvetica,sans-Serif" font-size="10.00">import_game</text>
</a>
</g>
</g>
<!-- Node1&#45;&gt;Node1 -->
<g id="edge11" class="edge">
<title>Node1&#45;&gt;Node1</title>
<path fill="none" stroke="midnightblue" d="M13.07,-119.76C1.68,-128.57 9.48,-138 36.5,-138 54.23,-138 63.69,-133.94 64.87,-128.65"/>
<polygon fill="midnightblue" stroke="midnightblue" points="67.84,-126.8 59.93,-119.76 61.73,-130.2 67.84,-126.8"/>
</g>
<!-- Node2 -->
<g id="node2" class="node">
<title>Node2</title>
<g id="a_node2"><a xlink:href="classlegendary_1_1core_1_1_legendary_core.html#a756560801211c0606fe7efd28243e627" target="_top" xlink:title=" ">
<polygon fill="white" stroke="black" points="142,-162.5 142,-181.5 236,-181.5 236,-162.5 142,-162.5"/>
<text text-anchor="middle" x="189" y="-169.5" font-family="Helvetica,sans-Serif" font-size="10.00">get_cdn_manifest</text>
</a>
</g>
</g>
<!-- Node1&#45;&gt;Node2 -->
<g id="edge1" class="edge">
<title>Node1&#45;&gt;Node2</title>
<path fill="none" stroke="midnightblue" d="M50.56,-119.54C64.42,-129.25 87.28,-144.11 109,-153 116.25,-155.97 124.07,-158.55 131.88,-160.76"/>
<polygon fill="midnightblue" stroke="midnightblue" points="131.15,-164.19 141.72,-163.37 132.95,-157.42 131.15,-164.19"/>
</g>
<!-- Node4 -->
<g id="node4" class="node">
<title>Node4</title>
<g id="a_node4"><a xlink:href="classrare_1_1components_1_1extra_1_1console_1_1_console.html#a4db0e98c238d6a69bdbf4b8cc59be732" target="_top" xlink:title=" ">
<polygon fill="white" stroke="black" points="305,-217 305,-247 455,-247 455,-217 305,-217"/>
<text text-anchor="start" x="313" y="-235" font-family="Helvetica,sans-Serif" font-size="10.00">rare.components.extra.console.</text>
<text text-anchor="middle" x="380" y="-224" font-family="Helvetica,sans-Serif" font-size="10.00">Console.log</text>
</a>
</g>
</g>
<!-- Node1&#45;&gt;Node4 -->
<g id="edge19" class="edge">
<title>Node1&#45;&gt;Node4</title>
<path fill="none" stroke="midnightblue" d="M41.22,-119.76C49.68,-140.41 72.47,-188.32 109,-209 165.08,-240.75 238.44,-245.11 294.54,-242.3"/>
<polygon fill="midnightblue" stroke="midnightblue" points="295.03,-245.77 304.81,-241.69 294.62,-238.79 295.03,-245.77"/>
</g>
<!-- Node5 -->
<g id="node5" class="node">
<title>Node5</title>
<g id="a_node5"><a xlink:href="classrare_1_1components_1_1extra_1_1console_1_1_console_edit.html#ac05aadedf6e1be5c365c818989f98d50" target="_top" xlink:title=" ">
<polygon fill="white" stroke="black" points="305,-93 305,-123 455,-123 455,-93 305,-93"/>
<text text-anchor="start" x="313" y="-111" font-family="Helvetica,sans-Serif" font-size="10.00">rare.components.extra.console.</text>
<text text-anchor="middle" x="380" y="-100" font-family="Helvetica,sans-Serif" font-size="10.00">ConsoleEdit.log</text>
</a>
</g>
</g>
<!-- Node1&#45;&gt;Node5 -->
<g id="edge20" class="edge">
<title>Node1&#45;&gt;Node5</title>
<path fill="none" stroke="midnightblue" d="M59.89,-100.4C73.75,-94.99 92.07,-88.77 109,-86 179.18,-74.54 198.23,-78.99 269,-86 280.73,-87.16 293.07,-89 305.07,-91.14"/>
<polygon fill="midnightblue" stroke="midnightblue" points="304.58,-94.61 315.05,-93 305.86,-87.73 304.58,-94.61"/>
</g>
<!-- Node7 -->
<g id="node7" class="node">
<title>Node7</title>
<g id="a_node7"><a xlink:href="classlegendary_1_1core_1_1_legendary_core.html#a89bcbbe946094e459c8d331cb6bf89dd" target="_top" xlink:title=" ">
<polygon fill="white" stroke="black" points="150.5,-0.5 150.5,-19.5 227.5,-19.5 227.5,-0.5 150.5,-0.5"/>
<text text-anchor="middle" x="189" y="-7.5" font-family="Helvetica,sans-Serif" font-size="10.00">load_manifest</text>
</a>
</g>
</g>
<!-- Node1&#45;&gt;Node7 -->
<g id="edge12" class="edge">
<title>Node1&#45;&gt;Node7</title>
<path fill="none" stroke="midnightblue" d="M48.14,-100.27C61.68,-88.15 86.08,-67.18 109,-52 124.76,-41.56 143.4,-31.55 158.61,-23.92"/>
<polygon fill="midnightblue" stroke="midnightblue" points="160.16,-27.06 167.58,-19.5 157.07,-20.78 160.16,-27.06"/>
</g>
<!-- Node8 -->
<g id="node8" class="node">
<title>Node8</title>
<g id="a_node8"><a xlink:href="classlegendary_1_1lfs_1_1lgndry_1_1_l_g_d_l_f_s.html#a89296d6f503604b74250a6b39ba6a6d2" target="_top" xlink:title=" ">
<polygon fill="white" stroke="black" points="109,-95 109,-125 269,-125 269,-95 109,-95"/>
<text text-anchor="start" x="117" y="-113" font-family="Helvetica,sans-Serif" font-size="10.00">legendary.lfs.lgndry.LGDLFS.load</text>
<text text-anchor="middle" x="189" y="-102" font-family="Helvetica,sans-Serif" font-size="10.00">_manifest</text>
</a>
</g>
</g>
<!-- Node1&#45;&gt;Node8 -->
<g id="edge14" class="edge">
<title>Node1&#45;&gt;Node8</title>
<path fill="none" stroke="midnightblue" d="M73.17,-110C81.06,-110 89.77,-110 98.75,-110"/>
<polygon fill="midnightblue" stroke="midnightblue" points="98.98,-113.5 108.98,-110 98.98,-106.5 98.98,-113.5"/>
</g>
<!-- Node2&#45;&gt;Node2 -->
<g id="edge2" class="edge">
<title>Node2&#45;&gt;Node2</title>
<path fill="none" stroke="midnightblue" d="M165.57,-181.76C154.18,-190.57 161.98,-200 189,-200 206.73,-200 216.19,-195.94 217.37,-190.65"/>
<polygon fill="midnightblue" stroke="midnightblue" points="220.34,-188.8 212.43,-181.76 214.23,-192.2 220.34,-188.8"/>
</g>
<!-- Node3 -->
<g id="node3" class="node">
<title>Node3</title>
<g id="a_node3"><a xlink:href="classlegendary_1_1core_1_1_legendary_core.html#abb66ad97d64f4c4e41b10ba22d28eec2" target="_top" xlink:title=" ">
<polygon fill="white" stroke="black" points="344,-160.5 344,-179.5 416,-179.5 416,-160.5 344,-160.5"/>
<text text-anchor="middle" x="380" y="-167.5" font-family="Helvetica,sans-Serif" font-size="10.00">get_cdn_urls</text>
</a>
</g>
</g>
<!-- Node2&#45;&gt;Node3 -->
<g id="edge3" class="edge">
<title>Node2&#45;&gt;Node3</title>
<path fill="none" stroke="midnightblue" d="M236.23,-171.51C265.95,-171.2 304.38,-170.79 333.87,-170.48"/>
<polygon fill="midnightblue" stroke="midnightblue" points="333.94,-173.98 343.91,-170.37 333.87,-166.98 333.94,-173.98"/>
</g>
<!-- Node2&#45;&gt;Node4 -->
<g id="edge5" class="edge">
<title>Node2&#45;&gt;Node4</title>
<path fill="none" stroke="midnightblue" d="M219.95,-181.51C247.23,-190.17 288.27,-203.2 321.82,-213.85"/>
<polygon fill="midnightblue" stroke="midnightblue" points="320.93,-217.24 331.52,-216.93 323.05,-210.57 320.93,-217.24"/>
</g>
<!-- Node2&#45;&gt;Node5 -->
<g id="edge7" class="edge">
<title>Node2&#45;&gt;Node5</title>
<path fill="none" stroke="midnightblue" d="M235.03,-162.42C246.22,-159.7 258.13,-156.51 269,-153 291.72,-145.67 316.36,-135.78 336.56,-127.13"/>
<polygon fill="midnightblue" stroke="midnightblue" points="338.01,-130.32 345.79,-123.13 335.22,-123.89 338.01,-130.32"/>
</g>
<!-- Node3&#45;&gt;Node3 -->
<g id="edge4" class="edge">
<title>Node3&#45;&gt;Node3</title>
<path fill="none" stroke="midnightblue" d="M351.64,-179.76C337.84,-188.57 347.3,-198 380,-198 402.48,-198 413.98,-193.54 414.48,-187.89"/>
<polygon fill="midnightblue" stroke="midnightblue" points="417.17,-185.64 408.36,-179.76 411.58,-189.85 417.17,-185.64"/>
</g>
<!-- Node4&#45;&gt;Node4 -->
<g id="edge6" class="edge">
<title>Node4&#45;&gt;Node4</title>
<path fill="none" stroke="midnightblue" d="M347.93,-247.16C340.2,-256.56 350.89,-265.5 380,-265.5 397.74,-265.5 408.64,-262.18 412.69,-257.46"/>
<polygon fill="midnightblue" stroke="midnightblue" points="416.17,-256.93 412.07,-247.16 409.18,-257.35 416.17,-256.93"/>
</g>
<!-- Node5&#45;&gt;Node5 -->
<g id="edge8" class="edge">
<title>Node5&#45;&gt;Node5</title>
<path fill="none" stroke="midnightblue" d="M347.93,-123.16C340.2,-132.56 350.89,-141.5 380,-141.5 397.74,-141.5 408.64,-138.18 412.69,-133.46"/>
<polygon fill="midnightblue" stroke="midnightblue" points="416.17,-132.93 412.07,-123.16 409.18,-133.35 416.17,-132.93"/>
</g>
<!-- Node6 -->
<g id="node6" class="node">
<title>Node6</title>
<g id="a_node6"><a xlink:href="classrare_1_1components_1_1extra_1_1console_1_1_console_edit.html#ad89ca21019805240d01e41fe61cdbb56" target="_top" xlink:title=" ">
<polygon fill="white" stroke="black" points="491,-93 491,-123 641,-123 641,-93 491,-93"/>
<text text-anchor="start" x="499" y="-111" font-family="Helvetica,sans-Serif" font-size="10.00">rare.components.extra.console.</text>
<text text-anchor="middle" x="566" y="-100" font-family="Helvetica,sans-Serif" font-size="10.00">ConsoleEdit.scroll_to_last_line</text>
</a>
</g>
</g>
<!-- Node5&#45;&gt;Node6 -->
<g id="edge9" class="edge">
<title>Node5&#45;&gt;Node6</title>
<path fill="none" stroke="midnightblue" d="M455.04,-108C463.51,-108 472.19,-108 480.78,-108"/>
<polygon fill="midnightblue" stroke="midnightblue" points="480.81,-111.5 490.81,-108 480.81,-104.5 480.81,-111.5"/>
</g>
<!-- Node6&#45;&gt;Node6 -->
<g id="edge10" class="edge">
<title>Node6&#45;&gt;Node6</title>
<path fill="none" stroke="midnightblue" d="M533.93,-123.16C526.2,-132.56 536.89,-141.5 566,-141.5 583.74,-141.5 594.64,-138.18 598.69,-133.46"/>
<polygon fill="midnightblue" stroke="midnightblue" points="602.17,-132.93 598.07,-123.16 595.18,-133.35 602.17,-132.93"/>
</g>
<!-- Node7&#45;&gt;Node7 -->
<g id="edge13" class="edge">
<title>Node7&#45;&gt;Node7</title>
<path fill="none" stroke="midnightblue" d="M165.57,-19.76C154.18,-28.57 161.98,-38 189,-38 206.73,-38 216.19,-33.94 217.37,-28.65"/>
<polygon fill="midnightblue" stroke="midnightblue" points="220.34,-26.8 212.43,-19.76 214.23,-30.2 220.34,-26.8"/>
</g>
<!-- Node8&#45;&gt;Node4 -->
<g id="edge17" class="edge">
<title>Node8&#45;&gt;Node4</title>
<path fill="none" stroke="midnightblue" d="M226.2,-125.09C240.55,-132.19 256.55,-141.62 269,-153 290.29,-172.46 282.11,-189.45 305,-207 307.45,-208.88 310.05,-210.62 312.75,-212.24"/>
<polygon fill="midnightblue" stroke="midnightblue" points="311.21,-215.38 321.68,-216.97 314.49,-209.2 311.21,-215.38"/>
</g>
<!-- Node8&#45;&gt;Node5 -->
<g id="edge18" class="edge">
<title>Node8&#45;&gt;Node5</title>
<path fill="none" stroke="midnightblue" d="M269.06,-109.16C277.47,-109.07 286.05,-108.98 294.53,-108.89"/>
<polygon fill="midnightblue" stroke="midnightblue" points="294.83,-112.39 304.79,-108.79 294.75,-105.39 294.83,-112.39"/>
</g>
<!-- Node8&#45;&gt;Node8 -->
<g id="edge16" class="edge">
<title>Node8&#45;&gt;Node8</title>
<path fill="none" stroke="midnightblue" d="M162.51,-125.16C156.12,-134.56 164.95,-143.5 189,-143.5 203.65,-143.5 212.66,-140.18 216.01,-135.46"/>
<polygon fill="midnightblue" stroke="midnightblue" points="219.49,-134.97 215.49,-125.16 212.5,-135.32 219.49,-134.97"/>
</g>
<!-- Node9 -->
<g id="node9" class="node">
<title>Node9</title>
<g id="a_node9"><a xlink:href="classlegendary_1_1lfs_1_1lgndry_1_1_l_g_d_l_f_s.html#a08d9b2afb8cc286235f801be197f369c" target="_top" xlink:title=" ">
<polygon fill="white" stroke="black" points="309,-44 309,-74 451,-74 451,-44 309,-44"/>
<text text-anchor="start" x="317" y="-62" font-family="Helvetica,sans-Serif" font-size="10.00">legendary.lfs.lgndry.LGDLFS.</text>
<text text-anchor="middle" x="380" y="-51" font-family="Helvetica,sans-Serif" font-size="10.00">_get_manifest_filename</text>
</a>
</g>
</g>
<!-- Node8&#45;&gt;Node9 -->
<g id="edge15" class="edge">
<title>Node8&#45;&gt;Node9</title>
<path fill="none" stroke="midnightblue" d="M245.68,-94.97C267.03,-89.22 291.56,-82.59 313.72,-76.61"/>
<polygon fill="midnightblue" stroke="midnightblue" points="314.64,-79.99 323.39,-74.01 312.82,-73.23 314.64,-79.99"/>
</g>
</g>
</svg>
        <g id="navigator" transform="translate(0 0)" fill="#404254">
                <rect fill="#f2f5e9" fill-opacity="0.5" stroke="#606060" stroke-width=".5" x="0" y="0" width="60" height="60"/>
                <use id="zoomplus" xlink:href="#zoomPlus" x="17" y="9" onmousedown="handleZoom(evt,'in')"/>
                <use id="zoomminus" xlink:href="#zoomMin" x="42" y="9" onmousedown="handleZoom(evt,'out')"/>
                <use id="reset" xlink:href="#resetDef" x="30" y="36" onmousedown="handleReset()"/>
                <g id="arrowUp" xlink:href="#dirArrow" transform="translate(30 24)" onmousedown="handlePan(0,-1)">
                  <use xlink:href="#rim" fill="#404040">
                        <set attributeName="fill" to="#808080" begin="arrowUp.mouseover" end="arrowUp.mouseout"/>
                  </use>
                  <path fill="none" stroke="white" stroke-width="1.5" d="M0,-3.0v7 M-2.5,-0.5L0,-3.0L2.5,-0.5"/>
                </g>
                <g id="arrowRight" xlink:href="#dirArrow" transform="rotate(90) translate(36 -43)" onmousedown="handlePan(1,0)">
                  <use xlink:href="#rim" fill="#404040">
                        <set attributeName="fill" to="#808080" begin="arrowRight.mouseover" end="arrowRight.mouseout"/>
                  </use>
                  <path fill="none" stroke="white" stroke-width="1.5" d="M0,-3.0v7 M-2.5,-0.5L0,-3.0L2.5,-0.5"/>
                </g>
                <g id="arrowDown" xlink:href="#dirArrow" transform="rotate(180) translate(-30 -48)" onmousedown="handlePan(0,1)">
                  <use xlink:href="#rim" fill="#404040">
                        <set attributeName="fill" to="#808080" begin="arrowDown.mouseover" end="arrowDown.mouseout"/>
                  </use>
                  <path fill="none" stroke="white" stroke-width="1.5" d="M0,-3.0v7 M-2.5,-0.5L0,-3.0L2.5,-0.5"/>
                </g>
                <g id="arrowLeft" xlink:href="#dirArrow" transform="rotate(270) translate(-36 17)" onmousedown="handlePan(-1,0)">
                  <use xlink:href="#rim" fill="#404040">
                        <set attributeName="fill" to="#808080" begin="arrowLeft.mouseover" end="arrowLeft.mouseout"/>
                  </use>
                  <path fill="none" stroke="white" stroke-width="1.5" d="M0,-3.0v7 M-2.5,-0.5L0,-3.0L2.5,-0.5"/>
                </g>
        </g>
        <svg viewBox="0 0 15 15" width="100%" height="30px" preserveAspectRatio="xMaxYMin meet">
         <g id="arrow_out" transform="scale(0.3 0.3)">
          <a xlink:href="classlegendary_1_1core_1_1_legendary_core_a771730748a8fd210a86652af23c1e38e_cgraph_org.svg" target="_base">
           <rect id="button" ry="5" rx="5" y="6" x="6" height="38" width="38"
                fill="#f2f5e9" fill-opacity="0.5" stroke="#606060" stroke-width="1.0"/>
           <path id="arrow"
             d="M 11.500037,31.436501 C 11.940474,20.09759 22.043105,11.32322 32.158766,21.979434 L 37.068811,17.246167 C 37.068811,17.246167 37.088388,32 37.088388,32 L 22.160133,31.978069 C 22.160133,31.978069 26.997745,27.140456 26.997745,27.140456 C 18.528582,18.264221 13.291696,25.230495 11.500037,31.436501 z"
             style="fill:#404040;"/>
          </a>
         </g>
        </svg>
</svg>
