<?xml version="1.0" encoding="UTF-8" standalone="no"?>
<!DOCTYPE svg PUBLIC "-//W3C//DTD SVG 1.1//EN"
 "http://www.w3.org/Graphics/SVG/1.1/DTD/svg11.dtd">
<!-- Generated by graphviz version 2.49.3 (20211027.1534)
 -->
<!-- Title: event Pages: 1 -->
<svg width="771pt" height="114pt"
 viewBox="0.00 0.00 771.00 113.50" xmlns="http://www.w3.org/2000/svg" xmlns:xlink="http://www.w3.org/1999/xlink">
<g id="graph0" class="graph" transform="scale(1 1) rotate(0) translate(4 109.5)">
<title>event</title>
<polygon fill="white" stroke="transparent" points="-4,4 -4,-109.5 767,-109.5 767,4 -4,4"/>
<!-- Node1 -->
<g id="node1" class="node">
<title>Node1</title>
<g id="a_node1"><a xlink:title=" ">
<polygon fill="#bfbfbf" stroke="black" points="0,-34.5 0,-53.5 41,-53.5 41,-34.5 0,-34.5"/>
<text text-anchor="middle" x="20.5" y="-41.5" font-family="Helvetica,sans-Serif" font-size="10.00">event</text>
</a>
</g>
</g>
<!-- Node1&#45;&gt;Node1 -->
<g id="edge1" class="edge">
<title>Node1&#45;&gt;Node1</title>
<path fill="none" stroke="midnightblue" d="M6.32,-53.76C-0.58,-62.57 4.15,-72 20.5,-72 30.72,-72 36.4,-68.31 37.54,-63.4"/>
<polygon fill="midnightblue" stroke="midnightblue" points="40.88,-62.35 34.68,-53.76 34.16,-64.34 40.88,-62.35"/>
</g>
<!-- Node2 -->
<g id="node2" class="node">
<title>Node2</title>
<g id="a_node2"><a xlink:href="classrare_1_1utils_1_1extra__widgets_1_1_sliding_stacked_widget.html#af1c90ce9b058b5510a83e2dc63009e3a" target="_top" xlink:title=" ">
<polygon fill="white" stroke="black" points="77,-34.5 77,-53.5 151,-53.5 151,-34.5 77,-34.5"/>
<text text-anchor="middle" x="114" y="-41.5" font-family="Helvetica,sans-Serif" font-size="10.00">gestureEvent</text>
</a>
</g>
</g>
<!-- Node1&#45;&gt;Node2 -->
<g id="edge2" class="edge">
<title>Node1&#45;&gt;Node2</title>
<path fill="none" stroke="midnightblue" d="M41.35,-44C48.92,-44 57.88,-44 66.87,-44"/>
<polygon fill="midnightblue" stroke="midnightblue" points="66.95,-47.5 76.95,-44 66.95,-40.5 66.95,-47.5"/>
</g>
<!-- Node2&#45;&gt;Node2 -->
<g id="edge3" class="edge">
<title>Node2&#45;&gt;Node2</title>
<path fill="none" stroke="midnightblue" d="M99.82,-53.76C92.92,-62.57 97.65,-72 114,-72 124.22,-72 129.9,-68.31 131.04,-63.4"/>
<polygon fill="midnightblue" stroke="midnightblue" points="134.38,-62.35 128.18,-53.76 127.66,-64.34 134.38,-62.35"/>
</g>
<!-- Node3 -->
<g id="node3" class="node">
<title>Node3</title>
<g id="a_node3"><a xlink:href="classrare_1_1utils_1_1extra__widgets_1_1_sliding_stacked_widget.html#aebf5c564b7d2450c4b74b3dff5ed1a2d" target="_top" xlink:title=" ">
<polygon fill="white" stroke="black" points="187,-34.5 187,-53.5 270,-53.5 270,-34.5 187,-34.5"/>
<text text-anchor="middle" x="228.5" y="-41.5" font-family="Helvetica,sans-Serif" font-size="10.00">swipeTriggered</text>
</a>
</g>
</g>
<!-- Node2&#45;&gt;Node3 -->
<g id="edge4" class="edge">
<title>Node2&#45;&gt;Node3</title>
<path fill="none" stroke="midnightblue" d="M151.21,-44C159.25,-44 167.92,-44 176.42,-44"/>
<polygon fill="midnightblue" stroke="midnightblue" points="176.67,-47.5 186.67,-44 176.67,-40.5 176.67,-47.5"/>
</g>
<!-- Node3&#45;&gt;Node3 -->
<g id="edge19" class="edge">
<title>Node3&#45;&gt;Node3</title>
<path fill="none" stroke="midnightblue" d="M211.55,-53.76C203.3,-62.57 208.95,-72 228.5,-72 240.72,-72 247.51,-68.31 248.87,-63.4"/>
<polygon fill="midnightblue" stroke="midnightblue" points="252.09,-62.01 245.45,-53.76 245.49,-64.35 252.09,-62.01"/>
</g>
<!-- Node4 -->
<g id="node4" class="node">
<title>Node4</title>
<g id="a_node4"><a xlink:href="classrare_1_1utils_1_1extra__widgets_1_1_sliding_stacked_widget.html#a9a7d3e7c9b6471dae3067db5f869f4fe" target="_top" xlink:title=" ">
<polygon fill="white" stroke="black" points="306,-62.5 306,-81.5 371,-81.5 371,-62.5 306,-62.5"/>
<text text-anchor="middle" x="338.5" y="-69.5" font-family="Helvetica,sans-Serif" font-size="10.00">slideInNext</text>
</a>
</g>
</g>
<!-- Node3&#45;&gt;Node4 -->
<g id="edge5" class="edge">
<title>Node3&#45;&gt;Node4</title>
<path fill="none" stroke="midnightblue" d="M266.37,-53.56C275.89,-56.03 286.21,-58.7 295.95,-61.23"/>
<polygon fill="midnightblue" stroke="midnightblue" points="295.28,-64.67 305.84,-63.79 297.04,-57.9 295.28,-64.67"/>
</g>
<!-- Node9 -->
<g id="node9" class="node">
<title>Node9</title>
<g id="a_node9"><a xlink:href="classrare_1_1utils_1_1extra__widgets_1_1_sliding_stacked_widget.html#adf3e2dc0b60437cf278f8a25d92f9a96" target="_top" xlink:title=" ">
<polygon fill="white" stroke="black" points="306,-6.5 306,-25.5 371,-25.5 371,-6.5 306,-6.5"/>
<text text-anchor="middle" x="338.5" y="-13.5" font-family="Helvetica,sans-Serif" font-size="10.00">slideInPrev</text>
</a>
</g>
</g>
<!-- Node3&#45;&gt;Node9 -->
<g id="edge16" class="edge">
<title>Node3&#45;&gt;Node9</title>
<path fill="none" stroke="midnightblue" d="M266.37,-34.44C275.89,-31.97 286.21,-29.3 295.95,-26.77"/>
<polygon fill="midnightblue" stroke="midnightblue" points="297.04,-30.1 305.84,-24.21 295.28,-23.33 297.04,-30.1"/>
</g>
<!-- Node4&#45;&gt;Node4 -->
<g id="edge15" class="edge">
<title>Node4&#45;&gt;Node4</title>
<path fill="none" stroke="midnightblue" d="M322.78,-81.76C315.13,-90.57 320.37,-100 338.5,-100 349.83,-100 356.13,-96.31 357.39,-91.4"/>
<polygon fill="midnightblue" stroke="midnightblue" points="360.67,-90.17 354.22,-81.76 354.02,-92.35 360.67,-90.17"/>
</g>
<!-- Node5 -->
<g id="node5" class="node">
<title>Node5</title>
<g id="a_node5"><a xlink:href="classrare_1_1utils_1_1extra__widgets_1_1_flow_layout.html#a5eb880efb244834d39c062297388252b" target="_top" xlink:title=" ">
<polygon fill="white" stroke="black" points="511,-57 511,-87 629,-87 629,-57 511,-57"/>
<text text-anchor="start" x="519" y="-75" font-family="Helvetica,sans-Serif" font-size="10.00">rare.utils.extra_widgets.</text>
<text text-anchor="middle" x="570" y="-64" font-family="Helvetica,sans-Serif" font-size="10.00">FlowLayout.count</text>
</a>
</g>
</g>
<!-- Node4&#45;&gt;Node5 -->
<g id="edge6" class="edge">
<title>Node4&#45;&gt;Node5</title>
<path fill="none" stroke="midnightblue" d="M371.41,-72C404.71,-72 457.92,-72 500.75,-72"/>
<polygon fill="midnightblue" stroke="midnightblue" points="500.83,-75.5 510.83,-72 500.83,-68.5 500.83,-75.5"/>
</g>
<!-- Node6 -->
<g id="node6" class="node">
<title>Node6</title>
<g id="a_node6"><a xlink:href="classrare_1_1utils_1_1extra__widgets_1_1_sliding_stacked_widget.html#a14a7f7a305b607aa29aa0dfa7f6047d5" target="_top" xlink:title=" ">
<polygon fill="white" stroke="black" points="407,-6.5 407,-25.5 475,-25.5 475,-6.5 407,-6.5"/>
<text text-anchor="middle" x="441" y="-13.5" font-family="Helvetica,sans-Serif" font-size="10.00">slideInIndex</text>
</a>
</g>
</g>
<!-- Node4&#45;&gt;Node6 -->
<g id="edge8" class="edge">
<title>Node4&#45;&gt;Node6</title>
<path fill="none" stroke="midnightblue" d="M357.01,-62.25C372.71,-53.49 395.98,-40.53 413.89,-30.55"/>
<polygon fill="midnightblue" stroke="midnightblue" points="415.66,-33.57 422.69,-25.64 412.26,-27.45 415.66,-33.57"/>
</g>
<!-- Node5&#45;&gt;Node5 -->
<g id="edge7" class="edge">
<title>Node5&#45;&gt;Node5</title>
<path fill="none" stroke="midnightblue" d="M547.69,-87.16C542.31,-96.56 549.75,-105.5 570,-105.5 582.34,-105.5 589.92,-102.18 592.74,-97.46"/>
<polygon fill="midnightblue" stroke="midnightblue" points="596.23,-97 592.31,-87.16 589.23,-97.3 596.23,-97"/>
</g>
<!-- Node6&#45;&gt;Node5 -->
<g id="edge9" class="edge">
<title>Node6&#45;&gt;Node5</title>
<path fill="none" stroke="midnightblue" d="M463.1,-25.58C476.74,-31.75 494.89,-39.91 511,-47 515.35,-48.91 519.89,-50.9 524.43,-52.87"/>
<polygon fill="midnightblue" stroke="midnightblue" points="523.12,-56.12 533.69,-56.88 525.91,-49.7 523.12,-56.12"/>
</g>
<!-- Node6&#45;&gt;Node6 -->
<g id="edge10" class="edge">
<title>Node6&#45;&gt;Node6</title>
<path fill="none" stroke="midnightblue" d="M425.28,-25.76C417.63,-34.57 422.87,-44 441,-44 452.33,-44 458.63,-40.31 459.89,-35.4"/>
<polygon fill="midnightblue" stroke="midnightblue" points="463.17,-34.17 456.72,-25.76 456.52,-36.35 463.17,-34.17"/>
</g>
<!-- Node7 -->
<g id="node7" class="node">
<title>Node7</title>
<g id="a_node7"><a xlink:href="classrare_1_1utils_1_1extra__widgets_1_1_sliding_stacked_widget.html#ab032482dfc53fdfe48836e74a00f0871" target="_top" xlink:title=" ">
<polygon fill="white" stroke="black" points="532.5,-0.5 532.5,-19.5 607.5,-19.5 607.5,-0.5 532.5,-0.5"/>
<text text-anchor="middle" x="570" y="-7.5" font-family="Helvetica,sans-Serif" font-size="10.00">slideInWidget</text>
</a>
</g>
</g>
<!-- Node6&#45;&gt;Node7 -->
<g id="edge11" class="edge">
<title>Node6&#45;&gt;Node7</title>
<path fill="none" stroke="midnightblue" d="M475.04,-14.44C489.39,-13.76 506.45,-12.95 522.08,-12.22"/>
<polygon fill="midnightblue" stroke="midnightblue" points="522.28,-15.71 532.1,-11.74 521.95,-8.72 522.28,-15.71"/>
</g>
<!-- Node7&#45;&gt;Node7 -->
<g id="edge14" class="edge">
<title>Node7&#45;&gt;Node7</title>
<path fill="none" stroke="midnightblue" d="M550.27,-19.76C540.67,-28.57 547.25,-38 570,-38 584.57,-38 592.51,-34.13 593.81,-29.03"/>
<polygon fill="midnightblue" stroke="midnightblue" points="596.96,-27.5 589.73,-19.76 590.55,-30.32 596.96,-27.5"/>
</g>
<!-- Node8 -->
<g id="node8" class="node">
<title>Node8</title>
<g id="a_node8"><a xlink:href="classrare_1_1utils_1_1extra__widgets_1_1_sliding_stacked_widget.html#ad33b03cf3496c64ea301895641933e64" target="_top" xlink:title=" ">
<polygon fill="white" stroke="black" points="665,-0.5 665,-19.5 763,-19.5 763,-0.5 665,-0.5"/>
<text text-anchor="middle" x="714" y="-7.5" font-family="Helvetica,sans-Serif" font-size="10.00">animationDoneSlot</text>
</a>
</g>
</g>
<!-- Node7&#45;&gt;Node8 -->
<g id="edge12" class="edge">
<title>Node7&#45;&gt;Node8</title>
<path fill="none" stroke="midnightblue" d="M607.57,-10C621.86,-10 638.61,-10 654.49,-10"/>
<polygon fill="midnightblue" stroke="midnightblue" points="654.77,-13.5 664.77,-10 654.77,-6.5 654.77,-13.5"/>
</g>
<!-- Node8&#45;&gt;Node8 -->
<g id="edge13" class="edge">
<title>Node8&#45;&gt;Node8</title>
<path fill="none" stroke="midnightblue" d="M691.81,-19.76C681.01,-28.57 688.41,-38 714,-38 730.8,-38 739.76,-33.94 740.88,-28.65"/>
<polygon fill="midnightblue" stroke="midnightblue" points="743.95,-26.97 736.19,-19.76 737.76,-30.24 743.95,-26.97"/>
</g>
<!-- Node9&#45;&gt;Node6 -->
<g id="edge17" class="edge">
<title>Node9&#45;&gt;Node6</title>
<path fill="none" stroke="midnightblue" d="M371.02,-16C379.13,-16 387.99,-16 396.58,-16"/>
<polygon fill="midnightblue" stroke="midnightblue" points="396.85,-19.5 406.85,-16 396.85,-12.5 396.85,-19.5"/>
</g>
<!-- Node9&#45;&gt;Node9 -->
<g id="edge18" class="edge">
<title>Node9&#45;&gt;Node9</title>
<path fill="none" stroke="midnightblue" d="M322.78,-25.76C315.13,-34.57 320.37,-44 338.5,-44 349.83,-44 356.13,-40.31 357.39,-35.4"/>
<polygon fill="midnightblue" stroke="midnightblue" points="360.67,-34.17 354.22,-25.76 354.02,-36.35 360.67,-34.17"/>
</g>
</g>
</svg>
