<?xml version="1.0" encoding="UTF-8" standalone="no"?>
<!DOCTYPE svg PUBLIC "-//W3C//DTD SVG 1.1//EN"
 "http://www.w3.org/Graphics/SVG/1.1/DTD/svg11.dtd">
<!-- Generated by graphviz version 2.49.3 (20211027.1534)
 -->
<!-- Title: get_download_info Pages: 1 -->
<!--zoomable 525 -->
<svg id="main" version="1.1" xmlns="http://www.w3.org/2000/svg" xmlns:xlink="http://www.w3.org/1999/xlink" xml:space="preserve" onload="init(evt)">
<style type="text/css"><![CDATA[
.edge:hover path { stroke: red; }
.edge:hover polygon { stroke: red; fill: red; }
]]></style>
<script type="text/javascript"><![CDATA[
var edges = document.getElementsByTagName('g');
if (edges && edges.length) {
  for (var i=0;i<edges.length;i++) {
    if (edges[i].id.substr(0,4)=='edge') {
      edges[i].setAttribute('class','edge');
    }
  }
}
]]></script>
        <defs>
                <circle id="rim" cx="0" cy="0" r="7"/>
                <circle id="rim2" cx="0" cy="0" r="3.5"/>
                <g id="zoomPlus">
                        <use xlink:href="#rim" fill="#404040">
                                <set attributeName="fill" to="#808080" begin="zoomplus.mouseover" end="zoomplus.mouseout"/>
                        </use>
                        <path d="M-4,0h8M0,-4v8" fill="none" stroke="white" stroke-width="1.5" pointer-events="none"/>
                </g>
                <g id="zoomMin">
                        <use xlink:href="#rim" fill="#404040">
                                <set attributeName="fill" to="#808080" begin="zoomminus.mouseover" end="zoomminus.mouseout"/>
                        </use>
                        <path d="M-4,0h8" fill="none" stroke="white" stroke-width="1.5" pointer-events="none"/>
                </g>
                <g id="dirArrow">
                        <path fill="none" stroke="white" stroke-width="1.5" d="M0,-3.0v7 M-2.5,-0.5L0,-3.0L2.5,-0.5"/>
                </g>
               <g id="resetDef">
                       <use xlink:href="#rim2" fill="#404040">
                               <set attributeName="fill" to="#808080" begin="reset.mouseover" end="reset.mouseout"/>
                       </use>
               </g>
        </defs>

<script type="text/javascript">
var viewWidth = 1304;
var viewHeight = 525;
var sectionId = 'dynsection-10';
</script>
<script xlink:href="svgpan.js"/>
<svg id="graph" class="graph">
<g id="viewport">
<title>get_download_info</title>
<polygon fill="white" stroke="transparent" points="-4,4 -4,-520.5 1300,-520.5 1300,4 -4,4"/>
<!-- Node1 -->
<g id="node1" class="node">
<title>Node1</title>
<g id="a_node1"><a xlink:title=" ">
<polygon fill="#bfbfbf" stroke="black" points="0,-187.5 0,-206.5 98,-206.5 98,-187.5 0,-187.5"/>
<text text-anchor="middle" x="49" y="-194.5" font-family="Helvetica,sans-Serif" font-size="10.00">get_download_info</text>
</a>
</g>
</g>
<!-- Node1&#45;&gt;Node1 -->
<g id="edge6" class="edge">
<title>Node1&#45;&gt;Node1</title>
<path fill="none" stroke="midnightblue" d="M27.42,-206.76C16.92,-215.57 24.12,-225 49,-225 64.94,-225 73.62,-221.13 75.04,-216.03"/>
<polygon fill="midnightblue" stroke="midnightblue" points="78.07,-214.25 70.58,-206.76 71.76,-217.29 78.07,-214.25"/>
</g>
<!-- Node2 -->
<g id="node2" class="node">
<title>Node2</title>
<g id="a_node2"><a xlink:href="classrare_1_1shared_1_1image__manager_1_1_image_manager.html#a807a18e046713d82f8c5828f7837d229" target="_top" xlink:title=" ">
<polygon fill="white" stroke="black" points="296.5,-486 296.5,-516 434.5,-516 434.5,-486 296.5,-486"/>
<text text-anchor="start" x="304.5" y="-504" font-family="Helvetica,sans-Serif" font-size="10.00">rare.shared.image_manager.</text>
<text text-anchor="middle" x="365.5" y="-493" font-family="Helvetica,sans-Serif" font-size="10.00">ImageManager.__download</text>
</a>
</g>
</g>
<!-- Node1&#45;&gt;Node2 -->
<g id="edge1" class="edge">
<title>Node1&#45;&gt;Node2</title>
<path fill="none" stroke="midnightblue" d="M51.28,-206.81C56.05,-239.63 75.6,-347.07 134,-409 174.18,-451.61 236.69,-474.91 286.47,-487.39"/>
<polygon fill="midnightblue" stroke="midnightblue" points="285.71,-490.81 296.25,-489.75 287.35,-484 285.71,-490.81"/>
</g>
<!-- Node3 -->
<g id="node3" class="node">
<title>Node3</title>
<g id="a_node3"><a xlink:href="classrare_1_1shared_1_1rare__core_1_1_rare_core.html#a405e1a4f20f16120f872ccd2654a1d56" target="_top" xlink:title=" ">
<polygon fill="white" stroke="black" points="1166,-179 1166,-209 1296,-209 1296,-179 1166,-179"/>
<text text-anchor="start" x="1174" y="-197" font-family="Helvetica,sans-Serif" font-size="10.00">rare.shared.rare_core.Rare</text>
<text text-anchor="middle" x="1231" y="-186" font-family="Helvetica,sans-Serif" font-size="10.00">Core.core</text>
</a>
</g>
</g>
<!-- Node1&#45;&gt;Node3 -->
<g id="edge2" class="edge">
<title>Node1&#45;&gt;Node3</title>
<path fill="none" stroke="midnightblue" d="M60.73,-206.68C75.85,-219.7 104.84,-242.42 134,-253 230.87,-288.14 261.45,-278 364.5,-278 364.5,-278 364.5,-278 909,-278 1007.58,-278 1036.77,-291.05 1130,-259 1157.8,-249.44 1185.53,-230.49 1204.71,-215.51"/>
<polygon fill="midnightblue" stroke="midnightblue" points="1207.02,-218.14 1212.63,-209.16 1202.64,-212.68 1207.02,-218.14"/>
</g>
<!-- Node4 -->
<g id="node4" class="node">
<title>Node4</title>
<g id="a_node4"><a xlink:href="classrare_1_1components_1_1dialogs_1_1install__dialog_1_1_install_dialog.html#a138282883753fa5f7af306a3bb35ceaf" target="_top" xlink:title=" ">
<polygon fill="white" stroke="black" points="337.5,-88.5 337.5,-107.5 393.5,-107.5 393.5,-88.5 337.5,-88.5"/>
<text text-anchor="middle" x="365.5" y="-95.5" font-family="Helvetica,sans-Serif" font-size="10.00">error_box</text>
</a>
</g>
</g>
<!-- Node1&#45;&gt;Node4 -->
<g id="edge4" class="edge">
<title>Node1&#45;&gt;Node4</title>
<path fill="none" stroke="midnightblue" d="M98.16,-192.89C138.37,-188.22 196.56,-178.54 244,-159 261.78,-151.68 263.13,-144.23 280,-135 296.06,-126.22 314.62,-117.91 330.25,-111.39"/>
<polygon fill="midnightblue" stroke="midnightblue" points="331.62,-114.61 339.55,-107.58 328.97,-108.13 331.62,-114.61"/>
</g>
<!-- Node5 -->
<g id="node5" class="node">
<title>Node5</title>
<g id="a_node5"><a xlink:href="classrare_1_1components_1_1dialogs_1_1install__dialog_1_1_install_dialog.html#a004987011909ef3b326e6d95f6393ec0" target="_top" xlink:title=" ">
<polygon fill="white" stroke="black" points="155.5,-112.5 155.5,-131.5 222.5,-131.5 222.5,-112.5 155.5,-112.5"/>
<text text-anchor="middle" x="189" y="-119.5" font-family="Helvetica,sans-Serif" font-size="10.00">get_options</text>
</a>
</g>
</g>
<!-- Node1&#45;&gt;Node5 -->
<g id="edge7" class="edge">
<title>Node1&#45;&gt;Node5</title>
<path fill="none" stroke="midnightblue" d="M67.76,-187.35C91.46,-174.47 133.65,-151.54 161.22,-136.55"/>
<polygon fill="midnightblue" stroke="midnightblue" points="163.19,-139.46 170.31,-131.61 159.85,-133.31 163.19,-139.46"/>
</g>
<!-- Node6 -->
<g id="node6" class="node">
<title>Node6</title>
<g id="a_node6"><a xlink:href="classrare_1_1components_1_1dialogs_1_1install__dialog_1_1_install_dialog.html#a36bb64fa9d259feffe5871168f96c4df" target="_top" xlink:title=" ">
<polygon fill="white" stroke="black" points="144,-206.5 144,-225.5 234,-225.5 234,-206.5 144,-206.5"/>
<text text-anchor="middle" x="189" y="-213.5" font-family="Helvetica,sans-Serif" font-size="10.00">on_worker_failed</text>
</a>
</g>
</g>
<!-- Node1&#45;&gt;Node6 -->
<g id="edge9" class="edge">
<title>Node1&#45;&gt;Node6</title>
<path fill="none" stroke="midnightblue" d="M98.27,-203.65C109.69,-205.22 121.95,-206.91 133.62,-208.51"/>
<polygon fill="midnightblue" stroke="midnightblue" points="133.31,-212 143.69,-209.9 134.26,-205.07 133.31,-212"/>
</g>
<!-- Node14 -->
<g id="node14" class="node">
<title>Node14</title>
<g id="a_node14"><a xlink:href="classrare_1_1components_1_1dialogs_1_1install__dialog_1_1_install_dialog.html#a0e948650b87686717868c3ee60c2c910" target="_top" xlink:title=" ">
<polygon fill="white" stroke="black" points="139,-56.5 139,-75.5 239,-75.5 239,-56.5 139,-56.5"/>
<text text-anchor="middle" x="189" y="-63.5" font-family="Helvetica,sans-Serif" font-size="10.00">on_worker_finished</text>
</a>
</g>
</g>
<!-- Node1&#45;&gt;Node14 -->
<g id="edge33" class="edge">
<title>Node1&#45;&gt;Node14</title>
<path fill="none" stroke="midnightblue" d="M57.42,-187.24C71.3,-169.34 102.6,-130.6 134,-103 142.93,-95.15 153.57,-87.54 163.04,-81.29"/>
<polygon fill="midnightblue" stroke="midnightblue" points="165.15,-84.09 171.67,-75.74 161.36,-78.2 165.15,-84.09"/>
</g>
<!-- Node15 -->
<g id="node15" class="node">
<title>Node15</title>
<g id="a_node15"><a xlink:href="classrare_1_1components_1_1dialogs_1_1install__dialog_1_1_install_dialog.html#a64dd35f139577016bc6417719d65d969" target="_top" xlink:title=" ">
<polygon fill="white" stroke="black" points="143.5,-362.5 143.5,-381.5 234.5,-381.5 234.5,-362.5 143.5,-362.5"/>
<text text-anchor="middle" x="189" y="-369.5" font-family="Helvetica,sans-Serif" font-size="10.00">on_worker_result</text>
</a>
</g>
</g>
<!-- Node1&#45;&gt;Node15 -->
<g id="edge35" class="edge">
<title>Node1&#45;&gt;Node15</title>
<path fill="none" stroke="midnightblue" d="M57.62,-206.66C79.81,-234.8 144.66,-317.05 173.68,-353.84"/>
<polygon fill="midnightblue" stroke="midnightblue" points="171.3,-356.47 180.24,-362.16 176.79,-352.14 171.3,-356.47"/>
</g>
<!-- Node19 -->
<g id="node19" class="node">
<title>Node19</title>
<g id="a_node19"><a xlink:href="namespacerare_1_1components.html#a019ee207f5c041fb0d2e61f76eafa958" target="_top" xlink:title=" ">
<polygon fill="white" stroke="black" points="134,-0.5 134,-19.5 244,-19.5 244,-0.5 134,-0.5"/>
<text text-anchor="middle" x="189" y="-7.5" font-family="Helvetica,sans-Serif" font-size="10.00">rare.components.start</text>
</a>
</g>
</g>
<!-- Node1&#45;&gt;Node19 -->
<g id="edge44" class="edge">
<title>Node1&#45;&gt;Node19</title>
<path fill="none" stroke="midnightblue" d="M53.62,-187.26C63.41,-161.86 92.53,-92.39 134,-47 141.78,-38.48 151.89,-30.9 161.25,-24.85"/>
<polygon fill="midnightblue" stroke="midnightblue" points="163.21,-27.76 169.9,-19.54 159.54,-21.79 163.21,-27.76"/>
</g>
<!-- Node3&#45;&gt;Node3 -->
<g id="edge3" class="edge">
<title>Node3&#45;&gt;Node3</title>
<path fill="none" stroke="midnightblue" d="M1202.42,-209.16C1195.53,-218.56 1205.05,-227.5 1231,-227.5 1246.81,-227.5 1256.52,-224.18 1260.14,-219.46"/>
<polygon fill="midnightblue" stroke="midnightblue" points="1263.62,-218.95 1259.58,-209.16 1256.63,-219.33 1263.62,-218.95"/>
</g>
<!-- Node4&#45;&gt;Node4 -->
<g id="edge5" class="edge">
<title>Node4&#45;&gt;Node4</title>
<path fill="none" stroke="midnightblue" d="M338.37,-107.76C325.18,-116.57 334.22,-126 365.5,-126 387.01,-126 398,-121.54 398.48,-115.89"/>
<polygon fill="midnightblue" stroke="midnightblue" points="401.31,-113.83 392.63,-107.76 395.63,-117.92 401.31,-113.83"/>
</g>
<!-- Node5&#45;&gt;Node5 -->
<g id="edge8" class="edge">
<title>Node5&#45;&gt;Node5</title>
<path fill="none" stroke="midnightblue" d="M167.42,-131.76C156.92,-140.57 164.12,-150 189,-150 204.94,-150 213.62,-146.13 215.04,-141.03"/>
<polygon fill="midnightblue" stroke="midnightblue" points="218.07,-139.25 210.58,-131.76 211.76,-142.29 218.07,-139.25"/>
</g>
<!-- Node6&#45;&gt;Node4 -->
<g id="edge10" class="edge">
<title>Node6&#45;&gt;Node4</title>
<path fill="none" stroke="midnightblue" d="M219.86,-206.43C228.27,-202.8 237.02,-198.04 244,-192 266.67,-172.4 257.28,-154.53 280,-135 293.78,-123.16 311.94,-114.54 327.89,-108.62"/>
<polygon fill="midnightblue" stroke="midnightblue" points="329.19,-111.88 337.48,-105.28 326.89,-105.27 329.19,-111.88"/>
</g>
<!-- Node6&#45;&gt;Node6 -->
<g id="edge11" class="edge">
<title>Node6&#45;&gt;Node6</title>
<path fill="none" stroke="midnightblue" d="M167.42,-225.76C156.92,-234.57 164.12,-244 189,-244 204.94,-244 213.62,-240.13 215.04,-235.03"/>
<polygon fill="midnightblue" stroke="midnightblue" points="218.07,-233.25 210.58,-225.76 211.76,-236.29 218.07,-233.25"/>
</g>
<!-- Node7 -->
<g id="node7" class="node">
<title>Node7</title>
<g id="a_node7"><a xlink:href="classrare_1_1components_1_1main__window_1_1_main_window.html#a7e95a1a89e48f7f756bcea2a62a14a62" target="_top" xlink:title=" ">
<polygon fill="white" stroke="black" points="296.5,-201 296.5,-231 434.5,-231 434.5,-201 296.5,-201"/>
<text text-anchor="start" x="304.5" y="-219" font-family="Helvetica,sans-Serif" font-size="10.00">rare.components.main</text>
<text text-anchor="middle" x="365.5" y="-208" font-family="Helvetica,sans-Serif" font-size="10.00">_window.MainWindow.show</text>
</a>
</g>
</g>
<!-- Node6&#45;&gt;Node7 -->
<g id="edge12" class="edge">
<title>Node6&#45;&gt;Node7</title>
<path fill="none" stroke="midnightblue" d="M234.03,-216C249.82,-216 268.12,-216 285.94,-216"/>
<polygon fill="midnightblue" stroke="midnightblue" points="286.35,-219.5 296.35,-216 286.35,-212.5 286.35,-219.5"/>
</g>
<!-- Node13 -->
<g id="node13" class="node">
<title>Node13</title>
<g id="a_node13"><a xlink:href="classrare_1_1launcher_1_1console_1_1_console.html#a7e95a1a89e48f7f756bcea2a62a14a62" target="_top" xlink:title=" ">
<polygon fill="white" stroke="black" points="280,-144.5 280,-163.5 451,-163.5 451,-144.5 280,-144.5"/>
<text text-anchor="middle" x="365.5" y="-151.5" font-family="Helvetica,sans-Serif" font-size="10.00">rare.launcher.console.Console.show</text>
</a>
</g>
</g>
<!-- Node6&#45;&gt;Node13 -->
<g id="edge29" class="edge">
<title>Node6&#45;&gt;Node13</title>
<path fill="none" stroke="midnightblue" d="M216.88,-206.45C246.6,-195.89 294.64,-178.82 327.81,-167.04"/>
<polygon fill="midnightblue" stroke="midnightblue" points="329.34,-170.21 337.59,-163.56 326.99,-163.61 329.34,-170.21"/>
</g>
<!-- Node7&#45;&gt;Node7 -->
<g id="edge28" class="edge">
<title>Node7&#45;&gt;Node7</title>
<path fill="none" stroke="midnightblue" d="M334.83,-231.16C327.43,-240.56 337.66,-249.5 365.5,-249.5 382.47,-249.5 392.89,-246.18 396.77,-241.46"/>
<polygon fill="midnightblue" stroke="midnightblue" points="400.25,-240.94 396.17,-231.16 393.26,-241.35 400.25,-240.94"/>
</g>
<!-- Node8 -->
<g id="node8" class="node">
<title>Node8</title>
<g id="a_node8"><a xlink:href="classrare_1_1components_1_1main__window_1_1_main_window.html#a91465b9ae57cdea67cbcbb58986892d7" target="_top" xlink:title=" ">
<polygon fill="white" stroke="black" points="503.5,-190.5 503.5,-231.5 645.5,-231.5 645.5,-190.5 503.5,-190.5"/>
<text text-anchor="start" x="511.5" y="-219.5" font-family="Helvetica,sans-Serif" font-size="10.00">rare.components.main</text>
<text text-anchor="start" x="511.5" y="-208.5" font-family="Helvetica,sans-Serif" font-size="10.00">_window.MainWindow.center</text>
<text text-anchor="middle" x="574.5" y="-197.5" font-family="Helvetica,sans-Serif" font-size="10.00">_window</text>
</a>
</g>
</g>
<!-- Node7&#45;&gt;Node8 -->
<g id="edge13" class="edge">
<title>Node7&#45;&gt;Node8</title>
<path fill="none" stroke="midnightblue" d="M434.57,-214.36C453.33,-213.9 473.86,-213.41 493.25,-212.94"/>
<polygon fill="midnightblue" stroke="midnightblue" points="493.35,-216.44 503.26,-212.7 493.18,-209.44 493.35,-216.44"/>
</g>
<!-- Node12 -->
<g id="node12" class="node">
<title>Node12</title>
<g id="a_node12"><a xlink:href="classrare_1_1launcher_1_1console_1_1_console.html#a91465b9ae57cdea67cbcbb58986892d7" target="_top" xlink:title=" ">
<polygon fill="white" stroke="black" points="487,-123 487,-153 662,-153 662,-123 487,-123"/>
<text text-anchor="start" x="495" y="-141" font-family="Helvetica,sans-Serif" font-size="10.00">rare.launcher.console.Console.center</text>
<text text-anchor="middle" x="574.5" y="-130" font-family="Helvetica,sans-Serif" font-size="10.00">_window</text>
</a>
</g>
</g>
<!-- Node7&#45;&gt;Node12 -->
<g id="edge25" class="edge">
<title>Node7&#45;&gt;Node12</title>
<path fill="none" stroke="midnightblue" d="M420.91,-200.96C430.98,-197.87 441.36,-194.5 451,-191 478.57,-181 508.82,-167.93 532.36,-157.28"/>
<polygon fill="midnightblue" stroke="midnightblue" points="534.04,-160.36 541.69,-153.02 531.14,-153.99 534.04,-160.36"/>
</g>
<!-- Node8&#45;&gt;Node8 -->
<g id="edge14" class="edge">
<title>Node8&#45;&gt;Node8</title>
<path fill="none" stroke="midnightblue" d="M541.42,-231.86C537.81,-241.54 548.84,-250 574.5,-250 590.54,-250 600.86,-246.7 605.47,-241.86"/>
<polygon fill="midnightblue" stroke="midnightblue" points="608.94,-242.37 607.58,-231.86 602.09,-240.92 608.94,-242.37"/>
</g>
<!-- Node9 -->
<g id="node9" class="node">
<title>Node9</title>
<g id="a_node9"><a xlink:href="classrare_1_1lgndr_1_1cli_1_1_legendary_c_l_i.html#a72a86e9e97d577472c8a8af9e4a67949" target="_top" xlink:title=" ">
<polygon fill="white" stroke="black" points="698,-159 698,-189 814,-189 814,-159 698,-159"/>
<text text-anchor="start" x="706" y="-177" font-family="Helvetica,sans-Serif" font-size="10.00">rare.lgndr.cli.Legendary</text>
<text text-anchor="middle" x="756" y="-166" font-family="Helvetica,sans-Serif" font-size="10.00">CLI.move</text>
</a>
</g>
</g>
<!-- Node8&#45;&gt;Node9 -->
<g id="edge15" class="edge">
<title>Node8&#45;&gt;Node9</title>
<path fill="none" stroke="midnightblue" d="M645.67,-196.54C659.6,-193.67 674.18,-190.66 688,-187.81"/>
<polygon fill="midnightblue" stroke="midnightblue" points="688.82,-191.22 697.9,-185.77 687.4,-184.36 688.82,-191.22"/>
</g>
<!-- Node9&#45;&gt;Node3 -->
<g id="edge16" class="edge">
<title>Node9&#45;&gt;Node3</title>
<path fill="none" stroke="midnightblue" d="M814.05,-173.29C825.93,-173.17 838.37,-173.06 850,-173 901.55,-172.72 914.49,-170.95 966,-173 1030.2,-175.55 1102.98,-181.57 1155.84,-186.52"/>
<polygon fill="midnightblue" stroke="midnightblue" points="1155.51,-190 1165.8,-187.46 1156.17,-183.03 1155.51,-190"/>
</g>
<!-- Node9&#45;&gt;Node9 -->
<g id="edge24" class="edge">
<title>Node9&#45;&gt;Node9</title>
<path fill="none" stroke="midnightblue" d="M729.51,-189.16C723.12,-198.56 731.95,-207.5 756,-207.5 770.65,-207.5 779.66,-204.18 783.01,-199.46"/>
<polygon fill="midnightblue" stroke="midnightblue" points="786.49,-198.97 782.49,-189.16 779.5,-199.32 786.49,-198.97"/>
</g>
<!-- Node10 -->
<g id="node10" class="node">
<title>Node10</title>
<g id="a_node10"><a xlink:href="classrare_1_1lgndr_1_1cli_1_1_legendary_c_l_i.html#a4aaa726f3b4643dc9fc5f027294fc9c9" target="_top" xlink:title=" ">
<polygon fill="white" stroke="black" points="850,-182 850,-212 966,-212 966,-182 850,-182"/>
<text text-anchor="start" x="858" y="-200" font-family="Helvetica,sans-Serif" font-size="10.00">rare.lgndr.cli.Legendary</text>
<text text-anchor="middle" x="908" y="-189" font-family="Helvetica,sans-Serif" font-size="10.00">CLI.install_game</text>
</a>
</g>
</g>
<!-- Node9&#45;&gt;Node10 -->
<g id="edge17" class="edge">
<title>Node9&#45;&gt;Node10</title>
<path fill="none" stroke="midnightblue" d="M814.14,-182.76C822.47,-184.04 831.11,-185.36 839.62,-186.67"/>
<polygon fill="midnightblue" stroke="midnightblue" points="839.11,-190.13 849.53,-188.19 840.17,-183.21 839.11,-190.13"/>
</g>
<!-- Node10&#45;&gt;Node3 -->
<g id="edge18" class="edge">
<title>Node10&#45;&gt;Node3</title>
<path fill="none" stroke="midnightblue" d="M966.03,-193.45C977.91,-192.84 990.36,-192.31 1002,-192 1053.21,-190.62 1110.91,-191.15 1155.46,-192.01"/>
<polygon fill="midnightblue" stroke="midnightblue" points="1155.55,-195.51 1165.62,-192.21 1155.69,-188.51 1155.55,-195.51"/>
</g>
<!-- Node10&#45;&gt;Node10 -->
<g id="edge19" class="edge">
<title>Node10&#45;&gt;Node10</title>
<path fill="none" stroke="midnightblue" d="M881.51,-212.16C875.12,-221.56 883.95,-230.5 908,-230.5 922.65,-230.5 931.66,-227.18 935.01,-222.46"/>
<polygon fill="midnightblue" stroke="midnightblue" points="938.49,-221.97 934.49,-212.16 931.5,-222.32 938.49,-221.97"/>
</g>
<!-- Node11 -->
<g id="node11" class="node">
<title>Node11</title>
<g id="a_node11"><a xlink:href="classrare_1_1lgndr_1_1cli_1_1_legendary_c_l_i.html#a7de93b9e2b51b491d5c70be49680f66d" target="_top" xlink:title=" ">
<polygon fill="white" stroke="black" points="1002,-201 1002,-231 1130,-231 1130,-201 1002,-201"/>
<text text-anchor="start" x="1010" y="-219" font-family="Helvetica,sans-Serif" font-size="10.00">rare.lgndr.cli.Legendary</text>
<text text-anchor="middle" x="1066" y="-208" font-family="Helvetica,sans-Serif" font-size="10.00">CLI.install_game_cleanup</text>
</a>
</g>
</g>
<!-- Node10&#45;&gt;Node11 -->
<g id="edge20" class="edge">
<title>Node10&#45;&gt;Node11</title>
<path fill="none" stroke="midnightblue" d="M966.2,-197.43C974.52,-198.27 983.17,-199.25 991.74,-200.34"/>
<polygon fill="midnightblue" stroke="midnightblue" points="991.38,-203.82 1001.75,-201.66 992.29,-196.88 991.38,-203.82"/>
</g>
<!-- Node11&#45;&gt;Node3 -->
<g id="edge21" class="edge">
<title>Node11&#45;&gt;Node3</title>
<path fill="none" stroke="midnightblue" d="M1130.02,-207.49C1138.46,-206.36 1147.17,-205.18 1155.77,-204.02"/>
<polygon fill="midnightblue" stroke="midnightblue" points="1156.36,-207.47 1165.8,-202.66 1155.42,-200.53 1156.36,-207.47"/>
</g>
<!-- Node11&#45;&gt;Node10 -->
<g id="edge22" class="edge">
<title>Node11&#45;&gt;Node10</title>
<path fill="none" stroke="midnightblue" d="M1001.75,-214.94C993.39,-214.04 984.8,-213.01 976.37,-211.9"/>
<polygon fill="midnightblue" stroke="midnightblue" points="976.59,-208.4 966.2,-210.5 975.63,-215.33 976.59,-208.4"/>
</g>
<!-- Node11&#45;&gt;Node11 -->
<g id="edge23" class="edge">
<title>Node11&#45;&gt;Node11</title>
<path fill="none" stroke="midnightblue" d="M1038.47,-231.16C1031.83,-240.56 1041,-249.5 1066,-249.5 1081.23,-249.5 1090.59,-246.18 1094.07,-241.46"/>
<polygon fill="midnightblue" stroke="midnightblue" points="1097.55,-240.96 1093.53,-231.16 1090.56,-241.33 1097.55,-240.96"/>
</g>
<!-- Node12&#45;&gt;Node9 -->
<g id="edge27" class="edge">
<title>Node12&#45;&gt;Node9</title>
<path fill="none" stroke="midnightblue" d="M650.32,-153.01C662.72,-155.49 675.52,-158.06 687.72,-160.51"/>
<polygon fill="midnightblue" stroke="midnightblue" points="687.31,-163.99 697.8,-162.53 688.69,-157.13 687.31,-163.99"/>
</g>
<!-- Node12&#45;&gt;Node12 -->
<g id="edge26" class="edge">
<title>Node12&#45;&gt;Node12</title>
<path fill="none" stroke="midnightblue" d="M543.13,-153.16C535.57,-162.56 546.02,-171.5 574.5,-171.5 591.85,-171.5 602.51,-168.18 606.48,-163.46"/>
<polygon fill="midnightblue" stroke="midnightblue" points="609.96,-162.93 605.87,-153.16 602.97,-163.35 609.96,-162.93"/>
</g>
<!-- Node13&#45;&gt;Node8 -->
<g id="edge30" class="edge">
<title>Node13&#45;&gt;Node8</title>
<path fill="none" stroke="midnightblue" d="M401.15,-163.54C426.39,-170.49 461.63,-180.19 493.67,-189.02"/>
<polygon fill="midnightblue" stroke="midnightblue" points="492.93,-192.44 503.5,-191.72 494.79,-185.69 492.93,-192.44"/>
</g>
<!-- Node13&#45;&gt;Node12 -->
<g id="edge31" class="edge">
<title>Node13&#45;&gt;Node12</title>
<path fill="none" stroke="midnightblue" d="M451.29,-147.45C459.72,-146.79 468.32,-146.13 476.85,-145.47"/>
<polygon fill="midnightblue" stroke="midnightblue" points="477.13,-148.96 486.83,-144.7 476.59,-141.98 477.13,-148.96"/>
</g>
<!-- Node13&#45;&gt;Node13 -->
<g id="edge32" class="edge">
<title>Node13&#45;&gt;Node13</title>
<path fill="none" stroke="midnightblue" d="M338.37,-163.76C325.18,-172.57 334.22,-182 365.5,-182 387.01,-182 398,-177.54 398.48,-171.89"/>
<polygon fill="midnightblue" stroke="midnightblue" points="401.31,-169.83 392.63,-163.76 395.63,-173.92 401.31,-169.83"/>
</g>
<!-- Node14&#45;&gt;Node14 -->
<g id="edge34" class="edge">
<title>Node14&#45;&gt;Node14</title>
<path fill="none" stroke="midnightblue" d="M167.42,-75.76C156.92,-84.57 164.12,-94 189,-94 204.94,-94 213.62,-90.13 215.04,-85.03"/>
<polygon fill="midnightblue" stroke="midnightblue" points="218.07,-83.25 210.58,-75.76 211.76,-86.29 218.07,-83.25"/>
</g>
<!-- Node15&#45;&gt;Node2 -->
<g id="edge36" class="edge">
<title>Node15&#45;&gt;Node2</title>
<path fill="none" stroke="midnightblue" d="M195.6,-381.78C208.02,-402.57 239.96,-451.37 280,-477 282.61,-478.67 285.34,-480.23 288.16,-481.68"/>
<polygon fill="midnightblue" stroke="midnightblue" points="286.84,-484.93 297.39,-485.97 289.79,-478.58 286.84,-484.93"/>
</g>
<!-- Node15&#45;&gt;Node15 -->
<g id="edge41" class="edge">
<title>Node15&#45;&gt;Node15</title>
<path fill="none" stroke="midnightblue" d="M167.42,-381.76C156.92,-390.57 164.12,-400 189,-400 204.94,-400 213.62,-396.13 215.04,-391.03"/>
<polygon fill="midnightblue" stroke="midnightblue" points="218.07,-389.25 210.58,-381.76 211.76,-392.29 218.07,-389.25"/>
</g>
<!-- Node16 -->
<g id="node16" class="node">
<title>Node16</title>
<g id="a_node16"><a xlink:href="classrare_1_1components_1_1main__window_1_1_main_window.html#ad9f81f4c56e23ca3c206b1e9374fc137" target="_top" xlink:title=" ">
<polygon fill="white" stroke="black" points="296.5,-419 296.5,-449 434.5,-449 434.5,-419 296.5,-419"/>
<text text-anchor="start" x="304.5" y="-437" font-family="Helvetica,sans-Serif" font-size="10.00">rare.components.main</text>
<text text-anchor="middle" x="365.5" y="-426" font-family="Helvetica,sans-Serif" font-size="10.00">_window.MainWindow.close</text>
</a>
</g>
</g>
<!-- Node15&#45;&gt;Node16 -->
<g id="edge37" class="edge">
<title>Node15&#45;&gt;Node16</title>
<path fill="none" stroke="midnightblue" d="M211.58,-381.6C229.67,-389.47 256.26,-400.63 280,-409 286.75,-411.38 293.85,-413.72 300.94,-415.96"/>
<polygon fill="midnightblue" stroke="midnightblue" points="300.01,-419.33 310.59,-418.95 302.08,-412.65 300.01,-419.33"/>
</g>
<!-- Node17 -->
<g id="node17" class="node">
<title>Node17</title>
<g id="a_node17"><a xlink:href="namespacerare_1_1utils_1_1misc.html#a3544b31f50ff739b7e8bb4ab751026b7" target="_top" xlink:title=" ">
<polygon fill="white" stroke="black" points="301,-362.5 301,-381.5 430,-381.5 430,-362.5 301,-362.5"/>
<text text-anchor="middle" x="365.5" y="-369.5" font-family="Helvetica,sans-Serif" font-size="10.00">rare.utils.misc.format_size</text>
</a>
</g>
</g>
<!-- Node15&#45;&gt;Node17 -->
<g id="edge39" class="edge">
<title>Node15&#45;&gt;Node17</title>
<path fill="none" stroke="midnightblue" d="M234.94,-372C251.97,-372 271.85,-372 290.84,-372"/>
<polygon fill="midnightblue" stroke="midnightblue" points="290.97,-375.5 300.97,-372 290.97,-368.5 290.97,-375.5"/>
</g>
<!-- Node18 -->
<g id="node18" class="node">
<title>Node18</title>
<g id="a_node18"><a xlink:href="classrare_1_1components_1_1dialogs_1_1install__dialog_1_1_install_dialog.html#a28b2dbb84b35512e356dcdff0827aac2" target="_top" xlink:title=" ">
<polygon fill="white" stroke="black" points="325,-306.5 325,-325.5 406,-325.5 406,-306.5 325,-306.5"/>
<text text-anchor="middle" x="365.5" y="-313.5" font-family="Helvetica,sans-Serif" font-size="10.00">same_platform</text>
</a>
</g>
</g>
<!-- Node15&#45;&gt;Node18 -->
<g id="edge42" class="edge">
<title>Node15&#45;&gt;Node18</title>
<path fill="none" stroke="midnightblue" d="M220,-362.37C249.01,-353.06 293.16,-338.9 325.02,-328.67"/>
<polygon fill="midnightblue" stroke="midnightblue" points="326.44,-331.89 334.89,-325.5 324.3,-325.22 326.44,-331.89"/>
</g>
<!-- Node16&#45;&gt;Node16 -->
<g id="edge38" class="edge">
<title>Node16&#45;&gt;Node16</title>
<path fill="none" stroke="midnightblue" d="M334.83,-449.16C327.43,-458.56 337.66,-467.5 365.5,-467.5 382.47,-467.5 392.89,-464.18 396.77,-459.46"/>
<polygon fill="midnightblue" stroke="midnightblue" points="400.25,-458.94 396.17,-449.16 393.26,-459.35 400.25,-458.94"/>
</g>
<!-- Node17&#45;&gt;Node17 -->
<g id="edge40" class="edge">
<title>Node17&#45;&gt;Node17</title>
<path fill="none" stroke="midnightblue" d="M338.37,-381.76C325.18,-390.57 334.22,-400 365.5,-400 387.01,-400 398,-395.54 398.48,-389.89"/>
<polygon fill="midnightblue" stroke="midnightblue" points="401.31,-387.83 392.63,-381.76 395.63,-391.92 401.31,-387.83"/>
</g>
<!-- Node18&#45;&gt;Node18 -->
<g id="edge43" class="edge">
<title>Node18&#45;&gt;Node18</title>
<path fill="none" stroke="midnightblue" d="M338.37,-325.76C325.18,-334.57 334.22,-344 365.5,-344 387.01,-344 398,-339.54 398.48,-333.89"/>
<polygon fill="midnightblue" stroke="midnightblue" points="401.31,-331.83 392.63,-325.76 395.63,-335.92 401.31,-331.83"/>
</g>
<!-- Node19&#45;&gt;Node19 -->
<g id="edge45" class="edge">
<title>Node19&#45;&gt;Node19</title>
<path fill="none" stroke="midnightblue" d="M167.42,-19.76C156.92,-28.57 164.12,-38 189,-38 204.94,-38 213.62,-34.13 215.04,-29.03"/>
<polygon fill="midnightblue" stroke="midnightblue" points="218.07,-27.25 210.58,-19.76 211.76,-30.29 218.07,-27.25"/>
</g>
</g>
</svg>
        <g id="navigator" transform="translate(0 0)" fill="#404254">
                <rect fill="#f2f5e9" fill-opacity="0.5" stroke="#606060" stroke-width=".5" x="0" y="0" width="60" height="60"/>
                <use id="zoomplus" xlink:href="#zoomPlus" x="17" y="9" onmousedown="handleZoom(evt,'in')"/>
                <use id="zoomminus" xlink:href="#zoomMin" x="42" y="9" onmousedown="handleZoom(evt,'out')"/>
                <use id="reset" xlink:href="#resetDef" x="30" y="36" onmousedown="handleReset()"/>
                <g id="arrowUp" xlink:href="#dirArrow" transform="translate(30 24)" onmousedown="handlePan(0,-1)">
                  <use xlink:href="#rim" fill="#404040">
                        <set attributeName="fill" to="#808080" begin="arrowUp.mouseover" end="arrowUp.mouseout"/>
                  </use>
                  <path fill="none" stroke="white" stroke-width="1.5" d="M0,-3.0v7 M-2.5,-0.5L0,-3.0L2.5,-0.5"/>
                </g>
                <g id="arrowRight" xlink:href="#dirArrow" transform="rotate(90) translate(36 -43)" onmousedown="handlePan(1,0)">
                  <use xlink:href="#rim" fill="#404040">
                        <set attributeName="fill" to="#808080" begin="arrowRight.mouseover" end="arrowRight.mouseout"/>
                  </use>
                  <path fill="none" stroke="white" stroke-width="1.5" d="M0,-3.0v7 M-2.5,-0.5L0,-3.0L2.5,-0.5"/>
                </g>
                <g id="arrowDown" xlink:href="#dirArrow" transform="rotate(180) translate(-30 -48)" onmousedown="handlePan(0,1)">
                  <use xlink:href="#rim" fill="#404040">
                        <set attributeName="fill" to="#808080" begin="arrowDown.mouseover" end="arrowDown.mouseout"/>
                  </use>
                  <path fill="none" stroke="white" stroke-width="1.5" d="M0,-3.0v7 M-2.5,-0.5L0,-3.0L2.5,-0.5"/>
                </g>
                <g id="arrowLeft" xlink:href="#dirArrow" transform="rotate(270) translate(-36 17)" onmousedown="handlePan(-1,0)">
                  <use xlink:href="#rim" fill="#404040">
                        <set attributeName="fill" to="#808080" begin="arrowLeft.mouseover" end="arrowLeft.mouseout"/>
                  </use>
                  <path fill="none" stroke="white" stroke-width="1.5" d="M0,-3.0v7 M-2.5,-0.5L0,-3.0L2.5,-0.5"/>
                </g>
        </g>
        <svg viewBox="0 0 15 15" width="100%" height="30px" preserveAspectRatio="xMaxYMin meet">
         <g id="arrow_out" transform="scale(0.3 0.3)">
          <a xlink:href="classrare_1_1components_1_1dialogs_1_1install__dialog_1_1_install_dialog_aca780d78b993a295a93507a4a6d12a69_cgraph_org.svg" target="_base">
           <rect id="button" ry="5" rx="5" y="6" x="6" height="38" width="38"
                fill="#f2f5e9" fill-opacity="0.5" stroke="#606060" stroke-width="1.0"/>
           <path id="arrow"
             d="M 11.500037,31.436501 C 11.940474,20.09759 22.043105,11.32322 32.158766,21.979434 L 37.068811,17.246167 C 37.068811,17.246167 37.088388,32 37.088388,32 L 22.160133,31.978069 C 22.160133,31.978069 26.997745,27.140456 26.997745,27.140456 C 18.528582,18.264221 13.291696,25.230495 11.500037,31.436501 z"
             style="fill:#404040;"/>
          </a>
         </g>
        </svg>
</svg>
