<?xml version="1.0" encoding="UTF-8" standalone="no"?>
<!DOCTYPE svg PUBLIC "-//W3C//DTD SVG 1.1//EN"
 "http://www.w3.org/Graphics/SVG/1.1/DTD/svg11.dtd">
<!-- Generated by graphviz version 2.49.3 (20211027.1534)
 -->
<!-- Title: sort_list Pages: 1 -->
<svg width="742pt" height="390pt"
 viewBox="0.00 0.00 742.00 390.00" xmlns="http://www.w3.org/2000/svg" xmlns:xlink="http://www.w3.org/1999/xlink">
<g id="graph0" class="graph" transform="scale(1 1) rotate(0) translate(4 386)">
<title>sort_list</title>
<polygon fill="white" stroke="transparent" points="-4,4 -4,-386 738,-386 738,4 -4,4"/>
<!-- Node1 -->
<g id="node1" class="node">
<title>Node1</title>
<g id="a_node1"><a xlink:title=" ">
<polygon fill="#bfbfbf" stroke="black" points="0,-296.5 0,-315.5 51,-315.5 51,-296.5 0,-296.5"/>
<text text-anchor="middle" x="25.5" y="-303.5" font-family="Helvetica,sans-Serif" font-size="10.00">sort_list</text>
</a>
</g>
</g>
<!-- Node1&#45;&gt;Node1 -->
<g id="edge25" class="edge">
<title>Node1&#45;&gt;Node1</title>
<path fill="none" stroke="midnightblue" d="M7,-315.76C-1.99,-324.57 4.17,-334 25.5,-334 39.16,-334 46.6,-330.13 47.82,-325.03"/>
<polygon fill="midnightblue" stroke="midnightblue" points="51.05,-323.67 44,-315.76 44.57,-326.34 51.05,-323.67"/>
</g>
<!-- Node2 -->
<g id="node2" class="node">
<title>Node2</title>
<g id="a_node2"><a xlink:href="classrare_1_1components_1_1tabs_1_1games_1_1_games_tab.html#a869dbac7d5500a0c77a5dcbbba5112d5" target="_top" xlink:title=" ">
<polygon fill="white" stroke="black" points="88.5,-362.5 88.5,-381.5 203.5,-381.5 203.5,-362.5 88.5,-362.5"/>
<text text-anchor="middle" x="146" y="-369.5" font-family="Helvetica,sans-Serif" font-size="10.00">__remove_from_layout</text>
</a>
</g>
</g>
<!-- Node1&#45;&gt;Node2 -->
<g id="edge1" class="edge">
<title>Node1&#45;&gt;Node2</title>
<path fill="none" stroke="midnightblue" d="M38.97,-315.85C50.86,-324.94 69.49,-338.44 87,-348 93.99,-351.82 101.73,-355.41 109.2,-358.6"/>
<polygon fill="midnightblue" stroke="midnightblue" points="107.88,-361.84 118.46,-362.41 110.54,-355.37 107.88,-361.84"/>
</g>
<!-- Node3 -->
<g id="node3" class="node">
<title>Node3</title>
<g id="a_node3"><a xlink:href="classrare_1_1components_1_1tabs_1_1games_1_1_games_tab.html#a0d8a470c0a0518913b8fd90bf37549da" target="_top" xlink:title=" ">
<polygon fill="white" stroke="black" points="92.5,-124.5 92.5,-143.5 199.5,-143.5 199.5,-124.5 92.5,-124.5"/>
<text text-anchor="middle" x="146" y="-131.5" font-family="Helvetica,sans-Serif" font-size="10.00">add_installed_widget</text>
</a>
</g>
</g>
<!-- Node1&#45;&gt;Node3 -->
<g id="edge2" class="edge">
<title>Node1&#45;&gt;Node3</title>
<path fill="none" stroke="midnightblue" d="M33.21,-296.26C52.36,-268.47 107.47,-188.47 132.44,-152.23"/>
<polygon fill="midnightblue" stroke="midnightblue" points="135.57,-153.85 138.36,-143.63 129.81,-149.88 135.57,-153.85"/>
</g>
<!-- Node4 -->
<g id="node4" class="node">
<title>Node4</title>
<g id="a_node4"><a xlink:href="classrare_1_1shared_1_1rare__core_1_1_rare_core.html#a405e1a4f20f16120f872ccd2654a1d56" target="_top" xlink:title=" ">
<polygon fill="white" stroke="black" points="418.5,-225 418.5,-255 548.5,-255 548.5,-225 418.5,-225"/>
<text text-anchor="start" x="426.5" y="-243" font-family="Helvetica,sans-Serif" font-size="10.00">rare.shared.rare_core.Rare</text>
<text text-anchor="middle" x="483.5" y="-232" font-family="Helvetica,sans-Serif" font-size="10.00">Core.core</text>
</a>
</g>
</g>
<!-- Node1&#45;&gt;Node4 -->
<g id="edge24" class="edge">
<title>Node1&#45;&gt;Node4</title>
<path fill="none" stroke="midnightblue" d="M51.42,-312.07C109.83,-325.15 259.41,-351.93 376,-315 408.74,-304.63 440.11,-280.18 460.21,-261.99"/>
<polygon fill="midnightblue" stroke="midnightblue" points="462.66,-264.5 467.6,-255.13 457.89,-259.37 462.66,-264.5"/>
</g>
<!-- Node11 -->
<g id="node11" class="node">
<title>Node11</title>
<g id="a_node11"><a xlink:href="classrare_1_1components_1_1tabs_1_1games_1_1_games_tab.html#a085f8e3d6939b8b627c26d9c4d6da49f" target="_top" xlink:title=" ">
<polygon fill="white" stroke="black" points="87,-249.5 87,-268.5 205,-268.5 205,-249.5 87,-249.5"/>
<text text-anchor="middle" x="146" y="-256.5" font-family="Helvetica,sans-Serif" font-size="10.00">add_uninstalled_widget</text>
</a>
</g>
</g>
<!-- Node1&#45;&gt;Node11 -->
<g id="edge18" class="edge">
<title>Node1&#45;&gt;Node11</title>
<path fill="none" stroke="midnightblue" d="M50.48,-296.49C67.95,-289.56 91.86,-280.08 111.26,-272.38"/>
<polygon fill="midnightblue" stroke="midnightblue" points="112.64,-275.6 120.65,-268.66 110.06,-269.09 112.64,-275.6"/>
</g>
<!-- Node3&#45;&gt;Node3 -->
<g id="edge3" class="edge">
<title>Node3&#45;&gt;Node3</title>
<path fill="none" stroke="midnightblue" d="M127.5,-143.76C118.51,-152.57 124.67,-162 146,-162 159.66,-162 167.1,-158.13 168.32,-153.03"/>
<polygon fill="midnightblue" stroke="midnightblue" points="171.55,-151.67 164.5,-143.76 165.07,-154.34 171.55,-151.67"/>
</g>
<!-- Node3&#45;&gt;Node4 -->
<g id="edge4" class="edge">
<title>Node3&#45;&gt;Node4</title>
<path fill="none" stroke="midnightblue" d="M199.55,-125.23C249.01,-119.83 323.18,-119.35 376,-153 403.2,-170.33 387.13,-195.48 412,-216 413.57,-217.3 415.21,-218.52 416.92,-219.69"/>
<polygon fill="midnightblue" stroke="midnightblue" points="415.46,-222.89 425.85,-224.97 419.03,-216.87 415.46,-222.89"/>
</g>
<!-- Node5 -->
<g id="node5" class="node">
<title>Node5</title>
<g id="a_node5"><a xlink:href="classrare_1_1shared_1_1rare__core_1_1_rare_core.html#af626fd87a4280875286ed304d4270f61" target="_top" xlink:title=" ">
<polygon fill="white" stroke="black" points="243.5,-163 243.5,-193 373.5,-193 373.5,-163 243.5,-163"/>
<text text-anchor="start" x="251.5" y="-181" font-family="Helvetica,sans-Serif" font-size="10.00">rare.shared.rare_core.Rare</text>
<text text-anchor="middle" x="308.5" y="-170" font-family="Helvetica,sans-Serif" font-size="10.00">Core.image_manager</text>
</a>
</g>
</g>
<!-- Node3&#45;&gt;Node5 -->
<g id="edge6" class="edge">
<title>Node3&#45;&gt;Node5</title>
<path fill="none" stroke="midnightblue" d="M181.83,-143.55C199.65,-148.43 221.94,-154.55 242.78,-160.26"/>
<polygon fill="midnightblue" stroke="midnightblue" points="241.98,-163.67 252.55,-162.93 243.83,-156.92 241.98,-163.67"/>
</g>
<!-- Node7 -->
<g id="node7" class="node">
<title>Node7</title>
<g id="a_node7"><a xlink:href="classrare_1_1components_1_1tabs_1_1games_1_1_games_tab.html#a0b2329db4df141f4c93ea860e7b482ba" target="_top" xlink:title=" ">
<polygon fill="white" stroke="black" points="263.5,-0.5 263.5,-19.5 353.5,-19.5 353.5,-0.5 263.5,-0.5"/>
<text text-anchor="middle" x="308.5" y="-7.5" font-family="Helvetica,sans-Serif" font-size="10.00">show_game_info</text>
</a>
</g>
</g>
<!-- Node3&#45;&gt;Node7 -->
<g id="edge11" class="edge">
<title>Node3&#45;&gt;Node7</title>
<path fill="none" stroke="midnightblue" d="M155.95,-124.31C171.95,-107.33 206.97,-71.67 241,-47 252.65,-38.56 266.42,-30.6 278.4,-24.25"/>
<polygon fill="midnightblue" stroke="midnightblue" points="280.27,-27.22 287.55,-19.52 277.06,-21 280.27,-27.22"/>
</g>
<!-- Node8 -->
<g id="node8" class="node">
<title>Node8</title>
<g id="a_node8"><a xlink:href="classrare_1_1components_1_1tabs_1_1shop_1_1_shop.html#adce81273b921608423370102d510bcab" target="_top" xlink:title=" ">
<polygon fill="white" stroke="black" points="241,-57 241,-87 376,-87 376,-57 241,-57"/>
<text text-anchor="start" x="249" y="-75" font-family="Helvetica,sans-Serif" font-size="10.00">rare.components.tabs.shop.</text>
<text text-anchor="middle" x="308.5" y="-64" font-family="Helvetica,sans-Serif" font-size="10.00">Shop.show_game_info</text>
</a>
</g>
</g>
<!-- Node3&#45;&gt;Node8 -->
<g id="edge13" class="edge">
<title>Node3&#45;&gt;Node8</title>
<path fill="none" stroke="midnightblue" d="M171.73,-124.45C194.87,-115.51 230.11,-101.9 258.89,-90.78"/>
<polygon fill="midnightblue" stroke="midnightblue" points="260.3,-93.98 268.37,-87.12 257.78,-87.45 260.3,-93.98"/>
</g>
<!-- Node4&#45;&gt;Node4 -->
<g id="edge5" class="edge">
<title>Node4&#45;&gt;Node4</title>
<path fill="none" stroke="midnightblue" d="M453.18,-255.16C445.86,-264.56 455.97,-273.5 483.5,-273.5 500.27,-273.5 510.58,-270.18 514.42,-265.46"/>
<polygon fill="midnightblue" stroke="midnightblue" points="517.89,-264.94 513.82,-255.16 510.91,-265.34 517.89,-264.94"/>
</g>
<!-- Node5&#45;&gt;Node4 -->
<g id="edge7" class="edge">
<title>Node5&#45;&gt;Node4</title>
<path fill="none" stroke="midnightblue" d="M349.32,-193.05C368.27,-200.13 391.26,-208.63 412,-216 417.18,-217.84 422.58,-219.73 427.99,-221.61"/>
<polygon fill="midnightblue" stroke="midnightblue" points="427.09,-225 437.68,-224.95 429.37,-218.38 427.09,-225"/>
</g>
<!-- Node5&#45;&gt;Node5 -->
<g id="edge8" class="edge">
<title>Node5&#45;&gt;Node5</title>
<path fill="none" stroke="midnightblue" d="M280.27,-193.16C273.46,-202.56 282.87,-211.5 308.5,-211.5 324.12,-211.5 333.71,-208.18 337.29,-203.46"/>
<polygon fill="midnightblue" stroke="midnightblue" points="340.76,-202.96 336.73,-193.16 333.77,-203.33 340.76,-202.96"/>
</g>
<!-- Node6 -->
<g id="node6" class="node">
<title>Node6</title>
<g id="a_node6"><a xlink:href="classrare_1_1shared_1_1rare__core_1_1_rare_core.html#a135560fc58fcc2e5cff07ec25c23a06c" target="_top" xlink:title=" ">
<polygon fill="white" stroke="black" points="418.5,-158 418.5,-188 548.5,-188 548.5,-158 418.5,-158"/>
<text text-anchor="start" x="426.5" y="-176" font-family="Helvetica,sans-Serif" font-size="10.00">rare.shared.rare_core.Rare</text>
<text text-anchor="middle" x="483.5" y="-165" font-family="Helvetica,sans-Serif" font-size="10.00">Core.signals</text>
</a>
</g>
</g>
<!-- Node5&#45;&gt;Node6 -->
<g id="edge9" class="edge">
<title>Node5&#45;&gt;Node6</title>
<path fill="none" stroke="midnightblue" d="M373.92,-176.14C385.03,-175.82 396.65,-175.48 408,-175.15"/>
<polygon fill="midnightblue" stroke="midnightblue" points="408.42,-178.64 418.32,-174.86 408.22,-171.65 408.42,-178.64"/>
</g>
<!-- Node6&#45;&gt;Node6 -->
<g id="edge10" class="edge">
<title>Node6&#45;&gt;Node6</title>
<path fill="none" stroke="midnightblue" d="M453.18,-188.16C445.86,-197.56 455.97,-206.5 483.5,-206.5 500.27,-206.5 510.58,-203.18 514.42,-198.46"/>
<polygon fill="midnightblue" stroke="midnightblue" points="517.89,-197.94 513.82,-188.16 510.91,-198.34 517.89,-197.94"/>
</g>
<!-- Node7&#45;&gt;Node7 -->
<g id="edge12" class="edge">
<title>Node7&#45;&gt;Node7</title>
<path fill="none" stroke="midnightblue" d="M283.53,-19.76C271.38,-28.57 279.71,-38 308.5,-38 327.85,-38 337.95,-33.74 338.81,-28.27"/>
<polygon fill="midnightblue" stroke="midnightblue" points="341.75,-26.37 333.47,-19.76 335.82,-30.09 341.75,-26.37"/>
</g>
<!-- Node8&#45;&gt;Node8 -->
<g id="edge17" class="edge">
<title>Node8&#45;&gt;Node8</title>
<path fill="none" stroke="midnightblue" d="M280.27,-87.16C273.46,-96.56 282.87,-105.5 308.5,-105.5 324.12,-105.5 333.71,-102.18 337.29,-97.46"/>
<polygon fill="midnightblue" stroke="midnightblue" points="340.76,-96.96 336.73,-87.16 333.77,-97.33 340.76,-96.96"/>
</g>
<!-- Node9 -->
<g id="node9" class="node">
<title>Node9</title>
<g id="a_node9"><a xlink:href="classrare_1_1lgndr_1_1api__monkeys_1_1_lgndr_indirect_logger.html#a98a895468c8036bb8122dd2c568d91e7" target="_top" xlink:title=" ">
<polygon fill="white" stroke="black" points="412,-57 412,-87 555,-87 555,-57 412,-57"/>
<text text-anchor="start" x="420" y="-75" font-family="Helvetica,sans-Serif" font-size="10.00">rare.lgndr.api_monkeys.Lgndr</text>
<text text-anchor="middle" x="483.5" y="-64" font-family="Helvetica,sans-Serif" font-size="10.00">IndirectLogger.info</text>
</a>
</g>
</g>
<!-- Node8&#45;&gt;Node9 -->
<g id="edge14" class="edge">
<title>Node8&#45;&gt;Node9</title>
<path fill="none" stroke="midnightblue" d="M376.39,-72C384.63,-72 393.13,-72 401.56,-72"/>
<polygon fill="midnightblue" stroke="midnightblue" points="401.78,-75.5 411.78,-72 401.78,-68.5 401.78,-75.5"/>
</g>
<!-- Node9&#45;&gt;Node9 -->
<g id="edge16" class="edge">
<title>Node9&#45;&gt;Node9</title>
<path fill="none" stroke="midnightblue" d="M453.18,-87.16C445.86,-96.56 455.97,-105.5 483.5,-105.5 500.27,-105.5 510.58,-102.18 514.42,-97.46"/>
<polygon fill="midnightblue" stroke="midnightblue" points="517.89,-96.94 513.82,-87.16 510.91,-97.34 517.89,-96.94"/>
</g>
<!-- Node10 -->
<g id="node10" class="node">
<title>Node10</title>
<g id="a_node10"><a xlink:href="classrare_1_1lgndr_1_1api__monkeys_1_1_lgndr_indirect_logger.html#a66bb1af90088807e5445bcf242390463" target="_top" xlink:title=" ">
<polygon fill="white" stroke="black" points="591,-57 591,-87 734,-87 734,-57 591,-57"/>
<text text-anchor="start" x="599" y="-75" font-family="Helvetica,sans-Serif" font-size="10.00">rare.lgndr.api_monkeys.Lgndr</text>
<text text-anchor="middle" x="662.5" y="-64" font-family="Helvetica,sans-Serif" font-size="10.00">IndirectLogger._log</text>
</a>
</g>
</g>
<!-- Node9&#45;&gt;Node10 -->
<g id="edge15" class="edge">
<title>Node9&#45;&gt;Node10</title>
<path fill="none" stroke="midnightblue" d="M555.22,-72C563.57,-72 572.14,-72 580.62,-72"/>
<polygon fill="midnightblue" stroke="midnightblue" points="580.89,-75.5 590.89,-72 580.89,-68.5 580.89,-75.5"/>
</g>
<!-- Node11&#45;&gt;Node4 -->
<g id="edge20" class="edge">
<title>Node11&#45;&gt;Node4</title>
<path fill="none" stroke="midnightblue" d="M205.06,-255.71C261.37,-252.52 347.06,-247.67 408.3,-244.2"/>
<polygon fill="midnightblue" stroke="midnightblue" points="408.51,-247.7 418.29,-243.64 408.11,-240.71 408.51,-247.7"/>
</g>
<!-- Node11&#45;&gt;Node5 -->
<g id="edge21" class="edge">
<title>Node11&#45;&gt;Node5</title>
<path fill="none" stroke="midnightblue" d="M166.04,-249.39C191.13,-236.73 235.88,-214.15 268.34,-197.76"/>
<polygon fill="midnightblue" stroke="midnightblue" points="270.21,-200.74 277.56,-193.11 267.06,-194.49 270.21,-200.74"/>
</g>
<!-- Node11&#45;&gt;Node11 -->
<g id="edge19" class="edge">
<title>Node11&#45;&gt;Node11</title>
<path fill="none" stroke="midnightblue" d="M127.5,-268.76C118.51,-277.57 124.67,-287 146,-287 159.66,-287 167.1,-283.13 168.32,-278.03"/>
<polygon fill="midnightblue" stroke="midnightblue" points="171.55,-276.67 164.5,-268.76 165.07,-279.34 171.55,-276.67"/>
</g>
<!-- Node12 -->
<g id="node12" class="node">
<title>Node12</title>
<g id="a_node12"><a xlink:href="classrare_1_1components_1_1tabs_1_1games_1_1_games_tab.html#a8e8b8383bfb0203281dfa30f18213235" target="_top" xlink:title=" ">
<polygon fill="white" stroke="black" points="252,-268.5 252,-287.5 365,-287.5 365,-268.5 252,-268.5"/>
<text text-anchor="middle" x="308.5" y="-275.5" font-family="Helvetica,sans-Serif" font-size="10.00">show_uninstalled_info</text>
</a>
</g>
</g>
<!-- Node11&#45;&gt;Node12 -->
<g id="edge22" class="edge">
<title>Node11&#45;&gt;Node12</title>
<path fill="none" stroke="midnightblue" d="M205.4,-265.91C217.23,-267.31 229.75,-268.8 241.82,-270.22"/>
<polygon fill="midnightblue" stroke="midnightblue" points="241.48,-273.71 251.82,-271.41 242.3,-266.76 241.48,-273.71"/>
</g>
<!-- Node12&#45;&gt;Node12 -->
<g id="edge23" class="edge">
<title>Node12&#45;&gt;Node12</title>
<path fill="none" stroke="midnightblue" d="M283.53,-287.76C271.38,-296.57 279.71,-306 308.5,-306 327.85,-306 337.95,-301.74 338.81,-296.27"/>
<polygon fill="midnightblue" stroke="midnightblue" points="341.75,-294.37 333.47,-287.76 335.82,-298.09 341.75,-294.37"/>
</g>
</g>
</svg>
