<?xml version="1.0" encoding="UTF-8" standalone="no"?>
<!DOCTYPE svg PUBLIC "-//W3C//DTD SVG 1.1//EN"
 "http://www.w3.org/Graphics/SVG/1.1/DTD/svg11.dtd">
<!-- Generated by graphviz version 2.49.3 (20211027.1534)
 -->
<!-- Title: flags Pages: 1 -->
<!--zoomable 528 -->
<svg id="main" version="1.1" xmlns="http://www.w3.org/2000/svg" xmlns:xlink="http://www.w3.org/1999/xlink" xml:space="preserve" onload="init(evt)">
<style type="text/css"><![CDATA[
.edge:hover path { stroke: red; }
.edge:hover polygon { stroke: red; fill: red; }
]]></style>
<script type="text/javascript"><![CDATA[
var edges = document.getElementsByTagName('g');
if (edges && edges.length) {
  for (var i=0;i<edges.length;i++) {
    if (edges[i].id.substr(0,4)=='edge') {
      edges[i].setAttribute('class','edge');
    }
  }
}
]]></script>
        <defs>
                <circle id="rim" cx="0" cy="0" r="7"/>
                <circle id="rim2" cx="0" cy="0" r="3.5"/>
                <g id="zoomPlus">
                        <use xlink:href="#rim" fill="#404040">
                                <set attributeName="fill" to="#808080" begin="zoomplus.mouseover" end="zoomplus.mouseout"/>
                        </use>
                        <path d="M-4,0h8M0,-4v8" fill="none" stroke="white" stroke-width="1.5" pointer-events="none"/>
                </g>
                <g id="zoomMin">
                        <use xlink:href="#rim" fill="#404040">
                                <set attributeName="fill" to="#808080" begin="zoomminus.mouseover" end="zoomminus.mouseout"/>
                        </use>
                        <path d="M-4,0h8" fill="none" stroke="white" stroke-width="1.5" pointer-events="none"/>
                </g>
                <g id="dirArrow">
                        <path fill="none" stroke="white" stroke-width="1.5" d="M0,-3.0v7 M-2.5,-0.5L0,-3.0L2.5,-0.5"/>
                </g>
               <g id="resetDef">
                       <use xlink:href="#rim2" fill="#404040">
                               <set attributeName="fill" to="#808080" begin="reset.mouseover" end="reset.mouseout"/>
                       </use>
               </g>
        </defs>

<script type="text/javascript">
var viewWidth = 859;
var viewHeight = 528;
var sectionId = 'dynsection-11';
</script>
<script xlink:href="svgpan.js"/>
<svg id="graph" class="graph">
<g id="viewport">
<title>flags</title>
<polygon fill="white" stroke="transparent" points="-4,4 -4,-524 854.82,-524 854.82,4 -4,4"/>
<!-- Node1 -->
<g id="node1" class="node">
<title>Node1</title>
<g id="a_node1"><a xlink:title=" ">
<polygon fill="#bfbfbf" stroke="black" points="810,-348.5 810,-367.5 847,-367.5 847,-348.5 810,-348.5"/>
<text text-anchor="middle" x="828.5" y="-355.5" font-family="Helvetica,sans-Serif" font-size="10.00">flags</text>
</a>
</g>
</g>
<!-- Node1&#45;&gt;Node1 -->
<g id="edge25" class="edge">
<title>Node1&#45;&gt;Node1</title>
<path fill="none" stroke="midnightblue" d="M850.82,-377.03C849.6,-382.13 842.16,-386 828.5,-386 807.17,-386 801.01,-376.57 810,-367.76"/>
<polygon fill="midnightblue" stroke="midnightblue" points="854.05,-375.67 847,-367.76 847.57,-378.34 854.05,-375.67"/>
</g>
<!-- Node2 -->
<g id="node2" class="node">
<title>Node2</title>
<g id="a_node2"><a xlink:href="classlegendary_1_1models_1_1manifest_1_1_file_manifest.html#a9a47563093dfc5ba12274b66e368920c" target="_top" xlink:title=" ">
<polygon fill="white" stroke="black" points="640,-444 640,-474 774,-474 774,-444 640,-444"/>
<text text-anchor="start" x="648" y="-462" font-family="Helvetica,sans-Serif" font-size="10.00">legendary.models.manifest.</text>
<text text-anchor="middle" x="707" y="-451" font-family="Helvetica,sans-Serif" font-size="10.00">FileManifest.__repr__</text>
</a>
</g>
</g>
<!-- Node1&#45;&gt;Node2 -->
<g id="edge1" class="edge">
<title>Node1&#45;&gt;Node2</title>
<path fill="none" stroke="midnightblue" d="M818.65,-376.87C809.65,-394.2 794.16,-419.48 774,-435 769.56,-438.42 764.58,-441.39 759.4,-443.95"/>
<polygon fill="midnightblue" stroke="midnightblue" points="821.88,-378.23 823.19,-367.72 815.61,-375.12 821.88,-378.23"/>
</g>
<!-- Node3 -->
<g id="node3" class="node">
<title>Node3</title>
<g id="a_node3"><a xlink:href="classlegendary_1_1models_1_1manifest_1_1_file_manifest.html#a6813edf8ebe1032140f887ee56913b76" target="_top" xlink:title=" ">
<polygon fill="white" stroke="black" points="640,-377 640,-407 774,-407 774,-377 640,-377"/>
<text text-anchor="start" x="648" y="-395" font-family="Helvetica,sans-Serif" font-size="10.00">legendary.models.manifest.</text>
<text text-anchor="middle" x="707" y="-384" font-family="Helvetica,sans-Serif" font-size="10.00">FileManifest.compressed</text>
</a>
</g>
</g>
<!-- Node1&#45;&gt;Node3 -->
<g id="edge3" class="edge">
<title>Node1&#45;&gt;Node3</title>
<path fill="none" stroke="midnightblue" d="M799.93,-365.84C788.31,-369.15 774.38,-373.11 760.91,-376.94"/>
<polygon fill="midnightblue" stroke="midnightblue" points="801.21,-369.12 809.87,-363.02 799.29,-362.39 801.21,-369.12"/>
</g>
<!-- Node9 -->
<g id="node9" class="node">
<title>Node9</title>
<g id="a_node9"><a xlink:href="classlegendary_1_1models_1_1manifest_1_1_file_manifest.html#a02f8651360507ae56a79c16b4175f412" target="_top" xlink:title=" ">
<polygon fill="white" stroke="black" points="640,-281 640,-311 774,-311 774,-281 640,-281"/>
<text text-anchor="start" x="648" y="-299" font-family="Helvetica,sans-Serif" font-size="10.00">legendary.models.manifest.</text>
<text text-anchor="middle" x="707" y="-288" font-family="Helvetica,sans-Serif" font-size="10.00">FileManifest.executable</text>
</a>
</g>
</g>
<!-- Node1&#45;&gt;Node9 -->
<g id="edge17" class="edge">
<title>Node1&#45;&gt;Node9</title>
<path fill="none" stroke="midnightblue" d="M800.92,-344.21C782.06,-334.42 756.74,-321.29 737.3,-311.2"/>
<polygon fill="midnightblue" stroke="midnightblue" points="799.38,-347.35 809.87,-348.85 802.6,-341.14 799.38,-347.35"/>
</g>
<!-- Node13 -->
<g id="node13" class="node">
<title>Node13</title>
<g id="a_node13"><a xlink:href="classlegendary_1_1models_1_1manifest_1_1_file_manifest.html#afd8c4942151bf9d7f940ae6d98e1973a" target="_top" xlink:title=" ">
<polygon fill="white" stroke="black" points="640,-91 640,-121 774,-121 774,-91 640,-91"/>
<text text-anchor="start" x="648" y="-109" font-family="Helvetica,sans-Serif" font-size="10.00">legendary.models.manifest.</text>
<text text-anchor="middle" x="707" y="-98" font-family="Helvetica,sans-Serif" font-size="10.00">FileManifest.read_only</text>
</a>
</g>
</g>
<!-- Node1&#45;&gt;Node13 -->
<g id="edge26" class="edge">
<title>Node1&#45;&gt;Node13</title>
<path fill="none" stroke="midnightblue" d="M818.59,-339.2C795.86,-291.27 736.07,-165.18 715.26,-121.31"/>
<polygon fill="midnightblue" stroke="midnightblue" points="815.51,-340.89 822.96,-348.43 821.84,-337.89 815.51,-340.89"/>
</g>
<!-- Node2&#45;&gt;Node2 -->
<g id="edge2" class="edge">
<title>Node2&#45;&gt;Node2</title>
<path fill="none" stroke="midnightblue" d="M728.32,-484.46C725.68,-489.18 718.57,-492.5 707,-492.5 688.02,-492.5 681.04,-483.56 686.09,-474.16"/>
<polygon fill="midnightblue" stroke="midnightblue" points="731.81,-484.01 727.91,-474.16 724.81,-484.29 731.81,-484.01"/>
</g>
<!-- Node3&#45;&gt;Node3 -->
<g id="edge4" class="edge">
<title>Node3&#45;&gt;Node3</title>
<path fill="none" stroke="midnightblue" d="M728.32,-417.46C725.68,-422.18 718.57,-425.5 707,-425.5 688.02,-425.5 681.04,-416.56 686.09,-407.16"/>
<polygon fill="midnightblue" stroke="midnightblue" points="731.81,-417.01 727.91,-407.16 724.81,-417.29 731.81,-417.01"/>
</g>
<!-- Node4 -->
<g id="node4" class="node">
<title>Node4</title>
<g id="a_node4"><a xlink:href="classlegendary_1_1models_1_1chunk_1_1_chunk.html#a5819dc329e23039232a8920a90508ea3" target="_top" xlink:title=" ">
<polygon fill="white" stroke="black" points="418.5,-420.5 418.5,-439.5 589.5,-439.5 589.5,-420.5 418.5,-420.5"/>
<text text-anchor="middle" x="504" y="-427.5" font-family="Helvetica,sans-Serif" font-size="10.00">legendary.models.chunk.Chunk.data</text>
</a>
</g>
</g>
<!-- Node3&#45;&gt;Node4 -->
<g id="edge5" class="edge">
<title>Node3&#45;&gt;Node4</title>
<path fill="none" stroke="midnightblue" d="M629.78,-406.41C604.94,-411.11 577.99,-416.2 555.52,-420.45"/>
<polygon fill="midnightblue" stroke="midnightblue" points="630.73,-409.79 639.91,-404.5 629.43,-402.91 630.73,-409.79"/>
</g>
<!-- Node7 -->
<g id="node7" class="node">
<title>Node7</title>
<g id="a_node7"><a xlink:href="classlegendary_1_1models_1_1chunk_1_1_chunk.html#ad96d10b22b5c7b8b53103b5c0e0e0928" target="_top" xlink:title=" ">
<polygon fill="white" stroke="black" points="195,-482.5 195,-501.5 368,-501.5 368,-482.5 195,-482.5"/>
<text text-anchor="middle" x="281.5" y="-489.5" font-family="Helvetica,sans-Serif" font-size="10.00">legendary.models.chunk.Chunk.write</text>
</a>
</g>
</g>
<!-- Node3&#45;&gt;Node7 -->
<g id="edge15" class="edge">
<title>Node3&#45;&gt;Node7</title>
<path fill="none" stroke="midnightblue" d="M672.35,-412.55C661.77,-419.37 650.19,-427.22 640,-435 622.98,-447.99 623.7,-458.62 604,-467 528.91,-498.94 435.11,-502.61 368.25,-499.85"/>
<polygon fill="midnightblue" stroke="midnightblue" points="674.39,-415.4 680.95,-407.08 670.64,-409.49 674.39,-415.4"/>
</g>
<!-- Node8 -->
<g id="node8" class="node">
<title>Node8</title>
<g id="a_node8"><a xlink:href="classlegendary_1_1models_1_1manifest_1_1_manifest.html#ad96d10b22b5c7b8b53103b5c0e0e0928" target="_top" xlink:title=" ">
<polygon fill="white" stroke="black" points="214.5,-348 214.5,-378 348.5,-378 348.5,-348 214.5,-348"/>
<text text-anchor="start" x="222.5" y="-366" font-family="Helvetica,sans-Serif" font-size="10.00">legendary.models.manifest.</text>
<text text-anchor="middle" x="281.5" y="-355" font-family="Helvetica,sans-Serif" font-size="10.00">Manifest.write</text>
</a>
</g>
</g>
<!-- Node3&#45;&gt;Node8 -->
<g id="edge16" class="edge">
<title>Node3&#45;&gt;Node8</title>
<path fill="none" stroke="midnightblue" d="M629.67,-387.61C568.6,-383.99 480.77,-378.57 404,-373 386.06,-371.7 366.63,-370.16 348.69,-368.68"/>
<polygon fill="midnightblue" stroke="midnightblue" points="629.8,-391.12 639.99,-388.21 630.22,-384.13 629.8,-391.12"/>
</g>
<!-- Node4&#45;&gt;Node4 -->
<g id="edge6" class="edge">
<title>Node4&#45;&gt;Node4</title>
<path fill="none" stroke="midnightblue" d="M541.87,-447.5C541.87,-453.34 529.24,-458 504,-458 468.1,-458 457.72,-448.57 472.87,-439.76"/>
<polygon fill="midnightblue" stroke="midnightblue" points="544.34,-445 535.13,-439.76 539.06,-449.6 544.34,-445"/>
</g>
<!-- Node5 -->
<g id="node5" class="node">
<title>Node5</title>
<g id="a_node5"><a xlink:href="classrare_1_1components_1_1dialogs_1_1install__dialog_1_1_q_data_check_box.html#a5ff6323ce25317c7925d5a8012b1f6ea" target="_top" xlink:title=" ">
<polygon fill="white" stroke="black" points="196.5,-415 196.5,-445 366.5,-445 366.5,-415 196.5,-415"/>
<text text-anchor="start" x="204.5" y="-433" font-family="Helvetica,sans-Serif" font-size="10.00">rare.components.dialogs.install</text>
<text text-anchor="middle" x="281.5" y="-422" font-family="Helvetica,sans-Serif" font-size="10.00">_dialog.QDataCheckBox.isChecked</text>
</a>
</g>
</g>
<!-- Node4&#45;&gt;Node5 -->
<g id="edge7" class="edge">
<title>Node4&#45;&gt;Node5</title>
<path fill="none" stroke="midnightblue" d="M408.33,-430C394.43,-430 380.2,-430 366.53,-430"/>
<polygon fill="midnightblue" stroke="midnightblue" points="408.38,-433.5 418.38,-430 408.38,-426.5 408.38,-433.5"/>
</g>
<!-- Node4&#45;&gt;Node7 -->
<g id="edge11" class="edge">
<title>Node4&#45;&gt;Node7</title>
<path fill="none" stroke="midnightblue" d="M465.76,-442.85C438.8,-451.92 401.38,-464 368,-473 355.37,-476.41 341.58,-479.67 328.83,-482.5"/>
<polygon fill="midnightblue" stroke="midnightblue" points="467.2,-446.06 475.55,-439.54 464.96,-439.43 467.2,-446.06"/>
</g>
<!-- Node4&#45;&gt;Node8 -->
<g id="edge13" class="edge">
<title>Node4&#45;&gt;Node8</title>
<path fill="none" stroke="midnightblue" d="M449.36,-418.06C434.58,-414.48 418.6,-410.34 404,-406 376.22,-397.74 345.46,-386.84 321.84,-378.07"/>
<polygon fill="midnightblue" stroke="midnightblue" points="448.83,-421.53 459.37,-420.44 450.45,-414.72 448.83,-421.53"/>
</g>
<!-- Node5&#45;&gt;Node5 -->
<g id="edge10" class="edge">
<title>Node5&#45;&gt;Node5</title>
<path fill="none" stroke="midnightblue" d="M317.39,-455.46C312.94,-460.18 300.97,-463.5 281.5,-463.5 249.54,-463.5 237.81,-454.56 246.3,-445.16"/>
<polygon fill="midnightblue" stroke="midnightblue" points="320.86,-454.9 316.7,-445.16 313.88,-455.37 320.86,-454.9"/>
</g>
<!-- Node6 -->
<g id="node6" class="node">
<title>Node6</title>
<g id="a_node6"><a xlink:href="classrare_1_1components_1_1tabs_1_1shop_1_1shop__widget_1_1_check_box.html#a8b64389a338c017bf6d5987eda346be6" target="_top" xlink:title=" ">
<polygon fill="white" stroke="black" points="0,-415 0,-445 159,-445 159,-415 0,-415"/>
<text text-anchor="start" x="8" y="-433" font-family="Helvetica,sans-Serif" font-size="10.00">rare.components.tabs.shop.shop</text>
<text text-anchor="middle" x="79.5" y="-422" font-family="Helvetica,sans-Serif" font-size="10.00">_widget.CheckBox.handle_toggle</text>
</a>
</g>
</g>
<!-- Node5&#45;&gt;Node6 -->
<g id="edge8" class="edge">
<title>Node5&#45;&gt;Node6</title>
<path fill="none" stroke="midnightblue" d="M186.13,-430C177.13,-430 168.06,-430 159.22,-430"/>
<polygon fill="midnightblue" stroke="midnightblue" points="186.26,-433.5 196.26,-430 186.26,-426.5 186.26,-433.5"/>
</g>
<!-- Node6&#45;&gt;Node6 -->
<g id="edge9" class="edge">
<title>Node6&#45;&gt;Node6</title>
<path fill="none" stroke="midnightblue" d="M115.39,-455.46C110.94,-460.18 98.97,-463.5 79.5,-463.5 47.54,-463.5 35.81,-454.56 44.3,-445.16"/>
<polygon fill="midnightblue" stroke="midnightblue" points="118.86,-454.9 114.7,-445.16 111.88,-455.37 118.86,-454.9"/>
</g>
<!-- Node7&#45;&gt;Node7 -->
<g id="edge12" class="edge">
<title>Node7&#45;&gt;Node7</title>
<path fill="none" stroke="midnightblue" d="M319.37,-509.5C319.37,-515.34 306.74,-520 281.5,-520 245.6,-520 235.22,-510.57 250.37,-501.76"/>
<polygon fill="midnightblue" stroke="midnightblue" points="321.84,-507 312.63,-501.76 316.56,-511.6 321.84,-507"/>
</g>
<!-- Node8&#45;&gt;Node8 -->
<g id="edge14" class="edge">
<title>Node8&#45;&gt;Node8</title>
<path fill="none" stroke="midnightblue" d="M317.39,-388.46C312.94,-393.18 300.97,-396.5 281.5,-396.5 249.54,-396.5 237.81,-387.56 246.3,-378.16"/>
<polygon fill="midnightblue" stroke="midnightblue" points="320.86,-387.9 316.7,-378.16 313.88,-388.37 320.86,-387.9"/>
</g>
<!-- Node9&#45;&gt;Node9 -->
<g id="edge20" class="edge">
<title>Node9&#45;&gt;Node9</title>
<path fill="none" stroke="midnightblue" d="M728.32,-321.46C725.68,-326.18 718.57,-329.5 707,-329.5 688.02,-329.5 681.04,-320.56 686.09,-311.16"/>
<polygon fill="midnightblue" stroke="midnightblue" points="731.81,-321.01 727.91,-311.16 724.81,-321.29 731.81,-321.01"/>
</g>
<!-- Node10 -->
<g id="node10" class="node">
<title>Node10</title>
<g id="a_node10"><a xlink:href="classrare_1_1game__launch__helper_1_1lgd__helper_1_1_launch_args.html#a3dd81f64b703eff31446b257a4628090" target="_top" xlink:title=" ">
<polygon fill="white" stroke="black" points="432,-315 432,-345 576,-345 576,-315 432,-315"/>
<text text-anchor="start" x="440" y="-333" font-family="Helvetica,sans-Serif" font-size="10.00">rare.game_launch_helper.lgd</text>
<text text-anchor="middle" x="504" y="-322" font-family="Helvetica,sans-Serif" font-size="10.00">_helper.LaunchArgs.__bool__</text>
</a>
</g>
</g>
<!-- Node9&#45;&gt;Node10 -->
<g id="edge18" class="edge">
<title>Node9&#45;&gt;Node10</title>
<path fill="none" stroke="midnightblue" d="M629.73,-308.9C612.2,-311.87 593.63,-315.01 576.33,-317.93"/>
<polygon fill="midnightblue" stroke="midnightblue" points="630.63,-312.3 639.91,-307.18 629.46,-305.4 630.63,-312.3"/>
</g>
<!-- Node11 -->
<g id="node11" class="node">
<title>Node11</title>
<g id="a_node11"><a xlink:href="classlegendary_1_1models_1_1egl_1_1_e_g_l_manifest.html#acc573e57f5a09bd567fe945964249113" target="_top" xlink:title=" ">
<polygon fill="white" stroke="black" points="404,-258.5 404,-277.5 604,-277.5 604,-258.5 404,-258.5"/>
<text text-anchor="middle" x="504" y="-265.5" font-family="Helvetica,sans-Serif" font-size="10.00">legendary.models.egl.EGLManifest.to_json</text>
</a>
</g>
</g>
<!-- Node9&#45;&gt;Node11 -->
<g id="edge21" class="edge">
<title>Node9&#45;&gt;Node11</title>
<path fill="none" stroke="midnightblue" d="M629.98,-285.41C611.32,-282.81 591.46,-280.04 573.2,-277.5"/>
<polygon fill="midnightblue" stroke="midnightblue" points="629.52,-288.88 639.91,-286.79 630.49,-281.95 629.52,-288.88"/>
</g>
<!-- Node12 -->
<g id="node12" class="node">
<title>Node12</title>
<g id="a_node12"><a xlink:href="classlegendary_1_1models_1_1egl_1_1_e_g_l_manifest.html#a0e539f8600f10ffbb320ee76ae436c92" target="_top" xlink:title=" ">
<polygon fill="white" stroke="black" points="416,-191 416,-221 592,-221 592,-191 416,-191"/>
<text text-anchor="start" x="424" y="-209" font-family="Helvetica,sans-Serif" font-size="10.00">legendary.models.egl.EGLManifest.to</text>
<text text-anchor="middle" x="504" y="-198" font-family="Helvetica,sans-Serif" font-size="10.00">_lgd_igame</text>
</a>
</g>
</g>
<!-- Node9&#45;&gt;Node12 -->
<g id="edge23" class="edge">
<title>Node9&#45;&gt;Node12</title>
<path fill="none" stroke="midnightblue" d="M664.19,-276.48C645.77,-267.95 623.85,-257.88 604,-249 582.96,-239.59 559.29,-229.29 540.36,-221.14"/>
<polygon fill="midnightblue" stroke="midnightblue" points="662.92,-279.75 673.47,-280.79 665.87,-273.4 662.92,-279.75"/>
</g>
<!-- Node10&#45;&gt;Node10 -->
<g id="edge19" class="edge">
<title>Node10&#45;&gt;Node10</title>
<path fill="none" stroke="midnightblue" d="M539.89,-355.46C535.44,-360.18 523.47,-363.5 504,-363.5 472.04,-363.5 460.31,-354.56 468.8,-345.16"/>
<polygon fill="midnightblue" stroke="midnightblue" points="543.36,-354.9 539.2,-345.16 536.38,-355.37 543.36,-354.9"/>
</g>
<!-- Node11&#45;&gt;Node11 -->
<g id="edge22" class="edge">
<title>Node11&#45;&gt;Node11</title>
<path fill="none" stroke="midnightblue" d="M541.87,-285.5C541.87,-291.34 529.24,-296 504,-296 468.1,-296 457.72,-286.57 472.87,-277.76"/>
<polygon fill="midnightblue" stroke="midnightblue" points="544.34,-283 535.13,-277.76 539.06,-287.6 544.34,-283"/>
</g>
<!-- Node12&#45;&gt;Node12 -->
<g id="edge24" class="edge">
<title>Node12&#45;&gt;Node12</title>
<path fill="none" stroke="midnightblue" d="M539.89,-231.46C535.44,-236.18 523.47,-239.5 504,-239.5 472.04,-239.5 460.31,-230.56 468.8,-221.16"/>
<polygon fill="midnightblue" stroke="midnightblue" points="543.36,-230.9 539.2,-221.16 536.38,-231.37 543.36,-230.9"/>
</g>
<!-- Node13&#45;&gt;Node13 -->
<g id="edge29" class="edge">
<title>Node13&#45;&gt;Node13</title>
<path fill="none" stroke="midnightblue" d="M728.32,-131.46C725.68,-136.18 718.57,-139.5 707,-139.5 688.02,-139.5 681.04,-130.56 686.09,-121.16"/>
<polygon fill="midnightblue" stroke="midnightblue" points="731.81,-131.01 727.91,-121.16 724.81,-131.29 731.81,-131.01"/>
</g>
<!-- Node14 -->
<g id="node14" class="node">
<title>Node14</title>
<g id="a_node14"><a xlink:href="classlegendary_1_1utils_1_1config_1_1_l_g_d_conf.html#ae69d8026d841ea4f1e828a27ce507ef6" target="_top" xlink:title=" ">
<polygon fill="white" stroke="black" points="428.5,-124 428.5,-154 579.5,-154 579.5,-124 428.5,-124"/>
<text text-anchor="start" x="436.5" y="-142" font-family="Helvetica,sans-Serif" font-size="10.00">legendary.utils.config.LGDConf.</text>
<text text-anchor="middle" x="504" y="-131" font-family="Helvetica,sans-Serif" font-size="10.00">__setitem__</text>
</a>
</g>
</g>
<!-- Node13&#45;&gt;Node14 -->
<g id="edge27" class="edge">
<title>Node13&#45;&gt;Node14</title>
<path fill="none" stroke="midnightblue" d="M629.84,-118.5C613.46,-121.19 596.16,-124.03 579.83,-126.71"/>
<polygon fill="midnightblue" stroke="midnightblue" points="630.61,-121.93 639.91,-116.85 629.47,-115.02 630.61,-121.93"/>
</g>
<!-- Node15 -->
<g id="node15" class="node">
<title>Node15</title>
<g id="a_node15"><a xlink:href="classlegendary_1_1utils_1_1config_1_1_l_g_d_conf.html#a77106cb1e4d4283691469357f356e2f8" target="_top" xlink:title=" ">
<polygon fill="white" stroke="black" points="412.5,-57 412.5,-87 595.5,-87 595.5,-57 412.5,-57"/>
<text text-anchor="start" x="420.5" y="-75" font-family="Helvetica,sans-Serif" font-size="10.00">legendary.utils.config.LGDConf.remove</text>
<text text-anchor="middle" x="504" y="-64" font-family="Helvetica,sans-Serif" font-size="10.00">_option</text>
</a>
</g>
</g>
<!-- Node13&#45;&gt;Node15 -->
<g id="edge30" class="edge">
<title>Node13&#45;&gt;Node15</title>
<path fill="none" stroke="midnightblue" d="M629.72,-93.1C617.97,-91.11 605.75,-89.04 593.75,-87.01"/>
<polygon fill="midnightblue" stroke="midnightblue" points="629.46,-96.6 639.91,-94.82 630.63,-89.7 629.46,-96.6"/>
</g>
<!-- Node16 -->
<g id="node16" class="node">
<title>Node16</title>
<g id="a_node16"><a xlink:href="classlegendary_1_1utils_1_1config_1_1_l_g_d_conf.html#ac24ffce77922a5acc73f6e90a399523d" target="_top" xlink:title=" ">
<polygon fill="white" stroke="black" points="422,-0.5 422,-19.5 586,-19.5 586,-0.5 422,-0.5"/>
<text text-anchor="middle" x="504" y="-7.5" font-family="Helvetica,sans-Serif" font-size="10.00">legendary.utils.config.LGDConf.set</text>
</a>
</g>
</g>
<!-- Node13&#45;&gt;Node16 -->
<g id="edge32" class="edge">
<title>Node13&#45;&gt;Node16</title>
<path fill="none" stroke="midnightblue" d="M673.71,-85.46C654.01,-73.41 628.06,-58.36 604,-47 581.27,-36.27 554.51,-26.43 534.55,-19.6"/>
<polygon fill="midnightblue" stroke="midnightblue" points="671.95,-88.49 682.29,-90.77 675.63,-82.53 671.95,-88.49"/>
</g>
<!-- Node14&#45;&gt;Node14 -->
<g id="edge28" class="edge">
<title>Node14&#45;&gt;Node14</title>
<path fill="none" stroke="midnightblue" d="M539.89,-164.46C535.44,-169.18 523.47,-172.5 504,-172.5 472.04,-172.5 460.31,-163.56 468.8,-154.16"/>
<polygon fill="midnightblue" stroke="midnightblue" points="543.36,-163.9 539.2,-154.16 536.38,-164.37 543.36,-163.9"/>
</g>
<!-- Node15&#45;&gt;Node15 -->
<g id="edge31" class="edge">
<title>Node15&#45;&gt;Node15</title>
<path fill="none" stroke="midnightblue" d="M539.89,-97.46C535.44,-102.18 523.47,-105.5 504,-105.5 472.04,-105.5 460.31,-96.56 468.8,-87.16"/>
<polygon fill="midnightblue" stroke="midnightblue" points="543.36,-96.9 539.2,-87.16 536.38,-97.37 543.36,-96.9"/>
</g>
<!-- Node16&#45;&gt;Node16 -->
<g id="edge33" class="edge">
<title>Node16&#45;&gt;Node16</title>
<path fill="none" stroke="midnightblue" d="M541.87,-27.5C541.87,-33.34 529.24,-38 504,-38 468.1,-38 457.72,-28.57 472.87,-19.76"/>
<polygon fill="midnightblue" stroke="midnightblue" points="544.34,-25 535.13,-19.76 539.06,-29.6 544.34,-25"/>
</g>
</g>
</svg>
        <g id="navigator" transform="translate(0 0)" fill="#404254">
                <rect fill="#f2f5e9" fill-opacity="0.5" stroke="#606060" stroke-width=".5" x="0" y="0" width="60" height="60"/>
                <use id="zoomplus" xlink:href="#zoomPlus" x="17" y="9" onmousedown="handleZoom(evt,'in')"/>
                <use id="zoomminus" xlink:href="#zoomMin" x="42" y="9" onmousedown="handleZoom(evt,'out')"/>
                <use id="reset" xlink:href="#resetDef" x="30" y="36" onmousedown="handleReset()"/>
                <g id="arrowUp" xlink:href="#dirArrow" transform="translate(30 24)" onmousedown="handlePan(0,-1)">
                  <use xlink:href="#rim" fill="#404040">
                        <set attributeName="fill" to="#808080" begin="arrowUp.mouseover" end="arrowUp.mouseout"/>
                  </use>
                  <path fill="none" stroke="white" stroke-width="1.5" d="M0,-3.0v7 M-2.5,-0.5L0,-3.0L2.5,-0.5"/>
                </g>
                <g id="arrowRight" xlink:href="#dirArrow" transform="rotate(90) translate(36 -43)" onmousedown="handlePan(1,0)">
                  <use xlink:href="#rim" fill="#404040">
                        <set attributeName="fill" to="#808080" begin="arrowRight.mouseover" end="arrowRight.mouseout"/>
                  </use>
                  <path fill="none" stroke="white" stroke-width="1.5" d="M0,-3.0v7 M-2.5,-0.5L0,-3.0L2.5,-0.5"/>
                </g>
                <g id="arrowDown" xlink:href="#dirArrow" transform="rotate(180) translate(-30 -48)" onmousedown="handlePan(0,1)">
                  <use xlink:href="#rim" fill="#404040">
                        <set attributeName="fill" to="#808080" begin="arrowDown.mouseover" end="arrowDown.mouseout"/>
                  </use>
                  <path fill="none" stroke="white" stroke-width="1.5" d="M0,-3.0v7 M-2.5,-0.5L0,-3.0L2.5,-0.5"/>
                </g>
                <g id="arrowLeft" xlink:href="#dirArrow" transform="rotate(270) translate(-36 17)" onmousedown="handlePan(-1,0)">
                  <use xlink:href="#rim" fill="#404040">
                        <set attributeName="fill" to="#808080" begin="arrowLeft.mouseover" end="arrowLeft.mouseout"/>
                  </use>
                  <path fill="none" stroke="white" stroke-width="1.5" d="M0,-3.0v7 M-2.5,-0.5L0,-3.0L2.5,-0.5"/>
                </g>
        </g>
        <svg viewBox="0 0 15 15" width="100%" height="30px" preserveAspectRatio="xMaxYMin meet">
         <g id="arrow_out" transform="scale(0.3 0.3)">
          <a xlink:href="classrare_1_1utils_1_1json__formatter_1_1_q_json_model_a7d491e435bf3631508f0a7c084acd162_icgraph_org.svg" target="_base">
           <rect id="button" ry="5" rx="5" y="6" x="6" height="38" width="38"
                fill="#f2f5e9" fill-opacity="0.5" stroke="#606060" stroke-width="1.0"/>
           <path id="arrow"
             d="M 11.500037,31.436501 C 11.940474,20.09759 22.043105,11.32322 32.158766,21.979434 L 37.068811,17.246167 C 37.068811,17.246167 37.088388,32 37.088388,32 L 22.160133,31.978069 C 22.160133,31.978069 26.997745,27.140456 26.997745,27.140456 C 18.528582,18.264221 13.291696,25.230495 11.500037,31.436501 z"
             style="fill:#404040;"/>
          </a>
         </g>
        </svg>
</svg>
