<?xml version="1.0" encoding="UTF-8" standalone="no"?>
<!DOCTYPE svg PUBLIC "-//W3C//DTD SVG 1.1//EN"
 "http://www.w3.org/Graphics/SVG/1.1/DTD/svg11.dtd">
<!-- Generated by graphviz version 2.49.3 (20211027.1534)
 -->
<!-- Title: IndicatorReasonsCommon Pages: 1 -->
<svg width="148pt" height="270pt"
 viewBox="0.00 0.00 148.00 270.00" xmlns="http://www.w3.org/2000/svg" xmlns:xlink="http://www.w3.org/1999/xlink">
<g id="graph0" class="graph" transform="scale(1 1) rotate(0) translate(4 266)">
<title>IndicatorReasonsCommon</title>
<polygon fill="white" stroke="transparent" points="-4,4 -4,-266 144,-266 144,4 -4,4"/>
<!-- Node1 -->
<g id="node1" class="node">
<title>Node1</title>
<g id="a_node1"><a xlink:title=" ">
<polygon fill="#bfbfbf" stroke="black" points="0,-0.5 0,-167.5 140,-167.5 140,-0.5 0,-0.5"/>
<text text-anchor="middle" x="70" y="-155.5" font-family="Helvetica,sans-Serif" font-size="10.00">IndicatorReasonsCommon</text>
<polyline fill="none" stroke="black" points="0,-148.5 140,-148.5 "/>
<text text-anchor="start" x="8" y="-136.5" font-family="Helvetica,sans-Serif" font-size="10.00">+ VALID</text>
<text text-anchor="start" x="8" y="-125.5" font-family="Helvetica,sans-Serif" font-size="10.00">+ INVALID</text>
<text text-anchor="start" x="8" y="-114.5" font-family="Helvetica,sans-Serif" font-size="10.00">+ IS_EMPTY</text>
<text text-anchor="start" x="8" y="-103.5" font-family="Helvetica,sans-Serif" font-size="10.00">+ WRONG_FORMAT</text>
<text text-anchor="start" x="8" y="-92.5" font-family="Helvetica,sans-Serif" font-size="10.00">+ WRONG_PATH</text>
<text text-anchor="start" x="8" y="-81.5" font-family="Helvetica,sans-Serif" font-size="10.00">+ DIR_NOT_EMPTY</text>
<text text-anchor="start" x="8" y="-70.5" font-family="Helvetica,sans-Serif" font-size="10.00">+ DIR_NOT_EXISTS</text>
<text text-anchor="start" x="8" y="-59.5" font-family="Helvetica,sans-Serif" font-size="10.00">+ FILE_NOT_EXISTS</text>
<text text-anchor="start" x="8" y="-48.5" font-family="Helvetica,sans-Serif" font-size="10.00">+ GAME_NOT_INSTALLED</text>
<text text-anchor="start" x="8" y="-37.5" font-family="Helvetica,sans-Serif" font-size="10.00">+ GAME_NOT_EXISTS</text>
<text text-anchor="start" x="8" y="-26.5" font-family="Helvetica,sans-Serif" font-size="10.00">+ UNDEFINED</text>
<polyline fill="none" stroke="black" points="0,-19.5 140,-19.5 "/>
<text text-anchor="middle" x="70" y="-7.5" font-family="Helvetica,sans-Serif" font-size="10.00"> </text>
</a>
</g>
</g>
<!-- Node2 -->
<g id="node2" class="node">
<title>Node2</title>
<g id="a_node2"><a xlink:title=" ">
<polygon fill="white" stroke="#bfbfbf" points="43.5,-204.5 43.5,-261.5 96.5,-261.5 96.5,-204.5 43.5,-204.5"/>
<text text-anchor="middle" x="70" y="-249.5" font-family="Helvetica,sans-Serif" font-size="10.00">IntEnum</text>
<polyline fill="none" stroke="#bfbfbf" points="43.5,-242.5 96.5,-242.5 "/>
<text text-anchor="middle" x="70" y="-230.5" font-family="Helvetica,sans-Serif" font-size="10.00"> </text>
<polyline fill="none" stroke="#bfbfbf" points="43.5,-223.5 96.5,-223.5 "/>
<text text-anchor="middle" x="70" y="-211.5" font-family="Helvetica,sans-Serif" font-size="10.00"> </text>
</a>
</g>
</g>
<!-- Node2&#45;&gt;Node1 -->
<g id="edge1" class="edge">
<title>Node2&#45;&gt;Node1</title>
<path fill="none" stroke="midnightblue" d="M70,-194.35C70,-186.08 70,-177.01 70,-167.74"/>
<polygon fill="none" stroke="midnightblue" points="66.5,-194.35 70,-204.35 73.5,-194.35 66.5,-194.35"/>
</g>
</g>
</svg>
