<?xml version="1.0" encoding="UTF-8" standalone="no"?>
<!DOCTYPE svg PUBLIC "-//W3C//DTD SVG 1.1//EN"
 "http://www.w3.org/Graphics/SVG/1.1/DTD/svg11.dtd">
<!-- Generated by graphviz version 2.49.3 (20211027.1534)
 -->
<!-- Title: achievements Pages: 1 -->
<!--zoomable 441 -->
<svg id="main" version="1.1" xmlns="http://www.w3.org/2000/svg" xmlns:xlink="http://www.w3.org/1999/xlink" xml:space="preserve" onload="init(evt)">
<style type="text/css"><![CDATA[
.edge:hover path { stroke: red; }
.edge:hover polygon { stroke: red; fill: red; }
]]></style>
<script type="text/javascript"><![CDATA[
var edges = document.getElementsByTagName('g');
if (edges && edges.length) {
  for (var i=0;i<edges.length;i++) {
    if (edges[i].id.substr(0,4)=='edge') {
      edges[i].setAttribute('class','edge');
    }
  }
}
]]></script>
        <defs>
                <circle id="rim" cx="0" cy="0" r="7"/>
                <circle id="rim2" cx="0" cy="0" r="3.5"/>
                <g id="zoomPlus">
                        <use xlink:href="#rim" fill="#404040">
                                <set attributeName="fill" to="#808080" begin="zoomplus.mouseover" end="zoomplus.mouseout"/>
                        </use>
                        <path d="M-4,0h8M0,-4v8" fill="none" stroke="white" stroke-width="1.5" pointer-events="none"/>
                </g>
                <g id="zoomMin">
                        <use xlink:href="#rim" fill="#404040">
                                <set attributeName="fill" to="#808080" begin="zoomminus.mouseover" end="zoomminus.mouseout"/>
                        </use>
                        <path d="M-4,0h8" fill="none" stroke="white" stroke-width="1.5" pointer-events="none"/>
                </g>
                <g id="dirArrow">
                        <path fill="none" stroke="white" stroke-width="1.5" d="M0,-3.0v7 M-2.5,-0.5L0,-3.0L2.5,-0.5"/>
                </g>
               <g id="resetDef">
                       <use xlink:href="#rim2" fill="#404040">
                               <set attributeName="fill" to="#808080" begin="reset.mouseover" end="reset.mouseout"/>
                       </use>
               </g>
        </defs>

<script type="text/javascript">
var viewWidth = 659;
var viewHeight = 441;
var sectionId = 'dynsection-4';
</script>
<script xlink:href="svgpan.js"/>
<svg id="graph" class="graph">
<g id="viewport">
<title>achievements</title>
<polygon fill="white" stroke="transparent" points="-4,4 -4,-436.5 655,-436.5 655,4 -4,4"/>
<!-- Node1 -->
<g id="node1" class="node">
<title>Node1</title>
<g id="a_node1"><a xlink:title=" ">
<polygon fill="#bfbfbf" stroke="black" points="0,-183 0,-202 77,-202 77,-183 0,-183"/>
<text text-anchor="middle" x="38.5" y="-190" font-family="Helvetica,sans-Serif" font-size="10.00">achievements</text>
</a>
</g>
</g>
<!-- Node1&#45;&gt;Node1 -->
<g id="edge2" class="edge">
<title>Node1&#45;&gt;Node1</title>
<path fill="none" stroke="midnightblue" d="M11.68,-202.26C-1.37,-211.07 7.57,-220.5 38.5,-220.5 59.28,-220.5 70.13,-216.24 71.06,-210.77"/>
<polygon fill="midnightblue" stroke="midnightblue" points="73.81,-208.59 65.32,-202.26 68.01,-212.51 73.81,-208.59"/>
</g>
<!-- Node2 -->
<g id="node2" class="node">
<title>Node2</title>
<g id="a_node2"><a xlink:href="classrare_1_1models_1_1game_1_1_rare_game.html#a97c61b9578819ef09ba2b90def669ba6" target="_top" xlink:title=" ">
<polygon fill="white" stroke="black" points="166.5,-413 166.5,-432 260.5,-432 260.5,-413 166.5,-413"/>
<text text-anchor="middle" x="213.5" y="-420" font-family="Helvetica,sans-Serif" font-size="10.00">__save_metadata</text>
</a>
</g>
</g>
<!-- Node1&#45;&gt;Node2 -->
<g id="edge1" class="edge">
<title>Node1&#45;&gt;Node2</title>
<path fill="none" stroke="midnightblue" d="M39.68,-202.33C40.85,-236.18 49.58,-348.75 113,-403.5 124.96,-413.82 140.77,-419.24 156.27,-421.92"/>
<polygon fill="midnightblue" stroke="midnightblue" points="155.98,-425.42 166.36,-423.32 156.93,-418.48 155.98,-425.42"/>
</g>
<!-- Node3 -->
<g id="node3" class="node">
<title>Node3</title>
<g id="a_node3"><a xlink:href="classrare_1_1components_1_1tabs_1_1integrations_1_1egl__sync__group_1_1_e_g_l_sync_list_item.html#a9c470cc60eae203f55455d0e0d7f5712" target="_top" xlink:title=" ">
<polygon fill="white" stroke="black" points="114.5,-345.5 114.5,-375.5 312.5,-375.5 312.5,-345.5 114.5,-345.5"/>
<text text-anchor="start" x="122.5" y="-363.5" font-family="Helvetica,sans-Serif" font-size="10.00">rare.components.tabs.integrations.egl</text>
<text text-anchor="middle" x="213.5" y="-352.5" font-family="Helvetica,sans-Serif" font-size="10.00">_sync_group.EGLSyncListItem.app_name</text>
</a>
</g>
</g>
<!-- Node1&#45;&gt;Node3 -->
<g id="edge3" class="edge">
<title>Node1&#45;&gt;Node3</title>
<path fill="none" stroke="midnightblue" d="M41.53,-202.35C47.48,-228.58 67.38,-300.52 113,-336.5 114.62,-337.78 116.3,-338.99 118.03,-340.14"/>
<polygon fill="midnightblue" stroke="midnightblue" points="116.64,-343.38 127.05,-345.38 120.16,-337.33 116.64,-343.38"/>
</g>
<!-- Node4 -->
<g id="node4" class="node">
<title>Node4</title>
<g id="a_node4"><a xlink:href="classrare_1_1components_1_1tabs_1_1integrations_1_1egl__sync__group_1_1_e_g_l_sync_list_item.html#ae1cd35b1295fa44fd6906c1bcf28fd20" target="_top" xlink:title=" ">
<polygon fill="white" stroke="black" points="118.5,-278.5 118.5,-308.5 308.5,-308.5 308.5,-278.5 118.5,-278.5"/>
<text text-anchor="start" x="126.5" y="-296.5" font-family="Helvetica,sans-Serif" font-size="10.00">rare.components.tabs.integrations.egl</text>
<text text-anchor="middle" x="213.5" y="-285.5" font-family="Helvetica,sans-Serif" font-size="10.00">_sync_group.EGLSyncListItem.app_title</text>
</a>
</g>
</g>
<!-- Node1&#45;&gt;Node4 -->
<g id="edge5" class="edge">
<title>Node1&#45;&gt;Node4</title>
<path fill="none" stroke="midnightblue" d="M45.93,-202.24C57.37,-218.76 82.9,-252.16 113,-269.5 116.19,-271.34 119.52,-273.04 122.93,-274.6"/>
<polygon fill="midnightblue" stroke="midnightblue" points="121.59,-277.84 132.17,-278.46 124.29,-271.38 121.59,-277.84"/>
</g>
<!-- Node5 -->
<g id="node5" class="node">
<title>Node5</title>
<g id="a_node5"><a xlink:href="classrare_1_1components_1_1tabs_1_1integrations_1_1egl__sync__group_1_1_e_g_l_sync_export_item.html#ae1cd35b1295fa44fd6906c1bcf28fd20" target="_top" xlink:title=" ">
<polygon fill="white" stroke="black" points="113.5,-211.5 113.5,-241.5 313.5,-241.5 313.5,-211.5 113.5,-211.5"/>
<text text-anchor="start" x="121.5" y="-229.5" font-family="Helvetica,sans-Serif" font-size="10.00">rare.components.tabs.integrations.egl</text>
<text text-anchor="middle" x="213.5" y="-218.5" font-family="Helvetica,sans-Serif" font-size="10.00">_sync_group.EGLSyncExportItem.app_title</text>
</a>
</g>
</g>
<!-- Node1&#45;&gt;Node5 -->
<g id="edge7" class="edge">
<title>Node1&#45;&gt;Node5</title>
<path fill="none" stroke="midnightblue" d="M77.04,-199.88C91.49,-202.72 108.67,-206.09 125.85,-209.47"/>
<polygon fill="midnightblue" stroke="midnightblue" points="125.46,-212.96 135.95,-211.45 126.81,-206.09 125.46,-212.96"/>
</g>
<!-- Node6 -->
<g id="node6" class="node">
<title>Node6</title>
<g id="a_node6"><a xlink:href="classrare_1_1components_1_1tabs_1_1integrations_1_1egl__sync__group_1_1_e_g_l_sync_import_item.html#ae1cd35b1295fa44fd6906c1bcf28fd20" target="_top" xlink:title=" ">
<polygon fill="white" stroke="black" points="113,-144.5 113,-174.5 314,-174.5 314,-144.5 113,-144.5"/>
<text text-anchor="start" x="121" y="-162.5" font-family="Helvetica,sans-Serif" font-size="10.00">rare.components.tabs.integrations.egl</text>
<text text-anchor="middle" x="213.5" y="-151.5" font-family="Helvetica,sans-Serif" font-size="10.00">_sync_group.EGLSyncImportItem.app_title</text>
</a>
</g>
</g>
<!-- Node1&#45;&gt;Node6 -->
<g id="edge9" class="edge">
<title>Node1&#45;&gt;Node6</title>
<path fill="none" stroke="midnightblue" d="M77.04,-185.34C90.86,-182.7 107.18,-179.59 123.61,-176.46"/>
<polygon fill="midnightblue" stroke="midnightblue" points="124.66,-179.82 133.83,-174.51 123.35,-172.94 124.66,-179.82"/>
</g>
<!-- Node7 -->
<g id="node7" class="node">
<title>Node7</title>
<g id="a_node7"><a xlink:href="classrare_1_1shared_1_1rare__core_1_1_rare_core.html#a405e1a4f20f16120f872ccd2654a1d56" target="_top" xlink:title=" ">
<polygon fill="white" stroke="black" points="350,-106.5 350,-136.5 480,-136.5 480,-106.5 350,-106.5"/>
<text text-anchor="start" x="358" y="-124.5" font-family="Helvetica,sans-Serif" font-size="10.00">rare.shared.rare_core.Rare</text>
<text text-anchor="middle" x="415" y="-113.5" font-family="Helvetica,sans-Serif" font-size="10.00">Core.core</text>
</a>
</g>
</g>
<!-- Node1&#45;&gt;Node7 -->
<g id="edge17" class="edge">
<title>Node1&#45;&gt;Node7</title>
<path fill="none" stroke="midnightblue" d="M48.3,-182.62C61.03,-169.11 86.03,-145.44 113,-135.5 186.58,-108.39 277.2,-108.22 339.67,-112.75"/>
<polygon fill="midnightblue" stroke="midnightblue" points="339.59,-116.25 349.83,-113.54 340.14,-109.27 339.59,-116.25"/>
</g>
<!-- Node8 -->
<g id="node8" class="node">
<title>Node8</title>
<g id="a_node8"><a xlink:href="classrare_1_1shared_1_1workers_1_1worker_1_1_worker.html#a5d3220537164bdcd6c040b54ef85f656" target="_top" xlink:title=" ">
<polygon fill="white" stroke="black" points="516,-84.5 516,-114.5 651,-114.5 651,-84.5 516,-84.5"/>
<text text-anchor="start" x="524" y="-102.5" font-family="Helvetica,sans-Serif" font-size="10.00">rare.shared.workers.worker.</text>
<text text-anchor="middle" x="583.5" y="-91.5" font-family="Helvetica,sans-Serif" font-size="10.00">Worker.logger</text>
</a>
</g>
</g>
<!-- Node1&#45;&gt;Node8 -->
<g id="edge18" class="edge">
<title>Node1&#45;&gt;Node8</title>
<path fill="none" stroke="midnightblue" d="M44.31,-182.73C54.18,-163.93 78.7,-123.1 113,-106.5 241.45,-44.33 413.76,-63.91 509.89,-82.51"/>
<polygon fill="midnightblue" stroke="midnightblue" points="509.32,-85.96 519.81,-84.48 510.68,-79.1 509.32,-85.96"/>
</g>
<!-- Node9 -->
<g id="node9" class="node">
<title>Node9</title>
<g id="a_node9"><a xlink:href="classrare_1_1models_1_1game__slim_1_1_rare_game_base.html#ae1cd35b1295fa44fd6906c1bcf28fd20" target="_top" xlink:title=" ">
<polygon fill="white" stroke="black" points="144,-0.5 144,-30.5 283,-30.5 283,-0.5 144,-0.5"/>
<text text-anchor="start" x="152" y="-18.5" font-family="Helvetica,sans-Serif" font-size="10.00">rare.models.game_slim.Rare</text>
<text text-anchor="middle" x="213.5" y="-7.5" font-family="Helvetica,sans-Serif" font-size="10.00">GameBase.app_title</text>
</a>
</g>
</g>
<!-- Node1&#45;&gt;Node9 -->
<g id="edge15" class="edge">
<title>Node1&#45;&gt;Node9</title>
<path fill="none" stroke="midnightblue" d="M42.73,-182.79C50.95,-159.4 74.76,-99.21 113,-63.5 125.83,-51.52 142.21,-41.97 157.95,-34.64"/>
<polygon fill="midnightblue" stroke="midnightblue" points="159.39,-37.83 167.12,-30.58 156.56,-31.43 159.39,-37.83"/>
</g>
<!-- Node3&#45;&gt;Node3 -->
<g id="edge4" class="edge">
<title>Node3&#45;&gt;Node3</title>
<path fill="none" stroke="midnightblue" d="M183.18,-375.66C175.86,-385.06 185.97,-394 213.5,-394 230.27,-394 240.58,-390.68 244.42,-385.96"/>
<polygon fill="midnightblue" stroke="midnightblue" points="247.89,-385.44 243.82,-375.66 240.91,-385.84 247.89,-385.44"/>
</g>
<!-- Node4&#45;&gt;Node4 -->
<g id="edge6" class="edge">
<title>Node4&#45;&gt;Node4</title>
<path fill="none" stroke="midnightblue" d="M183.18,-308.66C175.86,-318.06 185.97,-327 213.5,-327 230.27,-327 240.58,-323.68 244.42,-318.96"/>
<polygon fill="midnightblue" stroke="midnightblue" points="247.89,-318.44 243.82,-308.66 240.91,-318.84 247.89,-318.44"/>
</g>
<!-- Node5&#45;&gt;Node5 -->
<g id="edge8" class="edge">
<title>Node5&#45;&gt;Node5</title>
<path fill="none" stroke="midnightblue" d="M183.18,-241.66C175.86,-251.06 185.97,-260 213.5,-260 230.27,-260 240.58,-256.68 244.42,-251.96"/>
<polygon fill="midnightblue" stroke="midnightblue" points="247.89,-251.44 243.82,-241.66 240.91,-251.84 247.89,-251.44"/>
</g>
<!-- Node6&#45;&gt;Node6 -->
<g id="edge10" class="edge">
<title>Node6&#45;&gt;Node6</title>
<path fill="none" stroke="midnightblue" d="M183.18,-174.66C175.86,-184.06 185.97,-193 213.5,-193 230.27,-193 240.58,-189.68 244.42,-184.96"/>
<polygon fill="midnightblue" stroke="midnightblue" points="247.89,-184.44 243.82,-174.66 240.91,-184.84 247.89,-184.44"/>
</g>
<!-- Node6&#45;&gt;Node7 -->
<g id="edge11" class="edge">
<title>Node6&#45;&gt;Node7</title>
<path fill="none" stroke="midnightblue" d="M293.35,-144.48C308.71,-141.55 324.77,-138.5 339.98,-135.6"/>
<polygon fill="midnightblue" stroke="midnightblue" points="340.66,-139.03 349.83,-133.72 339.35,-132.16 340.66,-139.03"/>
</g>
<!-- Node7&#45;&gt;Node7 -->
<g id="edge12" class="edge">
<title>Node7&#45;&gt;Node7</title>
<path fill="none" stroke="midnightblue" d="M385.72,-136.66C378.66,-146.06 388.42,-155 415,-155 431.2,-155 441.15,-151.68 444.85,-146.96"/>
<polygon fill="midnightblue" stroke="midnightblue" points="448.33,-146.45 444.28,-136.66 441.34,-146.84 448.33,-146.45"/>
</g>
<!-- Node7&#45;&gt;Node8 -->
<g id="edge13" class="edge">
<title>Node7&#45;&gt;Node8</title>
<path fill="none" stroke="midnightblue" d="M480.37,-112.99C488.73,-111.89 497.35,-110.75 505.87,-109.62"/>
<polygon fill="midnightblue" stroke="midnightblue" points="506.37,-113.09 515.82,-108.31 505.45,-106.15 506.37,-113.09"/>
</g>
<!-- Node8&#45;&gt;Node8 -->
<g id="edge14" class="edge">
<title>Node8&#45;&gt;Node8</title>
<path fill="none" stroke="midnightblue" d="M554.22,-114.66C547.16,-124.06 556.92,-133 583.5,-133 599.7,-133 609.65,-129.68 613.35,-124.96"/>
<polygon fill="midnightblue" stroke="midnightblue" points="616.83,-124.45 612.78,-114.66 609.84,-124.84 616.83,-124.45"/>
</g>
<!-- Node9&#45;&gt;Node9 -->
<g id="edge16" class="edge">
<title>Node9&#45;&gt;Node9</title>
<path fill="none" stroke="midnightblue" d="M183.18,-30.66C175.86,-40.06 185.97,-49 213.5,-49 230.27,-49 240.58,-45.68 244.42,-40.96"/>
<polygon fill="midnightblue" stroke="midnightblue" points="247.89,-40.44 243.82,-30.66 240.91,-40.84 247.89,-40.44"/>
</g>
</g>
</svg>
        <g id="navigator" transform="translate(0 0)" fill="#404254">
                <rect fill="#f2f5e9" fill-opacity="0.5" stroke="#606060" stroke-width=".5" x="0" y="0" width="60" height="60"/>
                <use id="zoomplus" xlink:href="#zoomPlus" x="17" y="9" onmousedown="handleZoom(evt,'in')"/>
                <use id="zoomminus" xlink:href="#zoomMin" x="42" y="9" onmousedown="handleZoom(evt,'out')"/>
                <use id="reset" xlink:href="#resetDef" x="30" y="36" onmousedown="handleReset()"/>
                <g id="arrowUp" xlink:href="#dirArrow" transform="translate(30 24)" onmousedown="handlePan(0,-1)">
                  <use xlink:href="#rim" fill="#404040">
                        <set attributeName="fill" to="#808080" begin="arrowUp.mouseover" end="arrowUp.mouseout"/>
                  </use>
                  <path fill="none" stroke="white" stroke-width="1.5" d="M0,-3.0v7 M-2.5,-0.5L0,-3.0L2.5,-0.5"/>
                </g>
                <g id="arrowRight" xlink:href="#dirArrow" transform="rotate(90) translate(36 -43)" onmousedown="handlePan(1,0)">
                  <use xlink:href="#rim" fill="#404040">
                        <set attributeName="fill" to="#808080" begin="arrowRight.mouseover" end="arrowRight.mouseout"/>
                  </use>
                  <path fill="none" stroke="white" stroke-width="1.5" d="M0,-3.0v7 M-2.5,-0.5L0,-3.0L2.5,-0.5"/>
                </g>
                <g id="arrowDown" xlink:href="#dirArrow" transform="rotate(180) translate(-30 -48)" onmousedown="handlePan(0,1)">
                  <use xlink:href="#rim" fill="#404040">
                        <set attributeName="fill" to="#808080" begin="arrowDown.mouseover" end="arrowDown.mouseout"/>
                  </use>
                  <path fill="none" stroke="white" stroke-width="1.5" d="M0,-3.0v7 M-2.5,-0.5L0,-3.0L2.5,-0.5"/>
                </g>
                <g id="arrowLeft" xlink:href="#dirArrow" transform="rotate(270) translate(-36 17)" onmousedown="handlePan(-1,0)">
                  <use xlink:href="#rim" fill="#404040">
                        <set attributeName="fill" to="#808080" begin="arrowLeft.mouseover" end="arrowLeft.mouseout"/>
                  </use>
                  <path fill="none" stroke="white" stroke-width="1.5" d="M0,-3.0v7 M-2.5,-0.5L0,-3.0L2.5,-0.5"/>
                </g>
        </g>
        <svg viewBox="0 0 15 15" width="100%" height="30px" preserveAspectRatio="xMaxYMin meet">
         <g id="arrow_out" transform="scale(0.3 0.3)">
          <a xlink:href="classrare_1_1models_1_1game_1_1_rare_game_ac23544910168611f2fb1a25d39516384_cgraph_org.svg" target="_base">
           <rect id="button" ry="5" rx="5" y="6" x="6" height="38" width="38"
                fill="#f2f5e9" fill-opacity="0.5" stroke="#606060" stroke-width="1.0"/>
           <path id="arrow"
             d="M 11.500037,31.436501 C 11.940474,20.09759 22.043105,11.32322 32.158766,21.979434 L 37.068811,17.246167 C 37.068811,17.246167 37.088388,32 37.088388,32 L 22.160133,31.978069 C 22.160133,31.978069 26.997745,27.140456 26.997745,27.140456 C 18.528582,18.264221 13.291696,25.230495 11.500037,31.436501 z"
             style="fill:#404040;"/>
          </a>
         </g>
        </svg>
</svg>
