<?xml version="1.0" encoding="UTF-8" standalone="no"?>
<!DOCTYPE svg PUBLIC "-//W3C//DTD SVG 1.1//EN"
 "http://www.w3.org/Graphics/SVG/1.1/DTD/svg11.dtd">
<!-- Generated by graphviz version 2.49.3 (20211027.1534)
 -->
<!-- Title: keyPressEvent Pages: 1 -->
<svg width="381pt" height="57pt"
 viewBox="0.00 0.00 381.00 57.00" xmlns="http://www.w3.org/2000/svg" xmlns:xlink="http://www.w3.org/1999/xlink">
<g id="graph0" class="graph" transform="scale(1 1) rotate(0) translate(4 53)">
<title>keyPressEvent</title>
<polygon fill="white" stroke="transparent" points="-4,4 -4,-53 377,-53 377,4 -4,4"/>
<!-- Node1 -->
<g id="node1" class="node">
<title>Node1</title>
<g id="a_node1"><a xlink:title=" ">
<polygon fill="#bfbfbf" stroke="black" points="0,-6 0,-25 82,-25 82,-6 0,-6"/>
<text text-anchor="middle" x="41" y="-13" font-family="Helvetica,sans-Serif" font-size="10.00">keyPressEvent</text>
</a>
</g>
</g>
<!-- Node1&#45;&gt;Node1 -->
<g id="edge5" class="edge">
<title>Node1&#45;&gt;Node1</title>
<path fill="none" stroke="midnightblue" d="M23.12,-25.26C14.42,-34.07 20.38,-43.5 41,-43.5 53.89,-43.5 61.05,-39.81 62.48,-34.9"/>
<polygon fill="midnightblue" stroke="midnightblue" points="65.66,-33.4 58.88,-25.26 59.1,-35.85 65.66,-33.4"/>
</g>
<!-- Node2 -->
<g id="node2" class="node">
<title>Node2</title>
<g id="a_node2"><a xlink:href="classrare_1_1components_1_1dialogs_1_1install__dialog_1_1_install_dialog.html#ad983629da6604069e3e3f432ed5897f8" target="_top" xlink:title=" ">
<polygon fill="white" stroke="black" points="118,-6 118,-25 199,-25 199,-6 118,-6"/>
<text text-anchor="middle" x="158.5" y="-13" font-family="Helvetica,sans-Serif" font-size="10.00">cancel_clicked</text>
</a>
</g>
</g>
<!-- Node1&#45;&gt;Node2 -->
<g id="edge1" class="edge">
<title>Node1&#45;&gt;Node2</title>
<path fill="none" stroke="midnightblue" d="M82.07,-15.5C90.32,-15.5 99.09,-15.5 107.64,-15.5"/>
<polygon fill="midnightblue" stroke="midnightblue" points="107.89,-19 117.89,-15.5 107.89,-12 107.89,-19"/>
</g>
<!-- Node2&#45;&gt;Node2 -->
<g id="edge2" class="edge">
<title>Node2&#45;&gt;Node2</title>
<path fill="none" stroke="midnightblue" d="M140.62,-25.26C131.92,-34.07 137.88,-43.5 158.5,-43.5 171.39,-43.5 178.55,-39.81 179.98,-34.9"/>
<polygon fill="midnightblue" stroke="midnightblue" points="183.16,-33.4 176.38,-25.26 176.6,-35.85 183.16,-33.4"/>
</g>
<!-- Node3 -->
<g id="node3" class="node">
<title>Node3</title>
<g id="a_node3"><a xlink:href="classrare_1_1components_1_1main__window_1_1_main_window.html#ad9f81f4c56e23ca3c206b1e9374fc137" target="_top" xlink:title=" ">
<polygon fill="white" stroke="black" points="235,-0.5 235,-30.5 373,-30.5 373,-0.5 235,-0.5"/>
<text text-anchor="start" x="243" y="-18.5" font-family="Helvetica,sans-Serif" font-size="10.00">rare.components.main</text>
<text text-anchor="middle" x="304" y="-7.5" font-family="Helvetica,sans-Serif" font-size="10.00">_window.MainWindow.close</text>
</a>
</g>
</g>
<!-- Node2&#45;&gt;Node3 -->
<g id="edge3" class="edge">
<title>Node2&#45;&gt;Node3</title>
<path fill="none" stroke="midnightblue" d="M199.09,-15.5C207.17,-15.5 215.93,-15.5 224.83,-15.5"/>
<polygon fill="midnightblue" stroke="midnightblue" points="224.9,-19 234.9,-15.5 224.9,-12 224.9,-19"/>
</g>
<!-- Node3&#45;&gt;Node3 -->
<g id="edge4" class="edge">
<title>Node3&#45;&gt;Node3</title>
<path fill="none" stroke="midnightblue" d="M278.91,-30.66C272.85,-40.06 281.22,-49 304,-49 317.88,-49 326.41,-45.68 329.59,-40.96"/>
<polygon fill="midnightblue" stroke="midnightblue" points="333.07,-40.48 329.09,-30.66 326.08,-40.81 333.07,-40.48"/>
</g>
</g>
</svg>
