<?xml version="1.0" encoding="UTF-8" standalone="no"?>
<!DOCTYPE svg PUBLIC "-//W3C//DTD SVG 1.1//EN"
 "http://www.w3.org/Graphics/SVG/1.1/DTD/svg11.dtd">
<!-- Generated by graphviz version 2.49.3 (20211027.1534)
 -->
<!-- Title: prepare_data Pages: 1 -->
<svg width="237pt" height="170pt"
 viewBox="0.00 0.00 237.00 169.50" xmlns="http://www.w3.org/2000/svg" xmlns:xlink="http://www.w3.org/1999/xlink">
<g id="graph0" class="graph" transform="scale(1 1) rotate(0) translate(4 165.5)">
<title>prepare_data</title>
<polygon fill="white" stroke="transparent" points="-4,4 -4,-165.5 233,-165.5 233,4 -4,4"/>
<!-- Node1 -->
<g id="node1" class="node">
<title>Node1</title>
<g id="a_node1"><a xlink:title=" ">
<polygon fill="#bfbfbf" stroke="black" points="0,-68 0,-87 73,-87 73,-68 0,-68"/>
<text text-anchor="middle" x="36.5" y="-75" font-family="Helvetica,sans-Serif" font-size="10.00">prepare_data</text>
</a>
</g>
</g>
<!-- Node1&#45;&gt;Node1 -->
<g id="edge7" class="edge">
<title>Node1&#45;&gt;Node1</title>
<path fill="none" stroke="midnightblue" d="M16.15,-87.26C6.26,-96.07 13.04,-105.5 36.5,-105.5 51.53,-105.5 59.71,-101.63 61.05,-96.53"/>
<polygon fill="midnightblue" stroke="midnightblue" points="64.17,-94.92 56.85,-87.26 57.79,-97.81 64.17,-94.92"/>
</g>
<!-- Node2 -->
<g id="node2" class="node">
<title>Node2</title>
<g id="a_node2"><a xlink:href="classrare_1_1utils_1_1qt__requests_1_1_qt_request_manager.html#a5e28a148630df37ec29df28968b28534" target="_top" xlink:title=" ">
<polygon fill="white" stroke="black" points="154,-124 154,-143 184,-143 184,-124 154,-124"/>
<text text-anchor="middle" x="169" y="-131" font-family="Helvetica,sans-Serif" font-size="10.00">get</text>
</a>
</g>
</g>
<!-- Node1&#45;&gt;Node2 -->
<g id="edge1" class="edge">
<title>Node1&#45;&gt;Node2</title>
<path fill="none" stroke="midnightblue" d="M69.35,-87.01C81.54,-92.9 95.71,-99.97 109,-105.5 121.6,-110.75 136.2,-115.46 147.72,-119.97"/>
<polygon fill="midnightblue" stroke="midnightblue" points="146.36,-123.2 156.93,-123.9 149.1,-116.76 146.36,-123.2"/>
</g>
<!-- Node3 -->
<g id="node3" class="node">
<title>Node3</title>
<g id="a_node3"><a xlink:href="classrare_1_1utils_1_1qt__requests_1_1_qt_request_manager.html#a922a90b0753336d73446f60a0d8258e6" target="_top" xlink:title=" ">
<polygon fill="white" stroke="black" points="151.5,-68 151.5,-87 186.5,-87 186.5,-68 151.5,-68"/>
<text text-anchor="middle" x="169" y="-75" font-family="Helvetica,sans-Serif" font-size="10.00">post</text>
</a>
</g>
</g>
<!-- Node1&#45;&gt;Node3 -->
<g id="edge4" class="edge">
<title>Node1&#45;&gt;Node3</title>
<path fill="none" stroke="midnightblue" d="M73.16,-71.41C94.68,-70.38 121.65,-70.56 141.33,-71.93"/>
<polygon fill="midnightblue" stroke="midnightblue" points="141.15,-75.43 151.42,-72.82 141.77,-68.46 141.15,-75.43"/>
</g>
<!-- Node4 -->
<g id="node4" class="node">
<title>Node4</title>
<g id="a_node4"><a xlink:href="classrare_1_1utils_1_1json__formatter_1_1_q_json_tree_item.html#aff464267544e4efc9b770c8320c8f199" target="_top" xlink:title=" ">
<polygon fill="white" stroke="black" points="109,-0.5 109,-30.5 229,-30.5 229,-0.5 109,-0.5"/>
<text text-anchor="start" x="117" y="-18.5" font-family="Helvetica,sans-Serif" font-size="10.00">rare.utils.json_formatter.</text>
<text text-anchor="middle" x="169" y="-7.5" font-family="Helvetica,sans-Serif" font-size="10.00">QJsonTreeItem.type</text>
</a>
</g>
</g>
<!-- Node1&#45;&gt;Node4 -->
<g id="edge8" class="edge">
<title>Node1&#45;&gt;Node4</title>
<path fill="none" stroke="midnightblue" d="M57.6,-67.95C76.02,-59.2 103.83,-45.98 126.94,-35.01"/>
<polygon fill="midnightblue" stroke="midnightblue" points="128.65,-38.07 136.18,-30.62 125.65,-31.75 128.65,-38.07"/>
</g>
<!-- Node2&#45;&gt;Node1 -->
<g id="edge3" class="edge">
<title>Node2&#45;&gt;Node1</title>
<path fill="none" stroke="midnightblue" d="M153.7,-136.81C141.6,-135.16 123.9,-129.7 109,-123.5 89.1,-115.21 67.23,-103.48 52.98,-93.5"/>
<polygon fill="midnightblue" stroke="midnightblue" points="54.89,-90.55 44.82,-87.24 50.63,-96.1 54.89,-90.55"/>
</g>
<!-- Node2&#45;&gt;Node2 -->
<g id="edge2" class="edge">
<title>Node2&#45;&gt;Node2</title>
<path fill="none" stroke="midnightblue" d="M153.92,-139.55C137.16,-149.18 142.19,-161.5 169,-161.5 189.95,-161.5 197.6,-153.98 191.95,-146.1"/>
<polygon fill="midnightblue" stroke="midnightblue" points="194.01,-143.25 184.08,-139.55 189.53,-148.64 194.01,-143.25"/>
</g>
<!-- Node3&#45;&gt;Node1 -->
<g id="edge6" class="edge">
<title>Node3&#45;&gt;Node1</title>
<path fill="none" stroke="midnightblue" d="M151.42,-82.18C134.35,-84.06 106.99,-84.66 83.36,-83.98"/>
<polygon fill="midnightblue" stroke="midnightblue" points="83.29,-80.47 73.16,-83.59 83.02,-87.47 83.29,-80.47"/>
</g>
<!-- Node3&#45;&gt;Node3 -->
<g id="edge5" class="edge">
<title>Node3&#45;&gt;Node3</title>
<path fill="none" stroke="midnightblue" d="M151.24,-85.24C137.81,-94.56 143.73,-105.5 169,-105.5 187.55,-105.5 195.68,-99.6 193.37,-92.77"/>
<polygon fill="midnightblue" stroke="midnightblue" points="195.99,-90.45 186.76,-85.24 190.72,-95.07 195.99,-90.45"/>
</g>
<!-- Node4&#45;&gt;Node4 -->
<g id="edge9" class="edge">
<title>Node4&#45;&gt;Node4</title>
<path fill="none" stroke="midnightblue" d="M146,-30.66C140.45,-40.06 148.12,-49 169,-49 181.73,-49 189.54,-45.68 192.45,-40.96"/>
<polygon fill="midnightblue" stroke="midnightblue" points="195.94,-40.5 192,-30.66 188.94,-40.8 195.94,-40.5"/>
</g>
</g>
</svg>
