<?xml version="1.0" encoding="UTF-8" standalone="no"?>
<!DOCTYPE svg PUBLIC "-//W3C//DTD SVG 1.1//EN"
 "http://www.w3.org/Graphics/SVG/1.1/DTD/svg11.dtd">
<!-- Generated by graphviz version 2.49.3 (20211027.1534)
 -->
<!-- Title: get_overlay Pages: 1 -->
<svg width="466pt" height="445pt"
 viewBox="0.00 0.00 466.00 444.50" xmlns="http://www.w3.org/2000/svg" xmlns:xlink="http://www.w3.org/1999/xlink">
<g id="graph0" class="graph" transform="scale(1 1) rotate(0) translate(4 440.5)">
<title>get_overlay</title>
<polygon fill="white" stroke="transparent" points="-4,4 -4,-440.5 462,-440.5 462,4 -4,4"/>
<!-- Node1 -->
<g id="node1" class="node">
<title>Node1</title>
<g id="a_node1"><a xlink:title=" ">
<polygon fill="#bfbfbf" stroke="black" points="0,-272 0,-291 66,-291 66,-272 0,-272"/>
<text text-anchor="middle" x="33" y="-279" font-family="Helvetica,sans-Serif" font-size="10.00">get_overlay</text>
</a>
</g>
</g>
<!-- Node1&#45;&gt;Node1 -->
<g id="edge11" class="edge">
<title>Node1&#45;&gt;Node1</title>
<path fill="none" stroke="midnightblue" d="M9.88,-291.26C-1.37,-300.07 6.34,-309.5 33,-309.5 50.5,-309.5 59.83,-305.44 61,-300.15"/>
<polygon fill="midnightblue" stroke="midnightblue" points="64,-298.34 56.12,-291.26 57.86,-301.71 64,-298.34"/>
</g>
<!-- Node2 -->
<g id="node2" class="node">
<title>Node2</title>
<g id="a_node2"><a xlink:href="classrare_1_1shared_1_1rare__core_1_1_rare_core.html#a338a598c975402902d9f8c62afdb66a8" target="_top" xlink:title=" ">
<polygon fill="white" stroke="black" points="147.5,-417 147.5,-436 219.5,-436 219.5,-417 147.5,-417"/>
<text text-anchor="middle" x="183.5" y="-424" font-family="Helvetica,sans-Serif" font-size="10.00">__add_game</text>
</a>
</g>
</g>
<!-- Node1&#45;&gt;Node2 -->
<g id="edge1" class="edge">
<title>Node1&#45;&gt;Node2</title>
<path fill="none" stroke="midnightblue" d="M36.3,-291.17C42.47,-314.96 61.75,-376.66 102,-407.5 112.06,-415.21 124.76,-419.86 137.07,-422.65"/>
<polygon fill="midnightblue" stroke="midnightblue" points="136.79,-426.16 147.26,-424.58 138.09,-419.28 136.79,-426.16"/>
</g>
<!-- Node3 -->
<g id="node3" class="node">
<title>Node3</title>
<g id="a_node3"><a xlink:href="classrare_1_1shared_1_1rare__core_1_1_rare_core.html#a49e55db05eec4eb1ddc6bf3d5609f390" target="_top" xlink:title=" ">
<polygon fill="white" stroke="black" points="122.5,-379 122.5,-398 244.5,-398 244.5,-379 122.5,-379"/>
<text text-anchor="middle" x="183.5" y="-386" font-family="Helvetica,sans-Serif" font-size="10.00">__add_games_and_dlcs</text>
</a>
</g>
</g>
<!-- Node1&#45;&gt;Node3 -->
<g id="edge2" class="edge">
<title>Node1&#45;&gt;Node3</title>
<path fill="none" stroke="midnightblue" d="M38.64,-291.2C47.93,-309.55 70.68,-349.32 102,-369.5 105.37,-371.67 108.96,-373.59 112.68,-375.29"/>
<polygon fill="midnightblue" stroke="midnightblue" points="111.57,-378.62 122.15,-379.09 114.17,-372.12 111.57,-378.62"/>
</g>
<!-- Node4 -->
<g id="node4" class="node">
<title>Node4</title>
<g id="a_node4"><a xlink:href="classrare_1_1shared_1_1rare__core_1_1_rare_core.html#a724232065c10727cbbd833865d37b4f7" target="_top" xlink:title=" ">
<polygon fill="white" stroke="black" points="132.5,-329.5 132.5,-359.5 234.5,-359.5 234.5,-329.5 132.5,-329.5"/>
<text text-anchor="start" x="140.5" y="-347.5" font-family="Helvetica,sans-Serif" font-size="10.00">__create_or_update</text>
<text text-anchor="middle" x="183.5" y="-336.5" font-family="Helvetica,sans-Serif" font-size="10.00">_rgame</text>
</a>
</g>
</g>
<!-- Node1&#45;&gt;Node4 -->
<g id="edge3" class="edge">
<title>Node1&#45;&gt;Node4</title>
<path fill="none" stroke="midnightblue" d="M48.93,-291.04C62.41,-299.36 82.99,-311.34 102,-319.5 108.56,-322.32 115.55,-324.97 122.56,-327.42"/>
<polygon fill="midnightblue" stroke="midnightblue" points="121.51,-330.75 132.1,-330.62 123.74,-324.12 121.51,-330.75"/>
</g>
<!-- Node5 -->
<g id="node5" class="node">
<title>Node5</title>
<g id="a_node5"><a xlink:href="classrare_1_1shared_1_1rare__core_1_1_rare_core.html#a54a65028f7047494bbbf2f06a9d5dc9a" target="_top" xlink:title=" ">
<polygon fill="white" stroke="black" points="151.5,-291 151.5,-310 215.5,-310 215.5,-291 151.5,-291"/>
<text text-anchor="middle" x="183.5" y="-298" font-family="Helvetica,sans-Serif" font-size="10.00">__post_init</text>
</a>
</g>
</g>
<!-- Node1&#45;&gt;Node5 -->
<g id="edge4" class="edge">
<title>Node1&#45;&gt;Node5</title>
<path fill="none" stroke="midnightblue" d="M66.22,-285.62C88.22,-288.44 117.55,-292.19 141.25,-295.22"/>
<polygon fill="midnightblue" stroke="midnightblue" points="140.99,-298.72 151.36,-296.52 141.88,-291.77 140.99,-298.72"/>
</g>
<!-- Node6 -->
<g id="node6" class="node">
<title>Node6</title>
<g id="a_node6"><a xlink:href="classrare_1_1shared_1_1rare__core_1_1_rare_core.html#adde8d30c170a8e9390f675ab733724e9" target="_top" xlink:title=" ">
<polygon fill="white" stroke="black" points="137.5,-253 137.5,-272 229.5,-272 229.5,-253 137.5,-253"/>
<text text-anchor="middle" x="183.5" y="-260" font-family="Helvetica,sans-Serif" font-size="10.00">__validate_install</text>
</a>
</g>
</g>
<!-- Node1&#45;&gt;Node6 -->
<g id="edge5" class="edge">
<title>Node1&#45;&gt;Node6</title>
<path fill="none" stroke="midnightblue" d="M66.22,-277.38C84.11,-275.09 106.85,-272.18 127.46,-269.54"/>
<polygon fill="midnightblue" stroke="midnightblue" points="127.91,-273.01 137.38,-268.27 127.02,-266.07 127.91,-273.01"/>
</g>
<!-- Node7 -->
<g id="node7" class="node">
<title>Node7</title>
<g id="a_node7"><a xlink:href="classrare_1_1shared_1_1rare__core_1_1_rare_core.html#a79c176b5faed55afa14f43bf9096caf5" target="_top" xlink:title=" ">
<polygon fill="white" stroke="black" points="154,-197 154,-216 213,-216 213,-197 154,-197"/>
<text text-anchor="middle" x="183.5" y="-204" font-family="Helvetica,sans-Serif" font-size="10.00">get_game</text>
</a>
</g>
</g>
<!-- Node1&#45;&gt;Node7 -->
<g id="edge6" class="edge">
<title>Node1&#45;&gt;Node7</title>
<path fill="none" stroke="midnightblue" d="M50.29,-271.92C63.95,-264 84.04,-252.63 102,-243.5 117.97,-235.38 136.08,-226.99 151.06,-220.26"/>
<polygon fill="midnightblue" stroke="midnightblue" points="152.7,-223.36 160.41,-216.09 149.85,-216.97 152.7,-223.36"/>
</g>
<!-- Node8 -->
<g id="node8" class="node">
<title>Node8</title>
<g id="a_node8"><a xlink:href="classrare_1_1components_1_1tabs_1_1store_1_1shop__api__core_1_1_shop_api_core.html#a18df16bb6b4cfeaea982421770cce754" target="_top" xlink:title=" ">
<polygon fill="white" stroke="black" points="102,-129.5 102,-159.5 265,-159.5 265,-129.5 102,-129.5"/>
<text text-anchor="start" x="110" y="-147.5" font-family="Helvetica,sans-Serif" font-size="10.00">rare.components.tabs.store.shop</text>
<text text-anchor="middle" x="183.5" y="-136.5" font-family="Helvetica,sans-Serif" font-size="10.00">_api_core.ShopApiCore.get_game</text>
</a>
</g>
</g>
<!-- Node1&#45;&gt;Node8 -->
<g id="edge8" class="edge">
<title>Node1&#45;&gt;Node8</title>
<path fill="none" stroke="midnightblue" d="M39.01,-271.87C48.94,-253.51 72.71,-213.06 102,-187.5 112.37,-178.45 124.97,-170.59 137.09,-164.16"/>
<polygon fill="midnightblue" stroke="midnightblue" points="138.89,-167.17 146.22,-159.52 135.72,-160.93 138.89,-167.17"/>
</g>
<!-- Node10 -->
<g id="node10" class="node">
<title>Node10</title>
<g id="a_node10"><a xlink:href="classrare_1_1shared_1_1workers_1_1move_1_1_move_worker.html#a0f9f88b07029d9ad56e4b094074fe596" target="_top" xlink:title=" ">
<polygon fill="white" stroke="black" points="118.5,-62.5 118.5,-92.5 248.5,-92.5 248.5,-62.5 118.5,-62.5"/>
<text text-anchor="start" x="126.5" y="-80.5" font-family="Helvetica,sans-Serif" font-size="10.00">rare.shared.workers.move.</text>
<text text-anchor="middle" x="183.5" y="-69.5" font-family="Helvetica,sans-Serif" font-size="10.00">MoveWorker.progress</text>
</a>
</g>
</g>
<!-- Node1&#45;&gt;Node10 -->
<g id="edge12" class="edge">
<title>Node1&#45;&gt;Node10</title>
<path fill="none" stroke="midnightblue" d="M35.71,-271.95C40.98,-245.01 59.24,-167.33 102,-120.5 110.6,-111.08 121.75,-103.34 132.99,-97.14"/>
<polygon fill="midnightblue" stroke="midnightblue" points="134.7,-100.2 141.98,-92.5 131.49,-93.98 134.7,-100.2"/>
</g>
<!-- Node7&#45;&gt;Node7 -->
<g id="edge7" class="edge">
<title>Node7&#45;&gt;Node7</title>
<path fill="none" stroke="midnightblue" d="M160.38,-216.26C149.13,-225.07 156.84,-234.5 183.5,-234.5 201,-234.5 210.33,-230.44 211.5,-225.15"/>
<polygon fill="midnightblue" stroke="midnightblue" points="214.5,-223.34 206.62,-216.26 208.36,-226.71 214.5,-223.34"/>
</g>
<!-- Node8&#45;&gt;Node8 -->
<g id="edge10" class="edge">
<title>Node8&#45;&gt;Node8</title>
<path fill="none" stroke="midnightblue" d="M157.36,-159.66C151.06,-169.06 159.77,-178 183.5,-178 197.96,-178 206.85,-174.68 210.15,-169.96"/>
<polygon fill="midnightblue" stroke="midnightblue" points="213.63,-169.47 209.64,-159.66 206.64,-169.82 213.63,-169.47"/>
</g>
<!-- Node9 -->
<g id="node9" class="node">
<title>Node9</title>
<g id="a_node9"><a xlink:href="classrare_1_1components_1_1tabs_1_1store_1_1shop__api__core_1_1_shop_api_core.html#a04736802f608b1210509878271aa0392" target="_top" xlink:title=" ">
<polygon fill="white" stroke="black" points="301,-124 301,-165 458,-165 458,-124 301,-124"/>
<text text-anchor="start" x="309" y="-153" font-family="Helvetica,sans-Serif" font-size="10.00">rare.components.tabs.store.shop</text>
<text text-anchor="start" x="309" y="-142" font-family="Helvetica,sans-Serif" font-size="10.00">_api_core.ShopApiCore._handle</text>
<text text-anchor="middle" x="379.5" y="-131" font-family="Helvetica,sans-Serif" font-size="10.00">_get_game</text>
</a>
</g>
</g>
<!-- Node8&#45;&gt;Node9 -->
<g id="edge9" class="edge">
<title>Node8&#45;&gt;Node9</title>
<path fill="none" stroke="midnightblue" d="M265.09,-144.5C273.62,-144.5 282.32,-144.5 290.93,-144.5"/>
<polygon fill="midnightblue" stroke="midnightblue" points="290.97,-148 300.97,-144.5 290.97,-141 290.97,-148"/>
</g>
<!-- Node10&#45;&gt;Node10 -->
<g id="edge13" class="edge">
<title>Node10&#45;&gt;Node10</title>
<path fill="none" stroke="midnightblue" d="M157.36,-92.66C151.06,-102.06 159.77,-111 183.5,-111 197.96,-111 206.85,-107.68 210.15,-102.96"/>
<polygon fill="midnightblue" stroke="midnightblue" points="213.63,-102.47 209.64,-92.66 206.64,-102.82 213.63,-102.47"/>
</g>
<!-- Node11 -->
<g id="node11" class="node">
<title>Node11</title>
<g id="a_node11"><a xlink:href="classrare_1_1shared_1_1rare__core_1_1_rare_core.html#a135560fc58fcc2e5cff07ec25c23a06c" target="_top" xlink:title=" ">
<polygon fill="white" stroke="black" points="356,-68 356,-87 403,-87 403,-68 356,-68"/>
<text text-anchor="middle" x="379.5" y="-75" font-family="Helvetica,sans-Serif" font-size="10.00">signals</text>
</a>
</g>
</g>
<!-- Node10&#45;&gt;Node11 -->
<g id="edge14" class="edge">
<title>Node10&#45;&gt;Node11</title>
<path fill="none" stroke="midnightblue" d="M248.56,-77.5C280.96,-77.5 318.92,-77.5 345.42,-77.5"/>
<polygon fill="midnightblue" stroke="midnightblue" points="345.67,-81 355.67,-77.5 345.67,-74 345.67,-81"/>
</g>
<!-- Node12 -->
<g id="node12" class="node">
<title>Node12</title>
<g id="a_node12"><a xlink:href="classrare_1_1shared_1_1workers_1_1worker_1_1_worker.html#a9998d928f5b6f30ebb69dc655c0756a8" target="_top" xlink:title=" ">
<polygon fill="white" stroke="black" points="312,-0.5 312,-30.5 447,-30.5 447,-0.5 312,-0.5"/>
<text text-anchor="start" x="320" y="-18.5" font-family="Helvetica,sans-Serif" font-size="10.00">rare.shared.workers.worker.</text>
<text text-anchor="middle" x="379.5" y="-7.5" font-family="Helvetica,sans-Serif" font-size="10.00">Worker.signals</text>
</a>
</g>
</g>
<!-- Node10&#45;&gt;Node12 -->
<g id="edge16" class="edge">
<title>Node10&#45;&gt;Node12</title>
<path fill="none" stroke="midnightblue" d="M231.46,-62.49C258.55,-53.84 292.8,-42.89 321.43,-33.74"/>
<polygon fill="midnightblue" stroke="midnightblue" points="322.84,-36.96 331.3,-30.59 320.71,-30.3 322.84,-36.96"/>
</g>
<!-- Node11&#45;&gt;Node11 -->
<g id="edge15" class="edge">
<title>Node11&#45;&gt;Node11</title>
<path fill="none" stroke="midnightblue" d="M355.71,-84.11C332.52,-93.65 340.45,-105.5 379.5,-105.5 412.14,-105.5 423.04,-97.22 412.19,-88.93"/>
<polygon fill="midnightblue" stroke="midnightblue" points="413.75,-85.79 403.29,-84.11 410.42,-91.95 413.75,-85.79"/>
</g>
<!-- Node12&#45;&gt;Node12 -->
<g id="edge17" class="edge">
<title>Node12&#45;&gt;Node12</title>
<path fill="none" stroke="midnightblue" d="M345.34,-30.66C337.11,-40.06 348.49,-49 379.5,-49 398.4,-49 410,-45.68 414.33,-40.96"/>
<polygon fill="midnightblue" stroke="midnightblue" points="417.8,-40.41 413.66,-30.66 410.81,-40.87 417.8,-40.41"/>
</g>
</g>
</svg>
