<?xml version="1.0" encoding="UTF-8" standalone="no"?>
<!DOCTYPE svg PUBLIC "-//W3C//DTD SVG 1.1//EN"
 "http://www.w3.org/Graphics/SVG/1.1/DTD/svg11.dtd">
<!-- Generated by graphviz version 2.49.3 (20211027.1534)
 -->
<!-- Title: dropEvent Pages: 1 -->
<!--zoomable 297 -->
<svg id="main" version="1.1" xmlns="http://www.w3.org/2000/svg" xmlns:xlink="http://www.w3.org/1999/xlink" xml:space="preserve" onload="init(evt)">
<style type="text/css"><![CDATA[
.edge:hover path { stroke: red; }
.edge:hover polygon { stroke: red; fill: red; }
]]></style>
<script type="text/javascript"><![CDATA[
var edges = document.getElementsByTagName('g');
if (edges && edges.length) {
  for (var i=0;i<edges.length;i++) {
    if (edges[i].id.substr(0,4)=='edge') {
      edges[i].setAttribute('class','edge');
    }
  }
}
]]></script>
        <defs>
                <circle id="rim" cx="0" cy="0" r="7"/>
                <circle id="rim2" cx="0" cy="0" r="3.5"/>
                <g id="zoomPlus">
                        <use xlink:href="#rim" fill="#404040">
                                <set attributeName="fill" to="#808080" begin="zoomplus.mouseover" end="zoomplus.mouseout"/>
                        </use>
                        <path d="M-4,0h8M0,-4v8" fill="none" stroke="white" stroke-width="1.5" pointer-events="none"/>
                </g>
                <g id="zoomMin">
                        <use xlink:href="#rim" fill="#404040">
                                <set attributeName="fill" to="#808080" begin="zoomminus.mouseover" end="zoomminus.mouseout"/>
                        </use>
                        <path d="M-4,0h8" fill="none" stroke="white" stroke-width="1.5" pointer-events="none"/>
                </g>
                <g id="dirArrow">
                        <path fill="none" stroke="white" stroke-width="1.5" d="M0,-3.0v7 M-2.5,-0.5L0,-3.0L2.5,-0.5"/>
                </g>
               <g id="resetDef">
                       <use xlink:href="#rim2" fill="#404040">
                               <set attributeName="fill" to="#808080" begin="reset.mouseover" end="reset.mouseout"/>
                       </use>
               </g>
        </defs>

<script type="text/javascript">
var viewWidth = 842;
var viewHeight = 297;
var sectionId = 'dynsection-8';
</script>
<script xlink:href="svgpan.js"/>
<svg id="graph" class="graph">
<g id="viewport">
<title>dropEvent</title>
<polygon fill="white" stroke="transparent" points="-4,4 -4,-293 838.37,-293 838.37,4 -4,4"/>
<!-- Node1 -->
<g id="node1" class="node">
<title>Node1</title>
<g id="a_node1"><a xlink:title=" ">
<polygon fill="#bfbfbf" stroke="black" points="3.37,-135 3.37,-154 63.37,-154 63.37,-135 3.37,-135"/>
<text text-anchor="middle" x="33.37" y="-142" font-family="Helvetica,sans-Serif" font-size="10.00">dropEvent</text>
</a>
</g>
</g>
<!-- Node1&#45;&gt;Node1 -->
<g id="edge2" class="edge">
<title>Node1&#45;&gt;Node1</title>
<path fill="none" stroke="midnightblue" d="M6.25,-154.26C-6.95,-163.07 2.09,-172.5 33.37,-172.5 54.88,-172.5 65.87,-168.04 66.36,-162.39"/>
<polygon fill="midnightblue" stroke="midnightblue" points="69.18,-160.33 60.5,-154.26 63.5,-164.42 69.18,-160.33"/>
</g>
<!-- Node2 -->
<g id="node2" class="node">
<title>Node2</title>
<g id="a_node2"><a xlink:href="classrare_1_1components_1_1tabs_1_1settings_1_1widgets_1_1wrapper_1_1_wrapper_container.html#a23c33ff970e7829b07b1443ca54a4245" target="_top" xlink:title=" ">
<polygon fill="white" stroke="black" points="166.37,-197 166.37,-216 253.37,-216 253.37,-197 166.37,-197"/>
<text text-anchor="middle" x="209.87" y="-204" font-family="Helvetica,sans-Serif" font-size="10.00">_get_drop_index</text>
</a>
</g>
</g>
<!-- Node1&#45;&gt;Node2 -->
<g id="edge1" class="edge">
<title>Node1&#45;&gt;Node2</title>
<path fill="none" stroke="midnightblue" d="M45.99,-154.36C58.38,-164.34 79,-179.41 99.37,-187.5 117.23,-194.59 137.76,-199.04 156.18,-201.83"/>
<polygon fill="midnightblue" stroke="midnightblue" points="155.78,-205.31 166.17,-203.22 156.74,-198.38 155.78,-205.31"/>
</g>
<!-- Node3 -->
<g id="node3" class="node">
<title>Node3</title>
<g id="a_node3"><a xlink:href="classrare_1_1components_1_1tabs_1_1settings_1_1widgets_1_1wrapper_1_1_wrapper_settings.html#a564562f082521e37c7029e239abb56c6" target="_top" xlink:title=" ">
<polygon fill="white" stroke="black" points="99.37,-129.5 99.37,-159.5 320.37,-159.5 320.37,-129.5 99.37,-129.5"/>
<text text-anchor="start" x="107.37" y="-147.5" font-family="Helvetica,sans-Serif" font-size="10.00">rare.components.tabs.settings.widgets.wrapper.</text>
<text text-anchor="middle" x="209.87" y="-136.5" font-family="Helvetica,sans-Serif" font-size="10.00">WrapperSettings.save</text>
</a>
</g>
</g>
<!-- Node1&#45;&gt;Node3 -->
<g id="edge3" class="edge">
<title>Node1&#45;&gt;Node3</title>
<path fill="none" stroke="midnightblue" d="M63.58,-144.5C71.13,-144.5 79.75,-144.5 88.93,-144.5"/>
<polygon fill="midnightblue" stroke="midnightblue" points="89.09,-148 99.09,-144.5 89.09,-141 89.09,-148"/>
</g>
<!-- Node8 -->
<g id="node8" class="node">
<title>Node8</title>
<g id="a_node8"><a xlink:href="classrare_1_1game__launch__helper_1_1console_1_1_console.html#a564562f082521e37c7029e239abb56c6" target="_top" xlink:title=" ">
<polygon fill="white" stroke="black" points="128.37,-31.5 128.37,-61.5 291.37,-61.5 291.37,-31.5 128.37,-31.5"/>
<text text-anchor="start" x="136.37" y="-49.5" font-family="Helvetica,sans-Serif" font-size="10.00">rare.game_launch_helper.console.</text>
<text text-anchor="middle" x="209.87" y="-38.5" font-family="Helvetica,sans-Serif" font-size="10.00">Console.save</text>
</a>
</g>
</g>
<!-- Node1&#45;&gt;Node8 -->
<g id="edge14" class="edge">
<title>Node1&#45;&gt;Node8</title>
<path fill="none" stroke="midnightblue" d="M51.42,-134.92C79.49,-119.16 136.01,-87.42 173.13,-66.57"/>
<polygon fill="midnightblue" stroke="midnightblue" points="175.12,-69.47 182.13,-61.52 171.69,-63.37 175.12,-69.47"/>
</g>
<!-- Node3&#45;&gt;Node3 -->
<g id="edge13" class="edge">
<title>Node3&#45;&gt;Node3</title>
<path fill="none" stroke="midnightblue" d="M179.2,-159.66C171.81,-169.06 182.03,-178 209.87,-178 226.84,-178 237.27,-174.68 241.15,-169.96"/>
<polygon fill="midnightblue" stroke="midnightblue" points="244.62,-169.44 240.55,-159.66 237.63,-169.85 244.62,-169.44"/>
</g>
<!-- Node4 -->
<g id="node4" class="node">
<title>Node4</title>
<g id="a_node4"><a xlink:href="classrare_1_1components_1_1tabs_1_1games_1_1integrations_1_1egl__sync__group_1_1_e_g_l_sync_list_item.html#a9c470cc60eae203f55455d0e0d7f5712" target="_top" xlink:title=" ">
<polygon fill="white" stroke="black" points="362.37,-240.5 362.37,-270.5 571.37,-270.5 571.37,-240.5 362.37,-240.5"/>
<text text-anchor="start" x="370.37" y="-258.5" font-family="Helvetica,sans-Serif" font-size="10.00">rare.components.tabs.games.integrations.egl</text>
<text text-anchor="middle" x="466.87" y="-247.5" font-family="Helvetica,sans-Serif" font-size="10.00">_sync_group.EGLSyncListItem.app_name</text>
</a>
</g>
</g>
<!-- Node3&#45;&gt;Node4 -->
<g id="edge4" class="edge">
<title>Node3&#45;&gt;Node4</title>
<path fill="none" stroke="midnightblue" d="M264.91,-159.54C283.55,-166.28 303.87,-175.47 320.37,-187.5 340.8,-202.38 334.84,-218.28 356.37,-231.5 359.19,-233.23 362.12,-234.84 365.13,-236.33"/>
<polygon fill="midnightblue" stroke="midnightblue" points="363.82,-239.58 374.38,-240.47 366.68,-233.19 363.82,-239.58"/>
</g>
<!-- Node5 -->
<g id="node5" class="node">
<title>Node5</title>
<g id="a_node5"><a xlink:href="classrare_1_1models_1_1game_1_1_rare_game_base.html#a0afe16b2357823a068971d7af5918a23" target="_top" xlink:title=" ">
<polygon fill="white" stroke="black" points="395.87,-173.5 395.87,-203.5 537.87,-203.5 537.87,-173.5 395.87,-173.5"/>
<text text-anchor="start" x="403.87" y="-191.5" font-family="Helvetica,sans-Serif" font-size="10.00">rare.models.game.RareGame</text>
<text text-anchor="middle" x="466.87" y="-180.5" font-family="Helvetica,sans-Serif" font-size="10.00">Base.app_name</text>
</a>
</g>
</g>
<!-- Node3&#45;&gt;Node5 -->
<g id="edge6" class="edge">
<title>Node3&#45;&gt;Node5</title>
<path fill="none" stroke="midnightblue" d="M297.92,-159.52C326.32,-164.42 357.7,-169.83 385.58,-174.65"/>
<polygon fill="midnightblue" stroke="midnightblue" points="385.23,-178.14 395.68,-176.39 386.42,-171.24 385.23,-178.14"/>
</g>
<!-- Node6 -->
<g id="node6" class="node">
<title>Node6</title>
<g id="a_node6"><a xlink:href="classrare_1_1components_1_1tabs_1_1settings_1_1widgets_1_1wrapper_1_1_wrapper_settings.html#af704077af9c417ed9938e7b3f271faa5" target="_top" xlink:title=" ">
<polygon fill="white" stroke="black" points="613.37,-98.5 613.37,-128.5 834.37,-128.5 834.37,-98.5 613.37,-98.5"/>
<text text-anchor="start" x="621.37" y="-116.5" font-family="Helvetica,sans-Serif" font-size="10.00">rare.components.tabs.settings.widgets.wrapper.</text>
<text text-anchor="middle" x="723.87" y="-105.5" font-family="Helvetica,sans-Serif" font-size="10.00">WrapperSettings.get_wrapper_list</text>
</a>
</g>
</g>
<!-- Node3&#45;&gt;Node6 -->
<g id="edge8" class="edge">
<title>Node3&#45;&gt;Node6</title>
<path fill="none" stroke="midnightblue" d="M320.38,-139.7C393.25,-136.29 491.08,-131.29 577.37,-125.5 585.74,-124.94 594.36,-124.32 603.05,-123.67"/>
<polygon fill="midnightblue" stroke="midnightblue" points="603.56,-127.15 613.26,-122.9 603.03,-120.17 603.56,-127.15"/>
</g>
<!-- Node7 -->
<g id="node7" class="node">
<title>Node7</title>
<g id="a_node7"><a xlink:href="classrare_1_1components_1_1tabs_1_1settings_1_1widgets_1_1wrapper_1_1_wrapper_settings.html#ab720efcdbf6d746c9008125db4703236" target="_top" xlink:title=" ">
<polygon fill="white" stroke="black" points="356.37,-67.5 356.37,-97.5 577.37,-97.5 577.37,-67.5 356.37,-67.5"/>
<text text-anchor="start" x="364.37" y="-85.5" font-family="Helvetica,sans-Serif" font-size="10.00">rare.components.tabs.settings.widgets.wrapper.</text>
<text text-anchor="middle" x="466.87" y="-74.5" font-family="Helvetica,sans-Serif" font-size="10.00">WrapperSettings.get_wrapper_string</text>
</a>
</g>
</g>
<!-- Node3&#45;&gt;Node7 -->
<g id="edge10" class="edge">
<title>Node3&#45;&gt;Node7</title>
<path fill="none" stroke="midnightblue" d="M272.6,-129.49C309.14,-120.61 355.59,-109.31 393.8,-100.02"/>
<polygon fill="midnightblue" stroke="midnightblue" points="394.94,-103.35 403.83,-97.59 393.29,-96.55 394.94,-103.35"/>
</g>
<!-- Node4&#45;&gt;Node4 -->
<g id="edge5" class="edge">
<title>Node4&#45;&gt;Node4</title>
<path fill="none" stroke="midnightblue" d="M422.26,-270.66C411.5,-280.06 426.37,-289 466.87,-289 492.19,-289 507.49,-285.51 512.78,-280.59"/>
<polygon fill="midnightblue" stroke="midnightblue" points="516.25,-280.12 511.49,-270.66 509.3,-281.03 516.25,-280.12"/>
</g>
<!-- Node5&#45;&gt;Node5 -->
<g id="edge7" class="edge">
<title>Node5&#45;&gt;Node5</title>
<path fill="none" stroke="midnightblue" d="M422.26,-203.66C411.5,-213.06 426.37,-222 466.87,-222 492.19,-222 507.49,-218.51 512.78,-213.59"/>
<polygon fill="midnightblue" stroke="midnightblue" points="516.25,-213.12 511.49,-203.66 509.3,-214.03 516.25,-213.12"/>
</g>
<!-- Node6&#45;&gt;Node6 -->
<g id="edge9" class="edge">
<title>Node6&#45;&gt;Node6</title>
<path fill="none" stroke="midnightblue" d="M679.26,-128.66C668.5,-138.06 683.37,-147 723.87,-147 749.19,-147 764.49,-143.51 769.78,-138.59"/>
<polygon fill="midnightblue" stroke="midnightblue" points="773.25,-138.12 768.49,-128.66 766.3,-139.03 773.25,-138.12"/>
</g>
<!-- Node7&#45;&gt;Node6 -->
<g id="edge11" class="edge">
<title>Node7&#45;&gt;Node6</title>
<path fill="none" stroke="midnightblue" d="M577.5,-95.83C586.03,-96.86 594.68,-97.92 603.28,-98.96"/>
<polygon fill="midnightblue" stroke="midnightblue" points="602.99,-102.45 613.34,-100.18 603.84,-95.5 602.99,-102.45"/>
</g>
<!-- Node7&#45;&gt;Node7 -->
<g id="edge12" class="edge">
<title>Node7&#45;&gt;Node7</title>
<path fill="none" stroke="midnightblue" d="M422.26,-97.66C411.5,-107.06 426.37,-116 466.87,-116 492.19,-116 507.49,-112.51 512.78,-107.59"/>
<polygon fill="midnightblue" stroke="midnightblue" points="516.25,-107.12 511.49,-97.66 509.3,-108.03 516.25,-107.12"/>
</g>
<!-- Node8&#45;&gt;Node8 -->
<g id="edge15" class="edge">
<title>Node8&#45;&gt;Node8</title>
<path fill="none" stroke="midnightblue" d="M179.2,-61.66C171.81,-71.06 182.03,-80 209.87,-80 226.84,-80 237.27,-76.68 241.15,-71.96"/>
<polygon fill="midnightblue" stroke="midnightblue" points="244.62,-71.44 240.55,-61.66 237.63,-71.85 244.62,-71.44"/>
</g>
<!-- Node9 -->
<g id="node9" class="node">
<title>Node9</title>
<g id="a_node9"><a xlink:href="classrare_1_1components_1_1dialogs_1_1launch__dialog_1_1_image_worker.html#abfb44fdc3f5ec4c03f5d2e72900deb61" target="_top" xlink:title=" ">
<polygon fill="white" stroke="black" points="390.87,-0.5 390.87,-30.5 542.87,-30.5 542.87,-0.5 390.87,-0.5"/>
<text text-anchor="start" x="398.87" y="-18.5" font-family="Helvetica,sans-Serif" font-size="10.00">rare.components.dialogs.launch</text>
<text text-anchor="middle" x="466.87" y="-7.5" font-family="Helvetica,sans-Serif" font-size="10.00">_dialog.ImageWorker.tr</text>
</a>
</g>
</g>
<!-- Node8&#45;&gt;Node9 -->
<g id="edge16" class="edge">
<title>Node8&#45;&gt;Node9</title>
<path fill="none" stroke="midnightblue" d="M291.56,-36.69C319.88,-33.25 351.78,-29.37 380.48,-25.88"/>
<polygon fill="midnightblue" stroke="midnightblue" points="380.98,-29.35 390.49,-24.66 380.14,-22.4 380.98,-29.35"/>
</g>
<!-- Node9&#45;&gt;Node9 -->
<g id="edge17" class="edge">
<title>Node9&#45;&gt;Node9</title>
<path fill="none" stroke="midnightblue" d="M422.26,-30.66C411.5,-40.06 426.37,-49 466.87,-49 492.19,-49 507.49,-45.51 512.78,-40.59"/>
<polygon fill="midnightblue" stroke="midnightblue" points="516.25,-40.12 511.49,-30.66 509.3,-41.03 516.25,-40.12"/>
</g>
</g>
</svg>
        <g id="navigator" transform="translate(0 0)" fill="#404254">
                <rect fill="#f2f5e9" fill-opacity="0.5" stroke="#606060" stroke-width=".5" x="0" y="0" width="60" height="60"/>
                <use id="zoomplus" xlink:href="#zoomPlus" x="17" y="9" onmousedown="handleZoom(evt,'in')"/>
                <use id="zoomminus" xlink:href="#zoomMin" x="42" y="9" onmousedown="handleZoom(evt,'out')"/>
                <use id="reset" xlink:href="#resetDef" x="30" y="36" onmousedown="handleReset()"/>
                <g id="arrowUp" xlink:href="#dirArrow" transform="translate(30 24)" onmousedown="handlePan(0,-1)">
                  <use xlink:href="#rim" fill="#404040">
                        <set attributeName="fill" to="#808080" begin="arrowUp.mouseover" end="arrowUp.mouseout"/>
                  </use>
                  <path fill="none" stroke="white" stroke-width="1.5" d="M0,-3.0v7 M-2.5,-0.5L0,-3.0L2.5,-0.5"/>
                </g>
                <g id="arrowRight" xlink:href="#dirArrow" transform="rotate(90) translate(36 -43)" onmousedown="handlePan(1,0)">
                  <use xlink:href="#rim" fill="#404040">
                        <set attributeName="fill" to="#808080" begin="arrowRight.mouseover" end="arrowRight.mouseout"/>
                  </use>
                  <path fill="none" stroke="white" stroke-width="1.5" d="M0,-3.0v7 M-2.5,-0.5L0,-3.0L2.5,-0.5"/>
                </g>
                <g id="arrowDown" xlink:href="#dirArrow" transform="rotate(180) translate(-30 -48)" onmousedown="handlePan(0,1)">
                  <use xlink:href="#rim" fill="#404040">
                        <set attributeName="fill" to="#808080" begin="arrowDown.mouseover" end="arrowDown.mouseout"/>
                  </use>
                  <path fill="none" stroke="white" stroke-width="1.5" d="M0,-3.0v7 M-2.5,-0.5L0,-3.0L2.5,-0.5"/>
                </g>
                <g id="arrowLeft" xlink:href="#dirArrow" transform="rotate(270) translate(-36 17)" onmousedown="handlePan(-1,0)">
                  <use xlink:href="#rim" fill="#404040">
                        <set attributeName="fill" to="#808080" begin="arrowLeft.mouseover" end="arrowLeft.mouseout"/>
                  </use>
                  <path fill="none" stroke="white" stroke-width="1.5" d="M0,-3.0v7 M-2.5,-0.5L0,-3.0L2.5,-0.5"/>
                </g>
        </g>
        <svg viewBox="0 0 15 15" width="100%" height="30px" preserveAspectRatio="xMaxYMin meet">
         <g id="arrow_out" transform="scale(0.3 0.3)">
          <a xlink:href="classrare_1_1components_1_1tabs_1_1settings_1_1widgets_1_1wrapper_1_1_wrapper_container_a635f7652b6a8b627b7448d53603de00a_cgraph_org.svg" target="_base">
           <rect id="button" ry="5" rx="5" y="6" x="6" height="38" width="38"
                fill="#f2f5e9" fill-opacity="0.5" stroke="#606060" stroke-width="1.0"/>
           <path id="arrow"
             d="M 11.500037,31.436501 C 11.940474,20.09759 22.043105,11.32322 32.158766,21.979434 L 37.068811,17.246167 C 37.068811,17.246167 37.088388,32 37.088388,32 L 22.160133,31.978069 C 22.160133,31.978069 26.997745,27.140456 26.997745,27.140456 C 18.528582,18.264221 13.291696,25.230495 11.500037,31.436501 z"
             style="fill:#404040;"/>
          </a>
         </g>
        </svg>
</svg>
