<?xml version="1.0" encoding="UTF-8" standalone="no"?>
<!DOCTYPE svg PUBLIC "-//W3C//DTD SVG 1.1//EN"
 "http://www.w3.org/Graphics/SVG/1.1/DTD/svg11.dtd">
<!-- Generated by graphviz version 2.49.3 (20211027.1534)
 -->
<!-- Title: save_path Pages: 1 -->
<svg width="614pt" height="199pt"
 viewBox="0.00 0.00 614.00 199.12" xmlns="http://www.w3.org/2000/svg" xmlns:xlink="http://www.w3.org/1999/xlink">
<g id="graph0" class="graph" transform="scale(1 1) rotate(0) translate(4 195.12)">
<title>save_path</title>
<polygon fill="white" stroke="transparent" points="-4,4 -4,-195.12 610,-195.12 610,4 -4,4"/>
<!-- Node1 -->
<g id="node1" class="node">
<title>Node1</title>
<g id="a_node1"><a xlink:title=" ">
<polygon fill="#bfbfbf" stroke="black" points="544,-112 544,-131 606,-131 606,-112 544,-112"/>
<text text-anchor="middle" x="575" y="-119" font-family="Helvetica,sans-Serif" font-size="10.00">save_path</text>
</a>
</g>
</g>
<!-- Node2 -->
<g id="node2" class="node">
<title>Node2</title>
<g id="a_node2"><a xlink:href="classrare_1_1models_1_1base__game_1_1_rare_game_slim.html#a13a51449b5ed361bfe860829df5a87f5" target="_top" xlink:title=" ">
<polygon fill="white" stroke="black" points="0,-106.5 0,-136.5 142,-136.5 142,-106.5 0,-106.5"/>
<text text-anchor="start" x="8" y="-124.5" font-family="Helvetica,sans-Serif" font-size="10.00">rare.models.base_game.Rare</text>
<text text-anchor="middle" x="71" y="-113.5" font-family="Helvetica,sans-Serif" font-size="10.00">GameSlim.download_saves</text>
</a>
</g>
</g>
<!-- Node1&#45;&gt;Node2 -->
<g id="edge1" class="edge">
<title>Node1&#45;&gt;Node2</title>
<path fill="none" stroke="midnightblue" d="M555.53,-137.74C543.05,-147.59 525.68,-159.25 508,-164.5 367.4,-206.26 321.95,-192.59 178,-164.5 150.71,-159.18 121.57,-146.81 100.76,-136.71"/>
<polygon fill="midnightblue" stroke="midnightblue" points="557.84,-140.37 563.33,-131.31 553.39,-134.97 557.84,-140.37"/>
</g>
<!-- Node3 -->
<g id="node3" class="node">
<title>Node3</title>
<g id="a_node3"><a xlink:href="classrare_1_1models_1_1base__game_1_1_rare_game_slim.html#a09658b980eca0a97191099319bf89b84" target="_top" xlink:title="Use only in a thread.">
<polygon fill="white" stroke="black" points="366,-106.5 366,-136.5 508,-136.5 508,-106.5 366,-106.5"/>
<text text-anchor="start" x="374" y="-124.5" font-family="Helvetica,sans-Serif" font-size="10.00">rare.models.base_game.Rare</text>
<text text-anchor="middle" x="437" y="-113.5" font-family="Helvetica,sans-Serif" font-size="10.00">GameSlim.load_saves</text>
</a>
</g>
</g>
<!-- Node1&#45;&gt;Node3 -->
<g id="edge3" class="edge">
<title>Node1&#45;&gt;Node3</title>
<path fill="none" stroke="midnightblue" d="M533.63,-121.5C525.58,-121.5 516.89,-121.5 508.17,-121.5"/>
<polygon fill="midnightblue" stroke="midnightblue" points="533.82,-125 543.82,-121.5 533.82,-118 533.82,-125"/>
</g>
<!-- Node5 -->
<g id="node5" class="node">
<title>Node5</title>
<g id="a_node5"><a xlink:href="classrare_1_1models_1_1base__game_1_1_rare_game_slim.html#a299a7ea18948f61b7235c7bf6e7fa8af" target="_top" xlink:title=" ">
<polygon fill="white" stroke="black" points="366,-39.5 366,-69.5 508,-69.5 508,-39.5 366,-39.5"/>
<text text-anchor="start" x="374" y="-57.5" font-family="Helvetica,sans-Serif" font-size="10.00">rare.models.base_game.Rare</text>
<text text-anchor="middle" x="437" y="-46.5" font-family="Helvetica,sans-Serif" font-size="10.00">GameSlim.save_game_state</text>
</a>
</g>
</g>
<!-- Node1&#45;&gt;Node5 -->
<g id="edge8" class="edge">
<title>Node1&#45;&gt;Node5</title>
<path fill="none" stroke="midnightblue" d="M545.44,-107.43C522.9,-96.33 491.52,-80.87 468.49,-69.52"/>
<polygon fill="midnightblue" stroke="midnightblue" points="544,-110.62 554.51,-111.9 547.09,-104.34 544,-110.62"/>
</g>
<!-- Node2&#45;&gt;Node2 -->
<g id="edge2" class="edge">
<title>Node2&#45;&gt;Node2</title>
<path fill="none" stroke="midnightblue" d="M103.34,-146.96C99.33,-151.68 88.55,-155 71,-155 42.21,-155 31.63,-146.06 39.28,-136.66"/>
<polygon fill="midnightblue" stroke="midnightblue" points="106.81,-146.43 102.72,-136.66 99.83,-146.85 106.81,-146.43"/>
</g>
<!-- Node3&#45;&gt;Node3 -->
<g id="edge4" class="edge">
<title>Node3&#45;&gt;Node3</title>
<path fill="none" stroke="midnightblue" d="M461.52,-146.96C458.48,-151.68 450.3,-155 437,-155 415.17,-155 407.15,-146.06 412.95,-136.66"/>
<polygon fill="midnightblue" stroke="midnightblue" points="465,-146.49 461.05,-136.66 458.01,-146.81 465,-146.49"/>
</g>
<!-- Node4 -->
<g id="node4" class="node">
<title>Node4</title>
<g id="a_node4"><a xlink:href="classrare_1_1models_1_1base__game_1_1_rare_game_slim.html#a538e01960833eed6bbda62ccc518f22f" target="_top" xlink:title="Use only in a thread.">
<polygon fill="white" stroke="black" points="183,-106.5 183,-136.5 325,-136.5 325,-106.5 183,-106.5"/>
<text text-anchor="start" x="191" y="-124.5" font-family="Helvetica,sans-Serif" font-size="10.00">rare.models.base_game.Rare</text>
<text text-anchor="middle" x="254" y="-113.5" font-family="Helvetica,sans-Serif" font-size="10.00">GameSlim.update_saves</text>
</a>
</g>
</g>
<!-- Node3&#45;&gt;Node4 -->
<g id="edge5" class="edge">
<title>Node3&#45;&gt;Node4</title>
<path fill="none" stroke="midnightblue" d="M355.68,-121.5C345.52,-121.5 335.18,-121.5 325.2,-121.5"/>
<polygon fill="midnightblue" stroke="midnightblue" points="355.76,-125 365.76,-121.5 355.76,-118 355.76,-125"/>
</g>
<!-- Node4&#45;&gt;Node2 -->
<g id="edge6" class="edge">
<title>Node4&#45;&gt;Node2</title>
<path fill="none" stroke="midnightblue" d="M172.68,-121.5C162.52,-121.5 152.18,-121.5 142.2,-121.5"/>
<polygon fill="midnightblue" stroke="midnightblue" points="172.76,-125 182.76,-121.5 172.76,-118 172.76,-125"/>
</g>
<!-- Node4&#45;&gt;Node4 -->
<g id="edge7" class="edge">
<title>Node4&#45;&gt;Node4</title>
<path fill="none" stroke="midnightblue" d="M286.34,-146.96C282.33,-151.68 271.55,-155 254,-155 225.21,-155 214.63,-146.06 222.28,-136.66"/>
<polygon fill="midnightblue" stroke="midnightblue" points="289.81,-146.43 285.72,-136.66 282.83,-146.85 289.81,-146.43"/>
</g>
<!-- Node5&#45;&gt;Node2 -->
<g id="edge9" class="edge">
<title>Node5&#45;&gt;Node2</title>
<path fill="none" stroke="midnightblue" d="M356.01,-66.62C304.95,-74.65 237.42,-85.83 178,-97.5 164.21,-100.21 149.46,-103.37 135.49,-106.5"/>
<polygon fill="midnightblue" stroke="midnightblue" points="356.66,-70.06 366,-65.05 355.57,-63.14 356.66,-70.06"/>
</g>
<!-- Node5&#45;&gt;Node5 -->
<g id="edge12" class="edge">
<title>Node5&#45;&gt;Node5</title>
<path fill="none" stroke="midnightblue" d="M461.52,-79.96C458.48,-84.68 450.3,-88 437,-88 415.17,-88 407.15,-79.06 412.95,-69.66"/>
<polygon fill="midnightblue" stroke="midnightblue" points="465,-79.49 461.05,-69.66 458.01,-79.81 465,-79.49"/>
</g>
<!-- Node6 -->
<g id="node6" class="node">
<title>Node6</title>
<g id="a_node6"><a xlink:href="classrare_1_1models_1_1base__game_1_1_rare_game_slim.html#a292ca171ac6d8d0b8c5b1aabacfdf5b1" target="_top" xlink:title=" ">
<polygon fill="white" stroke="black" points="178,-0.5 178,-30.5 330,-30.5 330,-0.5 178,-0.5"/>
<text text-anchor="start" x="186" y="-18.5" font-family="Helvetica,sans-Serif" font-size="10.00">rare.models.base_game.Rare</text>
<text text-anchor="middle" x="254" y="-7.5" font-family="Helvetica,sans-Serif" font-size="10.00">GameSlim.is_save_up_to_date</text>
</a>
</g>
</g>
<!-- Node5&#45;&gt;Node6 -->
<g id="edge10" class="edge">
<title>Node5&#45;&gt;Node6</title>
<path fill="none" stroke="midnightblue" d="M356.27,-37.32C345.74,-35.05 335.02,-32.74 324.68,-30.51"/>
<polygon fill="midnightblue" stroke="midnightblue" points="355.77,-40.79 366.28,-39.48 357.24,-33.95 355.77,-40.79"/>
</g>
<!-- Node6&#45;&gt;Node6 -->
<g id="edge11" class="edge">
<title>Node6&#45;&gt;Node6</title>
<path fill="none" stroke="midnightblue" d="M286.34,-40.96C282.33,-45.68 271.55,-49 254,-49 225.21,-49 214.63,-40.06 222.28,-30.66"/>
<polygon fill="midnightblue" stroke="midnightblue" points="289.81,-40.43 285.72,-30.66 282.83,-40.85 289.81,-40.43"/>
</g>
</g>
</svg>
