<?xml version="1.0" encoding="UTF-8" standalone="no"?>
<!DOCTYPE svg PUBLIC "-//W3C//DTD SVG 1.1//EN"
 "http://www.w3.org/Graphics/SVG/1.1/DTD/svg11.dtd">
<!-- Generated by graphviz version 2.49.3 (20211027.1534)
 -->
<!-- Title: center_window Pages: 1 -->
<svg width="729pt" height="163pt"
 viewBox="0.00 0.00 729.00 163.00" xmlns="http://www.w3.org/2000/svg" xmlns:xlink="http://www.w3.org/1999/xlink">
<g id="graph0" class="graph" transform="scale(1 1) rotate(0) translate(4 159)">
<title>center_window</title>
<polygon fill="white" stroke="transparent" points="-4,4 -4,-159 725,-159 725,4 -4,4"/>
<!-- Node1 -->
<g id="node1" class="node">
<title>Node1</title>
<g id="a_node1"><a xlink:title=" ">
<polygon fill="#bfbfbf" stroke="black" points="0,-50 0,-69 82,-69 82,-50 0,-50"/>
<text text-anchor="middle" x="41" y="-57" font-family="Helvetica,sans-Serif" font-size="10.00">center_window</text>
</a>
</g>
</g>
<!-- Node1&#45;&gt;Node1 -->
<g id="edge1" class="edge">
<title>Node1&#45;&gt;Node1</title>
<path fill="none" stroke="midnightblue" d="M20.35,-69.26C10.3,-78.07 17.18,-87.5 41,-87.5 56.26,-87.5 64.57,-83.63 65.93,-78.53"/>
<polygon fill="midnightblue" stroke="midnightblue" points="69.02,-76.87 61.65,-69.26 62.66,-79.8 69.02,-76.87"/>
</g>
<!-- Node2 -->
<g id="node2" class="node">
<title>Node2</title>
<g id="a_node2"><a xlink:href="classrare_1_1lgndr_1_1cli_1_1_legendary_c_l_i.html#a72a86e9e97d577472c8a8af9e4a67949" target="_top" xlink:title=" ">
<polygon fill="white" stroke="black" points="118,-44.5 118,-74.5 234,-74.5 234,-44.5 118,-44.5"/>
<text text-anchor="start" x="126" y="-62.5" font-family="Helvetica,sans-Serif" font-size="10.00">rare.lgndr.cli.Legendary</text>
<text text-anchor="middle" x="176" y="-51.5" font-family="Helvetica,sans-Serif" font-size="10.00">CLI.move</text>
</a>
</g>
</g>
<!-- Node1&#45;&gt;Node2 -->
<g id="edge2" class="edge">
<title>Node1&#45;&gt;Node2</title>
<path fill="none" stroke="midnightblue" d="M82.27,-59.5C90.29,-59.5 98.92,-59.5 107.57,-59.5"/>
<polygon fill="midnightblue" stroke="midnightblue" points="107.7,-63 117.7,-59.5 107.7,-56 107.7,-63"/>
</g>
<!-- Node2&#45;&gt;Node2 -->
<g id="edge16" class="edge">
<title>Node2&#45;&gt;Node2</title>
<path fill="none" stroke="midnightblue" d="M152.65,-74.66C147.02,-84.06 154.8,-93 176,-93 188.92,-93 196.86,-89.68 199.81,-84.96"/>
<polygon fill="midnightblue" stroke="midnightblue" points="203.29,-84.49 199.35,-74.66 196.3,-84.8 203.29,-84.49"/>
</g>
<!-- Node3 -->
<g id="node3" class="node">
<title>Node3</title>
<g id="a_node3"><a xlink:href="classrare_1_1shared_1_1rare__core_1_1_rare_core.html#a405e1a4f20f16120f872ccd2654a1d56" target="_top" xlink:title=" ">
<polygon fill="white" stroke="black" points="588.5,-106.5 588.5,-136.5 718.5,-136.5 718.5,-106.5 588.5,-106.5"/>
<text text-anchor="start" x="596.5" y="-124.5" font-family="Helvetica,sans-Serif" font-size="10.00">rare.shared.rare_core.Rare</text>
<text text-anchor="middle" x="653.5" y="-113.5" font-family="Helvetica,sans-Serif" font-size="10.00">Core.core</text>
</a>
</g>
</g>
<!-- Node2&#45;&gt;Node3 -->
<g id="edge3" class="edge">
<title>Node2&#45;&gt;Node3</title>
<path fill="none" stroke="midnightblue" d="M204.27,-74.61C222.4,-84.02 247,-95.6 270,-102.5 373.45,-133.56 499.64,-132.85 578.05,-128.18"/>
<polygon fill="midnightblue" stroke="midnightblue" points="578.55,-131.66 588.31,-127.53 578.11,-124.67 578.55,-131.66"/>
</g>
<!-- Node4 -->
<g id="node4" class="node">
<title>Node4</title>
<g id="a_node4"><a xlink:href="classrare_1_1lgndr_1_1cli_1_1_legendary_c_l_i.html#a4aaa726f3b4643dc9fc5f027294fc9c9" target="_top" xlink:title=" ">
<polygon fill="white" stroke="black" points="270,-44.5 270,-74.5 386,-74.5 386,-44.5 270,-44.5"/>
<text text-anchor="start" x="278" y="-62.5" font-family="Helvetica,sans-Serif" font-size="10.00">rare.lgndr.cli.Legendary</text>
<text text-anchor="middle" x="328" y="-51.5" font-family="Helvetica,sans-Serif" font-size="10.00">CLI.install_game</text>
</a>
</g>
</g>
<!-- Node2&#45;&gt;Node4 -->
<g id="edge5" class="edge">
<title>Node2&#45;&gt;Node4</title>
<path fill="none" stroke="midnightblue" d="M234.14,-59.5C242.38,-59.5 250.92,-59.5 259.34,-59.5"/>
<polygon fill="midnightblue" stroke="midnightblue" points="259.53,-63 269.53,-59.5 259.53,-56 259.53,-63"/>
</g>
<!-- Node6 -->
<g id="node6" class="node">
<title>Node6</title>
<g id="a_node6"><a xlink:href="classrare_1_1shared_1_1workers_1_1worker_1_1_worker.html#a5d3220537164bdcd6c040b54ef85f656" target="_top" xlink:title=" ">
<polygon fill="white" stroke="black" points="586,-0.5 586,-30.5 721,-30.5 721,-0.5 586,-0.5"/>
<text text-anchor="start" x="594" y="-18.5" font-family="Helvetica,sans-Serif" font-size="10.00">rare.shared.workers.worker.</text>
<text text-anchor="middle" x="653.5" y="-7.5" font-family="Helvetica,sans-Serif" font-size="10.00">Worker.logger</text>
</a>
</g>
</g>
<!-- Node2&#45;&gt;Node6 -->
<g id="edge15" class="edge">
<title>Node2&#45;&gt;Node6</title>
<path fill="none" stroke="midnightblue" d="M227.86,-44.4C241.46,-40.76 256.21,-37.16 270,-34.5 374.5,-14.38 497.86,-11.99 575.64,-13.03"/>
<polygon fill="midnightblue" stroke="midnightblue" points="575.78,-16.53 585.83,-13.19 575.89,-9.53 575.78,-16.53"/>
</g>
<!-- Node3&#45;&gt;Node3 -->
<g id="edge4" class="edge">
<title>Node3&#45;&gt;Node3</title>
<path fill="none" stroke="midnightblue" d="M624.57,-136.66C617.6,-146.06 627.24,-155 653.5,-155 669.5,-155 679.34,-151.68 683,-146.96"/>
<polygon fill="midnightblue" stroke="midnightblue" points="686.47,-146.45 682.43,-136.66 679.48,-146.84 686.47,-146.45"/>
</g>
<!-- Node4&#45;&gt;Node3 -->
<g id="edge6" class="edge">
<title>Node4&#45;&gt;Node3</title>
<path fill="none" stroke="midnightblue" d="M355.33,-74.71C373.46,-84.41 398.43,-96.29 422,-102.5 473.08,-115.96 532.53,-120.6 578.26,-121.94"/>
<polygon fill="midnightblue" stroke="midnightblue" points="578.3,-125.44 588.39,-122.19 578.48,-118.44 578.3,-125.44"/>
</g>
<!-- Node4&#45;&gt;Node4 -->
<g id="edge7" class="edge">
<title>Node4&#45;&gt;Node4</title>
<path fill="none" stroke="midnightblue" d="M301.51,-74.66C295.12,-84.06 303.95,-93 328,-93 342.65,-93 351.66,-89.68 355.01,-84.96"/>
<polygon fill="midnightblue" stroke="midnightblue" points="358.49,-84.47 354.49,-74.66 351.5,-84.82 358.49,-84.47"/>
</g>
<!-- Node5 -->
<g id="node5" class="node">
<title>Node5</title>
<g id="a_node5"><a xlink:href="classrare_1_1lgndr_1_1cli_1_1_legendary_c_l_i.html#a7de93b9e2b51b491d5c70be49680f66d" target="_top" xlink:title=" ">
<polygon fill="white" stroke="black" points="422,-44.5 422,-74.5 550,-74.5 550,-44.5 422,-44.5"/>
<text text-anchor="start" x="430" y="-62.5" font-family="Helvetica,sans-Serif" font-size="10.00">rare.lgndr.cli.Legendary</text>
<text text-anchor="middle" x="486" y="-51.5" font-family="Helvetica,sans-Serif" font-size="10.00">CLI.install_game_cleanup</text>
</a>
</g>
</g>
<!-- Node4&#45;&gt;Node5 -->
<g id="edge8" class="edge">
<title>Node4&#45;&gt;Node5</title>
<path fill="none" stroke="midnightblue" d="M386.2,-52.97C394.52,-52.79 403.17,-52.72 411.74,-52.76"/>
<polygon fill="midnightblue" stroke="midnightblue" points="411.72,-56.26 421.75,-52.86 411.79,-49.26 411.72,-56.26"/>
</g>
<!-- Node4&#45;&gt;Node6 -->
<g id="edge14" class="edge">
<title>Node4&#45;&gt;Node6</title>
<path fill="none" stroke="midnightblue" d="M378.34,-44.46C392.34,-40.68 407.67,-37 422,-34.5 472.84,-25.65 530.74,-20.89 575.78,-18.35"/>
<polygon fill="midnightblue" stroke="midnightblue" points="575.98,-21.85 585.77,-17.82 575.6,-14.86 575.98,-21.85"/>
</g>
<!-- Node5&#45;&gt;Node3 -->
<g id="edge9" class="edge">
<title>Node5&#45;&gt;Node3</title>
<path fill="none" stroke="midnightblue" d="M527.06,-74.51C549.87,-83.05 578.62,-93.82 602.85,-102.9"/>
<polygon fill="midnightblue" stroke="midnightblue" points="601.64,-106.18 612.23,-106.41 604.1,-99.63 601.64,-106.18"/>
</g>
<!-- Node5&#45;&gt;Node4 -->
<g id="edge10" class="edge">
<title>Node5&#45;&gt;Node4</title>
<path fill="none" stroke="midnightblue" d="M421.75,-66.14C413.39,-66.27 404.8,-66.28 396.37,-66.19"/>
<polygon fill="midnightblue" stroke="midnightblue" points="396.26,-62.69 386.2,-66.03 396.15,-69.69 396.26,-62.69"/>
</g>
<!-- Node5&#45;&gt;Node5 -->
<g id="edge11" class="edge">
<title>Node5&#45;&gt;Node5</title>
<path fill="none" stroke="midnightblue" d="M458.47,-74.66C451.83,-84.06 461,-93 486,-93 501.23,-93 510.59,-89.68 514.07,-84.96"/>
<polygon fill="midnightblue" stroke="midnightblue" points="517.55,-84.46 513.53,-74.66 510.56,-84.83 517.55,-84.46"/>
</g>
<!-- Node5&#45;&gt;Node6 -->
<g id="edge12" class="edge">
<title>Node5&#45;&gt;Node6</title>
<path fill="none" stroke="midnightblue" d="M543.49,-44.48C557.26,-40.82 572.12,-36.87 586.3,-33.1"/>
<polygon fill="midnightblue" stroke="midnightblue" points="587.22,-36.48 595.98,-30.53 585.42,-29.71 587.22,-36.48"/>
</g>
<!-- Node6&#45;&gt;Node6 -->
<g id="edge13" class="edge">
<title>Node6&#45;&gt;Node6</title>
<path fill="none" stroke="midnightblue" d="M624.57,-30.66C617.6,-40.06 627.24,-49 653.5,-49 669.5,-49 679.34,-45.68 683,-40.96"/>
<polygon fill="midnightblue" stroke="midnightblue" points="686.47,-40.45 682.43,-30.66 679.48,-40.84 686.47,-40.45"/>
</g>
</g>
</svg>
