<?xml version="1.0" encoding="UTF-8" standalone="no"?>
<!DOCTYPE svg PUBLIC "-//W3C//DTD SVG 1.1//EN"
 "http://www.w3.org/Graphics/SVG/1.1/DTD/svg11.dtd">
<!-- Generated by graphviz version 2.49.3 (20211027.1534)
 -->
<!-- Title: update_saves Pages: 1 -->
<svg width="883pt" height="384pt"
 viewBox="0.00 0.00 883.00 384.00" xmlns="http://www.w3.org/2000/svg" xmlns:xlink="http://www.w3.org/1999/xlink">
<g id="graph0" class="graph" transform="scale(1 1) rotate(0) translate(4 380)">
<title>update_saves</title>
<polygon fill="white" stroke="transparent" points="-4,4 -4,-380 879,-380 879,4 -4,4"/>
<!-- Node1 -->
<g id="node1" class="node">
<title>Node1</title>
<g id="a_node1"><a xlink:title="Use only in a thread.">
<polygon fill="#bfbfbf" stroke="black" points="0,-289 0,-308 77,-308 77,-289 0,-289"/>
<text text-anchor="middle" x="38.5" y="-296" font-family="Helvetica,sans-Serif" font-size="10.00">update_saves</text>
</a>
</g>
</g>
<!-- Node1&#45;&gt;Node1 -->
<g id="edge21" class="edge">
<title>Node1&#45;&gt;Node1</title>
<path fill="none" stroke="midnightblue" d="M11.37,-308.26C-1.82,-317.07 7.22,-326.5 38.5,-326.5 60.01,-326.5 71,-322.04 71.48,-316.39"/>
<polygon fill="midnightblue" stroke="midnightblue" points="74.31,-314.33 65.63,-308.26 68.63,-318.42 74.31,-314.33"/>
</g>
<!-- Node2 -->
<g id="node2" class="node">
<title>Node2</title>
<g id="a_node2"><a xlink:href="classrare_1_1components_1_1tabs_1_1library_1_1integrations_1_1egl__sync__group_1_1_e_g_l_sync_list_item.html#a9c470cc60eae203f55455d0e0d7f5712" target="_top" xlink:title=" ">
<polygon fill="white" stroke="black" points="113,-327.5 113,-357.5 318,-357.5 318,-327.5 113,-327.5"/>
<text text-anchor="start" x="121" y="-345.5" font-family="Helvetica,sans-Serif" font-size="10.00">rare.components.tabs.library.integrations.egl</text>
<text text-anchor="middle" x="215.5" y="-334.5" font-family="Helvetica,sans-Serif" font-size="10.00">_sync_group.EGLSyncListItem.app_name</text>
</a>
</g>
</g>
<!-- Node1&#45;&gt;Node2 -->
<g id="edge1" class="edge">
<title>Node1&#45;&gt;Node2</title>
<path fill="none" stroke="midnightblue" d="M77.04,-307.94C96.81,-312.91 121.7,-319.17 144.85,-324.99"/>
<polygon fill="midnightblue" stroke="midnightblue" points="144.1,-328.41 154.65,-327.45 145.8,-321.62 144.1,-328.41"/>
</g>
<!-- Node3 -->
<g id="node3" class="node">
<title>Node3</title>
<g id="a_node3"><a xlink:href="classrare_1_1shared_1_1rare__core_1_1_rare_core.html#a405e1a4f20f16120f872ccd2654a1d56" target="_top" xlink:title=" ">
<polygon fill="white" stroke="black" points="383.5,-314.5 383.5,-344.5 513.5,-344.5 513.5,-314.5 383.5,-314.5"/>
<text text-anchor="start" x="391.5" y="-332.5" font-family="Helvetica,sans-Serif" font-size="10.00">rare.shared.rare_core.Rare</text>
<text text-anchor="middle" x="448.5" y="-321.5" font-family="Helvetica,sans-Serif" font-size="10.00">Core.core</text>
</a>
</g>
</g>
<!-- Node1&#45;&gt;Node3 -->
<g id="edge3" class="edge">
<title>Node1&#45;&gt;Node3</title>
<path fill="none" stroke="midnightblue" d="M77.35,-301.06C130.94,-304.72 231.98,-311.76 318,-318.5 335.85,-319.9 355.08,-321.49 373.12,-323.01"/>
<polygon fill="midnightblue" stroke="midnightblue" points="373.03,-326.52 383.29,-323.88 373.62,-319.54 373.03,-326.52"/>
</g>
<!-- Node4 -->
<g id="node4" class="node">
<title>Node4</title>
<g id="a_node4"><a xlink:href="classrare_1_1models_1_1base__game_1_1_rare_game_slim.html#a09658b980eca0a97191099319bf89b84" target="_top" xlink:title="Use only in a thread.">
<polygon fill="white" stroke="black" points="182.5,-202 182.5,-221 248.5,-221 248.5,-202 182.5,-202"/>
<text text-anchor="middle" x="215.5" y="-209" font-family="Helvetica,sans-Serif" font-size="10.00">load_saves</text>
</a>
</g>
</g>
<!-- Node1&#45;&gt;Node4 -->
<g id="edge5" class="edge">
<title>Node1&#45;&gt;Node4</title>
<path fill="none" stroke="midnightblue" d="M58.9,-288.86C89.73,-273.53 150.07,-243.53 185.88,-225.73"/>
<polygon fill="midnightblue" stroke="midnightblue" points="187.89,-228.64 195.28,-221.05 184.77,-222.37 187.89,-228.64"/>
</g>
<!-- Node2&#45;&gt;Node2 -->
<g id="edge2" class="edge">
<title>Node2&#45;&gt;Node2</title>
<path fill="none" stroke="midnightblue" d="M184.83,-357.66C177.43,-367.06 187.66,-376 215.5,-376 232.47,-376 242.89,-372.68 246.77,-367.96"/>
<polygon fill="midnightblue" stroke="midnightblue" points="250.25,-367.44 246.17,-357.66 243.26,-367.85 250.25,-367.44"/>
</g>
<!-- Node3&#45;&gt;Node3 -->
<g id="edge4" class="edge">
<title>Node3&#45;&gt;Node3</title>
<path fill="none" stroke="midnightblue" d="M414.69,-344.66C406.54,-354.06 417.81,-363 448.5,-363 467.2,-363 478.69,-359.68 482.97,-354.96"/>
<polygon fill="midnightblue" stroke="midnightblue" points="486.44,-354.41 482.31,-344.66 479.46,-354.86 486.44,-354.41"/>
</g>
<!-- Node4&#45;&gt;Node3 -->
<g id="edge6" class="edge">
<title>Node4&#45;&gt;Node3</title>
<path fill="none" stroke="midnightblue" d="M229.6,-221.19C258.61,-242.5 327.78,-292.54 354,-304.5 360.16,-307.31 366.7,-309.86 373.35,-312.15"/>
<polygon fill="midnightblue" stroke="midnightblue" points="372.54,-315.57 383.13,-315.33 374.7,-308.91 372.54,-315.57"/>
</g>
<!-- Node4&#45;&gt;Node4 -->
<g id="edge7" class="edge">
<title>Node4&#45;&gt;Node4</title>
<path fill="none" stroke="midnightblue" d="M188.37,-221.26C175.18,-230.07 184.22,-239.5 215.5,-239.5 237.01,-239.5 248,-235.04 248.48,-229.39"/>
<polygon fill="midnightblue" stroke="midnightblue" points="251.31,-227.33 242.63,-221.26 245.63,-231.42 251.31,-227.33"/>
</g>
<!-- Node5 -->
<g id="node5" class="node">
<title>Node5</title>
<g id="a_node5"><a xlink:href="classrare_1_1models_1_1base__game_1_1_rare_game_slim.html#ae67c92b74c05707f28c4430681aaa860" target="_top" xlink:title=" ">
<polygon fill="white" stroke="black" points="417.5,-258 417.5,-277 479.5,-277 479.5,-258 417.5,-258"/>
<text text-anchor="middle" x="448.5" y="-265" font-family="Helvetica,sans-Serif" font-size="10.00">save_path</text>
</a>
</g>
</g>
<!-- Node4&#45;&gt;Node5 -->
<g id="edge8" class="edge">
<title>Node4&#45;&gt;Node5</title>
<path fill="none" stroke="midnightblue" d="M248.58,-220.74C276.36,-228.6 317.67,-239.93 354,-248.5 371.49,-252.63 390.95,-256.67 407.56,-259.95"/>
<polygon fill="midnightblue" stroke="midnightblue" points="407.01,-263.41 417.5,-261.9 408.36,-256.54 407.01,-263.41"/>
</g>
<!-- Node6 -->
<g id="node6" class="node">
<title>Node6</title>
<g id="a_node6"><a xlink:href="classrare_1_1models_1_1game_1_1_rare_game.html#ae67c92b74c05707f28c4430681aaa860" target="_top" xlink:title=" ">
<polygon fill="white" stroke="black" points="354,-202 354,-221 543,-221 543,-202 354,-202"/>
<text text-anchor="middle" x="448.5" y="-209" font-family="Helvetica,sans-Serif" font-size="10.00">rare.models.game.RareGame.save_path</text>
</a>
</g>
</g>
<!-- Node4&#45;&gt;Node6 -->
<g id="edge10" class="edge">
<title>Node4&#45;&gt;Node6</title>
<path fill="none" stroke="midnightblue" d="M248.62,-211.5C273.44,-211.5 309.27,-211.5 343.69,-211.5"/>
<polygon fill="midnightblue" stroke="midnightblue" points="343.83,-215 353.83,-211.5 343.83,-208 343.83,-215"/>
</g>
<!-- Node7 -->
<g id="node7" class="node">
<title>Node7</title>
<g id="a_node7"><a xlink:href="classrare_1_1shared_1_1rare__core_1_1_rare_core.html#a4c5d7b0b818760d1a69d2dca743a2f4b" target="_top" xlink:title="SaveGameFiles across games.">
<polygon fill="white" stroke="black" points="383.5,-134.5 383.5,-164.5 513.5,-164.5 513.5,-134.5 383.5,-134.5"/>
<text text-anchor="start" x="391.5" y="-152.5" font-family="Helvetica,sans-Serif" font-size="10.00">rare.shared.rare_core.Rare</text>
<text text-anchor="middle" x="448.5" y="-141.5" font-family="Helvetica,sans-Serif" font-size="10.00">Core.saves</text>
</a>
</g>
</g>
<!-- Node4&#45;&gt;Node7 -->
<g id="edge12" class="edge">
<title>Node4&#45;&gt;Node7</title>
<path fill="none" stroke="midnightblue" d="M248.62,-202.88C282.85,-193.69 338,-178.89 381.55,-167.2"/>
<polygon fill="midnightblue" stroke="midnightblue" points="382.47,-170.58 391.22,-164.6 380.66,-163.82 382.47,-170.58"/>
</g>
<!-- Node10 -->
<g id="node10" class="node">
<title>Node10</title>
<g id="a_node10"><a xlink:href="classrare_1_1shared_1_1rare__core_1_1_rare_core.html#a135560fc58fcc2e5cff07ec25c23a06c" target="_top" xlink:title=" ">
<polygon fill="white" stroke="black" points="383.5,-67.5 383.5,-97.5 513.5,-97.5 513.5,-67.5 383.5,-67.5"/>
<text text-anchor="start" x="391.5" y="-85.5" font-family="Helvetica,sans-Serif" font-size="10.00">rare.shared.rare_core.Rare</text>
<text text-anchor="middle" x="448.5" y="-74.5" font-family="Helvetica,sans-Serif" font-size="10.00">Core.signals</text>
</a>
</g>
</g>
<!-- Node4&#45;&gt;Node10 -->
<g id="edge17" class="edge">
<title>Node4&#45;&gt;Node10</title>
<path fill="none" stroke="midnightblue" d="M230.59,-201.84C255.1,-185.24 307.42,-150.64 354,-125.5 369.49,-117.14 386.91,-108.84 402.48,-101.8"/>
<polygon fill="midnightblue" stroke="midnightblue" points="404.2,-104.86 411.9,-97.59 401.34,-98.47 404.2,-104.86"/>
</g>
<!-- Node11 -->
<g id="node11" class="node">
<title>Node11</title>
<g id="a_node11"><a xlink:href="classrare_1_1shared_1_1workers_1_1worker_1_1_worker.html#a9998d928f5b6f30ebb69dc655c0756a8" target="_top" xlink:title=" ">
<polygon fill="white" stroke="black" points="381,-0.5 381,-30.5 516,-30.5 516,-0.5 381,-0.5"/>
<text text-anchor="start" x="389" y="-18.5" font-family="Helvetica,sans-Serif" font-size="10.00">rare.shared.workers.worker.</text>
<text text-anchor="middle" x="448.5" y="-7.5" font-family="Helvetica,sans-Serif" font-size="10.00">Worker.signals</text>
</a>
</g>
</g>
<!-- Node4&#45;&gt;Node11 -->
<g id="edge19" class="edge">
<title>Node4&#45;&gt;Node11</title>
<path fill="none" stroke="midnightblue" d="M223.14,-201.65C241.31,-175.32 294.48,-102.34 354,-58.5 366.74,-49.11 381.87,-41.07 396.19,-34.57"/>
<polygon fill="midnightblue" stroke="midnightblue" points="397.7,-37.73 405.46,-30.52 394.9,-31.32 397.7,-37.73"/>
</g>
<!-- Node5&#45;&gt;Node5 -->
<g id="edge9" class="edge">
<title>Node5&#45;&gt;Node5</title>
<path fill="none" stroke="midnightblue" d="M418.6,-277.26C404.05,-286.07 414.02,-295.5 448.5,-295.5 472.74,-295.5 484.87,-290.84 484.87,-285"/>
<polygon fill="midnightblue" stroke="midnightblue" points="487.5,-282.69 478.4,-277.26 482.13,-287.17 487.5,-282.69"/>
</g>
<!-- Node6&#45;&gt;Node6 -->
<g id="edge11" class="edge">
<title>Node6&#45;&gt;Node6</title>
<path fill="none" stroke="midnightblue" d="M418.6,-221.26C404.05,-230.07 414.02,-239.5 448.5,-239.5 472.74,-239.5 484.87,-234.84 484.87,-229"/>
<polygon fill="midnightblue" stroke="midnightblue" points="487.5,-226.69 478.4,-221.26 482.13,-231.17 487.5,-226.69"/>
</g>
<!-- Node7&#45;&gt;Node7 -->
<g id="edge16" class="edge">
<title>Node7&#45;&gt;Node7</title>
<path fill="none" stroke="midnightblue" d="M414.69,-164.66C406.54,-174.06 417.81,-183 448.5,-183 467.2,-183 478.69,-179.68 482.97,-174.96"/>
<polygon fill="midnightblue" stroke="midnightblue" points="486.44,-174.41 482.31,-164.66 479.46,-174.86 486.44,-174.41"/>
</g>
<!-- Node8 -->
<g id="node8" class="node">
<title>Node8</title>
<g id="a_node8"><a xlink:href="classrare_1_1shared_1_1rare__core_1_1_rare_core.html#a68395f7577f6b1a63a7a62dbf1a4c6d0" target="_top" xlink:title="RareGames that have SaveGameFiles associated with them.">
<polygon fill="white" stroke="black" points="579,-134.5 579,-164.5 709,-164.5 709,-134.5 579,-134.5"/>
<text text-anchor="start" x="587" y="-152.5" font-family="Helvetica,sans-Serif" font-size="10.00">rare.shared.rare_core.Rare</text>
<text text-anchor="middle" x="644" y="-141.5" font-family="Helvetica,sans-Serif" font-size="10.00">Core.has_saves</text>
</a>
</g>
</g>
<!-- Node7&#45;&gt;Node8 -->
<g id="edge13" class="edge">
<title>Node7&#45;&gt;Node8</title>
<path fill="none" stroke="midnightblue" d="M513.66,-149.5C531.22,-149.5 550.39,-149.5 568.47,-149.5"/>
<polygon fill="midnightblue" stroke="midnightblue" points="568.68,-153 578.68,-149.5 568.68,-146 568.68,-153"/>
</g>
<!-- Node8&#45;&gt;Node8 -->
<g id="edge15" class="edge">
<title>Node8&#45;&gt;Node8</title>
<path fill="none" stroke="midnightblue" d="M615.07,-164.66C608.1,-174.06 617.74,-183 644,-183 660,-183 669.84,-179.68 673.5,-174.96"/>
<polygon fill="midnightblue" stroke="midnightblue" points="676.97,-174.45 672.93,-164.66 669.98,-174.84 676.97,-174.45"/>
</g>
<!-- Node9 -->
<g id="node9" class="node">
<title>Node9</title>
<g id="a_node9"><a xlink:href="classrare_1_1shared_1_1rare__core_1_1_rare_core.html#a311e604b365ca958c3ae7b143b6190ce" target="_top" xlink:title=" ">
<polygon fill="white" stroke="black" points="745,-134.5 745,-164.5 875,-164.5 875,-134.5 745,-134.5"/>
<text text-anchor="start" x="753" y="-152.5" font-family="Helvetica,sans-Serif" font-size="10.00">rare.shared.rare_core.Rare</text>
<text text-anchor="middle" x="810" y="-141.5" font-family="Helvetica,sans-Serif" font-size="10.00">Core.__filter_games</text>
</a>
</g>
</g>
<!-- Node8&#45;&gt;Node9 -->
<g id="edge14" class="edge">
<title>Node8&#45;&gt;Node9</title>
<path fill="none" stroke="midnightblue" d="M709.35,-149.5C717.64,-149.5 726.19,-149.5 734.62,-149.5"/>
<polygon fill="midnightblue" stroke="midnightblue" points="734.84,-153 744.84,-149.5 734.84,-146 734.84,-153"/>
</g>
<!-- Node10&#45;&gt;Node10 -->
<g id="edge18" class="edge">
<title>Node10&#45;&gt;Node10</title>
<path fill="none" stroke="midnightblue" d="M414.69,-97.66C406.54,-107.06 417.81,-116 448.5,-116 467.2,-116 478.69,-112.68 482.97,-107.96"/>
<polygon fill="midnightblue" stroke="midnightblue" points="486.44,-107.41 482.31,-97.66 479.46,-107.86 486.44,-107.41"/>
</g>
<!-- Node11&#45;&gt;Node11 -->
<g id="edge20" class="edge">
<title>Node11&#45;&gt;Node11</title>
<path fill="none" stroke="midnightblue" d="M414.69,-30.66C406.54,-40.06 417.81,-49 448.5,-49 467.2,-49 478.69,-45.68 482.97,-40.96"/>
<polygon fill="midnightblue" stroke="midnightblue" points="486.44,-40.41 482.31,-30.66 479.46,-40.86 486.44,-40.41"/>
</g>
</g>
</svg>
