<?xml version="1.0" encoding="UTF-8" standalone="no"?>
<!DOCTYPE svg PUBLIC "-//W3C//DTD SVG 1.1//EN"
 "http://www.w3.org/Graphics/SVG/1.1/DTD/svg11.dtd">
<!-- Generated by graphviz version 2.49.3 (20211027.1534)
 -->
<!-- Title: __dict__ Pages: 1 -->
<svg width="1327pt" height="679pt"
 viewBox="0.00 0.00 1327.32 679.00" xmlns="http://www.w3.org/2000/svg" xmlns:xlink="http://www.w3.org/1999/xlink">
<g id="graph0" class="graph" transform="scale(1 1) rotate(0) translate(4 675)">
<title>__dict__</title>
<polygon fill="white" stroke="transparent" points="-4,4 -4,-675 1323.32,-675 1323.32,4 -4,4"/>
<!-- Node1 -->
<g id="node1" class="node">
<title>Node1</title>
<g id="a_node1"><a xlink:title=" ">
<polygon fill="#bfbfbf" stroke="black" points="2.32,-135 2.32,-154 55.32,-154 55.32,-135 2.32,-135"/>
<text text-anchor="middle" x="28.82" y="-142" font-family="Helvetica,sans-Serif" font-size="10.00">__dict__</text>
</a>
</g>
</g>
<!-- Node1&#45;&gt;Node1 -->
<g id="edge1" class="edge">
<title>Node1&#45;&gt;Node1</title>
<path fill="none" stroke="midnightblue" d="M5.4,-154.26C-6,-163.07 1.81,-172.5 28.82,-172.5 46.55,-172.5 56.01,-168.44 57.2,-163.15"/>
<polygon fill="midnightblue" stroke="midnightblue" points="60.17,-161.3 52.25,-154.26 54.05,-164.7 60.17,-161.3"/>
</g>
<!-- Node2 -->
<g id="node2" class="node">
<title>Node2</title>
<g id="a_node2"><a xlink:href="classrare_1_1models_1_1game_1_1_rare_game.html#a0b285e773ba8d16936f94ead9fadd893" target="_top" xlink:title=" ">
<polygon fill="white" stroke="black" points="316.82,-566 316.82,-585 506.82,-585 506.82,-566 316.82,-566"/>
<text text-anchor="middle" x="411.82" y="-573" font-family="Helvetica,sans-Serif" font-size="10.00">rare.models.game.RareGame.grant_date</text>
</a>
</g>
</g>
<!-- Node1&#45;&gt;Node2 -->
<g id="edge2" class="edge">
<title>Node1&#45;&gt;Node2</title>
<path fill="none" stroke="midnightblue" d="M29.88,-154.11C30.55,-189.52 36.82,-314.84 91.32,-396.5 158.04,-496.47 199.06,-508.69 309.32,-556.5 315.21,-559.05 321.43,-561.26 327.77,-563.17"/>
<polygon fill="midnightblue" stroke="midnightblue" points="327.26,-566.66 337.83,-565.94 329.11,-559.91 327.26,-566.66"/>
</g>
<!-- Node6 -->
<g id="node6" class="node">
<title>Node6</title>
<g id="a_node6"><a xlink:href="classrare_1_1components_1_1tray__icon_1_1_tray_icon.html#aca28781d9d67dfe93a3b27773d262c7a" target="_top" xlink:title=" ">
<polygon fill="white" stroke="black" points="116.82,-67.5 116.82,-97.5 247.82,-97.5 247.82,-67.5 116.82,-67.5"/>
<text text-anchor="start" x="124.82" y="-85.5" font-family="Helvetica,sans-Serif" font-size="10.00">rare.components.tray</text>
<text text-anchor="middle" x="182.32" y="-74.5" font-family="Helvetica,sans-Serif" font-size="10.00">_icon.TrayIcon.last_played</text>
</a>
</g>
</g>
<!-- Node1&#45;&gt;Node6 -->
<g id="edge9" class="edge">
<title>Node1&#45;&gt;Node6</title>
<path fill="none" stroke="midnightblue" d="M53.16,-134.95C74.92,-126.05 107.98,-112.51 135.08,-101.42"/>
<polygon fill="midnightblue" stroke="midnightblue" points="136.46,-104.64 144.39,-97.62 133.81,-98.16 136.46,-104.64"/>
</g>
<!-- Node7 -->
<g id="node7" class="node">
<title>Node7</title>
<g id="a_node7"><a xlink:href="classrare_1_1models_1_1steam_1_1_steam_shortcut.html#a99ce5001b7926b5fa213641182e4c5b0" target="_top" xlink:title=" ">
<polygon fill="white" stroke="black" points="91.32,-0.5 91.32,-30.5 273.32,-30.5 273.32,-0.5 91.32,-0.5"/>
<text text-anchor="start" x="99.32" y="-18.5" font-family="Helvetica,sans-Serif" font-size="10.00">rare.models.steam.SteamShortcut.last</text>
<text text-anchor="middle" x="182.32" y="-7.5" font-family="Helvetica,sans-Serif" font-size="10.00">_played</text>
</a>
</g>
</g>
<!-- Node1&#45;&gt;Node7 -->
<g id="edge11" class="edge">
<title>Node1&#45;&gt;Node7</title>
<path fill="none" stroke="midnightblue" d="M34.46,-134.9C43.32,-117.43 64.21,-80.15 91.32,-57.5 102.18,-48.43 115.33,-40.85 128.18,-34.75"/>
<polygon fill="midnightblue" stroke="midnightblue" points="129.78,-37.87 137.45,-30.57 126.9,-31.49 129.78,-37.87"/>
</g>
<!-- Node8 -->
<g id="node8" class="node">
<title>Node8</title>
<g id="a_node8"><a xlink:href="classrare_1_1models_1_1game_1_1_rare_game.html#acf7a30791ab5f7954378b060bd4a42be" target="_top" xlink:title=" ">
<polygon fill="white" stroke="black" points="550.32,-75.5 550.32,-105.5 721.32,-105.5 721.32,-75.5 550.32,-75.5"/>
<text text-anchor="start" x="558.32" y="-93.5" font-family="Helvetica,sans-Serif" font-size="10.00">rare.models.game.RareGame.steam</text>
<text text-anchor="middle" x="635.82" y="-82.5" font-family="Helvetica,sans-Serif" font-size="10.00">_appid</text>
</a>
</g>
</g>
<!-- Node1&#45;&gt;Node8 -->
<g id="edge13" class="edge">
<title>Node1&#45;&gt;Node8</title>
<path fill="none" stroke="midnightblue" d="M55.42,-142.5C99.8,-139 193.89,-131.5 273.32,-124.5 363.88,-116.52 467.13,-106.74 540.04,-99.72"/>
<polygon fill="midnightblue" stroke="midnightblue" points="540.5,-103.2 550.12,-98.75 539.83,-96.23 540.5,-103.2"/>
</g>
<!-- Node9 -->
<g id="node9" class="node">
<title>Node9</title>
<g id="a_node9"><a xlink:href="classrare_1_1models_1_1game_1_1_rare_game.html#a44ad13c0a844d30263bbf7ca3ce625ea" target="_top" xlink:title=" ">
<polygon fill="white" stroke="black" points="96.82,-338.5 96.82,-368.5 267.82,-368.5 267.82,-338.5 96.82,-338.5"/>
<text text-anchor="start" x="104.82" y="-356.5" font-family="Helvetica,sans-Serif" font-size="10.00">rare.models.game.RareGame.steam</text>
<text text-anchor="middle" x="182.32" y="-345.5" font-family="Helvetica,sans-Serif" font-size="10.00">_grade</text>
</a>
</g>
</g>
<!-- Node1&#45;&gt;Node9 -->
<g id="edge15" class="edge">
<title>Node1&#45;&gt;Node9</title>
<path fill="none" stroke="midnightblue" d="M36.73,-154.02C59.29,-185.16 131.34,-284.54 164.42,-330.18"/>
<polygon fill="midnightblue" stroke="midnightblue" points="161.6,-332.26 170.31,-338.3 167.27,-328.15 161.6,-332.26"/>
</g>
<!-- Node2&#45;&gt;Node2 -->
<g id="edge8" class="edge">
<title>Node2&#45;&gt;Node2</title>
<path fill="none" stroke="midnightblue" d="M377.58,-585.11C360.38,-593.96 371.79,-603.5 411.82,-603.5 441.85,-603.5 455.77,-598.13 453.6,-591.72"/>
<polygon fill="midnightblue" stroke="midnightblue" points="455.89,-589.07 446.07,-585.11 451.28,-594.34 455.89,-589.07"/>
</g>
<!-- Node3 -->
<g id="node3" class="node">
<title>Node3</title>
<g id="a_node3"><a xlink:href="classrare_1_1models_1_1game_1_1_rare_game.html#a97c61b9578819ef09ba2b90def669ba6" target="_top" xlink:title=" ">
<polygon fill="white" stroke="black" points="563.82,-449.5 563.82,-479.5 707.82,-479.5 707.82,-449.5 563.82,-449.5"/>
<text text-anchor="start" x="571.82" y="-467.5" font-family="Helvetica,sans-Serif" font-size="10.00">rare.models.game.RareGame.</text>
<text text-anchor="middle" x="635.82" y="-456.5" font-family="Helvetica,sans-Serif" font-size="10.00">__save_metadata</text>
</a>
</g>
</g>
<!-- Node2&#45;&gt;Node3 -->
<g id="edge3" class="edge">
<title>Node2&#45;&gt;Node3</title>
<path fill="none" stroke="midnightblue" d="M497.32,-565.96C503.36,-563.42 509.11,-560.31 514.32,-556.5 541.61,-536.55 524.1,-510.83 550.32,-489.5 552.4,-487.81 554.59,-486.24 556.86,-484.77"/>
<polygon fill="midnightblue" stroke="midnightblue" points="559.01,-487.57 566.01,-479.61 555.58,-481.47 559.01,-487.57"/>
</g>
<!-- Node4 -->
<g id="node4" class="node">
<title>Node4</title>
<g id="a_node4"><a xlink:href="classrare_1_1components_1_1tabs_1_1library_1_1integrations_1_1egl__sync__group_1_1_e_g_l_sync_list_item.html#a9c470cc60eae203f55455d0e0d7f5712" target="_top" xlink:title=" ">
<polygon fill="white" stroke="black" points="757.32,-382.5 757.32,-412.5 962.32,-412.5 962.32,-382.5 757.32,-382.5"/>
<text text-anchor="start" x="765.32" y="-400.5" font-family="Helvetica,sans-Serif" font-size="10.00">rare.components.tabs.library.integrations.egl</text>
<text text-anchor="middle" x="859.82" y="-389.5" font-family="Helvetica,sans-Serif" font-size="10.00">_sync_group.EGLSyncListItem.app_name</text>
</a>
</g>
</g>
<!-- Node2&#45;&gt;Node4 -->
<g id="edge4" class="edge">
<title>Node2&#45;&gt;Node4</title>
<path fill="none" stroke="midnightblue" d="M473.16,-585.03C538.03,-592.36 642.45,-595.54 721.32,-556.5 781.22,-526.85 825.79,-458.25 846.3,-421.6"/>
<polygon fill="midnightblue" stroke="midnightblue" points="849.5,-423.05 851.22,-412.6 843.36,-419.7 849.5,-423.05"/>
</g>
<!-- Node5 -->
<g id="node5" class="node">
<title>Node5</title>
<g id="a_node5"><a xlink:href="classrare_1_1shared_1_1rare__core_1_1_rare_core.html#a405e1a4f20f16120f872ccd2654a1d56" target="_top" xlink:title=" ">
<polygon fill="white" stroke="black" points="570.82,-498.5 570.82,-528.5 700.82,-528.5 700.82,-498.5 570.82,-498.5"/>
<text text-anchor="start" x="578.82" y="-516.5" font-family="Helvetica,sans-Serif" font-size="10.00">rare.shared.rare_core.Rare</text>
<text text-anchor="middle" x="635.82" y="-505.5" font-family="Helvetica,sans-Serif" font-size="10.00">Core.core</text>
</a>
</g>
</g>
<!-- Node2&#45;&gt;Node5 -->
<g id="edge6" class="edge">
<title>Node2&#45;&gt;Node5</title>
<path fill="none" stroke="midnightblue" d="M472.49,-565.96C486.32,-563.3 500.91,-560.12 514.32,-556.5 539.07,-549.81 566,-540.41 588.11,-532.11"/>
<polygon fill="midnightblue" stroke="midnightblue" points="589.48,-535.33 597.59,-528.51 586.99,-528.79 589.48,-535.33"/>
</g>
<!-- Node4&#45;&gt;Node4 -->
<g id="edge5" class="edge">
<title>Node4&#45;&gt;Node4</title>
<path fill="none" stroke="midnightblue" d="M821.83,-412.66C812.67,-422.06 825.33,-431 859.82,-431 880.84,-431 893.75,-427.68 898.56,-422.96"/>
<polygon fill="midnightblue" stroke="midnightblue" points="902.03,-422.38 897.81,-412.66 895.04,-422.89 902.03,-422.38"/>
</g>
<!-- Node5&#45;&gt;Node5 -->
<g id="edge7" class="edge">
<title>Node5&#45;&gt;Node5</title>
<path fill="none" stroke="midnightblue" d="M596.79,-528.66C587.37,-538.06 600.39,-547 635.82,-547 657.42,-547 670.68,-543.68 675.62,-538.96"/>
<polygon fill="midnightblue" stroke="midnightblue" points="679.09,-538.37 674.86,-528.66 672.11,-538.89 679.09,-538.37"/>
</g>
<!-- Node6&#45;&gt;Node6 -->
<g id="edge10" class="edge">
<title>Node6&#45;&gt;Node6</title>
<path fill="none" stroke="midnightblue" d="M155.83,-97.66C149.45,-107.06 158.28,-116 182.32,-116 196.98,-116 205.98,-112.68 209.33,-107.96"/>
<polygon fill="midnightblue" stroke="midnightblue" points="212.81,-107.47 208.81,-97.66 205.82,-107.82 212.81,-107.47"/>
</g>
<!-- Node7&#45;&gt;Node7 -->
<g id="edge12" class="edge">
<title>Node7&#45;&gt;Node7</title>
<path fill="none" stroke="midnightblue" d="M155.83,-30.66C149.45,-40.06 158.28,-49 182.32,-49 196.98,-49 205.98,-45.68 209.33,-40.96"/>
<polygon fill="midnightblue" stroke="midnightblue" points="212.81,-40.47 208.81,-30.66 205.82,-40.82 212.81,-40.47"/>
</g>
<!-- Node8&#45;&gt;Node8 -->
<g id="edge14" class="edge">
<title>Node8&#45;&gt;Node8</title>
<path fill="none" stroke="midnightblue" d="M596.79,-105.66C587.37,-115.06 600.39,-124 635.82,-124 657.42,-124 670.68,-120.68 675.62,-115.96"/>
<polygon fill="midnightblue" stroke="midnightblue" points="679.09,-115.37 674.86,-105.66 672.11,-115.89 679.09,-115.37"/>
</g>
<!-- Node9&#45;&gt;Node9 -->
<g id="edge54" class="edge">
<title>Node9&#45;&gt;Node9</title>
<path fill="none" stroke="midnightblue" d="M155.83,-368.66C149.45,-378.06 158.28,-387 182.32,-387 196.98,-387 205.98,-383.68 209.33,-378.96"/>
<polygon fill="midnightblue" stroke="midnightblue" points="212.81,-378.47 208.81,-368.66 205.82,-378.82 212.81,-378.47"/>
</g>
<!-- Node10 -->
<g id="node10" class="node">
<title>Node10</title>
<g id="a_node10"><a xlink:href="classrare_1_1components_1_1tabs_1_1library_1_1integrations_1_1egl__sync__group_1_1_e_g_l_sync_list_item.html#ae1cd35b1295fa44fd6906c1bcf28fd20" target="_top" xlink:title=" ">
<polygon fill="white" stroke="black" points="309.32,-173.5 309.32,-203.5 514.32,-203.5 514.32,-173.5 309.32,-173.5"/>
<text text-anchor="start" x="317.32" y="-191.5" font-family="Helvetica,sans-Serif" font-size="10.00">rare.components.tabs.library.integrations.egl</text>
<text text-anchor="middle" x="411.82" y="-180.5" font-family="Helvetica,sans-Serif" font-size="10.00">_sync_group.EGLSyncListItem.app_title</text>
</a>
</g>
</g>
<!-- Node9&#45;&gt;Node10 -->
<g id="edge16" class="edge">
<title>Node9&#45;&gt;Node10</title>
<path fill="none" stroke="midnightblue" d="M195.84,-338.14C216.99,-313.01 262.11,-262.77 309.32,-231.5 323.59,-222.05 340.28,-213.95 355.96,-207.42"/>
<polygon fill="midnightblue" stroke="midnightblue" points="357.58,-210.54 365.55,-203.55 354.97,-204.04 357.58,-210.54"/>
</g>
<!-- Node11 -->
<g id="node11" class="node">
<title>Node11</title>
<g id="a_node11"><a xlink:href="classrare_1_1components_1_1tabs_1_1library_1_1integrations_1_1egl__sync__group_1_1_e_g_l_sync_export_item.html#ae1cd35b1295fa44fd6906c1bcf28fd20" target="_top" xlink:title=" ">
<polygon fill="white" stroke="black" points="309.32,-498.5 309.32,-528.5 514.32,-528.5 514.32,-498.5 309.32,-498.5"/>
<text text-anchor="start" x="317.32" y="-516.5" font-family="Helvetica,sans-Serif" font-size="10.00">rare.components.tabs.library.integrations.egl</text>
<text text-anchor="middle" x="411.82" y="-505.5" font-family="Helvetica,sans-Serif" font-size="10.00">_sync_group.EGLSyncExportItem.app_title</text>
</a>
</g>
</g>
<!-- Node9&#45;&gt;Node11 -->
<g id="edge18" class="edge">
<title>Node9&#45;&gt;Node11</title>
<path fill="none" stroke="midnightblue" d="M193,-368.91C211.75,-397.44 255.94,-458.37 309.32,-489.5 312.39,-491.29 315.58,-492.94 318.86,-494.47"/>
<polygon fill="midnightblue" stroke="midnightblue" points="317.73,-497.79 328.3,-498.47 320.46,-491.35 317.73,-497.79"/>
</g>
<!-- Node12 -->
<g id="node12" class="node">
<title>Node12</title>
<g id="a_node12"><a xlink:href="classrare_1_1components_1_1tabs_1_1library_1_1integrations_1_1egl__sync__group_1_1_e_g_l_sync_import_item.html#ae1cd35b1295fa44fd6906c1bcf28fd20" target="_top" xlink:title=" ">
<polygon fill="white" stroke="black" points="309.32,-307.5 309.32,-337.5 514.32,-337.5 514.32,-307.5 309.32,-307.5"/>
<text text-anchor="start" x="317.32" y="-325.5" font-family="Helvetica,sans-Serif" font-size="10.00">rare.components.tabs.library.integrations.egl</text>
<text text-anchor="middle" x="411.82" y="-314.5" font-family="Helvetica,sans-Serif" font-size="10.00">_sync_group.EGLSyncImportItem.app_title</text>
</a>
</g>
</g>
<!-- Node9&#45;&gt;Node12 -->
<g id="edge20" class="edge">
<title>Node9&#45;&gt;Node12</title>
<path fill="none" stroke="midnightblue" d="M268.04,-341.96C278.18,-340.57 288.66,-339.15 299.12,-337.72"/>
<polygon fill="midnightblue" stroke="midnightblue" points="299.69,-341.18 309.12,-336.36 298.74,-334.24 299.69,-341.18"/>
</g>
<!-- Node13 -->
<g id="node13" class="node">
<title>Node13</title>
<g id="a_node13"><a xlink:href="classrare_1_1models_1_1base__game_1_1_rare_game_base.html#ae1cd35b1295fa44fd6906c1bcf28fd20" target="_top" xlink:title=" ">
<polygon fill="white" stroke="black" points="340.82,-431.5 340.82,-461.5 482.82,-461.5 482.82,-431.5 340.82,-431.5"/>
<text text-anchor="start" x="348.82" y="-449.5" font-family="Helvetica,sans-Serif" font-size="10.00">rare.models.base_game.Rare</text>
<text text-anchor="middle" x="411.82" y="-438.5" font-family="Helvetica,sans-Serif" font-size="10.00">GameBase.app_title</text>
</a>
</g>
</g>
<!-- Node9&#45;&gt;Node13 -->
<g id="edge23" class="edge">
<title>Node9&#45;&gt;Node13</title>
<path fill="none" stroke="midnightblue" d="M207.07,-368.69C231.78,-383.91 271.98,-407.1 309.32,-421.5 316.19,-424.15 323.43,-426.59 330.75,-428.81"/>
<polygon fill="midnightblue" stroke="midnightblue" points="330.18,-432.29 340.76,-431.72 332.13,-425.57 330.18,-432.29"/>
</g>
<!-- Node14 -->
<g id="node14" class="node">
<title>Node14</title>
<g id="a_node14"><a xlink:href="classrare_1_1models_1_1game_1_1_rare_game.html#a9830be59bfb2ba21c1f2afb0a715f61e" target="_top" xlink:title="Property to report if a Game is an Unreal Engine bundle.">
<polygon fill="white" stroke="black" points="335.82,-622.5 335.82,-652.5 487.82,-652.5 487.82,-622.5 335.82,-622.5"/>
<text text-anchor="start" x="343.82" y="-640.5" font-family="Helvetica,sans-Serif" font-size="10.00">rare.models.game.RareGame.is</text>
<text text-anchor="middle" x="411.82" y="-629.5" font-family="Helvetica,sans-Serif" font-size="10.00">_unreal</text>
</a>
</g>
</g>
<!-- Node9&#45;&gt;Node14 -->
<g id="edge25" class="edge">
<title>Node9&#45;&gt;Node14</title>
<path fill="none" stroke="midnightblue" d="M186.03,-368.55C194.88,-413.24 227.27,-546.18 309.32,-612.5 314.42,-616.62 320.09,-620.07 326.08,-622.97"/>
<polygon fill="midnightblue" stroke="midnightblue" points="325.15,-626.37 335.72,-627.07 327.89,-619.93 325.15,-626.37"/>
</g>
<!-- Node16 -->
<g id="node16" class="node">
<title>Node16</title>
<g id="a_node16"><a xlink:href="classrare_1_1models_1_1game_1_1_rare_game.html#a9b76c292a174e6a6013ae0b0d6f2b4b5" target="_top" xlink:title=" ">
<polygon fill="white" stroke="black" points="332.82,-240.5 332.82,-270.5 490.82,-270.5 490.82,-240.5 332.82,-240.5"/>
<text text-anchor="start" x="340.82" y="-258.5" font-family="Helvetica,sans-Serif" font-size="10.00">rare.models.game.RareGame.set</text>
<text text-anchor="middle" x="411.82" y="-247.5" font-family="Helvetica,sans-Serif" font-size="10.00">_steam_grade</text>
</a>
</g>
</g>
<!-- Node9&#45;&gt;Node16 -->
<g id="edge29" class="edge">
<title>Node9&#45;&gt;Node16</title>
<path fill="none" stroke="midnightblue" d="M217.51,-338.46C242.83,-327.35 278.19,-311.89 309.32,-298.5 327.72,-290.59 348.03,-281.96 365.62,-274.53"/>
<polygon fill="midnightblue" stroke="midnightblue" points="367.23,-277.64 375.08,-270.53 364.51,-271.2 367.23,-277.64"/>
</g>
<!-- Node25 -->
<g id="node25" class="node">
<title>Node25</title>
<g id="a_node25"><a xlink:href="namespacerare_1_1components.html#a019ee207f5c041fb0d2e61f76eafa958" target="_top" xlink:title=" ">
<polygon fill="white" stroke="black" points="356.82,-375 356.82,-394 466.82,-394 466.82,-375 356.82,-375"/>
<text text-anchor="middle" x="411.82" y="-382" font-family="Helvetica,sans-Serif" font-size="10.00">rare.components.start</text>
</a>
</g>
</g>
<!-- Node9&#45;&gt;Node25 -->
<g id="edge52" class="edge">
<title>Node9&#45;&gt;Node25</title>
<path fill="none" stroke="midnightblue" d="M268.04,-365.04C294.01,-368.58 322.15,-372.42 346.53,-375.74"/>
<polygon fill="midnightblue" stroke="midnightblue" points="346.35,-379.25 356.73,-377.13 347.3,-372.31 346.35,-379.25"/>
</g>
<!-- Node10&#45;&gt;Node10 -->
<g id="edge17" class="edge">
<title>Node10&#45;&gt;Node10</title>
<path fill="none" stroke="midnightblue" d="M372.79,-203.66C363.37,-213.06 376.39,-222 411.82,-222 433.42,-222 446.68,-218.68 451.62,-213.96"/>
<polygon fill="midnightblue" stroke="midnightblue" points="455.09,-213.37 450.86,-203.66 448.11,-213.89 455.09,-213.37"/>
</g>
<!-- Node11&#45;&gt;Node11 -->
<g id="edge19" class="edge">
<title>Node11&#45;&gt;Node11</title>
<path fill="none" stroke="midnightblue" d="M372.79,-528.66C363.37,-538.06 376.39,-547 411.82,-547 433.42,-547 446.68,-543.68 451.62,-538.96"/>
<polygon fill="midnightblue" stroke="midnightblue" points="455.09,-538.37 450.86,-528.66 448.11,-538.89 455.09,-538.37"/>
</g>
<!-- Node12&#45;&gt;Node5 -->
<g id="edge22" class="edge">
<title>Node12&#45;&gt;Node5</title>
<path fill="none" stroke="midnightblue" d="M472.4,-337.59C487.83,-344 503.2,-352.98 514.32,-365.5 552.43,-408.4 509.63,-449.04 550.32,-489.5 553.64,-492.79 557.37,-495.64 561.37,-498.11"/>
<polygon fill="midnightblue" stroke="midnightblue" points="560.02,-501.35 570.5,-502.91 563.28,-495.16 560.02,-501.35"/>
</g>
<!-- Node12&#45;&gt;Node12 -->
<g id="edge21" class="edge">
<title>Node12&#45;&gt;Node12</title>
<path fill="none" stroke="midnightblue" d="M372.79,-337.66C363.37,-347.06 376.39,-356 411.82,-356 433.42,-356 446.68,-352.68 451.62,-347.96"/>
<polygon fill="midnightblue" stroke="midnightblue" points="455.09,-347.37 450.86,-337.66 448.11,-347.89 455.09,-347.37"/>
</g>
<!-- Node13&#45;&gt;Node13 -->
<g id="edge24" class="edge">
<title>Node13&#45;&gt;Node13</title>
<path fill="none" stroke="midnightblue" d="M372.79,-461.66C363.37,-471.06 376.39,-480 411.82,-480 433.42,-480 446.68,-476.68 451.62,-471.96"/>
<polygon fill="midnightblue" stroke="midnightblue" points="455.09,-471.37 450.86,-461.66 448.11,-471.89 455.09,-471.37"/>
</g>
<!-- Node14&#45;&gt;Node14 -->
<g id="edge28" class="edge">
<title>Node14&#45;&gt;Node14</title>
<path fill="none" stroke="midnightblue" d="M372.79,-652.66C363.37,-662.06 376.39,-671 411.82,-671 433.42,-671 446.68,-667.68 451.62,-662.96"/>
<polygon fill="midnightblue" stroke="midnightblue" points="455.09,-662.37 450.86,-652.66 448.11,-662.89 455.09,-662.37"/>
</g>
<!-- Node15 -->
<g id="node15" class="node">
<title>Node15</title>
<g id="a_node15"><a xlink:href="classrare_1_1models_1_1game_1_1_rare_game.html#aff330cd3e3495874fbccb325e0c95236" target="_top" xlink:title="Property to report if a Game doesn&#39;t have assets.">
<polygon fill="white" stroke="black" points="559.82,-622.5 559.82,-652.5 711.82,-652.5 711.82,-622.5 559.82,-622.5"/>
<text text-anchor="start" x="567.82" y="-640.5" font-family="Helvetica,sans-Serif" font-size="10.00">rare.models.game.RareGame.is</text>
<text text-anchor="middle" x="635.82" y="-629.5" font-family="Helvetica,sans-Serif" font-size="10.00">_non_asset</text>
</a>
</g>
</g>
<!-- Node14&#45;&gt;Node15 -->
<g id="edge26" class="edge">
<title>Node14&#45;&gt;Node15</title>
<path fill="none" stroke="midnightblue" d="M487.98,-637.5C507.78,-637.5 529.29,-637.5 549.58,-637.5"/>
<polygon fill="midnightblue" stroke="midnightblue" points="549.74,-641 559.74,-637.5 549.74,-634 549.74,-641"/>
</g>
<!-- Node15&#45;&gt;Node15 -->
<g id="edge27" class="edge">
<title>Node15&#45;&gt;Node15</title>
<path fill="none" stroke="midnightblue" d="M596.79,-652.66C587.37,-662.06 600.39,-671 635.82,-671 657.42,-671 670.68,-667.68 675.62,-662.96"/>
<polygon fill="midnightblue" stroke="midnightblue" points="679.09,-662.37 674.86,-652.66 672.11,-662.89 679.09,-662.37"/>
</g>
<!-- Node16&#45;&gt;Node3 -->
<g id="edge30" class="edge">
<title>Node16&#45;&gt;Node3</title>
<path fill="none" stroke="midnightblue" d="M473.21,-270.57C488.46,-276.95 503.54,-285.94 514.32,-298.5 556.72,-347.91 504.94,-393.81 550.32,-440.5 551.92,-442.14 553.62,-443.68 555.41,-445.11"/>
<polygon fill="midnightblue" stroke="midnightblue" points="553.5,-448.04 563.74,-450.74 557.42,-442.24 553.5,-448.04"/>
</g>
<!-- Node16&#45;&gt;Node4 -->
<g id="edge31" class="edge">
<title>Node16&#45;&gt;Node4</title>
<path fill="none" stroke="midnightblue" d="M458.44,-270.51C476.63,-277.58 497.26,-287 514.32,-298.5 533.09,-311.15 530.39,-323.78 550.32,-334.5 569.06,-344.58 679.09,-365.69 762.45,-380.7"/>
<polygon fill="midnightblue" stroke="midnightblue" points="762.01,-384.18 772.47,-382.5 763.25,-377.29 762.01,-384.18"/>
</g>
<!-- Node16&#45;&gt;Node5 -->
<g id="edge32" class="edge">
<title>Node16&#45;&gt;Node5</title>
<path fill="none" stroke="midnightblue" d="M474.79,-270.58C489.67,-276.94 504.18,-285.91 514.32,-298.5 568.52,-365.77 492.06,-425.72 550.32,-489.5 553.68,-493.18 557.56,-496.31 561.77,-498.97"/>
<polygon fill="midnightblue" stroke="midnightblue" points="560.34,-502.17 570.81,-503.8 563.64,-496 560.34,-502.17"/>
</g>
<!-- Node16&#45;&gt;Node8 -->
<g id="edge51" class="edge">
<title>Node16&#45;&gt;Node8</title>
<path fill="none" stroke="midnightblue" d="M490.83,-245.68C499.41,-242.19 507.49,-237.58 514.32,-231.5 549.3,-200.38 519.13,-167.41 550.32,-132.5 558.42,-123.43 568.93,-116.09 579.77,-110.24"/>
<polygon fill="midnightblue" stroke="midnightblue" points="581.52,-113.27 588.9,-105.67 578.39,-107.01 581.52,-113.27"/>
</g>
<!-- Node16&#45;&gt;Node16 -->
<g id="edge46" class="edge">
<title>Node16&#45;&gt;Node16</title>
<path fill="none" stroke="midnightblue" d="M372.79,-270.66C363.37,-280.06 376.39,-289 411.82,-289 433.42,-289 446.68,-285.68 451.62,-280.96"/>
<polygon fill="midnightblue" stroke="midnightblue" points="455.09,-280.37 450.86,-270.66 448.11,-280.89 455.09,-280.37"/>
</g>
<!-- Node17 -->
<g id="node17" class="node">
<title>Node17</title>
<g id="a_node17"><a xlink:href="namespacerare_1_1utils_1_1steam__grades.html#ad5da927491f3a57e4f9ab3ad62ce2324" target="_top" xlink:title=" ">
<polygon fill="white" stroke="black" points="569.32,-142.5 569.32,-172.5 702.32,-172.5 702.32,-142.5 569.32,-142.5"/>
<text text-anchor="start" x="577.32" y="-160.5" font-family="Helvetica,sans-Serif" font-size="10.00">rare.utils.steam_grades.get</text>
<text text-anchor="middle" x="635.82" y="-149.5" font-family="Helvetica,sans-Serif" font-size="10.00">_rating</text>
</a>
</g>
</g>
<!-- Node16&#45;&gt;Node17 -->
<g id="edge33" class="edge">
<title>Node16&#45;&gt;Node17</title>
<path fill="none" stroke="midnightblue" d="M490.96,-241.1C499.05,-238.41 506.98,-235.24 514.32,-231.5 533.13,-221.91 532.79,-212.26 550.32,-200.5 563.1,-191.93 577.8,-183.89 591.33,-177.13"/>
<polygon fill="midnightblue" stroke="midnightblue" points="593.02,-180.2 600.47,-172.67 589.94,-173.91 593.02,-180.2"/>
</g>
<!-- Node22 -->
<g id="node22" class="node">
<title>Node22</title>
<g id="a_node22"><a xlink:href="classrare_1_1models_1_1game_1_1_rare_game.html#a482bcbd6705c56fd50bd1e7461f245e2" target="_top" xlink:title=" ">
<polygon fill="white" stroke="black" points="556.82,-382.5 556.82,-412.5 714.82,-412.5 714.82,-382.5 556.82,-382.5"/>
<text text-anchor="start" x="564.82" y="-400.5" font-family="Helvetica,sans-Serif" font-size="10.00">rare.models.game.RareGame.set</text>
<text text-anchor="middle" x="635.82" y="-389.5" font-family="Helvetica,sans-Serif" font-size="10.00">_steam_appid</text>
</a>
</g>
</g>
<!-- Node16&#45;&gt;Node22 -->
<g id="edge43" class="edge">
<title>Node16&#45;&gt;Node22</title>
<path fill="none" stroke="midnightblue" d="M467.17,-270.6C483.72,-277.17 501.03,-286.23 514.32,-298.5 539.74,-321.96 524.22,-344.81 550.32,-367.5 554.84,-371.43 559.9,-374.85 565.25,-377.83"/>
<polygon fill="midnightblue" stroke="midnightblue" points="563.96,-381.1 574.47,-382.45 567.09,-374.84 563.96,-381.1"/>
</g>
<!-- Node23 -->
<g id="node23" class="node">
<title>Node23</title>
<g id="a_node23"><a xlink:href="classrare_1_1shared_1_1rare__core_1_1_rare_core.html#a135560fc58fcc2e5cff07ec25c23a06c" target="_top" xlink:title=" ">
<polygon fill="white" stroke="black" points="570.82,-276.5 570.82,-306.5 700.82,-306.5 700.82,-276.5 570.82,-276.5"/>
<text text-anchor="start" x="578.82" y="-294.5" font-family="Helvetica,sans-Serif" font-size="10.00">rare.shared.rare_core.Rare</text>
<text text-anchor="middle" x="635.82" y="-283.5" font-family="Helvetica,sans-Serif" font-size="10.00">Core.signals</text>
</a>
</g>
</g>
<!-- Node16&#45;&gt;Node23 -->
<g id="edge47" class="edge">
<title>Node16&#45;&gt;Node23</title>
<path fill="none" stroke="midnightblue" d="M491.09,-268.19C513.72,-271.86 538.33,-275.85 560.7,-279.48"/>
<polygon fill="midnightblue" stroke="midnightblue" points="560.37,-282.97 570.8,-281.12 561.49,-276.06 560.37,-282.97"/>
</g>
<!-- Node24 -->
<g id="node24" class="node">
<title>Node24</title>
<g id="a_node24"><a xlink:href="classrare_1_1shared_1_1workers_1_1worker_1_1_worker.html#a9998d928f5b6f30ebb69dc655c0756a8" target="_top" xlink:title=" ">
<polygon fill="white" stroke="black" points="568.32,-209.5 568.32,-239.5 703.32,-239.5 703.32,-209.5 568.32,-209.5"/>
<text text-anchor="start" x="576.32" y="-227.5" font-family="Helvetica,sans-Serif" font-size="10.00">rare.shared.workers.worker.</text>
<text text-anchor="middle" x="635.82" y="-216.5" font-family="Helvetica,sans-Serif" font-size="10.00">Worker.signals</text>
</a>
</g>
</g>
<!-- Node16&#45;&gt;Node24 -->
<g id="edge49" class="edge">
<title>Node16&#45;&gt;Node24</title>
<path fill="none" stroke="midnightblue" d="M491.09,-244.57C512.86,-241.53 536.47,-238.23 558.15,-235.21"/>
<polygon fill="midnightblue" stroke="midnightblue" points="558.87,-238.64 568.29,-233.79 557.9,-231.71 558.87,-238.64"/>
</g>
<!-- Node17&#45;&gt;Node17 -->
<g id="edge36" class="edge">
<title>Node17&#45;&gt;Node17</title>
<path fill="none" stroke="midnightblue" d="M596.79,-172.66C587.37,-182.06 600.39,-191 635.82,-191 657.42,-191 670.68,-187.68 675.62,-182.96"/>
<polygon fill="midnightblue" stroke="midnightblue" points="679.09,-182.37 674.86,-172.66 672.11,-182.89 679.09,-182.37"/>
</g>
<!-- Node18 -->
<g id="node18" class="node">
<title>Node18</title>
<g id="a_node18"><a xlink:href="namespacerare_1_1utils_1_1steam__grades.html#afb84b77f9ccf4f2f47fe022771e9b7b4" target="_top" xlink:title=" ">
<polygon fill="white" stroke="black" points="793.32,-175.5 793.32,-205.5 926.32,-205.5 926.32,-175.5 793.32,-175.5"/>
<text text-anchor="start" x="801.32" y="-193.5" font-family="Helvetica,sans-Serif" font-size="10.00">rare.utils.steam_grades.get</text>
<text text-anchor="middle" x="859.82" y="-182.5" font-family="Helvetica,sans-Serif" font-size="10.00">_grade</text>
</a>
</g>
</g>
<!-- Node17&#45;&gt;Node18 -->
<g id="edge34" class="edge">
<title>Node17&#45;&gt;Node18</title>
<path fill="none" stroke="midnightblue" d="M702.53,-167.27C727.92,-171.04 757.14,-175.38 783.39,-179.29"/>
<polygon fill="midnightblue" stroke="midnightblue" points="782.88,-182.75 793.29,-180.76 783.91,-175.83 782.88,-182.75"/>
</g>
<!-- Node19 -->
<g id="node19" class="node">
<title>Node19</title>
<g id="a_node19"><a xlink:href="namespacerare_1_1utils_1_1steam__grades.html#a4fbb4d953a461c946de723d1f1751396" target="_top" xlink:title=" ">
<polygon fill="white" stroke="black" points="793.32,-108.5 793.32,-138.5 926.32,-138.5 926.32,-108.5 793.32,-108.5"/>
<text text-anchor="start" x="801.32" y="-126.5" font-family="Helvetica,sans-Serif" font-size="10.00">rare.utils.steam_grades.get</text>
<text text-anchor="middle" x="859.82" y="-115.5" font-family="Helvetica,sans-Serif" font-size="10.00">_steam_id</text>
</a>
</g>
</g>
<!-- Node17&#45;&gt;Node19 -->
<g id="edge37" class="edge">
<title>Node17&#45;&gt;Node19</title>
<path fill="none" stroke="midnightblue" d="M702.53,-147.44C727.92,-143.55 757.14,-139.07 783.39,-135.05"/>
<polygon fill="midnightblue" stroke="midnightblue" points="783.93,-138.51 793.29,-133.54 782.87,-131.59 783.93,-138.51"/>
</g>
<!-- Node18&#45;&gt;Node18 -->
<g id="edge35" class="edge">
<title>Node18&#45;&gt;Node18</title>
<path fill="none" stroke="midnightblue" d="M821.83,-205.66C812.67,-215.06 825.33,-224 859.82,-224 880.84,-224 893.75,-220.68 898.56,-215.96"/>
<polygon fill="midnightblue" stroke="midnightblue" points="902.03,-215.38 897.81,-205.66 895.04,-215.89 902.03,-215.38"/>
</g>
<!-- Node19&#45;&gt;Node19 -->
<g id="edge38" class="edge">
<title>Node19&#45;&gt;Node19</title>
<path fill="none" stroke="midnightblue" d="M821.83,-138.66C812.67,-148.06 825.33,-157 859.82,-157 880.84,-157 893.75,-153.68 898.56,-148.96"/>
<polygon fill="midnightblue" stroke="midnightblue" points="902.03,-148.38 897.81,-138.66 895.04,-148.89 902.03,-148.38"/>
</g>
<!-- Node20 -->
<g id="node20" class="node">
<title>Node20</title>
<g id="a_node20"><a xlink:href="namespacerare_1_1utils_1_1steam__grades.html#a65145276c5b5f93556777b0f2f8ceb25" target="_top" xlink:title=" ">
<polygon fill="white" stroke="black" points="998.32,-114 998.32,-133 1159.32,-133 1159.32,-114 998.32,-114"/>
<text text-anchor="middle" x="1078.82" y="-121" font-family="Helvetica,sans-Serif" font-size="10.00">rare.utils.steam_grades.load_json</text>
</a>
</g>
</g>
<!-- Node19&#45;&gt;Node20 -->
<g id="edge39" class="edge">
<title>Node19&#45;&gt;Node20</title>
<path fill="none" stroke="midnightblue" d="M926.52,-123.5C945.92,-123.5 967.5,-123.5 988.14,-123.5"/>
<polygon fill="midnightblue" stroke="midnightblue" points="988.19,-127 998.19,-123.5 988.19,-120 988.19,-127"/>
</g>
<!-- Node20&#45;&gt;Node20 -->
<g id="edge42" class="edge">
<title>Node20&#45;&gt;Node20</title>
<path fill="none" stroke="midnightblue" d="M1051.39,-133.26C1038.04,-142.07 1047.19,-151.5 1078.82,-151.5 1100.57,-151.5 1111.69,-147.04 1112.18,-141.39"/>
<polygon fill="midnightblue" stroke="midnightblue" points="1114.97,-139.28 1106.26,-133.26 1109.32,-143.4 1114.97,-139.28"/>
</g>
<!-- Node21 -->
<g id="node21" class="node">
<title>Node21</title>
<g id="a_node21"><a xlink:href="namespacerare_1_1utils_1_1paths.html#a967cf7dd54d6f29434b1b44099984396" target="_top" xlink:title=" ">
<polygon fill="white" stroke="black" points="1195.32,-114 1195.32,-133 1319.32,-133 1319.32,-114 1195.32,-114"/>
<text text-anchor="middle" x="1257.32" y="-121" font-family="Helvetica,sans-Serif" font-size="10.00">rare.utils.paths.cache_dir</text>
</a>
</g>
</g>
<!-- Node20&#45;&gt;Node21 -->
<g id="edge40" class="edge">
<title>Node20&#45;&gt;Node21</title>
<path fill="none" stroke="midnightblue" d="M1159.55,-123.5C1168.06,-123.5 1176.68,-123.5 1185.08,-123.5"/>
<polygon fill="midnightblue" stroke="midnightblue" points="1185.2,-127 1195.2,-123.5 1185.2,-120 1185.2,-127"/>
</g>
<!-- Node21&#45;&gt;Node21 -->
<g id="edge41" class="edge">
<title>Node21&#45;&gt;Node21</title>
<path fill="none" stroke="midnightblue" d="M1229.89,-133.26C1216.54,-142.07 1225.69,-151.5 1257.32,-151.5 1279.07,-151.5 1290.19,-147.04 1290.68,-141.39"/>
<polygon fill="midnightblue" stroke="midnightblue" points="1293.47,-139.28 1284.76,-133.26 1287.82,-143.4 1293.47,-139.28"/>
</g>
<!-- Node22&#45;&gt;Node4 -->
<g id="edge44" class="edge">
<title>Node22&#45;&gt;Node4</title>
<path fill="none" stroke="midnightblue" d="M715.09,-397.5C725.4,-397.5 736.13,-397.5 746.87,-397.5"/>
<polygon fill="midnightblue" stroke="midnightblue" points="747.15,-401 757.15,-397.5 747.15,-394 747.15,-401"/>
</g>
<!-- Node22&#45;&gt;Node22 -->
<g id="edge45" class="edge">
<title>Node22&#45;&gt;Node22</title>
<path fill="none" stroke="midnightblue" d="M596.79,-412.66C587.37,-422.06 600.39,-431 635.82,-431 657.42,-431 670.68,-427.68 675.62,-422.96"/>
<polygon fill="midnightblue" stroke="midnightblue" points="679.09,-422.37 674.86,-412.66 672.11,-422.89 679.09,-422.37"/>
</g>
<!-- Node23&#45;&gt;Node23 -->
<g id="edge48" class="edge">
<title>Node23&#45;&gt;Node23</title>
<path fill="none" stroke="midnightblue" d="M596.79,-306.66C587.37,-316.06 600.39,-325 635.82,-325 657.42,-325 670.68,-321.68 675.62,-316.96"/>
<polygon fill="midnightblue" stroke="midnightblue" points="679.09,-316.37 674.86,-306.66 672.11,-316.89 679.09,-316.37"/>
</g>
<!-- Node24&#45;&gt;Node24 -->
<g id="edge50" class="edge">
<title>Node24&#45;&gt;Node24</title>
<path fill="none" stroke="midnightblue" d="M596.79,-239.66C587.37,-249.06 600.39,-258 635.82,-258 657.42,-258 670.68,-254.68 675.62,-249.96"/>
<polygon fill="midnightblue" stroke="midnightblue" points="679.09,-249.37 674.86,-239.66 672.11,-249.89 679.09,-249.37"/>
</g>
<!-- Node25&#45;&gt;Node25 -->
<g id="edge53" class="edge">
<title>Node25&#45;&gt;Node25</title>
<path fill="none" stroke="midnightblue" d="M377.58,-394.11C360.38,-402.96 371.79,-412.5 411.82,-412.5 441.85,-412.5 455.77,-407.13 453.6,-400.72"/>
<polygon fill="midnightblue" stroke="midnightblue" points="455.89,-398.07 446.07,-394.11 451.28,-403.34 455.89,-398.07"/>
</g>
</g>
</svg>
