<?xml version="1.0" encoding="UTF-8" standalone="no"?>
<!DOCTYPE svg PUBLIC "-//W3C//DTD SVG 1.1//EN"
 "http://www.w3.org/Graphics/SVG/1.1/DTD/svg11.dtd">
<!-- Generated by graphviz version 2.49.3 (20211027.1534)
 -->
<!-- Title: run_real Pages: 1 -->
<svg width="391pt" height="204pt"
 viewBox="0.00 0.00 391.00 203.50" xmlns="http://www.w3.org/2000/svg" xmlns:xlink="http://www.w3.org/1999/xlink">
<g id="graph0" class="graph" transform="scale(1 1) rotate(0) translate(4 199.5)">
<title>run_real</title>
<polygon fill="white" stroke="transparent" points="-4,4 -4,-199.5 387,-199.5 387,4 -4,4"/>
<!-- Node1 -->
<g id="node1" class="node">
<title>Node1</title>
<g id="a_node1"><a xlink:title=" ">
<polygon fill="#bfbfbf" stroke="black" points="0,-78.5 0,-97.5 51,-97.5 51,-78.5 0,-78.5"/>
<text text-anchor="middle" x="25.5" y="-85.5" font-family="Helvetica,sans-Serif" font-size="10.00">run_real</text>
</a>
</g>
</g>
<!-- Node1&#45;&gt;Node1 -->
<g id="edge8" class="edge">
<title>Node1&#45;&gt;Node1</title>
<path fill="none" stroke="midnightblue" d="M6.08,-97.76C-3.37,-106.57 3.11,-116 25.5,-116 39.85,-116 47.66,-112.13 48.94,-107.03"/>
<polygon fill="midnightblue" stroke="midnightblue" points="52.11,-105.54 44.92,-97.76 45.68,-108.32 52.11,-105.54"/>
</g>
<!-- Node2 -->
<g id="node2" class="node">
<title>Node2</title>
<g id="a_node2"><a xlink:href="classrare_1_1shared_1_1rare__core_1_1_rare_core.html#a405e1a4f20f16120f872ccd2654a1d56" target="_top" xlink:title=" ">
<polygon fill="white" stroke="black" points="253,-147 253,-177 383,-177 383,-147 253,-147"/>
<text text-anchor="start" x="261" y="-165" font-family="Helvetica,sans-Serif" font-size="10.00">rare.shared.rare_core.Rare</text>
<text text-anchor="middle" x="318" y="-154" font-family="Helvetica,sans-Serif" font-size="10.00">Core.core</text>
</a>
</g>
</g>
<!-- Node1&#45;&gt;Node2 -->
<g id="edge1" class="edge">
<title>Node1&#45;&gt;Node2</title>
<path fill="none" stroke="midnightblue" d="M32.05,-97.73C41.24,-112.77 61.22,-141.17 87,-153 135.56,-175.28 196.12,-176.74 242.92,-173.06"/>
<polygon fill="midnightblue" stroke="midnightblue" points="243.33,-176.53 252.98,-172.17 242.71,-169.56 243.33,-176.53"/>
</g>
<!-- Node3 -->
<g id="node3" class="node">
<title>Node3</title>
<g id="a_node3"><a xlink:href="classrare_1_1shared_1_1rare__core_1_1_rare_core.html#af626fd87a4280875286ed304d4270f61" target="_top" xlink:title=" ">
<polygon fill="white" stroke="black" points="87,-95 87,-125 217,-125 217,-95 87,-95"/>
<text text-anchor="start" x="95" y="-113" font-family="Helvetica,sans-Serif" font-size="10.00">rare.shared.rare_core.Rare</text>
<text text-anchor="middle" x="152" y="-102" font-family="Helvetica,sans-Serif" font-size="10.00">Core.image_manager</text>
</a>
</g>
</g>
<!-- Node1&#45;&gt;Node3 -->
<g id="edge3" class="edge">
<title>Node1&#45;&gt;Node3</title>
<path fill="none" stroke="midnightblue" d="M51.1,-92.35C58.75,-93.7 67.61,-95.26 76.84,-96.9"/>
<polygon fill="midnightblue" stroke="midnightblue" points="76.5,-100.39 86.96,-98.68 77.72,-93.5 76.5,-100.39"/>
</g>
<!-- Node4 -->
<g id="node4" class="node">
<title>Node4</title>
<g id="a_node4"><a xlink:href="classrare_1_1shared_1_1rare__core_1_1_rare_core.html#a135560fc58fcc2e5cff07ec25c23a06c" target="_top" xlink:title=" ">
<polygon fill="white" stroke="black" points="253,-70 253,-100 383,-100 383,-70 253,-70"/>
<text text-anchor="start" x="261" y="-88" font-family="Helvetica,sans-Serif" font-size="10.00">rare.shared.rare_core.Rare</text>
<text text-anchor="middle" x="318" y="-77" font-family="Helvetica,sans-Serif" font-size="10.00">Core.signals</text>
</a>
</g>
</g>
<!-- Node1&#45;&gt;Node4 -->
<g id="edge9" class="edge">
<title>Node1&#45;&gt;Node4</title>
<path fill="none" stroke="midnightblue" d="M51.22,-86.5C62.17,-85.9 75.23,-85.29 87,-85 138.85,-83.72 197.29,-83.73 242.29,-84.06"/>
<polygon fill="midnightblue" stroke="midnightblue" points="242.52,-87.57 252.55,-84.15 242.58,-80.57 242.52,-87.57"/>
</g>
<!-- Node5 -->
<g id="node5" class="node">
<title>Node5</title>
<g id="a_node5"><a xlink:href="classrare_1_1components_1_1dialogs_1_1launch__dialog_1_1_image_worker.html#abfb44fdc3f5ec4c03f5d2e72900deb61" target="_top" xlink:title=" ">
<polygon fill="white" stroke="black" points="137.5,-0.5 137.5,-19.5 166.5,-19.5 166.5,-0.5 137.5,-0.5"/>
<text text-anchor="middle" x="152" y="-7.5" font-family="Helvetica,sans-Serif" font-size="10.00">tr</text>
</a>
</g>
</g>
<!-- Node1&#45;&gt;Node5 -->
<g id="edge10" class="edge">
<title>Node1&#45;&gt;Node5</title>
<path fill="none" stroke="midnightblue" d="M41.77,-78.44C63.51,-64.81 103.54,-39.73 128.63,-24.01"/>
<polygon fill="midnightblue" stroke="midnightblue" points="130.52,-26.96 137.14,-18.68 126.81,-21.03 130.52,-26.96"/>
</g>
<!-- Node2&#45;&gt;Node2 -->
<g id="edge2" class="edge">
<title>Node2&#45;&gt;Node2</title>
<path fill="none" stroke="midnightblue" d="M289.07,-177.16C282.1,-186.56 291.74,-195.5 318,-195.5 334,-195.5 343.84,-192.18 347.5,-187.46"/>
<polygon fill="midnightblue" stroke="midnightblue" points="350.97,-186.95 346.93,-177.16 343.98,-187.34 350.97,-186.95"/>
</g>
<!-- Node3&#45;&gt;Node2 -->
<g id="edge4" class="edge">
<title>Node3&#45;&gt;Node2</title>
<path fill="none" stroke="midnightblue" d="M200.44,-125.04C219.05,-130.94 240.57,-137.77 260.02,-143.93"/>
<polygon fill="midnightblue" stroke="midnightblue" points="259.08,-147.31 269.67,-146.99 261.2,-140.63 259.08,-147.31"/>
</g>
<!-- Node3&#45;&gt;Node3 -->
<g id="edge5" class="edge">
<title>Node3&#45;&gt;Node3</title>
<path fill="none" stroke="midnightblue" d="M130.04,-125.16C124.75,-134.56 132.07,-143.5 152,-143.5 164.15,-143.5 171.61,-140.18 174.39,-135.46"/>
<polygon fill="midnightblue" stroke="midnightblue" points="177.87,-135 173.96,-125.16 170.88,-135.3 177.87,-135"/>
</g>
<!-- Node3&#45;&gt;Node4 -->
<g id="edge6" class="edge">
<title>Node3&#45;&gt;Node4</title>
<path fill="none" stroke="midnightblue" d="M217.35,-100.19C225.73,-98.91 234.37,-97.6 242.9,-96.3"/>
<polygon fill="midnightblue" stroke="midnightblue" points="243.48,-99.75 252.84,-94.78 242.43,-92.83 243.48,-99.75"/>
</g>
<!-- Node4&#45;&gt;Node4 -->
<g id="edge7" class="edge">
<title>Node4&#45;&gt;Node4</title>
<path fill="none" stroke="midnightblue" d="M289.07,-100.16C282.1,-109.56 291.74,-118.5 318,-118.5 334,-118.5 343.84,-115.18 347.5,-110.46"/>
<polygon fill="midnightblue" stroke="midnightblue" points="350.97,-109.95 346.93,-100.16 343.98,-110.34 350.97,-109.95"/>
</g>
<!-- Node5&#45;&gt;Node5 -->
<g id="edge11" class="edge">
<title>Node5&#45;&gt;Node5</title>
<path fill="none" stroke="midnightblue" d="M137.15,-16.33C121.7,-25.91 126.65,-38 152,-38 171.41,-38 178.86,-30.91 174.35,-23.29"/>
<polygon fill="midnightblue" stroke="midnightblue" points="176.56,-20.57 166.85,-16.33 171.8,-25.7 176.56,-20.57"/>
</g>
</g>
</svg>
