<?xml version="1.0" encoding="UTF-8" standalone="no"?>
<!DOCTYPE svg PUBLIC "-//W3C//DTD SVG 1.1//EN"
 "http://www.w3.org/Graphics/SVG/1.1/DTD/svg11.dtd">
<!-- Generated by graphviz version 2.49.3 (20211027.1534)
 -->
<!-- Title: launch_game Pages: 1 -->
<!--zoomable 298 -->
<svg id="main" version="1.1" xmlns="http://www.w3.org/2000/svg" xmlns:xlink="http://www.w3.org/1999/xlink" xml:space="preserve" onload="init(evt)">
<style type="text/css"><![CDATA[
.edge:hover path { stroke: red; }
.edge:hover polygon { stroke: red; fill: red; }
]]></style>
<script type="text/javascript"><![CDATA[
var edges = document.getElementsByTagName('g');
if (edges && edges.length) {
  for (var i=0;i<edges.length;i++) {
    if (edges[i].id.substr(0,4)=='edge') {
      edges[i].setAttribute('class','edge');
    }
  }
}
]]></script>
        <defs>
                <circle id="rim" cx="0" cy="0" r="7"/>
                <circle id="rim2" cx="0" cy="0" r="3.5"/>
                <g id="zoomPlus">
                        <use xlink:href="#rim" fill="#404040">
                                <set attributeName="fill" to="#808080" begin="zoomplus.mouseover" end="zoomplus.mouseout"/>
                        </use>
                        <path d="M-4,0h8M0,-4v8" fill="none" stroke="white" stroke-width="1.5" pointer-events="none"/>
                </g>
                <g id="zoomMin">
                        <use xlink:href="#rim" fill="#404040">
                                <set attributeName="fill" to="#808080" begin="zoomminus.mouseover" end="zoomminus.mouseout"/>
                        </use>
                        <path d="M-4,0h8" fill="none" stroke="white" stroke-width="1.5" pointer-events="none"/>
                </g>
                <g id="dirArrow">
                        <path fill="none" stroke="white" stroke-width="1.5" d="M0,-3.0v7 M-2.5,-0.5L0,-3.0L2.5,-0.5"/>
                </g>
               <g id="resetDef">
                       <use xlink:href="#rim2" fill="#404040">
                               <set attributeName="fill" to="#808080" begin="reset.mouseover" end="reset.mouseout"/>
                       </use>
               </g>
        </defs>

<script type="text/javascript">
var viewWidth = 707;
var viewHeight = 298;
var sectionId = 'dynsection-8';
</script>
<script xlink:href="svgpan.js"/>
<svg id="graph" class="graph">
<g id="viewport">
<title>launch_game</title>
<polygon fill="white" stroke="transparent" points="-4,4 -4,-294.17 703,-294.17 703,4 -4,4"/>
<!-- Node1 -->
<g id="node1" class="node">
<title>Node1</title>
<g id="a_node1"><a xlink:title=" ">
<polygon fill="#bfbfbf" stroke="black" points="0,-123 0,-142 74,-142 74,-123 0,-123"/>
<text text-anchor="middle" x="37" y="-130" font-family="Helvetica,sans-Serif" font-size="10.00">launch_game</text>
</a>
</g>
</g>
<!-- Node1&#45;&gt;Node1 -->
<g id="edge3" class="edge">
<title>Node1&#45;&gt;Node1</title>
<path fill="none" stroke="midnightblue" d="M23.13,-142.26C16.38,-151.07 21,-160.5 37,-160.5 47,-160.5 52.55,-156.81 53.67,-151.9"/>
<polygon fill="midnightblue" stroke="midnightblue" points="57.02,-150.89 50.87,-142.26 50.29,-152.84 57.02,-150.89"/>
</g>
<!-- Node2 -->
<g id="node2" class="node">
<title>Node2</title>
<g id="a_node2"><a xlink:href="classrare_1_1shared_1_1rare__core_1_1_rare_core.html#a673cb72b40e8c1b2dfab6dbc0e0e39e4" target="_top" xlink:title=" ">
<polygon fill="white" stroke="black" points="395,-205.5 395,-235.5 525,-235.5 525,-205.5 395,-205.5"/>
<text text-anchor="start" x="403" y="-223.5" font-family="Helvetica,sans-Serif" font-size="10.00">rare.shared.rare_core.Rare</text>
<text text-anchor="middle" x="460" y="-212.5" font-family="Helvetica,sans-Serif" font-size="10.00">Core.args</text>
</a>
</g>
</g>
<!-- Node1&#45;&gt;Node2 -->
<g id="edge1" class="edge">
<title>Node1&#45;&gt;Node2</title>
<path fill="none" stroke="midnightblue" d="M40.2,-142.35C46.31,-167.17 66.02,-232.26 110,-260.5 207.29,-322.97 351.88,-270.98 420.36,-239.79"/>
<polygon fill="midnightblue" stroke="midnightblue" points="421.91,-242.93 429.51,-235.55 418.96,-236.59 421.91,-242.93"/>
</g>
<!-- Node3 -->
<g id="node3" class="node">
<title>Node3</title>
<g id="a_node3"><a xlink:href="classrare_1_1launcher_1_1_rare_launcher.html#a1ad309148fd22e4786258dc4a79ec7af" target="_top" xlink:title=" ">
<polygon fill="white" stroke="black" points="588.5,-124 588.5,-143 671.5,-143 671.5,-124 588.5,-124"/>
<text text-anchor="middle" x="630" y="-131" font-family="Helvetica,sans-Serif" font-size="10.00">send_message</text>
</a>
</g>
</g>
<!-- Node1&#45;&gt;Node3 -->
<g id="edge4" class="edge">
<title>Node1&#45;&gt;Node3</title>
<path fill="none" stroke="midnightblue" d="M64.97,-122.91C99.09,-111.65 159.88,-94.5 213.5,-94.5 213.5,-94.5 213.5,-94.5 322,-94.5 412.91,-94.5 517.77,-111.54 578.42,-123.09"/>
<polygon fill="midnightblue" stroke="midnightblue" points="578,-126.58 588.49,-125.04 579.33,-119.7 578,-126.58"/>
</g>
<!-- Node4 -->
<g id="node4" class="node">
<title>Node4</title>
<g id="a_node4"><a xlink:href="classrare_1_1launcher_1_1_rare_launcher.html#a711d1d7df9874db34971779c941c4e5e" target="_top" xlink:title=" ">
<polygon fill="white" stroke="black" points="110,-193 110,-212 146,-212 146,-193 110,-193"/>
<text text-anchor="middle" x="128" y="-200" font-family="Helvetica,sans-Serif" font-size="10.00">start</text>
</a>
</g>
</g>
<!-- Node1&#45;&gt;Node4 -->
<g id="edge6" class="edge">
<title>Node1&#45;&gt;Node4</title>
<path fill="none" stroke="midnightblue" d="M50.38,-142.23C64.99,-153.73 89.5,-173 106.86,-186.66"/>
<polygon fill="midnightblue" stroke="midnightblue" points="104.71,-189.42 114.73,-192.85 109.03,-183.92 104.71,-189.42"/>
</g>
<!-- Node7 -->
<g id="node7" class="node">
<title>Node7</title>
<g id="a_node7"><a xlink:href="classrare_1_1launcher_1_1_rare_launcher.html#a26ca7c1c7fcdd35378e7be97727047a6" target="_top" xlink:title=" ">
<polygon fill="white" stroke="black" points="612.5,-68 612.5,-87 647.5,-87 647.5,-68 612.5,-68"/>
<text text-anchor="middle" x="630" y="-75" font-family="Helvetica,sans-Serif" font-size="10.00">stop</text>
</a>
</g>
</g>
<!-- Node1&#45;&gt;Node7 -->
<g id="edge28" class="edge">
<title>Node1&#45;&gt;Node7</title>
<path fill="none" stroke="midnightblue" d="M50.4,-122.87C78.03,-102.42 147.43,-56.5 213.5,-56.5 213.5,-56.5 213.5,-56.5 322,-56.5 425.96,-56.5 549.26,-68.63 602.43,-74.45"/>
<polygon fill="midnightblue" stroke="midnightblue" points="602.06,-77.94 612.39,-75.56 602.84,-70.98 602.06,-77.94"/>
</g>
<!-- Node8 -->
<g id="node8" class="node">
<title>Node8</title>
<g id="a_node8"><a xlink:href="classrare_1_1widgets_1_1loading__widget_1_1_loading_widget.html#a26ca7c1c7fcdd35378e7be97727047a6" target="_top" xlink:title=" ">
<polygon fill="white" stroke="black" points="561,-0.5 561,-30.5 699,-30.5 699,-0.5 561,-0.5"/>
<text text-anchor="start" x="569" y="-18.5" font-family="Helvetica,sans-Serif" font-size="10.00">rare.widgets.loading</text>
<text text-anchor="middle" x="630" y="-7.5" font-family="Helvetica,sans-Serif" font-size="10.00">_widget.LoadingWidget.stop</text>
</a>
</g>
</g>
<!-- Node1&#45;&gt;Node8 -->
<g id="edge29" class="edge">
<title>Node1&#45;&gt;Node8</title>
<path fill="none" stroke="midnightblue" d="M45.55,-122.7C67.91,-94.88 137,-17.5 213.5,-17.5 213.5,-17.5 213.5,-17.5 322,-17.5 399.75,-17.5 488.58,-16.85 550.61,-16.29"/>
<polygon fill="midnightblue" stroke="midnightblue" points="550.75,-19.79 560.72,-16.2 550.69,-12.79 550.75,-19.79"/>
</g>
<!-- Node2&#45;&gt;Node2 -->
<g id="edge2" class="edge">
<title>Node2&#45;&gt;Node2</title>
<path fill="none" stroke="midnightblue" d="M435.95,-235.66C430.15,-245.06 438.17,-254 460,-254 473.3,-254 481.48,-250.68 484.52,-245.96"/>
<polygon fill="midnightblue" stroke="midnightblue" points="488,-245.49 484.05,-235.66 481.01,-245.81 488,-245.49"/>
</g>
<!-- Node3&#45;&gt;Node3 -->
<g id="edge5" class="edge">
<title>Node3&#45;&gt;Node3</title>
<path fill="none" stroke="midnightblue" d="M603.8,-143.26C591.05,-152.07 599.79,-161.5 630,-161.5 650.3,-161.5 660.9,-157.24 661.81,-151.77"/>
<polygon fill="midnightblue" stroke="midnightblue" points="664.63,-149.68 656.2,-143.26 658.78,-153.53 664.63,-149.68"/>
</g>
<!-- Node4&#45;&gt;Node4 -->
<g id="edge17" class="edge">
<title>Node4&#45;&gt;Node4</title>
<path fill="none" stroke="midnightblue" d="M114.74,-212.26C108.3,-221.07 112.71,-230.5 128,-230.5 137.55,-230.5 142.86,-226.81 143.93,-221.9"/>
<polygon fill="midnightblue" stroke="midnightblue" points="147.3,-220.96 141.26,-212.26 140.55,-222.83 147.3,-220.96"/>
</g>
<!-- Node5 -->
<g id="node5" class="node">
<title>Node5</title>
<g id="a_node5"><a xlink:href="classrare_1_1shared_1_1rare__core_1_1_rare_core.html#a405e1a4f20f16120f872ccd2654a1d56" target="_top" xlink:title=" ">
<polygon fill="white" stroke="black" points="565,-223.5 565,-253.5 695,-253.5 695,-223.5 565,-223.5"/>
<text text-anchor="start" x="573" y="-241.5" font-family="Helvetica,sans-Serif" font-size="10.00">rare.shared.rare_core.Rare</text>
<text text-anchor="middle" x="630" y="-230.5" font-family="Helvetica,sans-Serif" font-size="10.00">Core.core</text>
</a>
</g>
</g>
<!-- Node4&#45;&gt;Node5 -->
<g id="edge7" class="edge">
<title>Node4&#45;&gt;Node5</title>
<path fill="none" stroke="midnightblue" d="M141.87,-212.13C152.23,-219.47 167.42,-229.34 182,-235.5 224.6,-253.5 237.15,-254.49 283,-260.5 389.65,-274.47 418.13,-274.67 525,-262.5 537.91,-261.03 551.55,-258.56 564.55,-255.76"/>
<polygon fill="midnightblue" stroke="midnightblue" points="565.36,-259.16 574.35,-253.56 563.83,-252.33 565.36,-259.16"/>
</g>
<!-- Node6 -->
<g id="node6" class="node">
<title>Node6</title>
<g id="a_node6"><a xlink:href="classrare_1_1launcher_1_1_rare_launcher.html#ac2d7fc08d8189d84d207151df722ee19" target="_top" xlink:title=" ">
<polygon fill="white" stroke="black" points="420.5,-124 420.5,-143 499.5,-143 499.5,-124 420.5,-124"/>
<text text-anchor="middle" x="460" y="-131" font-family="Helvetica,sans-Serif" font-size="10.00">error_occurred</text>
</a>
</g>
</g>
<!-- Node4&#45;&gt;Node6 -->
<g id="edge9" class="edge">
<title>Node4&#45;&gt;Node6</title>
<path fill="none" stroke="midnightblue" d="M135.57,-192.92C144.49,-180.81 161.67,-160.47 182,-151.5 256.3,-118.72 352.8,-121.29 410.09,-126.88"/>
<polygon fill="midnightblue" stroke="midnightblue" points="410.01,-130.39 420.32,-127.95 410.73,-123.43 410.01,-130.39"/>
</g>
<!-- Node9 -->
<g id="node9" class="node">
<title>Node9</title>
<g id="a_node9"><a xlink:href="classrare_1_1launcher_1_1_rare_launcher.html#ac8b8dc7f48f8405350185a34a814e908" target="_top" xlink:title=" ">
<polygon fill="white" stroke="black" points="284,-214 284,-233 358,-233 358,-214 284,-214"/>
<text text-anchor="middle" x="321" y="-221" font-family="Helvetica,sans-Serif" font-size="10.00">start_prepare</text>
</a>
</g>
</g>
<!-- Node4&#45;&gt;Node9 -->
<g id="edge18" class="edge">
<title>Node4&#45;&gt;Node9</title>
<path fill="none" stroke="midnightblue" d="M146.29,-200.32C174.82,-200.66 232.68,-206.42 273.78,-212.54"/>
<polygon fill="midnightblue" stroke="midnightblue" points="273.42,-216.03 283.84,-214.1 274.49,-209.11 273.42,-216.03"/>
</g>
<!-- Node10 -->
<g id="node10" class="node">
<title>Node10</title>
<g id="a_node10"><a xlink:href="classrare_1_1launcher_1_1_rare_launcher.html#abc80b9c0d00c9ee171bcdd5b318f9329" target="_top" xlink:title=" ">
<polygon fill="white" stroke="black" points="182,-161 182,-180 247,-180 247,-161 182,-161"/>
<text text-anchor="middle" x="214.5" y="-168" font-family="Helvetica,sans-Serif" font-size="10.00">sync_ready</text>
</a>
</g>
</g>
<!-- Node4&#45;&gt;Node10 -->
<g id="edge24" class="edge">
<title>Node4&#45;&gt;Node10</title>
<path fill="none" stroke="midnightblue" d="M146.1,-196.02C155.5,-192.46 167.51,-187.92 178.78,-183.65"/>
<polygon fill="midnightblue" stroke="midnightblue" points="180.3,-186.82 188.41,-180 177.82,-180.27 180.3,-186.82"/>
</g>
<!-- Node5&#45;&gt;Node5 -->
<g id="edge8" class="edge">
<title>Node5&#45;&gt;Node5</title>
<path fill="none" stroke="midnightblue" d="M600.37,-253.66C593.23,-263.06 603.11,-272 630,-272 646.39,-272 656.46,-268.68 660.21,-263.96"/>
<polygon fill="midnightblue" stroke="midnightblue" points="663.68,-263.45 659.63,-253.66 656.69,-263.84 663.68,-263.45"/>
</g>
<!-- Node6&#45;&gt;Node3 -->
<g id="edge12" class="edge">
<title>Node6&#45;&gt;Node3</title>
<path fill="none" stroke="midnightblue" d="M499.54,-133.5C522.87,-133.5 552.9,-133.5 578.15,-133.5"/>
<polygon fill="midnightblue" stroke="midnightblue" points="578.29,-137 588.29,-133.5 578.29,-130 578.29,-137"/>
</g>
<!-- Node6&#45;&gt;Node5 -->
<g id="edge10" class="edge">
<title>Node6&#45;&gt;Node5</title>
<path fill="none" stroke="midnightblue" d="M476.21,-143C503.16,-159.85 559.89,-195.31 596.13,-217.96"/>
<polygon fill="midnightblue" stroke="midnightblue" points="594.53,-221.09 604.87,-223.42 598.24,-215.15 594.53,-221.09"/>
</g>
<!-- Node6&#45;&gt;Node6 -->
<g id="edge11" class="edge">
<title>Node6&#45;&gt;Node6</title>
<path fill="none" stroke="midnightblue" d="M438.73,-143.26C428.38,-152.07 435.47,-161.5 460,-161.5 475.71,-161.5 484.27,-157.63 485.67,-152.53"/>
<polygon fill="midnightblue" stroke="midnightblue" points="488.72,-150.79 481.27,-143.26 482.39,-153.79 488.72,-150.79"/>
</g>
<!-- Node6&#45;&gt;Node7 -->
<g id="edge13" class="edge">
<title>Node6&#45;&gt;Node7</title>
<path fill="none" stroke="midnightblue" d="M489.88,-123.87C521.57,-113.31 572.01,-96.5 602.65,-86.28"/>
<polygon fill="midnightblue" stroke="midnightblue" points="603.85,-89.57 612.23,-83.09 601.64,-82.93 603.85,-89.57"/>
</g>
<!-- Node6&#45;&gt;Node8 -->
<g id="edge15" class="edge">
<title>Node6&#45;&gt;Node8</title>
<path fill="none" stroke="midnightblue" d="M473.09,-123.94C491.66,-109.37 528.48,-80.92 561,-58.5 572.07,-50.87 584.43,-42.89 595.54,-35.92"/>
<polygon fill="midnightblue" stroke="midnightblue" points="597.51,-38.82 604.14,-30.56 593.8,-32.88 597.51,-38.82"/>
</g>
<!-- Node7&#45;&gt;Node7 -->
<g id="edge14" class="edge">
<title>Node7&#45;&gt;Node7</title>
<path fill="none" stroke="midnightblue" d="M612.18,-82.86C588.7,-92.58 594.64,-105.5 630,-105.5 659.84,-105.5 668.73,-96.3 656.67,-87.59"/>
<polygon fill="midnightblue" stroke="midnightblue" points="658.29,-84.48 647.82,-82.86 654.99,-90.66 658.29,-84.48"/>
</g>
<!-- Node8&#45;&gt;Node8 -->
<g id="edge16" class="edge">
<title>Node8&#45;&gt;Node8</title>
<path fill="none" stroke="midnightblue" d="M600.37,-30.66C593.23,-40.06 603.11,-49 630,-49 646.39,-49 656.46,-45.68 660.21,-40.96"/>
<polygon fill="midnightblue" stroke="midnightblue" points="663.68,-40.45 659.63,-30.66 656.69,-40.84 663.68,-40.45"/>
</g>
<!-- Node9&#45;&gt;Node1 -->
<g id="edge21" class="edge">
<title>Node9&#45;&gt;Node1</title>
<path fill="none" stroke="midnightblue" d="M296.59,-233.01C255.94,-247.91 170.84,-271.89 110,-239.5 75.24,-220.99 54.26,-177.41 44.53,-151.95"/>
<polygon fill="midnightblue" stroke="midnightblue" points="47.72,-150.49 41.04,-142.27 41.14,-152.86 47.72,-150.49"/>
</g>
<!-- Node9&#45;&gt;Node2 -->
<g id="edge19" class="edge">
<title>Node9&#45;&gt;Node2</title>
<path fill="none" stroke="midnightblue" d="M358.35,-222.7C366.62,-222.52 375.69,-222.32 384.9,-222.12"/>
<polygon fill="midnightblue" stroke="midnightblue" points="385,-225.62 394.92,-221.9 384.85,-218.62 385,-225.62"/>
</g>
<!-- Node9&#45;&gt;Node4 -->
<g id="edge22" class="edge">
<title>Node9&#45;&gt;Node4</title>
<path fill="none" stroke="midnightblue" d="M283.84,-224.95C246.72,-222.8 189.79,-216.36 156.29,-210.4"/>
<polygon fill="midnightblue" stroke="midnightblue" points="156.77,-206.92 146.29,-208.48 155.45,-213.8 156.77,-206.92"/>
</g>
<!-- Node9&#45;&gt;Node6 -->
<g id="edge20" class="edge">
<title>Node9&#45;&gt;Node6</title>
<path fill="none" stroke="midnightblue" d="M336.66,-213.87C360.45,-198.24 407.66,-167.23 435.97,-148.63"/>
<polygon fill="midnightblue" stroke="midnightblue" points="438.01,-151.48 444.44,-143.06 434.16,-145.63 438.01,-151.48"/>
</g>
<!-- Node9&#45;&gt;Node9 -->
<g id="edge23" class="edge">
<title>Node9&#45;&gt;Node9</title>
<path fill="none" stroke="midnightblue" d="M304.66,-233.26C296.71,-242.07 302.16,-251.5 321,-251.5 332.77,-251.5 339.32,-247.81 340.63,-242.9"/>
<polygon fill="midnightblue" stroke="midnightblue" points="343.88,-241.59 337.34,-233.26 337.26,-243.85 343.88,-241.59"/>
</g>
<!-- Node10&#45;&gt;Node9 -->
<g id="edge26" class="edge">
<title>Node10&#45;&gt;Node9</title>
<path fill="none" stroke="midnightblue" d="M234.67,-180.22C250.72,-188.36 273.86,-200.1 291.99,-209.3"/>
<polygon fill="midnightblue" stroke="midnightblue" points="290.45,-212.44 300.95,-213.84 293.62,-206.2 290.45,-212.44"/>
</g>
<!-- Node10&#45;&gt;Node10 -->
<g id="edge27" class="edge">
<title>Node10&#45;&gt;Node10</title>
<path fill="none" stroke="midnightblue" d="M201.24,-180.26C194.8,-189.07 199.21,-198.5 214.5,-198.5 224.05,-198.5 229.36,-194.81 230.43,-189.9"/>
<polygon fill="midnightblue" stroke="midnightblue" points="233.8,-188.96 227.76,-180.26 227.05,-190.83 233.8,-188.96"/>
</g>
<!-- Node11 -->
<g id="node11" class="node">
<title>Node11</title>
<g id="a_node11"><a xlink:href="classrare_1_1launcher_1_1_rare_launcher.html#aead78a8c5e26925de34e45d4aae39b4e" target="_top" xlink:title=" ">
<polygon fill="white" stroke="black" points="283,-161 283,-180 359,-180 359,-161 283,-161"/>
<text text-anchor="middle" x="321" y="-168" font-family="Helvetica,sans-Serif" font-size="10.00">__sync_ready</text>
</a>
</g>
</g>
<!-- Node10&#45;&gt;Node11 -->
<g id="edge25" class="edge">
<title>Node10&#45;&gt;Node11</title>
<path fill="none" stroke="midnightblue" d="M247.14,-170.5C255.25,-170.5 264.16,-170.5 272.88,-170.5"/>
<polygon fill="midnightblue" stroke="midnightblue" points="272.96,-174 282.96,-170.5 272.96,-167 272.96,-174"/>
</g>
</g>
</svg>
        <g id="navigator" transform="translate(0 0)" fill="#404254">
                <rect fill="#f2f5e9" fill-opacity="0.5" stroke="#606060" stroke-width=".5" x="0" y="0" width="60" height="60"/>
                <use id="zoomplus" xlink:href="#zoomPlus" x="17" y="9" onmousedown="handleZoom(evt,'in')"/>
                <use id="zoomminus" xlink:href="#zoomMin" x="42" y="9" onmousedown="handleZoom(evt,'out')"/>
                <use id="reset" xlink:href="#resetDef" x="30" y="36" onmousedown="handleReset()"/>
                <g id="arrowUp" xlink:href="#dirArrow" transform="translate(30 24)" onmousedown="handlePan(0,-1)">
                  <use xlink:href="#rim" fill="#404040">
                        <set attributeName="fill" to="#808080" begin="arrowUp.mouseover" end="arrowUp.mouseout"/>
                  </use>
                  <path fill="none" stroke="white" stroke-width="1.5" d="M0,-3.0v7 M-2.5,-0.5L0,-3.0L2.5,-0.5"/>
                </g>
                <g id="arrowRight" xlink:href="#dirArrow" transform="rotate(90) translate(36 -43)" onmousedown="handlePan(1,0)">
                  <use xlink:href="#rim" fill="#404040">
                        <set attributeName="fill" to="#808080" begin="arrowRight.mouseover" end="arrowRight.mouseout"/>
                  </use>
                  <path fill="none" stroke="white" stroke-width="1.5" d="M0,-3.0v7 M-2.5,-0.5L0,-3.0L2.5,-0.5"/>
                </g>
                <g id="arrowDown" xlink:href="#dirArrow" transform="rotate(180) translate(-30 -48)" onmousedown="handlePan(0,1)">
                  <use xlink:href="#rim" fill="#404040">
                        <set attributeName="fill" to="#808080" begin="arrowDown.mouseover" end="arrowDown.mouseout"/>
                  </use>
                  <path fill="none" stroke="white" stroke-width="1.5" d="M0,-3.0v7 M-2.5,-0.5L0,-3.0L2.5,-0.5"/>
                </g>
                <g id="arrowLeft" xlink:href="#dirArrow" transform="rotate(270) translate(-36 17)" onmousedown="handlePan(-1,0)">
                  <use xlink:href="#rim" fill="#404040">
                        <set attributeName="fill" to="#808080" begin="arrowLeft.mouseover" end="arrowLeft.mouseout"/>
                  </use>
                  <path fill="none" stroke="white" stroke-width="1.5" d="M0,-3.0v7 M-2.5,-0.5L0,-3.0L2.5,-0.5"/>
                </g>
        </g>
        <svg viewBox="0 0 15 15" width="100%" height="30px" preserveAspectRatio="xMaxYMin meet">
         <g id="arrow_out" transform="scale(0.3 0.3)">
          <a xlink:href="classrare_1_1launcher_1_1_rare_launcher_a62864ecc73de3f9e4a009737d0c01f01_cgraph_org.svg" target="_base">
           <rect id="button" ry="5" rx="5" y="6" x="6" height="38" width="38"
                fill="#f2f5e9" fill-opacity="0.5" stroke="#606060" stroke-width="1.0"/>
           <path id="arrow"
             d="M 11.500037,31.436501 C 11.940474,20.09759 22.043105,11.32322 32.158766,21.979434 L 37.068811,17.246167 C 37.068811,17.246167 37.088388,32 37.088388,32 L 22.160133,31.978069 C 22.160133,31.978069 26.997745,27.140456 26.997745,27.140456 C 18.528582,18.264221 13.291696,25.230495 11.500037,31.436501 z"
             style="fill:#404040;"/>
          </a>
         </g>
        </svg>
</svg>
