<?xml version="1.0" encoding="UTF-8" standalone="no"?>
<!DOCTYPE svg PUBLIC "-//W3C//DTD SVG 1.1//EN"
 "http://www.w3.org/Graphics/SVG/1.1/DTD/svg11.dtd">
<!-- Generated by graphviz version 2.49.3 (20211027.1534)
 -->
<!-- Title: compressed Pages: 1 -->
<!--zoomable 170 -->
<svg id="main" version="1.1" xmlns="http://www.w3.org/2000/svg" xmlns:xlink="http://www.w3.org/1999/xlink" xml:space="preserve" onload="init(evt)">
<style type="text/css"><![CDATA[
.edge:hover path { stroke: red; }
.edge:hover polygon { stroke: red; fill: red; }
]]></style>
<script type="text/javascript"><![CDATA[
var edges = document.getElementsByTagName('g');
if (edges && edges.length) {
  for (var i=0;i<edges.length;i++) {
    if (edges[i].id.substr(0,4)=='edge') {
      edges[i].setAttribute('class','edge');
    }
  }
}
]]></script>
        <defs>
                <circle id="rim" cx="0" cy="0" r="7"/>
                <circle id="rim2" cx="0" cy="0" r="3.5"/>
                <g id="zoomPlus">
                        <use xlink:href="#rim" fill="#404040">
                                <set attributeName="fill" to="#808080" begin="zoomplus.mouseover" end="zoomplus.mouseout"/>
                        </use>
                        <path d="M-4,0h8M0,-4v8" fill="none" stroke="white" stroke-width="1.5" pointer-events="none"/>
                </g>
                <g id="zoomMin">
                        <use xlink:href="#rim" fill="#404040">
                                <set attributeName="fill" to="#808080" begin="zoomminus.mouseover" end="zoomminus.mouseout"/>
                        </use>
                        <path d="M-4,0h8" fill="none" stroke="white" stroke-width="1.5" pointer-events="none"/>
                </g>
                <g id="dirArrow">
                        <path fill="none" stroke="white" stroke-width="1.5" d="M0,-3.0v7 M-2.5,-0.5L0,-3.0L2.5,-0.5"/>
                </g>
               <g id="resetDef">
                       <use xlink:href="#rim2" fill="#404040">
                               <set attributeName="fill" to="#808080" begin="reset.mouseover" end="reset.mouseout"/>
                       </use>
               </g>
        </defs>

<script type="text/javascript">
var viewWidth = 689;
var viewHeight = 170;
var sectionId = 'dynsection-5';
</script>
<script xlink:href="svgpan.js"/>
<svg id="graph" class="graph">
<g id="viewport">
<title>compressed</title>
<polygon fill="white" stroke="transparent" points="-4,4 -4,-166 685,-166 685,4 -4,4"/>
<!-- Node1 -->
<g id="node1" class="node">
<title>Node1</title>
<g id="a_node1"><a xlink:title=" ">
<polygon fill="#bfbfbf" stroke="black" points="611,-62.5 611,-81.5 681,-81.5 681,-62.5 611,-62.5"/>
<text text-anchor="middle" x="646" y="-69.5" font-family="Helvetica,sans-Serif" font-size="10.00">compressed</text>
</a>
</g>
</g>
<!-- Node1&#45;&gt;Node1 -->
<g id="edge1" class="edge">
<title>Node1&#45;&gt;Node1</title>
<path fill="none" stroke="midnightblue" d="M675.12,-90.65C673.9,-95.94 664.2,-100 646,-100 618.27,-100 610.26,-90.57 621.96,-81.76"/>
<polygon fill="midnightblue" stroke="midnightblue" points="678.04,-88.71 670.04,-81.76 671.96,-92.18 678.04,-88.71"/>
</g>
<!-- Node2 -->
<g id="node2" class="node">
<title>Node2</title>
<g id="a_node2"><a xlink:href="classlegendary_1_1models_1_1chunk_1_1_chunk.html#a5819dc329e23039232a8920a90508ea3" target="_top" xlink:title=" ">
<polygon fill="white" stroke="black" points="404,-62.5 404,-81.5 575,-81.5 575,-62.5 404,-62.5"/>
<text text-anchor="middle" x="489.5" y="-69.5" font-family="Helvetica,sans-Serif" font-size="10.00">legendary.models.chunk.Chunk.data</text>
</a>
</g>
</g>
<!-- Node1&#45;&gt;Node2 -->
<g id="edge2" class="edge">
<title>Node1&#45;&gt;Node2</title>
<path fill="none" stroke="midnightblue" d="M600.55,-72C592.54,-72 583.95,-72 575.24,-72"/>
<polygon fill="midnightblue" stroke="midnightblue" points="600.71,-75.5 610.71,-72 600.71,-68.5 600.71,-75.5"/>
</g>
<!-- Node5 -->
<g id="node5" class="node">
<title>Node5</title>
<g id="a_node5"><a xlink:href="classlegendary_1_1models_1_1chunk_1_1_chunk.html#ad96d10b22b5c7b8b53103b5c0e0e0928" target="_top" xlink:title=" ">
<polygon fill="white" stroke="black" points="195,-124.5 195,-143.5 368,-143.5 368,-124.5 195,-124.5"/>
<text text-anchor="middle" x="281.5" y="-131.5" font-family="Helvetica,sans-Serif" font-size="10.00">legendary.models.chunk.Chunk.write</text>
</a>
</g>
</g>
<!-- Node1&#45;&gt;Node5 -->
<g id="edge12" class="edge">
<title>Node1&#45;&gt;Node5</title>
<path fill="none" stroke="midnightblue" d="M622.14,-87.09C608.93,-95.03 591.66,-104.1 575,-109 507.4,-128.86 427.5,-134.56 368.31,-135.6"/>
<polygon fill="midnightblue" stroke="midnightblue" points="624.34,-89.85 630.98,-81.59 620.64,-83.9 624.34,-89.85"/>
</g>
<!-- Node6 -->
<g id="node6" class="node">
<title>Node6</title>
<g id="a_node6"><a xlink:href="classlegendary_1_1models_1_1manifest_1_1_manifest.html#ad96d10b22b5c7b8b53103b5c0e0e0928" target="_top" xlink:title=" ">
<polygon fill="white" stroke="black" points="262.5,-0.5 262.5,-19.5 300.5,-19.5 300.5,-0.5 262.5,-0.5"/>
<text text-anchor="middle" x="281.5" y="-7.5" font-family="Helvetica,sans-Serif" font-size="10.00">write</text>
</a>
</g>
</g>
<!-- Node1&#45;&gt;Node6 -->
<g id="edge13" class="edge">
<title>Node1&#45;&gt;Node6</title>
<path fill="none" stroke="midnightblue" d="M603.33,-59.82C594.06,-57.35 584.23,-54.92 575,-53 472.24,-31.58 347.01,-16.94 300.77,-11.92"/>
<polygon fill="midnightblue" stroke="midnightblue" points="602.56,-63.24 613.13,-62.49 604.41,-56.48 602.56,-63.24"/>
</g>
<!-- Node2&#45;&gt;Node2 -->
<g id="edge3" class="edge">
<title>Node2&#45;&gt;Node2</title>
<path fill="none" stroke="midnightblue" d="M518.62,-90.65C517.4,-95.94 507.7,-100 489.5,-100 461.77,-100 453.76,-90.57 465.46,-81.76"/>
<polygon fill="midnightblue" stroke="midnightblue" points="521.54,-88.71 513.54,-81.76 515.46,-92.18 521.54,-88.71"/>
</g>
<!-- Node3 -->
<g id="node3" class="node">
<title>Node3</title>
<g id="a_node3"><a xlink:href="classrare_1_1components_1_1dialogs_1_1install__dialog_1_1_q_data_check_box.html#a5ff6323ce25317c7925d5a8012b1f6ea" target="_top" xlink:title=" ">
<polygon fill="white" stroke="black" points="196.5,-57 196.5,-87 366.5,-87 366.5,-57 196.5,-57"/>
<text text-anchor="start" x="204.5" y="-75" font-family="Helvetica,sans-Serif" font-size="10.00">rare.components.dialogs.install</text>
<text text-anchor="middle" x="281.5" y="-64" font-family="Helvetica,sans-Serif" font-size="10.00">_dialog.QDataCheckBox.isChecked</text>
</a>
</g>
</g>
<!-- Node2&#45;&gt;Node3 -->
<g id="edge4" class="edge">
<title>Node2&#45;&gt;Node3</title>
<path fill="none" stroke="midnightblue" d="M393.65,-72C384.6,-72 375.46,-72 366.52,-72"/>
<polygon fill="midnightblue" stroke="midnightblue" points="393.82,-75.5 403.82,-72 393.82,-68.5 393.82,-75.5"/>
</g>
<!-- Node2&#45;&gt;Node5 -->
<g id="edge8" class="edge">
<title>Node2&#45;&gt;Node5</title>
<path fill="none" stroke="midnightblue" d="M454.97,-85.23C431,-94.38 397.83,-106.4 368,-115 355.87,-118.5 342.62,-121.72 330.25,-124.49"/>
<polygon fill="midnightblue" stroke="midnightblue" points="456.25,-88.49 464.33,-81.63 453.74,-81.95 456.25,-88.49"/>
</g>
<!-- Node2&#45;&gt;Node6 -->
<g id="edge10" class="edge">
<title>Node2&#45;&gt;Node6</title>
<path fill="none" stroke="midnightblue" d="M447.05,-59.53C402.29,-46.05 333.02,-25.2 300.51,-15.42"/>
<polygon fill="midnightblue" stroke="midnightblue" points="446.18,-62.92 456.76,-62.45 448.2,-56.21 446.18,-62.92"/>
</g>
<!-- Node3&#45;&gt;Node3 -->
<g id="edge7" class="edge">
<title>Node3&#45;&gt;Node3</title>
<path fill="none" stroke="midnightblue" d="M317.39,-97.46C312.94,-102.18 300.97,-105.5 281.5,-105.5 249.54,-105.5 237.81,-96.56 246.3,-87.16"/>
<polygon fill="midnightblue" stroke="midnightblue" points="320.86,-96.9 316.7,-87.16 313.88,-97.37 320.86,-96.9"/>
</g>
<!-- Node4 -->
<g id="node4" class="node">
<title>Node4</title>
<g id="a_node4"><a xlink:href="classrare_1_1components_1_1tabs_1_1shop_1_1shop__widget_1_1_check_box.html#a8b64389a338c017bf6d5987eda346be6" target="_top" xlink:title=" ">
<polygon fill="white" stroke="black" points="0,-57 0,-87 159,-87 159,-57 0,-57"/>
<text text-anchor="start" x="8" y="-75" font-family="Helvetica,sans-Serif" font-size="10.00">rare.components.tabs.shop.shop</text>
<text text-anchor="middle" x="79.5" y="-64" font-family="Helvetica,sans-Serif" font-size="10.00">_widget.CheckBox.handle_toggle</text>
</a>
</g>
</g>
<!-- Node3&#45;&gt;Node4 -->
<g id="edge5" class="edge">
<title>Node3&#45;&gt;Node4</title>
<path fill="none" stroke="midnightblue" d="M186.13,-72C177.13,-72 168.06,-72 159.22,-72"/>
<polygon fill="midnightblue" stroke="midnightblue" points="186.26,-75.5 196.26,-72 186.26,-68.5 186.26,-75.5"/>
</g>
<!-- Node4&#45;&gt;Node4 -->
<g id="edge6" class="edge">
<title>Node4&#45;&gt;Node4</title>
<path fill="none" stroke="midnightblue" d="M115.39,-97.46C110.94,-102.18 98.97,-105.5 79.5,-105.5 47.54,-105.5 35.81,-96.56 44.3,-87.16"/>
<polygon fill="midnightblue" stroke="midnightblue" points="118.86,-96.9 114.7,-87.16 111.88,-97.37 118.86,-96.9"/>
</g>
<!-- Node5&#45;&gt;Node5 -->
<g id="edge9" class="edge">
<title>Node5&#45;&gt;Node5</title>
<path fill="none" stroke="midnightblue" d="M319.37,-151.5C319.37,-157.34 306.74,-162 281.5,-162 245.6,-162 235.22,-152.57 250.37,-143.76"/>
<polygon fill="midnightblue" stroke="midnightblue" points="321.84,-149 312.63,-143.76 316.56,-153.6 321.84,-149"/>
</g>
<!-- Node6&#45;&gt;Node6 -->
<g id="edge11" class="edge">
<title>Node6&#45;&gt;Node6</title>
<path fill="none" stroke="midnightblue" d="M310.02,-18.37C328.8,-27.54 319.3,-38 281.5,-38 238.5,-38 232.11,-24.46 262.35,-14.68"/>
<polygon fill="midnightblue" stroke="midnightblue" points="311.24,-15.09 300.65,-14.68 308.67,-21.6 311.24,-15.09"/>
</g>
</g>
</svg>
        <g id="navigator" transform="translate(0 0)" fill="#404254">
                <rect fill="#f2f5e9" fill-opacity="0.5" stroke="#606060" stroke-width=".5" x="0" y="0" width="60" height="60"/>
                <use id="zoomplus" xlink:href="#zoomPlus" x="17" y="9" onmousedown="handleZoom(evt,'in')"/>
                <use id="zoomminus" xlink:href="#zoomMin" x="42" y="9" onmousedown="handleZoom(evt,'out')"/>
                <use id="reset" xlink:href="#resetDef" x="30" y="36" onmousedown="handleReset()"/>
                <g id="arrowUp" xlink:href="#dirArrow" transform="translate(30 24)" onmousedown="handlePan(0,-1)">
                  <use xlink:href="#rim" fill="#404040">
                        <set attributeName="fill" to="#808080" begin="arrowUp.mouseover" end="arrowUp.mouseout"/>
                  </use>
                  <path fill="none" stroke="white" stroke-width="1.5" d="M0,-3.0v7 M-2.5,-0.5L0,-3.0L2.5,-0.5"/>
                </g>
                <g id="arrowRight" xlink:href="#dirArrow" transform="rotate(90) translate(36 -43)" onmousedown="handlePan(1,0)">
                  <use xlink:href="#rim" fill="#404040">
                        <set attributeName="fill" to="#808080" begin="arrowRight.mouseover" end="arrowRight.mouseout"/>
                  </use>
                  <path fill="none" stroke="white" stroke-width="1.5" d="M0,-3.0v7 M-2.5,-0.5L0,-3.0L2.5,-0.5"/>
                </g>
                <g id="arrowDown" xlink:href="#dirArrow" transform="rotate(180) translate(-30 -48)" onmousedown="handlePan(0,1)">
                  <use xlink:href="#rim" fill="#404040">
                        <set attributeName="fill" to="#808080" begin="arrowDown.mouseover" end="arrowDown.mouseout"/>
                  </use>
                  <path fill="none" stroke="white" stroke-width="1.5" d="M0,-3.0v7 M-2.5,-0.5L0,-3.0L2.5,-0.5"/>
                </g>
                <g id="arrowLeft" xlink:href="#dirArrow" transform="rotate(270) translate(-36 17)" onmousedown="handlePan(-1,0)">
                  <use xlink:href="#rim" fill="#404040">
                        <set attributeName="fill" to="#808080" begin="arrowLeft.mouseover" end="arrowLeft.mouseout"/>
                  </use>
                  <path fill="none" stroke="white" stroke-width="1.5" d="M0,-3.0v7 M-2.5,-0.5L0,-3.0L2.5,-0.5"/>
                </g>
        </g>
        <svg viewBox="0 0 15 15" width="100%" height="30px" preserveAspectRatio="xMaxYMin meet">
         <g id="arrow_out" transform="scale(0.3 0.3)">
          <a xlink:href="classlegendary_1_1models_1_1manifest_1_1_manifest_a6813edf8ebe1032140f887ee56913b76_icgraph_org.svg" target="_base">
           <rect id="button" ry="5" rx="5" y="6" x="6" height="38" width="38"
                fill="#f2f5e9" fill-opacity="0.5" stroke="#606060" stroke-width="1.0"/>
           <path id="arrow"
             d="M 11.500037,31.436501 C 11.940474,20.09759 22.043105,11.32322 32.158766,21.979434 L 37.068811,17.246167 C 37.068811,17.246167 37.088388,32 37.088388,32 L 22.160133,31.978069 C 22.160133,31.978069 26.997745,27.140456 26.997745,27.140456 C 18.528582,18.264221 13.291696,25.230495 11.500037,31.436501 z"
             style="fill:#404040;"/>
          </a>
         </g>
        </svg>
</svg>
