<?xml version="1.0" encoding="UTF-8" standalone="no"?>
<!DOCTYPE svg PUBLIC "-//W3C//DTD SVG 1.1//EN"
 "http://www.w3.org/Graphics/SVG/1.1/DTD/svg11.dtd">
<!-- Generated by graphviz version 2.49.3 (20211027.1534)
 -->
<!-- Title: show_game_info Pages: 1 -->
<svg width="719pt" height="270pt"
 viewBox="0.00 0.00 719.00 269.50" xmlns="http://www.w3.org/2000/svg" xmlns:xlink="http://www.w3.org/1999/xlink">
<g id="graph0" class="graph" transform="scale(1 1) rotate(0) translate(4 265.5)">
<title>show_game_info</title>
<polygon fill="white" stroke="transparent" points="-4,4 -4,-265.5 715,-265.5 715,4 -4,4"/>
<!-- Node1 -->
<g id="node1" class="node">
<title>Node1</title>
<g id="a_node1"><a xlink:title=" ">
<polygon fill="#bfbfbf" stroke="black" points="621,-110 621,-129 711,-129 711,-110 621,-110"/>
<text text-anchor="middle" x="666" y="-117" font-family="Helvetica,sans-Serif" font-size="10.00">show_game_info</text>
</a>
</g>
</g>
<!-- Node1&#45;&gt;Node1 -->
<g id="edge18" class="edge">
<title>Node1&#45;&gt;Node1</title>
<path fill="none" stroke="midnightblue" d="M697.06,-137.77C696.18,-143.24 685.82,-147.5 666,-147.5 636.5,-147.5 627.97,-138.07 640.41,-129.26"/>
<polygon fill="midnightblue" stroke="midnightblue" points="699.94,-135.77 691.59,-129.26 694.05,-139.56 699.94,-135.77"/>
</g>
<!-- Node2 -->
<g id="node2" class="node">
<title>Node2</title>
<g id="a_node2"><a xlink:href="classrare_1_1components_1_1tabs_1_1games_1_1_games_tab.html#a18eb918c38e326a54666699b7ba4b686" target="_top" xlink:title=" ">
<polygon fill="white" stroke="black" points="451,-162 451,-181 548,-181 548,-162 451,-162"/>
<text text-anchor="middle" x="499.5" y="-169" font-family="Helvetica,sans-Serif" font-size="10.00">add_library_widget</text>
</a>
</g>
</g>
<!-- Node1&#45;&gt;Node2 -->
<g id="edge1" class="edge">
<title>Node1&#45;&gt;Node2</title>
<path fill="none" stroke="midnightblue" d="M624.99,-132.15C595.95,-141.33 557.25,-153.56 530.76,-161.93"/>
<polygon fill="midnightblue" stroke="midnightblue" points="626.35,-135.39 634.83,-129.04 624.24,-128.71 626.35,-135.39"/>
</g>
<!-- Node5 -->
<g id="node5" class="node">
<title>Node5</title>
<g id="a_node5"><a xlink:href="classrare_1_1components_1_1tabs_1_1store_1_1wishlist_1_1_wishlist.html#a7121fb58d29cad3edf2ebb23d073256a" target="_top" xlink:title=" ">
<polygon fill="white" stroke="black" points="414,-73.5 414,-103.5 585,-103.5 585,-73.5 414,-73.5"/>
<text text-anchor="start" x="422" y="-91.5" font-family="Helvetica,sans-Serif" font-size="10.00">rare.components.tabs.store.wishlist.</text>
<text text-anchor="middle" x="499.5" y="-80.5" font-family="Helvetica,sans-Serif" font-size="10.00">Wishlist.set_wishlist</text>
</a>
</g>
</g>
<!-- Node1&#45;&gt;Node5 -->
<g id="edge7" class="edge">
<title>Node1&#45;&gt;Node5</title>
<path fill="none" stroke="midnightblue" d="M610.92,-109.31C601.1,-107.46 590.66,-105.49 580.27,-103.53"/>
<polygon fill="midnightblue" stroke="midnightblue" points="610.44,-112.78 620.92,-111.19 611.74,-105.9 610.44,-112.78"/>
</g>
<!-- Node2&#45;&gt;Node2 -->
<g id="edge2" class="edge">
<title>Node2&#45;&gt;Node2</title>
<path fill="none" stroke="midnightblue" d="M530.56,-189.77C529.68,-195.24 519.32,-199.5 499.5,-199.5 470,-199.5 461.47,-190.07 473.91,-181.26"/>
<polygon fill="midnightblue" stroke="midnightblue" points="533.44,-187.77 525.09,-181.26 527.55,-191.56 533.44,-187.77"/>
</g>
<!-- Node3 -->
<g id="node3" class="node">
<title>Node3</title>
<g id="a_node3"><a xlink:href="classrare_1_1components_1_1tabs_1_1games_1_1_games_tab.html#a37be1d1b33c53f64209fe3f0f70984a5" target="_top" xlink:title=" ">
<polygon fill="white" stroke="black" points="248.5,-203 248.5,-222 336.5,-222 336.5,-203 248.5,-203"/>
<text text-anchor="middle" x="292.5" y="-210" font-family="Helvetica,sans-Serif" font-size="10.00">setup_game_list</text>
</a>
</g>
</g>
<!-- Node2&#45;&gt;Node3 -->
<g id="edge3" class="edge">
<title>Node2&#45;&gt;Node3</title>
<path fill="none" stroke="midnightblue" d="M440.95,-183.01C407.84,-189.63 366.92,-197.82 336.6,-203.88"/>
<polygon fill="midnightblue" stroke="midnightblue" points="441.83,-186.4 450.95,-181.01 440.46,-179.54 441.83,-186.4"/>
</g>
<!-- Node3&#45;&gt;Node3 -->
<g id="edge4" class="edge">
<title>Node3&#45;&gt;Node3</title>
<path fill="none" stroke="midnightblue" d="M331.11,-229.61C331.68,-235.63 318.82,-240.5 292.5,-240.5 255.89,-240.5 245.3,-231.07 260.75,-222.26"/>
<polygon fill="midnightblue" stroke="midnightblue" points="333.63,-227.19 324.25,-222.26 328.51,-231.96 333.63,-227.19"/>
</g>
<!-- Node4 -->
<g id="node4" class="node">
<title>Node4</title>
<g id="a_node4"><a xlink:href="classrare_1_1components_1_1tabs_1_1games_1_1_games_tab.html#a5b6a943cccc85daffddbc61bb1b9345d" target="_top" xlink:title=" ">
<polygon fill="white" stroke="black" points="53,-224 53,-243 118,-243 118,-224 53,-224"/>
<text text-anchor="middle" x="85.5" y="-231" font-family="Helvetica,sans-Serif" font-size="10.00">showEvent</text>
</a>
</g>
</g>
<!-- Node3&#45;&gt;Node4 -->
<g id="edge5" class="edge">
<title>Node3&#45;&gt;Node4</title>
<path fill="none" stroke="midnightblue" d="M237.64,-218.02C199.64,-221.91 150.02,-226.99 118.2,-230.25"/>
<polygon fill="midnightblue" stroke="midnightblue" points="238.43,-221.45 248.02,-216.95 237.72,-214.49 238.43,-221.45"/>
</g>
<!-- Node4&#45;&gt;Node4 -->
<g id="edge6" class="edge">
<title>Node4&#45;&gt;Node4</title>
<path fill="none" stroke="midnightblue" d="M124.11,-250.61C124.68,-256.63 111.82,-261.5 85.5,-261.5 48.89,-261.5 38.3,-252.07 53.75,-243.26"/>
<polygon fill="midnightblue" stroke="midnightblue" points="126.63,-248.19 117.25,-243.26 121.51,-252.96 126.63,-248.19"/>
</g>
<!-- Node5&#45;&gt;Node5 -->
<g id="edge8" class="edge">
<title>Node5&#45;&gt;Node5</title>
<path fill="none" stroke="midnightblue" d="M529,-113.96C525.34,-118.68 515.5,-122 499.5,-122 473.24,-122 463.6,-113.06 470.57,-103.66"/>
<polygon fill="midnightblue" stroke="midnightblue" points="532.47,-113.45 528.43,-103.66 525.48,-113.84 532.47,-113.45"/>
</g>
<!-- Node6 -->
<g id="node6" class="node">
<title>Node6</title>
<g id="a_node6"><a xlink:href="classrare_1_1components_1_1tabs_1_1store_1_1wishlist_1_1_wishlist.html#a1588283f05f1e5890f0e0dab63904ece" target="_top" xlink:title=" ">
<polygon fill="white" stroke="black" points="207,-73.5 207,-103.5 378,-103.5 378,-73.5 207,-73.5"/>
<text text-anchor="start" x="215" y="-91.5" font-family="Helvetica,sans-Serif" font-size="10.00">rare.components.tabs.store.wishlist.</text>
<text text-anchor="middle" x="292.5" y="-80.5" font-family="Helvetica,sans-Serif" font-size="10.00">Wishlist.update_wishlist</text>
</a>
</g>
</g>
<!-- Node5&#45;&gt;Node6 -->
<g id="edge9" class="edge">
<title>Node5&#45;&gt;Node6</title>
<path fill="none" stroke="midnightblue" d="M403.91,-88.5C395.34,-88.5 386.69,-88.5 378.2,-88.5"/>
<polygon fill="midnightblue" stroke="midnightblue" points="403.94,-92 413.94,-88.5 403.94,-85 403.94,-92"/>
</g>
<!-- Node6&#45;&gt;Node6 -->
<g id="edge17" class="edge">
<title>Node6&#45;&gt;Node6</title>
<path fill="none" stroke="midnightblue" d="M329.1,-113.96C324.56,-118.68 312.36,-122 292.5,-122 259.91,-122 247.94,-113.06 256.6,-103.66"/>
<polygon fill="midnightblue" stroke="midnightblue" points="332.57,-113.4 328.4,-103.66 325.59,-113.87 332.57,-113.4"/>
</g>
<!-- Node7 -->
<g id="node7" class="node">
<title>Node7</title>
<g id="a_node7"><a xlink:href="classrare_1_1components_1_1tabs_1_1store_1_1shop__api__core_1_1_shop_api_core.html#a0ed8f09084c5b3f678964c952b4995fd" target="_top" xlink:title=" ">
<polygon fill="white" stroke="black" points="7,-146 7,-187 164,-187 164,-146 7,-146"/>
<text text-anchor="start" x="15" y="-175" font-family="Helvetica,sans-Serif" font-size="10.00">rare.components.tabs.store.shop</text>
<text text-anchor="start" x="15" y="-164" font-family="Helvetica,sans-Serif" font-size="10.00">_api_core.ShopApiCore.add</text>
<text text-anchor="middle" x="85.5" y="-153" font-family="Helvetica,sans-Serif" font-size="10.00">_to_wishlist</text>
</a>
</g>
</g>
<!-- Node6&#45;&gt;Node7 -->
<g id="edge10" class="edge">
<title>Node6&#45;&gt;Node7</title>
<path fill="none" stroke="midnightblue" d="M245.15,-107.44C222.82,-116.44 195.6,-127.24 171,-136.5 162.7,-139.63 153.9,-142.85 145.24,-145.97"/>
<polygon fill="midnightblue" stroke="midnightblue" points="246.76,-110.56 254.72,-103.57 244.14,-104.07 246.76,-110.56"/>
</g>
<!-- Node8 -->
<g id="node8" class="node">
<title>Node8</title>
<g id="a_node8"><a xlink:href="classrare_1_1components_1_1tabs_1_1store_1_1wishlist_1_1_wishlist.html#af3c7e539406b02c61ba2f2217a5cdf17" target="_top" xlink:title=" ">
<polygon fill="white" stroke="black" points="0,-0.5 0,-30.5 171,-30.5 171,-0.5 0,-0.5"/>
<text text-anchor="start" x="8" y="-18.5" font-family="Helvetica,sans-Serif" font-size="10.00">rare.components.tabs.store.wishlist.</text>
<text text-anchor="middle" x="85.5" y="-7.5" font-family="Helvetica,sans-Serif" font-size="10.00">Wishlist.delete_from_wishlist</text>
</a>
</g>
</g>
<!-- Node6&#45;&gt;Node8 -->
<g id="edge12" class="edge">
<title>Node6&#45;&gt;Node8</title>
<path fill="none" stroke="midnightblue" d="M239.21,-69.88C205.02,-57.7 160.93,-42 128.92,-30.61"/>
<polygon fill="midnightblue" stroke="midnightblue" points="238.43,-73.32 249.02,-73.37 240.78,-66.72 238.43,-73.32"/>
</g>
<!-- Node9 -->
<g id="node9" class="node">
<title>Node9</title>
<g id="a_node9"><a xlink:href="classrare_1_1components_1_1tabs_1_1store_1_1shop__api__core_1_1_shop_api_core.html#a2c92258495c9a5c9f54e517068ed965b" target="_top" xlink:title=" ">
<polygon fill="white" stroke="black" points="7,-68 7,-109 164,-109 164,-68 7,-68"/>
<text text-anchor="start" x="15" y="-97" font-family="Helvetica,sans-Serif" font-size="10.00">rare.components.tabs.store.shop</text>
<text text-anchor="start" x="15" y="-86" font-family="Helvetica,sans-Serif" font-size="10.00">_api_core.ShopApiCore.remove</text>
<text text-anchor="middle" x="85.5" y="-75" font-family="Helvetica,sans-Serif" font-size="10.00">_from_wishlist</text>
</a>
</g>
</g>
<!-- Node6&#45;&gt;Node9 -->
<g id="edge15" class="edge">
<title>Node6&#45;&gt;Node9</title>
<path fill="none" stroke="midnightblue" d="M196.61,-88.5C185.79,-88.5 174.86,-88.5 164.29,-88.5"/>
<polygon fill="midnightblue" stroke="midnightblue" points="196.94,-92 206.94,-88.5 196.94,-85 196.94,-92"/>
</g>
<!-- Node7&#45;&gt;Node7 -->
<g id="edge11" class="edge">
<title>Node7&#45;&gt;Node7</title>
<path fill="none" stroke="midnightblue" d="M120.94,-197.36C115.67,-202.2 103.86,-205.5 85.5,-205.5 56.13,-205.5 43.51,-197.04 47.64,-187.36"/>
<polygon fill="midnightblue" stroke="midnightblue" points="124.41,-197.91 123.36,-187.36 117.61,-196.26 124.41,-197.91"/>
</g>
<!-- Node8&#45;&gt;Node5 -->
<g id="edge14" class="edge">
<title>Node8&#45;&gt;Node5</title>
<path fill="none" stroke="midnightblue" d="M181.22,-30.68C238.3,-40.02 312.41,-52.46 378,-64.5 393.21,-67.29 409.47,-70.43 424.97,-73.49"/>
<polygon fill="midnightblue" stroke="midnightblue" points="181.56,-27.19 171.12,-29.04 180.43,-34.1 181.56,-27.19"/>
</g>
<!-- Node8&#45;&gt;Node8 -->
<g id="edge13" class="edge">
<title>Node8&#45;&gt;Node8</title>
<path fill="none" stroke="midnightblue" d="M122.1,-40.96C117.56,-45.68 105.36,-49 85.5,-49 52.91,-49 40.94,-40.06 49.6,-30.66"/>
<polygon fill="midnightblue" stroke="midnightblue" points="125.57,-40.4 121.4,-30.66 118.59,-40.87 125.57,-40.4"/>
</g>
<!-- Node9&#45;&gt;Node9 -->
<g id="edge16" class="edge">
<title>Node9&#45;&gt;Node9</title>
<path fill="none" stroke="midnightblue" d="M120.94,-119.36C115.67,-124.2 103.86,-127.5 85.5,-127.5 56.13,-127.5 43.51,-119.04 47.64,-109.36"/>
<polygon fill="midnightblue" stroke="midnightblue" points="124.41,-119.91 123.36,-109.36 117.61,-118.26 124.41,-119.91"/>
</g>
</g>
</svg>
