<?xml version="1.0" encoding="UTF-8" standalone="no"?>
<!DOCTYPE svg PUBLIC "-//W3C//DTD SVG 1.1//EN"
 "http://www.w3.org/Graphics/SVG/1.1/DTD/svg11.dtd">
<!-- Generated by graphviz version 2.49.3 (20211027.1534)
 -->
<!-- Title: count Pages: 1 -->
<!--zoomable 633 -->
<svg id="main" version="1.1" xmlns="http://www.w3.org/2000/svg" xmlns:xlink="http://www.w3.org/1999/xlink" xml:space="preserve" onload="init(evt)">
<style type="text/css"><![CDATA[
.edge:hover path { stroke: red; }
.edge:hover polygon { stroke: red; fill: red; }
]]></style>
<script type="text/javascript"><![CDATA[
var edges = document.getElementsByTagName('g');
if (edges && edges.length) {
  for (var i=0;i<edges.length;i++) {
    if (edges[i].id.substr(0,4)=='edge') {
      edges[i].setAttribute('class','edge');
    }
  }
}
]]></script>
        <defs>
                <circle id="rim" cx="0" cy="0" r="7"/>
                <circle id="rim2" cx="0" cy="0" r="3.5"/>
                <g id="zoomPlus">
                        <use xlink:href="#rim" fill="#404040">
                                <set attributeName="fill" to="#808080" begin="zoomplus.mouseover" end="zoomplus.mouseout"/>
                        </use>
                        <path d="M-4,0h8M0,-4v8" fill="none" stroke="white" stroke-width="1.5" pointer-events="none"/>
                </g>
                <g id="zoomMin">
                        <use xlink:href="#rim" fill="#404040">
                                <set attributeName="fill" to="#808080" begin="zoomminus.mouseover" end="zoomminus.mouseout"/>
                        </use>
                        <path d="M-4,0h8" fill="none" stroke="white" stroke-width="1.5" pointer-events="none"/>
                </g>
                <g id="dirArrow">
                        <path fill="none" stroke="white" stroke-width="1.5" d="M0,-3.0v7 M-2.5,-0.5L0,-3.0L2.5,-0.5"/>
                </g>
               <g id="resetDef">
                       <use xlink:href="#rim2" fill="#404040">
                               <set attributeName="fill" to="#808080" begin="reset.mouseover" end="reset.mouseout"/>
                       </use>
               </g>
        </defs>

<script type="text/javascript">
var viewWidth = 1134;
var viewHeight = 633;
var sectionId = 'dynsection-9';
</script>
<script xlink:href="svgpan.js"/>
<svg id="graph" class="graph">
<g id="viewport">
<title>count</title>
<polygon fill="white" stroke="transparent" points="-4,4 -4,-628.5 1129.8,-628.5 1129.8,4 -4,4"/>
<!-- Node1 -->
<g id="node1" class="node">
<title>Node1</title>
<g id="a_node1"><a xlink:title=" ">
<polygon fill="#bfbfbf" stroke="black" points="1075,-290 1075,-309 1116,-309 1116,-290 1075,-290"/>
<text text-anchor="middle" x="1095.5" y="-297" font-family="Helvetica,sans-Serif" font-size="10.00">count</text>
</a>
</g>
</g>
<!-- Node1&#45;&gt;Node1 -->
<g id="edge5" class="edge">
<title>Node1&#45;&gt;Node1</title>
<path fill="none" stroke="midnightblue" d="M1124.04,-313C1129.43,-320.55 1119.91,-327.5 1095.5,-327.5 1064.25,-327.5 1057.41,-316.11 1074.99,-306.67"/>
<polygon fill="midnightblue" stroke="midnightblue" points="1126.03,-310.12 1116.01,-306.67 1121.69,-315.61 1126.03,-310.12"/>
</g>
<!-- Node2 -->
<g id="node2" class="node">
<title>Node2</title>
<g id="a_node2"><a xlink:href="classrare_1_1components_1_1tabs_1_1downloads_1_1groups_1_1_update_group.html#afa4e0f2b4a8c4e5c97b4853dbca6e7a7" target="_top" xlink:title=" ">
<polygon fill="white" stroke="black" points="907.5,-587 907.5,-606 960.5,-606 960.5,-587 907.5,-587"/>
<text text-anchor="middle" x="934" y="-594" font-family="Helvetica,sans-Serif" font-size="10.00">contains</text>
</a>
</g>
</g>
<!-- Node1&#45;&gt;Node2 -->
<g id="edge1" class="edge">
<title>Node1&#45;&gt;Node2</title>
<path fill="none" stroke="midnightblue" d="M1093.36,-319.28C1089.65,-376.63 1075.93,-541.17 1039,-577.5 1018.59,-597.58 984.43,-600.24 960.87,-599.26"/>
<polygon fill="midnightblue" stroke="midnightblue" points="1096.87,-319.23 1093.99,-309.03 1089.89,-318.8 1096.87,-319.23"/>
</g>
<!-- Node3 -->
<g id="node3" class="node">
<title>Node3</title>
<g id="a_node3"><a xlink:href="classrare_1_1components_1_1tabs_1_1downloads_1_1groups_1_1_queue_group.html#afa4e0f2b4a8c4e5c97b4853dbca6e7a7" target="_top" xlink:title=" ">
<polygon fill="white" stroke="black" points="838,-519.5 838,-549.5 1030,-549.5 1030,-519.5 838,-519.5"/>
<text text-anchor="start" x="846" y="-537.5" font-family="Helvetica,sans-Serif" font-size="10.00">rare.components.tabs.downloads.groups.</text>
<text text-anchor="middle" x="934" y="-526.5" font-family="Helvetica,sans-Serif" font-size="10.00">QueueGroup.contains</text>
</a>
</g>
</g>
<!-- Node1&#45;&gt;Node3 -->
<g id="edge3" class="edge">
<title>Node1&#45;&gt;Node3</title>
<path fill="none" stroke="midnightblue" d="M1091.92,-319.28C1085.37,-366.46 1066.63,-483.7 1039,-510.5 1035.54,-513.85 1031.71,-516.78 1027.63,-519.32"/>
<polygon fill="midnightblue" stroke="midnightblue" points="1095.42,-319.5 1093.29,-309.12 1088.48,-318.57 1095.42,-319.5"/>
</g>
<!-- Node4 -->
<g id="node4" class="node">
<title>Node4</title>
<g id="a_node4"><a xlink:href="classrare_1_1widgets_1_1side__tab_1_1_side_tab_bar.html#ad0dbab7bd24945a905fb1bc8883b7cab" target="_top" xlink:title=" ">
<polygon fill="white" stroke="black" points="869,-452.5 869,-482.5 999,-482.5 999,-452.5 869,-452.5"/>
<text text-anchor="start" x="877" y="-470.5" font-family="Helvetica,sans-Serif" font-size="10.00">rare.widgets.side_tab.Side</text>
<text text-anchor="middle" x="934" y="-459.5" font-family="Helvetica,sans-Serif" font-size="10.00">TabBar.paintEvent</text>
</a>
</g>
</g>
<!-- Node1&#45;&gt;Node4 -->
<g id="edge6" class="edge">
<title>Node1&#45;&gt;Node4</title>
<path fill="none" stroke="midnightblue" d="M1092.66,-319.41C1088.66,-350.7 1076.3,-411.12 1039,-443.5 1027.81,-453.22 1013.45,-459.21 999,-462.85"/>
<polygon fill="midnightblue" stroke="midnightblue" points="1096.15,-319.64 1093.78,-309.31 1089.2,-318.86 1096.15,-319.64"/>
</g>
<!-- Node5 -->
<g id="node5" class="node">
<title>Node5</title>
<g id="a_node5"><a xlink:href="classrare_1_1components_1_1tabs_1_1downloads_1_1groups_1_1_queue_group.html#a9c713e9ed74ea698ee2ef20be66cd50b" target="_top" xlink:title=" ">
<polygon fill="white" stroke="black" points="838,-385.5 838,-415.5 1030,-415.5 1030,-385.5 838,-385.5"/>
<text text-anchor="start" x="846" y="-403.5" font-family="Helvetica,sans-Serif" font-size="10.00">rare.components.tabs.downloads.groups.</text>
<text text-anchor="middle" x="934" y="-392.5" font-family="Helvetica,sans-Serif" font-size="10.00">QueueGroup.pop_front</text>
</a>
</g>
</g>
<!-- Node1&#45;&gt;Node5 -->
<g id="edge8" class="edge">
<title>Node1&#45;&gt;Node5</title>
<path fill="none" stroke="midnightblue" d="M1085.99,-318.13C1076.89,-335.9 1060.78,-362.02 1039,-376.5 1033.83,-379.94 1028.23,-382.88 1022.41,-385.41"/>
<polygon fill="midnightblue" stroke="midnightblue" points="1089.19,-319.54 1090.42,-309.02 1082.9,-316.48 1089.19,-319.54"/>
</g>
<!-- Node6 -->
<g id="node6" class="node">
<title>Node6</title>
<g id="a_node6"><a xlink:href="classrare_1_1components_1_1tabs_1_1downloads_1_1groups_1_1_queue_group.html#ae32155f3e6c3fc5be9d41ad00b7f7645" target="_top" xlink:title=" ">
<polygon fill="white" stroke="black" points="838,-318.5 838,-348.5 1030,-348.5 1030,-318.5 838,-318.5"/>
<text text-anchor="start" x="846" y="-336.5" font-family="Helvetica,sans-Serif" font-size="10.00">rare.components.tabs.downloads.groups.</text>
<text text-anchor="middle" x="934" y="-325.5" font-family="Helvetica,sans-Serif" font-size="10.00">QueueGroup.push_back</text>
</a>
</g>
</g>
<!-- Node1&#45;&gt;Node6 -->
<g id="edge10" class="edge">
<title>Node1&#45;&gt;Node6</title>
<path fill="none" stroke="midnightblue" d="M1064.69,-305.85C1047.93,-309.43 1026.23,-314.05 1005.39,-318.49"/>
<polygon fill="midnightblue" stroke="midnightblue" points="1065.89,-309.18 1074.94,-303.67 1064.43,-302.33 1065.89,-309.18"/>
</g>
<!-- Node7 -->
<g id="node7" class="node">
<title>Node7</title>
<g id="a_node7"><a xlink:href="classrare_1_1components_1_1tabs_1_1downloads_1_1groups_1_1_queue_group.html#ada8b8b959a74d1d3ca1f4354dc5d776a" target="_top" xlink:title=" ">
<polygon fill="white" stroke="black" points="838,-251.5 838,-281.5 1030,-281.5 1030,-251.5 838,-251.5"/>
<text text-anchor="start" x="846" y="-269.5" font-family="Helvetica,sans-Serif" font-size="10.00">rare.components.tabs.downloads.groups.</text>
<text text-anchor="middle" x="934" y="-258.5" font-family="Helvetica,sans-Serif" font-size="10.00">QueueGroup.push_front</text>
</a>
</g>
</g>
<!-- Node1&#45;&gt;Node7 -->
<g id="edge12" class="edge">
<title>Node1&#45;&gt;Node7</title>
<path fill="none" stroke="midnightblue" d="M1065.01,-293.4C1048.78,-290.04 1027.86,-285.71 1007.57,-281.52"/>
<polygon fill="midnightblue" stroke="midnightblue" points="1064.44,-296.85 1074.94,-295.45 1065.86,-290 1064.44,-296.85"/>
</g>
<!-- Node8 -->
<g id="node8" class="node">
<title>Node8</title>
<g id="a_node8"><a xlink:href="classrare_1_1widgets_1_1sliding__stack_1_1_sliding_stacked_widget.html#a14a7f7a305b607aa29aa0dfa7f6047d5" target="_top" xlink:title=" ">
<polygon fill="white" stroke="black" points="851,-135 851,-176 1017,-176 1017,-135 851,-135"/>
<text text-anchor="start" x="859" y="-164" font-family="Helvetica,sans-Serif" font-size="10.00">rare.widgets.sliding</text>
<text text-anchor="start" x="859" y="-153" font-family="Helvetica,sans-Serif" font-size="10.00">_stack.SlidingStackedWidget.slide</text>
<text text-anchor="middle" x="934" y="-142" font-family="Helvetica,sans-Serif" font-size="10.00">InIndex</text>
</a>
</g>
</g>
<!-- Node1&#45;&gt;Node8 -->
<g id="edge14" class="edge">
<title>Node1&#45;&gt;Node8</title>
<path fill="none" stroke="midnightblue" d="M1086.69,-280.5C1077.68,-260.48 1061.19,-229.06 1039,-208.5 1024.65,-195.21 1006.35,-184.41 989.1,-176.11"/>
<polygon fill="midnightblue" stroke="midnightblue" points="1083.54,-282.02 1090.72,-289.81 1089.96,-279.24 1083.54,-282.02"/>
</g>
<!-- Node9 -->
<g id="node9" class="node">
<title>Node9</title>
<g id="a_node9"><a xlink:href="classrare_1_1widgets_1_1sliding__stack_1_1_sliding_stacked_widget.html#a9a7d3e7c9b6471dae3067db5f869f4fe" target="_top" xlink:title=" ">
<polygon fill="white" stroke="black" points="627,-202 627,-243 793,-243 793,-202 627,-202"/>
<text text-anchor="start" x="635" y="-231" font-family="Helvetica,sans-Serif" font-size="10.00">rare.widgets.sliding</text>
<text text-anchor="start" x="635" y="-220" font-family="Helvetica,sans-Serif" font-size="10.00">_stack.SlidingStackedWidget.slide</text>
<text text-anchor="middle" x="710" y="-209" font-family="Helvetica,sans-Serif" font-size="10.00">InNext</text>
</a>
</g>
</g>
<!-- Node1&#45;&gt;Node9 -->
<g id="edge27" class="edge">
<title>Node1&#45;&gt;Node9</title>
<path fill="none" stroke="midnightblue" d="M1082.44,-281.25C1072.51,-267.93 1057.16,-250.82 1039,-242.5 961.21,-206.84 861.97,-206.1 793.12,-211.61"/>
<polygon fill="midnightblue" stroke="midnightblue" points="1079.78,-283.55 1088.41,-289.7 1085.5,-279.52 1079.78,-283.55"/>
</g>
<!-- Node14 -->
<g id="node14" class="node">
<title>Node14</title>
<g id="a_node14"><a xlink:href="classrare_1_1components_1_1tabs_1_1tab__widgets_1_1_main_tab_bar.html#a6006a45305048dbcf35b885637f410bb" target="_top" xlink:title=" ">
<polygon fill="white" stroke="black" points="852.5,-67.5 852.5,-97.5 1015.5,-97.5 1015.5,-67.5 852.5,-67.5"/>
<text text-anchor="start" x="860.5" y="-85.5" font-family="Helvetica,sans-Serif" font-size="10.00">rare.components.tabs.tab</text>
<text text-anchor="middle" x="934" y="-74.5" font-family="Helvetica,sans-Serif" font-size="10.00">_widgets.MainTabBar.tabSizeHint</text>
</a>
</g>
</g>
<!-- Node1&#45;&gt;Node14 -->
<g id="edge28" class="edge">
<title>Node1&#45;&gt;Node14</title>
<path fill="none" stroke="midnightblue" d="M1093.49,-279.83C1090.65,-244.52 1079.87,-169.93 1039,-125.5 1027.43,-112.92 1011.61,-103.91 995.81,-97.51"/>
<polygon fill="midnightblue" stroke="midnightblue" points="1090,-280.08 1094.16,-289.82 1096.98,-279.61 1090,-280.08"/>
</g>
<!-- Node15 -->
<g id="node15" class="node">
<title>Node15</title>
<g id="a_node15"><a xlink:href="classrare_1_1components_1_1tabs_1_1store_1_1api_1_1models_1_1query_1_1_search_store_query.html#a7c6470f8f9e59994ab7b7cdf61e3860d" target="_top" xlink:title=" ">
<polygon fill="white" stroke="black" points="829,-0.5 829,-30.5 1039,-30.5 1039,-0.5 829,-0.5"/>
<text text-anchor="start" x="837" y="-18.5" font-family="Helvetica,sans-Serif" font-size="10.00">rare.components.tabs.store.api.models.query.</text>
<text text-anchor="middle" x="934" y="-7.5" font-family="Helvetica,sans-Serif" font-size="10.00">SearchStoreQuery.to_dict</text>
</a>
</g>
</g>
<!-- Node1&#45;&gt;Node15 -->
<g id="edge30" class="edge">
<title>Node1&#45;&gt;Node15</title>
<path fill="none" stroke="midnightblue" d="M1092.31,-279.57C1086.26,-227.91 1067.87,-91.34 1039,-57.5 1028.7,-45.43 1014.42,-36.78 999.73,-30.61"/>
<polygon fill="midnightblue" stroke="midnightblue" points="1088.86,-280.21 1093.47,-289.75 1095.81,-279.42 1088.86,-280.21"/>
</g>
<!-- Node2&#45;&gt;Node2 -->
<g id="edge2" class="edge">
<title>Node2&#45;&gt;Node2</title>
<path fill="none" stroke="midnightblue" d="M963.94,-614.77C963.09,-620.24 953.11,-624.5 934,-624.5 905.56,-624.5 897.34,-615.07 909.34,-606.26"/>
<polygon fill="midnightblue" stroke="midnightblue" points="966.9,-612.91 958.66,-606.26 960.95,-616.6 966.9,-612.91"/>
</g>
<!-- Node3&#45;&gt;Node3 -->
<g id="edge4" class="edge">
<title>Node3&#45;&gt;Node3</title>
<path fill="none" stroke="midnightblue" d="M962.43,-559.96C958.9,-564.68 949.42,-568 934,-568 908.69,-568 899.39,-559.06 906.12,-549.66"/>
<polygon fill="midnightblue" stroke="midnightblue" points="965.91,-559.46 961.88,-549.66 958.92,-559.83 965.91,-559.46"/>
</g>
<!-- Node4&#45;&gt;Node4 -->
<g id="edge7" class="edge">
<title>Node4&#45;&gt;Node4</title>
<path fill="none" stroke="midnightblue" d="M962.43,-492.96C958.9,-497.68 949.42,-501 934,-501 908.69,-501 899.39,-492.06 906.12,-482.66"/>
<polygon fill="midnightblue" stroke="midnightblue" points="965.91,-492.46 961.88,-482.66 958.92,-492.83 965.91,-492.46"/>
</g>
<!-- Node5&#45;&gt;Node5 -->
<g id="edge9" class="edge">
<title>Node5&#45;&gt;Node5</title>
<path fill="none" stroke="midnightblue" d="M962.43,-425.96C958.9,-430.68 949.42,-434 934,-434 908.69,-434 899.39,-425.06 906.12,-415.66"/>
<polygon fill="midnightblue" stroke="midnightblue" points="965.91,-425.46 961.88,-415.66 958.92,-425.83 965.91,-425.46"/>
</g>
<!-- Node6&#45;&gt;Node6 -->
<g id="edge11" class="edge">
<title>Node6&#45;&gt;Node6</title>
<path fill="none" stroke="midnightblue" d="M962.43,-358.96C958.9,-363.68 949.42,-367 934,-367 908.69,-367 899.39,-358.06 906.12,-348.66"/>
<polygon fill="midnightblue" stroke="midnightblue" points="965.91,-358.46 961.88,-348.66 958.92,-358.83 965.91,-358.46"/>
</g>
<!-- Node7&#45;&gt;Node7 -->
<g id="edge13" class="edge">
<title>Node7&#45;&gt;Node7</title>
<path fill="none" stroke="midnightblue" d="M962.43,-291.96C958.9,-296.68 949.42,-300 934,-300 908.69,-300 899.39,-291.06 906.12,-281.66"/>
<polygon fill="midnightblue" stroke="midnightblue" points="965.91,-291.46 961.88,-281.66 958.92,-291.83 965.91,-291.46"/>
</g>
<!-- Node8&#45;&gt;Node8 -->
<g id="edge15" class="edge">
<title>Node8&#45;&gt;Node8</title>
<path fill="none" stroke="midnightblue" d="M961.53,-186.36C957.43,-191.2 948.26,-194.5 934,-194.5 911.19,-194.5 901.39,-186.04 904.59,-176.36"/>
<polygon fill="midnightblue" stroke="midnightblue" points="965,-186.84 963.41,-176.36 958.12,-185.54 965,-186.84"/>
</g>
<!-- Node8&#45;&gt;Node9 -->
<g id="edge16" class="edge">
<title>Node8&#45;&gt;Node9</title>
<path fill="none" stroke="midnightblue" d="M855.14,-179C830.31,-186.49 803.06,-194.72 778.99,-201.98"/>
<polygon fill="midnightblue" stroke="midnightblue" points="856.32,-182.3 864.88,-176.06 854.3,-175.6 856.32,-182.3"/>
</g>
<!-- Node13 -->
<g id="node13" class="node">
<title>Node13</title>
<g id="a_node13"><a xlink:href="classrare_1_1widgets_1_1sliding__stack_1_1_sliding_stacked_widget.html#adf3e2dc0b60437cf278f8a25d92f9a96" target="_top" xlink:title=" ">
<polygon fill="white" stroke="black" points="627,-124 627,-165 793,-165 793,-124 627,-124"/>
<text text-anchor="start" x="635" y="-153" font-family="Helvetica,sans-Serif" font-size="10.00">rare.widgets.sliding</text>
<text text-anchor="start" x="635" y="-142" font-family="Helvetica,sans-Serif" font-size="10.00">_stack.SlidingStackedWidget.slide</text>
<text text-anchor="middle" x="710" y="-131" font-family="Helvetica,sans-Serif" font-size="10.00">InPrev</text>
</a>
</g>
</g>
<!-- Node8&#45;&gt;Node13 -->
<g id="edge24" class="edge">
<title>Node8&#45;&gt;Node13</title>
<path fill="none" stroke="midnightblue" d="M840.68,-150.93C824.88,-150.14 808.57,-149.33 793.07,-148.57"/>
<polygon fill="midnightblue" stroke="midnightblue" points="840.81,-154.44 850.97,-151.44 841.15,-147.44 840.81,-154.44"/>
</g>
<!-- Node9&#45;&gt;Node9 -->
<g id="edge17" class="edge">
<title>Node9&#45;&gt;Node9</title>
<path fill="none" stroke="midnightblue" d="M745.1,-253.36C739.88,-258.2 728.18,-261.5 710,-261.5 680.91,-261.5 668.42,-253.04 672.51,-243.36"/>
<polygon fill="midnightblue" stroke="midnightblue" points="748.56,-253.9 747.49,-243.36 741.76,-252.27 748.56,-253.9"/>
</g>
<!-- Node10 -->
<g id="node10" class="node">
<title>Node10</title>
<g id="a_node10"><a xlink:href="classrare_1_1widgets_1_1sliding__stack_1_1_sliding_stacked_widget.html#aebf5c564b7d2450c4b74b3dff5ed1a2d" target="_top" xlink:title=" ">
<polygon fill="white" stroke="black" points="420,-163 420,-204 591,-204 591,-163 420,-163"/>
<text text-anchor="start" x="428" y="-192" font-family="Helvetica,sans-Serif" font-size="10.00">rare.widgets.sliding</text>
<text text-anchor="start" x="428" y="-181" font-family="Helvetica,sans-Serif" font-size="10.00">_stack.SlidingStackedWidget.swipe</text>
<text text-anchor="middle" x="505.5" y="-170" font-family="Helvetica,sans-Serif" font-size="10.00">Triggered</text>
</a>
</g>
</g>
<!-- Node9&#45;&gt;Node10 -->
<g id="edge18" class="edge">
<title>Node9&#45;&gt;Node10</title>
<path fill="none" stroke="midnightblue" d="M616.96,-204.77C608.42,-203.13 599.8,-201.47 591.33,-199.84"/>
<polygon fill="midnightblue" stroke="midnightblue" points="616.45,-208.24 626.93,-206.69 617.77,-201.37 616.45,-208.24"/>
</g>
<!-- Node10&#45;&gt;Node10 -->
<g id="edge23" class="edge">
<title>Node10&#45;&gt;Node10</title>
<path fill="none" stroke="midnightblue" d="M540.6,-214.36C535.38,-219.2 523.68,-222.5 505.5,-222.5 476.41,-222.5 463.92,-214.04 468.01,-204.36"/>
<polygon fill="midnightblue" stroke="midnightblue" points="544.06,-214.9 542.99,-204.36 537.26,-213.27 544.06,-214.9"/>
</g>
<!-- Node11 -->
<g id="node11" class="node">
<title>Node11</title>
<g id="a_node11"><a xlink:href="classrare_1_1widgets_1_1sliding__stack_1_1_sliding_stacked_widget.html#af1c90ce9b058b5510a83e2dc63009e3a" target="_top" xlink:title=" ">
<polygon fill="white" stroke="black" points="206,-163 206,-204 384,-204 384,-163 206,-163"/>
<text text-anchor="start" x="214" y="-192" font-family="Helvetica,sans-Serif" font-size="10.00">rare.widgets.sliding</text>
<text text-anchor="start" x="214" y="-181" font-family="Helvetica,sans-Serif" font-size="10.00">_stack.SlidingStackedWidget.gesture</text>
<text text-anchor="middle" x="295" y="-170" font-family="Helvetica,sans-Serif" font-size="10.00">Event</text>
</a>
</g>
</g>
<!-- Node10&#45;&gt;Node11 -->
<g id="edge19" class="edge">
<title>Node10&#45;&gt;Node11</title>
<path fill="none" stroke="midnightblue" d="M409.93,-183.5C401.3,-183.5 392.59,-183.5 384.02,-183.5"/>
<polygon fill="midnightblue" stroke="midnightblue" points="410,-187 420,-183.5 410,-180 410,-187"/>
</g>
<!-- Node11&#45;&gt;Node11 -->
<g id="edge22" class="edge">
<title>Node11&#45;&gt;Node11</title>
<path fill="none" stroke="midnightblue" d="M331.13,-214.36C325.76,-219.2 313.71,-222.5 295,-222.5 265.06,-222.5 252.19,-214.04 256.4,-204.36"/>
<polygon fill="midnightblue" stroke="midnightblue" points="334.6,-214.91 333.6,-204.36 327.8,-213.23 334.6,-214.91"/>
</g>
<!-- Node12 -->
<g id="node12" class="node">
<title>Node12</title>
<g id="a_node12"><a xlink:href="classrare_1_1widgets_1_1sliding__stack_1_1_sliding_stacked_widget.html#a44c7e50c0ff0b8133804b3ea6e1e734d" target="_top" xlink:title=" ">
<polygon fill="white" stroke="black" points="0,-168.5 0,-198.5 170,-198.5 170,-168.5 0,-168.5"/>
<text text-anchor="start" x="8" y="-186.5" font-family="Helvetica,sans-Serif" font-size="10.00">rare.widgets.sliding</text>
<text text-anchor="middle" x="85" y="-175.5" font-family="Helvetica,sans-Serif" font-size="10.00">_stack.SlidingStackedWidget.event</text>
</a>
</g>
</g>
<!-- Node11&#45;&gt;Node12 -->
<g id="edge20" class="edge">
<title>Node11&#45;&gt;Node12</title>
<path fill="none" stroke="midnightblue" d="M195.74,-183.5C187.15,-183.5 178.5,-183.5 170.04,-183.5"/>
<polygon fill="midnightblue" stroke="midnightblue" points="195.79,-187 205.79,-183.5 195.79,-180 195.79,-187"/>
</g>
<!-- Node12&#45;&gt;Node12 -->
<g id="edge21" class="edge">
<title>Node12&#45;&gt;Node12</title>
<path fill="none" stroke="midnightblue" d="M122.31,-208.96C117.68,-213.68 105.25,-217 85,-217 51.78,-217 39.58,-208.06 48.4,-198.66"/>
<polygon fill="midnightblue" stroke="midnightblue" points="125.78,-208.39 121.6,-198.66 118.8,-208.88 125.78,-208.39"/>
</g>
<!-- Node13&#45;&gt;Node10 -->
<g id="edge26" class="edge">
<title>Node13&#45;&gt;Node10</title>
<path fill="none" stroke="midnightblue" d="M616.96,-162.23C608.42,-163.87 599.8,-165.53 591.33,-167.16"/>
<polygon fill="midnightblue" stroke="midnightblue" points="617.77,-165.63 626.93,-160.31 616.45,-158.76 617.77,-165.63"/>
</g>
<!-- Node13&#45;&gt;Node13 -->
<g id="edge25" class="edge">
<title>Node13&#45;&gt;Node13</title>
<path fill="none" stroke="midnightblue" d="M745.1,-175.36C739.88,-180.2 728.18,-183.5 710,-183.5 680.91,-183.5 668.42,-175.04 672.51,-165.36"/>
<polygon fill="midnightblue" stroke="midnightblue" points="748.56,-175.9 747.49,-165.36 741.76,-174.27 748.56,-175.9"/>
</g>
<!-- Node14&#45;&gt;Node14 -->
<g id="edge29" class="edge">
<title>Node14&#45;&gt;Node14</title>
<path fill="none" stroke="midnightblue" d="M962.43,-107.96C958.9,-112.68 949.42,-116 934,-116 908.69,-116 899.39,-107.06 906.12,-97.66"/>
<polygon fill="midnightblue" stroke="midnightblue" points="965.91,-107.46 961.88,-97.66 958.92,-107.83 965.91,-107.46"/>
</g>
<!-- Node15&#45;&gt;Node15 -->
<g id="edge31" class="edge">
<title>Node15&#45;&gt;Node15</title>
<path fill="none" stroke="midnightblue" d="M962.43,-40.96C958.9,-45.68 949.42,-49 934,-49 908.69,-49 899.39,-40.06 906.12,-30.66"/>
<polygon fill="midnightblue" stroke="midnightblue" points="965.91,-40.46 961.88,-30.66 958.92,-40.83 965.91,-40.46"/>
</g>
</g>
</svg>
        <g id="navigator" transform="translate(0 0)" fill="#404254">
                <rect fill="#f2f5e9" fill-opacity="0.5" stroke="#606060" stroke-width=".5" x="0" y="0" width="60" height="60"/>
                <use id="zoomplus" xlink:href="#zoomPlus" x="17" y="9" onmousedown="handleZoom(evt,'in')"/>
                <use id="zoomminus" xlink:href="#zoomMin" x="42" y="9" onmousedown="handleZoom(evt,'out')"/>
                <use id="reset" xlink:href="#resetDef" x="30" y="36" onmousedown="handleReset()"/>
                <g id="arrowUp" xlink:href="#dirArrow" transform="translate(30 24)" onmousedown="handlePan(0,-1)">
                  <use xlink:href="#rim" fill="#404040">
                        <set attributeName="fill" to="#808080" begin="arrowUp.mouseover" end="arrowUp.mouseout"/>
                  </use>
                  <path fill="none" stroke="white" stroke-width="1.5" d="M0,-3.0v7 M-2.5,-0.5L0,-3.0L2.5,-0.5"/>
                </g>
                <g id="arrowRight" xlink:href="#dirArrow" transform="rotate(90) translate(36 -43)" onmousedown="handlePan(1,0)">
                  <use xlink:href="#rim" fill="#404040">
                        <set attributeName="fill" to="#808080" begin="arrowRight.mouseover" end="arrowRight.mouseout"/>
                  </use>
                  <path fill="none" stroke="white" stroke-width="1.5" d="M0,-3.0v7 M-2.5,-0.5L0,-3.0L2.5,-0.5"/>
                </g>
                <g id="arrowDown" xlink:href="#dirArrow" transform="rotate(180) translate(-30 -48)" onmousedown="handlePan(0,1)">
                  <use xlink:href="#rim" fill="#404040">
                        <set attributeName="fill" to="#808080" begin="arrowDown.mouseover" end="arrowDown.mouseout"/>
                  </use>
                  <path fill="none" stroke="white" stroke-width="1.5" d="M0,-3.0v7 M-2.5,-0.5L0,-3.0L2.5,-0.5"/>
                </g>
                <g id="arrowLeft" xlink:href="#dirArrow" transform="rotate(270) translate(-36 17)" onmousedown="handlePan(-1,0)">
                  <use xlink:href="#rim" fill="#404040">
                        <set attributeName="fill" to="#808080" begin="arrowLeft.mouseover" end="arrowLeft.mouseout"/>
                  </use>
                  <path fill="none" stroke="white" stroke-width="1.5" d="M0,-3.0v7 M-2.5,-0.5L0,-3.0L2.5,-0.5"/>
                </g>
        </g>
        <svg viewBox="0 0 15 15" width="100%" height="30px" preserveAspectRatio="xMaxYMin meet">
         <g id="arrow_out" transform="scale(0.3 0.3)">
          <a xlink:href="classrare_1_1components_1_1tabs_1_1downloads_1_1groups_1_1_update_group_adaaa57688d92e19605bdc1a271c51e6e_icgraph_org.svg" target="_base">
           <rect id="button" ry="5" rx="5" y="6" x="6" height="38" width="38"
                fill="#f2f5e9" fill-opacity="0.5" stroke="#606060" stroke-width="1.0"/>
           <path id="arrow"
             d="M 11.500037,31.436501 C 11.940474,20.09759 22.043105,11.32322 32.158766,21.979434 L 37.068811,17.246167 C 37.068811,17.246167 37.088388,32 37.088388,32 L 22.160133,31.978069 C 22.160133,31.978069 26.997745,27.140456 26.997745,27.140456 C 18.528582,18.264221 13.291696,25.230495 11.500037,31.436501 z"
             style="fill:#404040;"/>
          </a>
         </g>
        </svg>
</svg>
