<?xml version="1.0" encoding="UTF-8" standalone="no"?>
<!DOCTYPE svg PUBLIC "-//W3C//DTD SVG 1.1//EN"
 "http://www.w3.org/Graphics/SVG/1.1/DTD/svg11.dtd">
<!-- Generated by graphviz version 2.49.3 (20211027.1534)
 -->
<!-- Title: setData Pages: 1 -->
<svg width="395pt" height="389pt"
 viewBox="0.00 0.00 395.00 388.99" xmlns="http://www.w3.org/2000/svg" xmlns:xlink="http://www.w3.org/1999/xlink">
<g id="graph0" class="graph" transform="scale(1 1) rotate(0) translate(4 384.99)">
<title>setData</title>
<polygon fill="white" stroke="transparent" points="-4,4 -4,-384.99 391,-384.99 391,4 -4,4"/>
<!-- Node1 -->
<g id="node1" class="node">
<title>Node1</title>
<g id="a_node1"><a xlink:title=" ">
<polygon fill="#bfbfbf" stroke="black" points="0,-230 0,-249 50,-249 50,-230 0,-230"/>
<text text-anchor="middle" x="25" y="-237" font-family="Helvetica,sans-Serif" font-size="10.00">setData</text>
</a>
</g>
</g>
<!-- Node1&#45;&gt;Node1 -->
<g id="edge16" class="edge">
<title>Node1&#45;&gt;Node1</title>
<path fill="none" stroke="midnightblue" d="M5.58,-249.26C-3.87,-258.07 2.61,-267.5 25,-267.5 39.35,-267.5 47.16,-263.63 48.44,-258.53"/>
<polygon fill="midnightblue" stroke="midnightblue" points="51.61,-257.04 44.42,-249.26 45.18,-259.82 51.61,-257.04"/>
</g>
<!-- Node2 -->
<g id="node2" class="node">
<title>Node2</title>
<g id="a_node2"><a xlink:href="classrare_1_1components_1_1tabs_1_1settings_1_1widgets_1_1env__vars__model_1_1_env_vars_table_model.html#a785ebf9c544297050f8105f2be49dc7d" target="_top" xlink:title=" ">
<polygon fill="white" stroke="black" points="281,-287 281,-306 358,-306 358,-287 281,-287"/>
<text text-anchor="middle" x="319.5" y="-294" font-family="Helvetica,sans-Serif" font-size="10.00">__data_length</text>
</a>
</g>
</g>
<!-- Node1&#45;&gt;Node2 -->
<g id="edge1" class="edge">
<title>Node1&#45;&gt;Node2</title>
<path fill="none" stroke="midnightblue" d="M27.28,-249.13C31.07,-273.34 44.69,-336.69 86,-362.5 135,-393.12 160.57,-378.8 216,-362.5 248.9,-352.82 281.21,-328.96 300.5,-312.74"/>
<polygon fill="midnightblue" stroke="midnightblue" points="302.89,-315.3 308.17,-306.11 298.32,-310 302.89,-315.3"/>
</g>
<!-- Node3 -->
<g id="node3" class="node">
<title>Node3</title>
<g id="a_node3"><a xlink:href="classrare_1_1components_1_1tabs_1_1settings_1_1widgets_1_1env__vars__model_1_1_env_vars_table_model.html#a723932c73ee938c493cfe44cd13cad84" target="_top" xlink:title=" ">
<polygon fill="white" stroke="black" points="111,-334 111,-353 191,-353 191,-334 111,-334"/>
<text text-anchor="middle" x="151" y="-341" font-family="Helvetica,sans-Serif" font-size="10.00">__is_key_valid</text>
</a>
</g>
</g>
<!-- Node1&#45;&gt;Node3 -->
<g id="edge2" class="edge">
<title>Node1&#45;&gt;Node3</title>
<path fill="none" stroke="midnightblue" d="M30.22,-249.27C38.37,-266.97 57.97,-304.39 86,-324.5 90.59,-327.79 95.75,-330.52 101.11,-332.78"/>
<polygon fill="midnightblue" stroke="midnightblue" points="100.26,-336.2 110.86,-336.36 102.68,-329.63 100.26,-336.2"/>
</g>
<!-- Node4 -->
<g id="node4" class="node">
<title>Node4</title>
<g id="a_node4"><a xlink:href="classrare_1_1components_1_1tabs_1_1settings_1_1widgets_1_1env__vars__model_1_1_env_vars_table_model.html#a50716b520de2d44af336e0fc4b43d54f" target="_top" xlink:title=" ">
<polygon fill="white" stroke="black" points="130,-296 130,-315 172,-315 172,-296 130,-296"/>
<text text-anchor="middle" x="151" y="-303" font-family="Helvetica,sans-Serif" font-size="10.00">__key</text>
</a>
</g>
</g>
<!-- Node1&#45;&gt;Node4 -->
<g id="edge3" class="edge">
<title>Node1&#45;&gt;Node4</title>
<path fill="none" stroke="midnightblue" d="M35.8,-249.11C47.05,-259.65 66.48,-276.42 86,-286.5 96.65,-292 109.13,-296.15 120.23,-299.15"/>
<polygon fill="midnightblue" stroke="midnightblue" points="119.39,-302.55 129.94,-301.59 121.09,-295.76 119.39,-302.55"/>
</g>
<!-- Node5 -->
<g id="node5" class="node">
<title>Node5</title>
<g id="a_node5"><a xlink:href="classrare_1_1components_1_1tabs_1_1settings_1_1widgets_1_1env__vars__model_1_1_env_vars_table_model.html#ace8f4123e3bd770388e708dc8900e508" target="_top" xlink:title=" ">
<polygon fill="white" stroke="black" points="126,-258 126,-277 176,-277 176,-258 126,-258"/>
<text text-anchor="middle" x="151" y="-265" font-family="Helvetica,sans-Serif" font-size="10.00">__value</text>
</a>
</g>
</g>
<!-- Node1&#45;&gt;Node5 -->
<g id="edge4" class="edge">
<title>Node1&#45;&gt;Node5</title>
<path fill="none" stroke="midnightblue" d="M50.2,-244.97C68.98,-249.21 95.24,-255.13 116.1,-259.85"/>
<polygon fill="midnightblue" stroke="midnightblue" points="115.33,-263.26 125.86,-262.05 116.87,-256.43 115.33,-263.26"/>
</g>
<!-- Node6 -->
<g id="node6" class="node">
<title>Node6</title>
<g id="a_node6"><a xlink:href="classrare_1_1shared_1_1rare__core_1_1_rare_core.html#a405e1a4f20f16120f872ccd2654a1d56" target="_top" xlink:title=" ">
<polygon fill="white" stroke="black" points="86,-0.5 86,-30.5 216,-30.5 216,-0.5 86,-0.5"/>
<text text-anchor="start" x="94" y="-18.5" font-family="Helvetica,sans-Serif" font-size="10.00">rare.shared.rare_core.Rare</text>
<text text-anchor="middle" x="151" y="-7.5" font-family="Helvetica,sans-Serif" font-size="10.00">Core.core</text>
</a>
</g>
</g>
<!-- Node1&#45;&gt;Node6 -->
<g id="edge5" class="edge">
<title>Node1&#45;&gt;Node6</title>
<path fill="none" stroke="midnightblue" d="M26.95,-229.77C30.22,-200.72 43.28,-113.2 86,-57.5 92.44,-49.11 101.05,-41.88 109.88,-35.89"/>
<polygon fill="midnightblue" stroke="midnightblue" points="111.75,-38.85 118.33,-30.54 108.01,-32.93 111.75,-38.85"/>
</g>
<!-- Node8 -->
<g id="node8" class="node">
<title>Node8</title>
<g id="a_node8"><a xlink:href="classrare_1_1utils_1_1json__formatter_1_1_q_json_model.html#aa1430e6d229de4f86973da60c3231a9a" target="_top" xlink:title=" ">
<polygon fill="white" stroke="black" points="91,-134.5 91,-164.5 211,-164.5 211,-134.5 91,-134.5"/>
<text text-anchor="start" x="99" y="-152.5" font-family="Helvetica,sans-Serif" font-size="10.00">rare.utils.json_formatter.</text>
<text text-anchor="middle" x="151" y="-141.5" font-family="Helvetica,sans-Serif" font-size="10.00">QJsonModel.index</text>
</a>
</g>
</g>
<!-- Node1&#45;&gt;Node8 -->
<g id="edge9" class="edge">
<title>Node1&#45;&gt;Node8</title>
<path fill="none" stroke="midnightblue" d="M37.76,-229.88C49.71,-220.19 68.87,-204.94 86,-192.5 96.32,-185 107.83,-177.13 118.21,-170.2"/>
<polygon fill="midnightblue" stroke="midnightblue" points="120.21,-173.07 126.61,-164.62 116.35,-167.23 120.21,-173.07"/>
</g>
<!-- Node9 -->
<g id="node9" class="node">
<title>Node9</title>
<g id="a_node9"><a xlink:href="classrare_1_1utils_1_1json__formatter_1_1_q_json_model.html#af4eeafe773437e494d54ce4a1fe650f1" target="_top" xlink:title=" ">
<polygon fill="white" stroke="black" points="91,-67.5 91,-97.5 211,-97.5 211,-67.5 91,-67.5"/>
<text text-anchor="start" x="99" y="-85.5" font-family="Helvetica,sans-Serif" font-size="10.00">rare.utils.json_formatter.</text>
<text text-anchor="middle" x="151" y="-74.5" font-family="Helvetica,sans-Serif" font-size="10.00">QJsonModel.rowCount</text>
</a>
</g>
</g>
<!-- Node1&#45;&gt;Node9 -->
<g id="edge11" class="edge">
<title>Node1&#45;&gt;Node9</title>
<path fill="none" stroke="midnightblue" d="M29.18,-229.99C36.5,-209.13 56.26,-158.61 86,-125.5 93.6,-117.04 103.21,-109.45 112.65,-103.1"/>
<polygon fill="midnightblue" stroke="midnightblue" points="114.68,-105.96 121.22,-97.62 110.91,-100.06 114.68,-105.96"/>
</g>
<!-- Node10 -->
<g id="node10" class="node">
<title>Node10</title>
<g id="a_node10"><a xlink:href="classrare_1_1components_1_1tabs_1_1settings_1_1widgets_1_1env__vars__model_1_1_env_vars_table_model.html#a0064237ecb5b28f0a9ce6c2a47ce3fbc" target="_top" xlink:title=" ">
<polygon fill="white" stroke="black" points="122,-202 122,-221 180,-221 180,-202 122,-202"/>
<text text-anchor="middle" x="151" y="-209" font-family="Helvetica,sans-Serif" font-size="10.00">rowCount</text>
</a>
</g>
</g>
<!-- Node1&#45;&gt;Node10 -->
<g id="edge13" class="edge">
<title>Node1&#45;&gt;Node10</title>
<path fill="none" stroke="midnightblue" d="M50.2,-234.03C67.81,-230.06 91.99,-224.6 112.14,-220.05"/>
<polygon fill="midnightblue" stroke="midnightblue" points="112.97,-223.45 121.96,-217.83 111.43,-216.62 112.97,-223.45"/>
</g>
<!-- Node6&#45;&gt;Node6 -->
<g id="edge6" class="edge">
<title>Node6&#45;&gt;Node6</title>
<path fill="none" stroke="midnightblue" d="M129.04,-30.66C123.75,-40.06 131.07,-49 151,-49 163.15,-49 170.61,-45.68 173.39,-40.96"/>
<polygon fill="midnightblue" stroke="midnightblue" points="176.87,-40.5 172.96,-30.66 169.88,-40.8 176.87,-40.5"/>
</g>
<!-- Node7 -->
<g id="node7" class="node">
<title>Node7</title>
<g id="a_node7"><a xlink:href="classrare_1_1shared_1_1workers_1_1worker_1_1_worker.html#a5d3220537164bdcd6c040b54ef85f656" target="_top" xlink:title=" ">
<polygon fill="white" stroke="black" points="252,-0.5 252,-30.5 387,-30.5 387,-0.5 252,-0.5"/>
<text text-anchor="start" x="260" y="-18.5" font-family="Helvetica,sans-Serif" font-size="10.00">rare.shared.workers.worker.</text>
<text text-anchor="middle" x="319.5" y="-7.5" font-family="Helvetica,sans-Serif" font-size="10.00">Worker.logger</text>
</a>
</g>
</g>
<!-- Node6&#45;&gt;Node7 -->
<g id="edge7" class="edge">
<title>Node6&#45;&gt;Node7</title>
<path fill="none" stroke="midnightblue" d="M216.37,-15.5C224.64,-15.5 233.16,-15.5 241.6,-15.5"/>
<polygon fill="midnightblue" stroke="midnightblue" points="241.82,-19 251.82,-15.5 241.82,-12 241.82,-19"/>
</g>
<!-- Node7&#45;&gt;Node7 -->
<g id="edge8" class="edge">
<title>Node7&#45;&gt;Node7</title>
<path fill="none" stroke="midnightblue" d="M290.22,-30.66C283.16,-40.06 292.92,-49 319.5,-49 335.7,-49 345.65,-45.68 349.35,-40.96"/>
<polygon fill="midnightblue" stroke="midnightblue" points="352.83,-40.45 348.78,-30.66 345.84,-40.84 352.83,-40.45"/>
</g>
<!-- Node8&#45;&gt;Node8 -->
<g id="edge10" class="edge">
<title>Node8&#45;&gt;Node8</title>
<path fill="none" stroke="midnightblue" d="M129.04,-164.66C123.75,-174.06 131.07,-183 151,-183 163.15,-183 170.61,-179.68 173.39,-174.96"/>
<polygon fill="midnightblue" stroke="midnightblue" points="176.87,-174.5 172.96,-164.66 169.88,-174.8 176.87,-174.5"/>
</g>
<!-- Node9&#45;&gt;Node9 -->
<g id="edge12" class="edge">
<title>Node9&#45;&gt;Node9</title>
<path fill="none" stroke="midnightblue" d="M129.04,-97.66C123.75,-107.06 131.07,-116 151,-116 163.15,-116 170.61,-112.68 173.39,-107.96"/>
<polygon fill="midnightblue" stroke="midnightblue" points="176.87,-107.5 172.96,-97.66 169.88,-107.8 176.87,-107.5"/>
</g>
<!-- Node10&#45;&gt;Node2 -->
<g id="edge14" class="edge">
<title>Node10&#45;&gt;Node2</title>
<path fill="none" stroke="midnightblue" d="M170.78,-221.09C200.08,-236.05 256.86,-265.03 290.85,-282.38"/>
<polygon fill="midnightblue" stroke="midnightblue" points="289.29,-285.52 299.79,-286.95 292.48,-279.29 289.29,-285.52"/>
</g>
<!-- Node10&#45;&gt;Node10 -->
<g id="edge15" class="edge">
<title>Node10&#45;&gt;Node10</title>
<path fill="none" stroke="midnightblue" d="M131.58,-221.26C122.13,-230.07 128.61,-239.5 151,-239.5 165.35,-239.5 173.16,-235.63 174.44,-230.53"/>
<polygon fill="midnightblue" stroke="midnightblue" points="177.61,-229.04 170.42,-221.26 171.18,-231.82 177.61,-229.04"/>
</g>
</g>
</svg>
