<?xml version="1.0" encoding="UTF-8" standalone="no"?>
<!DOCTYPE svg PUBLIC "-//W3C//DTD SVG 1.1//EN"
 "http://www.w3.org/Graphics/SVG/1.1/DTD/svg11.dtd">
<!-- Generated by graphviz version 2.49.3 (20211027.1534)
 -->
<!-- Title: action_handler Pages: 1 -->
<svg width="273pt" height="124pt"
 viewBox="0.00 0.00 273.00 124.00" xmlns="http://www.w3.org/2000/svg" xmlns:xlink="http://www.w3.org/1999/xlink">
<g id="graph0" class="graph" transform="scale(1 1) rotate(0) translate(4 120)">
<title>action_handler</title>
<polygon fill="white" stroke="transparent" points="-4,4 -4,-120 269,-120 269,4 -4,4"/>
<!-- Node1 -->
<g id="node1" class="node">
<title>Node1</title>
<g id="a_node1"><a xlink:title=" ">
<polygon fill="#bfbfbf" stroke="black" points="185,-39 185,-58 265,-58 265,-39 185,-39"/>
<text text-anchor="middle" x="225" y="-46" font-family="Helvetica,sans-Serif" font-size="10.00">action_handler</text>
</a>
</g>
</g>
<!-- Node1&#45;&gt;Node1 -->
<g id="edge3" class="edge">
<title>Node1&#45;&gt;Node1</title>
<path fill="none" stroke="midnightblue" d="M253,-67.15C251.83,-72.44 242.5,-76.5 225,-76.5 198.34,-76.5 190.63,-67.07 201.88,-58.26"/>
<polygon fill="midnightblue" stroke="midnightblue" points="256,-65.34 248.12,-58.26 249.86,-68.71 256,-65.34"/>
</g>
<!-- Node2 -->
<g id="node2" class="node">
<title>Node2</title>
<g id="a_node2"><a xlink:href="classrare_1_1widgets_1_1dialogs_1_1_action_dialog.html#a10c562aecba2dac76244db2a3ffd290d" target="_top" xlink:title=" ">
<polygon fill="white" stroke="black" points="8.5,-67.5 8.5,-97.5 140.5,-97.5 140.5,-67.5 8.5,-67.5"/>
<text text-anchor="start" x="16.5" y="-85.5" font-family="Helvetica,sans-Serif" font-size="10.00">rare.widgets.dialogs.Action</text>
<text text-anchor="middle" x="74.5" y="-74.5" font-family="Helvetica,sans-Serif" font-size="10.00">Dialog.action</text>
</a>
</g>
</g>
<!-- Node1&#45;&gt;Node2 -->
<g id="edge1" class="edge">
<title>Node1&#45;&gt;Node2</title>
<path fill="none" stroke="midnightblue" d="M175.13,-59.69C164.11,-62.21 152.24,-64.93 140.67,-67.58"/>
<polygon fill="midnightblue" stroke="midnightblue" points="176.02,-63.08 184.98,-57.43 174.45,-56.25 176.02,-63.08"/>
</g>
<!-- Node3 -->
<g id="node3" class="node">
<title>Node3</title>
<g id="a_node3"><a xlink:href="classrare_1_1components_1_1dialogs_1_1install__dialog_1_1_install_dialog.html#aa902973791e81c8c4542da337b86289b" target="_top" xlink:title=" ">
<polygon fill="white" stroke="black" points="0,-0.5 0,-30.5 149,-30.5 149,-0.5 0,-0.5"/>
<text text-anchor="start" x="8" y="-18.5" font-family="Helvetica,sans-Serif" font-size="10.00">rare.components.dialogs.install</text>
<text text-anchor="middle" x="74.5" y="-7.5" font-family="Helvetica,sans-Serif" font-size="10.00">_dialog.InstallDialog.execute</text>
</a>
</g>
</g>
<!-- Node1&#45;&gt;Node3 -->
<g id="edge4" class="edge">
<title>Node1&#45;&gt;Node3</title>
<path fill="none" stroke="midnightblue" d="M175.07,-37.63C164.89,-35.36 153.98,-32.94 143.26,-30.56"/>
<polygon fill="midnightblue" stroke="midnightblue" points="174.46,-41.08 184.98,-39.83 175.98,-34.24 174.46,-41.08"/>
</g>
<!-- Node2&#45;&gt;Node2 -->
<g id="edge2" class="edge">
<title>Node2&#45;&gt;Node2</title>
<path fill="none" stroke="midnightblue" d="M101.15,-107.96C97.85,-112.68 88.96,-116 74.5,-116 50.77,-116 42.06,-107.06 48.36,-97.66"/>
<polygon fill="midnightblue" stroke="midnightblue" points="104.63,-107.47 100.64,-97.66 97.64,-107.82 104.63,-107.47"/>
</g>
<!-- Node3&#45;&gt;Node3 -->
<g id="edge5" class="edge">
<title>Node3&#45;&gt;Node3</title>
<path fill="none" stroke="midnightblue" d="M101.15,-40.96C97.85,-45.68 88.96,-49 74.5,-49 50.77,-49 42.06,-40.06 48.36,-30.66"/>
<polygon fill="midnightblue" stroke="midnightblue" points="104.63,-40.47 100.64,-30.66 97.64,-40.82 104.63,-40.47"/>
</g>
</g>
</svg>
