<?xml version="1.0" encoding="UTF-8" standalone="no"?>
<!DOCTYPE svg PUBLIC "-//W3C//DTD SVG 1.1//EN"
 "http://www.w3.org/Graphics/SVG/1.1/DTD/svg11.dtd">
<!-- Generated by graphviz version 2.49.3 (20211027.1534)
 -->
<!-- Title: __init__ Pages: 1 -->
<svg width="374pt" height="237pt"
 viewBox="0.00 0.00 373.93 236.50" xmlns="http://www.w3.org/2000/svg" xmlns:xlink="http://www.w3.org/1999/xlink">
<g id="graph0" class="graph" transform="scale(1 1) rotate(0) translate(4 232.5)">
<title>__init__</title>
<polygon fill="white" stroke="transparent" points="-4,4 -4,-232.5 369.93,-232.5 369.93,4 -4,4"/>
<!-- Node1 -->
<g id="node1" class="node">
<title>Node1</title>
<g id="a_node1"><a xlink:title=" ">
<polygon fill="#bfbfbf" stroke="black" points="1.93,-104 1.93,-123 51.93,-123 51.93,-104 1.93,-104"/>
<text text-anchor="middle" x="26.93" y="-111" font-family="Helvetica,sans-Serif" font-size="10.00">__init__</text>
</a>
</g>
</g>
<!-- Node1&#45;&gt;Node1 -->
<g id="edge1" class="edge">
<title>Node1&#45;&gt;Node1</title>
<path fill="none" stroke="midnightblue" d="M5.04,-123.26C-5.61,-132.07 1.69,-141.5 26.93,-141.5 43.49,-141.5 52.32,-137.44 53.43,-132.15"/>
<polygon fill="midnightblue" stroke="midnightblue" points="56.53,-130.52 48.81,-123.26 50.31,-133.74 56.53,-130.52"/>
</g>
<!-- Node2 -->
<g id="node2" class="node">
<title>Node2</title>
<g id="a_node2"><a xlink:href="classrare_1_1widgets_1_1elide__label_1_1_elide_label.html#aad69b7a2ccd3b4aa49ddfb04545a0b7e" target="_top" xlink:title=" ">
<polygon fill="white" stroke="black" points="127.93,-191 127.93,-210 209.93,-210 209.93,-191 127.93,-191"/>
<text text-anchor="middle" x="168.93" y="-198" font-family="Helvetica,sans-Serif" font-size="10.00">setFixedHeight</text>
</a>
</g>
</g>
<!-- Node1&#45;&gt;Node2 -->
<g id="edge2" class="edge">
<title>Node1&#45;&gt;Node2</title>
<path fill="none" stroke="midnightblue" d="M33.6,-123.07C42.96,-137.99 63.09,-166.59 87.93,-181.5 97.02,-186.96 107.57,-190.84 117.96,-193.62"/>
<polygon fill="midnightblue" stroke="midnightblue" points="117.29,-197.06 127.83,-195.95 118.9,-190.24 117.29,-197.06"/>
</g>
<!-- Node3 -->
<g id="node3" class="node">
<title>Node3</title>
<g id="a_node3"><a xlink:href="classrare_1_1widgets_1_1elide__label_1_1_elide_label.html#aa25390a39bbdce0c91c93bb8adac619b" target="_top" xlink:title=" ">
<polygon fill="white" stroke="black" points="144.43,-135 144.43,-154 193.43,-154 193.43,-135 144.43,-135"/>
<text text-anchor="middle" x="168.93" y="-142" font-family="Helvetica,sans-Serif" font-size="10.00">setText</text>
</a>
</g>
</g>
<!-- Node1&#45;&gt;Node3 -->
<g id="edge4" class="edge">
<title>Node1&#45;&gt;Node3</title>
<path fill="none" stroke="midnightblue" d="M51.99,-118.83C74.67,-123.85 108.86,-131.42 134.24,-137.04"/>
<polygon fill="midnightblue" stroke="midnightblue" points="133.65,-140.5 144.17,-139.24 135.17,-133.66 133.65,-140.5"/>
</g>
<!-- Node6 -->
<g id="node6" class="node">
<title>Node6</title>
<g id="a_node6"><a xlink:href="classrare_1_1widgets_1_1collapsible__widget_1_1_collapsible_frame.html#aa1ce5c203733553579a07cf1db0da9df" target="_top" xlink:title=" ">
<polygon fill="white" stroke="black" points="87.93,-67.5 87.93,-97.5 249.93,-97.5 249.93,-67.5 87.93,-67.5"/>
<text text-anchor="start" x="95.93" y="-85.5" font-family="Helvetica,sans-Serif" font-size="10.00">rare.widgets.collapsible</text>
<text text-anchor="middle" x="168.93" y="-74.5" font-family="Helvetica,sans-Serif" font-size="10.00">_widget.CollapsibleFrame.setText</text>
</a>
</g>
</g>
<!-- Node1&#45;&gt;Node6 -->
<g id="edge9" class="edge">
<title>Node1&#45;&gt;Node6</title>
<path fill="none" stroke="midnightblue" d="M51.99,-108.17C62.75,-105.79 76.1,-102.83 89.87,-99.78"/>
<polygon fill="midnightblue" stroke="midnightblue" points="90.93,-103.13 99.94,-97.55 89.42,-96.3 90.93,-103.13"/>
</g>
<!-- Node7 -->
<g id="node7" class="node">
<title>Node7</title>
<g id="a_node7"><a xlink:href="classrare_1_1widgets_1_1indicator__edit_1_1_indicator_line_edit.html#aa1ce5c203733553579a07cf1db0da9df" target="_top" xlink:title=" ">
<polygon fill="white" stroke="black" points="95.43,-0.5 95.43,-30.5 242.43,-30.5 242.43,-0.5 95.43,-0.5"/>
<text text-anchor="start" x="103.43" y="-18.5" font-family="Helvetica,sans-Serif" font-size="10.00">rare.widgets.indicator</text>
<text text-anchor="middle" x="168.93" y="-7.5" font-family="Helvetica,sans-Serif" font-size="10.00">_edit.IndicatorLineEdit.setText</text>
</a>
</g>
</g>
<!-- Node1&#45;&gt;Node7 -->
<g id="edge11" class="edge">
<title>Node1&#45;&gt;Node7</title>
<path fill="none" stroke="midnightblue" d="M36.61,-103.95C47.73,-92.09 67.94,-71.68 87.93,-57.5 99.45,-49.33 112.76,-41.7 125.18,-35.26"/>
<polygon fill="midnightblue" stroke="midnightblue" points="127.11,-38.21 134.46,-30.57 123.96,-31.96 127.11,-38.21"/>
</g>
<!-- Node2&#45;&gt;Node2 -->
<g id="edge3" class="edge">
<title>Node2&#45;&gt;Node2</title>
<path fill="none" stroke="midnightblue" d="M147.04,-210.26C136.39,-219.07 143.69,-228.5 168.93,-228.5 185.49,-228.5 194.32,-224.44 195.43,-219.15"/>
<polygon fill="midnightblue" stroke="midnightblue" points="198.53,-217.52 190.81,-210.26 192.31,-220.74 198.53,-217.52"/>
</g>
<!-- Node3&#45;&gt;Node3 -->
<g id="edge6" class="edge">
<title>Node3&#45;&gt;Node3</title>
<path fill="none" stroke="midnightblue" d="M147.04,-154.26C136.39,-163.07 143.69,-172.5 168.93,-172.5 185.49,-172.5 194.32,-168.44 195.43,-163.15"/>
<polygon fill="midnightblue" stroke="midnightblue" points="198.53,-161.52 190.81,-154.26 192.31,-164.74 198.53,-161.52"/>
</g>
<!-- Node4 -->
<g id="node4" class="node">
<title>Node4</title>
<g id="a_node4"><a xlink:href="classrare_1_1widgets_1_1elide__label_1_1_elide_label.html#ad0cb63dd476fec536e87e7176b127a36" target="_top" xlink:title=" ">
<polygon fill="white" stroke="black" points="285.93,-163 285.93,-182 365.93,-182 365.93,-163 285.93,-163"/>
<text text-anchor="middle" x="325.93" y="-170" font-family="Helvetica,sans-Serif" font-size="10.00">__setElideText</text>
</a>
</g>
</g>
<!-- Node3&#45;&gt;Node4 -->
<g id="edge5" class="edge">
<title>Node3&#45;&gt;Node4</title>
<path fill="none" stroke="midnightblue" d="M193.47,-148.75C215.27,-152.69 248.37,-158.67 275.9,-163.64"/>
<polygon fill="midnightblue" stroke="midnightblue" points="275.3,-167.09 285.77,-165.43 276.55,-160.2 275.3,-167.09"/>
</g>
<!-- Node5 -->
<g id="node5" class="node">
<title>Node5</title>
<g id="a_node5"><a xlink:href="classrare_1_1widgets_1_1elide__label_1_1_elide_label.html#a33360da8f4ed32e6e51e3f3490c3a9da" target="_top" xlink:title=" ">
<polygon fill="white" stroke="black" points="294.93,-107 294.93,-126 356.93,-126 356.93,-107 294.93,-107"/>
<text text-anchor="middle" x="325.93" y="-114" font-family="Helvetica,sans-Serif" font-size="10.00">setToolTip</text>
</a>
</g>
</g>
<!-- Node3&#45;&gt;Node5 -->
<g id="edge7" class="edge">
<title>Node3&#45;&gt;Node5</title>
<path fill="none" stroke="midnightblue" d="M193.47,-140.25C217.6,-135.89 255.6,-129.02 284.55,-123.79"/>
<polygon fill="midnightblue" stroke="midnightblue" points="285.55,-127.17 294.77,-121.95 284.3,-120.28 285.55,-127.17"/>
</g>
<!-- Node5&#45;&gt;Node5 -->
<g id="edge8" class="edge">
<title>Node5&#45;&gt;Node5</title>
<path fill="none" stroke="midnightblue" d="M301.88,-126.26C290.19,-135.07 298.2,-144.5 325.93,-144.5 344.12,-144.5 353.83,-140.44 355.05,-135.15"/>
<polygon fill="midnightblue" stroke="midnightblue" points="357.97,-133.21 349.97,-126.26 351.89,-136.68 357.97,-133.21"/>
</g>
<!-- Node6&#45;&gt;Node6 -->
<g id="edge10" class="edge">
<title>Node6&#45;&gt;Node6</title>
<path fill="none" stroke="midnightblue" d="M144.18,-97.66C138.21,-107.06 146.46,-116 168.93,-116 182.62,-116 191.03,-112.68 194.16,-107.96"/>
<polygon fill="midnightblue" stroke="midnightblue" points="197.64,-107.48 193.67,-97.66 190.65,-107.81 197.64,-107.48"/>
</g>
<!-- Node7&#45;&gt;Node7 -->
<g id="edge12" class="edge">
<title>Node7&#45;&gt;Node7</title>
<path fill="none" stroke="midnightblue" d="M144.18,-30.66C138.21,-40.06 146.46,-49 168.93,-49 182.62,-49 191.03,-45.68 194.16,-40.96"/>
<polygon fill="midnightblue" stroke="midnightblue" points="197.64,-40.48 193.67,-30.66 190.65,-40.81 197.64,-40.48"/>
</g>
</g>
</svg>
