<?xml version="1.0" encoding="UTF-8" standalone="no"?>
<!DOCTYPE svg PUBLIC "-//W3C//DTD SVG 1.1//EN"
 "http://www.w3.org/Graphics/SVG/1.1/DTD/svg11.dtd">
<!-- Generated by graphviz version 2.49.3 (20211027.1534)
 -->
<!-- Title: SettingsTab Pages: 1 -->
<svg width="102pt" height="342pt"
 viewBox="0.00 0.00 102.00 342.00" xmlns="http://www.w3.org/2000/svg" xmlns:xlink="http://www.w3.org/1999/xlink">
<g id="graph0" class="graph" transform="scale(1 1) rotate(0) translate(4 338)">
<title>SettingsTab</title>
<polygon fill="white" stroke="transparent" points="-4,4 -4,-338 98,-338 98,4 -4,4"/>
<!-- Node1 -->
<g id="node1" class="node">
<title>Node1</title>
<g id="a_node1"><a xlink:title=" ">
<polygon fill="#bfbfbf" stroke="black" points="0,-0.5 0,-123.5 94,-123.5 94,-0.5 0,-0.5"/>
<text text-anchor="middle" x="47" y="-111.5" font-family="Helvetica,sans-Serif" font-size="10.00">SettingsTab</text>
<polyline fill="none" stroke="black" points="0,-104.5 94,-104.5 "/>
<text text-anchor="start" x="8" y="-92.5" font-family="Helvetica,sans-Serif" font-size="10.00">+ rare_index</text>
<text text-anchor="start" x="8" y="-81.5" font-family="Helvetica,sans-Serif" font-size="10.00">+ legendary_index</text>
<text text-anchor="start" x="8" y="-70.5" font-family="Helvetica,sans-Serif" font-size="10.00">+ game_index</text>
<text text-anchor="start" x="8" y="-59.5" font-family="Helvetica,sans-Serif" font-size="10.00">+ compat_index</text>
<text text-anchor="start" x="8" y="-48.5" font-family="Helvetica,sans-Serif" font-size="10.00">+ about</text>
<text text-anchor="start" x="8" y="-37.5" font-family="Helvetica,sans-Serif" font-size="10.00">+ about_index</text>
<text text-anchor="start" x="8" y="-26.5" font-family="Helvetica,sans-Serif" font-size="10.00">+ debug_index</text>
<polyline fill="none" stroke="black" points="0,-19.5 94,-19.5 "/>
<text text-anchor="start" x="8" y="-7.5" font-family="Helvetica,sans-Serif" font-size="10.00">+ __init__()</text>
</a>
</g>
</g>
<!-- Node2 -->
<g id="node2" class="node">
<title>Node2</title>
<g id="a_node2"><a xlink:href="classrare_1_1widgets_1_1side__tab_1_1_side_tab_widget.html" target="_top" xlink:title=" ">
<polygon fill="white" stroke="black" points="5.5,-160.5 5.5,-239.5 88.5,-239.5 88.5,-160.5 5.5,-160.5"/>
<text text-anchor="middle" x="47" y="-227.5" font-family="Helvetica,sans-Serif" font-size="10.00">SideTabWidget</text>
<polyline fill="none" stroke="black" points="5.5,-220.5 88.5,-220.5 "/>
<text text-anchor="start" x="13.5" y="-208.5" font-family="Helvetica,sans-Serif" font-size="10.00">+ back_clicked</text>
<polyline fill="none" stroke="black" points="5.5,-201.5 88.5,-201.5 "/>
<text text-anchor="start" x="13.5" y="-189.5" font-family="Helvetica,sans-Serif" font-size="10.00">+ __init__()</text>
<text text-anchor="start" x="13.5" y="-178.5" font-family="Helvetica,sans-Serif" font-size="10.00">+ back_func()</text>
<text text-anchor="start" x="13.5" y="-167.5" font-family="Helvetica,sans-Serif" font-size="10.00">+ addTab()</text>
</a>
</g>
</g>
<!-- Node2&#45;&gt;Node1 -->
<g id="edge1" class="edge">
<title>Node2&#45;&gt;Node1</title>
<path fill="none" stroke="midnightblue" d="M47,-150.14C47,-141.53 47,-132.47 47,-123.57"/>
<polygon fill="none" stroke="midnightblue" points="43.5,-150.39 47,-160.39 50.5,-150.39 43.5,-150.39"/>
</g>
<!-- Node3 -->
<g id="node3" class="node">
<title>Node3</title>
<g id="a_node3"><a xlink:title=" ">
<polygon fill="white" stroke="#bfbfbf" points="11.5,-276.5 11.5,-333.5 82.5,-333.5 82.5,-276.5 11.5,-276.5"/>
<text text-anchor="middle" x="47" y="-321.5" font-family="Helvetica,sans-Serif" font-size="10.00">QTabWidget</text>
<polyline fill="none" stroke="#bfbfbf" points="11.5,-314.5 82.5,-314.5 "/>
<text text-anchor="middle" x="47" y="-302.5" font-family="Helvetica,sans-Serif" font-size="10.00"> </text>
<polyline fill="none" stroke="#bfbfbf" points="11.5,-295.5 82.5,-295.5 "/>
<text text-anchor="middle" x="47" y="-283.5" font-family="Helvetica,sans-Serif" font-size="10.00"> </text>
</a>
</g>
</g>
<!-- Node3&#45;&gt;Node2 -->
<g id="edge2" class="edge">
<title>Node3&#45;&gt;Node2</title>
<path fill="none" stroke="midnightblue" d="M47,-266.16C47,-257.47 47,-248.23 47,-239.52"/>
<polygon fill="none" stroke="midnightblue" points="43.5,-266.4 47,-276.4 50.5,-266.4 43.5,-266.4"/>
</g>
</g>
</svg>
