<?xml version="1.0" encoding="UTF-8" standalone="no"?>
<!DOCTYPE svg PUBLIC "-//W3C//DTD SVG 1.1//EN"
 "http://www.w3.org/Graphics/SVG/1.1/DTD/svg11.dtd">
<!-- Generated by graphviz version 2.49.3 (20211027.1534)
 -->
<!-- Title: get Pages: 1 -->
<svg width="216pt" height="172pt"
 viewBox="0.00 0.00 216.46 171.50" xmlns="http://www.w3.org/2000/svg" xmlns:xlink="http://www.w3.org/1999/xlink">
<g id="graph0" class="graph" transform="scale(1 1) rotate(0) translate(4 167.5)">
<title>get</title>
<polygon fill="white" stroke="transparent" points="-4,4 -4,-167.5 212.46,-167.5 212.46,4 -4,4"/>
<!-- Node1 -->
<g id="node1" class="node">
<title>Node1</title>
<g id="a_node1"><a xlink:title=" ">
<polygon fill="#bfbfbf" stroke="black" points="7.46,-87 7.46,-106 37.46,-106 37.46,-87 7.46,-87"/>
<text text-anchor="middle" x="22.46" y="-94" font-family="Helvetica,sans-Serif" font-size="10.00">get</text>
</a>
</g>
</g>
<!-- Node1&#45;&gt;Node1 -->
<g id="edge4" class="edge">
<title>Node1&#45;&gt;Node1</title>
<path fill="none" stroke="midnightblue" d="M7.34,-103.67C-5.63,-113.11 -0.59,-124.5 22.46,-124.5 39.39,-124.5 46.6,-118.36 44.11,-111.35"/>
<polygon fill="midnightblue" stroke="midnightblue" points="46.73,-109.03 37.59,-103.67 41.39,-113.56 46.73,-109.03"/>
</g>
<!-- Node2 -->
<g id="node2" class="node">
<title>Node2</title>
<g id="a_node2"><a xlink:href="classrare_1_1utils_1_1qrequests_1_1_q_requests.html#a9c2493021751bfd2dbd454dd32f0c46f" target="_top" xlink:title=" ">
<polygon fill="white" stroke="black" points="120.46,-144 120.46,-163 161.46,-163 161.46,-144 120.46,-144"/>
<text text-anchor="middle" x="140.96" y="-151" font-family="Helvetica,sans-Serif" font-size="10.00">__get</text>
</a>
</g>
</g>
<!-- Node1&#45;&gt;Node2 -->
<g id="edge1" class="edge">
<title>Node1&#45;&gt;Node2</title>
<path fill="none" stroke="midnightblue" d="M33.8,-106.21C43.4,-114.76 58.45,-126.98 73.46,-134.5 85,-140.28 98.58,-144.55 110.45,-147.57"/>
<polygon fill="midnightblue" stroke="midnightblue" points="109.8,-151.01 120.34,-149.9 111.41,-144.2 109.8,-151.01"/>
</g>
<!-- Node3 -->
<g id="node3" class="node">
<title>Node3</title>
<g id="a_node3"><a xlink:href="classrare_1_1utils_1_1qrequests_1_1_q_requests.html#a91bfa6615f90f43ca45b4eb8c71e2f33" target="_top" xlink:title=" ">
<polygon fill="white" stroke="black" points="84.96,-106 84.96,-125 196.96,-125 196.96,-106 84.96,-106"/>
<text text-anchor="middle" x="140.96" y="-113" font-family="Helvetica,sans-Serif" font-size="10.00">__parse_content_type</text>
</a>
</g>
</g>
<!-- Node1&#45;&gt;Node3 -->
<g id="edge2" class="edge">
<title>Node1&#45;&gt;Node3</title>
<path fill="none" stroke="midnightblue" d="M37.75,-98.83C47.33,-100.39 60.71,-102.57 74.63,-104.85"/>
<polygon fill="midnightblue" stroke="midnightblue" points="74.39,-108.35 84.82,-106.51 75.52,-101.44 74.39,-108.35"/>
</g>
<!-- Node4 -->
<g id="node4" class="node">
<title>Node4</title>
<g id="a_node4"><a xlink:href="classrare_1_1utils_1_1qrequests_1_1_q_requests.html#a9d0f4a6b97b761c7f7ca6d4e723a178e" target="_top" xlink:title=" ">
<polygon fill="white" stroke="black" points="96.96,-68 96.96,-87 184.96,-87 184.96,-68 96.96,-68"/>
<text text-anchor="middle" x="140.96" y="-75" font-family="Helvetica,sans-Serif" font-size="10.00">__prepare_query</text>
</a>
</g>
</g>
<!-- Node1&#45;&gt;Node4 -->
<g id="edge3" class="edge">
<title>Node1&#45;&gt;Node4</title>
<path fill="none" stroke="midnightblue" d="M37.75,-94.17C50.15,-92.15 68.92,-89.09 87,-86.14"/>
<polygon fill="midnightblue" stroke="midnightblue" points="87.63,-89.58 96.93,-84.52 86.5,-82.67 87.63,-89.58"/>
</g>
<!-- Node5 -->
<g id="node5" class="node">
<title>Node5</title>
<g id="a_node5"><a xlink:href="classrare_1_1shared_1_1workers_1_1worker_1_1_worker.html#a5d3220537164bdcd6c040b54ef85f656" target="_top" xlink:title=" ">
<polygon fill="white" stroke="black" points="73.46,-0.5 73.46,-30.5 208.46,-30.5 208.46,-0.5 73.46,-0.5"/>
<text text-anchor="start" x="81.46" y="-18.5" font-family="Helvetica,sans-Serif" font-size="10.00">rare.shared.workers.worker.</text>
<text text-anchor="middle" x="140.96" y="-7.5" font-family="Helvetica,sans-Serif" font-size="10.00">Worker.logger</text>
</a>
</g>
</g>
<!-- Node1&#45;&gt;Node5 -->
<g id="edge5" class="edge">
<title>Node1&#45;&gt;Node5</title>
<path fill="none" stroke="midnightblue" d="M35.6,-86.87C45.61,-79.02 60.25,-67.77 73.46,-58.5 84.19,-50.97 96.15,-43.09 106.93,-36.16"/>
<polygon fill="midnightblue" stroke="midnightblue" points="109.11,-38.92 115.66,-30.59 105.35,-33.02 109.11,-38.92"/>
</g>
<!-- Node5&#45;&gt;Node5 -->
<g id="edge6" class="edge">
<title>Node5&#45;&gt;Node5</title>
<path fill="none" stroke="midnightblue" d="M120.4,-30.66C115.44,-40.06 122.29,-49 140.96,-49 152.34,-49 159.33,-45.68 161.93,-40.96"/>
<polygon fill="midnightblue" stroke="midnightblue" points="165.41,-40.51 161.53,-30.66 158.42,-40.79 165.41,-40.51"/>
</g>
</g>
</svg>
