<?xml version="1.0" encoding="UTF-8" standalone="no"?>
<!DOCTYPE svg PUBLIC "-//W3C//DTD SVG 1.1//EN"
 "http://www.w3.org/Graphics/SVG/1.1/DTD/svg11.dtd">
<!-- Generated by graphviz version 2.49.3 (20211027.1534)
 -->
<!-- Title: save Pages: 1 -->
<svg width="829pt" height="186pt"
 viewBox="0.00 0.00 828.84 186.00" xmlns="http://www.w3.org/2000/svg" xmlns:xlink="http://www.w3.org/1999/xlink">
<g id="graph0" class="graph" transform="scale(1 1) rotate(0) translate(4 182)">
<title>save</title>
<polygon fill="white" stroke="transparent" points="-4,4 -4,-182 824.84,-182 824.84,4 -4,4"/>
<!-- Node1 -->
<g id="node1" class="node">
<title>Node1</title>
<g id="a_node1"><a xlink:title=" ">
<polygon fill="#bfbfbf" stroke="black" points="771,-73 771,-92 809,-92 809,-73 771,-73"/>
<text text-anchor="middle" x="790" y="-80" font-family="Helvetica,sans-Serif" font-size="10.00">save</text>
</a>
</g>
</g>
<!-- Node1&#45;&gt;Node1 -->
<g id="edge12" class="edge">
<title>Node1&#45;&gt;Node1</title>
<path fill="none" stroke="midnightblue" d="M817.72,-94.27C826.18,-102.44 816.94,-110.5 790,-110.5 756.85,-110.5 750.5,-98.3 770.96,-88.69"/>
<polygon fill="midnightblue" stroke="midnightblue" points="819.34,-91.15 809.04,-88.69 815.56,-97.04 819.34,-91.15"/>
</g>
<!-- Node2 -->
<g id="node2" class="node">
<title>Node2</title>
<g id="a_node2"><a xlink:href="classrare_1_1components_1_1tabs_1_1settings_1_1widgets_1_1wrapper_1_1_wrapper_settings.html#a2d0f8d65d8eea0e38d4f4f688b95ac83" target="_top" xlink:title=" ">
<polygon fill="white" stroke="black" points="257,-129.5 257,-159.5 478,-159.5 478,-129.5 257,-129.5"/>
<text text-anchor="start" x="265" y="-147.5" font-family="Helvetica,sans-Serif" font-size="10.00">rare.components.tabs.settings.widgets.wrapper.</text>
<text text-anchor="middle" x="367.5" y="-136.5" font-family="Helvetica,sans-Serif" font-size="10.00">WrapperSettings.add_wrapper</text>
</a>
</g>
</g>
<!-- Node1&#45;&gt;Node2 -->
<g id="edge1" class="edge">
<title>Node1&#45;&gt;Node2</title>
<path fill="none" stroke="midnightblue" d="M773.45,-99.27C763.47,-108.81 749.68,-119.94 735,-125.5 652.93,-156.59 553.06,-159.73 478.32,-155.99"/>
<polygon fill="midnightblue" stroke="midnightblue" points="776.01,-101.66 780.57,-92.09 771.04,-96.73 776.01,-101.66"/>
</g>
<!-- Node4 -->
<g id="node4" class="node">
<title>Node4</title>
<g id="a_node4"><a xlink:href="classrare_1_1components_1_1tabs_1_1settings_1_1widgets_1_1wrapper_1_1_wrapper_settings.html#ad9cf11ee037042a34e4226af64798193" target="_top" xlink:title=" ">
<polygon fill="white" stroke="black" points="514,-67.5 514,-97.5 735,-97.5 735,-67.5 514,-67.5"/>
<text text-anchor="start" x="522" y="-85.5" font-family="Helvetica,sans-Serif" font-size="10.00">rare.components.tabs.settings.widgets.wrapper.</text>
<text text-anchor="middle" x="624.5" y="-74.5" font-family="Helvetica,sans-Serif" font-size="10.00">WrapperSettings.delete_wrapper</text>
</a>
</g>
</g>
<!-- Node1&#45;&gt;Node4 -->
<g id="edge5" class="edge">
<title>Node1&#45;&gt;Node4</title>
<path fill="none" stroke="midnightblue" d="M760.65,-82.5C753.09,-82.5 744.46,-82.5 735.28,-82.5"/>
<polygon fill="midnightblue" stroke="midnightblue" points="760.88,-86 770.88,-82.5 760.88,-79 760.88,-86"/>
</g>
<!-- Node6 -->
<g id="node6" class="node">
<title>Node6</title>
<g id="a_node6"><a xlink:href="classrare_1_1components_1_1tabs_1_1settings_1_1widgets_1_1wrapper_1_1_wrapper_container.html#a635f7652b6a8b627b7448d53603de00a" target="_top" xlink:title=" ">
<polygon fill="white" stroke="black" points="514,-0.5 514,-30.5 735,-30.5 735,-0.5 514,-0.5"/>
<text text-anchor="start" x="522" y="-18.5" font-family="Helvetica,sans-Serif" font-size="10.00">rare.components.tabs.settings.widgets.wrapper.</text>
<text text-anchor="middle" x="624.5" y="-7.5" font-family="Helvetica,sans-Serif" font-size="10.00">WrapperContainer.dropEvent</text>
</a>
</g>
</g>
<!-- Node1&#45;&gt;Node6 -->
<g id="edge10" class="edge">
<title>Node1&#45;&gt;Node6</title>
<path fill="none" stroke="midnightblue" d="M761.56,-69.36C753.1,-65.43 743.71,-61.18 735,-57.5 712.59,-48.03 687.24,-38.25 666.58,-30.51"/>
<polygon fill="midnightblue" stroke="midnightblue" points="760.1,-72.54 770.64,-73.63 763.08,-66.21 760.1,-72.54"/>
</g>
<!-- Node2&#45;&gt;Node2 -->
<g id="edge4" class="edge">
<title>Node2&#45;&gt;Node2</title>
<path fill="none" stroke="midnightblue" d="M413.4,-169.59C408.11,-174.51 392.81,-178 367.5,-178 327,-178 312.13,-169.06 322.89,-159.66"/>
<polygon fill="midnightblue" stroke="midnightblue" points="416.87,-169.12 412.11,-159.66 409.93,-170.03 416.87,-169.12"/>
</g>
<!-- Node3 -->
<g id="node3" class="node">
<title>Node3</title>
<g id="a_node3"><a xlink:href="classrare_1_1components_1_1tabs_1_1settings_1_1widgets_1_1wrapper_1_1_wrapper_settings.html#a20a157d42aada3e8763402bf91304b88" target="_top" xlink:title=" ">
<polygon fill="white" stroke="black" points="0,-129.5 0,-159.5 221,-159.5 221,-129.5 0,-129.5"/>
<text text-anchor="start" x="8" y="-147.5" font-family="Helvetica,sans-Serif" font-size="10.00">rare.components.tabs.settings.widgets.wrapper.</text>
<text text-anchor="middle" x="110.5" y="-136.5" font-family="Helvetica,sans-Serif" font-size="10.00">WrapperSettings.add_button_pressed</text>
</a>
</g>
</g>
<!-- Node2&#45;&gt;Node3 -->
<g id="edge2" class="edge">
<title>Node2&#45;&gt;Node3</title>
<path fill="none" stroke="midnightblue" d="M246.81,-144.5C238.21,-144.5 229.57,-144.5 221.03,-144.5"/>
<polygon fill="midnightblue" stroke="midnightblue" points="246.88,-148 256.88,-144.5 246.88,-141 246.88,-148"/>
</g>
<!-- Node3&#45;&gt;Node3 -->
<g id="edge3" class="edge">
<title>Node3&#45;&gt;Node3</title>
<path fill="none" stroke="midnightblue" d="M156.4,-169.59C151.11,-174.51 135.81,-178 110.5,-178 70,-178 55.13,-169.06 65.89,-159.66"/>
<polygon fill="midnightblue" stroke="midnightblue" points="159.87,-169.12 155.11,-159.66 152.93,-170.03 159.87,-169.12"/>
</g>
<!-- Node4&#45;&gt;Node2 -->
<g id="edge6" class="edge">
<title>Node4&#45;&gt;Node2</title>
<path fill="none" stroke="midnightblue" d="M558.26,-100.13C533.22,-106.74 504.33,-114.18 478,-120.5 465.42,-123.52 451.98,-126.59 438.99,-129.48"/>
<polygon fill="midnightblue" stroke="midnightblue" points="559.24,-103.49 568.01,-97.54 557.45,-96.72 559.24,-103.49"/>
</g>
<!-- Node4&#45;&gt;Node4 -->
<g id="edge9" class="edge">
<title>Node4&#45;&gt;Node4</title>
<path fill="none" stroke="midnightblue" d="M653.64,-107.96C650.02,-112.68 640.31,-116 624.5,-116 598.55,-116 589.03,-107.06 595.92,-97.66"/>
<polygon fill="midnightblue" stroke="midnightblue" points="657.12,-107.45 653.08,-97.66 650.13,-107.83 657.12,-107.45"/>
</g>
<!-- Node5 -->
<g id="node5" class="node">
<title>Node5</title>
<g id="a_node5"><a xlink:href="classrare_1_1components_1_1tabs_1_1settings_1_1widgets_1_1wrapper_1_1_wrapper_widget.html#a945b8d6db900564ddaa60ff23dcfe175" target="_top" xlink:title=" ">
<polygon fill="white" stroke="black" points="257,-62.5 257,-92.5 478,-92.5 478,-62.5 257,-62.5"/>
<text text-anchor="start" x="265" y="-80.5" font-family="Helvetica,sans-Serif" font-size="10.00">rare.components.tabs.settings.widgets.wrapper.</text>
<text text-anchor="middle" x="367.5" y="-69.5" font-family="Helvetica,sans-Serif" font-size="10.00">WrapperWidget.delete</text>
</a>
</g>
</g>
<!-- Node4&#45;&gt;Node5 -->
<g id="edge7" class="edge">
<title>Node4&#45;&gt;Node5</title>
<path fill="none" stroke="midnightblue" d="M503.81,-80.15C495.21,-79.98 486.57,-79.82 478.03,-79.65"/>
<polygon fill="midnightblue" stroke="midnightblue" points="503.81,-83.65 513.88,-80.35 503.95,-76.66 503.81,-83.65"/>
</g>
<!-- Node5&#45;&gt;Node5 -->
<g id="edge8" class="edge">
<title>Node5&#45;&gt;Node5</title>
<path fill="none" stroke="midnightblue" d="M413.4,-102.59C408.11,-107.51 392.81,-111 367.5,-111 327,-111 312.13,-102.06 322.89,-92.66"/>
<polygon fill="midnightblue" stroke="midnightblue" points="416.87,-102.12 412.11,-92.66 409.93,-103.03 416.87,-102.12"/>
</g>
<!-- Node6&#45;&gt;Node6 -->
<g id="edge11" class="edge">
<title>Node6&#45;&gt;Node6</title>
<path fill="none" stroke="midnightblue" d="M653.64,-40.96C650.02,-45.68 640.31,-49 624.5,-49 598.55,-49 589.03,-40.06 595.92,-30.66"/>
<polygon fill="midnightblue" stroke="midnightblue" points="657.12,-40.45 653.08,-30.66 650.13,-40.83 657.12,-40.45"/>
</g>
</g>
</svg>
