<?xml version="1.0" encoding="UTF-8" standalone="no"?>
<!DOCTYPE svg PUBLIC "-//W3C//DTD SVG 1.1//EN"
 "http://www.w3.org/Graphics/SVG/1.1/DTD/svg11.dtd">
<!-- Generated by graphviz version 2.49.3 (20211027.1534)
 -->
<!-- Title: start_prepare Pages: 1 -->
<!--zoomable 386 -->
<svg id="main" version="1.1" xmlns="http://www.w3.org/2000/svg" xmlns:xlink="http://www.w3.org/1999/xlink" xml:space="preserve" onload="init(evt)">
<style type="text/css"><![CDATA[
.edge:hover path { stroke: red; }
.edge:hover polygon { stroke: red; fill: red; }
]]></style>
<script type="text/javascript"><![CDATA[
var edges = document.getElementsByTagName('g');
if (edges && edges.length) {
  for (var i=0;i<edges.length;i++) {
    if (edges[i].id.substr(0,4)=='edge') {
      edges[i].setAttribute('class','edge');
    }
  }
}
]]></script>
        <defs>
                <circle id="rim" cx="0" cy="0" r="7"/>
                <circle id="rim2" cx="0" cy="0" r="3.5"/>
                <g id="zoomPlus">
                        <use xlink:href="#rim" fill="#404040">
                                <set attributeName="fill" to="#808080" begin="zoomplus.mouseover" end="zoomplus.mouseout"/>
                        </use>
                        <path d="M-4,0h8M0,-4v8" fill="none" stroke="white" stroke-width="1.5" pointer-events="none"/>
                </g>
                <g id="zoomMin">
                        <use xlink:href="#rim" fill="#404040">
                                <set attributeName="fill" to="#808080" begin="zoomminus.mouseover" end="zoomminus.mouseout"/>
                        </use>
                        <path d="M-4,0h8" fill="none" stroke="white" stroke-width="1.5" pointer-events="none"/>
                </g>
                <g id="dirArrow">
                        <path fill="none" stroke="white" stroke-width="1.5" d="M0,-3.0v7 M-2.5,-0.5L0,-3.0L2.5,-0.5"/>
                </g>
               <g id="resetDef">
                       <use xlink:href="#rim2" fill="#404040">
                               <set attributeName="fill" to="#808080" begin="reset.mouseover" end="reset.mouseout"/>
                       </use>
               </g>
        </defs>

<script type="text/javascript">
var viewWidth = 705;
var viewHeight = 386;
var sectionId = 'dynsection-20';
</script>
<script xlink:href="svgpan.js"/>
<svg id="graph" class="graph">
<g id="viewport">
<title>start_prepare</title>
<polygon fill="white" stroke="transparent" points="-4,4 -4,-382 701,-382 701,4 -4,4"/>
<!-- Node1 -->
<g id="node1" class="node">
<title>Node1</title>
<g id="a_node1"><a xlink:title=" ">
<polygon fill="#bfbfbf" stroke="black" points="0,-70.5 0,-89.5 74,-89.5 74,-70.5 0,-70.5"/>
<text text-anchor="middle" x="37" y="-77.5" font-family="Helvetica,sans-Serif" font-size="10.00">start_prepare</text>
</a>
</g>
</g>
<!-- Node1&#45;&gt;Node1 -->
<g id="edge32" class="edge">
<title>Node1&#45;&gt;Node1</title>
<path fill="none" stroke="midnightblue" d="M20.05,-89.76C11.8,-98.57 17.45,-108 37,-108 49.22,-108 56.01,-104.31 57.37,-99.4"/>
<polygon fill="midnightblue" stroke="midnightblue" points="60.59,-98.01 53.95,-89.76 53.99,-100.35 60.59,-98.01"/>
</g>
<!-- Node2 -->
<g id="node2" class="node">
<title>Node2</title>
<g id="a_node2"><a xlink:href="classrare_1_1shared_1_1rare__core_1_1_rare_core.html#a673cb72b40e8c1b2dfab6dbc0e0e39e4" target="_top" xlink:title=" ">
<polygon fill="white" stroke="black" points="393,-95 393,-125 523,-125 523,-95 393,-95"/>
<text text-anchor="start" x="401" y="-113" font-family="Helvetica,sans-Serif" font-size="10.00">rare.shared.rare_core.Rare</text>
<text text-anchor="middle" x="458" y="-102" font-family="Helvetica,sans-Serif" font-size="10.00">Core.args</text>
</a>
</g>
</g>
<!-- Node1&#45;&gt;Node2 -->
<g id="edge1" class="edge">
<title>Node1&#45;&gt;Node2</title>
<path fill="none" stroke="midnightblue" d="M74.19,-85.61C85.62,-87.22 98.32,-88.85 110,-90 203.87,-99.21 312.48,-104.63 382.83,-107.45"/>
<polygon fill="midnightblue" stroke="midnightblue" points="382.8,-110.95 392.93,-107.85 383.07,-103.96 382.8,-110.95"/>
</g>
<!-- Node3 -->
<g id="node3" class="node">
<title>Node3</title>
<g id="a_node3"><a xlink:href="classrare_1_1commands_1_1launcher_1_1_rare_launcher.html#ac2d7fc08d8189d84d207151df722ee19" target="_top" xlink:title=" ">
<polygon fill="white" stroke="black" points="418.5,-238.5 418.5,-257.5 497.5,-257.5 497.5,-238.5 418.5,-238.5"/>
<text text-anchor="middle" x="458" y="-245.5" font-family="Helvetica,sans-Serif" font-size="10.00">error_occurred</text>
</a>
</g>
</g>
<!-- Node1&#45;&gt;Node3 -->
<g id="edge3" class="edge">
<title>Node1&#45;&gt;Node3</title>
<path fill="none" stroke="midnightblue" d="M40.65,-89.66C47.82,-114.14 69.81,-179.33 110,-217 149.05,-253.6 167.65,-254.87 220,-266 284.25,-279.66 360.23,-269.38 408.51,-259.64"/>
<polygon fill="midnightblue" stroke="midnightblue" points="409.3,-263.05 418.38,-257.58 407.87,-256.2 409.3,-263.05"/>
</g>
<!-- Node8 -->
<g id="node8" class="node">
<title>Node8</title>
<g id="a_node8"><a xlink:href="classrare_1_1commands_1_1launcher_1_1_rare_launcher.html#a62864ecc73de3f9e4a009737d0c01f01" target="_top" xlink:title=" ">
<polygon fill="white" stroke="black" points="110,-170.5 110,-189.5 184,-189.5 184,-170.5 110,-170.5"/>
<text text-anchor="middle" x="147" y="-177.5" font-family="Helvetica,sans-Serif" font-size="10.00">launch_game</text>
</a>
</g>
</g>
<!-- Node1&#45;&gt;Node8 -->
<g id="edge13" class="edge">
<title>Node1&#45;&gt;Node8</title>
<path fill="none" stroke="midnightblue" d="M48.36,-89.59C66.69,-106.57 105.09,-142.12 127.89,-163.23"/>
<polygon fill="midnightblue" stroke="midnightblue" points="125.8,-166.07 135.52,-170.29 130.56,-160.93 125.8,-166.07"/>
</g>
<!-- Node10 -->
<g id="node10" class="node">
<title>Node10</title>
<g id="a_node10"><a xlink:href="classrare_1_1commands_1_1launcher_1_1_rare_launcher.html#af1af6ddf04f00f958949618f79c33b82" target="_top" xlink:title=" ">
<polygon fill="white" stroke="black" points="270.5,-38.5 270.5,-57.5 306.5,-57.5 306.5,-38.5 270.5,-38.5"/>
<text text-anchor="middle" x="288.5" y="-45.5" font-family="Helvetica,sans-Serif" font-size="10.00">start</text>
</a>
</g>
</g>
<!-- Node1&#45;&gt;Node10 -->
<g id="edge31" class="edge">
<title>Node1&#45;&gt;Node10</title>
<path fill="none" stroke="midnightblue" d="M74.01,-70.47C124.38,-61.4 214.76,-49.98 260.05,-47.1"/>
<polygon fill="midnightblue" stroke="midnightblue" points="260.48,-50.58 270.29,-46.57 260.12,-43.59 260.48,-50.58"/>
</g>
<!-- Node2&#45;&gt;Node2 -->
<g id="edge2" class="edge">
<title>Node2&#45;&gt;Node2</title>
<path fill="none" stroke="midnightblue" d="M428.72,-125.16C421.66,-134.56 431.42,-143.5 458,-143.5 474.2,-143.5 484.15,-140.18 487.85,-135.46"/>
<polygon fill="midnightblue" stroke="midnightblue" points="491.33,-134.95 487.28,-125.16 484.34,-135.34 491.33,-134.95"/>
</g>
<!-- Node3&#45;&gt;Node3 -->
<g id="edge6" class="edge">
<title>Node3&#45;&gt;Node3</title>
<path fill="none" stroke="midnightblue" d="M432.11,-257.76C419.51,-266.57 428.14,-276 458,-276 478.06,-276 488.54,-271.74 489.44,-266.27"/>
<polygon fill="midnightblue" stroke="midnightblue" points="492.28,-264.23 483.89,-257.76 486.42,-268.05 492.28,-264.23"/>
</g>
<!-- Node4 -->
<g id="node4" class="node">
<title>Node4</title>
<g id="a_node4"><a xlink:href="classrare_1_1shared_1_1rare__core_1_1_rare_core.html#a405e1a4f20f16120f872ccd2654a1d56" target="_top" xlink:title=" ">
<polygon fill="white" stroke="black" points="563,-77 563,-107 693,-107 693,-77 563,-77"/>
<text text-anchor="start" x="571" y="-95" font-family="Helvetica,sans-Serif" font-size="10.00">rare.shared.rare_core.Rare</text>
<text text-anchor="middle" x="628" y="-84" font-family="Helvetica,sans-Serif" font-size="10.00">Core.core</text>
</a>
</g>
</g>
<!-- Node3&#45;&gt;Node4 -->
<g id="edge4" class="edge">
<title>Node3&#45;&gt;Node4</title>
<path fill="none" stroke="midnightblue" d="M469.26,-238.48C495.59,-214.02 566.14,-148.51 603.32,-113.99"/>
<polygon fill="midnightblue" stroke="midnightblue" points="605.78,-116.48 610.72,-107.12 601.01,-111.35 605.78,-116.48"/>
</g>
<!-- Node5 -->
<g id="node5" class="node">
<title>Node5</title>
<g id="a_node5"><a xlink:href="classrare_1_1commands_1_1launcher_1_1_rare_launcher.html#a1ad309148fd22e4786258dc4a79ec7af" target="_top" xlink:title=" ">
<polygon fill="white" stroke="black" points="586.5,-340.5 586.5,-359.5 669.5,-359.5 669.5,-340.5 586.5,-340.5"/>
<text text-anchor="middle" x="628" y="-347.5" font-family="Helvetica,sans-Serif" font-size="10.00">send_message</text>
</a>
</g>
</g>
<!-- Node3&#45;&gt;Node5 -->
<g id="edge7" class="edge">
<title>Node3&#45;&gt;Node5</title>
<path fill="none" stroke="midnightblue" d="M474.57,-257.53C494.23,-269.56 529.09,-290.86 559,-309 573.32,-317.69 589.37,-327.36 602.27,-335.13"/>
<polygon fill="midnightblue" stroke="midnightblue" points="600.68,-338.26 611.05,-340.41 604.28,-332.26 600.68,-338.26"/>
</g>
<!-- Node6 -->
<g id="node6" class="node">
<title>Node6</title>
<g id="a_node6"><a xlink:href="classrare_1_1commands_1_1launcher_1_1_rare_launcher.html#a26ca7c1c7fcdd35378e7be97727047a6" target="_top" xlink:title=" ">
<polygon fill="white" stroke="black" points="610.5,-181.5 610.5,-200.5 645.5,-200.5 645.5,-181.5 610.5,-181.5"/>
<text text-anchor="middle" x="628" y="-188.5" font-family="Helvetica,sans-Serif" font-size="10.00">stop</text>
</a>
</g>
</g>
<!-- Node3&#45;&gt;Node6 -->
<g id="edge9" class="edge">
<title>Node3&#45;&gt;Node6</title>
<path fill="none" stroke="midnightblue" d="M487.12,-238.46C518.67,-227.75 569.48,-210.51 600.4,-200.02"/>
<polygon fill="midnightblue" stroke="midnightblue" points="601.72,-203.27 610.07,-196.74 599.47,-196.64 601.72,-203.27"/>
</g>
<!-- Node7 -->
<g id="node7" class="node">
<title>Node7</title>
<g id="a_node7"><a xlink:href="classrare_1_1widgets_1_1loading__widget_1_1_loading_widget.html#a26ca7c1c7fcdd35378e7be97727047a6" target="_top" xlink:title=" ">
<polygon fill="white" stroke="black" points="559,-251 559,-281 697,-281 697,-251 559,-251"/>
<text text-anchor="start" x="567" y="-269" font-family="Helvetica,sans-Serif" font-size="10.00">rare.widgets.loading</text>
<text text-anchor="middle" x="628" y="-258" font-family="Helvetica,sans-Serif" font-size="10.00">_widget.LoadingWidget.stop</text>
</a>
</g>
</g>
<!-- Node3&#45;&gt;Node7 -->
<g id="edge11" class="edge">
<title>Node3&#45;&gt;Node7</title>
<path fill="none" stroke="midnightblue" d="M497.54,-252.13C512.77,-253.76 530.84,-255.7 548.58,-257.6"/>
<polygon fill="midnightblue" stroke="midnightblue" points="548.65,-261.13 558.97,-258.71 549.4,-254.17 548.65,-261.13"/>
</g>
<!-- Node4&#45;&gt;Node4 -->
<g id="edge5" class="edge">
<title>Node4&#45;&gt;Node4</title>
<path fill="none" stroke="midnightblue" d="M598.37,-107.16C591.23,-116.56 601.11,-125.5 628,-125.5 644.39,-125.5 654.46,-122.18 658.21,-117.46"/>
<polygon fill="midnightblue" stroke="midnightblue" points="661.68,-116.95 657.63,-107.16 654.69,-117.34 661.68,-116.95"/>
</g>
<!-- Node5&#45;&gt;Node5 -->
<g id="edge8" class="edge">
<title>Node5&#45;&gt;Node5</title>
<path fill="none" stroke="midnightblue" d="M601.8,-359.76C589.05,-368.57 597.79,-378 628,-378 648.3,-378 658.9,-373.74 659.81,-368.27"/>
<polygon fill="midnightblue" stroke="midnightblue" points="662.63,-366.18 654.2,-359.76 656.78,-370.03 662.63,-366.18"/>
</g>
<!-- Node6&#45;&gt;Node6 -->
<g id="edge10" class="edge">
<title>Node6&#45;&gt;Node6</title>
<path fill="none" stroke="midnightblue" d="M610.18,-196.36C586.7,-206.08 592.64,-219 628,-219 657.84,-219 666.73,-209.8 654.67,-201.09"/>
<polygon fill="midnightblue" stroke="midnightblue" points="656.29,-197.98 645.82,-196.36 652.99,-204.16 656.29,-197.98"/>
</g>
<!-- Node7&#45;&gt;Node7 -->
<g id="edge12" class="edge">
<title>Node7&#45;&gt;Node7</title>
<path fill="none" stroke="midnightblue" d="M598.37,-281.16C591.23,-290.56 601.11,-299.5 628,-299.5 644.39,-299.5 654.46,-296.18 658.21,-291.46"/>
<polygon fill="midnightblue" stroke="midnightblue" points="661.68,-290.95 657.63,-281.16 654.69,-291.34 661.68,-290.95"/>
</g>
<!-- Node8&#45;&gt;Node2 -->
<g id="edge14" class="edge">
<title>Node8&#45;&gt;Node2</title>
<path fill="none" stroke="midnightblue" d="M184.05,-171.83C232.56,-160.84 320,-141.04 382.85,-126.8"/>
<polygon fill="midnightblue" stroke="midnightblue" points="383.74,-130.18 392.72,-124.56 382.2,-123.36 383.74,-130.18"/>
</g>
<!-- Node8&#45;&gt;Node5 -->
<g id="edge18" class="edge">
<title>Node8&#45;&gt;Node5</title>
<path fill="none" stroke="midnightblue" d="M150.69,-189.76C157.7,-213.12 178.88,-272.31 220,-299 330.7,-370.85 494.42,-365.4 576.38,-356.91"/>
<polygon fill="midnightblue" stroke="midnightblue" points="576.87,-360.38 586.43,-355.81 576.11,-353.42 576.87,-360.38"/>
</g>
<!-- Node8&#45;&gt;Node6 -->
<g id="edge29" class="edge">
<title>Node8&#45;&gt;Node6</title>
<path fill="none" stroke="midnightblue" d="M184,-180.83C276.06,-182.94 518.48,-188.51 599.9,-190.38"/>
<polygon fill="midnightblue" stroke="midnightblue" points="600.21,-193.89 610.28,-190.62 600.37,-186.89 600.21,-193.89"/>
</g>
<!-- Node8&#45;&gt;Node7 -->
<g id="edge30" class="edge">
<title>Node8&#45;&gt;Node7</title>
<path fill="none" stroke="midnightblue" d="M152.76,-189.55C162.52,-207.97 186.7,-248.17 220,-266 329.24,-324.49 479.81,-302.84 563.82,-283.41"/>
<polygon fill="midnightblue" stroke="midnightblue" points="564.81,-286.77 573.73,-281.05 563.19,-279.96 564.81,-286.77"/>
</g>
<!-- Node8&#45;&gt;Node8 -->
<g id="edge17" class="edge">
<title>Node8&#45;&gt;Node8</title>
<path fill="none" stroke="midnightblue" d="M130.05,-189.76C121.8,-198.57 127.45,-208 147,-208 159.22,-208 166.01,-204.31 167.37,-199.4"/>
<polygon fill="midnightblue" stroke="midnightblue" points="170.59,-198.01 163.95,-189.76 163.99,-200.35 170.59,-198.01"/>
</g>
<!-- Node9 -->
<g id="node9" class="node">
<title>Node9</title>
<g id="a_node9"><a xlink:href="namespacerare_1_1commands_1_1launcher_1_1lgd__helper.html#ae4079e12d04167490b2b535baf65034a" target="_top" xlink:title=" ">
<polygon fill="white" stroke="black" points="220,-209 220,-239 357,-239 357,-209 220,-209"/>
<text text-anchor="start" x="228" y="-227" font-family="Helvetica,sans-Serif" font-size="10.00">rare.commands.launcher.lgd</text>
<text text-anchor="middle" x="288.5" y="-216" font-family="Helvetica,sans-Serif" font-size="10.00">_helper.dict_to_qprocenv</text>
</a>
</g>
</g>
<!-- Node8&#45;&gt;Node9 -->
<g id="edge15" class="edge">
<title>Node8&#45;&gt;Node9</title>
<path fill="none" stroke="midnightblue" d="M178.27,-189.55C193.41,-194.32 212.26,-200.27 230.02,-205.87"/>
<polygon fill="midnightblue" stroke="midnightblue" points="229.15,-209.26 239.74,-208.93 231.25,-202.59 229.15,-209.26"/>
</g>
<!-- Node8&#45;&gt;Node10 -->
<g id="edge19" class="edge">
<title>Node8&#45;&gt;Node10</title>
<path fill="none" stroke="midnightblue" d="M158.49,-170.08C182.23,-147.61 240.34,-92.63 269.78,-64.77"/>
<polygon fill="midnightblue" stroke="midnightblue" points="272.41,-67.09 277.27,-57.68 267.6,-62.01 272.41,-67.09"/>
</g>
<!-- Node9&#45;&gt;Node9 -->
<g id="edge16" class="edge">
<title>Node9&#45;&gt;Node9</title>
<path fill="none" stroke="midnightblue" d="M264.1,-239.16C258.22,-248.56 266.35,-257.5 288.5,-257.5 302,-257.5 310.29,-254.18 313.38,-249.46"/>
<polygon fill="midnightblue" stroke="midnightblue" points="316.86,-248.99 312.9,-239.16 309.87,-249.31 316.86,-248.99"/>
</g>
<!-- Node10&#45;&gt;Node1 -->
<g id="edge24" class="edge">
<title>Node10&#45;&gt;Node1</title>
<path fill="none" stroke="midnightblue" d="M270.29,-53.84C232.3,-62.17 140.21,-74.56 84.06,-79.47"/>
<polygon fill="midnightblue" stroke="midnightblue" points="83.69,-75.99 74.01,-80.3 84.27,-82.96 83.69,-75.99"/>
</g>
<!-- Node10&#45;&gt;Node2 -->
<g id="edge20" class="edge">
<title>Node10&#45;&gt;Node2</title>
<path fill="none" stroke="midnightblue" d="M306.79,-54.4C330.15,-63.05 372.75,-78.81 406.63,-91.36"/>
<polygon fill="midnightblue" stroke="midnightblue" points="405.79,-94.78 416.38,-94.97 408.22,-88.21 405.79,-94.78"/>
</g>
<!-- Node10&#45;&gt;Node3 -->
<g id="edge22" class="edge">
<title>Node10&#45;&gt;Node3</title>
<path fill="none" stroke="midnightblue" d="M297.58,-57.65C324.06,-89.26 408.47,-190.05 442.54,-230.73"/>
<polygon fill="midnightblue" stroke="midnightblue" points="439.9,-233.03 449,-238.45 445.26,-228.54 439.9,-233.03"/>
</g>
<!-- Node10&#45;&gt;Node4 -->
<g id="edge21" class="edge">
<title>Node10&#45;&gt;Node4</title>
<path fill="none" stroke="midnightblue" d="M306.7,-50.24C351.34,-56.06 472.95,-71.92 552.82,-82.33"/>
<polygon fill="midnightblue" stroke="midnightblue" points="552.46,-85.81 562.83,-83.63 553.36,-78.87 552.46,-85.81"/>
</g>
<!-- Node10&#45;&gt;Node10 -->
<g id="edge23" class="edge">
<title>Node10&#45;&gt;Node10</title>
<path fill="none" stroke="midnightblue" d="M270.1,-55.46C255.3,-64.83 261.43,-76 288.5,-76 308.8,-76 317.33,-69.72 314.08,-62.62"/>
<polygon fill="midnightblue" stroke="midnightblue" points="316.45,-60.04 306.9,-55.46 311.5,-65 316.45,-60.04"/>
</g>
<!-- Node11 -->
<g id="node11" class="node">
<title>Node11</title>
<g id="a_node11"><a xlink:href="classrare_1_1commands_1_1launcher_1_1_rare_launcher.html#abc80b9c0d00c9ee171bcdd5b318f9329" target="_top" xlink:title=" ">
<polygon fill="white" stroke="black" points="425.5,-0.5 425.5,-19.5 490.5,-19.5 490.5,-0.5 425.5,-0.5"/>
<text text-anchor="middle" x="458" y="-7.5" font-family="Helvetica,sans-Serif" font-size="10.00">sync_ready</text>
</a>
</g>
</g>
<!-- Node10&#45;&gt;Node11 -->
<g id="edge25" class="edge">
<title>Node10&#45;&gt;Node11</title>
<path fill="none" stroke="midnightblue" d="M306.79,-44.08C332.2,-38.31 380.39,-27.38 415.35,-19.45"/>
<polygon fill="midnightblue" stroke="midnightblue" points="416.3,-22.82 425.28,-17.2 414.76,-15.99 416.3,-22.82"/>
</g>
<!-- Node11&#45;&gt;Node1 -->
<g id="edge27" class="edge">
<title>Node11&#45;&gt;Node1</title>
<path fill="none" stroke="midnightblue" d="M425.33,-10.67C379.65,-12.05 292.78,-16.27 220,-29 170.08,-37.73 158.77,-45.24 110,-59 100.23,-61.76 89.72,-64.79 79.84,-67.66"/>
<polygon fill="midnightblue" stroke="midnightblue" points="78.84,-64.31 70.22,-70.47 80.8,-71.03 78.84,-64.31"/>
</g>
<!-- Node11&#45;&gt;Node11 -->
<g id="edge28" class="edge">
<title>Node11&#45;&gt;Node11</title>
<path fill="none" stroke="midnightblue" d="M432.11,-19.76C419.51,-28.57 428.14,-38 458,-38 478.06,-38 488.54,-33.74 489.44,-28.27"/>
<polygon fill="midnightblue" stroke="midnightblue" points="492.28,-26.23 483.89,-19.76 486.42,-30.05 492.28,-26.23"/>
</g>
<!-- Node12 -->
<g id="node12" class="node">
<title>Node12</title>
<g id="a_node12"><a xlink:href="classrare_1_1commands_1_1launcher_1_1_rare_launcher.html#aead78a8c5e26925de34e45d4aae39b4e" target="_top" xlink:title=" ">
<polygon fill="white" stroke="black" points="590,-0.5 590,-19.5 666,-19.5 666,-0.5 590,-0.5"/>
<text text-anchor="middle" x="628" y="-7.5" font-family="Helvetica,sans-Serif" font-size="10.00">__sync_ready</text>
</a>
</g>
</g>
<!-- Node11&#45;&gt;Node12 -->
<g id="edge26" class="edge">
<title>Node11&#45;&gt;Node12</title>
<path fill="none" stroke="midnightblue" d="M490.6,-10C515.74,-10 551.31,-10 579.82,-10"/>
<polygon fill="midnightblue" stroke="midnightblue" points="579.98,-13.5 589.98,-10 579.98,-6.5 579.98,-13.5"/>
</g>
</g>
</svg>
        <g id="navigator" transform="translate(0 0)" fill="#404254">
                <rect fill="#f2f5e9" fill-opacity="0.5" stroke="#606060" stroke-width=".5" x="0" y="0" width="60" height="60"/>
                <use id="zoomplus" xlink:href="#zoomPlus" x="17" y="9" onmousedown="handleZoom(evt,'in')"/>
                <use id="zoomminus" xlink:href="#zoomMin" x="42" y="9" onmousedown="handleZoom(evt,'out')"/>
                <use id="reset" xlink:href="#resetDef" x="30" y="36" onmousedown="handleReset()"/>
                <g id="arrowUp" xlink:href="#dirArrow" transform="translate(30 24)" onmousedown="handlePan(0,-1)">
                  <use xlink:href="#rim" fill="#404040">
                        <set attributeName="fill" to="#808080" begin="arrowUp.mouseover" end="arrowUp.mouseout"/>
                  </use>
                  <path fill="none" stroke="white" stroke-width="1.5" d="M0,-3.0v7 M-2.5,-0.5L0,-3.0L2.5,-0.5"/>
                </g>
                <g id="arrowRight" xlink:href="#dirArrow" transform="rotate(90) translate(36 -43)" onmousedown="handlePan(1,0)">
                  <use xlink:href="#rim" fill="#404040">
                        <set attributeName="fill" to="#808080" begin="arrowRight.mouseover" end="arrowRight.mouseout"/>
                  </use>
                  <path fill="none" stroke="white" stroke-width="1.5" d="M0,-3.0v7 M-2.5,-0.5L0,-3.0L2.5,-0.5"/>
                </g>
                <g id="arrowDown" xlink:href="#dirArrow" transform="rotate(180) translate(-30 -48)" onmousedown="handlePan(0,1)">
                  <use xlink:href="#rim" fill="#404040">
                        <set attributeName="fill" to="#808080" begin="arrowDown.mouseover" end="arrowDown.mouseout"/>
                  </use>
                  <path fill="none" stroke="white" stroke-width="1.5" d="M0,-3.0v7 M-2.5,-0.5L0,-3.0L2.5,-0.5"/>
                </g>
                <g id="arrowLeft" xlink:href="#dirArrow" transform="rotate(270) translate(-36 17)" onmousedown="handlePan(-1,0)">
                  <use xlink:href="#rim" fill="#404040">
                        <set attributeName="fill" to="#808080" begin="arrowLeft.mouseover" end="arrowLeft.mouseout"/>
                  </use>
                  <path fill="none" stroke="white" stroke-width="1.5" d="M0,-3.0v7 M-2.5,-0.5L0,-3.0L2.5,-0.5"/>
                </g>
        </g>
        <svg viewBox="0 0 15 15" width="100%" height="30px" preserveAspectRatio="xMaxYMin meet">
         <g id="arrow_out" transform="scale(0.3 0.3)">
          <a xlink:href="classrare_1_1commands_1_1launcher_1_1_rare_launcher_ac8b8dc7f48f8405350185a34a814e908_cgraph_org.svg" target="_base">
           <rect id="button" ry="5" rx="5" y="6" x="6" height="38" width="38"
                fill="#f2f5e9" fill-opacity="0.5" stroke="#606060" stroke-width="1.0"/>
           <path id="arrow"
             d="M 11.500037,31.436501 C 11.940474,20.09759 22.043105,11.32322 32.158766,21.979434 L 37.068811,17.246167 C 37.068811,17.246167 37.088388,32 37.088388,32 L 22.160133,31.978069 C 22.160133,31.978069 26.997745,27.140456 26.997745,27.140456 C 18.528582,18.264221 13.291696,25.230495 11.500037,31.436501 z"
             style="fill:#404040;"/>
          </a>
         </g>
        </svg>
</svg>
