<?xml version="1.0" encoding="UTF-8" standalone="no"?>
<!DOCTYPE svg PUBLIC "-//W3C//DTD SVG 1.1//EN"
 "http://www.w3.org/Graphics/SVG/1.1/DTD/svg11.dtd">
<!-- Generated by graphviz version 2.49.3 (20211027.1534)
 -->
<!-- Title: install_overlay Pages: 1 -->
<svg width="274pt" height="258pt"
 viewBox="0.00 0.00 274.00 258.00" xmlns="http://www.w3.org/2000/svg" xmlns:xlink="http://www.w3.org/1999/xlink">
<g id="graph0" class="graph" transform="scale(1 1) rotate(0) translate(4 254)">
<title>install_overlay</title>
<polygon fill="white" stroke="transparent" points="-4,4 -4,-254 270,-254 270,4 -4,4"/>
<!-- Node1 -->
<g id="node1" class="node">
<title>Node1</title>
<g id="a_node1"><a xlink:title=" ">
<polygon fill="#bfbfbf" stroke="black" points="0,-106 0,-125 78,-125 78,-106 0,-106"/>
<text text-anchor="middle" x="39" y="-113" font-family="Helvetica,sans-Serif" font-size="10.00">install_overlay</text>
</a>
</g>
</g>
<!-- Node1&#45;&gt;Node1 -->
<g id="edge3" class="edge">
<title>Node1&#45;&gt;Node1</title>
<path fill="none" stroke="midnightblue" d="M15.88,-125.26C4.63,-134.07 12.34,-143.5 39,-143.5 56.5,-143.5 65.83,-139.44 67,-134.15"/>
<polygon fill="midnightblue" stroke="midnightblue" points="70,-132.34 62.12,-125.26 63.86,-135.71 70,-132.34"/>
</g>
<!-- Node2 -->
<g id="node2" class="node">
<title>Node2</title>
<g id="a_node2"><a xlink:href="classrare_1_1shared_1_1rare__core_1_1_rare_core.html#a405e1a4f20f16120f872ccd2654a1d56" target="_top" xlink:title=" ">
<polygon fill="white" stroke="black" points="125,-201.5 125,-231.5 255,-231.5 255,-201.5 125,-201.5"/>
<text text-anchor="start" x="133" y="-219.5" font-family="Helvetica,sans-Serif" font-size="10.00">rare.shared.rare_core.Rare</text>
<text text-anchor="middle" x="190" y="-208.5" font-family="Helvetica,sans-Serif" font-size="10.00">Core.core</text>
</a>
</g>
</g>
<!-- Node1&#45;&gt;Node2 -->
<g id="edge1" class="edge">
<title>Node1&#45;&gt;Node2</title>
<path fill="none" stroke="midnightblue" d="M46.63,-125.01C58.38,-141.18 84.42,-174.06 114,-192.5 116.64,-194.15 119.41,-195.69 122.25,-197.14"/>
<polygon fill="midnightblue" stroke="midnightblue" points="121.01,-200.42 131.56,-201.43 123.94,-194.06 121.01,-200.42"/>
</g>
<!-- Node3 -->
<g id="node3" class="node">
<title>Node3</title>
<g id="a_node3"><a xlink:href="classrare_1_1shared_1_1rare__core_1_1_rare_core.html#a135560fc58fcc2e5cff07ec25c23a06c" target="_top" xlink:title=" ">
<polygon fill="white" stroke="black" points="125,-134.5 125,-164.5 255,-164.5 255,-134.5 125,-134.5"/>
<text text-anchor="start" x="133" y="-152.5" font-family="Helvetica,sans-Serif" font-size="10.00">rare.shared.rare_core.Rare</text>
<text text-anchor="middle" x="190" y="-141.5" font-family="Helvetica,sans-Serif" font-size="10.00">Core.signals</text>
</a>
</g>
</g>
<!-- Node1&#45;&gt;Node3 -->
<g id="edge4" class="edge">
<title>Node1&#45;&gt;Node3</title>
<path fill="none" stroke="midnightblue" d="M78.37,-124.26C89.53,-126.8 102.11,-129.67 114.69,-132.54"/>
<polygon fill="midnightblue" stroke="midnightblue" points="114.22,-136.03 124.75,-134.84 115.78,-129.2 114.22,-136.03"/>
</g>
<!-- Node4 -->
<g id="node4" class="node">
<title>Node4</title>
<g id="a_node4"><a xlink:href="classrare_1_1shared_1_1workers_1_1worker_1_1_worker.html#a9998d928f5b6f30ebb69dc655c0756a8" target="_top" xlink:title=" ">
<polygon fill="white" stroke="black" points="122.5,-67.5 122.5,-97.5 257.5,-97.5 257.5,-67.5 122.5,-67.5"/>
<text text-anchor="start" x="130.5" y="-85.5" font-family="Helvetica,sans-Serif" font-size="10.00">rare.shared.workers.worker.</text>
<text text-anchor="middle" x="190" y="-74.5" font-family="Helvetica,sans-Serif" font-size="10.00">Worker.signals</text>
</a>
</g>
</g>
<!-- Node1&#45;&gt;Node4 -->
<g id="edge6" class="edge">
<title>Node1&#45;&gt;Node4</title>
<path fill="none" stroke="midnightblue" d="M78.37,-107C88.88,-104.67 100.65,-102.07 112.5,-99.44"/>
<polygon fill="midnightblue" stroke="midnightblue" points="113.43,-102.82 122.43,-97.24 111.91,-95.99 113.43,-102.82"/>
</g>
<!-- Node5 -->
<g id="node5" class="node">
<title>Node5</title>
<g id="a_node5"><a xlink:href="classrare_1_1components_1_1dialogs_1_1launch__dialog_1_1_image_worker.html#abfb44fdc3f5ec4c03f5d2e72900deb61" target="_top" xlink:title=" ">
<polygon fill="white" stroke="black" points="114,-0.5 114,-30.5 266,-30.5 266,-0.5 114,-0.5"/>
<text text-anchor="start" x="122" y="-18.5" font-family="Helvetica,sans-Serif" font-size="10.00">rare.components.dialogs.launch</text>
<text text-anchor="middle" x="190" y="-7.5" font-family="Helvetica,sans-Serif" font-size="10.00">_dialog.ImageWorker.tr</text>
</a>
</g>
</g>
<!-- Node1&#45;&gt;Node5 -->
<g id="edge8" class="edge">
<title>Node1&#45;&gt;Node5</title>
<path fill="none" stroke="midnightblue" d="M51.68,-105.7C65.96,-93.92 91.07,-73.8 114,-58.5 125.94,-50.53 139.42,-42.52 151.63,-35.6"/>
<polygon fill="midnightblue" stroke="midnightblue" points="153.65,-38.48 160.67,-30.55 150.24,-32.37 153.65,-38.48"/>
</g>
<!-- Node2&#45;&gt;Node2 -->
<g id="edge2" class="edge">
<title>Node2&#45;&gt;Node2</title>
<path fill="none" stroke="midnightblue" d="M163.86,-231.66C157.56,-241.06 166.27,-250 190,-250 204.46,-250 213.35,-246.68 216.65,-241.96"/>
<polygon fill="midnightblue" stroke="midnightblue" points="220.13,-241.47 216.14,-231.66 213.14,-241.82 220.13,-241.47"/>
</g>
<!-- Node3&#45;&gt;Node3 -->
<g id="edge5" class="edge">
<title>Node3&#45;&gt;Node3</title>
<path fill="none" stroke="midnightblue" d="M163.86,-164.66C157.56,-174.06 166.27,-183 190,-183 204.46,-183 213.35,-179.68 216.65,-174.96"/>
<polygon fill="midnightblue" stroke="midnightblue" points="220.13,-174.47 216.14,-164.66 213.14,-174.82 220.13,-174.47"/>
</g>
<!-- Node4&#45;&gt;Node4 -->
<g id="edge7" class="edge">
<title>Node4&#45;&gt;Node4</title>
<path fill="none" stroke="midnightblue" d="M163.86,-97.66C157.56,-107.06 166.27,-116 190,-116 204.46,-116 213.35,-112.68 216.65,-107.96"/>
<polygon fill="midnightblue" stroke="midnightblue" points="220.13,-107.47 216.14,-97.66 213.14,-107.82 220.13,-107.47"/>
</g>
<!-- Node5&#45;&gt;Node5 -->
<g id="edge9" class="edge">
<title>Node5&#45;&gt;Node5</title>
<path fill="none" stroke="midnightblue" d="M163.86,-30.66C157.56,-40.06 166.27,-49 190,-49 204.46,-49 213.35,-45.68 216.65,-40.96"/>
<polygon fill="midnightblue" stroke="midnightblue" points="220.13,-40.47 216.14,-30.66 213.14,-40.82 220.13,-40.47"/>
</g>
</g>
</svg>
