<?xml version="1.0" encoding="UTF-8" standalone="no"?>
<!DOCTYPE svg PUBLIC "-//W3C//DTD SVG 1.1//EN"
 "http://www.w3.org/Graphics/SVG/1.1/DTD/svg11.dtd">
<!-- Generated by graphviz version 2.49.3 (20211027.1534)
 -->
<!-- Title: setTitle Pages: 1 -->
<svg width="646pt" height="258pt"
 viewBox="0.00 0.00 646.15 258.00" xmlns="http://www.w3.org/2000/svg" xmlns:xlink="http://www.w3.org/1999/xlink">
<g id="graph0" class="graph" transform="scale(1 1) rotate(0) translate(4 254)">
<title>setTitle</title>
<polygon fill="white" stroke="transparent" points="-4,4 -4,-254 642.15,-254 642.15,4 -4,4"/>
<!-- Node1 -->
<g id="node1" class="node">
<title>Node1</title>
<g id="a_node1"><a xlink:title=" ">
<polygon fill="#bfbfbf" stroke="black" points="0.15,-106 0.15,-125 49.15,-125 49.15,-106 0.15,-106"/>
<text text-anchor="middle" x="24.65" y="-113" font-family="Helvetica,sans-Serif" font-size="10.00">setTitle</text>
</a>
</g>
</g>
<!-- Node1&#45;&gt;Node1 -->
<g id="edge1" class="edge">
<title>Node1&#45;&gt;Node1</title>
<path fill="none" stroke="midnightblue" d="M4.61,-125.26C-5.13,-134.07 1.55,-143.5 24.65,-143.5 39.45,-143.5 47.51,-139.63 48.83,-134.53"/>
<polygon fill="midnightblue" stroke="midnightblue" points="51.96,-132.96 44.69,-125.26 45.57,-135.81 51.96,-132.96"/>
</g>
<!-- Node2 -->
<g id="node2" class="node">
<title>Node2</title>
<g id="a_node2"><a xlink:href="classrare_1_1models_1_1base__game_1_1_rare_game_base.html#a9d2c0ef8e0253d5f0d0bcf1f7ad80fa5" target="_top" xlink:title=" ">
<polygon fill="white" stroke="black" points="85.15,-100.5 85.15,-130.5 227.15,-130.5 227.15,-100.5 85.15,-100.5"/>
<text text-anchor="start" x="93.15" y="-118.5" font-family="Helvetica,sans-Serif" font-size="10.00">rare.models.base_game.Rare</text>
<text text-anchor="middle" x="156.15" y="-107.5" font-family="Helvetica,sans-Serif" font-size="10.00">GameBase.title</text>
</a>
</g>
</g>
<!-- Node1&#45;&gt;Node2 -->
<g id="edge2" class="edge">
<title>Node1&#45;&gt;Node2</title>
<path fill="none" stroke="midnightblue" d="M49.4,-115.5C56.91,-115.5 65.67,-115.5 74.87,-115.5"/>
<polygon fill="midnightblue" stroke="midnightblue" points="74.99,-119 84.99,-115.5 74.99,-112 74.99,-119"/>
</g>
<!-- Node2&#45;&gt;Node2 -->
<g id="edge13" class="edge">
<title>Node2&#45;&gt;Node2</title>
<path fill="none" stroke="midnightblue" d="M133.5,-130.66C128.03,-140.06 135.58,-149 156.15,-149 168.68,-149 176.38,-145.68 179.25,-140.96"/>
<polygon fill="midnightblue" stroke="midnightblue" points="182.73,-140.5 178.81,-130.66 175.74,-140.8 182.73,-140.5"/>
</g>
<!-- Node3 -->
<g id="node3" class="node">
<title>Node3</title>
<g id="a_node3"><a xlink:href="classrare_1_1components_1_1tabs_1_1games_1_1integrations_1_1egl__sync__group_1_1_e_g_l_sync_list_item.html#ae1cd35b1295fa44fd6906c1bcf28fd20" target="_top" xlink:title=" ">
<polygon fill="white" stroke="black" points="263.15,-201.5 263.15,-231.5 472.15,-231.5 472.15,-201.5 263.15,-201.5"/>
<text text-anchor="start" x="271.15" y="-219.5" font-family="Helvetica,sans-Serif" font-size="10.00">rare.components.tabs.games.integrations.egl</text>
<text text-anchor="middle" x="367.65" y="-208.5" font-family="Helvetica,sans-Serif" font-size="10.00">_sync_group.EGLSyncListItem.app_title</text>
</a>
</g>
</g>
<!-- Node2&#45;&gt;Node3 -->
<g id="edge3" class="edge">
<title>Node2&#45;&gt;Node3</title>
<path fill="none" stroke="midnightblue" d="M173.44,-130.61C193.19,-148.1 228.18,-176.54 263.15,-192.5 267.75,-194.6 272.56,-196.52 277.47,-198.29"/>
<polygon fill="midnightblue" stroke="midnightblue" points="276.42,-201.63 287.01,-201.49 278.64,-194.99 276.42,-201.63"/>
</g>
<!-- Node4 -->
<g id="node4" class="node">
<title>Node4</title>
<g id="a_node4"><a xlink:href="classrare_1_1components_1_1tabs_1_1games_1_1integrations_1_1egl__sync__group_1_1_e_g_l_sync_export_item.html#ae1cd35b1295fa44fd6906c1bcf28fd20" target="_top" xlink:title=" ">
<polygon fill="white" stroke="black" points="263.15,-134.5 263.15,-164.5 472.15,-164.5 472.15,-134.5 263.15,-134.5"/>
<text text-anchor="start" x="271.15" y="-152.5" font-family="Helvetica,sans-Serif" font-size="10.00">rare.components.tabs.games.integrations.egl</text>
<text text-anchor="middle" x="367.65" y="-141.5" font-family="Helvetica,sans-Serif" font-size="10.00">_sync_group.EGLSyncExportItem.app_title</text>
</a>
</g>
</g>
<!-- Node2&#45;&gt;Node4 -->
<g id="edge5" class="edge">
<title>Node2&#45;&gt;Node4</title>
<path fill="none" stroke="midnightblue" d="M227.2,-126.87C239.03,-128.79 251.52,-130.82 263.97,-132.84"/>
<polygon fill="midnightblue" stroke="midnightblue" points="263.51,-136.31 273.94,-134.45 264.63,-129.4 263.51,-136.31"/>
</g>
<!-- Node5 -->
<g id="node5" class="node">
<title>Node5</title>
<g id="a_node5"><a xlink:href="classrare_1_1components_1_1tabs_1_1games_1_1integrations_1_1egl__sync__group_1_1_e_g_l_sync_import_item.html#ae1cd35b1295fa44fd6906c1bcf28fd20" target="_top" xlink:title=" ">
<polygon fill="white" stroke="black" points="263.15,-67.5 263.15,-97.5 472.15,-97.5 472.15,-67.5 263.15,-67.5"/>
<text text-anchor="start" x="271.15" y="-85.5" font-family="Helvetica,sans-Serif" font-size="10.00">rare.components.tabs.games.integrations.egl</text>
<text text-anchor="middle" x="367.65" y="-74.5" font-family="Helvetica,sans-Serif" font-size="10.00">_sync_group.EGLSyncImportItem.app_title</text>
</a>
</g>
</g>
<!-- Node2&#45;&gt;Node5 -->
<g id="edge7" class="edge">
<title>Node2&#45;&gt;Node5</title>
<path fill="none" stroke="midnightblue" d="M227.2,-104.47C238.15,-102.74 249.67,-100.93 261.2,-99.11"/>
<polygon fill="midnightblue" stroke="midnightblue" points="261.99,-102.53 271.32,-97.52 260.9,-95.62 261.99,-102.53"/>
</g>
<!-- Node7 -->
<g id="node7" class="node">
<title>Node7</title>
<g id="a_node7"><a xlink:href="classrare_1_1models_1_1base__game_1_1_rare_game_base.html#ae1cd35b1295fa44fd6906c1bcf28fd20" target="_top" xlink:title=" ">
<polygon fill="white" stroke="black" points="296.65,-0.5 296.65,-30.5 438.65,-30.5 438.65,-0.5 296.65,-0.5"/>
<text text-anchor="start" x="304.65" y="-18.5" font-family="Helvetica,sans-Serif" font-size="10.00">rare.models.base_game.Rare</text>
<text text-anchor="middle" x="367.65" y="-7.5" font-family="Helvetica,sans-Serif" font-size="10.00">GameBase.app_title</text>
</a>
</g>
</g>
<!-- Node2&#45;&gt;Node7 -->
<g id="edge11" class="edge">
<title>Node2&#45;&gt;Node7</title>
<path fill="none" stroke="midnightblue" d="M183.35,-100.47C204.58,-88.52 235.41,-71.68 263.15,-58.5 280.95,-50.04 300.85,-41.55 318.42,-34.37"/>
<polygon fill="midnightblue" stroke="midnightblue" points="319.96,-37.53 327.91,-30.53 317.33,-31.04 319.96,-37.53"/>
</g>
<!-- Node3&#45;&gt;Node3 -->
<g id="edge4" class="edge">
<title>Node3&#45;&gt;Node3</title>
<path fill="none" stroke="midnightblue" d="M332.1,-231.66C323.53,-241.06 335.38,-250 367.65,-250 387.32,-250 399.4,-246.68 403.9,-241.96"/>
<polygon fill="midnightblue" stroke="midnightblue" points="407.37,-241.4 403.2,-231.66 400.39,-241.87 407.37,-241.4"/>
</g>
<!-- Node4&#45;&gt;Node4 -->
<g id="edge6" class="edge">
<title>Node4&#45;&gt;Node4</title>
<path fill="none" stroke="midnightblue" d="M332.1,-164.66C323.53,-174.06 335.38,-183 367.65,-183 387.32,-183 399.4,-179.68 403.9,-174.96"/>
<polygon fill="midnightblue" stroke="midnightblue" points="407.37,-174.4 403.2,-164.66 400.39,-174.87 407.37,-174.4"/>
</g>
<!-- Node5&#45;&gt;Node5 -->
<g id="edge8" class="edge">
<title>Node5&#45;&gt;Node5</title>
<path fill="none" stroke="midnightblue" d="M332.1,-97.66C323.53,-107.06 335.38,-116 367.65,-116 387.32,-116 399.4,-112.68 403.9,-107.96"/>
<polygon fill="midnightblue" stroke="midnightblue" points="407.37,-107.4 403.2,-97.66 400.39,-107.87 407.37,-107.4"/>
</g>
<!-- Node6 -->
<g id="node6" class="node">
<title>Node6</title>
<g id="a_node6"><a xlink:href="classrare_1_1shared_1_1rare__core_1_1_rare_core.html#a405e1a4f20f16120f872ccd2654a1d56" target="_top" xlink:title=" ">
<polygon fill="white" stroke="black" points="508.15,-67.5 508.15,-97.5 638.15,-97.5 638.15,-67.5 508.15,-67.5"/>
<text text-anchor="start" x="516.15" y="-85.5" font-family="Helvetica,sans-Serif" font-size="10.00">rare.shared.rare_core.Rare</text>
<text text-anchor="middle" x="573.15" y="-74.5" font-family="Helvetica,sans-Serif" font-size="10.00">Core.core</text>
</a>
</g>
</g>
<!-- Node5&#45;&gt;Node6 -->
<g id="edge9" class="edge">
<title>Node5&#45;&gt;Node6</title>
<path fill="none" stroke="midnightblue" d="M472.19,-82.5C480.85,-82.5 489.48,-82.5 497.85,-82.5"/>
<polygon fill="midnightblue" stroke="midnightblue" points="497.92,-86 507.92,-82.5 497.92,-79 497.92,-86"/>
</g>
<!-- Node6&#45;&gt;Node6 -->
<g id="edge10" class="edge">
<title>Node6&#45;&gt;Node6</title>
<path fill="none" stroke="midnightblue" d="M537.6,-97.66C529.03,-107.06 540.88,-116 573.15,-116 592.82,-116 604.9,-112.68 609.4,-107.96"/>
<polygon fill="midnightblue" stroke="midnightblue" points="612.87,-107.4 608.7,-97.66 605.89,-107.87 612.87,-107.4"/>
</g>
<!-- Node7&#45;&gt;Node7 -->
<g id="edge12" class="edge">
<title>Node7&#45;&gt;Node7</title>
<path fill="none" stroke="midnightblue" d="M332.1,-30.66C323.53,-40.06 335.38,-49 367.65,-49 387.32,-49 399.4,-45.68 403.9,-40.96"/>
<polygon fill="midnightblue" stroke="midnightblue" points="407.37,-40.4 403.2,-30.66 400.39,-40.87 407.37,-40.4"/>
</g>
</g>
</svg>
