<?xml version="1.0" encoding="UTF-8" standalone="no"?>
<!DOCTYPE svg PUBLIC "-//W3C//DTD SVG 1.1//EN"
 "http://www.w3.org/Graphics/SVG/1.1/DTD/svg11.dtd">
<!-- Generated by graphviz version 2.49.3 (20211027.1534)
 -->
<!-- Title: update_progress Pages: 1 -->
<svg width="848pt" height="320pt"
 viewBox="0.00 0.00 848.00 319.50" xmlns="http://www.w3.org/2000/svg" xmlns:xlink="http://www.w3.org/1999/xlink">
<g id="graph0" class="graph" transform="scale(1 1) rotate(0) translate(4 315.5)">
<title>update_progress</title>
<polygon fill="white" stroke="transparent" points="-4,4 -4,-315.5 844,-315.5 844,4 -4,4"/>
<!-- Node1 -->
<g id="node1" class="node">
<title>Node1</title>
<g id="a_node1"><a xlink:title=" ">
<polygon fill="#bfbfbf" stroke="black" points="0,-156.5 0,-175.5 89,-175.5 89,-156.5 0,-156.5"/>
<text text-anchor="middle" x="44.5" y="-163.5" font-family="Helvetica,sans-Serif" font-size="10.00">update_progress</text>
</a>
</g>
</g>
<!-- Node1&#45;&gt;Node1 -->
<g id="edge1" class="edge">
<title>Node1&#45;&gt;Node1</title>
<path fill="none" stroke="midnightblue" d="M16.14,-175.76C2.34,-184.57 11.8,-194 44.5,-194 66.98,-194 78.48,-189.54 78.98,-183.89"/>
<polygon fill="midnightblue" stroke="midnightblue" points="81.67,-181.64 72.86,-175.76 76.08,-185.85 81.67,-181.64"/>
</g>
<!-- Node2 -->
<g id="node2" class="node">
<title>Node2</title>
<g id="a_node2"><a xlink:href="classrare_1_1components_1_1tabs_1_1games_1_1game__widgets_1_1library__widget_1_1_library_widget.html#aba6dbd857b7a02c2f1fbd7d472416b54" target="_top" xlink:title=" ">
<polygon fill="white" stroke="black" points="125,-145.5 125,-186.5 335,-186.5 335,-145.5 125,-145.5"/>
<text text-anchor="start" x="133" y="-174.5" font-family="Helvetica,sans-Serif" font-size="10.00">rare.components.tabs.games.game</text>
<text text-anchor="start" x="133" y="-163.5" font-family="Helvetica,sans-Serif" font-size="10.00">_widgets.library_widget.LibraryWidget.update</text>
<text text-anchor="middle" x="230" y="-152.5" font-family="Helvetica,sans-Serif" font-size="10.00">Progress</text>
</a>
</g>
</g>
<!-- Node1&#45;&gt;Node2 -->
<g id="edge2" class="edge">
<title>Node1&#45;&gt;Node2</title>
<path fill="none" stroke="midnightblue" d="M89.45,-166C97.31,-166 105.82,-166 114.62,-166"/>
<polygon fill="midnightblue" stroke="midnightblue" points="114.67,-169.5 124.67,-166 114.67,-162.5 114.67,-169.5"/>
</g>
<!-- Node2&#45;&gt;Node2 -->
<g id="edge19" class="edge">
<title>Node2&#45;&gt;Node2</title>
<path fill="none" stroke="midnightblue" d="M196.18,-186.86C192.49,-196.54 203.77,-205 230,-205 246.4,-205 256.95,-201.7 261.66,-196.86"/>
<polygon fill="midnightblue" stroke="midnightblue" points="265.12,-197.38 263.82,-186.86 258.28,-195.9 265.12,-197.38"/>
</g>
<!-- Node3 -->
<g id="node3" class="node">
<title>Node3</title>
<g id="a_node3"><a xlink:href="classrare_1_1components_1_1tabs_1_1games_1_1game__widgets_1_1library__widget_1_1_library_widget.html#a4561ff9fad441241d27e7fa9d57173cf" target="_top" xlink:title="Paints the color image over the gray images based on progress percentage.">
<polygon fill="white" stroke="black" points="371,-263 371,-293 625,-293 625,-263 371,-263"/>
<text text-anchor="start" x="379" y="-281" font-family="Helvetica,sans-Serif" font-size="10.00">rare.components.tabs.games.game</text>
<text text-anchor="middle" x="498" y="-270" font-family="Helvetica,sans-Serif" font-size="10.00">_widgets.library_widget.LibraryWidget.progress_pixmap</text>
</a>
</g>
</g>
<!-- Node2&#45;&gt;Node3 -->
<g id="edge3" class="edge">
<title>Node2&#45;&gt;Node3</title>
<path fill="none" stroke="midnightblue" d="M257.58,-186.62C284.65,-206.59 328.54,-236.24 371,-253 377.7,-255.65 384.72,-258.02 391.87,-260.15"/>
<polygon fill="midnightblue" stroke="midnightblue" points="391.1,-263.57 401.68,-262.91 393,-256.84 391.1,-263.57"/>
</g>
<!-- Node4 -->
<g id="node4" class="node">
<title>Node4</title>
<g id="a_node4"><a xlink:href="classrare_1_1components_1_1tabs_1_1games_1_1game__widgets_1_1list__game__widget_1_1_list_game_widget.html#a4561ff9fad441241d27e7fa9d57173cf" target="_top" xlink:title="Paints the color image over the gray images based on progress percentage.">
<polygon fill="white" stroke="black" points="408.5,-184.5 408.5,-225.5 587.5,-225.5 587.5,-184.5 408.5,-184.5"/>
<text text-anchor="start" x="416.5" y="-213.5" font-family="Helvetica,sans-Serif" font-size="10.00">rare.components.tabs.games.game</text>
<text text-anchor="start" x="416.5" y="-202.5" font-family="Helvetica,sans-Serif" font-size="10.00">_widgets.list_game_widget.ListGame</text>
<text text-anchor="middle" x="498" y="-191.5" font-family="Helvetica,sans-Serif" font-size="10.00">Widget.progress_pixmap</text>
</a>
</g>
</g>
<!-- Node2&#45;&gt;Node4 -->
<g id="edge5" class="edge">
<title>Node2&#45;&gt;Node4</title>
<path fill="none" stroke="midnightblue" d="M335.37,-181.3C356.13,-184.35 377.87,-187.53 398.43,-190.55"/>
<polygon fill="midnightblue" stroke="midnightblue" points="398.02,-194.03 408.42,-192.01 399.04,-187.1 398.02,-194.03"/>
</g>
<!-- Node7 -->
<g id="node7" class="node">
<title>Node7</title>
<g id="a_node7"><a xlink:href="classrare_1_1components_1_1tabs_1_1games_1_1game__widgets_1_1list__game__widget_1_1_list_game_widget.html#afe7221063d2a4d7b1e1f42fb85f5d06f" target="_top" xlink:title=" ">
<polygon fill="white" stroke="black" points="408.5,-106.5 408.5,-147.5 587.5,-147.5 587.5,-106.5 408.5,-106.5"/>
<text text-anchor="start" x="416.5" y="-135.5" font-family="Helvetica,sans-Serif" font-size="10.00">rare.components.tabs.games.game</text>
<text text-anchor="start" x="416.5" y="-124.5" font-family="Helvetica,sans-Serif" font-size="10.00">_widgets.list_game_widget.ListGame</text>
<text text-anchor="middle" x="498" y="-113.5" font-family="Helvetica,sans-Serif" font-size="10.00">Widget.setPixmap</text>
</a>
</g>
</g>
<!-- Node2&#45;&gt;Node7 -->
<g id="edge11" class="edge">
<title>Node2&#45;&gt;Node7</title>
<path fill="none" stroke="midnightblue" d="M335.37,-150.7C356.13,-147.65 377.87,-144.47 398.43,-141.45"/>
<polygon fill="midnightblue" stroke="midnightblue" points="399.04,-144.9 408.42,-139.99 398.02,-137.97 399.04,-144.9"/>
</g>
<!-- Node8 -->
<g id="node8" class="node">
<title>Node8</title>
<g id="a_node8"><a xlink:href="classrare_1_1widgets_1_1image__widget_1_1_image_widget.html#afe7221063d2a4d7b1e1f42fb85f5d06f" target="_top" xlink:title=" ">
<polygon fill="white" stroke="black" points="419,-39 419,-69 577,-69 577,-39 419,-39"/>
<text text-anchor="start" x="427" y="-57" font-family="Helvetica,sans-Serif" font-size="10.00">rare.widgets.image</text>
<text text-anchor="middle" x="498" y="-46" font-family="Helvetica,sans-Serif" font-size="10.00">_widget.ImageWidget.setPixmap</text>
</a>
</g>
</g>
<!-- Node2&#45;&gt;Node8 -->
<g id="edge13" class="edge">
<title>Node2&#45;&gt;Node8</title>
<path fill="none" stroke="midnightblue" d="M269.31,-145.45C297.1,-130.95 335.84,-111.59 371,-97 392.66,-88.01 416.94,-79.39 438.37,-72.26"/>
<polygon fill="midnightblue" stroke="midnightblue" points="439.59,-75.55 447.99,-69.1 437.4,-68.9 439.59,-75.55"/>
</g>
<!-- Node3&#45;&gt;Node3 -->
<g id="edge4" class="edge">
<title>Node3&#45;&gt;Node3</title>
<path fill="none" stroke="midnightblue" d="M454.08,-293.16C443.49,-302.56 458.13,-311.5 498,-311.5 522.92,-311.5 537.98,-308.01 543.19,-303.09"/>
<polygon fill="midnightblue" stroke="midnightblue" points="546.66,-302.63 541.92,-293.16 539.71,-303.52 546.66,-302.63"/>
</g>
<!-- Node4&#45;&gt;Node4 -->
<g id="edge6" class="edge">
<title>Node4&#45;&gt;Node4</title>
<path fill="none" stroke="midnightblue" d="M451.68,-225.86C446.63,-235.54 462.07,-244 498,-244 520.46,-244 534.91,-240.7 541.36,-235.86"/>
<polygon fill="midnightblue" stroke="midnightblue" points="544.83,-236.45 544.32,-225.86 538.12,-234.46 544.83,-236.45"/>
</g>
<!-- Node5 -->
<g id="node5" class="node">
<title>Node5</title>
<g id="a_node5"><a xlink:href="classlegendary_1_1models_1_1downloading_1_1_shared_memory_segment.html#a6d620a10dad91cadcb542e6098ada619" target="_top" xlink:title=" ">
<polygon fill="white" stroke="black" points="675.5,-240 675.5,-270 825.5,-270 825.5,-240 675.5,-240"/>
<text text-anchor="start" x="683.5" y="-258" font-family="Helvetica,sans-Serif" font-size="10.00">legendary.models.downloading.</text>
<text text-anchor="middle" x="750.5" y="-247" font-family="Helvetica,sans-Serif" font-size="10.00">SharedMemorySegment.size</text>
</a>
</g>
</g>
<!-- Node4&#45;&gt;Node5 -->
<g id="edge7" class="edge">
<title>Node4&#45;&gt;Node5</title>
<path fill="none" stroke="midnightblue" d="M587.67,-222.7C613.02,-227.76 640.55,-233.25 665.61,-238.25"/>
<polygon fill="midnightblue" stroke="midnightblue" points="664.95,-241.69 675.44,-240.22 666.32,-234.83 664.95,-241.69"/>
</g>
<!-- Node6 -->
<g id="node6" class="node">
<title>Node6</title>
<g id="a_node6"><a xlink:href="classrare_1_1shared_1_1image__manager_1_1_image_size_1_1_preset.html#a39bd2b8ea4e12bd297244ec77cb5a1fa" target="_top" xlink:title=" ">
<polygon fill="white" stroke="black" points="681.5,-173 681.5,-203 819.5,-203 819.5,-173 681.5,-173"/>
<text text-anchor="start" x="689.5" y="-191" font-family="Helvetica,sans-Serif" font-size="10.00">rare.shared.image_manager.</text>
<text text-anchor="middle" x="750.5" y="-180" font-family="Helvetica,sans-Serif" font-size="10.00">ImageSize.Preset.size</text>
</a>
</g>
</g>
<!-- Node4&#45;&gt;Node6 -->
<g id="edge9" class="edge">
<title>Node4&#45;&gt;Node6</title>
<path fill="none" stroke="midnightblue" d="M587.67,-198.98C615,-197.13 644.88,-195.1 671.44,-193.3"/>
<polygon fill="midnightblue" stroke="midnightblue" points="671.71,-196.79 681.45,-192.62 671.23,-189.8 671.71,-196.79"/>
</g>
<!-- Node5&#45;&gt;Node5 -->
<g id="edge8" class="edge">
<title>Node5&#45;&gt;Node5</title>
<path fill="none" stroke="midnightblue" d="M706.58,-270.16C695.99,-279.56 710.63,-288.5 750.5,-288.5 775.42,-288.5 790.48,-285.01 795.69,-280.09"/>
<polygon fill="midnightblue" stroke="midnightblue" points="799.16,-279.63 794.42,-270.16 792.21,-280.52 799.16,-279.63"/>
</g>
<!-- Node6&#45;&gt;Node6 -->
<g id="edge10" class="edge">
<title>Node6&#45;&gt;Node6</title>
<path fill="none" stroke="midnightblue" d="M706.58,-203.16C695.99,-212.56 710.63,-221.5 750.5,-221.5 775.42,-221.5 790.48,-218.01 795.69,-213.09"/>
<polygon fill="midnightblue" stroke="midnightblue" points="799.16,-212.63 794.42,-203.16 792.21,-213.52 799.16,-212.63"/>
</g>
<!-- Node7&#45;&gt;Node7 -->
<g id="edge12" class="edge">
<title>Node7&#45;&gt;Node7</title>
<path fill="none" stroke="midnightblue" d="M451.68,-147.86C446.63,-157.54 462.07,-166 498,-166 520.46,-166 534.91,-162.7 541.36,-157.86"/>
<polygon fill="midnightblue" stroke="midnightblue" points="544.83,-158.45 544.32,-147.86 538.12,-156.46 544.83,-158.45"/>
</g>
<!-- Node8&#45;&gt;Node8 -->
<g id="edge18" class="edge">
<title>Node8&#45;&gt;Node8</title>
<path fill="none" stroke="midnightblue" d="M454.08,-69.16C443.49,-78.56 458.13,-87.5 498,-87.5 522.92,-87.5 537.98,-84.01 543.19,-79.09"/>
<polygon fill="midnightblue" stroke="midnightblue" points="546.66,-78.63 541.92,-69.16 539.71,-79.52 546.66,-78.63"/>
</g>
<!-- Node9 -->
<g id="node9" class="node">
<title>Node9</title>
<g id="a_node9"><a xlink:href="classrare_1_1components_1_1tabs_1_1games_1_1game__widgets_1_1list__game__widget_1_1_list_game_widget.html#aa136880b14cd8741ebe60fbcf4d29a2e" target="_top" xlink:title=" ">
<polygon fill="white" stroke="black" points="661,-78.5 661,-119.5 840,-119.5 840,-78.5 661,-78.5"/>
<text text-anchor="start" x="669" y="-107.5" font-family="Helvetica,sans-Serif" font-size="10.00">rare.components.tabs.games.game</text>
<text text-anchor="start" x="669" y="-96.5" font-family="Helvetica,sans-Serif" font-size="10.00">_widgets.list_game_widget.ListGame</text>
<text text-anchor="middle" x="750.5" y="-85.5" font-family="Helvetica,sans-Serif" font-size="10.00">Widget.paint_image_cover</text>
</a>
</g>
</g>
<!-- Node8&#45;&gt;Node9 -->
<g id="edge14" class="edge">
<title>Node8&#45;&gt;Node9</title>
<path fill="none" stroke="midnightblue" d="M577.23,-68.05C600.57,-72.25 626.46,-76.9 650.93,-81.29"/>
<polygon fill="midnightblue" stroke="midnightblue" points="650.49,-84.77 660.95,-83.09 651.72,-77.88 650.49,-84.77"/>
</g>
<!-- Node10 -->
<g id="node10" class="node">
<title>Node10</title>
<g id="a_node10"><a xlink:href="classrare_1_1widgets_1_1image__widget_1_1_image_widget.html#aa136880b14cd8741ebe60fbcf4d29a2e" target="_top" xlink:title=" ">
<polygon fill="white" stroke="black" points="684,-0.5 684,-41.5 817,-41.5 817,-0.5 684,-0.5"/>
<text text-anchor="start" x="692" y="-29.5" font-family="Helvetica,sans-Serif" font-size="10.00">rare.widgets.image</text>
<text text-anchor="start" x="692" y="-18.5" font-family="Helvetica,sans-Serif" font-size="10.00">_widget.ImageWidget.paint</text>
<text text-anchor="middle" x="750.5" y="-7.5" font-family="Helvetica,sans-Serif" font-size="10.00">_image_cover</text>
</a>
</g>
</g>
<!-- Node8&#45;&gt;Node10 -->
<g id="edge16" class="edge">
<title>Node8&#45;&gt;Node10</title>
<path fill="none" stroke="midnightblue" d="M577.23,-43.69C607.93,-39.65 643.03,-35.03 673.5,-31.01"/>
<polygon fill="midnightblue" stroke="midnightblue" points="674.19,-34.45 683.65,-29.67 673.28,-27.51 674.19,-34.45"/>
</g>
<!-- Node9&#45;&gt;Node9 -->
<g id="edge15" class="edge">
<title>Node9&#45;&gt;Node9</title>
<path fill="none" stroke="midnightblue" d="M704.18,-119.86C699.13,-129.54 714.57,-138 750.5,-138 772.96,-138 787.41,-134.7 793.86,-129.86"/>
<polygon fill="midnightblue" stroke="midnightblue" points="797.33,-130.45 796.82,-119.86 790.62,-128.46 797.33,-130.45"/>
</g>
<!-- Node10&#45;&gt;Node10 -->
<g id="edge17" class="edge">
<title>Node10&#45;&gt;Node10</title>
<path fill="none" stroke="midnightblue" d="M704.18,-41.86C699.13,-51.54 714.57,-60 750.5,-60 772.96,-60 787.41,-56.7 793.86,-51.86"/>
<polygon fill="midnightblue" stroke="midnightblue" points="797.33,-52.45 796.82,-41.86 790.62,-50.46 797.33,-52.45"/>
</g>
</g>
</svg>
