<?xml version="1.0" encoding="UTF-8" standalone="no"?>
<!DOCTYPE svg PUBLIC "-//W3C//DTD SVG 1.1//EN"
 "http://www.w3.org/Graphics/SVG/1.1/DTD/svg11.dtd">
<!-- Generated by graphviz version 2.49.3 (20211027.1534)
 -->
<!-- Title: sync_ready Pages: 1 -->
<svg width="808pt" height="495pt"
 viewBox="0.00 0.00 808.00 495.23" xmlns="http://www.w3.org/2000/svg" xmlns:xlink="http://www.w3.org/1999/xlink">
<g id="graph0" class="graph" transform="scale(1 1) rotate(0) translate(4 491.23)">
<title>sync_ready</title>
<polygon fill="white" stroke="transparent" points="-4,4 -4,-491.23 804,-491.23 804,4 -4,4"/>
<!-- Node1 -->
<g id="node1" class="node">
<title>Node1</title>
<g id="a_node1"><a xlink:title=" ">
<polygon fill="#bfbfbf" stroke="black" points="0,-429.73 0,-448.73 65,-448.73 65,-429.73 0,-429.73"/>
<text text-anchor="middle" x="32.5" y="-436.73" font-family="Helvetica,sans-Serif" font-size="10.00">sync_ready</text>
</a>
</g>
</g>
<!-- Node1&#45;&gt;Node1 -->
<g id="edge34" class="edge">
<title>Node1&#45;&gt;Node1</title>
<path fill="none" stroke="midnightblue" d="M16.16,-448.98C8.21,-457.79 13.66,-467.23 32.5,-467.23 44.27,-467.23 50.82,-463.54 52.13,-458.63"/>
<polygon fill="midnightblue" stroke="midnightblue" points="55.38,-457.32 48.84,-448.98 48.76,-459.58 55.38,-457.32"/>
</g>
<!-- Node2 -->
<g id="node2" class="node">
<title>Node2</title>
<g id="a_node2"><a xlink:href="classrare_1_1commands_1_1launcher_1_1_rare_launcher.html#aead78a8c5e26925de34e45d4aae39b4e" target="_top" xlink:title=" ">
<polygon fill="white" stroke="black" points="101,-467.73 101,-486.73 177,-486.73 177,-467.73 101,-467.73"/>
<text text-anchor="middle" x="139" y="-474.73" font-family="Helvetica,sans-Serif" font-size="10.00">__sync_ready</text>
</a>
</g>
</g>
<!-- Node1&#45;&gt;Node2 -->
<g id="edge1" class="edge">
<title>Node1&#45;&gt;Node2</title>
<path fill="none" stroke="midnightblue" d="M59.87,-448.82C72.62,-453.45 88.11,-459.09 101.93,-464.11"/>
<polygon fill="midnightblue" stroke="midnightblue" points="101.04,-467.51 111.64,-467.64 103.44,-460.93 101.04,-467.51"/>
</g>
<!-- Node3 -->
<g id="node3" class="node">
<title>Node3</title>
<g id="a_node3"><a xlink:href="classrare_1_1commands_1_1launcher_1_1_rare_launcher.html#ac8b8dc7f48f8405350185a34a814e908" target="_top" xlink:title=" ">
<polygon fill="white" stroke="black" points="102,-354.73 102,-373.73 176,-373.73 176,-354.73 102,-354.73"/>
<text text-anchor="middle" x="139" y="-361.73" font-family="Helvetica,sans-Serif" font-size="10.00">start_prepare</text>
</a>
</g>
</g>
<!-- Node1&#45;&gt;Node3 -->
<g id="edge2" class="edge">
<title>Node1&#45;&gt;Node3</title>
<path fill="none" stroke="midnightblue" d="M47.16,-429.42C64.78,-416.77 95.63,-394.63 116.43,-379.7"/>
<polygon fill="midnightblue" stroke="midnightblue" points="118.58,-382.47 124.67,-373.8 114.5,-376.78 118.58,-382.47"/>
</g>
<!-- Node3&#45;&gt;Node3 -->
<g id="edge33" class="edge">
<title>Node3&#45;&gt;Node3</title>
<path fill="none" stroke="midnightblue" d="M122.66,-373.98C114.71,-382.79 120.16,-392.23 139,-392.23 150.77,-392.23 157.32,-388.54 158.63,-383.63"/>
<polygon fill="midnightblue" stroke="midnightblue" points="161.88,-382.32 155.34,-373.98 155.26,-384.58 161.88,-382.32"/>
</g>
<!-- Node4 -->
<g id="node4" class="node">
<title>Node4</title>
<g id="a_node4"><a xlink:href="classrare_1_1shared_1_1rare__core_1_1_rare_core.html#a673cb72b40e8c1b2dfab6dbc0e0e39e4" target="_top" xlink:title=" ">
<polygon fill="white" stroke="black" points="496,-260.23 496,-290.23 626,-290.23 626,-260.23 496,-260.23"/>
<text text-anchor="start" x="504" y="-278.23" font-family="Helvetica,sans-Serif" font-size="10.00">rare.shared.rare_core.Rare</text>
<text text-anchor="middle" x="561" y="-267.23" font-family="Helvetica,sans-Serif" font-size="10.00">Core.args</text>
</a>
</g>
</g>
<!-- Node3&#45;&gt;Node4 -->
<g id="edge3" class="edge">
<title>Node3&#45;&gt;Node4</title>
<path fill="none" stroke="midnightblue" d="M176.17,-356.56C244.74,-342.03 394.87,-310.22 485.71,-290.97"/>
<polygon fill="midnightblue" stroke="midnightblue" points="486.62,-294.35 495.67,-288.86 485.17,-287.51 486.62,-294.35"/>
</g>
<!-- Node5 -->
<g id="node5" class="node">
<title>Node5</title>
<g id="a_node5"><a xlink:href="classrare_1_1commands_1_1launcher_1_1_rare_launcher.html#ac2d7fc08d8189d84d207151df722ee19" target="_top" xlink:title=" ">
<polygon fill="white" stroke="black" points="521.5,-327.73 521.5,-346.73 600.5,-346.73 600.5,-327.73 521.5,-327.73"/>
<text text-anchor="middle" x="561" y="-334.73" font-family="Helvetica,sans-Serif" font-size="10.00">error_occurred</text>
</a>
</g>
</g>
<!-- Node3&#45;&gt;Node5 -->
<g id="edge5" class="edge">
<title>Node3&#45;&gt;Node5</title>
<path fill="none" stroke="midnightblue" d="M176.17,-361.9C251.62,-357.05 425.84,-345.85 511.15,-340.37"/>
<polygon fill="midnightblue" stroke="midnightblue" points="511.59,-343.85 521.34,-339.71 511.14,-336.86 511.59,-343.85"/>
</g>
<!-- Node10 -->
<g id="node10" class="node">
<title>Node10</title>
<g id="a_node10"><a xlink:href="classrare_1_1commands_1_1launcher_1_1_rare_launcher.html#a62864ecc73de3f9e4a009737d0c01f01" target="_top" xlink:title=" ">
<polygon fill="white" stroke="black" points="213,-202.73 213,-221.73 287,-221.73 287,-202.73 213,-202.73"/>
<text text-anchor="middle" x="250" y="-209.73" font-family="Helvetica,sans-Serif" font-size="10.00">launch_game</text>
</a>
</g>
</g>
<!-- Node3&#45;&gt;Node10 -->
<g id="edge15" class="edge">
<title>Node3&#45;&gt;Node10</title>
<path fill="none" stroke="midnightblue" d="M146.82,-354.72C164.63,-329.87 212.81,-262.7 236.07,-230.25"/>
<polygon fill="midnightblue" stroke="midnightblue" points="239.2,-231.9 242.18,-221.73 233.51,-227.82 239.2,-231.9"/>
</g>
<!-- Node13 -->
<g id="node13" class="node">
<title>Node13</title>
<g id="a_node13"><a xlink:href="classrare_1_1commands_1_1launcher_1_1_rare_launcher.html#af1af6ddf04f00f958949618f79c33b82" target="_top" xlink:title=" ">
<polygon fill="white" stroke="black" points="373.5,-382.73 373.5,-401.73 409.5,-401.73 409.5,-382.73 373.5,-382.73"/>
<text text-anchor="middle" x="391.5" y="-389.73" font-family="Helvetica,sans-Serif" font-size="10.00">start</text>
</a>
</g>
</g>
<!-- Node3&#45;&gt;Node13 -->
<g id="edge32" class="edge">
<title>Node3&#45;&gt;Node13</title>
<path fill="none" stroke="midnightblue" d="M176.16,-363.35C226.83,-366.41 317.85,-376.75 363.23,-384.78"/>
<polygon fill="midnightblue" stroke="midnightblue" points="362.74,-388.25 373.22,-386.66 364.04,-381.37 362.74,-388.25"/>
</g>
<!-- Node4&#45;&gt;Node4 -->
<g id="edge4" class="edge">
<title>Node4&#45;&gt;Node4</title>
<path fill="none" stroke="midnightblue" d="M531.72,-290.39C524.66,-299.78 534.42,-308.73 561,-308.73 577.2,-308.73 587.15,-305.41 590.85,-300.68"/>
<polygon fill="midnightblue" stroke="midnightblue" points="594.33,-300.17 590.28,-290.39 587.34,-300.56 594.33,-300.17"/>
</g>
<!-- Node5&#45;&gt;Node5 -->
<g id="edge8" class="edge">
<title>Node5&#45;&gt;Node5</title>
<path fill="none" stroke="midnightblue" d="M535.11,-346.98C522.51,-355.79 531.14,-365.23 561,-365.23 581.06,-365.23 591.54,-360.97 592.44,-355.5"/>
<polygon fill="midnightblue" stroke="midnightblue" points="595.28,-353.46 586.89,-346.98 589.42,-357.27 595.28,-353.46"/>
</g>
<!-- Node6 -->
<g id="node6" class="node">
<title>Node6</title>
<g id="a_node6"><a xlink:href="classrare_1_1shared_1_1rare__core_1_1_rare_core.html#a405e1a4f20f16120f872ccd2654a1d56" target="_top" xlink:title=" ">
<polygon fill="white" stroke="black" points="666,-350.23 666,-380.23 796,-380.23 796,-350.23 666,-350.23"/>
<text text-anchor="start" x="674" y="-368.23" font-family="Helvetica,sans-Serif" font-size="10.00">rare.shared.rare_core.Rare</text>
<text text-anchor="middle" x="731" y="-357.23" font-family="Helvetica,sans-Serif" font-size="10.00">Core.core</text>
</a>
</g>
</g>
<!-- Node5&#45;&gt;Node6 -->
<g id="edge6" class="edge">
<title>Node5&#45;&gt;Node6</title>
<path fill="none" stroke="midnightblue" d="M600.54,-343.65C617.04,-346.4 636.89,-349.71 656.03,-352.9"/>
<polygon fill="midnightblue" stroke="midnightblue" points="655.52,-356.36 665.95,-354.55 656.67,-349.46 655.52,-356.36"/>
</g>
<!-- Node7 -->
<g id="node7" class="node">
<title>Node7</title>
<g id="a_node7"><a xlink:href="classrare_1_1commands_1_1launcher_1_1_rare_launcher.html#a1ad309148fd22e4786258dc4a79ec7af" target="_top" xlink:title=" ">
<polygon fill="white" stroke="black" points="689.5,-54.73 689.5,-73.73 772.5,-73.73 772.5,-54.73 689.5,-54.73"/>
<text text-anchor="middle" x="731" y="-61.73" font-family="Helvetica,sans-Serif" font-size="10.00">send_message</text>
</a>
</g>
</g>
<!-- Node5&#45;&gt;Node7 -->
<g id="edge9" class="edge">
<title>Node5&#45;&gt;Node7</title>
<path fill="none" stroke="midnightblue" d="M600.7,-331.85C610.03,-328.88 619.25,-324.3 626,-317.23 669.48,-271.7 637.86,-238.37 662,-180.23 677.2,-143.63 702.14,-104.56 717.22,-82.39"/>
<polygon fill="midnightblue" stroke="midnightblue" points="720.22,-84.2 723.02,-73.98 714.46,-80.23 720.22,-84.2"/>
</g>
<!-- Node8 -->
<g id="node8" class="node">
<title>Node8</title>
<g id="a_node8"><a xlink:href="classrare_1_1commands_1_1launcher_1_1_rare_launcher.html#a26ca7c1c7fcdd35378e7be97727047a6" target="_top" xlink:title=" ">
<polygon fill="white" stroke="black" points="713.5,-281.73 713.5,-300.73 748.5,-300.73 748.5,-281.73 713.5,-281.73"/>
<text text-anchor="middle" x="731" y="-288.73" font-family="Helvetica,sans-Serif" font-size="10.00">stop</text>
</a>
</g>
</g>
<!-- Node5&#45;&gt;Node8 -->
<g id="edge11" class="edge">
<title>Node5&#45;&gt;Node8</title>
<path fill="none" stroke="midnightblue" d="M596.81,-327.69C628.48,-319.02 674.56,-306.41 703.38,-298.52"/>
<polygon fill="midnightblue" stroke="midnightblue" points="704.43,-301.86 713.15,-295.84 702.58,-295.1 704.43,-301.86"/>
</g>
<!-- Node9 -->
<g id="node9" class="node">
<title>Node9</title>
<g id="a_node9"><a xlink:href="classrare_1_1widgets_1_1loading__widget_1_1_loading_widget.html#a26ca7c1c7fcdd35378e7be97727047a6" target="_top" xlink:title=" ">
<polygon fill="white" stroke="black" points="662,-190.23 662,-220.23 800,-220.23 800,-190.23 662,-190.23"/>
<text text-anchor="start" x="670" y="-208.23" font-family="Helvetica,sans-Serif" font-size="10.00">rare.widgets.loading</text>
<text text-anchor="middle" x="731" y="-197.23" font-family="Helvetica,sans-Serif" font-size="10.00">_widget.LoadingWidget.stop</text>
</a>
</g>
</g>
<!-- Node5&#45;&gt;Node9 -->
<g id="edge13" class="edge">
<title>Node5&#45;&gt;Node9</title>
<path fill="none" stroke="midnightblue" d="M600.59,-329.21C609.41,-326.31 618.41,-322.41 626,-317.23 647.15,-302.78 644.85,-291.25 662,-272.23 676.01,-256.69 692.74,-240.19 706.09,-227.45"/>
<polygon fill="midnightblue" stroke="midnightblue" points="708.67,-229.83 713.52,-220.41 703.85,-224.75 708.67,-229.83"/>
</g>
<!-- Node6&#45;&gt;Node6 -->
<g id="edge7" class="edge">
<title>Node6&#45;&gt;Node6</title>
<path fill="none" stroke="midnightblue" d="M701.37,-380.39C694.23,-389.78 704.11,-398.73 731,-398.73 747.39,-398.73 757.46,-395.41 761.21,-390.68"/>
<polygon fill="midnightblue" stroke="midnightblue" points="764.68,-390.17 760.63,-380.39 757.69,-390.57 764.68,-390.17"/>
</g>
<!-- Node7&#45;&gt;Node7 -->
<g id="edge10" class="edge">
<title>Node7&#45;&gt;Node7</title>
<path fill="none" stroke="midnightblue" d="M704.8,-73.98C692.05,-82.79 700.79,-92.23 731,-92.23 751.3,-92.23 761.9,-87.97 762.81,-82.5"/>
<polygon fill="midnightblue" stroke="midnightblue" points="765.63,-80.41 757.2,-73.98 759.78,-84.26 765.63,-80.41"/>
</g>
<!-- Node8&#45;&gt;Node8 -->
<g id="edge12" class="edge">
<title>Node8&#45;&gt;Node8</title>
<path fill="none" stroke="midnightblue" d="M713.18,-296.59C689.7,-306.3 695.64,-319.23 731,-319.23 760.84,-319.23 769.73,-310.03 757.67,-301.31"/>
<polygon fill="midnightblue" stroke="midnightblue" points="759.29,-298.21 748.82,-296.59 755.99,-304.39 759.29,-298.21"/>
</g>
<!-- Node9&#45;&gt;Node9 -->
<g id="edge14" class="edge">
<title>Node9&#45;&gt;Node9</title>
<path fill="none" stroke="midnightblue" d="M701.37,-220.39C694.23,-229.78 704.11,-238.73 731,-238.73 747.39,-238.73 757.46,-235.41 761.21,-230.68"/>
<polygon fill="midnightblue" stroke="midnightblue" points="764.68,-230.17 760.63,-220.39 757.69,-230.57 764.68,-230.17"/>
</g>
<!-- Node10&#45;&gt;Node4 -->
<g id="edge16" class="edge">
<title>Node10&#45;&gt;Node4</title>
<path fill="none" stroke="midnightblue" d="M267.89,-221.76C282.14,-229.35 303.3,-239.61 323,-245.23 376.23,-260.41 438.37,-267.91 485.66,-271.62"/>
<polygon fill="midnightblue" stroke="midnightblue" points="485.59,-275.13 495.82,-272.38 486.11,-268.14 485.59,-275.13"/>
</g>
<!-- Node10&#45;&gt;Node7 -->
<g id="edge22" class="edge">
<title>Node10&#45;&gt;Node7</title>
<path fill="none" stroke="midnightblue" d="M251.53,-202.48C253.79,-171.91 265.35,-77.68 323,-39.23 441.97,40.12 626.59,-21.32 699.19,-50.77"/>
<polygon fill="midnightblue" stroke="midnightblue" points="698.09,-54.1 708.67,-54.69 700.77,-47.63 698.09,-54.1"/>
</g>
<!-- Node10&#45;&gt;Node8 -->
<g id="edge30" class="edge">
<title>Node10&#45;&gt;Node8</title>
<path fill="none" stroke="midnightblue" d="M287.12,-215.32C374.7,-222.9 593.57,-242.35 626,-250.23 653.52,-256.91 683.45,-269.29 704.1,-278.71"/>
<polygon fill="midnightblue" stroke="midnightblue" points="702.63,-281.88 713.17,-282.92 705.58,-275.53 702.63,-281.88"/>
</g>
<!-- Node10&#45;&gt;Node9 -->
<g id="edge31" class="edge">
<title>Node10&#45;&gt;Node9</title>
<path fill="none" stroke="midnightblue" d="M287,-211.7C364.07,-210.57 546.52,-207.91 651.66,-206.37"/>
<polygon fill="midnightblue" stroke="midnightblue" points="651.96,-209.87 661.9,-206.22 651.85,-202.87 651.96,-209.87"/>
</g>
<!-- Node10&#45;&gt;Node10 -->
<g id="edge21" class="edge">
<title>Node10&#45;&gt;Node10</title>
<path fill="none" stroke="midnightblue" d="M233.05,-221.98C224.8,-230.79 230.45,-240.23 250,-240.23 262.22,-240.23 269.01,-236.54 270.37,-231.63"/>
<polygon fill="midnightblue" stroke="midnightblue" points="273.59,-230.24 266.95,-221.98 266.99,-232.58 273.59,-230.24"/>
</g>
<!-- Node11 -->
<g id="node11" class="node">
<title>Node11</title>
<g id="a_node11"><a xlink:href="namespacerare_1_1commands_1_1launcher_1_1lgd__helper.html#ae4079e12d04167490b2b535baf65034a" target="_top" xlink:title=" ">
<polygon fill="white" stroke="black" points="323,-116.23 323,-146.23 460,-146.23 460,-116.23 323,-116.23"/>
<text text-anchor="start" x="331" y="-134.23" font-family="Helvetica,sans-Serif" font-size="10.00">rare.commands.launcher.lgd</text>
<text text-anchor="middle" x="391.5" y="-123.23" font-family="Helvetica,sans-Serif" font-size="10.00">_helper.dict_to_qprocenv</text>
</a>
</g>
</g>
<!-- Node10&#45;&gt;Node11 -->
<g id="edge17" class="edge">
<title>Node10&#45;&gt;Node11</title>
<path fill="none" stroke="midnightblue" d="M267.55,-202.62C289.17,-190.06 327.58,-167.76 355.74,-151.41"/>
<polygon fill="midnightblue" stroke="midnightblue" points="357.59,-154.38 364.48,-146.33 354.08,-148.33 357.59,-154.38"/>
</g>
<!-- Node12 -->
<g id="node12" class="node">
<title>Node12</title>
<g id="a_node12"><a xlink:href="namespacerare_1_1utils_1_1paths.html#a5aae2af81c71e81b5a7ce0c16db5ba19" target="_top" xlink:title=" ">
<polygon fill="white" stroke="black" points="344,-49.23 344,-79.23 439,-79.23 439,-49.23 344,-49.23"/>
<text text-anchor="start" x="352" y="-67.23" font-family="Helvetica,sans-Serif" font-size="10.00">rare.utils.paths.get</text>
<text text-anchor="middle" x="391.5" y="-56.23" font-family="Helvetica,sans-Serif" font-size="10.00">_rare_executable</text>
</a>
</g>
</g>
<!-- Node10&#45;&gt;Node12 -->
<g id="edge19" class="edge">
<title>Node10&#45;&gt;Node12</title>
<path fill="none" stroke="midnightblue" d="M255.83,-202.47C266.06,-182.52 291.56,-136.43 323,-106.23 331.47,-98.09 341.76,-90.72 351.73,-84.51"/>
<polygon fill="midnightblue" stroke="midnightblue" points="353.57,-87.49 360.36,-79.36 349.98,-81.48 353.57,-87.49"/>
</g>
<!-- Node10&#45;&gt;Node13 -->
<g id="edge23" class="edge">
<title>Node10&#45;&gt;Node13</title>
<path fill="none" stroke="midnightblue" d="M258.5,-221.9C280.92,-250.84 347.7,-337 376.75,-374.48"/>
<polygon fill="midnightblue" stroke="midnightblue" points="374.07,-376.74 382.96,-382.5 379.6,-372.45 374.07,-376.74"/>
</g>
<!-- Node11&#45;&gt;Node11 -->
<g id="edge18" class="edge">
<title>Node11&#45;&gt;Node11</title>
<path fill="none" stroke="midnightblue" d="M367.1,-146.39C361.22,-155.78 369.35,-164.73 391.5,-164.73 405,-164.73 413.29,-161.41 416.38,-156.68"/>
<polygon fill="midnightblue" stroke="midnightblue" points="419.86,-156.21 415.9,-146.39 412.87,-156.54 419.86,-156.21"/>
</g>
<!-- Node12&#45;&gt;Node12 -->
<g id="edge20" class="edge">
<title>Node12&#45;&gt;Node12</title>
<path fill="none" stroke="midnightblue" d="M367.1,-79.39C361.22,-88.78 369.35,-97.73 391.5,-97.73 405,-97.73 413.29,-94.41 416.38,-89.68"/>
<polygon fill="midnightblue" stroke="midnightblue" points="419.86,-89.21 415.9,-79.39 412.87,-89.54 419.86,-89.21"/>
</g>
<!-- Node13&#45;&gt;Node1 -->
<g id="edge29" class="edge">
<title>Node13&#45;&gt;Node1</title>
<path fill="none" stroke="midnightblue" d="M373.4,-394.48C319.72,-401.54 153.54,-423.42 75.19,-433.74"/>
<polygon fill="midnightblue" stroke="midnightblue" points="74.64,-430.28 65.18,-435.06 75.55,-437.22 74.64,-430.28"/>
</g>
<!-- Node13&#45;&gt;Node3 -->
<g id="edge28" class="edge">
<title>Node13&#45;&gt;Node3</title>
<path fill="none" stroke="midnightblue" d="M373.22,-393.93C335.08,-393.12 242.62,-383.37 186.24,-374.77"/>
<polygon fill="midnightblue" stroke="midnightblue" points="186.58,-371.28 176.16,-373.18 185.49,-378.2 186.58,-371.28"/>
</g>
<!-- Node13&#45;&gt;Node4 -->
<g id="edge24" class="edge">
<title>Node13&#45;&gt;Node4</title>
<path fill="none" stroke="midnightblue" d="M405.81,-382.52C425.43,-368.26 463.32,-340.88 496,-318.23 506.57,-310.9 518.22,-303.01 528.66,-296.02"/>
<polygon fill="midnightblue" stroke="midnightblue" points="530.71,-298.86 537.08,-290.39 526.82,-293.04 530.71,-298.86"/>
</g>
<!-- Node13&#45;&gt;Node5 -->
<g id="edge26" class="edge">
<title>Node13&#45;&gt;Node5</title>
<path fill="none" stroke="midnightblue" d="M409.79,-386.55C435.81,-378 485.71,-361.62 520.84,-350.08"/>
<polygon fill="midnightblue" stroke="midnightblue" points="522.36,-353.27 530.77,-346.82 520.18,-346.62 522.36,-353.27"/>
</g>
<!-- Node13&#45;&gt;Node6 -->
<g id="edge25" class="edge">
<title>Node13&#45;&gt;Node6</title>
<path fill="none" stroke="midnightblue" d="M409.79,-390.95C448.51,-388.08 545.16,-380.84 626,-374.23 635.69,-373.43 645.88,-372.58 655.94,-371.72"/>
<polygon fill="midnightblue" stroke="midnightblue" points="656.27,-375.21 665.93,-370.87 655.67,-368.23 656.27,-375.21"/>
</g>
<!-- Node13&#45;&gt;Node13 -->
<g id="edge27" class="edge">
<title>Node13&#45;&gt;Node13</title>
<path fill="none" stroke="midnightblue" d="M373.1,-399.68C358.3,-409.06 364.43,-420.23 391.5,-420.23 411.8,-420.23 420.33,-413.95 417.08,-406.85"/>
<polygon fill="midnightblue" stroke="midnightblue" points="419.45,-404.27 409.9,-399.68 414.5,-409.22 419.45,-404.27"/>
</g>
</g>
</svg>
