<?xml version="1.0" encoding="UTF-8" standalone="no"?>
<!DOCTYPE svg PUBLIC "-//W3C//DTD SVG 1.1//EN"
 "http://www.w3.org/Graphics/SVG/1.1/DTD/svg11.dtd">
<!-- Generated by graphviz version 2.49.3 (20211027.1534)
 -->
<!-- Title: filter_games Pages: 1 -->
<svg width="847pt" height="170pt"
 viewBox="0.00 0.00 847.00 170.00" xmlns="http://www.w3.org/2000/svg" xmlns:xlink="http://www.w3.org/1999/xlink">
<g id="graph0" class="graph" transform="scale(1 1) rotate(0) translate(4 166)">
<title>filter_games</title>
<polygon fill="white" stroke="transparent" points="-4,4 -4,-166 843,-166 843,4 -4,4"/>
<!-- Node1 -->
<g id="node1" class="node">
<title>Node1</title>
<g id="a_node1"><a xlink:title=" ">
<polygon fill="#bfbfbf" stroke="black" points="0,-62.5 0,-81.5 69,-81.5 69,-62.5 0,-62.5"/>
<text text-anchor="middle" x="34.5" y="-69.5" font-family="Helvetica,sans-Serif" font-size="10.00">filter_games</text>
</a>
</g>
</g>
<!-- Node1&#45;&gt;Node1 -->
<g id="edge1" class="edge">
<title>Node1&#45;&gt;Node1</title>
<path fill="none" stroke="midnightblue" d="M19.7,-81.76C12.51,-90.57 17.44,-100 34.5,-100 45.16,-100 51.09,-96.31 52.28,-91.4"/>
<polygon fill="midnightblue" stroke="midnightblue" points="55.59,-90.28 49.3,-81.76 48.91,-92.34 55.59,-90.28"/>
</g>
<!-- Node2 -->
<g id="node2" class="node">
<title>Node2</title>
<g id="a_node2"><a xlink:href="classrare_1_1components_1_1tabs_1_1games_1_1_games_tab.html#afc3cd8ac539d3d010f6913fa6cc85cbb" target="_top" xlink:title=" ">
<polygon fill="white" stroke="black" points="105,-62.5 105,-81.5 156,-81.5 156,-62.5 105,-62.5"/>
<text text-anchor="middle" x="130.5" y="-69.5" font-family="Helvetica,sans-Serif" font-size="10.00">sort_list</text>
</a>
</g>
</g>
<!-- Node1&#45;&gt;Node2 -->
<g id="edge2" class="edge">
<title>Node1&#45;&gt;Node2</title>
<path fill="none" stroke="midnightblue" d="M69.17,-72C77.47,-72 86.37,-72 94.72,-72"/>
<polygon fill="midnightblue" stroke="midnightblue" points="94.91,-75.5 104.91,-72 94.91,-68.5 94.91,-75.5"/>
</g>
<!-- Node2&#45;&gt;Node2 -->
<g id="edge17" class="edge">
<title>Node2&#45;&gt;Node2</title>
<path fill="none" stroke="midnightblue" d="M115.7,-81.76C108.51,-90.57 113.44,-100 130.5,-100 141.16,-100 147.09,-96.31 148.28,-91.4"/>
<polygon fill="midnightblue" stroke="midnightblue" points="151.59,-90.28 145.3,-81.76 144.91,-92.34 151.59,-90.28"/>
</g>
<!-- Node3 -->
<g id="node3" class="node">
<title>Node3</title>
<g id="a_node3"><a xlink:href="classrare_1_1components_1_1tabs_1_1games_1_1_games_tab.html#a869dbac7d5500a0c77a5dcbbba5112d5" target="_top" xlink:title=" ">
<polygon fill="white" stroke="black" points="193.5,-118.5 193.5,-137.5 308.5,-137.5 308.5,-118.5 193.5,-118.5"/>
<text text-anchor="middle" x="251" y="-125.5" font-family="Helvetica,sans-Serif" font-size="10.00">__remove_from_layout</text>
</a>
</g>
</g>
<!-- Node2&#45;&gt;Node3 -->
<g id="edge3" class="edge">
<title>Node2&#45;&gt;Node3</title>
<path fill="none" stroke="midnightblue" d="M145.4,-81.79C157.34,-89.88 175.23,-101.26 192,-109 196.69,-111.17 201.7,-113.2 206.73,-115.06"/>
<polygon fill="midnightblue" stroke="midnightblue" points="205.77,-118.44 216.36,-118.45 208.09,-111.83 205.77,-118.44"/>
</g>
<!-- Node4 -->
<g id="node4" class="node">
<title>Node4</title>
<g id="a_node4"><a xlink:href="classrare_1_1components_1_1tabs_1_1games_1_1_games_tab.html#a0d8a470c0a0518913b8fd90bf37549da" target="_top" xlink:title=" ">
<polygon fill="white" stroke="black" points="197.5,-62.5 197.5,-81.5 304.5,-81.5 304.5,-62.5 197.5,-62.5"/>
<text text-anchor="middle" x="251" y="-69.5" font-family="Helvetica,sans-Serif" font-size="10.00">add_installed_widget</text>
</a>
</g>
</g>
<!-- Node2&#45;&gt;Node4 -->
<g id="edge4" class="edge">
<title>Node2&#45;&gt;Node4</title>
<path fill="none" stroke="midnightblue" d="M156.05,-72C165.19,-72 176.02,-72 187.03,-72"/>
<polygon fill="midnightblue" stroke="midnightblue" points="187.14,-75.5 197.14,-72 187.14,-68.5 187.14,-75.5"/>
</g>
<!-- Node9 -->
<g id="node9" class="node">
<title>Node9</title>
<g id="a_node9"><a xlink:href="classrare_1_1components_1_1tabs_1_1games_1_1_games_tab.html#a085f8e3d6939b8b627c26d9c4d6da49f" target="_top" xlink:title=" ">
<polygon fill="white" stroke="black" points="192,-3.5 192,-22.5 310,-22.5 310,-3.5 192,-3.5"/>
<text text-anchor="middle" x="251" y="-10.5" font-family="Helvetica,sans-Serif" font-size="10.00">add_uninstalled_widget</text>
</a>
</g>
</g>
<!-- Node2&#45;&gt;Node9 -->
<g id="edge13" class="edge">
<title>Node2&#45;&gt;Node9</title>
<path fill="none" stroke="midnightblue" d="M150.8,-62.39C170,-52.83 199.66,-38.06 221.56,-27.16"/>
<polygon fill="midnightblue" stroke="midnightblue" points="223.31,-30.2 230.71,-22.61 220.19,-23.93 223.31,-30.2"/>
</g>
<!-- Node4&#45;&gt;Node4 -->
<g id="edge5" class="edge">
<title>Node4&#45;&gt;Node4</title>
<path fill="none" stroke="midnightblue" d="M232.5,-81.76C223.51,-90.57 229.67,-100 251,-100 264.66,-100 272.1,-96.13 273.32,-91.03"/>
<polygon fill="midnightblue" stroke="midnightblue" points="276.55,-89.67 269.5,-81.76 270.07,-92.34 276.55,-89.67"/>
</g>
<!-- Node5 -->
<g id="node5" class="node">
<title>Node5</title>
<g id="a_node5"><a xlink:href="classrare_1_1components_1_1tabs_1_1games_1_1_games_tab.html#a0b2329db4df141f4c93ea860e7b482ba" target="_top" xlink:title=" ">
<polygon fill="white" stroke="black" points="368.5,-124.5 368.5,-143.5 458.5,-143.5 458.5,-124.5 368.5,-124.5"/>
<text text-anchor="middle" x="413.5" y="-131.5" font-family="Helvetica,sans-Serif" font-size="10.00">show_game_info</text>
</a>
</g>
</g>
<!-- Node4&#45;&gt;Node5 -->
<g id="edge6" class="edge">
<title>Node4&#45;&gt;Node5</title>
<path fill="none" stroke="midnightblue" d="M270.73,-81.59C289.45,-90.92 319.23,-105.12 346,-115 352.28,-117.32 358.98,-119.53 365.62,-121.57"/>
<polygon fill="midnightblue" stroke="midnightblue" points="364.66,-124.94 375.25,-124.43 366.66,-118.22 364.66,-124.94"/>
</g>
<!-- Node6 -->
<g id="node6" class="node">
<title>Node6</title>
<g id="a_node6"><a xlink:href="classrare_1_1components_1_1tabs_1_1shop_1_1_shop.html#adce81273b921608423370102d510bcab" target="_top" xlink:title=" ">
<polygon fill="white" stroke="black" points="346,-57 346,-87 481,-87 481,-57 346,-57"/>
<text text-anchor="start" x="354" y="-75" font-family="Helvetica,sans-Serif" font-size="10.00">rare.components.tabs.shop.</text>
<text text-anchor="middle" x="413.5" y="-64" font-family="Helvetica,sans-Serif" font-size="10.00">Shop.show_game_info</text>
</a>
</g>
</g>
<!-- Node4&#45;&gt;Node6 -->
<g id="edge8" class="edge">
<title>Node4&#45;&gt;Node6</title>
<path fill="none" stroke="midnightblue" d="M304.55,-72C314.53,-72 325.16,-72 335.71,-72"/>
<polygon fill="midnightblue" stroke="midnightblue" points="335.77,-75.5 345.77,-72 335.77,-68.5 335.77,-75.5"/>
</g>
<!-- Node5&#45;&gt;Node5 -->
<g id="edge7" class="edge">
<title>Node5&#45;&gt;Node5</title>
<path fill="none" stroke="midnightblue" d="M388.53,-143.76C376.38,-152.57 384.71,-162 413.5,-162 432.85,-162 442.95,-157.74 443.81,-152.27"/>
<polygon fill="midnightblue" stroke="midnightblue" points="446.75,-150.37 438.47,-143.76 440.82,-154.09 446.75,-150.37"/>
</g>
<!-- Node6&#45;&gt;Node6 -->
<g id="edge12" class="edge">
<title>Node6&#45;&gt;Node6</title>
<path fill="none" stroke="midnightblue" d="M385.27,-87.16C378.46,-96.56 387.87,-105.5 413.5,-105.5 429.12,-105.5 438.71,-102.18 442.29,-97.46"/>
<polygon fill="midnightblue" stroke="midnightblue" points="445.76,-96.96 441.73,-87.16 438.77,-97.33 445.76,-96.96"/>
</g>
<!-- Node7 -->
<g id="node7" class="node">
<title>Node7</title>
<g id="a_node7"><a xlink:href="classrare_1_1lgndr_1_1api__monkeys_1_1_lgndr_indirect_logger.html#a98a895468c8036bb8122dd2c568d91e7" target="_top" xlink:title=" ">
<polygon fill="white" stroke="black" points="517,-57 517,-87 660,-87 660,-57 517,-57"/>
<text text-anchor="start" x="525" y="-75" font-family="Helvetica,sans-Serif" font-size="10.00">rare.lgndr.api_monkeys.Lgndr</text>
<text text-anchor="middle" x="588.5" y="-64" font-family="Helvetica,sans-Serif" font-size="10.00">IndirectLogger.info</text>
</a>
</g>
</g>
<!-- Node6&#45;&gt;Node7 -->
<g id="edge9" class="edge">
<title>Node6&#45;&gt;Node7</title>
<path fill="none" stroke="midnightblue" d="M481.39,-72C489.63,-72 498.13,-72 506.56,-72"/>
<polygon fill="midnightblue" stroke="midnightblue" points="506.78,-75.5 516.78,-72 506.78,-68.5 506.78,-75.5"/>
</g>
<!-- Node7&#45;&gt;Node7 -->
<g id="edge11" class="edge">
<title>Node7&#45;&gt;Node7</title>
<path fill="none" stroke="midnightblue" d="M558.18,-87.16C550.86,-96.56 560.97,-105.5 588.5,-105.5 605.27,-105.5 615.58,-102.18 619.42,-97.46"/>
<polygon fill="midnightblue" stroke="midnightblue" points="622.89,-96.94 618.82,-87.16 615.91,-97.34 622.89,-96.94"/>
</g>
<!-- Node8 -->
<g id="node8" class="node">
<title>Node8</title>
<g id="a_node8"><a xlink:href="classrare_1_1lgndr_1_1api__monkeys_1_1_lgndr_indirect_logger.html#a66bb1af90088807e5445bcf242390463" target="_top" xlink:title=" ">
<polygon fill="white" stroke="black" points="696,-57 696,-87 839,-87 839,-57 696,-57"/>
<text text-anchor="start" x="704" y="-75" font-family="Helvetica,sans-Serif" font-size="10.00">rare.lgndr.api_monkeys.Lgndr</text>
<text text-anchor="middle" x="767.5" y="-64" font-family="Helvetica,sans-Serif" font-size="10.00">IndirectLogger._log</text>
</a>
</g>
</g>
<!-- Node7&#45;&gt;Node8 -->
<g id="edge10" class="edge">
<title>Node7&#45;&gt;Node8</title>
<path fill="none" stroke="midnightblue" d="M660.22,-72C668.57,-72 677.14,-72 685.62,-72"/>
<polygon fill="midnightblue" stroke="midnightblue" points="685.89,-75.5 695.89,-72 685.89,-68.5 685.89,-75.5"/>
</g>
<!-- Node9&#45;&gt;Node9 -->
<g id="edge14" class="edge">
<title>Node9&#45;&gt;Node9</title>
<path fill="none" stroke="midnightblue" d="M232.5,-22.76C223.51,-31.57 229.67,-41 251,-41 264.66,-41 272.1,-37.13 273.32,-32.03"/>
<polygon fill="midnightblue" stroke="midnightblue" points="276.55,-30.67 269.5,-22.76 270.07,-33.34 276.55,-30.67"/>
</g>
<!-- Node10 -->
<g id="node10" class="node">
<title>Node10</title>
<g id="a_node10"><a xlink:href="classrare_1_1components_1_1tabs_1_1games_1_1_games_tab.html#a8e8b8383bfb0203281dfa30f18213235" target="_top" xlink:title=" ">
<polygon fill="white" stroke="black" points="357,-0.5 357,-19.5 470,-19.5 470,-0.5 357,-0.5"/>
<text text-anchor="middle" x="413.5" y="-7.5" font-family="Helvetica,sans-Serif" font-size="10.00">show_uninstalled_info</text>
</a>
</g>
</g>
<!-- Node9&#45;&gt;Node10 -->
<g id="edge15" class="edge">
<title>Node9&#45;&gt;Node10</title>
<path fill="none" stroke="midnightblue" d="M310.4,-11.91C322.23,-11.69 334.75,-11.45 346.82,-11.23"/>
<polygon fill="midnightblue" stroke="midnightblue" points="346.89,-14.73 356.82,-11.04 346.76,-7.73 346.89,-14.73"/>
</g>
<!-- Node10&#45;&gt;Node10 -->
<g id="edge16" class="edge">
<title>Node10&#45;&gt;Node10</title>
<path fill="none" stroke="midnightblue" d="M388.53,-19.76C376.38,-28.57 384.71,-38 413.5,-38 432.85,-38 442.95,-33.74 443.81,-28.27"/>
<polygon fill="midnightblue" stroke="midnightblue" points="446.75,-26.37 438.47,-19.76 440.82,-30.09 446.75,-26.37"/>
</g>
</g>
</svg>
