<?xml version="1.0" encoding="UTF-8" standalone="no"?>
<!DOCTYPE svg PUBLIC "-//W3C//DTD SVG 1.1//EN"
 "http://www.w3.org/Graphics/SVG/1.1/DTD/svg11.dtd">
<!-- Generated by graphviz version 2.49.3 (20211027.1534)
 -->
<!-- Title: is_third_party Pages: 1 -->
<svg width="177pt" height="102pt"
 viewBox="0.00 0.00 177.00 102.00" xmlns="http://www.w3.org/2000/svg" xmlns:xlink="http://www.w3.org/1999/xlink">
<g id="graph0" class="graph" transform="scale(1 1) rotate(0) translate(4 98)">
<title>is_third_party</title>
<polygon fill="white" stroke="transparent" points="-4,4 -4,-98 173,-98 173,4 -4,4"/>
<!-- Node1 -->
<g id="node1" class="node">
<title>Node1</title>
<g id="a_node1"><a xlink:title=" ">
<polygon fill="#bfbfbf" stroke="black" points="0,-28.5 0,-47.5 74,-47.5 74,-28.5 0,-28.5"/>
<text text-anchor="middle" x="37" y="-35.5" font-family="Helvetica,sans-Serif" font-size="10.00">is_third_party</text>
</a>
</g>
</g>
<!-- Node1&#45;&gt;Node1 -->
<g id="edge3" class="edge">
<title>Node1&#45;&gt;Node1</title>
<path fill="none" stroke="midnightblue" d="M21.28,-47.76C13.63,-56.57 18.87,-66 37,-66 48.33,-66 54.63,-62.31 55.89,-57.4"/>
<polygon fill="midnightblue" stroke="midnightblue" points="59.17,-56.17 52.72,-47.76 52.52,-58.35 59.17,-56.17"/>
</g>
<!-- Node2 -->
<g id="node2" class="node">
<title>Node2</title>
<g id="a_node2"><a xlink:href="classrare_1_1models_1_1game__slim_1_1_rare_game_base.html#a278563422a00c7eb39dfc65d0b71f51a" target="_top" xlink:title=" ">
<polygon fill="white" stroke="black" points="113,-56.5 113,-75.5 166,-75.5 166,-56.5 113,-56.5"/>
<text text-anchor="middle" x="139.5" y="-63.5" font-family="Helvetica,sans-Serif" font-size="10.00">is_origin</text>
</a>
</g>
</g>
<!-- Node1&#45;&gt;Node2 -->
<g id="edge1" class="edge">
<title>Node1&#45;&gt;Node2</title>
<path fill="none" stroke="midnightblue" d="M72.31,-47.56C82.28,-50.34 93.2,-53.38 103.24,-56.18"/>
<polygon fill="midnightblue" stroke="midnightblue" points="102.34,-59.56 112.92,-58.87 104.22,-52.82 102.34,-59.56"/>
</g>
<!-- Node3 -->
<g id="node3" class="node">
<title>Node3</title>
<g id="a_node3"><a xlink:href="classrare_1_1models_1_1game__slim_1_1_rare_game_base.html#acd0b13e14a42884135db535b9d575942" target="_top" xlink:title=" ">
<polygon fill="white" stroke="black" points="110,-0.5 110,-19.5 169,-19.5 169,-0.5 110,-0.5"/>
<text text-anchor="middle" x="139.5" y="-7.5" font-family="Helvetica,sans-Serif" font-size="10.00">is_ubisoft</text>
</a>
</g>
</g>
<!-- Node1&#45;&gt;Node3 -->
<g id="edge4" class="edge">
<title>Node1&#45;&gt;Node3</title>
<path fill="none" stroke="midnightblue" d="M72.31,-28.44C81.24,-25.95 90.93,-23.25 100.06,-20.71"/>
<polygon fill="midnightblue" stroke="midnightblue" points="101,-24.08 109.7,-18.02 99.13,-17.34 101,-24.08"/>
</g>
<!-- Node2&#45;&gt;Node2 -->
<g id="edge2" class="edge">
<title>Node2&#45;&gt;Node2</title>
<path fill="none" stroke="midnightblue" d="M123.78,-75.76C116.13,-84.57 121.37,-94 139.5,-94 150.83,-94 157.13,-90.31 158.39,-85.4"/>
<polygon fill="midnightblue" stroke="midnightblue" points="161.67,-84.17 155.22,-75.76 155.02,-86.35 161.67,-84.17"/>
</g>
<!-- Node3&#45;&gt;Node3 -->
<g id="edge5" class="edge">
<title>Node3&#45;&gt;Node3</title>
<path fill="none" stroke="midnightblue" d="M123.78,-19.76C116.13,-28.57 121.37,-38 139.5,-38 150.83,-38 157.13,-34.31 158.39,-29.4"/>
<polygon fill="midnightblue" stroke="midnightblue" points="161.67,-28.17 155.22,-19.76 155.02,-30.35 161.67,-28.17"/>
</g>
</g>
</svg>
