<?xml version="1.0" encoding="UTF-8" standalone="no"?>
<!DOCTYPE svg PUBLIC "-//W3C//DTD SVG 1.1//EN"
 "http://www.w3.org/Graphics/SVG/1.1/DTD/svg11.dtd">
<!-- Generated by graphviz version 2.49.3 (20211027.1534)
 -->
<!-- Title: set_steam_grade Pages: 1 -->
<svg width="271pt" height="163pt"
 viewBox="0.00 0.00 271.00 162.50" xmlns="http://www.w3.org/2000/svg" xmlns:xlink="http://www.w3.org/1999/xlink">
<g id="graph0" class="graph" transform="scale(1 1) rotate(0) translate(4 158.5)">
<title>set_steam_grade</title>
<polygon fill="white" stroke="transparent" points="-4,4 -4,-158.5 267,-158.5 267,4 -4,4"/>
<!-- Node1 -->
<g id="node1" class="node">
<title>Node1</title>
<g id="a_node1"><a xlink:title=" ">
<polygon fill="#bfbfbf" stroke="black" points="0,-73 0,-92 92,-92 92,-73 0,-73"/>
<text text-anchor="middle" x="46" y="-80" font-family="Helvetica,sans-Serif" font-size="10.00">set_steam_grade</text>
</a>
</g>
</g>
<!-- Node1&#45;&gt;Node1 -->
<g id="edge2" class="edge">
<title>Node1&#45;&gt;Node1</title>
<path fill="none" stroke="midnightblue" d="M23.19,-92.26C12.09,-101.07 19.7,-110.5 46,-110.5 63.26,-110.5 72.47,-106.44 73.63,-101.15"/>
<polygon fill="midnightblue" stroke="midnightblue" points="76.65,-99.39 68.81,-92.26 70.49,-102.72 76.65,-99.39"/>
</g>
<!-- Node2 -->
<g id="node2" class="node">
<title>Node2</title>
<g id="a_node2"><a xlink:href="classrare_1_1models_1_1game_1_1_rare_game.html#a97c61b9578819ef09ba2b90def669ba6" target="_top" xlink:title=" ">
<polygon fill="white" stroke="black" points="148.5,-135 148.5,-154 242.5,-154 242.5,-135 148.5,-135"/>
<text text-anchor="middle" x="195.5" y="-142" font-family="Helvetica,sans-Serif" font-size="10.00">__save_metadata</text>
</a>
</g>
</g>
<!-- Node1&#45;&gt;Node2 -->
<g id="edge1" class="edge">
<title>Node1&#45;&gt;Node2</title>
<path fill="none" stroke="midnightblue" d="M62.66,-92.09C78.64,-101.56 104.37,-115.98 128,-125.5 133.85,-127.86 140.09,-130.05 146.33,-132.04"/>
<polygon fill="midnightblue" stroke="midnightblue" points="145.47,-135.44 156.06,-135 147.51,-128.74 145.47,-135.44"/>
</g>
<!-- Node3 -->
<g id="node3" class="node">
<title>Node3</title>
<g id="a_node3"><a xlink:href="classrare_1_1shared_1_1rare__core_1_1_rare_core.html#a135560fc58fcc2e5cff07ec25c23a06c" target="_top" xlink:title=" ">
<polygon fill="white" stroke="black" points="130.5,-67.5 130.5,-97.5 260.5,-97.5 260.5,-67.5 130.5,-67.5"/>
<text text-anchor="start" x="138.5" y="-85.5" font-family="Helvetica,sans-Serif" font-size="10.00">rare.shared.rare_core.Rare</text>
<text text-anchor="middle" x="195.5" y="-74.5" font-family="Helvetica,sans-Serif" font-size="10.00">Core.signals</text>
</a>
</g>
</g>
<!-- Node1&#45;&gt;Node3 -->
<g id="edge3" class="edge">
<title>Node1&#45;&gt;Node3</title>
<path fill="none" stroke="midnightblue" d="M92.06,-82.5C101.05,-82.5 110.71,-82.5 120.39,-82.5"/>
<polygon fill="midnightblue" stroke="midnightblue" points="120.44,-86 130.44,-82.5 120.44,-79 120.44,-86"/>
</g>
<!-- Node4 -->
<g id="node4" class="node">
<title>Node4</title>
<g id="a_node4"><a xlink:href="classrare_1_1shared_1_1workers_1_1worker_1_1_worker.html#a9998d928f5b6f30ebb69dc655c0756a8" target="_top" xlink:title=" ">
<polygon fill="white" stroke="black" points="128,-0.5 128,-30.5 263,-30.5 263,-0.5 128,-0.5"/>
<text text-anchor="start" x="136" y="-18.5" font-family="Helvetica,sans-Serif" font-size="10.00">rare.shared.workers.worker.</text>
<text text-anchor="middle" x="195.5" y="-7.5" font-family="Helvetica,sans-Serif" font-size="10.00">Worker.signals</text>
</a>
</g>
</g>
<!-- Node1&#45;&gt;Node4 -->
<g id="edge5" class="edge">
<title>Node1&#45;&gt;Node4</title>
<path fill="none" stroke="midnightblue" d="M68.13,-72.9C89.94,-63 124.55,-47.28 152.04,-34.79"/>
<polygon fill="midnightblue" stroke="midnightblue" points="153.77,-37.84 161.43,-30.52 150.88,-31.47 153.77,-37.84"/>
</g>
<!-- Node3&#45;&gt;Node3 -->
<g id="edge4" class="edge">
<title>Node3&#45;&gt;Node3</title>
<path fill="none" stroke="midnightblue" d="M169.71,-97.66C163.49,-107.06 172.09,-116 195.5,-116 209.77,-116 218.53,-112.68 221.8,-107.96"/>
<polygon fill="midnightblue" stroke="midnightblue" points="225.28,-107.48 221.29,-97.66 218.29,-107.82 225.28,-107.48"/>
</g>
<!-- Node4&#45;&gt;Node4 -->
<g id="edge6" class="edge">
<title>Node4&#45;&gt;Node4</title>
<path fill="none" stroke="midnightblue" d="M169.71,-30.66C163.49,-40.06 172.09,-49 195.5,-49 209.77,-49 218.53,-45.68 221.8,-40.96"/>
<polygon fill="midnightblue" stroke="midnightblue" points="225.28,-40.48 221.29,-30.66 218.29,-40.82 225.28,-40.48"/>
</g>
</g>
</svg>
