<?xml version="1.0" encoding="UTF-8" standalone="no"?>
<!DOCTYPE svg PUBLIC "-//W3C//DTD SVG 1.1//EN"
 "http://www.w3.org/Graphics/SVG/1.1/DTD/svg11.dtd">
<!-- Generated by graphviz version 2.49.3 (20211027.1534)
 -->
<!-- Title: error_box Pages: 1 -->
<svg width="286pt" height="57pt"
 viewBox="0.00 0.00 285.58 57.00" xmlns="http://www.w3.org/2000/svg" xmlns:xlink="http://www.w3.org/1999/xlink">
<g id="graph0" class="graph" transform="scale(1 1) rotate(0) translate(4 53)">
<title>error_box</title>
<polygon fill="white" stroke="transparent" points="-4,4 -4,-53 281.58,-53 281.58,4 -4,4"/>
<!-- Node1 -->
<g id="node1" class="node">
<title>Node1</title>
<g id="a_node1"><a xlink:title=" ">
<polygon fill="#bfbfbf" stroke="black" points="1.58,-6 1.58,-25 57.58,-25 57.58,-6 1.58,-6"/>
<text text-anchor="middle" x="29.58" y="-13" font-family="Helvetica,sans-Serif" font-size="10.00">error_box</text>
</a>
</g>
</g>
<!-- Node1&#45;&gt;Node1 -->
<g id="edge1" class="edge">
<title>Node1&#45;&gt;Node1</title>
<path fill="none" stroke="midnightblue" d="M5.54,-25.26C-6.16,-34.07 1.85,-43.5 29.58,-43.5 47.78,-43.5 57.48,-39.44 58.7,-34.15"/>
<polygon fill="midnightblue" stroke="midnightblue" points="61.62,-32.21 53.63,-25.26 55.54,-35.68 61.62,-32.21"/>
</g>
<!-- Node2 -->
<g id="node2" class="node">
<title>Node2</title>
<g id="a_node2"><a xlink:href="classrare_1_1components_1_1tabs_1_1games_1_1game__widgets_1_1game__widget_1_1_game_widget.html#aa660d748bc3a0c7c2dfaa15cee8e6ba6" target="_top" xlink:title=" ">
<polygon fill="white" stroke="black" points="93.58,-0.5 93.58,-30.5 277.58,-30.5 277.58,-0.5 93.58,-0.5"/>
<text text-anchor="start" x="101.58" y="-18.5" font-family="Helvetica,sans-Serif" font-size="10.00">rare.components.tabs.games.game</text>
<text text-anchor="middle" x="185.58" y="-7.5" font-family="Helvetica,sans-Serif" font-size="10.00">_widgets.game_widget.GameWidget.ui</text>
</a>
</g>
</g>
<!-- Node1&#45;&gt;Node2 -->
<g id="edge2" class="edge">
<title>Node1&#45;&gt;Node2</title>
<path fill="none" stroke="midnightblue" d="M57.76,-15.5C65.3,-15.5 73.97,-15.5 83.15,-15.5"/>
<polygon fill="midnightblue" stroke="midnightblue" points="83.29,-19 93.29,-15.5 83.29,-12 83.29,-19"/>
</g>
<!-- Node2&#45;&gt;Node2 -->
<g id="edge3" class="edge">
<title>Node2&#45;&gt;Node2</title>
<path fill="none" stroke="midnightblue" d="M158.4,-30.66C151.84,-40.06 160.9,-49 185.58,-49 200.62,-49 209.86,-45.68 213.3,-40.96"/>
<polygon fill="midnightblue" stroke="midnightblue" points="216.78,-40.46 212.77,-30.66 209.79,-40.83 216.78,-40.46"/>
</g>
</g>
</svg>
