<?xml version="1.0" encoding="UTF-8" standalone="no"?>
<!DOCTYPE svg PUBLIC "-//W3C//DTD SVG 1.1//EN"
 "http://www.w3.org/Graphics/SVG/1.1/DTD/svg11.dtd">
<!-- Generated by graphviz version 2.49.3 (20211027.1534)
 -->
<!-- Title: event Pages: 1 -->
<svg width="206pt" height="124pt"
 viewBox="0.00 0.00 206.50 124.00" xmlns="http://www.w3.org/2000/svg" xmlns:xlink="http://www.w3.org/1999/xlink">
<g id="graph0" class="graph" transform="scale(1 1) rotate(0) translate(4 120)">
<title>event</title>
<polygon fill="white" stroke="transparent" points="-4,4 -4,-120 202.5,-120 202.5,4 -4,4"/>
<!-- Node1 -->
<g id="node1" class="node">
<title>Node1</title>
<g id="a_node1"><a xlink:title=" ">
<polygon fill="#bfbfbf" stroke="black" points="1.5,-39 1.5,-58 42.5,-58 42.5,-39 1.5,-39"/>
<text text-anchor="middle" x="22" y="-46" font-family="Helvetica,sans-Serif" font-size="10.00">event</text>
</a>
</g>
</g>
<!-- Node1&#45;&gt;Node1 -->
<g id="edge1" class="edge">
<title>Node1&#45;&gt;Node1</title>
<path fill="none" stroke="midnightblue" d="M4.12,-58.26C-4.58,-67.07 1.38,-76.5 22,-76.5 34.88,-76.5 42.04,-72.81 43.48,-67.9"/>
<polygon fill="midnightblue" stroke="midnightblue" points="46.65,-66.4 39.88,-58.26 40.1,-68.85 46.65,-66.4"/>
</g>
<!-- Node2 -->
<g id="node2" class="node">
<title>Node2</title>
<g id="a_node2"><a xlink:href="classrare_1_1utils_1_1json__formatter_1_1_q_json_tree_item.html#a35061dd226fbf32b76578ca1f0759ce1" target="_top" xlink:title=" ">
<polygon fill="white" stroke="black" points="78.5,-67.5 78.5,-97.5 198.5,-97.5 198.5,-67.5 78.5,-67.5"/>
<text text-anchor="start" x="86.5" y="-85.5" font-family="Helvetica,sans-Serif" font-size="10.00">rare.utils.json_formatter.</text>
<text text-anchor="middle" x="138.5" y="-74.5" font-family="Helvetica,sans-Serif" font-size="10.00">QJsonTreeItem.parent</text>
</a>
</g>
</g>
<!-- Node1&#45;&gt;Node2 -->
<g id="edge2" class="edge">
<title>Node1&#45;&gt;Node2</title>
<path fill="none" stroke="midnightblue" d="M42.68,-54.34C52.27,-57.19 64.37,-60.78 76.69,-64.44"/>
<polygon fill="midnightblue" stroke="midnightblue" points="75.99,-67.89 86.58,-67.38 77.99,-61.18 75.99,-67.89"/>
</g>
<!-- Node3 -->
<g id="node3" class="node">
<title>Node3</title>
<g id="a_node3"><a xlink:href="classrare_1_1utils_1_1json__formatter_1_1_q_json_model.html#acbb44b417d59fdabb258afc05df6e499" target="_top" xlink:title=" ">
<polygon fill="white" stroke="black" points="78.5,-0.5 78.5,-30.5 198.5,-30.5 198.5,-0.5 78.5,-0.5"/>
<text text-anchor="start" x="86.5" y="-18.5" font-family="Helvetica,sans-Serif" font-size="10.00">rare.utils.json_formatter.</text>
<text text-anchor="middle" x="138.5" y="-7.5" font-family="Helvetica,sans-Serif" font-size="10.00">QJsonModel.parent</text>
</a>
</g>
</g>
<!-- Node1&#45;&gt;Node3 -->
<g id="edge4" class="edge">
<title>Node1&#45;&gt;Node3</title>
<path fill="none" stroke="midnightblue" d="M42.68,-42.83C51.87,-40.18 63.38,-36.86 75.17,-33.46"/>
<polygon fill="midnightblue" stroke="midnightblue" points="76.46,-36.73 85.1,-30.6 74.52,-30.01 76.46,-36.73"/>
</g>
<!-- Node2&#45;&gt;Node2 -->
<g id="edge3" class="edge">
<title>Node2&#45;&gt;Node2</title>
<path fill="none" stroke="midnightblue" d="M118.28,-97.66C113.41,-107.06 120.14,-116 138.5,-116 149.68,-116 156.55,-112.68 159.11,-107.96"/>
<polygon fill="midnightblue" stroke="midnightblue" points="162.59,-107.52 158.71,-97.66 155.6,-107.79 162.59,-107.52"/>
</g>
<!-- Node3&#45;&gt;Node3 -->
<g id="edge5" class="edge">
<title>Node3&#45;&gt;Node3</title>
<path fill="none" stroke="midnightblue" d="M118.28,-30.66C113.41,-40.06 120.14,-49 138.5,-49 149.68,-49 156.55,-45.68 159.11,-40.96"/>
<polygon fill="midnightblue" stroke="midnightblue" points="162.59,-40.52 158.71,-30.66 155.6,-40.79 162.59,-40.52"/>
</g>
</g>
</svg>
