<?xml version="1.0" encoding="UTF-8" standalone="no"?>
<!DOCTYPE svg PUBLIC "-//W3C//DTD SVG 1.1//EN"
 "http://www.w3.org/Graphics/SVG/1.1/DTD/svg11.dtd">
<!-- Generated by graphviz version 2.49.3 (20211027.1534)
 -->
<!-- Title: __bool__ Pages: 1 -->
<!--zoomable 327 -->
<svg id="main" version="1.1" xmlns="http://www.w3.org/2000/svg" xmlns:xlink="http://www.w3.org/1999/xlink" xml:space="preserve" onload="init(evt)">
<style type="text/css"><![CDATA[
.edge:hover path { stroke: red; }
.edge:hover polygon { stroke: red; fill: red; }
]]></style>
<script type="text/javascript"><![CDATA[
var edges = document.getElementsByTagName('g');
if (edges && edges.length) {
  for (var i=0;i<edges.length;i++) {
    if (edges[i].id.substr(0,4)=='edge') {
      edges[i].setAttribute('class','edge');
    }
  }
}
]]></script>
        <defs>
                <circle id="rim" cx="0" cy="0" r="7"/>
                <circle id="rim2" cx="0" cy="0" r="3.5"/>
                <g id="zoomPlus">
                        <use xlink:href="#rim" fill="#404040">
                                <set attributeName="fill" to="#808080" begin="zoomplus.mouseover" end="zoomplus.mouseout"/>
                        </use>
                        <path d="M-4,0h8M0,-4v8" fill="none" stroke="white" stroke-width="1.5" pointer-events="none"/>
                </g>
                <g id="zoomMin">
                        <use xlink:href="#rim" fill="#404040">
                                <set attributeName="fill" to="#808080" begin="zoomminus.mouseover" end="zoomminus.mouseout"/>
                        </use>
                        <path d="M-4,0h8" fill="none" stroke="white" stroke-width="1.5" pointer-events="none"/>
                </g>
                <g id="dirArrow">
                        <path fill="none" stroke="white" stroke-width="1.5" d="M0,-3.0v7 M-2.5,-0.5L0,-3.0L2.5,-0.5"/>
                </g>
               <g id="resetDef">
                       <use xlink:href="#rim2" fill="#404040">
                               <set attributeName="fill" to="#808080" begin="reset.mouseover" end="reset.mouseout"/>
                       </use>
               </g>
        </defs>

<script type="text/javascript">
var viewWidth = 724;
var viewHeight = 327;
var sectionId = 'dynsection-3';
</script>
<script xlink:href="svgpan.js"/>
<svg id="graph" class="graph">
<g id="viewport">
<title>__bool__</title>
<polygon fill="white" stroke="transparent" points="-4,4 -4,-322.5 720.34,-322.5 720.34,4 -4,4"/>
<!-- Node1 -->
<g id="node1" class="node">
<title>Node1</title>
<g id="a_node1"><a xlink:title=" ">
<polygon fill="#bfbfbf" stroke="black" points="2.34,-120.5 2.34,-139.5 58.34,-139.5 58.34,-120.5 2.34,-120.5"/>
<text text-anchor="middle" x="30.34" y="-127.5" font-family="Helvetica,sans-Serif" font-size="10.00">__bool__</text>
</a>
</g>
</g>
<!-- Node1&#45;&gt;Node1 -->
<g id="edge1" class="edge">
<title>Node1&#45;&gt;Node1</title>
<path fill="none" stroke="midnightblue" d="M5.68,-139.76C-6.32,-148.57 1.9,-158 30.34,-158 49.45,-158 59.43,-153.74 60.28,-148.27"/>
<polygon fill="midnightblue" stroke="midnightblue" points="63.24,-146.41 55,-139.76 57.29,-150.1 63.24,-146.41"/>
</g>
<!-- Node2 -->
<g id="node2" class="node">
<title>Node2</title>
<g id="a_node2"><a xlink:href="classrare_1_1components_1_1tabs_1_1library_1_1details_1_1cloud__saves_1_1_cloud_saves.html#ad23a87042fcacd32722e00f2898803ce" target="_top" xlink:title=" ">
<polygon fill="white" stroke="black" points="94.34,-146 94.34,-176 288.34,-176 288.34,-146 94.34,-146"/>
<text text-anchor="start" x="102.34" y="-164" font-family="Helvetica,sans-Serif" font-size="10.00">rare.components.tabs.library.details.cloud</text>
<text text-anchor="middle" x="191.34" y="-153" font-family="Helvetica,sans-Serif" font-size="10.00">_saves.CloudSaves.download</text>
</a>
</g>
</g>
<!-- Node1&#45;&gt;Node2 -->
<g id="edge2" class="edge">
<title>Node1&#45;&gt;Node2</title>
<path fill="none" stroke="midnightblue" d="M58.67,-135.33C71.25,-137.78 86.94,-140.84 103.06,-143.98"/>
<polygon fill="midnightblue" stroke="midnightblue" points="102.64,-147.47 113.13,-145.95 103.98,-140.6 102.64,-147.47"/>
</g>
<!-- Node10 -->
<g id="node10" class="node">
<title>Node10</title>
<g id="a_node10"><a xlink:href="classrare_1_1models_1_1install_1_1_install_queue_item_model.html#a9408dbbdcb14df273e8e9d41d9c3f26e" target="_top" xlink:title=" ">
<polygon fill="white" stroke="black" points="167.84,-89.5 167.84,-108.5 214.84,-108.5 214.84,-89.5 167.84,-89.5"/>
<text text-anchor="middle" x="191.34" y="-96.5" font-family="Helvetica,sans-Serif" font-size="10.00">expired</text>
</a>
</g>
</g>
<!-- Node1&#45;&gt;Node10 -->
<g id="edge15" class="edge">
<title>Node1&#45;&gt;Node10</title>
<path fill="none" stroke="midnightblue" d="M58.67,-124.67C86.03,-119.34 128.16,-111.12 157.36,-105.43"/>
<polygon fill="midnightblue" stroke="midnightblue" points="158.34,-108.81 167.48,-103.46 157,-101.94 158.34,-108.81"/>
</g>
<!-- Node2&#45;&gt;Node2 -->
<g id="edge10" class="edge">
<title>Node2&#45;&gt;Node2</title>
<path fill="none" stroke="midnightblue" d="M163.46,-176.16C156.73,-185.56 166.03,-194.5 191.34,-194.5 206.76,-194.5 216.24,-191.18 219.77,-186.46"/>
<polygon fill="midnightblue" stroke="midnightblue" points="223.25,-185.96 219.22,-176.16 216.26,-186.33 223.25,-185.96"/>
</g>
<!-- Node3 -->
<g id="node3" class="node">
<title>Node3</title>
<g id="a_node3"><a xlink:href="classrare_1_1components_1_1tabs_1_1library_1_1details_1_1cloud__saves_1_1_cloud_saves.html#ad78cabf2a51cdceb460aff81d25014fe" target="_top" xlink:title=" ">
<polygon fill="white" stroke="black" points="333.34,-288 333.34,-318 536.34,-318 536.34,-288 333.34,-288"/>
<text text-anchor="start" x="341.34" y="-306" font-family="Helvetica,sans-Serif" font-size="10.00">rare.components.tabs.library.details.cloud</text>
<text text-anchor="middle" x="434.84" y="-295" font-family="Helvetica,sans-Serif" font-size="10.00">_saves.CloudSaves.__compute_save_path</text>
</a>
</g>
</g>
<!-- Node2&#45;&gt;Node3 -->
<g id="edge3" class="edge">
<title>Node2&#45;&gt;Node3</title>
<path fill="none" stroke="midnightblue" d="M204.78,-176.39C226.32,-201.93 273.16,-252.83 324.34,-279 328.14,-280.94 332.1,-282.73 336.15,-284.37"/>
<polygon fill="midnightblue" stroke="midnightblue" points="335.16,-287.74 345.76,-287.95 337.61,-281.18 335.16,-287.74"/>
</g>
<!-- Node4 -->
<g id="node4" class="node">
<title>Node4</title>
<g id="a_node4"><a xlink:href="classrare_1_1components_1_1tabs_1_1library_1_1integrations_1_1egl__sync__group_1_1_e_g_l_sync_group.html#adb881c3a9e79b380da089ffcb076d474" target="_top" xlink:title=" ">
<polygon fill="white" stroke="black" points="332.34,-228.5 332.34,-269.5 537.34,-269.5 537.34,-228.5 332.34,-228.5"/>
<text text-anchor="start" x="340.34" y="-257.5" font-family="Helvetica,sans-Serif" font-size="10.00">rare.components.tabs.library.integrations.egl</text>
<text text-anchor="start" x="340.34" y="-246.5" font-family="Helvetica,sans-Serif" font-size="10.00">_sync_group.EGLSyncGroup.__on_wine</text>
<text text-anchor="middle" x="434.84" y="-235.5" font-family="Helvetica,sans-Serif" font-size="10.00">_resolver_result</text>
</a>
</g>
</g>
<!-- Node2&#45;&gt;Node4 -->
<g id="edge4" class="edge">
<title>Node2&#45;&gt;Node4</title>
<path fill="none" stroke="midnightblue" d="M222.18,-176.01C248.57,-188.87 288.36,-207.29 324.34,-220 329.74,-221.91 335.34,-223.76 341.01,-225.54"/>
<polygon fill="midnightblue" stroke="midnightblue" points="340.01,-228.9 350.6,-228.47 342.06,-222.2 340.01,-228.9"/>
</g>
<!-- Node5 -->
<g id="node5" class="node">
<title>Node5</title>
<g id="a_node5"><a xlink:href="classrare_1_1components_1_1tabs_1_1library_1_1details_1_1cloud__saves_1_1_cloud_saves.html#a5a76aae218812383786133d119cb58f1" target="_top" xlink:title=" ">
<polygon fill="white" stroke="black" points="324.34,-180 324.34,-210 545.34,-210 545.34,-180 324.34,-180"/>
<text text-anchor="start" x="332.34" y="-198" font-family="Helvetica,sans-Serif" font-size="10.00">rare.components.tabs.library.details.cloud</text>
<text text-anchor="middle" x="434.84" y="-187" font-family="Helvetica,sans-Serif" font-size="10.00">_saves.CloudSaves.__on_wine_resolver_result</text>
</a>
</g>
</g>
<!-- Node2&#45;&gt;Node5 -->
<g id="edge5" class="edge">
<title>Node2&#45;&gt;Node5</title>
<path fill="none" stroke="midnightblue" d="M288.48,-174.54C297.85,-175.85 307.43,-177.2 316.98,-178.55"/>
<polygon fill="midnightblue" stroke="midnightblue" points="316.51,-182.02 326.9,-179.94 317.49,-175.08 316.51,-182.02"/>
</g>
<!-- Node6 -->
<g id="node6" class="node">
<title>Node6</title>
<g id="a_node6"><a xlink:href="classrare_1_1shared_1_1rare__core_1_1_rare_core.html#a405e1a4f20f16120f872ccd2654a1d56" target="_top" xlink:title=" ">
<polygon fill="white" stroke="black" points="369.84,-113 369.84,-143 499.84,-143 499.84,-113 369.84,-113"/>
<text text-anchor="start" x="377.84" y="-131" font-family="Helvetica,sans-Serif" font-size="10.00">rare.shared.rare_core.Rare</text>
<text text-anchor="middle" x="434.84" y="-120" font-family="Helvetica,sans-Serif" font-size="10.00">Core.core</text>
</a>
</g>
</g>
<!-- Node2&#45;&gt;Node6 -->
<g id="edge6" class="edge">
<title>Node2&#45;&gt;Node6</title>
<path fill="none" stroke="midnightblue" d="M288.48,-147.86C312.09,-144.64 337.02,-141.23 359.43,-138.17"/>
<polygon fill="midnightblue" stroke="midnightblue" points="360.1,-141.61 369.53,-136.79 359.15,-134.67 360.1,-141.61"/>
</g>
<!-- Node8 -->
<g id="node8" class="node">
<title>Node8</title>
<g id="a_node8"><a xlink:href="namespacerare_1_1components.html#a019ee207f5c041fb0d2e61f76eafa958" target="_top" xlink:title=" ">
<polygon fill="white" stroke="black" points="379.84,-56.5 379.84,-75.5 489.84,-75.5 489.84,-56.5 379.84,-56.5"/>
<text text-anchor="middle" x="434.84" y="-63.5" font-family="Helvetica,sans-Serif" font-size="10.00">rare.components.start</text>
</a>
</g>
</g>
<!-- Node2&#45;&gt;Node8 -->
<g id="edge11" class="edge">
<title>Node2&#45;&gt;Node8</title>
<path fill="none" stroke="midnightblue" d="M265.29,-145.93C273.28,-143.14 281.12,-139.86 288.34,-136 307.22,-125.91 305.87,-114.83 324.34,-104 343.05,-93.03 365.42,-84.56 385.04,-78.43"/>
<polygon fill="midnightblue" stroke="midnightblue" points="386.16,-81.75 394.73,-75.52 384.14,-75.05 386.16,-81.75"/>
</g>
<!-- Node9 -->
<g id="node9" class="node">
<title>Node9</title>
<g id="a_node9"><a xlink:href="namespacerare_1_1utils_1_1metrics.html#a5d090481123c8dc931923165fc7fc29b" target="_top" xlink:title=" ">
<polygon fill="white" stroke="black" points="367.34,-0.5 367.34,-19.5 502.34,-19.5 502.34,-0.5 367.34,-0.5"/>
<text text-anchor="middle" x="434.84" y="-7.5" font-family="Helvetica,sans-Serif" font-size="10.00">rare.utils.metrics.timelogger</text>
</a>
</g>
</g>
<!-- Node2&#45;&gt;Node9 -->
<g id="edge13" class="edge">
<title>Node2&#45;&gt;Node9</title>
<path fill="none" stroke="midnightblue" d="M273.78,-145.92C279.02,-143.14 283.94,-139.86 288.34,-136 320.4,-107.85 293.3,-76.28 324.34,-47 336.13,-35.88 351.37,-28.1 366.72,-22.65"/>
<polygon fill="midnightblue" stroke="midnightblue" points="367.83,-25.97 376.26,-19.55 365.67,-19.31 367.83,-25.97"/>
</g>
<!-- Node6&#45;&gt;Node6 -->
<g id="edge7" class="edge">
<title>Node6&#45;&gt;Node6</title>
<path fill="none" stroke="midnightblue" d="M397.55,-143.16C388.55,-152.56 400.98,-161.5 434.84,-161.5 455.47,-161.5 468.15,-158.18 472.87,-153.46"/>
<polygon fill="midnightblue" stroke="midnightblue" points="476.33,-152.89 472.13,-143.16 469.35,-153.38 476.33,-152.89"/>
</g>
<!-- Node7 -->
<g id="node7" class="node">
<title>Node7</title>
<g id="a_node7"><a xlink:href="classrare_1_1shared_1_1workers_1_1worker_1_1_worker.html#a5d3220537164bdcd6c040b54ef85f656" target="_top" xlink:title=" ">
<polygon fill="white" stroke="black" points="581.34,-113 581.34,-143 716.34,-143 716.34,-113 581.34,-113"/>
<text text-anchor="start" x="589.34" y="-131" font-family="Helvetica,sans-Serif" font-size="10.00">rare.shared.workers.worker.</text>
<text text-anchor="middle" x="648.84" y="-120" font-family="Helvetica,sans-Serif" font-size="10.00">Worker.logger</text>
</a>
</g>
</g>
<!-- Node6&#45;&gt;Node7 -->
<g id="edge8" class="edge">
<title>Node6&#45;&gt;Node7</title>
<path fill="none" stroke="midnightblue" d="M500.02,-128C522.42,-128 547.79,-128 571.11,-128"/>
<polygon fill="midnightblue" stroke="midnightblue" points="571.31,-131.5 581.31,-128 571.31,-124.5 571.31,-131.5"/>
</g>
<!-- Node7&#45;&gt;Node7 -->
<g id="edge9" class="edge">
<title>Node7&#45;&gt;Node7</title>
<path fill="none" stroke="midnightblue" d="M611.55,-143.16C602.55,-152.56 614.98,-161.5 648.84,-161.5 669.47,-161.5 682.15,-158.18 686.87,-153.46"/>
<polygon fill="midnightblue" stroke="midnightblue" points="690.33,-152.89 686.13,-143.16 683.35,-153.38 690.33,-152.89"/>
</g>
<!-- Node8&#45;&gt;Node8 -->
<g id="edge12" class="edge">
<title>Node8&#45;&gt;Node8</title>
<path fill="none" stroke="midnightblue" d="M402.12,-75.61C385.69,-84.46 396.6,-94 434.84,-94 462.93,-94 476.27,-88.86 474.86,-82.62"/>
<polygon fill="midnightblue" stroke="midnightblue" points="477.2,-80.01 467.56,-75.61 472.35,-85.06 477.2,-80.01"/>
</g>
<!-- Node9&#45;&gt;Node9 -->
<g id="edge14" class="edge">
<title>Node9&#45;&gt;Node9</title>
<path fill="none" stroke="midnightblue" d="M402.12,-19.61C385.69,-28.46 396.6,-38 434.84,-38 462.93,-38 476.27,-32.86 474.86,-26.62"/>
<polygon fill="midnightblue" stroke="midnightblue" points="477.2,-24.01 467.56,-19.61 472.35,-29.06 477.2,-24.01"/>
</g>
<!-- Node10&#45;&gt;Node10 -->
<g id="edge16" class="edge">
<title>Node10&#45;&gt;Node10</title>
<path fill="none" stroke="midnightblue" d="M167.5,-108.18C154.33,-117.15 162.28,-127 191.34,-127 211.77,-127 221.77,-122.13 221.33,-116.12"/>
<polygon fill="midnightblue" stroke="midnightblue" points="224.07,-113.94 215.18,-108.18 218.53,-118.23 224.07,-113.94"/>
</g>
</g>
</svg>
        <g id="navigator" transform="translate(0 0)" fill="#404254">
                <rect fill="#f2f5e9" fill-opacity="0.5" stroke="#606060" stroke-width=".5" x="0" y="0" width="60" height="60"/>
                <use id="zoomplus" xlink:href="#zoomPlus" x="17" y="9" onmousedown="handleZoom(evt,'in')"/>
                <use id="zoomminus" xlink:href="#zoomMin" x="42" y="9" onmousedown="handleZoom(evt,'out')"/>
                <use id="reset" xlink:href="#resetDef" x="30" y="36" onmousedown="handleReset()"/>
                <g id="arrowUp" xlink:href="#dirArrow" transform="translate(30 24)" onmousedown="handlePan(0,-1)">
                  <use xlink:href="#rim" fill="#404040">
                        <set attributeName="fill" to="#808080" begin="arrowUp.mouseover" end="arrowUp.mouseout"/>
                  </use>
                  <path fill="none" stroke="white" stroke-width="1.5" d="M0,-3.0v7 M-2.5,-0.5L0,-3.0L2.5,-0.5"/>
                </g>
                <g id="arrowRight" xlink:href="#dirArrow" transform="rotate(90) translate(36 -43)" onmousedown="handlePan(1,0)">
                  <use xlink:href="#rim" fill="#404040">
                        <set attributeName="fill" to="#808080" begin="arrowRight.mouseover" end="arrowRight.mouseout"/>
                  </use>
                  <path fill="none" stroke="white" stroke-width="1.5" d="M0,-3.0v7 M-2.5,-0.5L0,-3.0L2.5,-0.5"/>
                </g>
                <g id="arrowDown" xlink:href="#dirArrow" transform="rotate(180) translate(-30 -48)" onmousedown="handlePan(0,1)">
                  <use xlink:href="#rim" fill="#404040">
                        <set attributeName="fill" to="#808080" begin="arrowDown.mouseover" end="arrowDown.mouseout"/>
                  </use>
                  <path fill="none" stroke="white" stroke-width="1.5" d="M0,-3.0v7 M-2.5,-0.5L0,-3.0L2.5,-0.5"/>
                </g>
                <g id="arrowLeft" xlink:href="#dirArrow" transform="rotate(270) translate(-36 17)" onmousedown="handlePan(-1,0)">
                  <use xlink:href="#rim" fill="#404040">
                        <set attributeName="fill" to="#808080" begin="arrowLeft.mouseover" end="arrowLeft.mouseout"/>
                  </use>
                  <path fill="none" stroke="white" stroke-width="1.5" d="M0,-3.0v7 M-2.5,-0.5L0,-3.0L2.5,-0.5"/>
                </g>
        </g>
        <svg viewBox="0 0 15 15" width="100%" height="30px" preserveAspectRatio="xMaxYMin meet">
         <g id="arrow_out" transform="scale(0.3 0.3)">
          <a xlink:href="classrare_1_1models_1_1install_1_1_install_queue_item_model_a3dd81f64b703eff31446b257a4628090_cgraph_org.svg" target="_base">
           <rect id="button" ry="5" rx="5" y="6" x="6" height="38" width="38"
                fill="#f2f5e9" fill-opacity="0.5" stroke="#606060" stroke-width="1.0"/>
           <path id="arrow"
             d="M 11.500037,31.436501 C 11.940474,20.09759 22.043105,11.32322 32.158766,21.979434 L 37.068811,17.246167 C 37.068811,17.246167 37.088388,32 37.088388,32 L 22.160133,31.978069 C 22.160133,31.978069 26.997745,27.140456 26.997745,27.140456 C 18.528582,18.264221 13.291696,25.230495 11.500037,31.436501 z"
             style="fill:#404040;"/>
          </a>
         </g>
        </svg>
</svg>
