<?xml version="1.0" encoding="UTF-8" standalone="no"?>
<!DOCTYPE svg PUBLIC "-//W3C//DTD SVG 1.1//EN"
 "http://www.w3.org/Graphics/SVG/1.1/DTD/svg11.dtd">
<!-- Generated by graphviz version 2.49.3 (20211027.1534)
 -->
<!-- Title: setPixmap Pages: 1 -->
<svg width="237pt" height="114pt"
 viewBox="0.00 0.00 237.00 113.50" xmlns="http://www.w3.org/2000/svg" xmlns:xlink="http://www.w3.org/1999/xlink">
<g id="graph0" class="graph" transform="scale(1 1) rotate(0) translate(4 109.5)">
<title>setPixmap</title>
<polygon fill="white" stroke="transparent" points="-4,4 -4,-109.5 233,-109.5 233,4 -4,4"/>
<!-- Node1 -->
<g id="node1" class="node">
<title>Node1</title>
<g id="a_node1"><a xlink:title=" ">
<polygon fill="#bfbfbf" stroke="black" points="0,-37 0,-56 62,-56 62,-37 0,-37"/>
<text text-anchor="middle" x="31" y="-44" font-family="Helvetica,sans-Serif" font-size="10.00">setPixmap</text>
</a>
</g>
</g>
<!-- Node1&#45;&gt;Node1 -->
<g id="edge3" class="edge">
<title>Node1&#45;&gt;Node1</title>
<path fill="none" stroke="midnightblue" d="M10.65,-56.26C0.76,-65.07 7.54,-74.5 31,-74.5 46.03,-74.5 54.21,-70.63 55.55,-65.53"/>
<polygon fill="midnightblue" stroke="midnightblue" points="58.67,-63.92 51.35,-56.26 52.29,-66.81 58.67,-63.92"/>
</g>
<!-- Node2 -->
<g id="node2" class="node">
<title>Node2</title>
<g id="a_node2"><a xlink:href="classrare_1_1widgets_1_1image__widget_1_1_image_widget.html#aa136880b14cd8741ebe60fbcf4d29a2e" target="_top" xlink:title=" ">
<polygon fill="white" stroke="black" points="114.5,-68 114.5,-87 212.5,-87 212.5,-68 114.5,-68"/>
<text text-anchor="middle" x="163.5" y="-75" font-family="Helvetica,sans-Serif" font-size="10.00">paint_image_cover</text>
</a>
</g>
</g>
<!-- Node1&#45;&gt;Node2 -->
<g id="edge1" class="edge">
<title>Node1&#45;&gt;Node2</title>
<path fill="none" stroke="midnightblue" d="M62.27,-53.69C77.25,-57.25 95.72,-61.64 112.71,-65.67"/>
<polygon fill="midnightblue" stroke="midnightblue" points="111.97,-69.09 122.5,-68 113.58,-62.28 111.97,-69.09"/>
</g>
<!-- Node3 -->
<g id="node3" class="node">
<title>Node3</title>
<g id="a_node3"><a xlink:href="classrare_1_1lgndr_1_1glue_1_1monkeys_1_1_d_l_manager_signals.html#a2e157b8a54419ee393d56143a3260aa9" target="_top" xlink:title=" ">
<polygon fill="white" stroke="black" points="98,-0.5 98,-30.5 229,-30.5 229,-0.5 98,-0.5"/>
<text text-anchor="start" x="106" y="-18.5" font-family="Helvetica,sans-Serif" font-size="10.00">rare.lgndr.glue.monkeys.</text>
<text text-anchor="middle" x="163.5" y="-7.5" font-family="Helvetica,sans-Serif" font-size="10.00">DLManagerSignals.update</text>
</a>
</g>
</g>
<!-- Node1&#45;&gt;Node3 -->
<g id="edge4" class="edge">
<title>Node1&#45;&gt;Node3</title>
<path fill="none" stroke="midnightblue" d="M62.27,-39.31C70.48,-37.36 79.75,-35.16 89.24,-32.9"/>
<polygon fill="midnightblue" stroke="midnightblue" points="90.26,-36.26 99.19,-30.54 88.65,-29.45 90.26,-36.26"/>
</g>
<!-- Node2&#45;&gt;Node2 -->
<g id="edge2" class="edge">
<title>Node2&#45;&gt;Node2</title>
<path fill="none" stroke="midnightblue" d="M143.15,-87.26C133.26,-96.07 140.04,-105.5 163.5,-105.5 178.53,-105.5 186.71,-101.63 188.05,-96.53"/>
<polygon fill="midnightblue" stroke="midnightblue" points="191.17,-94.92 183.85,-87.26 184.79,-97.81 191.17,-94.92"/>
</g>
<!-- Node3&#45;&gt;Node3 -->
<g id="edge5" class="edge">
<title>Node3&#45;&gt;Node3</title>
<path fill="none" stroke="midnightblue" d="M140.5,-30.66C134.95,-40.06 142.62,-49 163.5,-49 176.23,-49 184.04,-45.68 186.95,-40.96"/>
<polygon fill="midnightblue" stroke="midnightblue" points="190.44,-40.5 186.5,-30.66 183.44,-40.8 190.44,-40.5"/>
</g>
</g>
</svg>
