<?xml version="1.0" encoding="UTF-8" standalone="no"?>
<!DOCTYPE svg PUBLIC "-//W3C//DTD SVG 1.1//EN"
 "http://www.w3.org/Graphics/SVG/1.1/DTD/svg11.dtd">
<!-- Generated by graphviz version 2.49.3 (20211027.1534)
 -->
<!-- Title: to_lgd_igame Pages: 1 -->
<!--zoomable 305 -->
<svg id="main" version="1.1" xmlns="http://www.w3.org/2000/svg" xmlns:xlink="http://www.w3.org/1999/xlink" xml:space="preserve" onload="init(evt)">
<style type="text/css"><![CDATA[
.edge:hover path { stroke: red; }
.edge:hover polygon { stroke: red; fill: red; }
]]></style>
<script type="text/javascript"><![CDATA[
var edges = document.getElementsByTagName('g');
if (edges && edges.length) {
  for (var i=0;i<edges.length;i++) {
    if (edges[i].id.substr(0,4)=='edge') {
      edges[i].setAttribute('class','edge');
    }
  }
}
]]></script>
        <defs>
                <circle id="rim" cx="0" cy="0" r="7"/>
                <circle id="rim2" cx="0" cy="0" r="3.5"/>
                <g id="zoomPlus">
                        <use xlink:href="#rim" fill="#404040">
                                <set attributeName="fill" to="#808080" begin="zoomplus.mouseover" end="zoomplus.mouseout"/>
                        </use>
                        <path d="M-4,0h8M0,-4v8" fill="none" stroke="white" stroke-width="1.5" pointer-events="none"/>
                </g>
                <g id="zoomMin">
                        <use xlink:href="#rim" fill="#404040">
                                <set attributeName="fill" to="#808080" begin="zoomminus.mouseover" end="zoomminus.mouseout"/>
                        </use>
                        <path d="M-4,0h8" fill="none" stroke="white" stroke-width="1.5" pointer-events="none"/>
                </g>
                <g id="dirArrow">
                        <path fill="none" stroke="white" stroke-width="1.5" d="M0,-3.0v7 M-2.5,-0.5L0,-3.0L2.5,-0.5"/>
                </g>
               <g id="resetDef">
                       <use xlink:href="#rim2" fill="#404040">
                               <set attributeName="fill" to="#808080" begin="reset.mouseover" end="reset.mouseout"/>
                       </use>
               </g>
        </defs>

<script type="text/javascript">
var viewWidth = 513;
var viewHeight = 305;
var sectionId = 'dynsection-9';
</script>
<script xlink:href="svgpan.js"/>
<svg id="graph" class="graph">
<g id="viewport">
<title>to_lgd_igame</title>
<polygon fill="white" stroke="transparent" points="-4,4 -4,-300.5 509,-300.5 509,4 -4,4"/>
<!-- Node1 -->
<g id="node1" class="node">
<title>Node1</title>
<g id="a_node1"><a xlink:title=" ">
<polygon fill="#bfbfbf" stroke="black" points="0,-129.5 0,-148.5 74,-148.5 74,-129.5 0,-129.5"/>
<text text-anchor="middle" x="37" y="-136.5" font-family="Helvetica,sans-Serif" font-size="10.00">to_lgd_igame</text>
</a>
</g>
</g>
<!-- Node1&#45;&gt;Node1 -->
<g id="edge13" class="edge">
<title>Node1&#45;&gt;Node1</title>
<path fill="none" stroke="midnightblue" d="M7.41,-148.76C-6.99,-157.57 2.87,-167 37,-167 60.99,-167 72.99,-162.34 73,-156.5"/>
<polygon fill="midnightblue" stroke="midnightblue" points="75.66,-154.23 66.59,-148.76 70.27,-158.69 75.66,-154.23"/>
</g>
<!-- Node2 -->
<g id="node2" class="node">
<title>Node2</title>
<g id="a_node2"><a xlink:href="classrare_1_1components_1_1tabs_1_1games_1_1import__sync_1_1egl__sync__group_1_1_e_g_l_sync_list_item.html#a9c470cc60eae203f55455d0e0d7f5712" target="_top" xlink:title=" ">
<polygon fill="white" stroke="black" points="110,-248 110,-278 349,-278 349,-248 110,-248"/>
<text text-anchor="start" x="118" y="-266" font-family="Helvetica,sans-Serif" font-size="10.00">rare.components.tabs.games.import</text>
<text text-anchor="middle" x="229.5" y="-255" font-family="Helvetica,sans-Serif" font-size="10.00">_sync.egl_sync_group.EGLSyncListItem.app_name</text>
</a>
</g>
</g>
<!-- Node1&#45;&gt;Node2 -->
<g id="edge1" class="edge">
<title>Node1&#45;&gt;Node2</title>
<path fill="none" stroke="midnightblue" d="M42.11,-148.72C51.17,-168.88 74.86,-215.23 110,-238 113.19,-240.07 116.51,-241.96 119.95,-243.71"/>
<polygon fill="midnightblue" stroke="midnightblue" points="118.7,-246.99 129.25,-247.98 121.62,-240.63 118.7,-246.99"/>
</g>
<!-- Node3 -->
<g id="node3" class="node">
<title>Node3</title>
<g id="a_node3"><a xlink:href="classrare_1_1models_1_1game_1_1_rare_game.html#a0afe16b2357823a068971d7af5918a23" target="_top" xlink:title=" ">
<polygon fill="white" stroke="black" points="135,-191.5 135,-210.5 324,-210.5 324,-191.5 135,-191.5"/>
<text text-anchor="middle" x="229.5" y="-198.5" font-family="Helvetica,sans-Serif" font-size="10.00">rare.models.game.RareGame.app_name</text>
</a>
</g>
</g>
<!-- Node1&#45;&gt;Node3 -->
<g id="edge3" class="edge">
<title>Node1&#45;&gt;Node3</title>
<path fill="none" stroke="midnightblue" d="M50.52,-148.51C64.32,-158.49 87.56,-173.84 110,-182 117.74,-184.81 125.92,-187.21 134.21,-189.26"/>
<polygon fill="midnightblue" stroke="midnightblue" points="133.45,-192.67 143.98,-191.5 135.01,-185.85 133.45,-192.67"/>
</g>
<!-- Node4 -->
<g id="node4" class="node">
<title>Node4</title>
<g id="a_node4"><a xlink:href="classrare_1_1models_1_1game_1_1_rare_game.html#af3b5f267d190558f0bbc61ea26f269bd" target="_top" xlink:title="Property to report if a game can run offline.">
<polygon fill="white" stroke="black" points="149.5,-124 149.5,-154 309.5,-154 309.5,-124 149.5,-124"/>
<text text-anchor="start" x="157.5" y="-142" font-family="Helvetica,sans-Serif" font-size="10.00">rare.models.game.RareGame.can</text>
<text text-anchor="middle" x="229.5" y="-131" font-family="Helvetica,sans-Serif" font-size="10.00">_run_offline</text>
</a>
</g>
</g>
<!-- Node1&#45;&gt;Node4 -->
<g id="edge5" class="edge">
<title>Node1&#45;&gt;Node4</title>
<path fill="none" stroke="midnightblue" d="M74.28,-139C92.81,-139 116.24,-139 139.21,-139"/>
<polygon fill="midnightblue" stroke="midnightblue" points="139.35,-142.5 149.35,-139 139.35,-135.5 139.35,-142.5"/>
</g>
<!-- Node5 -->
<g id="node5" class="node">
<title>Node5</title>
<g id="a_node5"><a xlink:href="classlegendary_1_1models_1_1manifest_1_1_file_manifest.html#a02f8651360507ae56a79c16b4175f412" target="_top" xlink:title=" ">
<polygon fill="white" stroke="black" points="162.5,-57 162.5,-87 296.5,-87 296.5,-57 162.5,-57"/>
<text text-anchor="start" x="170.5" y="-75" font-family="Helvetica,sans-Serif" font-size="10.00">legendary.models.manifest.</text>
<text text-anchor="middle" x="229.5" y="-64" font-family="Helvetica,sans-Serif" font-size="10.00">FileManifest.executable</text>
</a>
</g>
</g>
<!-- Node1&#45;&gt;Node5 -->
<g id="edge7" class="edge">
<title>Node1&#45;&gt;Node5</title>
<path fill="none" stroke="midnightblue" d="M65.29,-129.4C94.07,-119.28 140.11,-103.09 175.97,-90.48"/>
<polygon fill="midnightblue" stroke="midnightblue" points="177.52,-93.64 185.79,-87.02 175.19,-87.04 177.52,-93.64"/>
</g>
<!-- Node7 -->
<g id="node7" class="node">
<title>Node7</title>
<g id="a_node7"><a xlink:href="classrare_1_1models_1_1game_1_1_rare_game.html#ad95738186d1a39b3a1ec0605405e9ebc" target="_top" xlink:title="Property to report the installation size of an InstalledGame.">
<polygon fill="white" stroke="black" points="133.5,-0.5 133.5,-19.5 325.5,-19.5 325.5,-0.5 133.5,-0.5"/>
<text text-anchor="middle" x="229.5" y="-7.5" font-family="Helvetica,sans-Serif" font-size="10.00">rare.models.game.RareGame.install_size</text>
</a>
</g>
</g>
<!-- Node1&#45;&gt;Node7 -->
<g id="edge11" class="edge">
<title>Node1&#45;&gt;Node7</title>
<path fill="none" stroke="midnightblue" d="M42.97,-129.49C53.09,-111.04 77.87,-70.26 110,-48 126.94,-36.26 147.71,-28 167.1,-22.25"/>
<polygon fill="midnightblue" stroke="midnightblue" points="168.09,-25.6 176.78,-19.54 166.21,-18.86 168.09,-25.6"/>
</g>
<!-- Node2&#45;&gt;Node2 -->
<g id="edge2" class="edge">
<title>Node2&#45;&gt;Node2</title>
<path fill="none" stroke="midnightblue" d="M196.04,-278.16C187.97,-287.56 199.12,-296.5 229.5,-296.5 248.01,-296.5 259.38,-293.18 263.62,-288.46"/>
<polygon fill="midnightblue" stroke="midnightblue" points="267.09,-287.92 262.96,-278.16 260.1,-288.36 267.09,-287.92"/>
</g>
<!-- Node3&#45;&gt;Node3 -->
<g id="edge4" class="edge">
<title>Node3&#45;&gt;Node3</title>
<path fill="none" stroke="midnightblue" d="M199.91,-210.76C185.51,-219.57 195.38,-229 229.5,-229 253.49,-229 265.49,-224.34 265.5,-218.5"/>
<polygon fill="midnightblue" stroke="midnightblue" points="268.16,-216.23 259.09,-210.76 262.77,-220.69 268.16,-216.23"/>
</g>
<!-- Node4&#45;&gt;Node4 -->
<g id="edge6" class="edge">
<title>Node4&#45;&gt;Node4</title>
<path fill="none" stroke="midnightblue" d="M196.04,-154.16C187.97,-163.56 199.12,-172.5 229.5,-172.5 248.01,-172.5 259.38,-169.18 263.62,-164.46"/>
<polygon fill="midnightblue" stroke="midnightblue" points="267.09,-163.92 262.96,-154.16 260.1,-164.36 267.09,-163.92"/>
</g>
<!-- Node5&#45;&gt;Node5 -->
<g id="edge8" class="edge">
<title>Node5&#45;&gt;Node5</title>
<path fill="none" stroke="midnightblue" d="M196.04,-87.16C187.97,-96.56 199.12,-105.5 229.5,-105.5 248.01,-105.5 259.38,-102.18 263.62,-97.46"/>
<polygon fill="midnightblue" stroke="midnightblue" points="267.09,-96.92 262.96,-87.16 260.1,-97.36 267.09,-96.92"/>
</g>
<!-- Node6 -->
<g id="node6" class="node">
<title>Node6</title>
<g id="a_node6"><a xlink:href="classrare_1_1utils_1_1json__formatter_1_1_q_json_model.html#a7d491e435bf3631508f0a7c084acd162" target="_top" xlink:title=" ">
<polygon fill="white" stroke="black" points="385,-57 385,-87 505,-87 505,-57 385,-57"/>
<text text-anchor="start" x="393" y="-75" font-family="Helvetica,sans-Serif" font-size="10.00">rare.utils.json_formatter.</text>
<text text-anchor="middle" x="445" y="-64" font-family="Helvetica,sans-Serif" font-size="10.00">QJsonModel.flags</text>
</a>
</g>
</g>
<!-- Node5&#45;&gt;Node6 -->
<g id="edge9" class="edge">
<title>Node5&#45;&gt;Node6</title>
<path fill="none" stroke="midnightblue" d="M296.59,-72C321.35,-72 349.53,-72 374.58,-72"/>
<polygon fill="midnightblue" stroke="midnightblue" points="374.74,-75.5 384.74,-72 374.74,-68.5 374.74,-75.5"/>
</g>
<!-- Node6&#45;&gt;Node6 -->
<g id="edge10" class="edge">
<title>Node6&#45;&gt;Node6</title>
<path fill="none" stroke="midnightblue" d="M407.71,-87.16C398.71,-96.56 411.14,-105.5 445,-105.5 465.63,-105.5 478.31,-102.18 483.03,-97.46"/>
<polygon fill="midnightblue" stroke="midnightblue" points="486.49,-96.89 482.29,-87.16 479.51,-97.38 486.49,-96.89"/>
</g>
<!-- Node7&#45;&gt;Node7 -->
<g id="edge12" class="edge">
<title>Node7&#45;&gt;Node7</title>
<path fill="none" stroke="midnightblue" d="M199.91,-19.76C185.51,-28.57 195.38,-38 229.5,-38 253.49,-38 265.49,-33.34 265.5,-27.5"/>
<polygon fill="midnightblue" stroke="midnightblue" points="268.16,-25.23 259.09,-19.76 262.77,-29.69 268.16,-25.23"/>
</g>
</g>
</svg>
        <g id="navigator" transform="translate(0 0)" fill="#404254">
                <rect fill="#f2f5e9" fill-opacity="0.5" stroke="#606060" stroke-width=".5" x="0" y="0" width="60" height="60"/>
                <use id="zoomplus" xlink:href="#zoomPlus" x="17" y="9" onmousedown="handleZoom(evt,'in')"/>
                <use id="zoomminus" xlink:href="#zoomMin" x="42" y="9" onmousedown="handleZoom(evt,'out')"/>
                <use id="reset" xlink:href="#resetDef" x="30" y="36" onmousedown="handleReset()"/>
                <g id="arrowUp" xlink:href="#dirArrow" transform="translate(30 24)" onmousedown="handlePan(0,-1)">
                  <use xlink:href="#rim" fill="#404040">
                        <set attributeName="fill" to="#808080" begin="arrowUp.mouseover" end="arrowUp.mouseout"/>
                  </use>
                  <path fill="none" stroke="white" stroke-width="1.5" d="M0,-3.0v7 M-2.5,-0.5L0,-3.0L2.5,-0.5"/>
                </g>
                <g id="arrowRight" xlink:href="#dirArrow" transform="rotate(90) translate(36 -43)" onmousedown="handlePan(1,0)">
                  <use xlink:href="#rim" fill="#404040">
                        <set attributeName="fill" to="#808080" begin="arrowRight.mouseover" end="arrowRight.mouseout"/>
                  </use>
                  <path fill="none" stroke="white" stroke-width="1.5" d="M0,-3.0v7 M-2.5,-0.5L0,-3.0L2.5,-0.5"/>
                </g>
                <g id="arrowDown" xlink:href="#dirArrow" transform="rotate(180) translate(-30 -48)" onmousedown="handlePan(0,1)">
                  <use xlink:href="#rim" fill="#404040">
                        <set attributeName="fill" to="#808080" begin="arrowDown.mouseover" end="arrowDown.mouseout"/>
                  </use>
                  <path fill="none" stroke="white" stroke-width="1.5" d="M0,-3.0v7 M-2.5,-0.5L0,-3.0L2.5,-0.5"/>
                </g>
                <g id="arrowLeft" xlink:href="#dirArrow" transform="rotate(270) translate(-36 17)" onmousedown="handlePan(-1,0)">
                  <use xlink:href="#rim" fill="#404040">
                        <set attributeName="fill" to="#808080" begin="arrowLeft.mouseover" end="arrowLeft.mouseout"/>
                  </use>
                  <path fill="none" stroke="white" stroke-width="1.5" d="M0,-3.0v7 M-2.5,-0.5L0,-3.0L2.5,-0.5"/>
                </g>
        </g>
        <svg viewBox="0 0 15 15" width="100%" height="30px" preserveAspectRatio="xMaxYMin meet">
         <g id="arrow_out" transform="scale(0.3 0.3)">
          <a xlink:href="classlegendary_1_1models_1_1egl_1_1_e_g_l_manifest_a0e539f8600f10ffbb320ee76ae436c92_cgraph_org.svg" target="_base">
           <rect id="button" ry="5" rx="5" y="6" x="6" height="38" width="38"
                fill="#f2f5e9" fill-opacity="0.5" stroke="#606060" stroke-width="1.0"/>
           <path id="arrow"
             d="M 11.500037,31.436501 C 11.940474,20.09759 22.043105,11.32322 32.158766,21.979434 L 37.068811,17.246167 C 37.068811,17.246167 37.088388,32 37.088388,32 L 22.160133,31.978069 C 22.160133,31.978069 26.997745,27.140456 26.997745,27.140456 C 18.528582,18.264221 13.291696,25.230495 11.500037,31.436501 z"
             style="fill:#404040;"/>
          </a>
         </g>
        </svg>
</svg>
