<?xml version="1.0" encoding="UTF-8" standalone="no"?>
<!DOCTYPE svg PUBLIC "-//W3C//DTD SVG 1.1//EN"
 "http://www.w3.org/Graphics/SVG/1.1/DTD/svg11.dtd">
<!-- Generated by graphviz version 2.49.3 (20211027.1534)
 -->
<!-- Title: read_only Pages: 1 -->
<svg width="222pt" height="57pt"
 viewBox="0.00 0.00 222.00 57.00" xmlns="http://www.w3.org/2000/svg" xmlns:xlink="http://www.w3.org/1999/xlink">
<g id="graph0" class="graph" transform="scale(1 1) rotate(0) translate(4 53)">
<title>read_only</title>
<polygon fill="white" stroke="transparent" points="-4,4 -4,-53 218,-53 218,4 -4,4"/>
<!-- Node1 -->
<g id="node1" class="node">
<title>Node1</title>
<g id="a_node1"><a xlink:title=" ">
<polygon fill="#bfbfbf" stroke="black" points="0,-6 0,-25 58,-25 58,-6 0,-6"/>
<text text-anchor="middle" x="29" y="-13" font-family="Helvetica,sans-Serif" font-size="10.00">read_only</text>
</a>
</g>
</g>
<!-- Node1&#45;&gt;Node1 -->
<g id="edge3" class="edge">
<title>Node1&#45;&gt;Node1</title>
<path fill="none" stroke="midnightblue" d="M9.89,-25.26C0.59,-34.07 6.96,-43.5 29,-43.5 43.12,-43.5 50.81,-39.63 52.07,-34.53"/>
<polygon fill="midnightblue" stroke="midnightblue" points="55.25,-33.08 48.11,-25.26 48.81,-35.83 55.25,-33.08"/>
</g>
<!-- Node2 -->
<g id="node2" class="node">
<title>Node2</title>
<g id="a_node2"><a xlink:href="classrare_1_1utils_1_1json__formatter_1_1_q_json_model.html#a7d491e435bf3631508f0a7c084acd162" target="_top" xlink:title=" ">
<polygon fill="white" stroke="black" points="94,-0.5 94,-30.5 214,-30.5 214,-0.5 94,-0.5"/>
<text text-anchor="start" x="102" y="-18.5" font-family="Helvetica,sans-Serif" font-size="10.00">rare.utils.json_formatter.</text>
<text text-anchor="middle" x="154" y="-7.5" font-family="Helvetica,sans-Serif" font-size="10.00">QJsonModel.flags</text>
</a>
</g>
</g>
<!-- Node1&#45;&gt;Node2 -->
<g id="edge1" class="edge">
<title>Node1&#45;&gt;Node2</title>
<path fill="none" stroke="midnightblue" d="M58.22,-15.5C65.95,-15.5 74.68,-15.5 83.64,-15.5"/>
<polygon fill="midnightblue" stroke="midnightblue" points="83.81,-19 93.81,-15.5 83.81,-12 83.81,-19"/>
</g>
<!-- Node2&#45;&gt;Node2 -->
<g id="edge2" class="edge">
<title>Node2&#45;&gt;Node2</title>
<path fill="none" stroke="midnightblue" d="M132.39,-30.66C127.18,-40.06 134.38,-49 154,-49 165.95,-49 173.3,-45.68 176.03,-40.96"/>
<polygon fill="midnightblue" stroke="midnightblue" points="179.52,-40.51 175.61,-30.66 172.52,-40.79 179.52,-40.51"/>
</g>
</g>
</svg>
