<?xml version="1.0" encoding="UTF-8" standalone="no"?>
<!DOCTYPE svg PUBLIC "-//W3C//DTD SVG 1.1//EN"
 "http://www.w3.org/Graphics/SVG/1.1/DTD/svg11.dtd">
<!-- Generated by graphviz version 2.49.3 (20211027.1534)
 -->
<!-- Title: enterAnimation Pages: 1 -->
<svg width="199pt" height="46pt"
 viewBox="0.00 0.00 199.00 46.00" xmlns="http://www.w3.org/2000/svg" xmlns:xlink="http://www.w3.org/1999/xlink">
<g id="graph0" class="graph" transform="scale(1 1) rotate(0) translate(4 42)">
<title>enterAnimation</title>
<polygon fill="white" stroke="transparent" points="-4,4 -4,-42 195,-42 195,4 -4,4"/>
<!-- Node1 -->
<g id="node1" class="node">
<title>Node1</title>
<g id="a_node1"><a xlink:title=" ">
<polygon fill="#bfbfbf" stroke="black" points="0,-0.5 0,-19.5 82,-19.5 82,-0.5 0,-0.5"/>
<text text-anchor="middle" x="41" y="-7.5" font-family="Helvetica,sans-Serif" font-size="10.00">enterAnimation</text>
</a>
</g>
</g>
<!-- Node1&#45;&gt;Node1 -->
<g id="edge1" class="edge">
<title>Node1&#45;&gt;Node1</title>
<path fill="none" stroke="midnightblue" d="M23.74,-19.76C15.34,-28.57 21.09,-38 41,-38 53.44,-38 60.35,-34.31 61.74,-29.4"/>
<polygon fill="midnightblue" stroke="midnightblue" points="64.95,-27.98 58.26,-19.76 58.36,-30.35 64.95,-27.98"/>
</g>
<!-- Node2 -->
<g id="node2" class="node">
<title>Node2</title>
<g id="a_node2"><a xlink:href="namespacerare_1_1app.html#a37fb442592b19edb2dcdd368df2d2d76" target="_top" xlink:title=" ">
<polygon fill="white" stroke="black" points="118,-0.5 118,-19.5 191,-19.5 191,-0.5 118,-0.5"/>
<text text-anchor="middle" x="154.5" y="-7.5" font-family="Helvetica,sans-Serif" font-size="10.00">rare.app.start</text>
</a>
</g>
</g>
<!-- Node1&#45;&gt;Node2 -->
<g id="edge2" class="edge">
<title>Node1&#45;&gt;Node2</title>
<path fill="none" stroke="midnightblue" d="M82.25,-10C90.5,-10 99.24,-10 107.67,-10"/>
<polygon fill="midnightblue" stroke="midnightblue" points="107.74,-13.5 117.74,-10 107.74,-6.5 107.74,-13.5"/>
</g>
<!-- Node2&#45;&gt;Node2 -->
<g id="edge3" class="edge">
<title>Node2&#45;&gt;Node2</title>
<path fill="none" stroke="midnightblue" d="M137.24,-19.76C128.84,-28.57 134.59,-38 154.5,-38 166.94,-38 173.85,-34.31 175.24,-29.4"/>
<polygon fill="midnightblue" stroke="midnightblue" points="178.45,-27.98 171.76,-19.76 171.86,-30.35 178.45,-27.98"/>
</g>
</g>
</svg>
