<?xml version="1.0" encoding="UTF-8" standalone="no"?>
<!DOCTYPE svg PUBLIC "-//W3C//DTD SVG 1.1//EN"
 "http://www.w3.org/Graphics/SVG/1.1/DTD/svg11.dtd">
<!-- Generated by graphviz version 2.49.3 (20211027.1534)
 -->
<!-- Title: LaunchSettingsBase Pages: 1 -->
<svg width="224pt" height="408pt"
 viewBox="0.00 0.00 223.50 408.00" xmlns="http://www.w3.org/2000/svg" xmlns:xlink="http://www.w3.org/1999/xlink">
<g id="graph0" class="graph" transform="scale(1 1) rotate(0) translate(4 404)">
<title>LaunchSettingsBase</title>
<polygon fill="white" stroke="transparent" points="-4,4 -4,-404 219.5,-404 219.5,4 -4,4"/>
<!-- Node1 -->
<g id="node1" class="node">
<title>Node1</title>
<g id="a_node1"><a xlink:title=" ">
<polygon fill="#bfbfbf" stroke="black" points="60.5,-182.5 60.5,-305.5 167.5,-305.5 167.5,-182.5 60.5,-182.5"/>
<text text-anchor="middle" x="114" y="-293.5" font-family="Helvetica,sans-Serif" font-size="10.00">LaunchSettingsBase</text>
<polyline fill="none" stroke="black" points="60.5,-286.5 167.5,-286.5 "/>
<text text-anchor="start" x="68.5" y="-274.5" font-family="Helvetica,sans-Serif" font-size="10.00">+ core</text>
<text text-anchor="start" x="68.5" y="-263.5" font-family="Helvetica,sans-Serif" font-size="10.00">+ prelaunch_edit</text>
<text text-anchor="start" x="68.5" y="-252.5" font-family="Helvetica,sans-Serif" font-size="10.00">+ wrappers_widget</text>
<text text-anchor="start" x="68.5" y="-241.5" font-family="Helvetica,sans-Serif" font-size="10.00">+ prelaunch_check</text>
<text text-anchor="start" x="68.5" y="-230.5" font-family="Helvetica,sans-Serif" font-size="10.00">+ main_layout</text>
<polyline fill="none" stroke="black" points="60.5,-223.5 167.5,-223.5 "/>
<text text-anchor="start" x="68.5" y="-211.5" font-family="Helvetica,sans-Serif" font-size="10.00">+ __init__()</text>
<text text-anchor="start" x="68.5" y="-200.5" font-family="Helvetica,sans-Serif" font-size="10.00">+ showEvent()</text>
<text text-anchor="start" x="68.5" y="-189.5" font-family="Helvetica,sans-Serif" font-size="10.00">+ tool_enabled()</text>
</a>
</g>
</g>
<!-- Node3 -->
<g id="node3" class="node">
<title>Node3</title>
<g id="a_node3"><a xlink:href="classrare_1_1components_1_1tabs_1_1games_1_1game__info_1_1game__settings_1_1_game_launch_settings.html" target="_top" xlink:title=" ">
<polygon fill="white" stroke="black" points="0,-0.5 0,-145.5 112,-145.5 112,-0.5 0,-0.5"/>
<text text-anchor="middle" x="56" y="-133.5" font-family="Helvetica,sans-Serif" font-size="10.00">GameLaunchSettings</text>
<polyline fill="none" stroke="black" points="0,-126.5 112,-126.5 "/>
<text text-anchor="start" x="8" y="-114.5" font-family="Helvetica,sans-Serif" font-size="10.00">+ skip_update_combo</text>
<text text-anchor="start" x="8" y="-103.5" font-family="Helvetica,sans-Serif" font-size="10.00">+ offline_combo</text>
<text text-anchor="start" x="8" y="-92.5" font-family="Helvetica,sans-Serif" font-size="10.00">+ override_exe_edit</text>
<text text-anchor="start" x="8" y="-81.5" font-family="Helvetica,sans-Serif" font-size="10.00">+ launch_params_edit</text>
<text text-anchor="start" x="8" y="-70.5" font-family="Helvetica,sans-Serif" font-size="10.00">+ game</text>
<text text-anchor="start" x="8" y="-59.5" font-family="Helvetica,sans-Serif" font-size="10.00">+ igame</text>
<text text-anchor="start" x="8" y="-48.5" font-family="Helvetica,sans-Serif" font-size="10.00">+ app_name</text>
<polyline fill="none" stroke="black" points="0,-41.5 112,-41.5 "/>
<text text-anchor="start" x="8" y="-29.5" font-family="Helvetica,sans-Serif" font-size="10.00">+ __init__()</text>
<text text-anchor="start" x="8" y="-18.5" font-family="Helvetica,sans-Serif" font-size="10.00">+ showEvent()</text>
<text text-anchor="start" x="8" y="-7.5" font-family="Helvetica,sans-Serif" font-size="10.00">+ load_settings()</text>
</a>
</g>
</g>
<!-- Node1&#45;&gt;Node3 -->
<g id="edge2" class="edge">
<title>Node1&#45;&gt;Node3</title>
<path fill="none" stroke="midnightblue" d="M89.92,-172.83C86.84,-163.85 83.68,-154.65 80.59,-145.64"/>
<polygon fill="none" stroke="midnightblue" points="86.67,-174.14 93.22,-182.46 93.29,-171.87 86.67,-174.14"/>
</g>
<!-- Node4 -->
<g id="node4" class="node">
<title>Node4</title>
<g id="a_node4"><a xlink:href="classrare_1_1components_1_1tabs_1_1settings_1_1settings_1_1_launch_settings.html" target="_top" xlink:title=" ">
<polygon fill="white" stroke="black" points="130.5,-44.5 130.5,-101.5 215.5,-101.5 215.5,-44.5 130.5,-44.5"/>
<text text-anchor="middle" x="173" y="-89.5" font-family="Helvetica,sans-Serif" font-size="10.00">LaunchSettings</text>
<polyline fill="none" stroke="black" points="130.5,-82.5 215.5,-82.5 "/>
<text text-anchor="middle" x="173" y="-70.5" font-family="Helvetica,sans-Serif" font-size="10.00"> </text>
<polyline fill="none" stroke="black" points="130.5,-63.5 215.5,-63.5 "/>
<text text-anchor="start" x="138.5" y="-51.5" font-family="Helvetica,sans-Serif" font-size="10.00">+ __init__()</text>
</a>
</g>
</g>
<!-- Node1&#45;&gt;Node4 -->
<g id="edge3" class="edge">
<title>Node1&#45;&gt;Node4</title>
<path fill="none" stroke="midnightblue" d="M138.46,-172.94C147.23,-147.82 156.61,-120.94 163.38,-101.55"/>
<polygon fill="none" stroke="midnightblue" points="135.13,-171.87 135.13,-182.46 141.73,-174.18 135.13,-171.87"/>
</g>
<!-- Node2 -->
<g id="node2" class="node">
<title>Node2</title>
<g id="a_node2"><a xlink:title=" ">
<polygon fill="white" stroke="#bfbfbf" points="80.5,-342.5 80.5,-399.5 147.5,-399.5 147.5,-342.5 80.5,-342.5"/>
<text text-anchor="middle" x="114" y="-387.5" font-family="Helvetica,sans-Serif" font-size="10.00">QGroupBox</text>
<polyline fill="none" stroke="#bfbfbf" points="80.5,-380.5 147.5,-380.5 "/>
<text text-anchor="middle" x="114" y="-368.5" font-family="Helvetica,sans-Serif" font-size="10.00"> </text>
<polyline fill="none" stroke="#bfbfbf" points="80.5,-361.5 147.5,-361.5 "/>
<text text-anchor="middle" x="114" y="-349.5" font-family="Helvetica,sans-Serif" font-size="10.00"> </text>
</a>
</g>
</g>
<!-- Node2&#45;&gt;Node1 -->
<g id="edge1" class="edge">
<title>Node2&#45;&gt;Node1</title>
<path fill="none" stroke="midnightblue" d="M114,-332.1C114,-323.74 114,-314.68 114,-305.67"/>
<polygon fill="none" stroke="midnightblue" points="110.5,-332.26 114,-342.26 117.5,-332.26 110.5,-332.26"/>
</g>
</g>
</svg>
