<?xml version="1.0" encoding="UTF-8" standalone="no"?>
<!DOCTYPE svg PUBLIC "-//W3C//DTD SVG 1.1//EN"
 "http://www.w3.org/Graphics/SVG/1.1/DTD/svg11.dtd">
<!-- Generated by graphviz version 2.49.3 (20211027.1534)
 -->
<!-- Title: add_button_pressed Pages: 1 -->
<!--zoomable 171 -->
<svg id="main" version="1.1" xmlns="http://www.w3.org/2000/svg" xmlns:xlink="http://www.w3.org/1999/xlink" xml:space="preserve" onload="init(evt)">
<style type="text/css"><![CDATA[
.edge:hover path { stroke: red; }
.edge:hover polygon { stroke: red; fill: red; }
]]></style>
<script type="text/javascript"><![CDATA[
var edges = document.getElementsByTagName('g');
if (edges && edges.length) {
  for (var i=0;i<edges.length;i++) {
    if (edges[i].id.substr(0,4)=='edge') {
      edges[i].setAttribute('class','edge');
    }
  }
}
]]></script>
        <defs>
                <circle id="rim" cx="0" cy="0" r="7"/>
                <circle id="rim2" cx="0" cy="0" r="3.5"/>
                <g id="zoomPlus">
                        <use xlink:href="#rim" fill="#404040">
                                <set attributeName="fill" to="#808080" begin="zoomplus.mouseover" end="zoomplus.mouseout"/>
                        </use>
                        <path d="M-4,0h8M0,-4v8" fill="none" stroke="white" stroke-width="1.5" pointer-events="none"/>
                </g>
                <g id="zoomMin">
                        <use xlink:href="#rim" fill="#404040">
                                <set attributeName="fill" to="#808080" begin="zoomminus.mouseover" end="zoomminus.mouseout"/>
                        </use>
                        <path d="M-4,0h8" fill="none" stroke="white" stroke-width="1.5" pointer-events="none"/>
                </g>
                <g id="dirArrow">
                        <path fill="none" stroke="white" stroke-width="1.5" d="M0,-3.0v7 M-2.5,-0.5L0,-3.0L2.5,-0.5"/>
                </g>
               <g id="resetDef">
                       <use xlink:href="#rim2" fill="#404040">
                               <set attributeName="fill" to="#808080" begin="reset.mouseover" end="reset.mouseout"/>
                       </use>
               </g>
        </defs>

<script type="text/javascript">
var viewWidth = 944;
var viewHeight = 171;
var sectionId = 'dynsection-4';
</script>
<script xlink:href="svgpan.js"/>
<svg id="graph" class="graph">
<g id="viewport">
<title>add_button_pressed</title>
<polygon fill="white" stroke="transparent" points="-4,4 -4,-167 940,-167 940,4 -4,4"/>
<!-- Node1 -->
<g id="node1" class="node">
<title>Node1</title>
<g id="a_node1"><a xlink:title=" ">
<polygon fill="#bfbfbf" stroke="black" points="0,-56 0,-75 104,-75 104,-56 0,-56"/>
<text text-anchor="middle" x="52" y="-63" font-family="Helvetica,sans-Serif" font-size="10.00">add_button_pressed</text>
</a>
</g>
</g>
<!-- Node1&#45;&gt;Node1 -->
<g id="edge1" class="edge">
<title>Node1&#45;&gt;Node1</title>
<path fill="none" stroke="midnightblue" d="M32.89,-75.26C23.59,-84.07 29.96,-93.5 52,-93.5 66.12,-93.5 73.81,-89.63 75.07,-84.53"/>
<polygon fill="midnightblue" stroke="midnightblue" points="78.25,-83.08 71.11,-75.26 71.81,-85.83 78.25,-83.08"/>
</g>
<!-- Node2 -->
<g id="node2" class="node">
<title>Node2</title>
<g id="a_node2"><a xlink:href="classrare_1_1components_1_1tabs_1_1settings_1_1widgets_1_1wrapper_1_1_wrapper_settings.html#a2d0f8d65d8eea0e38d4f4f688b95ac83" target="_top" xlink:title=" ">
<polygon fill="white" stroke="black" points="140,-56 140,-75 212,-75 212,-56 140,-56"/>
<text text-anchor="middle" x="176" y="-63" font-family="Helvetica,sans-Serif" font-size="10.00">add_wrapper</text>
</a>
</g>
</g>
<!-- Node1&#45;&gt;Node2 -->
<g id="edge2" class="edge">
<title>Node1&#45;&gt;Node2</title>
<path fill="none" stroke="midnightblue" d="M104.03,-65.5C112.48,-65.5 121.19,-65.5 129.49,-65.5"/>
<polygon fill="midnightblue" stroke="midnightblue" points="129.73,-69 139.73,-65.5 129.73,-62 129.73,-69"/>
</g>
<!-- Node2&#45;&gt;Node2 -->
<g id="edge3" class="edge">
<title>Node2&#45;&gt;Node2</title>
<path fill="none" stroke="midnightblue" d="M158.12,-75.26C149.42,-84.07 155.38,-93.5 176,-93.5 188.89,-93.5 196.05,-89.81 197.48,-84.9"/>
<polygon fill="midnightblue" stroke="midnightblue" points="200.66,-83.4 193.88,-75.26 194.1,-85.85 200.66,-83.4"/>
</g>
<!-- Node3 -->
<g id="node3" class="node">
<title>Node3</title>
<g id="a_node3"><a xlink:href="classrare_1_1components_1_1tabs_1_1settings_1_1widgets_1_1wrapper_1_1_wrapper_settings.html#ab03ce50c7793dbc7bd5d9a26ec204db1" target="_top" xlink:title=" ">
<polygon fill="white" stroke="black" points="248,-122 248,-141 338,-141 338,-122 248,-122"/>
<text text-anchor="middle" x="293" y="-129" font-family="Helvetica,sans-Serif" font-size="10.00">adjust_scrollarea</text>
</a>
</g>
</g>
<!-- Node2&#45;&gt;Node3 -->
<g id="edge4" class="edge">
<title>Node2&#45;&gt;Node3</title>
<path fill="none" stroke="midnightblue" d="M192.98,-75.17C207.31,-83.79 228.95,-96.67 248,-107.5 253.43,-110.58 259.27,-113.83 264.87,-116.89"/>
<polygon fill="midnightblue" stroke="midnightblue" points="263.48,-120.12 273.94,-121.83 266.83,-113.98 263.48,-120.12"/>
</g>
<!-- Node4 -->
<g id="node4" class="node">
<title>Node4</title>
<g id="a_node4"><a xlink:href="classrare_1_1components_1_1tabs_1_1settings_1_1widgets_1_1wrapper_1_1_wrapper_settings.html#ad9cf11ee037042a34e4226af64798193" target="_top" xlink:title=" ">
<polygon fill="white" stroke="black" points="251.5,-28 251.5,-47 334.5,-47 334.5,-28 251.5,-28"/>
<text text-anchor="middle" x="293" y="-35" font-family="Helvetica,sans-Serif" font-size="10.00">delete_wrapper</text>
</a>
</g>
</g>
<!-- Node2&#45;&gt;Node4 -->
<g id="edge6" class="edge">
<title>Node2&#45;&gt;Node4</title>
<path fill="none" stroke="midnightblue" d="M212.13,-56.95C221.84,-54.58 232.56,-51.97 242.91,-49.45"/>
<polygon fill="midnightblue" stroke="midnightblue" points="243.78,-52.84 252.67,-47.08 242.13,-46.04 243.78,-52.84"/>
</g>
<!-- Node5 -->
<g id="node5" class="node">
<title>Node5</title>
<g id="a_node5"><a xlink:href="classrare_1_1components_1_1tabs_1_1settings_1_1widgets_1_1wrapper_1_1_wrapper_settings.html#a564562f082521e37c7029e239abb56c6" target="_top" xlink:title=" ">
<polygon fill="white" stroke="black" points="436.5,-76 436.5,-95 474.5,-95 474.5,-76 436.5,-76"/>
<text text-anchor="middle" x="455.5" y="-83" font-family="Helvetica,sans-Serif" font-size="10.00">save</text>
</a>
</g>
</g>
<!-- Node2&#45;&gt;Node5 -->
<g id="edge19" class="edge">
<title>Node2&#45;&gt;Node5</title>
<path fill="none" stroke="midnightblue" d="M212.34,-70.49C223.7,-71.96 236.37,-73.45 248,-74.5 311.54,-80.21 386.37,-83.29 426.2,-84.65"/>
<polygon fill="midnightblue" stroke="midnightblue" points="426.13,-88.14 436.24,-84.97 426.36,-81.15 426.13,-88.14"/>
</g>
<!-- Node9 -->
<g id="node9" class="node">
<title>Node9</title>
<g id="a_node9"><a xlink:href="classrare_1_1game__launch__helper_1_1console_1_1_console.html#a564562f082521e37c7029e239abb56c6" target="_top" xlink:title=" ">
<polygon fill="white" stroke="black" points="374,-0.5 374,-30.5 537,-30.5 537,-0.5 374,-0.5"/>
<text text-anchor="start" x="382" y="-18.5" font-family="Helvetica,sans-Serif" font-size="10.00">rare.game_launch_helper.console.</text>
<text text-anchor="middle" x="455.5" y="-7.5" font-family="Helvetica,sans-Serif" font-size="10.00">Console.save</text>
</a>
</g>
</g>
<!-- Node2&#45;&gt;Node9 -->
<g id="edge20" class="edge">
<title>Node2&#45;&gt;Node9</title>
<path fill="none" stroke="midnightblue" d="M187.53,-55.66C200.56,-44.21 223.99,-25.92 248,-18.5 284.79,-7.13 327.06,-4.78 363.73,-5.87"/>
<polygon fill="midnightblue" stroke="midnightblue" points="363.79,-9.37 373.92,-6.26 364.06,-2.38 363.79,-9.37"/>
</g>
<!-- Node3&#45;&gt;Node3 -->
<g id="edge5" class="edge">
<title>Node3&#45;&gt;Node3</title>
<path fill="none" stroke="midnightblue" d="M275.12,-141.26C266.42,-150.07 272.38,-159.5 293,-159.5 305.89,-159.5 313.05,-155.81 314.48,-150.9"/>
<polygon fill="midnightblue" stroke="midnightblue" points="317.66,-149.4 310.88,-141.26 311.1,-151.85 317.66,-149.4"/>
</g>
<!-- Node4&#45;&gt;Node4 -->
<g id="edge7" class="edge">
<title>Node4&#45;&gt;Node4</title>
<path fill="none" stroke="midnightblue" d="M275.12,-47.26C266.42,-56.07 272.38,-65.5 293,-65.5 305.89,-65.5 313.05,-61.81 314.48,-56.9"/>
<polygon fill="midnightblue" stroke="midnightblue" points="317.66,-55.4 310.88,-47.26 311.1,-57.85 317.66,-55.4"/>
</g>
<!-- Node4&#45;&gt;Node5 -->
<g id="edge8" class="edge">
<title>Node4&#45;&gt;Node5</title>
<path fill="none" stroke="midnightblue" d="M326.09,-47.1C355.46,-55.88 398.47,-68.74 426.48,-77.12"/>
<polygon fill="midnightblue" stroke="midnightblue" points="425.84,-80.58 436.42,-80.09 427.84,-73.87 425.84,-80.58"/>
</g>
<!-- Node4&#45;&gt;Node9 -->
<g id="edge17" class="edge">
<title>Node4&#45;&gt;Node9</title>
<path fill="none" stroke="midnightblue" d="M334.5,-31.95C343.65,-30.69 353.72,-29.31 364.02,-27.9"/>
<polygon fill="midnightblue" stroke="midnightblue" points="364.51,-31.37 373.94,-26.54 363.56,-24.43 364.51,-31.37"/>
</g>
<!-- Node5&#45;&gt;Node5 -->
<g id="edge16" class="edge">
<title>Node5&#45;&gt;Node5</title>
<path fill="none" stroke="midnightblue" d="M436.4,-91.83C416.54,-101.41 422.91,-113.5 455.5,-113.5 481.98,-113.5 491.15,-105.52 483,-97.39"/>
<polygon fill="midnightblue" stroke="midnightblue" points="484.87,-94.43 474.6,-91.83 481.01,-100.26 484.87,-94.43"/>
</g>
<!-- Node6 -->
<g id="node6" class="node">
<title>Node6</title>
<g id="a_node6"><a xlink:href="classrare_1_1components_1_1tabs_1_1games_1_1import__sync_1_1egl__sync__group_1_1_e_g_l_sync_list_item.html#a9c470cc60eae203f55455d0e0d7f5712" target="_top" xlink:title=" ">
<polygon fill="white" stroke="black" points="573,-114.5 573,-144.5 812,-144.5 812,-114.5 573,-114.5"/>
<text text-anchor="start" x="581" y="-132.5" font-family="Helvetica,sans-Serif" font-size="10.00">rare.components.tabs.games.import</text>
<text text-anchor="middle" x="692.5" y="-121.5" font-family="Helvetica,sans-Serif" font-size="10.00">_sync.egl_sync_group.EGLSyncListItem.app_name</text>
</a>
</g>
</g>
<!-- Node5&#45;&gt;Node6 -->
<g id="edge9" class="edge">
<title>Node5&#45;&gt;Node6</title>
<path fill="none" stroke="midnightblue" d="M474.55,-88.88C501.64,-93.95 554.64,-103.88 601.47,-112.64"/>
<polygon fill="midnightblue" stroke="midnightblue" points="600.89,-116.1 611.36,-114.5 602.18,-109.21 600.89,-116.1"/>
</g>
<!-- Node7 -->
<g id="node7" class="node">
<title>Node7</title>
<g id="a_node7"><a xlink:href="classrare_1_1components_1_1tabs_1_1settings_1_1widgets_1_1wrapper_1_1_wrapper_settings.html#af704077af9c417ed9938e7b3f271faa5" target="_top" xlink:title=" ">
<polygon fill="white" stroke="black" points="848,-48 848,-67 936,-67 936,-48 848,-48"/>
<text text-anchor="middle" x="892" y="-55" font-family="Helvetica,sans-Serif" font-size="10.00">get_wrapper_list</text>
</a>
</g>
</g>
<!-- Node5&#45;&gt;Node7 -->
<g id="edge11" class="edge">
<title>Node5&#45;&gt;Node7</title>
<path fill="none" stroke="midnightblue" d="M474.65,-84.91C527.04,-83.14 682.96,-77.29 812,-66.5 820.4,-65.8 829.3,-64.92 837.96,-63.99"/>
<polygon fill="midnightblue" stroke="midnightblue" points="838.44,-67.45 848,-62.87 837.67,-60.5 838.44,-67.45"/>
</g>
<!-- Node8 -->
<g id="node8" class="node">
<title>Node8</title>
<g id="a_node8"><a xlink:href="classrare_1_1components_1_1tabs_1_1settings_1_1widgets_1_1wrapper_1_1_wrapper_settings.html#ab720efcdbf6d746c9008125db4703236" target="_top" xlink:title=" ">
<polygon fill="white" stroke="black" points="643,-20 643,-39 742,-39 742,-20 643,-20"/>
<text text-anchor="middle" x="692.5" y="-27" font-family="Helvetica,sans-Serif" font-size="10.00">get_wrapper_string</text>
</a>
</g>
</g>
<!-- Node5&#45;&gt;Node8 -->
<g id="edge13" class="edge">
<title>Node5&#45;&gt;Node8</title>
<path fill="none" stroke="midnightblue" d="M474.55,-81.2C509.89,-72.78 589.31,-53.85 641.63,-41.38"/>
<polygon fill="midnightblue" stroke="midnightblue" points="642.47,-44.78 651.38,-39.06 640.84,-37.97 642.47,-44.78"/>
</g>
<!-- Node6&#45;&gt;Node6 -->
<g id="edge10" class="edge">
<title>Node6&#45;&gt;Node6</title>
<path fill="none" stroke="midnightblue" d="M657.99,-144.66C649.67,-154.06 661.18,-163 692.5,-163 711.59,-163 723.32,-159.68 727.68,-154.96"/>
<polygon fill="midnightblue" stroke="midnightblue" points="731.15,-154.41 727.01,-144.66 724.17,-154.87 731.15,-154.41"/>
</g>
<!-- Node7&#45;&gt;Node7 -->
<g id="edge12" class="edge">
<title>Node7&#45;&gt;Node7</title>
<path fill="none" stroke="midnightblue" d="M861.48,-67.26C846.64,-76.07 856.81,-85.5 892,-85.5 916.74,-85.5 929.12,-80.84 929.12,-75"/>
<polygon fill="midnightblue" stroke="midnightblue" points="931.67,-72.59 922.52,-67.26 926.34,-77.14 931.67,-72.59"/>
</g>
<!-- Node8&#45;&gt;Node7 -->
<g id="edge14" class="edge">
<title>Node8&#45;&gt;Node7</title>
<path fill="none" stroke="midnightblue" d="M742.07,-36.39C771.08,-40.5 807.97,-45.73 837.78,-49.95"/>
<polygon fill="midnightblue" stroke="midnightblue" points="837.61,-53.47 848,-51.4 838.59,-46.53 837.61,-53.47"/>
</g>
<!-- Node8&#45;&gt;Node8 -->
<g id="edge15" class="edge">
<title>Node8&#45;&gt;Node8</title>
<path fill="none" stroke="midnightblue" d="M661.98,-39.26C647.14,-48.07 657.31,-57.5 692.5,-57.5 717.24,-57.5 729.62,-52.84 729.62,-47"/>
<polygon fill="midnightblue" stroke="midnightblue" points="732.17,-44.59 723.02,-39.26 726.84,-49.14 732.17,-44.59"/>
</g>
<!-- Node9&#45;&gt;Node9 -->
<g id="edge18" class="edge">
<title>Node9&#45;&gt;Node9</title>
<path fill="none" stroke="midnightblue" d="M427.27,-30.66C420.46,-40.06 429.87,-49 455.5,-49 471.12,-49 480.71,-45.68 484.29,-40.96"/>
<polygon fill="midnightblue" stroke="midnightblue" points="487.76,-40.46 483.73,-30.66 480.77,-40.83 487.76,-40.46"/>
</g>
</g>
</svg>
        <g id="navigator" transform="translate(0 0)" fill="#404254">
                <rect fill="#f2f5e9" fill-opacity="0.5" stroke="#606060" stroke-width=".5" x="0" y="0" width="60" height="60"/>
                <use id="zoomplus" xlink:href="#zoomPlus" x="17" y="9" onmousedown="handleZoom(evt,'in')"/>
                <use id="zoomminus" xlink:href="#zoomMin" x="42" y="9" onmousedown="handleZoom(evt,'out')"/>
                <use id="reset" xlink:href="#resetDef" x="30" y="36" onmousedown="handleReset()"/>
                <g id="arrowUp" xlink:href="#dirArrow" transform="translate(30 24)" onmousedown="handlePan(0,-1)">
                  <use xlink:href="#rim" fill="#404040">
                        <set attributeName="fill" to="#808080" begin="arrowUp.mouseover" end="arrowUp.mouseout"/>
                  </use>
                  <path fill="none" stroke="white" stroke-width="1.5" d="M0,-3.0v7 M-2.5,-0.5L0,-3.0L2.5,-0.5"/>
                </g>
                <g id="arrowRight" xlink:href="#dirArrow" transform="rotate(90) translate(36 -43)" onmousedown="handlePan(1,0)">
                  <use xlink:href="#rim" fill="#404040">
                        <set attributeName="fill" to="#808080" begin="arrowRight.mouseover" end="arrowRight.mouseout"/>
                  </use>
                  <path fill="none" stroke="white" stroke-width="1.5" d="M0,-3.0v7 M-2.5,-0.5L0,-3.0L2.5,-0.5"/>
                </g>
                <g id="arrowDown" xlink:href="#dirArrow" transform="rotate(180) translate(-30 -48)" onmousedown="handlePan(0,1)">
                  <use xlink:href="#rim" fill="#404040">
                        <set attributeName="fill" to="#808080" begin="arrowDown.mouseover" end="arrowDown.mouseout"/>
                  </use>
                  <path fill="none" stroke="white" stroke-width="1.5" d="M0,-3.0v7 M-2.5,-0.5L0,-3.0L2.5,-0.5"/>
                </g>
                <g id="arrowLeft" xlink:href="#dirArrow" transform="rotate(270) translate(-36 17)" onmousedown="handlePan(-1,0)">
                  <use xlink:href="#rim" fill="#404040">
                        <set attributeName="fill" to="#808080" begin="arrowLeft.mouseover" end="arrowLeft.mouseout"/>
                  </use>
                  <path fill="none" stroke="white" stroke-width="1.5" d="M0,-3.0v7 M-2.5,-0.5L0,-3.0L2.5,-0.5"/>
                </g>
        </g>
        <svg viewBox="0 0 15 15" width="100%" height="30px" preserveAspectRatio="xMaxYMin meet">
         <g id="arrow_out" transform="scale(0.3 0.3)">
          <a xlink:href="classrare_1_1components_1_1tabs_1_1settings_1_1widgets_1_1wrapper_1_1_wrapper_settings_a20a157d42aada3e8763402bf91304b88_cgraph_org.svg" target="_base">
           <rect id="button" ry="5" rx="5" y="6" x="6" height="38" width="38"
                fill="#f2f5e9" fill-opacity="0.5" stroke="#606060" stroke-width="1.0"/>
           <path id="arrow"
             d="M 11.500037,31.436501 C 11.940474,20.09759 22.043105,11.32322 32.158766,21.979434 L 37.068811,17.246167 C 37.068811,17.246167 37.088388,32 37.088388,32 L 22.160133,31.978069 C 22.160133,31.978069 26.997745,27.140456 26.997745,27.140456 C 18.528582,18.264221 13.291696,25.230495 11.500037,31.436501 z"
             style="fill:#404040;"/>
          </a>
         </g>
        </svg>
</svg>
