<?xml version="1.0" encoding="UTF-8" standalone="no"?>
<!DOCTYPE svg PUBLIC "-//W3C//DTD SVG 1.1//EN"
 "http://www.w3.org/Graphics/SVG/1.1/DTD/svg11.dtd">
<!-- Generated by graphviz version 2.49.3 (20211027.1534)
 -->
<!-- Title: install Pages: 1 -->
<!--zoomable 146 -->
<svg id="main" version="1.1" xmlns="http://www.w3.org/2000/svg" xmlns:xlink="http://www.w3.org/1999/xlink" xml:space="preserve" onload="init(evt)">
<style type="text/css"><![CDATA[
.edge:hover path { stroke: red; }
.edge:hover polygon { stroke: red; fill: red; }
]]></style>
<script type="text/javascript"><![CDATA[
var edges = document.getElementsByTagName('g');
if (edges && edges.length) {
  for (var i=0;i<edges.length;i++) {
    if (edges[i].id.substr(0,4)=='edge') {
      edges[i].setAttribute('class','edge');
    }
  }
}
]]></script>
        <defs>
                <circle id="rim" cx="0" cy="0" r="7"/>
                <circle id="rim2" cx="0" cy="0" r="3.5"/>
                <g id="zoomPlus">
                        <use xlink:href="#rim" fill="#404040">
                                <set attributeName="fill" to="#808080" begin="zoomplus.mouseover" end="zoomplus.mouseout"/>
                        </use>
                        <path d="M-4,0h8M0,-4v8" fill="none" stroke="white" stroke-width="1.5" pointer-events="none"/>
                </g>
                <g id="zoomMin">
                        <use xlink:href="#rim" fill="#404040">
                                <set attributeName="fill" to="#808080" begin="zoomminus.mouseover" end="zoomminus.mouseout"/>
                        </use>
                        <path d="M-4,0h8" fill="none" stroke="white" stroke-width="1.5" pointer-events="none"/>
                </g>
                <g id="dirArrow">
                        <path fill="none" stroke="white" stroke-width="1.5" d="M0,-3.0v7 M-2.5,-0.5L0,-3.0L2.5,-0.5"/>
                </g>
               <g id="resetDef">
                       <use xlink:href="#rim2" fill="#404040">
                               <set attributeName="fill" to="#808080" begin="reset.mouseover" end="reset.mouseout"/>
                       </use>
               </g>
        </defs>

<script type="text/javascript">
var viewWidth = 930;
var viewHeight = 146;
var sectionId = 'dynsection-7';
</script>
<script xlink:href="svgpan.js"/>
<svg id="graph" class="graph">
<g id="viewport">
<title>install</title>
<polygon fill="white" stroke="transparent" points="-4,4 -4,-142 925.68,-142 925.68,4 -4,4"/>
<!-- Node1 -->
<g id="node1" class="node">
<title>Node1</title>
<g id="a_node1"><a xlink:title=" ">
<polygon fill="#bfbfbf" stroke="black" points="870,-56 870,-75 912,-75 912,-56 870,-56"/>
<text text-anchor="middle" x="891" y="-63" font-family="Helvetica,sans-Serif" font-size="10.00">install</text>
</a>
</g>
</g>
<!-- Node1&#45;&gt;Node1 -->
<g id="edge1" class="edge">
<title>Node1&#45;&gt;Node1</title>
<path fill="none" stroke="midnightblue" d="M919.98,-79.12C925.25,-86.62 915.6,-93.5 891,-93.5 859.52,-93.5 852.51,-82.22 869.97,-72.81"/>
<polygon fill="midnightblue" stroke="midnightblue" points="922.04,-76.29 912.03,-72.81 917.69,-81.77 922.04,-76.29"/>
</g>
<!-- Node2 -->
<g id="node2" class="node">
<title>Node2</title>
<g id="a_node2"><a xlink:href="classrare_1_1components_1_1tabs_1_1games_1_1game__info_1_1game__dlc_1_1_game_dlc_widget.html#abb32e37b8ffc3927ad711556854f45cb" target="_top" xlink:title=" ">
<polygon fill="white" stroke="black" points="622,-89.5 622,-119.5 834,-119.5 834,-89.5 622,-89.5"/>
<text text-anchor="start" x="630" y="-107.5" font-family="Helvetica,sans-Serif" font-size="10.00">rare.components.tabs.games.game</text>
<text text-anchor="middle" x="728" y="-96.5" font-family="Helvetica,sans-Serif" font-size="10.00">_info.game_dlc.GameDlcWidget.install_game</text>
</a>
</g>
</g>
<!-- Node1&#45;&gt;Node2 -->
<g id="edge2" class="edge">
<title>Node1&#45;&gt;Node2</title>
<path fill="none" stroke="midnightblue" d="M860.04,-73.74C851.63,-76 842.47,-78.4 834,-80.5 821.93,-83.49 809.05,-86.55 796.59,-89.44"/>
<polygon fill="midnightblue" stroke="midnightblue" points="861.09,-77.09 869.83,-71.1 859.26,-70.33 861.09,-77.09"/>
</g>
<!-- Node6 -->
<g id="node6" class="node">
<title>Node6</title>
<g id="a_node6"><a xlink:href="classrare_1_1components_1_1tabs_1_1games_1_1game__widgets_1_1uninstalled__icon__widget_1_1_uninstalled_icon_widget.html#a8a44b830de6069546248966ba9cf3c15" target="_top" xlink:title=" ">
<polygon fill="white" stroke="black" points="637,-0.5 637,-52.5 819,-52.5 819,-0.5 637,-0.5"/>
<text text-anchor="start" x="645" y="-40.5" font-family="Helvetica,sans-Serif" font-size="10.00">rare.components.tabs.games.game</text>
<text text-anchor="start" x="645" y="-29.5" font-family="Helvetica,sans-Serif" font-size="10.00">_widgets.uninstalled_icon</text>
<text text-anchor="start" x="645" y="-18.5" font-family="Helvetica,sans-Serif" font-size="10.00">_widget.UninstalledIconWidget.mouse</text>
<text text-anchor="middle" x="728" y="-7.5" font-family="Helvetica,sans-Serif" font-size="10.00">PressEvent</text>
</a>
</g>
</g>
<!-- Node1&#45;&gt;Node6 -->
<g id="edge10" class="edge">
<title>Node1&#45;&gt;Node6</title>
<path fill="none" stroke="midnightblue" d="M860.2,-58.28C848.34,-55.41 834,-51.93 819.22,-48.35"/>
<polygon fill="midnightblue" stroke="midnightblue" points="859.39,-61.69 869.93,-60.64 861.04,-54.88 859.39,-61.69"/>
</g>
<!-- Node2&#45;&gt;Node2 -->
<g id="edge3" class="edge">
<title>Node2&#45;&gt;Node2</title>
<path fill="none" stroke="midnightblue" d="M756.79,-129.96C753.21,-134.68 743.62,-138 728,-138 702.37,-138 692.96,-129.06 699.77,-119.66"/>
<polygon fill="midnightblue" stroke="midnightblue" points="760.26,-129.46 756.23,-119.66 753.27,-129.83 760.26,-129.46"/>
</g>
<!-- Node3 -->
<g id="node3" class="node">
<title>Node3</title>
<g id="a_node3"><a xlink:href="classrare_1_1components_1_1tabs_1_1downloads_1_1_downloads_tab.html#ae7c3da1b257767f97a06a0f0f679036e" target="_top" xlink:title=" ">
<polygon fill="white" stroke="black" points="397,-89.5 397,-119.5 586,-119.5 586,-89.5 397,-89.5"/>
<text text-anchor="start" x="405" y="-107.5" font-family="Helvetica,sans-Serif" font-size="10.00">rare.components.tabs.downloads.</text>
<text text-anchor="middle" x="491.5" y="-96.5" font-family="Helvetica,sans-Serif" font-size="10.00">DownloadsTab.on_install_dialog_closed</text>
</a>
</g>
</g>
<!-- Node2&#45;&gt;Node3 -->
<g id="edge4" class="edge">
<title>Node2&#45;&gt;Node3</title>
<path fill="none" stroke="midnightblue" d="M611.48,-104.5C603.05,-104.5 594.6,-104.5 586.32,-104.5"/>
<polygon fill="midnightblue" stroke="midnightblue" points="611.75,-108 621.75,-104.5 611.75,-101 611.75,-108"/>
</g>
<!-- Node3&#45;&gt;Node3 -->
<g id="edge9" class="edge">
<title>Node3&#45;&gt;Node3</title>
<path fill="none" stroke="midnightblue" d="M529.17,-129.96C524.49,-134.68 511.94,-138 491.5,-138 457.96,-138 445.65,-129.06 454.55,-119.66"/>
<polygon fill="midnightblue" stroke="midnightblue" points="532.64,-129.39 528.45,-119.66 525.66,-129.88 532.64,-129.39"/>
</g>
<!-- Node4 -->
<g id="node4" class="node">
<title>Node4</title>
<g id="a_node4"><a xlink:href="classrare_1_1components_1_1tabs_1_1downloads_1_1_downloads_tab.html#a34dfac3ae00e55c098b07fd107a14daa" target="_top" xlink:title=" ">
<polygon fill="white" stroke="black" points="197,-89.5 197,-119.5 361,-119.5 361,-89.5 197,-89.5"/>
<text text-anchor="start" x="205" y="-107.5" font-family="Helvetica,sans-Serif" font-size="10.00">rare.components.tabs.downloads.</text>
<text text-anchor="middle" x="279" y="-96.5" font-family="Helvetica,sans-Serif" font-size="10.00">DownloadsTab.get_install_options</text>
</a>
</g>
</g>
<!-- Node3&#45;&gt;Node4 -->
<g id="edge5" class="edge">
<title>Node3&#45;&gt;Node4</title>
<path fill="none" stroke="midnightblue" d="M386.81,-104.5C378.16,-104.5 369.5,-104.5 361.06,-104.5"/>
<polygon fill="midnightblue" stroke="midnightblue" points="386.95,-108 396.95,-104.5 386.95,-101 386.95,-108"/>
</g>
<!-- Node4&#45;&gt;Node4 -->
<g id="edge8" class="edge">
<title>Node4&#45;&gt;Node4</title>
<path fill="none" stroke="midnightblue" d="M314.18,-129.96C309.82,-134.68 298.09,-138 279,-138 247.68,-138 236.17,-129.06 244.49,-119.66"/>
<polygon fill="midnightblue" stroke="midnightblue" points="317.65,-129.41 313.51,-119.66 310.67,-129.87 317.65,-129.41"/>
</g>
<!-- Node5 -->
<g id="node5" class="node">
<title>Node5</title>
<g id="a_node5"><a xlink:href="classrare_1_1components_1_1tabs_1_1downloads_1_1_downloads_tab.html#a5b1b8c18cd3c7bb3fac72567db6d4f1e" target="_top" xlink:title=" ">
<polygon fill="white" stroke="black" points="0,-89.5 0,-119.5 161,-119.5 161,-89.5 0,-89.5"/>
<text text-anchor="start" x="8" y="-107.5" font-family="Helvetica,sans-Serif" font-size="10.00">rare.components.tabs.downloads.</text>
<text text-anchor="middle" x="80.5" y="-96.5" font-family="Helvetica,sans-Serif" font-size="10.00">DownloadsTab.add_update</text>
</a>
</g>
</g>
<!-- Node4&#45;&gt;Node5 -->
<g id="edge6" class="edge">
<title>Node4&#45;&gt;Node5</title>
<path fill="none" stroke="midnightblue" d="M186.89,-104.5C178.28,-104.5 169.59,-104.5 161.11,-104.5"/>
<polygon fill="midnightblue" stroke="midnightblue" points="186.94,-108 196.94,-104.5 186.94,-101 186.94,-108"/>
</g>
<!-- Node5&#45;&gt;Node5 -->
<g id="edge7" class="edge">
<title>Node5&#45;&gt;Node5</title>
<path fill="none" stroke="midnightblue" d="M115.68,-129.96C111.32,-134.68 99.59,-138 80.5,-138 49.18,-138 37.67,-129.06 45.99,-119.66"/>
<polygon fill="midnightblue" stroke="midnightblue" points="119.15,-129.41 115.01,-119.66 112.17,-129.87 119.15,-129.41"/>
</g>
<!-- Node6&#45;&gt;Node6 -->
<g id="edge11" class="edge">
<title>Node6&#45;&gt;Node6</title>
<path fill="none" stroke="midnightblue" d="M755.28,-62.45C750.88,-67.56 741.78,-71 728,-71 706.48,-71 696.4,-62.63 697.74,-52.55"/>
<polygon fill="midnightblue" stroke="midnightblue" points="758.72,-63.14 758.26,-52.55 752.02,-61.12 758.72,-63.14"/>
</g>
</g>
</svg>
        <g id="navigator" transform="translate(0 0)" fill="#404254">
                <rect fill="#f2f5e9" fill-opacity="0.5" stroke="#606060" stroke-width=".5" x="0" y="0" width="60" height="60"/>
                <use id="zoomplus" xlink:href="#zoomPlus" x="17" y="9" onmousedown="handleZoom(evt,'in')"/>
                <use id="zoomminus" xlink:href="#zoomMin" x="42" y="9" onmousedown="handleZoom(evt,'out')"/>
                <use id="reset" xlink:href="#resetDef" x="30" y="36" onmousedown="handleReset()"/>
                <g id="arrowUp" xlink:href="#dirArrow" transform="translate(30 24)" onmousedown="handlePan(0,-1)">
                  <use xlink:href="#rim" fill="#404040">
                        <set attributeName="fill" to="#808080" begin="arrowUp.mouseover" end="arrowUp.mouseout"/>
                  </use>
                  <path fill="none" stroke="white" stroke-width="1.5" d="M0,-3.0v7 M-2.5,-0.5L0,-3.0L2.5,-0.5"/>
                </g>
                <g id="arrowRight" xlink:href="#dirArrow" transform="rotate(90) translate(36 -43)" onmousedown="handlePan(1,0)">
                  <use xlink:href="#rim" fill="#404040">
                        <set attributeName="fill" to="#808080" begin="arrowRight.mouseover" end="arrowRight.mouseout"/>
                  </use>
                  <path fill="none" stroke="white" stroke-width="1.5" d="M0,-3.0v7 M-2.5,-0.5L0,-3.0L2.5,-0.5"/>
                </g>
                <g id="arrowDown" xlink:href="#dirArrow" transform="rotate(180) translate(-30 -48)" onmousedown="handlePan(0,1)">
                  <use xlink:href="#rim" fill="#404040">
                        <set attributeName="fill" to="#808080" begin="arrowDown.mouseover" end="arrowDown.mouseout"/>
                  </use>
                  <path fill="none" stroke="white" stroke-width="1.5" d="M0,-3.0v7 M-2.5,-0.5L0,-3.0L2.5,-0.5"/>
                </g>
                <g id="arrowLeft" xlink:href="#dirArrow" transform="rotate(270) translate(-36 17)" onmousedown="handlePan(-1,0)">
                  <use xlink:href="#rim" fill="#404040">
                        <set attributeName="fill" to="#808080" begin="arrowLeft.mouseover" end="arrowLeft.mouseout"/>
                  </use>
                  <path fill="none" stroke="white" stroke-width="1.5" d="M0,-3.0v7 M-2.5,-0.5L0,-3.0L2.5,-0.5"/>
                </g>
        </g>
        <svg viewBox="0 0 15 15" width="100%" height="30px" preserveAspectRatio="xMaxYMin meet">
         <g id="arrow_out" transform="scale(0.3 0.3)">
          <a xlink:href="classrare_1_1components_1_1tabs_1_1games_1_1game__widgets_1_1base__uninstalled__widget_1_1_base_uninstalled_widget_a0ac02141fcf00adc3945e2ccb01fb2c1_icgraph_org.svg" target="_base">
           <rect id="button" ry="5" rx="5" y="6" x="6" height="38" width="38"
                fill="#f2f5e9" fill-opacity="0.5" stroke="#606060" stroke-width="1.0"/>
           <path id="arrow"
             d="M 11.500037,31.436501 C 11.940474,20.09759 22.043105,11.32322 32.158766,21.979434 L 37.068811,17.246167 C 37.068811,17.246167 37.088388,32 37.088388,32 L 22.160133,31.978069 C 22.160133,31.978069 26.997745,27.140456 26.997745,27.140456 C 18.528582,18.264221 13.291696,25.230495 11.500037,31.436501 z"
             style="fill:#404040;"/>
          </a>
         </g>
        </svg>
</svg>
