<?xml version="1.0" encoding="UTF-8" standalone="no"?>
<!DOCTYPE svg PUBLIC "-//W3C//DTD SVG 1.1//EN"
 "http://www.w3.org/Graphics/SVG/1.1/DTD/svg11.dtd">
<!-- Generated by graphviz version 2.49.3 (20211027.1534)
 -->
<!-- Title: run_real Pages: 1 -->
<svg width="409pt" height="364pt"
 viewBox="0.00 0.00 409.00 363.50" xmlns="http://www.w3.org/2000/svg" xmlns:xlink="http://www.w3.org/1999/xlink">
<g id="graph0" class="graph" transform="scale(1 1) rotate(0) translate(4 359.5)">
<title>run_real</title>
<polygon fill="white" stroke="transparent" points="-4,4 -4,-359.5 405,-359.5 405,4 -4,4"/>
<!-- Node1 -->
<g id="node1" class="node">
<title>Node1</title>
<g id="a_node1"><a xlink:title=" ">
<polygon fill="#bfbfbf" stroke="black" points="0,-173 0,-192 51,-192 51,-173 0,-173"/>
<text text-anchor="middle" x="25.5" y="-180" font-family="Helvetica,sans-Serif" font-size="10.00">run_real</text>
</a>
</g>
</g>
<!-- Node1&#45;&gt;Node1 -->
<g id="edge8" class="edge">
<title>Node1&#45;&gt;Node1</title>
<path fill="none" stroke="midnightblue" d="M5.15,-192.26C-4.74,-201.07 2.04,-210.5 25.5,-210.5 40.53,-210.5 48.71,-206.63 50.05,-201.53"/>
<polygon fill="midnightblue" stroke="midnightblue" points="53.17,-199.92 45.85,-192.26 46.79,-202.81 53.17,-199.92"/>
</g>
<!-- Node2 -->
<g id="node2" class="node">
<title>Node2</title>
<g id="a_node2"><a xlink:href="classrare_1_1shared_1_1workers_1_1verify_1_1_verify_worker.html#a64e3413255352154f4779684030a5757" target="_top" xlink:title=" ">
<polygon fill="white" stroke="black" points="111,-336 111,-355 206,-355 206,-336 111,-336"/>
<text text-anchor="middle" x="158.5" y="-343" font-family="Helvetica,sans-Serif" font-size="10.00">__status_callback</text>
</a>
</g>
</g>
<!-- Node1&#45;&gt;Node2 -->
<g id="edge1" class="edge">
<title>Node1&#45;&gt;Node2</title>
<path fill="none" stroke="midnightblue" d="M27.66,-192.25C31.26,-218.21 44.73,-289.57 87,-326.5 91.24,-330.2 96.12,-333.19 101.3,-335.6"/>
<polygon fill="midnightblue" stroke="midnightblue" points="100.29,-338.96 110.88,-339.35 102.84,-332.45 100.29,-338.96"/>
</g>
<!-- Node3 -->
<g id="node3" class="node">
<title>Node3</title>
<g id="a_node3"><a xlink:href="classrare_1_1shared_1_1rare__core_1_1_rare_core.html#a6fd4772e3099e911c4878bd2cb9eba27" target="_top" xlink:title=" ">
<polygon fill="white" stroke="black" points="93.5,-268.5 93.5,-298.5 223.5,-298.5 223.5,-268.5 93.5,-268.5"/>
<text text-anchor="start" x="101.5" y="-286.5" font-family="Helvetica,sans-Serif" font-size="10.00">rare.shared.rare_core.Rare</text>
<text text-anchor="middle" x="158.5" y="-275.5" font-family="Helvetica,sans-Serif" font-size="10.00">Core.args</text>
</a>
</g>
</g>
<!-- Node1&#45;&gt;Node3 -->
<g id="edge2" class="edge">
<title>Node1&#45;&gt;Node3</title>
<path fill="none" stroke="midnightblue" d="M31.52,-192C40.52,-208.16 60.92,-241.02 87,-259.5 89.12,-261 91.35,-262.42 93.65,-263.75"/>
<polygon fill="midnightblue" stroke="midnightblue" points="92.32,-267.01 102.81,-268.49 95.53,-260.79 92.32,-267.01"/>
</g>
<!-- Node4 -->
<g id="node4" class="node">
<title>Node4</title>
<g id="a_node4"><a xlink:href="classrare_1_1shared_1_1rare__core_1_1_rare_core.html#a405e1a4f20f16120f872ccd2654a1d56" target="_top" xlink:title=" ">
<polygon fill="white" stroke="black" points="93.5,-201.5 93.5,-231.5 223.5,-231.5 223.5,-201.5 93.5,-201.5"/>
<text text-anchor="start" x="101.5" y="-219.5" font-family="Helvetica,sans-Serif" font-size="10.00">rare.shared.rare_core.Rare</text>
<text text-anchor="middle" x="158.5" y="-208.5" font-family="Helvetica,sans-Serif" font-size="10.00">Core.core</text>
</a>
</g>
</g>
<!-- Node1&#45;&gt;Node4 -->
<g id="edge4" class="edge">
<title>Node1&#45;&gt;Node4</title>
<path fill="none" stroke="midnightblue" d="M51.14,-188.9C62.17,-191.76 75.78,-195.29 89.54,-198.86"/>
<polygon fill="midnightblue" stroke="midnightblue" points="88.98,-202.33 99.54,-201.46 90.74,-195.56 88.98,-202.33"/>
</g>
<!-- Node6 -->
<g id="node6" class="node">
<title>Node6</title>
<g id="a_node6"><a xlink:href="classrare_1_1shared_1_1workers_1_1worker_1_1_worker.html#a9998d928f5b6f30ebb69dc655c0756a8" target="_top" xlink:title=" ">
<polygon fill="white" stroke="black" points="91,-134.5 91,-164.5 226,-164.5 226,-134.5 91,-134.5"/>
<text text-anchor="start" x="99" y="-152.5" font-family="Helvetica,sans-Serif" font-size="10.00">rare.shared.workers.worker.</text>
<text text-anchor="middle" x="158.5" y="-141.5" font-family="Helvetica,sans-Serif" font-size="10.00">Worker.signals</text>
</a>
</g>
</g>
<!-- Node1&#45;&gt;Node6 -->
<g id="edge9" class="edge">
<title>Node1&#45;&gt;Node6</title>
<path fill="none" stroke="midnightblue" d="M51.14,-176.29C61.71,-173.63 74.65,-170.37 87.81,-167.06"/>
<polygon fill="midnightblue" stroke="midnightblue" points="89.04,-170.35 97.89,-164.52 87.33,-163.57 89.04,-170.35"/>
</g>
<!-- Node7 -->
<g id="node7" class="node">
<title>Node7</title>
<g id="a_node7"><a xlink:href="classrare_1_1shared_1_1rare__core_1_1_rare_core.html#a135560fc58fcc2e5cff07ec25c23a06c" target="_top" xlink:title=" ">
<polygon fill="white" stroke="black" points="93.5,-67.5 93.5,-97.5 223.5,-97.5 223.5,-67.5 93.5,-67.5"/>
<text text-anchor="start" x="101.5" y="-85.5" font-family="Helvetica,sans-Serif" font-size="10.00">rare.shared.rare_core.Rare</text>
<text text-anchor="middle" x="158.5" y="-74.5" font-family="Helvetica,sans-Serif" font-size="10.00">Core.signals</text>
</a>
</g>
</g>
<!-- Node1&#45;&gt;Node7 -->
<g id="edge11" class="edge">
<title>Node1&#45;&gt;Node7</title>
<path fill="none" stroke="midnightblue" d="M35.39,-172.98C46.74,-161.11 67.27,-140.55 87,-125.5 97.61,-117.4 109.83,-109.51 121.09,-102.74"/>
<polygon fill="midnightblue" stroke="midnightblue" points="123.02,-105.66 129.85,-97.57 119.46,-99.63 123.02,-105.66"/>
</g>
<!-- Node8 -->
<g id="node8" class="node">
<title>Node8</title>
<g id="a_node8"><a xlink:href="namespacerare_1_1lgndr_1_1glue_1_1monkeys.html#a66de975ad741f9a98a8ed2468b88f3e8" target="_top" xlink:title=" ">
<polygon fill="white" stroke="black" points="87,-0.5 87,-30.5 230,-30.5 230,-0.5 87,-0.5"/>
<text text-anchor="start" x="95" y="-18.5" font-family="Helvetica,sans-Serif" font-size="10.00">rare.lgndr.glue.monkeys.verify</text>
<text text-anchor="middle" x="158.5" y="-7.5" font-family="Helvetica,sans-Serif" font-size="10.00">_stdout_factory</text>
</a>
</g>
</g>
<!-- Node1&#45;&gt;Node8 -->
<g id="edge13" class="edge">
<title>Node1&#45;&gt;Node8</title>
<path fill="none" stroke="midnightblue" d="M29.19,-172.72C35.78,-150.24 54.59,-94.1 87,-58.5 95.06,-49.64 105.37,-41.99 115.6,-35.7"/>
<polygon fill="midnightblue" stroke="midnightblue" points="117.62,-38.57 124.51,-30.52 114.1,-32.52 117.62,-38.57"/>
</g>
<!-- Node3&#45;&gt;Node3 -->
<g id="edge3" class="edge">
<title>Node3&#45;&gt;Node3</title>
<path fill="none" stroke="midnightblue" d="M135.5,-298.66C129.95,-308.06 137.62,-317 158.5,-317 171.23,-317 179.04,-313.68 181.95,-308.96"/>
<polygon fill="midnightblue" stroke="midnightblue" points="185.44,-308.5 181.5,-298.66 178.44,-308.8 185.44,-308.5"/>
</g>
<!-- Node4&#45;&gt;Node4 -->
<g id="edge5" class="edge">
<title>Node4&#45;&gt;Node4</title>
<path fill="none" stroke="midnightblue" d="M135.5,-231.66C129.95,-241.06 137.62,-250 158.5,-250 171.23,-250 179.04,-246.68 181.95,-241.96"/>
<polygon fill="midnightblue" stroke="midnightblue" points="185.44,-241.5 181.5,-231.66 178.44,-241.8 185.44,-241.5"/>
</g>
<!-- Node5 -->
<g id="node5" class="node">
<title>Node5</title>
<g id="a_node5"><a xlink:href="classrare_1_1shared_1_1workers_1_1worker_1_1_worker.html#a5d3220537164bdcd6c040b54ef85f656" target="_top" xlink:title=" ">
<polygon fill="white" stroke="black" points="266,-201.5 266,-231.5 401,-231.5 401,-201.5 266,-201.5"/>
<text text-anchor="start" x="274" y="-219.5" font-family="Helvetica,sans-Serif" font-size="10.00">rare.shared.workers.worker.</text>
<text text-anchor="middle" x="333.5" y="-208.5" font-family="Helvetica,sans-Serif" font-size="10.00">Worker.logger</text>
</a>
</g>
</g>
<!-- Node4&#45;&gt;Node5 -->
<g id="edge6" class="edge">
<title>Node4&#45;&gt;Node5</title>
<path fill="none" stroke="midnightblue" d="M223.92,-216.5C234.26,-216.5 245.05,-216.5 255.64,-216.5"/>
<polygon fill="midnightblue" stroke="midnightblue" points="255.71,-220 265.71,-216.5 255.71,-213 255.71,-220"/>
</g>
<!-- Node5&#45;&gt;Node5 -->
<g id="edge7" class="edge">
<title>Node5&#45;&gt;Node5</title>
<path fill="none" stroke="midnightblue" d="M303.18,-231.66C295.86,-241.06 305.97,-250 333.5,-250 350.27,-250 360.58,-246.68 364.42,-241.96"/>
<polygon fill="midnightblue" stroke="midnightblue" points="367.89,-241.44 363.82,-231.66 360.91,-241.84 367.89,-241.44"/>
</g>
<!-- Node6&#45;&gt;Node6 -->
<g id="edge10" class="edge">
<title>Node6&#45;&gt;Node6</title>
<path fill="none" stroke="midnightblue" d="M135.5,-164.66C129.95,-174.06 137.62,-183 158.5,-183 171.23,-183 179.04,-179.68 181.95,-174.96"/>
<polygon fill="midnightblue" stroke="midnightblue" points="185.44,-174.5 181.5,-164.66 178.44,-174.8 185.44,-174.5"/>
</g>
<!-- Node7&#45;&gt;Node7 -->
<g id="edge12" class="edge">
<title>Node7&#45;&gt;Node7</title>
<path fill="none" stroke="midnightblue" d="M135.5,-97.66C129.95,-107.06 137.62,-116 158.5,-116 171.23,-116 179.04,-112.68 181.95,-107.96"/>
<polygon fill="midnightblue" stroke="midnightblue" points="185.44,-107.5 181.5,-97.66 178.44,-107.8 185.44,-107.5"/>
</g>
<!-- Node8&#45;&gt;Node8 -->
<g id="edge14" class="edge">
<title>Node8&#45;&gt;Node8</title>
<path fill="none" stroke="midnightblue" d="M135.5,-30.66C129.95,-40.06 137.62,-49 158.5,-49 171.23,-49 179.04,-45.68 181.95,-40.96"/>
<polygon fill="midnightblue" stroke="midnightblue" points="185.44,-40.5 181.5,-30.66 178.44,-40.8 185.44,-40.5"/>
</g>
</g>
</svg>
