<?xml version="1.0" encoding="UTF-8" standalone="no"?>
<!DOCTYPE svg PUBLIC "-//W3C//DTD SVG 1.1//EN"
 "http://www.w3.org/Graphics/SVG/1.1/DTD/svg11.dtd">
<!-- Generated by graphviz version 2.49.3 (20211027.1534)
 -->
<!-- Title: run Pages: 1 -->
<!--zoomable 469 -->
<svg id="main" version="1.1" xmlns="http://www.w3.org/2000/svg" xmlns:xlink="http://www.w3.org/1999/xlink" xml:space="preserve" onload="init(evt)">
<style type="text/css"><![CDATA[
.edge:hover path { stroke: red; }
.edge:hover polygon { stroke: red; fill: red; }
]]></style>
<script type="text/javascript"><![CDATA[
var edges = document.getElementsByTagName('g');
if (edges && edges.length) {
  for (var i=0;i<edges.length;i++) {
    if (edges[i].id.substr(0,4)=='edge') {
      edges[i].setAttribute('class','edge');
    }
  }
}
]]></script>
        <defs>
                <circle id="rim" cx="0" cy="0" r="7"/>
                <circle id="rim2" cx="0" cy="0" r="3.5"/>
                <g id="zoomPlus">
                        <use xlink:href="#rim" fill="#404040">
                                <set attributeName="fill" to="#808080" begin="zoomplus.mouseover" end="zoomplus.mouseout"/>
                        </use>
                        <path d="M-4,0h8M0,-4v8" fill="none" stroke="white" stroke-width="1.5" pointer-events="none"/>
                </g>
                <g id="zoomMin">
                        <use xlink:href="#rim" fill="#404040">
                                <set attributeName="fill" to="#808080" begin="zoomminus.mouseover" end="zoomminus.mouseout"/>
                        </use>
                        <path d="M-4,0h8" fill="none" stroke="white" stroke-width="1.5" pointer-events="none"/>
                </g>
                <g id="dirArrow">
                        <path fill="none" stroke="white" stroke-width="1.5" d="M0,-3.0v7 M-2.5,-0.5L0,-3.0L2.5,-0.5"/>
                </g>
               <g id="resetDef">
                       <use xlink:href="#rim2" fill="#404040">
                               <set attributeName="fill" to="#808080" begin="reset.mouseover" end="reset.mouseout"/>
                       </use>
               </g>
        </defs>

<script type="text/javascript">
var viewWidth = 457;
var viewHeight = 469;
var sectionId = 'dynsection-4';
</script>
<script xlink:href="svgpan.js"/>
<svg id="graph" class="graph">
<g id="viewport">
<title>run</title>
<polygon fill="white" stroke="transparent" points="-4,4 -4,-464.5 452.66,-464.5 452.66,4 -4,4"/>
<!-- Node1 -->
<g id="node1" class="node">
<title>Node1</title>
<g id="a_node1"><a xlink:title=" ">
<polygon fill="#bfbfbf" stroke="black" points="13.66,-240 13.66,-259 43.66,-259 43.66,-240 13.66,-240"/>
<text text-anchor="middle" x="28.66" y="-247" font-family="Helvetica,sans-Serif" font-size="10.00">run</text>
</a>
</g>
</g>
<!-- Node1&#45;&gt;Node1 -->
<g id="edge13" class="edge">
<title>Node1&#45;&gt;Node1</title>
<path fill="none" stroke="midnightblue" d="M13.53,-254.59C-7.87,-264.33 -2.83,-277.5 28.66,-277.5 54.75,-277.5 62.69,-268.47 52.49,-259.83"/>
<polygon fill="midnightblue" stroke="midnightblue" points="54.17,-256.76 43.8,-254.59 50.55,-262.75 54.17,-256.76"/>
</g>
<!-- Node2 -->
<g id="node2" class="node">
<title>Node2</title>
<g id="a_node2"><a xlink:href="classrare_1_1components_1_1tabs_1_1integrations_1_1import__group_1_1_import_worker.html#a415bd94ee880e38a4ac64b6c0ef888c7" target="_top" xlink:title=" ">
<polygon fill="white" stroke="black" points="137.16,-441 137.16,-460 220.16,-460 220.16,-441 137.16,-441"/>
<text text-anchor="middle" x="178.66" y="-448" font-family="Helvetica,sans-Serif" font-size="10.00">__import_game</text>
</a>
</g>
</g>
<!-- Node1&#45;&gt;Node2 -->
<g id="edge1" class="edge">
<title>Node1&#45;&gt;Node2</title>
<path fill="none" stroke="midnightblue" d="M29.09,-259.17C27.85,-289.57 28.46,-384.07 79.66,-431.5 92.3,-443.2 109.89,-448.68 126.69,-451.01"/>
<polygon fill="midnightblue" stroke="midnightblue" points="126.69,-454.53 137,-452.08 127.41,-447.56 126.69,-454.53"/>
</g>
<!-- Node3 -->
<g id="node3" class="node">
<title>Node3</title>
<g id="a_node3"><a xlink:href="classrare_1_1components_1_1tabs_1_1integrations_1_1import__group_1_1_import_worker.html#a32df06b73c0effecf57cd612b79d2cdf" target="_top" xlink:title=" ">
<polygon fill="white" stroke="black" points="143.66,-403 143.66,-422 213.66,-422 213.66,-403 143.66,-403"/>
<text text-anchor="middle" x="178.66" y="-410" font-family="Helvetica,sans-Serif" font-size="10.00">__try_import</text>
</a>
</g>
</g>
<!-- Node1&#45;&gt;Node3 -->
<g id="edge2" class="edge">
<title>Node1&#45;&gt;Node3</title>
<path fill="none" stroke="midnightblue" d="M29.91,-259.36C31.13,-285.62 38.27,-357.62 79.66,-393.5 94.36,-406.24 115.01,-411.46 133.56,-413.31"/>
<polygon fill="midnightblue" stroke="midnightblue" points="133.38,-416.8 143.6,-414.01 133.87,-409.82 133.38,-416.8"/>
</g>
<!-- Node4 -->
<g id="node4" class="node">
<title>Node4</title>
<g id="a_node4"><a xlink:href="classrare_1_1components_1_1tabs_1_1integrations_1_1egl__sync__group_1_1_e_g_l_sync_list_item.html#a9c470cc60eae203f55455d0e0d7f5712" target="_top" xlink:title=" ">
<polygon fill="white" stroke="black" points="79.66,-335.5 79.66,-365.5 277.66,-365.5 277.66,-335.5 79.66,-335.5"/>
<text text-anchor="start" x="87.66" y="-353.5" font-family="Helvetica,sans-Serif" font-size="10.00">rare.components.tabs.integrations.egl</text>
<text text-anchor="middle" x="178.66" y="-342.5" font-family="Helvetica,sans-Serif" font-size="10.00">_sync_group.EGLSyncListItem.app_name</text>
</a>
</g>
</g>
<!-- Node1&#45;&gt;Node4 -->
<g id="edge3" class="edge">
<title>Node1&#45;&gt;Node4</title>
<path fill="none" stroke="midnightblue" d="M33.2,-259.24C39.72,-275.76 55.23,-309.15 79.66,-326.5 81.79,-328.01 84,-329.42 86.27,-330.75"/>
<polygon fill="midnightblue" stroke="midnightblue" points="84.86,-333.96 95.35,-335.44 88.07,-327.74 84.86,-333.96"/>
</g>
<!-- Node5 -->
<g id="node5" class="node">
<title>Node5</title>
<g id="a_node5"><a xlink:href="classrare_1_1shared_1_1rare__core_1_1_rare_core.html#a405e1a4f20f16120f872ccd2654a1d56" target="_top" xlink:title=" ">
<polygon fill="white" stroke="black" points="113.66,-268.5 113.66,-298.5 243.66,-298.5 243.66,-268.5 113.66,-268.5"/>
<text text-anchor="start" x="121.66" y="-286.5" font-family="Helvetica,sans-Serif" font-size="10.00">rare.shared.rare_core.Rare</text>
<text text-anchor="middle" x="178.66" y="-275.5" font-family="Helvetica,sans-Serif" font-size="10.00">Core.core</text>
</a>
</g>
</g>
<!-- Node1&#45;&gt;Node5 -->
<g id="edge5" class="edge">
<title>Node1&#45;&gt;Node5</title>
<path fill="none" stroke="midnightblue" d="M43.86,-252.76C58.04,-256.02 80.97,-261.29 103.87,-266.55"/>
<polygon fill="midnightblue" stroke="midnightblue" points="103.13,-269.97 113.66,-268.8 104.7,-263.15 103.13,-269.97"/>
</g>
<!-- Node7 -->
<g id="node7" class="node">
<title>Node7</title>
<g id="a_node7"><a xlink:href="namespacerare_1_1components_1_1tabs_1_1integrations_1_1import__group.html#a2bddabe370da2d3f9b22f90f5aa555d3" target="_top" xlink:title=" ">
<polygon fill="white" stroke="black" points="83.16,-201.5 83.16,-231.5 274.16,-231.5 274.16,-201.5 83.16,-201.5"/>
<text text-anchor="start" x="91.16" y="-219.5" font-family="Helvetica,sans-Serif" font-size="10.00">rare.components.tabs.integrations.import</text>
<text text-anchor="middle" x="178.66" y="-208.5" font-family="Helvetica,sans-Serif" font-size="10.00">_group.find_app_name</text>
</a>
</g>
</g>
<!-- Node1&#45;&gt;Node7 -->
<g id="edge9" class="edge">
<title>Node1&#45;&gt;Node7</title>
<path fill="none" stroke="midnightblue" d="M43.86,-246.34C57.28,-243.34 78.55,-238.6 100.22,-233.77"/>
<polygon fill="midnightblue" stroke="midnightblue" points="101.18,-237.14 110.18,-231.55 99.66,-230.31 101.18,-237.14"/>
</g>
<!-- Node8 -->
<g id="node8" class="node">
<title>Node8</title>
<g id="a_node8"><a xlink:href="namespacerare_1_1lgndr_1_1glue_1_1monkeys.html#a3b028375297e60dc678f0afef132134d" target="_top" xlink:title=" ">
<polygon fill="white" stroke="black" points="111.66,-134.5 111.66,-164.5 245.66,-164.5 245.66,-134.5 111.66,-134.5"/>
<text text-anchor="start" x="119.66" y="-152.5" font-family="Helvetica,sans-Serif" font-size="10.00">rare.lgndr.glue.monkeys.get</text>
<text text-anchor="middle" x="178.66" y="-141.5" font-family="Helvetica,sans-Serif" font-size="10.00">_boolean_choice_factory</text>
</a>
</g>
</g>
<!-- Node1&#45;&gt;Node8 -->
<g id="edge11" class="edge">
<title>Node1&#45;&gt;Node8</title>
<path fill="none" stroke="midnightblue" d="M36.08,-239.87C44.73,-227.5 61.19,-206.03 79.66,-192.5 92.7,-182.95 108.18,-174.93 122.95,-168.5"/>
<polygon fill="midnightblue" stroke="midnightblue" points="124.64,-171.59 132.52,-164.5 121.95,-165.13 124.64,-171.59"/>
</g>
<!-- Node9 -->
<g id="node9" class="node">
<title>Node9</title>
<g id="a_node9"><a xlink:href="classrare_1_1shared_1_1rare__core_1_1_rare_core.html#a135560fc58fcc2e5cff07ec25c23a06c" target="_top" xlink:title=" ">
<polygon fill="white" stroke="black" points="113.66,-67.5 113.66,-97.5 243.66,-97.5 243.66,-67.5 113.66,-67.5"/>
<text text-anchor="start" x="121.66" y="-85.5" font-family="Helvetica,sans-Serif" font-size="10.00">rare.shared.rare_core.Rare</text>
<text text-anchor="middle" x="178.66" y="-74.5" font-family="Helvetica,sans-Serif" font-size="10.00">Core.signals</text>
</a>
</g>
</g>
<!-- Node1&#45;&gt;Node9 -->
<g id="edge14" class="edge">
<title>Node1&#45;&gt;Node9</title>
<path fill="none" stroke="midnightblue" d="M31.04,-239.77C34.76,-216.9 47.01,-159.15 79.66,-125.5 89.35,-115.52 101.74,-107.7 114.44,-101.63"/>
<polygon fill="midnightblue" stroke="midnightblue" points="115.98,-104.78 123.7,-97.52 113.14,-98.38 115.98,-104.78"/>
</g>
<!-- Node10 -->
<g id="node10" class="node">
<title>Node10</title>
<g id="a_node10"><a xlink:href="classrare_1_1shared_1_1workers_1_1worker_1_1_worker.html#a9998d928f5b6f30ebb69dc655c0756a8" target="_top" xlink:title=" ">
<polygon fill="white" stroke="black" points="111.16,-0.5 111.16,-30.5 246.16,-30.5 246.16,-0.5 111.16,-0.5"/>
<text text-anchor="start" x="119.16" y="-18.5" font-family="Helvetica,sans-Serif" font-size="10.00">rare.shared.workers.worker.</text>
<text text-anchor="middle" x="178.66" y="-7.5" font-family="Helvetica,sans-Serif" font-size="10.00">Worker.signals</text>
</a>
</g>
</g>
<!-- Node1&#45;&gt;Node10 -->
<g id="edge16" class="edge">
<title>Node1&#45;&gt;Node10</title>
<path fill="none" stroke="midnightblue" d="M29.41,-239.84C29.13,-209.38 32.26,-114.03 79.66,-58.5 88.17,-48.53 99.43,-40.8 111.28,-34.82"/>
<polygon fill="midnightblue" stroke="midnightblue" points="112.82,-37.96 120.41,-30.58 109.87,-31.61 112.82,-37.96"/>
</g>
<!-- Node4&#45;&gt;Node4 -->
<g id="edge4" class="edge">
<title>Node4&#45;&gt;Node4</title>
<path fill="none" stroke="midnightblue" d="M152.52,-365.66C146.22,-375.06 154.93,-384 178.66,-384 193.13,-384 202.01,-380.68 205.32,-375.96"/>
<polygon fill="midnightblue" stroke="midnightblue" points="208.8,-375.47 204.81,-365.66 201.81,-375.82 208.8,-375.47"/>
</g>
<!-- Node5&#45;&gt;Node5 -->
<g id="edge6" class="edge">
<title>Node5&#45;&gt;Node5</title>
<path fill="none" stroke="midnightblue" d="M152.52,-298.66C146.22,-308.06 154.93,-317 178.66,-317 193.13,-317 202.01,-313.68 205.32,-308.96"/>
<polygon fill="midnightblue" stroke="midnightblue" points="208.8,-308.47 204.81,-298.66 201.81,-308.82 208.8,-308.47"/>
</g>
<!-- Node6 -->
<g id="node6" class="node">
<title>Node6</title>
<g id="a_node6"><a xlink:href="classrare_1_1shared_1_1workers_1_1worker_1_1_worker.html#a5d3220537164bdcd6c040b54ef85f656" target="_top" xlink:title=" ">
<polygon fill="white" stroke="black" points="313.66,-268.5 313.66,-298.5 448.66,-298.5 448.66,-268.5 313.66,-268.5"/>
<text text-anchor="start" x="321.66" y="-286.5" font-family="Helvetica,sans-Serif" font-size="10.00">rare.shared.workers.worker.</text>
<text text-anchor="middle" x="381.16" y="-275.5" font-family="Helvetica,sans-Serif" font-size="10.00">Worker.logger</text>
</a>
</g>
</g>
<!-- Node5&#45;&gt;Node6 -->
<g id="edge7" class="edge">
<title>Node5&#45;&gt;Node6</title>
<path fill="none" stroke="midnightblue" d="M243.93,-283.5C262.85,-283.5 283.75,-283.5 303.37,-283.5"/>
<polygon fill="midnightblue" stroke="midnightblue" points="303.5,-287 313.5,-283.5 303.5,-280 303.5,-287"/>
</g>
<!-- Node6&#45;&gt;Node6 -->
<g id="edge8" class="edge">
<title>Node6&#45;&gt;Node6</title>
<path fill="none" stroke="midnightblue" d="M345.96,-298.66C337.47,-308.06 349.21,-317 381.16,-317 400.64,-317 412.6,-313.68 417.06,-308.96"/>
<polygon fill="midnightblue" stroke="midnightblue" points="420.53,-308.4 416.37,-298.66 413.54,-308.87 420.53,-308.4"/>
</g>
<!-- Node7&#45;&gt;Node7 -->
<g id="edge10" class="edge">
<title>Node7&#45;&gt;Node7</title>
<path fill="none" stroke="midnightblue" d="M152.52,-231.66C146.22,-241.06 154.93,-250 178.66,-250 193.13,-250 202.01,-246.68 205.32,-241.96"/>
<polygon fill="midnightblue" stroke="midnightblue" points="208.8,-241.47 204.81,-231.66 201.81,-241.82 208.8,-241.47"/>
</g>
<!-- Node8&#45;&gt;Node8 -->
<g id="edge12" class="edge">
<title>Node8&#45;&gt;Node8</title>
<path fill="none" stroke="midnightblue" d="M152.52,-164.66C146.22,-174.06 154.93,-183 178.66,-183 193.13,-183 202.01,-179.68 205.32,-174.96"/>
<polygon fill="midnightblue" stroke="midnightblue" points="208.8,-174.47 204.81,-164.66 201.81,-174.82 208.8,-174.47"/>
</g>
<!-- Node9&#45;&gt;Node9 -->
<g id="edge15" class="edge">
<title>Node9&#45;&gt;Node9</title>
<path fill="none" stroke="midnightblue" d="M152.52,-97.66C146.22,-107.06 154.93,-116 178.66,-116 193.13,-116 202.01,-112.68 205.32,-107.96"/>
<polygon fill="midnightblue" stroke="midnightblue" points="208.8,-107.47 204.81,-97.66 201.81,-107.82 208.8,-107.47"/>
</g>
<!-- Node10&#45;&gt;Node10 -->
<g id="edge17" class="edge">
<title>Node10&#45;&gt;Node10</title>
<path fill="none" stroke="midnightblue" d="M152.52,-30.66C146.22,-40.06 154.93,-49 178.66,-49 193.13,-49 202.01,-45.68 205.32,-40.96"/>
<polygon fill="midnightblue" stroke="midnightblue" points="208.8,-40.47 204.81,-30.66 201.81,-40.82 208.8,-40.47"/>
</g>
</g>
</svg>
        <g id="navigator" transform="translate(0 0)" fill="#404254">
                <rect fill="#f2f5e9" fill-opacity="0.5" stroke="#606060" stroke-width=".5" x="0" y="0" width="60" height="60"/>
                <use id="zoomplus" xlink:href="#zoomPlus" x="17" y="9" onmousedown="handleZoom(evt,'in')"/>
                <use id="zoomminus" xlink:href="#zoomMin" x="42" y="9" onmousedown="handleZoom(evt,'out')"/>
                <use id="reset" xlink:href="#resetDef" x="30" y="36" onmousedown="handleReset()"/>
                <g id="arrowUp" xlink:href="#dirArrow" transform="translate(30 24)" onmousedown="handlePan(0,-1)">
                  <use xlink:href="#rim" fill="#404040">
                        <set attributeName="fill" to="#808080" begin="arrowUp.mouseover" end="arrowUp.mouseout"/>
                  </use>
                  <path fill="none" stroke="white" stroke-width="1.5" d="M0,-3.0v7 M-2.5,-0.5L0,-3.0L2.5,-0.5"/>
                </g>
                <g id="arrowRight" xlink:href="#dirArrow" transform="rotate(90) translate(36 -43)" onmousedown="handlePan(1,0)">
                  <use xlink:href="#rim" fill="#404040">
                        <set attributeName="fill" to="#808080" begin="arrowRight.mouseover" end="arrowRight.mouseout"/>
                  </use>
                  <path fill="none" stroke="white" stroke-width="1.5" d="M0,-3.0v7 M-2.5,-0.5L0,-3.0L2.5,-0.5"/>
                </g>
                <g id="arrowDown" xlink:href="#dirArrow" transform="rotate(180) translate(-30 -48)" onmousedown="handlePan(0,1)">
                  <use xlink:href="#rim" fill="#404040">
                        <set attributeName="fill" to="#808080" begin="arrowDown.mouseover" end="arrowDown.mouseout"/>
                  </use>
                  <path fill="none" stroke="white" stroke-width="1.5" d="M0,-3.0v7 M-2.5,-0.5L0,-3.0L2.5,-0.5"/>
                </g>
                <g id="arrowLeft" xlink:href="#dirArrow" transform="rotate(270) translate(-36 17)" onmousedown="handlePan(-1,0)">
                  <use xlink:href="#rim" fill="#404040">
                        <set attributeName="fill" to="#808080" begin="arrowLeft.mouseover" end="arrowLeft.mouseout"/>
                  </use>
                  <path fill="none" stroke="white" stroke-width="1.5" d="M0,-3.0v7 M-2.5,-0.5L0,-3.0L2.5,-0.5"/>
                </g>
        </g>
        <svg viewBox="0 0 15 15" width="100%" height="30px" preserveAspectRatio="xMaxYMin meet">
         <g id="arrow_out" transform="scale(0.3 0.3)">
          <a xlink:href="classrare_1_1components_1_1tabs_1_1integrations_1_1import__group_1_1_import_worker_a670fe67276cb94775a042958fe2c79d4_cgraph_org.svg" target="_base">
           <rect id="button" ry="5" rx="5" y="6" x="6" height="38" width="38"
                fill="#f2f5e9" fill-opacity="0.5" stroke="#606060" stroke-width="1.0"/>
           <path id="arrow"
             d="M 11.500037,31.436501 C 11.940474,20.09759 22.043105,11.32322 32.158766,21.979434 L 37.068811,17.246167 C 37.068811,17.246167 37.088388,32 37.088388,32 L 22.160133,31.978069 C 22.160133,31.978069 26.997745,27.140456 26.997745,27.140456 C 18.528582,18.264221 13.291696,25.230495 11.500037,31.436501 z"
             style="fill:#404040;"/>
          </a>
         </g>
        </svg>
</svg>
