<?xml version="1.0" encoding="UTF-8" standalone="no"?>
<!DOCTYPE svg PUBLIC "-//W3C//DTD SVG 1.1//EN"
 "http://www.w3.org/Graphics/SVG/1.1/DTD/svg11.dtd">
<!-- Generated by graphviz version 2.49.3 (20211027.1534)
 -->
<!-- Title: __init__ Pages: 1 -->
<svg width="223pt" height="124pt"
 viewBox="0.00 0.00 223.00 124.00" xmlns="http://www.w3.org/2000/svg" xmlns:xlink="http://www.w3.org/1999/xlink">
<g id="graph0" class="graph" transform="scale(1 1) rotate(0) translate(4 120)">
<title>__init__</title>
<polygon fill="white" stroke="transparent" points="-4,4 -4,-120 219,-120 219,4 -4,4"/>
<!-- Node1 -->
<g id="node1" class="node">
<title>Node1</title>
<g id="a_node1"><a xlink:title=" ">
<polygon fill="#bfbfbf" stroke="black" points="0,-39 0,-58 50,-58 50,-39 0,-39"/>
<text text-anchor="middle" x="25" y="-46" font-family="Helvetica,sans-Serif" font-size="10.00">__init__</text>
</a>
</g>
</g>
<!-- Node1&#45;&gt;Node1 -->
<g id="edge1" class="edge">
<title>Node1&#45;&gt;Node1</title>
<path fill="none" stroke="midnightblue" d="M5.89,-58.26C-3.41,-67.07 2.96,-76.5 25,-76.5 39.12,-76.5 46.81,-72.63 48.07,-67.53"/>
<polygon fill="midnightblue" stroke="midnightblue" points="51.25,-66.08 44.11,-58.26 44.81,-68.83 51.25,-66.08"/>
</g>
<!-- Node2 -->
<g id="node2" class="node">
<title>Node2</title>
<g id="a_node2"><a xlink:href="classrare_1_1widgets_1_1elided__label_1_1_elided_label.html#aa25390a39bbdce0c91c93bb8adac619b" target="_top" xlink:title=" ">
<polygon fill="white" stroke="black" points="86,-67.5 86,-97.5 215,-97.5 215,-67.5 86,-67.5"/>
<text text-anchor="start" x="94" y="-85.5" font-family="Helvetica,sans-Serif" font-size="10.00">rare.widgets.elided</text>
<text text-anchor="middle" x="150.5" y="-74.5" font-family="Helvetica,sans-Serif" font-size="10.00">_label.ElidedLabel.setText</text>
</a>
</g>
</g>
<!-- Node1&#45;&gt;Node2 -->
<g id="edge2" class="edge">
<title>Node1&#45;&gt;Node2</title>
<path fill="none" stroke="midnightblue" d="M50.11,-55.14C60.19,-57.91 72.43,-61.28 84.83,-64.7"/>
<polygon fill="midnightblue" stroke="midnightblue" points="84.21,-68.15 94.78,-67.43 86.06,-61.41 84.21,-68.15"/>
</g>
<!-- Node3 -->
<g id="node3" class="node">
<title>Node3</title>
<g id="a_node3"><a xlink:href="classrare_1_1utils_1_1extra__widgets_1_1_indicator_line_edit.html#aa1ce5c203733553579a07cf1db0da9df" target="_top" xlink:title=" ">
<polygon fill="white" stroke="black" points="88.5,-0.5 88.5,-30.5 212.5,-30.5 212.5,-0.5 88.5,-0.5"/>
<text text-anchor="start" x="96.5" y="-18.5" font-family="Helvetica,sans-Serif" font-size="10.00">rare.utils.extra_widgets.</text>
<text text-anchor="middle" x="150.5" y="-7.5" font-family="Helvetica,sans-Serif" font-size="10.00">IndicatorLineEdit.setText</text>
</a>
</g>
</g>
<!-- Node1&#45;&gt;Node3 -->
<g id="edge4" class="edge">
<title>Node1&#45;&gt;Node3</title>
<path fill="none" stroke="midnightblue" d="M50.11,-42.06C59.76,-39.48 71.39,-36.37 83.25,-33.2"/>
<polygon fill="midnightblue" stroke="midnightblue" points="84.47,-36.5 93.23,-30.54 82.66,-29.74 84.47,-36.5"/>
</g>
<!-- Node2&#45;&gt;Node2 -->
<g id="edge3" class="edge">
<title>Node2&#45;&gt;Node2</title>
<path fill="none" stroke="midnightblue" d="M128.89,-97.66C123.68,-107.06 130.88,-116 150.5,-116 162.45,-116 169.8,-112.68 172.53,-107.96"/>
<polygon fill="midnightblue" stroke="midnightblue" points="176.02,-107.51 172.11,-97.66 169.02,-107.79 176.02,-107.51"/>
</g>
<!-- Node3&#45;&gt;Node3 -->
<g id="edge5" class="edge">
<title>Node3&#45;&gt;Node3</title>
<path fill="none" stroke="midnightblue" d="M128.89,-30.66C123.68,-40.06 130.88,-49 150.5,-49 162.45,-49 169.8,-45.68 172.53,-40.96"/>
<polygon fill="midnightblue" stroke="midnightblue" points="176.02,-40.51 172.11,-30.66 169.02,-40.79 176.02,-40.51"/>
</g>
</g>
</svg>
