<?xml version="1.0" encoding="UTF-8" standalone="no"?>
<!DOCTYPE svg PUBLIC "-//W3C//DTD SVG 1.1//EN"
 "http://www.w3.org/Graphics/SVG/1.1/DTD/svg11.dtd">
<!-- Generated by graphviz version 2.49.3 (20211027.1534)
 -->
<!-- Title: is_origin Pages: 1 -->
<!--zoomable 402 -->
<svg id="main" version="1.1" xmlns="http://www.w3.org/2000/svg" xmlns:xlink="http://www.w3.org/1999/xlink" xml:space="preserve" onload="init(evt)">
<style type="text/css"><![CDATA[
.edge:hover path { stroke: red; }
.edge:hover polygon { stroke: red; fill: red; }
]]></style>
<script type="text/javascript"><![CDATA[
var edges = document.getElementsByTagName('g');
if (edges && edges.length) {
  for (var i=0;i<edges.length;i++) {
    if (edges[i].id.substr(0,4)=='edge') {
      edges[i].setAttribute('class','edge');
    }
  }
}
]]></script>
        <defs>
                <circle id="rim" cx="0" cy="0" r="7"/>
                <circle id="rim2" cx="0" cy="0" r="3.5"/>
                <g id="zoomPlus">
                        <use xlink:href="#rim" fill="#404040">
                                <set attributeName="fill" to="#808080" begin="zoomplus.mouseover" end="zoomplus.mouseout"/>
                        </use>
                        <path d="M-4,0h8M0,-4v8" fill="none" stroke="white" stroke-width="1.5" pointer-events="none"/>
                </g>
                <g id="zoomMin">
                        <use xlink:href="#rim" fill="#404040">
                                <set attributeName="fill" to="#808080" begin="zoomminus.mouseover" end="zoomminus.mouseout"/>
                        </use>
                        <path d="M-4,0h8" fill="none" stroke="white" stroke-width="1.5" pointer-events="none"/>
                </g>
                <g id="dirArrow">
                        <path fill="none" stroke="white" stroke-width="1.5" d="M0,-3.0v7 M-2.5,-0.5L0,-3.0L2.5,-0.5"/>
                </g>
               <g id="resetDef">
                       <use xlink:href="#rim2" fill="#404040">
                               <set attributeName="fill" to="#808080" begin="reset.mouseover" end="reset.mouseout"/>
                       </use>
               </g>
        </defs>

<script type="text/javascript">
var viewWidth = 1338;
var viewHeight = 402;
var sectionId = 'dynsection-22';
</script>
<script xlink:href="svgpan.js"/>
<svg id="graph" class="graph">
<g id="viewport">
<title>is_origin</title>
<polygon fill="white" stroke="transparent" points="-4,4 -4,-397.91 1333.99,-397.91 1333.99,4 -4,4"/>
<!-- Node1 -->
<g id="node1" class="node">
<title>Node1</title>
<g id="a_node1"><a xlink:title="Property to report if a Game is an Origin game.">
<polygon fill="#bfbfbf" stroke="black" points="1274,-179 1274,-198 1327,-198 1327,-179 1274,-179"/>
<text text-anchor="middle" x="1300.5" y="-186" font-family="Helvetica,sans-Serif" font-size="10.00">is_origin</text>
</a>
</g>
</g>
<!-- Node1&#45;&gt;Node1 -->
<g id="edge37" class="edge">
<title>Node1&#45;&gt;Node1</title>
<path fill="none" stroke="midnightblue" d="M1329.99,-207.15C1328.76,-212.44 1318.93,-216.5 1300.5,-216.5 1272.42,-216.5 1264.3,-207.07 1276.15,-198.26"/>
<polygon fill="midnightblue" stroke="midnightblue" points="1332.89,-205.16 1324.85,-198.26 1326.82,-208.67 1332.89,-205.16"/>
</g>
<!-- Node2 -->
<g id="node2" class="node">
<title>Node2</title>
<g id="a_node2"><a xlink:href="classrare_1_1models_1_1game_1_1_rare_game.html#a4431ce8cf18e5dd3414d8882e585bd8d" target="_top" xlink:title=" ">
<polygon fill="white" stroke="black" points="621,-338.5 621,-368.5 781,-368.5 781,-338.5 621,-338.5"/>
<text text-anchor="start" x="629" y="-356.5" font-family="Helvetica,sans-Serif" font-size="10.00">rare.models.game.RareGame.can</text>
<text text-anchor="middle" x="701" y="-345.5" font-family="Helvetica,sans-Serif" font-size="10.00">_launch</text>
</a>
</g>
</g>
<!-- Node1&#45;&gt;Node2 -->
<g id="edge1" class="edge">
<title>Node1&#45;&gt;Node2</title>
<path fill="none" stroke="midnightblue" d="M1293.36,-207.72C1284.69,-232 1266.64,-273.63 1238,-298.5 1155.24,-370.37 1115.75,-367.38 1008,-387.5 919.6,-404.01 815.22,-384.13 754.05,-368.56"/>
<polygon fill="midnightblue" stroke="midnightblue" points="1296.7,-208.78 1296.6,-198.19 1290.07,-206.53 1296.7,-208.78"/>
</g>
<!-- Node6 -->
<g id="node6" class="node">
<title>Node6</title>
<g id="a_node6"><a xlink:href="classrare_1_1models_1_1game_1_1_rare_game.html#ab4497a00f2030cf37a1005cd4a03db92" target="_top" xlink:title=" ">
<polygon fill="white" stroke="black" points="1044,-20 1044,-39 1238,-39 1238,-20 1044,-20"/>
<text text-anchor="middle" x="1141" y="-27" font-family="Helvetica,sans-Serif" font-size="10.00">rare.models.game.RareGame.install_path</text>
</a>
</g>
</g>
<!-- Node1&#45;&gt;Node6 -->
<g id="edge9" class="edge">
<title>Node1&#45;&gt;Node6</title>
<path fill="none" stroke="midnightblue" d="M1290.36,-169.81C1279.76,-149.41 1260.78,-116.59 1238,-93.5 1214.79,-69.97 1181.62,-50.19 1160.97,-39.09"/>
<polygon fill="midnightblue" stroke="midnightblue" points="1287.36,-171.63 1295,-178.98 1293.61,-168.47 1287.36,-171.63"/>
</g>
<!-- Node8 -->
<g id="node8" class="node">
<title>Node8</title>
<g id="a_node8"><a xlink:href="classrare_1_1models_1_1game_1_1_rare_game.html#ad95738186d1a39b3a1ec0605405e9ebc" target="_top" xlink:title="Property to report the installation size of an InstalledGame.">
<polygon fill="white" stroke="black" points="1045,-103 1045,-122 1237,-122 1237,-103 1045,-103"/>
<text text-anchor="middle" x="1141" y="-110" font-family="Helvetica,sans-Serif" font-size="10.00">rare.models.game.RareGame.install_size</text>
</a>
</g>
</g>
<!-- Node1&#45;&gt;Node8 -->
<g id="edge13" class="edge">
<title>Node1&#45;&gt;Node8</title>
<path fill="none" stroke="midnightblue" d="M1270.37,-174.44C1238.76,-159.19 1189.15,-135.25 1161.79,-122.05"/>
<polygon fill="midnightblue" stroke="midnightblue" points="1269.03,-177.68 1279.55,-178.87 1272.07,-171.38 1269.03,-177.68"/>
</g>
<!-- Node9 -->
<g id="node9" class="node">
<title>Node9</title>
<g id="a_node9"><a xlink:href="classrare_1_1models_1_1base__game_1_1_rare_game_slim.html#a823ab7286cb07208f430cc54252c82bb" target="_top" xlink:title=" ">
<polygon fill="white" stroke="black" points="1070,-240.5 1070,-270.5 1212,-270.5 1212,-240.5 1070,-240.5"/>
<text text-anchor="start" x="1078" y="-258.5" font-family="Helvetica,sans-Serif" font-size="10.00">rare.models.base_game.Rare</text>
<text text-anchor="middle" x="1141" y="-247.5" font-family="Helvetica,sans-Serif" font-size="10.00">GameSlim.is_installed</text>
</a>
</g>
</g>
<!-- Node1&#45;&gt;Node9 -->
<g id="edge16" class="edge">
<title>Node1&#45;&gt;Node9</title>
<path fill="none" stroke="midnightblue" d="M1280.43,-204.58C1268.81,-213.65 1253.3,-224.53 1238,-231.5 1229.87,-235.2 1221.08,-238.39 1212.24,-241.13"/>
<polygon fill="midnightblue" stroke="midnightblue" points="1282.89,-207.09 1288.48,-198.1 1278.5,-201.64 1282.89,-207.09"/>
</g>
<!-- Node15 -->
<g id="node15" class="node">
<title>Node15</title>
<g id="a_node15"><a xlink:href="classrare_1_1models_1_1game_1_1_rare_game.html#a823ab7286cb07208f430cc54252c82bb" target="_top" xlink:title="Property to report if a game is installed.">
<polygon fill="white" stroke="black" points="1065,-173.5 1065,-203.5 1217,-203.5 1217,-173.5 1065,-173.5"/>
<text text-anchor="start" x="1073" y="-191.5" font-family="Helvetica,sans-Serif" font-size="10.00">rare.models.game.RareGame.is</text>
<text text-anchor="middle" x="1141" y="-180.5" font-family="Helvetica,sans-Serif" font-size="10.00">_installed</text>
</a>
</g>
</g>
<!-- Node1&#45;&gt;Node15 -->
<g id="edge30" class="edge">
<title>Node1&#45;&gt;Node15</title>
<path fill="none" stroke="midnightblue" d="M1263.8,-188.5C1249.95,-188.5 1233.53,-188.5 1217.31,-188.5"/>
<polygon fill="midnightblue" stroke="midnightblue" points="1263.84,-192 1273.84,-188.5 1263.84,-185 1263.84,-192"/>
</g>
<!-- Node2&#45;&gt;Node2 -->
<g id="edge2" class="edge">
<title>Node2&#45;&gt;Node2</title>
<path fill="none" stroke="midnightblue" d="M741.51,-378.96C736.48,-383.68 722.98,-387 701,-387 664.93,-387 651.69,-378.06 661.27,-368.66"/>
<polygon fill="midnightblue" stroke="midnightblue" points="744.98,-378.37 740.73,-368.66 738,-378.89 744.98,-378.37"/>
</g>
<!-- Node3 -->
<g id="node3" class="node">
<title>Node3</title>
<g id="a_node3"><a xlink:href="classrare_1_1models_1_1game_1_1_rare_game.html#ab82459b9faa06688eab18988ab4024e6" target="_top" xlink:title=" ">
<polygon fill="white" stroke="black" points="379,-344 379,-363 552,-363 552,-344 379,-344"/>
<text text-anchor="middle" x="465.5" y="-351" font-family="Helvetica,sans-Serif" font-size="10.00">rare.models.game.RareGame.launch</text>
</a>
</g>
</g>
<!-- Node2&#45;&gt;Node3 -->
<g id="edge3" class="edge">
<title>Node2&#45;&gt;Node3</title>
<path fill="none" stroke="midnightblue" d="M610.72,-353.5C591.54,-353.5 571.32,-353.5 552.28,-353.5"/>
<polygon fill="midnightblue" stroke="midnightblue" points="610.95,-357 620.95,-353.5 610.95,-350 610.95,-357"/>
</g>
<!-- Node3&#45;&gt;Node3 -->
<g id="edge8" class="edge">
<title>Node3&#45;&gt;Node3</title>
<path fill="none" stroke="midnightblue" d="M503,-371C502.99,-376.84 490.49,-381.5 465.5,-381.5 429.95,-381.5 419.68,-372.07 434.67,-363.26"/>
<polygon fill="midnightblue" stroke="midnightblue" points="505.5,-368.55 496.33,-363.26 500.2,-373.12 505.5,-368.55"/>
</g>
<!-- Node4 -->
<g id="node4" class="node">
<title>Node4</title>
<g id="a_node4"><a xlink:href="classrare_1_1components_1_1dialogs_1_1launch__dialog_1_1_launch_dialog.html#aa3fe4f510c683950f9a38eb445106504" target="_top" xlink:title=" ">
<polygon fill="white" stroke="black" points="188,-338.5 188,-368.5 343,-368.5 343,-338.5 188,-338.5"/>
<text text-anchor="start" x="196" y="-356.5" font-family="Helvetica,sans-Serif" font-size="10.00">rare.components.dialogs.launch</text>
<text text-anchor="middle" x="265.5" y="-345.5" font-family="Helvetica,sans-Serif" font-size="10.00">_dialog.LaunchDialog.do_launch</text>
</a>
</g>
</g>
<!-- Node3&#45;&gt;Node4 -->
<g id="edge4" class="edge">
<title>Node3&#45;&gt;Node4</title>
<path fill="none" stroke="midnightblue" d="M368.8,-353.5C360.24,-353.5 351.66,-353.5 343.29,-353.5"/>
<polygon fill="midnightblue" stroke="midnightblue" points="368.81,-357 378.81,-353.5 368.81,-350 368.81,-357"/>
</g>
<!-- Node4&#45;&gt;Node4 -->
<g id="edge5" class="edge">
<title>Node4&#45;&gt;Node4</title>
<path fill="none" stroke="midnightblue" d="M298.91,-378.96C294.76,-383.68 283.62,-387 265.5,-387 235.76,-387 224.84,-378.06 232.74,-368.66"/>
<polygon fill="midnightblue" stroke="midnightblue" points="302.38,-378.42 298.26,-368.66 295.39,-378.86 302.38,-378.42"/>
</g>
<!-- Node5 -->
<g id="node5" class="node">
<title>Node5</title>
<g id="a_node5"><a xlink:href="classrare_1_1components_1_1dialogs_1_1launch__dialog_1_1_launch_dialog.html#a6c3ea5ef9b9848bf1214c66978e3d59d" target="_top" xlink:title=" ">
<polygon fill="white" stroke="black" points="0,-338.5 0,-368.5 152,-368.5 152,-338.5 0,-338.5"/>
<text text-anchor="start" x="8" y="-356.5" font-family="Helvetica,sans-Serif" font-size="10.00">rare.components.dialogs.launch</text>
<text text-anchor="middle" x="76" y="-345.5" font-family="Helvetica,sans-Serif" font-size="10.00">_dialog.LaunchDialog.login</text>
</a>
</g>
</g>
<!-- Node4&#45;&gt;Node5 -->
<g id="edge6" class="edge">
<title>Node4&#45;&gt;Node5</title>
<path fill="none" stroke="midnightblue" d="M177.9,-353.5C169.27,-353.5 160.57,-353.5 152.08,-353.5"/>
<polygon fill="midnightblue" stroke="midnightblue" points="177.97,-357 187.97,-353.5 177.97,-350 177.97,-357"/>
</g>
<!-- Node5&#45;&gt;Node5 -->
<g id="edge7" class="edge">
<title>Node5&#45;&gt;Node5</title>
<path fill="none" stroke="midnightblue" d="M109.41,-378.96C105.26,-383.68 94.12,-387 76,-387 46.26,-387 35.34,-378.06 43.24,-368.66"/>
<polygon fill="midnightblue" stroke="midnightblue" points="112.88,-378.42 108.76,-368.66 105.89,-378.86 112.88,-378.42"/>
</g>
<!-- Node6&#45;&gt;Node6 -->
<g id="edge10" class="edge">
<title>Node6&#45;&gt;Node6</title>
<path fill="none" stroke="midnightblue" d="M1170.49,-48.15C1169.26,-53.44 1159.43,-57.5 1141,-57.5 1112.92,-57.5 1104.8,-48.07 1116.65,-39.26"/>
<polygon fill="midnightblue" stroke="midnightblue" points="1173.39,-46.16 1165.35,-39.26 1167.32,-49.67 1173.39,-46.16"/>
</g>
<!-- Node7 -->
<g id="node7" class="node">
<title>Node7</title>
<g id="a_node7"><a xlink:href="classrare_1_1models_1_1game_1_1_rare_game.html#afb0966909d9062fa9eb0e80827694818" target="_top" xlink:title=" ">
<polygon fill="white" stroke="black" points="850,-0.5 850,-30.5 1008,-30.5 1008,-0.5 850,-0.5"/>
<text text-anchor="start" x="858" y="-18.5" font-family="Helvetica,sans-Serif" font-size="10.00">rare.models.game.RareGame.set</text>
<text text-anchor="middle" x="929" y="-7.5" font-family="Helvetica,sans-Serif" font-size="10.00">_origin_attributes</text>
</a>
</g>
</g>
<!-- Node6&#45;&gt;Node7 -->
<g id="edge11" class="edge">
<title>Node6&#45;&gt;Node7</title>
<path fill="none" stroke="midnightblue" d="M1033.77,-22.42C1025.13,-21.84 1016.5,-21.27 1008.11,-20.71"/>
<polygon fill="midnightblue" stroke="midnightblue" points="1033.7,-25.92 1043.91,-23.09 1034.17,-18.94 1033.7,-25.92"/>
</g>
<!-- Node7&#45;&gt;Node7 -->
<g id="edge12" class="edge">
<title>Node7&#45;&gt;Node7</title>
<path fill="none" stroke="midnightblue" d="M966.67,-40.96C961.99,-45.68 949.44,-49 929,-49 895.46,-49 883.15,-40.06 892.05,-30.66"/>
<polygon fill="midnightblue" stroke="midnightblue" points="970.14,-40.39 965.95,-30.66 963.16,-40.88 970.14,-40.39"/>
</g>
<!-- Node8&#45;&gt;Node7 -->
<g id="edge15" class="edge">
<title>Node8&#45;&gt;Node7</title>
<path fill="none" stroke="midnightblue" d="M1109.83,-98.56C1070.8,-80.53 1003.05,-49.24 962.79,-30.64"/>
<polygon fill="midnightblue" stroke="midnightblue" points="1108.55,-101.83 1119.1,-102.84 1111.49,-95.47 1108.55,-101.83"/>
</g>
<!-- Node8&#45;&gt;Node8 -->
<g id="edge14" class="edge">
<title>Node8&#45;&gt;Node8</title>
<path fill="none" stroke="midnightblue" d="M1170.49,-131.15C1169.26,-136.44 1159.43,-140.5 1141,-140.5 1112.92,-140.5 1104.8,-131.07 1116.65,-122.26"/>
<polygon fill="midnightblue" stroke="midnightblue" points="1173.39,-129.16 1165.35,-122.26 1167.32,-132.67 1173.39,-129.16"/>
</g>
<!-- Node9&#45;&gt;Node2 -->
<g id="edge17" class="edge">
<title>Node9&#45;&gt;Node2</title>
<path fill="none" stroke="midnightblue" d="M1121.62,-278.38C1098.43,-305.2 1055.79,-348.2 1008,-365.5 926.02,-395.18 823.49,-381.91 760.39,-368.54"/>
<polygon fill="midnightblue" stroke="midnightblue" points="1124.39,-280.52 1128.17,-270.62 1119.04,-276 1124.39,-280.52"/>
</g>
<!-- Node9&#45;&gt;Node9 -->
<g id="edge27" class="edge">
<title>Node9&#45;&gt;Node9</title>
<path fill="none" stroke="midnightblue" d="M1169.07,-280.96C1165.59,-285.68 1156.23,-289 1141,-289 1116,-289 1106.83,-280.06 1113.47,-270.66"/>
<polygon fill="midnightblue" stroke="midnightblue" points="1172.55,-280.46 1168.53,-270.66 1165.56,-280.83 1172.55,-280.46"/>
</g>
<!-- Node10 -->
<g id="node10" class="node">
<title>Node10</title>
<g id="a_node10"><a xlink:href="classrare_1_1models_1_1game_1_1_rare_eos_overlay.html#a490161fe09206c763886fa3a9528a8b5" target="_top" xlink:title=" ">
<polygon fill="white" stroke="black" points="863,-173.5 863,-203.5 995,-203.5 995,-173.5 863,-173.5"/>
<text text-anchor="start" x="871" y="-191.5" font-family="Helvetica,sans-Serif" font-size="10.00">rare.models.game.RareEos</text>
<text text-anchor="middle" x="929" y="-180.5" font-family="Helvetica,sans-Serif" font-size="10.00">Overlay.enable</text>
</a>
</g>
</g>
<!-- Node9&#45;&gt;Node10 -->
<g id="edge18" class="edge">
<title>Node9&#45;&gt;Node10</title>
<path fill="none" stroke="midnightblue" d="M1065.49,-237.78C1058.19,-235.77 1050.93,-233.67 1044,-231.5 1017.75,-223.3 988.77,-212.34 966.59,-203.54"/>
<polygon fill="midnightblue" stroke="midnightblue" points="1064.86,-241.23 1075.42,-240.45 1066.67,-234.47 1064.86,-241.23"/>
</g>
<!-- Node12 -->
<g id="node12" class="node">
<title>Node12</title>
<g id="a_node12"><a xlink:href="classrare_1_1models_1_1game_1_1_rare_eos_overlay.html#aae0820b518a5472343effc0dbeac6a1f" target="_top" xlink:title=" ">
<polygon fill="white" stroke="black" points="863,-106.5 863,-136.5 995,-136.5 995,-106.5 863,-106.5"/>
<text text-anchor="start" x="871" y="-124.5" font-family="Helvetica,sans-Serif" font-size="10.00">rare.models.game.RareEos</text>
<text text-anchor="middle" x="929" y="-113.5" font-family="Helvetica,sans-Serif" font-size="10.00">Overlay.install</text>
</a>
</g>
</g>
<!-- Node9&#45;&gt;Node12 -->
<g id="edge22" class="edge">
<title>Node9&#45;&gt;Node12</title>
<path fill="none" stroke="midnightblue" d="M1060.33,-241.37C1054.51,-238.64 1048.98,-235.38 1044,-231.5 1017.32,-210.74 1031.77,-188.53 1008,-164.5 996.58,-152.96 981.41,-143.65 967.48,-136.69"/>
<polygon fill="midnightblue" stroke="midnightblue" points="1059.1,-244.65 1069.67,-245.26 1061.79,-238.19 1059.1,-244.65"/>
</g>
<!-- Node13 -->
<g id="node13" class="node">
<title>Node13</title>
<g id="a_node13"><a xlink:href="classrare_1_1models_1_1game_1_1_rare_game.html#a446ff523b2db28f598f431a4614f4a96" target="_top" xlink:title="Property to report if a game doesn&#39;t belong to the current account.">
<polygon fill="white" stroke="black" points="853,-307.5 853,-337.5 1005,-337.5 1005,-307.5 853,-307.5"/>
<text text-anchor="start" x="861" y="-325.5" font-family="Helvetica,sans-Serif" font-size="10.00">rare.models.game.RareGame.is</text>
<text text-anchor="middle" x="929" y="-314.5" font-family="Helvetica,sans-Serif" font-size="10.00">_foreign</text>
</a>
</g>
</g>
<!-- Node9&#45;&gt;Node13 -->
<g id="edge24" class="edge">
<title>Node9&#45;&gt;Node13</title>
<path fill="none" stroke="midnightblue" d="M1085.03,-273.63C1061.35,-281.38 1033.34,-290.47 1008,-298.5 998.82,-301.41 989.01,-304.47 979.55,-307.39"/>
<polygon fill="midnightblue" stroke="midnightblue" points="1086.13,-276.95 1094.55,-270.51 1083.95,-270.3 1086.13,-276.95"/>
</g>
<!-- Node14 -->
<g id="node14" class="node">
<title>Node14</title>
<g id="a_node14"><a xlink:href="classrare_1_1models_1_1game_1_1_rare_eos_overlay.html#a57ae42bf2cdbf9fc08a1a94eaabaa93b" target="_top" xlink:title=" ">
<polygon fill="white" stroke="black" points="863,-240.5 863,-270.5 995,-270.5 995,-240.5 863,-240.5"/>
<text text-anchor="start" x="871" y="-258.5" font-family="Helvetica,sans-Serif" font-size="10.00">rare.models.game.RareEos</text>
<text text-anchor="middle" x="929" y="-247.5" font-family="Helvetica,sans-Serif" font-size="10.00">Overlay.uninstall</text>
</a>
</g>
</g>
<!-- Node9&#45;&gt;Node14 -->
<g id="edge28" class="edge">
<title>Node9&#45;&gt;Node14</title>
<path fill="none" stroke="midnightblue" d="M1059.76,-255.5C1038.42,-255.5 1015.62,-255.5 995.19,-255.5"/>
<polygon fill="midnightblue" stroke="midnightblue" points="1059.78,-259 1069.78,-255.5 1059.78,-252 1059.78,-259"/>
</g>
<!-- Node10&#45;&gt;Node10 -->
<g id="edge19" class="edge">
<title>Node10&#45;&gt;Node10</title>
<path fill="none" stroke="midnightblue" d="M966.67,-213.96C961.99,-218.68 949.44,-222 929,-222 895.46,-222 883.15,-213.06 892.05,-203.66"/>
<polygon fill="midnightblue" stroke="midnightblue" points="970.14,-213.39 965.95,-203.66 963.16,-213.88 970.14,-213.39"/>
</g>
<!-- Node11 -->
<g id="node11" class="node">
<title>Node11</title>
<g id="a_node11"><a xlink:href="classrare_1_1ui_1_1components_1_1tabs_1_1settings_1_1widgets_1_1discord__rpc_1_1_ui___discord_r_p_c_settings.html#a4bfd5c17309aaea7ec5625d3afa8f812" target="_top" xlink:title=" ">
<polygon fill="white" stroke="black" points="588,-173.5 588,-203.5 814,-203.5 814,-173.5 588,-173.5"/>
<text text-anchor="start" x="596" y="-191.5" font-family="Helvetica,sans-Serif" font-size="10.00">rare.ui.components.tabs.settings.widgets.discord</text>
<text text-anchor="middle" x="701" y="-180.5" font-family="Helvetica,sans-Serif" font-size="10.00">_rpc.Ui_DiscordRPCSettings.retranslateUi</text>
</a>
</g>
</g>
<!-- Node10&#45;&gt;Node11 -->
<g id="edge20" class="edge">
<title>Node10&#45;&gt;Node11</title>
<path fill="none" stroke="midnightblue" d="M852.73,-188.5C840.38,-188.5 827.34,-188.5 814.32,-188.5"/>
<polygon fill="midnightblue" stroke="midnightblue" points="852.93,-192 862.93,-188.5 852.93,-185 852.93,-192"/>
</g>
<!-- Node11&#45;&gt;Node11 -->
<g id="edge21" class="edge">
<title>Node11&#45;&gt;Node11</title>
<path fill="none" stroke="midnightblue" d="M741.51,-213.96C736.48,-218.68 722.98,-222 701,-222 664.93,-222 651.69,-213.06 661.27,-203.66"/>
<polygon fill="midnightblue" stroke="midnightblue" points="744.98,-213.37 740.73,-203.66 738,-213.89 744.98,-213.37"/>
</g>
<!-- Node12&#45;&gt;Node12 -->
<g id="edge23" class="edge">
<title>Node12&#45;&gt;Node12</title>
<path fill="none" stroke="midnightblue" d="M966.67,-146.96C961.99,-151.68 949.44,-155 929,-155 895.46,-155 883.15,-146.06 892.05,-136.66"/>
<polygon fill="midnightblue" stroke="midnightblue" points="970.14,-146.39 965.95,-136.66 963.16,-146.88 970.14,-146.39"/>
</g>
<!-- Node13&#45;&gt;Node2 -->
<g id="edge25" class="edge">
<title>Node13&#45;&gt;Node2</title>
<path fill="none" stroke="midnightblue" d="M842.65,-334.21C822.48,-336.97 801.06,-339.91 781.19,-342.64"/>
<polygon fill="midnightblue" stroke="midnightblue" points="843.31,-337.65 852.75,-332.82 842.36,-330.71 843.31,-337.65"/>
</g>
<!-- Node13&#45;&gt;Node13 -->
<g id="edge26" class="edge">
<title>Node13&#45;&gt;Node13</title>
<path fill="none" stroke="midnightblue" d="M966.67,-347.96C961.99,-352.68 949.44,-356 929,-356 895.46,-356 883.15,-347.06 892.05,-337.66"/>
<polygon fill="midnightblue" stroke="midnightblue" points="970.14,-347.39 965.95,-337.66 963.16,-347.88 970.14,-347.39"/>
</g>
<!-- Node14&#45;&gt;Node14 -->
<g id="edge29" class="edge">
<title>Node14&#45;&gt;Node14</title>
<path fill="none" stroke="midnightblue" d="M966.67,-280.96C961.99,-285.68 949.44,-289 929,-289 895.46,-289 883.15,-280.06 892.05,-270.66"/>
<polygon fill="midnightblue" stroke="midnightblue" points="970.14,-280.39 965.95,-270.66 963.16,-280.88 970.14,-280.39"/>
</g>
<!-- Node15&#45;&gt;Node2 -->
<g id="edge31" class="edge">
<title>Node15&#45;&gt;Node2</title>
<path fill="none" stroke="midnightblue" d="M1077.68,-169.35C1065.8,-164.05 1053.97,-157.49 1044,-149.5 1022.06,-131.92 1032.9,-110.55 1008,-97.5 945.8,-64.91 905.73,-54.77 850,-97.5 801.06,-135.02 843.7,-177.46 814,-231.5 789.62,-275.85 745.83,-316.88 720.84,-338.2"/>
<polygon fill="midnightblue" stroke="midnightblue" points="1076.61,-172.7 1087.19,-173.34 1079.32,-166.25 1076.61,-172.7"/>
</g>
<!-- Node15&#45;&gt;Node10 -->
<g id="edge32" class="edge">
<title>Node15&#45;&gt;Node10</title>
<path fill="none" stroke="midnightblue" d="M1054.55,-188.5C1034.78,-188.5 1014.06,-188.5 995.31,-188.5"/>
<polygon fill="midnightblue" stroke="midnightblue" points="1054.78,-192 1064.78,-188.5 1054.78,-185 1054.78,-192"/>
</g>
<!-- Node15&#45;&gt;Node12 -->
<g id="edge33" class="edge">
<title>Node15&#45;&gt;Node12</title>
<path fill="none" stroke="midnightblue" d="M1083.31,-170.41C1050.14,-159.83 1008.75,-146.62 977.33,-136.6"/>
<polygon fill="midnightblue" stroke="midnightblue" points="1082.28,-173.76 1092.87,-173.46 1084.41,-167.09 1082.28,-173.76"/>
</g>
<!-- Node15&#45;&gt;Node13 -->
<g id="edge34" class="edge">
<title>Node15&#45;&gt;Node13</title>
<path fill="none" stroke="midnightblue" d="M1080.46,-207.87C1067.43,-214 1054.44,-221.79 1044,-231.5 1019.25,-254.53 1034.11,-277.03 1008,-298.5 1003.84,-301.92 999.2,-304.85 994.31,-307.37"/>
<polygon fill="midnightblue" stroke="midnightblue" points="1082.18,-210.94 1089.91,-203.69 1079.35,-204.53 1082.18,-210.94"/>
</g>
<!-- Node15&#45;&gt;Node14 -->
<g id="edge36" class="edge">
<title>Node15&#45;&gt;Node14</title>
<path fill="none" stroke="midnightblue" d="M1085.03,-206.63C1061.35,-214.38 1033.34,-223.47 1008,-231.5 998.82,-234.41 989.01,-237.47 979.55,-240.39"/>
<polygon fill="midnightblue" stroke="midnightblue" points="1086.13,-209.95 1094.55,-203.51 1083.95,-203.3 1086.13,-209.95"/>
</g>
<!-- Node15&#45;&gt;Node15 -->
<g id="edge35" class="edge">
<title>Node15&#45;&gt;Node15</title>
<path fill="none" stroke="midnightblue" d="M1169.07,-213.96C1165.59,-218.68 1156.23,-222 1141,-222 1116,-222 1106.83,-213.06 1113.47,-203.66"/>
<polygon fill="midnightblue" stroke="midnightblue" points="1172.55,-213.46 1168.53,-203.66 1165.56,-213.83 1172.55,-213.46"/>
</g>
</g>
</svg>
        <g id="navigator" transform="translate(0 0)" fill="#404254">
                <rect fill="#f2f5e9" fill-opacity="0.5" stroke="#606060" stroke-width=".5" x="0" y="0" width="60" height="60"/>
                <use id="zoomplus" xlink:href="#zoomPlus" x="17" y="9" onmousedown="handleZoom(evt,'in')"/>
                <use id="zoomminus" xlink:href="#zoomMin" x="42" y="9" onmousedown="handleZoom(evt,'out')"/>
                <use id="reset" xlink:href="#resetDef" x="30" y="36" onmousedown="handleReset()"/>
                <g id="arrowUp" xlink:href="#dirArrow" transform="translate(30 24)" onmousedown="handlePan(0,-1)">
                  <use xlink:href="#rim" fill="#404040">
                        <set attributeName="fill" to="#808080" begin="arrowUp.mouseover" end="arrowUp.mouseout"/>
                  </use>
                  <path fill="none" stroke="white" stroke-width="1.5" d="M0,-3.0v7 M-2.5,-0.5L0,-3.0L2.5,-0.5"/>
                </g>
                <g id="arrowRight" xlink:href="#dirArrow" transform="rotate(90) translate(36 -43)" onmousedown="handlePan(1,0)">
                  <use xlink:href="#rim" fill="#404040">
                        <set attributeName="fill" to="#808080" begin="arrowRight.mouseover" end="arrowRight.mouseout"/>
                  </use>
                  <path fill="none" stroke="white" stroke-width="1.5" d="M0,-3.0v7 M-2.5,-0.5L0,-3.0L2.5,-0.5"/>
                </g>
                <g id="arrowDown" xlink:href="#dirArrow" transform="rotate(180) translate(-30 -48)" onmousedown="handlePan(0,1)">
                  <use xlink:href="#rim" fill="#404040">
                        <set attributeName="fill" to="#808080" begin="arrowDown.mouseover" end="arrowDown.mouseout"/>
                  </use>
                  <path fill="none" stroke="white" stroke-width="1.5" d="M0,-3.0v7 M-2.5,-0.5L0,-3.0L2.5,-0.5"/>
                </g>
                <g id="arrowLeft" xlink:href="#dirArrow" transform="rotate(270) translate(-36 17)" onmousedown="handlePan(-1,0)">
                  <use xlink:href="#rim" fill="#404040">
                        <set attributeName="fill" to="#808080" begin="arrowLeft.mouseover" end="arrowLeft.mouseout"/>
                  </use>
                  <path fill="none" stroke="white" stroke-width="1.5" d="M0,-3.0v7 M-2.5,-0.5L0,-3.0L2.5,-0.5"/>
                </g>
        </g>
        <svg viewBox="0 0 15 15" width="100%" height="30px" preserveAspectRatio="xMaxYMin meet">
         <g id="arrow_out" transform="scale(0.3 0.3)">
          <a xlink:href="classrare_1_1models_1_1base__game_1_1_rare_game_base_a278563422a00c7eb39dfc65d0b71f51a_icgraph_org.svg" target="_base">
           <rect id="button" ry="5" rx="5" y="6" x="6" height="38" width="38"
                fill="#f2f5e9" fill-opacity="0.5" stroke="#606060" stroke-width="1.0"/>
           <path id="arrow"
             d="M 11.500037,31.436501 C 11.940474,20.09759 22.043105,11.32322 32.158766,21.979434 L 37.068811,17.246167 C 37.068811,17.246167 37.088388,32 37.088388,32 L 22.160133,31.978069 C 22.160133,31.978069 26.997745,27.140456 26.997745,27.140456 C 18.528582,18.264221 13.291696,25.230495 11.500037,31.436501 z"
             style="fill:#404040;"/>
          </a>
         </g>
        </svg>
</svg>
