<?xml version="1.0" encoding="UTF-8" standalone="no"?>
<!DOCTYPE svg PUBLIC "-//W3C//DTD SVG 1.1//EN"
 "http://www.w3.org/Graphics/SVG/1.1/DTD/svg11.dtd">
<!-- Generated by graphviz version 2.49.3 (20211027.1534)
 -->
<!-- Title: platforms Pages: 1 -->
<!--zoomable 181 -->
<svg id="main" version="1.1" xmlns="http://www.w3.org/2000/svg" xmlns:xlink="http://www.w3.org/1999/xlink" xml:space="preserve" onload="init(evt)">
<style type="text/css"><![CDATA[
.edge:hover path { stroke: red; }
.edge:hover polygon { stroke: red; fill: red; }
]]></style>
<script type="text/javascript"><![CDATA[
var edges = document.getElementsByTagName('g');
if (edges && edges.length) {
  for (var i=0;i<edges.length;i++) {
    if (edges[i].id.substr(0,4)=='edge') {
      edges[i].setAttribute('class','edge');
    }
  }
}
]]></script>
        <defs>
                <circle id="rim" cx="0" cy="0" r="7"/>
                <circle id="rim2" cx="0" cy="0" r="3.5"/>
                <g id="zoomPlus">
                        <use xlink:href="#rim" fill="#404040">
                                <set attributeName="fill" to="#808080" begin="zoomplus.mouseover" end="zoomplus.mouseout"/>
                        </use>
                        <path d="M-4,0h8M0,-4v8" fill="none" stroke="white" stroke-width="1.5" pointer-events="none"/>
                </g>
                <g id="zoomMin">
                        <use xlink:href="#rim" fill="#404040">
                                <set attributeName="fill" to="#808080" begin="zoomminus.mouseover" end="zoomminus.mouseout"/>
                        </use>
                        <path d="M-4,0h8" fill="none" stroke="white" stroke-width="1.5" pointer-events="none"/>
                </g>
                <g id="dirArrow">
                        <path fill="none" stroke="white" stroke-width="1.5" d="M0,-3.0v7 M-2.5,-0.5L0,-3.0L2.5,-0.5"/>
                </g>
               <g id="resetDef">
                       <use xlink:href="#rim2" fill="#404040">
                               <set attributeName="fill" to="#808080" begin="reset.mouseover" end="reset.mouseout"/>
                       </use>
               </g>
        </defs>

<script type="text/javascript">
var viewWidth = 894;
var viewHeight = 181;
var sectionId = 'dynsection-30';
</script>
<script xlink:href="svgpan.js"/>
<svg id="graph" class="graph">
<g id="viewport">
<title>platforms</title>
<polygon fill="white" stroke="transparent" points="-4,4 -4,-177 890.44,-177 890.44,4 -4,4"/>
<!-- Node1 -->
<g id="node1" class="node">
<title>Node1</title>
<g id="a_node1"><a xlink:title="Property that holds the platforms a game is available for.">
<polygon fill="#bfbfbf" stroke="black" points="828,-37 828,-56 885,-56 885,-37 828,-37"/>
<text text-anchor="middle" x="856.5" y="-44" font-family="Helvetica,sans-Serif" font-size="10.00">platforms</text>
</a>
</g>
</g>
<!-- Node1&#45;&gt;Node1 -->
<g id="edge11" class="edge">
<title>Node1&#45;&gt;Node1</title>
<path fill="none" stroke="midnightblue" d="M886.44,-64.77C885.59,-70.24 875.61,-74.5 856.5,-74.5 828.06,-74.5 819.84,-65.07 831.84,-56.26"/>
<polygon fill="midnightblue" stroke="midnightblue" points="889.4,-62.91 881.16,-56.26 883.45,-66.6 889.4,-62.91"/>
</g>
<!-- Node2 -->
<g id="node2" class="node">
<title>Node2</title>
<g id="a_node2"><a xlink:href="classrare_1_1models_1_1base__game_1_1_rare_game_base.html#a3ae4fe315e7d530f77daf1e8d63468e3" target="_top" xlink:title=" ">
<polygon fill="white" stroke="black" points="653,-68 653,-87 739,-87 739,-68 653,-68"/>
<text text-anchor="middle" x="696" y="-75" font-family="Helvetica,sans-Serif" font-size="10.00">default_platform</text>
</a>
</g>
</g>
<!-- Node1&#45;&gt;Node2 -->
<g id="edge1" class="edge">
<title>Node1&#45;&gt;Node2</title>
<path fill="none" stroke="midnightblue" d="M817.89,-53.86C794.23,-58.48 763.67,-64.46 739.19,-69.25"/>
<polygon fill="midnightblue" stroke="midnightblue" points="818.75,-57.25 827.89,-51.9 817.41,-50.38 818.75,-57.25"/>
</g>
<!-- Node7 -->
<g id="node7" class="node">
<title>Node7</title>
<g id="a_node7"><a xlink:href="classrare_1_1components_1_1tabs_1_1settings_1_1legendary_1_1_refresh_game_meta_worker.html#af7b7791c46880f0718ec315e290a9f28" target="_top" xlink:title=" ">
<polygon fill="white" stroke="black" points="600,-0.5 600,-30.5 792,-30.5 792,-0.5 600,-0.5"/>
<text text-anchor="start" x="608" y="-18.5" font-family="Helvetica,sans-Serif" font-size="10.00">rare.components.tabs.settings.legendary.</text>
<text text-anchor="middle" x="696" y="-7.5" font-family="Helvetica,sans-Serif" font-size="10.00">RefreshGameMetaWorker.run_real</text>
</a>
</g>
</g>
<!-- Node1&#45;&gt;Node7 -->
<g id="edge12" class="edge">
<title>Node1&#45;&gt;Node7</title>
<path fill="none" stroke="midnightblue" d="M817.8,-39.13C804.6,-36.54 789.24,-33.54 774,-30.56"/>
<polygon fill="midnightblue" stroke="midnightblue" points="817.41,-42.62 827.89,-41.1 818.75,-35.75 817.41,-42.62"/>
</g>
<!-- Node2&#45;&gt;Node2 -->
<g id="edge2" class="edge">
<title>Node2&#45;&gt;Node2</title>
<path fill="none" stroke="midnightblue" d="M725.94,-95.77C725.09,-101.24 715.11,-105.5 696,-105.5 667.56,-105.5 659.34,-96.07 671.34,-87.26"/>
<polygon fill="midnightblue" stroke="midnightblue" points="728.9,-93.91 720.66,-87.26 722.95,-97.6 728.9,-93.91"/>
</g>
<!-- Node3 -->
<g id="node3" class="node">
<title>Node3</title>
<g id="a_node3"><a xlink:href="classrare_1_1models_1_1game_1_1_rare_game.html#adf94568f84b36f0c783d76df96936a8b" target="_top" xlink:title="Property to report the remote version of an InstalledGame.">
<polygon fill="white" stroke="black" points="390,-124.5 390,-154.5 564,-154.5 564,-124.5 390,-124.5"/>
<text text-anchor="start" x="398" y="-142.5" font-family="Helvetica,sans-Serif" font-size="10.00">rare.models.game.RareGame.remote</text>
<text text-anchor="middle" x="477" y="-131.5" font-family="Helvetica,sans-Serif" font-size="10.00">_version</text>
</a>
</g>
</g>
<!-- Node2&#45;&gt;Node3 -->
<g id="edge3" class="edge">
<title>Node2&#45;&gt;Node3</title>
<path fill="none" stroke="midnightblue" d="M651.72,-89.87C616.95,-99.8 567.99,-113.79 530.91,-124.38"/>
<polygon fill="midnightblue" stroke="midnightblue" points="652.92,-93.16 661.57,-87.05 650.99,-86.43 652.92,-93.16"/>
</g>
<!-- Node6 -->
<g id="node6" class="node">
<title>Node6</title>
<g id="a_node6"><a xlink:href="classrare_1_1models_1_1base__game_1_1_rare_game_base.html#a1e436b61f937ea687fa3897d286899cf" target="_top" xlink:title="Reports the currently installed version of the Game.">
<polygon fill="white" stroke="black" points="453,-68 453,-87 501,-87 501,-68 453,-68"/>
<text text-anchor="middle" x="477" y="-75" font-family="Helvetica,sans-Serif" font-size="10.00">version</text>
</a>
</g>
</g>
<!-- Node2&#45;&gt;Node6 -->
<g id="edge9" class="edge">
<title>Node2&#45;&gt;Node6</title>
<path fill="none" stroke="midnightblue" d="M642.73,-77.5C597.69,-77.5 534.8,-77.5 501.25,-77.5"/>
<polygon fill="midnightblue" stroke="midnightblue" points="642.9,-81 652.9,-77.5 642.9,-74 642.9,-81"/>
</g>
<!-- Node3&#45;&gt;Node3 -->
<g id="edge8" class="edge">
<title>Node3&#45;&gt;Node3</title>
<path fill="none" stroke="midnightblue" d="M512.89,-164.96C508.44,-169.68 496.47,-173 477,-173 445.04,-173 433.31,-164.06 441.8,-154.66"/>
<polygon fill="midnightblue" stroke="midnightblue" points="516.36,-164.4 512.2,-154.66 509.38,-164.87 516.36,-164.4"/>
</g>
<!-- Node4 -->
<g id="node4" class="node">
<title>Node4</title>
<g id="a_node4"><a xlink:href="classrare_1_1models_1_1game_1_1_rare_game.html#a1e914552c775e095849d4c5e6e6840bd" target="_top" xlink:title="Property to report if an InstalledGame has updates available.">
<polygon fill="white" stroke="black" points="194,-124.5 194,-154.5 354,-154.5 354,-124.5 194,-124.5"/>
<text text-anchor="start" x="202" y="-142.5" font-family="Helvetica,sans-Serif" font-size="10.00">rare.models.game.RareGame.has</text>
<text text-anchor="middle" x="274" y="-131.5" font-family="Helvetica,sans-Serif" font-size="10.00">_update</text>
</a>
</g>
</g>
<!-- Node3&#45;&gt;Node4 -->
<g id="edge4" class="edge">
<title>Node3&#45;&gt;Node4</title>
<path fill="none" stroke="midnightblue" d="M379.85,-139.5C371.28,-139.5 362.67,-139.5 354.26,-139.5"/>
<polygon fill="midnightblue" stroke="midnightblue" points="379.88,-143 389.88,-139.5 379.88,-136 379.88,-143"/>
</g>
<!-- Node4&#45;&gt;Node4 -->
<g id="edge5" class="edge">
<title>Node4&#45;&gt;Node4</title>
<path fill="none" stroke="midnightblue" d="M308.47,-164.96C304.19,-169.68 292.7,-173 274,-173 243.31,-173 232.04,-164.06 240.19,-154.66"/>
<polygon fill="midnightblue" stroke="midnightblue" points="311.94,-164.41 307.81,-154.66 304.96,-164.86 311.94,-164.41"/>
</g>
<!-- Node5 -->
<g id="node5" class="node">
<title>Node5</title>
<g id="a_node5"><a xlink:href="classrare_1_1models_1_1game_1_1_rare_game.html#a590836cea8227c1cb3994dabf184ecab" target="_top" xlink:title="Sets the installation status of a game.">
<polygon fill="white" stroke="black" points="0,-124.5 0,-154.5 158,-154.5 158,-124.5 0,-124.5"/>
<text text-anchor="start" x="8" y="-142.5" font-family="Helvetica,sans-Serif" font-size="10.00">rare.models.game.RareGame.set</text>
<text text-anchor="middle" x="79" y="-131.5" font-family="Helvetica,sans-Serif" font-size="10.00">_installed</text>
</a>
</g>
</g>
<!-- Node4&#45;&gt;Node5 -->
<g id="edge6" class="edge">
<title>Node4&#45;&gt;Node5</title>
<path fill="none" stroke="midnightblue" d="M183.67,-139.5C175.2,-139.5 166.66,-139.5 158.31,-139.5"/>
<polygon fill="midnightblue" stroke="midnightblue" points="183.94,-143 193.94,-139.5 183.94,-136 183.94,-143"/>
</g>
<!-- Node5&#45;&gt;Node5 -->
<g id="edge7" class="edge">
<title>Node5&#45;&gt;Node5</title>
<path fill="none" stroke="midnightblue" d="M113.47,-164.96C109.19,-169.68 97.7,-173 79,-173 48.31,-173 37.04,-164.06 45.19,-154.66"/>
<polygon fill="midnightblue" stroke="midnightblue" points="116.94,-164.41 112.81,-154.66 109.96,-164.86 116.94,-164.41"/>
</g>
<!-- Node6&#45;&gt;Node6 -->
<g id="edge10" class="edge">
<title>Node6&#45;&gt;Node6</title>
<path fill="none" stroke="midnightblue" d="M510.2,-88.57C522.19,-96.98 511.12,-105.5 477,-105.5 436.56,-105.5 428.5,-93.53 452.83,-83.97"/>
<polygon fill="midnightblue" stroke="midnightblue" points="511.67,-85.39 501.17,-83.97 508.49,-91.63 511.67,-85.39"/>
</g>
<!-- Node7&#45;&gt;Node7 -->
<g id="edge15" class="edge">
<title>Node7&#45;&gt;Node7</title>
<path fill="none" stroke="midnightblue" d="M724.43,-40.96C720.9,-45.68 711.42,-49 696,-49 670.69,-49 661.39,-40.06 668.12,-30.66"/>
<polygon fill="midnightblue" stroke="midnightblue" points="727.91,-40.46 723.88,-30.66 720.92,-40.83 727.91,-40.46"/>
</g>
<!-- Node8 -->
<g id="node8" class="node">
<title>Node8</title>
<g id="a_node8"><a xlink:href="classrare_1_1shared_1_1workers_1_1worker_1_1_worker.html#ad22709b2e67308af35f55680d5a026e0" target="_top" xlink:title=" ">
<polygon fill="white" stroke="black" points="409.5,-0.5 409.5,-30.5 544.5,-30.5 544.5,-0.5 409.5,-0.5"/>
<text text-anchor="start" x="417.5" y="-18.5" font-family="Helvetica,sans-Serif" font-size="10.00">rare.shared.workers.worker.</text>
<text text-anchor="middle" x="477" y="-7.5" font-family="Helvetica,sans-Serif" font-size="10.00">Worker.run</text>
</a>
</g>
</g>
<!-- Node7&#45;&gt;Node8 -->
<g id="edge13" class="edge">
<title>Node7&#45;&gt;Node8</title>
<path fill="none" stroke="midnightblue" d="M589.78,-15.5C574.45,-15.5 559.04,-15.5 544.77,-15.5"/>
<polygon fill="midnightblue" stroke="midnightblue" points="589.82,-19 599.82,-15.5 589.82,-12 589.82,-19"/>
</g>
<!-- Node8&#45;&gt;Node8 -->
<g id="edge14" class="edge">
<title>Node8&#45;&gt;Node8</title>
<path fill="none" stroke="midnightblue" d="M512.89,-40.96C508.44,-45.68 496.47,-49 477,-49 445.04,-49 433.31,-40.06 441.8,-30.66"/>
<polygon fill="midnightblue" stroke="midnightblue" points="516.36,-40.4 512.2,-30.66 509.38,-40.87 516.36,-40.4"/>
</g>
</g>
</svg>
        <g id="navigator" transform="translate(0 0)" fill="#404254">
                <rect fill="#f2f5e9" fill-opacity="0.5" stroke="#606060" stroke-width=".5" x="0" y="0" width="60" height="60"/>
                <use id="zoomplus" xlink:href="#zoomPlus" x="17" y="9" onmousedown="handleZoom(evt,'in')"/>
                <use id="zoomminus" xlink:href="#zoomMin" x="42" y="9" onmousedown="handleZoom(evt,'out')"/>
                <use id="reset" xlink:href="#resetDef" x="30" y="36" onmousedown="handleReset()"/>
                <g id="arrowUp" xlink:href="#dirArrow" transform="translate(30 24)" onmousedown="handlePan(0,-1)">
                  <use xlink:href="#rim" fill="#404040">
                        <set attributeName="fill" to="#808080" begin="arrowUp.mouseover" end="arrowUp.mouseout"/>
                  </use>
                  <path fill="none" stroke="white" stroke-width="1.5" d="M0,-3.0v7 M-2.5,-0.5L0,-3.0L2.5,-0.5"/>
                </g>
                <g id="arrowRight" xlink:href="#dirArrow" transform="rotate(90) translate(36 -43)" onmousedown="handlePan(1,0)">
                  <use xlink:href="#rim" fill="#404040">
                        <set attributeName="fill" to="#808080" begin="arrowRight.mouseover" end="arrowRight.mouseout"/>
                  </use>
                  <path fill="none" stroke="white" stroke-width="1.5" d="M0,-3.0v7 M-2.5,-0.5L0,-3.0L2.5,-0.5"/>
                </g>
                <g id="arrowDown" xlink:href="#dirArrow" transform="rotate(180) translate(-30 -48)" onmousedown="handlePan(0,1)">
                  <use xlink:href="#rim" fill="#404040">
                        <set attributeName="fill" to="#808080" begin="arrowDown.mouseover" end="arrowDown.mouseout"/>
                  </use>
                  <path fill="none" stroke="white" stroke-width="1.5" d="M0,-3.0v7 M-2.5,-0.5L0,-3.0L2.5,-0.5"/>
                </g>
                <g id="arrowLeft" xlink:href="#dirArrow" transform="rotate(270) translate(-36 17)" onmousedown="handlePan(-1,0)">
                  <use xlink:href="#rim" fill="#404040">
                        <set attributeName="fill" to="#808080" begin="arrowLeft.mouseover" end="arrowLeft.mouseout"/>
                  </use>
                  <path fill="none" stroke="white" stroke-width="1.5" d="M0,-3.0v7 M-2.5,-0.5L0,-3.0L2.5,-0.5"/>
                </g>
        </g>
        <svg viewBox="0 0 15 15" width="100%" height="30px" preserveAspectRatio="xMaxYMin meet">
         <g id="arrow_out" transform="scale(0.3 0.3)">
          <a xlink:href="classrare_1_1models_1_1base__game_1_1_rare_game_base_a030a686885e9e90bfbcd7f7f61fa318b_icgraph_org.svg" target="_base">
           <rect id="button" ry="5" rx="5" y="6" x="6" height="38" width="38"
                fill="#f2f5e9" fill-opacity="0.5" stroke="#606060" stroke-width="1.0"/>
           <path id="arrow"
             d="M 11.500037,31.436501 C 11.940474,20.09759 22.043105,11.32322 32.158766,21.979434 L 37.068811,17.246167 C 37.068811,17.246167 37.088388,32 37.088388,32 L 22.160133,31.978069 C 22.160133,31.978069 26.997745,27.140456 26.997745,27.140456 C 18.528582,18.264221 13.291696,25.230495 11.500037,31.436501 z"
             style="fill:#404040;"/>
          </a>
         </g>
        </svg>
</svg>
