<?xml version="1.0" encoding="UTF-8" standalone="no"?>
<!DOCTYPE svg PUBLIC "-//W3C//DTD SVG 1.1//EN"
 "http://www.w3.org/Graphics/SVG/1.1/DTD/svg11.dtd">
<!-- Generated by graphviz version 2.49.3 (20211027.1534)
 -->
<!-- Title: doLayout Pages: 1 -->
<svg width="465pt" height="258pt"
 viewBox="0.00 0.00 465.00 258.00" xmlns="http://www.w3.org/2000/svg" xmlns:xlink="http://www.w3.org/1999/xlink">
<g id="graph0" class="graph" transform="scale(1 1) rotate(0) translate(4 254)">
<title>doLayout</title>
<polygon fill="white" stroke="transparent" points="-4,4 -4,-254 461,-254 461,4 -4,4"/>
<!-- Node1 -->
<g id="node1" class="node">
<title>Node1</title>
<g id="a_node1"><a xlink:title=" ">
<polygon fill="#bfbfbf" stroke="black" points="401,-137 401,-156 457,-156 457,-137 401,-137"/>
<text text-anchor="middle" x="429" y="-144" font-family="Helvetica,sans-Serif" font-size="10.00">doLayout</text>
</a>
</g>
</g>
<!-- Node1&#45;&gt;Node1 -->
<g id="edge1" class="edge">
<title>Node1&#45;&gt;Node1</title>
<path fill="none" stroke="midnightblue" d="M456.25,-165.15C455.11,-170.44 446.03,-174.5 429,-174.5 403.05,-174.5 395.55,-165.07 406.5,-156.26"/>
<polygon fill="midnightblue" stroke="midnightblue" points="459.3,-163.43 451.5,-156.26 453.12,-166.73 459.3,-163.43"/>
</g>
<!-- Node2 -->
<g id="node2" class="node">
<title>Node2</title>
<g id="a_node2"><a xlink:href="classrare_1_1widgets_1_1flow__layout_1_1_flow_layout.html#a79a95bc3b25357794eb45d452b5fa4c6" target="_top" xlink:title=" ">
<polygon fill="white" stroke="black" points="241,-199 241,-218 323,-218 323,-199 241,-199"/>
<text text-anchor="middle" x="282" y="-206" font-family="Helvetica,sans-Serif" font-size="10.00">heightForWidth</text>
</a>
</g>
</g>
<!-- Node1&#45;&gt;Node2 -->
<g id="edge2" class="edge">
<title>Node1&#45;&gt;Node2</title>
<path fill="none" stroke="midnightblue" d="M408.79,-162.4C396.85,-171.54 380.81,-182.57 365,-189.5 351.88,-195.25 336.79,-199.38 323.16,-202.29"/>
<polygon fill="midnightblue" stroke="midnightblue" points="411.02,-165.09 416.7,-156.15 406.69,-159.6 411.02,-165.09"/>
</g>
<!-- Node3 -->
<g id="node3" class="node">
<title>Node3</title>
<g id="a_node3"><a xlink:href="classrare_1_1widgets_1_1flow__layout_1_1_flow_layout.html#af87928df2c164a948da59b9e41bcc8e3" target="_top" xlink:title=" ">
<polygon fill="white" stroke="black" points="246,-75 246,-94 318,-94 318,-75 246,-75"/>
<text text-anchor="middle" x="282" y="-82" font-family="Helvetica,sans-Serif" font-size="10.00">setGeometry</text>
</a>
</g>
</g>
<!-- Node1&#45;&gt;Node3 -->
<g id="edge4" class="edge">
<title>Node1&#45;&gt;Node3</title>
<path fill="none" stroke="midnightblue" d="M396.13,-132.87C368.74,-121.16 329.91,-104.56 305.6,-94.16"/>
<polygon fill="midnightblue" stroke="midnightblue" points="395.09,-136.23 405.66,-136.95 397.84,-129.8 395.09,-136.23"/>
</g>
<!-- Node8 -->
<g id="node8" class="node">
<title>Node8</title>
<g id="a_node8"><a xlink:href="classrare_1_1widgets_1_1library__layout_1_1_library_layout.html#af87928df2c164a948da59b9e41bcc8e3" target="_top" xlink:title=" ">
<polygon fill="white" stroke="black" points="199,-131.5 199,-161.5 365,-161.5 365,-131.5 199,-131.5"/>
<text text-anchor="start" x="207" y="-149.5" font-family="Helvetica,sans-Serif" font-size="10.00">rare.widgets.library</text>
<text text-anchor="middle" x="282" y="-138.5" font-family="Helvetica,sans-Serif" font-size="10.00">_layout.LibraryLayout.setGeometry</text>
</a>
</g>
</g>
<!-- Node1&#45;&gt;Node8 -->
<g id="edge14" class="edge">
<title>Node1&#45;&gt;Node8</title>
<path fill="none" stroke="midnightblue" d="M390.49,-146.5C382.61,-146.5 374.01,-146.5 365.22,-146.5"/>
<polygon fill="midnightblue" stroke="midnightblue" points="390.73,-150 400.73,-146.5 390.73,-143 390.73,-150"/>
</g>
<!-- Node2&#45;&gt;Node2 -->
<g id="edge3" class="edge">
<title>Node2&#45;&gt;Node2</title>
<path fill="none" stroke="midnightblue" d="M309.25,-227.15C308.11,-232.44 299.03,-236.5 282,-236.5 256.05,-236.5 248.55,-227.07 259.5,-218.26"/>
<polygon fill="midnightblue" stroke="midnightblue" points="312.3,-225.43 304.5,-218.26 306.12,-228.73 312.3,-225.43"/>
</g>
<!-- Node3&#45;&gt;Node3 -->
<g id="edge11" class="edge">
<title>Node3&#45;&gt;Node3</title>
<path fill="none" stroke="midnightblue" d="M309.25,-103.15C308.11,-108.44 299.03,-112.5 282,-112.5 256.05,-112.5 248.55,-103.07 259.5,-94.26"/>
<polygon fill="midnightblue" stroke="midnightblue" points="312.3,-101.43 304.5,-94.26 306.12,-104.73 312.3,-101.43"/>
</g>
<!-- Node4 -->
<g id="node4" class="node">
<title>Node4</title>
<g id="a_node4"><a xlink:href="classrare_1_1game__launch__helper_1_1console_1_1_console.html#a39d165427992dd2720f91929a88cde17" target="_top" xlink:title=" ">
<polygon fill="white" stroke="black" points="0,-67.5 0,-97.5 163,-97.5 163,-67.5 0,-67.5"/>
<text text-anchor="start" x="8" y="-85.5" font-family="Helvetica,sans-Serif" font-size="10.00">rare.game_launch_helper.console.</text>
<text text-anchor="middle" x="81.5" y="-74.5" font-family="Helvetica,sans-Serif" font-size="10.00">Console.__init__</text>
</a>
</g>
</g>
<!-- Node3&#45;&gt;Node4 -->
<g id="edge5" class="edge">
<title>Node3&#45;&gt;Node4</title>
<path fill="none" stroke="midnightblue" d="M235.85,-84.05C214.38,-83.83 188.05,-83.56 163.31,-83.31"/>
<polygon fill="midnightblue" stroke="midnightblue" points="235.93,-87.55 245.97,-84.15 236,-80.55 235.93,-87.55"/>
</g>
<!-- Node5 -->
<g id="node5" class="node">
<title>Node5</title>
<g id="a_node5"><a xlink:href="classrare_1_1widgets_1_1library__layout_1_1_library_layout.html#af9a665960a2cd6b746e70425d7486124" target="_top" xlink:title=" ">
<polygon fill="white" stroke="black" points="14.5,-0.5 14.5,-30.5 148.5,-30.5 148.5,-0.5 14.5,-0.5"/>
<text text-anchor="start" x="22.5" y="-18.5" font-family="Helvetica,sans-Serif" font-size="10.00">rare.widgets.library</text>
<text text-anchor="middle" x="81.5" y="-7.5" font-family="Helvetica,sans-Serif" font-size="10.00">_layout.LibraryLayout.insert</text>
</a>
</g>
</g>
<!-- Node3&#45;&gt;Node5 -->
<g id="edge7" class="edge">
<title>Node3&#45;&gt;Node5</title>
<path fill="none" stroke="midnightblue" d="M243.55,-71.48C210.08,-59.85 161.05,-42.81 125.89,-30.58"/>
<polygon fill="midnightblue" stroke="midnightblue" points="242.8,-74.93 253.4,-74.91 245.1,-68.32 242.8,-74.93"/>
</g>
<!-- Node6 -->
<g id="node6" class="node">
<title>Node6</title>
<g id="a_node6"><a xlink:href="classrare_1_1widgets_1_1library__layout_1_1_library_layout.html#a0c76d6c4aeb4752c64514fdb40f8f817" target="_top" xlink:title=" ">
<polygon fill="white" stroke="black" points="10,-201.5 10,-231.5 153,-231.5 153,-201.5 10,-201.5"/>
<text text-anchor="start" x="18" y="-219.5" font-family="Helvetica,sans-Serif" font-size="10.00">rare.widgets.library</text>
<text text-anchor="middle" x="81.5" y="-208.5" font-family="Helvetica,sans-Serif" font-size="10.00">_layout.LibraryLayout.remove</text>
</a>
</g>
</g>
<!-- Node3&#45;&gt;Node6 -->
<g id="edge9" class="edge">
<title>Node3&#45;&gt;Node6</title>
<path fill="none" stroke="midnightblue" d="M237.2,-97.84C223.77,-103.52 209.72,-111.25 199,-121.5 173.42,-145.94 190.16,-169.83 163,-192.5 158.86,-195.96 154.23,-198.92 149.35,-201.45"/>
<polygon fill="midnightblue" stroke="midnightblue" points="238.79,-100.98 246.82,-94.06 236.23,-94.46 238.79,-100.98"/>
</g>
<!-- Node7 -->
<g id="node7" class="node">
<title>Node7</title>
<g id="a_node7"><a xlink:href="classrare_1_1widgets_1_1library__layout_1_1_library_layout.html#ac9632f6438f5820ccb6a0b04991a4e7d" target="_top" xlink:title=" ">
<polygon fill="white" stroke="black" points="18,-134.5 18,-164.5 145,-164.5 145,-134.5 18,-134.5"/>
<text text-anchor="start" x="26" y="-152.5" font-family="Helvetica,sans-Serif" font-size="10.00">rare.widgets.library</text>
<text text-anchor="middle" x="81.5" y="-141.5" font-family="Helvetica,sans-Serif" font-size="10.00">_layout.LibraryLayout.sort</text>
</a>
</g>
</g>
<!-- Node3&#45;&gt;Node7 -->
<g id="edge12" class="edge">
<title>Node3&#45;&gt;Node7</title>
<path fill="none" stroke="midnightblue" d="M243.95,-97.33C220.74,-105.3 190.18,-115.67 163,-124.5 152.84,-127.8 141.93,-131.25 131.52,-134.5"/>
<polygon fill="midnightblue" stroke="midnightblue" points="245.09,-100.64 253.41,-94.08 242.82,-94.02 245.09,-100.64"/>
</g>
<!-- Node4&#45;&gt;Node4 -->
<g id="edge6" class="edge">
<title>Node4&#45;&gt;Node4</title>
<path fill="none" stroke="midnightblue" d="M117.04,-107.96C112.63,-112.68 100.78,-116 81.5,-116 49.86,-116 38.24,-107.06 46.65,-97.66"/>
<polygon fill="midnightblue" stroke="midnightblue" points="120.51,-107.41 116.35,-97.66 113.52,-107.87 120.51,-107.41"/>
</g>
<!-- Node5&#45;&gt;Node5 -->
<g id="edge8" class="edge">
<title>Node5&#45;&gt;Node5</title>
<path fill="none" stroke="midnightblue" d="M117.04,-40.96C112.63,-45.68 100.78,-49 81.5,-49 49.86,-49 38.24,-40.06 46.65,-30.66"/>
<polygon fill="midnightblue" stroke="midnightblue" points="120.51,-40.41 116.35,-30.66 113.52,-40.87 120.51,-40.41"/>
</g>
<!-- Node6&#45;&gt;Node6 -->
<g id="edge10" class="edge">
<title>Node6&#45;&gt;Node6</title>
<path fill="none" stroke="midnightblue" d="M117.04,-241.96C112.63,-246.68 100.78,-250 81.5,-250 49.86,-250 38.24,-241.06 46.65,-231.66"/>
<polygon fill="midnightblue" stroke="midnightblue" points="120.51,-241.41 116.35,-231.66 113.52,-241.87 120.51,-241.41"/>
</g>
<!-- Node7&#45;&gt;Node7 -->
<g id="edge13" class="edge">
<title>Node7&#45;&gt;Node7</title>
<path fill="none" stroke="midnightblue" d="M117.04,-174.96C112.63,-179.68 100.78,-183 81.5,-183 49.86,-183 38.24,-174.06 46.65,-164.66"/>
<polygon fill="midnightblue" stroke="midnightblue" points="120.51,-174.41 116.35,-164.66 113.52,-174.87 120.51,-174.41"/>
</g>
<!-- Node8&#45;&gt;Node4 -->
<g id="edge15" class="edge">
<title>Node8&#45;&gt;Node4</title>
<path fill="none" stroke="midnightblue" d="M220.71,-128.32C213.39,-126.05 206.02,-123.74 199,-121.5 174.93,-113.8 148.18,-104.87 126.39,-97.5"/>
<polygon fill="midnightblue" stroke="midnightblue" points="220.04,-131.78 230.63,-131.38 222.1,-125.09 220.04,-131.78"/>
</g>
<!-- Node8&#45;&gt;Node5 -->
<g id="edge16" class="edge">
<title>Node8&#45;&gt;Node5</title>
<path fill="none" stroke="midnightblue" d="M205.55,-126.19C203.27,-124.73 201.08,-123.17 199,-121.5 173.57,-101.05 186.44,-80.21 163,-57.5 151.45,-46.31 136.33,-37.37 122.31,-30.66"/>
<polygon fill="midnightblue" stroke="midnightblue" points="204.26,-129.48 214.7,-131.31 207.68,-123.37 204.26,-129.48"/>
</g>
<!-- Node8&#45;&gt;Node6 -->
<g id="edge17" class="edge">
<title>Node8&#45;&gt;Node6</title>
<path fill="none" stroke="midnightblue" d="M235.29,-165.33C213.55,-174.02 187.09,-184.23 163,-192.5 154.03,-195.58 144.43,-198.64 135.09,-201.5"/>
<polygon fill="midnightblue" stroke="midnightblue" points="236.64,-168.56 244.61,-161.58 234.03,-162.06 236.64,-168.56"/>
</g>
<!-- Node8&#45;&gt;Node7 -->
<g id="edge19" class="edge">
<title>Node8&#45;&gt;Node7</title>
<path fill="none" stroke="midnightblue" d="M188.69,-147.9C173.96,-148.12 159.04,-148.34 145.21,-148.55"/>
<polygon fill="midnightblue" stroke="midnightblue" points="188.88,-151.39 198.83,-147.74 188.78,-144.39 188.88,-151.39"/>
</g>
<!-- Node8&#45;&gt;Node8 -->
<g id="edge18" class="edge">
<title>Node8&#45;&gt;Node8</title>
<path fill="none" stroke="midnightblue" d="M307.94,-171.96C304.72,-176.68 296.08,-180 282,-180 258.9,-180 250.42,-171.06 256.56,-161.66"/>
<polygon fill="midnightblue" stroke="midnightblue" points="311.42,-171.48 307.44,-161.66 304.43,-171.82 311.42,-171.48"/>
</g>
</g>
</svg>
