<?xml version="1.0" encoding="UTF-8" standalone="no"?>
<!DOCTYPE svg PUBLIC "-//W3C//DTD SVG 1.1//EN"
 "http://www.w3.org/Graphics/SVG/1.1/DTD/svg11.dtd">
<!-- Generated by graphviz version 2.49.3 (20211027.1534)
 -->
<!-- Title: __init__ Pages: 1 -->
<svg width="243pt" height="124pt"
 viewBox="0.00 0.00 243.41 124.00" xmlns="http://www.w3.org/2000/svg" xmlns:xlink="http://www.w3.org/1999/xlink">
<g id="graph0" class="graph" transform="scale(1 1) rotate(0) translate(4 120)">
<title>__init__</title>
<polygon fill="white" stroke="transparent" points="-4,4 -4,-120 239.41,-120 239.41,4 -4,4"/>
<!-- Node1 -->
<g id="node1" class="node">
<title>Node1</title>
<g id="a_node1"><a xlink:title=" ">
<polygon fill="#bfbfbf" stroke="black" points="0.41,-39 0.41,-58 50.41,-58 50.41,-39 0.41,-39"/>
<text text-anchor="middle" x="25.41" y="-46" font-family="Helvetica,sans-Serif" font-size="10.00">__init__</text>
</a>
</g>
</g>
<!-- Node1&#45;&gt;Node1 -->
<g id="edge1" class="edge">
<title>Node1&#45;&gt;Node1</title>
<path fill="none" stroke="midnightblue" d="M4.76,-58.26C-5.29,-67.07 1.59,-76.5 25.41,-76.5 40.67,-76.5 48.98,-72.63 50.34,-67.53"/>
<polygon fill="midnightblue" stroke="midnightblue" points="53.43,-65.87 46.06,-58.26 47.07,-68.8 53.43,-65.87"/>
</g>
<!-- Node2 -->
<g id="node2" class="node">
<title>Node2</title>
<g id="a_node2"><a xlink:href="classrare_1_1utils_1_1extra__widgets_1_1_side_tab_container.html#a91ab0752374c3f97048137450dd3f146" target="_top" xlink:title=" ">
<polygon fill="white" stroke="black" points="96.91,-67.5 96.91,-97.5 224.91,-97.5 224.91,-67.5 96.91,-67.5"/>
<text text-anchor="start" x="104.91" y="-85.5" font-family="Helvetica,sans-Serif" font-size="10.00">rare.utils.extra_widgets.</text>
<text text-anchor="middle" x="160.91" y="-74.5" font-family="Helvetica,sans-Serif" font-size="10.00">SideTabContainer.setTitle</text>
</a>
</g>
</g>
<!-- Node1&#45;&gt;Node2 -->
<g id="edge2" class="edge">
<title>Node1&#45;&gt;Node2</title>
<path fill="none" stroke="midnightblue" d="M50.59,-54.66C62.06,-57.58 76.42,-61.24 90.92,-64.93"/>
<polygon fill="midnightblue" stroke="midnightblue" points="90.4,-68.41 100.95,-67.48 92.12,-61.62 90.4,-68.41"/>
</g>
<!-- Node3 -->
<g id="node3" class="node">
<title>Node3</title>
<g id="a_node3"><a xlink:href="classrare_1_1widgets_1_1collapsible__widget_1_1_collapsible_base.html#a2beff1ac90dfcc1218f959fa6a8935cf" target="_top" xlink:title=" ">
<polygon fill="white" stroke="black" points="86.41,-0.5 86.41,-30.5 235.41,-30.5 235.41,-0.5 86.41,-0.5"/>
<text text-anchor="start" x="94.41" y="-18.5" font-family="Helvetica,sans-Serif" font-size="10.00">rare.widgets.collapsible</text>
<text text-anchor="middle" x="160.91" y="-7.5" font-family="Helvetica,sans-Serif" font-size="10.00">_widget.CollapsibleBase.setup</text>
</a>
</g>
</g>
<!-- Node1&#45;&gt;Node3 -->
<g id="edge4" class="edge">
<title>Node1&#45;&gt;Node3</title>
<path fill="none" stroke="midnightblue" d="M50.59,-42.52C61.53,-39.82 75.09,-36.47 88.9,-33.05"/>
<polygon fill="midnightblue" stroke="midnightblue" points="90.1,-36.36 98.97,-30.56 88.42,-29.57 90.1,-36.36"/>
</g>
<!-- Node2&#45;&gt;Node2 -->
<g id="edge3" class="edge">
<title>Node2&#45;&gt;Node2</title>
<path fill="none" stroke="midnightblue" d="M137.56,-97.66C131.93,-107.06 139.71,-116 160.91,-116 173.83,-116 181.76,-112.68 184.72,-107.96"/>
<polygon fill="midnightblue" stroke="midnightblue" points="188.2,-107.49 184.26,-97.66 181.21,-107.8 188.2,-107.49"/>
</g>
<!-- Node3&#45;&gt;Node3 -->
<g id="edge5" class="edge">
<title>Node3&#45;&gt;Node3</title>
<path fill="none" stroke="midnightblue" d="M137.56,-30.66C131.93,-40.06 139.71,-49 160.91,-49 173.83,-49 181.76,-45.68 184.72,-40.96"/>
<polygon fill="midnightblue" stroke="midnightblue" points="188.2,-40.49 184.26,-30.66 181.21,-40.8 188.2,-40.49"/>
</g>
</g>
</svg>
