<?xml version="1.0" encoding="UTF-8" standalone="no"?>
<!DOCTYPE svg PUBLIC "-//W3C//DTD SVG 1.1//EN"
 "http://www.w3.org/Graphics/SVG/1.1/DTD/svg11.dtd">
<!-- Generated by graphviz version 2.49.3 (20211027.1534)
 -->
<!-- Title: doLayout Pages: 1 -->
<svg width="420pt" height="238pt"
 viewBox="0.00 0.00 420.00 237.50" xmlns="http://www.w3.org/2000/svg" xmlns:xlink="http://www.w3.org/1999/xlink">
<g id="graph0" class="graph" transform="scale(1 1) rotate(0) translate(4 233.5)">
<title>doLayout</title>
<polygon fill="white" stroke="transparent" points="-4,4 -4,-233.5 416,-233.5 416,4 -4,4"/>
<!-- Node1 -->
<g id="node1" class="node">
<title>Node1</title>
<g id="a_node1"><a xlink:title="Arranges the widgets for this layout.">
<polygon fill="#bfbfbf" stroke="black" points="356,-124.5 356,-143.5 412,-143.5 412,-124.5 356,-124.5"/>
<text text-anchor="middle" x="384" y="-131.5" font-family="Helvetica,sans-Serif" font-size="10.00">doLayout</text>
</a>
</g>
</g>
<!-- Node1&#45;&gt;Node1 -->
<g id="edge1" class="edge">
<title>Node1&#45;&gt;Node1</title>
<path fill="none" stroke="midnightblue" d="M408.18,-153.03C406.86,-158.13 398.8,-162 384,-162 360.89,-162 354.22,-152.57 363.96,-143.76"/>
<polygon fill="midnightblue" stroke="midnightblue" points="411.31,-151.46 404.04,-143.76 404.92,-154.31 411.31,-151.46"/>
</g>
<!-- Node2 -->
<g id="node2" class="node">
<title>Node2</title>
<g id="a_node2"><a xlink:href="classrare_1_1widgets_1_1flow__layout_1_1_flow_layout.html#a79a95bc3b25357794eb45d452b5fa4c6" target="_top" xlink:title=" ">
<polygon fill="white" stroke="black" points="186,-181 186,-211 320,-211 320,-181 186,-181"/>
<text text-anchor="start" x="194" y="-199" font-family="Helvetica,sans-Serif" font-size="10.00">rare.widgets.flow_layout.</text>
<text text-anchor="middle" x="253" y="-188" font-family="Helvetica,sans-Serif" font-size="10.00">FlowLayout.heightForWidth</text>
</a>
</g>
</g>
<!-- Node1&#45;&gt;Node2 -->
<g id="edge2" class="edge">
<title>Node1&#45;&gt;Node2</title>
<path fill="none" stroke="midnightblue" d="M359.69,-148.96C348.03,-156.12 333.54,-164.52 320,-171 312.71,-174.49 304.79,-177.85 297.05,-180.9"/>
<polygon fill="midnightblue" stroke="midnightblue" points="361.74,-151.81 368.37,-143.55 358.03,-145.87 361.74,-151.81"/>
</g>
<!-- Node3 -->
<g id="node3" class="node">
<title>Node3</title>
<g id="a_node3"><a xlink:href="classrare_1_1widgets_1_1flow__layout_1_1_flow_layout.html#af87928df2c164a948da59b9e41bcc8e3" target="_top" xlink:title=" ">
<polygon fill="white" stroke="black" points="190.5,-57 190.5,-87 315.5,-87 315.5,-57 190.5,-57"/>
<text text-anchor="start" x="198.5" y="-75" font-family="Helvetica,sans-Serif" font-size="10.00">rare.widgets.flow_layout.</text>
<text text-anchor="middle" x="253" y="-64" font-family="Helvetica,sans-Serif" font-size="10.00">FlowLayout.setGeometry</text>
</a>
</g>
</g>
<!-- Node1&#45;&gt;Node3 -->
<g id="edge4" class="edge">
<title>Node1&#45;&gt;Node3</title>
<path fill="none" stroke="midnightblue" d="M354.04,-120.08C333.73,-110.32 306.59,-97.28 285.7,-87.24"/>
<polygon fill="midnightblue" stroke="midnightblue" points="352.6,-123.27 363.13,-124.45 355.63,-116.96 352.6,-123.27"/>
</g>
<!-- Node8 -->
<g id="node8" class="node">
<title>Node8</title>
<g id="a_node8"><a xlink:href="classrare_1_1widgets_1_1library__layout_1_1_library_layout.html#af87928df2c164a948da59b9e41bcc8e3" target="_top" xlink:title=" ">
<polygon fill="white" stroke="black" points="217,-124.5 217,-143.5 289,-143.5 289,-124.5 217,-124.5"/>
<text text-anchor="middle" x="253" y="-131.5" font-family="Helvetica,sans-Serif" font-size="10.00">setGeometry</text>
</a>
</g>
</g>
<!-- Node1&#45;&gt;Node8 -->
<g id="edge14" class="edge">
<title>Node1&#45;&gt;Node8</title>
<path fill="none" stroke="midnightblue" d="M345.93,-134C328.13,-134 306.91,-134 289.34,-134"/>
<polygon fill="midnightblue" stroke="midnightblue" points="345.96,-137.5 355.96,-134 345.96,-130.5 345.96,-137.5"/>
</g>
<!-- Node2&#45;&gt;Node2 -->
<g id="edge3" class="edge">
<title>Node2&#45;&gt;Node2</title>
<path fill="none" stroke="midnightblue" d="M276.1,-221.46C273.23,-226.18 265.53,-229.5 253,-229.5 232.43,-229.5 224.88,-220.56 230.34,-211.16"/>
<polygon fill="midnightblue" stroke="midnightblue" points="279.58,-221 275.66,-211.16 272.59,-221.3 279.58,-221"/>
</g>
<!-- Node3&#45;&gt;Node3 -->
<g id="edge11" class="edge">
<title>Node3&#45;&gt;Node3</title>
<path fill="none" stroke="midnightblue" d="M276.1,-97.46C273.23,-102.18 265.53,-105.5 253,-105.5 232.43,-105.5 224.88,-96.56 230.34,-87.16"/>
<polygon fill="midnightblue" stroke="midnightblue" points="279.58,-97 275.66,-87.16 272.59,-97.3 279.58,-97"/>
</g>
<!-- Node4 -->
<g id="node4" class="node">
<title>Node4</title>
<g id="a_node4"><a xlink:href="classrare_1_1components_1_1extra_1_1console_1_1_console.html#a39d165427992dd2720f91929a88cde17" target="_top" xlink:title=" ">
<polygon fill="white" stroke="black" points="0,-57 0,-87 150,-87 150,-57 0,-57"/>
<text text-anchor="start" x="8" y="-75" font-family="Helvetica,sans-Serif" font-size="10.00">rare.components.extra.console.</text>
<text text-anchor="middle" x="75" y="-64" font-family="Helvetica,sans-Serif" font-size="10.00">Console.__init__</text>
</a>
</g>
</g>
<!-- Node3&#45;&gt;Node4 -->
<g id="edge5" class="edge">
<title>Node3&#45;&gt;Node4</title>
<path fill="none" stroke="midnightblue" d="M180.25,-72C170.35,-72 160.17,-72 150.23,-72"/>
<polygon fill="midnightblue" stroke="midnightblue" points="180.44,-75.5 190.44,-72 180.44,-68.5 180.44,-75.5"/>
</g>
<!-- Node5 -->
<g id="node5" class="node">
<title>Node5</title>
<g id="a_node5"><a xlink:href="classrare_1_1widgets_1_1library__layout_1_1_library_layout.html#af9a665960a2cd6b746e70425d7486124" target="_top" xlink:title=" ">
<polygon fill="white" stroke="black" points="54.5,-0.5 54.5,-19.5 95.5,-19.5 95.5,-0.5 54.5,-0.5"/>
<text text-anchor="middle" x="75" y="-7.5" font-family="Helvetica,sans-Serif" font-size="10.00">insert</text>
</a>
</g>
</g>
<!-- Node3&#45;&gt;Node5 -->
<g id="edge7" class="edge">
<title>Node3&#45;&gt;Node5</title>
<path fill="none" stroke="midnightblue" d="M199.77,-53.6C164.7,-41.24 120.49,-25.67 95.52,-16.88"/>
<polygon fill="midnightblue" stroke="midnightblue" points="198.8,-56.97 209.4,-56.99 201.13,-50.37 198.8,-56.97"/>
</g>
<!-- Node6 -->
<g id="node6" class="node">
<title>Node6</title>
<g id="a_node6"><a xlink:href="classrare_1_1widgets_1_1library__layout_1_1_library_layout.html#a0c76d6c4aeb4752c64514fdb40f8f817" target="_top" xlink:title=" ">
<polygon fill="white" stroke="black" points="50.5,-180.5 50.5,-199.5 99.5,-199.5 99.5,-180.5 50.5,-180.5"/>
<text text-anchor="middle" x="75" y="-187.5" font-family="Helvetica,sans-Serif" font-size="10.00">remove</text>
</a>
</g>
</g>
<!-- Node3&#45;&gt;Node6 -->
<g id="edge9" class="edge">
<title>Node3&#45;&gt;Node6</title>
<path fill="none" stroke="midnightblue" d="M214.79,-92.36C204.79,-98.82 194.43,-106.52 186,-115 165.14,-135.99 173.99,-153.68 150,-171 135.27,-181.64 115.11,-186.33 99.55,-188.4"/>
<polygon fill="midnightblue" stroke="midnightblue" points="216.77,-95.25 223.42,-87 213.08,-89.3 216.77,-95.25"/>
</g>
<!-- Node7 -->
<g id="node7" class="node">
<title>Node7</title>
<g id="a_node7"><a xlink:href="classrare_1_1widgets_1_1library__layout_1_1_library_layout.html#ac9632f6438f5820ccb6a0b04991a4e7d" target="_top" xlink:title=" ">
<polygon fill="white" stroke="black" points="58.5,-124.5 58.5,-143.5 91.5,-143.5 91.5,-124.5 58.5,-124.5"/>
<text text-anchor="middle" x="75" y="-131.5" font-family="Helvetica,sans-Serif" font-size="10.00">sort</text>
</a>
</g>
</g>
<!-- Node3&#45;&gt;Node7 -->
<g id="edge12" class="edge">
<title>Node3&#45;&gt;Node7</title>
<path fill="none" stroke="midnightblue" d="M208.78,-91.21C190.8,-98.84 169.58,-107.35 150,-114 130.22,-120.72 106.87,-126.72 91.76,-130.35"/>
<polygon fill="midnightblue" stroke="midnightblue" points="210.6,-94.25 218.41,-87.09 207.84,-87.81 210.6,-94.25"/>
</g>
<!-- Node4&#45;&gt;Node4 -->
<g id="edge6" class="edge">
<title>Node4&#45;&gt;Node4</title>
<path fill="none" stroke="midnightblue" d="M106.63,-97.46C102.7,-102.18 92.16,-105.5 75,-105.5 46.84,-105.5 36.5,-96.56 43.98,-87.16"/>
<polygon fill="midnightblue" stroke="midnightblue" points="110.1,-96.94 106.02,-87.16 103.12,-97.35 110.1,-96.94"/>
</g>
<!-- Node5&#45;&gt;Node5 -->
<g id="edge8" class="edge">
<title>Node5&#45;&gt;Node5</title>
<path fill="none" stroke="midnightblue" d="M104.53,-21.3C114.64,-29.63 104.8,-38 75,-38 39.02,-38 32.13,-25.8 54.34,-16.19"/>
<polygon fill="midnightblue" stroke="midnightblue" points="106.07,-18.15 95.66,-16.19 102.58,-24.21 106.07,-18.15"/>
</g>
<!-- Node6&#45;&gt;Node6 -->
<g id="edge10" class="edge">
<title>Node6&#45;&gt;Node6</title>
<path fill="none" stroke="midnightblue" d="M107.52,-204.62C111.66,-211.72 100.82,-218 75,-218 41.28,-218 33.11,-207.28 50.5,-198.03"/>
<polygon fill="midnightblue" stroke="midnightblue" points="109.45,-201.67 99.5,-198.03 105,-207.08 109.45,-201.67"/>
</g>
<!-- Node7&#45;&gt;Node7 -->
<g id="edge13" class="edge">
<title>Node7&#45;&gt;Node7</title>
<path fill="none" stroke="midnightblue" d="M100.99,-142.86C116.38,-151.91 107.71,-162 75,-162 36.93,-162 31.43,-148.34 58.49,-138.55"/>
<polygon fill="midnightblue" stroke="midnightblue" points="102.06,-139.5 91.51,-138.55 99.16,-145.87 102.06,-139.5"/>
</g>
<!-- Node8&#45;&gt;Node4 -->
<g id="edge15" class="edge">
<title>Node8&#45;&gt;Node4</title>
<path fill="none" stroke="midnightblue" d="M209.29,-121.54C201.51,-119.13 193.49,-116.56 186,-114 161.63,-105.67 134.6,-95.36 113.43,-87.04"/>
<polygon fill="midnightblue" stroke="midnightblue" points="208.37,-124.92 218.95,-124.48 210.41,-118.22 208.37,-124.92"/>
</g>
<!-- Node8&#45;&gt;Node5 -->
<g id="edge16" class="edge">
<title>Node8&#45;&gt;Node5</title>
<path fill="none" stroke="midnightblue" d="M207.28,-125.68C199.64,-122.85 192.19,-119.07 186,-114 159.84,-92.59 174.25,-70.55 150,-47 134.54,-31.99 111.79,-21.87 95.6,-16.06"/>
<polygon fill="midnightblue" stroke="midnightblue" points="206.37,-129.06 216.96,-128.77 208.5,-122.39 206.37,-129.06"/>
</g>
<!-- Node8&#45;&gt;Node6 -->
<g id="edge17" class="edge">
<title>Node8&#45;&gt;Node6</title>
<path fill="none" stroke="midnightblue" d="M218.03,-147.26C198.32,-154.71 172.94,-163.91 150,-171 133.4,-176.13 114.41,-180.98 99.83,-184.5"/>
<polygon fill="midnightblue" stroke="midnightblue" points="219.4,-150.48 227.49,-143.65 216.9,-143.94 219.4,-150.48"/>
</g>
<!-- Node8&#45;&gt;Node7 -->
<g id="edge19" class="edge">
<title>Node8&#45;&gt;Node7</title>
<path fill="none" stroke="midnightblue" d="M206.55,-134C168.76,-134 117.19,-134 91.65,-134"/>
<polygon fill="midnightblue" stroke="midnightblue" points="206.81,-137.5 216.81,-134 206.81,-130.5 206.81,-137.5"/>
</g>
<!-- Node8&#45;&gt;Node8 -->
<g id="edge18" class="edge">
<title>Node8&#45;&gt;Node8</title>
<path fill="none" stroke="midnightblue" d="M277.18,-153.03C275.86,-158.13 267.8,-162 253,-162 229.89,-162 223.22,-152.57 232.96,-143.76"/>
<polygon fill="midnightblue" stroke="midnightblue" points="280.31,-151.46 273.04,-143.76 273.92,-154.31 280.31,-151.46"/>
</g>
</g>
</svg>
