<?xml version="1.0" encoding="UTF-8" standalone="no"?>
<!DOCTYPE svg PUBLIC "-//W3C//DTD SVG 1.1//EN"
 "http://www.w3.org/Graphics/SVG/1.1/DTD/svg11.dtd">
<!-- Generated by graphviz version 2.49.3 (20211027.1534)
 -->
<!-- Title: resolve_origin Pages: 1 -->
<svg width="341pt" height="140pt"
 viewBox="0.00 0.00 341.00 140.00" xmlns="http://www.w3.org/2000/svg" xmlns:xlink="http://www.w3.org/1999/xlink">
<g id="graph0" class="graph" transform="scale(1 1) rotate(0) translate(4 136)">
<title>resolve_origin</title>
<polygon fill="white" stroke="transparent" points="-4,4 -4,-136 337,-136 337,4 -4,4"/>
<!-- Node1 -->
<g id="node1" class="node">
<title>Node1</title>
<g id="a_node1"><a xlink:title=" ">
<polygon fill="#bfbfbf" stroke="black" points="0,-56.5 0,-75.5 77,-75.5 77,-56.5 0,-56.5"/>
<text text-anchor="middle" x="38.5" y="-63.5" font-family="Helvetica,sans-Serif" font-size="10.00">resolve_origin</text>
</a>
</g>
</g>
<!-- Node1&#45;&gt;Node1 -->
<g id="edge9" class="edge">
<title>Node1&#45;&gt;Node1</title>
<path fill="none" stroke="midnightblue" d="M21.55,-75.76C13.3,-84.57 18.95,-94 38.5,-94 50.72,-94 57.51,-90.31 58.87,-85.4"/>
<polygon fill="midnightblue" stroke="midnightblue" points="62.09,-84.01 55.45,-75.76 55.49,-86.35 62.09,-84.01"/>
</g>
<!-- Node2 -->
<g id="node2" class="node">
<title>Node2</title>
<g id="a_node2"><a xlink:href="classrare_1_1shared_1_1rare__core_1_1_rare_core.html#a18465ae42222b6a7254c72c9815a69d7" target="_top" xlink:title=" ">
<polygon fill="white" stroke="black" points="115,-94.5 115,-113.5 185,-113.5 185,-94.5 115,-94.5"/>
<text text-anchor="middle" x="150" y="-101.5" font-family="Helvetica,sans-Serif" font-size="10.00">fetch_saves</text>
</a>
</g>
</g>
<!-- Node1&#45;&gt;Node2 -->
<g id="edge1" class="edge">
<title>Node1&#45;&gt;Node2</title>
<path fill="none" stroke="midnightblue" d="M67.13,-75.59C80.62,-80.27 97.04,-85.97 111.63,-91.03"/>
<polygon fill="midnightblue" stroke="midnightblue" points="110.78,-94.44 121.38,-94.41 113.08,-87.83 110.78,-94.44"/>
</g>
<!-- Node4 -->
<g id="node4" class="node">
<title>Node4</title>
<g id="a_node4"><a xlink:href="namespacerare_1_1components.html#a019ee207f5c041fb0d2e61f76eafa958" target="_top" xlink:title=" ">
<polygon fill="white" stroke="black" points="223,-56.5 223,-75.5 333,-75.5 333,-56.5 223,-56.5"/>
<text text-anchor="middle" x="278" y="-63.5" font-family="Helvetica,sans-Serif" font-size="10.00">rare.components.start</text>
</a>
</g>
</g>
<!-- Node1&#45;&gt;Node4 -->
<g id="edge10" class="edge">
<title>Node1&#45;&gt;Node4</title>
<path fill="none" stroke="midnightblue" d="M77.13,-66C113.46,-66 169.19,-66 212.58,-66"/>
<polygon fill="midnightblue" stroke="midnightblue" points="212.76,-69.5 222.76,-66 212.76,-62.5 212.76,-69.5"/>
</g>
<!-- Node5 -->
<g id="node5" class="node">
<title>Node5</title>
<g id="a_node5"><a xlink:href="classrare_1_1shared_1_1rare__core_1_1_rare_core.html#aa69bdc3ab831ce3dfcdefde6915069c5" target="_top" xlink:title=" ">
<polygon fill="white" stroke="black" points="113,-0.5 113,-19.5 187,-19.5 187,-0.5 113,-0.5"/>
<text text-anchor="middle" x="150" y="-7.5" font-family="Helvetica,sans-Serif" font-size="10.00">origin_games</text>
</a>
</g>
</g>
<!-- Node1&#45;&gt;Node5 -->
<g id="edge6" class="edge">
<title>Node1&#45;&gt;Node5</title>
<path fill="none" stroke="midnightblue" d="M58.57,-56.25C75.85,-47.41 101.51,-34.29 121.09,-24.28"/>
<polygon fill="midnightblue" stroke="midnightblue" points="122.84,-27.31 130.15,-19.64 119.65,-21.08 122.84,-27.31"/>
</g>
<!-- Node2&#45;&gt;Node2 -->
<g id="edge3" class="edge">
<title>Node2&#45;&gt;Node2</title>
<path fill="none" stroke="midnightblue" d="M133.05,-113.76C124.8,-122.57 130.45,-132 150,-132 162.22,-132 169.01,-128.31 170.37,-123.4"/>
<polygon fill="midnightblue" stroke="midnightblue" points="173.59,-122.01 166.95,-113.76 166.99,-124.35 173.59,-122.01"/>
</g>
<!-- Node3 -->
<g id="node3" class="node">
<title>Node3</title>
<g id="a_node3"><a xlink:href="classrare_1_1shared_1_1rare__core_1_1_rare_core.html#a5e5063eac4d857765936c1a6628252a3" target="_top" xlink:title=" ">
<polygon fill="white" stroke="black" points="238,-112.5 238,-131.5 318,-131.5 318,-112.5 238,-112.5"/>
<text text-anchor="middle" x="278" y="-119.5" font-family="Helvetica,sans-Serif" font-size="10.00">__fetch_saves</text>
</a>
</g>
</g>
<!-- Node2&#45;&gt;Node3 -->
<g id="edge2" class="edge">
<title>Node2&#45;&gt;Node3</title>
<path fill="none" stroke="midnightblue" d="M185.1,-108.87C198.23,-110.75 213.51,-112.93 227.79,-114.97"/>
<polygon fill="midnightblue" stroke="midnightblue" points="227.58,-118.48 237.97,-116.42 228.57,-111.55 227.58,-118.48"/>
</g>
<!-- Node2&#45;&gt;Node4 -->
<g id="edge4" class="edge">
<title>Node2&#45;&gt;Node4</title>
<path fill="none" stroke="midnightblue" d="M182.8,-94.41C198.76,-89.6 218.31,-83.7 235.45,-78.53"/>
<polygon fill="midnightblue" stroke="midnightblue" points="236.65,-81.82 245.22,-75.59 234.63,-75.12 236.65,-81.82"/>
</g>
<!-- Node4&#45;&gt;Node4 -->
<g id="edge5" class="edge">
<title>Node4&#45;&gt;Node4</title>
<path fill="none" stroke="midnightblue" d="M258.27,-75.76C248.67,-84.57 255.25,-94 278,-94 292.57,-94 300.51,-90.13 301.81,-85.03"/>
<polygon fill="midnightblue" stroke="midnightblue" points="304.96,-83.5 297.73,-75.76 298.55,-86.32 304.96,-83.5"/>
</g>
<!-- Node5&#45;&gt;Node5 -->
<g id="edge8" class="edge">
<title>Node5&#45;&gt;Node5</title>
<path fill="none" stroke="midnightblue" d="M133.05,-19.76C124.8,-28.57 130.45,-38 150,-38 162.22,-38 169.01,-34.31 170.37,-29.4"/>
<polygon fill="midnightblue" stroke="midnightblue" points="173.59,-28.01 166.95,-19.76 166.99,-30.35 173.59,-28.01"/>
</g>
<!-- Node6 -->
<g id="node6" class="node">
<title>Node6</title>
<g id="a_node6"><a xlink:href="classrare_1_1shared_1_1rare__core_1_1_rare_core.html#a311e604b365ca958c3ae7b143b6190ce" target="_top" xlink:title=" ">
<polygon fill="white" stroke="black" points="238,-0.5 238,-19.5 318,-19.5 318,-0.5 238,-0.5"/>
<text text-anchor="middle" x="278" y="-7.5" font-family="Helvetica,sans-Serif" font-size="10.00">__filter_games</text>
</a>
</g>
</g>
<!-- Node5&#45;&gt;Node6 -->
<g id="edge7" class="edge">
<title>Node5&#45;&gt;Node6</title>
<path fill="none" stroke="midnightblue" d="M187.11,-10C199.74,-10 214.15,-10 227.67,-10"/>
<polygon fill="midnightblue" stroke="midnightblue" points="227.8,-13.5 237.8,-10 227.8,-6.5 227.8,-13.5"/>
</g>
</g>
</svg>
