<?xml version="1.0" encoding="UTF-8" standalone="no"?>
<!DOCTYPE svg PUBLIC "-//W3C//DTD SVG 1.1//EN"
 "http://www.w3.org/Graphics/SVG/1.1/DTD/svg11.dtd">
<!-- Generated by graphviz version 2.49.3 (20211027.1534)
 -->
<!-- Title: guid_str Pages: 1 -->
<svg width="229pt" height="57pt"
 viewBox="0.00 0.00 229.00 57.00" xmlns="http://www.w3.org/2000/svg" xmlns:xlink="http://www.w3.org/1999/xlink">
<g id="graph0" class="graph" transform="scale(1 1) rotate(0) translate(4 53)">
<title>guid_str</title>
<polygon fill="white" stroke="transparent" points="-4,4 -4,-53 225,-53 225,4 -4,4"/>
<!-- Node1 -->
<g id="node1" class="node">
<title>Node1</title>
<g id="a_node1"><a xlink:title=" ">
<polygon fill="#bfbfbf" stroke="black" points="170,-6 170,-25 221,-25 221,-6 170,-6"/>
<text text-anchor="middle" x="195.5" y="-13" font-family="Helvetica,sans-Serif" font-size="10.00">guid_str</text>
</a>
</g>
</g>
<!-- Node1&#45;&gt;Node1 -->
<g id="edge3" class="edge">
<title>Node1&#45;&gt;Node1</title>
<path fill="none" stroke="midnightblue" d="M219.31,-34.53C218.01,-39.63 210.07,-43.5 195.5,-43.5 172.75,-43.5 166.17,-34.07 175.77,-25.26"/>
<polygon fill="midnightblue" stroke="midnightblue" points="222.46,-33 215.23,-25.26 216.05,-35.82 222.46,-33"/>
</g>
<!-- Node2 -->
<g id="node2" class="node">
<title>Node2</title>
<g id="a_node2"><a xlink:href="classlegendary_1_1models_1_1manifest_1_1_chunk_info.html#a9a47563093dfc5ba12274b66e368920c" target="_top" xlink:title=" ">
<polygon fill="white" stroke="black" points="0,-0.5 0,-30.5 134,-30.5 134,-0.5 0,-0.5"/>
<text text-anchor="start" x="8" y="-18.5" font-family="Helvetica,sans-Serif" font-size="10.00">legendary.models.manifest.</text>
<text text-anchor="middle" x="67" y="-7.5" font-family="Helvetica,sans-Serif" font-size="10.00">ChunkInfo.__repr__</text>
</a>
</g>
</g>
<!-- Node1&#45;&gt;Node2 -->
<g id="edge1" class="edge">
<title>Node1&#45;&gt;Node2</title>
<path fill="none" stroke="midnightblue" d="M159.78,-15.5C151.77,-15.5 142.99,-15.5 134.13,-15.5"/>
<polygon fill="midnightblue" stroke="midnightblue" points="159.81,-19 169.81,-15.5 159.81,-12 159.81,-19"/>
</g>
<!-- Node2&#45;&gt;Node2 -->
<g id="edge2" class="edge">
<title>Node2&#45;&gt;Node2</title>
<path fill="none" stroke="midnightblue" d="M89.74,-40.96C86.92,-45.68 79.34,-49 67,-49 46.75,-49 39.31,-40.06 44.69,-30.66"/>
<polygon fill="midnightblue" stroke="midnightblue" points="93.23,-40.5 89.31,-30.66 86.23,-40.8 93.23,-40.5"/>
</g>
</g>
</svg>
