<?xml version="1.0" encoding="UTF-8" standalone="no"?>
<!DOCTYPE svg PUBLIC "-//W3C//DTD SVG 1.1//EN"
 "http://www.w3.org/Graphics/SVG/1.1/DTD/svg11.dtd">
<!-- Generated by graphviz version 2.49.3 (20211027.1534)
 -->
<!-- Title: update_lists Pages: 1 -->
<svg width="313pt" height="124pt"
 viewBox="0.00 0.00 313.00 124.00" xmlns="http://www.w3.org/2000/svg" xmlns:xlink="http://www.w3.org/1999/xlink">
<g id="graph0" class="graph" transform="scale(1 1) rotate(0) translate(4 120)">
<title>update_lists</title>
<polygon fill="white" stroke="transparent" points="-4,4 -4,-120 309,-120 309,4 -4,4"/>
<!-- Node1 -->
<g id="node1" class="node">
<title>Node1</title>
<g id="a_node1"><a xlink:title=" ">
<polygon fill="#bfbfbf" stroke="black" points="0,-39 0,-58 69,-58 69,-39 0,-39"/>
<text text-anchor="middle" x="34.5" y="-46" font-family="Helvetica,sans-Serif" font-size="10.00">update_lists</text>
</a>
</g>
</g>
<!-- Node1&#45;&gt;Node1 -->
<g id="edge5" class="edge">
<title>Node1&#45;&gt;Node1</title>
<path fill="none" stroke="midnightblue" d="M8.3,-58.26C-4.45,-67.07 4.29,-76.5 34.5,-76.5 54.8,-76.5 65.4,-72.24 66.31,-66.77"/>
<polygon fill="midnightblue" stroke="midnightblue" points="69.13,-64.68 60.7,-58.26 63.28,-68.53 69.13,-64.68"/>
</g>
<!-- Node2 -->
<g id="node2" class="node">
<title>Node2</title>
<g id="a_node2"><a xlink:href="classrare_1_1shared_1_1rare__core_1_1_rare_core.html#a405e1a4f20f16120f872ccd2654a1d56" target="_top" xlink:title=" ">
<polygon fill="white" stroke="black" points="140,-67.5 140,-97.5 270,-97.5 270,-67.5 140,-67.5"/>
<text text-anchor="start" x="148" y="-85.5" font-family="Helvetica,sans-Serif" font-size="10.00">rare.shared.rare_core.Rare</text>
<text text-anchor="middle" x="205" y="-74.5" font-family="Helvetica,sans-Serif" font-size="10.00">Core.core</text>
</a>
</g>
</g>
<!-- Node1&#45;&gt;Node2 -->
<g id="edge1" class="edge">
<title>Node1&#45;&gt;Node2</title>
<path fill="none" stroke="midnightblue" d="M69.19,-55.3C86.6,-58.81 108.59,-63.25 129.72,-67.51"/>
<polygon fill="midnightblue" stroke="midnightblue" points="129.18,-70.97 139.68,-69.52 130.57,-64.11 129.18,-70.97"/>
</g>
<!-- Node3 -->
<g id="node3" class="node">
<title>Node3</title>
<g id="a_node3"><a xlink:href="classrare_1_1components_1_1tabs_1_1library_1_1widgets_1_1game__widget_1_1_game_widget.html#aa660d748bc3a0c7c2dfaa15cee8e6ba6" target="_top" xlink:title=" ">
<polygon fill="white" stroke="black" points="105,-0.5 105,-30.5 305,-30.5 305,-0.5 105,-0.5"/>
<text text-anchor="start" x="113" y="-18.5" font-family="Helvetica,sans-Serif" font-size="10.00">rare.components.tabs.library.widgets.game</text>
<text text-anchor="middle" x="205" y="-7.5" font-family="Helvetica,sans-Serif" font-size="10.00">_widget.GameWidget.ui</text>
</a>
</g>
</g>
<!-- Node1&#45;&gt;Node3 -->
<g id="edge3" class="edge">
<title>Node1&#45;&gt;Node3</title>
<path fill="none" stroke="midnightblue" d="M69.19,-41.9C83.16,-39.17 100.07,-35.85 117.13,-32.51"/>
<polygon fill="midnightblue" stroke="midnightblue" points="118.03,-35.9 127.17,-30.55 116.68,-29.03 118.03,-35.9"/>
</g>
<!-- Node2&#45;&gt;Node2 -->
<g id="edge2" class="edge">
<title>Node2&#45;&gt;Node2</title>
<path fill="none" stroke="midnightblue" d="M175.37,-97.66C168.23,-107.06 178.11,-116 205,-116 221.39,-116 231.46,-112.68 235.21,-107.96"/>
<polygon fill="midnightblue" stroke="midnightblue" points="238.68,-107.45 234.63,-97.66 231.69,-107.84 238.68,-107.45"/>
</g>
<!-- Node3&#45;&gt;Node3 -->
<g id="edge4" class="edge">
<title>Node3&#45;&gt;Node3</title>
<path fill="none" stroke="midnightblue" d="M175.37,-30.66C168.23,-40.06 178.11,-49 205,-49 221.39,-49 231.46,-45.68 235.21,-40.96"/>
<polygon fill="midnightblue" stroke="midnightblue" points="238.68,-40.45 234.63,-30.66 231.69,-40.84 238.68,-40.45"/>
</g>
</g>
</svg>
