<?xml version="1.0" encoding="UTF-8" standalone="no"?>
<!DOCTYPE svg PUBLIC "-//W3C//DTD SVG 1.1//EN"
 "http://www.w3.org/Graphics/SVG/1.1/DTD/svg11.dtd">
<!-- Generated by graphviz version 2.49.3 (20211027.1534)
 -->
<!-- Title: execute Pages: 1 -->
<!--zoomable 614 -->
<svg id="main" version="1.1" xmlns="http://www.w3.org/2000/svg" xmlns:xlink="http://www.w3.org/1999/xlink" xml:space="preserve" onload="init(evt)">
<style type="text/css"><![CDATA[
.edge:hover path { stroke: red; }
.edge:hover polygon { stroke: red; fill: red; }
]]></style>
<script type="text/javascript"><![CDATA[
var edges = document.getElementsByTagName('g');
if (edges && edges.length) {
  for (var i=0;i<edges.length;i++) {
    if (edges[i].id.substr(0,4)=='edge') {
      edges[i].setAttribute('class','edge');
    }
  }
}
]]></script>
        <defs>
                <circle id="rim" cx="0" cy="0" r="7"/>
                <circle id="rim2" cx="0" cy="0" r="3.5"/>
                <g id="zoomPlus">
                        <use xlink:href="#rim" fill="#404040">
                                <set attributeName="fill" to="#808080" begin="zoomplus.mouseover" end="zoomplus.mouseout"/>
                        </use>
                        <path d="M-4,0h8M0,-4v8" fill="none" stroke="white" stroke-width="1.5" pointer-events="none"/>
                </g>
                <g id="zoomMin">
                        <use xlink:href="#rim" fill="#404040">
                                <set attributeName="fill" to="#808080" begin="zoomminus.mouseover" end="zoomminus.mouseout"/>
                        </use>
                        <path d="M-4,0h8" fill="none" stroke="white" stroke-width="1.5" pointer-events="none"/>
                </g>
                <g id="dirArrow">
                        <path fill="none" stroke="white" stroke-width="1.5" d="M0,-3.0v7 M-2.5,-0.5L0,-3.0L2.5,-0.5"/>
                </g>
               <g id="resetDef">
                       <use xlink:href="#rim2" fill="#404040">
                               <set attributeName="fill" to="#808080" begin="reset.mouseover" end="reset.mouseout"/>
                       </use>
               </g>
        </defs>

<script type="text/javascript">
var viewWidth = 1609;
var viewHeight = 614;
var sectionId = 'dynsection-10';
</script>
<script xlink:href="svgpan.js"/>
<svg id="graph" class="graph">
<g id="viewport">
<title>execute</title>
<polygon fill="white" stroke="transparent" points="-4,4 -4,-609.5 1605,-609.5 1605,4 -4,4"/>
<!-- Node1 -->
<g id="node1" class="node">
<title>Node1</title>
<g id="a_node1"><a xlink:title=" ">
<polygon fill="#bfbfbf" stroke="black" points="0,-209 0,-228 50,-228 50,-209 0,-209"/>
<text text-anchor="middle" x="25" y="-216" font-family="Helvetica,sans-Serif" font-size="10.00">execute</text>
</a>
</g>
</g>
<!-- Node1&#45;&gt;Node1 -->
<g id="edge1" class="edge">
<title>Node1&#45;&gt;Node1</title>
<path fill="none" stroke="midnightblue" d="M9.9,-228.26C2.55,-237.07 7.58,-246.5 25,-246.5 35.89,-246.5 41.94,-242.81 43.15,-237.9"/>
<polygon fill="midnightblue" stroke="midnightblue" points="46.45,-236.74 40.1,-228.26 39.78,-238.85 46.45,-236.74"/>
</g>
<!-- Node2 -->
<g id="node2" class="node">
<title>Node2</title>
<g id="a_node2"><a xlink:href="classrare_1_1components_1_1dialogs_1_1install__dialog_1_1_install_dialog.html#aca780d78b993a295a93507a4a6d12a69" target="_top" xlink:title=" ">
<polygon fill="white" stroke="black" points="232.5,-294 232.5,-313 330.5,-313 330.5,-294 232.5,-294"/>
<text text-anchor="middle" x="281.5" y="-301" font-family="Helvetica,sans-Serif" font-size="10.00">get_download_info</text>
</a>
</g>
</g>
<!-- Node1&#45;&gt;Node2 -->
<g id="edge2" class="edge">
<title>Node1&#45;&gt;Node2</title>
<path fill="none" stroke="midnightblue" d="M32.38,-228.31C42.1,-242.32 62.02,-267.67 86,-279.5 128.39,-300.41 182.04,-305.69 222.25,-306.15"/>
<polygon fill="midnightblue" stroke="midnightblue" points="222.43,-309.65 232.43,-306.17 222.44,-302.65 222.43,-309.65"/>
</g>
<!-- Node6 -->
<g id="node6" class="node">
<title>Node6</title>
<g id="a_node6"><a xlink:href="classrare_1_1components_1_1main__window_1_1_main_window.html#a7e95a1a89e48f7f756bcea2a62a14a62" target="_top" xlink:title=" ">
<polygon fill="white" stroke="black" points="617.5,-183.5 617.5,-213.5 755.5,-213.5 755.5,-183.5 617.5,-183.5"/>
<text text-anchor="start" x="625.5" y="-201.5" font-family="Helvetica,sans-Serif" font-size="10.00">rare.components.main</text>
<text text-anchor="middle" x="686.5" y="-190.5" font-family="Helvetica,sans-Serif" font-size="10.00">_window.MainWindow.show</text>
</a>
</g>
</g>
<!-- Node1&#45;&gt;Node6 -->
<g id="edge43" class="edge">
<title>Node1&#45;&gt;Node6</title>
<path fill="none" stroke="midnightblue" d="M50.09,-216.07C109.58,-210.22 268.24,-195.45 401,-190.5 475.61,-187.72 494.38,-187.94 569,-190.5 581.39,-190.92 594.51,-191.6 607.3,-192.39"/>
<polygon fill="midnightblue" stroke="midnightblue" points="607.27,-195.89 617.47,-193.04 607.71,-188.91 607.27,-195.89"/>
</g>
<!-- Node12 -->
<g id="node12" class="node">
<title>Node12</title>
<g id="a_node12"><a xlink:href="classrare_1_1game__launch__helper_1_1console_1_1_console.html#a7e95a1a89e48f7f756bcea2a62a14a62" target="_top" xlink:title=" ">
<polygon fill="white" stroke="black" points="605,-250.5 605,-280.5 768,-280.5 768,-250.5 605,-250.5"/>
<text text-anchor="start" x="613" y="-268.5" font-family="Helvetica,sans-Serif" font-size="10.00">rare.game_launch_helper.console.</text>
<text text-anchor="middle" x="686.5" y="-257.5" font-family="Helvetica,sans-Serif" font-size="10.00">Console.show</text>
</a>
</g>
</g>
<!-- Node1&#45;&gt;Node12 -->
<g id="edge44" class="edge">
<title>Node1&#45;&gt;Node12</title>
<path fill="none" stroke="midnightblue" d="M50.23,-220.58C61.15,-221.5 74.22,-222.58 86,-223.5 266.41,-237.6 477.55,-251.88 594.96,-259.61"/>
<polygon fill="midnightblue" stroke="midnightblue" points="594.78,-263.11 604.99,-260.27 595.24,-256.12 594.78,-263.11"/>
</g>
<!-- Node19 -->
<g id="node19" class="node">
<title>Node19</title>
<g id="a_node19"><a xlink:href="classrare_1_1components_1_1dialogs_1_1install__dialog_1_1_install_dialog.html#a77e69cb6973b2c8a40dfed17abe7d453" target="_top" xlink:title=" ">
<polygon fill="white" stroke="black" points="86,-106 86,-125 162,-125 162,-106 86,-106"/>
<text text-anchor="middle" x="124" y="-113" font-family="Helvetica,sans-Serif" font-size="10.00">verify_clicked</text>
</a>
</g>
</g>
<!-- Node1&#45;&gt;Node19 -->
<g id="edge45" class="edge">
<title>Node1&#45;&gt;Node19</title>
<path fill="none" stroke="midnightblue" d="M34.95,-208.99C51.33,-191.61 86.31,-154.46 106.91,-132.59"/>
<polygon fill="midnightblue" stroke="midnightblue" points="109.48,-134.96 113.79,-125.28 104.38,-130.16 109.48,-134.96"/>
</g>
<!-- Node2&#45;&gt;Node2 -->
<g id="edge5" class="edge">
<title>Node2&#45;&gt;Node2</title>
<path fill="none" stroke="midnightblue" d="M257.46,-313.26C245.76,-322.07 253.77,-331.5 281.5,-331.5 299.7,-331.5 309.4,-327.44 310.62,-322.15"/>
<polygon fill="midnightblue" stroke="midnightblue" points="313.54,-320.21 305.54,-313.26 307.46,-323.68 313.54,-320.21"/>
</g>
<!-- Node3 -->
<g id="node3" class="node">
<title>Node3</title>
<g id="a_node3"><a xlink:href="classrare_1_1shared_1_1rare__core_1_1_rare_core.html#a405e1a4f20f16120f872ccd2654a1d56" target="_top" xlink:title=" ">
<polygon fill="white" stroke="black" points="1471,-331.5 1471,-361.5 1601,-361.5 1601,-331.5 1471,-331.5"/>
<text text-anchor="start" x="1479" y="-349.5" font-family="Helvetica,sans-Serif" font-size="10.00">rare.shared.rare_core.Rare</text>
<text text-anchor="middle" x="1536" y="-338.5" font-family="Helvetica,sans-Serif" font-size="10.00">Core.core</text>
</a>
</g>
</g>
<!-- Node2&#45;&gt;Node3 -->
<g id="edge3" class="edge">
<title>Node2&#45;&gt;Node3</title>
<path fill="none" stroke="midnightblue" d="M290.82,-313.1C308.65,-332.93 352.89,-378.06 401,-396.5 519.33,-441.86 558.77,-415.5 685.5,-415.5 685.5,-415.5 685.5,-415.5 1214,-415.5 1310.72,-415.5 1420.24,-385.19 1483.11,-364.75"/>
<polygon fill="midnightblue" stroke="midnightblue" points="1484.38,-368.01 1492.79,-361.56 1482.19,-361.36 1484.38,-368.01"/>
</g>
<!-- Node4 -->
<g id="node4" class="node">
<title>Node4</title>
<g id="a_node4"><a xlink:href="classrare_1_1components_1_1dialogs_1_1install__dialog_1_1_install_dialog.html#a36bb64fa9d259feffe5871168f96c4df" target="_top" xlink:title=" ">
<polygon fill="white" stroke="black" points="440,-200 440,-219 530,-219 530,-200 440,-200"/>
<text text-anchor="middle" x="485" y="-207" font-family="Helvetica,sans-Serif" font-size="10.00">on_worker_failed</text>
</a>
</g>
</g>
<!-- Node2&#45;&gt;Node4 -->
<g id="edge6" class="edge">
<title>Node2&#45;&gt;Node4</title>
<path fill="none" stroke="midnightblue" d="M302.93,-293.97C338.68,-277.29 412.73,-242.75 454.21,-223.4"/>
<polygon fill="midnightblue" stroke="midnightblue" points="455.93,-226.46 463.52,-219.06 452.97,-220.11 455.93,-226.46"/>
</g>
<!-- Node13 -->
<g id="node13" class="node">
<title>Node13</title>
<g id="a_node13"><a xlink:href="classrare_1_1components_1_1dialogs_1_1install__dialog_1_1_install_dialog.html#a0e948650b87686717868c3ee60c2c910" target="_top" xlink:title=" ">
<polygon fill="white" stroke="black" points="435,-350 435,-369 535,-369 535,-350 435,-350"/>
<text text-anchor="middle" x="485" y="-357" font-family="Helvetica,sans-Serif" font-size="10.00">on_worker_finished</text>
</a>
</g>
</g>
<!-- Node2&#45;&gt;Node13 -->
<g id="edge31" class="edge">
<title>Node2&#45;&gt;Node13</title>
<path fill="none" stroke="midnightblue" d="M311.05,-313.1C334.94,-320.97 370,-332.13 401,-340.5 410.21,-342.99 420.06,-345.43 429.64,-347.69"/>
<polygon fill="midnightblue" stroke="midnightblue" points="428.94,-351.12 439.47,-349.98 430.53,-344.31 428.94,-351.12"/>
</g>
<!-- Node14 -->
<g id="node14" class="node">
<title>Node14</title>
<g id="a_node14"><a xlink:href="classrare_1_1components_1_1dialogs_1_1install__dialog_1_1_install_dialog.html#affdc8bae01bd071a92392ce437a43bf9" target="_top" xlink:title=" ">
<polygon fill="white" stroke="black" points="439.5,-481 439.5,-500 530.5,-500 530.5,-481 439.5,-481"/>
<text text-anchor="middle" x="485" y="-488" font-family="Helvetica,sans-Serif" font-size="10.00">on_worker_result</text>
</a>
</g>
</g>
<!-- Node2&#45;&gt;Node14 -->
<g id="edge33" class="edge">
<title>Node2&#45;&gt;Node14</title>
<path fill="none" stroke="midnightblue" d="M290.58,-313.23C309,-335.17 356.04,-389.68 401,-429.5 420.15,-446.46 443.82,-463.52 460.97,-475.26"/>
<polygon fill="midnightblue" stroke="midnightblue" points="459.05,-478.19 469.29,-480.89 462.97,-472.39 459.05,-478.19"/>
</g>
<!-- Node18 -->
<g id="node18" class="node">
<title>Node18</title>
<g id="a_node18"><a xlink:href="namespacerare_1_1app.html#a37fb442592b19edb2dcdd368df2d2d76" target="_top" xlink:title=" ">
<polygon fill="white" stroke="black" points="448.5,-294 448.5,-313 521.5,-313 521.5,-294 448.5,-294"/>
<text text-anchor="middle" x="485" y="-301" font-family="Helvetica,sans-Serif" font-size="10.00">rare.app.start</text>
</a>
</g>
</g>
<!-- Node2&#45;&gt;Node18 -->
<g id="edge41" class="edge">
<title>Node2&#45;&gt;Node18</title>
<path fill="none" stroke="midnightblue" d="M330.51,-303.5C363.17,-303.5 406.14,-303.5 438.31,-303.5"/>
<polygon fill="midnightblue" stroke="midnightblue" points="438.34,-307 448.34,-303.5 438.34,-300 438.34,-307"/>
</g>
<!-- Node3&#45;&gt;Node3 -->
<g id="edge4" class="edge">
<title>Node3&#45;&gt;Node3</title>
<path fill="none" stroke="midnightblue" d="M1507.42,-361.66C1500.53,-371.06 1510.05,-380 1536,-380 1551.81,-380 1561.52,-376.68 1565.14,-371.96"/>
<polygon fill="midnightblue" stroke="midnightblue" points="1568.62,-371.45 1564.58,-361.66 1561.63,-371.83 1568.62,-371.45"/>
</g>
<!-- Node4&#45;&gt;Node4 -->
<g id="edge9" class="edge">
<title>Node4&#45;&gt;Node4</title>
<path fill="none" stroke="midnightblue" d="M454.17,-219.26C439.18,-228.07 449.45,-237.5 485,-237.5 509.99,-237.5 522.49,-232.84 522.5,-227"/>
<polygon fill="midnightblue" stroke="midnightblue" points="525,-224.55 515.83,-219.26 519.7,-229.12 525,-224.55"/>
</g>
<!-- Node5 -->
<g id="node5" class="node">
<title>Node5</title>
<g id="a_node5"><a xlink:href="classrare_1_1components_1_1dialogs_1_1install__dialog_1_1_install_dialog.html#a138282883753fa5f7af306a3bb35ceaf" target="_top" xlink:title=" ">
<polygon fill="white" stroke="black" points="658.5,-126 658.5,-145 714.5,-145 714.5,-126 658.5,-126"/>
<text text-anchor="middle" x="686.5" y="-133" font-family="Helvetica,sans-Serif" font-size="10.00">error_box</text>
</a>
</g>
</g>
<!-- Node4&#45;&gt;Node5 -->
<g id="edge7" class="edge">
<title>Node4&#45;&gt;Node5</title>
<path fill="none" stroke="midnightblue" d="M511.67,-199.98C546.89,-186.91 610.33,-163.38 650.05,-148.65"/>
<polygon fill="midnightblue" stroke="midnightblue" points="651.45,-151.86 659.61,-145.1 649.02,-145.3 651.45,-151.86"/>
</g>
<!-- Node4&#45;&gt;Node6 -->
<g id="edge10" class="edge">
<title>Node4&#45;&gt;Node6</title>
<path fill="none" stroke="midnightblue" d="M530.28,-207.06C552.87,-205.81 581.04,-204.26 607.16,-202.82"/>
<polygon fill="midnightblue" stroke="midnightblue" points="607.64,-206.3 617.43,-202.25 607.25,-199.31 607.64,-206.3"/>
</g>
<!-- Node4&#45;&gt;Node12 -->
<g id="edge27" class="edge">
<title>Node4&#45;&gt;Node12</title>
<path fill="none" stroke="midnightblue" d="M520.3,-219.13C548.18,-226.95 588.28,-238.21 621.99,-247.67"/>
<polygon fill="midnightblue" stroke="midnightblue" points="621.2,-251.09 631.77,-250.42 623.09,-244.35 621.2,-251.09"/>
</g>
<!-- Node5&#45;&gt;Node5 -->
<g id="edge8" class="edge">
<title>Node5&#45;&gt;Node5</title>
<path fill="none" stroke="midnightblue" d="M658.37,-143.96C640.19,-153.11 649.57,-163.5 686.5,-163.5 715.35,-163.5 727.39,-157.16 722.6,-150.02"/>
<polygon fill="midnightblue" stroke="midnightblue" points="724.71,-147.22 714.63,-143.96 720.47,-152.79 724.71,-147.22"/>
</g>
<!-- Node6&#45;&gt;Node6 -->
<g id="edge26" class="edge">
<title>Node6&#45;&gt;Node6</title>
<path fill="none" stroke="midnightblue" d="M651.99,-213.66C643.67,-223.06 655.18,-232 686.5,-232 705.59,-232 717.32,-228.68 721.68,-223.96"/>
<polygon fill="midnightblue" stroke="midnightblue" points="725.15,-223.41 721.01,-213.66 718.17,-223.87 725.15,-223.41"/>
</g>
<!-- Node7 -->
<g id="node7" class="node">
<title>Node7</title>
<g id="a_node7"><a xlink:href="classrare_1_1components_1_1main__window_1_1_main_window.html#a91465b9ae57cdea67cbcbb58986892d7" target="_top" xlink:title=" ">
<polygon fill="white" stroke="black" points="814.5,-178 814.5,-219 956.5,-219 956.5,-178 814.5,-178"/>
<text text-anchor="start" x="822.5" y="-207" font-family="Helvetica,sans-Serif" font-size="10.00">rare.components.main</text>
<text text-anchor="start" x="822.5" y="-196" font-family="Helvetica,sans-Serif" font-size="10.00">_window.MainWindow.center</text>
<text text-anchor="middle" x="885.5" y="-185" font-family="Helvetica,sans-Serif" font-size="10.00">_window</text>
</a>
</g>
</g>
<!-- Node6&#45;&gt;Node7 -->
<g id="edge11" class="edge">
<title>Node6&#45;&gt;Node7</title>
<path fill="none" stroke="midnightblue" d="M755.57,-198.5C771.17,-198.5 787.9,-198.5 803.97,-198.5"/>
<polygon fill="midnightblue" stroke="midnightblue" points="804.42,-202 814.42,-198.5 804.42,-195 804.42,-202"/>
</g>
<!-- Node11 -->
<g id="node11" class="node">
<title>Node11</title>
<g id="a_node11"><a xlink:href="classrare_1_1game__launch__helper_1_1console_1_1_console.html#a91465b9ae57cdea67cbcbb58986892d7" target="_top" xlink:title=" ">
<polygon fill="white" stroke="black" points="804,-256.5 804,-286.5 967,-286.5 967,-256.5 804,-256.5"/>
<text text-anchor="start" x="812" y="-274.5" font-family="Helvetica,sans-Serif" font-size="10.00">rare.game_launch_helper.console.</text>
<text text-anchor="middle" x="885.5" y="-263.5" font-family="Helvetica,sans-Serif" font-size="10.00">Console.center_window</text>
</a>
</g>
</g>
<!-- Node6&#45;&gt;Node11 -->
<g id="edge23" class="edge">
<title>Node6&#45;&gt;Node11</title>
<path fill="none" stroke="midnightblue" d="M721.85,-213.6C744.88,-223.5 776.01,-236.41 804,-246.5 810.38,-248.8 817.09,-251.09 823.8,-253.29"/>
<polygon fill="midnightblue" stroke="midnightblue" points="823.01,-256.71 833.6,-256.45 825.16,-250.05 823.01,-256.71"/>
</g>
<!-- Node7&#45;&gt;Node7 -->
<g id="edge12" class="edge">
<title>Node7&#45;&gt;Node7</title>
<path fill="none" stroke="midnightblue" d="M853.52,-219.36C850.03,-229.04 860.69,-237.5 885.5,-237.5 901.01,-237.5 910.98,-234.2 915.44,-229.36"/>
<polygon fill="midnightblue" stroke="midnightblue" points="918.9,-229.86 917.48,-219.36 912.05,-228.46 918.9,-229.86"/>
</g>
<!-- Node8 -->
<g id="node8" class="node">
<title>Node8</title>
<g id="a_node8"><a xlink:href="classrare_1_1lgndr_1_1cli_1_1_legendary_c_l_i.html#a72a86e9e97d577472c8a8af9e4a67949" target="_top" xlink:title=" ">
<polygon fill="white" stroke="black" points="1003,-256.5 1003,-286.5 1119,-286.5 1119,-256.5 1003,-256.5"/>
<text text-anchor="start" x="1011" y="-274.5" font-family="Helvetica,sans-Serif" font-size="10.00">rare.lgndr.cli.Legendary</text>
<text text-anchor="middle" x="1061" y="-263.5" font-family="Helvetica,sans-Serif" font-size="10.00">CLI.move</text>
</a>
</g>
</g>
<!-- Node7&#45;&gt;Node8 -->
<g id="edge13" class="edge">
<title>Node7&#45;&gt;Node8</title>
<path fill="none" stroke="midnightblue" d="M935.29,-219.03C960.24,-229.53 990.41,-242.22 1014.83,-252.49"/>
<polygon fill="midnightblue" stroke="midnightblue" points="1013.65,-255.79 1024.22,-256.45 1016.36,-249.34 1013.65,-255.79"/>
</g>
<!-- Node8&#45;&gt;Node3 -->
<g id="edge14" class="edge">
<title>Node8&#45;&gt;Node3</title>
<path fill="none" stroke="midnightblue" d="M1119.25,-266.46C1193.62,-261.69 1326.75,-259.29 1435,-290.5 1460.86,-297.96 1487.32,-313.17 1506.52,-325.86"/>
<polygon fill="midnightblue" stroke="midnightblue" points="1504.56,-328.76 1514.8,-331.48 1508.49,-322.97 1504.56,-328.76"/>
</g>
<!-- Node8&#45;&gt;Node8 -->
<g id="edge22" class="edge">
<title>Node8&#45;&gt;Node8</title>
<path fill="none" stroke="midnightblue" d="M1034.51,-286.66C1028.12,-296.06 1036.95,-305 1061,-305 1075.65,-305 1084.66,-301.68 1088.01,-296.96"/>
<polygon fill="midnightblue" stroke="midnightblue" points="1091.49,-296.47 1087.49,-286.66 1084.5,-296.82 1091.49,-296.47"/>
</g>
<!-- Node9 -->
<g id="node9" class="node">
<title>Node9</title>
<g id="a_node9"><a xlink:href="classrare_1_1lgndr_1_1cli_1_1_legendary_c_l_i.html#a4aaa726f3b4643dc9fc5f027294fc9c9" target="_top" xlink:title=" ">
<polygon fill="white" stroke="black" points="1155,-300.5 1155,-330.5 1271,-330.5 1271,-300.5 1155,-300.5"/>
<text text-anchor="start" x="1163" y="-318.5" font-family="Helvetica,sans-Serif" font-size="10.00">rare.lgndr.cli.Legendary</text>
<text text-anchor="middle" x="1213" y="-307.5" font-family="Helvetica,sans-Serif" font-size="10.00">CLI.install_game</text>
</a>
</g>
</g>
<!-- Node8&#45;&gt;Node9 -->
<g id="edge15" class="edge">
<title>Node8&#45;&gt;Node9</title>
<path fill="none" stroke="midnightblue" d="M1113.2,-286.52C1125.32,-290.07 1138.37,-293.9 1150.88,-297.57"/>
<polygon fill="midnightblue" stroke="midnightblue" points="1150.19,-301.02 1160.77,-300.47 1152.16,-294.3 1150.19,-301.02"/>
</g>
<!-- Node9&#45;&gt;Node3 -->
<g id="edge16" class="edge">
<title>Node9&#45;&gt;Node3</title>
<path fill="none" stroke="midnightblue" d="M1239.44,-330.55C1257.58,-340.38 1282.93,-352.32 1307,-357.5 1357.6,-368.4 1415.93,-365.31 1460.92,-359.67"/>
<polygon fill="midnightblue" stroke="midnightblue" points="1461.43,-363.13 1470.89,-358.35 1460.51,-356.2 1461.43,-363.13"/>
</g>
<!-- Node9&#45;&gt;Node9 -->
<g id="edge17" class="edge">
<title>Node9&#45;&gt;Node9</title>
<path fill="none" stroke="midnightblue" d="M1186.51,-330.66C1180.12,-340.06 1188.95,-349 1213,-349 1227.65,-349 1236.66,-345.68 1240.01,-340.96"/>
<polygon fill="midnightblue" stroke="midnightblue" points="1243.49,-340.47 1239.49,-330.66 1236.5,-340.82 1243.49,-340.47"/>
</g>
<!-- Node10 -->
<g id="node10" class="node">
<title>Node10</title>
<g id="a_node10"><a xlink:href="classrare_1_1lgndr_1_1cli_1_1_legendary_c_l_i.html#a7de93b9e2b51b491d5c70be49680f66d" target="_top" xlink:title=" ">
<polygon fill="white" stroke="black" points="1307,-300.5 1307,-330.5 1435,-330.5 1435,-300.5 1307,-300.5"/>
<text text-anchor="start" x="1315" y="-318.5" font-family="Helvetica,sans-Serif" font-size="10.00">rare.lgndr.cli.Legendary</text>
<text text-anchor="middle" x="1371" y="-307.5" font-family="Helvetica,sans-Serif" font-size="10.00">CLI.install_game_cleanup</text>
</a>
</g>
</g>
<!-- Node9&#45;&gt;Node10 -->
<g id="edge18" class="edge">
<title>Node9&#45;&gt;Node10</title>
<path fill="none" stroke="midnightblue" d="M1271.2,-308.97C1279.52,-308.79 1288.17,-308.72 1296.74,-308.76"/>
<polygon fill="midnightblue" stroke="midnightblue" points="1296.72,-312.26 1306.75,-308.86 1296.79,-305.26 1296.72,-312.26"/>
</g>
<!-- Node10&#45;&gt;Node3 -->
<g id="edge19" class="edge">
<title>Node10&#45;&gt;Node3</title>
<path fill="none" stroke="midnightblue" d="M1435.02,-327.49C1443.46,-329.09 1452.17,-330.75 1460.77,-332.38"/>
<polygon fill="midnightblue" stroke="midnightblue" points="1460.32,-335.86 1470.8,-334.29 1461.63,-328.98 1460.32,-335.86"/>
</g>
<!-- Node10&#45;&gt;Node9 -->
<g id="edge20" class="edge">
<title>Node10&#45;&gt;Node9</title>
<path fill="none" stroke="midnightblue" d="M1306.75,-322.14C1298.39,-322.27 1289.8,-322.28 1281.37,-322.19"/>
<polygon fill="midnightblue" stroke="midnightblue" points="1281.26,-318.69 1271.2,-322.03 1281.15,-325.69 1281.26,-318.69"/>
</g>
<!-- Node10&#45;&gt;Node10 -->
<g id="edge21" class="edge">
<title>Node10&#45;&gt;Node10</title>
<path fill="none" stroke="midnightblue" d="M1343.47,-330.66C1336.83,-340.06 1346,-349 1371,-349 1386.23,-349 1395.59,-345.68 1399.07,-340.96"/>
<polygon fill="midnightblue" stroke="midnightblue" points="1402.55,-340.46 1398.53,-330.66 1395.56,-340.83 1402.55,-340.46"/>
</g>
<!-- Node11&#45;&gt;Node8 -->
<g id="edge25" class="edge">
<title>Node11&#45;&gt;Node8</title>
<path fill="none" stroke="midnightblue" d="M967.15,-271.5C975.71,-271.5 984.35,-271.5 992.73,-271.5"/>
<polygon fill="midnightblue" stroke="midnightblue" points="992.8,-275 1002.8,-271.5 992.8,-268 992.8,-275"/>
</g>
<!-- Node11&#45;&gt;Node11 -->
<g id="edge24" class="edge">
<title>Node11&#45;&gt;Node11</title>
<path fill="none" stroke="midnightblue" d="M855.18,-286.66C847.86,-296.06 857.97,-305 885.5,-305 902.27,-305 912.58,-301.68 916.42,-296.96"/>
<polygon fill="midnightblue" stroke="midnightblue" points="919.89,-296.44 915.82,-286.66 912.91,-296.84 919.89,-296.44"/>
</g>
<!-- Node12&#45;&gt;Node7 -->
<g id="edge28" class="edge">
<title>Node12&#45;&gt;Node7</title>
<path fill="none" stroke="midnightblue" d="M737.42,-250.38C747.57,-247.2 758.15,-243.8 768,-240.5 784.7,-234.9 802.64,-228.58 819.32,-222.58"/>
<polygon fill="midnightblue" stroke="midnightblue" points="820.76,-225.78 828.97,-219.09 818.38,-219.2 820.76,-225.78"/>
</g>
<!-- Node12&#45;&gt;Node11 -->
<g id="edge29" class="edge">
<title>Node12&#45;&gt;Node11</title>
<path fill="none" stroke="midnightblue" d="M768.2,-267.96C776.67,-268.22 785.33,-268.48 793.91,-268.74"/>
<polygon fill="midnightblue" stroke="midnightblue" points="793.83,-272.24 803.93,-269.05 794.04,-265.24 793.83,-272.24"/>
</g>
<!-- Node12&#45;&gt;Node12 -->
<g id="edge30" class="edge">
<title>Node12&#45;&gt;Node12</title>
<path fill="none" stroke="midnightblue" d="M651.99,-280.66C643.67,-290.06 655.18,-299 686.5,-299 705.59,-299 717.32,-295.68 721.68,-290.96"/>
<polygon fill="midnightblue" stroke="midnightblue" points="725.15,-290.41 721.01,-280.66 718.17,-290.87 725.15,-290.41"/>
</g>
<!-- Node13&#45;&gt;Node13 -->
<g id="edge32" class="edge">
<title>Node13&#45;&gt;Node13</title>
<path fill="none" stroke="midnightblue" d="M454.17,-369.26C439.18,-378.07 449.45,-387.5 485,-387.5 509.99,-387.5 522.49,-382.84 522.5,-377"/>
<polygon fill="midnightblue" stroke="midnightblue" points="525,-374.55 515.83,-369.26 519.7,-379.12 525,-374.55"/>
</g>
<!-- Node14&#45;&gt;Node14 -->
<g id="edge40" class="edge">
<title>Node14&#45;&gt;Node14</title>
<path fill="none" stroke="midnightblue" d="M454.17,-500.26C439.18,-509.07 449.45,-518.5 485,-518.5 509.99,-518.5 522.49,-513.84 522.5,-508"/>
<polygon fill="midnightblue" stroke="midnightblue" points="525,-505.55 515.83,-500.26 519.7,-510.12 525,-505.55"/>
</g>
<!-- Node15 -->
<g id="node15" class="node">
<title>Node15</title>
<g id="a_node15"><a xlink:href="namespacerare_1_1shared.html#a5acede398e4ceb67fa3e6bc1c91734d0" target="_top" xlink:title=" ">
<polygon fill="white" stroke="black" points="609,-512 609,-531 764,-531 764,-512 609,-512"/>
<text text-anchor="middle" x="686.5" y="-519" font-family="Helvetica,sans-Serif" font-size="10.00">rare.shared.ArgumentsSingleton</text>
</a>
</g>
</g>
<!-- Node14&#45;&gt;Node15 -->
<g id="edge34" class="edge">
<title>Node14&#45;&gt;Node15</title>
<path fill="none" stroke="midnightblue" d="M530.77,-497.46C555.33,-501.27 586.35,-506.09 614.16,-510.41"/>
<polygon fill="midnightblue" stroke="midnightblue" points="613.82,-513.9 624.24,-511.98 614.89,-506.99 613.82,-513.9"/>
</g>
<!-- Node16 -->
<g id="node16" class="node">
<title>Node16</title>
<g id="a_node16"><a xlink:href="classrare_1_1components_1_1main__window_1_1_main_window.html#ad9f81f4c56e23ca3c206b1e9374fc137" target="_top" xlink:title=" ">
<polygon fill="white" stroke="black" points="617.5,-444.5 617.5,-474.5 755.5,-474.5 755.5,-444.5 617.5,-444.5"/>
<text text-anchor="start" x="625.5" y="-462.5" font-family="Helvetica,sans-Serif" font-size="10.00">rare.components.main</text>
<text text-anchor="middle" x="686.5" y="-451.5" font-family="Helvetica,sans-Serif" font-size="10.00">_window.MainWindow.close</text>
</a>
</g>
</g>
<!-- Node14&#45;&gt;Node16 -->
<g id="edge36" class="edge">
<title>Node14&#45;&gt;Node16</title>
<path fill="none" stroke="midnightblue" d="M530.77,-483.54C553.29,-480.04 581.24,-475.7 607.16,-471.67"/>
<polygon fill="midnightblue" stroke="midnightblue" points="608.02,-475.08 617.36,-470.09 606.94,-468.17 608.02,-475.08"/>
</g>
<!-- Node17 -->
<g id="node17" class="node">
<title>Node17</title>
<g id="a_node17"><a xlink:href="namespacerare_1_1utils_1_1misc.html#a1316c13802b7e0cd9c6301199c789346" target="_top" xlink:title=" ">
<polygon fill="white" stroke="black" points="629,-568 629,-587 744,-587 744,-568 629,-568"/>
<text text-anchor="middle" x="686.5" y="-575" font-family="Helvetica,sans-Serif" font-size="10.00">rare.utils.misc.get_size</text>
</a>
</g>
</g>
<!-- Node14&#45;&gt;Node17 -->
<g id="edge38" class="edge">
<title>Node14&#45;&gt;Node17</title>
<path fill="none" stroke="midnightblue" d="M499.63,-500.04C521.09,-514.65 564.49,-542.53 605,-558.5 611.37,-561.01 618.17,-563.25 625,-565.22"/>
<polygon fill="midnightblue" stroke="midnightblue" points="624.43,-568.69 635,-567.93 626.26,-561.94 624.43,-568.69"/>
</g>
<!-- Node15&#45;&gt;Node15 -->
<g id="edge35" class="edge">
<title>Node15&#45;&gt;Node15</title>
<path fill="none" stroke="midnightblue" d="M655.98,-531.26C641.14,-540.07 651.31,-549.5 686.5,-549.5 711.24,-549.5 723.62,-544.84 723.62,-539"/>
<polygon fill="midnightblue" stroke="midnightblue" points="726.17,-536.59 717.02,-531.26 720.84,-541.14 726.17,-536.59"/>
</g>
<!-- Node16&#45;&gt;Node16 -->
<g id="edge37" class="edge">
<title>Node16&#45;&gt;Node16</title>
<path fill="none" stroke="midnightblue" d="M651.99,-474.66C643.67,-484.06 655.18,-493 686.5,-493 705.59,-493 717.32,-489.68 721.68,-484.96"/>
<polygon fill="midnightblue" stroke="midnightblue" points="725.15,-484.41 721.01,-474.66 718.17,-484.87 725.15,-484.41"/>
</g>
<!-- Node17&#45;&gt;Node17 -->
<g id="edge39" class="edge">
<title>Node17&#45;&gt;Node17</title>
<path fill="none" stroke="midnightblue" d="M655.98,-587.26C641.14,-596.07 651.31,-605.5 686.5,-605.5 711.24,-605.5 723.62,-600.84 723.62,-595"/>
<polygon fill="midnightblue" stroke="midnightblue" points="726.17,-592.59 717.02,-587.26 720.84,-597.14 726.17,-592.59"/>
</g>
<!-- Node18&#45;&gt;Node18 -->
<g id="edge42" class="edge">
<title>Node18&#45;&gt;Node18</title>
<path fill="none" stroke="midnightblue" d="M454.17,-313.26C439.18,-322.07 449.45,-331.5 485,-331.5 509.99,-331.5 522.49,-326.84 522.5,-321"/>
<polygon fill="midnightblue" stroke="midnightblue" points="525,-318.55 515.83,-313.26 519.7,-323.12 525,-318.55"/>
</g>
<!-- Node19&#45;&gt;Node2 -->
<g id="edge47" class="edge">
<title>Node19&#45;&gt;Node2</title>
<path fill="none" stroke="midnightblue" d="M132.93,-125.08C157.67,-154.99 233.74,-246.97 265.9,-285.85"/>
<polygon fill="midnightblue" stroke="midnightblue" points="263.33,-288.24 272.4,-293.71 268.73,-283.78 263.33,-288.24"/>
</g>
<!-- Node19&#45;&gt;Node5 -->
<g id="edge46" class="edge">
<title>Node19&#45;&gt;Node5</title>
<path fill="none" stroke="midnightblue" d="M162.21,-116.83C263.99,-120.46 546.17,-130.53 648.13,-134.17"/>
<polygon fill="midnightblue" stroke="midnightblue" points="648.15,-137.67 658.27,-134.53 648.4,-130.67 648.15,-137.67"/>
</g>
<!-- Node19&#45;&gt;Node19 -->
<g id="edge54" class="edge">
<title>Node19&#45;&gt;Node19</title>
<path fill="none" stroke="midnightblue" d="M108.9,-125.26C101.55,-134.07 106.58,-143.5 124,-143.5 134.89,-143.5 140.94,-139.81 142.15,-134.9"/>
<polygon fill="midnightblue" stroke="midnightblue" points="145.45,-133.74 139.1,-125.26 138.78,-135.85 145.45,-133.74"/>
</g>
<!-- Node20 -->
<g id="node20" class="node">
<title>Node20</title>
<g id="a_node20"><a xlink:href="classrare_1_1components_1_1dialogs_1_1install__dialog_1_1_install_dialog.html#a004987011909ef3b326e6d95f6393ec0" target="_top" xlink:title=" ">
<polygon fill="white" stroke="black" points="248,-68 248,-87 315,-87 315,-68 248,-68"/>
<text text-anchor="middle" x="281.5" y="-75" font-family="Helvetica,sans-Serif" font-size="10.00">get_options</text>
</a>
</g>
</g>
<!-- Node19&#45;&gt;Node20 -->
<g id="edge48" class="edge">
<title>Node19&#45;&gt;Node20</title>
<path fill="none" stroke="midnightblue" d="M162.25,-106.4C185.05,-100.83 214.29,-93.68 238,-87.89"/>
<polygon fill="midnightblue" stroke="midnightblue" points="238.9,-91.27 247.78,-85.5 237.23,-84.47 238.9,-91.27"/>
</g>
<!-- Node22 -->
<g id="node22" class="node">
<title>Node22</title>
<g id="a_node22"><a xlink:href="classrare_1_1components_1_1dialogs_1_1uninstall__dialog_1_1_uninstall_dialog.html#ae1375c7c84ae9c095d26a26d20c73d24" target="_top" xlink:title=" ">
<polygon fill="white" stroke="black" points="198,-0.5 198,-30.5 365,-30.5 365,-0.5 198,-0.5"/>
<text text-anchor="start" x="206" y="-18.5" font-family="Helvetica,sans-Serif" font-size="10.00">rare.components.dialogs.uninstall</text>
<text text-anchor="middle" x="281.5" y="-7.5" font-family="Helvetica,sans-Serif" font-size="10.00">_dialog.UninstallDialog.get_options</text>
</a>
</g>
</g>
<!-- Node19&#45;&gt;Node22 -->
<g id="edge52" class="edge">
<title>Node19&#45;&gt;Node22</title>
<path fill="none" stroke="midnightblue" d="M135.91,-105.95C149.78,-94.05 174.74,-73.46 198,-58.5 211.02,-50.12 225.86,-41.99 239.33,-35.09"/>
<polygon fill="midnightblue" stroke="midnightblue" points="241.04,-38.15 248.4,-30.52 237.89,-31.9 241.04,-38.15"/>
</g>
<!-- Node20&#45;&gt;Node20 -->
<g id="edge49" class="edge">
<title>Node20&#45;&gt;Node20</title>
<path fill="none" stroke="midnightblue" d="M257.46,-87.26C245.76,-96.07 253.77,-105.5 281.5,-105.5 299.7,-105.5 309.4,-101.44 310.62,-96.15"/>
<polygon fill="midnightblue" stroke="midnightblue" points="313.54,-94.21 305.54,-87.26 307.46,-97.68 313.54,-94.21"/>
</g>
<!-- Node21 -->
<g id="node21" class="node">
<title>Node21</title>
<g id="a_node21"><a xlink:href="classrare_1_1lgndr_1_1api__monkeys_1_1_d_l_manager_signals.html#a2e157b8a54419ee393d56143a3260aa9" target="_top" xlink:title=" ">
<polygon fill="white" stroke="black" points="401,-56.5 401,-86.5 569,-86.5 569,-56.5 401,-56.5"/>
<text text-anchor="start" x="409" y="-74.5" font-family="Helvetica,sans-Serif" font-size="10.00">rare.lgndr.api_monkeys.DLManager</text>
<text text-anchor="middle" x="485" y="-63.5" font-family="Helvetica,sans-Serif" font-size="10.00">Signals.update</text>
</a>
</g>
</g>
<!-- Node20&#45;&gt;Node21 -->
<g id="edge50" class="edge">
<title>Node20&#45;&gt;Node21</title>
<path fill="none" stroke="midnightblue" d="M315.32,-76.52C335.89,-75.91 363.53,-75.09 390.47,-74.28"/>
<polygon fill="midnightblue" stroke="midnightblue" points="390.86,-77.78 400.75,-73.98 390.65,-70.78 390.86,-77.78"/>
</g>
<!-- Node21&#45;&gt;Node21 -->
<g id="edge51" class="edge">
<title>Node21&#45;&gt;Node21</title>
<path fill="none" stroke="midnightblue" d="M450.15,-86.66C441.74,-96.06 453.36,-105 485,-105 504.28,-105 516.13,-101.68 520.54,-96.96"/>
<polygon fill="midnightblue" stroke="midnightblue" points="524.01,-96.41 519.85,-86.66 517.02,-96.87 524.01,-96.41"/>
</g>
<!-- Node22&#45;&gt;Node22 -->
<g id="edge53" class="edge">
<title>Node22&#45;&gt;Node22</title>
<path fill="none" stroke="midnightblue" d="M254.31,-30.66C247.76,-40.06 256.82,-49 281.5,-49 296.54,-49 305.78,-45.68 309.22,-40.96"/>
<polygon fill="midnightblue" stroke="midnightblue" points="312.7,-40.46 308.69,-30.66 305.71,-40.83 312.7,-40.46"/>
</g>
</g>
</svg>
        <g id="navigator" transform="translate(0 0)" fill="#404254">
                <rect fill="#f2f5e9" fill-opacity="0.5" stroke="#606060" stroke-width=".5" x="0" y="0" width="60" height="60"/>
                <use id="zoomplus" xlink:href="#zoomPlus" x="17" y="9" onmousedown="handleZoom(evt,'in')"/>
                <use id="zoomminus" xlink:href="#zoomMin" x="42" y="9" onmousedown="handleZoom(evt,'out')"/>
                <use id="reset" xlink:href="#resetDef" x="30" y="36" onmousedown="handleReset()"/>
                <g id="arrowUp" xlink:href="#dirArrow" transform="translate(30 24)" onmousedown="handlePan(0,-1)">
                  <use xlink:href="#rim" fill="#404040">
                        <set attributeName="fill" to="#808080" begin="arrowUp.mouseover" end="arrowUp.mouseout"/>
                  </use>
                  <path fill="none" stroke="white" stroke-width="1.5" d="M0,-3.0v7 M-2.5,-0.5L0,-3.0L2.5,-0.5"/>
                </g>
                <g id="arrowRight" xlink:href="#dirArrow" transform="rotate(90) translate(36 -43)" onmousedown="handlePan(1,0)">
                  <use xlink:href="#rim" fill="#404040">
                        <set attributeName="fill" to="#808080" begin="arrowRight.mouseover" end="arrowRight.mouseout"/>
                  </use>
                  <path fill="none" stroke="white" stroke-width="1.5" d="M0,-3.0v7 M-2.5,-0.5L0,-3.0L2.5,-0.5"/>
                </g>
                <g id="arrowDown" xlink:href="#dirArrow" transform="rotate(180) translate(-30 -48)" onmousedown="handlePan(0,1)">
                  <use xlink:href="#rim" fill="#404040">
                        <set attributeName="fill" to="#808080" begin="arrowDown.mouseover" end="arrowDown.mouseout"/>
                  </use>
                  <path fill="none" stroke="white" stroke-width="1.5" d="M0,-3.0v7 M-2.5,-0.5L0,-3.0L2.5,-0.5"/>
                </g>
                <g id="arrowLeft" xlink:href="#dirArrow" transform="rotate(270) translate(-36 17)" onmousedown="handlePan(-1,0)">
                  <use xlink:href="#rim" fill="#404040">
                        <set attributeName="fill" to="#808080" begin="arrowLeft.mouseover" end="arrowLeft.mouseout"/>
                  </use>
                  <path fill="none" stroke="white" stroke-width="1.5" d="M0,-3.0v7 M-2.5,-0.5L0,-3.0L2.5,-0.5"/>
                </g>
        </g>
        <svg viewBox="0 0 15 15" width="100%" height="30px" preserveAspectRatio="xMaxYMin meet">
         <g id="arrow_out" transform="scale(0.3 0.3)">
          <a xlink:href="classrare_1_1components_1_1dialogs_1_1install__dialog_1_1_install_dialog_aa902973791e81c8c4542da337b86289b_cgraph_org.svg" target="_base">
           <rect id="button" ry="5" rx="5" y="6" x="6" height="38" width="38"
                fill="#f2f5e9" fill-opacity="0.5" stroke="#606060" stroke-width="1.0"/>
           <path id="arrow"
             d="M 11.500037,31.436501 C 11.940474,20.09759 22.043105,11.32322 32.158766,21.979434 L 37.068811,17.246167 C 37.068811,17.246167 37.088388,32 37.088388,32 L 22.160133,31.978069 C 22.160133,31.978069 26.997745,27.140456 26.997745,27.140456 C 18.528582,18.264221 13.291696,25.230495 11.500037,31.436501 z"
             style="fill:#404040;"/>
          </a>
         </g>
        </svg>
</svg>
