<?xml version="1.0" encoding="UTF-8" standalone="no"?>
<!DOCTYPE svg PUBLIC "-//W3C//DTD SVG 1.1//EN"
 "http://www.w3.org/Graphics/SVG/1.1/DTD/svg11.dtd">
<!-- Generated by graphviz version 2.49.3 (20211027.1534)
 -->
<!-- Title: command Pages: 1 -->
<svg width="372pt" height="170pt"
 viewBox="0.00 0.00 372.00 169.50" xmlns="http://www.w3.org/2000/svg" xmlns:xlink="http://www.w3.org/1999/xlink">
<g id="graph0" class="graph" transform="scale(1 1) rotate(0) translate(4 165.5)">
<title>command</title>
<polygon fill="white" stroke="transparent" points="-4,4 -4,-165.5 368,-165.5 368,4 -4,4"/>
<!-- Node1 -->
<g id="node1" class="node">
<title>Node1</title>
<g id="a_node1"><a xlink:title=" ">
<polygon fill="#bfbfbf" stroke="black" points="305,-56.5 305,-75.5 364,-75.5 364,-56.5 305,-56.5"/>
<text text-anchor="middle" x="334.5" y="-63.5" font-family="Helvetica,sans-Serif" font-size="10.00">command</text>
</a>
</g>
</g>
<!-- Node1&#45;&gt;Node1 -->
<g id="edge9" class="edge">
<title>Node1&#45;&gt;Node1</title>
<path fill="none" stroke="midnightblue" d="M350.43,-85.4C349.36,-90.31 344.05,-94 334.5,-94 319.21,-94 314.8,-84.57 321.24,-75.76"/>
<polygon fill="midnightblue" stroke="midnightblue" points="353.8,-84.46 347.76,-75.76 347.05,-86.33 353.8,-84.46"/>
</g>
<!-- Node2 -->
<g id="node2" class="node">
<title>Node2</title>
<g id="a_node2"><a xlink:href="classrare_1_1utils_1_1compat_1_1steam_1_1_steam_base.html#a9bfc434ce6cd4ee0cbf3e326c99afe76" target="_top" xlink:title=" ">
<polygon fill="white" stroke="black" points="225,-56.5 225,-75.5 269,-75.5 269,-56.5 225,-56.5"/>
<text text-anchor="middle" x="247" y="-63.5" font-family="Helvetica,sans-Serif" font-size="10.00">as_str</text>
</a>
</g>
</g>
<!-- Node1&#45;&gt;Node2 -->
<g id="edge1" class="edge">
<title>Node1&#45;&gt;Node2</title>
<path fill="none" stroke="midnightblue" d="M294.47,-66C285.72,-66 276.77,-66 269.08,-66"/>
<polygon fill="midnightblue" stroke="midnightblue" points="294.55,-69.5 304.55,-66 294.55,-62.5 294.55,-69.5"/>
</g>
<!-- Node2&#45;&gt;Node2 -->
<g id="edge4" class="edge">
<title>Node2&#45;&gt;Node2</title>
<path fill="none" stroke="midnightblue" d="M262.93,-85.4C261.86,-90.31 256.55,-94 247,-94 231.71,-94 227.3,-84.57 233.74,-75.76"/>
<polygon fill="midnightblue" stroke="midnightblue" points="266.3,-84.46 260.26,-75.76 259.55,-86.33 266.3,-84.46"/>
</g>
<!-- Node3 -->
<g id="node3" class="node">
<title>Node3</title>
<g id="a_node3"><a xlink:href="classrare_1_1models_1_1wrapper_1_1_wrapper.html#af466df7f15887a199aa900cbe8542937" target="_top" xlink:title=" ">
<polygon fill="white" stroke="black" points="22.5,-113 22.5,-143 166.5,-143 166.5,-113 22.5,-113"/>
<text text-anchor="start" x="30.5" y="-131" font-family="Helvetica,sans-Serif" font-size="10.00">rare.models.wrapper.Wrapper.</text>
<text text-anchor="middle" x="94.5" y="-120" font-family="Helvetica,sans-Serif" font-size="10.00">__bool__</text>
</a>
</g>
</g>
<!-- Node2&#45;&gt;Node3 -->
<g id="edge2" class="edge">
<title>Node2&#45;&gt;Node3</title>
<path fill="none" stroke="midnightblue" d="M225.14,-81.81C214.73,-89.1 201.67,-97.36 189,-103 180.56,-106.76 171.42,-110.05 162.29,-112.91"/>
<polygon fill="midnightblue" stroke="midnightblue" points="227.48,-84.44 233.53,-75.75 223.38,-78.77 227.48,-84.44"/>
</g>
<!-- Node4 -->
<g id="node4" class="node">
<title>Node4</title>
<g id="a_node4"><a xlink:href="classrare_1_1models_1_1wrapper_1_1_wrapper.html#a0eb590bb4205bec37960777c60774b32" target="_top" xlink:title=" ">
<polygon fill="white" stroke="black" points="0,-56.5 0,-75.5 189,-75.5 189,-56.5 0,-56.5"/>
<text text-anchor="middle" x="94.5" y="-63.5" font-family="Helvetica,sans-Serif" font-size="10.00">rare.models.wrapper.Wrapper.checksum</text>
</a>
</g>
</g>
<!-- Node2&#45;&gt;Node4 -->
<g id="edge5" class="edge">
<title>Node2&#45;&gt;Node4</title>
<path fill="none" stroke="midnightblue" d="M214.51,-66C206.77,-66 198.09,-66 189.03,-66"/>
<polygon fill="midnightblue" stroke="midnightblue" points="214.76,-69.5 224.76,-66 214.76,-62.5 214.76,-69.5"/>
</g>
<!-- Node5 -->
<g id="node5" class="node">
<title>Node5</title>
<g id="a_node5"><a xlink:href="classrare_1_1utils_1_1compat_1_1steam_1_1_steam_base.html#a0eb590bb4205bec37960777c60774b32" target="_top" xlink:title=" ">
<polygon fill="white" stroke="black" points="63.5,-0.5 63.5,-19.5 125.5,-19.5 125.5,-0.5 63.5,-0.5"/>
<text text-anchor="middle" x="94.5" y="-7.5" font-family="Helvetica,sans-Serif" font-size="10.00">checksum</text>
</a>
</g>
</g>
<!-- Node2&#45;&gt;Node5 -->
<g id="edge7" class="edge">
<title>Node2&#45;&gt;Node5</title>
<path fill="none" stroke="midnightblue" d="M215.16,-54.52C187.43,-44.21 147.18,-29.23 121.17,-19.55"/>
<polygon fill="midnightblue" stroke="midnightblue" points="214.16,-57.89 224.76,-58.1 216.6,-51.33 214.16,-57.89"/>
</g>
<!-- Node3&#45;&gt;Node3 -->
<g id="edge3" class="edge">
<title>Node3&#45;&gt;Node3</title>
<path fill="none" stroke="midnightblue" d="M121.51,-153.46C118.16,-158.18 109.15,-161.5 94.5,-161.5 70.45,-161.5 61.62,-152.56 68.01,-143.16"/>
<polygon fill="midnightblue" stroke="midnightblue" points="124.99,-152.97 120.99,-143.16 118,-153.32 124.99,-152.97"/>
</g>
<!-- Node4&#45;&gt;Node4 -->
<g id="edge6" class="edge">
<title>Node4&#45;&gt;Node4</title>
<path fill="none" stroke="midnightblue" d="M122.87,-84.65C121.69,-89.94 112.23,-94 94.5,-94 67.48,-94 59.68,-84.57 71.07,-75.76"/>
<polygon fill="midnightblue" stroke="midnightblue" points="125.84,-82.8 117.93,-75.76 119.73,-86.2 125.84,-82.8"/>
</g>
<!-- Node5&#45;&gt;Node5 -->
<g id="edge8" class="edge">
<title>Node5&#45;&gt;Node5</title>
<path fill="none" stroke="midnightblue" d="M122.87,-28.65C121.69,-33.94 112.23,-38 94.5,-38 67.48,-38 59.68,-28.57 71.07,-19.76"/>
<polygon fill="midnightblue" stroke="midnightblue" points="125.84,-26.8 117.93,-19.76 119.73,-30.2 125.84,-26.8"/>
</g>
</g>
</svg>
