<?xml version="1.0" encoding="UTF-8" standalone="no"?>
<!DOCTYPE svg PUBLIC "-//W3C//DTD SVG 1.1//EN"
 "http://www.w3.org/Graphics/SVG/1.1/DTD/svg11.dtd">
<!-- Generated by graphviz version 2.49.3 (20211027.1534)
 -->
<!-- Title: send_notification Pages: 1 -->
<svg width="268pt" height="124pt"
 viewBox="0.00 0.00 268.00 124.00" xmlns="http://www.w3.org/2000/svg" xmlns:xlink="http://www.w3.org/1999/xlink">
<g id="graph0" class="graph" transform="scale(1 1) rotate(0) translate(4 120)">
<title>send_notification</title>
<polygon fill="white" stroke="transparent" points="-4,4 -4,-120 264,-120 264,4 -4,4"/>
<!-- Node1 -->
<g id="node1" class="node">
<title>Node1</title>
<g id="a_node1"><a xlink:title=" ">
<polygon fill="#bfbfbf" stroke="black" points="0,-39 0,-58 89,-58 89,-39 0,-39"/>
<text text-anchor="middle" x="44.5" y="-46" font-family="Helvetica,sans-Serif" font-size="10.00">send_notification</text>
</a>
</g>
</g>
<!-- Node1&#45;&gt;Node1 -->
<g id="edge1" class="edge">
<title>Node1&#45;&gt;Node1</title>
<path fill="none" stroke="midnightblue" d="M21.69,-58.26C10.59,-67.07 18.2,-76.5 44.5,-76.5 61.76,-76.5 70.97,-72.44 72.13,-67.15"/>
<polygon fill="midnightblue" stroke="midnightblue" points="75.15,-65.39 67.31,-58.26 68.99,-68.72 75.15,-65.39"/>
</g>
<!-- Node2 -->
<g id="node2" class="node">
<title>Node2</title>
<g id="a_node2"><a xlink:href="classrare_1_1shared_1_1rare__core_1_1_rare_core.html#a135560fc58fcc2e5cff07ec25c23a06c" target="_top" xlink:title=" ">
<polygon fill="white" stroke="black" points="127.5,-67.5 127.5,-97.5 257.5,-97.5 257.5,-67.5 127.5,-67.5"/>
<text text-anchor="start" x="135.5" y="-85.5" font-family="Helvetica,sans-Serif" font-size="10.00">rare.shared.rare_core.Rare</text>
<text text-anchor="middle" x="192.5" y="-74.5" font-family="Helvetica,sans-Serif" font-size="10.00">Core.signals</text>
</a>
</g>
</g>
<!-- Node1&#45;&gt;Node2 -->
<g id="edge2" class="edge">
<title>Node1&#45;&gt;Node2</title>
<path fill="none" stroke="midnightblue" d="M86.56,-58.06C96.24,-60.32 106.86,-62.79 117.51,-65.27"/>
<polygon fill="midnightblue" stroke="midnightblue" points="116.74,-68.68 127.27,-67.54 118.33,-61.87 116.74,-68.68"/>
</g>
<!-- Node3 -->
<g id="node3" class="node">
<title>Node3</title>
<g id="a_node3"><a xlink:href="classrare_1_1shared_1_1workers_1_1worker_1_1_worker.html#a9998d928f5b6f30ebb69dc655c0756a8" target="_top" xlink:title=" ">
<polygon fill="white" stroke="black" points="125,-0.5 125,-30.5 260,-30.5 260,-0.5 125,-0.5"/>
<text text-anchor="start" x="133" y="-18.5" font-family="Helvetica,sans-Serif" font-size="10.00">rare.shared.workers.worker.</text>
<text text-anchor="middle" x="192.5" y="-7.5" font-family="Helvetica,sans-Serif" font-size="10.00">Worker.signals</text>
</a>
</g>
</g>
<!-- Node1&#45;&gt;Node3 -->
<g id="edge4" class="edge">
<title>Node1&#45;&gt;Node3</title>
<path fill="none" stroke="midnightblue" d="M87.73,-38.96C96.35,-37.01 105.68,-34.9 115.09,-32.77"/>
<polygon fill="midnightblue" stroke="midnightblue" points="115.9,-36.18 124.89,-30.56 114.36,-29.35 115.9,-36.18"/>
</g>
<!-- Node2&#45;&gt;Node2 -->
<g id="edge3" class="edge">
<title>Node2&#45;&gt;Node2</title>
<path fill="none" stroke="midnightblue" d="M166.71,-97.66C160.49,-107.06 169.09,-116 192.5,-116 206.77,-116 215.53,-112.68 218.8,-107.96"/>
<polygon fill="midnightblue" stroke="midnightblue" points="222.28,-107.48 218.29,-97.66 215.29,-107.82 222.28,-107.48"/>
</g>
<!-- Node3&#45;&gt;Node3 -->
<g id="edge5" class="edge">
<title>Node3&#45;&gt;Node3</title>
<path fill="none" stroke="midnightblue" d="M166.71,-30.66C160.49,-40.06 169.09,-49 192.5,-49 206.77,-49 215.53,-45.68 218.8,-40.96"/>
<polygon fill="midnightblue" stroke="midnightblue" points="222.28,-40.48 218.29,-30.66 215.29,-40.82 222.28,-40.48"/>
</g>
</g>
</svg>
