<?xml version="1.0" encoding="UTF-8" standalone="no"?>
<!DOCTYPE svg PUBLIC "-//W3C//DTD SVG 1.1//EN"
 "http://www.w3.org/Graphics/SVG/1.1/DTD/svg11.dtd">
<!-- Generated by graphviz version 2.49.3 (20211027.1534)
 -->
<!-- Title: __bool__ Pages: 1 -->
<svg width="283pt" height="124pt"
 viewBox="0.00 0.00 283.20 124.00" xmlns="http://www.w3.org/2000/svg" xmlns:xlink="http://www.w3.org/1999/xlink">
<g id="graph0" class="graph" transform="scale(1 1) rotate(0) translate(4 120)">
<title>__bool__</title>
<polygon fill="white" stroke="transparent" points="-4,4 -4,-120 279.2,-120 279.2,4 -4,4"/>
<!-- Node1 -->
<g id="node1" class="node">
<title>Node1</title>
<g id="a_node1"><a xlink:title=" ">
<polygon fill="#bfbfbf" stroke="black" points="1.2,-39 1.2,-58 57.2,-58 57.2,-39 1.2,-39"/>
<text text-anchor="middle" x="29.2" y="-46" font-family="Helvetica,sans-Serif" font-size="10.00">__bool__</text>
</a>
</g>
</g>
<!-- Node1&#45;&gt;Node1 -->
<g id="edge1" class="edge">
<title>Node1&#45;&gt;Node1</title>
<path fill="none" stroke="midnightblue" d="M5.47,-58.26C-6.08,-67.07 1.83,-76.5 29.2,-76.5 47.16,-76.5 56.75,-72.44 57.95,-67.15"/>
<polygon fill="midnightblue" stroke="midnightblue" points="60.89,-65.25 52.94,-58.26 54.79,-68.69 60.89,-65.25"/>
</g>
<!-- Node2 -->
<g id="node2" class="node">
<title>Node2</title>
<g id="a_node2"><a xlink:href="classrare_1_1components_1_1tray__icon_1_1_tray_icon.html#aca28781d9d67dfe93a3b27773d262c7a" target="_top" xlink:title=" ">
<polygon fill="white" stroke="black" points="118.7,-67.5 118.7,-97.5 249.7,-97.5 249.7,-67.5 118.7,-67.5"/>
<text text-anchor="start" x="126.7" y="-85.5" font-family="Helvetica,sans-Serif" font-size="10.00">rare.components.tray</text>
<text text-anchor="middle" x="184.2" y="-74.5" font-family="Helvetica,sans-Serif" font-size="10.00">_icon.TrayIcon.last_played</text>
</a>
</g>
</g>
<!-- Node1&#45;&gt;Node2 -->
<g id="edge2" class="edge">
<title>Node1&#45;&gt;Node2</title>
<path fill="none" stroke="midnightblue" d="M57.2,-54.5C71.67,-57.72 90.29,-61.85 108.74,-65.95"/>
<polygon fill="midnightblue" stroke="midnightblue" points="108.13,-69.4 118.65,-68.16 109.65,-62.57 108.13,-69.4"/>
</g>
<!-- Node3 -->
<g id="node3" class="node">
<title>Node3</title>
<g id="a_node3"><a xlink:href="classrare_1_1models_1_1steam_1_1_steam_shortcut.html#a99ce5001b7926b5fa213641182e4c5b0" target="_top" xlink:title=" ">
<polygon fill="white" stroke="black" points="93.2,-0.5 93.2,-30.5 275.2,-30.5 275.2,-0.5 93.2,-0.5"/>
<text text-anchor="start" x="101.2" y="-18.5" font-family="Helvetica,sans-Serif" font-size="10.00">rare.models.steam.SteamShortcut.last</text>
<text text-anchor="middle" x="184.2" y="-7.5" font-family="Helvetica,sans-Serif" font-size="10.00">_played</text>
</a>
</g>
</g>
<!-- Node1&#45;&gt;Node3 -->
<g id="edge4" class="edge">
<title>Node1&#45;&gt;Node3</title>
<path fill="none" stroke="midnightblue" d="M57.2,-42.68C70.33,-39.85 86.86,-36.28 103.58,-32.67"/>
<polygon fill="midnightblue" stroke="midnightblue" points="104.4,-36.08 113.43,-30.55 102.92,-29.24 104.4,-36.08"/>
</g>
<!-- Node2&#45;&gt;Node2 -->
<g id="edge3" class="edge">
<title>Node2&#45;&gt;Node2</title>
<path fill="none" stroke="midnightblue" d="M157.36,-97.66C150.89,-107.06 159.84,-116 184.2,-116 199.05,-116 208.17,-112.68 211.57,-107.96"/>
<polygon fill="midnightblue" stroke="midnightblue" points="215.05,-107.47 211.04,-97.66 208.05,-107.82 215.05,-107.47"/>
</g>
<!-- Node3&#45;&gt;Node3 -->
<g id="edge5" class="edge">
<title>Node3&#45;&gt;Node3</title>
<path fill="none" stroke="midnightblue" d="M157.36,-30.66C150.89,-40.06 159.84,-49 184.2,-49 199.05,-49 208.17,-45.68 211.57,-40.96"/>
<polygon fill="midnightblue" stroke="midnightblue" points="215.05,-40.47 211.04,-30.66 208.05,-40.82 215.05,-40.47"/>
</g>
</g>
</svg>
