<?xml version="1.0" encoding="UTF-8" standalone="no"?>
<!DOCTYPE svg PUBLIC "-//W3C//DTD SVG 1.1//EN"
 "http://www.w3.org/Graphics/SVG/1.1/DTD/svg11.dtd">
<!-- Generated by graphviz version 2.49.3 (20211027.1534)
 -->
<!-- Title: install_game Pages: 1 -->
<svg width="739pt" height="357pt"
 viewBox="0.00 0.00 739.00 357.00" xmlns="http://www.w3.org/2000/svg" xmlns:xlink="http://www.w3.org/1999/xlink">
<g id="graph0" class="graph" transform="scale(1 1) rotate(0) translate(4 353)">
<title>install_game</title>
<polygon fill="white" stroke="transparent" points="-4,4 -4,-353 735,-353 735,4 -4,4"/>
<!-- Node1 -->
<g id="node1" class="node">
<title>Node1</title>
<g id="a_node1"><a xlink:title=" ">
<polygon fill="#bfbfbf" stroke="black" points="660,-160 660,-179 731,-179 731,-160 660,-160"/>
<text text-anchor="middle" x="695.5" y="-167" font-family="Helvetica,sans-Serif" font-size="10.00">install_game</text>
</a>
</g>
</g>
<!-- Node1&#45;&gt;Node1 -->
<g id="edge11" class="edge">
<title>Node1&#45;&gt;Node1</title>
<path fill="none" stroke="midnightblue" d="M726.56,-187.77C725.68,-193.24 715.32,-197.5 695.5,-197.5 666,-197.5 657.47,-188.07 669.91,-179.26"/>
<polygon fill="midnightblue" stroke="midnightblue" points="729.44,-185.77 721.09,-179.26 723.55,-189.56 729.44,-185.77"/>
</g>
<!-- Node2 -->
<g id="node2" class="node">
<title>Node2</title>
<g id="a_node2"><a xlink:href="classlegendary_1_1core_1_1_legendary_core.html#a7469385a673fc01a494b68576fd3bf2e" target="_top" xlink:title=" ">
<polygon fill="white" stroke="black" points="466.5,-300.5 466.5,-330.5 592.5,-330.5 592.5,-300.5 466.5,-300.5"/>
<text text-anchor="start" x="474.5" y="-318.5" font-family="Helvetica,sans-Serif" font-size="10.00">legendary.core.Legendary</text>
<text text-anchor="middle" x="529.5" y="-307.5" font-family="Helvetica,sans-Serif" font-size="10.00">Core.clean_post_install</text>
</a>
</g>
</g>
<!-- Node1&#45;&gt;Node2 -->
<g id="edge1" class="edge">
<title>Node1&#45;&gt;Node2</title>
<path fill="none" stroke="midnightblue" d="M688.5,-188.85C679.14,-215.77 658.47,-264.17 624,-290.5 614.79,-297.54 603.75,-302.6 592.53,-306.23"/>
<polygon fill="midnightblue" stroke="midnightblue" points="691.92,-189.65 691.73,-179.06 685.27,-187.46 691.92,-189.65"/>
</g>
<!-- Node4 -->
<g id="node4" class="node">
<title>Node4</title>
<g id="a_node4"><a xlink:href="classlegendary_1_1cli_1_1_legendary_c_l_i.html#ab83dc4a70b642b97fdfe1b8163f10d98" target="_top" xlink:title=" ">
<polygon fill="white" stroke="black" points="500.5,-244 500.5,-263 558.5,-263 558.5,-244 500.5,-244"/>
<text text-anchor="middle" x="529.5" y="-251" font-family="Helvetica,sans-Serif" font-size="10.00">egs_sync</text>
</a>
</g>
</g>
<!-- Node1&#45;&gt;Node4 -->
<g id="edge5" class="edge">
<title>Node1&#45;&gt;Node4</title>
<path fill="none" stroke="midnightblue" d="M680.24,-187.22C667.2,-202.19 646.55,-222.97 624,-234.5 603.65,-244.91 578.07,-249.61 558.81,-251.74"/>
<polygon fill="midnightblue" stroke="midnightblue" points="683.23,-189.1 687,-179.2 677.88,-184.59 683.23,-189.1"/>
</g>
<!-- Node5 -->
<g id="node5" class="node">
<title>Node5</title>
<g id="a_node5"><a xlink:href="classlegendary_1_1cli_1_1_legendary_c_l_i.html#aa5b516f4f9831f6af42abf8cfcf5ef3c" target="_top" xlink:title=" ">
<polygon fill="white" stroke="black" points="493,-188 493,-207 566,-207 566,-188 493,-188"/>
<text text-anchor="middle" x="529.5" y="-195" font-family="Helvetica,sans-Serif" font-size="10.00">import_game</text>
</a>
</g>
</g>
<!-- Node1&#45;&gt;Node5 -->
<g id="edge7" class="edge">
<title>Node1&#45;&gt;Node5</title>
<path fill="none" stroke="midnightblue" d="M649.62,-177.16C623.33,-181.65 590.58,-187.24 566.08,-191.43"/>
<polygon fill="midnightblue" stroke="midnightblue" points="650.45,-180.57 659.72,-175.44 649.27,-173.67 650.45,-180.57"/>
</g>
<!-- Node7 -->
<g id="node7" class="node">
<title>Node7</title>
<g id="a_node7"><a xlink:href="classlegendary_1_1cli_1_1_legendary_c_l_i.html#a3e60a8839a35a1830b0072d365a35970" target="_top" xlink:title=" ">
<polygon fill="white" stroke="black" points="494,-132 494,-151 565,-151 565,-132 494,-132"/>
<text text-anchor="middle" x="529.5" y="-139" font-family="Helvetica,sans-Serif" font-size="10.00">list_installed</text>
</a>
</g>
</g>
<!-- Node1&#45;&gt;Node7 -->
<g id="edge12" class="edge">
<title>Node1&#45;&gt;Node7</title>
<path fill="none" stroke="midnightblue" d="M649.52,-161.82C622.94,-157.28 589.79,-151.62 565.23,-147.43"/>
<polygon fill="midnightblue" stroke="midnightblue" points="649.27,-165.33 659.72,-163.56 650.45,-158.43 649.27,-165.33"/>
</g>
<!-- Node8 -->
<g id="node8" class="node">
<title>Node8</title>
<g id="a_node8"><a xlink:href="classlegendary_1_1cli_1_1_legendary_c_l_i.html#a72a86e9e97d577472c8a8af9e4a67949" target="_top" xlink:title=" ">
<polygon fill="white" stroke="black" points="509,-76 509,-95 550,-95 550,-76 509,-76"/>
<text text-anchor="middle" x="529.5" y="-83" font-family="Helvetica,sans-Serif" font-size="10.00">move</text>
</a>
</g>
</g>
<!-- Node1&#45;&gt;Node8 -->
<g id="edge14" class="edge">
<title>Node1&#45;&gt;Node8</title>
<path fill="none" stroke="midnightblue" d="M673.79,-154C660.11,-144.19 641.53,-131.68 624,-122.5 599.41,-109.62 569.3,-98.47 550.01,-91.86"/>
<polygon fill="midnightblue" stroke="midnightblue" points="671.87,-156.93 682.01,-159.99 675.99,-151.27 671.87,-156.93"/>
</g>
<!-- Node10 -->
<g id="node10" class="node">
<title>Node10</title>
<g id="a_node10"><a xlink:href="classrare_1_1components_1_1tabs_1_1downloads_1_1_downloads_tab.html#ae7c3da1b257767f97a06a0f0f679036e" target="_top" xlink:title=" ">
<polygon fill="white" stroke="black" points="435,-5.5 435,-35.5 624,-35.5 624,-5.5 435,-5.5"/>
<text text-anchor="start" x="443" y="-23.5" font-family="Helvetica,sans-Serif" font-size="10.00">rare.components.tabs.downloads.</text>
<text text-anchor="middle" x="529.5" y="-12.5" font-family="Helvetica,sans-Serif" font-size="10.00">DownloadsTab.on_install_dialog_closed</text>
</a>
</g>
</g>
<!-- Node1&#45;&gt;Node10 -->
<g id="edge18" class="edge">
<title>Node1&#45;&gt;Node10</title>
<path fill="none" stroke="midnightblue" d="M685.4,-150.59C673.79,-128.11 651.84,-90.62 624,-66.5 608.96,-53.47 589.58,-43.14 572.37,-35.61"/>
<polygon fill="midnightblue" stroke="midnightblue" points="682.38,-152.39 689.99,-159.76 688.64,-149.25 682.38,-152.39"/>
</g>
<!-- Node2&#45;&gt;Node2 -->
<g id="edge2" class="edge">
<title>Node2&#45;&gt;Node2</title>
<path fill="none" stroke="midnightblue" d="M559,-340.96C555.34,-345.68 545.5,-349 529.5,-349 503.24,-349 493.6,-340.06 500.57,-330.66"/>
<polygon fill="midnightblue" stroke="midnightblue" points="562.47,-340.45 558.43,-330.66 555.48,-340.84 562.47,-340.45"/>
</g>
<!-- Node3 -->
<g id="node3" class="node">
<title>Node3</title>
<g id="a_node3"><a xlink:href="classlegendary_1_1core_1_1_legendary_core.html#a305f6de8f6046ca1e04347e08f0bf62d" target="_top" xlink:title=" ">
<polygon fill="white" stroke="black" points="235,-300.5 235,-330.5 361,-330.5 361,-300.5 235,-300.5"/>
<text text-anchor="start" x="243" y="-318.5" font-family="Helvetica,sans-Serif" font-size="10.00">legendary.core.Legendary</text>
<text text-anchor="middle" x="298" y="-307.5" font-family="Helvetica,sans-Serif" font-size="10.00">Core.prepare_download</text>
</a>
</g>
</g>
<!-- Node2&#45;&gt;Node3 -->
<g id="edge3" class="edge">
<title>Node2&#45;&gt;Node3</title>
<path fill="none" stroke="midnightblue" d="M456.23,-315.5C425.7,-315.5 390.5,-315.5 361.16,-315.5"/>
<polygon fill="midnightblue" stroke="midnightblue" points="456.39,-319 466.39,-315.5 456.39,-312 456.39,-319"/>
</g>
<!-- Node3&#45;&gt;Node3 -->
<g id="edge4" class="edge">
<title>Node3&#45;&gt;Node3</title>
<path fill="none" stroke="midnightblue" d="M336.38,-340.96C331.62,-345.68 318.82,-349 298,-349 263.83,-349 251.28,-340.06 260.36,-330.66"/>
<polygon fill="midnightblue" stroke="midnightblue" points="339.85,-340.38 335.64,-330.66 332.87,-340.88 339.85,-340.38"/>
</g>
<!-- Node4&#45;&gt;Node4 -->
<g id="edge6" class="edge">
<title>Node4&#45;&gt;Node4</title>
<path fill="none" stroke="midnightblue" d="M560.56,-271.77C559.68,-277.24 549.32,-281.5 529.5,-281.5 500,-281.5 491.47,-272.07 503.91,-263.26"/>
<polygon fill="midnightblue" stroke="midnightblue" points="563.44,-269.77 555.09,-263.26 557.55,-273.56 563.44,-269.77"/>
</g>
<!-- Node5&#45;&gt;Node5 -->
<g id="edge8" class="edge">
<title>Node5&#45;&gt;Node5</title>
<path fill="none" stroke="midnightblue" d="M560.56,-215.77C559.68,-221.24 549.32,-225.5 529.5,-225.5 500,-225.5 491.47,-216.07 503.91,-207.26"/>
<polygon fill="midnightblue" stroke="midnightblue" points="563.44,-213.77 555.09,-207.26 557.55,-217.56 563.44,-213.77"/>
</g>
<!-- Node6 -->
<g id="node6" class="node">
<title>Node6</title>
<g id="a_node6"><a xlink:href="classrare_1_1components_1_1tabs_1_1games_1_1import__sync_1_1egl__sync__group_1_1_e_g_l_sync_worker.html#ad22709b2e67308af35f55680d5a026e0" target="_top" xlink:title=" ">
<polygon fill="white" stroke="black" points="197,-182.5 197,-212.5 399,-212.5 399,-182.5 197,-182.5"/>
<text text-anchor="start" x="205" y="-200.5" font-family="Helvetica,sans-Serif" font-size="10.00">rare.components.tabs.games.import</text>
<text text-anchor="middle" x="298" y="-189.5" font-family="Helvetica,sans-Serif" font-size="10.00">_sync.egl_sync_group.EGLSyncWorker.run</text>
</a>
</g>
</g>
<!-- Node5&#45;&gt;Node6 -->
<g id="edge9" class="edge">
<title>Node5&#45;&gt;Node6</title>
<path fill="none" stroke="midnightblue" d="M482.69,-197.5C458.69,-197.5 428.31,-197.5 399.2,-197.5"/>
<polygon fill="midnightblue" stroke="midnightblue" points="482.89,-201 492.89,-197.5 482.89,-194 482.89,-201"/>
</g>
<!-- Node6&#45;&gt;Node6 -->
<g id="edge10" class="edge">
<title>Node6&#45;&gt;Node6</title>
<path fill="none" stroke="midnightblue" d="M336.38,-222.96C331.62,-227.68 318.82,-231 298,-231 263.83,-231 251.28,-222.06 260.36,-212.66"/>
<polygon fill="midnightblue" stroke="midnightblue" points="339.85,-222.38 335.64,-212.66 332.87,-222.88 339.85,-222.38"/>
</g>
<!-- Node7&#45;&gt;Node7 -->
<g id="edge13" class="edge">
<title>Node7&#45;&gt;Node7</title>
<path fill="none" stroke="midnightblue" d="M560.56,-159.77C559.68,-165.24 549.32,-169.5 529.5,-169.5 500,-169.5 491.47,-160.07 503.91,-151.26"/>
<polygon fill="midnightblue" stroke="midnightblue" points="563.44,-157.77 555.09,-151.26 557.55,-161.56 563.44,-157.77"/>
</g>
<!-- Node8&#45;&gt;Node8 -->
<g id="edge15" class="edge">
<title>Node8&#45;&gt;Node8</title>
<path fill="none" stroke="midnightblue" d="M558.56,-98.32C565.28,-106.12 555.59,-113.5 529.5,-113.5 496.75,-113.5 489.85,-101.88 508.78,-92.39"/>
<polygon fill="midnightblue" stroke="midnightblue" points="560.4,-95.33 550.22,-92.39 556.34,-101.04 560.4,-95.33"/>
</g>
<!-- Node9 -->
<g id="node9" class="node">
<title>Node9</title>
<g id="a_node9"><a xlink:href="classrare_1_1components_1_1main__window_1_1_main_window.html#afc38d280c34aec053559c9e55ade68a0" target="_top" xlink:title=" ">
<polygon fill="white" stroke="black" points="229,-68 229,-109 367,-109 367,-68 229,-68"/>
<text text-anchor="start" x="237" y="-97" font-family="Helvetica,sans-Serif" font-size="10.00">rare.components.main</text>
<text text-anchor="start" x="237" y="-86" font-family="Helvetica,sans-Serif" font-size="10.00">_window.MainWindow.show</text>
<text text-anchor="middle" x="298" y="-75" font-family="Helvetica,sans-Serif" font-size="10.00">_window_centered</text>
</a>
</g>
</g>
<!-- Node8&#45;&gt;Node9 -->
<g id="edge16" class="edge">
<title>Node8&#45;&gt;Node9</title>
<path fill="none" stroke="midnightblue" d="M498.56,-85.89C465.41,-86.32 410.91,-87.04 367.22,-87.61"/>
<polygon fill="midnightblue" stroke="midnightblue" points="498.98,-89.39 508.93,-85.76 498.89,-82.39 498.98,-89.39"/>
</g>
<!-- Node9&#45;&gt;Node9 -->
<g id="edge17" class="edge">
<title>Node9&#45;&gt;Node9</title>
<path fill="none" stroke="midnightblue" d="M335.16,-119.36C329.64,-124.2 317.25,-127.5 298,-127.5 267.2,-127.5 253.97,-119.04 258.3,-109.36"/>
<polygon fill="midnightblue" stroke="midnightblue" points="338.63,-119.92 337.7,-109.36 331.85,-118.2 338.63,-119.92"/>
</g>
<!-- Node10&#45;&gt;Node10 -->
<g id="edge23" class="edge">
<title>Node10&#45;&gt;Node10</title>
<path fill="none" stroke="midnightblue" d="M559,-45.96C555.34,-50.68 545.5,-54 529.5,-54 503.24,-54 493.6,-45.06 500.57,-35.66"/>
<polygon fill="midnightblue" stroke="midnightblue" points="562.47,-45.45 558.43,-35.66 555.48,-45.84 562.47,-45.45"/>
</g>
<!-- Node11 -->
<g id="node11" class="node">
<title>Node11</title>
<g id="a_node11"><a xlink:href="classrare_1_1components_1_1tabs_1_1downloads_1_1_downloads_tab.html#a34dfac3ae00e55c098b07fd107a14daa" target="_top" xlink:title=" ">
<polygon fill="white" stroke="black" points="216,-0.5 216,-30.5 380,-30.5 380,-0.5 216,-0.5"/>
<text text-anchor="start" x="224" y="-18.5" font-family="Helvetica,sans-Serif" font-size="10.00">rare.components.tabs.downloads.</text>
<text text-anchor="middle" x="298" y="-7.5" font-family="Helvetica,sans-Serif" font-size="10.00">DownloadsTab.get_install_options</text>
</a>
</g>
</g>
<!-- Node10&#45;&gt;Node11 -->
<g id="edge19" class="edge">
<title>Node10&#45;&gt;Node11</title>
<path fill="none" stroke="midnightblue" d="M424.58,-18.24C409.71,-17.91 394.6,-17.58 380.25,-17.27"/>
<polygon fill="midnightblue" stroke="midnightblue" points="424.75,-21.74 434.82,-18.46 424.9,-14.74 424.75,-21.74"/>
</g>
<!-- Node11&#45;&gt;Node11 -->
<g id="edge22" class="edge">
<title>Node11&#45;&gt;Node11</title>
<path fill="none" stroke="midnightblue" d="M336.38,-40.96C331.62,-45.68 318.82,-49 298,-49 263.83,-49 251.28,-40.06 260.36,-30.66"/>
<polygon fill="midnightblue" stroke="midnightblue" points="339.85,-40.38 335.64,-30.66 332.87,-40.88 339.85,-40.38"/>
</g>
<!-- Node12 -->
<g id="node12" class="node">
<title>Node12</title>
<g id="a_node12"><a xlink:href="classrare_1_1components_1_1tabs_1_1downloads_1_1_downloads_tab.html#a83a97ccf6be350f23f2276203f82a5bf" target="_top" xlink:title=" ">
<polygon fill="white" stroke="black" points="0,-0.5 0,-30.5 161,-30.5 161,-0.5 0,-0.5"/>
<text text-anchor="start" x="8" y="-18.5" font-family="Helvetica,sans-Serif" font-size="10.00">rare.components.tabs.downloads.</text>
<text text-anchor="middle" x="80.5" y="-7.5" font-family="Helvetica,sans-Serif" font-size="10.00">DownloadsTab.add_update</text>
</a>
</g>
</g>
<!-- Node11&#45;&gt;Node12 -->
<g id="edge20" class="edge">
<title>Node11&#45;&gt;Node12</title>
<path fill="none" stroke="midnightblue" d="M205.67,-15.5C190.88,-15.5 175.65,-15.5 161.16,-15.5"/>
<polygon fill="midnightblue" stroke="midnightblue" points="205.84,-19 215.84,-15.5 205.84,-12 205.84,-19"/>
</g>
<!-- Node12&#45;&gt;Node12 -->
<g id="edge21" class="edge">
<title>Node12&#45;&gt;Node12</title>
<path fill="none" stroke="midnightblue" d="M118.88,-40.96C114.12,-45.68 101.32,-49 80.5,-49 46.33,-49 33.78,-40.06 42.86,-30.66"/>
<polygon fill="midnightblue" stroke="midnightblue" points="122.35,-40.38 118.14,-30.66 115.37,-40.88 122.35,-40.38"/>
</g>
</g>
</svg>
