<?xml version="1.0" encoding="UTF-8" standalone="no"?>
<!DOCTYPE svg PUBLIC "-//W3C//DTD SVG 1.1//EN"
 "http://www.w3.org/Graphics/SVG/1.1/DTD/svg11.dtd">
<!-- Generated by graphviz version 2.49.3 (20211027.1534)
 -->
<!-- Title: set_wishlist Pages: 1 -->
<!--zoomable 355 -->
<svg id="main" version="1.1" xmlns="http://www.w3.org/2000/svg" xmlns:xlink="http://www.w3.org/1999/xlink" xml:space="preserve" onload="init(evt)">
<style type="text/css"><![CDATA[
.edge:hover path { stroke: red; }
.edge:hover polygon { stroke: red; fill: red; }
]]></style>
<script type="text/javascript"><![CDATA[
var edges = document.getElementsByTagName('g');
if (edges && edges.length) {
  for (var i=0;i<edges.length;i++) {
    if (edges[i].id.substr(0,4)=='edge') {
      edges[i].setAttribute('class','edge');
    }
  }
}
]]></script>
        <defs>
                <circle id="rim" cx="0" cy="0" r="7"/>
                <circle id="rim2" cx="0" cy="0" r="3.5"/>
                <g id="zoomPlus">
                        <use xlink:href="#rim" fill="#404040">
                                <set attributeName="fill" to="#808080" begin="zoomplus.mouseover" end="zoomplus.mouseout"/>
                        </use>
                        <path d="M-4,0h8M0,-4v8" fill="none" stroke="white" stroke-width="1.5" pointer-events="none"/>
                </g>
                <g id="zoomMin">
                        <use xlink:href="#rim" fill="#404040">
                                <set attributeName="fill" to="#808080" begin="zoomminus.mouseover" end="zoomminus.mouseout"/>
                        </use>
                        <path d="M-4,0h8" fill="none" stroke="white" stroke-width="1.5" pointer-events="none"/>
                </g>
                <g id="dirArrow">
                        <path fill="none" stroke="white" stroke-width="1.5" d="M0,-3.0v7 M-2.5,-0.5L0,-3.0L2.5,-0.5"/>
                </g>
               <g id="resetDef">
                       <use xlink:href="#rim2" fill="#404040">
                               <set attributeName="fill" to="#808080" begin="reset.mouseover" end="reset.mouseout"/>
                       </use>
               </g>
        </defs>

<script type="text/javascript">
var viewWidth = 901;
var viewHeight = 355;
var sectionId = 'dynsection-8';
</script>
<script xlink:href="svgpan.js"/>
<svg id="graph" class="graph">
<g id="viewport">
<title>set_wishlist</title>
<polygon fill="white" stroke="transparent" points="-4,4 -4,-351 897,-351 897,4 -4,4"/>
<!-- Node1 -->
<g id="node1" class="node">
<title>Node1</title>
<g id="a_node1"><a xlink:title=" ">
<polygon fill="#bfbfbf" stroke="black" points="0,-104 0,-123 68,-123 68,-104 0,-104"/>
<text text-anchor="middle" x="34" y="-111" font-family="Helvetica,sans-Serif" font-size="10.00">set_wishlist</text>
</a>
</g>
</g>
<!-- Node1&#45;&gt;Node1 -->
<g id="edge18" class="edge">
<title>Node1&#45;&gt;Node1</title>
<path fill="none" stroke="midnightblue" d="M12.42,-123.26C1.92,-132.07 9.12,-141.5 34,-141.5 49.94,-141.5 58.62,-137.63 60.04,-132.53"/>
<polygon fill="midnightblue" stroke="midnightblue" points="63.07,-130.75 55.58,-123.26 56.76,-133.79 63.07,-130.75"/>
</g>
<!-- Node2 -->
<g id="node2" class="node">
<title>Node2</title>
<g id="a_node2"><a xlink:href="classrare_1_1components_1_1tabs_1_1shop_1_1wishlist_1_1_wishlist.html#af3c7e539406b02c61ba2f2217a5cdf17" target="_top" xlink:title=" ">
<polygon fill="white" stroke="black" points="122.5,-182 122.5,-201 228.5,-201 228.5,-182 122.5,-182"/>
<text text-anchor="middle" x="175.5" y="-189" font-family="Helvetica,sans-Serif" font-size="10.00">delete_from_wishlist</text>
</a>
</g>
</g>
<!-- Node1&#45;&gt;Node2 -->
<g id="edge1" class="edge">
<title>Node1&#45;&gt;Node2</title>
<path fill="none" stroke="midnightblue" d="M48.4,-123.04C62.05,-132.58 84.01,-147.37 104,-158.5 116.3,-165.35 130.26,-172.08 142.5,-177.67"/>
<polygon fill="midnightblue" stroke="midnightblue" points="141.32,-180.97 151.87,-181.88 144.18,-174.59 141.32,-180.97"/>
</g>
<!-- Node9 -->
<g id="node9" class="node">
<title>Node9</title>
<g id="a_node9"><a xlink:href="classrare_1_1components_1_1tabs_1_1shop_1_1_shop.html#adce81273b921608423370102d510bcab" target="_top" xlink:title=" ">
<polygon fill="white" stroke="black" points="108,-0.5 108,-30.5 243,-30.5 243,-0.5 108,-0.5"/>
<text text-anchor="start" x="116" y="-18.5" font-family="Helvetica,sans-Serif" font-size="10.00">rare.components.tabs.shop.</text>
<text text-anchor="middle" x="175.5" y="-7.5" font-family="Helvetica,sans-Serif" font-size="10.00">Shop.show_game_info</text>
</a>
</g>
</g>
<!-- Node1&#45;&gt;Node9 -->
<g id="edge19" class="edge">
<title>Node1&#45;&gt;Node9</title>
<path fill="none" stroke="midnightblue" d="M45.85,-103.87C59.12,-92.28 82.5,-72.51 104,-57.5 114.88,-49.91 127.17,-42.28 138.4,-35.65"/>
<polygon fill="midnightblue" stroke="midnightblue" points="140.26,-38.62 147.14,-30.57 136.74,-32.57 140.26,-38.62"/>
</g>
<!-- Node12 -->
<g id="node12" class="node">
<title>Node12</title>
<g id="a_node12"><a xlink:href="classrare_1_1components_1_1tabs_1_1games_1_1_games_tab.html#a09ad02746b43edc7bbeade971378aa4e" target="_top" xlink:title=" ">
<polygon fill="white" stroke="black" points="104,-67.5 104,-97.5 247,-97.5 247,-67.5 104,-67.5"/>
<text text-anchor="start" x="112" y="-85.5" font-family="Helvetica,sans-Serif" font-size="10.00">rare.components.tabs.games.</text>
<text text-anchor="middle" x="175.5" y="-74.5" font-family="Helvetica,sans-Serif" font-size="10.00">GamesTab.show_game_info</text>
</a>
</g>
</g>
<!-- Node1&#45;&gt;Node12 -->
<g id="edge24" class="edge">
<title>Node1&#45;&gt;Node12</title>
<path fill="none" stroke="midnightblue" d="M68.06,-106.15C76.91,-104.19 86.87,-101.97 97.05,-99.71"/>
<polygon fill="midnightblue" stroke="midnightblue" points="97.84,-103.12 106.84,-97.53 96.32,-96.29 97.84,-103.12"/>
</g>
<!-- Node2&#45;&gt;Node2 -->
<g id="edge2" class="edge">
<title>Node2&#45;&gt;Node2</title>
<path fill="none" stroke="midnightblue" d="M153.92,-201.26C143.42,-210.07 150.62,-219.5 175.5,-219.5 191.44,-219.5 200.12,-215.63 201.54,-210.53"/>
<polygon fill="midnightblue" stroke="midnightblue" points="204.57,-208.75 197.08,-201.26 198.26,-211.79 204.57,-208.75"/>
</g>
<!-- Node3 -->
<g id="node3" class="node">
<title>Node3</title>
<g id="a_node3"><a xlink:href="classrare_1_1components_1_1dialogs_1_1launch__dialog_1_1_image_worker.html#abfb44fdc3f5ec4c03f5d2e72900deb61" target="_top" xlink:title=" ">
<polygon fill="white" stroke="black" points="721.5,-195.5 721.5,-225.5 873.5,-225.5 873.5,-195.5 721.5,-195.5"/>
<text text-anchor="start" x="729.5" y="-213.5" font-family="Helvetica,sans-Serif" font-size="10.00">rare.components.dialogs.launch</text>
<text text-anchor="middle" x="797.5" y="-202.5" font-family="Helvetica,sans-Serif" font-size="10.00">_dialog.ImageWorker.tr</text>
</a>
</g>
</g>
<!-- Node2&#45;&gt;Node3 -->
<g id="edge3" class="edge">
<title>Node2&#45;&gt;Node3</title>
<path fill="none" stroke="midnightblue" d="M228.56,-193.1C335.41,-196.37 580.39,-203.88 710.93,-207.88"/>
<polygon fill="midnightblue" stroke="midnightblue" points="711.18,-211.39 721.28,-208.19 711.39,-204.39 711.18,-211.39"/>
</g>
<!-- Node4 -->
<g id="node4" class="node">
<title>Node4</title>
<g id="a_node4"><a xlink:href="classrare_1_1components_1_1tabs_1_1shop_1_1_shop.html#a1588283f05f1e5890f0e0dab63904ece" target="_top" xlink:title=" ">
<polygon fill="white" stroke="black" points="293.5,-298.5 293.5,-328.5 428.5,-328.5 428.5,-298.5 293.5,-298.5"/>
<text text-anchor="start" x="301.5" y="-316.5" font-family="Helvetica,sans-Serif" font-size="10.00">rare.components.tabs.shop.</text>
<text text-anchor="middle" x="361" y="-305.5" font-family="Helvetica,sans-Serif" font-size="10.00">Shop.update_wishlist</text>
</a>
</g>
</g>
<!-- Node2&#45;&gt;Node4 -->
<g id="edge5" class="edge">
<title>Node2&#45;&gt;Node4</title>
<path fill="none" stroke="midnightblue" d="M184.58,-201.22C201.11,-220.54 240.83,-264 283,-288.5 286.69,-290.64 290.59,-292.63 294.6,-294.47"/>
<polygon fill="midnightblue" stroke="midnightblue" points="293.52,-297.81 304.09,-298.49 296.25,-291.37 293.52,-297.81"/>
</g>
<!-- Node5 -->
<g id="node5" class="node">
<title>Node5</title>
<g id="a_node5"><a xlink:href="classrare_1_1components_1_1tabs_1_1shop_1_1shop__widget_1_1_shop_widget.html#a1588283f05f1e5890f0e0dab63904ece" target="_top" xlink:title=" ">
<polygon fill="white" stroke="black" points="283,-220 283,-261 439,-261 439,-220 283,-220"/>
<text text-anchor="start" x="291" y="-249" font-family="Helvetica,sans-Serif" font-size="10.00">rare.components.tabs.shop.shop</text>
<text text-anchor="start" x="291" y="-238" font-family="Helvetica,sans-Serif" font-size="10.00">_widget.ShopWidget.update</text>
<text text-anchor="middle" x="361" y="-227" font-family="Helvetica,sans-Serif" font-size="10.00">_wishlist</text>
</a>
</g>
</g>
<!-- Node2&#45;&gt;Node5 -->
<g id="edge7" class="edge">
<title>Node2&#45;&gt;Node5</title>
<path fill="none" stroke="midnightblue" d="M212.32,-201.06C229.77,-205.73 251.6,-211.55 273.07,-217.29"/>
<polygon fill="midnightblue" stroke="midnightblue" points="272.33,-220.71 282.89,-219.91 274.13,-213.95 272.33,-220.71"/>
</g>
<!-- Node8 -->
<g id="node8" class="node">
<title>Node8</title>
<g id="a_node8"><a xlink:href="classrare_1_1components_1_1tabs_1_1shop_1_1wishlist_1_1_wishlist.html#a1588283f05f1e5890f0e0dab63904ece" target="_top" xlink:title=" ">
<polygon fill="white" stroke="black" points="319,-126 319,-145 403,-145 403,-126 319,-126"/>
<text text-anchor="middle" x="361" y="-133" font-family="Helvetica,sans-Serif" font-size="10.00">update_wishlist</text>
</a>
</g>
</g>
<!-- Node2&#45;&gt;Node8 -->
<g id="edge15" class="edge">
<title>Node2&#45;&gt;Node8</title>
<path fill="none" stroke="midnightblue" d="M208.04,-181.87C238.69,-172.52 285.38,-158.27 318.91,-148.04"/>
<polygon fill="midnightblue" stroke="midnightblue" points="320.32,-151.27 328.87,-145 318.28,-144.57 320.32,-151.27"/>
</g>
<!-- Node3&#45;&gt;Node3 -->
<g id="edge4" class="edge">
<title>Node3&#45;&gt;Node3</title>
<path fill="none" stroke="midnightblue" d="M758.11,-225.66C748.62,-235.06 761.75,-244 797.5,-244 819.29,-244 832.67,-240.68 837.66,-235.96"/>
<polygon fill="midnightblue" stroke="midnightblue" points="841.12,-235.37 836.89,-225.66 834.14,-235.89 841.12,-235.37"/>
</g>
<!-- Node4&#45;&gt;Node4 -->
<g id="edge6" class="edge">
<title>Node4&#45;&gt;Node4</title>
<path fill="none" stroke="midnightblue" d="M328.93,-328.66C321.2,-338.06 331.89,-347 361,-347 378.74,-347 389.64,-343.68 393.69,-338.96"/>
<polygon fill="midnightblue" stroke="midnightblue" points="397.17,-338.43 393.07,-328.66 390.18,-338.85 397.17,-338.43"/>
</g>
<!-- Node5&#45;&gt;Node5 -->
<g id="edge14" class="edge">
<title>Node5&#45;&gt;Node5</title>
<path fill="none" stroke="midnightblue" d="M327.18,-261.36C323.49,-271.04 334.77,-279.5 361,-279.5 377.4,-279.5 387.95,-276.2 392.66,-271.36"/>
<polygon fill="midnightblue" stroke="midnightblue" points="396.12,-271.88 394.82,-261.36 389.28,-270.4 396.12,-271.88"/>
</g>
<!-- Node6 -->
<g id="node6" class="node">
<title>Node6</title>
<g id="a_node6"><a xlink:href="classrare_1_1components_1_1tabs_1_1shop_1_1game__info_1_1_shop_game_info.html#a3fc8c31e9c09c30d1480d83be79cd5bd" target="_top" xlink:title=" ">
<polygon fill="white" stroke="black" points="702,-272.5 702,-302.5 893,-302.5 893,-272.5 702,-272.5"/>
<text text-anchor="start" x="710" y="-290.5" font-family="Helvetica,sans-Serif" font-size="10.00">rare.components.tabs.shop.game</text>
<text text-anchor="middle" x="797.5" y="-279.5" font-family="Helvetica,sans-Serif" font-size="10.00">_info.ShopGameInfo.add_wishlist_items</text>
</a>
</g>
</g>
<!-- Node5&#45;&gt;Node6 -->
<g id="edge8" class="edge">
<title>Node5&#45;&gt;Node6</title>
<path fill="none" stroke="midnightblue" d="M412.63,-261.09C431.84,-267.95 454.11,-274.78 475,-278.5 546.47,-291.22 628.27,-293.35 691.47,-292.35"/>
<polygon fill="midnightblue" stroke="midnightblue" points="691.92,-295.84 701.85,-292.16 691.79,-288.85 691.92,-295.84"/>
</g>
<!-- Node7 -->
<g id="node7" class="node">
<title>Node7</title>
<g id="a_node7"><a xlink:href="classrare_1_1components_1_1tabs_1_1shop_1_1shop__widget_1_1_shop_widget.html#a3fc8c31e9c09c30d1480d83be79cd5bd" target="_top" xlink:title=" ">
<polygon fill="white" stroke="black" points="475,-220.5 475,-250.5 666,-250.5 666,-220.5 475,-220.5"/>
<text text-anchor="start" x="483" y="-238.5" font-family="Helvetica,sans-Serif" font-size="10.00">rare.components.tabs.shop.shop</text>
<text text-anchor="middle" x="570.5" y="-227.5" font-family="Helvetica,sans-Serif" font-size="10.00">_widget.ShopWidget.add_wishlist_items</text>
</a>
</g>
</g>
<!-- Node5&#45;&gt;Node7 -->
<g id="edge10" class="edge">
<title>Node5&#45;&gt;Node7</title>
<path fill="none" stroke="midnightblue" d="M439.27,-238.64C447.63,-238.44 456.24,-238.23 464.86,-238.02"/>
<polygon fill="midnightblue" stroke="midnightblue" points="465.05,-241.52 474.97,-237.78 464.89,-234.52 465.05,-241.52"/>
</g>
<!-- Node6&#45;&gt;Node6 -->
<g id="edge9" class="edge">
<title>Node6&#45;&gt;Node6</title>
<path fill="none" stroke="midnightblue" d="M758.11,-302.66C748.62,-312.06 761.75,-321 797.5,-321 819.29,-321 832.67,-317.68 837.66,-312.96"/>
<polygon fill="midnightblue" stroke="midnightblue" points="841.12,-312.37 836.89,-302.66 834.14,-312.89 841.12,-312.37"/>
</g>
<!-- Node7&#45;&gt;Node3 -->
<g id="edge13" class="edge">
<title>Node7&#45;&gt;Node3</title>
<path fill="none" stroke="midnightblue" d="M666.27,-224.97C681.2,-223.31 696.56,-221.6 711.25,-219.97"/>
<polygon fill="midnightblue" stroke="midnightblue" points="711.76,-223.44 721.31,-218.85 710.98,-216.48 711.76,-223.44"/>
</g>
<!-- Node7&#45;&gt;Node6 -->
<g id="edge11" class="edge">
<title>Node7&#45;&gt;Node6</title>
<path fill="none" stroke="midnightblue" d="M636.58,-250.54C663.17,-256.68 694.08,-263.83 721.6,-270.19"/>
<polygon fill="midnightblue" stroke="midnightblue" points="721.04,-273.65 731.57,-272.49 722.61,-266.83 721.04,-273.65"/>
</g>
<!-- Node7&#45;&gt;Node7 -->
<g id="edge12" class="edge">
<title>Node7&#45;&gt;Node7</title>
<path fill="none" stroke="midnightblue" d="M534.25,-250.66C525.51,-260.06 537.59,-269 570.5,-269 590.55,-269 602.87,-265.68 607.46,-260.96"/>
<polygon fill="midnightblue" stroke="midnightblue" points="610.93,-260.39 606.75,-250.66 603.95,-260.88 610.93,-260.39"/>
</g>
<!-- Node8&#45;&gt;Node1 -->
<g id="edge16" class="edge">
<title>Node8&#45;&gt;Node1</title>
<path fill="none" stroke="midnightblue" d="M318.64,-135.57C267.93,-135.28 179.41,-133.49 104,-125.5 95.66,-124.62 86.81,-123.34 78.32,-121.94"/>
<polygon fill="midnightblue" stroke="midnightblue" points="78.66,-118.45 68.22,-120.2 77.47,-125.35 78.66,-118.45"/>
</g>
<!-- Node8&#45;&gt;Node8 -->
<g id="edge17" class="edge">
<title>Node8&#45;&gt;Node8</title>
<path fill="none" stroke="midnightblue" d="M332.64,-145.26C318.84,-154.07 328.3,-163.5 361,-163.5 383.48,-163.5 394.98,-159.04 395.48,-153.39"/>
<polygon fill="midnightblue" stroke="midnightblue" points="398.17,-151.14 389.36,-145.26 392.58,-155.35 398.17,-151.14"/>
</g>
<!-- Node9&#45;&gt;Node9 -->
<g id="edge23" class="edge">
<title>Node9&#45;&gt;Node9</title>
<path fill="none" stroke="midnightblue" d="M151.1,-30.66C145.22,-40.06 153.35,-49 175.5,-49 189,-49 197.29,-45.68 200.38,-40.96"/>
<polygon fill="midnightblue" stroke="midnightblue" points="203.86,-40.49 199.9,-30.66 196.87,-40.81 203.86,-40.49"/>
</g>
<!-- Node10 -->
<g id="node10" class="node">
<title>Node10</title>
<g id="a_node10"><a xlink:href="classrare_1_1lgndr_1_1glue_1_1monkeys_1_1_lgndr_indirect_logger.html#a98a895468c8036bb8122dd2c568d91e7" target="_top" xlink:title=" ">
<polygon fill="white" stroke="black" points="300,-0.5 300,-30.5 422,-30.5 422,-0.5 300,-0.5"/>
<text text-anchor="start" x="308" y="-18.5" font-family="Helvetica,sans-Serif" font-size="10.00">rare.lgndr.glue.monkeys.</text>
<text text-anchor="middle" x="361" y="-7.5" font-family="Helvetica,sans-Serif" font-size="10.00">LgndrIndirectLogger.info</text>
</a>
</g>
</g>
<!-- Node9&#45;&gt;Node10 -->
<g id="edge20" class="edge">
<title>Node9&#45;&gt;Node10</title>
<path fill="none" stroke="midnightblue" d="M243.01,-15.5C258.09,-15.5 274.16,-15.5 289.41,-15.5"/>
<polygon fill="midnightblue" stroke="midnightblue" points="289.81,-19 299.81,-15.5 289.81,-12 289.81,-19"/>
</g>
<!-- Node10&#45;&gt;Node10 -->
<g id="edge22" class="edge">
<title>Node10&#45;&gt;Node10</title>
<path fill="none" stroke="midnightblue" d="M328.93,-30.66C321.2,-40.06 331.89,-49 361,-49 378.74,-49 389.64,-45.68 393.69,-40.96"/>
<polygon fill="midnightblue" stroke="midnightblue" points="397.17,-40.43 393.07,-30.66 390.18,-40.85 397.17,-40.43"/>
</g>
<!-- Node11 -->
<g id="node11" class="node">
<title>Node11</title>
<g id="a_node11"><a xlink:href="classrare_1_1lgndr_1_1glue_1_1monkeys_1_1_lgndr_indirect_logger.html#a66bb1af90088807e5445bcf242390463" target="_top" xlink:title=" ">
<polygon fill="white" stroke="black" points="508.5,-0.5 508.5,-30.5 632.5,-30.5 632.5,-0.5 508.5,-0.5"/>
<text text-anchor="start" x="516.5" y="-18.5" font-family="Helvetica,sans-Serif" font-size="10.00">rare.lgndr.glue.monkeys.</text>
<text text-anchor="middle" x="570.5" y="-7.5" font-family="Helvetica,sans-Serif" font-size="10.00">LgndrIndirectLogger._log</text>
</a>
</g>
</g>
<!-- Node10&#45;&gt;Node11 -->
<g id="edge21" class="edge">
<title>Node10&#45;&gt;Node11</title>
<path fill="none" stroke="midnightblue" d="M422.02,-15.5C445.79,-15.5 473.32,-15.5 498.1,-15.5"/>
<polygon fill="midnightblue" stroke="midnightblue" points="498.18,-19 508.18,-15.5 498.18,-12 498.18,-19"/>
</g>
<!-- Node12&#45;&gt;Node12 -->
<g id="edge25" class="edge">
<title>Node12&#45;&gt;Node12</title>
<path fill="none" stroke="midnightblue" d="M151.1,-97.66C145.22,-107.06 153.35,-116 175.5,-116 189,-116 197.29,-112.68 200.38,-107.96"/>
<polygon fill="midnightblue" stroke="midnightblue" points="203.86,-107.49 199.9,-97.66 196.87,-107.81 203.86,-107.49"/>
</g>
</g>
</svg>
        <g id="navigator" transform="translate(0 0)" fill="#404254">
                <rect fill="#f2f5e9" fill-opacity="0.5" stroke="#606060" stroke-width=".5" x="0" y="0" width="60" height="60"/>
                <use id="zoomplus" xlink:href="#zoomPlus" x="17" y="9" onmousedown="handleZoom(evt,'in')"/>
                <use id="zoomminus" xlink:href="#zoomMin" x="42" y="9" onmousedown="handleZoom(evt,'out')"/>
                <use id="reset" xlink:href="#resetDef" x="30" y="36" onmousedown="handleReset()"/>
                <g id="arrowUp" xlink:href="#dirArrow" transform="translate(30 24)" onmousedown="handlePan(0,-1)">
                  <use xlink:href="#rim" fill="#404040">
                        <set attributeName="fill" to="#808080" begin="arrowUp.mouseover" end="arrowUp.mouseout"/>
                  </use>
                  <path fill="none" stroke="white" stroke-width="1.5" d="M0,-3.0v7 M-2.5,-0.5L0,-3.0L2.5,-0.5"/>
                </g>
                <g id="arrowRight" xlink:href="#dirArrow" transform="rotate(90) translate(36 -43)" onmousedown="handlePan(1,0)">
                  <use xlink:href="#rim" fill="#404040">
                        <set attributeName="fill" to="#808080" begin="arrowRight.mouseover" end="arrowRight.mouseout"/>
                  </use>
                  <path fill="none" stroke="white" stroke-width="1.5" d="M0,-3.0v7 M-2.5,-0.5L0,-3.0L2.5,-0.5"/>
                </g>
                <g id="arrowDown" xlink:href="#dirArrow" transform="rotate(180) translate(-30 -48)" onmousedown="handlePan(0,1)">
                  <use xlink:href="#rim" fill="#404040">
                        <set attributeName="fill" to="#808080" begin="arrowDown.mouseover" end="arrowDown.mouseout"/>
                  </use>
                  <path fill="none" stroke="white" stroke-width="1.5" d="M0,-3.0v7 M-2.5,-0.5L0,-3.0L2.5,-0.5"/>
                </g>
                <g id="arrowLeft" xlink:href="#dirArrow" transform="rotate(270) translate(-36 17)" onmousedown="handlePan(-1,0)">
                  <use xlink:href="#rim" fill="#404040">
                        <set attributeName="fill" to="#808080" begin="arrowLeft.mouseover" end="arrowLeft.mouseout"/>
                  </use>
                  <path fill="none" stroke="white" stroke-width="1.5" d="M0,-3.0v7 M-2.5,-0.5L0,-3.0L2.5,-0.5"/>
                </g>
        </g>
        <svg viewBox="0 0 15 15" width="100%" height="30px" preserveAspectRatio="xMaxYMin meet">
         <g id="arrow_out" transform="scale(0.3 0.3)">
          <a xlink:href="classrare_1_1components_1_1tabs_1_1shop_1_1wishlist_1_1_wishlist_a7121fb58d29cad3edf2ebb23d073256a_cgraph_org.svg" target="_base">
           <rect id="button" ry="5" rx="5" y="6" x="6" height="38" width="38"
                fill="#f2f5e9" fill-opacity="0.5" stroke="#606060" stroke-width="1.0"/>
           <path id="arrow"
             d="M 11.500037,31.436501 C 11.940474,20.09759 22.043105,11.32322 32.158766,21.979434 L 37.068811,17.246167 C 37.068811,17.246167 37.088388,32 37.088388,32 L 22.160133,31.978069 C 22.160133,31.978069 26.997745,27.140456 26.997745,27.140456 C 18.528582,18.264221 13.291696,25.230495 11.500037,31.436501 z"
             style="fill:#404040;"/>
          </a>
         </g>
        </svg>
</svg>
