<?xml version="1.0" encoding="UTF-8" standalone="no"?>
<!DOCTYPE svg PUBLIC "-//W3C//DTD SVG 1.1//EN"
 "http://www.w3.org/Graphics/SVG/1.1/DTD/svg11.dtd">
<!-- Generated by graphviz version 2.49.3 (20211027.1534)
 -->
<!-- Title: import_radio_clicked Pages: 1 -->
<svg width="334pt" height="57pt"
 viewBox="0.00 0.00 334.00 57.00" xmlns="http://www.w3.org/2000/svg" xmlns:xlink="http://www.w3.org/1999/xlink">
<g id="graph0" class="graph" transform="scale(1 1) rotate(0) translate(4 53)">
<title>import_radio_clicked</title>
<polygon fill="white" stroke="transparent" points="-4,4 -4,-53 330,-53 330,4 -4,4"/>
<!-- Node1 -->
<g id="node1" class="node">
<title>Node1</title>
<g id="a_node1"><a xlink:title=" ">
<polygon fill="#bfbfbf" stroke="black" points="0,-6 0,-25 106,-25 106,-6 0,-6"/>
<text text-anchor="middle" x="53" y="-13" font-family="Helvetica,sans-Serif" font-size="10.00">import_radio_clicked</text>
</a>
</g>
</g>
<!-- Node1&#45;&gt;Node1 -->
<g id="edge1" class="edge">
<title>Node1&#45;&gt;Node1</title>
<path fill="none" stroke="midnightblue" d="M25.26,-25.26C11.76,-34.07 21.01,-43.5 53,-43.5 74.99,-43.5 86.24,-39.04 86.73,-33.39"/>
<polygon fill="midnightblue" stroke="midnightblue" points="89.49,-31.23 80.74,-25.26 83.85,-35.38 89.49,-31.23"/>
</g>
<!-- Node2 -->
<g id="node2" class="node">
<title>Node2</title>
<g id="a_node2"><a xlink:href="classrare_1_1components_1_1tabs_1_1games_1_1game__widgets_1_1game__widget_1_1_game_widget.html#aa660d748bc3a0c7c2dfaa15cee8e6ba6" target="_top" xlink:title=" ">
<polygon fill="white" stroke="black" points="142,-0.5 142,-30.5 326,-30.5 326,-0.5 142,-0.5"/>
<text text-anchor="start" x="150" y="-18.5" font-family="Helvetica,sans-Serif" font-size="10.00">rare.components.tabs.games.game</text>
<text text-anchor="middle" x="234" y="-7.5" font-family="Helvetica,sans-Serif" font-size="10.00">_widgets.game_widget.GameWidget.ui</text>
</a>
</g>
</g>
<!-- Node1&#45;&gt;Node2 -->
<g id="edge2" class="edge">
<title>Node1&#45;&gt;Node2</title>
<path fill="none" stroke="midnightblue" d="M106.26,-15.5C114.43,-15.5 123.1,-15.5 131.93,-15.5"/>
<polygon fill="midnightblue" stroke="midnightblue" points="131.95,-19 141.95,-15.5 131.95,-12 131.95,-19"/>
</g>
<!-- Node2&#45;&gt;Node2 -->
<g id="edge3" class="edge">
<title>Node2&#45;&gt;Node2</title>
<path fill="none" stroke="midnightblue" d="M202.63,-30.66C195.07,-40.06 205.52,-49 234,-49 251.35,-49 262.01,-45.68 265.98,-40.96"/>
<polygon fill="midnightblue" stroke="midnightblue" points="269.46,-40.43 265.37,-30.66 262.47,-40.85 269.46,-40.43"/>
</g>
</g>
</svg>
