<?xml version="1.0" encoding="UTF-8" standalone="no"?>
<!DOCTYPE svg PUBLIC "-//W3C//DTD SVG 1.1//EN"
 "http://www.w3.org/Graphics/SVG/1.1/DTD/svg11.dtd">
<!-- Generated by graphviz version 2.49.3 (20211027.1534)
 -->
<!-- Title: ShopWidget Pages: 1 -->
<svg width="232pt" height="650pt"
 viewBox="0.00 0.00 232.00 650.00" xmlns="http://www.w3.org/2000/svg" xmlns:xlink="http://www.w3.org/1999/xlink">
<g id="graph0" class="graph" transform="scale(1 1) rotate(0) translate(4 646)">
<title>ShopWidget</title>
<polygon fill="white" stroke="transparent" points="-4,4 -4,-646 228,-646 228,4 -4,4"/>
<!-- Node1 -->
<g id="node1" class="node">
<title>Node1</title>
<g id="a_node1"><a xlink:title=" ">
<polygon fill="#bfbfbf" stroke="black" points="31,-0.5 31,-332.5 158,-332.5 158,-0.5 31,-0.5"/>
<text text-anchor="middle" x="94.5" y="-320.5" font-family="Helvetica,sans-Serif" font-size="10.00">ShopWidget</text>
<polyline fill="none" stroke="black" points="31,-313.5 158,-313.5 "/>
<text text-anchor="start" x="39" y="-301.5" font-family="Helvetica,sans-Serif" font-size="10.00">+ path</text>
<text text-anchor="start" x="39" y="-290.5" font-family="Helvetica,sans-Serif" font-size="10.00">+ core</text>
<text text-anchor="start" x="39" y="-279.5" font-family="Helvetica,sans-Serif" font-size="10.00">+ api_core</text>
<text text-anchor="start" x="39" y="-268.5" font-family="Helvetica,sans-Serif" font-size="10.00">+ price</text>
<text text-anchor="start" x="39" y="-257.5" font-family="Helvetica,sans-Serif" font-size="10.00">+ tags</text>
<text text-anchor="start" x="39" y="-246.5" font-family="Helvetica,sans-Serif" font-size="10.00">+ types</text>
<text text-anchor="start" x="39" y="-235.5" font-family="Helvetica,sans-Serif" font-size="10.00">+ update_games_allowed</text>
<text text-anchor="start" x="39" y="-224.5" font-family="Helvetica,sans-Serif" font-size="10.00">+ search_bar</text>
<text text-anchor="start" x="39" y="-213.5" font-family="Helvetica,sans-Serif" font-size="10.00">+ free_games_now</text>
<text text-anchor="start" x="39" y="-202.5" font-family="Helvetica,sans-Serif" font-size="10.00">+ coming_free_games</text>
<text text-anchor="start" x="39" y="-191.5" font-family="Helvetica,sans-Serif" font-size="10.00">+ checkboxes</text>
<text text-anchor="start" x="39" y="-180.5" font-family="Helvetica,sans-Serif" font-size="10.00">+ show_info</text>
<text text-anchor="start" x="39" y="-169.5" font-family="Helvetica,sans-Serif" font-size="10.00">+ show_game</text>
<text text-anchor="start" x="39" y="-158.5" font-family="Helvetica,sans-Serif" font-size="10.00">+ free_game_widgets</text>
<text text-anchor="start" x="39" y="-147.5" font-family="Helvetica,sans-Serif" font-size="10.00">+ active_search_request</text>
<text text-anchor="start" x="39" y="-136.5" font-family="Helvetica,sans-Serif" font-size="10.00">+ next_search</text>
<text text-anchor="start" x="39" y="-125.5" font-family="Helvetica,sans-Serif" font-size="10.00">+ list</text>
<polyline fill="none" stroke="black" points="31,-118.5 158,-118.5 "/>
<text text-anchor="start" x="39" y="-106.5" font-family="Helvetica,sans-Serif" font-size="10.00">+ __init__()</text>
<text text-anchor="start" x="39" y="-95.5" font-family="Helvetica,sans-Serif" font-size="10.00">+ load()</text>
<text text-anchor="start" x="39" y="-84.5" font-family="Helvetica,sans-Serif" font-size="10.00">+ update_wishlist()</text>
<text text-anchor="start" x="39" y="-73.5" font-family="Helvetica,sans-Serif" font-size="10.00">+ add_wishlist_items()</text>
<text text-anchor="start" x="39" y="-62.5" font-family="Helvetica,sans-Serif" font-size="10.00">+ add_free_games()</text>
<text text-anchor="start" x="39" y="-51.5" font-family="Helvetica,sans-Serif" font-size="10.00">+ show_search_results()</text>
<text text-anchor="start" x="39" y="-40.5" font-family="Helvetica,sans-Serif" font-size="10.00">+ init_filter()</text>
<text text-anchor="start" x="39" y="-29.5" font-family="Helvetica,sans-Serif" font-size="10.00">+ reset_filters()</text>
<text text-anchor="start" x="39" y="-18.5" font-family="Helvetica,sans-Serif" font-size="10.00">+ prepare_request()</text>
<text text-anchor="start" x="39" y="-7.5" font-family="Helvetica,sans-Serif" font-size="10.00">+ show_games()</text>
</a>
</g>
</g>
<!-- Node2 -->
<g id="node2" class="node">
<title>Node2</title>
<g id="a_node2"><a xlink:title=" ">
<polygon fill="white" stroke="#bfbfbf" points="0,-430 0,-487 69,-487 69,-430 0,-430"/>
<text text-anchor="middle" x="34.5" y="-475" font-family="Helvetica,sans-Serif" font-size="10.00">QScrollArea</text>
<polyline fill="none" stroke="#bfbfbf" points="0,-468 69,-468 "/>
<text text-anchor="middle" x="34.5" y="-456" font-family="Helvetica,sans-Serif" font-size="10.00"> </text>
<polyline fill="none" stroke="#bfbfbf" points="0,-449 69,-449 "/>
<text text-anchor="middle" x="34.5" y="-437" font-family="Helvetica,sans-Serif" font-size="10.00"> </text>
</a>
</g>
</g>
<!-- Node2&#45;&gt;Node1 -->
<g id="edge1" class="edge">
<title>Node2&#45;&gt;Node1</title>
<path fill="none" stroke="midnightblue" d="M42.27,-419.94C47.05,-396.82 53.55,-365.4 60.34,-332.58"/>
<polygon fill="none" stroke="midnightblue" points="38.8,-419.45 40.2,-429.96 45.65,-420.87 38.8,-419.45"/>
</g>
<!-- Node3 -->
<g id="node3" class="node">
<title>Node3</title>
<g id="a_node3"><a xlink:href="classrare_1_1ui_1_1components_1_1tabs_1_1store_1_1store_1_1_ui___shop_widget.html" target="_top" xlink:title=" ">
<polygon fill="white" stroke="black" points="87,-369.5 87,-547.5 224,-547.5 224,-369.5 87,-369.5"/>
<text text-anchor="middle" x="155.5" y="-535.5" font-family="Helvetica,sans-Serif" font-size="10.00">Ui_ShopWidget</text>
<polyline fill="none" stroke="black" points="87,-528.5 224,-528.5 "/>
<text text-anchor="start" x="95" y="-516.5" font-family="Helvetica,sans-Serif" font-size="10.00">+ verticalLayout_7</text>
<text text-anchor="start" x="95" y="-505.5" font-family="Helvetica,sans-Serif" font-size="10.00">+ horizontalLayout_2</text>
<text text-anchor="start" x="95" y="-494.5" font-family="Helvetica,sans-Serif" font-size="10.00">+ scrollArea</text>
<text text-anchor="start" x="95" y="-483.5" font-family="Helvetica,sans-Serif" font-size="10.00">+ scrollAreaWidgetContents</text>
<text text-anchor="start" x="95" y="-472.5" font-family="Helvetica,sans-Serif" font-size="10.00">+ horizontalLayout</text>
<text text-anchor="start" x="95" y="-461.5" font-family="Helvetica,sans-Serif" font-size="10.00">+ widget</text>
<text text-anchor="start" x="95" y="-450.5" font-family="Helvetica,sans-Serif" font-size="10.00">+ verticalLayout</text>
<text text-anchor="start" x="95" y="-439.5" font-family="Helvetica,sans-Serif" font-size="10.00">+ free_game_group_box</text>
<text text-anchor="start" x="95" y="-428.5" font-family="Helvetica,sans-Serif" font-size="10.00">+ verticalLayout_3</text>
<text text-anchor="start" x="95" y="-417.5" font-family="Helvetica,sans-Serif" font-size="10.00">+ free_stack</text>
<text text-anchor="start" x="95" y="-406.5" font-family="Helvetica,sans-Serif" font-size="10.00">and 29 more...</text>
<polyline fill="none" stroke="black" points="87,-399.5 224,-399.5 "/>
<text text-anchor="start" x="95" y="-387.5" font-family="Helvetica,sans-Serif" font-size="10.00">+ setupUi()</text>
<text text-anchor="start" x="95" y="-376.5" font-family="Helvetica,sans-Serif" font-size="10.00">+ retranslateUi()</text>
</a>
</g>
</g>
<!-- Node3&#45;&gt;Node1 -->
<g id="edge2" class="edge">
<title>Node3&#45;&gt;Node1</title>
<path fill="none" stroke="midnightblue" d="M134.84,-359.27C133.02,-350.6 131.14,-341.69 129.24,-332.68"/>
<polygon fill="none" stroke="midnightblue" points="131.47,-360.24 136.95,-369.31 138.32,-358.8 131.47,-360.24"/>
</g>
<!-- Node4 -->
<g id="node4" class="node">
<title>Node4</title>
<g id="a_node4"><a xlink:title=" ">
<polygon fill="white" stroke="#bfbfbf" points="134,-584.5 134,-641.5 177,-641.5 177,-584.5 134,-584.5"/>
<text text-anchor="middle" x="155.5" y="-629.5" font-family="Helvetica,sans-Serif" font-size="10.00">object</text>
<polyline fill="none" stroke="#bfbfbf" points="134,-622.5 177,-622.5 "/>
<text text-anchor="middle" x="155.5" y="-610.5" font-family="Helvetica,sans-Serif" font-size="10.00"> </text>
<polyline fill="none" stroke="#bfbfbf" points="134,-603.5 177,-603.5 "/>
<text text-anchor="middle" x="155.5" y="-591.5" font-family="Helvetica,sans-Serif" font-size="10.00"> </text>
</a>
</g>
</g>
<!-- Node4&#45;&gt;Node3 -->
<g id="edge3" class="edge">
<title>Node4&#45;&gt;Node3</title>
<path fill="none" stroke="midnightblue" d="M155.5,-574.37C155.5,-566.09 155.5,-556.98 155.5,-547.62"/>
<polygon fill="none" stroke="midnightblue" points="152,-574.38 155.5,-584.38 159,-574.38 152,-574.38"/>
</g>
</g>
</svg>
