<?xml version="1.0" encoding="UTF-8" standalone="no"?>
<!DOCTYPE svg PUBLIC "-//W3C//DTD SVG 1.1//EN"
 "http://www.w3.org/Graphics/SVG/1.1/DTD/svg11.dtd">
<!-- Generated by graphviz version 2.49.3 (20211027.1534)
 -->
<!-- Title: verify_game Pages: 1 -->
<svg width="298pt" height="46pt"
 viewBox="0.00 0.00 298.00 46.00" xmlns="http://www.w3.org/2000/svg" xmlns:xlink="http://www.w3.org/1999/xlink">
<g id="graph0" class="graph" transform="scale(1 1) rotate(0) translate(4 42)">
<title>verify_game</title>
<polygon fill="white" stroke="transparent" points="-4,4 -4,-42 294,-42 294,4 -4,4"/>
<!-- Node1 -->
<g id="node1" class="node">
<title>Node1</title>
<g id="a_node1"><a xlink:title=" ">
<polygon fill="#bfbfbf" stroke="black" points="221,-0.5 221,-19.5 290,-19.5 290,-0.5 221,-0.5"/>
<text text-anchor="middle" x="255.5" y="-7.5" font-family="Helvetica,sans-Serif" font-size="10.00">verify_game</text>
</a>
</g>
</g>
<!-- Node1&#45;&gt;Node1 -->
<g id="edge5" class="edge">
<title>Node1&#45;&gt;Node1</title>
<path fill="none" stroke="midnightblue" d="M274.76,-29.4C273.47,-34.31 267.05,-38 255.5,-38 237.02,-38 231.67,-28.57 239.47,-19.76"/>
<polygon fill="midnightblue" stroke="midnightblue" points="278.02,-28.13 271.53,-19.76 271.39,-30.35 278.02,-28.13"/>
</g>
<!-- Node2 -->
<g id="node2" class="node">
<title>Node2</title>
<g id="a_node2"><a xlink:href="classrare_1_1components_1_1tabs_1_1games_1_1game__info_1_1game__info_1_1_game_info.html#a0c1ec5a8b5b81f2e8b0483bfd9330a81" target="_top" xlink:title=" ">
<polygon fill="white" stroke="black" points="115,-0.5 115,-19.5 185,-19.5 185,-0.5 115,-0.5"/>
<text text-anchor="middle" x="150" y="-7.5" font-family="Helvetica,sans-Serif" font-size="10.00">repair_game</text>
</a>
</g>
</g>
<!-- Node1&#45;&gt;Node2 -->
<g id="edge1" class="edge">
<title>Node1&#45;&gt;Node2</title>
<path fill="none" stroke="midnightblue" d="M210.69,-10C202.15,-10 193.31,-10 185.14,-10"/>
<polygon fill="midnightblue" stroke="midnightblue" points="210.9,-13.5 220.9,-10 210.9,-6.5 210.9,-13.5"/>
</g>
<!-- Node2&#45;&gt;Node2 -->
<g id="edge2" class="edge">
<title>Node2&#45;&gt;Node2</title>
<path fill="none" stroke="midnightblue" d="M169.26,-29.4C167.97,-34.31 161.55,-38 150,-38 131.52,-38 126.17,-28.57 133.97,-19.76"/>
<polygon fill="midnightblue" stroke="midnightblue" points="172.52,-28.13 166.03,-19.76 165.89,-30.35 172.52,-28.13"/>
</g>
<!-- Node3 -->
<g id="node3" class="node">
<title>Node3</title>
<g id="a_node3"><a xlink:href="classrare_1_1components_1_1tabs_1_1games_1_1game__info_1_1game__info_1_1_game_info.html#a2dd9f46e508a959eff847156da39b2d7" target="_top" xlink:title=" ">
<polygon fill="white" stroke="black" points="0,-0.5 0,-19.5 79,-19.5 79,-0.5 0,-0.5"/>
<text text-anchor="middle" x="39.5" y="-7.5" font-family="Helvetica,sans-Serif" font-size="10.00">verify_cleanup</text>
</a>
</g>
</g>
<!-- Node2&#45;&gt;Node3 -->
<g id="edge3" class="edge">
<title>Node2&#45;&gt;Node3</title>
<path fill="none" stroke="midnightblue" d="M104.87,-10C96.41,-10 87.61,-10 79.33,-10"/>
<polygon fill="midnightblue" stroke="midnightblue" points="104.97,-13.5 114.97,-10 104.97,-6.5 104.97,-13.5"/>
</g>
<!-- Node3&#45;&gt;Node3 -->
<g id="edge4" class="edge">
<title>Node3&#45;&gt;Node3</title>
<path fill="none" stroke="midnightblue" d="M59.87,-29.4C58.51,-34.31 51.72,-38 39.5,-38 19.95,-38 14.3,-28.57 22.55,-19.76"/>
<polygon fill="midnightblue" stroke="midnightblue" points="63.09,-28.01 56.45,-19.76 56.49,-30.35 63.09,-28.01"/>
</g>
</g>
</svg>
