<?xml version="1.0" encoding="UTF-8" standalone="no"?>
<!DOCTYPE svg PUBLIC "-//W3C//DTD SVG 1.1//EN"
 "http://www.w3.org/Graphics/SVG/1.1/DTD/svg11.dtd">
<!-- Generated by graphviz version 2.49.3 (20211027.1534)
 -->
<!-- Title: get_steam_grade Pages: 1 -->
<!--zoomable 479 -->
<svg id="main" version="1.1" xmlns="http://www.w3.org/2000/svg" xmlns:xlink="http://www.w3.org/1999/xlink" xml:space="preserve" onload="init(evt)">
<style type="text/css"><![CDATA[
.edge:hover path { stroke: red; }
.edge:hover polygon { stroke: red; fill: red; }
]]></style>
<script type="text/javascript"><![CDATA[
var edges = document.getElementsByTagName('g');
if (edges && edges.length) {
  for (var i=0;i<edges.length;i++) {
    if (edges[i].id.substr(0,4)=='edge') {
      edges[i].setAttribute('class','edge');
    }
  }
}
]]></script>
        <defs>
                <circle id="rim" cx="0" cy="0" r="7"/>
                <circle id="rim2" cx="0" cy="0" r="3.5"/>
                <g id="zoomPlus">
                        <use xlink:href="#rim" fill="#404040">
                                <set attributeName="fill" to="#808080" begin="zoomplus.mouseover" end="zoomplus.mouseout"/>
                        </use>
                        <path d="M-4,0h8M0,-4v8" fill="none" stroke="white" stroke-width="1.5" pointer-events="none"/>
                </g>
                <g id="zoomMin">
                        <use xlink:href="#rim" fill="#404040">
                                <set attributeName="fill" to="#808080" begin="zoomminus.mouseover" end="zoomminus.mouseout"/>
                        </use>
                        <path d="M-4,0h8" fill="none" stroke="white" stroke-width="1.5" pointer-events="none"/>
                </g>
                <g id="dirArrow">
                        <path fill="none" stroke="white" stroke-width="1.5" d="M0,-3.0v7 M-2.5,-0.5L0,-3.0L2.5,-0.5"/>
                </g>
               <g id="resetDef">
                       <use xlink:href="#rim2" fill="#404040">
                               <set attributeName="fill" to="#808080" begin="reset.mouseover" end="reset.mouseout"/>
                       </use>
               </g>
        </defs>

<script type="text/javascript">
var viewWidth = 1123;
var viewHeight = 479;
var sectionId = 'dynsection-16';
</script>
<script xlink:href="svgpan.js"/>
<svg id="graph" class="graph">
<g id="viewport">
<title>get_steam_grade</title>
<polygon fill="white" stroke="transparent" points="-4,4 -4,-475 1119,-475 1119,4 -4,4"/>
<!-- Node1 -->
<g id="node1" class="node">
<title>Node1</title>
<g id="a_node1"><a xlink:title=" ">
<polygon fill="#bfbfbf" stroke="black" points="0,-237 0,-256 92,-256 92,-237 0,-237"/>
<text text-anchor="middle" x="46" y="-244" font-family="Helvetica,sans-Serif" font-size="10.00">get_steam_grade</text>
</a>
</g>
</g>
<!-- Node1&#45;&gt;Node1 -->
<g id="edge13" class="edge">
<title>Node1&#45;&gt;Node1</title>
<path fill="none" stroke="midnightblue" d="M17.64,-256.26C3.84,-265.07 13.3,-274.5 46,-274.5 68.48,-274.5 79.98,-270.04 80.48,-264.39"/>
<polygon fill="midnightblue" stroke="midnightblue" points="83.17,-262.14 74.36,-256.26 77.58,-266.35 83.17,-262.14"/>
</g>
<!-- Node2 -->
<g id="node2" class="node">
<title>Node2</title>
<g id="a_node2"><a xlink:href="classrare_1_1components_1_1tabs_1_1library_1_1integrations_1_1egl__sync__group_1_1_e_g_l_sync_list_item.html#ae1cd35b1295fa44fd6906c1bcf28fd20" target="_top" xlink:title=" ">
<polygon fill="white" stroke="black" points="128,-422.5 128,-452.5 333,-452.5 333,-422.5 128,-422.5"/>
<text text-anchor="start" x="136" y="-440.5" font-family="Helvetica,sans-Serif" font-size="10.00">rare.components.tabs.library.integrations.egl</text>
<text text-anchor="middle" x="230.5" y="-429.5" font-family="Helvetica,sans-Serif" font-size="10.00">_sync_group.EGLSyncListItem.app_title</text>
</a>
</g>
</g>
<!-- Node1&#45;&gt;Node2 -->
<g id="edge1" class="edge">
<title>Node1&#45;&gt;Node2</title>
<path fill="none" stroke="midnightblue" d="M48.71,-256.22C54.32,-285.1 74.95,-370.98 128,-413.5 129.59,-414.77 131.24,-415.98 132.93,-417.13"/>
<polygon fill="midnightblue" stroke="midnightblue" points="131.38,-420.28 141.77,-422.36 134.94,-414.25 131.38,-420.28"/>
</g>
<!-- Node3 -->
<g id="node3" class="node">
<title>Node3</title>
<g id="a_node3"><a xlink:href="classrare_1_1components_1_1tabs_1_1library_1_1integrations_1_1egl__sync__group_1_1_e_g_l_sync_export_item.html#ae1cd35b1295fa44fd6906c1bcf28fd20" target="_top" xlink:title=" ">
<polygon fill="white" stroke="black" points="128,-355.5 128,-385.5 333,-385.5 333,-355.5 128,-355.5"/>
<text text-anchor="start" x="136" y="-373.5" font-family="Helvetica,sans-Serif" font-size="10.00">rare.components.tabs.library.integrations.egl</text>
<text text-anchor="middle" x="230.5" y="-362.5" font-family="Helvetica,sans-Serif" font-size="10.00">_sync_group.EGLSyncExportItem.app_title</text>
</a>
</g>
</g>
<!-- Node1&#45;&gt;Node3 -->
<g id="edge3" class="edge">
<title>Node1&#45;&gt;Node3</title>
<path fill="none" stroke="midnightblue" d="M52.03,-256.13C62.98,-276.11 91.01,-322.14 128,-345.5 131.36,-347.62 134.88,-349.56 138.52,-351.34"/>
<polygon fill="midnightblue" stroke="midnightblue" points="137.21,-354.58 147.77,-355.42 140.03,-348.18 137.21,-354.58"/>
</g>
<!-- Node4 -->
<g id="node4" class="node">
<title>Node4</title>
<g id="a_node4"><a xlink:href="classrare_1_1components_1_1tabs_1_1library_1_1integrations_1_1egl__sync__group_1_1_e_g_l_sync_import_item.html#ae1cd35b1295fa44fd6906c1bcf28fd20" target="_top" xlink:title=" ">
<polygon fill="white" stroke="black" points="128,-164.5 128,-194.5 333,-194.5 333,-164.5 128,-164.5"/>
<text text-anchor="start" x="136" y="-182.5" font-family="Helvetica,sans-Serif" font-size="10.00">rare.components.tabs.library.integrations.egl</text>
<text text-anchor="middle" x="230.5" y="-171.5" font-family="Helvetica,sans-Serif" font-size="10.00">_sync_group.EGLSyncImportItem.app_title</text>
</a>
</g>
</g>
<!-- Node1&#45;&gt;Node4 -->
<g id="edge5" class="edge">
<title>Node1&#45;&gt;Node4</title>
<path fill="none" stroke="midnightblue" d="M73.15,-236.9C100.72,-226.78 144.82,-210.59 179.17,-197.98"/>
<polygon fill="midnightblue" stroke="midnightblue" points="180.4,-201.25 188.58,-194.52 177.99,-194.68 180.4,-201.25"/>
</g>
<!-- Node7 -->
<g id="node7" class="node">
<title>Node7</title>
<g id="a_node7"><a xlink:href="classrare_1_1models_1_1base__game_1_1_rare_game_base.html#ae1cd35b1295fa44fd6906c1bcf28fd20" target="_top" xlink:title=" ">
<polygon fill="white" stroke="black" points="159.5,-231.5 159.5,-261.5 301.5,-261.5 301.5,-231.5 159.5,-231.5"/>
<text text-anchor="start" x="167.5" y="-249.5" font-family="Helvetica,sans-Serif" font-size="10.00">rare.models.base_game.Rare</text>
<text text-anchor="middle" x="230.5" y="-238.5" font-family="Helvetica,sans-Serif" font-size="10.00">GameBase.app_title</text>
</a>
</g>
</g>
<!-- Node1&#45;&gt;Node7 -->
<g id="edge11" class="edge">
<title>Node1&#45;&gt;Node7</title>
<path fill="none" stroke="midnightblue" d="M92.11,-246.5C109.37,-246.5 129.62,-246.5 149.18,-246.5"/>
<polygon fill="midnightblue" stroke="midnightblue" points="149.33,-250 159.33,-246.5 149.33,-243 149.33,-250"/>
</g>
<!-- Node8 -->
<g id="node8" class="node">
<title>Node8</title>
<g id="a_node8"><a xlink:href="classrare_1_1models_1_1game_1_1_rare_game.html#a9830be59bfb2ba21c1f2afb0a715f61e" target="_top" xlink:title="Property to report if a Game is an Unreal Engine bundle.">
<polygon fill="white" stroke="black" points="202.5,-299 202.5,-318 258.5,-318 258.5,-299 202.5,-299"/>
<text text-anchor="middle" x="230.5" y="-306" font-family="Helvetica,sans-Serif" font-size="10.00">is_unreal</text>
</a>
</g>
</g>
<!-- Node1&#45;&gt;Node8 -->
<g id="edge14" class="edge">
<title>Node1&#45;&gt;Node8</title>
<path fill="none" stroke="midnightblue" d="M61.6,-256.01C77.36,-265.84 103.5,-280.93 128,-289.5 148.66,-296.73 172.69,-301.38 192.18,-304.27"/>
<polygon fill="midnightblue" stroke="midnightblue" points="191.82,-307.76 202.21,-305.67 192.79,-300.82 191.82,-307.76"/>
</g>
<!-- Node10 -->
<g id="node10" class="node">
<title>Node10</title>
<g id="a_node10"><a xlink:href="classrare_1_1models_1_1game_1_1_rare_game.html#a9b76c292a174e6a6013ae0b0d6f2b4b5" target="_top" xlink:title=" ">
<polygon fill="white" stroke="black" points="184.5,-108 184.5,-127 276.5,-127 276.5,-108 184.5,-108"/>
<text text-anchor="middle" x="230.5" y="-115" font-family="Helvetica,sans-Serif" font-size="10.00">set_steam_grade</text>
</a>
</g>
</g>
<!-- Node1&#45;&gt;Node10 -->
<g id="edge18" class="edge">
<title>Node1&#45;&gt;Node10</title>
<path fill="none" stroke="midnightblue" d="M53.14,-236.74C65.27,-218.19 94.08,-177.66 128,-154.5 143.41,-143.98 162.17,-136.05 179.35,-130.28"/>
<polygon fill="midnightblue" stroke="midnightblue" points="180.77,-133.5 189.24,-127.13 178.65,-126.83 180.77,-133.5"/>
</g>
<!-- Node18 -->
<g id="node18" class="node">
<title>Node18</title>
<g id="a_node18"><a xlink:href="namespacerare_1_1components.html#a019ee207f5c041fb0d2e61f76eafa958" target="_top" xlink:title=" ">
<polygon fill="white" stroke="black" points="175.5,-52 175.5,-71 285.5,-71 285.5,-52 175.5,-52"/>
<text text-anchor="middle" x="230.5" y="-59" font-family="Helvetica,sans-Serif" font-size="10.00">rare.components.start</text>
</a>
</g>
</g>
<!-- Node1&#45;&gt;Node18 -->
<g id="edge35" class="edge">
<title>Node1&#45;&gt;Node18</title>
<path fill="none" stroke="midnightblue" d="M49.71,-236.65C57.44,-210.39 82.01,-138.01 128,-98.5 140.72,-87.57 156.95,-79.76 172.67,-74.22"/>
<polygon fill="midnightblue" stroke="midnightblue" points="173.94,-77.49 182.36,-71.06 171.77,-70.84 173.94,-77.49"/>
</g>
<!-- Node2&#45;&gt;Node2 -->
<g id="edge2" class="edge">
<title>Node2&#45;&gt;Node2</title>
<path fill="none" stroke="midnightblue" d="M198.43,-452.66C190.7,-462.06 201.39,-471 230.5,-471 248.24,-471 259.14,-467.68 263.19,-462.96"/>
<polygon fill="midnightblue" stroke="midnightblue" points="266.67,-462.43 262.57,-452.66 259.68,-462.85 266.67,-462.43"/>
</g>
<!-- Node3&#45;&gt;Node3 -->
<g id="edge4" class="edge">
<title>Node3&#45;&gt;Node3</title>
<path fill="none" stroke="midnightblue" d="M198.43,-385.66C190.7,-395.06 201.39,-404 230.5,-404 248.24,-404 259.14,-400.68 263.19,-395.96"/>
<polygon fill="midnightblue" stroke="midnightblue" points="266.67,-395.43 262.57,-385.66 259.68,-395.85 266.67,-395.43"/>
</g>
<!-- Node4&#45;&gt;Node4 -->
<g id="edge6" class="edge">
<title>Node4&#45;&gt;Node4</title>
<path fill="none" stroke="midnightblue" d="M198.43,-194.66C190.7,-204.06 201.39,-213 230.5,-213 248.24,-213 259.14,-209.68 263.19,-204.96"/>
<polygon fill="midnightblue" stroke="midnightblue" points="266.67,-204.43 262.57,-194.66 259.68,-204.85 266.67,-204.43"/>
</g>
<!-- Node5 -->
<g id="node5" class="node">
<title>Node5</title>
<g id="a_node5"><a xlink:href="classrare_1_1shared_1_1rare__core_1_1_rare_core.html#a405e1a4f20f16120f872ccd2654a1d56" target="_top" xlink:title=" ">
<polygon fill="white" stroke="black" points="406.5,-167.5 406.5,-197.5 536.5,-197.5 536.5,-167.5 406.5,-167.5"/>
<text text-anchor="start" x="414.5" y="-185.5" font-family="Helvetica,sans-Serif" font-size="10.00">rare.shared.rare_core.Rare</text>
<text text-anchor="middle" x="471.5" y="-174.5" font-family="Helvetica,sans-Serif" font-size="10.00">Core.core</text>
</a>
</g>
</g>
<!-- Node4&#45;&gt;Node5 -->
<g id="edge7" class="edge">
<title>Node4&#45;&gt;Node5</title>
<path fill="none" stroke="midnightblue" d="M333.2,-180.78C354.3,-181.04 376.16,-181.32 396.06,-181.57"/>
<polygon fill="midnightblue" stroke="midnightblue" points="396.23,-185.07 406.27,-181.69 396.32,-178.07 396.23,-185.07"/>
</g>
<!-- Node5&#45;&gt;Node5 -->
<g id="edge8" class="edge">
<title>Node5&#45;&gt;Node5</title>
<path fill="none" stroke="midnightblue" d="M435.6,-197.66C426.94,-207.06 438.91,-216 471.5,-216 491.36,-216 503.56,-212.68 508.1,-207.96"/>
<polygon fill="midnightblue" stroke="midnightblue" points="511.57,-207.4 507.4,-197.66 504.59,-207.87 511.57,-207.4"/>
</g>
<!-- Node6 -->
<g id="node6" class="node">
<title>Node6</title>
<g id="a_node6"><a xlink:href="classrare_1_1shared_1_1workers_1_1worker_1_1_worker.html#a5d3220537164bdcd6c040b54ef85f656" target="_top" xlink:title=" ">
<polygon fill="white" stroke="black" points="610,-167.5 610,-197.5 745,-197.5 745,-167.5 610,-167.5"/>
<text text-anchor="start" x="618" y="-185.5" font-family="Helvetica,sans-Serif" font-size="10.00">rare.shared.workers.worker.</text>
<text text-anchor="middle" x="677.5" y="-174.5" font-family="Helvetica,sans-Serif" font-size="10.00">Worker.logger</text>
</a>
</g>
</g>
<!-- Node5&#45;&gt;Node6 -->
<g id="edge9" class="edge">
<title>Node5&#45;&gt;Node6</title>
<path fill="none" stroke="midnightblue" d="M536.77,-182.5C556.74,-182.5 578.96,-182.5 599.7,-182.5"/>
<polygon fill="midnightblue" stroke="midnightblue" points="599.74,-186 609.74,-182.5 599.74,-179 599.74,-186"/>
</g>
<!-- Node6&#45;&gt;Node6 -->
<g id="edge10" class="edge">
<title>Node6&#45;&gt;Node6</title>
<path fill="none" stroke="midnightblue" d="M647.53,-197.66C640.3,-207.06 650.29,-216 677.5,-216 694.08,-216 704.27,-212.68 708.06,-207.96"/>
<polygon fill="midnightblue" stroke="midnightblue" points="711.54,-207.44 707.47,-197.66 704.55,-207.84 711.54,-207.44"/>
</g>
<!-- Node7&#45;&gt;Node7 -->
<g id="edge12" class="edge">
<title>Node7&#45;&gt;Node7</title>
<path fill="none" stroke="midnightblue" d="M198.43,-261.66C190.7,-271.06 201.39,-280 230.5,-280 248.24,-280 259.14,-276.68 263.19,-271.96"/>
<polygon fill="midnightblue" stroke="midnightblue" points="266.67,-271.43 262.57,-261.66 259.68,-271.85 266.67,-271.43"/>
</g>
<!-- Node8&#45;&gt;Node8 -->
<g id="edge17" class="edge">
<title>Node8&#45;&gt;Node8</title>
<path fill="none" stroke="midnightblue" d="M202.14,-318.26C188.34,-327.07 197.8,-336.5 230.5,-336.5 252.98,-336.5 264.48,-332.04 264.98,-326.39"/>
<polygon fill="midnightblue" stroke="midnightblue" points="267.67,-324.14 258.86,-318.26 262.08,-328.35 267.67,-324.14"/>
</g>
<!-- Node9 -->
<g id="node9" class="node">
<title>Node9</title>
<g id="a_node9"><a xlink:href="classrare_1_1models_1_1game_1_1_rare_game.html#aff330cd3e3495874fbccb325e0c95236" target="_top" xlink:title="Property to report if a Game doesn&#39;t have assets.">
<polygon fill="white" stroke="black" points="434.5,-299 434.5,-318 508.5,-318 508.5,-299 434.5,-299"/>
<text text-anchor="middle" x="471.5" y="-306" font-family="Helvetica,sans-Serif" font-size="10.00">is_non_asset</text>
</a>
</g>
</g>
<!-- Node8&#45;&gt;Node9 -->
<g id="edge15" class="edge">
<title>Node8&#45;&gt;Node9</title>
<path fill="none" stroke="midnightblue" d="M258.92,-308.5C299.32,-308.5 375.37,-308.5 424.44,-308.5"/>
<polygon fill="midnightblue" stroke="midnightblue" points="424.48,-312 434.48,-308.5 424.48,-305 424.48,-312"/>
</g>
<!-- Node9&#45;&gt;Node9 -->
<g id="edge16" class="edge">
<title>Node9&#45;&gt;Node9</title>
<path fill="none" stroke="midnightblue" d="M439.75,-318.26C424.3,-327.07 434.89,-336.5 471.5,-336.5 497.82,-336.5 510.68,-331.63 510.11,-325.61"/>
<polygon fill="midnightblue" stroke="midnightblue" points="512.63,-323.19 503.25,-318.26 507.51,-327.96 512.63,-323.19"/>
</g>
<!-- Node10&#45;&gt;Node5 -->
<g id="edge21" class="edge">
<title>Node10&#45;&gt;Node5</title>
<path fill="none" stroke="midnightblue" d="M262.8,-127.01C290.6,-135.36 332.38,-147.67 369,-157.5 378.24,-159.98 387.97,-162.5 397.61,-164.93"/>
<polygon fill="midnightblue" stroke="midnightblue" points="397.04,-168.4 407.59,-167.44 398.74,-161.61 397.04,-168.4"/>
</g>
<!-- Node10&#45;&gt;Node10 -->
<g id="edge34" class="edge">
<title>Node10&#45;&gt;Node10</title>
<path fill="none" stroke="midnightblue" d="M202.14,-127.26C188.34,-136.07 197.8,-145.5 230.5,-145.5 252.98,-145.5 264.48,-141.04 264.98,-135.39"/>
<polygon fill="midnightblue" stroke="midnightblue" points="267.67,-133.14 258.86,-127.26 262.08,-137.35 267.67,-133.14"/>
</g>
<!-- Node11 -->
<g id="node11" class="node">
<title>Node11</title>
<g id="a_node11"><a xlink:href="classrare_1_1components_1_1tabs_1_1library_1_1integrations_1_1egl__sync__group_1_1_e_g_l_sync_list_item.html#a9c470cc60eae203f55455d0e0d7f5712" target="_top" xlink:title=" ">
<polygon fill="white" stroke="black" points="369,-100.5 369,-130.5 574,-130.5 574,-100.5 369,-100.5"/>
<text text-anchor="start" x="377" y="-118.5" font-family="Helvetica,sans-Serif" font-size="10.00">rare.components.tabs.library.integrations.egl</text>
<text text-anchor="middle" x="471.5" y="-107.5" font-family="Helvetica,sans-Serif" font-size="10.00">_sync_group.EGLSyncListItem.app_name</text>
</a>
</g>
</g>
<!-- Node10&#45;&gt;Node11 -->
<g id="edge19" class="edge">
<title>Node10&#45;&gt;Node11</title>
<path fill="none" stroke="midnightblue" d="M276.74,-117.12C300.1,-116.93 329.74,-116.68 358.76,-116.44"/>
<polygon fill="midnightblue" stroke="midnightblue" points="359.02,-119.93 368.99,-116.35 358.96,-112.93 359.02,-119.93"/>
</g>
<!-- Node12 -->
<g id="node12" class="node">
<title>Node12</title>
<g id="a_node12"><a xlink:href="namespacerare_1_1utils_1_1steam__grades.html#a4e7b99fc1497122026fa827e8a81368b" target="_top" xlink:title=" ">
<polygon fill="white" stroke="black" points="405,-33.5 405,-63.5 538,-63.5 538,-33.5 405,-33.5"/>
<text text-anchor="start" x="413" y="-51.5" font-family="Helvetica,sans-Serif" font-size="10.00">rare.utils.steam_grades.get</text>
<text text-anchor="middle" x="471.5" y="-40.5" font-family="Helvetica,sans-Serif" font-size="10.00">_rating</text>
</a>
</g>
</g>
<!-- Node10&#45;&gt;Node12 -->
<g id="edge22" class="edge">
<title>Node10&#45;&gt;Node12</title>
<path fill="none" stroke="midnightblue" d="M276.58,-110.69C294.31,-107.59 314.76,-103.49 333,-98.5 364.2,-89.97 398.39,-77.55 424.87,-67.22"/>
<polygon fill="midnightblue" stroke="midnightblue" points="426.24,-70.45 434.26,-63.53 423.67,-63.94 426.24,-70.45"/>
</g>
<!-- Node11&#45;&gt;Node11 -->
<g id="edge20" class="edge">
<title>Node11&#45;&gt;Node11</title>
<path fill="none" stroke="midnightblue" d="M435.6,-130.66C426.94,-140.06 438.91,-149 471.5,-149 491.36,-149 503.56,-145.68 508.1,-140.96"/>
<polygon fill="midnightblue" stroke="midnightblue" points="511.57,-140.4 507.4,-130.66 504.59,-140.87 511.57,-140.4"/>
</g>
<!-- Node12&#45;&gt;Node12 -->
<g id="edge25" class="edge">
<title>Node12&#45;&gt;Node12</title>
<path fill="none" stroke="midnightblue" d="M435.6,-63.66C426.94,-73.06 438.91,-82 471.5,-82 491.36,-82 503.56,-78.68 508.1,-73.96"/>
<polygon fill="midnightblue" stroke="midnightblue" points="511.57,-73.4 507.4,-63.66 504.59,-73.87 511.57,-73.4"/>
</g>
<!-- Node13 -->
<g id="node13" class="node">
<title>Node13</title>
<g id="a_node13"><a xlink:href="namespacerare_1_1utils_1_1steam__grades.html#afb84b77f9ccf4f2f47fe022771e9b7b4" target="_top" xlink:title=" ">
<polygon fill="white" stroke="black" points="611,-0.5 611,-30.5 744,-30.5 744,-0.5 611,-0.5"/>
<text text-anchor="start" x="619" y="-18.5" font-family="Helvetica,sans-Serif" font-size="10.00">rare.utils.steam_grades.get</text>
<text text-anchor="middle" x="677.5" y="-7.5" font-family="Helvetica,sans-Serif" font-size="10.00">_grade</text>
</a>
</g>
</g>
<!-- Node12&#45;&gt;Node13 -->
<g id="edge23" class="edge">
<title>Node12&#45;&gt;Node13</title>
<path fill="none" stroke="midnightblue" d="M538.17,-37.88C558.19,-34.64 580.36,-31.05 600.97,-27.72"/>
<polygon fill="midnightblue" stroke="midnightblue" points="601.64,-31.16 610.95,-26.1 600.52,-24.25 601.64,-31.16"/>
</g>
<!-- Node14 -->
<g id="node14" class="node">
<title>Node14</title>
<g id="a_node14"><a xlink:href="namespacerare_1_1utils_1_1steam__grades.html#a4fbb4d953a461c946de723d1f1751396" target="_top" xlink:title=" ">
<polygon fill="white" stroke="black" points="611,-67.5 611,-97.5 744,-97.5 744,-67.5 611,-67.5"/>
<text text-anchor="start" x="619" y="-85.5" font-family="Helvetica,sans-Serif" font-size="10.00">rare.utils.steam_grades.get</text>
<text text-anchor="middle" x="677.5" y="-74.5" font-family="Helvetica,sans-Serif" font-size="10.00">_steam_id</text>
</a>
</g>
</g>
<!-- Node12&#45;&gt;Node14 -->
<g id="edge26" class="edge">
<title>Node12&#45;&gt;Node14</title>
<path fill="none" stroke="midnightblue" d="M538.17,-59.44C558.19,-62.78 580.36,-66.48 600.97,-69.91"/>
<polygon fill="midnightblue" stroke="midnightblue" points="600.51,-73.38 610.95,-71.58 601.66,-66.48 600.51,-73.38"/>
</g>
<!-- Node13&#45;&gt;Node13 -->
<g id="edge24" class="edge">
<title>Node13&#45;&gt;Node13</title>
<path fill="none" stroke="midnightblue" d="M647.53,-30.66C640.3,-40.06 650.29,-49 677.5,-49 694.08,-49 704.27,-45.68 708.06,-40.96"/>
<polygon fill="midnightblue" stroke="midnightblue" points="711.54,-40.44 707.47,-30.66 704.55,-40.84 711.54,-40.44"/>
</g>
<!-- Node14&#45;&gt;Node14 -->
<g id="edge27" class="edge">
<title>Node14&#45;&gt;Node14</title>
<path fill="none" stroke="midnightblue" d="M647.53,-97.66C640.3,-107.06 650.29,-116 677.5,-116 694.08,-116 704.27,-112.68 708.06,-107.96"/>
<polygon fill="midnightblue" stroke="midnightblue" points="711.54,-107.44 707.47,-97.66 704.55,-107.84 711.54,-107.44"/>
</g>
<!-- Node15 -->
<g id="node15" class="node">
<title>Node15</title>
<g id="a_node15"><a xlink:href="namespacerare_1_1utils_1_1steam__grades.html#a91a678d45c88d7b969f104aaf105bc5a" target="_top" xlink:title=" ">
<polygon fill="white" stroke="black" points="781,-67.5 781,-97.5 918,-97.5 918,-67.5 781,-67.5"/>
<text text-anchor="start" x="789" y="-85.5" font-family="Helvetica,sans-Serif" font-size="10.00">rare.utils.steam_grades.load</text>
<text text-anchor="middle" x="849.5" y="-74.5" font-family="Helvetica,sans-Serif" font-size="10.00">_steam_appids</text>
</a>
</g>
</g>
<!-- Node14&#45;&gt;Node15 -->
<g id="edge28" class="edge">
<title>Node14&#45;&gt;Node15</title>
<path fill="none" stroke="midnightblue" d="M744.23,-82.5C752.98,-82.5 762.03,-82.5 770.96,-82.5"/>
<polygon fill="midnightblue" stroke="midnightblue" points="770.98,-86 780.98,-82.5 770.98,-79 770.98,-86"/>
</g>
<!-- Node15&#45;&gt;Node15 -->
<g id="edge33" class="edge">
<title>Node15&#45;&gt;Node15</title>
<path fill="none" stroke="midnightblue" d="M819.53,-97.66C812.3,-107.06 822.29,-116 849.5,-116 866.08,-116 876.27,-112.68 880.06,-107.96"/>
<polygon fill="midnightblue" stroke="midnightblue" points="883.54,-107.44 879.47,-97.66 876.55,-107.84 883.54,-107.44"/>
</g>
<!-- Node16 -->
<g id="node16" class="node">
<title>Node16</title>
<g id="a_node16"><a xlink:href="namespacerare_1_1utils_1_1paths.html#a967cf7dd54d6f29434b1b44099984396" target="_top" xlink:title=" ">
<polygon fill="white" stroke="black" points="972.5,-104 972.5,-123 1096.5,-123 1096.5,-104 972.5,-104"/>
<text text-anchor="middle" x="1034.5" y="-111" font-family="Helvetica,sans-Serif" font-size="10.00">rare.utils.paths.cache_dir</text>
</a>
</g>
</g>
<!-- Node15&#45;&gt;Node16 -->
<g id="edge29" class="edge">
<title>Node15&#45;&gt;Node16</title>
<path fill="none" stroke="midnightblue" d="M918.12,-93.96C934.08,-96.66 951.07,-99.54 966.97,-102.23"/>
<polygon fill="midnightblue" stroke="midnightblue" points="966.8,-105.75 977.24,-103.97 967.97,-98.85 966.8,-105.75"/>
</g>
<!-- Node17 -->
<g id="node17" class="node">
<title>Node17</title>
<g id="a_node17"><a xlink:href="namespacerare_1_1utils_1_1steam__grades.html#a63725fdba18246c4f3e29626b109f94d" target="_top" xlink:title=" ">
<polygon fill="white" stroke="black" points="954,-36.5 954,-66.5 1115,-66.5 1115,-36.5 954,-36.5"/>
<text text-anchor="start" x="962" y="-54.5" font-family="Helvetica,sans-Serif" font-size="10.00">rare.utils.steam_grades.download</text>
<text text-anchor="middle" x="1034.5" y="-43.5" font-family="Helvetica,sans-Serif" font-size="10.00">_steam_appids</text>
</a>
</g>
</g>
<!-- Node15&#45;&gt;Node17 -->
<g id="edge31" class="edge">
<title>Node15&#45;&gt;Node17</title>
<path fill="none" stroke="midnightblue" d="M918.12,-71.04C926.47,-69.63 935.09,-68.17 943.7,-66.71"/>
<polygon fill="midnightblue" stroke="midnightblue" points="944.5,-70.13 953.78,-65.01 943.33,-63.22 944.5,-70.13"/>
</g>
<!-- Node16&#45;&gt;Node16 -->
<g id="edge30" class="edge">
<title>Node16&#45;&gt;Node16</title>
<path fill="none" stroke="midnightblue" d="M1006.14,-123.26C992.34,-132.07 1001.8,-141.5 1034.5,-141.5 1056.98,-141.5 1068.48,-137.04 1068.98,-131.39"/>
<polygon fill="midnightblue" stroke="midnightblue" points="1071.67,-129.14 1062.86,-123.26 1066.08,-133.35 1071.67,-129.14"/>
</g>
<!-- Node17&#45;&gt;Node17 -->
<g id="edge32" class="edge">
<title>Node17&#45;&gt;Node17</title>
<path fill="none" stroke="midnightblue" d="M1002.43,-66.66C994.7,-76.06 1005.39,-85 1034.5,-85 1052.24,-85 1063.14,-81.68 1067.19,-76.96"/>
<polygon fill="midnightblue" stroke="midnightblue" points="1070.67,-76.43 1066.57,-66.66 1063.68,-76.85 1070.67,-76.43"/>
</g>
<!-- Node18&#45;&gt;Node18 -->
<g id="edge36" class="edge">
<title>Node18&#45;&gt;Node18</title>
<path fill="none" stroke="midnightblue" d="M202.14,-71.26C188.34,-80.07 197.8,-89.5 230.5,-89.5 252.98,-89.5 264.48,-85.04 264.98,-79.39"/>
<polygon fill="midnightblue" stroke="midnightblue" points="267.67,-77.14 258.86,-71.26 262.08,-81.35 267.67,-77.14"/>
</g>
</g>
</svg>
        <g id="navigator" transform="translate(0 0)" fill="#404254">
                <rect fill="#f2f5e9" fill-opacity="0.5" stroke="#606060" stroke-width=".5" x="0" y="0" width="60" height="60"/>
                <use id="zoomplus" xlink:href="#zoomPlus" x="17" y="9" onmousedown="handleZoom(evt,'in')"/>
                <use id="zoomminus" xlink:href="#zoomMin" x="42" y="9" onmousedown="handleZoom(evt,'out')"/>
                <use id="reset" xlink:href="#resetDef" x="30" y="36" onmousedown="handleReset()"/>
                <g id="arrowUp" xlink:href="#dirArrow" transform="translate(30 24)" onmousedown="handlePan(0,-1)">
                  <use xlink:href="#rim" fill="#404040">
                        <set attributeName="fill" to="#808080" begin="arrowUp.mouseover" end="arrowUp.mouseout"/>
                  </use>
                  <path fill="none" stroke="white" stroke-width="1.5" d="M0,-3.0v7 M-2.5,-0.5L0,-3.0L2.5,-0.5"/>
                </g>
                <g id="arrowRight" xlink:href="#dirArrow" transform="rotate(90) translate(36 -43)" onmousedown="handlePan(1,0)">
                  <use xlink:href="#rim" fill="#404040">
                        <set attributeName="fill" to="#808080" begin="arrowRight.mouseover" end="arrowRight.mouseout"/>
                  </use>
                  <path fill="none" stroke="white" stroke-width="1.5" d="M0,-3.0v7 M-2.5,-0.5L0,-3.0L2.5,-0.5"/>
                </g>
                <g id="arrowDown" xlink:href="#dirArrow" transform="rotate(180) translate(-30 -48)" onmousedown="handlePan(0,1)">
                  <use xlink:href="#rim" fill="#404040">
                        <set attributeName="fill" to="#808080" begin="arrowDown.mouseover" end="arrowDown.mouseout"/>
                  </use>
                  <path fill="none" stroke="white" stroke-width="1.5" d="M0,-3.0v7 M-2.5,-0.5L0,-3.0L2.5,-0.5"/>
                </g>
                <g id="arrowLeft" xlink:href="#dirArrow" transform="rotate(270) translate(-36 17)" onmousedown="handlePan(-1,0)">
                  <use xlink:href="#rim" fill="#404040">
                        <set attributeName="fill" to="#808080" begin="arrowLeft.mouseover" end="arrowLeft.mouseout"/>
                  </use>
                  <path fill="none" stroke="white" stroke-width="1.5" d="M0,-3.0v7 M-2.5,-0.5L0,-3.0L2.5,-0.5"/>
                </g>
        </g>
        <svg viewBox="0 0 15 15" width="100%" height="30px" preserveAspectRatio="xMaxYMin meet">
         <g id="arrow_out" transform="scale(0.3 0.3)">
          <a xlink:href="classrare_1_1models_1_1game_1_1_rare_game_a1b184a94ba3b2d1dee4c2540864607cf_cgraph_org.svg" target="_base">
           <rect id="button" ry="5" rx="5" y="6" x="6" height="38" width="38"
                fill="#f2f5e9" fill-opacity="0.5" stroke="#606060" stroke-width="1.0"/>
           <path id="arrow"
             d="M 11.500037,31.436501 C 11.940474,20.09759 22.043105,11.32322 32.158766,21.979434 L 37.068811,17.246167 C 37.068811,17.246167 37.088388,32 37.088388,32 L 22.160133,31.978069 C 22.160133,31.978069 26.997745,27.140456 26.997745,27.140456 C 18.528582,18.264221 13.291696,25.230495 11.500037,31.436501 z"
             style="fill:#404040;"/>
          </a>
         </g>
        </svg>
</svg>
