<?xml version="1.0" encoding="UTF-8" standalone="no"?>
<!DOCTYPE svg PUBLIC "-//W3C//DTD SVG 1.1//EN"
 "http://www.w3.org/Graphics/SVG/1.1/DTD/svg11.dtd">
<!-- Generated by graphviz version 2.49.3 (20211027.1534)
 -->
<!-- Title: worker_info Pages: 1 -->
<svg width="243pt" height="57pt"
 viewBox="0.00 0.00 243.00 57.00" xmlns="http://www.w3.org/2000/svg" xmlns:xlink="http://www.w3.org/1999/xlink">
<g id="graph0" class="graph" transform="scale(1 1) rotate(0) translate(4 53)">
<title>worker_info</title>
<polygon fill="white" stroke="transparent" points="-4,4 -4,-53 239,-53 239,4 -4,4"/>
<!-- Node1 -->
<g id="node1" class="node">
<title>Node1</title>
<g id="a_node1"><a xlink:title=" ">
<polygon fill="#bfbfbf" stroke="black" points="0,-6 0,-25 67,-25 67,-6 0,-6"/>
<text text-anchor="middle" x="33.5" y="-13" font-family="Helvetica,sans-Serif" font-size="10.00">worker_info</text>
</a>
</g>
</g>
<!-- Node1&#45;&gt;Node1 -->
<g id="edge3" class="edge">
<title>Node1&#45;&gt;Node1</title>
<path fill="none" stroke="midnightblue" d="M12.85,-25.26C2.8,-34.07 9.68,-43.5 33.5,-43.5 48.76,-43.5 57.07,-39.63 58.43,-34.53"/>
<polygon fill="midnightblue" stroke="midnightblue" points="61.52,-32.87 54.15,-25.26 55.16,-35.8 61.52,-32.87"/>
</g>
<!-- Node2 -->
<g id="node2" class="node">
<title>Node2</title>
<g id="a_node2"><a xlink:href="classrare_1_1models_1_1game_1_1_rare_eos_overlay.html#a95c2692b4805ee1742eee7941b7fdd74" target="_top" xlink:title=" ">
<polygon fill="white" stroke="black" points="103,-0.5 103,-30.5 235,-30.5 235,-0.5 103,-0.5"/>
<text text-anchor="start" x="111" y="-18.5" font-family="Helvetica,sans-Serif" font-size="10.00">rare.models.game.RareEos</text>
<text text-anchor="middle" x="169" y="-7.5" font-family="Helvetica,sans-Serif" font-size="10.00">Overlay.state</text>
</a>
</g>
</g>
<!-- Node1&#45;&gt;Node2 -->
<g id="edge1" class="edge">
<title>Node1&#45;&gt;Node2</title>
<path fill="none" stroke="midnightblue" d="M67.16,-15.5C75.01,-15.5 83.72,-15.5 92.64,-15.5"/>
<polygon fill="midnightblue" stroke="midnightblue" points="92.77,-19 102.77,-15.5 92.77,-12 92.77,-19"/>
</g>
<!-- Node2&#45;&gt;Node2 -->
<g id="edge2" class="edge">
<title>Node2&#45;&gt;Node2</title>
<path fill="none" stroke="midnightblue" d="M145.65,-30.66C140.02,-40.06 147.8,-49 169,-49 181.92,-49 189.86,-45.68 192.81,-40.96"/>
<polygon fill="midnightblue" stroke="midnightblue" points="196.29,-40.49 192.35,-30.66 189.3,-40.8 196.29,-40.49"/>
</g>
</g>
</svg>
