<?xml version="1.0" encoding="UTF-8" standalone="no"?>
<!DOCTYPE svg PUBLIC "-//W3C//DTD SVG 1.1//EN"
 "http://www.w3.org/Graphics/SVG/1.1/DTD/svg11.dtd">
<!-- Generated by graphviz version 2.49.3 (20211027.1534)
 -->
<!-- Title: install_path Pages: 1 -->
<svg width="425pt" height="304pt"
 viewBox="0.00 0.00 425.00 304.00" xmlns="http://www.w3.org/2000/svg" xmlns:xlink="http://www.w3.org/1999/xlink">
<g id="graph0" class="graph" transform="scale(1 1) rotate(0) translate(4 300)">
<title>install_path</title>
<polygon fill="white" stroke="transparent" points="-4,4 -4,-300 421,-300 421,4 -4,4"/>
<!-- Node1 -->
<g id="node1" class="node">
<title>Node1</title>
<g id="a_node1"><a xlink:title=" ">
<polygon fill="#bfbfbf" stroke="black" points="0,-220.5 0,-239.5 66,-239.5 66,-220.5 0,-220.5"/>
<text text-anchor="middle" x="33" y="-227.5" font-family="Helvetica,sans-Serif" font-size="10.00">install_path</text>
</a>
</g>
</g>
<!-- Node2 -->
<g id="node2" class="node">
<title>Node2</title>
<g id="a_node2"><a xlink:href="classrare_1_1models_1_1game_1_1_rare_game.html#ab4497a00f2030cf37a1005cd4a03db92" target="_top" xlink:title=" ">
<polygon fill="white" stroke="black" points="104,-258.5 104,-277.5 170,-277.5 170,-258.5 104,-258.5"/>
<text text-anchor="middle" x="137" y="-265.5" font-family="Helvetica,sans-Serif" font-size="10.00">install_path</text>
</a>
</g>
</g>
<!-- Node1&#45;&gt;Node2 -->
<g id="edge1" class="edge">
<title>Node1&#45;&gt;Node2</title>
<path fill="none" stroke="midnightblue" d="M59.74,-239.59C72.18,-244.22 87.31,-249.86 100.8,-254.89"/>
<polygon fill="midnightblue" stroke="midnightblue" points="99.68,-258.2 110.27,-258.41 102.12,-251.64 99.68,-258.2"/>
</g>
<!-- Node3 -->
<g id="node3" class="node">
<title>Node3</title>
<g id="a_node3"><a xlink:href="classrare_1_1models_1_1game_1_1_rare_game.html#a278563422a00c7eb39dfc65d0b71f51a" target="_top" xlink:title="Property to report if a Game is an Origin game.">
<polygon fill="white" stroke="black" points="286,-258.5 286,-277.5 339,-277.5 339,-258.5 286,-258.5"/>
<text text-anchor="middle" x="312.5" y="-265.5" font-family="Helvetica,sans-Serif" font-size="10.00">is_origin</text>
</a>
</g>
</g>
<!-- Node1&#45;&gt;Node3 -->
<g id="edge5" class="edge">
<title>Node1&#45;&gt;Node3</title>
<path fill="none" stroke="midnightblue" d="M66.1,-234.4C118.27,-241.54 221.07,-255.62 275.59,-263.08"/>
<polygon fill="midnightblue" stroke="midnightblue" points="275.44,-266.59 285.82,-264.48 276.39,-259.66 275.44,-266.59"/>
</g>
<!-- Node4 -->
<g id="node4" class="node">
<title>Node4</title>
<g id="a_node4"><a xlink:href="classrare_1_1models_1_1game_1_1_rare_game.html#a7bc00fcfc3d4a34476d191b522f5bcec" target="_top" xlink:title=" ">
<polygon fill="white" stroke="black" points="102,-129.5 102,-148.5 172,-148.5 172,-129.5 102,-129.5"/>
<text text-anchor="middle" x="137" y="-136.5" font-family="Helvetica,sans-Serif" font-size="10.00">store_igame</text>
</a>
</g>
</g>
<!-- Node1&#45;&gt;Node4 -->
<g id="edge6" class="edge">
<title>Node1&#45;&gt;Node4</title>
<path fill="none" stroke="midnightblue" d="M44.92,-220.26C62.25,-204.8 96.26,-174.45 117.47,-155.54"/>
<polygon fill="midnightblue" stroke="midnightblue" points="120.03,-157.94 125.16,-148.67 115.37,-152.71 120.03,-157.94"/>
</g>
<!-- Node2&#45;&gt;Node2 -->
<g id="edge2" class="edge">
<title>Node2&#45;&gt;Node2</title>
<path fill="none" stroke="midnightblue" d="M120.97,-277.76C113.17,-286.57 118.52,-296 137,-296 148.55,-296 154.97,-292.31 156.26,-287.4"/>
<polygon fill="midnightblue" stroke="midnightblue" points="159.52,-286.13 153.03,-277.76 152.89,-288.35 159.52,-286.13"/>
</g>
<!-- Node2&#45;&gt;Node3 -->
<g id="edge3" class="edge">
<title>Node2&#45;&gt;Node3</title>
<path fill="none" stroke="midnightblue" d="M170.23,-268C200.12,-268 244.54,-268 275.56,-268"/>
<polygon fill="midnightblue" stroke="midnightblue" points="275.93,-271.5 285.93,-268 275.93,-264.5 275.93,-271.5"/>
</g>
<!-- Node3&#45;&gt;Node3 -->
<g id="edge4" class="edge">
<title>Node3&#45;&gt;Node3</title>
<path fill="none" stroke="midnightblue" d="M285.68,-277.76C272.63,-286.57 281.57,-296 312.5,-296 333.28,-296 344.13,-291.74 345.06,-286.27"/>
<polygon fill="midnightblue" stroke="midnightblue" points="347.81,-284.09 339.32,-277.76 342.01,-288.01 347.81,-284.09"/>
</g>
<!-- Node4&#45;&gt;Node4 -->
<g id="edge13" class="edge">
<title>Node4&#45;&gt;Node4</title>
<path fill="none" stroke="midnightblue" d="M120.97,-148.76C113.17,-157.57 118.52,-167 137,-167 148.55,-167 154.97,-163.31 156.26,-158.4"/>
<polygon fill="midnightblue" stroke="midnightblue" points="159.52,-157.13 153.03,-148.76 152.89,-159.35 159.52,-157.13"/>
</g>
<!-- Node5 -->
<g id="node5" class="node">
<title>Node5</title>
<g id="a_node5"><a xlink:href="classrare_1_1components_1_1tabs_1_1games_1_1integrations_1_1egl__sync__group_1_1_e_g_l_sync_list_item.html#a9c470cc60eae203f55455d0e0d7f5712" target="_top" xlink:title=" ">
<polygon fill="white" stroke="black" points="208,-191 208,-221 417,-221 417,-191 208,-191"/>
<text text-anchor="start" x="216" y="-209" font-family="Helvetica,sans-Serif" font-size="10.00">rare.components.tabs.games.integrations.egl</text>
<text text-anchor="middle" x="312.5" y="-198" font-family="Helvetica,sans-Serif" font-size="10.00">_sync_group.EGLSyncListItem.app_name</text>
</a>
</g>
</g>
<!-- Node4&#45;&gt;Node5 -->
<g id="edge7" class="edge">
<title>Node4&#45;&gt;Node5</title>
<path fill="none" stroke="midnightblue" d="M150.74,-148.59C164.27,-158.34 186.62,-173.23 208,-182 213.3,-184.18 218.84,-186.18 224.48,-188.01"/>
<polygon fill="midnightblue" stroke="midnightblue" points="223.46,-191.36 234.05,-190.95 225.52,-184.67 223.46,-191.36"/>
</g>
<!-- Node6 -->
<g id="node6" class="node">
<title>Node6</title>
<g id="a_node6"><a xlink:href="classrare_1_1models_1_1base__game_1_1_rare_game_base.html#a0afe16b2357823a068971d7af5918a23" target="_top" xlink:title=" ">
<polygon fill="white" stroke="black" points="241.5,-124 241.5,-154 383.5,-154 383.5,-124 241.5,-124"/>
<text text-anchor="start" x="249.5" y="-142" font-family="Helvetica,sans-Serif" font-size="10.00">rare.models.base_game.Rare</text>
<text text-anchor="middle" x="312.5" y="-131" font-family="Helvetica,sans-Serif" font-size="10.00">GameBase.app_name</text>
</a>
</g>
</g>
<!-- Node4&#45;&gt;Node6 -->
<g id="edge9" class="edge">
<title>Node4&#45;&gt;Node6</title>
<path fill="none" stroke="midnightblue" d="M172.28,-139C189.25,-139 210.52,-139 231.28,-139"/>
<polygon fill="midnightblue" stroke="midnightblue" points="231.42,-142.5 241.42,-139 231.42,-135.5 231.42,-142.5"/>
</g>
<!-- Node7 -->
<g id="node7" class="node">
<title>Node7</title>
<g id="a_node7"><a xlink:href="classrare_1_1shared_1_1rare__core_1_1_rare_core.html#a405e1a4f20f16120f872ccd2654a1d56" target="_top" xlink:title=" ">
<polygon fill="white" stroke="black" points="247.5,-57 247.5,-87 377.5,-87 377.5,-57 247.5,-57"/>
<text text-anchor="start" x="255.5" y="-75" font-family="Helvetica,sans-Serif" font-size="10.00">rare.shared.rare_core.Rare</text>
<text text-anchor="middle" x="312.5" y="-64" font-family="Helvetica,sans-Serif" font-size="10.00">Core.core</text>
</a>
</g>
</g>
<!-- Node4&#45;&gt;Node7 -->
<g id="edge11" class="edge">
<title>Node4&#45;&gt;Node7</title>
<path fill="none" stroke="midnightblue" d="M162.86,-129.4C188.95,-119.32 230.64,-103.22 263.24,-90.64"/>
<polygon fill="midnightblue" stroke="midnightblue" points="264.53,-93.89 272.6,-87.02 262.01,-87.36 264.53,-93.89"/>
</g>
<!-- Node8 -->
<g id="node8" class="node">
<title>Node8</title>
<g id="a_node8"><a xlink:href="classrare_1_1models_1_1game_1_1_rare_game.html#ae8eea7f05df591bbd18ba200690027f8" target="_top" xlink:title=" ">
<polygon fill="white" stroke="black" points="274,-0.5 274,-19.5 351,-19.5 351,-0.5 274,-0.5"/>
<text text-anchor="middle" x="312.5" y="-7.5" font-family="Helvetica,sans-Serif" font-size="10.00">update_igame</text>
</a>
</g>
</g>
<!-- Node4&#45;&gt;Node8 -->
<g id="edge14" class="edge">
<title>Node4&#45;&gt;Node8</title>
<path fill="none" stroke="midnightblue" d="M142.8,-129.47C152.58,-110.97 176.58,-70 208,-47 224.45,-34.96 245.18,-26.53 263.77,-20.79"/>
<polygon fill="midnightblue" stroke="midnightblue" points="264.92,-24.1 273.55,-17.95 262.97,-17.38 264.92,-24.1"/>
</g>
<!-- Node5&#45;&gt;Node5 -->
<g id="edge8" class="edge">
<title>Node5&#45;&gt;Node5</title>
<path fill="none" stroke="midnightblue" d="M282.18,-221.16C274.86,-230.56 284.97,-239.5 312.5,-239.5 329.27,-239.5 339.58,-236.18 343.42,-231.46"/>
<polygon fill="midnightblue" stroke="midnightblue" points="346.89,-230.94 342.82,-221.16 339.91,-231.34 346.89,-230.94"/>
</g>
<!-- Node6&#45;&gt;Node6 -->
<g id="edge10" class="edge">
<title>Node6&#45;&gt;Node6</title>
<path fill="none" stroke="midnightblue" d="M282.18,-154.16C274.86,-163.56 284.97,-172.5 312.5,-172.5 329.27,-172.5 339.58,-169.18 343.42,-164.46"/>
<polygon fill="midnightblue" stroke="midnightblue" points="346.89,-163.94 342.82,-154.16 339.91,-164.34 346.89,-163.94"/>
</g>
<!-- Node7&#45;&gt;Node7 -->
<g id="edge12" class="edge">
<title>Node7&#45;&gt;Node7</title>
<path fill="none" stroke="midnightblue" d="M282.18,-87.16C274.86,-96.56 284.97,-105.5 312.5,-105.5 329.27,-105.5 339.58,-102.18 343.42,-97.46"/>
<polygon fill="midnightblue" stroke="midnightblue" points="346.89,-96.94 342.82,-87.16 339.91,-97.34 346.89,-96.94"/>
</g>
<!-- Node8&#45;&gt;Node8 -->
<g id="edge15" class="edge">
<title>Node8&#45;&gt;Node8</title>
<path fill="none" stroke="midnightblue" d="M285.68,-19.76C272.63,-28.57 281.57,-38 312.5,-38 333.28,-38 344.13,-33.74 345.06,-28.27"/>
<polygon fill="midnightblue" stroke="midnightblue" points="347.81,-26.09 339.32,-19.76 342.01,-30.01 347.81,-26.09"/>
</g>
</g>
</svg>
