<?xml version="1.0" encoding="UTF-8" standalone="no"?>
<!DOCTYPE svg PUBLIC "-//W3C//DTD SVG 1.1//EN"
 "http://www.w3.org/Graphics/SVG/1.1/DTD/svg11.dtd">
<!-- Generated by graphviz version 2.49.3 (20211027.1534)
 -->
<!-- Title: __bool__ Pages: 1 -->
<svg width="231pt" height="57pt"
 viewBox="0.00 0.00 231.00 57.00" xmlns="http://www.w3.org/2000/svg" xmlns:xlink="http://www.w3.org/1999/xlink">
<g id="graph0" class="graph" transform="scale(1 1) rotate(0) translate(4 53)">
<title>__bool__</title>
<polygon fill="white" stroke="transparent" points="-4,4 -4,-53 227,-53 227,4 -4,4"/>
<!-- Node1 -->
<g id="node1" class="node">
<title>Node1</title>
<g id="a_node1"><a xlink:title=" ">
<polygon fill="#bfbfbf" stroke="black" points="0,-6 0,-25 56,-25 56,-6 0,-6"/>
<text text-anchor="middle" x="28" y="-13" font-family="Helvetica,sans-Serif" font-size="10.00">__bool__</text>
</a>
</g>
</g>
<!-- Node1&#45;&gt;Node1 -->
<g id="edge1" class="edge">
<title>Node1&#45;&gt;Node1</title>
<path fill="none" stroke="midnightblue" d="M8.27,-25.26C-1.33,-34.07 5.25,-43.5 28,-43.5 42.57,-43.5 50.51,-39.63 51.81,-34.53"/>
<polygon fill="midnightblue" stroke="midnightblue" points="54.96,-33 47.73,-25.26 48.55,-35.82 54.96,-33"/>
</g>
<!-- Node2 -->
<g id="node2" class="node">
<title>Node2</title>
<g id="a_node2"><a xlink:href="classrare_1_1components_1_1tray__icon_1_1_tray_icon.html#aca28781d9d67dfe93a3b27773d262c7a" target="_top" xlink:title=" ">
<polygon fill="white" stroke="black" points="92,-0.5 92,-30.5 223,-30.5 223,-0.5 92,-0.5"/>
<text text-anchor="start" x="100" y="-18.5" font-family="Helvetica,sans-Serif" font-size="10.00">rare.components.tray</text>
<text text-anchor="middle" x="157.5" y="-7.5" font-family="Helvetica,sans-Serif" font-size="10.00">_icon.TrayIcon.last_played</text>
</a>
</g>
</g>
<!-- Node1&#45;&gt;Node2 -->
<g id="edge2" class="edge">
<title>Node1&#45;&gt;Node2</title>
<path fill="none" stroke="midnightblue" d="M56.04,-15.5C63.82,-15.5 72.71,-15.5 81.92,-15.5"/>
<polygon fill="midnightblue" stroke="midnightblue" points="81.99,-19 91.99,-15.5 81.99,-12 81.99,-19"/>
</g>
<!-- Node2&#45;&gt;Node2 -->
<g id="edge3" class="edge">
<title>Node2&#45;&gt;Node2</title>
<path fill="none" stroke="midnightblue" d="M135.19,-30.66C129.81,-40.06 137.25,-49 157.5,-49 169.84,-49 177.42,-45.68 180.24,-40.96"/>
<polygon fill="midnightblue" stroke="midnightblue" points="183.73,-40.5 179.81,-30.66 176.73,-40.8 183.73,-40.5"/>
</g>
</g>
</svg>
