<?xml version="1.0" encoding="UTF-8" standalone="no"?>
<!DOCTYPE svg PUBLIC "-//W3C//DTD SVG 1.1//EN"
 "http://www.w3.org/Graphics/SVG/1.1/DTD/svg11.dtd">
<!-- Generated by graphviz version 2.49.3 (20211027.1534)
 -->
<!-- Title: text Pages: 1 -->
<svg width="305pt" height="181pt"
 viewBox="0.00 0.00 304.89 180.50" xmlns="http://www.w3.org/2000/svg" xmlns:xlink="http://www.w3.org/1999/xlink">
<g id="graph0" class="graph" transform="scale(1 1) rotate(0) translate(4 176.5)">
<title>text</title>
<polygon fill="white" stroke="transparent" points="-4,4 -4,-176.5 300.89,-176.5 300.89,4 -4,4"/>
<!-- Node1 -->
<g id="node1" class="node">
<title>Node1</title>
<g id="a_node1"><a xlink:title=" ">
<polygon fill="#bfbfbf" stroke="black" points="251,-73 251,-92 283,-92 283,-73 251,-73"/>
<text text-anchor="middle" x="267" y="-80" font-family="Helvetica,sans-Serif" font-size="10.00">text</text>
</a>
</g>
</g>
<!-- Node1&#45;&gt;Node1 -->
<g id="edge7" class="edge">
<title>Node1&#45;&gt;Node1</title>
<path fill="none" stroke="midnightblue" d="M291.94,-92.71C302.92,-101.38 294.6,-110.5 267,-110.5 233.98,-110.5 228.56,-97.46 250.75,-87.72"/>
<polygon fill="midnightblue" stroke="midnightblue" points="293.67,-89.66 283.25,-87.72 290.18,-95.74 293.67,-89.66"/>
</g>
<!-- Node2 -->
<g id="node2" class="node">
<title>Node2</title>
<g id="a_node2"><a xlink:href="classrare_1_1widgets_1_1indicator__edit_1_1_indicator_line_edit.html#a051a5c88b188dc1e47f120d327dd4d99" target="_top" xlink:title=" ">
<polygon fill="white" stroke="black" points="65,-135 65,-154 150,-154 150,-135 65,-135"/>
<text text-anchor="middle" x="107.5" y="-142" font-family="Helvetica,sans-Serif" font-size="10.00">extend_reasons</text>
</a>
</g>
</g>
<!-- Node1&#45;&gt;Node2 -->
<g id="edge1" class="edge">
<title>Node1&#45;&gt;Node2</title>
<path fill="none" stroke="midnightblue" d="M250.59,-99.25C241.2,-108.43 228.43,-119.2 215,-125.5 194.85,-134.95 170.53,-139.72 150.23,-142.12"/>
<polygon fill="midnightblue" stroke="midnightblue" points="253.15,-101.64 257.64,-92.04 248.14,-96.75 253.15,-101.64"/>
</g>
<!-- Node3 -->
<g id="node3" class="node">
<title>Node3</title>
<g id="a_node3"><a xlink:href="classrare_1_1components_1_1tabs_1_1settings_1_1widgets_1_1overlay__settings_1_1_text_input_field.html#aa7dafe1167a93bb64bf5fd1ad8a637dd" target="_top" xlink:title=" ">
<polygon fill="white" stroke="black" points="0,-67.5 0,-97.5 215,-97.5 215,-67.5 0,-67.5"/>
<text text-anchor="start" x="8" y="-85.5" font-family="Helvetica,sans-Serif" font-size="10.00">rare.components.tabs.settings.widgets.overlay</text>
<text text-anchor="middle" x="107.5" y="-74.5" font-family="Helvetica,sans-Serif" font-size="10.00">_settings.TextInputField.get_value</text>
</a>
</g>
</g>
<!-- Node1&#45;&gt;Node3 -->
<g id="edge3" class="edge">
<title>Node1&#45;&gt;Node3</title>
<path fill="none" stroke="midnightblue" d="M240.84,-82.5C233.33,-82.5 224.57,-82.5 215.2,-82.5"/>
<polygon fill="midnightblue" stroke="midnightblue" points="240.9,-86 250.9,-82.5 240.9,-79 240.9,-86"/>
</g>
<!-- Node4 -->
<g id="node4" class="node">
<title>Node4</title>
<g id="a_node4"><a xlink:href="classrare_1_1widgets_1_1indicator__edit_1_1_path_edit.html#abe4b5c68f01943de2b98afa429bd7e37" target="_top" xlink:title=" ">
<polygon fill="white" stroke="black" points="50.5,-0.5 50.5,-30.5 164.5,-30.5 164.5,-0.5 50.5,-0.5"/>
<text text-anchor="start" x="58.5" y="-18.5" font-family="Helvetica,sans-Serif" font-size="10.00">rare.widgets.indicator</text>
<text text-anchor="middle" x="107.5" y="-7.5" font-family="Helvetica,sans-Serif" font-size="10.00">_edit.PathEdit.set_root</text>
</a>
</g>
</g>
<!-- Node1&#45;&gt;Node4 -->
<g id="edge5" class="edge">
<title>Node1&#45;&gt;Node4</title>
<path fill="none" stroke="midnightblue" d="M241.68,-70.71C233.27,-66.73 223.77,-62.33 215,-58.5 192.71,-48.76 167.47,-38.54 147.17,-30.51"/>
<polygon fill="midnightblue" stroke="midnightblue" points="240.4,-73.98 250.93,-75.13 243.41,-67.66 240.4,-73.98"/>
</g>
<!-- Node2&#45;&gt;Node2 -->
<g id="edge2" class="edge">
<title>Node2&#45;&gt;Node2</title>
<path fill="none" stroke="midnightblue" d="M136.99,-163.15C135.76,-168.44 125.93,-172.5 107.5,-172.5 79.42,-172.5 71.3,-163.07 83.15,-154.26"/>
<polygon fill="midnightblue" stroke="midnightblue" points="139.89,-161.16 131.85,-154.26 133.82,-164.67 139.89,-161.16"/>
</g>
<!-- Node3&#45;&gt;Node3 -->
<g id="edge4" class="edge">
<title>Node3&#45;&gt;Node3</title>
<path fill="none" stroke="midnightblue" d="M135.57,-107.96C132.09,-112.68 122.73,-116 107.5,-116 82.5,-116 73.33,-107.06 79.97,-97.66"/>
<polygon fill="midnightblue" stroke="midnightblue" points="139.05,-107.46 135.03,-97.66 132.06,-107.83 139.05,-107.46"/>
</g>
<!-- Node4&#45;&gt;Node4 -->
<g id="edge6" class="edge">
<title>Node4&#45;&gt;Node4</title>
<path fill="none" stroke="midnightblue" d="M135.57,-40.96C132.09,-45.68 122.73,-49 107.5,-49 82.5,-49 73.33,-40.06 79.97,-30.66"/>
<polygon fill="midnightblue" stroke="midnightblue" points="139.05,-40.46 135.03,-30.66 132.06,-40.83 139.05,-40.46"/>
</g>
</g>
</svg>
