<?xml version="1.0" encoding="UTF-8" standalone="no"?>
<!DOCTYPE svg PUBLIC "-//W3C//DTD SVG 1.1//EN"
 "http://www.w3.org/Graphics/SVG/1.1/DTD/svg11.dtd">
<!-- Generated by graphviz version 2.49.3 (20211027.1534)
 -->
<!-- Title: repair_game Pages: 1 -->
<svg width="193pt" height="46pt"
 viewBox="0.00 0.00 193.00 46.00" xmlns="http://www.w3.org/2000/svg" xmlns:xlink="http://www.w3.org/1999/xlink">
<g id="graph0" class="graph" transform="scale(1 1) rotate(0) translate(4 42)">
<title>repair_game</title>
<polygon fill="white" stroke="transparent" points="-4,4 -4,-42 189,-42 189,4 -4,4"/>
<!-- Node1 -->
<g id="node1" class="node">
<title>Node1</title>
<g id="a_node1"><a xlink:title=" ">
<polygon fill="#bfbfbf" stroke="black" points="115,-0.5 115,-19.5 185,-19.5 185,-0.5 115,-0.5"/>
<text text-anchor="middle" x="150" y="-7.5" font-family="Helvetica,sans-Serif" font-size="10.00">repair_game</text>
</a>
</g>
</g>
<!-- Node1&#45;&gt;Node1 -->
<g id="edge1" class="edge">
<title>Node1&#45;&gt;Node1</title>
<path fill="none" stroke="midnightblue" d="M170.37,-29.4C169.01,-34.31 162.22,-38 150,-38 130.45,-38 124.8,-28.57 133.05,-19.76"/>
<polygon fill="midnightblue" stroke="midnightblue" points="173.59,-28.01 166.95,-19.76 166.99,-30.35 173.59,-28.01"/>
</g>
<!-- Node2 -->
<g id="node2" class="node">
<title>Node2</title>
<g id="a_node2"><a xlink:href="classrare_1_1components_1_1tabs_1_1games_1_1game__info_1_1game__info_1_1_game_info.html#a2dd9f46e508a959eff847156da39b2d7" target="_top" xlink:title=" ">
<polygon fill="white" stroke="black" points="0,-0.5 0,-19.5 79,-19.5 79,-0.5 0,-0.5"/>
<text text-anchor="middle" x="39.5" y="-7.5" font-family="Helvetica,sans-Serif" font-size="10.00">verify_cleanup</text>
</a>
</g>
</g>
<!-- Node1&#45;&gt;Node2 -->
<g id="edge2" class="edge">
<title>Node1&#45;&gt;Node2</title>
<path fill="none" stroke="midnightblue" d="M104.87,-10C96.41,-10 87.61,-10 79.33,-10"/>
<polygon fill="midnightblue" stroke="midnightblue" points="104.97,-13.5 114.97,-10 104.97,-6.5 104.97,-13.5"/>
</g>
<!-- Node2&#45;&gt;Node2 -->
<g id="edge3" class="edge">
<title>Node2&#45;&gt;Node2</title>
<path fill="none" stroke="midnightblue" d="M59.87,-29.4C58.51,-34.31 51.72,-38 39.5,-38 19.95,-38 14.3,-28.57 22.55,-19.76"/>
<polygon fill="midnightblue" stroke="midnightblue" points="63.09,-28.01 56.45,-19.76 56.49,-30.35 63.09,-28.01"/>
</g>
</g>
</svg>
