<?xml version="1.0" encoding="UTF-8" standalone="no"?>
<!DOCTYPE svg PUBLIC "-//W3C//DTD SVG 1.1//EN"
 "http://www.w3.org/Graphics/SVG/1.1/DTD/svg11.dtd">
<!-- Generated by graphviz version 2.49.3 (20211027.1534)
 -->
<!-- Title: LinuxSettings Pages: 1 -->
<svg width="101pt" height="386pt"
 viewBox="0.00 0.00 101.00 386.00" xmlns="http://www.w3.org/2000/svg" xmlns:xlink="http://www.w3.org/1999/xlink">
<g id="graph0" class="graph" transform="scale(1 1) rotate(0) translate(4 382)">
<title>LinuxSettings</title>
<polygon fill="white" stroke="transparent" points="-4,4 -4,-382 97,-382 97,4 -4,4"/>
<!-- Node1 -->
<g id="node1" class="node">
<title>Node1</title>
<g id="a_node1"><a xlink:title=" ">
<polygon fill="#bfbfbf" stroke="black" points="3.5,-105.5 3.5,-283.5 89.5,-283.5 89.5,-105.5 3.5,-105.5"/>
<text text-anchor="middle" x="46.5" y="-271.5" font-family="Helvetica,sans-Serif" font-size="10.00">LinuxSettings</text>
<polyline fill="none" stroke="black" points="3.5,-264.5 89.5,-264.5 "/>
<text text-anchor="start" x="11.5" y="-252.5" font-family="Helvetica,sans-Serif" font-size="10.00">+ ui</text>
<text text-anchor="start" x="11.5" y="-241.5" font-family="Helvetica,sans-Serif" font-size="10.00">+ core</text>
<text text-anchor="start" x="11.5" y="-230.5" font-family="Helvetica,sans-Serif" font-size="10.00">+ signals</text>
<text text-anchor="start" x="11.5" y="-219.5" font-family="Helvetica,sans-Serif" font-size="10.00">+ name</text>
<text text-anchor="start" x="11.5" y="-208.5" font-family="Helvetica,sans-Serif" font-size="10.00">+ wine_prefix</text>
<text text-anchor="start" x="11.5" y="-197.5" font-family="Helvetica,sans-Serif" font-size="10.00">+ wine_exec</text>
<text text-anchor="start" x="11.5" y="-186.5" font-family="Helvetica,sans-Serif" font-size="10.00">+ dxvk</text>
<text text-anchor="start" x="11.5" y="-175.5" font-family="Helvetica,sans-Serif" font-size="10.00">+ mangohud</text>
<polyline fill="none" stroke="black" points="3.5,-168.5 89.5,-168.5 "/>
<text text-anchor="start" x="11.5" y="-156.5" font-family="Helvetica,sans-Serif" font-size="10.00">+ __init__()</text>
<text text-anchor="start" x="11.5" y="-145.5" font-family="Helvetica,sans-Serif" font-size="10.00">+ load_prefix()</text>
<text text-anchor="start" x="11.5" y="-134.5" font-family="Helvetica,sans-Serif" font-size="10.00">+ save_prefix()</text>
<text text-anchor="start" x="11.5" y="-123.5" font-family="Helvetica,sans-Serif" font-size="10.00">+ load_setting()</text>
<text text-anchor="start" x="11.5" y="-112.5" font-family="Helvetica,sans-Serif" font-size="10.00">+ save_setting()</text>
</a>
</g>
</g>
<!-- Node3 -->
<g id="node3" class="node">
<title>Node3</title>
<g id="a_node3"><a xlink:href="classrare_1_1components_1_1tabs_1_1settings_1_1game__settings_1_1_linux_app_settings.html" target="_top" xlink:title=" ">
<polygon fill="white" stroke="black" points="0,-0.5 0,-68.5 93,-68.5 93,-0.5 0,-0.5"/>
<text text-anchor="middle" x="46.5" y="-56.5" font-family="Helvetica,sans-Serif" font-size="10.00">LinuxAppSettings</text>
<polyline fill="none" stroke="black" points="0,-49.5 93,-49.5 "/>
<text text-anchor="start" x="8" y="-37.5" font-family="Helvetica,sans-Serif" font-size="10.00">+ name</text>
<polyline fill="none" stroke="black" points="0,-30.5 93,-30.5 "/>
<text text-anchor="start" x="8" y="-18.5" font-family="Helvetica,sans-Serif" font-size="10.00">+ __init__()</text>
<text text-anchor="start" x="8" y="-7.5" font-family="Helvetica,sans-Serif" font-size="10.00">+ update_game()</text>
</a>
</g>
</g>
<!-- Node1&#45;&gt;Node3 -->
<g id="edge2" class="edge">
<title>Node1&#45;&gt;Node3</title>
<path fill="none" stroke="midnightblue" d="M46.5,-95C46.5,-85.65 46.5,-76.69 46.5,-68.69"/>
<polygon fill="none" stroke="midnightblue" points="43,-95.26 46.5,-105.26 50,-95.26 43,-95.26"/>
</g>
<!-- Node2 -->
<g id="node2" class="node">
<title>Node2</title>
<g id="a_node2"><a xlink:title=" ">
<polygon fill="white" stroke="#bfbfbf" points="19.5,-320.5 19.5,-377.5 73.5,-377.5 73.5,-320.5 19.5,-320.5"/>
<text text-anchor="middle" x="46.5" y="-365.5" font-family="Helvetica,sans-Serif" font-size="10.00">QWidget</text>
<polyline fill="none" stroke="#bfbfbf" points="19.5,-358.5 73.5,-358.5 "/>
<text text-anchor="middle" x="46.5" y="-346.5" font-family="Helvetica,sans-Serif" font-size="10.00"> </text>
<polyline fill="none" stroke="#bfbfbf" points="19.5,-339.5 73.5,-339.5 "/>
<text text-anchor="middle" x="46.5" y="-327.5" font-family="Helvetica,sans-Serif" font-size="10.00"> </text>
</a>
</g>
</g>
<!-- Node2&#45;&gt;Node1 -->
<g id="edge1" class="edge">
<title>Node2&#45;&gt;Node1</title>
<path fill="none" stroke="midnightblue" d="M46.5,-310.37C46.5,-302.09 46.5,-292.98 46.5,-283.62"/>
<polygon fill="none" stroke="midnightblue" points="43,-310.38 46.5,-320.38 50,-310.38 43,-310.38"/>
</g>
</g>
</svg>
