<?xml version="1.0" encoding="UTF-8" standalone="no"?>
<!DOCTYPE svg PUBLIC "-//W3C//DTD SVG 1.1//EN"
 "http://www.w3.org/Graphics/SVG/1.1/DTD/svg11.dtd">
<!-- Generated by graphviz version 2.49.3 (20211027.1534)
 -->
<!-- Title: InstallDialogAdvanced Pages: 1 -->
<svg width="214pt" height="568pt"
 viewBox="0.00 0.00 214.00 568.00" xmlns="http://www.w3.org/2000/svg" xmlns:xlink="http://www.w3.org/1999/xlink">
<g id="graph0" class="graph" transform="scale(1 1) rotate(0) translate(4 564)">
<title>InstallDialogAdvanced</title>
<polygon fill="white" stroke="transparent" points="-4,4 -4,-564 210,-564 210,4 -4,4"/>
<!-- Node1 -->
<g id="node1" class="node">
<title>Node1</title>
<g id="a_node1"><a xlink:title=" ">
<polygon fill="#bfbfbf" stroke="black" points="25.5,-0.5 25.5,-68.5 138.5,-68.5 138.5,-0.5 25.5,-0.5"/>
<text text-anchor="middle" x="82" y="-56.5" font-family="Helvetica,sans-Serif" font-size="10.00">InstallDialogAdvanced</text>
<polyline fill="none" stroke="black" points="25.5,-49.5 138.5,-49.5 "/>
<text text-anchor="start" x="33.5" y="-37.5" font-family="Helvetica,sans-Serif" font-size="10.00">+ widget</text>
<text text-anchor="start" x="33.5" y="-26.5" font-family="Helvetica,sans-Serif" font-size="10.00">+ ui</text>
<polyline fill="none" stroke="black" points="25.5,-19.5 138.5,-19.5 "/>
<text text-anchor="start" x="33.5" y="-7.5" font-family="Helvetica,sans-Serif" font-size="10.00">+ __init__()</text>
</a>
</g>
</g>
<!-- Node2 -->
<g id="node2" class="node">
<title>Node2</title>
<g id="a_node2"><a xlink:href="classrare_1_1widgets_1_1collapsible__widget_1_1_collapsible_frame.html" target="_top" xlink:title=" ">
<polygon fill="white" stroke="black" points="35,-105.5 35,-261.5 129,-261.5 129,-105.5 35,-105.5"/>
<text text-anchor="middle" x="82" y="-249.5" font-family="Helvetica,sans-Serif" font-size="10.00">CollapsibleFrame</text>
<polyline fill="none" stroke="black" points="35,-242.5 129,-242.5 "/>
<text text-anchor="start" x="43" y="-230.5" font-family="Helvetica,sans-Serif" font-size="10.00">+ toggle_button</text>
<text text-anchor="start" x="43" y="-219.5" font-family="Helvetica,sans-Serif" font-size="10.00">+ title_label</text>
<text text-anchor="start" x="43" y="-208.5" font-family="Helvetica,sans-Serif" font-size="10.00">+ main_layout</text>
<polyline fill="none" stroke="black" points="35,-201.5 129,-201.5 "/>
<text text-anchor="start" x="43" y="-189.5" font-family="Helvetica,sans-Serif" font-size="10.00">+ __init__()</text>
<text text-anchor="start" x="43" y="-178.5" font-family="Helvetica,sans-Serif" font-size="10.00">+ setTitle()</text>
<text text-anchor="start" x="43" y="-167.5" font-family="Helvetica,sans-Serif" font-size="10.00">+ setText()</text>
<text text-anchor="start" x="43" y="-156.5" font-family="Helvetica,sans-Serif" font-size="10.00">+ isChecked()</text>
<text text-anchor="start" x="43" y="-145.5" font-family="Helvetica,sans-Serif" font-size="10.00">+ click()</text>
<text text-anchor="start" x="43" y="-134.5" font-family="Helvetica,sans-Serif" font-size="10.00">+ addToLayout()</text>
<text text-anchor="start" x="43" y="-123.5" font-family="Helvetica,sans-Serif" font-size="10.00">+ sizeHint()</text>
<text text-anchor="start" x="43" y="-112.5" font-family="Helvetica,sans-Serif" font-size="10.00">+ animationStart()</text>
</a>
</g>
</g>
<!-- Node2&#45;&gt;Node1 -->
<g id="edge1" class="edge">
<title>Node2&#45;&gt;Node1</title>
<path fill="none" stroke="midnightblue" d="M82,-94.94C82,-85.63 82,-76.64 82,-68.59"/>
<polygon fill="none" stroke="midnightblue" points="78.5,-95.13 82,-105.13 85.5,-95.13 78.5,-95.13"/>
</g>
<!-- Node3 -->
<g id="node3" class="node">
<title>Node3</title>
<g id="a_node3"><a xlink:title=" ">
<polygon fill="white" stroke="#bfbfbf" points="0,-353.5 0,-410.5 52,-410.5 52,-353.5 0,-353.5"/>
<text text-anchor="middle" x="26" y="-398.5" font-family="Helvetica,sans-Serif" font-size="10.00">QFrame</text>
<polyline fill="none" stroke="#bfbfbf" points="0,-391.5 52,-391.5 "/>
<text text-anchor="middle" x="26" y="-379.5" font-family="Helvetica,sans-Serif" font-size="10.00"> </text>
<polyline fill="none" stroke="#bfbfbf" points="0,-372.5 52,-372.5 "/>
<text text-anchor="middle" x="26" y="-360.5" font-family="Helvetica,sans-Serif" font-size="10.00"> </text>
</a>
</g>
</g>
<!-- Node3&#45;&gt;Node2 -->
<g id="edge2" class="edge">
<title>Node3&#45;&gt;Node2</title>
<path fill="none" stroke="midnightblue" d="M36.68,-343.51C43.28,-320.37 51.98,-289.82 60,-261.7"/>
<polygon fill="none" stroke="midnightblue" points="33.28,-342.69 33.9,-353.26 40.01,-344.61 33.28,-342.69"/>
</g>
<!-- Node4 -->
<g id="node4" class="node">
<title>Node4</title>
<g id="a_node4"><a xlink:href="classrare_1_1widgets_1_1collapsible__widget_1_1_collapsible_base.html" target="_top" xlink:title="References:">
<polygon fill="white" stroke="black" points="70,-298.5 70,-465.5 206,-465.5 206,-298.5 70,-298.5"/>
<text text-anchor="middle" x="138" y="-453.5" font-family="Helvetica,sans-Serif" font-size="10.00">CollapsibleBase</text>
<polyline fill="none" stroke="black" points="70,-446.5 206,-446.5 "/>
<text text-anchor="start" x="78" y="-434.5" font-family="Helvetica,sans-Serif" font-size="10.00">+ animation_duration</text>
<text text-anchor="start" x="78" y="-423.5" font-family="Helvetica,sans-Serif" font-size="10.00">+ toggle_animation</text>
<text text-anchor="start" x="78" y="-412.5" font-family="Helvetica,sans-Serif" font-size="10.00">+ content_area</text>
<text text-anchor="start" x="78" y="-401.5" font-family="Helvetica,sans-Serif" font-size="10.00">+ content_toggle_animation</text>
<polyline fill="none" stroke="black" points="70,-394.5 206,-394.5 "/>
<text text-anchor="start" x="78" y="-382.5" font-family="Helvetica,sans-Serif" font-size="10.00">+ __init__()</text>
<text text-anchor="start" x="78" y="-371.5" font-family="Helvetica,sans-Serif" font-size="10.00">+ setup()</text>
<text text-anchor="start" x="78" y="-360.5" font-family="Helvetica,sans-Serif" font-size="10.00">+ isChecked()</text>
<text text-anchor="start" x="78" y="-349.5" font-family="Helvetica,sans-Serif" font-size="10.00">+ click()</text>
<text text-anchor="start" x="78" y="-338.5" font-family="Helvetica,sans-Serif" font-size="10.00">+ addToLayout()</text>
<text text-anchor="start" x="78" y="-327.5" font-family="Helvetica,sans-Serif" font-size="10.00">+ sizeHint()</text>
<text text-anchor="start" x="78" y="-316.5" font-family="Helvetica,sans-Serif" font-size="10.00">+ animationStart()</text>
<text text-anchor="start" x="78" y="-305.5" font-family="Helvetica,sans-Serif" font-size="10.00">+ setWidget()</text>
</a>
</g>
</g>
<!-- Node4&#45;&gt;Node2 -->
<g id="edge3" class="edge">
<title>Node4&#45;&gt;Node2</title>
<path fill="none" stroke="midnightblue" d="M111.63,-288.49C109.06,-279.46 106.47,-270.38 103.95,-261.53"/>
<polygon fill="none" stroke="midnightblue" points="108.31,-289.58 114.41,-298.24 115.04,-287.66 108.31,-289.58"/>
</g>
<!-- Node5 -->
<g id="node5" class="node">
<title>Node5</title>
<g id="a_node5"><a xlink:title=" ">
<polygon fill="white" stroke="#bfbfbf" points="116.5,-502.5 116.5,-559.5 159.5,-559.5 159.5,-502.5 116.5,-502.5"/>
<text text-anchor="middle" x="138" y="-547.5" font-family="Helvetica,sans-Serif" font-size="10.00">object</text>
<polyline fill="none" stroke="#bfbfbf" points="116.5,-540.5 159.5,-540.5 "/>
<text text-anchor="middle" x="138" y="-528.5" font-family="Helvetica,sans-Serif" font-size="10.00"> </text>
<polyline fill="none" stroke="#bfbfbf" points="116.5,-521.5 159.5,-521.5 "/>
<text text-anchor="middle" x="138" y="-509.5" font-family="Helvetica,sans-Serif" font-size="10.00"> </text>
</a>
</g>
</g>
<!-- Node5&#45;&gt;Node4 -->
<g id="edge4" class="edge">
<title>Node5&#45;&gt;Node4</title>
<path fill="none" stroke="midnightblue" d="M138,-492.35C138,-484.08 138,-475.01 138,-465.74"/>
<polygon fill="none" stroke="midnightblue" points="134.5,-492.35 138,-502.35 141.5,-492.35 134.5,-492.35"/>
</g>
</g>
</svg>
