<?xml version="1.0" encoding="UTF-8" standalone="no"?>
<!DOCTYPE svg PUBLIC "-//W3C//DTD SVG 1.1//EN"
 "http://www.w3.org/Graphics/SVG/1.1/DTD/svg11.dtd">
<!-- Generated by graphviz version 2.49.3 (20211027.1534)
 -->
<!-- Title: upload_saves Pages: 1 -->
<svg width="938pt" height="264pt"
 viewBox="0.00 0.00 938.00 263.50" xmlns="http://www.w3.org/2000/svg" xmlns:xlink="http://www.w3.org/1999/xlink">
<g id="graph0" class="graph" transform="scale(1 1) rotate(0) translate(4 259.5)">
<title>upload_saves</title>
<polygon fill="white" stroke="transparent" points="-4,4 -4,-259.5 934,-259.5 934,4 -4,4"/>
<!-- Node1 -->
<g id="node1" class="node">
<title>Node1</title>
<g id="a_node1"><a xlink:title=" ">
<polygon fill="#bfbfbf" stroke="black" points="0,-112.5 0,-131.5 77,-131.5 77,-112.5 0,-112.5"/>
<text text-anchor="middle" x="38.5" y="-119.5" font-family="Helvetica,sans-Serif" font-size="10.00">upload_saves</text>
</a>
</g>
</g>
<!-- Node1&#45;&gt;Node1 -->
<g id="edge17" class="edge">
<title>Node1&#45;&gt;Node1</title>
<path fill="none" stroke="midnightblue" d="M20,-131.76C11.01,-140.57 17.17,-150 38.5,-150 52.16,-150 59.6,-146.13 60.82,-141.03"/>
<polygon fill="midnightblue" stroke="midnightblue" points="64.05,-139.67 57,-131.76 57.57,-142.34 64.05,-139.67"/>
</g>
<!-- Node2 -->
<g id="node2" class="node">
<title>Node2</title>
<g id="a_node2"><a xlink:href="classrare_1_1models_1_1base__game_1_1_rare_game_slim.html#a299a7ea18948f61b7235c7bf6e7fa8af" target="_top" xlink:title=" ">
<polygon fill="white" stroke="black" points="113,-112.5 113,-131.5 207,-131.5 207,-112.5 113,-112.5"/>
<text text-anchor="middle" x="160" y="-119.5" font-family="Helvetica,sans-Serif" font-size="10.00">save_game_state</text>
</a>
</g>
</g>
<!-- Node1&#45;&gt;Node2 -->
<g id="edge1" class="edge">
<title>Node1&#45;&gt;Node2</title>
<path fill="none" stroke="midnightblue" d="M77.31,-122C85.28,-122 93.86,-122 102.35,-122"/>
<polygon fill="midnightblue" stroke="midnightblue" points="102.63,-125.5 112.63,-122 102.63,-118.5 102.63,-125.5"/>
</g>
<!-- Node2&#45;&gt;Node2 -->
<g id="edge11" class="edge">
<title>Node2&#45;&gt;Node2</title>
<path fill="none" stroke="midnightblue" d="M141.5,-131.76C132.51,-140.57 138.67,-150 160,-150 173.66,-150 181.1,-146.13 182.32,-141.03"/>
<polygon fill="midnightblue" stroke="midnightblue" points="185.55,-139.67 178.5,-131.76 179.07,-142.34 185.55,-139.67"/>
</g>
<!-- Node3 -->
<g id="node3" class="node">
<title>Node3</title>
<g id="a_node3"><a xlink:href="classrare_1_1shared_1_1rare__core_1_1_rare_core.html#a405e1a4f20f16120f872ccd2654a1d56" target="_top" xlink:title=" ">
<polygon fill="white" stroke="black" points="272.5,-207 272.5,-237 402.5,-237 402.5,-207 272.5,-207"/>
<text text-anchor="start" x="280.5" y="-225" font-family="Helvetica,sans-Serif" font-size="10.00">rare.shared.rare_core.Rare</text>
<text text-anchor="middle" x="337.5" y="-214" font-family="Helvetica,sans-Serif" font-size="10.00">Core.core</text>
</a>
</g>
</g>
<!-- Node2&#45;&gt;Node3 -->
<g id="edge2" class="edge">
<title>Node2&#45;&gt;Node3</title>
<path fill="none" stroke="midnightblue" d="M168.76,-131.63C182.19,-147.64 211.36,-179.67 243,-197 249.04,-200.31 255.54,-203.2 262.2,-205.72"/>
<polygon fill="midnightblue" stroke="midnightblue" points="261.45,-209.16 272.04,-209.15 263.76,-202.55 261.45,-209.16"/>
</g>
<!-- Node4 -->
<g id="node4" class="node">
<title>Node4</title>
<g id="a_node4"><a xlink:href="classrare_1_1models_1_1base__game_1_1_rare_game_slim.html#a404bbb07be9289ca5650e32cb2c01eeb" target="_top" xlink:title=" ">
<polygon fill="white" stroke="black" points="304,-150.5 304,-169.5 371,-169.5 371,-150.5 304,-150.5"/>
<text text-anchor="middle" x="337.5" y="-157.5" font-family="Helvetica,sans-Serif" font-size="10.00">latest_save</text>
</a>
</g>
</g>
<!-- Node2&#45;&gt;Node4 -->
<g id="edge4" class="edge">
<title>Node2&#45;&gt;Node4</title>
<path fill="none" stroke="midnightblue" d="M205.29,-131.59C232.48,-137.48 267.12,-144.98 293.98,-150.79"/>
<polygon fill="midnightblue" stroke="midnightblue" points="293.35,-154.24 303.86,-152.93 294.83,-147.4 293.35,-154.24"/>
</g>
<!-- Node5 -->
<g id="node5" class="node">
<title>Node5</title>
<g id="a_node5"><a xlink:href="classrare_1_1shared_1_1rare__core_1_1_rare_core.html#a4c5d7b0b818760d1a69d2dca743a2f4b" target="_top" xlink:title="SaveGameFiles across games.">
<polygon fill="white" stroke="black" points="468,-126 468,-156 598,-156 598,-126 468,-126"/>
<text text-anchor="start" x="476" y="-144" font-family="Helvetica,sans-Serif" font-size="10.00">rare.shared.rare_core.Rare</text>
<text text-anchor="middle" x="533" y="-133" font-family="Helvetica,sans-Serif" font-size="10.00">Core.saves</text>
</a>
</g>
</g>
<!-- Node2&#45;&gt;Node5 -->
<g id="edge16" class="edge">
<title>Node2&#45;&gt;Node5</title>
<path fill="none" stroke="midnightblue" d="M207.24,-124.37C269.94,-127.58 382.68,-133.35 457.43,-137.18"/>
<polygon fill="midnightblue" stroke="midnightblue" points="457.55,-140.69 467.72,-137.71 457.91,-133.7 457.55,-140.69"/>
</g>
<!-- Node8 -->
<g id="node8" class="node">
<title>Node8</title>
<g id="a_node8"><a xlink:href="classrare_1_1models_1_1base__game_1_1_rare_game_slim.html#ae67c92b74c05707f28c4430681aaa860" target="_top" xlink:title=" ">
<polygon fill="white" stroke="black" points="306.5,-56.5 306.5,-75.5 368.5,-75.5 368.5,-56.5 306.5,-56.5"/>
<text text-anchor="middle" x="337.5" y="-63.5" font-family="Helvetica,sans-Serif" font-size="10.00">save_path</text>
</a>
</g>
</g>
<!-- Node2&#45;&gt;Node8 -->
<g id="edge12" class="edge">
<title>Node2&#45;&gt;Node8</title>
<path fill="none" stroke="midnightblue" d="M191.17,-112.37C220.35,-103.06 264.75,-88.9 296.79,-78.67"/>
<polygon fill="midnightblue" stroke="midnightblue" points="298.26,-81.88 306.72,-75.5 296.13,-75.21 298.26,-81.88"/>
</g>
<!-- Node9 -->
<g id="node9" class="node">
<title>Node9</title>
<g id="a_node9"><a xlink:href="classrare_1_1models_1_1game_1_1_rare_game.html#ae67c92b74c05707f28c4430681aaa860" target="_top" xlink:title=" ">
<polygon fill="white" stroke="black" points="243,-0.5 243,-19.5 432,-19.5 432,-0.5 243,-0.5"/>
<text text-anchor="middle" x="337.5" y="-7.5" font-family="Helvetica,sans-Serif" font-size="10.00">rare.models.game.RareGame.save_path</text>
</a>
</g>
</g>
<!-- Node2&#45;&gt;Node9 -->
<g id="edge14" class="edge">
<title>Node2&#45;&gt;Node9</title>
<path fill="none" stroke="midnightblue" d="M169.67,-112.01C183.71,-96.33 212.9,-65.82 243,-47 258.84,-37.1 277.77,-29.01 294.44,-22.95"/>
<polygon fill="midnightblue" stroke="midnightblue" points="295.68,-26.22 303.96,-19.61 293.36,-19.62 295.68,-26.22"/>
</g>
<!-- Node3&#45;&gt;Node3 -->
<g id="edge3" class="edge">
<title>Node3&#45;&gt;Node3</title>
<path fill="none" stroke="midnightblue" d="M306.83,-237.16C299.43,-246.56 309.66,-255.5 337.5,-255.5 354.47,-255.5 364.89,-252.18 368.77,-247.46"/>
<polygon fill="midnightblue" stroke="midnightblue" points="372.25,-246.94 368.17,-237.16 365.26,-247.35 372.25,-246.94"/>
</g>
<!-- Node4&#45;&gt;Node4 -->
<g id="edge5" class="edge">
<title>Node4&#45;&gt;Node4</title>
<path fill="none" stroke="midnightblue" d="M310.37,-169.76C297.18,-178.57 306.22,-188 337.5,-188 359.01,-188 370,-183.54 370.48,-177.89"/>
<polygon fill="midnightblue" stroke="midnightblue" points="373.31,-175.83 364.63,-169.76 367.63,-179.92 373.31,-175.83"/>
</g>
<!-- Node4&#45;&gt;Node5 -->
<g id="edge6" class="edge">
<title>Node4&#45;&gt;Node5</title>
<path fill="none" stroke="midnightblue" d="M371.32,-156.78C394.96,-154.46 427.81,-151.23 457.66,-148.3"/>
<polygon fill="midnightblue" stroke="midnightblue" points="458.03,-151.78 467.64,-147.32 457.35,-144.81 458.03,-151.78"/>
</g>
<!-- Node5&#45;&gt;Node5 -->
<g id="edge10" class="edge">
<title>Node5&#45;&gt;Node5</title>
<path fill="none" stroke="midnightblue" d="M504.07,-156.16C497.1,-165.56 506.74,-174.5 533,-174.5 549,-174.5 558.84,-171.18 562.5,-166.46"/>
<polygon fill="midnightblue" stroke="midnightblue" points="565.97,-165.95 561.93,-156.16 558.98,-166.34 565.97,-165.95"/>
</g>
<!-- Node6 -->
<g id="node6" class="node">
<title>Node6</title>
<g id="a_node6"><a xlink:href="classrare_1_1shared_1_1rare__core_1_1_rare_core.html#a68395f7577f6b1a63a7a62dbf1a4c6d0" target="_top" xlink:title="RareGames that have SaveGameFiles associated with them.">
<polygon fill="white" stroke="black" points="634,-126 634,-156 764,-156 764,-126 634,-126"/>
<text text-anchor="start" x="642" y="-144" font-family="Helvetica,sans-Serif" font-size="10.00">rare.shared.rare_core.Rare</text>
<text text-anchor="middle" x="699" y="-133" font-family="Helvetica,sans-Serif" font-size="10.00">Core.has_saves</text>
</a>
</g>
</g>
<!-- Node5&#45;&gt;Node6 -->
<g id="edge7" class="edge">
<title>Node5&#45;&gt;Node6</title>
<path fill="none" stroke="midnightblue" d="M598.35,-141C606.64,-141 615.19,-141 623.62,-141"/>
<polygon fill="midnightblue" stroke="midnightblue" points="623.84,-144.5 633.84,-141 623.84,-137.5 623.84,-144.5"/>
</g>
<!-- Node6&#45;&gt;Node6 -->
<g id="edge9" class="edge">
<title>Node6&#45;&gt;Node6</title>
<path fill="none" stroke="midnightblue" d="M670.07,-156.16C663.1,-165.56 672.74,-174.5 699,-174.5 715,-174.5 724.84,-171.18 728.5,-166.46"/>
<polygon fill="midnightblue" stroke="midnightblue" points="731.97,-165.95 727.93,-156.16 724.98,-166.34 731.97,-165.95"/>
</g>
<!-- Node7 -->
<g id="node7" class="node">
<title>Node7</title>
<g id="a_node7"><a xlink:href="classrare_1_1shared_1_1rare__core_1_1_rare_core.html#a311e604b365ca958c3ae7b143b6190ce" target="_top" xlink:title=" ">
<polygon fill="white" stroke="black" points="800,-126 800,-156 930,-156 930,-126 800,-126"/>
<text text-anchor="start" x="808" y="-144" font-family="Helvetica,sans-Serif" font-size="10.00">rare.shared.rare_core.Rare</text>
<text text-anchor="middle" x="865" y="-133" font-family="Helvetica,sans-Serif" font-size="10.00">Core.__filter_games</text>
</a>
</g>
</g>
<!-- Node6&#45;&gt;Node7 -->
<g id="edge8" class="edge">
<title>Node6&#45;&gt;Node7</title>
<path fill="none" stroke="midnightblue" d="M764.35,-141C772.64,-141 781.19,-141 789.62,-141"/>
<polygon fill="midnightblue" stroke="midnightblue" points="789.84,-144.5 799.84,-141 789.84,-137.5 789.84,-144.5"/>
</g>
<!-- Node8&#45;&gt;Node8 -->
<g id="edge13" class="edge">
<title>Node8&#45;&gt;Node8</title>
<path fill="none" stroke="midnightblue" d="M310.37,-75.76C297.18,-84.57 306.22,-94 337.5,-94 359.01,-94 370,-89.54 370.48,-83.89"/>
<polygon fill="midnightblue" stroke="midnightblue" points="373.31,-81.83 364.63,-75.76 367.63,-85.92 373.31,-81.83"/>
</g>
<!-- Node9&#45;&gt;Node9 -->
<g id="edge15" class="edge">
<title>Node9&#45;&gt;Node9</title>
<path fill="none" stroke="midnightblue" d="M310.37,-19.76C297.18,-28.57 306.22,-38 337.5,-38 359.01,-38 370,-33.54 370.48,-27.89"/>
<polygon fill="midnightblue" stroke="midnightblue" points="373.31,-25.83 364.63,-19.76 367.63,-29.92 373.31,-25.83"/>
</g>
</g>
</svg>
