<?xml version="1.0" encoding="UTF-8" standalone="no"?>
<!DOCTYPE svg PUBLIC "-//W3C//DTD SVG 1.1//EN"
 "http://www.w3.org/Graphics/SVG/1.1/DTD/svg11.dtd">
<!-- Generated by graphviz version 2.49.3 (20211027.1534)
 -->
<!-- Title: remove Pages: 1 -->
<svg width="290pt" height="57pt"
 viewBox="0.00 0.00 289.62 57.00" xmlns="http://www.w3.org/2000/svg" xmlns:xlink="http://www.w3.org/1999/xlink">
<g id="graph0" class="graph" transform="scale(1 1) rotate(0) translate(4 53)">
<title>remove</title>
<polygon fill="white" stroke="transparent" points="-4,4 -4,-53 285.62,-53 285.62,4 -4,4"/>
<!-- Node1 -->
<g id="node1" class="node">
<title>Node1</title>
<g id="a_node1"><a xlink:title=" ">
<polygon fill="#bfbfbf" stroke="black" points="228,-6 228,-25 277,-25 277,-6 228,-6"/>
<text text-anchor="middle" x="252.5" y="-13" font-family="Helvetica,sans-Serif" font-size="10.00">remove</text>
</a>
</g>
</g>
<!-- Node1&#45;&gt;Node1 -->
<g id="edge3" class="edge">
<title>Node1&#45;&gt;Node1</title>
<path fill="none" stroke="midnightblue" d="M281.62,-34.15C280.4,-39.44 270.7,-43.5 252.5,-43.5 224.77,-43.5 216.76,-34.07 228.46,-25.26"/>
<polygon fill="midnightblue" stroke="midnightblue" points="284.54,-32.21 276.54,-25.26 278.46,-35.68 284.54,-32.21"/>
</g>
<!-- Node2 -->
<g id="node2" class="node">
<title>Node2</title>
<g id="a_node2"><a xlink:href="classrare_1_1components_1_1tabs_1_1downloads_1_1groups_1_1_queue_group.html#afa4e0f2b4a8c4e5c97b4853dbca6e7a7" target="_top" xlink:title=" ">
<polygon fill="white" stroke="black" points="0,-0.5 0,-30.5 192,-30.5 192,-0.5 0,-0.5"/>
<text text-anchor="start" x="8" y="-18.5" font-family="Helvetica,sans-Serif" font-size="10.00">rare.components.tabs.downloads.groups.</text>
<text text-anchor="middle" x="96" y="-7.5" font-family="Helvetica,sans-Serif" font-size="10.00">QueueGroup.contains</text>
</a>
</g>
</g>
<!-- Node1&#45;&gt;Node2 -->
<g id="edge1" class="edge">
<title>Node1&#45;&gt;Node2</title>
<path fill="none" stroke="midnightblue" d="M217.43,-15.5C209.74,-15.5 201.2,-15.5 192.33,-15.5"/>
<polygon fill="midnightblue" stroke="midnightblue" points="217.7,-19 227.7,-15.5 217.7,-12 217.7,-19"/>
</g>
<!-- Node2&#45;&gt;Node2 -->
<g id="edge2" class="edge">
<title>Node2&#45;&gt;Node2</title>
<path fill="none" stroke="midnightblue" d="M123.72,-40.96C120.28,-45.68 111.04,-49 96,-49 71.32,-49 62.26,-40.06 68.81,-30.66"/>
<polygon fill="midnightblue" stroke="midnightblue" points="127.2,-40.46 123.19,-30.66 120.21,-40.83 127.2,-40.46"/>
</g>
</g>
</svg>
