<?xml version="1.0" encoding="UTF-8" standalone="no"?>
<!DOCTYPE svg PUBLIC "-//W3C//DTD SVG 1.1//EN"
 "http://www.w3.org/Graphics/SVG/1.1/DTD/svg11.dtd">
<!-- Generated by graphviz version 2.49.3 (20211027.1534)
 -->
<!-- Title: smartSpacing Pages: 1 -->
<!--zoomable 212 -->
<svg id="main" version="1.1" xmlns="http://www.w3.org/2000/svg" xmlns:xlink="http://www.w3.org/1999/xlink" xml:space="preserve" onload="init(evt)">
<style type="text/css"><![CDATA[
.edge:hover path { stroke: red; }
.edge:hover polygon { stroke: red; fill: red; }
]]></style>
<script type="text/javascript"><![CDATA[
var edges = document.getElementsByTagName('g');
if (edges && edges.length) {
  for (var i=0;i<edges.length;i++) {
    if (edges[i].id.substr(0,4)=='edge') {
      edges[i].setAttribute('class','edge');
    }
  }
}
]]></script>
        <defs>
                <circle id="rim" cx="0" cy="0" r="7"/>
                <circle id="rim2" cx="0" cy="0" r="3.5"/>
                <g id="zoomPlus">
                        <use xlink:href="#rim" fill="#404040">
                                <set attributeName="fill" to="#808080" begin="zoomplus.mouseover" end="zoomplus.mouseout"/>
                        </use>
                        <path d="M-4,0h8M0,-4v8" fill="none" stroke="white" stroke-width="1.5" pointer-events="none"/>
                </g>
                <g id="zoomMin">
                        <use xlink:href="#rim" fill="#404040">
                                <set attributeName="fill" to="#808080" begin="zoomminus.mouseover" end="zoomminus.mouseout"/>
                        </use>
                        <path d="M-4,0h8" fill="none" stroke="white" stroke-width="1.5" pointer-events="none"/>
                </g>
                <g id="dirArrow">
                        <path fill="none" stroke="white" stroke-width="1.5" d="M0,-3.0v7 M-2.5,-0.5L0,-3.0L2.5,-0.5"/>
                </g>
               <g id="resetDef">
                       <use xlink:href="#rim2" fill="#404040">
                               <set attributeName="fill" to="#808080" begin="reset.mouseover" end="reset.mouseout"/>
                       </use>
               </g>
        </defs>

<script type="text/javascript">
var viewWidth = 856;
var viewHeight = 212;
var sectionId = 'dynsection-29';
</script>
<script xlink:href="svgpan.js"/>
<svg id="graph" class="graph">
<g id="viewport">
<title>smartSpacing</title>
<polygon fill="white" stroke="transparent" points="-4,4 -4,-207.5 852,-207.5 852,4 -4,4"/>
<!-- Node1 -->
<g id="node1" class="node">
<title>Node1</title>
<g id="a_node1"><a xlink:title=" ">
<polygon fill="#bfbfbf" stroke="black" points="771,-104 771,-123 848,-123 848,-104 771,-104"/>
<text text-anchor="middle" x="809.5" y="-111" font-family="Helvetica,sans-Serif" font-size="10.00">smartSpacing</text>
</a>
</g>
</g>
<!-- Node1&#45;&gt;Node1 -->
<g id="edge25" class="edge">
<title>Node1&#45;&gt;Node1</title>
<path fill="none" stroke="midnightblue" d="M831.82,-132.53C830.6,-137.63 823.16,-141.5 809.5,-141.5 788.17,-141.5 782.01,-132.07 791,-123.26"/>
<polygon fill="midnightblue" stroke="midnightblue" points="835.05,-131.17 828,-123.26 828.57,-133.84 835.05,-131.17"/>
</g>
<!-- Node2 -->
<g id="node2" class="node">
<title>Node2</title>
<g id="a_node2"><a xlink:href="classrare_1_1widgets_1_1flow__layout_1_1_flow_layout.html#a198240b6ed8eb4be3d26adb4ca03aa8d" target="_top" xlink:title=" ">
<polygon fill="white" stroke="black" points="642,-132 642,-151 735,-151 735,-132 642,-132"/>
<text text-anchor="middle" x="688.5" y="-139" font-family="Helvetica,sans-Serif" font-size="10.00">horizontalSpacing</text>
</a>
</g>
</g>
<!-- Node1&#45;&gt;Node2 -->
<g id="edge1" class="edge">
<title>Node1&#45;&gt;Node2</title>
<path fill="none" stroke="midnightblue" d="M760.89,-124.7C750.73,-127.09 740.08,-129.6 730.2,-131.92"/>
<polygon fill="midnightblue" stroke="midnightblue" points="761.92,-128.06 770.85,-122.36 760.31,-121.24 761.92,-128.06"/>
</g>
<!-- Node11 -->
<g id="node11" class="node">
<title>Node11</title>
<g id="a_node11"><a xlink:href="classrare_1_1widgets_1_1flow__layout_1_1_flow_layout.html#a339c0461a90b6d3b3eee250fbc47aefb" target="_top" xlink:title=" ">
<polygon fill="white" stroke="black" points="647,-76 647,-95 730,-95 730,-76 647,-76"/>
<text text-anchor="middle" x="688.5" y="-83" font-family="Helvetica,sans-Serif" font-size="10.00">verticalSpacing</text>
</a>
</g>
</g>
<!-- Node1&#45;&gt;Node11 -->
<g id="edge26" class="edge">
<title>Node1&#45;&gt;Node11</title>
<path fill="none" stroke="midnightblue" d="M760.89,-102.3C750.73,-99.91 740.08,-97.4 730.2,-95.08"/>
<polygon fill="midnightblue" stroke="midnightblue" points="760.31,-105.76 770.85,-104.64 761.92,-98.94 760.31,-105.76"/>
</g>
<!-- Node2&#45;&gt;Node2 -->
<g id="edge24" class="edge">
<title>Node2&#45;&gt;Node2</title>
<path fill="none" stroke="midnightblue" d="M710.82,-160.53C709.6,-165.63 702.16,-169.5 688.5,-169.5 667.17,-169.5 661.01,-160.07 670,-151.26"/>
<polygon fill="midnightblue" stroke="midnightblue" points="714.05,-159.17 707,-151.26 707.57,-161.84 714.05,-159.17"/>
</g>
<!-- Node3 -->
<g id="node3" class="node">
<title>Node3</title>
<g id="a_node3"><a xlink:href="classrare_1_1widgets_1_1flow__layout_1_1_flow_layout.html#aea5fef774da86c1a120b393f7d8cdd6a" target="_top" xlink:title=" ">
<polygon fill="white" stroke="black" points="503,-135 503,-154 559,-154 559,-135 503,-135"/>
<text text-anchor="middle" x="531" y="-142" font-family="Helvetica,sans-Serif" font-size="10.00">doLayout</text>
</a>
</g>
</g>
<!-- Node2&#45;&gt;Node3 -->
<g id="edge2" class="edge">
<title>Node2&#45;&gt;Node3</title>
<path fill="none" stroke="midnightblue" d="M631.68,-142.58C606.96,-143.05 579.02,-143.59 559.02,-143.98"/>
<polygon fill="midnightblue" stroke="midnightblue" points="631.76,-146.08 641.69,-142.38 631.62,-139.08 631.76,-146.08"/>
</g>
<!-- Node10 -->
<g id="node10" class="node">
<title>Node10</title>
<g id="a_node10"><a xlink:href="classrare_1_1widgets_1_1library__layout_1_1_library_layout.html#aea5fef774da86c1a120b393f7d8cdd6a" target="_top" xlink:title="Arranges the widgets for this layout.">
<polygon fill="white" stroke="black" points="456,-67.5 456,-97.5 606,-97.5 606,-67.5 456,-67.5"/>
<text text-anchor="start" x="464" y="-85.5" font-family="Helvetica,sans-Serif" font-size="10.00">rare.widgets.library</text>
<text text-anchor="middle" x="531" y="-74.5" font-family="Helvetica,sans-Serif" font-size="10.00">_layout.LibraryLayout.doLayout</text>
</a>
</g>
</g>
<!-- Node2&#45;&gt;Node10 -->
<g id="edge19" class="edge">
<title>Node2&#45;&gt;Node10</title>
<path fill="none" stroke="midnightblue" d="M652.73,-128.31C628.68,-119.18 596.64,-107.03 571.61,-97.53"/>
<polygon fill="midnightblue" stroke="midnightblue" points="651.58,-131.61 662.17,-131.89 654.06,-125.07 651.58,-131.61"/>
</g>
<!-- Node3&#45;&gt;Node3 -->
<g id="edge3" class="edge">
<title>Node3&#45;&gt;Node3</title>
<path fill="none" stroke="midnightblue" d="M560.12,-163.15C558.9,-168.44 549.2,-172.5 531,-172.5 503.27,-172.5 495.26,-163.07 506.96,-154.26"/>
<polygon fill="midnightblue" stroke="midnightblue" points="563.04,-161.21 555.04,-154.26 556.96,-164.68 563.04,-161.21"/>
</g>
<!-- Node4 -->
<g id="node4" class="node">
<title>Node4</title>
<g id="a_node4"><a xlink:href="classrare_1_1widgets_1_1flow__layout_1_1_flow_layout.html#a2dc56ed9b2e524cfc31b3ca5abd00b56" target="_top" xlink:title=" ">
<polygon fill="white" stroke="black" points="296,-166 296,-185 378,-185 378,-166 296,-166"/>
<text text-anchor="middle" x="337" y="-173" font-family="Helvetica,sans-Serif" font-size="10.00">heightForWidth</text>
</a>
</g>
</g>
<!-- Node3&#45;&gt;Node4 -->
<g id="edge4" class="edge">
<title>Node3&#45;&gt;Node4</title>
<path fill="none" stroke="midnightblue" d="M492.79,-150.51C459.93,-155.81 412.12,-163.53 378.35,-168.99"/>
<polygon fill="midnightblue" stroke="midnightblue" points="493.58,-153.93 502.9,-148.88 492.47,-147.01 493.58,-153.93"/>
</g>
<!-- Node5 -->
<g id="node5" class="node">
<title>Node5</title>
<g id="a_node5"><a xlink:href="classrare_1_1widgets_1_1flow__layout_1_1_flow_layout.html#afe23566a105be4d4343f0010ab0c0c81" target="_top" xlink:title=" ">
<polygon fill="white" stroke="black" points="301,-42 301,-61 373,-61 373,-42 301,-42"/>
<text text-anchor="middle" x="337" y="-49" font-family="Helvetica,sans-Serif" font-size="10.00">setGeometry</text>
</a>
</g>
</g>
<!-- Node3&#45;&gt;Node5 -->
<g id="edge6" class="edge">
<title>Node3&#45;&gt;Node5</title>
<path fill="none" stroke="midnightblue" d="M492.7,-138.41C480.47,-135.39 467.16,-130.96 456,-124.5 436.42,-113.17 438.62,-101.36 420,-88.5 403.17,-76.87 382.09,-67.45 365.52,-61.03"/>
<polygon fill="midnightblue" stroke="midnightblue" points="492.14,-141.87 502.66,-140.62 493.66,-135.04 492.14,-141.87"/>
</g>
<!-- Node9 -->
<g id="node9" class="node">
<title>Node9</title>
<g id="a_node9"><a xlink:href="classrare_1_1widgets_1_1library__layout_1_1_library_layout.html#afe23566a105be4d4343f0010ab0c0c81" target="_top" xlink:title=" ">
<polygon fill="white" stroke="black" points="254,-98.5 254,-128.5 420,-128.5 420,-98.5 254,-98.5"/>
<text text-anchor="start" x="262" y="-116.5" font-family="Helvetica,sans-Serif" font-size="10.00">rare.widgets.library</text>
<text text-anchor="middle" x="337" y="-105.5" font-family="Helvetica,sans-Serif" font-size="10.00">_layout.LibraryLayout.setGeometry</text>
</a>
</g>
</g>
<!-- Node3&#45;&gt;Node9 -->
<g id="edge14" class="edge">
<title>Node3&#45;&gt;Node9</title>
<path fill="none" stroke="midnightblue" d="M492.95,-138.52C472.24,-135.17 445.57,-130.87 420.2,-126.77"/>
<polygon fill="midnightblue" stroke="midnightblue" points="492.47,-141.99 502.9,-140.12 493.58,-135.07 492.47,-141.99"/>
</g>
<!-- Node4&#45;&gt;Node4 -->
<g id="edge5" class="edge">
<title>Node4&#45;&gt;Node4</title>
<path fill="none" stroke="midnightblue" d="M373.37,-193C373.37,-198.84 361.24,-203.5 337,-203.5 302.52,-203.5 292.55,-194.07 307.1,-185.26"/>
<polygon fill="midnightblue" stroke="midnightblue" points="376,-190.69 366.9,-185.26 370.63,-195.17 376,-190.69"/>
</g>
<!-- Node5&#45;&gt;Node5 -->
<g id="edge11" class="edge">
<title>Node5&#45;&gt;Node5</title>
<path fill="none" stroke="midnightblue" d="M373.37,-69C373.37,-74.84 361.24,-79.5 337,-79.5 302.52,-79.5 292.55,-70.07 307.1,-61.26"/>
<polygon fill="midnightblue" stroke="midnightblue" points="376,-66.69 366.9,-61.26 370.63,-71.17 376,-66.69"/>
</g>
<!-- Node6 -->
<g id="node6" class="node">
<title>Node6</title>
<g id="a_node6"><a xlink:href="classrare_1_1components_1_1tabs_1_1games_1_1game__widgets_1_1library__widget_1_1_progress_label.html#a39d165427992dd2720f91929a88cde17" target="_top" xlink:title=" ">
<polygon fill="white" stroke="black" points="0,-134.5 0,-164.5 218,-164.5 218,-134.5 0,-134.5"/>
<text text-anchor="start" x="8" y="-152.5" font-family="Helvetica,sans-Serif" font-size="10.00">rare.components.tabs.games.game</text>
<text text-anchor="middle" x="109" y="-141.5" font-family="Helvetica,sans-Serif" font-size="10.00">_widgets.library_widget.ProgressLabel.__init__</text>
</a>
</g>
</g>
<!-- Node5&#45;&gt;Node6 -->
<g id="edge7" class="edge">
<title>Node5&#45;&gt;Node6</title>
<path fill="none" stroke="midnightblue" d="M299.16,-64.78C284.47,-70.91 267.81,-78.96 254,-88.5 235.38,-101.36 237.79,-113.52 218,-124.5 211.02,-128.37 203.46,-131.65 195.7,-134.42"/>
<polygon fill="midnightblue" stroke="midnightblue" points="300.51,-68.01 308.48,-61.03 297.9,-61.51 300.51,-68.01"/>
</g>
<!-- Node7 -->
<g id="node7" class="node">
<title>Node7</title>
<g id="a_node7"><a xlink:href="classrare_1_1game__launch__helper_1_1console_1_1_console.html#a39d165427992dd2720f91929a88cde17" target="_top" xlink:title=" ">
<polygon fill="white" stroke="black" points="27.5,-67.5 27.5,-97.5 190.5,-97.5 190.5,-67.5 27.5,-67.5"/>
<text text-anchor="start" x="35.5" y="-85.5" font-family="Helvetica,sans-Serif" font-size="10.00">rare.game_launch_helper.console.</text>
<text text-anchor="middle" x="109" y="-74.5" font-family="Helvetica,sans-Serif" font-size="10.00">Console.__init__</text>
</a>
</g>
</g>
<!-- Node5&#45;&gt;Node7 -->
<g id="edge9" class="edge">
<title>Node5&#45;&gt;Node7</title>
<path fill="none" stroke="midnightblue" d="M290.61,-57.73C262.09,-61.64 224.47,-66.8 190.95,-71.4"/>
<polygon fill="midnightblue" stroke="midnightblue" points="291.26,-61.17 300.69,-56.34 290.3,-54.24 291.26,-61.17"/>
</g>
<!-- Node8 -->
<g id="node8" class="node">
<title>Node8</title>
<g id="a_node8"><a xlink:href="classrare_1_1widgets_1_1library__layout_1_1_library_layout.html#a4f0c9cee0f8ce4bc7bdb16718a529c56" target="_top" xlink:title=" ">
<polygon fill="white" stroke="black" points="45.5,-0.5 45.5,-30.5 172.5,-30.5 172.5,-0.5 45.5,-0.5"/>
<text text-anchor="start" x="53.5" y="-18.5" font-family="Helvetica,sans-Serif" font-size="10.00">rare.widgets.library</text>
<text text-anchor="middle" x="109" y="-7.5" font-family="Helvetica,sans-Serif" font-size="10.00">_layout.LibraryLayout.sort</text>
</a>
</g>
</g>
<!-- Node5&#45;&gt;Node8 -->
<g id="edge12" class="edge">
<title>Node5&#45;&gt;Node8</title>
<path fill="none" stroke="midnightblue" d="M290.63,-44.27C256.81,-38.89 210.2,-31.46 172.8,-25.5"/>
<polygon fill="midnightblue" stroke="midnightblue" points="290.26,-47.76 300.69,-45.88 291.36,-40.85 290.26,-47.76"/>
</g>
<!-- Node6&#45;&gt;Node6 -->
<g id="edge8" class="edge">
<title>Node6&#45;&gt;Node6</title>
<path fill="none" stroke="midnightblue" d="M149.51,-174.96C144.48,-179.68 130.98,-183 109,-183 72.93,-183 59.69,-174.06 69.27,-164.66"/>
<polygon fill="midnightblue" stroke="midnightblue" points="152.98,-174.37 148.73,-164.66 146,-174.89 152.98,-174.37"/>
</g>
<!-- Node7&#45;&gt;Node7 -->
<g id="edge10" class="edge">
<title>Node7&#45;&gt;Node7</title>
<path fill="none" stroke="midnightblue" d="M149.51,-107.96C144.48,-112.68 130.98,-116 109,-116 72.93,-116 59.69,-107.06 69.27,-97.66"/>
<polygon fill="midnightblue" stroke="midnightblue" points="152.98,-107.37 148.73,-97.66 146,-107.89 152.98,-107.37"/>
</g>
<!-- Node8&#45;&gt;Node8 -->
<g id="edge13" class="edge">
<title>Node8&#45;&gt;Node8</title>
<path fill="none" stroke="midnightblue" d="M149.51,-40.96C144.48,-45.68 130.98,-49 109,-49 72.93,-49 59.69,-40.06 69.27,-30.66"/>
<polygon fill="midnightblue" stroke="midnightblue" points="152.98,-40.37 148.73,-30.66 146,-40.89 152.98,-40.37"/>
</g>
<!-- Node9&#45;&gt;Node6 -->
<g id="edge15" class="edge">
<title>Node9&#45;&gt;Node6</title>
<path fill="none" stroke="midnightblue" d="M243.52,-128.23C230.63,-130.29 217.36,-132.4 204.43,-134.46"/>
<polygon fill="midnightblue" stroke="midnightblue" points="244.44,-131.63 253.77,-126.6 243.34,-124.72 244.44,-131.63"/>
</g>
<!-- Node9&#45;&gt;Node7 -->
<g id="edge16" class="edge">
<title>Node9&#45;&gt;Node7</title>
<path fill="none" stroke="midnightblue" d="M243.54,-100.82C226.01,-98.41 207.79,-95.91 190.66,-93.56"/>
<polygon fill="midnightblue" stroke="midnightblue" points="243.39,-104.33 253.77,-102.22 244.34,-97.39 243.39,-104.33"/>
</g>
<!-- Node9&#45;&gt;Node8 -->
<g id="edge18" class="edge">
<title>Node9&#45;&gt;Node8</title>
<path fill="none" stroke="midnightblue" d="M266.53,-94.6C262.21,-92.73 257.99,-90.7 254,-88.5 235.5,-78.31 236.1,-68.37 218,-57.5 199.72,-46.52 178.06,-37.43 158.96,-30.55"/>
<polygon fill="midnightblue" stroke="midnightblue" points="265.54,-97.98 276.12,-98.45 268.14,-91.48 265.54,-97.98"/>
</g>
<!-- Node9&#45;&gt;Node9 -->
<g id="edge17" class="edge">
<title>Node9&#45;&gt;Node9</title>
<path fill="none" stroke="midnightblue" d="M371.47,-138.96C367.19,-143.68 355.7,-147 337,-147 306.31,-147 295.04,-138.06 303.19,-128.66"/>
<polygon fill="midnightblue" stroke="midnightblue" points="374.94,-138.41 370.81,-128.66 367.96,-138.86 374.94,-138.41"/>
</g>
<!-- Node10&#45;&gt;Node4 -->
<g id="edge21" class="edge">
<title>Node10&#45;&gt;Node4</title>
<path fill="none" stroke="midnightblue" d="M492.29,-102.63C480.39,-109.45 467.38,-117.4 456,-125.5 438.8,-137.75 438.83,-146.95 420,-156.5 407.1,-163.04 391.91,-167.37 378.14,-170.21"/>
<polygon fill="midnightblue" stroke="midnightblue" points="494.13,-105.61 501.12,-97.65 490.69,-99.51 494.13,-105.61"/>
</g>
<!-- Node10&#45;&gt;Node5 -->
<g id="edge22" class="edge">
<title>Node10&#45;&gt;Node5</title>
<path fill="none" stroke="midnightblue" d="M445.69,-68.89C420.21,-64.77 393.61,-60.48 373.22,-57.19"/>
<polygon fill="midnightblue" stroke="midnightblue" points="445.34,-72.38 455.77,-70.51 446.45,-65.47 445.34,-72.38"/>
</g>
<!-- Node10&#45;&gt;Node9 -->
<g id="edge23" class="edge">
<title>Node10&#45;&gt;Node9</title>
<path fill="none" stroke="midnightblue" d="M445.79,-96.1C437.23,-97.48 428.54,-98.88 420.01,-100.26"/>
<polygon fill="midnightblue" stroke="midnightblue" points="446.45,-99.53 455.77,-94.49 445.34,-92.62 446.45,-99.53"/>
</g>
<!-- Node10&#45;&gt;Node10 -->
<g id="edge20" class="edge">
<title>Node10&#45;&gt;Node10</title>
<path fill="none" stroke="midnightblue" d="M558.72,-107.96C555.28,-112.68 546.04,-116 531,-116 506.32,-116 497.26,-107.06 503.81,-97.66"/>
<polygon fill="midnightblue" stroke="midnightblue" points="562.2,-107.46 558.19,-97.66 555.21,-107.83 562.2,-107.46"/>
</g>
<!-- Node11&#45;&gt;Node3 -->
<g id="edge27" class="edge">
<title>Node11&#45;&gt;Node3</title>
<path fill="none" stroke="midnightblue" d="M660.7,-99.85C645.05,-107.84 624.76,-117.54 606,-124.5 590.78,-130.15 573.26,-134.95 559.09,-138.44"/>
<polygon fill="midnightblue" stroke="midnightblue" points="662.52,-102.85 669.78,-95.14 659.29,-96.64 662.52,-102.85"/>
</g>
<!-- Node11&#45;&gt;Node10 -->
<g id="edge28" class="edge">
<title>Node11&#45;&gt;Node10</title>
<path fill="none" stroke="midnightblue" d="M636.44,-84.51C626.77,-84.33 616.48,-84.13 606.27,-83.93"/>
<polygon fill="midnightblue" stroke="midnightblue" points="636.58,-88.02 646.64,-84.71 636.71,-81.02 636.58,-88.02"/>
</g>
<!-- Node11&#45;&gt;Node11 -->
<g id="edge29" class="edge">
<title>Node11&#45;&gt;Node11</title>
<path fill="none" stroke="midnightblue" d="M710.82,-104.53C709.6,-109.63 702.16,-113.5 688.5,-113.5 667.17,-113.5 661.01,-104.07 670,-95.26"/>
<polygon fill="midnightblue" stroke="midnightblue" points="714.05,-103.17 707,-95.26 707.57,-105.84 714.05,-103.17"/>
</g>
</g>
</svg>
        <g id="navigator" transform="translate(0 0)" fill="#404254">
                <rect fill="#f2f5e9" fill-opacity="0.5" stroke="#606060" stroke-width=".5" x="0" y="0" width="60" height="60"/>
                <use id="zoomplus" xlink:href="#zoomPlus" x="17" y="9" onmousedown="handleZoom(evt,'in')"/>
                <use id="zoomminus" xlink:href="#zoomMin" x="42" y="9" onmousedown="handleZoom(evt,'out')"/>
                <use id="reset" xlink:href="#resetDef" x="30" y="36" onmousedown="handleReset()"/>
                <g id="arrowUp" xlink:href="#dirArrow" transform="translate(30 24)" onmousedown="handlePan(0,-1)">
                  <use xlink:href="#rim" fill="#404040">
                        <set attributeName="fill" to="#808080" begin="arrowUp.mouseover" end="arrowUp.mouseout"/>
                  </use>
                  <path fill="none" stroke="white" stroke-width="1.5" d="M0,-3.0v7 M-2.5,-0.5L0,-3.0L2.5,-0.5"/>
                </g>
                <g id="arrowRight" xlink:href="#dirArrow" transform="rotate(90) translate(36 -43)" onmousedown="handlePan(1,0)">
                  <use xlink:href="#rim" fill="#404040">
                        <set attributeName="fill" to="#808080" begin="arrowRight.mouseover" end="arrowRight.mouseout"/>
                  </use>
                  <path fill="none" stroke="white" stroke-width="1.5" d="M0,-3.0v7 M-2.5,-0.5L0,-3.0L2.5,-0.5"/>
                </g>
                <g id="arrowDown" xlink:href="#dirArrow" transform="rotate(180) translate(-30 -48)" onmousedown="handlePan(0,1)">
                  <use xlink:href="#rim" fill="#404040">
                        <set attributeName="fill" to="#808080" begin="arrowDown.mouseover" end="arrowDown.mouseout"/>
                  </use>
                  <path fill="none" stroke="white" stroke-width="1.5" d="M0,-3.0v7 M-2.5,-0.5L0,-3.0L2.5,-0.5"/>
                </g>
                <g id="arrowLeft" xlink:href="#dirArrow" transform="rotate(270) translate(-36 17)" onmousedown="handlePan(-1,0)">
                  <use xlink:href="#rim" fill="#404040">
                        <set attributeName="fill" to="#808080" begin="arrowLeft.mouseover" end="arrowLeft.mouseout"/>
                  </use>
                  <path fill="none" stroke="white" stroke-width="1.5" d="M0,-3.0v7 M-2.5,-0.5L0,-3.0L2.5,-0.5"/>
                </g>
        </g>
        <svg viewBox="0 0 15 15" width="100%" height="30px" preserveAspectRatio="xMaxYMin meet">
         <g id="arrow_out" transform="scale(0.3 0.3)">
          <a xlink:href="classrare_1_1widgets_1_1flow__layout_1_1_flow_layout_a2e8d545883a85a6757198adec7da2731_icgraph_org.svg" target="_base">
           <rect id="button" ry="5" rx="5" y="6" x="6" height="38" width="38"
                fill="#f2f5e9" fill-opacity="0.5" stroke="#606060" stroke-width="1.0"/>
           <path id="arrow"
             d="M 11.500037,31.436501 C 11.940474,20.09759 22.043105,11.32322 32.158766,21.979434 L 37.068811,17.246167 C 37.068811,17.246167 37.088388,32 37.088388,32 L 22.160133,31.978069 C 22.160133,31.978069 26.997745,27.140456 26.997745,27.140456 C 18.528582,18.264221 13.291696,25.230495 11.500037,31.436501 z"
             style="fill:#404040;"/>
          </a>
         </g>
        </svg>
</svg>
