<?xml version="1.0" encoding="UTF-8" standalone="no"?>
<!DOCTYPE svg PUBLIC "-//W3C//DTD SVG 1.1//EN"
 "http://www.w3.org/Graphics/SVG/1.1/DTD/svg11.dtd">
<!-- Generated by graphviz version 2.49.3 (20211027.1534)
 -->
<!-- Title: default_platform Pages: 1 -->
<svg width="804pt" height="449pt"
 viewBox="0.00 0.00 804.00 448.50" xmlns="http://www.w3.org/2000/svg" xmlns:xlink="http://www.w3.org/1999/xlink">
<g id="graph0" class="graph" transform="scale(1 1) rotate(0) translate(4 444.5)">
<title>default_platform</title>
<polygon fill="white" stroke="transparent" points="-4,4 -4,-444.5 800,-444.5 800,4 -4,4"/>
<!-- Node1 -->
<g id="node1" class="node">
<title>Node1</title>
<g id="a_node1"><a xlink:title=" ">
<polygon fill="#bfbfbf" stroke="black" points="710,-321 710,-340 796,-340 796,-321 710,-321"/>
<text text-anchor="middle" x="753" y="-328" font-family="Helvetica,sans-Serif" font-size="10.00">default_platform</text>
</a>
</g>
</g>
<!-- Node1&#45;&gt;Node1 -->
<g id="edge1" class="edge">
<title>Node1&#45;&gt;Node1</title>
<path fill="none" stroke="midnightblue" d="M784.06,-348.77C783.18,-354.24 772.82,-358.5 753,-358.5 723.5,-358.5 714.97,-349.07 727.41,-340.26"/>
<polygon fill="midnightblue" stroke="midnightblue" points="786.94,-346.77 778.59,-340.26 781.05,-350.56 786.94,-346.77"/>
</g>
<!-- Node2 -->
<g id="node2" class="node">
<title>Node2</title>
<g id="a_node2"><a xlink:href="classrare_1_1models_1_1game_1_1_rare_game.html#a974efcc254c209206208ddd4d9f391a8" target="_top" xlink:title=" ">
<polygon fill="white" stroke="black" points="500,-382.5 500,-412.5 674,-412.5 674,-382.5 500,-382.5"/>
<text text-anchor="start" x="508" y="-400.5" font-family="Helvetica,sans-Serif" font-size="10.00">rare.models.game.RareGame.refresh</text>
<text text-anchor="middle" x="587" y="-389.5" font-family="Helvetica,sans-Serif" font-size="10.00">_pixmap</text>
</a>
</g>
</g>
<!-- Node1&#45;&gt;Node2 -->
<g id="edge2" class="edge">
<title>Node1&#45;&gt;Node2</title>
<path fill="none" stroke="midnightblue" d="M728.3,-345.45C713.19,-354.5 692.97,-365.75 674,-373.5 665.96,-376.78 657.33,-379.78 648.74,-382.46"/>
<polygon fill="midnightblue" stroke="midnightblue" points="730.27,-348.35 736.98,-340.16 726.62,-342.38 730.27,-348.35"/>
</g>
<!-- Node3 -->
<g id="node3" class="node">
<title>Node3</title>
<g id="a_node3"><a xlink:href="classrare_1_1models_1_1game_1_1_rare_game.html#adf94568f84b36f0c783d76df96936a8b" target="_top" xlink:title="Property to report the remote version of an InstalledGame.">
<polygon fill="white" stroke="black" points="500,-315.5 500,-345.5 674,-345.5 674,-315.5 500,-315.5"/>
<text text-anchor="start" x="508" y="-333.5" font-family="Helvetica,sans-Serif" font-size="10.00">rare.models.game.RareGame.remote</text>
<text text-anchor="middle" x="587" y="-322.5" font-family="Helvetica,sans-Serif" font-size="10.00">_version</text>
</a>
</g>
</g>
<!-- Node1&#45;&gt;Node3 -->
<g id="edge4" class="edge">
<title>Node1&#45;&gt;Node3</title>
<path fill="none" stroke="midnightblue" d="M699.66,-330.5C691.46,-330.5 682.81,-330.5 674.09,-330.5"/>
<polygon fill="midnightblue" stroke="midnightblue" points="699.77,-334 709.77,-330.5 699.77,-327 699.77,-334"/>
</g>
<!-- Node7 -->
<g id="node7" class="node">
<title>Node7</title>
<g id="a_node7"><a xlink:href="classrare_1_1models_1_1game__slim_1_1_rare_game_base.html#a1e436b61f937ea687fa3897d286899cf" target="_top" xlink:title="Reports the currently installed version of the Game.">
<polygon fill="white" stroke="black" points="563,-257 563,-276 611,-276 611,-257 563,-257"/>
<text text-anchor="middle" x="587" y="-264" font-family="Helvetica,sans-Serif" font-size="10.00">version</text>
</a>
</g>
</g>
<!-- Node1&#45;&gt;Node7 -->
<g id="edge12" class="edge">
<title>Node1&#45;&gt;Node7</title>
<path fill="none" stroke="midnightblue" d="M718.04,-317.25C686.05,-304.76 639,-286.4 611.13,-275.53"/>
<polygon fill="midnightblue" stroke="midnightblue" points="716.86,-320.54 727.45,-320.92 719.4,-314.02 716.86,-320.54"/>
</g>
<!-- Node2&#45;&gt;Node2 -->
<g id="edge3" class="edge">
<title>Node2&#45;&gt;Node2</title>
<path fill="none" stroke="midnightblue" d="M616.5,-422.96C612.84,-427.68 603,-431 587,-431 560.74,-431 551.1,-422.06 558.07,-412.66"/>
<polygon fill="midnightblue" stroke="midnightblue" points="619.97,-422.45 615.93,-412.66 612.98,-422.84 619.97,-422.45"/>
</g>
<!-- Node3&#45;&gt;Node3 -->
<g id="edge11" class="edge">
<title>Node3&#45;&gt;Node3</title>
<path fill="none" stroke="midnightblue" d="M616.5,-355.96C612.84,-360.68 603,-364 587,-364 560.74,-364 551.1,-355.06 558.07,-345.66"/>
<polygon fill="midnightblue" stroke="midnightblue" points="619.97,-355.45 615.93,-345.66 612.98,-355.84 619.97,-355.45"/>
</g>
<!-- Node4 -->
<g id="node4" class="node">
<title>Node4</title>
<g id="a_node4"><a xlink:href="classrare_1_1models_1_1game_1_1_rare_game.html#a1e914552c775e095849d4c5e6e6840bd" target="_top" xlink:title="Property to report if an InstalledGame has updates available.">
<polygon fill="white" stroke="black" points="283.5,-335.5 283.5,-365.5 443.5,-365.5 443.5,-335.5 283.5,-335.5"/>
<text text-anchor="start" x="291.5" y="-353.5" font-family="Helvetica,sans-Serif" font-size="10.00">rare.models.game.RareGame.has</text>
<text text-anchor="middle" x="363.5" y="-342.5" font-family="Helvetica,sans-Serif" font-size="10.00">_update</text>
</a>
</g>
</g>
<!-- Node3&#45;&gt;Node4 -->
<g id="edge5" class="edge">
<title>Node3&#45;&gt;Node4</title>
<path fill="none" stroke="midnightblue" d="M489.7,-339.2C474.33,-340.58 458.58,-342.01 443.67,-343.35"/>
<polygon fill="midnightblue" stroke="midnightblue" points="490.08,-342.67 499.73,-338.29 489.45,-335.7 490.08,-342.67"/>
</g>
<!-- Node4&#45;&gt;Node4 -->
<g id="edge6" class="edge">
<title>Node4&#45;&gt;Node4</title>
<path fill="none" stroke="midnightblue" d="M402.95,-375.96C398.05,-380.68 384.9,-384 363.5,-384 328.38,-384 315.48,-375.06 324.81,-365.66"/>
<polygon fill="midnightblue" stroke="midnightblue" points="406.41,-375.37 402.19,-365.66 399.43,-375.89 406.41,-375.37"/>
</g>
<!-- Node5 -->
<g id="node5" class="node">
<title>Node5</title>
<g id="a_node5"><a xlink:href="classrare_1_1models_1_1game_1_1_rare_game.html#ae6b2acec85ae135dec2149646b35c92c" target="_top" xlink:title=" ">
<polygon fill="white" stroke="black" points="23,-403 23,-422 204,-422 204,-403 23,-403"/>
<text text-anchor="middle" x="113.5" y="-410" font-family="Helvetica,sans-Serif" font-size="10.00">rare.models.game.RareGame.sdl_data</text>
</a>
</g>
</g>
<!-- Node4&#45;&gt;Node5 -->
<g id="edge7" class="edge">
<title>Node4&#45;&gt;Node5</title>
<path fill="none" stroke="midnightblue" d="M310.56,-368.86C285.54,-377.22 254.95,-386.74 227,-393.5 211.98,-397.13 195.67,-400.31 180.25,-402.98"/>
<polygon fill="midnightblue" stroke="midnightblue" points="311.86,-372.12 320.21,-365.6 309.62,-365.49 311.86,-372.12"/>
</g>
<!-- Node6 -->
<g id="node6" class="node">
<title>Node6</title>
<g id="a_node6"><a xlink:href="classrare_1_1models_1_1game_1_1_rare_game.html#a590836cea8227c1cb3994dabf184ecab" target="_top" xlink:title="Sets the installation status of a game.">
<polygon fill="white" stroke="black" points="34.5,-335.5 34.5,-365.5 192.5,-365.5 192.5,-335.5 34.5,-335.5"/>
<text text-anchor="start" x="42.5" y="-353.5" font-family="Helvetica,sans-Serif" font-size="10.00">rare.models.game.RareGame.set</text>
<text text-anchor="middle" x="113.5" y="-342.5" font-family="Helvetica,sans-Serif" font-size="10.00">_installed</text>
</a>
</g>
</g>
<!-- Node4&#45;&gt;Node6 -->
<g id="edge9" class="edge">
<title>Node4&#45;&gt;Node6</title>
<path fill="none" stroke="midnightblue" d="M273.04,-350.5C246.82,-350.5 218.37,-350.5 192.9,-350.5"/>
<polygon fill="midnightblue" stroke="midnightblue" points="273.35,-354 283.35,-350.5 273.35,-347 273.35,-354"/>
</g>
<!-- Node5&#45;&gt;Node5 -->
<g id="edge8" class="edge">
<title>Node5&#45;&gt;Node5</title>
<path fill="none" stroke="midnightblue" d="M159.96,-428.32C163.19,-434.91 147.71,-440.5 113.5,-440.5 68.82,-440.5 56.08,-430.96 75.28,-422.11"/>
<polygon fill="midnightblue" stroke="midnightblue" points="161.81,-425.33 151.72,-422.11 157.6,-430.92 161.81,-425.33"/>
</g>
<!-- Node6&#45;&gt;Node6 -->
<g id="edge10" class="edge">
<title>Node6&#45;&gt;Node6</title>
<path fill="none" stroke="midnightblue" d="M158.33,-375.59C153.16,-380.51 138.22,-384 113.5,-384 73.95,-384 59.43,-375.06 69.93,-365.66"/>
<polygon fill="midnightblue" stroke="midnightblue" points="161.8,-375.14 157.07,-365.66 154.85,-376.02 161.8,-375.14"/>
</g>
<!-- Node7&#45;&gt;Node7 -->
<g id="edge27" class="edge">
<title>Node7&#45;&gt;Node7</title>
<path fill="none" stroke="midnightblue" d="M618.03,-283.02C619.25,-289.3 608.91,-294.5 587,-294.5 556.52,-294.5 548.43,-284.43 562.71,-275.39"/>
<polygon fill="midnightblue" stroke="midnightblue" points="620.53,-280.56 611.29,-275.39 615.29,-285.2 620.53,-280.56"/>
</g>
<!-- Node8 -->
<g id="node8" class="node">
<title>Node8</title>
<g id="a_node8"><a xlink:href="classrare_1_1components_1_1tabs_1_1library_1_1details_1_1details_1_1_game_details.html#a685840c701fe685c02f6af4cef409442" target="_top" xlink:title=" ">
<polygon fill="white" stroke="black" points="263,-251.5 263,-281.5 464,-281.5 464,-251.5 263,-251.5"/>
<text text-anchor="start" x="271" y="-269.5" font-family="Helvetica,sans-Serif" font-size="10.00">rare.components.tabs.library.details.details.</text>
<text text-anchor="middle" x="363.5" y="-258.5" font-family="Helvetica,sans-Serif" font-size="10.00">GameDetails.hideEvent</text>
</a>
</g>
</g>
<!-- Node7&#45;&gt;Node8 -->
<g id="edge13" class="edge">
<title>Node7&#45;&gt;Node8</title>
<path fill="none" stroke="midnightblue" d="M552.55,-266.5C528.92,-266.5 495.91,-266.5 464.14,-266.5"/>
<polygon fill="midnightblue" stroke="midnightblue" points="552.71,-270 562.71,-266.5 552.71,-263 552.71,-270"/>
</g>
<!-- Node9 -->
<g id="node9" class="node">
<title>Node9</title>
<g id="a_node9"><a xlink:href="classrare_1_1components_1_1tabs_1_1integrations_1_1eos__group_1_1_eos_group.html#ada4904cab960c53f234fc113a7fcf349" target="_top" xlink:title=" ">
<polygon fill="white" stroke="black" points="273.5,-151.5 273.5,-181.5 453.5,-181.5 453.5,-151.5 273.5,-151.5"/>
<text text-anchor="start" x="281.5" y="-169.5" font-family="Helvetica,sans-Serif" font-size="10.00">rare.components.tabs.integrations.eos</text>
<text text-anchor="middle" x="363.5" y="-158.5" font-family="Helvetica,sans-Serif" font-size="10.00">_group.EosGroup.update_state</text>
</a>
</g>
</g>
<!-- Node7&#45;&gt;Node9 -->
<g id="edge15" class="edge">
<title>Node7&#45;&gt;Node9</title>
<path fill="none" stroke="midnightblue" d="M555.47,-252.72C514.11,-234.05 440.57,-200.84 397.82,-181.54"/>
<polygon fill="midnightblue" stroke="midnightblue" points="554.21,-255.99 564.76,-256.91 557.09,-249.61 554.21,-255.99"/>
</g>
<!-- Node8&#45;&gt;Node8 -->
<g id="edge14" class="edge">
<title>Node8&#45;&gt;Node8</title>
<path fill="none" stroke="midnightblue" d="M402.95,-291.96C398.05,-296.68 384.9,-300 363.5,-300 328.38,-300 315.48,-291.06 324.81,-281.66"/>
<polygon fill="midnightblue" stroke="midnightblue" points="406.41,-291.37 402.19,-281.66 399.43,-291.89 406.41,-291.37"/>
</g>
<!-- Node9&#45;&gt;Node9 -->
<g id="edge26" class="edge">
<title>Node9&#45;&gt;Node9</title>
<path fill="none" stroke="midnightblue" d="M402.95,-191.96C398.05,-196.68 384.9,-200 363.5,-200 328.38,-200 315.48,-191.06 324.81,-181.66"/>
<polygon fill="midnightblue" stroke="midnightblue" points="406.41,-191.37 402.19,-181.66 399.43,-191.89 406.41,-191.37"/>
</g>
<!-- Node10 -->
<g id="node10" class="node">
<title>Node10</title>
<g id="a_node10"><a xlink:href="classrare_1_1components_1_1tabs_1_1integrations_1_1eos__group_1_1_eos_prefix_widget.html#afb98620e5c3e93764e3a474baf06aa6a" target="_top" xlink:title=" ">
<polygon fill="white" stroke="black" points="23.5,-268.5 23.5,-298.5 203.5,-298.5 203.5,-268.5 23.5,-268.5"/>
<text text-anchor="start" x="31.5" y="-286.5" font-family="Helvetica,sans-Serif" font-size="10.00">rare.components.tabs.integrations.eos</text>
<text text-anchor="middle" x="113.5" y="-275.5" font-family="Helvetica,sans-Serif" font-size="10.00">_group.EosPrefixWidget.action</text>
</a>
</g>
</g>
<!-- Node9&#45;&gt;Node10 -->
<g id="edge16" class="edge">
<title>Node9&#45;&gt;Node10</title>
<path fill="none" stroke="midnightblue" d="M337.62,-188.08C311.71,-209.41 269.1,-241.41 227,-259.5 219.02,-262.93 210.5,-265.89 201.86,-268.43"/>
<polygon fill="midnightblue" stroke="midnightblue" points="339.99,-190.65 345.42,-181.56 335.51,-185.28 339.99,-190.65"/>
</g>
<!-- Node11 -->
<g id="node11" class="node">
<title>Node11</title>
<g id="a_node11"><a xlink:href="classrare_1_1components_1_1tabs_1_1integrations_1_1eos__group_1_1_eos_group.html#ae3086ed15d86fab628d5249118184203" target="_top" xlink:title=" ">
<polygon fill="white" stroke="black" points="23.5,-201.5 23.5,-231.5 203.5,-231.5 203.5,-201.5 23.5,-201.5"/>
<text text-anchor="start" x="31.5" y="-219.5" font-family="Helvetica,sans-Serif" font-size="10.00">rare.components.tabs.integrations.eos</text>
<text text-anchor="middle" x="113.5" y="-208.5" font-family="Helvetica,sans-Serif" font-size="10.00">_group.EosGroup.install_finished</text>
</a>
</g>
</g>
<!-- Node9&#45;&gt;Node11 -->
<g id="edge18" class="edge">
<title>Node9&#45;&gt;Node11</title>
<path fill="none" stroke="midnightblue" d="M278.05,-183.53C249.25,-189.33 217.27,-195.78 189.28,-201.42"/>
<polygon fill="midnightblue" stroke="midnightblue" points="278.98,-186.91 288.09,-181.5 277.6,-180.05 278.98,-186.91"/>
</g>
<!-- Node12 -->
<g id="node12" class="node">
<title>Node12</title>
<g id="a_node12"><a xlink:href="classrare_1_1components_1_1tabs_1_1settings_1_1widgets_1_1wrappers_1_1_wrapper_settings.html#a5b6a943cccc85daffddbc61bb1b9345d" target="_top" xlink:title=" ">
<polygon fill="white" stroke="black" points="0,-134.5 0,-164.5 227,-164.5 227,-134.5 0,-134.5"/>
<text text-anchor="start" x="8" y="-152.5" font-family="Helvetica,sans-Serif" font-size="10.00">rare.components.tabs.settings.widgets.wrappers.</text>
<text text-anchor="middle" x="113.5" y="-141.5" font-family="Helvetica,sans-Serif" font-size="10.00">WrapperSettings.showEvent</text>
</a>
</g>
</g>
<!-- Node9&#45;&gt;Node12 -->
<g id="edge20" class="edge">
<title>Node9&#45;&gt;Node12</title>
<path fill="none" stroke="midnightblue" d="M263.02,-159.68C251.2,-158.87 239.07,-158.04 227.09,-157.22"/>
<polygon fill="midnightblue" stroke="midnightblue" points="263.1,-163.19 273.32,-160.39 263.58,-156.21 263.1,-163.19"/>
</g>
<!-- Node13 -->
<g id="node13" class="node">
<title>Node13</title>
<g id="a_node13"><a xlink:href="classrare_1_1components_1_1tabs_1_1integrations_1_1eos__group_1_1_eos_group.html#a7e310a3d6ecf3373329f265fa68eee2e" target="_top" xlink:title=" ">
<polygon fill="white" stroke="black" points="23.5,-67.5 23.5,-97.5 203.5,-97.5 203.5,-67.5 23.5,-67.5"/>
<text text-anchor="start" x="31.5" y="-85.5" font-family="Helvetica,sans-Serif" font-size="10.00">rare.components.tabs.integrations.eos</text>
<text text-anchor="middle" x="113.5" y="-74.5" font-family="Helvetica,sans-Serif" font-size="10.00">_group.EosGroup.showEvent</text>
</a>
</g>
</g>
<!-- Node9&#45;&gt;Node13 -->
<g id="edge22" class="edge">
<title>Node9&#45;&gt;Node13</title>
<path fill="none" stroke="midnightblue" d="M308.61,-148.25C263.8,-133.07 200.81,-111.73 158.87,-97.53"/>
<polygon fill="midnightblue" stroke="midnightblue" points="307.57,-151.59 318.16,-151.48 309.81,-144.96 307.57,-151.59"/>
</g>
<!-- Node14 -->
<g id="node14" class="node">
<title>Node14</title>
<g id="a_node14"><a xlink:href="classrare_1_1components_1_1tabs_1_1integrations_1_1eos__group_1_1_eos_group.html#a940f04ae50563122887c6d4b551d314f" target="_top" xlink:title=" ">
<polygon fill="white" stroke="black" points="23.5,-0.5 23.5,-30.5 203.5,-30.5 203.5,-0.5 23.5,-0.5"/>
<text text-anchor="start" x="31.5" y="-18.5" font-family="Helvetica,sans-Serif" font-size="10.00">rare.components.tabs.integrations.eos</text>
<text text-anchor="middle" x="113.5" y="-7.5" font-family="Helvetica,sans-Serif" font-size="10.00">_group.EosGroup.uninstall_finished</text>
</a>
</g>
</g>
<!-- Node9&#45;&gt;Node14 -->
<g id="edge24" class="edge">
<title>Node9&#45;&gt;Node14</title>
<path fill="none" stroke="midnightblue" d="M339.69,-144.29C314.04,-120.27 270.28,-82.13 227,-57.5 207.7,-46.52 184.99,-37.4 165.05,-30.51"/>
<polygon fill="midnightblue" stroke="midnightblue" points="337.38,-146.92 347.05,-151.25 342.2,-141.84 337.38,-146.92"/>
</g>
<!-- Node10&#45;&gt;Node10 -->
<g id="edge17" class="edge">
<title>Node10&#45;&gt;Node10</title>
<path fill="none" stroke="midnightblue" d="M158.33,-308.59C153.16,-313.51 138.22,-317 113.5,-317 73.95,-317 59.43,-308.06 69.93,-298.66"/>
<polygon fill="midnightblue" stroke="midnightblue" points="161.8,-308.14 157.07,-298.66 154.85,-309.02 161.8,-308.14"/>
</g>
<!-- Node11&#45;&gt;Node11 -->
<g id="edge19" class="edge">
<title>Node11&#45;&gt;Node11</title>
<path fill="none" stroke="midnightblue" d="M158.33,-241.59C153.16,-246.51 138.22,-250 113.5,-250 73.95,-250 59.43,-241.06 69.93,-231.66"/>
<polygon fill="midnightblue" stroke="midnightblue" points="161.8,-241.14 157.07,-231.66 154.85,-242.02 161.8,-241.14"/>
</g>
<!-- Node12&#45;&gt;Node12 -->
<g id="edge21" class="edge">
<title>Node12&#45;&gt;Node12</title>
<path fill="none" stroke="midnightblue" d="M158.33,-174.59C153.16,-179.51 138.22,-183 113.5,-183 73.95,-183 59.43,-174.06 69.93,-164.66"/>
<polygon fill="midnightblue" stroke="midnightblue" points="161.8,-174.14 157.07,-164.66 154.85,-175.02 161.8,-174.14"/>
</g>
<!-- Node13&#45;&gt;Node13 -->
<g id="edge23" class="edge">
<title>Node13&#45;&gt;Node13</title>
<path fill="none" stroke="midnightblue" d="M158.33,-107.59C153.16,-112.51 138.22,-116 113.5,-116 73.95,-116 59.43,-107.06 69.93,-97.66"/>
<polygon fill="midnightblue" stroke="midnightblue" points="161.8,-107.14 157.07,-97.66 154.85,-108.02 161.8,-107.14"/>
</g>
<!-- Node14&#45;&gt;Node14 -->
<g id="edge25" class="edge">
<title>Node14&#45;&gt;Node14</title>
<path fill="none" stroke="midnightblue" d="M158.33,-40.59C153.16,-45.51 138.22,-49 113.5,-49 73.95,-49 59.43,-40.06 69.93,-30.66"/>
<polygon fill="midnightblue" stroke="midnightblue" points="161.8,-40.14 157.07,-30.66 154.85,-41.02 161.8,-40.14"/>
</g>
</g>
</svg>
