<?xml version="1.0" encoding="UTF-8" standalone="no"?>
<!DOCTYPE svg PUBLIC "-//W3C//DTD SVG 1.1//EN"
 "http://www.w3.org/Graphics/SVG/1.1/DTD/svg11.dtd">
<!-- Generated by graphviz version 2.49.3 (20211027.1534)
 -->
<!-- Title: verify_game Pages: 1 -->
<svg width="239pt" height="57pt"
 viewBox="0.00 0.00 239.00 57.00" xmlns="http://www.w3.org/2000/svg" xmlns:xlink="http://www.w3.org/1999/xlink">
<g id="graph0" class="graph" transform="scale(1 1) rotate(0) translate(4 53)">
<title>verify_game</title>
<polygon fill="white" stroke="transparent" points="-4,4 -4,-53 235,-53 235,4 -4,4"/>
<!-- Node1 -->
<g id="node1" class="node">
<title>Node1</title>
<g id="a_node1"><a xlink:title=" ">
<polygon fill="#bfbfbf" stroke="black" points="162,-6 162,-25 231,-25 231,-6 162,-6"/>
<text text-anchor="middle" x="196.5" y="-13" font-family="Helvetica,sans-Serif" font-size="10.00">verify_game</text>
</a>
</g>
</g>
<!-- Node2 -->
<g id="node2" class="node">
<title>Node2</title>
<g id="a_node2"><a xlink:href="classlegendary_1_1core_1_1_legendary_core.html#a305f6de8f6046ca1e04347e08f0bf62d" target="_top" xlink:title=" ">
<polygon fill="white" stroke="black" points="0,-0.5 0,-30.5 126,-30.5 126,-0.5 0,-0.5"/>
<text text-anchor="start" x="8" y="-18.5" font-family="Helvetica,sans-Serif" font-size="10.00">legendary.core.Legendary</text>
<text text-anchor="middle" x="63" y="-7.5" font-family="Helvetica,sans-Serif" font-size="10.00">Core.prepare_download</text>
</a>
</g>
</g>
<!-- Node1&#45;&gt;Node2 -->
<g id="edge1" class="edge">
<title>Node1&#45;&gt;Node2</title>
<path fill="none" stroke="midnightblue" d="M151.84,-15.5C143.59,-15.5 134.8,-15.5 126.1,-15.5"/>
<polygon fill="midnightblue" stroke="midnightblue" points="151.98,-19 161.98,-15.5 151.98,-12 151.98,-19"/>
</g>
<!-- Node2&#45;&gt;Node2 -->
<g id="edge2" class="edge">
<title>Node2&#45;&gt;Node2</title>
<path fill="none" stroke="midnightblue" d="M86.45,-40.96C83.54,-45.68 75.73,-49 63,-49 42.12,-49 34.45,-40.06 40,-30.66"/>
<polygon fill="midnightblue" stroke="midnightblue" points="89.94,-40.5 86,-30.66 82.94,-40.8 89.94,-40.5"/>
</g>
</g>
</svg>
