<?xml version="1.0" encoding="UTF-8" standalone="no"?>
<!DOCTYPE svg PUBLIC "-//W3C//DTD SVG 1.1//EN"
 "http://www.w3.org/Graphics/SVG/1.1/DTD/svg11.dtd">
<!-- Generated by graphviz version 2.49.3 (20211027.1534)
 -->
<!-- Title: egl_uninstall Pages: 1 -->
<svg width="451pt" height="191pt"
 viewBox="0.00 0.00 451.00 191.00" xmlns="http://www.w3.org/2000/svg" xmlns:xlink="http://www.w3.org/1999/xlink">
<g id="graph0" class="graph" transform="scale(1 1) rotate(0) translate(4 187)">
<title>egl_uninstall</title>
<polygon fill="white" stroke="transparent" points="-4,4 -4,-187 447,-187 447,4 -4,4"/>
<!-- Node1 -->
<g id="node1" class="node">
<title>Node1</title>
<g id="a_node1"><a xlink:title=" ">
<polygon fill="#bfbfbf" stroke="black" points="0,-73 0,-92 71,-92 71,-73 0,-73"/>
<text text-anchor="middle" x="35.5" y="-80" font-family="Helvetica,sans-Serif" font-size="10.00">egl_uninstall</text>
</a>
</g>
</g>
<!-- Node1&#45;&gt;Node1 -->
<g id="edge3" class="edge">
<title>Node1&#45;&gt;Node1</title>
<path fill="none" stroke="midnightblue" d="M13,-92.26C2.05,-101.07 9.55,-110.5 35.5,-110.5 52.53,-110.5 61.61,-106.44 62.75,-101.15"/>
<polygon fill="midnightblue" stroke="midnightblue" points="65.8,-99.43 58,-92.26 59.62,-102.73 65.8,-99.43"/>
</g>
<!-- Node2 -->
<g id="node2" class="node">
<title>Node2</title>
<g id="a_node2"><a xlink:href="namespacelegendary_1_1utils_1_1lfs.html#a38e08f798409e7535568c4b7254bef93" target="_top" xlink:title=" ">
<polygon fill="white" stroke="black" points="122.5,-134.5 122.5,-164.5 241.5,-164.5 241.5,-134.5 122.5,-134.5"/>
<text text-anchor="start" x="130.5" y="-152.5" font-family="Helvetica,sans-Serif" font-size="10.00">legendary.utils.lfs.delete</text>
<text text-anchor="middle" x="182" y="-141.5" font-family="Helvetica,sans-Serif" font-size="10.00">_folder</text>
</a>
</g>
</g>
<!-- Node1&#45;&gt;Node2 -->
<g id="edge1" class="edge">
<title>Node1&#45;&gt;Node2</title>
<path fill="none" stroke="midnightblue" d="M50.01,-92.07C63.83,-101.52 86.16,-115.92 107,-125.5 111.04,-127.36 115.27,-129.14 119.57,-130.82"/>
<polygon fill="midnightblue" stroke="midnightblue" points="118.46,-134.14 129.05,-134.37 120.91,-127.59 118.46,-134.14"/>
</g>
<!-- Node3 -->
<g id="node3" class="node">
<title>Node3</title>
<g id="a_node3"><a xlink:href="classrare_1_1components_1_1extra_1_1console_1_1_console.html#a4db0e98c238d6a69bdbf4b8cc59be732" target="_top" xlink:title=" ">
<polygon fill="white" stroke="black" points="107,-67.5 107,-97.5 257,-97.5 257,-67.5 107,-67.5"/>
<text text-anchor="start" x="115" y="-85.5" font-family="Helvetica,sans-Serif" font-size="10.00">rare.components.extra.console.</text>
<text text-anchor="middle" x="182" y="-74.5" font-family="Helvetica,sans-Serif" font-size="10.00">Console.log</text>
</a>
</g>
</g>
<!-- Node1&#45;&gt;Node3 -->
<g id="edge4" class="edge">
<title>Node1&#45;&gt;Node3</title>
<path fill="none" stroke="midnightblue" d="M71.11,-82.5C79,-82.5 87.71,-82.5 96.69,-82.5"/>
<polygon fill="midnightblue" stroke="midnightblue" points="96.89,-86 106.89,-82.5 96.89,-79 96.89,-86"/>
</g>
<!-- Node4 -->
<g id="node4" class="node">
<title>Node4</title>
<g id="a_node4"><a xlink:href="classrare_1_1components_1_1extra_1_1console_1_1_console_edit.html#ac05aadedf6e1be5c365c818989f98d50" target="_top" xlink:title=" ">
<polygon fill="white" stroke="black" points="107,-0.5 107,-30.5 257,-30.5 257,-0.5 107,-0.5"/>
<text text-anchor="start" x="115" y="-18.5" font-family="Helvetica,sans-Serif" font-size="10.00">rare.components.extra.console.</text>
<text text-anchor="middle" x="182" y="-7.5" font-family="Helvetica,sans-Serif" font-size="10.00">ConsoleEdit.log</text>
</a>
</g>
</g>
<!-- Node1&#45;&gt;Node4 -->
<g id="edge6" class="edge">
<title>Node1&#45;&gt;Node4</title>
<path fill="none" stroke="midnightblue" d="M57.2,-72.9C78.56,-63 112.47,-47.28 139.4,-34.79"/>
<polygon fill="midnightblue" stroke="midnightblue" points="141,-37.9 148.6,-30.52 138.06,-31.55 141,-37.9"/>
</g>
<!-- Node2&#45;&gt;Node2 -->
<g id="edge2" class="edge">
<title>Node2&#45;&gt;Node2</title>
<path fill="none" stroke="midnightblue" d="M156.56,-164.66C150.42,-174.06 158.9,-183 182,-183 196.08,-183 204.72,-179.68 207.94,-174.96"/>
<polygon fill="midnightblue" stroke="midnightblue" points="211.42,-174.48 207.44,-164.66 204.43,-174.82 211.42,-174.48"/>
</g>
<!-- Node3&#45;&gt;Node3 -->
<g id="edge5" class="edge">
<title>Node3&#45;&gt;Node3</title>
<path fill="none" stroke="midnightblue" d="M156.56,-97.66C150.42,-107.06 158.9,-116 182,-116 196.08,-116 204.72,-112.68 207.94,-107.96"/>
<polygon fill="midnightblue" stroke="midnightblue" points="211.42,-107.48 207.44,-97.66 204.43,-107.82 211.42,-107.48"/>
</g>
<!-- Node4&#45;&gt;Node4 -->
<g id="edge7" class="edge">
<title>Node4&#45;&gt;Node4</title>
<path fill="none" stroke="midnightblue" d="M156.56,-30.66C150.42,-40.06 158.9,-49 182,-49 196.08,-49 204.72,-45.68 207.94,-40.96"/>
<polygon fill="midnightblue" stroke="midnightblue" points="211.42,-40.48 207.44,-30.66 204.43,-40.82 211.42,-40.48"/>
</g>
<!-- Node5 -->
<g id="node5" class="node">
<title>Node5</title>
<g id="a_node5"><a xlink:href="classrare_1_1components_1_1extra_1_1console_1_1_console_edit.html#ad89ca21019805240d01e41fe61cdbb56" target="_top" xlink:title=" ">
<polygon fill="white" stroke="black" points="293,-0.5 293,-30.5 443,-30.5 443,-0.5 293,-0.5"/>
<text text-anchor="start" x="301" y="-18.5" font-family="Helvetica,sans-Serif" font-size="10.00">rare.components.extra.console.</text>
<text text-anchor="middle" x="368" y="-7.5" font-family="Helvetica,sans-Serif" font-size="10.00">ConsoleEdit.scroll_to_last_line</text>
</a>
</g>
</g>
<!-- Node4&#45;&gt;Node5 -->
<g id="edge8" class="edge">
<title>Node4&#45;&gt;Node5</title>
<path fill="none" stroke="midnightblue" d="M257.04,-15.5C265.51,-15.5 274.19,-15.5 282.78,-15.5"/>
<polygon fill="midnightblue" stroke="midnightblue" points="282.81,-19 292.81,-15.5 282.81,-12 282.81,-19"/>
</g>
<!-- Node5&#45;&gt;Node5 -->
<g id="edge9" class="edge">
<title>Node5&#45;&gt;Node5</title>
<path fill="none" stroke="midnightblue" d="M335.93,-30.66C328.2,-40.06 338.89,-49 368,-49 385.74,-49 396.64,-45.68 400.69,-40.96"/>
<polygon fill="midnightblue" stroke="midnightblue" points="404.17,-40.43 400.07,-30.66 397.18,-40.85 404.17,-40.43"/>
</g>
</g>
</svg>
