<?xml version="1.0" encoding="UTF-8" standalone="no"?>
<!DOCTYPE svg PUBLIC "-//W3C//DTD SVG 1.1//EN"
 "http://www.w3.org/Graphics/SVG/1.1/DTD/svg11.dtd">
<!-- Generated by graphviz version 2.49.3 (20211027.1534)
 -->
<!-- Title: ButtonDialog Pages: 1 -->
<svg width="861pt" height="981pt"
 viewBox="0.00 0.00 860.50 981.00" xmlns="http://www.w3.org/2000/svg" xmlns:xlink="http://www.w3.org/1999/xlink">
<g id="graph0" class="graph" transform="scale(1 1) rotate(0) translate(4 977)">
<title>ButtonDialog</title>
<polygon fill="white" stroke="transparent" points="-4,4 -4,-977 856.5,-977 856.5,4 -4,4"/>
<!-- Node1 -->
<g id="node1" class="node">
<title>Node1</title>
<g id="a_node1"><a xlink:title=" ">
<polygon fill="#bfbfbf" stroke="black" points="293,-496.5 293,-729.5 398,-729.5 398,-496.5 293,-496.5"/>
<text text-anchor="middle" x="345.5" y="-717.5" font-family="Helvetica,sans-Serif" font-size="10.00">ButtonDialog</text>
<polyline fill="none" stroke="black" points="293,-710.5 398,-710.5 "/>
<text text-anchor="start" x="301" y="-698.5" font-family="Helvetica,sans-Serif" font-size="10.00">+ subtitle_label</text>
<text text-anchor="start" x="301" y="-687.5" font-family="Helvetica,sans-Serif" font-size="10.00">+ reject_button</text>
<text text-anchor="start" x="301" y="-676.5" font-family="Helvetica,sans-Serif" font-size="10.00">+ accept_button</text>
<text text-anchor="start" x="301" y="-665.5" font-family="Helvetica,sans-Serif" font-size="10.00">+ button_layout</text>
<text text-anchor="start" x="301" y="-654.5" font-family="Helvetica,sans-Serif" font-size="10.00">+ main_layout</text>
<polyline fill="none" stroke="black" points="293,-647.5 398,-647.5 "/>
<text text-anchor="start" x="301" y="-635.5" font-family="Helvetica,sans-Serif" font-size="10.00">+ __init__()</text>
<text text-anchor="start" x="301" y="-624.5" font-family="Helvetica,sans-Serif" font-size="10.00">+ close()</text>
<text text-anchor="start" x="301" y="-613.5" font-family="Helvetica,sans-Serif" font-size="10.00">+ setSubtitle()</text>
<text text-anchor="start" x="301" y="-602.5" font-family="Helvetica,sans-Serif" font-size="10.00">+ setCentralWidget()</text>
<text text-anchor="start" x="301" y="-591.5" font-family="Helvetica,sans-Serif" font-size="10.00">+ setCentralLayout()</text>
<text text-anchor="start" x="301" y="-580.5" font-family="Helvetica,sans-Serif" font-size="10.00">+ accept_handler()</text>
<text text-anchor="start" x="301" y="-569.5" font-family="Helvetica,sans-Serif" font-size="10.00">+ reject_handler()</text>
<text text-anchor="start" x="301" y="-558.5" font-family="Helvetica,sans-Serif" font-size="10.00">+ done_handler()</text>
<text text-anchor="start" x="301" y="-547.5" font-family="Helvetica,sans-Serif" font-size="10.00">+ accept()</text>
<text text-anchor="start" x="301" y="-536.5" font-family="Helvetica,sans-Serif" font-size="10.00">+ reject()</text>
<text text-anchor="start" x="301" y="-525.5" font-family="Helvetica,sans-Serif" font-size="10.00">+ done()</text>
<text text-anchor="start" x="301" y="-514.5" font-family="Helvetica,sans-Serif" font-size="10.00">+ keyPressEvent()</text>
<text text-anchor="start" x="301" y="-503.5" font-family="Helvetica,sans-Serif" font-size="10.00">+ closeEvent()</text>
</a>
</g>
</g>
<!-- Node4 -->
<g id="node4" class="node">
<title>Node4</title>
<g id="a_node4"><a xlink:href="classrare_1_1commands_1_1launcher_1_1cloud__sync__dialog_1_1_cloud_sync_dialog.html" target="_top" xlink:title=" ">
<polygon fill="white" stroke="black" points="0,-336.5 0,-448.5 97,-448.5 97,-336.5 0,-336.5"/>
<text text-anchor="middle" x="48.5" y="-436.5" font-family="Helvetica,sans-Serif" font-size="10.00">CloudSyncDialog</text>
<polyline fill="none" stroke="black" points="0,-429.5 97,-429.5 "/>
<text text-anchor="start" x="8" y="-417.5" font-family="Helvetica,sans-Serif" font-size="10.00">+ sync_ui</text>
<text text-anchor="start" x="8" y="-406.5" font-family="Helvetica,sans-Serif" font-size="10.00">+ status</text>
<text text-anchor="start" x="8" y="-395.5" font-family="Helvetica,sans-Serif" font-size="10.00">+ Signal</text>
<polyline fill="none" stroke="black" points="0,-388.5 97,-388.5 "/>
<text text-anchor="start" x="8" y="-376.5" font-family="Helvetica,sans-Serif" font-size="10.00">+ __init__()</text>
<text text-anchor="start" x="8" y="-365.5" font-family="Helvetica,sans-Serif" font-size="10.00">+ done_handler()</text>
<text text-anchor="start" x="8" y="-354.5" font-family="Helvetica,sans-Serif" font-size="10.00">+ accept_handler()</text>
<text text-anchor="start" x="8" y="-343.5" font-family="Helvetica,sans-Serif" font-size="10.00">+ reject_handler()</text>
</a>
</g>
</g>
<!-- Node1&#45;&gt;Node4 -->
<g id="edge3" class="edge">
<title>Node1&#45;&gt;Node4</title>
<path fill="none" stroke="midnightblue" d="M283.94,-579.77C233.3,-551.72 161.09,-508.11 105.5,-460 101.48,-456.52 97.49,-452.74 93.6,-448.82"/>
<polygon fill="none" stroke="midnightblue" points="282.37,-582.9 292.82,-584.65 285.74,-576.76 282.37,-582.9"/>
</g>
<!-- Node5 -->
<g id="node5" class="node">
<title>Node5</title>
<g id="a_node5"><a xlink:href="classrare_1_1components_1_1dialogs_1_1selective__dialog_1_1_selective_dialog.html" target="_top" xlink:title=" ">
<polygon fill="white" stroke="black" points="114.5,-336.5 114.5,-448.5 212.5,-448.5 212.5,-336.5 114.5,-336.5"/>
<text text-anchor="middle" x="163.5" y="-436.5" font-family="Helvetica,sans-Serif" font-size="10.00">SelectiveDialog</text>
<polyline fill="none" stroke="black" points="114.5,-429.5 212.5,-429.5 "/>
<text text-anchor="start" x="122.5" y="-417.5" font-family="Helvetica,sans-Serif" font-size="10.00">+ rgame</text>
<text text-anchor="start" x="122.5" y="-406.5" font-family="Helvetica,sans-Serif" font-size="10.00">+ selective_widget</text>
<text text-anchor="start" x="122.5" y="-395.5" font-family="Helvetica,sans-Serif" font-size="10.00">+ result_ready</text>
<polyline fill="none" stroke="black" points="114.5,-388.5 212.5,-388.5 "/>
<text text-anchor="start" x="122.5" y="-376.5" font-family="Helvetica,sans-Serif" font-size="10.00">+ __init__()</text>
<text text-anchor="start" x="122.5" y="-365.5" font-family="Helvetica,sans-Serif" font-size="10.00">+ done_handler()</text>
<text text-anchor="start" x="122.5" y="-354.5" font-family="Helvetica,sans-Serif" font-size="10.00">+ accept_handler()</text>
<text text-anchor="start" x="122.5" y="-343.5" font-family="Helvetica,sans-Serif" font-size="10.00">+ reject_handler()</text>
</a>
</g>
</g>
<!-- Node1&#45;&gt;Node5 -->
<g id="edge4" class="edge">
<title>Node1&#45;&gt;Node5</title>
<path fill="none" stroke="midnightblue" d="M286.27,-540.9C261.36,-510.99 232.82,-476.73 209.53,-448.76"/>
<polygon fill="none" stroke="midnightblue" points="283.77,-543.36 292.86,-548.8 289.15,-538.88 283.77,-543.36"/>
</g>
<!-- Node6 -->
<g id="node6" class="node">
<title>Node6</title>
<g id="a_node6"><a xlink:href="classrare_1_1components_1_1dialogs_1_1uninstall__dialog_1_1_uninstall_dialog.html" target="_top" xlink:title=" ">
<polygon fill="white" stroke="black" points="230,-325.5 230,-459.5 337,-459.5 337,-325.5 230,-325.5"/>
<text text-anchor="middle" x="283.5" y="-447.5" font-family="Helvetica,sans-Serif" font-size="10.00">UninstallDialog</text>
<polyline fill="none" stroke="black" points="230,-440.5 337,-440.5 "/>
<text text-anchor="start" x="238" y="-428.5" font-family="Helvetica,sans-Serif" font-size="10.00">+ keep_files</text>
<text text-anchor="start" x="238" y="-417.5" font-family="Helvetica,sans-Serif" font-size="10.00">+ keep_folder</text>
<text text-anchor="start" x="238" y="-406.5" font-family="Helvetica,sans-Serif" font-size="10.00">+ keep_config</text>
<text text-anchor="start" x="238" y="-395.5" font-family="Helvetica,sans-Serif" font-size="10.00">+ keep_overlay_keys</text>
<text text-anchor="start" x="238" y="-384.5" font-family="Helvetica,sans-Serif" font-size="10.00">+ result_ready</text>
<polyline fill="none" stroke="black" points="230,-377.5 337,-377.5 "/>
<text text-anchor="start" x="238" y="-365.5" font-family="Helvetica,sans-Serif" font-size="10.00">+ __init__()</text>
<text text-anchor="start" x="238" y="-354.5" font-family="Helvetica,sans-Serif" font-size="10.00">+ done_handler()</text>
<text text-anchor="start" x="238" y="-343.5" font-family="Helvetica,sans-Serif" font-size="10.00">+ accept_handler()</text>
<text text-anchor="start" x="238" y="-332.5" font-family="Helvetica,sans-Serif" font-size="10.00">+ reject_handler()</text>
</a>
</g>
</g>
<!-- Node1&#45;&gt;Node6 -->
<g id="edge5" class="edge">
<title>Node1&#45;&gt;Node6</title>
<path fill="none" stroke="midnightblue" d="M309.93,-486.65C307.3,-477.38 304.72,-468.27 302.25,-459.59"/>
<polygon fill="none" stroke="midnightblue" points="306.59,-487.69 312.68,-496.35 313.32,-485.78 306.59,-487.69"/>
</g>
<!-- Node7 -->
<g id="node7" class="node">
<title>Node7</title>
<g id="a_node7"><a xlink:href="classrare_1_1components_1_1tabs_1_1library_1_1details_1_1details_1_1_game_tag_add_dialog.html" target="_top" xlink:title=" ">
<polygon fill="white" stroke="black" points="355.5,-325.5 355.5,-459.5 459.5,-459.5 459.5,-325.5 355.5,-325.5"/>
<text text-anchor="middle" x="407.5" y="-447.5" font-family="Helvetica,sans-Serif" font-size="10.00">GameTagAddDialog</text>
<polyline fill="none" stroke="black" points="355.5,-440.5 459.5,-440.5 "/>
<text text-anchor="start" x="363.5" y="-428.5" font-family="Helvetica,sans-Serif" font-size="10.00">+ line_edit</text>
<text text-anchor="start" x="363.5" y="-417.5" font-family="Helvetica,sans-Serif" font-size="10.00">+ widget_layout</text>
<text text-anchor="start" x="363.5" y="-406.5" font-family="Helvetica,sans-Serif" font-size="10.00">+ tags</text>
<text text-anchor="start" x="363.5" y="-395.5" font-family="Helvetica,sans-Serif" font-size="10.00">+ result</text>
<text text-anchor="start" x="363.5" y="-384.5" font-family="Helvetica,sans-Serif" font-size="10.00">+ result_ready</text>
<polyline fill="none" stroke="black" points="355.5,-377.5 459.5,-377.5 "/>
<text text-anchor="start" x="363.5" y="-365.5" font-family="Helvetica,sans-Serif" font-size="10.00">+ __init__()</text>
<text text-anchor="start" x="363.5" y="-354.5" font-family="Helvetica,sans-Serif" font-size="10.00">+ done_handler()</text>
<text text-anchor="start" x="363.5" y="-343.5" font-family="Helvetica,sans-Serif" font-size="10.00">+ accept_handler()</text>
<text text-anchor="start" x="363.5" y="-332.5" font-family="Helvetica,sans-Serif" font-size="10.00">+ reject_handler()</text>
</a>
</g>
</g>
<!-- Node1&#45;&gt;Node7 -->
<g id="edge6" class="edge">
<title>Node1&#45;&gt;Node7</title>
<path fill="none" stroke="midnightblue" d="M381.07,-486.65C383.7,-477.38 386.28,-468.27 388.75,-459.59"/>
<polygon fill="none" stroke="midnightblue" points="377.68,-485.78 378.32,-496.35 384.41,-487.69 377.68,-485.78"/>
</g>
<!-- Node8 -->
<g id="node8" class="node">
<title>Node8</title>
<g id="a_node8"><a xlink:href="classrare_1_1components_1_1tabs_1_1settings_1_1widgets_1_1wrappers_1_1_wrapper_edit_dialog.html" target="_top" xlink:title=" ">
<polygon fill="white" stroke="black" points="478,-325.5 478,-459.5 575,-459.5 575,-325.5 478,-325.5"/>
<text text-anchor="middle" x="526.5" y="-447.5" font-family="Helvetica,sans-Serif" font-size="10.00">WrapperEditDialog</text>
<polyline fill="none" stroke="black" points="478,-440.5 575,-440.5 "/>
<text text-anchor="start" x="486" y="-428.5" font-family="Helvetica,sans-Serif" font-size="10.00">+ line_edit</text>
<text text-anchor="start" x="486" y="-417.5" font-family="Helvetica,sans-Serif" font-size="10.00">+ widget_layout</text>
<text text-anchor="start" x="486" y="-406.5" font-family="Helvetica,sans-Serif" font-size="10.00">+ result</text>
<text text-anchor="start" x="486" y="-395.5" font-family="Helvetica,sans-Serif" font-size="10.00">+ result_ready</text>
<polyline fill="none" stroke="black" points="478,-388.5 575,-388.5 "/>
<text text-anchor="start" x="486" y="-376.5" font-family="Helvetica,sans-Serif" font-size="10.00">+ __init__()</text>
<text text-anchor="start" x="486" y="-365.5" font-family="Helvetica,sans-Serif" font-size="10.00">+ setup()</text>
<text text-anchor="start" x="486" y="-354.5" font-family="Helvetica,sans-Serif" font-size="10.00">+ done_handler()</text>
<text text-anchor="start" x="486" y="-343.5" font-family="Helvetica,sans-Serif" font-size="10.00">+ accept_handler()</text>
<text text-anchor="start" x="486" y="-332.5" font-family="Helvetica,sans-Serif" font-size="10.00">+ reject_handler()</text>
</a>
</g>
</g>
<!-- Node1&#45;&gt;Node8 -->
<g id="edge7" class="edge">
<title>Node1&#45;&gt;Node8</title>
<path fill="none" stroke="midnightblue" d="M404.68,-540.56C428.35,-511.98 455.29,-479.46 477.8,-452.29"/>
<polygon fill="none" stroke="midnightblue" points="401.78,-538.57 398.1,-548.51 407.17,-543.04 401.78,-538.57"/>
</g>
<!-- Node10 -->
<g id="node10" class="node">
<title>Node10</title>
<g id="a_node10"><a xlink:href="classrare_1_1widgets_1_1dialogs_1_1_action_dialog.html" target="_top" xlink:title=" ">
<polygon fill="white" stroke="black" points="604.5,-331 604.5,-454 700.5,-454 700.5,-331 604.5,-331"/>
<text text-anchor="middle" x="652.5" y="-442" font-family="Helvetica,sans-Serif" font-size="10.00">ActionDialog</text>
<polyline fill="none" stroke="black" points="604.5,-435 700.5,-435 "/>
<text text-anchor="start" x="612.5" y="-423" font-family="Helvetica,sans-Serif" font-size="10.00">+ action_button</text>
<polyline fill="none" stroke="black" points="604.5,-416 700.5,-416 "/>
<text text-anchor="start" x="612.5" y="-404" font-family="Helvetica,sans-Serif" font-size="10.00">+ __init__()</text>
<text text-anchor="start" x="612.5" y="-393" font-family="Helvetica,sans-Serif" font-size="10.00">+ active()</text>
<text text-anchor="start" x="612.5" y="-382" font-family="Helvetica,sans-Serif" font-size="10.00">+ setActive()</text>
<text text-anchor="start" x="612.5" y="-371" font-family="Helvetica,sans-Serif" font-size="10.00">+ action_handler()</text>
<text text-anchor="start" x="612.5" y="-360" font-family="Helvetica,sans-Serif" font-size="10.00">+ action()</text>
<text text-anchor="start" x="612.5" y="-349" font-family="Helvetica,sans-Serif" font-size="10.00">+ keyPressEvent()</text>
<text text-anchor="start" x="612.5" y="-338" font-family="Helvetica,sans-Serif" font-size="10.00">+ closeEvent()</text>
</a>
</g>
</g>
<!-- Node1&#45;&gt;Node10 -->
<g id="edge9" class="edge">
<title>Node1&#45;&gt;Node10</title>
<path fill="none" stroke="midnightblue" d="M406.78,-577.44C456.22,-548.49 526.66,-504.81 583.5,-460 590.42,-454.54 597.44,-448.49 604.21,-442.33"/>
<polygon fill="none" stroke="midnightblue" points="404.99,-574.43 398.11,-582.49 408.51,-580.48 404.99,-574.43"/>
</g>
<!-- Node2 -->
<g id="node2" class="node">
<title>Node2</title>
<g id="a_node2"><a xlink:href="classrare_1_1widgets_1_1dialogs_1_1_base_dialog.html" target="_top" xlink:title=" ">
<polygon fill="white" stroke="black" points="296.5,-766.5 296.5,-878.5 394.5,-878.5 394.5,-766.5 296.5,-766.5"/>
<text text-anchor="middle" x="345.5" y="-866.5" font-family="Helvetica,sans-Serif" font-size="10.00">BaseDialog</text>
<polyline fill="none" stroke="black" points="296.5,-859.5 394.5,-859.5 "/>
<text text-anchor="middle" x="345.5" y="-847.5" font-family="Helvetica,sans-Serif" font-size="10.00"> </text>
<polyline fill="none" stroke="black" points="296.5,-840.5 394.5,-840.5 "/>
<text text-anchor="start" x="304.5" y="-828.5" font-family="Helvetica,sans-Serif" font-size="10.00">+ __init__()</text>
<text text-anchor="start" x="304.5" y="-817.5" font-family="Helvetica,sans-Serif" font-size="10.00">+ setWindowTitle()</text>
<text text-anchor="start" x="304.5" y="-806.5" font-family="Helvetica,sans-Serif" font-size="10.00">+ exec()</text>
<text text-anchor="start" x="304.5" y="-795.5" font-family="Helvetica,sans-Serif" font-size="10.00">+ exec_()</text>
<text text-anchor="start" x="304.5" y="-784.5" font-family="Helvetica,sans-Serif" font-size="10.00">+ keyPressEvent()</text>
<text text-anchor="start" x="304.5" y="-773.5" font-family="Helvetica,sans-Serif" font-size="10.00">+ closeEvent()</text>
</a>
</g>
</g>
<!-- Node2&#45;&gt;Node1 -->
<g id="edge1" class="edge">
<title>Node2&#45;&gt;Node1</title>
<path fill="none" stroke="midnightblue" d="M345.5,-756.2C345.5,-747.63 345.5,-738.65 345.5,-729.54"/>
<polygon fill="none" stroke="midnightblue" points="342,-756.44 345.5,-766.44 349,-756.44 342,-756.44"/>
</g>
<!-- Node3 -->
<g id="node3" class="node">
<title>Node3</title>
<g id="a_node3"><a xlink:title=" ">
<polygon fill="white" stroke="#bfbfbf" points="320,-915.5 320,-972.5 371,-972.5 371,-915.5 320,-915.5"/>
<text text-anchor="middle" x="345.5" y="-960.5" font-family="Helvetica,sans-Serif" font-size="10.00">QDialog</text>
<polyline fill="none" stroke="#bfbfbf" points="320,-953.5 371,-953.5 "/>
<text text-anchor="middle" x="345.5" y="-941.5" font-family="Helvetica,sans-Serif" font-size="10.00"> </text>
<polyline fill="none" stroke="#bfbfbf" points="320,-934.5 371,-934.5 "/>
<text text-anchor="middle" x="345.5" y="-922.5" font-family="Helvetica,sans-Serif" font-size="10.00"> </text>
</a>
</g>
</g>
<!-- Node3&#45;&gt;Node2 -->
<g id="edge2" class="edge">
<title>Node3&#45;&gt;Node2</title>
<path fill="none" stroke="midnightblue" d="M345.5,-905.11C345.5,-896.75 345.5,-887.73 345.5,-878.83"/>
<polygon fill="none" stroke="midnightblue" points="342,-905.28 345.5,-915.28 349,-905.28 342,-905.28"/>
</g>
<!-- Node9 -->
<g id="node9" class="node">
<title>Node9</title>
<g id="a_node9"><a xlink:href="classrare_1_1components_1_1tabs_1_1settings_1_1widgets_1_1wrappers_1_1_wrapper_add_dialog.html" target="_top" xlink:title=" ">
<polygon fill="white" stroke="black" points="467,-110.5 467,-178.5 564,-178.5 564,-110.5 467,-110.5"/>
<text text-anchor="middle" x="515.5" y="-166.5" font-family="Helvetica,sans-Serif" font-size="10.00">WrapperAddDialog</text>
<polyline fill="none" stroke="black" points="467,-159.5 564,-159.5 "/>
<text text-anchor="start" x="475" y="-147.5" font-family="Helvetica,sans-Serif" font-size="10.00">+ combo_box</text>
<polyline fill="none" stroke="black" points="467,-140.5 564,-140.5 "/>
<text text-anchor="start" x="475" y="-128.5" font-family="Helvetica,sans-Serif" font-size="10.00">+ __init__()</text>
<text text-anchor="start" x="475" y="-117.5" font-family="Helvetica,sans-Serif" font-size="10.00">+ setup()</text>
</a>
</g>
</g>
<!-- Node8&#45;&gt;Node9 -->
<g id="edge8" class="edge">
<title>Node8&#45;&gt;Node9</title>
<path fill="none" stroke="midnightblue" d="M523.08,-315.06C521.04,-269.3 518.54,-213.45 516.98,-178.67"/>
<polygon fill="none" stroke="midnightblue" points="519.59,-315.42 523.54,-325.25 526.59,-315.11 519.59,-315.42"/>
</g>
<!-- Node11 -->
<g id="node11" class="node">
<title>Node11</title>
<g id="a_node11"><a xlink:href="classrare_1_1components_1_1dialogs_1_1install__dialog_1_1_install_dialog.html" target="_top" xlink:title=" ">
<polygon fill="white" stroke="black" points="582.5,-0.5 582.5,-288.5 722.5,-288.5 722.5,-0.5 582.5,-0.5"/>
<text text-anchor="middle" x="652.5" y="-276.5" font-family="Helvetica,sans-Serif" font-size="10.00">InstallDialog</text>
<polyline fill="none" stroke="black" points="582.5,-269.5 722.5,-269.5 "/>
<text text-anchor="start" x="590.5" y="-257.5" font-family="Helvetica,sans-Serif" font-size="10.00">+ settings</text>
<text text-anchor="start" x="590.5" y="-246.5" font-family="Helvetica,sans-Serif" font-size="10.00">+ ui</text>
<text text-anchor="start" x="590.5" y="-235.5" font-family="Helvetica,sans-Serif" font-size="10.00">+ core</text>
<text text-anchor="start" x="590.5" y="-224.5" font-family="Helvetica,sans-Serif" font-size="10.00">+ rgame</text>
<text text-anchor="start" x="590.5" y="-213.5" font-family="Helvetica,sans-Serif" font-size="10.00">+ advanced</text>
<text text-anchor="start" x="590.5" y="-202.5" font-family="Helvetica,sans-Serif" font-size="10.00">+ selectable</text>
<text text-anchor="start" x="590.5" y="-191.5" font-family="Helvetica,sans-Serif" font-size="10.00">+ options_changed</text>
<text text-anchor="start" x="590.5" y="-180.5" font-family="Helvetica,sans-Serif" font-size="10.00">+ threadpool</text>
<text text-anchor="start" x="590.5" y="-169.5" font-family="Helvetica,sans-Serif" font-size="10.00">+ install_dir_edit</text>
<text text-anchor="start" x="590.5" y="-158.5" font-family="Helvetica,sans-Serif" font-size="10.00">+ result_ready</text>
<polyline fill="none" stroke="black" points="582.5,-151.5 722.5,-151.5 "/>
<text text-anchor="start" x="590.5" y="-139.5" font-family="Helvetica,sans-Serif" font-size="10.00">+ __init__()</text>
<text text-anchor="start" x="590.5" y="-128.5" font-family="Helvetica,sans-Serif" font-size="10.00">+ showEvent()</text>
<text text-anchor="start" x="590.5" y="-117.5" font-family="Helvetica,sans-Serif" font-size="10.00">+ execute()</text>
<text text-anchor="start" x="590.5" y="-106.5" font-family="Helvetica,sans-Serif" font-size="10.00">+ reset_install_dir()</text>
<text text-anchor="start" x="590.5" y="-95.5" font-family="Helvetica,sans-Serif" font-size="10.00">+ check_incompatible</text>
<text text-anchor="start" x="590.5" y="-84.5" font-family="Helvetica,sans-Serif" font-size="10.00">_platform()</text>
<text text-anchor="start" x="590.5" y="-73.5" font-family="Helvetica,sans-Serif" font-size="10.00">+ get_options()</text>
<text text-anchor="start" x="590.5" y="-62.5" font-family="Helvetica,sans-Serif" font-size="10.00">+ get_download_info()</text>
<text text-anchor="start" x="590.5" y="-51.5" font-family="Helvetica,sans-Serif" font-size="10.00">+ action_handler()</text>
<text text-anchor="start" x="590.5" y="-40.5" font-family="Helvetica,sans-Serif" font-size="10.00">+ install_dir_edit_callback()</text>
<text text-anchor="start" x="590.5" y="-29.5" font-family="Helvetica,sans-Serif" font-size="10.00">+ install_dir_save_callback()</text>
<text text-anchor="start" x="590.5" y="-18.5" font-family="Helvetica,sans-Serif" font-size="10.00">and 6 more...</text>
<text text-anchor="start" x="590.5" y="-7.5" font-family="Helvetica,sans-Serif" font-size="10.00">+ same_platform()</text>
</a>
</g>
</g>
<!-- Node10&#45;&gt;Node11 -->
<g id="edge10" class="edge">
<title>Node10&#45;&gt;Node11</title>
<path fill="none" stroke="midnightblue" d="M652.5,-320.44C652.5,-310.4 652.5,-299.79 652.5,-288.96"/>
<polygon fill="none" stroke="midnightblue" points="649,-320.69 652.5,-330.69 656,-320.69 649,-320.69"/>
</g>
<!-- Node12 -->
<g id="node12" class="node">
<title>Node12</title>
<g id="a_node12"><a xlink:href="classrare_1_1components_1_1dialogs_1_1move__dialog_1_1_move_dialog.html" target="_top" xlink:title=" ">
<polygon fill="white" stroke="black" points="740.5,-28 740.5,-261 852.5,-261 852.5,-28 740.5,-28"/>
<text text-anchor="middle" x="796.5" y="-249" font-family="Helvetica,sans-Serif" font-size="10.00">MoveDialog</text>
<polyline fill="none" stroke="black" points="740.5,-242 852.5,-242 "/>
<text text-anchor="start" x="748.5" y="-230" font-family="Helvetica,sans-Serif" font-size="10.00">+ rcore</text>
<text text-anchor="start" x="748.5" y="-219" font-family="Helvetica,sans-Serif" font-size="10.00">+ core</text>
<text text-anchor="start" x="748.5" y="-208" font-family="Helvetica,sans-Serif" font-size="10.00">+ path_edit</text>
<text text-anchor="start" x="748.5" y="-197" font-family="Helvetica,sans-Serif" font-size="10.00">+ warn_label</text>
<text text-anchor="start" x="748.5" y="-186" font-family="Helvetica,sans-Serif" font-size="10.00">+ req_space_label</text>
<text text-anchor="start" x="748.5" y="-175" font-family="Helvetica,sans-Serif" font-size="10.00">+ req_space</text>
<text text-anchor="start" x="748.5" y="-164" font-family="Helvetica,sans-Serif" font-size="10.00">+ avail_space_label</text>
<text text-anchor="start" x="748.5" y="-153" font-family="Helvetica,sans-Serif" font-size="10.00">+ avail_space</text>
<text text-anchor="start" x="748.5" y="-142" font-family="Helvetica,sans-Serif" font-size="10.00">+ rgame</text>
<text text-anchor="start" x="748.5" y="-131" font-family="Helvetica,sans-Serif" font-size="10.00">+ result_ready</text>
<polyline fill="none" stroke="black" points="740.5,-124 852.5,-124 "/>
<text text-anchor="start" x="748.5" y="-112" font-family="Helvetica,sans-Serif" font-size="10.00">+ __init__()</text>
<text text-anchor="start" x="748.5" y="-101" font-family="Helvetica,sans-Serif" font-size="10.00">+ action_handler()</text>
<text text-anchor="start" x="748.5" y="-90" font-family="Helvetica,sans-Serif" font-size="10.00">+ done_handler()</text>
<text text-anchor="start" x="748.5" y="-79" font-family="Helvetica,sans-Serif" font-size="10.00">+ accept_handler()</text>
<text text-anchor="start" x="748.5" y="-68" font-family="Helvetica,sans-Serif" font-size="10.00">+ reject_handler()</text>
<text text-anchor="start" x="748.5" y="-57" font-family="Helvetica,sans-Serif" font-size="10.00">+ refresh_indicator()</text>
<text text-anchor="start" x="748.5" y="-46" font-family="Helvetica,sans-Serif" font-size="10.00">+ path_edit_callback()</text>
<text text-anchor="start" x="748.5" y="-35" font-family="Helvetica,sans-Serif" font-size="10.00">+ update_game()</text>
</a>
</g>
</g>
<!-- Node10&#45;&gt;Node12 -->
<g id="edge11" class="edge">
<title>Node10&#45;&gt;Node12</title>
<path fill="none" stroke="midnightblue" d="M706.75,-325.69C715.51,-313.81 724.12,-301.28 731.5,-289 736.85,-280.09 742.05,-270.67 747.01,-261.07"/>
<polygon fill="none" stroke="midnightblue" points="703.87,-323.71 700.67,-333.81 709.47,-327.9 703.87,-323.71"/>
</g>
</g>
</svg>
