<?xml version="1.0" encoding="UTF-8" standalone="no"?>
<!DOCTYPE svg PUBLIC "-//W3C//DTD SVG 1.1//EN"
 "http://www.w3.org/Graphics/SVG/1.1/DTD/svg11.dtd">
<!-- Generated by graphviz version 2.49.3 (20211027.1534)
 -->
<!-- Title: isChecked Pages: 1 -->
<svg width="469pt" height="152pt"
 viewBox="0.00 0.00 469.00 151.50" xmlns="http://www.w3.org/2000/svg" xmlns:xlink="http://www.w3.org/1999/xlink">
<g id="graph0" class="graph" transform="scale(1 1) rotate(0) translate(4 147.5)">
<title>isChecked</title>
<polygon fill="white" stroke="transparent" points="-4,4 -4,-147.5 465,-147.5 465,4 -4,4"/>
<!-- Node1 -->
<g id="node1" class="node">
<title>Node1</title>
<g id="a_node1"><a xlink:title=" ">
<polygon fill="#bfbfbf" stroke="black" points="399,-68 399,-87 461,-87 461,-68 399,-68"/>
<text text-anchor="middle" x="430" y="-75" font-family="Helvetica,sans-Serif" font-size="10.00">isChecked</text>
</a>
</g>
</g>
<!-- Node1&#45;&gt;Node1 -->
<g id="edge7" class="edge">
<title>Node1&#45;&gt;Node1</title>
<path fill="none" stroke="midnightblue" d="M457.25,-96.15C456.11,-101.44 447.03,-105.5 430,-105.5 404.05,-105.5 396.55,-96.07 407.5,-87.26"/>
<polygon fill="midnightblue" stroke="midnightblue" points="460.3,-94.43 452.5,-87.26 454.12,-97.73 460.3,-94.43"/>
</g>
<!-- Node2 -->
<g id="node2" class="node">
<title>Node2</title>
<g id="a_node2"><a xlink:href="classrare_1_1widgets_1_1collapsible__widget_1_1_collapsible_group_box.html#a4ed8bcc9eb5ab123f74ac79da45edb6a" target="_top" xlink:title=" ">
<polygon fill="white" stroke="black" points="265,-106 265,-125 302,-125 302,-106 265,-106"/>
<text text-anchor="middle" x="283.5" y="-113" font-family="Helvetica,sans-Serif" font-size="10.00">click</text>
</a>
</g>
</g>
<!-- Node1&#45;&gt;Node2 -->
<g id="edge1" class="edge">
<title>Node1&#45;&gt;Node2</title>
<path fill="none" stroke="midnightblue" d="M389.01,-88.02C360.48,-95.52 323.5,-105.24 302.05,-110.89"/>
<polygon fill="midnightblue" stroke="midnightblue" points="389.93,-91.39 398.71,-85.47 388.15,-84.62 389.93,-91.39"/>
</g>
<!-- Node3 -->
<g id="node3" class="node">
<title>Node3</title>
<g id="a_node3"><a xlink:href="classrare_1_1widgets_1_1collapsible__widget_1_1_collapsible_base.html#a58e1dc91f8780e6ffd61ed5fdc02b6cd" target="_top" xlink:title=" ">
<polygon fill="white" stroke="black" points="0,-81.5 0,-111.5 168,-111.5 168,-81.5 0,-81.5"/>
<text text-anchor="start" x="8" y="-99.5" font-family="Helvetica,sans-Serif" font-size="10.00">rare.widgets.collapsible</text>
<text text-anchor="middle" x="84" y="-88.5" font-family="Helvetica,sans-Serif" font-size="10.00">_widget.CollapsibleBase.setWidget</text>
</a>
</g>
</g>
<!-- Node1&#45;&gt;Node3 -->
<g id="edge8" class="edge">
<title>Node1&#45;&gt;Node3</title>
<path fill="none" stroke="midnightblue" d="M388.59,-79.73C334.69,-82.71 237.98,-88.05 168.17,-91.91"/>
<polygon fill="midnightblue" stroke="midnightblue" points="388.98,-83.22 398.77,-79.17 388.6,-76.23 388.98,-83.22"/>
</g>
<!-- Node4 -->
<g id="node4" class="node">
<title>Node4</title>
<g id="a_node4"><a xlink:href="classrare_1_1components_1_1tabs_1_1store_1_1shop__widget_1_1_check_box.html#a8b64389a338c017bf6d5987eda346be6" target="_top" xlink:title=" ">
<polygon fill="white" stroke="black" points="204,-0.5 204,-30.5 363,-30.5 363,-0.5 204,-0.5"/>
<text text-anchor="start" x="212" y="-18.5" font-family="Helvetica,sans-Serif" font-size="10.00">rare.components.tabs.store.shop</text>
<text text-anchor="middle" x="283.5" y="-7.5" font-family="Helvetica,sans-Serif" font-size="10.00">_widget.CheckBox.handle_toggle</text>
</a>
</g>
</g>
<!-- Node1&#45;&gt;Node4 -->
<g id="edge5" class="edge">
<title>Node1&#45;&gt;Node4</title>
<path fill="none" stroke="midnightblue" d="M397.45,-63.96C374.52,-54.13 343.47,-40.8 319.73,-30.62"/>
<polygon fill="midnightblue" stroke="midnightblue" points="396.17,-67.22 406.74,-67.95 398.93,-60.79 396.17,-67.22"/>
</g>
<!-- Node2&#45;&gt;Node2 -->
<g id="edge2" class="edge">
<title>Node2&#45;&gt;Node2</title>
<path fill="none" stroke="midnightblue" d="M309.82,-129.46C314.11,-136.82 305.33,-143.5 283.5,-143.5 254.98,-143.5 248.75,-132.11 264.79,-122.67"/>
<polygon fill="midnightblue" stroke="midnightblue" points="312.01,-126.72 302.21,-122.67 307.35,-131.94 312.01,-126.72"/>
</g>
<!-- Node2&#45;&gt;Node3 -->
<g id="edge3" class="edge">
<title>Node2&#45;&gt;Node3</title>
<path fill="none" stroke="midnightblue" d="M254.82,-112.84C232.32,-110.67 199.34,-107.5 168.42,-104.53"/>
<polygon fill="midnightblue" stroke="midnightblue" points="254.68,-116.34 264.97,-113.81 255.35,-109.37 254.68,-116.34"/>
</g>
<!-- Node3&#45;&gt;Node3 -->
<g id="edge4" class="edge">
<title>Node3&#45;&gt;Node3</title>
<path fill="none" stroke="midnightblue" d="M119.18,-121.96C114.82,-126.68 103.09,-130 84,-130 52.68,-130 41.17,-121.06 49.49,-111.66"/>
<polygon fill="midnightblue" stroke="midnightblue" points="122.65,-121.41 118.51,-111.66 115.67,-121.87 122.65,-121.41"/>
</g>
<!-- Node4&#45;&gt;Node4 -->
<g id="edge6" class="edge">
<title>Node4&#45;&gt;Node4</title>
<path fill="none" stroke="midnightblue" d="M309.44,-40.96C306.22,-45.68 297.58,-49 283.5,-49 260.4,-49 251.92,-40.06 258.06,-30.66"/>
<polygon fill="midnightblue" stroke="midnightblue" points="312.92,-40.48 308.94,-30.66 305.93,-40.82 312.92,-40.48"/>
</g>
</g>
</svg>
