<?xml version="1.0" encoding="UTF-8" standalone="no"?>
<!DOCTYPE svg PUBLIC "-//W3C//DTD SVG 1.1//EN"
 "http://www.w3.org/Graphics/SVG/1.1/DTD/svg11.dtd">
<!-- Generated by graphviz version 2.49.3 (20211027.1534)
 -->
<!-- Title: download_saves Pages: 1 -->
<svg width="1543pt" height="424pt"
 viewBox="0.00 0.00 1543.00 423.73" xmlns="http://www.w3.org/2000/svg" xmlns:xlink="http://www.w3.org/1999/xlink">
<g id="graph0" class="graph" transform="scale(1 1) rotate(0) translate(4 419.73)">
<title>download_saves</title>
<polygon fill="white" stroke="transparent" points="-4,4 -4,-419.73 1539,-419.73 1539,4 -4,4"/>
<!-- Node1 -->
<g id="node1" class="node">
<title>Node1</title>
<g id="a_node1"><a xlink:title=" ">
<polygon fill="#bfbfbf" stroke="black" points="0,-316.23 0,-335.23 89,-335.23 89,-316.23 0,-316.23"/>
<text text-anchor="middle" x="44.5" y="-323.23" font-family="Helvetica,sans-Serif" font-size="10.00">download_saves</text>
</a>
</g>
</g>
<!-- Node1&#45;&gt;Node1 -->
<g id="edge1" class="edge">
<title>Node1&#45;&gt;Node1</title>
<path fill="none" stroke="midnightblue" d="M14.91,-335.49C0.51,-344.29 10.38,-353.73 44.5,-353.73 68.49,-353.73 80.49,-349.06 80.5,-343.23"/>
<polygon fill="midnightblue" stroke="midnightblue" points="83.16,-340.96 74.09,-335.49 77.77,-345.42 83.16,-340.96"/>
</g>
<!-- Node2 -->
<g id="node2" class="node">
<title>Node2</title>
<g id="a_node2"><a xlink:href="namespacerare_1_1app.html#a37fb442592b19edb2dcdd368df2d2d76" target="_top" xlink:title=" ">
<polygon fill="white" stroke="black" points="201,-378.23 201,-397.23 274,-397.23 274,-378.23 201,-378.23"/>
<text text-anchor="middle" x="237.5" y="-385.23" font-family="Helvetica,sans-Serif" font-size="10.00">rare.app.start</text>
</a>
</g>
</g>
<!-- Node1&#45;&gt;Node2 -->
<g id="edge2" class="edge">
<title>Node1&#45;&gt;Node2</title>
<path fill="none" stroke="midnightblue" d="M59.78,-335.33C75.2,-345.23 100.82,-360.38 125,-368.73 146.04,-375.99 170.31,-380.55 190.82,-383.37"/>
<polygon fill="midnightblue" stroke="midnightblue" points="190.5,-386.86 200.86,-384.66 191.39,-379.91 190.5,-386.86"/>
</g>
<!-- Node3 -->
<g id="node3" class="node">
<title>Node3</title>
<g id="a_node3"><a xlink:href="classrare_1_1components_1_1tabs_1_1games_1_1integrations_1_1ubisoft__group_1_1_ubi_link_widget.html#a4f1fc3fc743e9e74ae4d1c677928ef3f" target="_top" xlink:title=" ">
<polygon fill="white" stroke="black" points="125,-310.73 125,-340.73 350,-340.73 350,-310.73 125,-310.73"/>
<text text-anchor="start" x="133" y="-328.73" font-family="Helvetica,sans-Serif" font-size="10.00">rare.components.tabs.games.integrations.ubisoft</text>
<text text-anchor="middle" x="237.5" y="-317.73" font-family="Helvetica,sans-Serif" font-size="10.00">_group.UbiLinkWidget.worker_finished</text>
</a>
</g>
</g>
<!-- Node1&#45;&gt;Node3 -->
<g id="edge4" class="edge">
<title>Node1&#45;&gt;Node3</title>
<path fill="none" stroke="midnightblue" d="M89.32,-325.73C97.24,-325.73 105.84,-325.73 114.78,-325.73"/>
<polygon fill="midnightblue" stroke="midnightblue" points="114.98,-329.23 124.98,-325.73 114.98,-322.23 114.98,-329.23"/>
</g>
<!-- Node6 -->
<g id="node6" class="node">
<title>Node6</title>
<g id="a_node6"><a xlink:href="classrare_1_1shared_1_1cloud__save__utils_1_1_cloud_save_utils.html#a370a509f80663666f4149bfb4e739c8d" target="_top" xlink:title=" ">
<polygon fill="white" stroke="black" points="195.5,-254.23 195.5,-273.23 279.5,-273.23 279.5,-254.23 195.5,-254.23"/>
<text text-anchor="middle" x="237.5" y="-261.23" font-family="Helvetica,sans-Serif" font-size="10.00">worker_finished</text>
</a>
</g>
</g>
<!-- Node1&#45;&gt;Node6 -->
<g id="edge10" class="edge">
<title>Node1&#45;&gt;Node6</title>
<path fill="none" stroke="midnightblue" d="M74.93,-316.18C107.73,-305.53 160.95,-288.25 197.27,-276.46"/>
<polygon fill="midnightblue" stroke="midnightblue" points="198.61,-279.71 207.04,-273.29 196.45,-273.05 198.61,-279.71"/>
</g>
<!-- Node2&#45;&gt;Node2 -->
<g id="edge3" class="edge">
<title>Node2&#45;&gt;Node2</title>
<path fill="none" stroke="midnightblue" d="M207.91,-397.49C193.51,-406.29 203.38,-415.73 237.5,-415.73 261.49,-415.73 273.49,-411.06 273.5,-405.23"/>
<polygon fill="midnightblue" stroke="midnightblue" points="276.16,-402.96 267.09,-397.49 270.77,-407.42 276.16,-402.96"/>
</g>
<!-- Node3&#45;&gt;Node3 -->
<g id="edge9" class="edge">
<title>Node3&#45;&gt;Node3</title>
<path fill="none" stroke="midnightblue" d="M204.04,-340.89C195.97,-350.28 207.12,-359.23 237.5,-359.23 256.01,-359.23 267.38,-355.91 271.62,-351.19"/>
<polygon fill="midnightblue" stroke="midnightblue" points="275.09,-350.64 270.96,-340.89 268.1,-351.09 275.09,-350.64"/>
</g>
<!-- Node4 -->
<g id="node4" class="node">
<title>Node4</title>
<g id="a_node4"><a xlink:href="namespacerare_1_1utils_1_1misc.html#a5b215592bbad86ea6d2c3b46280baae8" target="_top" xlink:title=" ">
<polygon fill="white" stroke="black" points="413.5,-369.23 413.5,-388.23 510.5,-388.23 510.5,-369.23 413.5,-369.23"/>
<text text-anchor="middle" x="462" y="-376.23" font-family="Helvetica,sans-Serif" font-size="10.00">rare.utils.misc.icon</text>
</a>
</g>
</g>
<!-- Node3&#45;&gt;Node4 -->
<g id="edge5" class="edge">
<title>Node3&#45;&gt;Node4</title>
<path fill="none" stroke="midnightblue" d="M301.66,-340.77C336.21,-349 378.42,-359.06 410.71,-366.75"/>
<polygon fill="midnightblue" stroke="midnightblue" points="410.29,-370.25 420.83,-369.16 411.91,-363.44 410.29,-370.25"/>
</g>
<!-- Node5 -->
<g id="node5" class="node">
<title>Node5</title>
<g id="a_node5"><a xlink:href="classrare_1_1components_1_1dialogs_1_1launch__dialog_1_1_image_worker.html#abfb44fdc3f5ec4c03f5d2e72900deb61" target="_top" xlink:title=" ">
<polygon fill="white" stroke="black" points="386,-301.73 386,-331.73 538,-331.73 538,-301.73 386,-301.73"/>
<text text-anchor="start" x="394" y="-319.73" font-family="Helvetica,sans-Serif" font-size="10.00">rare.components.dialogs.launch</text>
<text text-anchor="middle" x="462" y="-308.73" font-family="Helvetica,sans-Serif" font-size="10.00">_dialog.ImageWorker.tr</text>
</a>
</g>
</g>
<!-- Node3&#45;&gt;Node5 -->
<g id="edge7" class="edge">
<title>Node3&#45;&gt;Node5</title>
<path fill="none" stroke="midnightblue" d="M350.08,-321.22C358.71,-320.87 367.34,-320.52 375.76,-320.18"/>
<polygon fill="midnightblue" stroke="midnightblue" points="376.06,-323.67 385.91,-319.77 375.78,-316.67 376.06,-323.67"/>
</g>
<!-- Node4&#45;&gt;Node4 -->
<g id="edge6" class="edge">
<title>Node4&#45;&gt;Node4</title>
<path fill="none" stroke="midnightblue" d="M432.72,-388.49C418.47,-397.29 428.23,-406.73 462,-406.73 485.74,-406.73 497.62,-402.06 497.62,-396.23"/>
<polygon fill="midnightblue" stroke="midnightblue" points="500.33,-394.01 491.28,-388.49 494.91,-398.44 500.33,-394.01"/>
</g>
<!-- Node5&#45;&gt;Node5 -->
<g id="edge8" class="edge">
<title>Node5&#45;&gt;Node5</title>
<path fill="none" stroke="midnightblue" d="M428.89,-331.89C420.9,-341.28 431.94,-350.23 462,-350.23 480.32,-350.23 491.57,-346.91 495.76,-342.19"/>
<polygon fill="midnightblue" stroke="midnightblue" points="499.23,-341.65 495.11,-331.89 492.25,-342.09 499.23,-341.65"/>
</g>
<!-- Node6&#45;&gt;Node5 -->
<g id="edge46" class="edge">
<title>Node6&#45;&gt;Node5</title>
<path fill="none" stroke="midnightblue" d="M278.54,-273.26C308.84,-280.48 351.31,-290.6 387.65,-299.26"/>
<polygon fill="midnightblue" stroke="midnightblue" points="387.19,-302.74 397.73,-301.66 388.81,-295.93 387.19,-302.74"/>
</g>
<!-- Node6&#45;&gt;Node6 -->
<g id="edge47" class="edge">
<title>Node6&#45;&gt;Node6</title>
<path fill="none" stroke="midnightblue" d="M207.91,-273.49C193.51,-282.29 203.38,-291.73 237.5,-291.73 261.49,-291.73 273.49,-287.06 273.5,-281.23"/>
<polygon fill="midnightblue" stroke="midnightblue" points="276.16,-278.96 267.09,-273.49 270.77,-283.42 276.16,-278.96"/>
</g>
<!-- Node7 -->
<g id="node7" class="node">
<title>Node7</title>
<g id="a_node7"><a xlink:href="classrare_1_1shared_1_1rare__core_1_1_rare_core.html#aabbe79631981014e737e83fa4e978346" target="_top" xlink:title=" ">
<polygon fill="white" stroke="black" points="397,-128.73 397,-158.73 527,-158.73 527,-128.73 397,-128.73"/>
<text text-anchor="start" x="405" y="-146.73" font-family="Helvetica,sans-Serif" font-size="10.00">rare.shared.rare_core.Rare</text>
<text text-anchor="middle" x="462" y="-135.73" font-family="Helvetica,sans-Serif" font-size="10.00">Core.api_results</text>
</a>
</g>
</g>
<!-- Node6&#45;&gt;Node7 -->
<g id="edge11" class="edge">
<title>Node6&#45;&gt;Node7</title>
<path fill="none" stroke="midnightblue" d="M256.33,-254.11C292.66,-234.52 375.9,-189.63 424.29,-163.53"/>
<polygon fill="midnightblue" stroke="midnightblue" points="426.05,-166.56 433.19,-158.73 422.72,-160.4 426.05,-166.56"/>
</g>
<!-- Node8 -->
<g id="node8" class="node">
<title>Node8</title>
<g id="a_node8"><a xlink:href="classrare_1_1shared_1_1cloud__save__utils_1_1_cloud_save_utils.html#a2156cf89d0ec4acb619d120dc8a13b2d" target="_top" xlink:title=" ">
<polygon fill="white" stroke="black" points="606.5,-284.23 606.5,-303.23 697.5,-303.23 697.5,-284.23 606.5,-284.23"/>
<text text-anchor="middle" x="652" y="-291.23" font-family="Helvetica,sans-Serif" font-size="10.00">get_latest_saves</text>
</a>
</g>
</g>
<!-- Node6&#45;&gt;Node8 -->
<g id="edge13" class="edge">
<title>Node6&#45;&gt;Node8</title>
<path fill="none" stroke="midnightblue" d="M279.56,-266.71C354.29,-272.15 512.51,-283.66 596.29,-289.75"/>
<polygon fill="midnightblue" stroke="midnightblue" points="596.15,-293.25 606.38,-290.48 596.66,-286.27 596.15,-293.25"/>
</g>
<!-- Node10 -->
<g id="node10" class="node">
<title>Node10</title>
<g id="a_node10"><a xlink:href="classrare_1_1shared_1_1game__utils_1_1_game_utils.html#ac34fa0bdcf4ae84538c915490c49bb28" target="_top" xlink:title=" ">
<polygon fill="white" stroke="black" points="390.5,-195.73 390.5,-225.73 533.5,-225.73 533.5,-195.73 390.5,-195.73"/>
<text text-anchor="start" x="398.5" y="-213.73" font-family="Helvetica,sans-Serif" font-size="10.00">rare.shared.game_utils.Game</text>
<text text-anchor="middle" x="462" y="-202.73" font-family="Helvetica,sans-Serif" font-size="10.00">Utils.sync_finished</text>
</a>
</g>
</g>
<!-- Node6&#45;&gt;Node10 -->
<g id="edge17" class="edge">
<title>Node6&#45;&gt;Node10</title>
<path fill="none" stroke="midnightblue" d="M278.54,-254.19C308.84,-246.97 351.31,-236.86 387.65,-228.2"/>
<polygon fill="midnightblue" stroke="midnightblue" points="388.81,-231.52 397.73,-225.8 387.19,-224.71 388.81,-231.52"/>
</g>
<!-- Node7&#45;&gt;Node7 -->
<g id="edge12" class="edge">
<title>Node7&#45;&gt;Node7</title>
<path fill="none" stroke="midnightblue" d="M428.89,-158.89C420.9,-168.28 431.94,-177.23 462,-177.23 480.32,-177.23 491.57,-173.91 495.76,-169.19"/>
<polygon fill="midnightblue" stroke="midnightblue" points="499.23,-168.65 495.11,-158.89 492.25,-169.09 499.23,-168.65"/>
</g>
<!-- Node8&#45;&gt;Node8 -->
<g id="edge16" class="edge">
<title>Node8&#45;&gt;Node8</title>
<path fill="none" stroke="midnightblue" d="M624.87,-303.49C611.68,-312.29 620.72,-321.73 652,-321.73 673.51,-321.73 684.5,-317.27 684.98,-311.62"/>
<polygon fill="midnightblue" stroke="midnightblue" points="687.81,-309.56 679.13,-303.49 682.13,-313.65 687.81,-309.56"/>
</g>
<!-- Node9 -->
<g id="node9" class="node">
<title>Node9</title>
<g id="a_node9"><a xlink:href="classrare_1_1shared_1_1rare__core_1_1_rare_core.html#a405e1a4f20f16120f872ccd2654a1d56" target="_top" xlink:title=" ">
<polygon fill="white" stroke="black" points="1143,-296.73 1143,-326.73 1273,-326.73 1273,-296.73 1143,-296.73"/>
<text text-anchor="start" x="1151" y="-314.73" font-family="Helvetica,sans-Serif" font-size="10.00">rare.shared.rare_core.Rare</text>
<text text-anchor="middle" x="1208" y="-303.73" font-family="Helvetica,sans-Serif" font-size="10.00">Core.core</text>
</a>
</g>
</g>
<!-- Node8&#45;&gt;Node9 -->
<g id="edge14" class="edge">
<title>Node8&#45;&gt;Node9</title>
<path fill="none" stroke="midnightblue" d="M697.87,-295.19C793.01,-298.28 1015.84,-305.52 1132.62,-309.31"/>
<polygon fill="midnightblue" stroke="midnightblue" points="1132.79,-312.82 1142.89,-309.65 1133.01,-305.82 1132.79,-312.82"/>
</g>
<!-- Node9&#45;&gt;Node9 -->
<g id="edge15" class="edge">
<title>Node9&#45;&gt;Node9</title>
<path fill="none" stroke="midnightblue" d="M1173.49,-326.89C1165.17,-336.28 1176.68,-345.23 1208,-345.23 1227.09,-345.23 1238.82,-341.91 1243.18,-337.19"/>
<polygon fill="midnightblue" stroke="midnightblue" points="1246.65,-336.64 1242.51,-326.89 1239.67,-337.1 1246.65,-336.64"/>
</g>
<!-- Node10&#45;&gt;Node10 -->
<g id="edge45" class="edge">
<title>Node10&#45;&gt;Node10</title>
<path fill="none" stroke="midnightblue" d="M428.89,-225.89C420.9,-235.28 431.94,-244.23 462,-244.23 480.32,-244.23 491.57,-240.91 495.76,-236.19"/>
<polygon fill="midnightblue" stroke="midnightblue" points="499.23,-235.65 495.11,-225.89 492.25,-236.09 499.23,-235.65"/>
</g>
<!-- Node11 -->
<g id="node11" class="node">
<title>Node11</title>
<g id="a_node11"><a xlink:href="classrare_1_1game__launch__helper_1_1_game_process_app.html#a62864ecc73de3f9e4a009737d0c01f01" target="_top" xlink:title=" ">
<polygon fill="white" stroke="black" points="574,-174.73 574,-204.73 730,-204.73 730,-174.73 574,-174.73"/>
<text text-anchor="start" x="582" y="-192.73" font-family="Helvetica,sans-Serif" font-size="10.00">rare.game_launch_helper.</text>
<text text-anchor="middle" x="652" y="-181.73" font-family="Helvetica,sans-Serif" font-size="10.00">GameProcessApp.launch_game</text>
</a>
</g>
</g>
<!-- Node10&#45;&gt;Node11 -->
<g id="edge18" class="edge">
<title>Node10&#45;&gt;Node11</title>
<path fill="none" stroke="midnightblue" d="M533.54,-202.85C543.39,-201.75 553.6,-200.61 563.71,-199.48"/>
<polygon fill="midnightblue" stroke="midnightblue" points="564.21,-202.94 573.76,-198.36 563.44,-195.99 564.21,-202.94"/>
</g>
<!-- Node11&#45;&gt;Node11 -->
<g id="edge25" class="edge">
<title>Node11&#45;&gt;Node11</title>
<path fill="none" stroke="midnightblue" d="M621.33,-204.89C613.93,-214.28 624.16,-223.23 652,-223.23 668.97,-223.23 679.39,-219.91 683.27,-215.19"/>
<polygon fill="midnightblue" stroke="midnightblue" points="686.75,-214.67 682.67,-204.89 679.76,-215.07 686.75,-214.67"/>
</g>
<!-- Node12 -->
<g id="node12" class="node">
<title>Node12</title>
<g id="a_node12"><a xlink:href="classrare_1_1components_1_1tabs_1_1games_1_1integrations_1_1egl__sync__group_1_1_e_g_l_sync_list_item.html#a9c470cc60eae203f55455d0e0d7f5712" target="_top" xlink:title=" ">
<polygon fill="white" stroke="black" points="1326,-252.73 1326,-282.73 1535,-282.73 1535,-252.73 1326,-252.73"/>
<text text-anchor="start" x="1334" y="-270.73" font-family="Helvetica,sans-Serif" font-size="10.00">rare.components.tabs.games.integrations.egl</text>
<text text-anchor="middle" x="1430.5" y="-259.73" font-family="Helvetica,sans-Serif" font-size="10.00">_sync_group.EGLSyncListItem.app_name</text>
</a>
</g>
</g>
<!-- Node11&#45;&gt;Node12 -->
<g id="edge19" class="edge">
<title>Node11&#45;&gt;Node12</title>
<path fill="none" stroke="midnightblue" d="M675.97,-204.94C698.22,-219.14 733.32,-240.13 766,-253.73 919.42,-317.59 961.37,-332.07 1126,-354.73 1198.21,-364.67 1219.93,-374.79 1290,-354.73 1334.32,-342.04 1378.25,-310.73 1404.63,-289.35"/>
<polygon fill="midnightblue" stroke="midnightblue" points="1407.09,-291.86 1412.56,-282.79 1402.63,-286.47 1407.09,-291.86"/>
</g>
<!-- Node13 -->
<g id="node13" class="node">
<title>Node13</title>
<g id="a_node13"><a xlink:href="classrare_1_1models_1_1game_1_1_rare_game.html#a0afe16b2357823a068971d7af5918a23" target="_top" xlink:title=" ">
<polygon fill="white" stroke="black" points="1336,-167.23 1336,-186.23 1525,-186.23 1525,-167.23 1336,-167.23"/>
<text text-anchor="middle" x="1430.5" y="-174.23" font-family="Helvetica,sans-Serif" font-size="10.00">rare.models.game.RareGame.app_name</text>
</a>
</g>
</g>
<!-- Node11&#45;&gt;Node13 -->
<g id="edge21" class="edge">
<title>Node11&#45;&gt;Node13</title>
<path fill="none" stroke="midnightblue" d="M679.3,-174.7C701.8,-162.27 735.32,-144.77 766,-132.73 920.15,-72.24 961.64,-56.86 1126,-36.73 1198.35,-27.87 1231.52,6.78 1290,-36.73 1334.67,-69.97 1284.7,-119.38 1326,-156.73 1328.02,-158.55 1330.15,-160.24 1332.38,-161.78"/>
<polygon fill="midnightblue" stroke="midnightblue" points="1331.01,-165.04 1341.4,-167.11 1334.57,-159.01 1331.01,-165.04"/>
</g>
<!-- Node14 -->
<g id="node14" class="node">
<title>Node14</title>
<g id="a_node14"><a xlink:href="classrare_1_1models_1_1game_1_1_rare_eos_overlay.html#a0afe16b2357823a068971d7af5918a23" target="_top" xlink:title=" ">
<polygon fill="white" stroke="black" points="1364.5,-99.73 1364.5,-129.73 1496.5,-129.73 1496.5,-99.73 1364.5,-99.73"/>
<text text-anchor="start" x="1372.5" y="-117.73" font-family="Helvetica,sans-Serif" font-size="10.00">rare.models.game.RareEos</text>
<text text-anchor="middle" x="1430.5" y="-106.73" font-family="Helvetica,sans-Serif" font-size="10.00">Overlay.app_name</text>
</a>
</g>
</g>
<!-- Node11&#45;&gt;Node14 -->
<g id="edge23" class="edge">
<title>Node11&#45;&gt;Node14</title>
<path fill="none" stroke="midnightblue" d="M664.46,-174.72C683.16,-151.31 722.5,-106.24 766,-81.73 908,-1.7 963.35,-22.41 1126,-11.73 1198.73,-6.95 1220.77,11.06 1290,-11.73 1337.94,-27.51 1382.92,-66.8 1408.26,-92.03"/>
<polygon fill="midnightblue" stroke="midnightblue" points="1405.96,-94.69 1415.47,-99.37 1410.96,-89.79 1405.96,-94.69"/>
</g>
<!-- Node15 -->
<g id="node15" class="node">
<title>Node15</title>
<g id="a_node15"><a xlink:href="classrare_1_1game__launch__helper_1_1_game_process_app.html#a1ad309148fd22e4786258dc4a79ec7af" target="_top" xlink:title=" ">
<polygon fill="white" stroke="black" points="1126,-46.73 1126,-76.73 1290,-76.73 1290,-46.73 1126,-46.73"/>
<text text-anchor="start" x="1134" y="-64.73" font-family="Helvetica,sans-Serif" font-size="10.00">rare.game_launch_helper.</text>
<text text-anchor="middle" x="1208" y="-53.73" font-family="Helvetica,sans-Serif" font-size="10.00">GameProcessApp.send_message</text>
</a>
</g>
</g>
<!-- Node11&#45;&gt;Node15 -->
<g id="edge26" class="edge">
<title>Node11&#45;&gt;Node15</title>
<path fill="none" stroke="midnightblue" d="M718.18,-174.67C821.64,-150.76 1022.88,-104.27 1132.11,-79.03"/>
<polygon fill="midnightblue" stroke="midnightblue" points="1133.11,-82.39 1142.07,-76.73 1131.54,-75.57 1133.11,-82.39"/>
</g>
<!-- Node16 -->
<g id="node16" class="node">
<title>Node16</title>
<g id="a_node16"><a xlink:href="classrare_1_1game__launch__helper_1_1_game_process_app.html#a711d1d7df9874db34971779c941c4e5e" target="_top" xlink:title=" ">
<polygon fill="white" stroke="black" points="766,-196.73 766,-226.73 893,-226.73 893,-196.73 766,-196.73"/>
<text text-anchor="start" x="774" y="-214.73" font-family="Helvetica,sans-Serif" font-size="10.00">rare.game_launch_helper.</text>
<text text-anchor="middle" x="829.5" y="-203.73" font-family="Helvetica,sans-Serif" font-size="10.00">GameProcessApp.start</text>
</a>
</g>
</g>
<!-- Node11&#45;&gt;Node16 -->
<g id="edge28" class="edge">
<title>Node11&#45;&gt;Node16</title>
<path fill="none" stroke="midnightblue" d="M730.23,-192.7C738.82,-193.71 747.55,-194.82 756.08,-195.99"/>
<polygon fill="midnightblue" stroke="midnightblue" points="755.59,-199.46 765.99,-197.4 756.58,-192.53 755.59,-199.46"/>
</g>
<!-- Node18 -->
<g id="node18" class="node">
<title>Node18</title>
<g id="a_node18"><a xlink:href="classrare_1_1game__launch__helper_1_1_game_process_app.html#a26ca7c1c7fcdd35378e7be97727047a6" target="_top" xlink:title=" ">
<polygon fill="white" stroke="black" points="1144.5,-152.73 1144.5,-182.73 1271.5,-182.73 1271.5,-152.73 1144.5,-152.73"/>
<text text-anchor="start" x="1152.5" y="-170.73" font-family="Helvetica,sans-Serif" font-size="10.00">rare.game_launch_helper.</text>
<text text-anchor="middle" x="1208" y="-159.73" font-family="Helvetica,sans-Serif" font-size="10.00">GameProcessApp.stop</text>
</a>
</g>
</g>
<!-- Node11&#45;&gt;Node18 -->
<g id="edge44" class="edge">
<title>Node11&#45;&gt;Node18</title>
<path fill="none" stroke="midnightblue" d="M730.03,-186.67C837.07,-182.42 1029.4,-174.78 1134.16,-170.62"/>
<polygon fill="midnightblue" stroke="midnightblue" points="1134.47,-174.11 1144.32,-170.22 1134.19,-167.12 1134.47,-174.11"/>
</g>
<!-- Node12&#45;&gt;Node12 -->
<g id="edge20" class="edge">
<title>Node12&#45;&gt;Node12</title>
<path fill="none" stroke="midnightblue" d="M1391.81,-282.89C1382.48,-292.28 1395.38,-301.23 1430.5,-301.23 1451.9,-301.23 1465.05,-297.91 1469.95,-293.19"/>
<polygon fill="midnightblue" stroke="midnightblue" points="1473.41,-292.6 1469.19,-282.89 1466.43,-293.12 1473.41,-292.6"/>
</g>
<!-- Node13&#45;&gt;Node13 -->
<g id="edge22" class="edge">
<title>Node13&#45;&gt;Node13</title>
<path fill="none" stroke="midnightblue" d="M1396.56,-186.34C1379.51,-195.19 1390.83,-204.73 1430.5,-204.73 1459.64,-204.73 1473.48,-199.58 1472.02,-193.35"/>
<polygon fill="midnightblue" stroke="midnightblue" points="1474.16,-190.56 1464.44,-186.34 1469.41,-195.7 1474.16,-190.56"/>
</g>
<!-- Node14&#45;&gt;Node14 -->
<g id="edge24" class="edge">
<title>Node14&#45;&gt;Node14</title>
<path fill="none" stroke="midnightblue" d="M1391.81,-129.89C1382.48,-139.28 1395.38,-148.23 1430.5,-148.23 1451.9,-148.23 1465.05,-144.91 1469.95,-140.19"/>
<polygon fill="midnightblue" stroke="midnightblue" points="1473.41,-139.6 1469.19,-129.89 1466.43,-140.12 1473.41,-139.6"/>
</g>
<!-- Node15&#45;&gt;Node15 -->
<g id="edge27" class="edge">
<title>Node15&#45;&gt;Node15</title>
<path fill="none" stroke="midnightblue" d="M1173.49,-76.89C1165.17,-86.28 1176.68,-95.23 1208,-95.23 1227.09,-95.23 1238.82,-91.91 1243.18,-87.19"/>
<polygon fill="midnightblue" stroke="midnightblue" points="1246.65,-86.64 1242.51,-76.89 1239.67,-87.1 1246.65,-86.64"/>
</g>
<!-- Node16&#45;&gt;Node9 -->
<g id="edge29" class="edge">
<title>Node16&#45;&gt;Node9</title>
<path fill="none" stroke="midnightblue" d="M861.4,-226.77C880.52,-235.6 905.77,-246.43 929,-253.73 996.78,-275.02 1076.34,-290.72 1132.94,-300.37"/>
<polygon fill="midnightblue" stroke="midnightblue" points="1132.43,-303.84 1142.88,-302.05 1133.6,-296.94 1132.43,-303.84"/>
</g>
<!-- Node16&#45;&gt;Node11 -->
<g id="edge42" class="edge">
<title>Node16&#45;&gt;Node11</title>
<path fill="none" stroke="midnightblue" d="M765.94,-210.38C754.39,-209.17 742.21,-207.72 730.28,-206.12"/>
<polygon fill="midnightblue" stroke="midnightblue" points="730.73,-202.65 720.35,-204.76 729.78,-209.59 730.73,-202.65"/>
</g>
<!-- Node16&#45;&gt;Node16 -->
<g id="edge43" class="edge">
<title>Node16&#45;&gt;Node16</title>
<path fill="none" stroke="midnightblue" d="M798.83,-226.89C791.43,-236.28 801.66,-245.23 829.5,-245.23 846.47,-245.23 856.89,-241.91 860.77,-237.19"/>
<polygon fill="midnightblue" stroke="midnightblue" points="864.25,-236.67 860.17,-226.89 857.26,-237.07 864.25,-236.67"/>
</g>
<!-- Node17 -->
<g id="node17" class="node">
<title>Node17</title>
<g id="a_node17"><a xlink:href="classrare_1_1game__launch__helper_1_1_game_process_app.html#ac2d7fc08d8189d84d207151df722ee19" target="_top" xlink:title=" ">
<polygon fill="white" stroke="black" points="929,-196.73 929,-226.73 1090,-226.73 1090,-196.73 929,-196.73"/>
<text text-anchor="start" x="937" y="-214.73" font-family="Helvetica,sans-Serif" font-size="10.00">rare.game_launch_helper.</text>
<text text-anchor="middle" x="1009.5" y="-203.73" font-family="Helvetica,sans-Serif" font-size="10.00">GameProcessApp.error_occurred</text>
</a>
</g>
</g>
<!-- Node16&#45;&gt;Node17 -->
<g id="edge30" class="edge">
<title>Node16&#45;&gt;Node17</title>
<path fill="none" stroke="midnightblue" d="M893.01,-211.73C901.36,-211.73 910.05,-211.73 918.76,-211.73"/>
<polygon fill="midnightblue" stroke="midnightblue" points="918.96,-215.23 928.96,-211.73 918.96,-208.23 918.96,-215.23"/>
</g>
<!-- Node17&#45;&gt;Node9 -->
<g id="edge34" class="edge">
<title>Node17&#45;&gt;Node9</title>
<path fill="none" stroke="midnightblue" d="M1032.79,-227C1055.54,-242.15 1092.22,-265.42 1126,-281.73 1134.33,-285.75 1143.35,-289.58 1152.24,-293.07"/>
<polygon fill="midnightblue" stroke="midnightblue" points="1151.21,-296.42 1161.8,-296.72 1153.71,-289.88 1151.21,-296.42"/>
</g>
<!-- Node17&#45;&gt;Node12 -->
<g id="edge31" class="edge">
<title>Node17&#45;&gt;Node12</title>
<path fill="none" stroke="midnightblue" d="M1090.02,-222.81C1102.07,-224.47 1114.36,-226.16 1126,-227.73 1188.73,-236.21 1258.78,-245.45 1315.76,-252.92"/>
<polygon fill="midnightblue" stroke="midnightblue" points="1315.51,-256.42 1325.88,-254.24 1316.42,-249.48 1315.51,-256.42"/>
</g>
<!-- Node17&#45;&gt;Node13 -->
<g id="edge32" class="edge">
<title>Node17&#45;&gt;Node13</title>
<path fill="none" stroke="midnightblue" d="M1090.01,-215.9C1146.11,-217.68 1222.91,-217.8 1290,-209.73 1323.67,-205.68 1361.02,-196.59 1388.59,-188.97"/>
<polygon fill="midnightblue" stroke="midnightblue" points="1389.61,-192.33 1398.28,-186.25 1387.71,-185.59 1389.61,-192.33"/>
</g>
<!-- Node17&#45;&gt;Node14 -->
<g id="edge33" class="edge">
<title>Node17&#45;&gt;Node14</title>
<path fill="none" stroke="midnightblue" d="M1029.62,-196.6C1051.52,-180.19 1089.14,-154.75 1126,-142.73 1201.06,-118.25 1291.71,-112.79 1354.29,-112.5"/>
<polygon fill="midnightblue" stroke="midnightblue" points="1354.47,-116 1364.47,-112.5 1354.47,-109 1354.47,-116"/>
</g>
<!-- Node17&#45;&gt;Node15 -->
<g id="edge36" class="edge">
<title>Node17&#45;&gt;Node15</title>
<path fill="none" stroke="midnightblue" d="M1025.77,-196.54C1047.16,-175.69 1087.72,-137.59 1126,-109.73 1139.66,-99.79 1155.49,-90.05 1169.52,-81.97"/>
<polygon fill="midnightblue" stroke="midnightblue" points="1171.46,-84.89 1178.43,-76.91 1168.01,-78.8 1171.46,-84.89"/>
</g>
<!-- Node17&#45;&gt;Node17 -->
<g id="edge35" class="edge">
<title>Node17&#45;&gt;Node17</title>
<path fill="none" stroke="midnightblue" d="M978.13,-226.89C970.57,-236.28 981.02,-245.23 1009.5,-245.23 1026.85,-245.23 1037.51,-241.91 1041.48,-237.19"/>
<polygon fill="midnightblue" stroke="midnightblue" points="1044.96,-236.66 1040.87,-226.89 1037.97,-237.08 1044.96,-236.66"/>
</g>
<!-- Node17&#45;&gt;Node18 -->
<g id="edge37" class="edge">
<title>Node17&#45;&gt;Node18</title>
<path fill="none" stroke="midnightblue" d="M1077.57,-196.71C1095.86,-192.62 1115.75,-188.16 1134.33,-184"/>
<polygon fill="midnightblue" stroke="midnightblue" points="1135.21,-187.39 1144.2,-181.79 1133.68,-180.56 1135.21,-187.39"/>
</g>
<!-- Node18&#45;&gt;Node12 -->
<g id="edge38" class="edge">
<title>Node18&#45;&gt;Node12</title>
<path fill="none" stroke="midnightblue" d="M1242.49,-182.92C1281.24,-200.49 1345.12,-229.46 1387.25,-248.57"/>
<polygon fill="midnightblue" stroke="midnightblue" points="1385.87,-251.78 1396.42,-252.73 1388.76,-245.41 1385.87,-251.78"/>
</g>
<!-- Node18&#45;&gt;Node13 -->
<g id="edge39" class="edge">
<title>Node18&#45;&gt;Node13</title>
<path fill="none" stroke="midnightblue" d="M1271.6,-170.28C1288.46,-170.97 1307.17,-171.74 1325.64,-172.49"/>
<polygon fill="midnightblue" stroke="midnightblue" points="1325.73,-176 1335.86,-172.91 1326.01,-169 1325.73,-176"/>
</g>
<!-- Node18&#45;&gt;Node14 -->
<g id="edge40" class="edge">
<title>Node18&#45;&gt;Node14</title>
<path fill="none" stroke="midnightblue" d="M1271.6,-152.68C1298.13,-146.3 1329.23,-138.83 1356.77,-132.21"/>
<polygon fill="midnightblue" stroke="midnightblue" points="1357.84,-135.55 1366.75,-129.81 1356.21,-128.75 1357.84,-135.55"/>
</g>
<!-- Node18&#45;&gt;Node18 -->
<g id="edge41" class="edge">
<title>Node18&#45;&gt;Node18</title>
<path fill="none" stroke="midnightblue" d="M1173.49,-182.89C1165.17,-192.28 1176.68,-201.23 1208,-201.23 1227.09,-201.23 1238.82,-197.91 1243.18,-193.19"/>
<polygon fill="midnightblue" stroke="midnightblue" points="1246.65,-192.64 1242.51,-182.89 1239.67,-193.1 1246.65,-192.64"/>
</g>
</g>
</svg>
