<?xml version="1.0" encoding="UTF-8" standalone="no"?>
<!DOCTYPE svg PUBLIC "-//W3C//DTD SVG 1.1//EN"
 "http://www.w3.org/Graphics/SVG/1.1/DTD/svg11.dtd">
<!-- Generated by graphviz version 2.49.3 (20211027.1534)
 -->
<!-- Title: get_installed_game Pages: 1 -->
<svg width="481pt" height="258pt"
 viewBox="0.00 0.00 481.00 258.00" xmlns="http://www.w3.org/2000/svg" xmlns:xlink="http://www.w3.org/1999/xlink">
<g id="graph0" class="graph" transform="scale(1 1) rotate(0) translate(4 254)">
<title>get_installed_game</title>
<polygon fill="white" stroke="transparent" points="-4,4 -4,-254 477,-254 477,4 -4,4"/>
<!-- Node1 -->
<g id="node1" class="node">
<title>Node1</title>
<g id="a_node1"><a xlink:title=" ">
<polygon fill="#bfbfbf" stroke="black" points="0,-140 0,-159 101,-159 101,-140 0,-140"/>
<text text-anchor="middle" x="50.5" y="-147" font-family="Helvetica,sans-Serif" font-size="10.00">get_installed_game</text>
</a>
</g>
</g>
<!-- Node1&#45;&gt;Node1 -->
<g id="edge1" class="edge">
<title>Node1&#45;&gt;Node1</title>
<path fill="none" stroke="midnightblue" d="M25.84,-159.26C13.84,-168.07 22.06,-177.5 50.5,-177.5 69.61,-177.5 79.59,-173.24 80.44,-167.77"/>
<polygon fill="midnightblue" stroke="midnightblue" points="83.4,-165.91 75.16,-159.26 77.45,-169.6 83.4,-165.91"/>
</g>
<!-- Node2 -->
<g id="node2" class="node">
<title>Node2</title>
<g id="a_node2"><a xlink:href="classrare_1_1components_1_1extra_1_1console_1_1_console.html#a4db0e98c238d6a69bdbf4b8cc59be732" target="_top" xlink:title=" ">
<polygon fill="white" stroke="black" points="137,-201.5 137,-231.5 287,-231.5 287,-201.5 137,-201.5"/>
<text text-anchor="start" x="145" y="-219.5" font-family="Helvetica,sans-Serif" font-size="10.00">rare.components.extra.console.</text>
<text text-anchor="middle" x="212" y="-208.5" font-family="Helvetica,sans-Serif" font-size="10.00">Console.log</text>
</a>
</g>
</g>
<!-- Node1&#45;&gt;Node2 -->
<g id="edge2" class="edge">
<title>Node1&#45;&gt;Node2</title>
<path fill="none" stroke="midnightblue" d="M68.5,-159.02C85.5,-168.3 112.56,-182.46 137,-192.5 141.64,-194.41 146.5,-196.27 151.41,-198.05"/>
<polygon fill="midnightblue" stroke="midnightblue" points="150.27,-201.36 160.87,-201.39 152.6,-194.76 150.27,-201.36"/>
</g>
<!-- Node3 -->
<g id="node3" class="node">
<title>Node3</title>
<g id="a_node3"><a xlink:href="classrare_1_1components_1_1extra_1_1console_1_1_console_edit.html#ac05aadedf6e1be5c365c818989f98d50" target="_top" xlink:title=" ">
<polygon fill="white" stroke="black" points="137,-134.5 137,-164.5 287,-164.5 287,-134.5 137,-134.5"/>
<text text-anchor="start" x="145" y="-152.5" font-family="Helvetica,sans-Serif" font-size="10.00">rare.components.extra.console.</text>
<text text-anchor="middle" x="212" y="-141.5" font-family="Helvetica,sans-Serif" font-size="10.00">ConsoleEdit.log</text>
</a>
</g>
</g>
<!-- Node1&#45;&gt;Node3 -->
<g id="edge4" class="edge">
<title>Node1&#45;&gt;Node3</title>
<path fill="none" stroke="midnightblue" d="M101.09,-149.5C109.24,-149.5 117.89,-149.5 126.6,-149.5"/>
<polygon fill="midnightblue" stroke="midnightblue" points="126.85,-153 136.85,-149.5 126.85,-146 126.85,-153"/>
</g>
<!-- Node5 -->
<g id="node5" class="node">
<title>Node5</title>
<g id="a_node5"><a xlink:href="classlegendary_1_1models_1_1manifest_1_1_chunk_info.html#a6b1e32f2c123c71cc748a37d174cbd0a" target="_top" xlink:title=" ">
<polygon fill="white" stroke="black" points="145,-67.5 145,-97.5 279,-97.5 279,-67.5 145,-67.5"/>
<text text-anchor="start" x="153" y="-85.5" font-family="Helvetica,sans-Serif" font-size="10.00">legendary.models.manifest.</text>
<text text-anchor="middle" x="212" y="-74.5" font-family="Helvetica,sans-Serif" font-size="10.00">ChunkInfo.path</text>
</a>
</g>
</g>
<!-- Node1&#45;&gt;Node5 -->
<g id="edge8" class="edge">
<title>Node1&#45;&gt;Node5</title>
<path fill="none" stroke="midnightblue" d="M74.35,-139.9C98.14,-129.91 136.01,-114 165.86,-101.46"/>
<polygon fill="midnightblue" stroke="midnightblue" points="167.38,-104.62 175.24,-97.52 164.66,-98.17 167.38,-104.62"/>
</g>
<!-- Node2&#45;&gt;Node2 -->
<g id="edge3" class="edge">
<title>Node2&#45;&gt;Node2</title>
<path fill="none" stroke="midnightblue" d="M184.12,-231.66C177.39,-241.06 186.69,-250 212,-250 227.42,-250 236.9,-246.68 240.43,-241.96"/>
<polygon fill="midnightblue" stroke="midnightblue" points="243.91,-241.46 239.88,-231.66 236.92,-241.83 243.91,-241.46"/>
</g>
<!-- Node3&#45;&gt;Node3 -->
<g id="edge5" class="edge">
<title>Node3&#45;&gt;Node3</title>
<path fill="none" stroke="midnightblue" d="M184.12,-164.66C177.39,-174.06 186.69,-183 212,-183 227.42,-183 236.9,-179.68 240.43,-174.96"/>
<polygon fill="midnightblue" stroke="midnightblue" points="243.91,-174.46 239.88,-164.66 236.92,-174.83 243.91,-174.46"/>
</g>
<!-- Node4 -->
<g id="node4" class="node">
<title>Node4</title>
<g id="a_node4"><a xlink:href="classrare_1_1components_1_1extra_1_1console_1_1_console_edit.html#ad89ca21019805240d01e41fe61cdbb56" target="_top" xlink:title=" ">
<polygon fill="white" stroke="black" points="323,-134.5 323,-164.5 473,-164.5 473,-134.5 323,-134.5"/>
<text text-anchor="start" x="331" y="-152.5" font-family="Helvetica,sans-Serif" font-size="10.00">rare.components.extra.console.</text>
<text text-anchor="middle" x="398" y="-141.5" font-family="Helvetica,sans-Serif" font-size="10.00">ConsoleEdit.scroll_to_last_line</text>
</a>
</g>
</g>
<!-- Node3&#45;&gt;Node4 -->
<g id="edge6" class="edge">
<title>Node3&#45;&gt;Node4</title>
<path fill="none" stroke="midnightblue" d="M287.04,-149.5C295.51,-149.5 304.19,-149.5 312.78,-149.5"/>
<polygon fill="midnightblue" stroke="midnightblue" points="312.81,-153 322.81,-149.5 312.81,-146 312.81,-153"/>
</g>
<!-- Node4&#45;&gt;Node4 -->
<g id="edge7" class="edge">
<title>Node4&#45;&gt;Node4</title>
<path fill="none" stroke="midnightblue" d="M365.93,-164.66C358.2,-174.06 368.89,-183 398,-183 415.74,-183 426.64,-179.68 430.69,-174.96"/>
<polygon fill="midnightblue" stroke="midnightblue" points="434.17,-174.43 430.07,-164.66 427.18,-174.85 434.17,-174.43"/>
</g>
<!-- Node5&#45;&gt;Node5 -->
<g id="edge13" class="edge">
<title>Node5&#45;&gt;Node5</title>
<path fill="none" stroke="midnightblue" d="M184.12,-97.66C177.39,-107.06 186.69,-116 212,-116 227.42,-116 236.9,-112.68 240.43,-107.96"/>
<polygon fill="midnightblue" stroke="midnightblue" points="243.91,-107.46 239.88,-97.66 236.92,-107.83 243.91,-107.46"/>
</g>
<!-- Node6 -->
<g id="node6" class="node">
<title>Node6</title>
<g id="a_node6"><a xlink:href="namespacelegendary_1_1models_1_1manifest.html#a221860029661c07ad8ce093079cf09ac" target="_top" xlink:title=" ">
<polygon fill="white" stroke="black" points="324.5,-67.5 324.5,-97.5 471.5,-97.5 471.5,-67.5 324.5,-67.5"/>
<text text-anchor="start" x="332.5" y="-85.5" font-family="Helvetica,sans-Serif" font-size="10.00">legendary.models.manifest.get</text>
<text text-anchor="middle" x="398" y="-74.5" font-family="Helvetica,sans-Serif" font-size="10.00">_chunk_dir</text>
</a>
</g>
</g>
<!-- Node5&#45;&gt;Node6 -->
<g id="edge9" class="edge">
<title>Node5&#45;&gt;Node6</title>
<path fill="none" stroke="midnightblue" d="M279.17,-82.5C290.48,-82.5 302.37,-82.5 314.05,-82.5"/>
<polygon fill="midnightblue" stroke="midnightblue" points="314.25,-86 324.25,-82.5 314.25,-79 314.25,-86"/>
</g>
<!-- Node7 -->
<g id="node7" class="node">
<title>Node7</title>
<g id="a_node7"><a xlink:href="classlegendary_1_1models_1_1manifest_1_1_chunk_info.html#ae98d4cfdc3a64178222b88d61255a5ad" target="_top" xlink:title=" ">
<polygon fill="white" stroke="black" points="331,-0.5 331,-30.5 465,-30.5 465,-0.5 331,-0.5"/>
<text text-anchor="start" x="339" y="-18.5" font-family="Helvetica,sans-Serif" font-size="10.00">legendary.models.manifest.</text>
<text text-anchor="middle" x="398" y="-7.5" font-family="Helvetica,sans-Serif" font-size="10.00">ChunkInfo.group_num</text>
</a>
</g>
</g>
<!-- Node5&#45;&gt;Node7 -->
<g id="edge11" class="edge">
<title>Node5&#45;&gt;Node7</title>
<path fill="none" stroke="midnightblue" d="M254.29,-67.46C281.42,-57.58 317.11,-44.59 346.01,-34.07"/>
<polygon fill="midnightblue" stroke="midnightblue" points="347.33,-37.31 355.53,-30.6 344.93,-30.73 347.33,-37.31"/>
</g>
<!-- Node6&#45;&gt;Node6 -->
<g id="edge10" class="edge">
<title>Node6&#45;&gt;Node6</title>
<path fill="none" stroke="midnightblue" d="M365.93,-97.66C358.2,-107.06 368.89,-116 398,-116 415.74,-116 426.64,-112.68 430.69,-107.96"/>
<polygon fill="midnightblue" stroke="midnightblue" points="434.17,-107.43 430.07,-97.66 427.18,-107.85 434.17,-107.43"/>
</g>
<!-- Node7&#45;&gt;Node7 -->
<g id="edge12" class="edge">
<title>Node7&#45;&gt;Node7</title>
<path fill="none" stroke="midnightblue" d="M365.93,-30.66C358.2,-40.06 368.89,-49 398,-49 415.74,-49 426.64,-45.68 430.69,-40.96"/>
<polygon fill="midnightblue" stroke="midnightblue" points="434.17,-40.43 430.07,-30.66 427.18,-40.85 434.17,-40.43"/>
</g>
</g>
</svg>
