<?xml version="1.0" encoding="UTF-8" standalone="no"?>
<!DOCTYPE svg PUBLIC "-//W3C//DTD SVG 1.1//EN"
 "http://www.w3.org/Graphics/SVG/1.1/DTD/svg11.dtd">
<!-- Generated by graphviz version 2.49.3 (20211027.1534)
 -->
<!-- Title: WishlistItemWidget Pages: 1 -->
<svg width="149pt" height="745pt"
 viewBox="0.00 0.00 149.00 745.00" xmlns="http://www.w3.org/2000/svg" xmlns:xlink="http://www.w3.org/1999/xlink">
<g id="graph0" class="graph" transform="scale(1 1) rotate(0) translate(4 741)">
<title>WishlistItemWidget</title>
<polygon fill="white" stroke="transparent" points="-4,4 -4,-741 145,-741 145,4 -4,4"/>
<!-- Node1 -->
<g id="node1" class="node">
<title>Node1</title>
<g id="a_node1"><a xlink:title=" ">
<polygon fill="#bfbfbf" stroke="black" points="13.5,-0.5 13.5,-68.5 127.5,-68.5 127.5,-0.5 13.5,-0.5"/>
<text text-anchor="middle" x="70.5" y="-56.5" font-family="Helvetica,sans-Serif" font-size="10.00">WishlistItemWidget</text>
<polyline fill="none" stroke="black" points="13.5,-49.5 127.5,-49.5 "/>
<text text-anchor="start" x="21.5" y="-37.5" font-family="Helvetica,sans-Serif" font-size="10.00">+ delete_button</text>
<text text-anchor="start" x="21.5" y="-26.5" font-family="Helvetica,sans-Serif" font-size="10.00">+ delete_from_wishlist</text>
<polyline fill="none" stroke="black" points="13.5,-19.5 127.5,-19.5 "/>
<text text-anchor="start" x="21.5" y="-7.5" font-family="Helvetica,sans-Serif" font-size="10.00">+ __init__()</text>
</a>
</g>
</g>
<!-- Node2 -->
<g id="node2" class="node">
<title>Node2</title>
<g id="a_node2"><a xlink:href="classrare_1_1components_1_1tabs_1_1store_1_1widgets_1_1items_1_1_item_widget_spinner.html" target="_top" xlink:title=" ">
<polygon fill="white" stroke="black" points="15.5,-105.5 15.5,-195.5 125.5,-195.5 125.5,-105.5 15.5,-105.5"/>
<text text-anchor="middle" x="70.5" y="-183.5" font-family="Helvetica,sans-Serif" font-size="10.00">ItemWidgetSpinner</text>
<polyline fill="none" stroke="black" points="15.5,-176.5 125.5,-176.5 "/>
<text text-anchor="start" x="23.5" y="-164.5" font-family="Helvetica,sans-Serif" font-size="10.00">+ ui</text>
<text text-anchor="start" x="23.5" y="-153.5" font-family="Helvetica,sans-Serif" font-size="10.00">+ catalog_game</text>
<text text-anchor="start" x="23.5" y="-142.5" font-family="Helvetica,sans-Serif" font-size="10.00">+ show_details</text>
<polyline fill="none" stroke="black" points="15.5,-135.5 125.5,-135.5 "/>
<text text-anchor="start" x="23.5" y="-123.5" font-family="Helvetica,sans-Serif" font-size="10.00">+ __init__()</text>
<text text-anchor="start" x="23.5" y="-112.5" font-family="Helvetica,sans-Serif" font-size="10.00">+ mousePressEvent()</text>
</a>
</g>
</g>
<!-- Node2&#45;&gt;Node1 -->
<g id="edge1" class="edge">
<title>Node2&#45;&gt;Node1</title>
<path fill="none" stroke="midnightblue" d="M70.5,-95.32C70.5,-86.28 70.5,-77.16 70.5,-68.85"/>
<polygon fill="none" stroke="midnightblue" points="67,-95.42 70.5,-105.42 74,-95.42 67,-95.42"/>
</g>
<!-- Node3 -->
<g id="node3" class="node">
<title>Node3</title>
<g id="a_node3"><a xlink:href="classrare_1_1widgets_1_1image__widget_1_1_loading_spinner_image_widget.html" target="_top" xlink:title=" ">
<polygon fill="white" stroke="black" points="0,-232.5 0,-300.5 141,-300.5 141,-232.5 0,-232.5"/>
<text text-anchor="middle" x="70.5" y="-288.5" font-family="Helvetica,sans-Serif" font-size="10.00">LoadingSpinnerImageWidget</text>
<polyline fill="none" stroke="black" points="0,-281.5 141,-281.5 "/>
<text text-anchor="start" x="8" y="-269.5" font-family="Helvetica,sans-Serif" font-size="10.00">+ spinner</text>
<polyline fill="none" stroke="black" points="0,-262.5 141,-262.5 "/>
<text text-anchor="start" x="8" y="-250.5" font-family="Helvetica,sans-Serif" font-size="10.00">+ __init__()</text>
<text text-anchor="start" x="8" y="-239.5" font-family="Helvetica,sans-Serif" font-size="10.00">+ fetchPixmap()</text>
</a>
</g>
</g>
<!-- Node3&#45;&gt;Node2 -->
<g id="edge2" class="edge">
<title>Node3&#45;&gt;Node2</title>
<path fill="none" stroke="midnightblue" d="M70.5,-221.97C70.5,-213.35 70.5,-204.28 70.5,-195.64"/>
<polygon fill="none" stroke="midnightblue" points="67,-222.22 70.5,-232.22 74,-222.22 67,-222.22"/>
</g>
<!-- Node4 -->
<g id="node4" class="node">
<title>Node4</title>
<g id="a_node4"><a xlink:href="classrare_1_1widgets_1_1image__widget_1_1_loading_image_widget.html" target="_top" xlink:title=" ">
<polygon fill="white" stroke="black" points="16.5,-337.5 16.5,-405.5 124.5,-405.5 124.5,-337.5 16.5,-337.5"/>
<text text-anchor="middle" x="70.5" y="-393.5" font-family="Helvetica,sans-Serif" font-size="10.00">LoadingImageWidget</text>
<polyline fill="none" stroke="black" points="16.5,-386.5 124.5,-386.5 "/>
<text text-anchor="start" x="24.5" y="-374.5" font-family="Helvetica,sans-Serif" font-size="10.00">+ manager</text>
<polyline fill="none" stroke="black" points="16.5,-367.5 124.5,-367.5 "/>
<text text-anchor="start" x="24.5" y="-355.5" font-family="Helvetica,sans-Serif" font-size="10.00">+ __init__()</text>
<text text-anchor="start" x="24.5" y="-344.5" font-family="Helvetica,sans-Serif" font-size="10.00">+ fetchPixmap()</text>
</a>
</g>
</g>
<!-- Node4&#45;&gt;Node3 -->
<g id="edge3" class="edge">
<title>Node4&#45;&gt;Node3</title>
<path fill="none" stroke="midnightblue" d="M70.5,-327.14C70.5,-318.26 70.5,-309.04 70.5,-300.59"/>
<polygon fill="none" stroke="midnightblue" points="67,-327.34 70.5,-337.34 74,-327.34 67,-327.34"/>
</g>
<!-- Node5 -->
<g id="node5" class="node">
<title>Node5</title>
<g id="a_node5"><a xlink:href="classrare_1_1widgets_1_1image__widget_1_1_image_widget.html" target="_top" xlink:title=" ">
<polygon fill="white" stroke="black" points="6.5,-442.5 6.5,-642.5 134.5,-642.5 134.5,-442.5 6.5,-442.5"/>
<text text-anchor="middle" x="70.5" y="-630.5" font-family="Helvetica,sans-Serif" font-size="10.00">ImageWidget</text>
<polyline fill="none" stroke="black" points="6.5,-623.5 134.5,-623.5 "/>
<text text-anchor="start" x="14.5" y="-611.5" font-family="Helvetica,sans-Serif" font-size="10.00">+ paint_image</text>
<text text-anchor="start" x="14.5" y="-600.5" font-family="Helvetica,sans-Serif" font-size="10.00">+ paint_overlay</text>
<text text-anchor="start" x="14.5" y="-589.5" font-family="Helvetica,sans-Serif" font-size="10.00">+ None</text>
<polyline fill="none" stroke="black" points="6.5,-582.5 134.5,-582.5 "/>
<text text-anchor="start" x="14.5" y="-570.5" font-family="Helvetica,sans-Serif" font-size="10.00">+ __init__()</text>
<text text-anchor="start" x="14.5" y="-559.5" font-family="Helvetica,sans-Serif" font-size="10.00">+ setOpacity()</text>
<text text-anchor="start" x="14.5" y="-548.5" font-family="Helvetica,sans-Serif" font-size="10.00">+ setPixmap()</text>
<text text-anchor="start" x="14.5" y="-537.5" font-family="Helvetica,sans-Serif" font-size="10.00">+ sizeHint()</text>
<text text-anchor="start" x="14.5" y="-526.5" font-family="Helvetica,sans-Serif" font-size="10.00">+ minimumSizeHint()</text>
<text text-anchor="start" x="14.5" y="-515.5" font-family="Helvetica,sans-Serif" font-size="10.00">+ setFixedSize()</text>
<text text-anchor="start" x="14.5" y="-504.5" font-family="Helvetica,sans-Serif" font-size="10.00">+ setBorder()</text>
<text text-anchor="start" x="14.5" y="-493.5" font-family="Helvetica,sans-Serif" font-size="10.00">+ paint_image_empty()</text>
<text text-anchor="start" x="14.5" y="-482.5" font-family="Helvetica,sans-Serif" font-size="10.00">+ paint_image_cover()</text>
<text text-anchor="start" x="14.5" y="-471.5" font-family="Helvetica,sans-Serif" font-size="10.00">+ paint_overlay_rounded()</text>
<text text-anchor="start" x="14.5" y="-460.5" font-family="Helvetica,sans-Serif" font-size="10.00">+ paint_overlay_squared()</text>
<text text-anchor="start" x="14.5" y="-449.5" font-family="Helvetica,sans-Serif" font-size="10.00">+ paintEvent()</text>
</a>
</g>
</g>
<!-- Node5&#45;&gt;Node4 -->
<g id="edge4" class="edge">
<title>Node5&#45;&gt;Node4</title>
<path fill="none" stroke="midnightblue" d="M70.5,-431.92C70.5,-422.58 70.5,-413.68 70.5,-405.75"/>
<polygon fill="none" stroke="midnightblue" points="67,-432.21 70.5,-442.21 74,-432.21 67,-432.21"/>
</g>
<!-- Node6 -->
<g id="node6" class="node">
<title>Node6</title>
<g id="a_node6"><a xlink:title=" ">
<polygon fill="white" stroke="#bfbfbf" points="43.5,-679.5 43.5,-736.5 97.5,-736.5 97.5,-679.5 43.5,-679.5"/>
<text text-anchor="middle" x="70.5" y="-724.5" font-family="Helvetica,sans-Serif" font-size="10.00">QWidget</text>
<polyline fill="none" stroke="#bfbfbf" points="43.5,-717.5 97.5,-717.5 "/>
<text text-anchor="middle" x="70.5" y="-705.5" font-family="Helvetica,sans-Serif" font-size="10.00"> </text>
<polyline fill="none" stroke="#bfbfbf" points="43.5,-698.5 97.5,-698.5 "/>
<text text-anchor="middle" x="70.5" y="-686.5" font-family="Helvetica,sans-Serif" font-size="10.00"> </text>
</a>
</g>
</g>
<!-- Node6&#45;&gt;Node5 -->
<g id="edge5" class="edge">
<title>Node6&#45;&gt;Node5</title>
<path fill="none" stroke="midnightblue" d="M70.5,-669.04C70.5,-660.87 70.5,-651.87 70.5,-642.55"/>
<polygon fill="none" stroke="midnightblue" points="67,-669.26 70.5,-679.26 74,-669.26 67,-669.26"/>
</g>
</g>
</svg>
