<?xml version="1.0" encoding="UTF-8" standalone="no"?>
<!DOCTYPE svg PUBLIC "-//W3C//DTD SVG 1.1//EN"
 "http://www.w3.org/Graphics/SVG/1.1/DTD/svg11.dtd">
<!-- Generated by graphviz version 2.49.3 (20211027.1534)
 -->
<!-- Title: update_wishlist Pages: 1 -->
<svg width="455pt" height="80pt"
 viewBox="0.00 0.00 455.00 79.50" xmlns="http://www.w3.org/2000/svg" xmlns:xlink="http://www.w3.org/1999/xlink">
<g id="graph0" class="graph" transform="scale(1 1) rotate(0) translate(4 75.5)">
<title>update_wishlist</title>
<polygon fill="white" stroke="transparent" points="-4,4 -4,-75.5 451,-75.5 451,4 -4,4"/>
<!-- Node1 -->
<g id="node1" class="node">
<title>Node1</title>
<g id="a_node1"><a xlink:title=" ">
<polygon fill="#bfbfbf" stroke="black" points="0,-28.5 0,-47.5 84,-47.5 84,-28.5 0,-28.5"/>
<text text-anchor="middle" x="42" y="-35.5" font-family="Helvetica,sans-Serif" font-size="10.00">update_wishlist</text>
</a>
</g>
</g>
<!-- Node1&#45;&gt;Node1 -->
<g id="edge6" class="edge">
<title>Node1&#45;&gt;Node1</title>
<path fill="none" stroke="midnightblue" d="M22.27,-47.76C12.67,-56.57 19.25,-66 42,-66 56.57,-66 64.51,-62.13 65.81,-57.03"/>
<polygon fill="midnightblue" stroke="midnightblue" points="68.96,-55.5 61.73,-47.76 62.55,-58.32 68.96,-55.5"/>
</g>
<!-- Node2 -->
<g id="node2" class="node">
<title>Node2</title>
<g id="a_node2"><a xlink:href="classrare_1_1components_1_1tabs_1_1store_1_1game__info_1_1_shop_game_info.html#a3fc8c31e9c09c30d1480d83be79cd5bd" target="_top" xlink:title=" ">
<polygon fill="white" stroke="black" points="256,-23 256,-53 447,-53 447,-23 256,-23"/>
<text text-anchor="start" x="264" y="-41" font-family="Helvetica,sans-Serif" font-size="10.00">rare.components.tabs.store.game</text>
<text text-anchor="middle" x="351.5" y="-30" font-family="Helvetica,sans-Serif" font-size="10.00">_info.ShopGameInfo.add_wishlist_items</text>
</a>
</g>
</g>
<!-- Node1&#45;&gt;Node2 -->
<g id="edge1" class="edge">
<title>Node1&#45;&gt;Node2</title>
<path fill="none" stroke="midnightblue" d="M84.08,-43.7C95.67,-45.06 108.31,-46.32 120,-47 161.1,-49.39 206.36,-48.41 245.81,-46.38"/>
<polygon fill="midnightblue" stroke="midnightblue" points="246.18,-49.87 255.98,-45.83 245.8,-42.88 246.18,-49.87"/>
</g>
<!-- Node3 -->
<g id="node3" class="node">
<title>Node3</title>
<g id="a_node3"><a xlink:href="classrare_1_1components_1_1tabs_1_1store_1_1shop__widget_1_1_shop_widget.html#a3fc8c31e9c09c30d1480d83be79cd5bd" target="_top" xlink:title=" ">
<polygon fill="white" stroke="black" points="120,-0.5 120,-19.5 220,-19.5 220,-0.5 120,-0.5"/>
<text text-anchor="middle" x="170" y="-7.5" font-family="Helvetica,sans-Serif" font-size="10.00">add_wishlist_items</text>
</a>
</g>
</g>
<!-- Node1&#45;&gt;Node3 -->
<g id="edge3" class="edge">
<title>Node1&#45;&gt;Node3</title>
<path fill="none" stroke="midnightblue" d="M84.26,-28.83C94.37,-26.58 105.34,-24.15 115.93,-21.79"/>
<polygon fill="midnightblue" stroke="midnightblue" points="116.92,-25.16 125.92,-19.57 115.4,-18.33 116.92,-25.16"/>
</g>
<!-- Node2&#45;&gt;Node2 -->
<g id="edge2" class="edge">
<title>Node2&#45;&gt;Node2</title>
<path fill="none" stroke="midnightblue" d="M320.13,-53.16C312.57,-62.56 323.02,-71.5 351.5,-71.5 368.85,-71.5 379.51,-68.18 383.48,-63.46"/>
<polygon fill="midnightblue" stroke="midnightblue" points="386.96,-62.93 382.87,-53.16 379.97,-63.35 386.96,-62.93"/>
</g>
<!-- Node3&#45;&gt;Node2 -->
<g id="edge4" class="edge">
<title>Node3&#45;&gt;Node2</title>
<path fill="none" stroke="midnightblue" d="M220.05,-17.65C228.19,-18.92 236.91,-20.28 245.82,-21.67"/>
<polygon fill="midnightblue" stroke="midnightblue" points="245.53,-25.17 255.95,-23.25 246.61,-18.25 245.53,-25.17"/>
</g>
<!-- Node3&#45;&gt;Node3 -->
<g id="edge5" class="edge">
<title>Node3&#45;&gt;Node3</title>
<path fill="none" stroke="midnightblue" d="M150.27,-19.76C140.67,-28.57 147.25,-38 170,-38 184.57,-38 192.51,-34.13 193.81,-29.03"/>
<polygon fill="midnightblue" stroke="midnightblue" points="196.96,-27.5 189.73,-19.76 190.55,-30.32 196.96,-27.5"/>
</g>
</g>
</svg>
