<?xml version="1.0" encoding="UTF-8" standalone="no"?>
<!DOCTYPE svg PUBLIC "-//W3C//DTD SVG 1.1//EN"
 "http://www.w3.org/Graphics/SVG/1.1/DTD/svg11.dtd">
<!-- Generated by graphviz version 2.49.3 (20211027.1534)
 -->
<!-- Title: handle_toggle Pages: 1 -->
<svg width="297pt" height="270pt"
 viewBox="0.00 0.00 297.00 269.50" xmlns="http://www.w3.org/2000/svg" xmlns:xlink="http://www.w3.org/1999/xlink">
<g id="graph0" class="graph" transform="scale(1 1) rotate(0) translate(4 265.5)">
<title>handle_toggle</title>
<polygon fill="white" stroke="transparent" points="-4,4 -4,-265.5 293,-265.5 293,4 -4,4"/>
<!-- Node1 -->
<g id="node1" class="node">
<title>Node1</title>
<g id="a_node1"><a xlink:title=" ">
<polygon fill="#bfbfbf" stroke="black" points="0,-117.5 0,-136.5 77,-136.5 77,-117.5 0,-117.5"/>
<text text-anchor="middle" x="38.5" y="-124.5" font-family="Helvetica,sans-Serif" font-size="10.00">handle_toggle</text>
</a>
</g>
</g>
<!-- Node1&#45;&gt;Node1 -->
<g id="edge1" class="edge">
<title>Node1&#45;&gt;Node1</title>
<path fill="none" stroke="midnightblue" d="M13.53,-136.76C1.38,-145.57 9.71,-155 38.5,-155 57.85,-155 67.95,-150.74 68.81,-145.27"/>
<polygon fill="midnightblue" stroke="midnightblue" points="71.75,-143.37 63.47,-136.76 65.82,-147.09 71.75,-143.37"/>
</g>
<!-- Node2 -->
<g id="node2" class="node">
<title>Node2</title>
<g id="a_node2"><a xlink:href="classrare_1_1components_1_1dialogs_1_1install__dialog_1_1_tag_check_box.html#acf3a93e2b0705f28b833cc1031b949a6" target="_top" xlink:title=" ">
<polygon fill="white" stroke="black" points="122,-213 122,-243 280,-243 280,-213 122,-213"/>
<text text-anchor="start" x="130" y="-231" font-family="Helvetica,sans-Serif" font-size="10.00">rare.components.dialogs.install</text>
<text text-anchor="middle" x="201" y="-220" font-family="Helvetica,sans-Serif" font-size="10.00">_dialog.TagCheckBox.isChecked</text>
</a>
</g>
</g>
<!-- Node1&#45;&gt;Node2 -->
<g id="edge2" class="edge">
<title>Node1&#45;&gt;Node2</title>
<path fill="none" stroke="midnightblue" d="M45.99,-136.64C57.52,-153 83.18,-186.17 113,-204 115.98,-205.78 119.1,-207.44 122.31,-208.97"/>
<polygon fill="midnightblue" stroke="midnightblue" points="120.98,-212.21 131.55,-212.98 123.77,-205.79 120.98,-212.21"/>
</g>
<!-- Node3 -->
<g id="node3" class="node">
<title>Node3</title>
<g id="a_node3"><a xlink:href="classrare_1_1widgets_1_1collapsible__widget_1_1_collapsible_base.html#adfad5211860514a9e4d582cba44fc4f4" target="_top" xlink:title=" ">
<polygon fill="white" stroke="black" points="116,-146 116,-176 286,-176 286,-146 116,-146"/>
<text text-anchor="start" x="124" y="-164" font-family="Helvetica,sans-Serif" font-size="10.00">rare.widgets.collapsible</text>
<text text-anchor="middle" x="201" y="-153" font-family="Helvetica,sans-Serif" font-size="10.00">_widget.CollapsibleBase.isChecked</text>
</a>
</g>
</g>
<!-- Node1&#45;&gt;Node3 -->
<g id="edge4" class="edge">
<title>Node1&#45;&gt;Node3</title>
<path fill="none" stroke="midnightblue" d="M77.13,-134.97C89.7,-137.63 104.24,-140.71 118.82,-143.8"/>
<polygon fill="midnightblue" stroke="midnightblue" points="118.39,-147.29 128.9,-145.94 119.84,-140.44 118.39,-147.29"/>
</g>
<!-- Node4 -->
<g id="node4" class="node">
<title>Node4</title>
<g id="a_node4"><a xlink:href="classrare_1_1widgets_1_1collapsible__widget_1_1_collapsible_frame.html#adfad5211860514a9e4d582cba44fc4f4" target="_top" xlink:title=" ">
<polygon fill="white" stroke="black" points="113,-79 113,-109 289,-109 289,-79 113,-79"/>
<text text-anchor="start" x="121" y="-97" font-family="Helvetica,sans-Serif" font-size="10.00">rare.widgets.collapsible</text>
<text text-anchor="middle" x="201" y="-86" font-family="Helvetica,sans-Serif" font-size="10.00">_widget.CollapsibleFrame.isChecked</text>
</a>
</g>
</g>
<!-- Node1&#45;&gt;Node4 -->
<g id="edge6" class="edge">
<title>Node1&#45;&gt;Node4</title>
<path fill="none" stroke="midnightblue" d="M77.13,-119.26C89.13,-116.79 102.93,-113.96 116.84,-111.1"/>
<polygon fill="midnightblue" stroke="midnightblue" points="117.88,-114.46 126.97,-109.02 116.47,-107.6 117.88,-114.46"/>
</g>
<!-- Node5 -->
<g id="node5" class="node">
<title>Node5</title>
<g id="a_node5"><a xlink:href="classrare_1_1widgets_1_1collapsible__widget_1_1_collapsible_group_box.html#adfad5211860514a9e4d582cba44fc4f4" target="_top" xlink:title=" ">
<polygon fill="white" stroke="black" points="125,-0.5 125,-41.5 277,-41.5 277,-0.5 125,-0.5"/>
<text text-anchor="start" x="133" y="-29.5" font-family="Helvetica,sans-Serif" font-size="10.00">rare.widgets.collapsible</text>
<text text-anchor="start" x="133" y="-18.5" font-family="Helvetica,sans-Serif" font-size="10.00">_widget.CollapsibleGroupBox.is</text>
<text text-anchor="middle" x="201" y="-7.5" font-family="Helvetica,sans-Serif" font-size="10.00">Checked</text>
</a>
</g>
</g>
<!-- Node1&#45;&gt;Node5 -->
<g id="edge8" class="edge">
<title>Node1&#45;&gt;Node5</title>
<path fill="none" stroke="midnightblue" d="M51.07,-117.17C65.22,-105.34 90.13,-85.19 113,-70 125.32,-61.82 139.09,-53.65 151.98,-46.39"/>
<polygon fill="midnightblue" stroke="midnightblue" points="153.69,-49.44 160.73,-41.52 150.29,-43.32 153.69,-49.44"/>
</g>
<!-- Node2&#45;&gt;Node2 -->
<g id="edge3" class="edge">
<title>Node2&#45;&gt;Node2</title>
<path fill="none" stroke="midnightblue" d="M172.77,-243.16C165.96,-252.56 175.37,-261.5 201,-261.5 216.62,-261.5 226.21,-258.18 229.79,-253.46"/>
<polygon fill="midnightblue" stroke="midnightblue" points="233.26,-252.96 229.23,-243.16 226.27,-253.33 233.26,-252.96"/>
</g>
<!-- Node3&#45;&gt;Node3 -->
<g id="edge5" class="edge">
<title>Node3&#45;&gt;Node3</title>
<path fill="none" stroke="midnightblue" d="M172.77,-176.16C165.96,-185.56 175.37,-194.5 201,-194.5 216.62,-194.5 226.21,-191.18 229.79,-186.46"/>
<polygon fill="midnightblue" stroke="midnightblue" points="233.26,-185.96 229.23,-176.16 226.27,-186.33 233.26,-185.96"/>
</g>
<!-- Node4&#45;&gt;Node4 -->
<g id="edge7" class="edge">
<title>Node4&#45;&gt;Node4</title>
<path fill="none" stroke="midnightblue" d="M172.77,-109.16C165.96,-118.56 175.37,-127.5 201,-127.5 216.62,-127.5 226.21,-124.18 229.79,-119.46"/>
<polygon fill="midnightblue" stroke="midnightblue" points="233.26,-118.96 229.23,-109.16 226.27,-119.33 233.26,-118.96"/>
</g>
<!-- Node5&#45;&gt;Node5 -->
<g id="edge9" class="edge">
<title>Node5&#45;&gt;Node5</title>
<path fill="none" stroke="midnightblue" d="M171.23,-41.86C167.98,-51.54 177.9,-60 201,-60 215.44,-60 224.73,-56.7 228.87,-51.86"/>
<polygon fill="midnightblue" stroke="midnightblue" points="232.34,-52.34 230.77,-41.86 225.46,-51.03 232.34,-52.34"/>
</g>
</g>
</svg>
