<?xml version="1.0" encoding="UTF-8" standalone="no"?>
<!DOCTYPE svg PUBLIC "-//W3C//DTD SVG 1.1//EN"
 "http://www.w3.org/Graphics/SVG/1.1/DTD/svg11.dtd">
<!-- Generated by graphviz version 2.49.3 (20211027.1534)
 -->
<!-- Title: Ui_LandingPage Pages: 1 -->
<svg width="119pt" height="226pt"
 viewBox="0.00 0.00 119.00 226.00" xmlns="http://www.w3.org/2000/svg" xmlns:xlink="http://www.w3.org/1999/xlink">
<g id="graph0" class="graph" transform="scale(1 1) rotate(0) translate(4 222)">
<title>Ui_LandingPage</title>
<polygon fill="white" stroke="transparent" points="-4,4 -4,-222 115,-222 115,4 -4,4"/>
<!-- Node1 -->
<g id="node1" class="node">
<title>Node1</title>
<g id="a_node1"><a xlink:title=" ">
<polygon fill="#bfbfbf" stroke="black" points="0,-0.5 0,-123.5 111,-123.5 111,-0.5 0,-0.5"/>
<text text-anchor="middle" x="55.5" y="-111.5" font-family="Helvetica,sans-Serif" font-size="10.00">Ui_LandingPage</text>
<polyline fill="none" stroke="black" points="0,-104.5 111,-104.5 "/>
<text text-anchor="start" x="8" y="-92.5" font-family="Helvetica,sans-Serif" font-size="10.00">+ landing_layout</text>
<text text-anchor="start" x="8" y="-81.5" font-family="Helvetica,sans-Serif" font-size="10.00">+ login_label</text>
<text text-anchor="start" x="8" y="-70.5" font-family="Helvetica,sans-Serif" font-size="10.00">+ login_browser_radio</text>
<text text-anchor="start" x="8" y="-59.5" font-family="Helvetica,sans-Serif" font-size="10.00">+ login_import_radio</text>
<text text-anchor="start" x="8" y="-48.5" font-family="Helvetica,sans-Serif" font-size="10.00">+ login_browser_label</text>
<text text-anchor="start" x="8" y="-37.5" font-family="Helvetica,sans-Serif" font-size="10.00">+ login_import_label</text>
<polyline fill="none" stroke="black" points="0,-30.5 111,-30.5 "/>
<text text-anchor="start" x="8" y="-18.5" font-family="Helvetica,sans-Serif" font-size="10.00">+ setupUi()</text>
<text text-anchor="start" x="8" y="-7.5" font-family="Helvetica,sans-Serif" font-size="10.00">+ retranslateUi()</text>
</a>
</g>
</g>
<!-- Node2 -->
<g id="node2" class="node">
<title>Node2</title>
<g id="a_node2"><a xlink:title=" ">
<polygon fill="white" stroke="#bfbfbf" points="34,-160.5 34,-217.5 77,-217.5 77,-160.5 34,-160.5"/>
<text text-anchor="middle" x="55.5" y="-205.5" font-family="Helvetica,sans-Serif" font-size="10.00">object</text>
<polyline fill="none" stroke="#bfbfbf" points="34,-198.5 77,-198.5 "/>
<text text-anchor="middle" x="55.5" y="-186.5" font-family="Helvetica,sans-Serif" font-size="10.00"> </text>
<polyline fill="none" stroke="#bfbfbf" points="34,-179.5 77,-179.5 "/>
<text text-anchor="middle" x="55.5" y="-167.5" font-family="Helvetica,sans-Serif" font-size="10.00"> </text>
</a>
</g>
</g>
<!-- Node2&#45;&gt;Node1 -->
<g id="edge1" class="edge">
<title>Node2&#45;&gt;Node1</title>
<path fill="none" stroke="midnightblue" d="M55.5,-150.1C55.5,-141.74 55.5,-132.68 55.5,-123.67"/>
<polygon fill="none" stroke="midnightblue" points="52,-150.26 55.5,-160.26 59,-150.26 52,-150.26"/>
</g>
</g>
</svg>
