<?xml version="1.0" encoding="UTF-8" standalone="no"?>
<!DOCTYPE svg PUBLIC "-//W3C//DTD SVG 1.1//EN"
 "http://www.w3.org/Graphics/SVG/1.1/DTD/svg11.dtd">
<!-- Generated by graphviz version 2.49.3 (20211027.1534)
 -->
<!-- Title: start_prepare Pages: 1 -->
<!--zoomable 322 -->
<svg id="main" version="1.1" xmlns="http://www.w3.org/2000/svg" xmlns:xlink="http://www.w3.org/1999/xlink" xml:space="preserve" onload="init(evt)">
<style type="text/css"><![CDATA[
.edge:hover path { stroke: red; }
.edge:hover polygon { stroke: red; fill: red; }
]]></style>
<script type="text/javascript"><![CDATA[
var edges = document.getElementsByTagName('g');
if (edges && edges.length) {
  for (var i=0;i<edges.length;i++) {
    if (edges[i].id.substr(0,4)=='edge') {
      edges[i].setAttribute('class','edge');
    }
  }
}
]]></script>
        <defs>
                <circle id="rim" cx="0" cy="0" r="7"/>
                <circle id="rim2" cx="0" cy="0" r="3.5"/>
                <g id="zoomPlus">
                        <use xlink:href="#rim" fill="#404040">
                                <set attributeName="fill" to="#808080" begin="zoomplus.mouseover" end="zoomplus.mouseout"/>
                        </use>
                        <path d="M-4,0h8M0,-4v8" fill="none" stroke="white" stroke-width="1.5" pointer-events="none"/>
                </g>
                <g id="zoomMin">
                        <use xlink:href="#rim" fill="#404040">
                                <set attributeName="fill" to="#808080" begin="zoomminus.mouseover" end="zoomminus.mouseout"/>
                        </use>
                        <path d="M-4,0h8" fill="none" stroke="white" stroke-width="1.5" pointer-events="none"/>
                </g>
                <g id="dirArrow">
                        <path fill="none" stroke="white" stroke-width="1.5" d="M0,-3.0v7 M-2.5,-0.5L0,-3.0L2.5,-0.5"/>
                </g>
               <g id="resetDef">
                       <use xlink:href="#rim2" fill="#404040">
                               <set attributeName="fill" to="#808080" begin="reset.mouseover" end="reset.mouseout"/>
                       </use>
               </g>
        </defs>

<script type="text/javascript">
var viewWidth = 647;
var viewHeight = 322;
var sectionId = 'dynsection-20';
</script>
<script xlink:href="svgpan.js"/>
<svg id="graph" class="graph">
<g id="viewport">
<title>start_prepare</title>
<polygon fill="white" stroke="transparent" points="-4,4 -4,-317.5 643,-317.5 643,4 -4,4"/>
<!-- Node1 -->
<g id="node1" class="node">
<title>Node1</title>
<g id="a_node1"><a xlink:title=" ">
<polygon fill="#bfbfbf" stroke="black" points="0,-84.5 0,-103.5 74,-103.5 74,-84.5 0,-84.5"/>
<text text-anchor="middle" x="37" y="-91.5" font-family="Helvetica,sans-Serif" font-size="10.00">start_prepare</text>
</a>
</g>
</g>
<!-- Node1&#45;&gt;Node1 -->
<g id="edge29" class="edge">
<title>Node1&#45;&gt;Node1</title>
<path fill="none" stroke="midnightblue" d="M20.05,-103.76C11.8,-112.57 17.45,-122 37,-122 49.22,-122 56.01,-118.31 57.37,-113.4"/>
<polygon fill="midnightblue" stroke="midnightblue" points="60.59,-112.01 53.95,-103.76 53.99,-114.35 60.59,-112.01"/>
</g>
<!-- Node2 -->
<g id="node2" class="node">
<title>Node2</title>
<g id="a_node2"><a xlink:href="classrare_1_1shared_1_1rare__core_1_1_rare_core.html#a673cb72b40e8c1b2dfab6dbc0e0e39e4" target="_top" xlink:title=" ">
<polygon fill="white" stroke="black" points="220,-265 220,-295 350,-295 350,-265 220,-265"/>
<text text-anchor="start" x="228" y="-283" font-family="Helvetica,sans-Serif" font-size="10.00">rare.shared.rare_core.Rare</text>
<text text-anchor="middle" x="285" y="-272" font-family="Helvetica,sans-Serif" font-size="10.00">Core.args</text>
</a>
</g>
</g>
<!-- Node1&#45;&gt;Node2 -->
<g id="edge1" class="edge">
<title>Node1&#45;&gt;Node2</title>
<path fill="none" stroke="midnightblue" d="M41.39,-103.8C49.62,-126.25 72.79,-181.84 110,-213 138.69,-237.02 176.94,-253.01 210.28,-263.32"/>
<polygon fill="midnightblue" stroke="midnightblue" points="209.41,-266.72 219.99,-266.21 211.4,-260.01 209.41,-266.72"/>
</g>
<!-- Node3 -->
<g id="node3" class="node">
<title>Node3</title>
<g id="a_node3"><a xlink:href="classrare_1_1commands_1_1launcher_1_1_rare_launcher.html#ac2d7fc08d8189d84d207151df722ee19" target="_top" xlink:title=" ">
<polygon fill="white" stroke="black" points="386,-94.5 386,-113.5 465,-113.5 465,-94.5 386,-94.5"/>
<text text-anchor="middle" x="425.5" y="-101.5" font-family="Helvetica,sans-Serif" font-size="10.00">error_occurred</text>
</a>
</g>
</g>
<!-- Node1&#45;&gt;Node3 -->
<g id="edge3" class="edge">
<title>Node1&#45;&gt;Node3</title>
<path fill="none" stroke="midnightblue" d="M74.14,-100.62C85.57,-102.41 98.27,-104.11 110,-105 203.67,-112.11 313.48,-109.21 375.44,-106.55"/>
<polygon fill="midnightblue" stroke="midnightblue" points="375.86,-110.03 385.69,-106.09 375.55,-103.04 375.86,-110.03"/>
</g>
<!-- Node8 -->
<g id="node8" class="node">
<title>Node8</title>
<g id="a_node8"><a xlink:href="classrare_1_1commands_1_1launcher_1_1_rare_launcher.html#a62864ecc73de3f9e4a009737d0c01f01" target="_top" xlink:title=" ">
<polygon fill="white" stroke="black" points="110,-166.5 110,-185.5 184,-185.5 184,-166.5 110,-166.5"/>
<text text-anchor="middle" x="147" y="-173.5" font-family="Helvetica,sans-Serif" font-size="10.00">launch_game</text>
</a>
</g>
</g>
<!-- Node1&#45;&gt;Node8 -->
<g id="edge13" class="edge">
<title>Node1&#45;&gt;Node8</title>
<path fill="none" stroke="midnightblue" d="M50.81,-103.73C69.16,-117.66 103.13,-143.45 125.14,-160.16"/>
<polygon fill="midnightblue" stroke="midnightblue" points="123.12,-163.02 133.2,-166.28 127.36,-157.45 123.12,-163.02"/>
</g>
<!-- Node9 -->
<g id="node9" class="node">
<title>Node9</title>
<g id="a_node9"><a xlink:href="classrare_1_1commands_1_1launcher_1_1_rare_launcher.html#a711d1d7df9874db34971779c941c4e5e" target="_top" xlink:title=" ">
<polygon fill="white" stroke="black" points="267,-56.5 267,-75.5 303,-75.5 303,-56.5 267,-56.5"/>
<text text-anchor="middle" x="285" y="-63.5" font-family="Helvetica,sans-Serif" font-size="10.00">start</text>
</a>
</g>
</g>
<!-- Node1&#45;&gt;Node9 -->
<g id="edge28" class="edge">
<title>Node1&#45;&gt;Node9</title>
<path fill="none" stroke="midnightblue" d="M74.03,-84.96C123.72,-76.73 212.17,-66.83 256.73,-64.67"/>
<polygon fill="midnightblue" stroke="midnightblue" points="256.95,-68.17 266.82,-64.3 256.69,-61.17 256.95,-68.17"/>
</g>
<!-- Node2&#45;&gt;Node2 -->
<g id="edge2" class="edge">
<title>Node2&#45;&gt;Node2</title>
<path fill="none" stroke="midnightblue" d="M260.95,-295.16C255.15,-304.56 263.17,-313.5 285,-313.5 298.3,-313.5 306.48,-310.18 309.52,-305.46"/>
<polygon fill="midnightblue" stroke="midnightblue" points="313,-304.99 309.05,-295.16 306.01,-305.31 313,-304.99"/>
</g>
<!-- Node3&#45;&gt;Node3 -->
<g id="edge6" class="edge">
<title>Node3&#45;&gt;Node3</title>
<path fill="none" stroke="midnightblue" d="M403.92,-113.76C393.42,-122.57 400.62,-132 425.5,-132 441.44,-132 450.12,-128.13 451.54,-123.03"/>
<polygon fill="midnightblue" stroke="midnightblue" points="454.57,-121.25 447.08,-113.76 448.26,-124.29 454.57,-121.25"/>
</g>
<!-- Node4 -->
<g id="node4" class="node">
<title>Node4</title>
<g id="a_node4"><a xlink:href="classrare_1_1shared_1_1rare__core_1_1_rare_core.html#a405e1a4f20f16120f872ccd2654a1d56" target="_top" xlink:title=" ">
<polygon fill="white" stroke="black" points="505,-45 505,-75 635,-75 635,-45 505,-45"/>
<text text-anchor="start" x="513" y="-63" font-family="Helvetica,sans-Serif" font-size="10.00">rare.shared.rare_core.Rare</text>
<text text-anchor="middle" x="570" y="-52" font-family="Helvetica,sans-Serif" font-size="10.00">Core.core</text>
</a>
</g>
</g>
<!-- Node3&#45;&gt;Node4 -->
<g id="edge4" class="edge">
<title>Node3&#45;&gt;Node4</title>
<path fill="none" stroke="midnightblue" d="M457.42,-94.45C472.96,-89.65 492.32,-83.68 510.53,-78.05"/>
<polygon fill="midnightblue" stroke="midnightblue" points="511.69,-81.36 520.21,-75.07 509.62,-74.67 511.69,-81.36"/>
</g>
<!-- Node5 -->
<g id="node5" class="node">
<title>Node5</title>
<g id="a_node5"><a xlink:href="classrare_1_1commands_1_1launcher_1_1_rare_launcher.html#a1ad309148fd22e4786258dc4a79ec7af" target="_top" xlink:title=" ">
<polygon fill="white" stroke="black" points="528.5,-235.5 528.5,-254.5 611.5,-254.5 611.5,-235.5 528.5,-235.5"/>
<text text-anchor="middle" x="570" y="-242.5" font-family="Helvetica,sans-Serif" font-size="10.00">send_message</text>
</a>
</g>
</g>
<!-- Node3&#45;&gt;Node5 -->
<g id="edge7" class="edge">
<title>Node3&#45;&gt;Node5</title>
<path fill="none" stroke="midnightblue" d="M429.59,-113.61C437.52,-136.7 460.82,-195.61 501,-226 506.2,-229.93 512.17,-233.05 518.37,-235.52"/>
<polygon fill="midnightblue" stroke="midnightblue" points="517.62,-238.97 528.22,-238.9 519.89,-232.34 517.62,-238.97"/>
</g>
<!-- Node6 -->
<g id="node6" class="node">
<title>Node6</title>
<g id="a_node6"><a xlink:href="classrare_1_1commands_1_1launcher_1_1_rare_launcher.html#a26ca7c1c7fcdd35378e7be97727047a6" target="_top" xlink:title=" ">
<polygon fill="white" stroke="black" points="552.5,-179.5 552.5,-198.5 587.5,-198.5 587.5,-179.5 552.5,-179.5"/>
<text text-anchor="middle" x="570" y="-186.5" font-family="Helvetica,sans-Serif" font-size="10.00">stop</text>
</a>
</g>
</g>
<!-- Node3&#45;&gt;Node6 -->
<g id="edge9" class="edge">
<title>Node3&#45;&gt;Node6</title>
<path fill="none" stroke="midnightblue" d="M434.65,-113.59C447.38,-127.95 473.38,-154.96 501,-170 513.7,-176.92 529.13,-181.49 542.09,-184.42"/>
<polygon fill="midnightblue" stroke="midnightblue" points="541.77,-187.93 552.27,-186.5 543.17,-181.07 541.77,-187.93"/>
</g>
<!-- Node7 -->
<g id="node7" class="node">
<title>Node7</title>
<g id="a_node7"><a xlink:href="classrare_1_1widgets_1_1loading__widget_1_1_loading_widget.html#a26ca7c1c7fcdd35378e7be97727047a6" target="_top" xlink:title=" ">
<polygon fill="white" stroke="black" points="501,-112 501,-142 639,-142 639,-112 501,-112"/>
<text text-anchor="start" x="509" y="-130" font-family="Helvetica,sans-Serif" font-size="10.00">rare.widgets.loading</text>
<text text-anchor="middle" x="570" y="-119" font-family="Helvetica,sans-Serif" font-size="10.00">_widget.LoadingWidget.stop</text>
</a>
</g>
</g>
<!-- Node3&#45;&gt;Node7 -->
<g id="edge11" class="edge">
<title>Node3&#45;&gt;Node7</title>
<path fill="none" stroke="midnightblue" d="M465.06,-110.22C473.09,-111.52 481.82,-112.93 490.7,-114.36"/>
<polygon fill="midnightblue" stroke="midnightblue" points="490.32,-117.85 500.75,-115.98 491.44,-110.94 490.32,-117.85"/>
</g>
<!-- Node4&#45;&gt;Node4 -->
<g id="edge5" class="edge">
<title>Node4&#45;&gt;Node4</title>
<path fill="none" stroke="midnightblue" d="M544.91,-75.16C538.85,-84.56 547.22,-93.5 570,-93.5 583.88,-93.5 592.41,-90.18 595.59,-85.46"/>
<polygon fill="midnightblue" stroke="midnightblue" points="599.07,-84.98 595.09,-75.16 592.08,-85.31 599.07,-84.98"/>
</g>
<!-- Node5&#45;&gt;Node5 -->
<g id="edge8" class="edge">
<title>Node5&#45;&gt;Node5</title>
<path fill="none" stroke="midnightblue" d="M547.81,-254.76C537.01,-263.57 544.41,-273 570,-273 586.8,-273 595.76,-268.94 596.88,-263.65"/>
<polygon fill="midnightblue" stroke="midnightblue" points="599.95,-261.97 592.19,-254.76 593.76,-265.24 599.95,-261.97"/>
</g>
<!-- Node6&#45;&gt;Node6 -->
<g id="edge10" class="edge">
<title>Node6&#45;&gt;Node6</title>
<path fill="none" stroke="midnightblue" d="M552.02,-195.89C535.6,-205.38 541.59,-217 570,-217 591.75,-217 600.36,-210.19 595.83,-202.74"/>
<polygon fill="midnightblue" stroke="midnightblue" points="597.81,-199.82 587.98,-195.89 593.21,-205.1 597.81,-199.82"/>
</g>
<!-- Node7&#45;&gt;Node7 -->
<g id="edge12" class="edge">
<title>Node7&#45;&gt;Node7</title>
<path fill="none" stroke="midnightblue" d="M544.91,-142.16C538.85,-151.56 547.22,-160.5 570,-160.5 583.88,-160.5 592.41,-157.18 595.59,-152.46"/>
<polygon fill="midnightblue" stroke="midnightblue" points="599.07,-151.98 595.09,-142.16 592.08,-152.31 599.07,-151.98"/>
</g>
<!-- Node8&#45;&gt;Node2 -->
<g id="edge14" class="edge">
<title>Node8&#45;&gt;Node2</title>
<path fill="none" stroke="midnightblue" d="M155.51,-185.73C167.69,-201.01 193.13,-230.87 220,-250 225.18,-253.69 230.89,-257.12 236.7,-260.23"/>
<polygon fill="midnightblue" stroke="midnightblue" points="235.35,-263.47 245.85,-264.87 238.51,-257.23 235.35,-263.47"/>
</g>
<!-- Node8&#45;&gt;Node5 -->
<g id="edge16" class="edge">
<title>Node8&#45;&gt;Node5</title>
<path fill="none" stroke="midnightblue" d="M183.36,-185.59C194.98,-188.54 207.99,-191.63 220,-194 325.42,-214.83 450.31,-231.07 518.44,-239.22"/>
<polygon fill="midnightblue" stroke="midnightblue" points="518.13,-242.71 528.47,-240.41 518.95,-235.76 518.13,-242.71"/>
</g>
<!-- Node8&#45;&gt;Node6 -->
<g id="edge26" class="edge">
<title>Node8&#45;&gt;Node6</title>
<path fill="none" stroke="midnightblue" d="M184.26,-177.12C267.16,-179.68 469.03,-185.91 542.07,-188.17"/>
<polygon fill="midnightblue" stroke="midnightblue" points="542.16,-191.67 552.26,-188.48 542.38,-184.68 542.16,-191.67"/>
</g>
<!-- Node8&#45;&gt;Node7 -->
<g id="edge27" class="edge">
<title>Node8&#45;&gt;Node7</title>
<path fill="none" stroke="midnightblue" d="M184.16,-172.29C243.06,-166.19 363.33,-153.45 465,-141 473.32,-139.98 482.01,-138.88 490.66,-137.75"/>
<polygon fill="midnightblue" stroke="midnightblue" points="491.32,-141.19 500.78,-136.42 490.41,-134.25 491.32,-141.19"/>
</g>
<!-- Node8&#45;&gt;Node8 -->
<g id="edge15" class="edge">
<title>Node8&#45;&gt;Node8</title>
<path fill="none" stroke="midnightblue" d="M130.05,-185.76C121.8,-194.57 127.45,-204 147,-204 159.22,-204 166.01,-200.31 167.37,-195.4"/>
<polygon fill="midnightblue" stroke="midnightblue" points="170.59,-194.01 163.95,-185.76 163.99,-196.35 170.59,-194.01"/>
</g>
<!-- Node8&#45;&gt;Node9 -->
<g id="edge17" class="edge">
<title>Node8&#45;&gt;Node9</title>
<path fill="none" stroke="midnightblue" d="M160.07,-166.24C183.52,-147.27 235.43,-105.28 264.07,-82.12"/>
<polygon fill="midnightblue" stroke="midnightblue" points="266.58,-84.59 272.15,-75.58 262.18,-79.15 266.58,-84.59"/>
</g>
<!-- Node9&#45;&gt;Node1 -->
<g id="edge21" class="edge">
<title>Node9&#45;&gt;Node1</title>
<path fill="none" stroke="midnightblue" d="M266.82,-71.61C229.43,-79.29 139.61,-90.09 84.28,-94.14"/>
<polygon fill="midnightblue" stroke="midnightblue" points="83.77,-90.67 74.03,-94.84 84.25,-97.65 83.77,-90.67"/>
</g>
<!-- Node9&#45;&gt;Node3 -->
<g id="edge19" class="edge">
<title>Node9&#45;&gt;Node3</title>
<path fill="none" stroke="midnightblue" d="M303.26,-70.74C322.36,-75.98 353.89,-84.63 380,-91.79"/>
<polygon fill="midnightblue" stroke="midnightblue" points="379.14,-95.18 389.71,-94.46 380.99,-88.43 379.14,-95.18"/>
</g>
<!-- Node9&#45;&gt;Node4 -->
<g id="edge18" class="edge">
<title>Node9&#45;&gt;Node4</title>
<path fill="none" stroke="midnightblue" d="M303.28,-65.63C340.41,-64.85 429.72,-62.95 494.58,-61.58"/>
<polygon fill="midnightblue" stroke="midnightblue" points="494.84,-65.07 504.76,-61.36 494.69,-58.07 494.84,-65.07"/>
</g>
<!-- Node9&#45;&gt;Node9 -->
<g id="edge20" class="edge">
<title>Node9&#45;&gt;Node9</title>
<path fill="none" stroke="midnightblue" d="M266.86,-73.46C252.27,-82.83 258.32,-94 285,-94 305.01,-94 313.42,-87.72 310.21,-80.62"/>
<polygon fill="midnightblue" stroke="midnightblue" points="312.65,-78.11 303.14,-73.46 307.67,-83.03 312.65,-78.11"/>
</g>
<!-- Node10 -->
<g id="node10" class="node">
<title>Node10</title>
<g id="a_node10"><a xlink:href="classrare_1_1commands_1_1launcher_1_1_rare_launcher.html#abc80b9c0d00c9ee171bcdd5b318f9329" target="_top" xlink:title=" ">
<polygon fill="white" stroke="black" points="393,-0.5 393,-19.5 458,-19.5 458,-0.5 393,-0.5"/>
<text text-anchor="middle" x="425.5" y="-7.5" font-family="Helvetica,sans-Serif" font-size="10.00">sync_ready</text>
</a>
</g>
</g>
<!-- Node9&#45;&gt;Node10 -->
<g id="edge22" class="edge">
<title>Node9&#45;&gt;Node10</title>
<path fill="none" stroke="midnightblue" d="M303.26,-59.02C325.32,-50.1 363.95,-34.48 391.68,-23.27"/>
<polygon fill="midnightblue" stroke="midnightblue" points="393.03,-26.5 400.99,-19.5 390.41,-20.01 393.03,-26.5"/>
</g>
<!-- Node10&#45;&gt;Node1 -->
<g id="edge24" class="edge">
<title>Node10&#45;&gt;Node1</title>
<path fill="none" stroke="midnightblue" d="M392.85,-15.1C352.56,-21.74 280.87,-34.04 220,-47 170.76,-57.49 158.7,-61.26 110,-74 100.78,-76.41 90.93,-79.08 81.56,-81.67"/>
<polygon fill="midnightblue" stroke="midnightblue" points="80.34,-78.38 71.64,-84.43 82.21,-85.12 80.34,-78.38"/>
</g>
<!-- Node10&#45;&gt;Node10 -->
<g id="edge25" class="edge">
<title>Node10&#45;&gt;Node10</title>
<path fill="none" stroke="midnightblue" d="M403.92,-19.76C393.42,-28.57 400.62,-38 425.5,-38 441.44,-38 450.12,-34.13 451.54,-29.03"/>
<polygon fill="midnightblue" stroke="midnightblue" points="454.57,-27.25 447.08,-19.76 448.26,-30.29 454.57,-27.25"/>
</g>
<!-- Node11 -->
<g id="node11" class="node">
<title>Node11</title>
<g id="a_node11"><a xlink:href="classrare_1_1commands_1_1launcher_1_1_rare_launcher.html#aead78a8c5e26925de34e45d4aae39b4e" target="_top" xlink:title=" ">
<polygon fill="white" stroke="black" points="532,-0.5 532,-19.5 608,-19.5 608,-0.5 532,-0.5"/>
<text text-anchor="middle" x="570" y="-7.5" font-family="Helvetica,sans-Serif" font-size="10.00">__sync_ready</text>
</a>
</g>
</g>
<!-- Node10&#45;&gt;Node11 -->
<g id="edge23" class="edge">
<title>Node10&#45;&gt;Node11</title>
<path fill="none" stroke="midnightblue" d="M458.13,-10C476.78,-10 500.76,-10 521.64,-10"/>
<polygon fill="midnightblue" stroke="midnightblue" points="521.91,-13.5 531.91,-10 521.91,-6.5 521.91,-13.5"/>
</g>
</g>
</svg>
        <g id="navigator" transform="translate(0 0)" fill="#404254">
                <rect fill="#f2f5e9" fill-opacity="0.5" stroke="#606060" stroke-width=".5" x="0" y="0" width="60" height="60"/>
                <use id="zoomplus" xlink:href="#zoomPlus" x="17" y="9" onmousedown="handleZoom(evt,'in')"/>
                <use id="zoomminus" xlink:href="#zoomMin" x="42" y="9" onmousedown="handleZoom(evt,'out')"/>
                <use id="reset" xlink:href="#resetDef" x="30" y="36" onmousedown="handleReset()"/>
                <g id="arrowUp" xlink:href="#dirArrow" transform="translate(30 24)" onmousedown="handlePan(0,-1)">
                  <use xlink:href="#rim" fill="#404040">
                        <set attributeName="fill" to="#808080" begin="arrowUp.mouseover" end="arrowUp.mouseout"/>
                  </use>
                  <path fill="none" stroke="white" stroke-width="1.5" d="M0,-3.0v7 M-2.5,-0.5L0,-3.0L2.5,-0.5"/>
                </g>
                <g id="arrowRight" xlink:href="#dirArrow" transform="rotate(90) translate(36 -43)" onmousedown="handlePan(1,0)">
                  <use xlink:href="#rim" fill="#404040">
                        <set attributeName="fill" to="#808080" begin="arrowRight.mouseover" end="arrowRight.mouseout"/>
                  </use>
                  <path fill="none" stroke="white" stroke-width="1.5" d="M0,-3.0v7 M-2.5,-0.5L0,-3.0L2.5,-0.5"/>
                </g>
                <g id="arrowDown" xlink:href="#dirArrow" transform="rotate(180) translate(-30 -48)" onmousedown="handlePan(0,1)">
                  <use xlink:href="#rim" fill="#404040">
                        <set attributeName="fill" to="#808080" begin="arrowDown.mouseover" end="arrowDown.mouseout"/>
                  </use>
                  <path fill="none" stroke="white" stroke-width="1.5" d="M0,-3.0v7 M-2.5,-0.5L0,-3.0L2.5,-0.5"/>
                </g>
                <g id="arrowLeft" xlink:href="#dirArrow" transform="rotate(270) translate(-36 17)" onmousedown="handlePan(-1,0)">
                  <use xlink:href="#rim" fill="#404040">
                        <set attributeName="fill" to="#808080" begin="arrowLeft.mouseover" end="arrowLeft.mouseout"/>
                  </use>
                  <path fill="none" stroke="white" stroke-width="1.5" d="M0,-3.0v7 M-2.5,-0.5L0,-3.0L2.5,-0.5"/>
                </g>
        </g>
        <svg viewBox="0 0 15 15" width="100%" height="30px" preserveAspectRatio="xMaxYMin meet">
         <g id="arrow_out" transform="scale(0.3 0.3)">
          <a xlink:href="classrare_1_1commands_1_1launcher_1_1_rare_launcher_ac8b8dc7f48f8405350185a34a814e908_cgraph_org.svg" target="_base">
           <rect id="button" ry="5" rx="5" y="6" x="6" height="38" width="38"
                fill="#f2f5e9" fill-opacity="0.5" stroke="#606060" stroke-width="1.0"/>
           <path id="arrow"
             d="M 11.500037,31.436501 C 11.940474,20.09759 22.043105,11.32322 32.158766,21.979434 L 37.068811,17.246167 C 37.068811,17.246167 37.088388,32 37.088388,32 L 22.160133,31.978069 C 22.160133,31.978069 26.997745,27.140456 26.997745,27.140456 C 18.528582,18.264221 13.291696,25.230495 11.500037,31.436501 z"
             style="fill:#404040;"/>
          </a>
         </g>
        </svg>
</svg>
