<?xml version="1.0" encoding="UTF-8" standalone="no"?>
<!DOCTYPE svg PUBLIC "-//W3C//DTD SVG 1.1//EN"
 "http://www.w3.org/Graphics/SVG/1.1/DTD/svg11.dtd">
<!-- Generated by graphviz version 2.49.3 (20211027.1534)
 -->
<!-- Title: on_color_select_changed Pages: 1 -->
<svg width="396pt" height="57pt"
 viewBox="0.00 0.00 396.00 57.00" xmlns="http://www.w3.org/2000/svg" xmlns:xlink="http://www.w3.org/1999/xlink">
<g id="graph0" class="graph" transform="scale(1 1) rotate(0) translate(4 53)">
<title>on_color_select_changed</title>
<polygon fill="white" stroke="transparent" points="-4,4 -4,-53 392,-53 392,4 -4,4"/>
<!-- Node1 -->
<g id="node1" class="node">
<title>Node1</title>
<g id="a_node1"><a xlink:title=" ">
<polygon fill="#bfbfbf" stroke="black" points="0,-6 0,-25 127,-25 127,-6 0,-6"/>
<text text-anchor="middle" x="63.5" y="-13" font-family="Helvetica,sans-Serif" font-size="10.00">on_color_select_changed</text>
</a>
</g>
</g>
<!-- Node1&#45;&gt;Node1 -->
<g id="edge1" class="edge">
<title>Node1&#45;&gt;Node1</title>
<path fill="none" stroke="midnightblue" d="M41.31,-25.26C30.51,-34.07 37.91,-43.5 63.5,-43.5 80.3,-43.5 89.26,-39.44 90.38,-34.15"/>
<polygon fill="midnightblue" stroke="midnightblue" points="93.45,-32.47 85.69,-25.26 87.26,-35.74 93.45,-32.47"/>
</g>
<!-- Node2 -->
<g id="node2" class="node">
<title>Node2</title>
<g id="a_node2"><a xlink:href="namespacerare_1_1utils_1_1misc.html#ada2f7cd0a2a48cfcbc7a40c3b9dfc03c" target="_top" xlink:title=" ">
<polygon fill="white" stroke="black" points="163,-0.5 163,-30.5 255,-30.5 255,-0.5 163,-0.5"/>
<text text-anchor="start" x="171" y="-18.5" font-family="Helvetica,sans-Serif" font-size="10.00">rare.utils.misc.set</text>
<text text-anchor="middle" x="209" y="-7.5" font-family="Helvetica,sans-Serif" font-size="10.00">_color_pallete</text>
</a>
</g>
</g>
<!-- Node1&#45;&gt;Node2 -->
<g id="edge2" class="edge">
<title>Node1&#45;&gt;Node2</title>
<path fill="none" stroke="midnightblue" d="M127.02,-15.5C135.62,-15.5 144.39,-15.5 152.83,-15.5"/>
<polygon fill="midnightblue" stroke="midnightblue" points="152.94,-19 162.94,-15.5 152.94,-12 152.94,-19"/>
</g>
<!-- Node2&#45;&gt;Node2 -->
<g id="edge5" class="edge">
<title>Node2&#45;&gt;Node2</title>
<path fill="none" stroke="midnightblue" d="M186.34,-30.66C180.88,-40.06 188.43,-49 209,-49 221.53,-49 229.23,-45.68 232.1,-40.96"/>
<polygon fill="midnightblue" stroke="midnightblue" points="235.58,-40.5 231.66,-30.66 228.59,-40.8 235.58,-40.5"/>
</g>
<!-- Node3 -->
<g id="node3" class="node">
<title>Node3</title>
<g id="a_node3"><a xlink:href="namespacerare_1_1utils_1_1misc.html#a586da0b440a2004d273a0ad5f81baf9d" target="_top" xlink:title=" ">
<polygon fill="white" stroke="black" points="291,-0.5 291,-30.5 388,-30.5 388,-0.5 291,-0.5"/>
<text text-anchor="start" x="299" y="-18.5" font-family="Helvetica,sans-Serif" font-size="10.00">rare.utils.misc.load</text>
<text text-anchor="middle" x="339.5" y="-7.5" font-family="Helvetica,sans-Serif" font-size="10.00">_color_scheme</text>
</a>
</g>
</g>
<!-- Node2&#45;&gt;Node3 -->
<g id="edge3" class="edge">
<title>Node2&#45;&gt;Node3</title>
<path fill="none" stroke="midnightblue" d="M255.3,-15.5C263.52,-15.5 272.2,-15.5 280.72,-15.5"/>
<polygon fill="midnightblue" stroke="midnightblue" points="280.99,-19 290.99,-15.5 280.99,-12 280.99,-19"/>
</g>
<!-- Node3&#45;&gt;Node3 -->
<g id="edge4" class="edge">
<title>Node3&#45;&gt;Node3</title>
<path fill="none" stroke="midnightblue" d="M316.84,-30.66C311.38,-40.06 318.93,-49 339.5,-49 352.03,-49 359.73,-45.68 362.6,-40.96"/>
<polygon fill="midnightblue" stroke="midnightblue" points="366.08,-40.5 362.16,-30.66 359.09,-40.8 366.08,-40.5"/>
</g>
</g>
</svg>
