<?xml version="1.0" encoding="UTF-8" standalone="no"?>
<!DOCTYPE svg PUBLIC "-//W3C//DTD SVG 1.1//EN"
 "http://www.w3.org/Graphics/SVG/1.1/DTD/svg11.dtd">
<!-- Generated by graphviz version 2.49.3 (20211027.1534)
 -->
<!-- Title: prepare_request Pages: 1 -->
<svg width="963pt" height="191pt"
 viewBox="0.00 0.00 963.00 191.00" xmlns="http://www.w3.org/2000/svg" xmlns:xlink="http://www.w3.org/1999/xlink">
<g id="graph0" class="graph" transform="scale(1 1) rotate(0) translate(4 187)">
<title>prepare_request</title>
<polygon fill="white" stroke="transparent" points="-4,4 -4,-187 959,-187 959,4 -4,4"/>
<!-- Node1 -->
<g id="node1" class="node">
<title>Node1</title>
<g id="a_node1"><a xlink:title=" ">
<polygon fill="#bfbfbf" stroke="black" points="0,-39 0,-58 86,-58 86,-39 0,-39"/>
<text text-anchor="middle" x="43" y="-46" font-family="Helvetica,sans-Serif" font-size="10.00">prepare_request</text>
</a>
</g>
</g>
<!-- Node1&#45;&gt;Node1 -->
<g id="edge1" class="edge">
<title>Node1&#45;&gt;Node1</title>
<path fill="none" stroke="midnightblue" d="M15.57,-58.26C2.22,-67.07 11.36,-76.5 43,-76.5 64.75,-76.5 75.87,-72.04 76.36,-66.39"/>
<polygon fill="midnightblue" stroke="midnightblue" points="79.15,-64.28 70.43,-58.26 73.49,-68.4 79.15,-64.28"/>
</g>
<!-- Node2 -->
<g id="node2" class="node">
<title>Node2</title>
<g id="a_node2"><a xlink:href="classrare_1_1components_1_1tabs_1_1store_1_1landing_1_1_landing_widget.html#afe8e8ac663d9c09dad3a1364f128945b" target="_top" xlink:title=" ">
<polygon fill="white" stroke="black" points="137.5,-67.5 137.5,-97.5 306.5,-97.5 306.5,-67.5 137.5,-67.5"/>
<text text-anchor="start" x="145.5" y="-85.5" font-family="Helvetica,sans-Serif" font-size="10.00">rare.components.tabs.store.landing.</text>
<text text-anchor="middle" x="222" y="-74.5" font-family="Helvetica,sans-Serif" font-size="10.00">LandingWidget.show_games</text>
</a>
</g>
</g>
<!-- Node1&#45;&gt;Node2 -->
<g id="edge2" class="edge">
<title>Node1&#45;&gt;Node2</title>
<path fill="none" stroke="midnightblue" d="M86.4,-56.64C100.37,-59.33 116.47,-62.42 132.57,-65.51"/>
<polygon fill="midnightblue" stroke="midnightblue" points="132.1,-68.99 142.58,-67.44 133.42,-62.11 132.1,-68.99"/>
</g>
<!-- Node9 -->
<g id="node9" class="node">
<title>Node9</title>
<g id="a_node9"><a xlink:href="classrare_1_1components_1_1tabs_1_1library_1_1widgets_1_1game__widget_1_1_game_widget.html#aa660d748bc3a0c7c2dfaa15cee8e6ba6" target="_top" xlink:title=" ">
<polygon fill="white" stroke="black" points="122,-0.5 122,-30.5 322,-30.5 322,-0.5 122,-0.5"/>
<text text-anchor="start" x="130" y="-18.5" font-family="Helvetica,sans-Serif" font-size="10.00">rare.components.tabs.library.widgets.game</text>
<text text-anchor="middle" x="222" y="-7.5" font-family="Helvetica,sans-Serif" font-size="10.00">_widget.GameWidget.ui</text>
</a>
</g>
</g>
<!-- Node1&#45;&gt;Node9 -->
<g id="edge18" class="edge">
<title>Node1&#45;&gt;Node9</title>
<path fill="none" stroke="midnightblue" d="M86.4,-40.6C99.74,-38.11 115.01,-35.26 130.38,-32.4"/>
<polygon fill="midnightblue" stroke="midnightblue" points="131.28,-35.79 140.47,-30.51 129.99,-28.91 131.28,-35.79"/>
</g>
<!-- Node2&#45;&gt;Node2 -->
<g id="edge17" class="edge">
<title>Node2&#45;&gt;Node2</title>
<path fill="none" stroke="midnightblue" d="M190.98,-97.66C183.5,-107.06 193.84,-116 222,-116 239.16,-116 249.7,-112.68 253.63,-107.96"/>
<polygon fill="midnightblue" stroke="midnightblue" points="257.1,-107.44 253.02,-97.66 250.12,-107.85 257.1,-107.44"/>
</g>
<!-- Node3 -->
<g id="node3" class="node">
<title>Node3</title>
<g id="a_node3"><a xlink:href="classrare_1_1components_1_1tabs_1_1store_1_1landing_1_1_landing_page.html#abdf35a8f677d168b77d233b030cb9e8f" target="_top" xlink:title=" ">
<polygon fill="white" stroke="black" points="359,-134.5 359,-164.5 528,-164.5 528,-134.5 359,-134.5"/>
<text text-anchor="start" x="367" y="-152.5" font-family="Helvetica,sans-Serif" font-size="10.00">rare.components.tabs.store.landing.</text>
<text text-anchor="middle" x="443.5" y="-141.5" font-family="Helvetica,sans-Serif" font-size="10.00">LandingPage.show_details</text>
</a>
</g>
</g>
<!-- Node2&#45;&gt;Node3 -->
<g id="edge3" class="edge">
<title>Node2&#45;&gt;Node3</title>
<path fill="none" stroke="midnightblue" d="M269.12,-97.59C295.16,-106.01 328.32,-116.56 358,-125.5 364.57,-127.48 371.45,-129.51 378.31,-131.5"/>
<polygon fill="midnightblue" stroke="midnightblue" points="377.75,-134.98 388.33,-134.39 379.69,-128.25 377.75,-134.98"/>
</g>
<!-- Node7 -->
<g id="node7" class="node">
<title>Node7</title>
<g id="a_node7"><a xlink:href="classrare_1_1components_1_1tabs_1_1store_1_1search_1_1_search_page.html#abdf35a8f677d168b77d233b030cb9e8f" target="_top" xlink:title=" ">
<polygon fill="white" stroke="black" points="360,-67.5 360,-97.5 527,-97.5 527,-67.5 360,-67.5"/>
<text text-anchor="start" x="368" y="-85.5" font-family="Helvetica,sans-Serif" font-size="10.00">rare.components.tabs.store.search.</text>
<text text-anchor="middle" x="443.5" y="-74.5" font-family="Helvetica,sans-Serif" font-size="10.00">SearchPage.show_details</text>
</a>
</g>
</g>
<!-- Node2&#45;&gt;Node7 -->
<g id="edge11" class="edge">
<title>Node2&#45;&gt;Node7</title>
<path fill="none" stroke="midnightblue" d="M306.61,-82.5C320.65,-82.5 335.29,-82.5 349.55,-82.5"/>
<polygon fill="midnightblue" stroke="midnightblue" points="349.85,-86 359.85,-82.5 349.85,-79 349.85,-86"/>
</g>
<!-- Node8 -->
<g id="node8" class="node">
<title>Node8</title>
<g id="a_node8"><a xlink:href="classrare_1_1components_1_1tabs_1_1store_1_1wishlist_1_1_wishlist_page.html#abdf35a8f677d168b77d233b030cb9e8f" target="_top" xlink:title=" ">
<polygon fill="white" stroke="black" points="358,-0.5 358,-30.5 529,-30.5 529,-0.5 358,-0.5"/>
<text text-anchor="start" x="366" y="-18.5" font-family="Helvetica,sans-Serif" font-size="10.00">rare.components.tabs.store.wishlist.</text>
<text text-anchor="middle" x="443.5" y="-7.5" font-family="Helvetica,sans-Serif" font-size="10.00">WishlistPage.show_details</text>
</a>
</g>
</g>
<!-- Node2&#45;&gt;Node8 -->
<g id="edge14" class="edge">
<title>Node2&#45;&gt;Node8</title>
<path fill="none" stroke="midnightblue" d="M286.07,-67.46C298.06,-64.35 310.45,-60.96 322,-57.5 345.37,-50.49 370.94,-41.74 392.48,-34.04"/>
<polygon fill="midnightblue" stroke="midnightblue" points="393.85,-37.27 402.07,-30.59 391.48,-30.68 393.85,-37.27"/>
</g>
<!-- Node3&#45;&gt;Node3 -->
<g id="edge4" class="edge">
<title>Node3&#45;&gt;Node3</title>
<path fill="none" stroke="midnightblue" d="M407.95,-164.66C399.38,-174.06 411.23,-183 443.5,-183 463.17,-183 475.25,-179.68 479.75,-174.96"/>
<polygon fill="midnightblue" stroke="midnightblue" points="483.22,-174.4 479.05,-164.66 476.23,-174.87 483.22,-174.4"/>
</g>
<!-- Node4 -->
<g id="node4" class="node">
<title>Node4</title>
<g id="a_node4"><a xlink:href="classrare_1_1widgets_1_1sliding__stack_1_1_sliding_stacked_widget.html#ab032482dfc53fdfe48836e74a00f0871" target="_top" xlink:title=" ">
<polygon fill="white" stroke="black" points="565,-62 565,-103 731,-103 731,-62 565,-62"/>
<text text-anchor="start" x="573" y="-91" font-family="Helvetica,sans-Serif" font-size="10.00">rare.widgets.sliding</text>
<text text-anchor="start" x="573" y="-80" font-family="Helvetica,sans-Serif" font-size="10.00">_stack.SlidingStackedWidget.slide</text>
<text text-anchor="middle" x="648" y="-69" font-family="Helvetica,sans-Serif" font-size="10.00">InWidget</text>
</a>
</g>
</g>
<!-- Node3&#45;&gt;Node4 -->
<g id="edge5" class="edge">
<title>Node3&#45;&gt;Node4</title>
<path fill="none" stroke="midnightblue" d="M499.67,-134.45C509.48,-131.6 519.57,-128.55 529,-125.5 546.85,-119.72 566.04,-112.97 583.64,-106.55"/>
<polygon fill="midnightblue" stroke="midnightblue" points="585.06,-109.76 593.24,-103.02 582.65,-103.18 585.06,-109.76"/>
</g>
<!-- Node4&#45;&gt;Node4 -->
<g id="edge10" class="edge">
<title>Node4&#45;&gt;Node4</title>
<path fill="none" stroke="midnightblue" d="M610.51,-103.36C606.42,-113.04 618.91,-121.5 648,-121.5 666.18,-121.5 677.88,-118.2 683.1,-113.36"/>
<polygon fill="midnightblue" stroke="midnightblue" points="686.56,-113.9 685.49,-103.36 679.76,-112.27 686.56,-113.9"/>
</g>
<!-- Node5 -->
<g id="node5" class="node">
<title>Node5</title>
<g id="a_node5"><a xlink:href="classrare_1_1widgets_1_1sliding__stack_1_1_sliding_stacked_widget.html#ad33b03cf3496c64ea301895641933e64" target="_top" xlink:title=" ">
<polygon fill="white" stroke="black" points="767,-99 767,-140 955,-140 955,-99 767,-99"/>
<text text-anchor="start" x="775" y="-128" font-family="Helvetica,sans-Serif" font-size="10.00">rare.widgets.sliding</text>
<text text-anchor="start" x="775" y="-117" font-family="Helvetica,sans-Serif" font-size="10.00">_stack.SlidingStackedWidget.animation</text>
<text text-anchor="middle" x="861" y="-106" font-family="Helvetica,sans-Serif" font-size="10.00">DoneSlot</text>
</a>
</g>
</g>
<!-- Node4&#45;&gt;Node5 -->
<g id="edge6" class="edge">
<title>Node4&#45;&gt;Node5</title>
<path fill="none" stroke="midnightblue" d="M731.18,-96.91C739.58,-98.38 748.19,-99.89 756.78,-101.4"/>
<polygon fill="midnightblue" stroke="midnightblue" points="756.38,-104.88 766.84,-103.16 757.59,-97.99 756.38,-104.88"/>
</g>
<!-- Node6 -->
<g id="node6" class="node">
<title>Node6</title>
<g id="a_node6"><a xlink:href="classrare_1_1widgets_1_1flow__layout_1_1_flow_layout.html#a8e7bec55adcc4afe502cf1e17b59a589" target="_top" xlink:title=" ">
<polygon fill="white" stroke="black" points="800,-31.5 800,-61.5 922,-61.5 922,-31.5 800,-31.5"/>
<text text-anchor="start" x="808" y="-49.5" font-family="Helvetica,sans-Serif" font-size="10.00">rare.widgets.flow_layout.</text>
<text text-anchor="middle" x="861" y="-38.5" font-family="Helvetica,sans-Serif" font-size="10.00">FlowLayout.indexOf</text>
</a>
</g>
</g>
<!-- Node4&#45;&gt;Node6 -->
<g id="edge8" class="edge">
<title>Node4&#45;&gt;Node6</title>
<path fill="none" stroke="midnightblue" d="M731.18,-68.48C750.6,-65.16 771.13,-61.66 789.96,-58.45"/>
<polygon fill="midnightblue" stroke="midnightblue" points="790.66,-61.88 799.93,-56.75 789.48,-54.98 790.66,-61.88"/>
</g>
<!-- Node5&#45;&gt;Node5 -->
<g id="edge7" class="edge">
<title>Node5&#45;&gt;Node5</title>
<path fill="none" stroke="midnightblue" d="M822.04,-140.36C817.79,-150.04 830.77,-158.5 861,-158.5 879.89,-158.5 892.05,-155.2 897.47,-150.36"/>
<polygon fill="midnightblue" stroke="midnightblue" points="900.94,-150.91 899.96,-140.36 894.15,-149.22 900.94,-150.91"/>
</g>
<!-- Node6&#45;&gt;Node6 -->
<g id="edge9" class="edge">
<title>Node6&#45;&gt;Node6</title>
<path fill="none" stroke="midnightblue" d="M824.05,-61.66C815.15,-71.06 827.46,-80 861,-80 881.44,-80 893.99,-76.68 898.67,-71.96"/>
<polygon fill="midnightblue" stroke="midnightblue" points="902.14,-71.39 897.95,-61.66 895.16,-71.88 902.14,-71.39"/>
</g>
<!-- Node7&#45;&gt;Node4 -->
<g id="edge13" class="edge">
<title>Node7&#45;&gt;Node4</title>
<path fill="none" stroke="midnightblue" d="M527.16,-82.5C536.21,-82.5 545.48,-82.5 554.64,-82.5"/>
<polygon fill="midnightblue" stroke="midnightblue" points="554.94,-86 564.94,-82.5 554.94,-79 554.94,-86"/>
</g>
<!-- Node7&#45;&gt;Node7 -->
<g id="edge12" class="edge">
<title>Node7&#45;&gt;Node7</title>
<path fill="none" stroke="midnightblue" d="M407.95,-97.66C399.38,-107.06 411.23,-116 443.5,-116 463.17,-116 475.25,-112.68 479.75,-107.96"/>
<polygon fill="midnightblue" stroke="midnightblue" points="483.22,-107.4 479.05,-97.66 476.23,-107.87 483.22,-107.4"/>
</g>
<!-- Node8&#45;&gt;Node4 -->
<g id="edge16" class="edge">
<title>Node8&#45;&gt;Node4</title>
<path fill="none" stroke="midnightblue" d="M489.94,-30.54C514.98,-38.82 546.63,-49.29 574.95,-58.66"/>
<polygon fill="midnightblue" stroke="midnightblue" points="574.22,-62.11 584.82,-61.93 576.42,-55.46 574.22,-62.11"/>
</g>
<!-- Node8&#45;&gt;Node8 -->
<g id="edge15" class="edge">
<title>Node8&#45;&gt;Node8</title>
<path fill="none" stroke="midnightblue" d="M407.95,-30.66C399.38,-40.06 411.23,-49 443.5,-49 463.17,-49 475.25,-45.68 479.75,-40.96"/>
<polygon fill="midnightblue" stroke="midnightblue" points="483.22,-40.4 479.05,-30.66 476.23,-40.87 483.22,-40.4"/>
</g>
<!-- Node9&#45;&gt;Node9 -->
<g id="edge19" class="edge">
<title>Node9&#45;&gt;Node9</title>
<path fill="none" stroke="midnightblue" d="M190.98,-30.66C183.5,-40.06 193.84,-49 222,-49 239.16,-49 249.7,-45.68 253.63,-40.96"/>
<polygon fill="midnightblue" stroke="midnightblue" points="257.1,-40.44 253.02,-30.66 250.12,-40.85 257.1,-40.44"/>
</g>
</g>
</svg>
