<?xml version="1.0" encoding="UTF-8" standalone="no"?>
<!DOCTYPE svg PUBLIC "-//W3C//DTD SVG 1.1//EN"
 "http://www.w3.org/Graphics/SVG/1.1/DTD/svg11.dtd">
<!-- Generated by graphviz version 2.49.3 (20211027.1534)
 -->
<!-- Title: clear Pages: 1 -->
<svg width="292pt" height="57pt"
 viewBox="0.00 0.00 292.30 57.00" xmlns="http://www.w3.org/2000/svg" xmlns:xlink="http://www.w3.org/1999/xlink">
<g id="graph0" class="graph" transform="scale(1 1) rotate(0) translate(4 53)">
<title>clear</title>
<polygon fill="white" stroke="transparent" points="-4,4 -4,-53 288.3,-53 288.3,4 -4,4"/>
<!-- Node1 -->
<g id="node1" class="node">
<title>Node1</title>
<g id="a_node1"><a xlink:title=" ">
<polygon fill="#bfbfbf" stroke="black" points="10.3,-6 10.3,-25 48.3,-25 48.3,-6 10.3,-6"/>
<text text-anchor="middle" x="29.3" y="-13" font-family="Helvetica,sans-Serif" font-size="10.00">clear</text>
</a>
</g>
</g>
<!-- Node1&#45;&gt;Node1 -->
<g id="edge1" class="edge">
<title>Node1&#45;&gt;Node1</title>
<path fill="none" stroke="midnightblue" d="M10.07,-22.39C-7.49,-31.88 -1.08,-43.5 29.3,-43.5 53.03,-43.5 62.13,-36.41 56.6,-28.78"/>
<polygon fill="midnightblue" stroke="midnightblue" points="58.54,-25.84 48.52,-22.39 54.2,-31.34 58.54,-25.84"/>
</g>
<!-- Node2 -->
<g id="node2" class="node">
<title>Node2</title>
<g id="a_node2"><a xlink:href="classrare_1_1components_1_1tabs_1_1library_1_1widgets_1_1game__widget_1_1_game_widget.html#aa660d748bc3a0c7c2dfaa15cee8e6ba6" target="_top" xlink:title=" ">
<polygon fill="white" stroke="black" points="84.3,-0.5 84.3,-30.5 284.3,-30.5 284.3,-0.5 84.3,-0.5"/>
<text text-anchor="start" x="92.3" y="-18.5" font-family="Helvetica,sans-Serif" font-size="10.00">rare.components.tabs.library.widgets.game</text>
<text text-anchor="middle" x="184.3" y="-7.5" font-family="Helvetica,sans-Serif" font-size="10.00">_widget.GameWidget.ui</text>
</a>
</g>
</g>
<!-- Node1&#45;&gt;Node2 -->
<g id="edge2" class="edge">
<title>Node1&#45;&gt;Node2</title>
<path fill="none" stroke="midnightblue" d="M48.45,-15.5C55.56,-15.5 64.32,-15.5 73.94,-15.5"/>
<polygon fill="midnightblue" stroke="midnightblue" points="74.24,-19 84.24,-15.5 74.24,-12 74.24,-19"/>
</g>
<!-- Node2&#45;&gt;Node2 -->
<g id="edge3" class="edge">
<title>Node2&#45;&gt;Node2</title>
<path fill="none" stroke="midnightblue" d="M157.46,-30.66C150.99,-40.06 159.93,-49 184.3,-49 199.14,-49 208.26,-45.68 211.66,-40.96"/>
<polygon fill="midnightblue" stroke="midnightblue" points="215.14,-40.47 211.13,-30.66 208.15,-40.82 215.14,-40.47"/>
</g>
</g>
</svg>
