<?xml version="1.0" encoding="UTF-8" standalone="no"?>
<!DOCTYPE svg PUBLIC "-//W3C//DTD SVG 1.1//EN"
 "http://www.w3.org/Graphics/SVG/1.1/DTD/svg11.dtd">
<!-- Generated by graphviz version 2.49.3 (20211027.1534)
 -->
<!-- Title: add_widget Pages: 1 -->
<svg width="288pt" height="52pt"
 viewBox="0.00 0.00 288.00 51.50" xmlns="http://www.w3.org/2000/svg" xmlns:xlink="http://www.w3.org/1999/xlink">
<g id="graph0" class="graph" transform="scale(1 1) rotate(0) translate(4 47.5)">
<title>add_widget</title>
<polygon fill="white" stroke="transparent" points="-4,4 -4,-47.5 284,-47.5 284,4 -4,4"/>
<!-- Node1 -->
<g id="node1" class="node">
<title>Node1</title>
<g id="a_node1"><a xlink:title=" ">
<polygon fill="#bfbfbf" stroke="black" points="0,-6 0,-25 66,-25 66,-6 0,-6"/>
<text text-anchor="middle" x="33" y="-13" font-family="Helvetica,sans-Serif" font-size="10.00">add_widget</text>
</a>
</g>
</g>
<!-- Node1&#45;&gt;Node1 -->
<g id="edge2" class="edge">
<title>Node1&#45;&gt;Node1</title>
<path fill="none" stroke="midnightblue" d="M8.65,-25.26C-3.2,-34.07 4.92,-43.5 33,-43.5 51.43,-43.5 61.26,-39.44 62.49,-34.15"/>
<polygon fill="midnightblue" stroke="midnightblue" points="65.39,-32.16 57.35,-25.26 59.32,-35.67 65.39,-32.16"/>
</g>
<!-- Node2 -->
<g id="node2" class="node">
<title>Node2</title>
<g id="a_node2"><a xlink:href="classrare_1_1components_1_1tabs_1_1games_1_1game__widgets_1_1_view_container.html#a8e73e95efd0f85e048f1f10d0a330651" target="_top" xlink:title=" ">
<polygon fill="white" stroke="black" points="102,-0.5 102,-30.5 280,-30.5 280,-0.5 102,-0.5"/>
<text text-anchor="start" x="110" y="-18.5" font-family="Helvetica,sans-Serif" font-size="10.00">rare.components.tabs.games.game</text>
<text text-anchor="middle" x="191" y="-7.5" font-family="Helvetica,sans-Serif" font-size="10.00">_widgets.ViewContainer._add_widget</text>
</a>
</g>
</g>
<!-- Node1&#45;&gt;Node2 -->
<g id="edge1" class="edge">
<title>Node1&#45;&gt;Node2</title>
<path fill="none" stroke="midnightblue" d="M66.32,-15.5C73.97,-15.5 82.53,-15.5 91.48,-15.5"/>
<polygon fill="midnightblue" stroke="midnightblue" points="91.71,-19 101.71,-15.5 91.71,-12 91.71,-19"/>
</g>
</g>
</svg>
