<?xml version="1.0" encoding="UTF-8" standalone="no"?>
<!DOCTYPE svg PUBLIC "-//W3C//DTD SVG 1.1//EN"
 "http://www.w3.org/Graphics/SVG/1.1/DTD/svg11.dtd">
<!-- Generated by graphviz version 2.49.3 (20211027.1534)
 -->
<!-- Title: mousePressEvent Pages: 1 -->
<!--zoomable 993 -->
<svg id="main" version="1.1" xmlns="http://www.w3.org/2000/svg" xmlns:xlink="http://www.w3.org/1999/xlink" xml:space="preserve" onload="init(evt)">
<style type="text/css"><![CDATA[
.edge:hover path { stroke: red; }
.edge:hover polygon { stroke: red; fill: red; }
]]></style>
<script type="text/javascript"><![CDATA[
var edges = document.getElementsByTagName('g');
if (edges && edges.length) {
  for (var i=0;i<edges.length;i++) {
    if (edges[i].id.substr(0,4)=='edge') {
      edges[i].setAttribute('class','edge');
    }
  }
}
]]></script>
        <defs>
                <circle id="rim" cx="0" cy="0" r="7"/>
                <circle id="rim2" cx="0" cy="0" r="3.5"/>
                <g id="zoomPlus">
                        <use xlink:href="#rim" fill="#404040">
                                <set attributeName="fill" to="#808080" begin="zoomplus.mouseover" end="zoomplus.mouseout"/>
                        </use>
                        <path d="M-4,0h8M0,-4v8" fill="none" stroke="white" stroke-width="1.5" pointer-events="none"/>
                </g>
                <g id="zoomMin">
                        <use xlink:href="#rim" fill="#404040">
                                <set attributeName="fill" to="#808080" begin="zoomminus.mouseover" end="zoomminus.mouseout"/>
                        </use>
                        <path d="M-4,0h8" fill="none" stroke="white" stroke-width="1.5" pointer-events="none"/>
                </g>
                <g id="dirArrow">
                        <path fill="none" stroke="white" stroke-width="1.5" d="M0,-3.0v7 M-2.5,-0.5L0,-3.0L2.5,-0.5"/>
                </g>
               <g id="resetDef">
                       <use xlink:href="#rim2" fill="#404040">
                               <set attributeName="fill" to="#808080" begin="reset.mouseover" end="reset.mouseout"/>
                       </use>
               </g>
        </defs>

<script type="text/javascript">
var viewWidth = 1027;
var viewHeight = 993;
var sectionId = 'dynsection-6';
</script>
<script xlink:href="svgpan.js"/>
<svg id="graph" class="graph">
<g id="viewport">
<title>mousePressEvent</title>
<polygon fill="white" stroke="transparent" points="-4,4 -4,-989 1023,-989 1023,4 -4,4"/>
<!-- Node1 -->
<g id="node1" class="node">
<title>Node1</title>
<g id="a_node1"><a xlink:title=" ">
<polygon fill="#bfbfbf" stroke="black" points="0,-381 0,-400 96,-400 96,-381 0,-381"/>
<text text-anchor="middle" x="48" y="-388" font-family="Helvetica,sans-Serif" font-size="10.00">mousePressEvent</text>
</a>
</g>
</g>
<!-- Node1&#45;&gt;Node1 -->
<g id="edge47" class="edge">
<title>Node1&#45;&gt;Node1</title>
<path fill="none" stroke="midnightblue" d="M22.72,-400.26C10.43,-409.07 18.85,-418.5 48,-418.5 67.58,-418.5 77.81,-414.24 78.69,-408.77"/>
<polygon fill="midnightblue" stroke="midnightblue" points="81.59,-406.82 73.28,-400.26 75.69,-410.57 81.59,-406.82"/>
</g>
<!-- Node2 -->
<g id="node2" class="node">
<title>Node2</title>
<g id="a_node2"><a xlink:href="namespacerare_1_1utils_1_1steam__shortcuts.html#a161b1eceee8e5d44db9fd570e06c5e0e" target="_top" xlink:title=" ">
<polygon fill="white" stroke="black" points="140.5,-835.5 140.5,-865.5 286.5,-865.5 286.5,-835.5 140.5,-835.5"/>
<text text-anchor="start" x="148.5" y="-853.5" font-family="Helvetica,sans-Serif" font-size="10.00">rare.utils.steam_shortcuts.add</text>
<text text-anchor="middle" x="213.5" y="-842.5" font-family="Helvetica,sans-Serif" font-size="10.00">_steam_coverart</text>
</a>
</g>
</g>
<!-- Node1&#45;&gt;Node2 -->
<g id="edge1" class="edge">
<title>Node1&#45;&gt;Node2</title>
<path fill="none" stroke="midnightblue" d="M51.02,-400.2C59,-437.86 89.98,-577.75 132,-687.5 151.53,-738.52 181.45,-795.07 198.79,-826.34"/>
<polygon fill="midnightblue" stroke="midnightblue" points="195.8,-828.18 203.73,-835.2 201.91,-824.76 195.8,-828.18"/>
</g>
<!-- Node9 -->
<g id="node9" class="node">
<title>Node9</title>
<g id="a_node9"><a xlink:href="namespacerare_1_1utils_1_1steam__shortcuts.html#a357bd54770bbc308e805d3cc81bdf8fd" target="_top" xlink:title=" ">
<polygon fill="white" stroke="black" points="140.5,-629.5 140.5,-659.5 286.5,-659.5 286.5,-629.5 140.5,-629.5"/>
<text text-anchor="start" x="148.5" y="-647.5" font-family="Helvetica,sans-Serif" font-size="10.00">rare.utils.steam_shortcuts.add</text>
<text text-anchor="middle" x="213.5" y="-636.5" font-family="Helvetica,sans-Serif" font-size="10.00">_steam_shortcut</text>
</a>
</g>
</g>
<!-- Node1&#45;&gt;Node9 -->
<g id="edge17" class="edge">
<title>Node1&#45;&gt;Node9</title>
<path fill="none" stroke="midnightblue" d="M50.56,-400.39C56.09,-432.55 77.41,-535.71 132,-598.5 141.09,-608.95 153.17,-617.58 165.19,-624.42"/>
<polygon fill="midnightblue" stroke="midnightblue" points="163.86,-627.68 174.33,-629.31 167.16,-621.51 163.86,-627.68"/>
</g>
<!-- Node14 -->
<g id="node14" class="node">
<title>Node14</title>
<g id="a_node14"><a xlink:href="namespacerare_1_1utils_1_1steam__shortcuts.html#ad6816d9b344d6df0048278ae71945d05" target="_top" xlink:title=" ">
<polygon fill="white" stroke="black" points="340.5,-629.5 340.5,-659.5 503.5,-659.5 503.5,-629.5 340.5,-629.5"/>
<text text-anchor="start" x="348.5" y="-647.5" font-family="Helvetica,sans-Serif" font-size="10.00">rare.utils.steam_shortcuts.remove</text>
<text text-anchor="middle" x="422" y="-636.5" font-family="Helvetica,sans-Serif" font-size="10.00">_steam_shortcut</text>
</a>
</g>
</g>
<!-- Node1&#45;&gt;Node14 -->
<g id="edge56" class="edge">
<title>Node1&#45;&gt;Node14</title>
<path fill="none" stroke="midnightblue" d="M51.43,-400.22C58.76,-427.56 83.19,-505.94 132,-548.5 164.51,-576.85 272.99,-608.06 347.39,-626.97"/>
<polygon fill="midnightblue" stroke="midnightblue" points="346.64,-630.39 357.19,-629.44 348.35,-623.6 346.64,-630.39"/>
</g>
<!-- Node15 -->
<g id="node15" class="node">
<title>Node15</title>
<g id="a_node15"><a xlink:href="namespacerare_1_1utils_1_1steam__shortcuts.html#a0badb50dbd514b0bdc87f910865c9fd4" target="_top" xlink:title=" ">
<polygon fill="white" stroke="black" points="549,-511.5 549,-541.5 707,-541.5 707,-511.5 549,-511.5"/>
<text text-anchor="start" x="557" y="-529.5" font-family="Helvetica,sans-Serif" font-size="10.00">rare.utils.steam_shortcuts.steam</text>
<text text-anchor="middle" x="628" y="-518.5" font-family="Helvetica,sans-Serif" font-size="10.00">_shortcut_exists</text>
</a>
</g>
</g>
<!-- Node1&#45;&gt;Node15 -->
<g id="edge59" class="edge">
<title>Node1&#45;&gt;Node15</title>
<path fill="none" stroke="midnightblue" d="M96.33,-390.84C198.95,-392.15 438.65,-398.55 513,-429.5 552.06,-445.76 587.54,-480.57 608.2,-503.76"/>
<polygon fill="midnightblue" stroke="midnightblue" points="605.67,-506.18 614.88,-511.43 610.95,-501.58 605.67,-506.18"/>
</g>
<!-- Node16 -->
<g id="node16" class="node">
<title>Node16</title>
<g id="a_node16"><a xlink:href="namespacerare_1_1utils_1_1paths.html#a6013706d2f5027e7d2979078186b11e5" target="_top" xlink:title="Creates a desktop or start menu shortcut link.">
<polygon fill="white" stroke="black" points="159,-490.5 159,-520.5 268,-520.5 268,-490.5 159,-490.5"/>
<text text-anchor="start" x="167" y="-508.5" font-family="Helvetica,sans-Serif" font-size="10.00">rare.utils.paths.create</text>
<text text-anchor="middle" x="213.5" y="-497.5" font-family="Helvetica,sans-Serif" font-size="10.00">_desktop_link</text>
</a>
</g>
</g>
<!-- Node1&#45;&gt;Node16 -->
<g id="edge33" class="edge">
<title>Node1&#45;&gt;Node16</title>
<path fill="none" stroke="midnightblue" d="M58.04,-400.01C72.63,-415 102.67,-444.45 132,-464.5 143.45,-472.33 156.6,-479.64 168.91,-485.86"/>
<polygon fill="midnightblue" stroke="midnightblue" points="167.59,-489.12 178.11,-490.4 170.69,-482.84 167.59,-489.12"/>
</g>
<!-- Node17 -->
<g id="node17" class="node">
<title>Node17</title>
<g id="a_node17"><a xlink:href="namespacerare_1_1utils_1_1paths.html#ac2e6ac6baa5376d3ea5aa8b63e2af2bd" target="_top" xlink:title="Creates the path of a shortcut link.">
<polygon fill="white" stroke="black" points="364,-438.5 364,-468.5 480,-468.5 480,-438.5 364,-438.5"/>
<text text-anchor="start" x="372" y="-456.5" font-family="Helvetica,sans-Serif" font-size="10.00">rare.utils.paths.desktop</text>
<text text-anchor="middle" x="422" y="-445.5" font-family="Helvetica,sans-Serif" font-size="10.00">_link_path</text>
</a>
</g>
</g>
<!-- Node1&#45;&gt;Node17 -->
<g id="edge43" class="edge">
<title>Node1&#45;&gt;Node17</title>
<path fill="none" stroke="midnightblue" d="M68.62,-400.09C85.13,-407.71 109.56,-417.99 132,-423.5 206.52,-441.81 294.52,-448.95 353.67,-451.73"/>
<polygon fill="midnightblue" stroke="midnightblue" points="353.86,-455.25 364,-452.19 354.16,-448.25 353.86,-455.25"/>
</g>
<!-- Node18 -->
<g id="node18" class="node">
<title>Node18</title>
<g id="a_node18"><a xlink:href="namespacerare_1_1utils_1_1paths.html#a328faa5a142700be21313b72953aab76" target="_top" xlink:title=" ">
<polygon fill="white" stroke="black" points="364,-332.5 364,-362.5 480,-362.5 480,-332.5 364,-332.5"/>
<text text-anchor="start" x="372" y="-350.5" font-family="Helvetica,sans-Serif" font-size="10.00">rare.utils.paths.desktop</text>
<text text-anchor="middle" x="422" y="-339.5" font-family="Helvetica,sans-Serif" font-size="10.00">_links_supported</text>
</a>
</g>
</g>
<!-- Node1&#45;&gt;Node18 -->
<g id="edge44" class="edge">
<title>Node1&#45;&gt;Node18</title>
<path fill="none" stroke="midnightblue" d="M96.11,-385.05C161.28,-377.52 279.29,-363.88 353.72,-355.28"/>
<polygon fill="midnightblue" stroke="midnightblue" points="354.4,-358.72 363.93,-354.1 353.59,-351.77 354.4,-358.72"/>
</g>
<!-- Node20 -->
<g id="node20" class="node">
<title>Node20</title>
<g id="a_node20"><a xlink:href="namespacerare_1_1commands_1_1launcher.html#a412675ee25d478741940175d2c1d9757" target="_top" xlink:title=" ">
<polygon fill="white" stroke="black" points="137,-250 137,-269 290,-269 290,-250 137,-250"/>
<text text-anchor="middle" x="213.5" y="-257" font-family="Helvetica,sans-Serif" font-size="10.00">rare.commands.launcher.launch</text>
</a>
</g>
</g>
<!-- Node1&#45;&gt;Node20 -->
<g id="edge45" class="edge">
<title>Node1&#45;&gt;Node20</title>
<path fill="none" stroke="midnightblue" d="M55.48,-380.78C68.23,-362.26 98.28,-321.56 132,-296.5 144.94,-286.88 160.78,-278.94 174.97,-272.91"/>
<polygon fill="midnightblue" stroke="midnightblue" points="176.53,-276.05 184.48,-269.04 173.9,-269.57 176.53,-276.05"/>
</g>
<!-- Node21 -->
<g id="node21" class="node">
<title>Node21</title>
<g id="a_node21"><a xlink:href="namespacerare_1_1utils_1_1steam__shortcuts.html#affa7b5cf274457b7480337e8e72cdc67" target="_top" xlink:title=" ">
<polygon fill="white" stroke="black" points="132,-182.5 132,-212.5 295,-212.5 295,-182.5 132,-182.5"/>
<text text-anchor="start" x="140" y="-200.5" font-family="Helvetica,sans-Serif" font-size="10.00">rare.utils.steam_shortcuts.remove</text>
<text text-anchor="middle" x="213.5" y="-189.5" font-family="Helvetica,sans-Serif" font-size="10.00">_steam_coverart</text>
</a>
</g>
</g>
<!-- Node1&#45;&gt;Node21 -->
<g id="edge48" class="edge">
<title>Node1&#45;&gt;Node21</title>
<path fill="none" stroke="midnightblue" d="M52.14,-380.87C60.93,-355.13 88.12,-283.74 132,-240.5 141.35,-231.29 153.08,-223.53 164.67,-217.26"/>
<polygon fill="midnightblue" stroke="midnightblue" points="166.58,-220.21 173.89,-212.55 163.39,-213.98 166.58,-220.21"/>
</g>
<!-- Node25 -->
<g id="node25" class="node">
<title>Node25</title>
<g id="a_node25"><a xlink:href="namespacerare_1_1utils_1_1steam__shortcuts.html#a25f72b756b15a20243d2e1c542ba1258" target="_top" xlink:title=" ">
<polygon fill="white" stroke="black" points="137.5,-115.5 137.5,-145.5 289.5,-145.5 289.5,-115.5 137.5,-115.5"/>
<text text-anchor="start" x="145.5" y="-133.5" font-family="Helvetica,sans-Serif" font-size="10.00">rare.utils.steam_shortcuts.save</text>
<text text-anchor="middle" x="213.5" y="-122.5" font-family="Helvetica,sans-Serif" font-size="10.00">_steam_shortcuts</text>
</a>
</g>
</g>
<!-- Node1&#45;&gt;Node25 -->
<g id="edge57" class="edge">
<title>Node1&#45;&gt;Node25</title>
<path fill="none" stroke="midnightblue" d="M50.29,-380.59C55.08,-347.39 74.64,-238.54 132,-173.5 140.35,-164.03 151.31,-156.29 162.43,-150.12"/>
<polygon fill="midnightblue" stroke="midnightblue" points="164.07,-153.21 171.34,-145.5 160.86,-146.99 164.07,-153.21"/>
</g>
<!-- Node26 -->
<g id="node26" class="node">
<title>Node26</title>
<g id="a_node26"><a xlink:href="classrare_1_1components_1_1tabs_1_1library_1_1widgets_1_1game__widget_1_1_game_widget.html#a34f4910ec773ae8e2d8a116f14104a72" target="_top" xlink:title=" ">
<polygon fill="white" stroke="black" points="172,-306 172,-325 255,-325 255,-306 172,-306"/>
<text text-anchor="middle" x="213.5" y="-313" font-family="Helvetica,sans-Serif" font-size="10.00">update_actions</text>
</a>
</g>
</g>
<!-- Node1&#45;&gt;Node26 -->
<g id="edge60" class="edge">
<title>Node1&#45;&gt;Node26</title>
<path fill="none" stroke="midnightblue" d="M70.04,-380.85C98.49,-367.8 149.42,-344.44 182.05,-329.47"/>
<polygon fill="midnightblue" stroke="midnightblue" points="183.91,-332.47 191.54,-325.11 180.99,-326.1 183.91,-332.47"/>
</g>
<!-- Node28 -->
<g id="node28" class="node">
<title>Node28</title>
<g id="a_node28"><a xlink:href="classrare_1_1components_1_1tray__icon_1_1_tray_icon.html#a34f4910ec773ae8e2d8a116f14104a72" target="_top" xlink:title=" ">
<polygon fill="white" stroke="black" points="158,-37 158,-78 269,-78 269,-37 158,-37"/>
<text text-anchor="start" x="166" y="-66" font-family="Helvetica,sans-Serif" font-size="10.00">rare.components.tray</text>
<text text-anchor="start" x="166" y="-55" font-family="Helvetica,sans-Serif" font-size="10.00">_icon.TrayIcon.update</text>
<text text-anchor="middle" x="213.5" y="-44" font-family="Helvetica,sans-Serif" font-size="10.00">_actions</text>
</a>
</g>
</g>
<!-- Node1&#45;&gt;Node28 -->
<g id="edge67" class="edge">
<title>Node1&#45;&gt;Node28</title>
<path fill="none" stroke="midnightblue" d="M49.37,-380.82C51.31,-342.12 63.08,-196.38 132,-106.5 138.78,-97.65 147.66,-90.04 157.03,-83.64"/>
<polygon fill="midnightblue" stroke="midnightblue" points="159.18,-86.42 165.74,-78.1 155.42,-80.52 159.18,-86.42"/>
</g>
<!-- Node2&#45;&gt;Node2 -->
<g id="edge2" class="edge">
<title>Node2&#45;&gt;Node2</title>
<path fill="none" stroke="midnightblue" d="M184.92,-865.66C178.03,-875.06 187.55,-884 213.5,-884 229.31,-884 239.02,-880.68 242.64,-875.96"/>
<polygon fill="midnightblue" stroke="midnightblue" points="246.12,-875.45 242.08,-865.66 239.13,-875.83 246.12,-875.45"/>
</g>
<!-- Node3 -->
<g id="node3" class="node">
<title>Node3</title>
<g id="a_node3"><a xlink:href="namespacerare_1_1utils_1_1paths.html#a90103beacb68901d003fc7d4982e99ba" target="_top" xlink:title=" ">
<polygon fill="white" stroke="black" points="368,-936.5 368,-966.5 476,-966.5 476,-936.5 368,-936.5"/>
<text text-anchor="start" x="376" y="-954.5" font-family="Helvetica,sans-Serif" font-size="10.00">rare.utils.paths.image</text>
<text text-anchor="middle" x="422" y="-943.5" font-family="Helvetica,sans-Serif" font-size="10.00">_icon_path</text>
</a>
</g>
</g>
<!-- Node2&#45;&gt;Node3 -->
<g id="edge3" class="edge">
<title>Node2&#45;&gt;Node3</title>
<path fill="none" stroke="midnightblue" d="M233.16,-865.62C255.29,-882.86 293.85,-910.81 331,-927.5 339.45,-931.3 348.62,-934.6 357.77,-937.43"/>
<polygon fill="midnightblue" stroke="midnightblue" points="357.08,-940.87 367.66,-940.32 359.05,-934.16 357.08,-940.87"/>
</g>
<!-- Node7 -->
<g id="node7" class="node">
<title>Node7</title>
<g id="a_node7"><a xlink:href="namespacerare_1_1utils_1_1paths.html#a073747eac70d67ea5a25acb5e0ad9010" target="_top" xlink:title=" ">
<polygon fill="white" stroke="black" points="368,-869.5 368,-899.5 476,-899.5 476,-869.5 368,-869.5"/>
<text text-anchor="start" x="376" y="-887.5" font-family="Helvetica,sans-Serif" font-size="10.00">rare.utils.paths.image</text>
<text text-anchor="middle" x="422" y="-876.5" font-family="Helvetica,sans-Serif" font-size="10.00">_tall_path</text>
</a>
</g>
</g>
<!-- Node2&#45;&gt;Node7 -->
<g id="edge11" class="edge">
<title>Node2&#45;&gt;Node7</title>
<path fill="none" stroke="midnightblue" d="M286.72,-862.39C309.82,-866.19 335.2,-870.37 357.62,-874.06"/>
<polygon fill="midnightblue" stroke="midnightblue" points="357.26,-877.55 367.69,-875.72 358.39,-870.64 357.26,-877.55"/>
</g>
<!-- Node8 -->
<g id="node8" class="node">
<title>Node8</title>
<g id="a_node8"><a xlink:href="namespacerare_1_1utils_1_1paths.html#a63ca50e1dbf62bd5632bc84b8bda2f22" target="_top" xlink:title=" ">
<polygon fill="white" stroke="black" points="368,-802.5 368,-832.5 476,-832.5 476,-802.5 368,-802.5"/>
<text text-anchor="start" x="376" y="-820.5" font-family="Helvetica,sans-Serif" font-size="10.00">rare.utils.paths.image</text>
<text text-anchor="middle" x="422" y="-809.5" font-family="Helvetica,sans-Serif" font-size="10.00">_wide_path</text>
</a>
</g>
</g>
<!-- Node2&#45;&gt;Node8 -->
<g id="edge14" class="edge">
<title>Node2&#45;&gt;Node8</title>
<path fill="none" stroke="midnightblue" d="M286.72,-838.96C309.82,-835.27 335.2,-831.21 357.62,-827.63"/>
<polygon fill="midnightblue" stroke="midnightblue" points="358.37,-831.05 367.69,-826.02 357.26,-824.14 358.37,-831.05"/>
</g>
<!-- Node3&#45;&gt;Node3 -->
<g id="edge10" class="edge">
<title>Node3&#45;&gt;Node3</title>
<path fill="none" stroke="midnightblue" d="M386.1,-966.66C377.44,-976.06 389.41,-985 422,-985 441.86,-985 454.06,-981.68 458.6,-976.96"/>
<polygon fill="midnightblue" stroke="midnightblue" points="462.07,-976.4 457.9,-966.66 455.09,-976.87 462.07,-976.4"/>
</g>
<!-- Node4 -->
<g id="node4" class="node">
<title>Node4</title>
<g id="a_node4"><a xlink:href="namespacerare_1_1utils_1_1paths.html#a26cca1020569c6b5f07f09723c3607b9" target="_top" xlink:title=" ">
<polygon fill="white" stroke="black" points="574,-835.5 574,-865.5 682,-865.5 682,-835.5 574,-835.5"/>
<text text-anchor="start" x="582" y="-853.5" font-family="Helvetica,sans-Serif" font-size="10.00">rare.utils.paths.image</text>
<text text-anchor="middle" x="628" y="-842.5" font-family="Helvetica,sans-Serif" font-size="10.00">_dir_game</text>
</a>
</g>
</g>
<!-- Node3&#45;&gt;Node4 -->
<g id="edge4" class="edge">
<title>Node3&#45;&gt;Node4</title>
<path fill="none" stroke="midnightblue" d="M476.38,-940.41C488.68,-937 501.52,-932.73 513,-927.5 545.38,-912.75 578.68,-889.1 600.86,-871.89"/>
<polygon fill="midnightblue" stroke="midnightblue" points="603.1,-874.58 608.79,-865.65 598.77,-869.08 603.1,-874.58"/>
</g>
<!-- Node4&#45;&gt;Node4 -->
<g id="edge9" class="edge">
<title>Node4&#45;&gt;Node4</title>
<path fill="none" stroke="midnightblue" d="M597.33,-865.66C589.93,-875.06 600.16,-884 628,-884 644.97,-884 655.39,-880.68 659.27,-875.96"/>
<polygon fill="midnightblue" stroke="midnightblue" points="662.75,-875.44 658.67,-865.66 655.76,-875.85 662.75,-875.44"/>
</g>
<!-- Node5 -->
<g id="node5" class="node">
<title>Node5</title>
<g id="a_node5"><a xlink:href="namespacerare_1_1utils_1_1paths.html#ada300860b11ac604daaa4afc32f76fb7" target="_top" xlink:title=" ">
<polygon fill="white" stroke="black" points="743,-841 743,-860 867,-860 867,-841 743,-841"/>
<text text-anchor="middle" x="805" y="-848" font-family="Helvetica,sans-Serif" font-size="10.00">rare.utils.paths.image_dir</text>
</a>
</g>
</g>
<!-- Node4&#45;&gt;Node5 -->
<g id="edge5" class="edge">
<title>Node4&#45;&gt;Node5</title>
<path fill="none" stroke="midnightblue" d="M682.46,-850.5C698.27,-850.5 715.85,-850.5 732.6,-850.5"/>
<polygon fill="midnightblue" stroke="midnightblue" points="732.91,-854 742.91,-850.5 732.91,-847 732.91,-854"/>
</g>
<!-- Node5&#45;&gt;Node5 -->
<g id="edge8" class="edge">
<title>Node5&#45;&gt;Node5</title>
<path fill="none" stroke="midnightblue" d="M780.96,-860.26C769.26,-869.07 777.27,-878.5 805,-878.5 823.2,-878.5 832.9,-874.44 834.12,-869.15"/>
<polygon fill="midnightblue" stroke="midnightblue" points="837.04,-867.21 829.04,-860.26 830.96,-870.68 837.04,-867.21"/>
</g>
<!-- Node6 -->
<g id="node6" class="node">
<title>Node6</title>
<g id="a_node6"><a xlink:href="namespacerare_1_1utils_1_1paths.html#aa160c55be4d6aad43da3d35e8a1dc97b" target="_top" xlink:title=" ">
<polygon fill="white" stroke="black" points="903,-841 903,-860 1019,-860 1019,-841 903,-841"/>
<text text-anchor="middle" x="961" y="-848" font-family="Helvetica,sans-Serif" font-size="10.00">rare.utils.paths.data_dir</text>
</a>
</g>
</g>
<!-- Node5&#45;&gt;Node6 -->
<g id="edge6" class="edge">
<title>Node5&#45;&gt;Node6</title>
<path fill="none" stroke="midnightblue" d="M867.31,-850.5C875.66,-850.5 884.26,-850.5 892.71,-850.5"/>
<polygon fill="midnightblue" stroke="midnightblue" points="892.91,-854 902.91,-850.5 892.91,-847 892.91,-854"/>
</g>
<!-- Node6&#45;&gt;Node6 -->
<g id="edge7" class="edge">
<title>Node6&#45;&gt;Node6</title>
<path fill="none" stroke="midnightblue" d="M936.96,-860.26C925.26,-869.07 933.27,-878.5 961,-878.5 979.2,-878.5 988.9,-874.44 990.12,-869.15"/>
<polygon fill="midnightblue" stroke="midnightblue" points="993.04,-867.21 985.04,-860.26 986.96,-870.68 993.04,-867.21"/>
</g>
<!-- Node7&#45;&gt;Node4 -->
<g id="edge12" class="edge">
<title>Node7&#45;&gt;Node4</title>
<path fill="none" stroke="midnightblue" d="M476.07,-875.66C502.88,-871.19 535.6,-865.73 563.72,-861.05"/>
<polygon fill="midnightblue" stroke="midnightblue" points="564.56,-864.46 573.85,-859.36 563.41,-857.55 564.56,-864.46"/>
</g>
<!-- Node7&#45;&gt;Node7 -->
<g id="edge13" class="edge">
<title>Node7&#45;&gt;Node7</title>
<path fill="none" stroke="midnightblue" d="M386.1,-899.66C377.44,-909.06 389.41,-918 422,-918 441.86,-918 454.06,-914.68 458.6,-909.96"/>
<polygon fill="midnightblue" stroke="midnightblue" points="462.07,-909.4 457.9,-899.66 455.09,-909.87 462.07,-909.4"/>
</g>
<!-- Node8&#45;&gt;Node4 -->
<g id="edge15" class="edge">
<title>Node8&#45;&gt;Node4</title>
<path fill="none" stroke="midnightblue" d="M476.07,-826.08C502.88,-830.42 535.6,-835.71 563.72,-840.26"/>
<polygon fill="midnightblue" stroke="midnightblue" points="563.42,-843.76 573.85,-841.9 564.53,-836.85 563.42,-843.76"/>
</g>
<!-- Node8&#45;&gt;Node8 -->
<g id="edge16" class="edge">
<title>Node8&#45;&gt;Node8</title>
<path fill="none" stroke="midnightblue" d="M386.1,-832.66C377.44,-842.06 389.41,-851 422,-851 441.86,-851 454.06,-847.68 458.6,-842.96"/>
<polygon fill="midnightblue" stroke="midnightblue" points="462.07,-842.4 457.9,-832.66 455.09,-842.87 462.07,-842.4"/>
</g>
<!-- Node9&#45;&gt;Node9 -->
<g id="edge18" class="edge">
<title>Node9&#45;&gt;Node9</title>
<path fill="none" stroke="midnightblue" d="M184.92,-659.66C178.03,-669.06 187.55,-678 213.5,-678 229.31,-678 239.02,-674.68 242.64,-669.96"/>
<polygon fill="midnightblue" stroke="midnightblue" points="246.12,-669.45 242.08,-659.66 239.13,-669.83 246.12,-669.45"/>
</g>
<!-- Node10 -->
<g id="node10" class="node">
<title>Node10</title>
<g id="a_node10"><a xlink:href="namespacerare_1_1utils_1_1paths.html#af4d56a3b4065900877c517e24bddc366" target="_top" xlink:title=" ">
<polygon fill="white" stroke="black" points="364,-735.5 364,-765.5 480,-765.5 480,-735.5 364,-735.5"/>
<text text-anchor="start" x="372" y="-753.5" font-family="Helvetica,sans-Serif" font-size="10.00">rare.utils.paths.desktop</text>
<text text-anchor="middle" x="422" y="-742.5" font-family="Helvetica,sans-Serif" font-size="10.00">_icon_path</text>
</a>
</g>
</g>
<!-- Node9&#45;&gt;Node10 -->
<g id="edge19" class="edge">
<title>Node9&#45;&gt;Node10</title>
<path fill="none" stroke="midnightblue" d="M234.19,-659.61C256.63,-676.29 294.9,-703.07 331,-720.5 339.7,-724.7 349.13,-728.55 358.51,-731.99"/>
<polygon fill="midnightblue" stroke="midnightblue" points="357.63,-735.39 368.23,-735.42 359.96,-728.79 357.63,-735.39"/>
</g>
<!-- Node13 -->
<g id="node13" class="node">
<title>Node13</title>
<g id="a_node13"><a xlink:href="namespacerare_1_1utils_1_1paths.html#a5aae2af81c71e81b5a7ce0c16db5ba19" target="_top" xlink:title=" ">
<polygon fill="white" stroke="black" points="374.5,-562.5 374.5,-592.5 469.5,-592.5 469.5,-562.5 374.5,-562.5"/>
<text text-anchor="start" x="382.5" y="-580.5" font-family="Helvetica,sans-Serif" font-size="10.00">rare.utils.paths.get</text>
<text text-anchor="middle" x="422" y="-569.5" font-family="Helvetica,sans-Serif" font-size="10.00">_rare_executable</text>
</a>
</g>
</g>
<!-- Node9&#45;&gt;Node13 -->
<g id="edge26" class="edge">
<title>Node9&#45;&gt;Node13</title>
<path fill="none" stroke="midnightblue" d="M260.84,-629.46C291.56,-619.5 332.04,-606.36 364.62,-595.79"/>
<polygon fill="midnightblue" stroke="midnightblue" points="366.02,-599.02 374.46,-592.6 363.86,-592.36 366.02,-599.02"/>
</g>
<!-- Node9&#45;&gt;Node14 -->
<g id="edge28" class="edge">
<title>Node9&#45;&gt;Node14</title>
<path fill="none" stroke="midnightblue" d="M286.72,-644.5C300.8,-644.5 315.73,-644.5 330.32,-644.5"/>
<polygon fill="midnightblue" stroke="midnightblue" points="330.35,-648 340.35,-644.5 330.35,-641 330.35,-648"/>
</g>
<!-- Node9&#45;&gt;Node15 -->
<g id="edge32" class="edge">
<title>Node9&#45;&gt;Node15</title>
<path fill="none" stroke="midnightblue" d="M243.96,-659.67C299.81,-686.16 423.48,-733.8 513,-687.5 568.61,-658.74 602.93,-588.95 618.01,-551.4"/>
<polygon fill="midnightblue" stroke="midnightblue" points="621.41,-552.31 621.76,-541.72 614.88,-549.79 621.41,-552.31"/>
</g>
<!-- Node10&#45;&gt;Node4 -->
<g id="edge25" class="edge">
<title>Node10&#45;&gt;Node4</title>
<path fill="none" stroke="midnightblue" d="M455.14,-765.68C472.34,-773.85 493.86,-784.15 513,-793.5 538.05,-805.74 566.06,-819.74 588.04,-830.8"/>
<polygon fill="midnightblue" stroke="midnightblue" points="586.56,-833.98 597.07,-835.35 589.71,-827.73 586.56,-833.98"/>
</g>
<!-- Node10&#45;&gt;Node10 -->
<g id="edge24" class="edge">
<title>Node10&#45;&gt;Node10</title>
<path fill="none" stroke="midnightblue" d="M386.1,-765.66C377.44,-775.06 389.41,-784 422,-784 441.86,-784 454.06,-780.68 458.6,-775.96"/>
<polygon fill="midnightblue" stroke="midnightblue" points="462.07,-775.4 457.9,-765.66 455.09,-775.87 462.07,-775.4"/>
</g>
<!-- Node11 -->
<g id="node11" class="node">
<title>Node11</title>
<g id="a_node11"><a xlink:href="namespacerare_1_1utils_1_1paths.html#a929db13896ab79cbbe77bc82ad2698fc" target="_top" xlink:title=" ">
<polygon fill="white" stroke="black" points="553.5,-760 553.5,-779 702.5,-779 702.5,-760 553.5,-760"/>
<text text-anchor="middle" x="628" y="-767" font-family="Helvetica,sans-Serif" font-size="10.00">rare.utils.paths.applications_dir</text>
</a>
</g>
</g>
<!-- Node10&#45;&gt;Node11 -->
<g id="edge20" class="edge">
<title>Node10&#45;&gt;Node11</title>
<path fill="none" stroke="midnightblue" d="M480.1,-755.82C499.74,-757.65 522.15,-759.73 543.45,-761.72"/>
<polygon fill="midnightblue" stroke="midnightblue" points="543.19,-765.21 553.47,-762.65 543.84,-758.24 543.19,-765.21"/>
</g>
<!-- Node12 -->
<g id="node12" class="node">
<title>Node12</title>
<g id="a_node12"><a xlink:href="namespacerare_1_1utils_1_1paths.html#a68fd6933dc93b4140e22a3fb1380354f" target="_top" xlink:title=" ">
<polygon fill="white" stroke="black" points="562,-704 562,-723 694,-723 694,-704 562,-704"/>
<text text-anchor="middle" x="628" y="-711" font-family="Helvetica,sans-Serif" font-size="10.00">rare.utils.paths.desktop_dir</text>
</a>
</g>
</g>
<!-- Node10&#45;&gt;Node12 -->
<g id="edge22" class="edge">
<title>Node10&#45;&gt;Node12</title>
<path fill="none" stroke="midnightblue" d="M480.1,-740.14C506.33,-735.39 537.52,-729.73 564.39,-724.86"/>
<polygon fill="midnightblue" stroke="midnightblue" points="565.25,-728.26 574.46,-723.03 564,-721.37 565.25,-728.26"/>
</g>
<!-- Node11&#45;&gt;Node11 -->
<g id="edge21" class="edge">
<title>Node11&#45;&gt;Node11</title>
<path fill="none" stroke="midnightblue" d="M600.87,-779.26C587.68,-788.07 596.72,-797.5 628,-797.5 649.51,-797.5 660.5,-793.04 660.98,-787.39"/>
<polygon fill="midnightblue" stroke="midnightblue" points="663.81,-785.33 655.13,-779.26 658.13,-789.42 663.81,-785.33"/>
</g>
<!-- Node12&#45;&gt;Node12 -->
<g id="edge23" class="edge">
<title>Node12&#45;&gt;Node12</title>
<path fill="none" stroke="midnightblue" d="M600.87,-723.26C587.68,-732.07 596.72,-741.5 628,-741.5 649.51,-741.5 660.5,-737.04 660.98,-731.39"/>
<polygon fill="midnightblue" stroke="midnightblue" points="663.81,-729.33 655.13,-723.26 658.13,-733.42 663.81,-729.33"/>
</g>
<!-- Node13&#45;&gt;Node13 -->
<g id="edge27" class="edge">
<title>Node13&#45;&gt;Node13</title>
<path fill="none" stroke="midnightblue" d="M386.1,-592.66C377.44,-602.06 389.41,-611 422,-611 441.86,-611 454.06,-607.68 458.6,-602.96"/>
<polygon fill="midnightblue" stroke="midnightblue" points="462.07,-602.4 457.9,-592.66 455.09,-602.87 462.07,-602.4"/>
</g>
<!-- Node14&#45;&gt;Node14 -->
<g id="edge29" class="edge">
<title>Node14&#45;&gt;Node14</title>
<path fill="none" stroke="midnightblue" d="M386.1,-659.66C377.44,-669.06 389.41,-678 422,-678 441.86,-678 454.06,-674.68 458.6,-669.96"/>
<polygon fill="midnightblue" stroke="midnightblue" points="462.07,-669.4 457.9,-659.66 455.09,-669.87 462.07,-669.4"/>
</g>
<!-- Node14&#45;&gt;Node15 -->
<g id="edge30" class="edge">
<title>Node14&#45;&gt;Node15</title>
<path fill="none" stroke="midnightblue" d="M491.97,-629.41C499.24,-626.86 506.39,-623.9 513,-620.5 549.16,-601.9 584.25,-570.29 605.73,-548.91"/>
<polygon fill="midnightblue" stroke="midnightblue" points="608.47,-551.12 613.01,-541.55 603.49,-546.2 608.47,-551.12"/>
</g>
<!-- Node15&#45;&gt;Node15 -->
<g id="edge31" class="edge">
<title>Node15&#45;&gt;Node15</title>
<path fill="none" stroke="midnightblue" d="M597.33,-541.66C589.93,-551.06 600.16,-560 628,-560 644.97,-560 655.39,-556.68 659.27,-551.96"/>
<polygon fill="midnightblue" stroke="midnightblue" points="662.75,-551.44 658.67,-541.66 655.76,-551.85 662.75,-551.44"/>
</g>
<!-- Node16&#45;&gt;Node10 -->
<g id="edge35" class="edge">
<title>Node16&#45;&gt;Node10</title>
<path fill="none" stroke="midnightblue" d="M226.03,-520.73C242.22,-542.39 272.26,-583.56 295,-620.5 312.72,-649.29 308.54,-662.23 331,-687.5 346,-704.37 366.37,-719.11 383.93,-730.08"/>
<polygon fill="midnightblue" stroke="midnightblue" points="382.46,-733.28 392.82,-735.47 386.08,-727.29 382.46,-733.28"/>
</g>
<!-- Node16&#45;&gt;Node13 -->
<g id="edge40" class="edge">
<title>Node16&#45;&gt;Node13</title>
<path fill="none" stroke="midnightblue" d="M248.78,-520.52C271.79,-530.3 302.91,-542.97 331,-552.5 341.81,-556.17 353.48,-559.71 364.71,-562.92"/>
<polygon fill="midnightblue" stroke="midnightblue" points="363.87,-566.31 374.45,-565.64 365.76,-559.57 363.87,-566.31"/>
</g>
<!-- Node16&#45;&gt;Node16 -->
<g id="edge34" class="edge">
<title>Node16&#45;&gt;Node16</title>
<path fill="none" stroke="midnightblue" d="M184.92,-520.66C178.03,-530.06 187.55,-539 213.5,-539 229.31,-539 239.02,-535.68 242.64,-530.96"/>
<polygon fill="midnightblue" stroke="midnightblue" points="246.12,-530.45 242.08,-520.66 239.13,-530.83 246.12,-530.45"/>
</g>
<!-- Node16&#45;&gt;Node17 -->
<g id="edge36" class="edge">
<title>Node16&#45;&gt;Node17</title>
<path fill="none" stroke="midnightblue" d="M268.22,-491.97C294.4,-485.38 326.15,-477.38 353.91,-470.39"/>
<polygon fill="midnightblue" stroke="midnightblue" points="355.1,-473.71 363.94,-467.87 353.39,-466.92 355.1,-473.71"/>
</g>
<!-- Node16&#45;&gt;Node18 -->
<g id="edge38" class="edge">
<title>Node16&#45;&gt;Node18</title>
<path fill="none" stroke="midnightblue" d="M234.3,-490.35C271.23,-462.1 350.69,-401.3 393.06,-368.88"/>
<polygon fill="midnightblue" stroke="midnightblue" points="395.44,-371.46 401.26,-362.6 391.19,-365.9 395.44,-371.46"/>
</g>
<!-- Node19 -->
<g id="node19" class="node">
<title>Node19</title>
<g id="a_node19"><a xlink:href="namespacerare_1_1utils_1_1paths.html#a71f5a7ae998e88f396ed58bb5ec6c67b" target="_top" xlink:title=" ">
<polygon fill="white" stroke="black" points="361,-506 361,-525 483,-525 483,-506 361,-506"/>
<text text-anchor="middle" x="422" y="-513" font-family="Helvetica,sans-Serif" font-size="10.00">rare.utils.paths.home_dir</text>
</a>
</g>
</g>
<!-- Node16&#45;&gt;Node19 -->
<g id="edge41" class="edge">
<title>Node16&#45;&gt;Node19</title>
<path fill="none" stroke="midnightblue" d="M268.22,-508.1C293.33,-509.32 323.57,-510.78 350.49,-512.09"/>
<polygon fill="midnightblue" stroke="midnightblue" points="350.47,-515.59 360.63,-512.58 350.81,-508.6 350.47,-515.59"/>
</g>
<!-- Node17&#45;&gt;Node17 -->
<g id="edge37" class="edge">
<title>Node17&#45;&gt;Node17</title>
<path fill="none" stroke="midnightblue" d="M386.1,-468.66C377.44,-478.06 389.41,-487 422,-487 441.86,-487 454.06,-483.68 458.6,-478.96"/>
<polygon fill="midnightblue" stroke="midnightblue" points="462.07,-478.4 457.9,-468.66 455.09,-478.87 462.07,-478.4"/>
</g>
<!-- Node18&#45;&gt;Node18 -->
<g id="edge39" class="edge">
<title>Node18&#45;&gt;Node18</title>
<path fill="none" stroke="midnightblue" d="M386.1,-362.66C377.44,-372.06 389.41,-381 422,-381 441.86,-381 454.06,-377.68 458.6,-372.96"/>
<polygon fill="midnightblue" stroke="midnightblue" points="462.07,-372.4 457.9,-362.66 455.09,-372.87 462.07,-372.4"/>
</g>
<!-- Node19&#45;&gt;Node19 -->
<g id="edge42" class="edge">
<title>Node19&#45;&gt;Node19</title>
<path fill="none" stroke="midnightblue" d="M390.25,-525.26C374.8,-534.07 385.39,-543.5 422,-543.5 448.32,-543.5 461.18,-538.63 460.61,-532.61"/>
<polygon fill="midnightblue" stroke="midnightblue" points="463.13,-530.19 453.75,-525.26 458.01,-534.96 463.13,-530.19"/>
</g>
<!-- Node20&#45;&gt;Node20 -->
<g id="edge46" class="edge">
<title>Node20&#45;&gt;Node20</title>
<path fill="none" stroke="midnightblue" d="M188.22,-269.26C175.93,-278.07 184.35,-287.5 213.5,-287.5 233.08,-287.5 243.31,-283.24 244.19,-277.77"/>
<polygon fill="midnightblue" stroke="midnightblue" points="247.09,-275.82 238.78,-269.26 241.19,-279.57 247.09,-275.82"/>
</g>
<!-- Node21&#45;&gt;Node21 -->
<g id="edge55" class="edge">
<title>Node21&#45;&gt;Node21</title>
<path fill="none" stroke="midnightblue" d="M184.92,-212.66C178.03,-222.06 187.55,-231 213.5,-231 229.31,-231 239.02,-227.68 242.64,-222.96"/>
<polygon fill="midnightblue" stroke="midnightblue" points="246.12,-222.45 242.08,-212.66 239.13,-222.83 246.12,-222.45"/>
</g>
<!-- Node22 -->
<g id="node22" class="node">
<title>Node22</title>
<g id="a_node22"><a xlink:href="namespacerare_1_1utils_1_1steam__shortcuts.html#a08975ccd20d50c6e7411b3ca832b973b" target="_top" xlink:title=" ">
<polygon fill="white" stroke="black" points="347.5,-159.5 347.5,-189.5 496.5,-189.5 496.5,-159.5 347.5,-159.5"/>
<text text-anchor="start" x="355.5" y="-177.5" font-family="Helvetica,sans-Serif" font-size="10.00">rare.utils.steam_shortcuts.load</text>
<text text-anchor="middle" x="422" y="-166.5" font-family="Helvetica,sans-Serif" font-size="10.00">_steam_shortcuts</text>
</a>
</g>
</g>
<!-- Node21&#45;&gt;Node22 -->
<g id="edge49" class="edge">
<title>Node21&#45;&gt;Node22</title>
<path fill="none" stroke="midnightblue" d="M295.23,-188.51C309.06,-186.97 323.46,-185.36 337.37,-183.81"/>
<polygon fill="midnightblue" stroke="midnightblue" points="337.85,-187.28 347.4,-182.7 337.07,-180.33 337.85,-187.28"/>
</g>
<!-- Node22&#45;&gt;Node22 -->
<g id="edge54" class="edge">
<title>Node22&#45;&gt;Node22</title>
<path fill="none" stroke="midnightblue" d="M386.1,-189.66C377.44,-199.06 389.41,-208 422,-208 441.86,-208 454.06,-204.68 458.6,-199.96"/>
<polygon fill="midnightblue" stroke="midnightblue" points="462.07,-199.4 457.9,-189.66 455.09,-199.87 462.07,-199.4"/>
</g>
<!-- Node23 -->
<g id="node23" class="node">
<title>Node23</title>
<g id="a_node23"><a xlink:href="namespacerare_1_1utils_1_1steam__shortcuts.html#ac2593d9c656c0dbdf14dfc2650b610b4" target="_top" xlink:title=" ">
<polygon fill="white" stroke="black" points="555,-192.5 555,-222.5 701,-222.5 701,-192.5 555,-192.5"/>
<text text-anchor="start" x="563" y="-210.5" font-family="Helvetica,sans-Serif" font-size="10.00">rare.utils.steam_shortcuts.find</text>
<text text-anchor="middle" x="628" y="-199.5" font-family="Helvetica,sans-Serif" font-size="10.00">_steam</text>
</a>
</g>
</g>
<!-- Node22&#45;&gt;Node23 -->
<g id="edge50" class="edge">
<title>Node22&#45;&gt;Node23</title>
<path fill="none" stroke="midnightblue" d="M496.65,-186.41C512.19,-188.93 528.68,-191.6 544.53,-194.16"/>
<polygon fill="midnightblue" stroke="midnightblue" points="544.4,-197.68 554.83,-195.82 545.51,-190.77 544.4,-197.68"/>
</g>
<!-- Node24 -->
<g id="node24" class="node">
<title>Node24</title>
<g id="a_node24"><a xlink:href="namespacerare_1_1utils_1_1steam__shortcuts.html#a4c3f9257f10e48b9f0131228fdc352ae" target="_top" xlink:title=" ">
<polygon fill="white" stroke="black" points="555,-125.5 555,-155.5 701,-155.5 701,-125.5 555,-125.5"/>
<text text-anchor="start" x="563" y="-143.5" font-family="Helvetica,sans-Serif" font-size="10.00">rare.utils.steam_shortcuts.find</text>
<text text-anchor="middle" x="628" y="-132.5" font-family="Helvetica,sans-Serif" font-size="10.00">_steam_users</text>
</a>
</g>
</g>
<!-- Node22&#45;&gt;Node24 -->
<g id="edge52" class="edge">
<title>Node22&#45;&gt;Node24</title>
<path fill="none" stroke="midnightblue" d="M496.65,-162.23C512.19,-159.64 528.68,-156.89 544.53,-154.25"/>
<polygon fill="midnightblue" stroke="midnightblue" points="545.54,-157.63 554.83,-152.53 544.39,-150.72 545.54,-157.63"/>
</g>
<!-- Node23&#45;&gt;Node23 -->
<g id="edge51" class="edge">
<title>Node23&#45;&gt;Node23</title>
<path fill="none" stroke="midnightblue" d="M597.33,-222.66C589.93,-232.06 600.16,-241 628,-241 644.97,-241 655.39,-237.68 659.27,-232.96"/>
<polygon fill="midnightblue" stroke="midnightblue" points="662.75,-232.44 658.67,-222.66 655.76,-232.85 662.75,-232.44"/>
</g>
<!-- Node24&#45;&gt;Node24 -->
<g id="edge53" class="edge">
<title>Node24&#45;&gt;Node24</title>
<path fill="none" stroke="midnightblue" d="M597.33,-155.66C589.93,-165.06 600.16,-174 628,-174 644.97,-174 655.39,-170.68 659.27,-165.96"/>
<polygon fill="midnightblue" stroke="midnightblue" points="662.75,-165.44 658.67,-155.66 655.76,-165.85 662.75,-165.44"/>
</g>
<!-- Node25&#45;&gt;Node25 -->
<g id="edge58" class="edge">
<title>Node25&#45;&gt;Node25</title>
<path fill="none" stroke="midnightblue" d="M184.92,-145.66C178.03,-155.06 187.55,-164 213.5,-164 229.31,-164 239.02,-160.68 242.64,-155.96"/>
<polygon fill="midnightblue" stroke="midnightblue" points="246.12,-155.45 242.08,-145.66 239.13,-155.83 246.12,-155.45"/>
</g>
<!-- Node26&#45;&gt;Node15 -->
<g id="edge63" class="edge">
<title>Node26&#45;&gt;Node15</title>
<path fill="none" stroke="midnightblue" d="M250.25,-305.9C309.63,-292.13 430.22,-273.55 513,-323.5 579,-363.33 609.93,-456.47 621.42,-501.4"/>
<polygon fill="midnightblue" stroke="midnightblue" points="618.04,-502.33 623.81,-511.22 624.84,-500.67 618.04,-502.33"/>
</g>
<!-- Node26&#45;&gt;Node17 -->
<g id="edge61" class="edge">
<title>Node26&#45;&gt;Node17</title>
<path fill="none" stroke="midnightblue" d="M229.02,-325.2C262.24,-347.41 344.41,-402.31 389.73,-432.6"/>
<polygon fill="midnightblue" stroke="midnightblue" points="388.02,-435.67 398.28,-438.32 391.91,-429.85 388.02,-435.67"/>
</g>
<!-- Node26&#45;&gt;Node18 -->
<g id="edge62" class="edge">
<title>Node26&#45;&gt;Node18</title>
<path fill="none" stroke="midnightblue" d="M255.3,-321.82C283.42,-326.18 321.44,-332.07 353.97,-337.11"/>
<polygon fill="midnightblue" stroke="midnightblue" points="353.45,-340.57 363.87,-338.65 354.53,-333.66 353.45,-340.57"/>
</g>
<!-- Node26&#45;&gt;Node26 -->
<g id="edge66" class="edge">
<title>Node26&#45;&gt;Node26</title>
<path fill="none" stroke="midnightblue" d="M188.22,-325.26C175.93,-334.07 184.35,-343.5 213.5,-343.5 233.08,-343.5 243.31,-339.24 244.19,-333.77"/>
<polygon fill="midnightblue" stroke="midnightblue" points="247.09,-331.82 238.78,-325.26 241.19,-335.57 247.09,-331.82"/>
</g>
<!-- Node27 -->
<g id="node27" class="node">
<title>Node27</title>
<g id="a_node27"><a xlink:href="namespacerare_1_1utils_1_1steam__shortcuts.html#a484aafb02f6b04d0a04df9bdb732ce53" target="_top" xlink:title=" ">
<polygon fill="white" stroke="black" points="343,-226.5 343,-256.5 501,-256.5 501,-226.5 343,-226.5"/>
<text text-anchor="start" x="351" y="-244.5" font-family="Helvetica,sans-Serif" font-size="10.00">rare.utils.steam_shortcuts.steam</text>
<text text-anchor="middle" x="422" y="-233.5" font-family="Helvetica,sans-Serif" font-size="10.00">_shortcuts_supported</text>
</a>
</g>
</g>
<!-- Node26&#45;&gt;Node27 -->
<g id="edge64" class="edge">
<title>Node26&#45;&gt;Node27</title>
<path fill="none" stroke="midnightblue" d="M255.03,-307.43C267.94,-304.46 282.19,-300.77 295,-296.5 324.69,-286.61 357.01,-272.42 381.49,-260.94"/>
<polygon fill="midnightblue" stroke="midnightblue" points="383.26,-263.97 390.79,-256.52 380.26,-257.65 383.26,-263.97"/>
</g>
<!-- Node27&#45;&gt;Node27 -->
<g id="edge65" class="edge">
<title>Node27&#45;&gt;Node27</title>
<path fill="none" stroke="midnightblue" d="M386.1,-256.66C377.44,-266.06 389.41,-275 422,-275 441.86,-275 454.06,-271.68 458.6,-266.96"/>
<polygon fill="midnightblue" stroke="midnightblue" points="462.07,-266.4 457.9,-256.66 455.09,-266.87 462.07,-266.4"/>
</g>
<!-- Node28&#45;&gt;Node28 -->
<g id="edge72" class="edge">
<title>Node28&#45;&gt;Node28</title>
<path fill="none" stroke="midnightblue" d="M183.36,-78.36C180.07,-88.04 190.12,-96.5 213.5,-96.5 228.11,-96.5 237.52,-93.2 241.72,-88.36"/>
<polygon fill="midnightblue" stroke="midnightblue" points="245.19,-88.85 243.64,-78.36 238.31,-87.52 245.19,-88.85"/>
</g>
<!-- Node29 -->
<g id="node29" class="node">
<title>Node29</title>
<g id="a_node29"><a xlink:href="classrare_1_1components_1_1tray__icon_1_1_tray_icon.html#aca28781d9d67dfe93a3b27773d262c7a" target="_top" xlink:title=" ">
<polygon fill="white" stroke="black" points="356.5,-67.5 356.5,-97.5 487.5,-97.5 487.5,-67.5 356.5,-67.5"/>
<text text-anchor="start" x="364.5" y="-85.5" font-family="Helvetica,sans-Serif" font-size="10.00">rare.components.tray</text>
<text text-anchor="middle" x="422" y="-74.5" font-family="Helvetica,sans-Serif" font-size="10.00">_icon.TrayIcon.last_played</text>
</a>
</g>
</g>
<!-- Node28&#45;&gt;Node29 -->
<g id="edge68" class="edge">
<title>Node28&#45;&gt;Node29</title>
<path fill="none" stroke="midnightblue" d="M269.03,-64.1C292.66,-66.96 320.7,-70.36 346.23,-73.45"/>
<polygon fill="midnightblue" stroke="midnightblue" points="345.9,-76.93 356.25,-74.66 346.74,-69.98 345.9,-76.93"/>
</g>
<!-- Node30 -->
<g id="node30" class="node">
<title>Node30</title>
<g id="a_node30"><a xlink:href="classrare_1_1models_1_1steam_1_1_steam_shortcut.html#a99ce5001b7926b5fa213641182e4c5b0" target="_top" xlink:title=" ">
<polygon fill="white" stroke="black" points="331,-0.5 331,-30.5 513,-30.5 513,-0.5 331,-0.5"/>
<text text-anchor="start" x="339" y="-18.5" font-family="Helvetica,sans-Serif" font-size="10.00">rare.models.steam.SteamShortcut.last</text>
<text text-anchor="middle" x="422" y="-7.5" font-family="Helvetica,sans-Serif" font-size="10.00">_played</text>
</a>
</g>
</g>
<!-- Node28&#45;&gt;Node30 -->
<g id="edge70" class="edge">
<title>Node28&#45;&gt;Node30</title>
<path fill="none" stroke="midnightblue" d="M269.03,-46.41C289.84,-42.18 314.09,-37.24 337.02,-32.58"/>
<polygon fill="midnightblue" stroke="midnightblue" points="338,-35.95 347.1,-30.53 336.6,-29.09 338,-35.95"/>
</g>
<!-- Node29&#45;&gt;Node29 -->
<g id="edge69" class="edge">
<title>Node29&#45;&gt;Node29</title>
<path fill="none" stroke="midnightblue" d="M386.1,-97.66C377.44,-107.06 389.41,-116 422,-116 441.86,-116 454.06,-112.68 458.6,-107.96"/>
<polygon fill="midnightblue" stroke="midnightblue" points="462.07,-107.4 457.9,-97.66 455.09,-107.87 462.07,-107.4"/>
</g>
<!-- Node30&#45;&gt;Node30 -->
<g id="edge71" class="edge">
<title>Node30&#45;&gt;Node30</title>
<path fill="none" stroke="midnightblue" d="M386.1,-30.66C377.44,-40.06 389.41,-49 422,-49 441.86,-49 454.06,-45.68 458.6,-40.96"/>
<polygon fill="midnightblue" stroke="midnightblue" points="462.07,-40.4 457.9,-30.66 455.09,-40.87 462.07,-40.4"/>
</g>
</g>
</svg>
        <g id="navigator" transform="translate(0 0)" fill="#404254">
                <rect fill="#f2f5e9" fill-opacity="0.5" stroke="#606060" stroke-width=".5" x="0" y="0" width="60" height="60"/>
                <use id="zoomplus" xlink:href="#zoomPlus" x="17" y="9" onmousedown="handleZoom(evt,'in')"/>
                <use id="zoomminus" xlink:href="#zoomMin" x="42" y="9" onmousedown="handleZoom(evt,'out')"/>
                <use id="reset" xlink:href="#resetDef" x="30" y="36" onmousedown="handleReset()"/>
                <g id="arrowUp" xlink:href="#dirArrow" transform="translate(30 24)" onmousedown="handlePan(0,-1)">
                  <use xlink:href="#rim" fill="#404040">
                        <set attributeName="fill" to="#808080" begin="arrowUp.mouseover" end="arrowUp.mouseout"/>
                  </use>
                  <path fill="none" stroke="white" stroke-width="1.5" d="M0,-3.0v7 M-2.5,-0.5L0,-3.0L2.5,-0.5"/>
                </g>
                <g id="arrowRight" xlink:href="#dirArrow" transform="rotate(90) translate(36 -43)" onmousedown="handlePan(1,0)">
                  <use xlink:href="#rim" fill="#404040">
                        <set attributeName="fill" to="#808080" begin="arrowRight.mouseover" end="arrowRight.mouseout"/>
                  </use>
                  <path fill="none" stroke="white" stroke-width="1.5" d="M0,-3.0v7 M-2.5,-0.5L0,-3.0L2.5,-0.5"/>
                </g>
                <g id="arrowDown" xlink:href="#dirArrow" transform="rotate(180) translate(-30 -48)" onmousedown="handlePan(0,1)">
                  <use xlink:href="#rim" fill="#404040">
                        <set attributeName="fill" to="#808080" begin="arrowDown.mouseover" end="arrowDown.mouseout"/>
                  </use>
                  <path fill="none" stroke="white" stroke-width="1.5" d="M0,-3.0v7 M-2.5,-0.5L0,-3.0L2.5,-0.5"/>
                </g>
                <g id="arrowLeft" xlink:href="#dirArrow" transform="rotate(270) translate(-36 17)" onmousedown="handlePan(-1,0)">
                  <use xlink:href="#rim" fill="#404040">
                        <set attributeName="fill" to="#808080" begin="arrowLeft.mouseover" end="arrowLeft.mouseout"/>
                  </use>
                  <path fill="none" stroke="white" stroke-width="1.5" d="M0,-3.0v7 M-2.5,-0.5L0,-3.0L2.5,-0.5"/>
                </g>
        </g>
        <svg viewBox="0 0 15 15" width="100%" height="30px" preserveAspectRatio="xMaxYMin meet">
         <g id="arrow_out" transform="scale(0.3 0.3)">
          <a xlink:href="classrare_1_1components_1_1tabs_1_1library_1_1widgets_1_1game__widget_1_1_game_widget_a1c498583fd154d3fea8c59b543395ce5_cgraph_org.svg" target="_base">
           <rect id="button" ry="5" rx="5" y="6" x="6" height="38" width="38"
                fill="#f2f5e9" fill-opacity="0.5" stroke="#606060" stroke-width="1.0"/>
           <path id="arrow"
             d="M 11.500037,31.436501 C 11.940474,20.09759 22.043105,11.32322 32.158766,21.979434 L 37.068811,17.246167 C 37.068811,17.246167 37.088388,32 37.088388,32 L 22.160133,31.978069 C 22.160133,31.978069 26.997745,27.140456 26.997745,27.140456 C 18.528582,18.264221 13.291696,25.230495 11.500037,31.436501 z"
             style="fill:#404040;"/>
          </a>
         </g>
        </svg>
</svg>
