<?xml version="1.0" encoding="UTF-8" standalone="no"?>
<!DOCTYPE svg PUBLIC "-//W3C//DTD SVG 1.1//EN"
 "http://www.w3.org/Graphics/SVG/1.1/DTD/svg11.dtd">
<!-- Generated by graphviz version 2.49.3 (20211027.1534)
 -->
<!-- Title: update_rpc Pages: 1 -->
<svg width="451pt" height="118pt"
 viewBox="0.00 0.00 451.00 118.00" xmlns="http://www.w3.org/2000/svg" xmlns:xlink="http://www.w3.org/1999/xlink">
<g id="graph0" class="graph" transform="scale(1 1) rotate(0) translate(4 114)">
<title>update_rpc</title>
<polygon fill="white" stroke="transparent" points="-4,4 -4,-114 447,-114 447,4 -4,4"/>
<!-- Node1 -->
<g id="node1" class="node">
<title>Node1</title>
<g id="a_node1"><a xlink:title=" ">
<polygon fill="#bfbfbf" stroke="black" points="378,-28.5 378,-47.5 443,-47.5 443,-28.5 378,-28.5"/>
<text text-anchor="middle" x="410.5" y="-35.5" font-family="Helvetica,sans-Serif" font-size="10.00">update_rpc</text>
</a>
</g>
</g>
<!-- Node1&#45;&gt;Node1 -->
<g id="edge11" class="edge">
<title>Node1&#45;&gt;Node1</title>
<path fill="none" stroke="midnightblue" d="M430.87,-57.4C429.51,-62.31 422.72,-66 410.5,-66 390.95,-66 385.3,-56.57 393.55,-47.76"/>
<polygon fill="midnightblue" stroke="midnightblue" points="434.09,-56.01 427.45,-47.76 427.49,-58.35 434.09,-56.01"/>
</g>
<!-- Node2 -->
<g id="node2" class="node">
<title>Node2</title>
<g id="a_node2"><a xlink:href="classrare_1_1utils_1_1rpc_1_1_discord_r_p_c.html#a91d8946fb4a846f63b5c18378e0c7bda" target="_top" xlink:title=" ">
<polygon fill="white" stroke="black" points="256,-51.5 256,-70.5 342,-70.5 342,-51.5 256,-51.5"/>
<text text-anchor="middle" x="299" y="-58.5" font-family="Helvetica,sans-Serif" font-size="10.00">set_discord_rpc</text>
</a>
</g>
</g>
<!-- Node1&#45;&gt;Node2 -->
<g id="edge1" class="edge">
<title>Node1&#45;&gt;Node2</title>
<path fill="none" stroke="midnightblue" d="M367.86,-46.75C359.46,-48.51 350.62,-50.37 342.2,-52.14"/>
<polygon fill="midnightblue" stroke="midnightblue" points="368.76,-50.13 377.83,-44.65 367.32,-43.28 368.76,-50.13"/>
</g>
<!-- Node2&#45;&gt;Node2 -->
<g id="edge8" class="edge">
<title>Node2&#45;&gt;Node2</title>
<path fill="none" stroke="midnightblue" d="M319.37,-80.4C318.01,-85.31 311.22,-89 299,-89 279.45,-89 273.8,-79.57 282.05,-70.76"/>
<polygon fill="midnightblue" stroke="midnightblue" points="322.59,-79.01 315.95,-70.76 315.99,-81.35 322.59,-79.01"/>
</g>
<!-- Node3 -->
<g id="node3" class="node">
<title>Node3</title>
<g id="a_node3"><a xlink:href="classrare_1_1utils_1_1rpc_1_1_discord_r_p_c.html#a9e68e31374b90c3431e385aebb60e4c1" target="_top" xlink:title=" ">
<polygon fill="white" stroke="black" points="0,-56.5 0,-75.5 93,-75.5 93,-56.5 0,-56.5"/>
<text text-anchor="middle" x="46.5" y="-63.5" font-family="Helvetica,sans-Serif" font-size="10.00">changed_settings</text>
</a>
</g>
</g>
<!-- Node2&#45;&gt;Node3 -->
<g id="edge2" class="edge">
<title>Node2&#45;&gt;Node3</title>
<path fill="none" stroke="midnightblue" d="M276.5,-76.35C261.48,-86.1 240.5,-97.83 220,-103 180.78,-112.89 168.53,-111.55 129,-103 104.85,-97.78 79.26,-84.77 63.33,-75.66"/>
<polygon fill="midnightblue" stroke="midnightblue" points="278.69,-79.1 285.04,-70.61 274.79,-73.29 278.69,-79.1"/>
</g>
<!-- Node4 -->
<g id="node4" class="node">
<title>Node4</title>
<g id="a_node4"><a xlink:href="classrare_1_1utils_1_1rpc_1_1_discord_r_p_c.html#a322ebb4953da62177002651ba9b4edc1" target="_top" xlink:title=" ">
<polygon fill="white" stroke="black" points="140.5,-0.5 140.5,-19.5 208.5,-19.5 208.5,-0.5 140.5,-0.5"/>
<text text-anchor="middle" x="174.5" y="-7.5" font-family="Helvetica,sans-Serif" font-size="10.00">remove_rpc</text>
</a>
</g>
</g>
<!-- Node2&#45;&gt;Node4 -->
<g id="edge4" class="edge">
<title>Node2&#45;&gt;Node4</title>
<path fill="none" stroke="midnightblue" d="M265.71,-47.56C244.55,-38.75 217.4,-27.44 198.44,-19.55"/>
<polygon fill="midnightblue" stroke="midnightblue" points="264.38,-50.79 274.96,-51.41 267.07,-44.33 264.38,-50.79"/>
</g>
<!-- Node5 -->
<g id="node5" class="node">
<title>Node5</title>
<g id="a_node5"><a xlink:href="classrare_1_1utils_1_1rpc_1_1_discord_r_p_c.html#a3a87a240b41c5f6830d62b22d483f952" target="_top" xlink:title=" ">
<polygon fill="white" stroke="black" points="129,-56.5 129,-75.5 220,-75.5 220,-56.5 129,-56.5"/>
<text text-anchor="middle" x="174.5" y="-63.5" font-family="Helvetica,sans-Serif" font-size="10.00">update_presence</text>
</a>
</g>
</g>
<!-- Node2&#45;&gt;Node5 -->
<g id="edge9" class="edge">
<title>Node2&#45;&gt;Node5</title>
<path fill="none" stroke="midnightblue" d="M245.67,-63.14C237.21,-63.48 228.51,-63.84 220.24,-64.17"/>
<polygon fill="midnightblue" stroke="midnightblue" points="245.99,-66.63 255.84,-62.72 245.71,-59.63 245.99,-66.63"/>
</g>
<!-- Node3&#45;&gt;Node3 -->
<g id="edge3" class="edge">
<title>Node3&#45;&gt;Node3</title>
<path fill="none" stroke="midnightblue" d="M70.31,-85.03C69.01,-90.13 61.07,-94 46.5,-94 23.75,-94 17.17,-84.57 26.77,-75.76"/>
<polygon fill="midnightblue" stroke="midnightblue" points="73.46,-83.5 66.23,-75.76 67.05,-86.32 73.46,-83.5"/>
</g>
<!-- Node4&#45;&gt;Node1 -->
<g id="edge7" class="edge">
<title>Node4&#45;&gt;Node1</title>
<path fill="none" stroke="midnightblue" d="M218.82,-15.18C264.97,-20.71 336.89,-29.31 377.94,-34.22"/>
<polygon fill="midnightblue" stroke="midnightblue" points="219.17,-11.7 208.82,-13.99 218.33,-18.65 219.17,-11.7"/>
</g>
<!-- Node4&#45;&gt;Node3 -->
<g id="edge5" class="edge">
<title>Node4&#45;&gt;Node3</title>
<path fill="none" stroke="midnightblue" d="M142.56,-23.75C119.67,-33.92 89.1,-47.51 68.88,-56.5"/>
<polygon fill="midnightblue" stroke="midnightblue" points="144.12,-26.89 151.84,-19.63 141.28,-20.49 144.12,-26.89"/>
</g>
<!-- Node4&#45;&gt;Node4 -->
<g id="edge6" class="edge">
<title>Node4&#45;&gt;Node4</title>
<path fill="none" stroke="midnightblue" d="M197.57,-29.03C196.31,-34.13 188.62,-38 174.5,-38 152.46,-38 146.09,-28.57 155.39,-19.76"/>
<polygon fill="midnightblue" stroke="midnightblue" points="200.75,-27.58 193.61,-19.76 194.31,-30.33 200.75,-27.58"/>
</g>
<!-- Node5&#45;&gt;Node5 -->
<g id="edge10" class="edge">
<title>Node5&#45;&gt;Node5</title>
<path fill="none" stroke="midnightblue" d="M197.57,-85.03C196.31,-90.13 188.62,-94 174.5,-94 152.46,-94 146.09,-84.57 155.39,-75.76"/>
<polygon fill="midnightblue" stroke="midnightblue" points="200.75,-83.58 193.61,-75.76 194.31,-86.33 200.75,-83.58"/>
</g>
</g>
</svg>
