<?xml version="1.0" encoding="UTF-8" standalone="no"?>
<!DOCTYPE svg PUBLIC "-//W3C//DTD SVG 1.1//EN"
 "http://www.w3.org/Graphics/SVG/1.1/DTD/svg11.dtd">
<!-- Generated by graphviz version 2.49.3 (20211027.1534)
 -->
<!-- Title: Graphical Class Hierarchy Pages: 1 -->
<svg width="251pt" height="1282pt"
 viewBox="0.00 0.00 251.00 1282.00" xmlns="http://www.w3.org/2000/svg" xmlns:xlink="http://www.w3.org/1999/xlink">
<g id="graph0" class="graph" transform="scale(1 1) rotate(0) translate(4 1278)">
<title>Graphical Class Hierarchy</title>
<polygon fill="white" stroke="transparent" points="-4,4 -4,-1278 247,-1278 247,4 -4,4"/>
<!-- Node202 -->
<g id="node1" class="node">
<title>Node202</title>
<g id="a_node1"><a xlink:title=" ">
<polygon fill="white" stroke="#bfbfbf" points="0,-627.5 0,-646.5 53,-646.5 53,-627.5 0,-627.5"/>
<text text-anchor="middle" x="26.5" y="-634.5" font-family="Helvetica,sans-Serif" font-size="10.00">QObject</text>
</a>
</g>
</g>
<!-- Node0 -->
<g id="node2" class="node">
<title>Node0</title>
<g id="a_node2"><a xlink:href="classrare_1_1components_1_1dialogs_1_1install__dialog_1_1_install_info_worker_1_1_signals.html" target="_top" xlink:title=" ">
<polygon fill="white" stroke="black" points="103.5,-1254.5 103.5,-1273.5 228.5,-1273.5 228.5,-1254.5 103.5,-1254.5"/>
<text text-anchor="middle" x="166" y="-1261.5" font-family="Helvetica,sans-Serif" font-size="10.00">InstallInfoWorker.Signals</text>
</a>
</g>
</g>
<!-- Node202&#45;&gt;Node0 -->
<g id="edge1" class="edge">
<title>Node202&#45;&gt;Node0</title>
<path fill="none" stroke="midnightblue" d="M28.17,-656.87C31.72,-756.59 49.6,-1199.47 89,-1245 93,-1249.63 97.95,-1253.22 103.38,-1255.99"/>
<polygon fill="midnightblue" stroke="midnightblue" points="31.66,-656.56 27.82,-646.69 24.67,-656.8 31.66,-656.56"/>
</g>
<!-- Node204 -->
<g id="node3" class="node">
<title>Node204</title>
<g id="a_node3"><a xlink:href="classrare_1_1components_1_1tabs_1_1games_1_1cloud__save__utils_1_1_cloud_save_utils.html" target="_top" xlink:title=" ">
<polygon fill="white" stroke="black" points="124,-1216.5 124,-1235.5 208,-1235.5 208,-1216.5 124,-1216.5"/>
<text text-anchor="middle" x="166" y="-1223.5" font-family="Helvetica,sans-Serif" font-size="10.00">CloudSaveUtils</text>
</a>
</g>
</g>
<!-- Node202&#45;&gt;Node204 -->
<g id="edge2" class="edge">
<title>Node202&#45;&gt;Node204</title>
<path fill="none" stroke="midnightblue" d="M28.31,-656.81C32.4,-752.57 52.05,-1164.58 89,-1207 97.75,-1217.05 110.94,-1222.19 123.89,-1224.71"/>
<polygon fill="midnightblue" stroke="midnightblue" points="31.79,-656.37 27.88,-646.53 24.8,-656.67 31.79,-656.37"/>
</g>
<!-- Node205 -->
<g id="node4" class="node">
<title>Node205</title>
<g id="a_node4"><a xlink:href="classrare_1_1components_1_1tabs_1_1games_1_1cloud__save__utils_1_1_save_signals.html" target="_top" xlink:title=" ">
<polygon fill="white" stroke="black" points="130.5,-1178.5 130.5,-1197.5 201.5,-1197.5 201.5,-1178.5 130.5,-1178.5"/>
<text text-anchor="middle" x="166" y="-1185.5" font-family="Helvetica,sans-Serif" font-size="10.00">SaveSignals</text>
</a>
</g>
</g>
<!-- Node202&#45;&gt;Node205 -->
<g id="edge3" class="edge">
<title>Node202&#45;&gt;Node205</title>
<path fill="none" stroke="midnightblue" d="M28.48,-656.93C33.16,-748.92 54.52,-1129.72 89,-1169 99.23,-1180.65 115.42,-1185.69 130.23,-1187.7"/>
<polygon fill="midnightblue" stroke="midnightblue" points="31.96,-656.57 27.97,-646.76 24.97,-656.92 31.96,-656.57"/>
</g>
<!-- Node206 -->
<g id="node5" class="node">
<title>Node206</title>
<g id="a_node5"><a xlink:href="classrare_1_1components_1_1tabs_1_1games_1_1game__info_1_1game__info_1_1_copy_game_installation_1_1_signals.html" target="_top" xlink:title=" ">
<polygon fill="white" stroke="black" points="93,-1140.5 93,-1159.5 239,-1159.5 239,-1140.5 93,-1140.5"/>
<text text-anchor="middle" x="166" y="-1147.5" font-family="Helvetica,sans-Serif" font-size="10.00">CopyGameInstallation.Signals</text>
</a>
</g>
</g>
<!-- Node202&#45;&gt;Node206 -->
<g id="edge4" class="edge">
<title>Node202&#45;&gt;Node206</title>
<path fill="none" stroke="midnightblue" d="M27.1,-656.96C25.86,-740.27 25.38,-1059.17 89,-1131 92.34,-1134.77 96.3,-1137.84 100.63,-1140.35"/>
<polygon fill="midnightblue" stroke="midnightblue" points="30.6,-656.88 27.28,-646.82 23.6,-656.76 30.6,-656.88"/>
</g>
<!-- Node207 -->
<g id="node6" class="node">
<title>Node207</title>
<g id="a_node6"><a xlink:href="classrare_1_1components_1_1tabs_1_1games_1_1game__utils_1_1_game_process.html" target="_top" xlink:title=" ">
<polygon fill="white" stroke="black" points="126.5,-1102.5 126.5,-1121.5 205.5,-1121.5 205.5,-1102.5 126.5,-1102.5"/>
<text text-anchor="middle" x="166" y="-1109.5" font-family="Helvetica,sans-Serif" font-size="10.00">GameProcess</text>
</a>
</g>
</g>
<!-- Node202&#45;&gt;Node207 -->
<g id="edge5" class="edge">
<title>Node202&#45;&gt;Node207</title>
<path fill="none" stroke="midnightblue" d="M27.33,-656.93C27.08,-736.11 30.23,-1027.32 89,-1093 98.43,-1103.54 112.74,-1108.65 126.41,-1111.01"/>
<polygon fill="midnightblue" stroke="midnightblue" points="30.83,-656.86 27.39,-646.84 23.83,-656.82 30.83,-656.86"/>
</g>
<!-- Node208 -->
<g id="node7" class="node">
<title>Node208</title>
<g id="a_node7"><a xlink:href="classrare_1_1components_1_1tabs_1_1games_1_1game__utils_1_1_game_utils.html" target="_top" xlink:title=" ">
<polygon fill="white" stroke="black" points="134.5,-1064.5 134.5,-1083.5 197.5,-1083.5 197.5,-1064.5 134.5,-1064.5"/>
<text text-anchor="middle" x="166" y="-1071.5" font-family="Helvetica,sans-Serif" font-size="10.00">GameUtils</text>
</a>
</g>
</g>
<!-- Node202&#45;&gt;Node208 -->
<g id="edge6" class="edge">
<title>Node202&#45;&gt;Node208</title>
<path fill="none" stroke="midnightblue" d="M27.61,-657.15C28.42,-732.38 35.13,-995.52 89,-1055 100.32,-1067.5 118.51,-1072.35 134.25,-1074.02"/>
<polygon fill="midnightblue" stroke="midnightblue" points="31.1,-656.72 27.52,-646.75 24.1,-656.78 31.1,-656.72"/>
</g>
<!-- Node209 -->
<g id="node8" class="node">
<title>Node209</title>
<g id="a_node8"><a xlink:href="classrare_1_1components_1_1tabs_1_1games_1_1game__widgets_1_1_library_widget_controller.html" target="_top" xlink:title=" ">
<polygon fill="white" stroke="black" points="107.5,-1026.5 107.5,-1045.5 224.5,-1045.5 224.5,-1026.5 107.5,-1026.5"/>
<text text-anchor="middle" x="166" y="-1033.5" font-family="Helvetica,sans-Serif" font-size="10.00">LibraryWidgetController</text>
</a>
</g>
</g>
<!-- Node202&#45;&gt;Node209 -->
<g id="edge7" class="edge">
<title>Node202&#45;&gt;Node209</title>
<path fill="none" stroke="midnightblue" d="M27.92,-656.67C29.83,-726.83 39.85,-963.51 89,-1017 94.06,-1022.51 100.46,-1026.53 107.38,-1029.44"/>
<polygon fill="midnightblue" stroke="midnightblue" points="31.42,-656.47 27.67,-646.56 24.42,-656.64 31.42,-656.47"/>
</g>
<!-- Node210 -->
<g id="node9" class="node">
<title>Node210</title>
<g id="a_node9"><a xlink:href="classrare_1_1components_1_1tabs_1_1settings_1_1legendary_1_1_refresh_game_meta_signals.html" target="_top" xlink:title=" ">
<polygon fill="white" stroke="black" points="100.5,-988.5 100.5,-1007.5 231.5,-1007.5 231.5,-988.5 100.5,-988.5"/>
<text text-anchor="middle" x="166" y="-995.5" font-family="Helvetica,sans-Serif" font-size="10.00">RefreshGameMetaSignals</text>
</a>
</g>
</g>
<!-- Node202&#45;&gt;Node210 -->
<g id="edge8" class="edge">
<title>Node202&#45;&gt;Node210</title>
<path fill="none" stroke="midnightblue" d="M28.31,-656.78C31.42,-722.43 44.69,-931.61 89,-979 92.53,-982.77 96.69,-985.85 101.21,-988.34"/>
<polygon fill="midnightblue" stroke="midnightblue" points="31.8,-656.41 27.86,-646.58 24.81,-656.72 31.8,-656.41"/>
</g>
<!-- Node211 -->
<g id="node10" class="node">
<title>Node211</title>
<g id="a_node10"><a xlink:href="classrare_1_1components_1_1tabs_1_1settings_1_1widgets_1_1eos_1_1_check_for_update_signals.html" target="_top" xlink:title=" ">
<polygon fill="white" stroke="black" points="105,-950.5 105,-969.5 227,-969.5 227,-950.5 105,-950.5"/>
<text text-anchor="middle" x="166" y="-957.5" font-family="Helvetica,sans-Serif" font-size="10.00">CheckForUpdateSignals</text>
</a>
</g>
</g>
<!-- Node202&#45;&gt;Node211 -->
<g id="edge9" class="edge">
<title>Node202&#45;&gt;Node211</title>
<path fill="none" stroke="midnightblue" d="M28.81,-656.92C33.22,-717.79 49.51,-899.67 89,-941 93.51,-945.72 99,-949.34 104.95,-952.1"/>
<polygon fill="midnightblue" stroke="midnightblue" points="32.29,-656.47 28.1,-646.73 25.3,-656.95 32.29,-656.47"/>
</g>
<!-- Node212 -->
<g id="node11" class="node">
<title>Node212</title>
<g id="a_node11"><a xlink:href="classrare_1_1components_1_1tabs_1_1settings_1_1widgets_1_1ubisoft__activation_1_1_ubi_activation_helper.html" target="_top" xlink:title=" ">
<polygon fill="white" stroke="black" points="114,-912.5 114,-931.5 218,-931.5 218,-912.5 114,-912.5"/>
<text text-anchor="middle" x="166" y="-919.5" font-family="Helvetica,sans-Serif" font-size="10.00">UbiActivationHelper</text>
</a>
</g>
</g>
<!-- Node202&#45;&gt;Node212 -->
<g id="edge10" class="edge">
<title>Node202&#45;&gt;Node212</title>
<path fill="none" stroke="midnightblue" d="M29.44,-656.93C35.24,-712.55 54.27,-867.64 89,-903 95.77,-909.89 104.63,-914.42 113.9,-917.37"/>
<polygon fill="midnightblue" stroke="midnightblue" points="32.89,-656.25 28.4,-646.65 25.92,-656.96 32.89,-656.25"/>
</g>
<!-- Node213 -->
<g id="node12" class="node">
<title>Node213</title>
<g id="a_node12"><a xlink:href="classrare_1_1components_1_1tabs_1_1settings_1_1widgets_1_1ubisoft__activation_1_1_ubi_connect_signals.html" target="_top" xlink:title=" ">
<polygon fill="white" stroke="black" points="116,-874.5 116,-893.5 216,-893.5 216,-874.5 116,-874.5"/>
<text text-anchor="middle" x="166" y="-881.5" font-family="Helvetica,sans-Serif" font-size="10.00">UbiConnectSignals</text>
</a>
</g>
</g>
<!-- Node202&#45;&gt;Node213 -->
<g id="edge11" class="edge">
<title>Node202&#45;&gt;Node213</title>
<path fill="none" stroke="midnightblue" d="M26.64,-656.96C25.88,-701.11 30.6,-807.67 89,-865 96.28,-872.15 105.82,-876.74 115.66,-879.65"/>
<polygon fill="midnightblue" stroke="midnightblue" points="30.14,-657.02 26.93,-646.92 23.14,-656.82 30.14,-657.02"/>
</g>
<!-- Node214 -->
<g id="node13" class="node">
<title>Node214</title>
<g id="a_node13"><a xlink:href="classrare_1_1components_1_1tabs_1_1settings_1_1widgets_1_1ubisoft__activation_1_1_ubi_get_info_signals.html" target="_top" xlink:title=" ">
<polygon fill="white" stroke="black" points="118,-836.5 118,-855.5 214,-855.5 214,-836.5 118,-836.5"/>
<text text-anchor="middle" x="166" y="-843.5" font-family="Helvetica,sans-Serif" font-size="10.00">UbiGetInfoSignals</text>
</a>
</g>
</g>
<!-- Node202&#45;&gt;Node214 -->
<g id="edge12" class="edge">
<title>Node202&#45;&gt;Node214</title>
<path fill="none" stroke="midnightblue" d="M27.93,-656.99C29.88,-695.7 39.86,-781.1 89,-827 96.95,-834.43 107.35,-839.07 117.9,-841.94"/>
<polygon fill="midnightblue" stroke="midnightblue" points="31.41,-656.44 27.54,-646.57 24.41,-656.7 31.41,-656.44"/>
</g>
<!-- Node215 -->
<g id="node14" class="node">
<title>Node215</title>
<g id="a_node14"><a xlink:href="classrare_1_1components_1_1tabs_1_1shop_1_1constants_1_1_constants.html" target="_top" xlink:title=" ">
<polygon fill="white" stroke="black" points="135.5,-798.5 135.5,-817.5 196.5,-817.5 196.5,-798.5 135.5,-798.5"/>
<text text-anchor="middle" x="166" y="-805.5" font-family="Helvetica,sans-Serif" font-size="10.00">Constants</text>
</a>
</g>
</g>
<!-- Node202&#45;&gt;Node215 -->
<g id="edge13" class="edge">
<title>Node202&#45;&gt;Node215</title>
<path fill="none" stroke="midnightblue" d="M29.74,-656.58C34.54,-689.1 48.84,-754.08 89,-789 101.73,-800.07 119.96,-804.87 135.37,-806.88"/>
<polygon fill="midnightblue" stroke="midnightblue" points="33.2,-656 28.42,-646.54 26.26,-656.91 33.2,-656"/>
</g>
<!-- Node216 -->
<g id="node15" class="node">
<title>Node216</title>
<g id="a_node15"><a xlink:href="classrare_1_1components_1_1tabs_1_1shop_1_1shop__api__core_1_1_shop_api_core.html" target="_top" xlink:title=" ">
<polygon fill="white" stroke="black" points="129,-760.5 129,-779.5 203,-779.5 203,-760.5 129,-760.5"/>
<text text-anchor="middle" x="166" y="-767.5" font-family="Helvetica,sans-Serif" font-size="10.00">ShopApiCore</text>
</a>
</g>
</g>
<!-- Node202&#45;&gt;Node216 -->
<g id="edge14" class="edge">
<title>Node202&#45;&gt;Node216</title>
<path fill="none" stroke="midnightblue" d="M32.62,-656.38C40.42,-682 57.77,-726.73 89,-751 100.28,-759.76 115.09,-764.53 128.64,-767.11"/>
<polygon fill="midnightblue" stroke="midnightblue" points="35.97,-655.34 29.85,-646.68 29.24,-657.26 35.97,-655.34"/>
</g>
<!-- Node217 -->
<g id="node16" class="node">
<title>Node217</title>
<g id="a_node16"><a xlink:href="classrare_1_1game__launch__helper_1_1_game_process_helper.html" target="_top" xlink:title=" ">
<polygon fill="white" stroke="black" points="112.5,-722.5 112.5,-741.5 219.5,-741.5 219.5,-722.5 112.5,-722.5"/>
<text text-anchor="middle" x="166" y="-729.5" font-family="Helvetica,sans-Serif" font-size="10.00">GameProcessHelper</text>
</a>
</g>
</g>
<!-- Node202&#45;&gt;Node217 -->
<g id="edge15" class="edge">
<title>Node202&#45;&gt;Node217</title>
<path fill="none" stroke="midnightblue" d="M37.57,-655.34C48.12,-672.81 66.3,-698.52 89,-713 96.11,-717.53 104.23,-720.99 112.46,-723.62"/>
<polygon fill="midnightblue" stroke="midnightblue" points="40.56,-653.51 32.52,-646.61 34.5,-657.01 40.56,-653.51"/>
</g>
<!-- Node218 -->
<g id="node17" class="node">
<title>Node218</title>
<g id="a_node17"><a xlink:href="classrare_1_1game__launch__helper_1_1_pre_launch_thread_1_1_signals.html" target="_top" xlink:title=" ">
<polygon fill="white" stroke="black" points="102,-684.5 102,-703.5 230,-703.5 230,-684.5 102,-684.5"/>
<text text-anchor="middle" x="166" y="-691.5" font-family="Helvetica,sans-Serif" font-size="10.00">PreLaunchThread.Signals</text>
</a>
</g>
</g>
<!-- Node202&#45;&gt;Node218 -->
<g id="edge16" class="edge">
<title>Node202&#45;&gt;Node218</title>
<path fill="none" stroke="midnightblue" d="M48.95,-652.53C60.38,-660.21 74.95,-669.07 89,-675 97.9,-678.75 107.7,-681.89 117.23,-684.45"/>
<polygon fill="midnightblue" stroke="midnightblue" points="50.74,-649.52 40.53,-646.71 46.76,-655.28 50.74,-649.52"/>
</g>
<!-- Node219 -->
<g id="node18" class="node">
<title>Node219</title>
<g id="a_node18"><a xlink:href="classrare_1_1models_1_1game_1_1_rare_game.html" target="_top" xlink:title=" ">
<polygon fill="white" stroke="black" points="134.5,-646.5 134.5,-665.5 197.5,-665.5 197.5,-646.5 134.5,-646.5"/>
<text text-anchor="middle" x="166" y="-653.5" font-family="Helvetica,sans-Serif" font-size="10.00">RareGame</text>
</a>
</g>
</g>
<!-- Node202&#45;&gt;Node219 -->
<g id="edge17" class="edge">
<title>Node202&#45;&gt;Node219</title>
<path fill="none" stroke="midnightblue" d="M63.03,-641.91C85.1,-644.96 113.2,-648.84 134.31,-651.76"/>
<polygon fill="midnightblue" stroke="midnightblue" points="63.43,-638.43 53.04,-640.53 62.47,-645.37 63.43,-638.43"/>
</g>
<!-- Node220 -->
<g id="node19" class="node">
<title>Node220</title>
<g id="a_node19"><a xlink:href="classrare_1_1models_1_1game_1_1_rare_game_1_1_signals_1_1_game.html" target="_top" xlink:title=" ">
<polygon fill="white" stroke="black" points="103,-608.5 103,-627.5 229,-627.5 229,-608.5 103,-608.5"/>
<text text-anchor="middle" x="166" y="-615.5" font-family="Helvetica,sans-Serif" font-size="10.00">RareGame.Signals.Game</text>
</a>
</g>
</g>
<!-- Node202&#45;&gt;Node220 -->
<g id="edge18" class="edge">
<title>Node202&#45;&gt;Node220</title>
<path fill="none" stroke="midnightblue" d="M63.17,-632.07C75.27,-630.4 89.18,-628.48 102.75,-626.6"/>
<polygon fill="midnightblue" stroke="midnightblue" points="62.47,-628.63 53.04,-633.47 63.43,-635.57 62.47,-628.63"/>
</g>
<!-- Node221 -->
<g id="node20" class="node">
<title>Node221</title>
<g id="a_node20"><a xlink:href="classrare_1_1models_1_1game_1_1_rare_game_1_1_signals_1_1_progress.html" target="_top" xlink:title=" ">
<polygon fill="white" stroke="black" points="96.5,-570.5 96.5,-589.5 235.5,-589.5 235.5,-570.5 96.5,-570.5"/>
<text text-anchor="middle" x="166" y="-577.5" font-family="Helvetica,sans-Serif" font-size="10.00">RareGame.Signals.Progress</text>
</a>
</g>
</g>
<!-- Node202&#45;&gt;Node221 -->
<g id="edge19" class="edge">
<title>Node202&#45;&gt;Node221</title>
<path fill="none" stroke="midnightblue" d="M48.95,-621.47C60.38,-613.79 74.95,-604.93 89,-599 97.9,-595.25 107.7,-592.11 117.23,-589.55"/>
<polygon fill="midnightblue" stroke="midnightblue" points="46.76,-618.72 40.53,-627.29 50.74,-624.48 46.76,-618.72"/>
</g>
<!-- Node222 -->
<g id="node21" class="node">
<title>Node222</title>
<g id="a_node21"><a xlink:href="classrare_1_1models_1_1game_1_1_rare_game_1_1_signals_1_1_widget.html" target="_top" xlink:title=" ">
<polygon fill="white" stroke="black" points="101,-532.5 101,-551.5 231,-551.5 231,-532.5 101,-532.5"/>
<text text-anchor="middle" x="166" y="-539.5" font-family="Helvetica,sans-Serif" font-size="10.00">RareGame.Signals.Widget</text>
</a>
</g>
</g>
<!-- Node202&#45;&gt;Node222 -->
<g id="edge20" class="edge">
<title>Node202&#45;&gt;Node222</title>
<path fill="none" stroke="midnightblue" d="M37.57,-618.66C48.12,-601.19 66.3,-575.48 89,-561 95.08,-557.12 101.9,-554.04 108.89,-551.58"/>
<polygon fill="midnightblue" stroke="midnightblue" points="34.5,-616.99 32.52,-627.39 40.56,-620.49 34.5,-616.99"/>
</g>
<!-- Node223 -->
<g id="node22" class="node">
<title>Node223</title>
<g id="a_node22"><a xlink:href="classrare_1_1models_1_1signals_1_1_global_signals.html" target="_top" xlink:title=" ">
<polygon fill="white" stroke="black" points="127.5,-494.5 127.5,-513.5 204.5,-513.5 204.5,-494.5 127.5,-494.5"/>
<text text-anchor="middle" x="166" y="-501.5" font-family="Helvetica,sans-Serif" font-size="10.00">GlobalSignals</text>
</a>
</g>
</g>
<!-- Node202&#45;&gt;Node223 -->
<g id="edge21" class="edge">
<title>Node202&#45;&gt;Node223</title>
<path fill="none" stroke="midnightblue" d="M32.62,-617.62C40.42,-592 57.77,-547.27 89,-523 99.95,-514.49 114.25,-509.74 127.47,-507.11"/>
<polygon fill="midnightblue" stroke="midnightblue" points="29.24,-616.74 29.85,-627.32 35.97,-618.66 29.24,-616.74"/>
</g>
<!-- Node224 -->
<g id="node23" class="node">
<title>Node224</title>
<g id="a_node23"><a xlink:href="classrare_1_1models_1_1signals_1_1_global_signals_1_1_download_signals.html" target="_top" xlink:title=" ">
<polygon fill="white" stroke="black" points="89,-456.5 89,-475.5 243,-475.5 243,-456.5 89,-456.5"/>
<text text-anchor="middle" x="166" y="-463.5" font-family="Helvetica,sans-Serif" font-size="10.00">GlobalSignals.DownloadSignals</text>
</a>
</g>
</g>
<!-- Node202&#45;&gt;Node224 -->
<g id="edge22" class="edge">
<title>Node202&#45;&gt;Node224</title>
<path fill="none" stroke="midnightblue" d="M29.74,-617.42C34.54,-584.9 48.84,-519.92 89,-485 93.41,-481.16 98.49,-478.08 103.88,-475.6"/>
<polygon fill="midnightblue" stroke="midnightblue" points="26.26,-617.09 28.42,-627.46 33.2,-618 26.26,-617.09"/>
</g>
<!-- Node225 -->
<g id="node24" class="node">
<title>Node225</title>
<g id="a_node24"><a xlink:href="classrare_1_1models_1_1signals_1_1_global_signals_1_1_game_signals.html" target="_top" xlink:title=" ">
<polygon fill="white" stroke="black" points="97.5,-418.5 97.5,-437.5 234.5,-437.5 234.5,-418.5 97.5,-418.5"/>
<text text-anchor="middle" x="166" y="-425.5" font-family="Helvetica,sans-Serif" font-size="10.00">GlobalSignals.GameSignals</text>
</a>
</g>
</g>
<!-- Node202&#45;&gt;Node225 -->
<g id="edge23" class="edge">
<title>Node202&#45;&gt;Node225</title>
<path fill="none" stroke="midnightblue" d="M27.93,-617.01C29.88,-578.3 39.86,-492.9 89,-447 93.07,-443.19 97.79,-440.12 102.85,-437.64"/>
<polygon fill="midnightblue" stroke="midnightblue" points="24.41,-617.3 27.54,-627.43 31.41,-617.56 24.41,-617.3"/>
</g>
<!-- Node226 -->
<g id="node25" class="node">
<title>Node226</title>
<g id="a_node25"><a xlink:href="classrare_1_1models_1_1signals_1_1_global_signals_1_1_progress_signals.html" target="_top" xlink:title=" ">
<polygon fill="white" stroke="black" points="91,-380.5 91,-399.5 241,-399.5 241,-380.5 91,-380.5"/>
<text text-anchor="middle" x="166" y="-387.5" font-family="Helvetica,sans-Serif" font-size="10.00">GlobalSignals.ProgressSignals</text>
</a>
</g>
</g>
<!-- Node202&#45;&gt;Node226 -->
<g id="edge24" class="edge">
<title>Node202&#45;&gt;Node226</title>
<path fill="none" stroke="midnightblue" d="M26.64,-617.04C25.88,-572.89 30.6,-466.33 89,-409 92.88,-405.19 97.41,-402.1 102.28,-399.61"/>
<polygon fill="midnightblue" stroke="midnightblue" points="23.14,-617.18 26.93,-627.08 30.14,-616.98 23.14,-617.18"/>
</g>
<!-- Node227 -->
<g id="node26" class="node">
<title>Node227</title>
<g id="a_node26"><a xlink:href="classrare_1_1shared_1_1image__manager_1_1_image_manager.html" target="_top" xlink:title=" ">
<polygon fill="white" stroke="black" points="125.5,-342.5 125.5,-361.5 206.5,-361.5 206.5,-342.5 125.5,-342.5"/>
<text text-anchor="middle" x="166" y="-349.5" font-family="Helvetica,sans-Serif" font-size="10.00">ImageManager</text>
</a>
</g>
</g>
<!-- Node202&#45;&gt;Node227 -->
<g id="edge25" class="edge">
<title>Node202&#45;&gt;Node227</title>
<path fill="none" stroke="midnightblue" d="M29.44,-617.07C35.24,-561.45 54.27,-406.36 89,-371 98.53,-361.3 112.21,-356.28 125.35,-353.76"/>
<polygon fill="midnightblue" stroke="midnightblue" points="25.92,-617.04 28.4,-627.35 32.89,-617.75 25.92,-617.04"/>
</g>
<!-- Node228 -->
<g id="node27" class="node">
<title>Node228</title>
<g id="a_node27"><a xlink:href="classrare_1_1shared_1_1image__manager_1_1_image_manager_1_1_worker_1_1_signals.html" target="_top" xlink:title=" ">
<polygon fill="white" stroke="black" points="91.5,-304.5 91.5,-323.5 240.5,-323.5 240.5,-304.5 91.5,-304.5"/>
<text text-anchor="middle" x="166" y="-311.5" font-family="Helvetica,sans-Serif" font-size="10.00">ImageManager.Worker.Signals</text>
</a>
</g>
</g>
<!-- Node202&#45;&gt;Node228 -->
<g id="edge26" class="edge">
<title>Node202&#45;&gt;Node228</title>
<path fill="none" stroke="midnightblue" d="M28.81,-617.08C33.22,-556.21 49.51,-374.33 89,-333 92.66,-329.17 96.98,-326.06 101.65,-323.55"/>
<polygon fill="midnightblue" stroke="midnightblue" points="25.3,-617.05 28.1,-627.27 32.29,-617.53 25.3,-617.05"/>
</g>
<!-- Node229 -->
<g id="node28" class="node">
<title>Node229</title>
<g id="a_node28"><a xlink:href="classrare_1_1shared_1_1rare__core_1_1_rare_core.html" target="_top" xlink:title=" ">
<polygon fill="white" stroke="black" points="137.5,-266.5 137.5,-285.5 194.5,-285.5 194.5,-266.5 137.5,-266.5"/>
<text text-anchor="middle" x="166" y="-273.5" font-family="Helvetica,sans-Serif" font-size="10.00">RareCore</text>
</a>
</g>
</g>
<!-- Node202&#45;&gt;Node229 -->
<g id="edge27" class="edge">
<title>Node202&#45;&gt;Node229</title>
<path fill="none" stroke="midnightblue" d="M28.31,-617.22C31.42,-551.57 44.69,-342.39 89,-295 101.26,-281.89 121.08,-277.25 137.41,-275.83"/>
<polygon fill="midnightblue" stroke="midnightblue" points="24.81,-617.28 27.86,-627.42 31.8,-617.59 24.81,-617.28"/>
</g>
<!-- Node230 -->
<g id="node29" class="node">
<title>Node230</title>
<g id="a_node29"><a xlink:href="classrare_1_1shared_1_1rare__core_1_1_rare_core_1_1_worker_1_1_signals.html" target="_top" xlink:title=" ">
<polygon fill="white" stroke="black" points="103.5,-228.5 103.5,-247.5 228.5,-247.5 228.5,-228.5 103.5,-228.5"/>
<text text-anchor="middle" x="166" y="-235.5" font-family="Helvetica,sans-Serif" font-size="10.00">RareCore.Worker.Signals</text>
</a>
</g>
</g>
<!-- Node202&#45;&gt;Node230 -->
<g id="edge28" class="edge">
<title>Node202&#45;&gt;Node230</title>
<path fill="none" stroke="midnightblue" d="M27.92,-617.33C29.83,-547.17 39.85,-310.49 89,-257 93.05,-252.59 97.95,-249.14 103.29,-246.44"/>
<polygon fill="midnightblue" stroke="midnightblue" points="24.42,-617.36 27.67,-627.44 31.42,-617.53 24.42,-617.36"/>
</g>
<!-- Node231 -->
<g id="node30" class="node">
<title>Node231</title>
<g id="a_node30"><a xlink:href="classrare_1_1utils_1_1legendary__utils_1_1_verification_worker_1_1_signals.html" target="_top" xlink:title=" ">
<polygon fill="white" stroke="black" points="101,-190.5 101,-209.5 231,-209.5 231,-190.5 101,-190.5"/>
<text text-anchor="middle" x="166" y="-197.5" font-family="Helvetica,sans-Serif" font-size="10.00">VerificationWorker.Signals</text>
</a>
</g>
</g>
<!-- Node202&#45;&gt;Node231 -->
<g id="edge29" class="edge">
<title>Node202&#45;&gt;Node231</title>
<path fill="none" stroke="midnightblue" d="M27.61,-616.85C28.42,-541.62 35.13,-278.48 89,-219 92.47,-215.17 96.58,-212.06 101.07,-209.53"/>
<polygon fill="midnightblue" stroke="midnightblue" points="24.1,-617.22 27.52,-627.25 31.1,-617.28 24.1,-617.22"/>
</g>
<!-- Node232 -->
<g id="node31" class="node">
<title>Node232</title>
<g id="a_node31"><a xlink:href="classrare_1_1utils_1_1qt__requests_1_1_qt_request_manager.html" target="_top" xlink:title=" ">
<polygon fill="white" stroke="black" points="115.5,-152.5 115.5,-171.5 216.5,-171.5 216.5,-152.5 115.5,-152.5"/>
<text text-anchor="middle" x="166" y="-159.5" font-family="Helvetica,sans-Serif" font-size="10.00">QtRequestManager</text>
</a>
</g>
</g>
<!-- Node202&#45;&gt;Node232 -->
<g id="edge30" class="edge">
<title>Node202&#45;&gt;Node232</title>
<path fill="none" stroke="midnightblue" d="M27.33,-617.07C27.08,-537.89 30.23,-246.68 89,-181 95.89,-173.3 105.39,-168.49 115.34,-165.55"/>
<polygon fill="midnightblue" stroke="midnightblue" points="23.83,-617.18 27.39,-627.16 30.83,-617.14 23.83,-617.18"/>
</g>
<!-- Node233 -->
<g id="node32" class="node">
<title>Node233</title>
<g id="a_node32"><a xlink:href="classrare_1_1utils_1_1rpc_1_1_discord_r_p_c.html" target="_top" xlink:title=" ">
<polygon fill="white" stroke="black" points="131,-114.5 131,-133.5 201,-133.5 201,-114.5 131,-114.5"/>
<text text-anchor="middle" x="166" y="-121.5" font-family="Helvetica,sans-Serif" font-size="10.00">DiscordRPC</text>
</a>
</g>
</g>
<!-- Node202&#45;&gt;Node233 -->
<g id="edge31" class="edge">
<title>Node202&#45;&gt;Node233</title>
<path fill="none" stroke="midnightblue" d="M27.1,-617.04C25.86,-533.73 25.38,-214.83 89,-143 99.37,-131.29 115.76,-126.27 130.67,-124.29"/>
<polygon fill="midnightblue" stroke="midnightblue" points="23.6,-617.24 27.28,-627.18 30.6,-617.12 23.6,-617.24"/>
</g>
<!-- Node234 -->
<g id="node33" class="node">
<title>Node234</title>
<g id="a_node33"><a xlink:href="classrare_1_1utils_1_1steam__grades_1_1_steam_worker_1_1_signals.html" target="_top" xlink:title=" ">
<polygon fill="white" stroke="black" points="111,-76.5 111,-95.5 221,-95.5 221,-76.5 111,-76.5"/>
<text text-anchor="middle" x="166" y="-83.5" font-family="Helvetica,sans-Serif" font-size="10.00">SteamWorker.Signals</text>
</a>
</g>
</g>
<!-- Node202&#45;&gt;Node234 -->
<g id="edge32" class="edge">
<title>Node202&#45;&gt;Node234</title>
<path fill="none" stroke="midnightblue" d="M28.48,-617.07C33.16,-525.08 54.52,-144.28 89,-105 94.83,-98.36 102.6,-93.86 110.95,-90.85"/>
<polygon fill="midnightblue" stroke="midnightblue" points="24.97,-617.08 27.97,-627.24 31.96,-617.43 24.97,-617.08"/>
</g>
<!-- Node235 -->
<g id="node34" class="node">
<title>Node235</title>
<g id="a_node34"><a xlink:href="classrare_1_1utils_1_1utils_1_1_cloud_signals.html" target="_top" xlink:title=" ">
<polygon fill="white" stroke="black" points="129,-38.5 129,-57.5 203,-57.5 203,-38.5 129,-38.5"/>
<text text-anchor="middle" x="166" y="-45.5" font-family="Helvetica,sans-Serif" font-size="10.00">CloudSignals</text>
</a>
</g>
</g>
<!-- Node202&#45;&gt;Node235 -->
<g id="edge33" class="edge">
<title>Node202&#45;&gt;Node235</title>
<path fill="none" stroke="midnightblue" d="M28.31,-617.19C32.4,-521.43 52.05,-109.42 89,-67 98.83,-55.72 114.24,-50.63 128.63,-48.48"/>
<polygon fill="midnightblue" stroke="midnightblue" points="24.8,-617.33 27.88,-627.47 31.79,-617.63 24.8,-617.33"/>
</g>
<!-- Node236 -->
<g id="node35" class="node">
<title>Node236</title>
<g id="a_node35"><a xlink:href="classrare_1_1utils_1_1utils_1_1_wine_resolver_signals.html" target="_top" xlink:title=" ">
<polygon fill="white" stroke="black" points="111.5,-0.5 111.5,-19.5 220.5,-19.5 220.5,-0.5 111.5,-0.5"/>
<text text-anchor="middle" x="166" y="-7.5" font-family="Helvetica,sans-Serif" font-size="10.00">WineResolverSignals</text>
</a>
</g>
</g>
<!-- Node202&#45;&gt;Node236 -->
<g id="edge34" class="edge">
<title>Node202&#45;&gt;Node236</title>
<path fill="none" stroke="midnightblue" d="M28.17,-617.13C31.72,-517.41 49.6,-74.53 89,-29 94.87,-22.21 102.77,-17.66 111.26,-14.65"/>
<polygon fill="midnightblue" stroke="midnightblue" points="24.67,-617.2 27.82,-627.31 31.66,-617.44 24.67,-617.2"/>
</g>
</g>
</svg>
