<?xml version="1.0" encoding="UTF-8" standalone="no"?>
<!DOCTYPE svg PUBLIC "-//W3C//DTD SVG 1.1//EN"
 "http://www.w3.org/Graphics/SVG/1.1/DTD/svg11.dtd">
<!-- Generated by graphviz version 2.49.3 (20211027.1534)
 -->
<!-- Title: Graphical Class Hierarchy Pages: 1 -->
<svg width="189pt" height="104pt"
 viewBox="0.00 0.00 189.00 104.00" xmlns="http://www.w3.org/2000/svg" xmlns:xlink="http://www.w3.org/1999/xlink">
<g id="graph0" class="graph" transform="scale(1 1) rotate(0) translate(4 100)">
<title>Graphical Class Hierarchy</title>
<polygon fill="white" stroke="transparent" points="-4,4 -4,-100 185,-100 185,4 -4,4"/>
<!-- Node36 -->
<g id="node1" class="node">
<title>Node36</title>
<g id="a_node1"><a xlink:title=" ">
<polygon fill="white" stroke="#bfbfbf" points="6,-76.5 6,-95.5 35,-95.5 35,-76.5 6,-76.5"/>
<text text-anchor="middle" x="20.5" y="-83.5" font-family="Helvetica,sans-Serif" font-size="10.00">int</text>
</a>
</g>
</g>
<!-- Node0 -->
<g id="node2" class="node">
<title>Node0</title>
<g id="a_node2"><a xlink:href="classrare_1_1utils_1_1steam__grades_1_1_protondb_ratings.html" target="_top" xlink:title=" ">
<polygon fill="white" stroke="black" points="84.5,-76.5 84.5,-95.5 173.5,-95.5 173.5,-76.5 84.5,-76.5"/>
<text text-anchor="middle" x="129" y="-83.5" font-family="Helvetica,sans-Serif" font-size="10.00">ProtondbRatings</text>
</a>
</g>
</g>
<!-- Node36&#45;&gt;Node0 -->
<g id="edge1" class="edge">
<title>Node36&#45;&gt;Node0</title>
<path fill="none" stroke="midnightblue" d="M45.46,-86C56.87,-86 70.89,-86 84.12,-86"/>
<polygon fill="midnightblue" stroke="midnightblue" points="45.42,-82.5 35.42,-86 45.42,-89.5 45.42,-82.5"/>
</g>
<!-- Node152 -->
<g id="node3" class="node">
<title>Node152</title>
<g id="a_node3"><a xlink:title=" ">
<polygon fill="white" stroke="#bfbfbf" points="0,-38.5 0,-57.5 41,-57.5 41,-38.5 0,-38.5"/>
<text text-anchor="middle" x="20.5" y="-45.5" font-family="Helvetica,sans-Serif" font-size="10.00">Enum</text>
</a>
</g>
</g>
<!-- Node152&#45;&gt;Node0 -->
<g id="edge3" class="edge">
<title>Node152&#45;&gt;Node0</title>
<path fill="none" stroke="midnightblue" d="M50.83,-58.47C66.64,-64.11 86,-71.01 101.37,-76.5"/>
<polygon fill="midnightblue" stroke="midnightblue" points="51.63,-55.03 41.03,-54.97 49.28,-61.63 51.63,-55.03"/>
</g>
<!-- Node153 -->
<g id="node4" class="node">
<title>Node153</title>
<g id="a_node4"><a xlink:href="classrare_1_1models_1_1image_1_1_image_type.html" target="_top" xlink:title=" ">
<polygon fill="white" stroke="black" points="96.5,-38.5 96.5,-57.5 161.5,-57.5 161.5,-38.5 96.5,-38.5"/>
<text text-anchor="middle" x="129" y="-45.5" font-family="Helvetica,sans-Serif" font-size="10.00">ImageType</text>
</a>
</g>
</g>
<!-- Node152&#45;&gt;Node153 -->
<g id="edge2" class="edge">
<title>Node152&#45;&gt;Node153</title>
<path fill="none" stroke="midnightblue" d="M51.19,-48C65.28,-48 82.14,-48 96.47,-48"/>
<polygon fill="midnightblue" stroke="midnightblue" points="51.03,-44.5 41.03,-48 51.03,-51.5 51.03,-44.5"/>
</g>
<!-- Node154 -->
<g id="node5" class="node">
<title>Node154</title>
<g id="a_node5"><a xlink:href="classrare_1_1widgets_1_1image__widget_1_1_image_widget_1_1_border.html" target="_top" xlink:title=" ">
<polygon fill="white" stroke="black" points="77,-0.5 77,-19.5 181,-19.5 181,-0.5 77,-0.5"/>
<text text-anchor="middle" x="129" y="-7.5" font-family="Helvetica,sans-Serif" font-size="10.00">ImageWidget.Border</text>
</a>
</g>
</g>
<!-- Node152&#45;&gt;Node154 -->
<g id="edge4" class="edge">
<title>Node152&#45;&gt;Node154</title>
<path fill="none" stroke="midnightblue" d="M50.83,-37.53C66.64,-31.89 86,-24.99 101.37,-19.5"/>
<polygon fill="midnightblue" stroke="midnightblue" points="49.28,-34.37 41.03,-41.03 51.63,-40.97 49.28,-34.37"/>
</g>
</g>
</svg>
