<?xml version="1.0" encoding="UTF-8" standalone="no"?>
<!DOCTYPE svg PUBLIC "-//W3C//DTD SVG 1.1//EN"
 "http://www.w3.org/Graphics/SVG/1.1/DTD/svg11.dtd">
<!-- Generated by graphviz version 2.49.3 (20211027.1534)
 -->
<!-- Title: Graphical Class Hierarchy Pages: 1 -->
<svg width="385pt" height="724pt"
 viewBox="0.00 0.00 385.00 724.00" xmlns="http://www.w3.org/2000/svg" xmlns:xlink="http://www.w3.org/1999/xlink">
<g id="graph0" class="graph" transform="scale(1 1) rotate(0) translate(4 720)">
<title>Graphical Class Hierarchy</title>
<polygon fill="white" stroke="transparent" points="-4,4 -4,-720 381,-720 381,4 -4,4"/>
<!-- Node153 -->
<g id="node1" class="node">
<title>Node153</title>
<g id="a_node1"><a xlink:title=" ">
<polygon fill="white" stroke="#bfbfbf" points="0,-342.5 0,-361.5 53,-361.5 53,-342.5 0,-342.5"/>
<text text-anchor="middle" x="26.5" y="-349.5" font-family="Helvetica,sans-Serif" font-size="10.00">IntEnum</text>
</a>
</g>
</g>
<!-- Node0 -->
<g id="node2" class="node">
<title>Node0</title>
<g id="a_node2"><a xlink:href="classrare_1_1commands_1_1launcher_1_1cloud__sync__dialog_1_1_cloud_sync_dialog_result.html" target="_top" xlink:title=" ">
<polygon fill="white" stroke="black" points="98,-696.5 98,-715.5 216,-715.5 216,-696.5 98,-696.5"/>
<text text-anchor="middle" x="157" y="-703.5" font-family="Helvetica,sans-Serif" font-size="10.00">CloudSyncDialogResult</text>
</a>
</g>
</g>
<!-- Node153&#45;&gt;Node0 -->
<g id="edge1" class="edge">
<title>Node153&#45;&gt;Node0</title>
<path fill="none" stroke="midnightblue" d="M28.45,-371.75C31.97,-436.38 46.31,-640.06 89,-687 92.5,-690.85 96.71,-693.94 101.3,-696.42"/>
<polygon fill="midnightblue" stroke="midnightblue" points="31.95,-371.49 27.93,-361.68 24.96,-371.85 31.95,-371.49"/>
</g>
<!-- Node155 -->
<g id="node3" class="node">
<title>Node155</title>
<g id="a_node3"><a xlink:href="classrare_1_1components_1_1tabs_1_1downloads_1_1groups_1_1_queue_group_1_1_move_direction.html" target="_top" xlink:title=" ">
<polygon fill="white" stroke="black" points="89,-658.5 89,-677.5 225,-677.5 225,-658.5 89,-658.5"/>
<text text-anchor="middle" x="157" y="-665.5" font-family="Helvetica,sans-Serif" font-size="10.00">QueueGroup.MoveDirection</text>
</a>
</g>
</g>
<!-- Node153&#45;&gt;Node155 -->
<g id="edge2" class="edge">
<title>Node153&#45;&gt;Node155</title>
<path fill="none" stroke="midnightblue" d="M28.97,-371.81C33.78,-431.53 51.01,-608.16 89,-649 92.54,-652.81 96.78,-655.87 101.39,-658.33"/>
<polygon fill="midnightblue" stroke="midnightblue" points="32.45,-371.49 28.19,-361.79 25.47,-372.03 32.45,-371.49"/>
</g>
<!-- Node156 -->
<g id="node4" class="node">
<title>Node156</title>
<g id="a_node4"><a xlink:href="classrare_1_1components_1_1tabs_1_1downloads_1_1thread_1_1_dl_result_code.html" target="_top" xlink:title=" ">
<polygon fill="white" stroke="black" points="119,-620.5 119,-639.5 195,-639.5 195,-620.5 119,-620.5"/>
<text text-anchor="middle" x="157" y="-627.5" font-family="Helvetica,sans-Serif" font-size="10.00">DlResultCode</text>
</a>
</g>
</g>
<!-- Node153&#45;&gt;Node156 -->
<g id="edge3" class="edge">
<title>Node153&#45;&gt;Node156</title>
<path fill="none" stroke="midnightblue" d="M29.61,-371.72C35.81,-426.06 55.65,-576.18 89,-611 96.86,-619.21 107.98,-623.95 118.91,-626.66"/>
<polygon fill="midnightblue" stroke="midnightblue" points="33.08,-371.21 28.49,-361.66 26.12,-371.98 33.08,-371.21"/>
</g>
<!-- Node157 -->
<g id="node5" class="node">
<title>Node157</title>
<g id="a_node5"><a xlink:href="classrare_1_1components_1_1tabs_1_1games_1_1integrations_1_1import__group_1_1_import_result.html" target="_top" xlink:title=" ">
<polygon fill="white" stroke="black" points="121,-582.5 121,-601.5 193,-601.5 193,-582.5 121,-582.5"/>
<text text-anchor="middle" x="157" y="-589.5" font-family="Helvetica,sans-Serif" font-size="10.00">ImportResult</text>
</a>
</g>
</g>
<!-- Node153&#45;&gt;Node157 -->
<g id="edge4" class="edge">
<title>Node153&#45;&gt;Node157</title>
<path fill="none" stroke="midnightblue" d="M26.97,-371.78C26.96,-414.67 33.16,-516.89 89,-573 97.44,-581.48 109.38,-586.25 120.84,-588.9"/>
<polygon fill="midnightblue" stroke="midnightblue" points="30.48,-371.6 27.1,-361.56 23.48,-371.51 30.48,-371.6"/>
</g>
<!-- Node158 -->
<g id="node6" class="node">
<title>Node158</title>
<g id="a_node6"><a xlink:href="classrare_1_1components_1_1tabs_1_1settings_1_1widgets_1_1overlay_1_1_activation_states.html" target="_top" xlink:title=" ">
<polygon fill="white" stroke="black" points="112.5,-544.5 112.5,-563.5 201.5,-563.5 201.5,-544.5 112.5,-544.5"/>
<text text-anchor="middle" x="157" y="-551.5" font-family="Helvetica,sans-Serif" font-size="10.00">ActivationStates</text>
</a>
</g>
</g>
<!-- Node153&#45;&gt;Node158 -->
<g id="edge5" class="edge">
<title>Node153&#45;&gt;Node158</title>
<path fill="none" stroke="midnightblue" d="M28.33,-371.67C31,-408.99 42.17,-490.36 89,-535 95.48,-541.17 103.81,-545.37 112.38,-548.21"/>
<polygon fill="midnightblue" stroke="midnightblue" points="31.82,-371.37 27.75,-361.59 24.83,-371.77 31.82,-371.37"/>
</g>
<!-- Node159 -->
<g id="node7" class="node">
<title>Node159</title>
<g id="a_node7"><a xlink:href="classrare_1_1components_1_1tabs_1_1store_1_1wishlist_1_1_wishlist_filter.html" target="_top" xlink:title=" ">
<polygon fill="white" stroke="black" points="120.5,-506.5 120.5,-525.5 193.5,-525.5 193.5,-506.5 120.5,-506.5"/>
<text text-anchor="middle" x="157" y="-513.5" font-family="Helvetica,sans-Serif" font-size="10.00">WishlistFilter</text>
</a>
</g>
</g>
<!-- Node153&#45;&gt;Node159 -->
<g id="edge6" class="edge">
<title>Node153&#45;&gt;Node159</title>
<path fill="none" stroke="midnightblue" d="M30.37,-371.87C35.95,-403.13 51.2,-463.65 89,-497 97.7,-504.68 109.3,-509.27 120.4,-512.01"/>
<polygon fill="midnightblue" stroke="midnightblue" points="33.79,-371.1 28.73,-361.79 26.88,-372.22 33.79,-371.1"/>
</g>
<!-- Node160 -->
<g id="node8" class="node">
<title>Node160</title>
<g id="a_node8"><a xlink:href="classrare_1_1components_1_1tabs_1_1store_1_1wishlist_1_1_wishlist_order.html" target="_top" xlink:title=" ">
<polygon fill="white" stroke="black" points="119.5,-468.5 119.5,-487.5 194.5,-487.5 194.5,-468.5 119.5,-468.5"/>
<text text-anchor="middle" x="157" y="-475.5" font-family="Helvetica,sans-Serif" font-size="10.00">WishlistOrder</text>
</a>
</g>
</g>
<!-- Node153&#45;&gt;Node160 -->
<g id="edge7" class="edge">
<title>Node153&#45;&gt;Node160</title>
<path fill="none" stroke="midnightblue" d="M33.55,-371.44C42.05,-395.55 59.85,-436.25 89,-459 97.67,-465.77 108.65,-470.13 119.19,-472.93"/>
<polygon fill="midnightblue" stroke="midnightblue" points="36.77,-370.03 30.29,-361.65 30.13,-372.24 36.77,-370.03"/>
</g>
<!-- Node161 -->
<g id="node9" class="node">
<title>Node161</title>
<g id="a_node9"><a xlink:href="classrare_1_1lgndr_1_1glue_1_1arguments_1_1_lgndr_install_game_real_ret_1_1_return_code.html" target="_top" xlink:title=" ">
<polygon fill="white" stroke="black" points="91.5,-419 91.5,-449 222.5,-449 222.5,-419 91.5,-419"/>
<text text-anchor="start" x="99.5" y="-437" font-family="Helvetica,sans-Serif" font-size="10.00">LgndrInstallGameRealRet.</text>
<text text-anchor="middle" x="157" y="-426" font-family="Helvetica,sans-Serif" font-size="10.00">ReturnCode</text>
</a>
</g>
</g>
<!-- Node153&#45;&gt;Node161 -->
<g id="edge8" class="edge">
<title>Node153&#45;&gt;Node161</title>
<path fill="none" stroke="midnightblue" d="M42.58,-369.2C54.23,-381.63 71.31,-398.1 89,-409 95.02,-412.71 101.69,-416.01 108.41,-418.9"/>
<polygon fill="midnightblue" stroke="midnightblue" points="45.07,-366.74 35.75,-361.71 39.9,-371.46 45.07,-366.74"/>
</g>
<!-- Node162 -->
<g id="node10" class="node">
<title>Node162</title>
<g id="a_node10"><a xlink:href="classrare_1_1models_1_1base__game_1_1_rare_game_base_1_1_state.html" target="_top" xlink:title=" ">
<polygon fill="white" stroke="black" points="101.5,-380.5 101.5,-399.5 212.5,-399.5 212.5,-380.5 101.5,-380.5"/>
<text text-anchor="middle" x="157" y="-387.5" font-family="Helvetica,sans-Serif" font-size="10.00">RareGameBase.State</text>
</a>
</g>
</g>
<!-- Node153&#45;&gt;Node162 -->
<g id="edge9" class="edge">
<title>Node153&#45;&gt;Node162</title>
<path fill="none" stroke="midnightblue" d="M62.88,-363.09C71.42,-365.72 80.53,-368.49 89,-371 99.67,-374.16 111.32,-377.5 121.87,-380.49"/>
<polygon fill="midnightblue" stroke="midnightblue" points="63.78,-359.7 53.19,-360.08 61.71,-366.39 63.78,-359.7"/>
</g>
<!-- Node163 -->
<g id="node11" class="node">
<title>Node163</title>
<g id="a_node11"><a xlink:href="classrare_1_1models_1_1library_1_1_library_filter.html" target="_top" xlink:title=" ">
<polygon fill="white" stroke="black" points="123,-342.5 123,-361.5 191,-361.5 191,-342.5 123,-342.5"/>
<text text-anchor="middle" x="157" y="-349.5" font-family="Helvetica,sans-Serif" font-size="10.00">LibraryFilter</text>
</a>
</g>
</g>
<!-- Node153&#45;&gt;Node163 -->
<g id="edge10" class="edge">
<title>Node153&#45;&gt;Node163</title>
<path fill="none" stroke="midnightblue" d="M63.31,-352C81.85,-352 104.35,-352 122.54,-352"/>
<polygon fill="midnightblue" stroke="midnightblue" points="63.2,-348.5 53.2,-352 63.2,-355.5 63.2,-348.5"/>
</g>
<!-- Node164 -->
<g id="node12" class="node">
<title>Node164</title>
<g id="a_node12"><a xlink:href="classrare_1_1models_1_1library_1_1_library_order.html" target="_top" xlink:title=" ">
<polygon fill="white" stroke="black" points="122,-304.5 122,-323.5 192,-323.5 192,-304.5 122,-304.5"/>
<text text-anchor="middle" x="157" y="-311.5" font-family="Helvetica,sans-Serif" font-size="10.00">LibraryOrder</text>
</a>
</g>
</g>
<!-- Node153&#45;&gt;Node164 -->
<g id="edge11" class="edge">
<title>Node153&#45;&gt;Node164</title>
<path fill="none" stroke="midnightblue" d="M62.88,-340.91C71.42,-338.28 80.53,-335.51 89,-333 99.67,-329.84 111.32,-326.5 121.87,-323.51"/>
<polygon fill="midnightblue" stroke="midnightblue" points="61.71,-337.61 53.19,-343.92 63.78,-344.3 61.71,-337.61"/>
</g>
<!-- Node165 -->
<g id="node13" class="node">
<title>Node165</title>
<g id="a_node13"><a xlink:href="classrare_1_1models_1_1library_1_1_library_view.html" target="_top" xlink:title=" ">
<polygon fill="white" stroke="black" points="123,-266.5 123,-285.5 191,-285.5 191,-266.5 123,-266.5"/>
<text text-anchor="middle" x="157" y="-273.5" font-family="Helvetica,sans-Serif" font-size="10.00">LibraryView</text>
</a>
</g>
</g>
<!-- Node153&#45;&gt;Node165 -->
<g id="edge12" class="edge">
<title>Node153&#45;&gt;Node165</title>
<path fill="none" stroke="midnightblue" d="M41.93,-334.81C53.46,-322.11 70.68,-305.29 89,-295 99.33,-289.2 111.57,-285.05 122.74,-282.15"/>
<polygon fill="midnightblue" stroke="midnightblue" points="39.19,-332.63 35.22,-342.46 44.45,-337.25 39.19,-332.63"/>
</g>
<!-- Node166 -->
<g id="node14" class="node">
<title>Node166</title>
<g id="a_node14"><a xlink:href="classrare_1_1models_1_1wrapper_1_1_wrapper_type.html" target="_top" xlink:title=" ">
<polygon fill="white" stroke="black" points="120,-228.5 120,-247.5 194,-247.5 194,-228.5 120,-228.5"/>
<text text-anchor="middle" x="157" y="-235.5" font-family="Helvetica,sans-Serif" font-size="10.00">WrapperType</text>
</a>
</g>
</g>
<!-- Node153&#45;&gt;Node166 -->
<g id="edge13" class="edge">
<title>Node153&#45;&gt;Node166</title>
<path fill="none" stroke="midnightblue" d="M34.96,-332.83C44.35,-311.22 62.52,-276.56 89,-257 97.95,-250.39 109.12,-246.08 119.75,-243.26"/>
<polygon fill="midnightblue" stroke="midnightblue" points="31.65,-331.69 31.06,-342.27 38.12,-334.36 31.65,-331.69"/>
</g>
<!-- Node167 -->
<g id="node15" class="node">
<title>Node167</title>
<g id="a_node15"><a xlink:href="classrare_1_1shared_1_1game__process_1_1_game_process_1_1_code.html" target="_top" xlink:title=" ">
<polygon fill="white" stroke="black" points="105,-190.5 105,-209.5 209,-209.5 209,-190.5 105,-190.5"/>
<text text-anchor="middle" x="157" y="-197.5" font-family="Helvetica,sans-Serif" font-size="10.00">GameProcess.Code</text>
</a>
</g>
</g>
<!-- Node153&#45;&gt;Node167 -->
<g id="edge14" class="edge">
<title>Node153&#45;&gt;Node167</title>
<path fill="none" stroke="midnightblue" d="M31.23,-332.13C37.75,-303 54,-248.91 89,-219 93.69,-214.99 99.17,-211.83 104.94,-209.33"/>
<polygon fill="midnightblue" stroke="midnightblue" points="27.73,-331.8 29.13,-342.3 34.58,-333.22 27.73,-331.8"/>
</g>
<!-- Node168 -->
<g id="node16" class="node">
<title>Node168</title>
<g id="a_node16"><a xlink:href="classrare_1_1shared_1_1workers_1_1fetch_1_1_fetch_worker_1_1_result.html" target="_top" xlink:title=" ">
<polygon fill="white" stroke="black" points="106,-152.5 106,-171.5 208,-171.5 208,-152.5 106,-152.5"/>
<text text-anchor="middle" x="157" y="-159.5" font-family="Helvetica,sans-Serif" font-size="10.00">FetchWorker.Result</text>
</a>
</g>
</g>
<!-- Node153&#45;&gt;Node168 -->
<g id="edge15" class="edge">
<title>Node153&#45;&gt;Node168</title>
<path fill="none" stroke="midnightblue" d="M28.9,-332.14C32.48,-296.59 45.09,-221.99 89,-181 93.86,-176.46 99.73,-173 105.94,-170.35"/>
<polygon fill="midnightblue" stroke="midnightblue" points="25.4,-331.95 28.02,-342.22 32.37,-332.56 25.4,-331.95"/>
</g>
<!-- Node169 -->
<g id="node17" class="node">
<title>Node169</title>
<g id="a_node17"><a xlink:href="classrare_1_1shared_1_1workers_1_1worker_1_1_queue_worker_state.html" target="_top" xlink:title=" ">
<polygon fill="white" stroke="black" points="107.5,-114.5 107.5,-133.5 206.5,-133.5 206.5,-114.5 107.5,-114.5"/>
<text text-anchor="middle" x="157" y="-121.5" font-family="Helvetica,sans-Serif" font-size="10.00">QueueWorkerState</text>
</a>
</g>
</g>
<!-- Node153&#45;&gt;Node169 -->
<g id="edge16" class="edge">
<title>Node153&#45;&gt;Node169</title>
<path fill="none" stroke="midnightblue" d="M27.35,-332.44C28.14,-291.36 35.94,-195.54 89,-143 94.15,-137.9 100.57,-134.14 107.38,-131.38"/>
<polygon fill="midnightblue" stroke="midnightblue" points="23.85,-332.47 27.28,-342.5 30.85,-332.52 23.85,-332.47"/>
</g>
<!-- Node170 -->
<g id="node18" class="node">
<title>Node170</title>
<g id="a_node18"><a xlink:href="classrare_1_1utils_1_1misc_1_1_exit_codes.html" target="_top" xlink:title=" ">
<polygon fill="white" stroke="black" points="127,-76.5 127,-95.5 187,-95.5 187,-76.5 127,-76.5"/>
<text text-anchor="middle" x="157" y="-83.5" font-family="Helvetica,sans-Serif" font-size="10.00">ExitCodes</text>
</a>
</g>
</g>
<!-- Node153&#45;&gt;Node170 -->
<g id="edge17" class="edge">
<title>Node153&#45;&gt;Node170</title>
<path fill="none" stroke="midnightblue" d="M29.87,-332.15C36.55,-279.47 57.14,-137.91 89,-105 98.84,-94.84 113.68,-89.99 126.9,-87.73"/>
<polygon fill="midnightblue" stroke="midnightblue" points="26.38,-331.88 28.63,-342.23 33.33,-332.74 26.38,-331.88"/>
</g>
<!-- Node171 -->
<g id="node19" class="node">
<title>Node171</title>
<g id="a_node19"><a xlink:href="classrare_1_1widgets_1_1indicator__edit_1_1_indicator_reasons.html" target="_top" xlink:title="Empty enumeration with auto&#45;generated enumeration values.">
<polygon fill="white" stroke="black" points="111,-38.5 111,-57.5 203,-57.5 203,-38.5 111,-38.5"/>
<text text-anchor="middle" x="157" y="-45.5" font-family="Helvetica,sans-Serif" font-size="10.00">IndicatorReasons</text>
</a>
</g>
</g>
<!-- Node153&#45;&gt;Node171 -->
<g id="edge18" class="edge">
<title>Node153&#45;&gt;Node171</title>
<path fill="none" stroke="midnightblue" d="M29.15,-332.24C34.39,-274.2 52.47,-105.93 89,-67 94.87,-60.74 102.64,-56.49 110.8,-53.62"/>
<polygon fill="midnightblue" stroke="midnightblue" points="25.65,-332.04 28.27,-342.3 32.63,-332.64 25.65,-332.04"/>
</g>
<!-- Node173 -->
<g id="node21" class="node">
<title>Node173</title>
<g id="a_node21"><a xlink:href="classrare_1_1widgets_1_1indicator__edit_1_1_indicator_reasons_common.html" target="_top" xlink:title=" ">
<polygon fill="white" stroke="black" points="91.5,-0.5 91.5,-19.5 222.5,-19.5 222.5,-0.5 91.5,-0.5"/>
<text text-anchor="middle" x="157" y="-7.5" font-family="Helvetica,sans-Serif" font-size="10.00">IndicatorReasonsCommon</text>
</a>
</g>
</g>
<!-- Node153&#45;&gt;Node173 -->
<g id="edge20" class="edge">
<title>Node153&#45;&gt;Node173</title>
<path fill="none" stroke="midnightblue" d="M28.61,-332.14C32.53,-268.94 47.81,-73.99 89,-29 92.51,-25.17 96.73,-22.08 101.33,-19.61"/>
<polygon fill="midnightblue" stroke="midnightblue" points="25.1,-332.15 28,-342.34 32.09,-332.57 25.1,-332.15"/>
</g>
<!-- Node172 -->
<g id="node20" class="node">
<title>Node172</title>
<g id="a_node20"><a xlink:href="classrare_1_1components_1_1dialogs_1_1move__dialog_1_1_move_path_edit_reasons.html" target="_top" xlink:title=" ">
<polygon fill="white" stroke="black" points="261,-38.5 261,-57.5 377,-57.5 377,-38.5 261,-38.5"/>
<text text-anchor="middle" x="319" y="-45.5" font-family="Helvetica,sans-Serif" font-size="10.00">MovePathEditReasons</text>
</a>
</g>
</g>
<!-- Node171&#45;&gt;Node172 -->
<g id="edge19" class="edge">
<title>Node171&#45;&gt;Node172</title>
<path fill="none" stroke="midnightblue" d="M213.72,-48C228.94,-48 245.45,-48 260.76,-48"/>
<polygon fill="midnightblue" stroke="midnightblue" points="213.42,-44.5 203.42,-48 213.42,-51.5 213.42,-44.5"/>
</g>
</g>
</svg>
