<?xml version="1.0" encoding="UTF-8" standalone="no"?>
<!DOCTYPE svg PUBLIC "-//W3C//DTD SVG 1.1//EN"
 "http://www.w3.org/Graphics/SVG/1.1/DTD/svg11.dtd">
<!-- Generated by graphviz version 2.49.3 (20211027.1534)
 -->
<!-- Title: Graphical Class Hierarchy Pages: 1 -->
<svg width="550pt" height="446pt"
 viewBox="0.00 0.00 550.00 446.00" xmlns="http://www.w3.org/2000/svg" xmlns:xlink="http://www.w3.org/1999/xlink">
<g id="graph0" class="graph" transform="scale(1 1) rotate(0) translate(4 442)">
<title>Graphical Class Hierarchy</title>
<polygon fill="white" stroke="transparent" points="-4,4 -4,-442 546,-442 546,4 -4,4"/>
<!-- Node350 -->
<g id="node1" class="node">
<title>Node350</title>
<g id="a_node1"><a xlink:title=" ">
<polygon fill="white" stroke="#bfbfbf" points="0,-285.5 0,-304.5 65,-304.5 65,-285.5 0,-285.5"/>
<text text-anchor="middle" x="32.5" y="-292.5" font-family="Helvetica,sans-Serif" font-size="10.00">QRunnable</text>
</a>
</g>
</g>
<!-- Node0 -->
<g id="node2" class="node">
<title>Node0</title>
<g id="a_node2"><a xlink:href="classrare_1_1commands_1_1launcher_1_1_pre_launch.html" target="_top" xlink:title=" ">
<polygon fill="white" stroke="black" points="129.5,-418.5 129.5,-437.5 193.5,-437.5 193.5,-418.5 129.5,-418.5"/>
<text text-anchor="middle" x="161.5" y="-425.5" font-family="Helvetica,sans-Serif" font-size="10.00">PreLaunch</text>
</a>
</g>
</g>
<!-- Node350&#45;&gt;Node0 -->
<g id="edge1" class="edge">
<title>Node350&#45;&gt;Node0</title>
<path fill="none" stroke="midnightblue" d="M39.9,-314.11C49.33,-339.42 69.36,-383.8 101,-409 109.14,-415.49 119.55,-419.78 129.37,-422.61"/>
<polygon fill="midnightblue" stroke="midnightblue" points="43.15,-312.79 36.5,-304.54 36.55,-315.13 43.15,-312.79"/>
</g>
<!-- Node352 -->
<g id="node3" class="node">
<title>Node352</title>
<g id="a_node3"><a xlink:href="classrare_1_1commands_1_1launcher_1_1_sync_check_worker.html" target="_top" xlink:title=" ">
<polygon fill="white" stroke="black" points="113,-380.5 113,-399.5 210,-399.5 210,-380.5 113,-380.5"/>
<text text-anchor="middle" x="161.5" y="-387.5" font-family="Helvetica,sans-Serif" font-size="10.00">SyncCheckWorker</text>
</a>
</g>
</g>
<!-- Node350&#45;&gt;Node352 -->
<g id="edge2" class="edge">
<title>Node350&#45;&gt;Node352</title>
<path fill="none" stroke="midnightblue" d="M45.38,-313.27C57.45,-330.48 77.66,-355.81 101,-371 106.91,-374.84 113.65,-377.96 120.43,-380.47"/>
<polygon fill="midnightblue" stroke="midnightblue" points="48.05,-310.98 39.54,-304.66 42.26,-314.91 48.05,-310.98"/>
</g>
<!-- Node353 -->
<g id="node4" class="node">
<title>Node353</title>
<g id="a_node4"><a xlink:href="classrare_1_1components_1_1tabs_1_1library_1_1integrations_1_1egl__sync__group_1_1_e_g_l_sync_worker.html" target="_top" xlink:title=" ">
<polygon fill="white" stroke="black" points="117,-342.5 117,-361.5 206,-361.5 206,-342.5 117,-342.5"/>
<text text-anchor="middle" x="161.5" y="-349.5" font-family="Helvetica,sans-Serif" font-size="10.00">EGLSyncWorker</text>
</a>
</g>
</g>
<!-- Node350&#45;&gt;Node353 -->
<g id="edge3" class="edge">
<title>Node350&#45;&gt;Node353</title>
<path fill="none" stroke="midnightblue" d="M56.91,-309.74C69.63,-317.34 85.82,-326.39 101,-333 109.05,-336.51 117.97,-339.7 126.39,-342.42"/>
<polygon fill="midnightblue" stroke="midnightblue" points="58.69,-306.73 48.33,-304.51 55.05,-312.7 58.69,-306.73"/>
</g>
<!-- Node354 -->
<g id="node5" class="node">
<title>Node354</title>
<g id="a_node5"><a xlink:href="classrare_1_1components_1_1tabs_1_1library_1_1integrations_1_1eos__group_1_1_check_for_update_worker.html" target="_top" xlink:title=" ">
<polygon fill="white" stroke="black" points="101,-304.5 101,-323.5 222,-323.5 222,-304.5 101,-304.5"/>
<text text-anchor="middle" x="161.5" y="-311.5" font-family="Helvetica,sans-Serif" font-size="10.00">CheckForUpdateWorker</text>
</a>
</g>
</g>
<!-- Node350&#45;&gt;Node354 -->
<g id="edge4" class="edge">
<title>Node350&#45;&gt;Node354</title>
<path fill="none" stroke="midnightblue" d="M75.3,-301.25C83.53,-302.48 92.31,-303.8 100.99,-305.1"/>
<polygon fill="midnightblue" stroke="midnightblue" points="75.63,-297.76 65.22,-299.75 74.59,-304.69 75.63,-297.76"/>
</g>
<!-- Node355 -->
<g id="node6" class="node">
<title>Node355</title>
<g id="a_node6"><a xlink:href="classrare_1_1components_1_1tabs_1_1library_1_1integrations_1_1import__group_1_1_import_worker.html" target="_top" xlink:title=" ">
<polygon fill="white" stroke="black" points="124,-266.5 124,-285.5 199,-285.5 199,-266.5 124,-266.5"/>
<text text-anchor="middle" x="161.5" y="-273.5" font-family="Helvetica,sans-Serif" font-size="10.00">ImportWorker</text>
</a>
</g>
</g>
<!-- Node350&#45;&gt;Node355 -->
<g id="edge5" class="edge">
<title>Node350&#45;&gt;Node355</title>
<path fill="none" stroke="midnightblue" d="M75.19,-288.76C90.88,-286.42 108.59,-283.77 123.79,-281.49"/>
<polygon fill="midnightblue" stroke="midnightblue" points="74.59,-285.31 65.22,-290.25 75.63,-292.24 74.59,-285.31"/>
</g>
<!-- Node356 -->
<g id="node7" class="node">
<title>Node356</title>
<g id="a_node7"><a xlink:href="classrare_1_1shared_1_1image__manager_1_1_image_manager_1_1_worker.html" target="_top" xlink:title=" ">
<polygon fill="white" stroke="black" points="104.5,-228.5 104.5,-247.5 218.5,-247.5 218.5,-228.5 104.5,-228.5"/>
<text text-anchor="middle" x="161.5" y="-235.5" font-family="Helvetica,sans-Serif" font-size="10.00">ImageManager.Worker</text>
</a>
</g>
</g>
<!-- Node350&#45;&gt;Node356 -->
<g id="edge6" class="edge">
<title>Node350&#45;&gt;Node356</title>
<path fill="none" stroke="midnightblue" d="M56.91,-280.26C69.63,-272.66 85.82,-263.61 101,-257 109.05,-253.49 117.97,-250.3 126.39,-247.58"/>
<polygon fill="midnightblue" stroke="midnightblue" points="55.05,-277.3 48.33,-285.49 58.69,-283.27 55.05,-277.3"/>
</g>
<!-- Node357 -->
<g id="node8" class="node">
<title>Node357</title>
<g id="a_node8"><a xlink:href="classrare_1_1shared_1_1workers_1_1worker_1_1_worker.html" target="_top" xlink:title="Base QRunnable class.">
<polygon fill="white" stroke="black" points="138,-190.5 138,-209.5 185,-209.5 185,-190.5 138,-190.5"/>
<text text-anchor="middle" x="161.5" y="-197.5" font-family="Helvetica,sans-Serif" font-size="10.00">Worker</text>
</a>
</g>
</g>
<!-- Node350&#45;&gt;Node357 -->
<g id="edge7" class="edge">
<title>Node350&#45;&gt;Node357</title>
<path fill="none" stroke="midnightblue" d="M45.38,-276.73C57.45,-259.52 77.66,-234.19 101,-219 112.09,-211.79 126.12,-207.13 137.77,-204.24"/>
<polygon fill="midnightblue" stroke="midnightblue" points="42.26,-275.09 39.54,-285.34 48.05,-279.02 42.26,-275.09"/>
</g>
<!-- Node374 -->
<g id="node25" class="node">
<title>Node374</title>
<g id="a_node25"><a xlink:href="classrare_1_1widgets_1_1indicator__edit_1_1_edit_func_runnable.html" target="_top" xlink:title=" ">
<polygon fill="white" stroke="black" points="114,-152.5 114,-171.5 209,-171.5 209,-152.5 114,-152.5"/>
<text text-anchor="middle" x="161.5" y="-159.5" font-family="Helvetica,sans-Serif" font-size="10.00">EditFuncRunnable</text>
</a>
</g>
</g>
<!-- Node350&#45;&gt;Node374 -->
<g id="edge24" class="edge">
<title>Node350&#45;&gt;Node374</title>
<path fill="none" stroke="midnightblue" d="M39.9,-275.89C49.33,-250.58 69.36,-206.2 101,-181 105.83,-177.15 111.47,-174.07 117.3,-171.61"/>
<polygon fill="midnightblue" stroke="midnightblue" points="36.55,-274.87 36.5,-285.46 43.15,-277.21 36.55,-274.87"/>
</g>
<!-- Node358 -->
<g id="node9" class="node">
<title>Node358</title>
<g id="a_node9"><a xlink:href="classrare_1_1components_1_1tabs_1_1library_1_1integrations_1_1ubisoft__group_1_1_ubi_connect_worker.html" target="_top" xlink:title=" ">
<polygon fill="white" stroke="black" points="273.5,-342.5 273.5,-361.5 371.5,-361.5 371.5,-342.5 273.5,-342.5"/>
<text text-anchor="middle" x="322.5" y="-349.5" font-family="Helvetica,sans-Serif" font-size="10.00">UbiConnectWorker</text>
</a>
</g>
</g>
<!-- Node357&#45;&gt;Node358 -->
<g id="edge8" class="edge">
<title>Node357&#45;&gt;Node358</title>
<path fill="none" stroke="midnightblue" d="M195.1,-204.5C204.82,-207.28 214.78,-211.76 222,-219 259.51,-256.63 220.15,-295.71 258,-333 262.35,-337.28 267.61,-340.6 273.23,-343.18"/>
<polygon fill="midnightblue" stroke="midnightblue" points="195.73,-201.05 185.19,-202.18 194.13,-207.87 195.73,-201.05"/>
</g>
<!-- Node359 -->
<g id="node10" class="node">
<title>Node359</title>
<g id="a_node10"><a xlink:href="classrare_1_1components_1_1tabs_1_1library_1_1integrations_1_1ubisoft__group_1_1_ubi_get_info_worker.html" target="_top" xlink:title=" ">
<polygon fill="white" stroke="black" points="275,-304.5 275,-323.5 370,-323.5 370,-304.5 275,-304.5"/>
<text text-anchor="middle" x="322.5" y="-311.5" font-family="Helvetica,sans-Serif" font-size="10.00">UbiGetInfoWorker</text>
</a>
</g>
</g>
<!-- Node357&#45;&gt;Node359 -->
<g id="edge9" class="edge">
<title>Node357&#45;&gt;Node359</title>
<path fill="none" stroke="midnightblue" d="M194.99,-205.24C204.53,-208.06 214.43,-212.38 222,-219 250.13,-243.61 229.65,-270.65 258,-295 262.89,-299.2 268.68,-302.47 274.74,-305.02"/>
<polygon fill="midnightblue" stroke="midnightblue" points="195.83,-201.85 185.28,-202.82 194.14,-208.64 195.83,-201.85"/>
</g>
<!-- Node360 -->
<g id="node11" class="node">
<title>Node360</title>
<g id="a_node11"><a xlink:href="classrare_1_1components_1_1tabs_1_1settings_1_1legendary_1_1_refresh_game_meta_worker.html" target="_top" xlink:title=" ">
<polygon fill="white" stroke="black" points="258,-266.5 258,-285.5 387,-285.5 387,-266.5 258,-266.5"/>
<text text-anchor="middle" x="322.5" y="-273.5" font-family="Helvetica,sans-Serif" font-size="10.00">RefreshGameMetaWorker</text>
</a>
</g>
</g>
<!-- Node357&#45;&gt;Node360 -->
<g id="edge10" class="edge">
<title>Node357&#45;&gt;Node360</title>
<path fill="none" stroke="midnightblue" d="M194.81,-207.1C204.02,-209.96 213.77,-213.83 222,-219 241.7,-231.37 238.19,-244.81 258,-257 264.27,-260.86 271.38,-263.98 278.51,-266.48"/>
<polygon fill="midnightblue" stroke="midnightblue" points="195.71,-203.71 185.13,-204.38 193.82,-210.45 195.71,-203.71"/>
</g>
<!-- Node361 -->
<g id="node12" class="node">
<title>Node361</title>
<g id="a_node12"><a xlink:href="classrare_1_1shared_1_1workers_1_1fetch_1_1_fetch_worker.html" target="_top" xlink:title=" ">
<polygon fill="white" stroke="black" points="286.5,-228.5 286.5,-247.5 358.5,-247.5 358.5,-228.5 286.5,-228.5"/>
<text text-anchor="middle" x="322.5" y="-235.5" font-family="Helvetica,sans-Serif" font-size="10.00">FetchWorker</text>
</a>
</g>
</g>
<!-- Node357&#45;&gt;Node361 -->
<g id="edge11" class="edge">
<title>Node357&#45;&gt;Node361</title>
<path fill="none" stroke="midnightblue" d="M195.25,-207.83C221.84,-214.18 259.26,-223.13 286.45,-229.62"/>
<polygon fill="midnightblue" stroke="midnightblue" points="195.82,-204.36 185.28,-205.44 194.19,-211.17 195.82,-204.36"/>
</g>
<!-- Node365 -->
<g id="node16" class="node">
<title>Node365</title>
<g id="a_node16"><a xlink:href="classrare_1_1shared_1_1workers_1_1install_1_1_install_info_worker.html" target="_top" xlink:title=" ">
<polygon fill="white" stroke="black" points="277.5,-190.5 277.5,-209.5 367.5,-209.5 367.5,-190.5 277.5,-190.5"/>
<text text-anchor="middle" x="322.5" y="-197.5" font-family="Helvetica,sans-Serif" font-size="10.00">InstallInfoWorker</text>
</a>
</g>
</g>
<!-- Node357&#45;&gt;Node365 -->
<g id="edge15" class="edge">
<title>Node357&#45;&gt;Node365</title>
<path fill="none" stroke="midnightblue" d="M195.53,-200C219.26,-200 251.51,-200 277.43,-200"/>
<polygon fill="midnightblue" stroke="midnightblue" points="195.28,-196.5 185.28,-200 195.28,-203.5 195.28,-196.5"/>
</g>
<!-- Node366 -->
<g id="node17" class="node">
<title>Node366</title>
<g id="a_node17"><a xlink:href="classrare_1_1shared_1_1workers_1_1move_1_1_move_info_worker.html" target="_top" xlink:title=" ">
<polygon fill="white" stroke="black" points="278.5,-152.5 278.5,-171.5 366.5,-171.5 366.5,-152.5 278.5,-152.5"/>
<text text-anchor="middle" x="322.5" y="-159.5" font-family="Helvetica,sans-Serif" font-size="10.00">MoveInfoWorker</text>
</a>
</g>
</g>
<!-- Node357&#45;&gt;Node366 -->
<g id="edge16" class="edge">
<title>Node357&#45;&gt;Node366</title>
<path fill="none" stroke="midnightblue" d="M195.03,-192.22C220.08,-186.24 254.82,-177.94 281.55,-171.55"/>
<polygon fill="midnightblue" stroke="midnightblue" points="194.19,-188.83 185.28,-194.56 195.82,-195.64 194.19,-188.83"/>
</g>
<!-- Node367 -->
<g id="node18" class="node">
<title>Node367</title>
<g id="a_node18"><a xlink:href="classrare_1_1shared_1_1workers_1_1uninstall_1_1_uninstall_worker.html" target="_top" xlink:title=" ">
<polygon fill="white" stroke="black" points="279.5,-114.5 279.5,-133.5 365.5,-133.5 365.5,-114.5 279.5,-114.5"/>
<text text-anchor="middle" x="322.5" y="-121.5" font-family="Helvetica,sans-Serif" font-size="10.00">UninstallWorker</text>
</a>
</g>
</g>
<!-- Node357&#45;&gt;Node367 -->
<g id="edge17" class="edge">
<title>Node357&#45;&gt;Node367</title>
<path fill="none" stroke="midnightblue" d="M194.81,-192.9C204.02,-190.04 213.77,-186.17 222,-181 241.7,-168.63 238.19,-155.19 258,-143 264.47,-139.02 271.82,-135.83 279.18,-133.29"/>
<polygon fill="midnightblue" stroke="midnightblue" points="193.82,-189.55 185.13,-195.62 195.71,-196.29 193.82,-189.55"/>
</g>
<!-- Node368 -->
<g id="node19" class="node">
<title>Node368</title>
<g id="a_node19"><a xlink:href="classrare_1_1shared_1_1workers_1_1wine__resolver_1_1_wine_path_resolver.html" target="_top" xlink:title=" ">
<polygon fill="white" stroke="black" points="274,-76.5 274,-95.5 371,-95.5 371,-76.5 274,-76.5"/>
<text text-anchor="middle" x="322.5" y="-83.5" font-family="Helvetica,sans-Serif" font-size="10.00">WinePathResolver</text>
</a>
</g>
</g>
<!-- Node357&#45;&gt;Node368 -->
<g id="edge18" class="edge">
<title>Node357&#45;&gt;Node368</title>
<path fill="none" stroke="midnightblue" d="M194.99,-194.76C204.53,-191.94 214.43,-187.62 222,-181 250.13,-156.39 229.65,-129.35 258,-105 262.63,-101.03 268.06,-97.88 273.77,-95.4"/>
<polygon fill="midnightblue" stroke="midnightblue" points="194.14,-191.36 185.28,-197.18 195.83,-198.15 194.14,-191.36"/>
</g>
<!-- Node371 -->
<g id="node22" class="node">
<title>Node371</title>
<g id="a_node22"><a xlink:href="classrare_1_1shared_1_1workers_1_1worker_1_1_queue_worker.html" target="_top" xlink:title="Base queueable worker class.">
<polygon fill="white" stroke="black" points="284.5,-38.5 284.5,-57.5 360.5,-57.5 360.5,-38.5 284.5,-38.5"/>
<text text-anchor="middle" x="322.5" y="-45.5" font-family="Helvetica,sans-Serif" font-size="10.00">QueueWorker</text>
</a>
</g>
</g>
<!-- Node357&#45;&gt;Node371 -->
<g id="edge21" class="edge">
<title>Node357&#45;&gt;Node371</title>
<path fill="none" stroke="midnightblue" d="M195.1,-195.5C204.82,-192.72 214.78,-188.24 222,-181 259.51,-143.37 220.15,-104.29 258,-67 265.13,-59.97 274.75,-55.53 284.34,-52.72"/>
<polygon fill="midnightblue" stroke="midnightblue" points="194.13,-192.13 185.19,-197.82 195.73,-198.95 194.13,-192.13"/>
</g>
<!-- Node362 -->
<g id="node13" class="node">
<title>Node362</title>
<g id="a_node13"><a xlink:href="classrare_1_1shared_1_1workers_1_1fetch_1_1_entitlements_worker.html" target="_top" xlink:title=" ">
<polygon fill="white" stroke="black" points="432,-266.5 432,-285.5 533,-285.5 533,-266.5 432,-266.5"/>
<text text-anchor="middle" x="482.5" y="-273.5" font-family="Helvetica,sans-Serif" font-size="10.00">EntitlementsWorker</text>
</a>
</g>
</g>
<!-- Node361&#45;&gt;Node362 -->
<g id="edge12" class="edge">
<title>Node361&#45;&gt;Node362</title>
<path fill="none" stroke="midnightblue" d="M368.48,-248.82C391.59,-254.38 419.5,-261.09 441.81,-266.45"/>
<polygon fill="midnightblue" stroke="midnightblue" points="369.11,-245.37 358.57,-246.43 367.47,-252.17 369.11,-245.37"/>
</g>
<!-- Node363 -->
<g id="node14" class="node">
<title>Node363</title>
<g id="a_node14"><a xlink:href="classrare_1_1shared_1_1workers_1_1fetch_1_1_games_dlcs_worker.html" target="_top" xlink:title=" ">
<polygon fill="white" stroke="black" points="433.5,-228.5 433.5,-247.5 531.5,-247.5 531.5,-228.5 433.5,-228.5"/>
<text text-anchor="middle" x="482.5" y="-235.5" font-family="Helvetica,sans-Serif" font-size="10.00">GamesDlcsWorker</text>
</a>
</g>
</g>
<!-- Node361&#45;&gt;Node363 -->
<g id="edge13" class="edge">
<title>Node361&#45;&gt;Node363</title>
<path fill="none" stroke="midnightblue" d="M368.77,-238C388.98,-238 412.81,-238 433.35,-238"/>
<polygon fill="midnightblue" stroke="midnightblue" points="368.57,-234.5 358.57,-238 368.57,-241.5 368.57,-234.5"/>
</g>
<!-- Node364 -->
<g id="node15" class="node">
<title>Node364</title>
<g id="a_node15"><a xlink:href="classrare_1_1shared_1_1workers_1_1fetch_1_1_steam_app_ids_worker.html" target="_top" xlink:title=" ">
<polygon fill="white" stroke="black" points="429,-190.5 429,-209.5 536,-209.5 536,-190.5 429,-190.5"/>
<text text-anchor="middle" x="482.5" y="-197.5" font-family="Helvetica,sans-Serif" font-size="10.00">SteamAppIdsWorker</text>
</a>
</g>
</g>
<!-- Node361&#45;&gt;Node364 -->
<g id="edge14" class="edge">
<title>Node361&#45;&gt;Node364</title>
<path fill="none" stroke="midnightblue" d="M368.48,-227.18C391.59,-221.62 419.5,-214.91 441.81,-209.55"/>
<polygon fill="midnightblue" stroke="midnightblue" points="367.47,-223.83 358.57,-229.57 369.11,-230.63 367.47,-223.83"/>
</g>
<!-- Node369 -->
<g id="node20" class="node">
<title>Node369</title>
<g id="a_node20"><a xlink:href="classrare_1_1shared_1_1workers_1_1wine__resolver_1_1_origin_wine_worker.html" target="_top" xlink:title=" ">
<polygon fill="white" stroke="black" points="435,-114.5 435,-133.5 530,-133.5 530,-114.5 435,-114.5"/>
<text text-anchor="middle" x="482.5" y="-121.5" font-family="Helvetica,sans-Serif" font-size="10.00">OriginWineWorker</text>
</a>
</g>
</g>
<!-- Node368&#45;&gt;Node369 -->
<g id="edge19" class="edge">
<title>Node368&#45;&gt;Node369</title>
<path fill="none" stroke="midnightblue" d="M373.26,-97.97C395.4,-103.29 421.11,-109.48 441.92,-114.48"/>
<polygon fill="midnightblue" stroke="midnightblue" points="373.91,-94.52 363.37,-95.59 372.27,-101.33 373.91,-94.52"/>
</g>
<!-- Node370 -->
<g id="node21" class="node">
<title>Node370</title>
<g id="a_node21"><a xlink:href="classrare_1_1shared_1_1workers_1_1wine__resolver_1_1_wine_save_path_resolver.html" target="_top" xlink:title=" ">
<polygon fill="white" stroke="black" points="423,-76.5 423,-95.5 542,-95.5 542,-76.5 423,-76.5"/>
<text text-anchor="middle" x="482.5" y="-83.5" font-family="Helvetica,sans-Serif" font-size="10.00">WineSavePathResolver</text>
</a>
</g>
</g>
<!-- Node368&#45;&gt;Node370 -->
<g id="edge20" class="edge">
<title>Node368&#45;&gt;Node370</title>
<path fill="none" stroke="midnightblue" d="M381.47,-86C394.99,-86 409.4,-86 422.95,-86"/>
<polygon fill="midnightblue" stroke="midnightblue" points="381.33,-82.5 371.33,-86 381.33,-89.5 381.33,-82.5"/>
</g>
<!-- Node372 -->
<g id="node23" class="node">
<title>Node372</title>
<g id="a_node23"><a xlink:href="classrare_1_1shared_1_1workers_1_1move_1_1_move_worker.html" target="_top" xlink:title=" ">
<polygon fill="white" stroke="black" points="447,-38.5 447,-57.5 518,-57.5 518,-38.5 447,-38.5"/>
<text text-anchor="middle" x="482.5" y="-45.5" font-family="Helvetica,sans-Serif" font-size="10.00">MoveWorker</text>
</a>
</g>
</g>
<!-- Node371&#45;&gt;Node372 -->
<g id="edge22" class="edge">
<title>Node371&#45;&gt;Node372</title>
<path fill="none" stroke="midnightblue" d="M370.69,-48C395.16,-48 424.51,-48 446.85,-48"/>
<polygon fill="midnightblue" stroke="midnightblue" points="370.54,-44.5 360.54,-48 370.54,-51.5 370.54,-44.5"/>
</g>
<!-- Node373 -->
<g id="node24" class="node">
<title>Node373</title>
<g id="a_node24"><a xlink:href="classrare_1_1shared_1_1workers_1_1verify_1_1_verify_worker.html" target="_top" xlink:title=" ">
<polygon fill="white" stroke="black" points="446.5,-0.5 446.5,-19.5 518.5,-19.5 518.5,-0.5 446.5,-0.5"/>
<text text-anchor="middle" x="482.5" y="-7.5" font-family="Helvetica,sans-Serif" font-size="10.00">VerifyWorker</text>
</a>
</g>
</g>
<!-- Node371&#45;&gt;Node373 -->
<g id="edge23" class="edge">
<title>Node371&#45;&gt;Node373</title>
<path fill="none" stroke="midnightblue" d="M370.3,-36.75C394.64,-30.89 423.92,-23.85 446.32,-18.46"/>
<polygon fill="midnightblue" stroke="midnightblue" points="369.45,-33.35 360.54,-39.09 371.09,-40.16 369.45,-33.35"/>
</g>
</g>
</svg>
