<?xml version="1.0" encoding="UTF-8" standalone="no"?>
<!DOCTYPE svg PUBLIC "-//W3C//DTD SVG 1.1//EN"
 "http://www.w3.org/Graphics/SVG/1.1/DTD/svg11.dtd">
<!-- Generated by graphviz version 2.49.3 (20211027.1534)
 -->
<!-- Title: Graphical Class Hierarchy Pages: 1 -->
<svg width="516pt" height="1401pt"
 viewBox="0.00 0.00 516.00 1401.00" xmlns="http://www.w3.org/2000/svg" xmlns:xlink="http://www.w3.org/1999/xlink">
<g id="graph0" class="graph" transform="scale(1 1) rotate(0) translate(4 1397)">
<title>Graphical Class Hierarchy</title>
<polygon fill="white" stroke="transparent" points="-4,4 -4,-1397 512,-1397 512,4 -4,4"/>
<!-- Node207 -->
<g id="node1" class="node">
<title>Node207</title>
<g id="a_node1"><a xlink:title=" ">
<polygon fill="white" stroke="#bfbfbf" points="0,-684.5 0,-703.5 53,-703.5 53,-684.5 0,-684.5"/>
<text text-anchor="middle" x="26.5" y="-691.5" font-family="Helvetica,sans-Serif" font-size="10.00">QObject</text>
</a>
</g>
</g>
<!-- Node0 -->
<g id="node2" class="node">
<title>Node0</title>
<g id="a_node2"><a xlink:href="classrare_1_1components_1_1tabs_1_1games_1_1game__widgets_1_1_library_widget_controller.html" target="_top" xlink:title=" ">
<polygon fill="white" stroke="black" points="113,-1373.5 113,-1392.5 230,-1392.5 230,-1373.5 113,-1373.5"/>
<text text-anchor="middle" x="171.5" y="-1380.5" font-family="Helvetica,sans-Serif" font-size="10.00">LibraryWidgetController</text>
</a>
</g>
</g>
<!-- Node207&#45;&gt;Node0 -->
<g id="edge1" class="edge">
<title>Node207&#45;&gt;Node0</title>
<path fill="none" stroke="midnightblue" d="M27.96,-713.88C30.59,-819.68 45.18,-1313.7 89,-1364 95.3,-1371.23 103.77,-1376 112.87,-1379.09"/>
<polygon fill="midnightblue" stroke="midnightblue" points="31.46,-713.57 27.71,-703.66 24.46,-713.74 31.46,-713.57"/>
</g>
<!-- Node209 -->
<g id="node3" class="node">
<title>Node209</title>
<g id="a_node3"><a xlink:href="classrare_1_1components_1_1tabs_1_1games_1_1integrations_1_1eos__group_1_1_check_for_update_worker_1_1_check_for_update_signals.html" target="_top" xlink:title=" ">
<polygon fill="white" stroke="black" points="96,-1324 96,-1354 247,-1354 247,-1324 96,-1324"/>
<text text-anchor="start" x="104" y="-1342" font-family="Helvetica,sans-Serif" font-size="10.00">CheckForUpdateWorker.Check</text>
<text text-anchor="middle" x="171.5" y="-1331" font-family="Helvetica,sans-Serif" font-size="10.00">ForUpdateSignals</text>
</a>
</g>
</g>
<!-- Node207&#45;&gt;Node209 -->
<g id="edge2" class="edge">
<title>Node207&#45;&gt;Node209</title>
<path fill="none" stroke="midnightblue" d="M28.18,-713.91C31.8,-814.79 50.07,-1266.45 89,-1314 92.19,-1317.89 95.97,-1321.19 100.12,-1323.99"/>
<polygon fill="midnightblue" stroke="midnightblue" points="31.68,-713.73 27.83,-703.86 24.68,-713.97 31.68,-713.73"/>
</g>
<!-- Node210 -->
<g id="node4" class="node">
<title>Node210</title>
<g id="a_node4"><a xlink:href="classrare_1_1components_1_1tabs_1_1games_1_1integrations_1_1import__group_1_1_import_worker_1_1_signals.html" target="_top" xlink:title=" ">
<polygon fill="white" stroke="black" points="116.5,-1285.5 116.5,-1304.5 226.5,-1304.5 226.5,-1285.5 116.5,-1285.5"/>
<text text-anchor="middle" x="171.5" y="-1292.5" font-family="Helvetica,sans-Serif" font-size="10.00">ImportWorker.Signals</text>
</a>
</g>
</g>
<!-- Node207&#45;&gt;Node210 -->
<g id="edge3" class="edge">
<title>Node207&#45;&gt;Node210</title>
<path fill="none" stroke="midnightblue" d="M28.25,-713.94C32.11,-811.21 50.94,-1232.92 89,-1276 96.12,-1284.06 105.93,-1289.04 116.29,-1292.06"/>
<polygon fill="midnightblue" stroke="midnightblue" points="31.74,-713.59 27.86,-703.74 24.75,-713.86 31.74,-713.59"/>
</g>
<!-- Node211 -->
<g id="node5" class="node">
<title>Node211</title>
<g id="a_node5"><a xlink:href="classrare_1_1components_1_1tabs_1_1games_1_1integrations_1_1ubisoft__group_1_1_ubi_connect_worker_1_1_signals.html" target="_top" xlink:title=" ">
<polygon fill="white" stroke="black" points="105,-1247.5 105,-1266.5 238,-1266.5 238,-1247.5 105,-1247.5"/>
<text text-anchor="middle" x="171.5" y="-1254.5" font-family="Helvetica,sans-Serif" font-size="10.00">UbiConnectWorker.Signals</text>
</a>
</g>
</g>
<!-- Node207&#45;&gt;Node211 -->
<g id="edge4" class="edge">
<title>Node207&#45;&gt;Node211</title>
<path fill="none" stroke="midnightblue" d="M28.4,-713.79C32.82,-806.85 53.4,-1198 89,-1238 93.44,-1242.99 98.92,-1246.8 104.92,-1249.7"/>
<polygon fill="midnightblue" stroke="midnightblue" points="31.89,-713.37 27.92,-703.54 24.89,-713.69 31.89,-713.37"/>
</g>
<!-- Node212 -->
<g id="node6" class="node">
<title>Node212</title>
<g id="a_node6"><a xlink:href="classrare_1_1components_1_1tabs_1_1games_1_1integrations_1_1ubisoft__group_1_1_ubi_get_info_worker_1_1_signals.html" target="_top" xlink:title=" ">
<polygon fill="white" stroke="black" points="107,-1209.5 107,-1228.5 236,-1228.5 236,-1209.5 107,-1209.5"/>
<text text-anchor="middle" x="171.5" y="-1216.5" font-family="Helvetica,sans-Serif" font-size="10.00">UbiGetInfoWorker.Signals</text>
</a>
</g>
</g>
<!-- Node207&#45;&gt;Node212 -->
<g id="edge5" class="edge">
<title>Node207&#45;&gt;Node212</title>
<path fill="none" stroke="midnightblue" d="M28.58,-713.81C33.61,-802.81 55.88,-1163.09 89,-1200 93.95,-1205.51 100.16,-1209.59 106.94,-1212.57"/>
<polygon fill="midnightblue" stroke="midnightblue" points="32.07,-713.51 28.02,-703.71 25.08,-713.89 32.07,-713.51"/>
</g>
<!-- Node213 -->
<g id="node7" class="node">
<title>Node213</title>
<g id="a_node7"><a xlink:href="classrare_1_1components_1_1tabs_1_1settings_1_1legendary_1_1_refresh_game_meta_worker_1_1_signals.html" target="_top" xlink:title=" ">
<polygon fill="white" stroke="black" points="89.5,-1171.5 89.5,-1190.5 253.5,-1190.5 253.5,-1171.5 89.5,-1171.5"/>
<text text-anchor="middle" x="171.5" y="-1178.5" font-family="Helvetica,sans-Serif" font-size="10.00">RefreshGameMetaWorker.Signals</text>
</a>
</g>
</g>
<!-- Node207&#45;&gt;Node213 -->
<g id="edge6" class="edge">
<title>Node207&#45;&gt;Node213</title>
<path fill="none" stroke="midnightblue" d="M27.23,-713.95C26.54,-794.53 28.16,-1094.86 89,-1162 92.41,-1165.77 96.42,-1168.86 100.79,-1171.39"/>
<polygon fill="midnightblue" stroke="midnightblue" points="30.73,-713.75 27.34,-703.71 23.73,-713.67 30.73,-713.75"/>
</g>
<!-- Node214 -->
<g id="node8" class="node">
<title>Node214</title>
<g id="a_node8"><a xlink:href="classrare_1_1components_1_1tabs_1_1shop_1_1constants_1_1_constants.html" target="_top" xlink:title=" ">
<polygon fill="white" stroke="black" points="141,-1133.5 141,-1152.5 202,-1152.5 202,-1133.5 141,-1133.5"/>
<text text-anchor="middle" x="171.5" y="-1140.5" font-family="Helvetica,sans-Serif" font-size="10.00">Constants</text>
</a>
</g>
</g>
<!-- Node207&#45;&gt;Node214 -->
<g id="edge7" class="edge">
<title>Node207&#45;&gt;Node214</title>
<path fill="none" stroke="midnightblue" d="M27.48,-713.78C27.83,-789.93 33.02,-1062.93 89,-1124 101.96,-1138.14 123.22,-1142.75 140.78,-1143.9"/>
<polygon fill="midnightblue" stroke="midnightblue" points="30.98,-713.66 27.46,-703.66 23.98,-713.67 30.98,-713.66"/>
</g>
<!-- Node215 -->
<g id="node9" class="node">
<title>Node215</title>
<g id="a_node9"><a xlink:href="classrare_1_1components_1_1tabs_1_1shop_1_1shop__api__core_1_1_shop_api_core.html" target="_top" xlink:title=" ">
<polygon fill="white" stroke="black" points="134.5,-1095.5 134.5,-1114.5 208.5,-1114.5 208.5,-1095.5 134.5,-1095.5"/>
<text text-anchor="middle" x="171.5" y="-1102.5" font-family="Helvetica,sans-Serif" font-size="10.00">ShopApiCore</text>
</a>
</g>
</g>
<!-- Node207&#45;&gt;Node215 -->
<g id="edge8" class="edge">
<title>Node207&#45;&gt;Node215</title>
<path fill="none" stroke="midnightblue" d="M27.79,-713.84C29.24,-785.7 37.92,-1031.02 89,-1086 100.47,-1098.35 118.28,-1103.41 134.33,-1105.25"/>
<polygon fill="midnightblue" stroke="midnightblue" points="31.28,-713.45 27.61,-703.51 24.28,-713.57 31.28,-713.45"/>
</g>
<!-- Node216 -->
<g id="node10" class="node">
<title>Node216</title>
<g id="a_node10"><a xlink:href="classrare_1_1game__launch__helper_1_1_pre_launch_thread_1_1_signals.html" target="_top" xlink:title=" ">
<polygon fill="white" stroke="black" points="107.5,-1057.5 107.5,-1076.5 235.5,-1076.5 235.5,-1057.5 107.5,-1057.5"/>
<text text-anchor="middle" x="171.5" y="-1064.5" font-family="Helvetica,sans-Serif" font-size="10.00">PreLaunchThread.Signals</text>
</a>
</g>
</g>
<!-- Node207&#45;&gt;Node216 -->
<g id="edge9" class="edge">
<title>Node207&#45;&gt;Node216</title>
<path fill="none" stroke="midnightblue" d="M28.15,-713.64C30.76,-780.67 42.74,-999.02 89,-1048 94.09,-1053.39 100.38,-1057.38 107.2,-1060.32"/>
<polygon fill="midnightblue" stroke="midnightblue" points="31.64,-713.45 27.78,-703.58 24.65,-713.7 31.64,-713.45"/>
</g>
<!-- Node217 -->
<g id="node11" class="node">
<title>Node217</title>
<g id="a_node11"><a xlink:href="classrare_1_1game__launch__helper_1_1_sync_check_worker_1_1_signals.html" target="_top" xlink:title=" ">
<polygon fill="white" stroke="black" points="106,-1019.5 106,-1038.5 237,-1038.5 237,-1019.5 106,-1019.5"/>
<text text-anchor="middle" x="171.5" y="-1026.5" font-family="Helvetica,sans-Serif" font-size="10.00">SyncCheckWorker.Signals</text>
</a>
</g>
</g>
<!-- Node207&#45;&gt;Node217 -->
<g id="edge10" class="edge">
<title>Node207&#45;&gt;Node217</title>
<path fill="none" stroke="midnightblue" d="M28.61,-713.92C32.52,-776.44 47.65,-967.1 89,-1010 93.74,-1014.92 99.48,-1018.67 105.71,-1021.52"/>
<polygon fill="midnightblue" stroke="midnightblue" points="32.1,-713.58 28.01,-703.81 25.11,-714 32.1,-713.58"/>
</g>
<!-- Node218 -->
<g id="node12" class="node">
<title>Node218</title>
<g id="a_node12"><a xlink:href="classrare_1_1models_1_1base__game_1_1_rare_game_base.html" target="_top" xlink:title=" ">
<polygon fill="white" stroke="black" points="128.5,-981.5 128.5,-1000.5 214.5,-1000.5 214.5,-981.5 128.5,-981.5"/>
<text text-anchor="middle" x="171.5" y="-988.5" font-family="Helvetica,sans-Serif" font-size="10.00">RareGameBase</text>
</a>
</g>
</g>
<!-- Node207&#45;&gt;Node218 -->
<g id="edge11" class="edge">
<title>Node207&#45;&gt;Node218</title>
<path fill="none" stroke="midnightblue" d="M29.17,-713.72C34.42,-770.89 52.42,-935 89,-972 99.32,-982.43 114.18,-987.59 128.39,-990.01"/>
<polygon fill="midnightblue" stroke="midnightblue" points="32.64,-713.16 28.27,-703.5 25.66,-713.77 32.64,-713.16"/>
</g>
<!-- Node222 -->
<g id="node16" class="node">
<title>Node222</title>
<g id="a_node16"><a xlink:href="classrare_1_1models_1_1base__game_1_1_rare_game_base_1_1_signals_1_1_download.html" target="_top" xlink:title=" ">
<polygon fill="white" stroke="black" points="89,-943.5 89,-962.5 254,-962.5 254,-943.5 89,-943.5"/>
<text text-anchor="middle" x="171.5" y="-950.5" font-family="Helvetica,sans-Serif" font-size="10.00">RareGameBase.Signals.Download</text>
</a>
</g>
</g>
<!-- Node207&#45;&gt;Node222 -->
<g id="edge15" class="edge">
<title>Node207&#45;&gt;Node222</title>
<path fill="none" stroke="midnightblue" d="M29.91,-713.7C36.64,-765.36 57.2,-902.89 89,-934 92.84,-937.76 97.28,-940.83 102.05,-943.33"/>
<polygon fill="midnightblue" stroke="midnightblue" points="33.36,-713.02 28.63,-703.53 26.41,-713.9 33.36,-713.02"/>
</g>
<!-- Node223 -->
<g id="node17" class="node">
<title>Node223</title>
<g id="a_node17"><a xlink:href="classrare_1_1models_1_1base__game_1_1_rare_game_base_1_1_signals_1_1_game.html" target="_top" xlink:title=" ">
<polygon fill="white" stroke="black" points="97,-905.5 97,-924.5 246,-924.5 246,-905.5 97,-905.5"/>
<text text-anchor="middle" x="171.5" y="-912.5" font-family="Helvetica,sans-Serif" font-size="10.00">RareGameBase.Signals.Game</text>
</a>
</g>
</g>
<!-- Node207&#45;&gt;Node223 -->
<g id="edge16" class="edge">
<title>Node207&#45;&gt;Node223</title>
<path fill="none" stroke="midnightblue" d="M27.4,-713.93C28.35,-754.48 36.5,-846.88 89,-896 93.03,-899.77 97.66,-902.84 102.62,-905.34"/>
<polygon fill="midnightblue" stroke="midnightblue" points="30.9,-713.7 27.3,-703.74 23.9,-713.78 30.9,-713.7"/>
</g>
<!-- Node224 -->
<g id="node18" class="node">
<title>Node224</title>
<g id="a_node18"><a xlink:href="classrare_1_1models_1_1base__game_1_1_rare_game_base_1_1_signals_1_1_progress.html" target="_top" xlink:title=" ">
<polygon fill="white" stroke="black" points="91,-867.5 91,-886.5 252,-886.5 252,-867.5 91,-867.5"/>
<text text-anchor="middle" x="171.5" y="-874.5" font-family="Helvetica,sans-Serif" font-size="10.00">RareGameBase.Signals.Progress</text>
</a>
</g>
</g>
<!-- Node207&#45;&gt;Node224 -->
<g id="edge17" class="edge">
<title>Node207&#45;&gt;Node224</title>
<path fill="none" stroke="midnightblue" d="M29.08,-714.21C32.92,-749.01 45.89,-820.15 89,-858 93.37,-861.83 98.36,-864.93 103.67,-867.44"/>
<polygon fill="midnightblue" stroke="midnightblue" points="32.53,-713.52 28.1,-703.9 25.56,-714.19 32.53,-713.52"/>
</g>
<!-- Node225 -->
<g id="node19" class="node">
<title>Node225</title>
<g id="a_node19"><a xlink:href="classrare_1_1models_1_1base__game_1_1_rare_game_base_1_1_signals_1_1_widget.html" target="_top" xlink:title=" ">
<polygon fill="white" stroke="black" points="95.5,-829.5 95.5,-848.5 247.5,-848.5 247.5,-829.5 95.5,-829.5"/>
<text text-anchor="middle" x="171.5" y="-836.5" font-family="Helvetica,sans-Serif" font-size="10.00">RareGameBase.Signals.Widget</text>
</a>
</g>
</g>
<!-- Node207&#45;&gt;Node225 -->
<g id="edge18" class="edge">
<title>Node207&#45;&gt;Node225</title>
<path fill="none" stroke="midnightblue" d="M31.47,-713.46C38.23,-741.44 54.72,-792.68 89,-820 93.77,-823.8 99.17,-826.87 104.87,-829.34"/>
<polygon fill="midnightblue" stroke="midnightblue" points="34.88,-712.65 29.27,-703.65 28.05,-714.18 34.88,-712.65"/>
</g>
<!-- Node226 -->
<g id="node20" class="node">
<title>Node226</title>
<g id="a_node20"><a xlink:href="classrare_1_1models_1_1signals_1_1_global_signals_1_1_application_signals.html" target="_top" xlink:title=" ">
<polygon fill="white" stroke="black" points="108,-780 108,-810 235,-810 235,-780 108,-780"/>
<text text-anchor="start" x="116" y="-798" font-family="Helvetica,sans-Serif" font-size="10.00">GlobalSignals.Application</text>
<text text-anchor="middle" x="171.5" y="-787" font-family="Helvetica,sans-Serif" font-size="10.00">Signals</text>
</a>
</g>
</g>
<!-- Node207&#45;&gt;Node226 -->
<g id="edge19" class="edge">
<title>Node207&#45;&gt;Node226</title>
<path fill="none" stroke="midnightblue" d="M37.91,-712.36C48.61,-729.63 66.81,-755.01 89,-770 94.76,-773.89 101.16,-777.2 107.76,-780"/>
<polygon fill="midnightblue" stroke="midnightblue" points="40.89,-710.51 32.76,-703.72 34.87,-714.1 40.89,-710.51"/>
</g>
<!-- Node227 -->
<g id="node21" class="node">
<title>Node227</title>
<g id="a_node21"><a xlink:href="classrare_1_1models_1_1signals_1_1_global_signals_1_1_discord_r_p_c_signals.html" target="_top" xlink:title=" ">
<polygon fill="white" stroke="black" points="89.5,-741.5 89.5,-760.5 253.5,-760.5 253.5,-741.5 89.5,-741.5"/>
<text text-anchor="middle" x="171.5" y="-748.5" font-family="Helvetica,sans-Serif" font-size="10.00">GlobalSignals.DiscordRPCSignals</text>
</a>
</g>
</g>
<!-- Node207&#45;&gt;Node227 -->
<g id="edge20" class="edge">
<title>Node207&#45;&gt;Node227</title>
<path fill="none" stroke="midnightblue" d="M48.91,-709.63C60.33,-717.33 74.9,-726.18 89,-732 98.13,-735.77 108.16,-738.87 117.97,-741.41"/>
<polygon fill="midnightblue" stroke="midnightblue" points="50.71,-706.61 40.5,-703.78 46.71,-712.36 50.71,-706.61"/>
</g>
<!-- Node228 -->
<g id="node22" class="node">
<title>Node228</title>
<g id="a_node22"><a xlink:href="classrare_1_1models_1_1signals_1_1_global_signals_1_1_download_signals.html" target="_top" xlink:title=" ">
<polygon fill="white" stroke="black" points="94.5,-703.5 94.5,-722.5 248.5,-722.5 248.5,-703.5 94.5,-703.5"/>
<text text-anchor="middle" x="171.5" y="-710.5" font-family="Helvetica,sans-Serif" font-size="10.00">GlobalSignals.DownloadSignals</text>
</a>
</g>
</g>
<!-- Node207&#45;&gt;Node228 -->
<g id="edge21" class="edge">
<title>Node207&#45;&gt;Node228</title>
<path fill="none" stroke="midnightblue" d="M63.03,-698.72C73.95,-700.17 86.39,-701.82 98.83,-703.48"/>
<polygon fill="midnightblue" stroke="midnightblue" points="63.44,-695.24 53.07,-697.4 62.52,-702.18 63.44,-695.24"/>
</g>
<!-- Node229 -->
<g id="node23" class="node">
<title>Node229</title>
<g id="a_node23"><a xlink:href="classrare_1_1models_1_1signals_1_1_global_signals_1_1_game_signals.html" target="_top" xlink:title=" ">
<polygon fill="white" stroke="black" points="103,-665.5 103,-684.5 240,-684.5 240,-665.5 103,-665.5"/>
<text text-anchor="middle" x="171.5" y="-672.5" font-family="Helvetica,sans-Serif" font-size="10.00">GlobalSignals.GameSignals</text>
</a>
</g>
</g>
<!-- Node207&#45;&gt;Node229 -->
<g id="edge22" class="edge">
<title>Node207&#45;&gt;Node229</title>
<path fill="none" stroke="midnightblue" d="M63.14,-689.26C75.2,-687.66 89.1,-685.82 102.81,-683.99"/>
<polygon fill="midnightblue" stroke="midnightblue" points="62.52,-685.82 53.07,-690.6 63.44,-692.76 62.52,-685.82"/>
</g>
<!-- Node230 -->
<g id="node24" class="node">
<title>Node230</title>
<g id="a_node24"><a xlink:href="classrare_1_1shared_1_1game__process_1_1_game_process.html" target="_top" xlink:title=" ">
<polygon fill="white" stroke="black" points="132,-627.5 132,-646.5 211,-646.5 211,-627.5 132,-627.5"/>
<text text-anchor="middle" x="171.5" y="-634.5" font-family="Helvetica,sans-Serif" font-size="10.00">GameProcess</text>
</a>
</g>
</g>
<!-- Node207&#45;&gt;Node230 -->
<g id="edge23" class="edge">
<title>Node207&#45;&gt;Node230</title>
<path fill="none" stroke="midnightblue" d="M48.91,-678.37C60.33,-670.67 74.9,-661.82 89,-656 102.57,-650.4 118.11,-646.27 131.97,-643.31"/>
<polygon fill="midnightblue" stroke="midnightblue" points="46.71,-675.64 40.5,-684.22 50.71,-681.39 46.71,-675.64"/>
</g>
<!-- Node231 -->
<g id="node25" class="node">
<title>Node231</title>
<g id="a_node25"><a xlink:href="classrare_1_1shared_1_1image__manager_1_1_image_manager.html" target="_top" xlink:title=" ">
<polygon fill="white" stroke="black" points="131,-589.5 131,-608.5 212,-608.5 212,-589.5 131,-589.5"/>
<text text-anchor="middle" x="171.5" y="-596.5" font-family="Helvetica,sans-Serif" font-size="10.00">ImageManager</text>
</a>
</g>
</g>
<!-- Node207&#45;&gt;Node231 -->
<g id="edge24" class="edge">
<title>Node207&#45;&gt;Node231</title>
<path fill="none" stroke="midnightblue" d="M37.52,-675.58C48.03,-658.05 66.19,-632.3 89,-618 101.43,-610.21 116.74,-605.61 130.72,-602.89"/>
<polygon fill="midnightblue" stroke="midnightblue" points="34.43,-673.93 32.49,-684.35 40.5,-677.42 34.43,-673.93"/>
</g>
<!-- Node232 -->
<g id="node26" class="node">
<title>Node232</title>
<g id="a_node26"><a xlink:href="classrare_1_1shared_1_1image__manager_1_1_image_manager_1_1_worker_1_1_signals.html" target="_top" xlink:title=" ">
<polygon fill="white" stroke="black" points="97,-551.5 97,-570.5 246,-570.5 246,-551.5 97,-551.5"/>
<text text-anchor="middle" x="171.5" y="-558.5" font-family="Helvetica,sans-Serif" font-size="10.00">ImageManager.Worker.Signals</text>
</a>
</g>
</g>
<!-- Node207&#45;&gt;Node232 -->
<g id="edge25" class="edge">
<title>Node207&#45;&gt;Node232</title>
<path fill="none" stroke="midnightblue" d="M32.57,-674.55C40.3,-648.84 57.58,-604.02 89,-580 94.08,-576.12 99.82,-573.01 105.84,-570.52"/>
<polygon fill="midnightblue" stroke="midnightblue" points="29.17,-673.7 29.82,-684.28 35.91,-675.6 29.17,-673.7"/>
</g>
<!-- Node233 -->
<g id="node27" class="node">
<title>Node233</title>
<g id="a_node27"><a xlink:href="classrare_1_1shared_1_1rare__core_1_1_rare_core.html" target="_top" xlink:title=" ">
<polygon fill="white" stroke="black" points="143,-513.5 143,-532.5 200,-532.5 200,-513.5 143,-513.5"/>
<text text-anchor="middle" x="171.5" y="-520.5" font-family="Helvetica,sans-Serif" font-size="10.00">RareCore</text>
</a>
</g>
</g>
<!-- Node207&#45;&gt;Node233 -->
<g id="edge26" class="edge">
<title>Node207&#45;&gt;Node233</title>
<path fill="none" stroke="midnightblue" d="M29.68,-674.34C34.39,-641.73 48.56,-576.6 89,-542 103.79,-529.34 125.43,-524.73 142.69,-523.21"/>
<polygon fill="midnightblue" stroke="midnightblue" points="26.19,-674.06 28.39,-684.42 33.13,-674.95 26.19,-674.06"/>
</g>
<!-- Node234 -->
<g id="node28" class="node">
<title>Node234</title>
<g id="a_node28"><a xlink:href="classrare_1_1shared_1_1workers_1_1fetch_1_1_fetch_worker_1_1_signals.html" target="_top" xlink:title=" ">
<polygon fill="white" stroke="black" points="118,-475.5 118,-494.5 225,-494.5 225,-475.5 118,-475.5"/>
<text text-anchor="middle" x="171.5" y="-482.5" font-family="Helvetica,sans-Serif" font-size="10.00">FetchWorker.Signals</text>
</a>
</g>
</g>
<!-- Node207&#45;&gt;Node234 -->
<g id="edge27" class="edge">
<title>Node207&#45;&gt;Node234</title>
<path fill="none" stroke="midnightblue" d="M27.86,-673.94C29.7,-635.11 39.5,-549.51 89,-504 97.02,-496.63 107.34,-491.94 117.92,-489"/>
<polygon fill="midnightblue" stroke="midnightblue" points="24.35,-674.28 27.51,-684.39 31.35,-674.51 24.35,-674.28"/>
</g>
<!-- Node235 -->
<g id="node29" class="node">
<title>Node235</title>
<g id="a_node29"><a xlink:href="classrare_1_1shared_1_1workers_1_1install__info_1_1_install_info_worker_1_1_signals.html" target="_top" xlink:title=" ">
<polygon fill="white" stroke="black" points="109,-437.5 109,-456.5 234,-456.5 234,-437.5 109,-437.5"/>
<text text-anchor="middle" x="171.5" y="-444.5" font-family="Helvetica,sans-Serif" font-size="10.00">InstallInfoWorker.Signals</text>
</a>
</g>
</g>
<!-- Node207&#45;&gt;Node235 -->
<g id="edge28" class="edge">
<title>Node207&#45;&gt;Node235</title>
<path fill="none" stroke="midnightblue" d="M30.2,-674.3C37.42,-624.46 58.71,-495.27 89,-466 94.64,-460.55 101.53,-456.55 108.89,-453.64"/>
<polygon fill="midnightblue" stroke="midnightblue" points="26.7,-674.02 28.77,-684.41 33.63,-675 26.7,-674.02"/>
</g>
<!-- Node236 -->
<g id="node30" class="node">
<title>Node236</title>
<g id="a_node30"><a xlink:href="classrare_1_1shared_1_1workers_1_1move_1_1_move_worker_1_1_signals.html" target="_top" xlink:title=" ">
<polygon fill="white" stroke="black" points="118.5,-399.5 118.5,-418.5 224.5,-418.5 224.5,-399.5 118.5,-399.5"/>
<text text-anchor="middle" x="171.5" y="-406.5" font-family="Helvetica,sans-Serif" font-size="10.00">MoveWorker.Signals</text>
</a>
</g>
</g>
<!-- Node207&#45;&gt;Node236 -->
<g id="edge29" class="edge">
<title>Node207&#45;&gt;Node236</title>
<path fill="none" stroke="midnightblue" d="M29.41,-674.04C35.14,-618.35 53.99,-463.08 89,-428 96.9,-420.08 107.43,-415.21 118.28,-412.26"/>
<polygon fill="midnightblue" stroke="midnightblue" points="25.89,-674.03 28.38,-684.33 32.86,-674.73 25.89,-674.03"/>
</g>
<!-- Node237 -->
<g id="node31" class="node">
<title>Node237</title>
<g id="a_node31"><a xlink:href="classrare_1_1shared_1_1workers_1_1uninstall_1_1_uninstall_worker_1_1_signals.html" target="_top" xlink:title=" ">
<polygon fill="white" stroke="black" points="111.5,-361.5 111.5,-380.5 231.5,-380.5 231.5,-361.5 111.5,-361.5"/>
<text text-anchor="middle" x="171.5" y="-368.5" font-family="Helvetica,sans-Serif" font-size="10.00">UninstallWorker.Signals</text>
</a>
</g>
</g>
<!-- Node207&#45;&gt;Node237 -->
<g id="edge30" class="edge">
<title>Node207&#45;&gt;Node237</title>
<path fill="none" stroke="midnightblue" d="M28.78,-674.05C33.11,-613.1 49.18,-431.01 89,-390 95.17,-383.64 103.03,-379.23 111.42,-376.21"/>
<polygon fill="midnightblue" stroke="midnightblue" points="25.28,-674.04 28.09,-684.25 32.26,-674.51 25.28,-674.04"/>
</g>
<!-- Node238 -->
<g id="node32" class="node">
<title>Node238</title>
<g id="a_node32"><a xlink:href="classrare_1_1shared_1_1workers_1_1verify_1_1_verify_worker_1_1_signals.html" target="_top" xlink:title=" ">
<polygon fill="white" stroke="black" points="118,-323.5 118,-342.5 225,-342.5 225,-323.5 118,-323.5"/>
<text text-anchor="middle" x="171.5" y="-330.5" font-family="Helvetica,sans-Serif" font-size="10.00">VerifyWorker.Signals</text>
</a>
</g>
</g>
<!-- Node207&#45;&gt;Node238 -->
<g id="edge31" class="edge">
<title>Node207&#45;&gt;Node238</title>
<path fill="none" stroke="midnightblue" d="M28.29,-674.19C31.3,-608.45 44.31,-399.03 89,-352 96.71,-343.89 107.15,-338.94 117.99,-335.98"/>
<polygon fill="midnightblue" stroke="midnightblue" points="24.78,-674.27 27.85,-684.41 31.77,-674.57 24.78,-674.27"/>
</g>
<!-- Node239 -->
<g id="node33" class="node">
<title>Node239</title>
<g id="a_node33"><a xlink:href="classrare_1_1shared_1_1workers_1_1wine__resolver_1_1_wine_resolver_1_1_signals.html" target="_top" xlink:title=" ">
<polygon fill="white" stroke="black" points="116,-285.5 116,-304.5 227,-304.5 227,-285.5 116,-285.5"/>
<text text-anchor="middle" x="171.5" y="-292.5" font-family="Helvetica,sans-Serif" font-size="10.00">WineResolver.Signals</text>
</a>
</g>
</g>
<!-- Node207&#45;&gt;Node239 -->
<g id="edge32" class="edge">
<title>Node207&#45;&gt;Node239</title>
<path fill="none" stroke="midnightblue" d="M27.89,-674.31C29.7,-604.05 39.42,-367.1 89,-314 96.14,-306.35 105.71,-301.51 115.78,-298.49"/>
<polygon fill="midnightblue" stroke="midnightblue" points="24.39,-674.35 27.66,-684.43 31.39,-674.51 24.39,-674.35"/>
</g>
<!-- Node240 -->
<g id="node34" class="node">
<title>Node240</title>
<g id="a_node34"><a xlink:href="classrare_1_1shared_1_1workers_1_1worker_1_1_queue_worker_1_1_signals.html" target="_top" xlink:title=" ">
<polygon fill="white" stroke="black" points="116.5,-247.5 116.5,-266.5 226.5,-266.5 226.5,-247.5 116.5,-247.5"/>
<text text-anchor="middle" x="171.5" y="-254.5" font-family="Helvetica,sans-Serif" font-size="10.00">QueueWorker.Signals</text>
</a>
</g>
</g>
<!-- Node207&#45;&gt;Node240 -->
<g id="edge33" class="edge">
<title>Node207&#45;&gt;Node240</title>
<path fill="none" stroke="midnightblue" d="M27.58,-673.82C28.28,-598.49 34.66,-335.04 89,-276 96.18,-268.2 105.9,-263.3 116.11,-260.28"/>
<polygon fill="midnightblue" stroke="midnightblue" points="24.07,-674.21 27.51,-684.24 31.07,-674.26 24.07,-674.21"/>
</g>
<!-- Node241 -->
<g id="node35" class="node">
<title>Node241</title>
<g id="a_node35"><a xlink:href="classrare_1_1utils_1_1misc_1_1_cloud_worker_1_1_signals.html" target="_top" xlink:title=" ">
<polygon fill="white" stroke="black" points="118,-209.5 118,-228.5 225,-228.5 225,-209.5 118,-209.5"/>
<text text-anchor="middle" x="171.5" y="-216.5" font-family="Helvetica,sans-Serif" font-size="10.00">CloudWorker.Signals</text>
</a>
</g>
</g>
<!-- Node207&#45;&gt;Node241 -->
<g id="edge34" class="edge">
<title>Node207&#45;&gt;Node241</title>
<path fill="none" stroke="midnightblue" d="M27.3,-674.04C26.94,-594.76 29.71,-303.21 89,-238 96.53,-229.72 106.9,-224.71 117.72,-221.74"/>
<polygon fill="midnightblue" stroke="midnightblue" points="23.8,-674.17 27.37,-684.15 30.8,-674.13 23.8,-674.17"/>
</g>
<!-- Node242 -->
<g id="node36" class="node">
<title>Node242</title>
<g id="a_node36"><a xlink:href="classrare_1_1utils_1_1qt__requests_1_1_qt_request_manager.html" target="_top" xlink:title=" ">
<polygon fill="white" stroke="black" points="121,-171.5 121,-190.5 222,-190.5 222,-171.5 121,-171.5"/>
<text text-anchor="middle" x="171.5" y="-178.5" font-family="Helvetica,sans-Serif" font-size="10.00">QtRequestManager</text>
</a>
</g>
</g>
<!-- Node207&#45;&gt;Node242 -->
<g id="edge35" class="edge">
<title>Node207&#45;&gt;Node242</title>
<path fill="none" stroke="midnightblue" d="M27.07,-674.01C25.71,-590.6 24.81,-271.32 89,-200 97.16,-190.93 108.75,-185.76 120.62,-182.92"/>
<polygon fill="midnightblue" stroke="midnightblue" points="23.57,-674.23 27.26,-684.16 30.57,-674.1 23.57,-674.23"/>
</g>
<!-- Node243 -->
<g id="node37" class="node">
<title>Node243</title>
<g id="a_node37"><a xlink:href="classrare_1_1utils_1_1rpc_1_1_discord_r_p_c.html" target="_top" xlink:title=" ">
<polygon fill="white" stroke="black" points="136.5,-133.5 136.5,-152.5 206.5,-152.5 206.5,-133.5 136.5,-133.5"/>
<text text-anchor="middle" x="171.5" y="-140.5" font-family="Helvetica,sans-Serif" font-size="10.00">DiscordRPC</text>
</a>
</g>
</g>
<!-- Node207&#45;&gt;Node243 -->
<g id="edge36" class="edge">
<title>Node207&#45;&gt;Node243</title>
<path fill="none" stroke="midnightblue" d="M28.46,-674.06C33.08,-582.01 54.2,-201.01 89,-162 100.7,-148.88 119.55,-143.92 136.17,-142.33"/>
<polygon fill="midnightblue" stroke="midnightblue" points="24.96,-674.07 27.96,-684.23 31.95,-674.42 24.96,-674.07"/>
</g>
<!-- Node244 -->
<g id="node38" class="node">
<title>Node244</title>
<g id="a_node38"><a xlink:href="classrare_1_1widgets_1_1indicator__edit_1_1_edit_func_runnable_1_1_signals.html" target="_top" xlink:title=" ">
<polygon fill="white" stroke="black" points="106.5,-95.5 106.5,-114.5 236.5,-114.5 236.5,-95.5 106.5,-95.5"/>
<text text-anchor="middle" x="171.5" y="-102.5" font-family="Helvetica,sans-Serif" font-size="10.00">EditFuncRunnable.Signals</text>
</a>
</g>
</g>
<!-- Node207&#45;&gt;Node244 -->
<g id="edge37" class="edge">
<title>Node207&#45;&gt;Node244</title>
<path fill="none" stroke="midnightblue" d="M28.28,-674.47C32.28,-579.2 51.67,-166.16 89,-124 93.82,-118.56 99.86,-114.52 106.47,-111.54"/>
<polygon fill="midnightblue" stroke="midnightblue" points="24.79,-674.33 27.87,-684.46 31.78,-674.62 24.79,-674.33"/>
</g>
<!-- Node245 -->
<g id="node39" class="node">
<title>Node245</title>
<g id="a_node39"><a xlink:href="classrare_1_1widgets_1_1indicator__edit_1_1_indicator_reasons_strings.html" target="_top" xlink:title=" ">
<polygon fill="white" stroke="black" points="110,-57.5 110,-76.5 233,-76.5 233,-57.5 110,-57.5"/>
<text text-anchor="middle" x="171.5" y="-64.5" font-family="Helvetica,sans-Serif" font-size="10.00">IndicatorReasonsStrings</text>
</a>
</g>
</g>
<!-- Node207&#45;&gt;Node245 -->
<g id="edge38" class="edge">
<title>Node207&#45;&gt;Node245</title>
<path fill="none" stroke="midnightblue" d="M28.16,-674.12C31.63,-574.34 49.24,-131.22 89,-86 94.56,-79.67 101.79,-75.24 109.64,-72.16"/>
<polygon fill="midnightblue" stroke="midnightblue" points="24.65,-674.19 27.81,-684.31 31.65,-674.43 24.65,-674.19"/>
</g>
<!-- Node246 -->
<g id="node40" class="node">
<title>Node246</title>
<g id="a_node40"><a xlink:href="classrare_1_1widgets_1_1rare__app_1_1_rare_app_exception.html" target="_top" xlink:title=" ">
<polygon fill="white" stroke="black" points="123.5,-19.5 123.5,-38.5 219.5,-38.5 219.5,-19.5 123.5,-19.5"/>
<text text-anchor="middle" x="171.5" y="-26.5" font-family="Helvetica,sans-Serif" font-size="10.00">RareAppException</text>
</a>
</g>
</g>
<!-- Node207&#45;&gt;Node246 -->
<g id="edge39" class="edge">
<title>Node207&#45;&gt;Node246</title>
<path fill="none" stroke="midnightblue" d="M28.03,-674.18C30.98,-570.8 46.75,-96.34 89,-48 97.7,-38.05 110.51,-32.77 123.42,-30.1"/>
<polygon fill="midnightblue" stroke="midnightblue" points="24.53,-674.11 27.75,-684.2 31.53,-674.3 24.53,-674.11"/>
</g>
<!-- Node219 -->
<g id="node13" class="node">
<title>Node219</title>
<g id="a_node13"><a xlink:href="classrare_1_1models_1_1base__game_1_1_rare_game_slim.html" target="_top" xlink:title=" ">
<polygon fill="white" stroke="black" points="308,-1000.5 308,-1019.5 391,-1019.5 391,-1000.5 308,-1000.5"/>
<text text-anchor="middle" x="349.5" y="-1007.5" font-family="Helvetica,sans-Serif" font-size="10.00">RareGameSlim</text>
</a>
</g>
</g>
<!-- Node218&#45;&gt;Node219 -->
<g id="edge12" class="edge">
<title>Node218&#45;&gt;Node219</title>
<path fill="none" stroke="midnightblue" d="M224.93,-996.66C251.48,-999.53 283.23,-1002.95 307.9,-1005.62"/>
<polygon fill="midnightblue" stroke="midnightblue" points="224.97,-993.14 214.66,-995.55 224.22,-1000.1 224.97,-993.14"/>
</g>
<!-- Node221 -->
<g id="node15" class="node">
<title>Node221</title>
<g id="a_node15"><a xlink:href="classrare_1_1models_1_1game_1_1_rare_eos_overlay.html" target="_top" xlink:title=" ">
<polygon fill="white" stroke="black" points="306.5,-962.5 306.5,-981.5 392.5,-981.5 392.5,-962.5 306.5,-962.5"/>
<text text-anchor="middle" x="349.5" y="-969.5" font-family="Helvetica,sans-Serif" font-size="10.00">RareEosOverlay</text>
</a>
</g>
</g>
<!-- Node218&#45;&gt;Node221 -->
<g id="edge14" class="edge">
<title>Node218&#45;&gt;Node221</title>
<path fill="none" stroke="midnightblue" d="M224.74,-985.36C250.79,-982.55 281.88,-979.19 306.38,-976.55"/>
<polygon fill="midnightblue" stroke="midnightblue" points="224.22,-981.9 214.66,-986.45 224.97,-988.86 224.22,-981.9"/>
</g>
<!-- Node220 -->
<g id="node14" class="node">
<title>Node220</title>
<g id="a_node14"><a xlink:href="classrare_1_1models_1_1game_1_1_rare_game.html" target="_top" xlink:title=" ">
<polygon fill="white" stroke="black" points="445,-1000.5 445,-1019.5 508,-1019.5 508,-1000.5 445,-1000.5"/>
<text text-anchor="middle" x="476.5" y="-1007.5" font-family="Helvetica,sans-Serif" font-size="10.00">RareGame</text>
</a>
</g>
</g>
<!-- Node219&#45;&gt;Node220 -->
<g id="edge13" class="edge">
<title>Node219&#45;&gt;Node220</title>
<path fill="none" stroke="midnightblue" d="M401.1,-1010C415.84,-1010 431.5,-1010 444.62,-1010"/>
<polygon fill="midnightblue" stroke="midnightblue" points="401.08,-1006.5 391.08,-1010 401.08,-1013.5 401.08,-1006.5"/>
</g>
<!-- Node247 -->
<g id="node41" class="node">
<title>Node247</title>
<g id="a_node41"><a xlink:href="classrare_1_1app_1_1_rare_exception.html" target="_top" xlink:title=" ">
<polygon fill="white" stroke="black" points="310,-38.5 310,-57.5 389,-57.5 389,-38.5 310,-38.5"/>
<text text-anchor="middle" x="349.5" y="-45.5" font-family="Helvetica,sans-Serif" font-size="10.00">RareException</text>
</a>
</g>
</g>
<!-- Node246&#45;&gt;Node247 -->
<g id="edge40" class="edge">
<title>Node246&#45;&gt;Node247</title>
<path fill="none" stroke="midnightblue" d="M229.85,-35.19C256.04,-38.02 286.38,-41.29 309.82,-43.82"/>
<polygon fill="midnightblue" stroke="midnightblue" points="229.98,-31.69 219.66,-34.09 229.23,-38.64 229.98,-31.69"/>
</g>
<!-- Node248 -->
<g id="node42" class="node">
<title>Node248</title>
<g id="a_node42"><a xlink:href="classrare_1_1game__launch__helper_1_1_rare_launcher_exception.html" target="_top" xlink:title=" ">
<polygon fill="white" stroke="black" points="290,-0.5 290,-19.5 409,-19.5 409,-0.5 290,-0.5"/>
<text text-anchor="middle" x="349.5" y="-7.5" font-family="Helvetica,sans-Serif" font-size="10.00">RareLauncherException</text>
</a>
</g>
</g>
<!-- Node246&#45;&gt;Node248 -->
<g id="edge41" class="edge">
<title>Node246&#45;&gt;Node248</title>
<path fill="none" stroke="midnightblue" d="M229.8,-22.81C249.04,-20.74 270.53,-18.42 289.87,-16.33"/>
<polygon fill="midnightblue" stroke="midnightblue" points="229.23,-19.36 219.66,-23.91 229.98,-26.31 229.23,-19.36"/>
</g>
</g>
</svg>
