<?xml version="1.0" encoding="UTF-8" standalone="no"?>
<!DOCTYPE svg PUBLIC "-//W3C//DTD SVG 1.1//EN"
 "http://www.w3.org/Graphics/SVG/1.1/DTD/svg11.dtd">
<!-- Generated by graphviz version 2.49.3 (20211027.1534)
 -->
<!-- Title: image_wide_path Pages: 1 -->
<svg width="534pt" height="141pt"
 viewBox="0.00 0.00 534.00 141.00" xmlns="http://www.w3.org/2000/svg" xmlns:xlink="http://www.w3.org/1999/xlink">
<g id="graph0" class="graph" transform="scale(1 1) rotate(0) translate(4 137)">
<title>image_wide_path</title>
<polygon fill="white" stroke="transparent" points="-4,4 -4,-137 530,-137 530,4 -4,4"/>
<!-- Node1 -->
<g id="node1" class="node">
<title>Node1</title>
<g id="a_node1"><a xlink:title=" ">
<polygon fill="#bfbfbf" stroke="black" points="434,-47.5 434,-66.5 526,-66.5 526,-47.5 434,-47.5"/>
<text text-anchor="middle" x="480" y="-54.5" font-family="Helvetica,sans-Serif" font-size="10.00">image_wide_path</text>
</a>
</g>
</g>
<!-- Node1&#45;&gt;Node1 -->
<g id="edge7" class="edge">
<title>Node1&#45;&gt;Node1</title>
<path fill="none" stroke="midnightblue" d="M509.94,-75.27C509.09,-80.74 499.11,-85 480,-85 451.56,-85 443.34,-75.57 455.34,-66.76"/>
<polygon fill="midnightblue" stroke="midnightblue" points="512.9,-73.41 504.66,-66.76 506.95,-77.1 512.9,-73.41"/>
</g>
<!-- Node2 -->
<g id="node2" class="node">
<title>Node2</title>
<g id="a_node2"><a xlink:href="namespacerare_1_1utils_1_1steam__shortcuts.html#a161b1eceee8e5d44db9fd570e06c5e0e" target="_top" xlink:title=" ">
<polygon fill="white" stroke="black" points="247,-79 247,-109 393,-109 393,-79 247,-79"/>
<text text-anchor="start" x="255" y="-97" font-family="Helvetica,sans-Serif" font-size="10.00">rare.utils.steam_shortcuts.add</text>
<text text-anchor="middle" x="320" y="-86" font-family="Helvetica,sans-Serif" font-size="10.00">_steam_coverart</text>
</a>
</g>
</g>
<!-- Node1&#45;&gt;Node2 -->
<g id="edge1" class="edge">
<title>Node1&#45;&gt;Node2</title>
<path fill="none" stroke="midnightblue" d="M428.53,-68.82C414.74,-72.05 399.61,-75.59 385.16,-78.98"/>
<polygon fill="midnightblue" stroke="midnightblue" points="429.37,-72.22 438.31,-66.53 427.78,-65.4 429.37,-72.22"/>
</g>
<!-- Node4 -->
<g id="node4" class="node">
<title>Node4</title>
<g id="a_node4"><a xlink:href="classrare_1_1shared_1_1image__manager_1_1_image_manager.html#a0f33d11820dcab6878441e35121d8402" target="_top" xlink:title=" ">
<polygon fill="white" stroke="black" points="242,-0.5 242,-41.5 398,-41.5 398,-0.5 242,-0.5"/>
<text text-anchor="start" x="250" y="-29.5" font-family="Helvetica,sans-Serif" font-size="10.00">rare.shared.image_manager.</text>
<text text-anchor="start" x="250" y="-18.5" font-family="Helvetica,sans-Serif" font-size="10.00">ImageManager.download_image</text>
<text text-anchor="middle" x="320" y="-7.5" font-family="Helvetica,sans-Serif" font-size="10.00">_blocking</text>
</a>
</g>
</g>
<!-- Node1&#45;&gt;Node4 -->
<g id="edge5" class="edge">
<title>Node1&#45;&gt;Node4</title>
<path fill="none" stroke="midnightblue" d="M427.25,-45.21C417.96,-43.09 408.1,-40.84 398.27,-38.61"/>
<polygon fill="midnightblue" stroke="midnightblue" points="426.55,-48.64 437.07,-47.45 428.1,-41.81 426.55,-48.64"/>
</g>
<!-- Node2&#45;&gt;Node2 -->
<g id="edge2" class="edge">
<title>Node2&#45;&gt;Node2</title>
<path fill="none" stroke="midnightblue" d="M348.43,-119.46C344.9,-124.18 335.42,-127.5 320,-127.5 294.69,-127.5 285.39,-118.56 292.12,-109.16"/>
<polygon fill="midnightblue" stroke="midnightblue" points="351.91,-118.96 347.88,-109.16 344.92,-119.33 351.91,-118.96"/>
</g>
<!-- Node3 -->
<g id="node3" class="node">
<title>Node3</title>
<g id="a_node3"><a xlink:href="classrare_1_1components_1_1tabs_1_1games_1_1game__widgets_1_1game__widget_1_1_game_widget.html#a1c498583fd154d3fea8c59b543395ce5" target="_top" xlink:title=" ">
<polygon fill="white" stroke="black" points="0,-73.5 0,-114.5 206,-114.5 206,-73.5 0,-73.5"/>
<text text-anchor="start" x="8" y="-102.5" font-family="Helvetica,sans-Serif" font-size="10.00">rare.components.tabs.games.game</text>
<text text-anchor="start" x="8" y="-91.5" font-family="Helvetica,sans-Serif" font-size="10.00">_widgets.game_widget.GameWidget.mouse</text>
<text text-anchor="middle" x="103" y="-80.5" font-family="Helvetica,sans-Serif" font-size="10.00">PressEvent</text>
</a>
</g>
</g>
<!-- Node2&#45;&gt;Node3 -->
<g id="edge3" class="edge">
<title>Node2&#45;&gt;Node3</title>
<path fill="none" stroke="midnightblue" d="M236.57,-94C226.63,-94 216.39,-94 206.2,-94"/>
<polygon fill="midnightblue" stroke="midnightblue" points="236.81,-97.5 246.81,-94 236.81,-90.5 236.81,-97.5"/>
</g>
<!-- Node3&#45;&gt;Node3 -->
<g id="edge4" class="edge">
<title>Node3&#45;&gt;Node3</title>
<path fill="none" stroke="midnightblue" d="M140.16,-124.86C134.64,-129.7 122.25,-133 103,-133 72.2,-133 58.97,-124.54 63.3,-114.86"/>
<polygon fill="midnightblue" stroke="midnightblue" points="143.63,-125.42 142.7,-114.86 136.85,-123.7 143.63,-125.42"/>
</g>
<!-- Node4&#45;&gt;Node4 -->
<g id="edge6" class="edge">
<title>Node4&#45;&gt;Node4</title>
<path fill="none" stroke="midnightblue" d="M347.53,-51.86C343.43,-56.7 334.26,-60 320,-60 297.19,-60 287.39,-51.54 290.59,-41.86"/>
<polygon fill="midnightblue" stroke="midnightblue" points="351,-52.34 349.41,-41.86 344.12,-51.04 351,-52.34"/>
</g>
</g>
</svg>
