<?xml version="1.0" encoding="UTF-8" standalone="no"?>
<!DOCTYPE svg PUBLIC "-//W3C//DTD SVG 1.1//EN"
 "http://www.w3.org/Graphics/SVG/1.1/DTD/svg11.dtd">
<!-- Generated by graphviz version 2.49.3 (20211027.1534)
 -->
<!-- Title: decrypt_epic_data Pages: 1 -->
<svg width="182pt" height="46pt"
 viewBox="0.00 0.00 182.00 46.00" xmlns="http://www.w3.org/2000/svg" xmlns:xlink="http://www.w3.org/1999/xlink">
<g id="graph0" class="graph" transform="scale(1 1) rotate(0) translate(4 42)">
<title>decrypt_epic_data</title>
<polygon fill="white" stroke="transparent" points="-4,4 -4,-42 178,-42 178,4 -4,4"/>
<!-- Node1 -->
<g id="node1" class="node">
<title>Node1</title>
<g id="a_node1"><a xlink:title=" ">
<polygon fill="#bfbfbf" stroke="black" points="0,-0.5 0,-19.5 95,-19.5 95,-0.5 0,-0.5"/>
<text text-anchor="middle" x="47.5" y="-7.5" font-family="Helvetica,sans-Serif" font-size="10.00">decrypt_epic_data</text>
</a>
</g>
</g>
<!-- Node1&#45;&gt;Node1 -->
<g id="edge1" class="edge">
<title>Node1&#45;&gt;Node1</title>
<path fill="none" stroke="midnightblue" d="M31.47,-19.76C23.67,-28.57 29.02,-38 47.5,-38 59.05,-38 65.47,-34.31 66.76,-29.4"/>
<polygon fill="midnightblue" stroke="midnightblue" points="70.02,-28.13 63.53,-19.76 63.39,-30.35 70.02,-28.13"/>
</g>
<!-- Node2 -->
<g id="node2" class="node">
<title>Node2</title>
<g id="a_node2"><a xlink:href="namespacelegendary_1_1utils_1_1egl__crypt.html#af0e2189cb7c4d5894315985ca89b0880" target="_top" xlink:title="Removes a PKCS#7 padding, returning the unpadded text and ensuring the padding was correct.">
<polygon fill="white" stroke="black" points="131,-0.5 131,-19.5 174,-19.5 174,-0.5 131,-0.5"/>
<text text-anchor="middle" x="152.5" y="-7.5" font-family="Helvetica,sans-Serif" font-size="10.00">unpad</text>
</a>
</g>
</g>
<!-- Node1&#45;&gt;Node2 -->
<g id="edge2" class="edge">
<title>Node1&#45;&gt;Node2</title>
<path fill="none" stroke="midnightblue" d="M95.18,-10C103.91,-10 112.83,-10 120.92,-10"/>
<polygon fill="midnightblue" stroke="midnightblue" points="121,-13.5 131,-10 121,-6.5 121,-13.5"/>
</g>
<!-- Node2&#45;&gt;Node2 -->
<g id="edge3" class="edge">
<title>Node2&#45;&gt;Node2</title>
<path fill="none" stroke="midnightblue" d="M136.47,-19.76C128.67,-28.57 134.02,-38 152.5,-38 164.05,-38 170.47,-34.31 171.76,-29.4"/>
<polygon fill="midnightblue" stroke="midnightblue" points="175.02,-28.13 168.53,-19.76 168.39,-30.35 175.02,-28.13"/>
</g>
</g>
</svg>
