<?xml version="1.0" encoding="UTF-8" standalone="no"?>
<!DOCTYPE svg PUBLIC "-//W3C//DTD SVG 1.1//EN"
 "http://www.w3.org/Graphics/SVG/1.1/DTD/svg11.dtd">
<!-- Generated by graphviz version 2.49.3 (20211027.1534)
 -->
<!-- Title: format_size Pages: 1 -->
<!--zoomable 550 -->
<svg id="main" version="1.1" xmlns="http://www.w3.org/2000/svg" xmlns:xlink="http://www.w3.org/1999/xlink" xml:space="preserve" onload="init(evt)">
<style type="text/css"><![CDATA[
.edge:hover path { stroke: red; }
.edge:hover polygon { stroke: red; fill: red; }
]]></style>
<script type="text/javascript"><![CDATA[
var edges = document.getElementsByTagName('g');
if (edges && edges.length) {
  for (var i=0;i<edges.length;i++) {
    if (edges[i].id.substr(0,4)=='edge') {
      edges[i].setAttribute('class','edge');
    }
  }
}
]]></script>
        <defs>
                <circle id="rim" cx="0" cy="0" r="7"/>
                <circle id="rim2" cx="0" cy="0" r="3.5"/>
                <g id="zoomPlus">
                        <use xlink:href="#rim" fill="#404040">
                                <set attributeName="fill" to="#808080" begin="zoomplus.mouseover" end="zoomplus.mouseout"/>
                        </use>
                        <path d="M-4,0h8M0,-4v8" fill="none" stroke="white" stroke-width="1.5" pointer-events="none"/>
                </g>
                <g id="zoomMin">
                        <use xlink:href="#rim" fill="#404040">
                                <set attributeName="fill" to="#808080" begin="zoomminus.mouseover" end="zoomminus.mouseout"/>
                        </use>
                        <path d="M-4,0h8" fill="none" stroke="white" stroke-width="1.5" pointer-events="none"/>
                </g>
                <g id="dirArrow">
                        <path fill="none" stroke="white" stroke-width="1.5" d="M0,-3.0v7 M-2.5,-0.5L0,-3.0L2.5,-0.5"/>
                </g>
               <g id="resetDef">
                       <use xlink:href="#rim2" fill="#404040">
                               <set attributeName="fill" to="#808080" begin="reset.mouseover" end="reset.mouseout"/>
                       </use>
               </g>
        </defs>

<script type="text/javascript">
var viewWidth = 750;
var viewHeight = 550;
var sectionId = 'dynsection-3';
</script>
<script xlink:href="svgpan.js"/>
<svg id="graph" class="graph">
<g id="viewport">
<title>format_size</title>
<polygon fill="white" stroke="transparent" points="-4,4 -4,-546 746,-546 746,4 -4,4"/>
<!-- Node1 -->
<g id="node1" class="node">
<title>Node1</title>
<g id="a_node1"><a xlink:title=" ">
<polygon fill="#bfbfbf" stroke="black" points="675,-261 675,-280 742,-280 742,-261 675,-261"/>
<text text-anchor="middle" x="708.5" y="-268" font-family="Helvetica,sans-Serif" font-size="10.00">format_size</text>
</a>
</g>
</g>
<!-- Node1&#45;&gt;Node1 -->
<g id="edge5" class="edge">
<title>Node1&#45;&gt;Node1</title>
<path fill="none" stroke="midnightblue" d="M739.94,-288.77C739.04,-294.24 728.56,-298.5 708.5,-298.5 678.64,-298.5 670.01,-289.07 682.61,-280.26"/>
<polygon fill="midnightblue" stroke="midnightblue" points="742.78,-286.73 734.39,-280.26 736.92,-290.55 742.78,-286.73"/>
</g>
<!-- Node2 -->
<g id="node2" class="node">
<title>Node2</title>
<g id="a_node2"><a xlink:href="classrare_1_1components_1_1tabs_1_1settings_1_1rare_1_1_rare_settings.html#ac5aa04f27a40a5f6cfc0fc482f9f0dbd" target="_top" xlink:title=" ">
<polygon fill="white" stroke="black" points="457,-493.5 457,-523.5 624,-523.5 624,-493.5 457,-493.5"/>
<text text-anchor="start" x="465" y="-511.5" font-family="Helvetica,sans-Serif" font-size="10.00">rare.components.tabs.settings.rare.</text>
<text text-anchor="middle" x="540.5" y="-500.5" font-family="Helvetica,sans-Serif" font-size="10.00">RareSettings.clean_logdir</text>
</a>
</g>
</g>
<!-- Node1&#45;&gt;Node2 -->
<g id="edge1" class="edge">
<title>Node1&#45;&gt;Node2</title>
<path fill="none" stroke="midnightblue" d="M707.23,-290.45C705.54,-332.74 695.41,-431.82 639,-484.5 634.54,-488.66 629.48,-492.14 624.06,-495.03"/>
<polygon fill="midnightblue" stroke="midnightblue" points="710.74,-290.42 707.52,-280.33 703.74,-290.23 710.74,-290.42"/>
</g>
<!-- Node3 -->
<g id="node3" class="node">
<title>Node3</title>
<g id="a_node3"><a xlink:href="classrare_1_1components_1_1tabs_1_1settings_1_1legendary_1_1_legendary_settings.html#af064d32dee1937fa4aaef3e1b7472772" target="_top" xlink:title=" ">
<polygon fill="white" stroke="black" points="444.5,-426.5 444.5,-456.5 636.5,-456.5 636.5,-426.5 444.5,-426.5"/>
<text text-anchor="start" x="452.5" y="-444.5" font-family="Helvetica,sans-Serif" font-size="10.00">rare.components.tabs.settings.legendary.</text>
<text text-anchor="middle" x="540.5" y="-433.5" font-family="Helvetica,sans-Serif" font-size="10.00">LegendarySettings.cleanup</text>
</a>
</g>
</g>
<!-- Node1&#45;&gt;Node3 -->
<g id="edge3" class="edge">
<title>Node1&#45;&gt;Node3</title>
<path fill="none" stroke="midnightblue" d="M704.02,-289.97C697.3,-321.67 679.47,-384.23 639,-417.5 634.83,-420.93 630.23,-423.88 625.38,-426.42"/>
<polygon fill="midnightblue" stroke="midnightblue" points="707.45,-290.63 705.95,-280.14 700.59,-289.28 707.45,-290.63"/>
</g>
<!-- Node4 -->
<g id="node4" class="node">
<title>Node4</title>
<g id="a_node4"><a xlink:href="classrare_1_1components_1_1tabs_1_1games_1_1game__info_1_1game__info_1_1_game_info.html#a8f63c64f7175861f1d408bbeab2f5855" target="_top" xlink:title=" ">
<polygon fill="white" stroke="black" points="448,-359.5 448,-389.5 633,-389.5 633,-359.5 448,-359.5"/>
<text text-anchor="start" x="456" y="-377.5" font-family="Helvetica,sans-Serif" font-size="10.00">rare.components.tabs.games.game</text>
<text text-anchor="middle" x="540.5" y="-366.5" font-family="Helvetica,sans-Serif" font-size="10.00">_info.game_info.GameInfo.move_game</text>
</a>
</g>
</g>
<!-- Node1&#45;&gt;Node4 -->
<g id="edge6" class="edge">
<title>Node1&#45;&gt;Node4</title>
<path fill="none" stroke="midnightblue" d="M696.73,-288.72C684.9,-307.13 664.19,-334.99 639,-350.5 633.36,-353.97 627.25,-356.95 620.92,-359.49"/>
<polygon fill="midnightblue" stroke="midnightblue" points="699.8,-290.42 702.09,-280.08 693.85,-286.74 699.8,-290.42"/>
</g>
<!-- Node7 -->
<g id="node7" class="node">
<title>Node7</title>
<g id="a_node7"><a xlink:href="classrare_1_1components_1_1dialogs_1_1install__dialog_1_1_install_dialog.html#a64dd35f139577016bc6417719d65d969" target="_top" xlink:title=" ">
<polygon fill="white" stroke="black" points="451,-292.5 451,-322.5 630,-322.5 630,-292.5 451,-292.5"/>
<text text-anchor="start" x="459" y="-310.5" font-family="Helvetica,sans-Serif" font-size="10.00">rare.components.dialogs.install</text>
<text text-anchor="middle" x="540.5" y="-299.5" font-family="Helvetica,sans-Serif" font-size="10.00">_dialog.InstallDialog.on_worker_result</text>
</a>
</g>
</g>
<!-- Node1&#45;&gt;Node7 -->
<g id="edge13" class="edge">
<title>Node1&#45;&gt;Node7</title>
<path fill="none" stroke="midnightblue" d="M664.56,-280.07C647.59,-283.85 627.69,-288.29 608.9,-292.48"/>
<polygon fill="midnightblue" stroke="midnightblue" points="665.7,-283.4 674.7,-277.81 664.18,-276.57 665.7,-283.4"/>
</g>
<!-- Node10 -->
<g id="node10" class="node">
<title>Node10</title>
<g id="a_node10"><a xlink:href="classrare_1_1components_1_1tabs_1_1games_1_1game__info_1_1move__game_1_1_move_game_pop_up.html#a1aff74b1226e0df9ac7a678f327f24c5" target="_top" xlink:title=" ">
<polygon fill="white" stroke="black" points="442,-214 442,-255 639,-255 639,-214 442,-214"/>
<text text-anchor="start" x="450" y="-243" font-family="Helvetica,sans-Serif" font-size="10.00">rare.components.tabs.games.game</text>
<text text-anchor="start" x="450" y="-232" font-family="Helvetica,sans-Serif" font-size="10.00">_info.move_game.MoveGamePopUp.path</text>
<text text-anchor="middle" x="540.5" y="-221" font-family="Helvetica,sans-Serif" font-size="10.00">_edit_callback</text>
</a>
</g>
</g>
<!-- Node1&#45;&gt;Node10 -->
<g id="edge19" class="edge">
<title>Node1&#45;&gt;Node10</title>
<path fill="none" stroke="midnightblue" d="M664.7,-261.22C655.83,-259.29 646.15,-257.19 636.24,-255.05"/>
<polygon fill="midnightblue" stroke="midnightblue" points="664.19,-264.69 674.7,-263.39 665.67,-257.85 664.19,-264.69"/>
</g>
<!-- Node11 -->
<g id="node11" class="node">
<title>Node11</title>
<g id="a_node11"><a xlink:href="classrare_1_1shared_1_1workers_1_1wine__resolver_1_1_origin_wine_worker.html#a670fe67276cb94775a042958fe2c79d4" target="_top" xlink:title=" ">
<polygon fill="white" stroke="black" points="464.5,-146.5 464.5,-176.5 616.5,-176.5 616.5,-146.5 464.5,-146.5"/>
<text text-anchor="start" x="472.5" y="-164.5" font-family="Helvetica,sans-Serif" font-size="10.00">rare.shared.workers.wine</text>
<text text-anchor="middle" x="540.5" y="-153.5" font-family="Helvetica,sans-Serif" font-size="10.00">_resolver.OriginWineWorker.run</text>
</a>
</g>
</g>
<!-- Node1&#45;&gt;Node11 -->
<g id="edge21" class="edge">
<title>Node1&#45;&gt;Node11</title>
<path fill="none" stroke="midnightblue" d="M692.69,-253.16C679.68,-238.72 659.63,-218.35 639,-204.5 622.26,-193.26 602.09,-183.8 584.46,-176.64"/>
<polygon fill="midnightblue" stroke="midnightblue" points="690.26,-255.69 699.5,-260.88 695.51,-251.07 690.26,-255.69"/>
</g>
<!-- Node12 -->
<g id="node12" class="node">
<title>Node12</title>
<g id="a_node12"><a xlink:href="classrare_1_1components_1_1dialogs_1_1install__dialog_1_1_install_dialog.html#a0644ae4e0ef848cb9b9d3f2c03507d05" target="_top" xlink:title=" ">
<polygon fill="white" stroke="black" points="466,-68 466,-109 615,-109 615,-68 466,-68"/>
<text text-anchor="start" x="474" y="-97" font-family="Helvetica,sans-Serif" font-size="10.00">rare.components.dialogs.install</text>
<text text-anchor="start" x="474" y="-86" font-family="Helvetica,sans-Serif" font-size="10.00">_dialog.InstallDialog.save</text>
<text text-anchor="middle" x="540.5" y="-75" font-family="Helvetica,sans-Serif" font-size="10.00">_install_edit</text>
</a>
</g>
</g>
<!-- Node1&#45;&gt;Node12 -->
<g id="edge23" class="edge">
<title>Node1&#45;&gt;Node12</title>
<path fill="none" stroke="midnightblue" d="M701.85,-250.85C692.78,-222.4 672.52,-169.52 639,-136.5 627.57,-125.25 612.99,-116.17 598.6,-109.07"/>
<polygon fill="midnightblue" stroke="midnightblue" points="698.61,-252.24 704.87,-260.79 705.31,-250.2 698.61,-252.24"/>
</g>
<!-- Node14 -->
<g id="node14" class="node">
<title>Node14</title>
<g id="a_node14"><a xlink:href="classrare_1_1components_1_1tabs_1_1downloads_1_1widgets_1_1_queue_info_widget.html#af2c556abce885baacdae5d5cc5f70d1b" target="_top" xlink:title=" ">
<polygon fill="white" stroke="black" points="442,-0.5 442,-30.5 639,-30.5 639,-0.5 442,-0.5"/>
<text text-anchor="start" x="450" y="-18.5" font-family="Helvetica,sans-Serif" font-size="10.00">rare.components.tabs.downloads.widgets.</text>
<text text-anchor="middle" x="540.5" y="-7.5" font-family="Helvetica,sans-Serif" font-size="10.00">QueueInfoWidget.update_information</text>
</a>
</g>
</g>
<!-- Node1&#45;&gt;Node14 -->
<g id="edge27" class="edge">
<title>Node1&#45;&gt;Node14</title>
<path fill="none" stroke="midnightblue" d="M706.37,-250.63C703.03,-209.66 689.92,-114.94 639,-58.5 627.79,-46.07 612.31,-37.05 597,-30.59"/>
<polygon fill="midnightblue" stroke="midnightblue" points="702.88,-250.95 707.08,-260.68 709.87,-250.46 702.88,-250.95"/>
</g>
<!-- Node2&#45;&gt;Node2 -->
<g id="edge2" class="edge">
<title>Node2&#45;&gt;Node2</title>
<path fill="none" stroke="midnightblue" d="M570.35,-533.96C566.65,-538.68 556.7,-542 540.5,-542 513.92,-542 504.16,-533.06 511.22,-523.66"/>
<polygon fill="midnightblue" stroke="midnightblue" points="573.83,-533.45 569.78,-523.66 566.84,-533.84 573.83,-533.45"/>
</g>
<!-- Node3&#45;&gt;Node3 -->
<g id="edge4" class="edge">
<title>Node3&#45;&gt;Node3</title>
<path fill="none" stroke="midnightblue" d="M570.35,-466.96C566.65,-471.68 556.7,-475 540.5,-475 513.92,-475 504.16,-466.06 511.22,-456.66"/>
<polygon fill="midnightblue" stroke="midnightblue" points="573.83,-466.45 569.78,-456.66 566.84,-466.84 573.83,-466.45"/>
</g>
<!-- Node4&#45;&gt;Node4 -->
<g id="edge7" class="edge">
<title>Node4&#45;&gt;Node4</title>
<path fill="none" stroke="midnightblue" d="M570.35,-399.96C566.65,-404.68 556.7,-408 540.5,-408 513.92,-408 504.16,-399.06 511.22,-389.66"/>
<polygon fill="midnightblue" stroke="midnightblue" points="573.83,-399.45 569.78,-389.66 566.84,-399.84 573.83,-399.45"/>
</g>
<!-- Node5 -->
<g id="node5" class="node">
<title>Node5</title>
<g id="a_node5"><a xlink:href="classrare_1_1components_1_1tabs_1_1games_1_1game__info_1_1game__info_1_1_game_info.html#a3f0a6718ec31407232d59668556eed16" target="_top" xlink:title=" ">
<polygon fill="white" stroke="black" points="221,-362.5 221,-392.5 406,-392.5 406,-362.5 221,-362.5"/>
<text text-anchor="start" x="229" y="-380.5" font-family="Helvetica,sans-Serif" font-size="10.00">rare.components.tabs.games.game</text>
<text text-anchor="middle" x="313.5" y="-369.5" font-family="Helvetica,sans-Serif" font-size="10.00">_info.game_info.GameInfo.verify_game</text>
</a>
</g>
</g>
<!-- Node4&#45;&gt;Node5 -->
<g id="edge8" class="edge">
<title>Node4&#45;&gt;Node5</title>
<path fill="none" stroke="midnightblue" d="M437.93,-375.85C427.39,-375.99 416.72,-376.14 406.3,-376.28"/>
<polygon fill="midnightblue" stroke="midnightblue" points="438.03,-379.35 447.98,-375.72 437.94,-372.35 438.03,-379.35"/>
</g>
<!-- Node5&#45;&gt;Node5 -->
<g id="edge12" class="edge">
<title>Node5&#45;&gt;Node5</title>
<path fill="none" stroke="midnightblue" d="M352.59,-402.96C347.74,-407.68 334.71,-411 313.5,-411 278.7,-411 265.92,-402.06 275.16,-392.66"/>
<polygon fill="midnightblue" stroke="midnightblue" points="356.06,-402.38 351.84,-392.66 349.08,-402.89 356.06,-402.38"/>
</g>
<!-- Node6 -->
<g id="node6" class="node">
<title>Node6</title>
<g id="a_node6"><a xlink:href="classrare_1_1components_1_1tabs_1_1games_1_1game__info_1_1game__info_1_1_game_info.html#a0c1ec5a8b5b81f2e8b0483bfd9330a81" target="_top" xlink:title=" ">
<polygon fill="white" stroke="black" points="0,-362.5 0,-392.5 185,-392.5 185,-362.5 0,-362.5"/>
<text text-anchor="start" x="8" y="-380.5" font-family="Helvetica,sans-Serif" font-size="10.00">rare.components.tabs.games.game</text>
<text text-anchor="middle" x="92.5" y="-369.5" font-family="Helvetica,sans-Serif" font-size="10.00">_info.game_info.GameInfo.repair_game</text>
</a>
</g>
</g>
<!-- Node5&#45;&gt;Node6 -->
<g id="edge9" class="edge">
<title>Node5&#45;&gt;Node6</title>
<path fill="none" stroke="midnightblue" d="M210.85,-370.77C202.26,-370.73 193.6,-370.75 185.09,-370.83"/>
<polygon fill="midnightblue" stroke="midnightblue" points="210.87,-374.27 220.89,-370.83 210.92,-367.27 210.87,-374.27"/>
</g>
<!-- Node6&#45;&gt;Node5 -->
<g id="edge11" class="edge">
<title>Node6&#45;&gt;Node5</title>
<path fill="none" stroke="midnightblue" d="M195.14,-384.23C203.73,-384.27 212.38,-384.25 220.89,-384.17"/>
<polygon fill="midnightblue" stroke="midnightblue" points="195.11,-380.73 185.09,-384.17 195.07,-387.73 195.11,-380.73"/>
</g>
<!-- Node6&#45;&gt;Node6 -->
<g id="edge10" class="edge">
<title>Node6&#45;&gt;Node6</title>
<path fill="none" stroke="midnightblue" d="M131.59,-402.96C126.74,-407.68 113.71,-411 92.5,-411 57.7,-411 44.92,-402.06 54.16,-392.66"/>
<polygon fill="midnightblue" stroke="midnightblue" points="135.06,-402.38 130.84,-392.66 128.08,-402.89 135.06,-402.38"/>
</g>
<!-- Node7&#45;&gt;Node7 -->
<g id="edge18" class="edge">
<title>Node7&#45;&gt;Node7</title>
<path fill="none" stroke="midnightblue" d="M570.35,-332.96C566.65,-337.68 556.7,-341 540.5,-341 513.92,-341 504.16,-332.06 511.22,-322.66"/>
<polygon fill="midnightblue" stroke="midnightblue" points="573.83,-332.45 569.78,-322.66 566.84,-332.84 573.83,-332.45"/>
</g>
<!-- Node8 -->
<g id="node8" class="node">
<title>Node8</title>
<g id="a_node8"><a xlink:href="classrare_1_1components_1_1dialogs_1_1install__dialog_1_1_install_dialog.html#aca780d78b993a295a93507a4a6d12a69" target="_top" xlink:title=" ">
<polygon fill="white" stroke="black" points="239,-284 239,-325 388,-325 388,-284 239,-284"/>
<text text-anchor="start" x="247" y="-313" font-family="Helvetica,sans-Serif" font-size="10.00">rare.components.dialogs.install</text>
<text text-anchor="start" x="247" y="-302" font-family="Helvetica,sans-Serif" font-size="10.00">_dialog.InstallDialog.get</text>
<text text-anchor="middle" x="313.5" y="-291" font-family="Helvetica,sans-Serif" font-size="10.00">_download_info</text>
</a>
</g>
</g>
<!-- Node7&#45;&gt;Node8 -->
<g id="edge14" class="edge">
<title>Node7&#45;&gt;Node8</title>
<path fill="none" stroke="midnightblue" d="M440.59,-306.18C422.97,-305.95 404.9,-305.71 388.14,-305.48"/>
<polygon fill="midnightblue" stroke="midnightblue" points="440.85,-309.68 450.9,-306.32 440.94,-302.69 440.85,-309.68"/>
</g>
<!-- Node8&#45;&gt;Node8 -->
<g id="edge17" class="edge">
<title>Node8&#45;&gt;Node8</title>
<path fill="none" stroke="midnightblue" d="M351.35,-335.36C345.72,-340.2 333.1,-343.5 313.5,-343.5 282.13,-343.5 268.65,-335.04 273.07,-325.36"/>
<polygon fill="midnightblue" stroke="midnightblue" points="354.82,-335.92 353.93,-325.36 348.04,-334.17 354.82,-335.92"/>
</g>
<!-- Node9 -->
<g id="node9" class="node">
<title>Node9</title>
<g id="a_node9"><a xlink:href="classrare_1_1components_1_1dialogs_1_1install__dialog_1_1_install_dialog.html#aa902973791e81c8c4542da337b86289b" target="_top" xlink:title=" ">
<polygon fill="white" stroke="black" points="18,-289.5 18,-319.5 167,-319.5 167,-289.5 18,-289.5"/>
<text text-anchor="start" x="26" y="-307.5" font-family="Helvetica,sans-Serif" font-size="10.00">rare.components.dialogs.install</text>
<text text-anchor="middle" x="92.5" y="-296.5" font-family="Helvetica,sans-Serif" font-size="10.00">_dialog.InstallDialog.execute</text>
</a>
</g>
</g>
<!-- Node8&#45;&gt;Node9 -->
<g id="edge15" class="edge">
<title>Node8&#45;&gt;Node9</title>
<path fill="none" stroke="midnightblue" d="M228.81,-304.5C208.53,-304.5 186.99,-304.5 167.21,-304.5"/>
<polygon fill="midnightblue" stroke="midnightblue" points="228.97,-308 238.97,-304.5 228.97,-301 228.97,-308"/>
</g>
<!-- Node9&#45;&gt;Node9 -->
<g id="edge16" class="edge">
<title>Node9&#45;&gt;Node9</title>
<path fill="none" stroke="midnightblue" d="M131.59,-329.96C126.74,-334.68 113.71,-338 92.5,-338 57.7,-338 44.92,-329.06 54.16,-319.66"/>
<polygon fill="midnightblue" stroke="midnightblue" points="135.06,-329.38 130.84,-319.66 128.08,-329.89 135.06,-329.38"/>
</g>
<!-- Node10&#45;&gt;Node10 -->
<g id="edge20" class="edge">
<title>Node10&#45;&gt;Node10</title>
<path fill="none" stroke="midnightblue" d="M569.4,-265.36C565.11,-270.2 555.47,-273.5 540.5,-273.5 516.55,-273.5 506.25,-265.04 509.62,-255.36"/>
<polygon fill="midnightblue" stroke="midnightblue" points="572.87,-265.85 571.38,-255.36 566.01,-264.5 572.87,-265.85"/>
</g>
<!-- Node11&#45;&gt;Node11 -->
<g id="edge22" class="edge">
<title>Node11&#45;&gt;Node11</title>
<path fill="none" stroke="midnightblue" d="M570.35,-186.96C566.65,-191.68 556.7,-195 540.5,-195 513.92,-195 504.16,-186.06 511.22,-176.66"/>
<polygon fill="midnightblue" stroke="midnightblue" points="573.83,-186.45 569.78,-176.66 566.84,-186.84 573.83,-186.45"/>
</g>
<!-- Node12&#45;&gt;Node12 -->
<g id="edge24" class="edge">
<title>Node12&#45;&gt;Node12</title>
<path fill="none" stroke="midnightblue" d="M569.4,-119.36C565.11,-124.2 555.47,-127.5 540.5,-127.5 516.55,-127.5 506.25,-119.04 509.62,-109.36"/>
<polygon fill="midnightblue" stroke="midnightblue" points="572.87,-119.85 571.38,-109.36 566.01,-118.5 572.87,-119.85"/>
</g>
<!-- Node13 -->
<g id="node13" class="node">
<title>Node13</title>
<g id="a_node13"><a xlink:href="classrare_1_1components_1_1dialogs_1_1install__dialog_1_1_install_dialog.html#af997cabd23f14f71f7f87c986ccd582c" target="_top" xlink:title=" ">
<polygon fill="white" stroke="black" points="237,-73.5 237,-103.5 390,-103.5 390,-73.5 237,-73.5"/>
<text text-anchor="start" x="245" y="-91.5" font-family="Helvetica,sans-Serif" font-size="10.00">rare.components.dialogs.install</text>
<text text-anchor="middle" x="313.5" y="-80.5" font-family="Helvetica,sans-Serif" font-size="10.00">_dialog.InstallDialog.showEvent</text>
</a>
</g>
</g>
<!-- Node12&#45;&gt;Node13 -->
<g id="edge25" class="edge">
<title>Node12&#45;&gt;Node13</title>
<path fill="none" stroke="midnightblue" d="M455.75,-88.5C434.28,-88.5 411.31,-88.5 390.27,-88.5"/>
<polygon fill="midnightblue" stroke="midnightblue" points="455.83,-92 465.83,-88.5 455.83,-85 455.83,-92"/>
</g>
<!-- Node13&#45;&gt;Node13 -->
<g id="edge26" class="edge">
<title>Node13&#45;&gt;Node13</title>
<path fill="none" stroke="midnightblue" d="M352.59,-113.96C347.74,-118.68 334.71,-122 313.5,-122 278.7,-122 265.92,-113.06 275.16,-103.66"/>
<polygon fill="midnightblue" stroke="midnightblue" points="356.06,-113.38 351.84,-103.66 349.08,-113.89 356.06,-113.38"/>
</g>
<!-- Node14&#45;&gt;Node14 -->
<g id="edge28" class="edge">
<title>Node14&#45;&gt;Node14</title>
<path fill="none" stroke="midnightblue" d="M570.35,-40.96C566.65,-45.68 556.7,-49 540.5,-49 513.92,-49 504.16,-40.06 511.22,-30.66"/>
<polygon fill="midnightblue" stroke="midnightblue" points="573.83,-40.45 569.78,-30.66 566.84,-40.84 573.83,-40.45"/>
</g>
</g>
</svg>
        <g id="navigator" transform="translate(0 0)" fill="#404254">
                <rect fill="#f2f5e9" fill-opacity="0.5" stroke="#606060" stroke-width=".5" x="0" y="0" width="60" height="60"/>
                <use id="zoomplus" xlink:href="#zoomPlus" x="17" y="9" onmousedown="handleZoom(evt,'in')"/>
                <use id="zoomminus" xlink:href="#zoomMin" x="42" y="9" onmousedown="handleZoom(evt,'out')"/>
                <use id="reset" xlink:href="#resetDef" x="30" y="36" onmousedown="handleReset()"/>
                <g id="arrowUp" xlink:href="#dirArrow" transform="translate(30 24)" onmousedown="handlePan(0,-1)">
                  <use xlink:href="#rim" fill="#404040">
                        <set attributeName="fill" to="#808080" begin="arrowUp.mouseover" end="arrowUp.mouseout"/>
                  </use>
                  <path fill="none" stroke="white" stroke-width="1.5" d="M0,-3.0v7 M-2.5,-0.5L0,-3.0L2.5,-0.5"/>
                </g>
                <g id="arrowRight" xlink:href="#dirArrow" transform="rotate(90) translate(36 -43)" onmousedown="handlePan(1,0)">
                  <use xlink:href="#rim" fill="#404040">
                        <set attributeName="fill" to="#808080" begin="arrowRight.mouseover" end="arrowRight.mouseout"/>
                  </use>
                  <path fill="none" stroke="white" stroke-width="1.5" d="M0,-3.0v7 M-2.5,-0.5L0,-3.0L2.5,-0.5"/>
                </g>
                <g id="arrowDown" xlink:href="#dirArrow" transform="rotate(180) translate(-30 -48)" onmousedown="handlePan(0,1)">
                  <use xlink:href="#rim" fill="#404040">
                        <set attributeName="fill" to="#808080" begin="arrowDown.mouseover" end="arrowDown.mouseout"/>
                  </use>
                  <path fill="none" stroke="white" stroke-width="1.5" d="M0,-3.0v7 M-2.5,-0.5L0,-3.0L2.5,-0.5"/>
                </g>
                <g id="arrowLeft" xlink:href="#dirArrow" transform="rotate(270) translate(-36 17)" onmousedown="handlePan(-1,0)">
                  <use xlink:href="#rim" fill="#404040">
                        <set attributeName="fill" to="#808080" begin="arrowLeft.mouseover" end="arrowLeft.mouseout"/>
                  </use>
                  <path fill="none" stroke="white" stroke-width="1.5" d="M0,-3.0v7 M-2.5,-0.5L0,-3.0L2.5,-0.5"/>
                </g>
        </g>
        <svg viewBox="0 0 15 15" width="100%" height="30px" preserveAspectRatio="xMaxYMin meet">
         <g id="arrow_out" transform="scale(0.3 0.3)">
          <a xlink:href="namespacerare_1_1utils_1_1misc_a3544b31f50ff739b7e8bb4ab751026b7_icgraph_org.svg" target="_base">
           <rect id="button" ry="5" rx="5" y="6" x="6" height="38" width="38"
                fill="#f2f5e9" fill-opacity="0.5" stroke="#606060" stroke-width="1.0"/>
           <path id="arrow"
             d="M 11.500037,31.436501 C 11.940474,20.09759 22.043105,11.32322 32.158766,21.979434 L 37.068811,17.246167 C 37.068811,17.246167 37.088388,32 37.088388,32 L 22.160133,31.978069 C 22.160133,31.978069 26.997745,27.140456 26.997745,27.140456 C 18.528582,18.264221 13.291696,25.230495 11.500037,31.436501 z"
             style="fill:#404040;"/>
          </a>
         </g>
        </svg>
</svg>
