<?xml version="1.0" encoding="UTF-8" standalone="no"?>
<!DOCTYPE svg PUBLIC "-//W3C//DTD SVG 1.1//EN"
 "http://www.w3.org/Graphics/SVG/1.1/DTD/svg11.dtd">
<!-- Generated by graphviz version 2.49.3 (20211027.1534)
 -->
<!-- Title: get_origin_params Pages: 1 -->
<svg width="375pt" height="57pt"
 viewBox="0.00 0.00 375.00 57.00" xmlns="http://www.w3.org/2000/svg" xmlns:xlink="http://www.w3.org/1999/xlink">
<g id="graph0" class="graph" transform="scale(1 1) rotate(0) translate(4 53)">
<title>get_origin_params</title>
<polygon fill="white" stroke="transparent" points="-4,4 -4,-53 371,-53 371,4 -4,4"/>
<!-- Node1 -->
<g id="node1" class="node">
<title>Node1</title>
<g id="a_node1"><a xlink:title=" ">
<polygon fill="#bfbfbf" stroke="black" points="0,-6 0,-25 96,-25 96,-6 0,-6"/>
<text text-anchor="middle" x="48" y="-13" font-family="Helvetica,sans-Serif" font-size="10.00">get_origin_params</text>
</a>
</g>
</g>
<!-- Node1&#45;&gt;Node1 -->
<g id="edge1" class="edge">
<title>Node1&#45;&gt;Node1</title>
<path fill="none" stroke="midnightblue" d="M28.27,-25.26C18.67,-34.07 25.25,-43.5 48,-43.5 62.57,-43.5 70.51,-39.63 71.81,-34.53"/>
<polygon fill="midnightblue" stroke="midnightblue" points="74.96,-33 67.73,-25.26 68.55,-35.82 74.96,-33"/>
</g>
<!-- Node2 -->
<g id="node2" class="node">
<title>Node2</title>
<g id="a_node2"><a xlink:href="namespacerare_1_1commands_1_1launcher_1_1lgd__helper.html#a1143cdeef4568dea440a5f8f5aa9ddb2" target="_top" xlink:title=" ">
<polygon fill="white" stroke="black" points="132,-6 132,-25 221,-25 221,-6 132,-6"/>
<text text-anchor="middle" x="176.5" y="-13" font-family="Helvetica,sans-Serif" font-size="10.00">prepare_process</text>
</a>
</g>
</g>
<!-- Node1&#45;&gt;Node2 -->
<g id="edge2" class="edge">
<title>Node1&#45;&gt;Node2</title>
<path fill="none" stroke="midnightblue" d="M96.1,-15.5C104.39,-15.5 113.08,-15.5 121.54,-15.5"/>
<polygon fill="midnightblue" stroke="midnightblue" points="121.71,-19 131.71,-15.5 121.71,-12 121.71,-19"/>
</g>
<!-- Node2&#45;&gt;Node2 -->
<g id="edge3" class="edge">
<title>Node2&#45;&gt;Node2</title>
<path fill="none" stroke="midnightblue" d="M156.77,-25.26C147.17,-34.07 153.75,-43.5 176.5,-43.5 191.07,-43.5 199.01,-39.63 200.31,-34.53"/>
<polygon fill="midnightblue" stroke="midnightblue" points="203.46,-33 196.23,-25.26 197.05,-35.82 203.46,-33"/>
</g>
<!-- Node3 -->
<g id="node3" class="node">
<title>Node3</title>
<g id="a_node3"><a xlink:href="namespacerare_1_1utils_1_1paths.html#a42d71bade593ac6ab28a7ed393dcd9b5" target="_top" xlink:title="Setup per&#45;game shader cache if shader pre&#45;caching is disabled.">
<polygon fill="white" stroke="black" points="257,-0.5 257,-30.5 367,-30.5 367,-0.5 257,-0.5"/>
<text text-anchor="start" x="265" y="-18.5" font-family="Helvetica,sans-Serif" font-size="10.00">rare.utils.paths.setup</text>
<text text-anchor="middle" x="312" y="-7.5" font-family="Helvetica,sans-Serif" font-size="10.00">_compat_shaders_dir</text>
</a>
</g>
</g>
<!-- Node2&#45;&gt;Node3 -->
<g id="edge4" class="edge">
<title>Node2&#45;&gt;Node3</title>
<path fill="none" stroke="midnightblue" d="M221.21,-15.5C229.41,-15.5 238.14,-15.5 246.81,-15.5"/>
<polygon fill="midnightblue" stroke="midnightblue" points="246.92,-19 256.92,-15.5 246.92,-12 246.92,-19"/>
</g>
<!-- Node3&#45;&gt;Node3 -->
<g id="edge5" class="edge">
<title>Node3&#45;&gt;Node3</title>
<path fill="none" stroke="midnightblue" d="M288.65,-30.66C283.02,-40.06 290.8,-49 312,-49 324.92,-49 332.86,-45.68 335.81,-40.96"/>
<polygon fill="midnightblue" stroke="midnightblue" points="339.29,-40.49 335.35,-30.66 332.3,-40.8 339.29,-40.49"/>
</g>
</g>
</svg>
