<?xml version="1.0" encoding="UTF-8" standalone="no"?>
<!DOCTYPE svg PUBLIC "-//W3C//DTD SVG 1.1//EN"
 "http://www.w3.org/Graphics/SVG/1.1/DTD/svg11.dtd">
<!-- Generated by graphviz version 2.49.3 (20211027.1534)
 -->
<!-- Title: versiontuple Pages: 1 -->
<svg width="288pt" height="57pt"
 viewBox="0.00 0.00 288.00 57.00" xmlns="http://www.w3.org/2000/svg" xmlns:xlink="http://www.w3.org/1999/xlink">
<g id="graph0" class="graph" transform="scale(1 1) rotate(0) translate(4 53)">
<title>versiontuple</title>
<polygon fill="white" stroke="transparent" points="-4,4 -4,-53 284,-53 284,4 -4,4"/>
<!-- Node1 -->
<g id="node1" class="node">
<title>Node1</title>
<g id="a_node1"><a xlink:title=" ">
<polygon fill="#bfbfbf" stroke="black" points="211,-6 211,-25 280,-25 280,-6 211,-6"/>
<text text-anchor="middle" x="245.5" y="-13" font-family="Helvetica,sans-Serif" font-size="10.00">versiontuple</text>
</a>
</g>
</g>
<!-- Node1&#45;&gt;Node1 -->
<g id="edge3" class="edge">
<title>Node1&#45;&gt;Node1</title>
<path fill="none" stroke="midnightblue" d="M274.99,-34.15C273.76,-39.44 263.93,-43.5 245.5,-43.5 217.42,-43.5 209.3,-34.07 221.15,-25.26"/>
<polygon fill="midnightblue" stroke="midnightblue" points="277.89,-32.16 269.85,-25.26 271.82,-35.67 277.89,-32.16"/>
</g>
<!-- Node2 -->
<g id="node2" class="node">
<title>Node2</title>
<g id="a_node2"><a xlink:href="classrare_1_1components_1_1tabs_1_1settings_1_1about_1_1_about.html#a9cffc6ef9de14ab9ea46cc13bbc07e50" target="_top" xlink:title=" ">
<polygon fill="white" stroke="black" points="0,-0.5 0,-30.5 175,-30.5 175,-0.5 0,-0.5"/>
<text text-anchor="start" x="8" y="-18.5" font-family="Helvetica,sans-Serif" font-size="10.00">rare.components.tabs.settings.about.</text>
<text text-anchor="middle" x="87.5" y="-7.5" font-family="Helvetica,sans-Serif" font-size="10.00">About.update_available_finished</text>
</a>
</g>
</g>
<!-- Node1&#45;&gt;Node2 -->
<g id="edge1" class="edge">
<title>Node1&#45;&gt;Node2</title>
<path fill="none" stroke="midnightblue" d="M200.48,-15.5C192.46,-15.5 183.84,-15.5 175.07,-15.5"/>
<polygon fill="midnightblue" stroke="midnightblue" points="200.65,-19 210.65,-15.5 200.65,-12 200.65,-19"/>
</g>
<!-- Node2&#45;&gt;Node2 -->
<g id="edge2" class="edge">
<title>Node2&#45;&gt;Node2</title>
<path fill="none" stroke="midnightblue" d="M115.57,-40.96C112.09,-45.68 102.73,-49 87.5,-49 62.5,-49 53.33,-40.06 59.97,-30.66"/>
<polygon fill="midnightblue" stroke="midnightblue" points="119.05,-40.46 115.03,-30.66 112.06,-40.83 119.05,-40.46"/>
</g>
</g>
</svg>
