<?xml version="1.0" encoding="UTF-8" standalone="no"?>
<!DOCTYPE svg PUBLIC "-//W3C//DTD SVG 1.1//EN"
 "http://www.w3.org/Graphics/SVG/1.1/DTD/svg11.dtd">
<!-- Generated by graphviz version 2.49.3 (20211027.1534)
 -->
<!-- Title: get_option Pages: 1 -->
<svg width="517pt" height="158pt"
 viewBox="0.00 0.00 517.00 158.00" xmlns="http://www.w3.org/2000/svg" xmlns:xlink="http://www.w3.org/1999/xlink">
<g id="graph0" class="graph" transform="scale(1 1) rotate(0) translate(4 154)">
<title>get_option</title>
<polygon fill="white" stroke="transparent" points="-4,4 -4,-154 513,-154 513,4 -4,4"/>
<!-- Node1 -->
<g id="node1" class="node">
<title>Node1</title>
<g id="a_node1"><a xlink:title=" ">
<polygon fill="#bfbfbf" stroke="black" points="447,-56.5 447,-75.5 509,-75.5 509,-56.5 447,-56.5"/>
<text text-anchor="middle" x="478" y="-63.5" font-family="Helvetica,sans-Serif" font-size="10.00">get_option</text>
</a>
</g>
</g>
<!-- Node1&#45;&gt;Node1 -->
<g id="edge9" class="edge">
<title>Node1&#45;&gt;Node1</title>
<path fill="none" stroke="midnightblue" d="M501.07,-85.03C499.81,-90.13 492.12,-94 478,-94 455.96,-94 449.59,-84.57 458.89,-75.76"/>
<polygon fill="midnightblue" stroke="midnightblue" points="504.25,-83.58 497.11,-75.76 497.81,-86.33 504.25,-83.58"/>
</g>
<!-- Node2 -->
<g id="node2" class="node">
<title>Node2</title>
<g id="a_node2"><a xlink:href="namespacerare_1_1utils_1_1config__helper.html#a457d37bbe224d5f64555cb8451ca6b18" target="_top" xlink:title=" ">
<polygon fill="white" stroke="black" points="320.5,-94.5 320.5,-113.5 385.5,-113.5 385.5,-94.5 320.5,-94.5"/>
<text text-anchor="middle" x="353" y="-101.5" font-family="Helvetica,sans-Serif" font-size="10.00">get_envvar</text>
</a>
</g>
</g>
<!-- Node1&#45;&gt;Node2 -->
<g id="edge1" class="edge">
<title>Node1&#45;&gt;Node2</title>
<path fill="none" stroke="midnightblue" d="M437.28,-78.27C420.36,-83.5 400.91,-89.51 385.06,-94.4"/>
<polygon fill="midnightblue" stroke="midnightblue" points="438.39,-81.59 446.91,-75.3 436.32,-74.9 438.39,-81.59"/>
</g>
<!-- Node4 -->
<g id="node4" class="node">
<title>Node4</title>
<g id="a_node4"><a xlink:href="namespacerare_1_1utils_1_1config__helper.html#af2de84d06c82e786b126f04d28f86bde" target="_top" xlink:title=" ">
<polygon fill="white" stroke="black" points="159.5,-56.5 159.5,-75.5 242.5,-75.5 242.5,-56.5 159.5,-56.5"/>
<text text-anchor="middle" x="201" y="-63.5" font-family="Helvetica,sans-Serif" font-size="10.00">get_wine_prefix</text>
</a>
</g>
</g>
<!-- Node1&#45;&gt;Node4 -->
<g id="edge12" class="edge">
<title>Node1&#45;&gt;Node4</title>
<path fill="none" stroke="midnightblue" d="M436.62,-66C384.73,-66 295.13,-66 242.96,-66"/>
<polygon fill="midnightblue" stroke="midnightblue" points="436.78,-69.5 446.78,-66 436.78,-62.5 436.78,-69.5"/>
</g>
<!-- Node6 -->
<g id="node6" class="node">
<title>Node6</title>
<g id="a_node6"><a xlink:href="namespacerare_1_1utils_1_1config__helper.html#a6814959153df7cc30c61a0dc7e02b801" target="_top" xlink:title=" ">
<polygon fill="white" stroke="black" points="295,-0.5 295,-19.5 411,-19.5 411,-0.5 295,-0.5"/>
<text text-anchor="middle" x="353" y="-7.5" font-family="Helvetica,sans-Serif" font-size="10.00">get_option_with_global</text>
</a>
</g>
</g>
<!-- Node1&#45;&gt;Node6 -->
<g id="edge10" class="edge">
<title>Node1&#45;&gt;Node6</title>
<path fill="none" stroke="midnightblue" d="M446.49,-52.11C424.19,-41.96 394.52,-28.45 374.87,-19.5"/>
<polygon fill="midnightblue" stroke="midnightblue" points="445.3,-55.41 455.86,-56.37 448.2,-49.04 445.3,-55.41"/>
</g>
<!-- Node2&#45;&gt;Node2 -->
<g id="edge4" class="edge">
<title>Node2&#45;&gt;Node2</title>
<path fill="none" stroke="midnightblue" d="M376.07,-123.03C374.81,-128.13 367.12,-132 353,-132 330.96,-132 324.59,-122.57 333.89,-113.76"/>
<polygon fill="midnightblue" stroke="midnightblue" points="379.25,-121.58 372.11,-113.76 372.81,-124.33 379.25,-121.58"/>
</g>
<!-- Node3 -->
<g id="node3" class="node">
<title>Node3</title>
<g id="a_node3"><a xlink:href="namespacerare_1_1utils_1_1config__helper.html#a4f5aace75b953fccd7561e0598aceca1" target="_top" xlink:title=" ">
<polygon fill="white" stroke="black" points="143,-112.5 143,-131.5 259,-131.5 259,-112.5 143,-112.5"/>
<text text-anchor="middle" x="201" y="-119.5" font-family="Helvetica,sans-Serif" font-size="10.00">get_compat_data_path</text>
</a>
</g>
</g>
<!-- Node2&#45;&gt;Node3 -->
<g id="edge2" class="edge">
<title>Node2&#45;&gt;Node3</title>
<path fill="none" stroke="midnightblue" d="M310.21,-109.02C294.42,-110.91 276.17,-113.1 259.2,-115.14"/>
<polygon fill="midnightblue" stroke="midnightblue" points="310.68,-112.48 320.19,-107.82 309.84,-105.53 310.68,-112.48"/>
</g>
<!-- Node2&#45;&gt;Node4 -->
<g id="edge5" class="edge">
<title>Node2&#45;&gt;Node4</title>
<path fill="none" stroke="midnightblue" d="M310.38,-93.46C288.2,-87.84 261.14,-80.98 239.6,-75.52"/>
<polygon fill="midnightblue" stroke="midnightblue" points="309.64,-96.88 320.19,-95.94 311.35,-90.09 309.64,-96.88"/>
</g>
<!-- Node3&#45;&gt;Node3 -->
<g id="edge3" class="edge">
<title>Node3&#45;&gt;Node3</title>
<path fill="none" stroke="midnightblue" d="M228.25,-140.65C227.11,-145.94 218.03,-150 201,-150 175.05,-150 167.55,-140.57 178.5,-131.76"/>
<polygon fill="midnightblue" stroke="midnightblue" points="231.3,-138.93 223.5,-131.76 225.12,-142.23 231.3,-138.93"/>
</g>
<!-- Node4&#45;&gt;Node4 -->
<g id="edge6" class="edge">
<title>Node4&#45;&gt;Node4</title>
<path fill="none" stroke="midnightblue" d="M228.25,-84.65C227.11,-89.94 218.03,-94 201,-94 175.05,-94 167.55,-84.57 178.5,-75.76"/>
<polygon fill="midnightblue" stroke="midnightblue" points="231.3,-82.93 223.5,-75.76 225.12,-86.23 231.3,-82.93"/>
</g>
<!-- Node5 -->
<g id="node5" class="node">
<title>Node5</title>
<g id="a_node5"><a xlink:href="namespacerare_1_1utils_1_1config__helper.html#ae1de1a8785f0c03428f9e47873a0028d" target="_top" xlink:title=" ">
<polygon fill="white" stroke="black" points="0,-51 0,-81 107,-81 107,-51 0,-51"/>
<text text-anchor="start" x="8" y="-69" font-family="Helvetica,sans-Serif" font-size="10.00">get_wine_prefix_with</text>
<text text-anchor="middle" x="53.5" y="-58" font-family="Helvetica,sans-Serif" font-size="10.00">_global</text>
</a>
</g>
</g>
<!-- Node4&#45;&gt;Node5 -->
<g id="edge7" class="edge">
<title>Node4&#45;&gt;Node5</title>
<path fill="none" stroke="midnightblue" d="M149.29,-66C135.63,-66 120.83,-66 107.07,-66"/>
<polygon fill="midnightblue" stroke="midnightblue" points="149.47,-69.5 159.47,-66 149.47,-62.5 149.47,-69.5"/>
</g>
<!-- Node5&#45;&gt;Node5 -->
<g id="edge8" class="edge">
<title>Node5&#45;&gt;Node5</title>
<path fill="none" stroke="midnightblue" d="M79.44,-91.46C76.22,-96.18 67.58,-99.5 53.5,-99.5 30.4,-99.5 21.92,-90.56 28.06,-81.16"/>
<polygon fill="midnightblue" stroke="midnightblue" points="82.92,-90.98 78.94,-81.16 75.93,-91.32 82.92,-90.98"/>
</g>
<!-- Node6&#45;&gt;Node6 -->
<g id="edge11" class="edge">
<title>Node6&#45;&gt;Node6</title>
<path fill="none" stroke="midnightblue" d="M376.07,-29.03C374.81,-34.13 367.12,-38 353,-38 330.96,-38 324.59,-28.57 333.89,-19.76"/>
<polygon fill="midnightblue" stroke="midnightblue" points="379.25,-27.58 372.11,-19.76 372.81,-30.33 379.25,-27.58"/>
</g>
</g>
</svg>
