<?xml version="1.0" encoding="UTF-8" standalone="no"?>
<!DOCTYPE svg PUBLIC "-//W3C//DTD SVG 1.1//EN"
 "http://www.w3.org/Graphics/SVG/1.1/DTD/svg11.dtd">
<!-- Generated by graphviz version 2.49.3 (20211027.1534)
 -->
<!-- Title: adjust_envvar Pages: 1 -->
<svg width="252pt" height="102pt"
 viewBox="0.00 0.00 252.00 102.00" xmlns="http://www.w3.org/2000/svg" xmlns:xlink="http://www.w3.org/1999/xlink">
<g id="graph0" class="graph" transform="scale(1 1) rotate(0) translate(4 98)">
<title>adjust_envvar</title>
<polygon fill="white" stroke="transparent" points="-4,4 -4,-98 248,-98 248,4 -4,4"/>
<!-- Node1 -->
<g id="node1" class="node">
<title>Node1</title>
<g id="a_node1"><a xlink:title=" ">
<polygon fill="#bfbfbf" stroke="black" points="167,-28.5 167,-47.5 244,-47.5 244,-28.5 167,-28.5"/>
<text text-anchor="middle" x="205.5" y="-35.5" font-family="Helvetica,sans-Serif" font-size="10.00">adjust_envvar</text>
</a>
</g>
</g>
<!-- Node1&#45;&gt;Node1 -->
<g id="edge1" class="edge">
<title>Node1&#45;&gt;Node1</title>
<path fill="none" stroke="midnightblue" d="M231.54,-57.03C230.12,-62.13 221.44,-66 205.5,-66 180.62,-66 173.42,-56.57 183.92,-47.76"/>
<polygon fill="midnightblue" stroke="midnightblue" points="234.57,-55.25 227.08,-47.76 228.26,-58.29 234.57,-55.25"/>
</g>
<!-- Node2 -->
<g id="node2" class="node">
<title>Node2</title>
<g id="a_node2"><a xlink:href="namespacerare_1_1utils_1_1config__helper.html#a4e6188344459360bdf785548c5d72ce7" target="_top" xlink:title=" ">
<polygon fill="white" stroke="black" points="0,-56.5 0,-75.5 131,-75.5 131,-56.5 0,-56.5"/>
<text text-anchor="middle" x="65.5" y="-63.5" font-family="Helvetica,sans-Serif" font-size="10.00">adjust_proton_compatdata</text>
</a>
</g>
</g>
<!-- Node1&#45;&gt;Node2 -->
<g id="edge2" class="edge">
<title>Node1&#45;&gt;Node2</title>
<path fill="none" stroke="midnightblue" d="M156.85,-47.67C142.83,-50.51 127.51,-53.62 113.53,-56.46"/>
<polygon fill="midnightblue" stroke="midnightblue" points="157.69,-51.07 166.79,-45.65 156.29,-44.21 157.69,-51.07"/>
</g>
<!-- Node3 -->
<g id="node3" class="node">
<title>Node3</title>
<g id="a_node3"><a xlink:href="namespacerare_1_1utils_1_1config__helper.html#a65e3011dfa9ba230763642affd6e5d49" target="_top" xlink:title=" ">
<polygon fill="white" stroke="black" points="17.5,-0.5 17.5,-19.5 113.5,-19.5 113.5,-0.5 17.5,-0.5"/>
<text text-anchor="middle" x="65.5" y="-7.5" font-family="Helvetica,sans-Serif" font-size="10.00">adjust_wine_prefix</text>
</a>
</g>
</g>
<!-- Node1&#45;&gt;Node3 -->
<g id="edge4" class="edge">
<title>Node1&#45;&gt;Node3</title>
<path fill="none" stroke="midnightblue" d="M156.85,-28.33C142.83,-25.49 127.51,-22.38 113.53,-19.54"/>
<polygon fill="midnightblue" stroke="midnightblue" points="156.29,-31.79 166.79,-30.35 157.69,-24.93 156.29,-31.79"/>
</g>
<!-- Node2&#45;&gt;Node2 -->
<g id="edge3" class="edge">
<title>Node2&#45;&gt;Node2</title>
<path fill="none" stroke="midnightblue" d="M91.54,-85.03C90.12,-90.13 81.44,-94 65.5,-94 40.62,-94 33.42,-84.57 43.92,-75.76"/>
<polygon fill="midnightblue" stroke="midnightblue" points="94.57,-83.25 87.08,-75.76 88.26,-86.29 94.57,-83.25"/>
</g>
<!-- Node3&#45;&gt;Node3 -->
<g id="edge5" class="edge">
<title>Node3&#45;&gt;Node3</title>
<path fill="none" stroke="midnightblue" d="M91.54,-29.03C90.12,-34.13 81.44,-38 65.5,-38 40.62,-38 33.42,-28.57 43.92,-19.76"/>
<polygon fill="midnightblue" stroke="midnightblue" points="94.57,-27.25 87.08,-19.76 88.26,-30.29 94.57,-27.25"/>
</g>
</g>
</svg>
