<?xml version="1.0" encoding="UTF-8" standalone="no"?>
<!DOCTYPE svg PUBLIC "-//W3C//DTD SVG 1.1//EN"
 "http://www.w3.org/Graphics/SVG/1.1/DTD/svg11.dtd">
<!-- Generated by graphviz version 2.49.3 (20211027.1534)
 -->
<!-- Title: get_raw_save_path Pages: 1 -->
<svg width="593pt" height="146pt"
 viewBox="0.00 0.00 593.00 146.00" xmlns="http://www.w3.org/2000/svg" xmlns:xlink="http://www.w3.org/1999/xlink">
<g id="graph0" class="graph" transform="scale(1 1) rotate(0) translate(4 142)">
<title>get_raw_save_path</title>
<polygon fill="white" stroke="transparent" points="-4,4 -4,-142 589,-142 589,4 -4,4"/>
<!-- Node1 -->
<g id="node1" class="node">
<title>Node1</title>
<g id="a_node1"><a xlink:title=" ">
<polygon fill="#bfbfbf" stroke="black" points="484,-50.5 484,-69.5 585,-69.5 585,-50.5 484,-50.5"/>
<text text-anchor="middle" x="534.5" y="-57.5" font-family="Helvetica,sans-Serif" font-size="10.00">get_raw_save_path</text>
</a>
</g>
</g>
<!-- Node1&#45;&gt;Node1 -->
<g id="edge7" class="edge">
<title>Node1&#45;&gt;Node1</title>
<path fill="none" stroke="midnightblue" d="M570.12,-77.5C570.12,-83.34 558.24,-88 534.5,-88 500.73,-88 490.97,-78.57 505.22,-69.76"/>
<polygon fill="midnightblue" stroke="midnightblue" points="572.83,-75.28 563.78,-69.76 567.41,-79.71 572.83,-75.28"/>
</g>
<!-- Node2 -->
<g id="node2" class="node">
<title>Node2</title>
<g id="a_node2"><a xlink:href="classrare_1_1components_1_1tabs_1_1games_1_1game__info_1_1game__settings_1_1_game_settings.html#a7e43976b51be106948d8e7b1ab113864" target="_top" xlink:title=" ">
<polygon fill="white" stroke="black" points="240,-39.5 240,-80.5 448,-80.5 448,-39.5 240,-39.5"/>
<text text-anchor="start" x="248" y="-68.5" font-family="Helvetica,sans-Serif" font-size="10.00">rare.components.tabs.games.game</text>
<text text-anchor="start" x="248" y="-57.5" font-family="Helvetica,sans-Serif" font-size="10.00">_info.game_settings.GameSettings.compute</text>
<text text-anchor="middle" x="344" y="-46.5" font-family="Helvetica,sans-Serif" font-size="10.00">_save_path</text>
</a>
</g>
</g>
<!-- Node1&#45;&gt;Node2 -->
<g id="edge1" class="edge">
<title>Node1&#45;&gt;Node2</title>
<path fill="none" stroke="midnightblue" d="M473.8,-60C465.58,-60 456.95,-60 448.22,-60"/>
<polygon fill="midnightblue" stroke="midnightblue" points="473.97,-63.5 483.97,-60 473.97,-56.5 473.97,-63.5"/>
</g>
<!-- Node2&#45;&gt;Node2 -->
<g id="edge2" class="edge">
<title>Node2&#45;&gt;Node2</title>
<path fill="none" stroke="midnightblue" d="M376.69,-90.86C371.83,-95.7 360.93,-99 344,-99 316.91,-99 305.27,-90.54 309.08,-80.86"/>
<polygon fill="midnightblue" stroke="midnightblue" points="380.16,-91.39 378.92,-80.86 373.32,-89.86 380.16,-91.39"/>
</g>
<!-- Node3 -->
<g id="node3" class="node">
<title>Node3</title>
<g id="a_node3"><a xlink:href="classrare_1_1components_1_1tabs_1_1games_1_1game__info_1_1game__settings_1_1_game_settings.html#a402cc3990680aa82b30e6ae5ec44886d" target="_top" xlink:title=" ">
<polygon fill="white" stroke="black" points="6.5,-78.5 6.5,-119.5 197.5,-119.5 197.5,-78.5 6.5,-78.5"/>
<text text-anchor="start" x="14.5" y="-107.5" font-family="Helvetica,sans-Serif" font-size="10.00">rare.components.tabs.games.game</text>
<text text-anchor="start" x="14.5" y="-96.5" font-family="Helvetica,sans-Serif" font-size="10.00">_info.game_settings.GameSettings.save</text>
<text text-anchor="middle" x="102" y="-85.5" font-family="Helvetica,sans-Serif" font-size="10.00">_line_edit</text>
</a>
</g>
</g>
<!-- Node2&#45;&gt;Node3 -->
<g id="edge3" class="edge">
<title>Node2&#45;&gt;Node3</title>
<path fill="none" stroke="midnightblue" d="M229.63,-78.42C218.96,-80.16 208.22,-81.9 197.75,-83.6"/>
<polygon fill="midnightblue" stroke="midnightblue" points="230.52,-81.82 239.83,-76.77 229.39,-74.92 230.52,-81.82"/>
</g>
<!-- Node4 -->
<g id="node4" class="node">
<title>Node4</title>
<g id="a_node4"><a xlink:href="classrare_1_1components_1_1tabs_1_1settings_1_1default__game__settings_1_1_default_game_settings.html#a402cc3990680aa82b30e6ae5ec44886d" target="_top" xlink:title=" ">
<polygon fill="white" stroke="black" points="0,-0.5 0,-41.5 204,-41.5 204,-0.5 0,-0.5"/>
<text text-anchor="start" x="8" y="-29.5" font-family="Helvetica,sans-Serif" font-size="10.00">rare.components.tabs.settings.default</text>
<text text-anchor="start" x="8" y="-18.5" font-family="Helvetica,sans-Serif" font-size="10.00">_game_settings.DefaultGameSettings.save</text>
<text text-anchor="middle" x="102" y="-7.5" font-family="Helvetica,sans-Serif" font-size="10.00">_line_edit</text>
</a>
</g>
</g>
<!-- Node2&#45;&gt;Node4 -->
<g id="edge5" class="edge">
<title>Node2&#45;&gt;Node4</title>
<path fill="none" stroke="midnightblue" d="M229.81,-41.61C221.26,-40.22 212.66,-38.82 204.18,-37.44"/>
<polygon fill="midnightblue" stroke="midnightblue" points="229.39,-45.08 239.83,-43.23 230.52,-38.18 229.39,-45.08"/>
</g>
<!-- Node3&#45;&gt;Node3 -->
<g id="edge4" class="edge">
<title>Node3&#45;&gt;Node3</title>
<path fill="none" stroke="midnightblue" d="M143.63,-129.86C137.44,-134.7 123.56,-138 102,-138 67.5,-138 52.67,-129.54 57.52,-119.86"/>
<polygon fill="midnightblue" stroke="midnightblue" points="147.11,-130.44 146.48,-119.86 140.37,-128.52 147.11,-130.44"/>
</g>
<!-- Node4&#45;&gt;Node4 -->
<g id="edge6" class="edge">
<title>Node4&#45;&gt;Node4</title>
<path fill="none" stroke="midnightblue" d="M143.63,-51.86C137.44,-56.7 123.56,-60 102,-60 67.5,-60 52.67,-51.54 57.52,-41.86"/>
<polygon fill="midnightblue" stroke="midnightblue" points="147.11,-52.44 146.48,-41.86 140.37,-50.52 147.11,-52.44"/>
</g>
</g>
</svg>
