<?xml version="1.0" encoding="UTF-8" standalone="no"?>
<!DOCTYPE svg PUBLIC "-//W3C//DTD SVG 1.1//EN"
 "http://www.w3.org/Graphics/SVG/1.1/DTD/svg11.dtd">
<!-- Generated by graphviz version 2.49.3 (20211027.1534)
 -->
<!-- Title: start Pages: 1 -->
<svg width="781pt" height="1638pt"
 viewBox="0.00 0.00 781.28 1637.50" xmlns="http://www.w3.org/2000/svg" xmlns:xlink="http://www.w3.org/1999/xlink">
<g id="graph0" class="graph" transform="scale(1 1) rotate(0) translate(4 1633.5)">
<title>start</title>
<polygon fill="white" stroke="transparent" points="-4,4 -4,-1633.5 777.28,-1633.5 777.28,4 -4,4"/>
<!-- Node1 -->
<g id="node1" class="node">
<title>Node1</title>
<g id="a_node1"><a xlink:title=" ">
<polygon fill="#bfbfbf" stroke="black" points="724,-776.5 724,-795.5 760,-795.5 760,-776.5 724,-776.5"/>
<text text-anchor="middle" x="742" y="-783.5" font-family="Helvetica,sans-Serif" font-size="10.00">start</text>
</a>
</g>
</g>
<!-- Node1&#45;&gt;Node1 -->
<g id="edge57" class="edge">
<title>Node1&#45;&gt;Node1</title>
<path fill="none" stroke="midnightblue" d="M768.98,-796.81C779.32,-805.3 770.33,-814 742,-814 707.79,-814 701.78,-801.32 723.96,-791.63"/>
<polygon fill="midnightblue" stroke="midnightblue" points="770.44,-793.62 760.04,-791.63 766.94,-799.68 770.44,-793.62"/>
</g>
<!-- Node2 -->
<g id="node2" class="node">
<title>Node2</title>
<g id="a_node2"><a xlink:href="classrare_1_1components_1_1tabs_1_1games_1_1integrations_1_1ubisoft__group_1_1_ubi_link_widget.html#a8f9705707225e3a806138596d5edae0d" target="_top" xlink:title=" ">
<polygon fill="white" stroke="black" points="463,-1581 463,-1611 688,-1611 688,-1581 463,-1581"/>
<text text-anchor="start" x="471" y="-1599" font-family="Helvetica,sans-Serif" font-size="10.00">rare.components.tabs.games.integrations.ubisoft</text>
<text text-anchor="middle" x="575.5" y="-1588" font-family="Helvetica,sans-Serif" font-size="10.00">_group.UbiLinkWidget.activate</text>
</a>
</g>
</g>
<!-- Node1&#45;&gt;Node2 -->
<g id="edge1" class="edge">
<title>Node1&#45;&gt;Node2</title>
<path fill="none" stroke="midnightblue" d="M741.06,-805.95C741.24,-922.5 739.57,-1512.37 688,-1572 685.15,-1575.29 681.97,-1578.2 678.53,-1580.76"/>
<polygon fill="midnightblue" stroke="midnightblue" points="744.56,-805.64 741.04,-795.65 737.56,-805.66 744.56,-805.64"/>
</g>
<!-- Node3 -->
<g id="node3" class="node">
<title>Node3</title>
<g id="a_node3"><a xlink:href="classrare_1_1components_1_1tabs_1_1games_1_1integrations_1_1eos__group_1_1_eos_group.html#a1ec89c41387bccb9b467b28aa0a358b8" target="_top" xlink:title=" ">
<polygon fill="white" stroke="black" points="469.5,-1514 469.5,-1544 681.5,-1544 681.5,-1514 469.5,-1514"/>
<text text-anchor="start" x="477.5" y="-1532" font-family="Helvetica,sans-Serif" font-size="10.00">rare.components.tabs.games.integrations.eos</text>
<text text-anchor="middle" x="575.5" y="-1521" font-family="Helvetica,sans-Serif" font-size="10.00">_group.EosGroup.check_for_update</text>
</a>
</g>
</g>
<!-- Node1&#45;&gt;Node3 -->
<g id="edge3" class="edge">
<title>Node1&#45;&gt;Node3</title>
<path fill="none" stroke="midnightblue" d="M740.92,-805.9C740.29,-916.22 734.83,-1449.73 688,-1504 684.76,-1507.75 681.09,-1511.01 677.1,-1513.84"/>
<polygon fill="midnightblue" stroke="midnightblue" points="744.42,-805.59 740.97,-795.57 737.42,-805.55 744.42,-805.59"/>
</g>
<!-- Node5 -->
<g id="node5" class="node">
<title>Node5</title>
<g id="a_node5"><a xlink:href="classrare_1_1components_1_1tabs_1_1games_1_1game__info_1_1cloud__saves_1_1_cloud_saves.html#a7e43976b51be106948d8e7b1ab113864" target="_top" xlink:title=" ">
<polygon fill="white" stroke="black" points="481,-1435.5 481,-1476.5 670,-1476.5 670,-1435.5 481,-1435.5"/>
<text text-anchor="start" x="489" y="-1464.5" font-family="Helvetica,sans-Serif" font-size="10.00">rare.components.tabs.games.game</text>
<text text-anchor="start" x="489" y="-1453.5" font-family="Helvetica,sans-Serif" font-size="10.00">_info.cloud_saves.CloudSaves.compute</text>
<text text-anchor="middle" x="575.5" y="-1442.5" font-family="Helvetica,sans-Serif" font-size="10.00">_save_path</text>
</a>
</g>
</g>
<!-- Node1&#45;&gt;Node5 -->
<g id="edge7" class="edge">
<title>Node1&#45;&gt;Node5</title>
<path fill="none" stroke="midnightblue" d="M740.64,-805.73C738.63,-907.67 727.35,-1371.83 688,-1421 682.99,-1427.26 676.88,-1432.42 670.11,-1436.67"/>
<polygon fill="midnightblue" stroke="midnightblue" points="744.15,-805.67 740.84,-795.6 737.15,-805.53 744.15,-805.67"/>
</g>
<!-- Node6 -->
<g id="node6" class="node">
<title>Node6</title>
<g id="a_node6"><a xlink:href="classrare_1_1components_1_1tabs_1_1games_1_1game__info_1_1cloud__saves_1_1_cloud_saves.html#a39d9250b1f0ed66ec6cdeac8081b380a" target="_top" xlink:title=" ">
<polygon fill="white" stroke="black" points="235,-1435.5 235,-1476.5 407,-1476.5 407,-1435.5 235,-1435.5"/>
<text text-anchor="start" x="243" y="-1464.5" font-family="Helvetica,sans-Serif" font-size="10.00">rare.components.tabs.games.game</text>
<text text-anchor="start" x="243" y="-1453.5" font-family="Helvetica,sans-Serif" font-size="10.00">_info.cloud_saves.CloudSaves.wine</text>
<text text-anchor="middle" x="321" y="-1442.5" font-family="Helvetica,sans-Serif" font-size="10.00">_resolver_finished</text>
</a>
</g>
</g>
<!-- Node1&#45;&gt;Node6 -->
<g id="edge72" class="edge">
<title>Node1&#45;&gt;Node6</title>
<path fill="none" stroke="midnightblue" d="M740.67,-805.73C738.83,-904.71 728.4,-1344.26 688,-1388 653.6,-1425.25 512.81,-1416.5 463,-1426 444.93,-1429.45 425.61,-1433.39 407.26,-1437.25"/>
<polygon fill="midnightblue" stroke="midnightblue" points="744.17,-805.68 740.85,-795.62 737.17,-805.55 744.17,-805.68"/>
</g>
<!-- Node7 -->
<g id="node7" class="node">
<title>Node7</title>
<g id="a_node7"><a xlink:href="classrare_1_1shared_1_1game__process_1_1_game_process.html#a3b4c093c8553787f70628620d50e3626" target="_top" xlink:title=" ">
<polygon fill="white" stroke="black" points="495,-1330 495,-1360 656,-1360 656,-1330 495,-1330"/>
<text text-anchor="start" x="503" y="-1348" font-family="Helvetica,sans-Serif" font-size="10.00">rare.shared.game_process.</text>
<text text-anchor="middle" x="575.5" y="-1337" font-family="Helvetica,sans-Serif" font-size="10.00">GameProcess.connect_to_server</text>
</a>
</g>
</g>
<!-- Node1&#45;&gt;Node7 -->
<g id="edge12" class="edge">
<title>Node1&#45;&gt;Node7</title>
<path fill="none" stroke="midnightblue" d="M740.39,-806.06C737.39,-898.64 722.95,-1281.85 688,-1321 679.49,-1330.53 668.2,-1336.78 656.05,-1340.8"/>
<polygon fill="midnightblue" stroke="midnightblue" points="743.9,-805.93 740.71,-795.82 736.9,-805.71 743.9,-805.93"/>
</g>
<!-- Node8 -->
<g id="node8" class="node">
<title>Node8</title>
<g id="a_node8"><a xlink:href="classrare_1_1shared_1_1image__manager_1_1_image_manager.html#ab91d1fca6c584c2d10f5eb2ea220c5c9" target="_top" xlink:title=" ">
<polygon fill="white" stroke="black" points="497.5,-1263 497.5,-1293 653.5,-1293 653.5,-1263 497.5,-1263"/>
<text text-anchor="start" x="505.5" y="-1281" font-family="Helvetica,sans-Serif" font-size="10.00">rare.shared.image_manager.</text>
<text text-anchor="middle" x="575.5" y="-1270" font-family="Helvetica,sans-Serif" font-size="10.00">ImageManager.download_image</text>
</a>
</g>
</g>
<!-- Node1&#45;&gt;Node8 -->
<g id="edge14" class="edge">
<title>Node1&#45;&gt;Node8</title>
<path fill="none" stroke="midnightblue" d="M740.1,-805.91C736.07,-890.88 718.56,-1220.24 688,-1254 678.9,-1264.05 666.68,-1270.45 653.67,-1274.42"/>
<polygon fill="midnightblue" stroke="midnightblue" points="743.6,-805.95 740.57,-795.8 736.61,-805.63 743.6,-805.95"/>
</g>
<!-- Node9 -->
<g id="node9" class="node">
<title>Node9</title>
<g id="a_node9"><a xlink:href="classrare_1_1models_1_1base__game_1_1_rare_game_slim.html#a13a51449b5ed361bfe860829df5a87f5" target="_top" xlink:title=" ">
<polygon fill="white" stroke="black" points="504.5,-1196 504.5,-1226 646.5,-1226 646.5,-1196 504.5,-1196"/>
<text text-anchor="start" x="512.5" y="-1214" font-family="Helvetica,sans-Serif" font-size="10.00">rare.models.base_game.Rare</text>
<text text-anchor="middle" x="575.5" y="-1203" font-family="Helvetica,sans-Serif" font-size="10.00">GameSlim.download_saves</text>
</a>
</g>
</g>
<!-- Node1&#45;&gt;Node9 -->
<g id="edge16" class="edge">
<title>Node1&#45;&gt;Node9</title>
<path fill="none" stroke="midnightblue" d="M741.27,-805.84C741.85,-878.77 739.98,-1130.66 688,-1187 677.19,-1198.72 662.16,-1205.44 646.62,-1209.15"/>
<polygon fill="midnightblue" stroke="midnightblue" points="744.77,-805.69 741.17,-795.73 737.77,-805.77 744.77,-805.69"/>
</g>
<!-- Node10 -->
<g id="node10" class="node">
<title>Node10</title>
<g id="a_node10"><a xlink:href="classrare_1_1components_1_1tabs_1_1games_1_1integrations_1_1egl__sync__group_1_1_e_g_l_sync_group.html#ab57f2b0fa2e42524f025928a9f4a87c3" target="_top" xlink:title=" ">
<polygon fill="white" stroke="black" points="463.5,-1129 463.5,-1159 687.5,-1159 687.5,-1129 463.5,-1129"/>
<text text-anchor="start" x="471.5" y="-1147" font-family="Helvetica,sans-Serif" font-size="10.00">rare.components.tabs.games.integrations.egl</text>
<text text-anchor="middle" x="575.5" y="-1136" font-family="Helvetica,sans-Serif" font-size="10.00">_sync_group.EGLSyncGroup.egl_sync_changed</text>
</a>
</g>
</g>
<!-- Node1&#45;&gt;Node10 -->
<g id="edge18" class="edge">
<title>Node1&#45;&gt;Node10</title>
<path fill="none" stroke="midnightblue" d="M740.69,-805.78C739.25,-870.47 731.32,-1074.25 688,-1120 684.87,-1123.31 681.4,-1126.21 677.68,-1128.77"/>
<polygon fill="midnightblue" stroke="midnightblue" points="744.19,-805.76 740.88,-795.69 737.19,-805.62 744.19,-805.76"/>
</g>
<!-- Node11 -->
<g id="node11" class="node">
<title>Node11</title>
<g id="a_node11"><a xlink:href="classrare_1_1shared_1_1rare__core_1_1_rare_core.html#ada306be9bfe4e34f7373fe1f4746955b" target="_top" xlink:title=" ">
<polygon fill="white" stroke="black" points="510.5,-1062 510.5,-1092 640.5,-1092 640.5,-1062 510.5,-1062"/>
<text text-anchor="start" x="518.5" y="-1080" font-family="Helvetica,sans-Serif" font-size="10.00">rare.shared.rare_core.Rare</text>
<text text-anchor="middle" x="575.5" y="-1069" font-family="Helvetica,sans-Serif" font-size="10.00">Core.enqueue_worker</text>
</a>
</g>
</g>
<!-- Node1&#45;&gt;Node11 -->
<g id="edge20" class="edge">
<title>Node1&#45;&gt;Node11</title>
<path fill="none" stroke="midnightblue" d="M739.78,-805.95C735.96,-861.59 722.4,-1016.77 688,-1052 675.53,-1064.77 658.04,-1071.66 640.61,-1075.21"/>
<polygon fill="midnightblue" stroke="midnightblue" points="743.29,-805.87 740.45,-795.66 736.31,-805.41 743.29,-805.87"/>
</g>
<!-- Node12 -->
<g id="node12" class="node">
<title>Node12</title>
<g id="a_node12"><a xlink:href="classrare_1_1components_1_1tabs_1_1games_1_1game__widgets_1_1icon__widget_1_1_icon_widget.html#a98993bd9c4d6b2d23d2e75c9081f859e" target="_top" xlink:title=" ">
<polygon fill="white" stroke="black" points="483,-983.5 483,-1024.5 668,-1024.5 668,-983.5 483,-983.5"/>
<text text-anchor="start" x="491" y="-1012.5" font-family="Helvetica,sans-Serif" font-size="10.00">rare.components.tabs.games.game</text>
<text text-anchor="start" x="491" y="-1001.5" font-family="Helvetica,sans-Serif" font-size="10.00">_widgets.icon_widget.IconWidget.enter</text>
<text text-anchor="middle" x="575.5" y="-990.5" font-family="Helvetica,sans-Serif" font-size="10.00">Animation</text>
</a>
</g>
</g>
<!-- Node1&#45;&gt;Node12 -->
<g id="edge22" class="edge">
<title>Node1&#45;&gt;Node12</title>
<path fill="none" stroke="midnightblue" d="M741.41,-806.18C741.04,-844.48 734.56,-927.99 688,-974 682.23,-979.71 675.49,-984.36 668.23,-988.15"/>
<polygon fill="midnightblue" stroke="midnightblue" points="744.91,-805.82 741.37,-795.83 737.91,-805.85 744.91,-805.82"/>
</g>
<!-- Node13 -->
<g id="node13" class="node">
<title>Node13</title>
<g id="a_node13"><a xlink:href="classrare_1_1widgets_1_1indicator__edit_1_1_indicator_line_edit.html#a051a5c88b188dc1e47f120d327dd4d99" target="_top" xlink:title=" ">
<polygon fill="white" stroke="black" points="504,-905.5 504,-946.5 647,-946.5 647,-905.5 504,-905.5"/>
<text text-anchor="start" x="512" y="-934.5" font-family="Helvetica,sans-Serif" font-size="10.00">rare.widgets.indicator</text>
<text text-anchor="start" x="512" y="-923.5" font-family="Helvetica,sans-Serif" font-size="10.00">_edit.IndicatorLineEdit.extend</text>
<text text-anchor="middle" x="575.5" y="-912.5" font-family="Helvetica,sans-Serif" font-size="10.00">_reasons</text>
</a>
</g>
</g>
<!-- Node1&#45;&gt;Node13 -->
<g id="edge24" class="edge">
<title>Node1&#45;&gt;Node13</title>
<path fill="none" stroke="midnightblue" d="M736.85,-805.62C730.58,-830.37 716.3,-872.53 688,-896 676.35,-905.66 661.87,-912.23 647.25,-916.7"/>
<polygon fill="midnightblue" stroke="midnightblue" points="740.32,-806.14 739.19,-795.6 733.51,-804.55 740.32,-806.14"/>
</g>
<!-- Node14 -->
<g id="node14" class="node">
<title>Node14</title>
<g id="a_node14"><a xlink:href="classrare_1_1shared_1_1rare__core_1_1_rare_core.html#aaa74ecf58689d52b7b0ee618709228aa" target="_top" xlink:title=" ">
<polygon fill="white" stroke="black" points="510.5,-838 510.5,-868 640.5,-868 640.5,-838 510.5,-838"/>
<text text-anchor="start" x="518.5" y="-856" font-family="Helvetica,sans-Serif" font-size="10.00">rare.shared.rare_core.Rare</text>
<text text-anchor="middle" x="575.5" y="-845" font-family="Helvetica,sans-Serif" font-size="10.00">Core.fetch</text>
</a>
</g>
</g>
<!-- Node1&#45;&gt;Node14 -->
<g id="edge26" class="edge">
<title>Node1&#45;&gt;Node14</title>
<path fill="none" stroke="midnightblue" d="M724.43,-802.89C714.63,-811.94 701.52,-822.52 688,-829 673.36,-836.02 656.65,-841 640.72,-844.53"/>
<polygon fill="midnightblue" stroke="midnightblue" points="727.04,-805.24 731.81,-795.78 722.18,-800.2 727.04,-805.24"/>
</g>
<!-- Node15 -->
<g id="node15" class="node">
<title>Node15</title>
<g id="a_node15"><a xlink:href="classrare_1_1shared_1_1rare__core_1_1_rare_core.html#a18465ae42222b6a7254c72c9815a69d7" target="_top" xlink:title=" ">
<polygon fill="white" stroke="black" points="510.5,-771 510.5,-801 640.5,-801 640.5,-771 510.5,-771"/>
<text text-anchor="start" x="518.5" y="-789" font-family="Helvetica,sans-Serif" font-size="10.00">rare.shared.rare_core.Rare</text>
<text text-anchor="middle" x="575.5" y="-778" font-family="Helvetica,sans-Serif" font-size="10.00">Core.fetch_saves</text>
</a>
</g>
</g>
<!-- Node1&#45;&gt;Node15 -->
<g id="edge28" class="edge">
<title>Node1&#45;&gt;Node15</title>
<path fill="none" stroke="midnightblue" d="M713.53,-786C693.64,-786 665.92,-786 640.61,-786"/>
<polygon fill="midnightblue" stroke="midnightblue" points="713.71,-789.5 723.71,-786 713.71,-782.5 713.71,-789.5"/>
</g>
<!-- Node16 -->
<g id="node16" class="node">
<title>Node16</title>
<g id="a_node16"><a xlink:href="classrare_1_1shared_1_1rare__core_1_1_rare_core.html#af29ac67bc30fc5530252b2a234b84188" target="_top" xlink:title=" ">
<polygon fill="white" stroke="black" points="256,-760 256,-790 386,-790 386,-760 256,-760"/>
<text text-anchor="start" x="264" y="-778" font-family="Helvetica,sans-Serif" font-size="10.00">rare.shared.rare_core.Rare</text>
<text text-anchor="middle" x="321" y="-767" font-family="Helvetica,sans-Serif" font-size="10.00">Core.resolve_origin</text>
</a>
</g>
</g>
<!-- Node1&#45;&gt;Node16 -->
<g id="edge52" class="edge">
<title>Node1&#45;&gt;Node16</title>
<path fill="none" stroke="midnightblue" d="M715.46,-771.8C706.98,-767.81 697.33,-764.01 688,-762 584.21,-739.6 460.08,-751.95 386.32,-763.25"/>
<polygon fill="midnightblue" stroke="midnightblue" points="713.94,-774.95 724.45,-776.29 717.07,-768.69 713.94,-774.95"/>
</g>
<!-- Node17 -->
<g id="node17" class="node">
<title>Node17</title>
<g id="a_node17"><a xlink:href="classrare_1_1components_1_1dialogs_1_1install__dialog_1_1_install_dialog.html#aca780d78b993a295a93507a4a6d12a69" target="_top" xlink:title=" ">
<polygon fill="white" stroke="black" points="501,-654.5 501,-695.5 650,-695.5 650,-654.5 501,-654.5"/>
<text text-anchor="start" x="509" y="-683.5" font-family="Helvetica,sans-Serif" font-size="10.00">rare.components.dialogs.install</text>
<text text-anchor="start" x="509" y="-672.5" font-family="Helvetica,sans-Serif" font-size="10.00">_dialog.InstallDialog.get</text>
<text text-anchor="middle" x="575.5" y="-661.5" font-family="Helvetica,sans-Serif" font-size="10.00">_download_info</text>
</a>
</g>
</g>
<!-- Node1&#45;&gt;Node17 -->
<g id="edge32" class="edge">
<title>Node1&#45;&gt;Node17</title>
<path fill="none" stroke="midnightblue" d="M727.67,-768.07C717.77,-755.64 703.35,-739.36 688,-728 670.6,-715.12 649.57,-704.16 630.49,-695.6"/>
<polygon fill="midnightblue" stroke="midnightblue" points="725.16,-770.53 734.04,-776.31 730.7,-766.25 725.16,-770.53"/>
</g>
<!-- Node21 -->
<g id="node21" class="node">
<title>Node21</title>
<g id="a_node21"><a xlink:href="classrare_1_1components_1_1tabs_1_1games_1_1game__widgets_1_1icon__widget_1_1_icon_widget.html#a01e028f6bf729dd78b3c98e5f5be7cdb" target="_top" xlink:title=" ">
<polygon fill="white" stroke="black" points="482.5,-576.5 482.5,-617.5 668.5,-617.5 668.5,-576.5 482.5,-576.5"/>
<text text-anchor="start" x="490.5" y="-605.5" font-family="Helvetica,sans-Serif" font-size="10.00">rare.components.tabs.games.game</text>
<text text-anchor="start" x="490.5" y="-594.5" font-family="Helvetica,sans-Serif" font-size="10.00">_widgets.icon_widget.IconWidget.leave</text>
<text text-anchor="middle" x="575.5" y="-583.5" font-family="Helvetica,sans-Serif" font-size="10.00">Animation</text>
</a>
</g>
</g>
<!-- Node1&#45;&gt;Node21 -->
<g id="edge41" class="edge">
<title>Node1&#45;&gt;Node21</title>
<path fill="none" stroke="midnightblue" d="M738.56,-766.43C733.88,-736.59 720.98,-679.56 688,-645 676.94,-633.41 662.62,-624.47 647.95,-617.63"/>
<polygon fill="midnightblue" stroke="midnightblue" points="735.11,-767.02 739.98,-776.43 742.04,-766.03 735.11,-767.02"/>
</g>
<!-- Node22 -->
<g id="node22" class="node">
<title>Node22</title>
<g id="a_node22"><a xlink:href="namespacerare_1_1main.html#a532d4b899b39c9f08370e91c54b63e33" target="_top" xlink:title=" ">
<polygon fill="white" stroke="black" points="535.5,-520.5 535.5,-539.5 615.5,-539.5 615.5,-520.5 535.5,-520.5"/>
<text text-anchor="middle" x="575.5" y="-527.5" font-family="Helvetica,sans-Serif" font-size="10.00">rare.main.main</text>
</a>
</g>
</g>
<!-- Node1&#45;&gt;Node22 -->
<g id="edge43" class="edge">
<title>Node1&#45;&gt;Node22</title>
<path fill="none" stroke="midnightblue" d="M738.68,-766.29C732.66,-718.16 715.04,-596.38 688,-567 669.49,-546.89 639.81,-537.7 615.72,-533.5"/>
<polygon fill="midnightblue" stroke="midnightblue" points="735.23,-766.86 739.91,-776.36 742.18,-766.02 735.23,-766.86"/>
</g>
<!-- Node23 -->
<g id="node23" class="node">
<title>Node23</title>
<g id="a_node23"><a xlink:href="classrare_1_1components_1_1_rare.html#a220a81c6097c255b60ace038f4b0c9cb" target="_top" xlink:title=" ">
<polygon fill="white" stroke="black" points="508.5,-453 508.5,-483 642.5,-483 642.5,-453 508.5,-453"/>
<text text-anchor="start" x="516.5" y="-471" font-family="Helvetica,sans-Serif" font-size="10.00">rare.components.Rare.poke</text>
<text text-anchor="middle" x="575.5" y="-460" font-family="Helvetica,sans-Serif" font-size="10.00">_timer</text>
</a>
</g>
</g>
<!-- Node1&#45;&gt;Node23 -->
<g id="edge45" class="edge">
<title>Node1&#45;&gt;Node23</title>
<path fill="none" stroke="midnightblue" d="M739.66,-766.37C735.44,-710.17 720.76,-550.17 688,-511 676.35,-497.07 659.64,-487.65 642.69,-481.27"/>
<polygon fill="midnightblue" stroke="midnightblue" points="736.17,-766.71 740.38,-776.44 743.15,-766.21 736.17,-766.71"/>
</g>
<!-- Node24 -->
<g id="node24" class="node">
<title>Node24</title>
<g id="a_node24"><a xlink:href="classrare_1_1components_1_1_rare.html#a8a15083f8edec9fe07a045a4c0fddb10" target="_top" xlink:title=" ">
<polygon fill="white" stroke="black" points="250,-436.5 250,-455.5 392,-455.5 392,-436.5 250,-436.5"/>
<text text-anchor="middle" x="321" y="-443.5" font-family="Helvetica,sans-Serif" font-size="10.00">rare.components.Rare.relogin</text>
</a>
</g>
</g>
<!-- Node1&#45;&gt;Node24 -->
<g id="edge51" class="edge">
<title>Node1&#45;&gt;Node24</title>
<path fill="none" stroke="midnightblue" d="M741.13,-765.81C741.1,-698.86 737.06,-486.05 688,-444 643.73,-406.06 474.88,-423.54 382.79,-436.48"/>
<polygon fill="midnightblue" stroke="midnightblue" points="737.63,-766.21 741.1,-776.22 744.63,-766.23 737.63,-766.21"/>
</g>
<!-- Node25 -->
<g id="node25" class="node">
<title>Node25</title>
<g id="a_node25"><a xlink:href="classrare_1_1components_1_1tabs_1_1settings_1_1legendary_1_1_legendary_settings.html#a29d6626791fa10bae3146f4d6e6b5bce" target="_top" xlink:title=" ">
<polygon fill="white" stroke="black" points="479.5,-347 479.5,-377 671.5,-377 671.5,-347 479.5,-347"/>
<text text-anchor="start" x="487.5" y="-365" font-family="Helvetica,sans-Serif" font-size="10.00">rare.components.tabs.settings.legendary.</text>
<text text-anchor="middle" x="575.5" y="-354" font-family="Helvetica,sans-Serif" font-size="10.00">LegendarySettings.refresh_metadata</text>
</a>
</g>
</g>
<!-- Node1&#45;&gt;Node25 -->
<g id="edge49" class="edge">
<title>Node1&#45;&gt;Node25</title>
<path fill="none" stroke="midnightblue" d="M740.7,-765.94C739.27,-696.37 731.3,-466.71 688,-410 676.3,-394.67 658.72,-384.17 640.95,-377"/>
<polygon fill="midnightblue" stroke="midnightblue" points="737.2,-766.4 740.88,-776.34 744.2,-766.28 737.2,-766.4"/>
</g>
<!-- Node26 -->
<g id="node26" class="node">
<title>Node26</title>
<g id="a_node26"><a xlink:href="classrare_1_1components_1_1tabs_1_1games_1_1integrations_1_1egl__sync__group_1_1_e_g_l_sync_group.html#af997cabd23f14f71f7f87c986ccd582c" target="_top" xlink:title=" ">
<polygon fill="white" stroke="black" points="471,-280 471,-310 680,-310 680,-280 471,-280"/>
<text text-anchor="start" x="479" y="-298" font-family="Helvetica,sans-Serif" font-size="10.00">rare.components.tabs.games.integrations.egl</text>
<text text-anchor="middle" x="575.5" y="-287" font-family="Helvetica,sans-Serif" font-size="10.00">_sync_group.EGLSyncGroup.showEvent</text>
</a>
</g>
</g>
<!-- Node1&#45;&gt;Node26 -->
<g id="edge53" class="edge">
<title>Node1&#45;&gt;Node26</title>
<path fill="none" stroke="midnightblue" d="M741.28,-766.16C742,-688.5 740.88,-406.11 688,-338 678.14,-325.3 664.03,-316.35 649.15,-310.04"/>
<polygon fill="midnightblue" stroke="midnightblue" points="737.78,-766.4 741.16,-776.44 744.78,-766.48 737.78,-766.4"/>
</g>
<!-- Node27 -->
<g id="node27" class="node">
<title>Node27</title>
<g id="a_node27"><a xlink:href="classrare_1_1components_1_1tabs_1_1games_1_1integrations_1_1ubisoft__group_1_1_ubisoft_group.html#af997cabd23f14f71f7f87c986ccd582c" target="_top" xlink:title=" ">
<polygon fill="white" stroke="black" points="463,-213 463,-243 688,-243 688,-213 463,-213"/>
<text text-anchor="start" x="471" y="-231" font-family="Helvetica,sans-Serif" font-size="10.00">rare.components.tabs.games.integrations.ubisoft</text>
<text text-anchor="middle" x="575.5" y="-220" font-family="Helvetica,sans-Serif" font-size="10.00">_group.UbisoftGroup.showEvent</text>
</a>
</g>
</g>
<!-- Node1&#45;&gt;Node27 -->
<g id="edge55" class="edge">
<title>Node1&#45;&gt;Node27</title>
<path fill="none" stroke="midnightblue" d="M740.16,-765.96C736.25,-675.86 718.59,-311.02 688,-271 678.3,-258.31 664.35,-249.36 649.58,-243.05"/>
<polygon fill="midnightblue" stroke="midnightblue" points="736.68,-766.33 740.6,-776.17 743.67,-766.03 736.68,-766.33"/>
</g>
<!-- Node28 -->
<g id="node28" class="node">
<title>Node28</title>
<g id="a_node28"><a xlink:href="classrare_1_1models_1_1game_1_1_rare_game.html#a44ad13c0a844d30263bbf7ca3ce625ea" target="_top" xlink:title=" ">
<polygon fill="white" stroke="black" points="490,-146 490,-176 661,-176 661,-146 490,-146"/>
<text text-anchor="start" x="498" y="-164" font-family="Helvetica,sans-Serif" font-size="10.00">rare.models.game.RareGame.steam</text>
<text text-anchor="middle" x="575.5" y="-153" font-family="Helvetica,sans-Serif" font-size="10.00">_grade</text>
</a>
</g>
</g>
<!-- Node1&#45;&gt;Node28 -->
<g id="edge58" class="edge">
<title>Node1&#45;&gt;Node28</title>
<path fill="none" stroke="midnightblue" d="M740.42,-766.17C737.44,-669.42 722.59,-249.81 688,-204 678.44,-191.33 664.63,-182.4 649.97,-176.09"/>
<polygon fill="midnightblue" stroke="midnightblue" points="736.93,-766.43 740.73,-776.32 743.93,-766.22 736.93,-766.43"/>
</g>
<!-- Node30 -->
<g id="node30" class="node">
<title>Node30</title>
<g id="a_node30"><a xlink:href="classrare_1_1components_1_1tabs_1_1downloads_1_1_downloads_tab.html#ad688e83ab96ce32b1ed9e5ccc83d0ee8" target="_top" xlink:title="Stops the active download, by optionally skipping the queue.">
<polygon fill="white" stroke="black" points="495,-79 495,-109 656,-109 656,-79 495,-79"/>
<text text-anchor="start" x="503" y="-97" font-family="Helvetica,sans-Serif" font-size="10.00">rare.components.tabs.downloads.</text>
<text text-anchor="middle" x="575.5" y="-86" font-family="Helvetica,sans-Serif" font-size="10.00">DownloadsTab.stop_download</text>
</a>
</g>
</g>
<!-- Node1&#45;&gt;Node30 -->
<g id="edge62" class="edge">
<title>Node1&#45;&gt;Node30</title>
<path fill="none" stroke="midnightblue" d="M740.62,-766.2C738.48,-662.89 726.58,-188.59 688,-137 678.49,-124.29 664.71,-115.34 650.06,-109.03"/>
<polygon fill="midnightblue" stroke="midnightblue" points="737.12,-766.28 740.82,-776.21 744.12,-766.14 737.12,-766.28"/>
</g>
<!-- Node33 -->
<g id="node33" class="node">
<title>Node33</title>
<g id="a_node33"><a xlink:href="classrare_1_1components_1_1main__window_1_1_main_window.html#aa932131ff73a2a934f2f2da848314955" target="_top" xlink:title=" ">
<polygon fill="white" stroke="black" points="507,-0.5 507,-41.5 644,-41.5 644,-0.5 507,-0.5"/>
<text text-anchor="start" x="515" y="-29.5" font-family="Helvetica,sans-Serif" font-size="10.00">rare.components.main</text>
<text text-anchor="start" x="515" y="-18.5" font-family="Helvetica,sans-Serif" font-size="10.00">_window.MainWindow.timer</text>
<text text-anchor="middle" x="575.5" y="-7.5" font-family="Helvetica,sans-Serif" font-size="10.00">_finished</text>
</a>
</g>
</g>
<!-- Node1&#45;&gt;Node33 -->
<g id="edge70" class="edge">
<title>Node1&#45;&gt;Node33</title>
<path fill="none" stroke="midnightblue" d="M740.75,-766.25C739.19,-656.77 729.53,-127.3 688,-69 677.36,-54.07 661.08,-43.74 644.21,-36.61"/>
<polygon fill="midnightblue" stroke="midnightblue" points="737.25,-766.3 740.88,-776.25 744.25,-766.21 737.25,-766.3"/>
</g>
<!-- Node2&#45;&gt;Node2 -->
<g id="edge2" class="edge">
<title>Node2&#45;&gt;Node2</title>
<path fill="none" stroke="midnightblue" d="M605,-1621.46C601.34,-1626.18 591.5,-1629.5 575.5,-1629.5 549.24,-1629.5 539.6,-1620.56 546.57,-1611.16"/>
<polygon fill="midnightblue" stroke="midnightblue" points="608.47,-1620.95 604.43,-1611.16 601.48,-1621.34 608.47,-1620.95"/>
</g>
<!-- Node3&#45;&gt;Node3 -->
<g id="edge4" class="edge">
<title>Node3&#45;&gt;Node3</title>
<path fill="none" stroke="midnightblue" d="M605,-1554.46C601.34,-1559.18 591.5,-1562.5 575.5,-1562.5 549.24,-1562.5 539.6,-1553.56 546.57,-1544.16"/>
<polygon fill="midnightblue" stroke="midnightblue" points="608.47,-1553.95 604.43,-1544.16 601.48,-1554.34 608.47,-1553.95"/>
</g>
<!-- Node4 -->
<g id="node4" class="node">
<title>Node4</title>
<g id="a_node4"><a xlink:href="classrare_1_1components_1_1tabs_1_1games_1_1integrations_1_1eos__group_1_1_eos_group.html#af997cabd23f14f71f7f87c986ccd582c" target="_top" xlink:title=" ">
<polygon fill="white" stroke="black" points="215,-1514 215,-1544 427,-1544 427,-1514 215,-1514"/>
<text text-anchor="start" x="223" y="-1532" font-family="Helvetica,sans-Serif" font-size="10.00">rare.components.tabs.games.integrations.eos</text>
<text text-anchor="middle" x="321" y="-1521" font-family="Helvetica,sans-Serif" font-size="10.00">_group.EosGroup.showEvent</text>
</a>
</g>
</g>
<!-- Node3&#45;&gt;Node4 -->
<g id="edge5" class="edge">
<title>Node3&#45;&gt;Node4</title>
<path fill="none" stroke="midnightblue" d="M459.07,-1529C448.41,-1529 437.64,-1529 427.08,-1529"/>
<polygon fill="midnightblue" stroke="midnightblue" points="459.25,-1532.5 469.25,-1529 459.25,-1525.5 459.25,-1532.5"/>
</g>
<!-- Node4&#45;&gt;Node4 -->
<g id="edge6" class="edge">
<title>Node4&#45;&gt;Node4</title>
<path fill="none" stroke="midnightblue" d="M362.24,-1554.09C357.49,-1559.01 343.74,-1562.5 321,-1562.5 284.61,-1562.5 271.25,-1553.56 280.92,-1544.16"/>
<polygon fill="midnightblue" stroke="midnightblue" points="365.72,-1553.69 361.08,-1544.16 358.77,-1554.5 365.72,-1553.69"/>
</g>
<!-- Node5&#45;&gt;Node5 -->
<g id="edge8" class="edge">
<title>Node5&#45;&gt;Node5</title>
<path fill="none" stroke="midnightblue" d="M604.06,-1486.86C599.81,-1491.7 590.29,-1495 575.5,-1495 551.83,-1495 541.66,-1486.54 544.99,-1476.86"/>
<polygon fill="midnightblue" stroke="midnightblue" points="607.53,-1487.35 606.01,-1476.86 600.66,-1486.01 607.53,-1487.35"/>
</g>
<!-- Node5&#45;&gt;Node6 -->
<g id="edge9" class="edge">
<title>Node5&#45;&gt;Node6</title>
<path fill="none" stroke="midnightblue" d="M470.56,-1449.34C449.47,-1449.16 427.52,-1449.24 407.17,-1449.58"/>
<polygon fill="midnightblue" stroke="midnightblue" points="470.8,-1452.85 480.84,-1449.45 470.87,-1445.85 470.8,-1452.85"/>
</g>
<!-- Node6&#45;&gt;Node5 -->
<g id="edge10" class="edge">
<title>Node6&#45;&gt;Node5</title>
<path fill="none" stroke="midnightblue" d="M417.28,-1462.57C438.09,-1462.82 460.09,-1462.81 480.84,-1462.55"/>
<polygon fill="midnightblue" stroke="midnightblue" points="417.22,-1459.07 407.17,-1462.42 417.12,-1466.06 417.22,-1459.07"/>
</g>
<!-- Node6&#45;&gt;Node6 -->
<g id="edge11" class="edge">
<title>Node6&#45;&gt;Node6</title>
<path fill="none" stroke="midnightblue" d="M360.57,-1486.86C354.69,-1491.7 341.5,-1495 321,-1495 288.21,-1495 274.12,-1486.54 278.73,-1476.86"/>
<polygon fill="midnightblue" stroke="midnightblue" points="364.04,-1487.43 363.27,-1476.86 357.28,-1485.6 364.04,-1487.43"/>
</g>
<!-- Node7&#45;&gt;Node7 -->
<g id="edge13" class="edge">
<title>Node7&#45;&gt;Node7</title>
<path fill="none" stroke="midnightblue" d="M605,-1370.46C601.34,-1375.18 591.5,-1378.5 575.5,-1378.5 549.24,-1378.5 539.6,-1369.56 546.57,-1360.16"/>
<polygon fill="midnightblue" stroke="midnightblue" points="608.47,-1369.95 604.43,-1360.16 601.48,-1370.34 608.47,-1369.95"/>
</g>
<!-- Node8&#45;&gt;Node8 -->
<g id="edge15" class="edge">
<title>Node8&#45;&gt;Node8</title>
<path fill="none" stroke="midnightblue" d="M605,-1303.46C601.34,-1308.18 591.5,-1311.5 575.5,-1311.5 549.24,-1311.5 539.6,-1302.56 546.57,-1293.16"/>
<polygon fill="midnightblue" stroke="midnightblue" points="608.47,-1302.95 604.43,-1293.16 601.48,-1303.34 608.47,-1302.95"/>
</g>
<!-- Node9&#45;&gt;Node9 -->
<g id="edge17" class="edge">
<title>Node9&#45;&gt;Node9</title>
<path fill="none" stroke="midnightblue" d="M605,-1236.46C601.34,-1241.18 591.5,-1244.5 575.5,-1244.5 549.24,-1244.5 539.6,-1235.56 546.57,-1226.16"/>
<polygon fill="midnightblue" stroke="midnightblue" points="608.47,-1235.95 604.43,-1226.16 601.48,-1236.34 608.47,-1235.95"/>
</g>
<!-- Node10&#45;&gt;Node10 -->
<g id="edge19" class="edge">
<title>Node10&#45;&gt;Node10</title>
<path fill="none" stroke="midnightblue" d="M605,-1169.46C601.34,-1174.18 591.5,-1177.5 575.5,-1177.5 549.24,-1177.5 539.6,-1168.56 546.57,-1159.16"/>
<polygon fill="midnightblue" stroke="midnightblue" points="608.47,-1168.95 604.43,-1159.16 601.48,-1169.34 608.47,-1168.95"/>
</g>
<!-- Node11&#45;&gt;Node11 -->
<g id="edge21" class="edge">
<title>Node11&#45;&gt;Node11</title>
<path fill="none" stroke="midnightblue" d="M605,-1102.46C601.34,-1107.18 591.5,-1110.5 575.5,-1110.5 549.24,-1110.5 539.6,-1101.56 546.57,-1092.16"/>
<polygon fill="midnightblue" stroke="midnightblue" points="608.47,-1101.95 604.43,-1092.16 601.48,-1102.34 608.47,-1101.95"/>
</g>
<!-- Node12&#45;&gt;Node12 -->
<g id="edge23" class="edge">
<title>Node12&#45;&gt;Node12</title>
<path fill="none" stroke="midnightblue" d="M604.06,-1034.86C599.81,-1039.7 590.29,-1043 575.5,-1043 551.83,-1043 541.66,-1034.54 544.99,-1024.86"/>
<polygon fill="midnightblue" stroke="midnightblue" points="607.53,-1035.35 606.01,-1024.86 600.66,-1034.01 607.53,-1035.35"/>
</g>
<!-- Node13&#45;&gt;Node13 -->
<g id="edge25" class="edge">
<title>Node13&#45;&gt;Node13</title>
<path fill="none" stroke="midnightblue" d="M604.06,-956.86C599.81,-961.7 590.29,-965 575.5,-965 551.83,-965 541.66,-956.54 544.99,-946.86"/>
<polygon fill="midnightblue" stroke="midnightblue" points="607.53,-957.35 606.01,-946.86 600.66,-956.01 607.53,-957.35"/>
</g>
<!-- Node14&#45;&gt;Node14 -->
<g id="edge27" class="edge">
<title>Node14&#45;&gt;Node14</title>
<path fill="none" stroke="midnightblue" d="M605,-878.46C601.34,-883.18 591.5,-886.5 575.5,-886.5 549.24,-886.5 539.6,-877.56 546.57,-868.16"/>
<polygon fill="midnightblue" stroke="midnightblue" points="608.47,-877.95 604.43,-868.16 601.48,-878.34 608.47,-877.95"/>
</g>
<!-- Node15&#45;&gt;Node15 -->
<g id="edge29" class="edge">
<title>Node15&#45;&gt;Node15</title>
<path fill="none" stroke="midnightblue" d="M605,-811.46C601.34,-816.18 591.5,-819.5 575.5,-819.5 549.24,-819.5 539.6,-810.56 546.57,-801.16"/>
<polygon fill="midnightblue" stroke="midnightblue" points="608.47,-810.95 604.43,-801.16 601.48,-811.34 608.47,-810.95"/>
</g>
<!-- Node15&#45;&gt;Node16 -->
<g id="edge30" class="edge">
<title>Node15&#45;&gt;Node16</title>
<path fill="none" stroke="midnightblue" d="M500.45,-782.77C464.29,-781.2 421.2,-779.32 386.41,-777.81"/>
<polygon fill="midnightblue" stroke="midnightblue" points="500.31,-786.27 510.46,-783.21 500.62,-779.28 500.31,-786.27"/>
</g>
<!-- Node16&#45;&gt;Node16 -->
<g id="edge31" class="edge">
<title>Node16&#45;&gt;Node16</title>
<path fill="none" stroke="midnightblue" d="M362.24,-800.09C357.49,-805.01 343.74,-808.5 321,-808.5 284.61,-808.5 271.25,-799.56 280.92,-790.16"/>
<polygon fill="midnightblue" stroke="midnightblue" points="365.72,-799.69 361.08,-790.16 358.77,-800.5 365.72,-799.69"/>
</g>
<!-- Node17&#45;&gt;Node17 -->
<g id="edge40" class="edge">
<title>Node17&#45;&gt;Node17</title>
<path fill="none" stroke="midnightblue" d="M604.06,-705.86C599.81,-710.7 590.29,-714 575.5,-714 551.83,-714 541.66,-705.54 544.99,-695.86"/>
<polygon fill="midnightblue" stroke="midnightblue" points="607.53,-706.35 606.01,-695.86 600.66,-705.01 607.53,-706.35"/>
</g>
<!-- Node18 -->
<g id="node18" class="node">
<title>Node18</title>
<g id="a_node18"><a xlink:href="classrare_1_1components_1_1dialogs_1_1install__dialog_1_1_install_dialog.html#a91c6c5717fad488963fe42e9bc046c11" target="_top" xlink:title=" ">
<polygon fill="white" stroke="black" points="237,-671 237,-701 405,-701 405,-671 237,-671"/>
<text text-anchor="start" x="245" y="-689" font-family="Helvetica,sans-Serif" font-size="10.00">rare.components.dialogs.install</text>
<text text-anchor="middle" x="321" y="-678" font-family="Helvetica,sans-Serif" font-size="10.00">_dialog.InstallDialog.action_handler</text>
</a>
</g>
</g>
<!-- Node17&#45;&gt;Node18 -->
<g id="edge33" class="edge">
<title>Node17&#45;&gt;Node18</title>
<path fill="none" stroke="midnightblue" d="M490.79,-678.65C463.24,-679.85 432.62,-681.18 405.12,-682.38"/>
<polygon fill="midnightblue" stroke="midnightblue" points="490.95,-682.14 500.79,-678.21 490.64,-675.15 490.95,-682.14"/>
</g>
<!-- Node20 -->
<g id="node20" class="node">
<title>Node20</title>
<g id="a_node20"><a xlink:href="classrare_1_1components_1_1dialogs_1_1install__dialog_1_1_install_dialog.html#aa902973791e81c8c4542da337b86289b" target="_top" xlink:title=" ">
<polygon fill="white" stroke="black" points="15,-627 15,-657 164,-657 164,-627 15,-627"/>
<text text-anchor="start" x="23" y="-645" font-family="Helvetica,sans-Serif" font-size="10.00">rare.components.dialogs.install</text>
<text text-anchor="middle" x="89.5" y="-634" font-family="Helvetica,sans-Serif" font-size="10.00">_dialog.InstallDialog.execute</text>
</a>
</g>
</g>
<!-- Node17&#45;&gt;Node20 -->
<g id="edge39" class="edge">
<title>Node17&#45;&gt;Node20</title>
<path fill="none" stroke="midnightblue" d="M490.57,-667.18C469.8,-665.37 447.6,-663.52 427,-662 336.53,-655.33 232.26,-649.4 164.06,-645.77"/>
<polygon fill="midnightblue" stroke="midnightblue" points="490.36,-670.68 500.63,-668.07 490.98,-663.71 490.36,-670.68"/>
</g>
<!-- Node18&#45;&gt;Node18 -->
<g id="edge36" class="edge">
<title>Node18&#45;&gt;Node18</title>
<path fill="none" stroke="midnightblue" d="M362.24,-711.09C357.49,-716.01 343.74,-719.5 321,-719.5 284.61,-719.5 271.25,-710.56 280.92,-701.16"/>
<polygon fill="midnightblue" stroke="midnightblue" points="365.72,-710.69 361.08,-701.16 358.77,-711.5 365.72,-710.69"/>
</g>
<!-- Node19 -->
<g id="node19" class="node">
<title>Node19</title>
<g id="a_node19"><a xlink:href="classrare_1_1widgets_1_1dialogs_1_1_action_dialog.html#a10c562aecba2dac76244db2a3ffd290d" target="_top" xlink:title=" ">
<polygon fill="white" stroke="black" points="23.5,-694 23.5,-724 155.5,-724 155.5,-694 23.5,-694"/>
<text text-anchor="start" x="31.5" y="-712" font-family="Helvetica,sans-Serif" font-size="10.00">rare.widgets.dialogs.Action</text>
<text text-anchor="middle" x="89.5" y="-701" font-family="Helvetica,sans-Serif" font-size="10.00">Dialog.action</text>
</a>
</g>
</g>
<!-- Node18&#45;&gt;Node19 -->
<g id="edge34" class="edge">
<title>Node18&#45;&gt;Node19</title>
<path fill="none" stroke="midnightblue" d="M226.71,-695.35C202.91,-697.73 177.84,-700.25 155.78,-702.46"/>
<polygon fill="midnightblue" stroke="midnightblue" points="227.22,-698.82 236.82,-694.34 226.52,-691.85 227.22,-698.82"/>
</g>
<!-- Node18&#45;&gt;Node20 -->
<g id="edge37" class="edge">
<title>Node18&#45;&gt;Node20</title>
<path fill="none" stroke="midnightblue" d="M231.55,-669.04C209.31,-664.78 185.67,-660.25 164.23,-656.14"/>
<polygon fill="midnightblue" stroke="midnightblue" points="231.18,-672.54 241.66,-670.98 232.5,-665.66 231.18,-672.54"/>
</g>
<!-- Node19&#45;&gt;Node19 -->
<g id="edge35" class="edge">
<title>Node19&#45;&gt;Node19</title>
<path fill="none" stroke="midnightblue" d="M130.74,-734.09C125.99,-739.01 112.24,-742.5 89.5,-742.5 53.11,-742.5 39.75,-733.56 49.42,-724.16"/>
<polygon fill="midnightblue" stroke="midnightblue" points="134.22,-733.69 129.58,-724.16 127.27,-734.5 134.22,-733.69"/>
</g>
<!-- Node20&#45;&gt;Node20 -->
<g id="edge38" class="edge">
<title>Node20&#45;&gt;Node20</title>
<path fill="none" stroke="midnightblue" d="M130.74,-667.09C125.99,-672.01 112.24,-675.5 89.5,-675.5 53.11,-675.5 39.75,-666.56 49.42,-657.16"/>
<polygon fill="midnightblue" stroke="midnightblue" points="134.22,-666.69 129.58,-657.16 127.27,-667.5 134.22,-666.69"/>
</g>
<!-- Node21&#45;&gt;Node21 -->
<g id="edge42" class="edge">
<title>Node21&#45;&gt;Node21</title>
<path fill="none" stroke="midnightblue" d="M604.06,-627.86C599.81,-632.7 590.29,-636 575.5,-636 551.83,-636 541.66,-627.54 544.99,-617.86"/>
<polygon fill="midnightblue" stroke="midnightblue" points="607.53,-628.35 606.01,-617.86 600.66,-627.01 607.53,-628.35"/>
</g>
<!-- Node22&#45;&gt;Node22 -->
<g id="edge44" class="edge">
<title>Node22&#45;&gt;Node22</title>
<path fill="none" stroke="midnightblue" d="M606.56,-548.27C605.68,-553.74 595.32,-558 575.5,-558 546,-558 537.47,-548.57 549.91,-539.76"/>
<polygon fill="midnightblue" stroke="midnightblue" points="609.44,-546.27 601.09,-539.76 603.55,-550.06 609.44,-546.27"/>
</g>
<!-- Node23&#45;&gt;Node23 -->
<g id="edge46" class="edge">
<title>Node23&#45;&gt;Node23</title>
<path fill="none" stroke="midnightblue" d="M605,-493.46C601.34,-498.18 591.5,-501.5 575.5,-501.5 549.24,-501.5 539.6,-492.56 546.57,-483.16"/>
<polygon fill="midnightblue" stroke="midnightblue" points="608.47,-492.95 604.43,-483.16 601.48,-493.34 608.47,-492.95"/>
</g>
<!-- Node23&#45;&gt;Node24 -->
<g id="edge47" class="edge">
<title>Node23&#45;&gt;Node24</title>
<path fill="none" stroke="midnightblue" d="M498.21,-461.35C464.46,-458.41 425.04,-454.98 392.04,-452.1"/>
<polygon fill="midnightblue" stroke="midnightblue" points="498.22,-464.87 508.49,-462.25 498.83,-457.89 498.22,-464.87"/>
</g>
<!-- Node24&#45;&gt;Node24 -->
<g id="edge48" class="edge">
<title>Node24&#45;&gt;Node24</title>
<path fill="none" stroke="midnightblue" d="M363.9,-462.22C366.13,-468.63 351.83,-474 321,-474 279.9,-474 268.18,-464.46 285.84,-455.61"/>
<polygon fill="midnightblue" stroke="midnightblue" points="366.04,-459.44 356.16,-455.61 361.49,-464.77 366.04,-459.44"/>
</g>
<!-- Node25&#45;&gt;Node25 -->
<g id="edge50" class="edge">
<title>Node25&#45;&gt;Node25</title>
<path fill="none" stroke="midnightblue" d="M605,-387.46C601.34,-392.18 591.5,-395.5 575.5,-395.5 549.24,-395.5 539.6,-386.56 546.57,-377.16"/>
<polygon fill="midnightblue" stroke="midnightblue" points="608.47,-386.95 604.43,-377.16 601.48,-387.34 608.47,-386.95"/>
</g>
<!-- Node26&#45;&gt;Node26 -->
<g id="edge54" class="edge">
<title>Node26&#45;&gt;Node26</title>
<path fill="none" stroke="midnightblue" d="M605,-320.46C601.34,-325.18 591.5,-328.5 575.5,-328.5 549.24,-328.5 539.6,-319.56 546.57,-310.16"/>
<polygon fill="midnightblue" stroke="midnightblue" points="608.47,-319.95 604.43,-310.16 601.48,-320.34 608.47,-319.95"/>
</g>
<!-- Node27&#45;&gt;Node27 -->
<g id="edge56" class="edge">
<title>Node27&#45;&gt;Node27</title>
<path fill="none" stroke="midnightblue" d="M605,-253.46C601.34,-258.18 591.5,-261.5 575.5,-261.5 549.24,-261.5 539.6,-252.56 546.57,-243.16"/>
<polygon fill="midnightblue" stroke="midnightblue" points="608.47,-252.95 604.43,-243.16 601.48,-253.34 608.47,-252.95"/>
</g>
<!-- Node28&#45;&gt;Node28 -->
<g id="edge61" class="edge">
<title>Node28&#45;&gt;Node28</title>
<path fill="none" stroke="midnightblue" d="M605,-186.46C601.34,-191.18 591.5,-194.5 575.5,-194.5 549.24,-194.5 539.6,-185.56 546.57,-176.16"/>
<polygon fill="midnightblue" stroke="midnightblue" points="608.47,-185.95 604.43,-176.16 601.48,-186.34 608.47,-185.95"/>
</g>
<!-- Node29 -->
<g id="node29" class="node">
<title>Node29</title>
<g id="a_node29"><a xlink:href="classrare_1_1models_1_1game_1_1_rare_game_1_1_metadata.html#a55dca0afa9f8205575d7e5ea2a6c10cb" target="_top" xlink:title=" ">
<polygon fill="white" stroke="black" points="249,-146 249,-176 393,-176 393,-146 249,-146"/>
<text text-anchor="start" x="257" y="-164" font-family="Helvetica,sans-Serif" font-size="10.00">rare.models.game.RareGame.</text>
<text text-anchor="middle" x="321" y="-153" font-family="Helvetica,sans-Serif" font-size="10.00">Metadata.as_dict</text>
</a>
</g>
</g>
<!-- Node28&#45;&gt;Node29 -->
<g id="edge59" class="edge">
<title>Node28&#45;&gt;Node29</title>
<path fill="none" stroke="midnightblue" d="M479.67,-161C450.97,-161 419.95,-161 393.09,-161"/>
<polygon fill="midnightblue" stroke="midnightblue" points="479.72,-164.5 489.72,-161 479.72,-157.5 479.72,-164.5"/>
</g>
<!-- Node29&#45;&gt;Node29 -->
<g id="edge60" class="edge">
<title>Node29&#45;&gt;Node29</title>
<path fill="none" stroke="midnightblue" d="M362.24,-186.09C357.49,-191.01 343.74,-194.5 321,-194.5 284.61,-194.5 271.25,-185.56 280.92,-176.16"/>
<polygon fill="midnightblue" stroke="midnightblue" points="365.72,-185.69 361.08,-176.16 358.77,-186.5 365.72,-185.69"/>
</g>
<!-- Node30&#45;&gt;Node30 -->
<g id="edge69" class="edge">
<title>Node30&#45;&gt;Node30</title>
<path fill="none" stroke="midnightblue" d="M605,-119.46C601.34,-124.18 591.5,-127.5 575.5,-127.5 549.24,-127.5 539.6,-118.56 546.57,-109.16"/>
<polygon fill="midnightblue" stroke="midnightblue" points="608.47,-118.95 604.43,-109.16 601.48,-119.34 608.47,-118.95"/>
</g>
<!-- Node31 -->
<g id="node31" class="node">
<title>Node31</title>
<g id="a_node31"><a xlink:href="classrare_1_1components_1_1tabs_1_1downloads_1_1_downloads_tab.html#a91ee81dee5df73fb4e3057d7c12624e0" target="_top" xlink:title=" ">
<polygon fill="white" stroke="black" points="236.5,-79 236.5,-109 405.5,-109 405.5,-79 236.5,-79"/>
<text text-anchor="start" x="244.5" y="-97" font-family="Helvetica,sans-Serif" font-size="10.00">rare.components.tabs.downloads.</text>
<text text-anchor="middle" x="321" y="-86" font-family="Helvetica,sans-Serif" font-size="10.00">DownloadsTab.is_download_active</text>
</a>
</g>
</g>
<!-- Node30&#45;&gt;Node31 -->
<g id="edge63" class="edge">
<title>Node30&#45;&gt;Node31</title>
<path fill="none" stroke="midnightblue" d="M484.8,-94C458.98,-94 430.93,-94 405.51,-94"/>
<polygon fill="midnightblue" stroke="midnightblue" points="484.95,-97.5 494.95,-94 484.95,-90.5 484.95,-97.5"/>
</g>
<!-- Node31&#45;&gt;Node31 -->
<g id="edge64" class="edge">
<title>Node31&#45;&gt;Node31</title>
<path fill="none" stroke="midnightblue" d="M362.24,-119.09C357.49,-124.01 343.74,-127.5 321,-127.5 284.61,-127.5 271.25,-118.56 280.92,-109.16"/>
<polygon fill="midnightblue" stroke="midnightblue" points="365.72,-118.69 361.08,-109.16 358.77,-119.5 365.72,-118.69"/>
</g>
<!-- Node32 -->
<g id="node32" class="node">
<title>Node32</title>
<g id="a_node32"><a xlink:href="classrare_1_1components_1_1tabs_1_1downloads_1_1_downloads_tab.html#a11794ca2c7c3add2ed90cd2edb79b927" target="_top" xlink:title=" ">
<polygon fill="white" stroke="black" points="0,-79 0,-109 179,-109 179,-79 0,-79"/>
<text text-anchor="start" x="8" y="-97" font-family="Helvetica,sans-Serif" font-size="10.00">rare.components.tabs.downloads.</text>
<text text-anchor="middle" x="89.5" y="-86" font-family="Helvetica,sans-Serif" font-size="10.00">DownloadsTab.update_queues_count</text>
</a>
</g>
</g>
<!-- Node31&#45;&gt;Node32 -->
<g id="edge65" class="edge">
<title>Node31&#45;&gt;Node32</title>
<path fill="none" stroke="midnightblue" d="M226.38,-87.35C210.84,-87.2 194.77,-87.22 179.36,-87.41"/>
<polygon fill="midnightblue" stroke="midnightblue" points="226.45,-90.85 236.5,-87.48 226.54,-83.85 226.45,-90.85"/>
</g>
<!-- Node32&#45;&gt;Node30 -->
<g id="edge67" class="edge">
<title>Node32&#45;&gt;Node30</title>
<path fill="none" stroke="midnightblue" d="M162.72,-76.98C179.77,-73.67 197.94,-70.7 215,-69 308.76,-59.68 333.11,-61.1 427,-69 451.07,-71.03 477.12,-74.88 500.53,-78.96"/>
<polygon fill="midnightblue" stroke="midnightblue" points="161.95,-73.57 152.83,-78.97 163.33,-80.43 161.95,-73.57"/>
</g>
<!-- Node32&#45;&gt;Node31 -->
<g id="edge66" class="edge">
<title>Node32&#45;&gt;Node31</title>
<path fill="none" stroke="midnightblue" d="M189.57,-100.69C205.21,-100.81 221.25,-100.75 236.5,-100.52"/>
<polygon fill="midnightblue" stroke="midnightblue" points="189.39,-97.19 179.36,-100.59 189.32,-104.19 189.39,-97.19"/>
</g>
<!-- Node32&#45;&gt;Node32 -->
<g id="edge68" class="edge">
<title>Node32&#45;&gt;Node32</title>
<path fill="none" stroke="midnightblue" d="M130.74,-119.09C125.99,-124.01 112.24,-127.5 89.5,-127.5 53.11,-127.5 39.75,-118.56 49.42,-109.16"/>
<polygon fill="midnightblue" stroke="midnightblue" points="134.22,-118.69 129.58,-109.16 127.27,-119.5 134.22,-118.69"/>
</g>
<!-- Node33&#45;&gt;Node33 -->
<g id="edge71" class="edge">
<title>Node33&#45;&gt;Node33</title>
<path fill="none" stroke="midnightblue" d="M604.06,-51.86C599.81,-56.7 590.29,-60 575.5,-60 551.83,-60 541.66,-51.54 544.99,-41.86"/>
<polygon fill="midnightblue" stroke="midnightblue" points="607.53,-52.35 606.01,-41.86 600.66,-51.01 607.53,-52.35"/>
</g>
</g>
</svg>
