<?xml version="1.0" encoding="UTF-8" standalone="no"?>
<!DOCTYPE svg PUBLIC "-//W3C//DTD SVG 1.1//EN"
 "http://www.w3.org/Graphics/SVG/1.1/DTD/svg11.dtd">
<!-- Generated by graphviz version 2.49.3 (20211027.1534)
 -->
<!-- Title: get_size Pages: 1 -->
<!--zoomable 325 -->
<svg id="main" version="1.1" xmlns="http://www.w3.org/2000/svg" xmlns:xlink="http://www.w3.org/1999/xlink" xml:space="preserve" onload="init(evt)">
<style type="text/css"><![CDATA[
.edge:hover path { stroke: red; }
.edge:hover polygon { stroke: red; fill: red; }
]]></style>
<script type="text/javascript"><![CDATA[
var edges = document.getElementsByTagName('g');
if (edges && edges.length) {
  for (var i=0;i<edges.length;i++) {
    if (edges[i].id.substr(0,4)=='edge') {
      edges[i].setAttribute('class','edge');
    }
  }
}
]]></script>
        <defs>
                <circle id="rim" cx="0" cy="0" r="7"/>
                <circle id="rim2" cx="0" cy="0" r="3.5"/>
                <g id="zoomPlus">
                        <use xlink:href="#rim" fill="#404040">
                                <set attributeName="fill" to="#808080" begin="zoomplus.mouseover" end="zoomplus.mouseout"/>
                        </use>
                        <path d="M-4,0h8M0,-4v8" fill="none" stroke="white" stroke-width="1.5" pointer-events="none"/>
                </g>
                <g id="zoomMin">
                        <use xlink:href="#rim" fill="#404040">
                                <set attributeName="fill" to="#808080" begin="zoomminus.mouseover" end="zoomminus.mouseout"/>
                        </use>
                        <path d="M-4,0h8" fill="none" stroke="white" stroke-width="1.5" pointer-events="none"/>
                </g>
                <g id="dirArrow">
                        <path fill="none" stroke="white" stroke-width="1.5" d="M0,-3.0v7 M-2.5,-0.5L0,-3.0L2.5,-0.5"/>
                </g>
               <g id="resetDef">
                       <use xlink:href="#rim2" fill="#404040">
                               <set attributeName="fill" to="#808080" begin="reset.mouseover" end="reset.mouseout"/>
                       </use>
               </g>
        </defs>

<script type="text/javascript">
var viewWidth = 924;
var viewHeight = 325;
var sectionId = 'dynsection-11';
</script>
<script xlink:href="svgpan.js"/>
<svg id="graph" class="graph">
<g id="viewport">
<title>get_size</title>
<polygon fill="white" stroke="transparent" points="-4,4 -4,-321 920.44,-321 920.44,4 -4,4"/>
<!-- Node1 -->
<g id="node1" class="node">
<title>Node1</title>
<g id="a_node1"><a xlink:title=" ">
<polygon fill="#bfbfbf" stroke="black" points="860,-140 860,-159 913,-159 913,-140 860,-140"/>
<text text-anchor="middle" x="886.5" y="-147" font-family="Helvetica,sans-Serif" font-size="10.00">get_size</text>
</a>
</g>
</g>
<!-- Node1&#45;&gt;Node1 -->
<g id="edge5" class="edge">
<title>Node1&#45;&gt;Node1</title>
<path fill="none" stroke="midnightblue" d="M916.44,-167.77C915.59,-173.24 905.61,-177.5 886.5,-177.5 858.06,-177.5 849.84,-168.07 861.84,-159.26"/>
<polygon fill="midnightblue" stroke="midnightblue" points="919.4,-165.91 911.16,-159.26 913.45,-169.6 919.4,-165.91"/>
</g>
<!-- Node2 -->
<g id="node2" class="node">
<title>Node2</title>
<g id="a_node2"><a xlink:href="classrare_1_1components_1_1tabs_1_1settings_1_1rare_1_1_rare_settings.html#ac5aa04f27a40a5f6cfc0fc482f9f0dbd" target="_top" xlink:title=" ">
<polygon fill="white" stroke="black" points="642,-268.5 642,-298.5 809,-298.5 809,-268.5 642,-268.5"/>
<text text-anchor="start" x="650" y="-286.5" font-family="Helvetica,sans-Serif" font-size="10.00">rare.components.tabs.settings.rare.</text>
<text text-anchor="middle" x="725.5" y="-275.5" font-family="Helvetica,sans-Serif" font-size="10.00">RareSettings.clean_logdir</text>
</a>
</g>
</g>
<!-- Node1&#45;&gt;Node2 -->
<g id="edge1" class="edge">
<title>Node1&#45;&gt;Node2</title>
<path fill="none" stroke="midnightblue" d="M879.96,-168.93C871.85,-193.79 854.32,-236.4 824,-259.5 819.42,-262.99 814.41,-265.97 809.14,-268.53"/>
<polygon fill="midnightblue" stroke="midnightblue" points="883.37,-169.77 882.96,-159.18 876.68,-167.71 883.37,-169.77"/>
</g>
<!-- Node3 -->
<g id="node3" class="node">
<title>Node3</title>
<g id="a_node3"><a xlink:href="classrare_1_1components_1_1tabs_1_1settings_1_1legendary_1_1_legendary_settings.html#af064d32dee1937fa4aaef3e1b7472772" target="_top" xlink:title=" ">
<polygon fill="white" stroke="black" points="629.5,-201.5 629.5,-231.5 821.5,-231.5 821.5,-201.5 629.5,-201.5"/>
<text text-anchor="start" x="637.5" y="-219.5" font-family="Helvetica,sans-Serif" font-size="10.00">rare.components.tabs.settings.legendary.</text>
<text text-anchor="middle" x="725.5" y="-208.5" font-family="Helvetica,sans-Serif" font-size="10.00">LegendarySettings.cleanup</text>
</a>
</g>
</g>
<!-- Node1&#45;&gt;Node3 -->
<g id="edge3" class="edge">
<title>Node1&#45;&gt;Node3</title>
<path fill="none" stroke="midnightblue" d="M866.44,-165.6C854.82,-174.68 839.32,-185.55 824,-192.5 816.46,-195.92 808.36,-198.9 800.17,-201.48"/>
<polygon fill="midnightblue" stroke="midnightblue" points="868.9,-168.11 874.49,-159.11 864.51,-162.66 868.9,-168.11"/>
</g>
<!-- Node4 -->
<g id="node4" class="node">
<title>Node4</title>
<g id="a_node4"><a xlink:href="classrare_1_1components_1_1tabs_1_1games_1_1game__info_1_1game__info_1_1_game_info.html#a8f63c64f7175861f1d408bbeab2f5855" target="_top" xlink:title=" ">
<polygon fill="white" stroke="black" points="633,-134.5 633,-164.5 818,-164.5 818,-134.5 633,-134.5"/>
<text text-anchor="start" x="641" y="-152.5" font-family="Helvetica,sans-Serif" font-size="10.00">rare.components.tabs.games.game</text>
<text text-anchor="middle" x="725.5" y="-141.5" font-family="Helvetica,sans-Serif" font-size="10.00">_info.game_info.GameInfo.move_game</text>
</a>
</g>
</g>
<!-- Node1&#45;&gt;Node4 -->
<g id="edge6" class="edge">
<title>Node1&#45;&gt;Node4</title>
<path fill="none" stroke="midnightblue" d="M849.68,-149.5C840.08,-149.5 829.24,-149.5 818.08,-149.5"/>
<polygon fill="midnightblue" stroke="midnightblue" points="849.95,-153 859.95,-149.5 849.95,-146 849.95,-153"/>
</g>
<!-- Node7 -->
<g id="node7" class="node">
<title>Node7</title>
<g id="a_node7"><a xlink:href="classrare_1_1components_1_1dialogs_1_1install__dialog_1_1_install_dialog.html#a64dd35f139577016bc6417719d65d969" target="_top" xlink:title=" ">
<polygon fill="white" stroke="black" points="636,-67.5 636,-97.5 815,-97.5 815,-67.5 636,-67.5"/>
<text text-anchor="start" x="644" y="-85.5" font-family="Helvetica,sans-Serif" font-size="10.00">rare.components.dialogs.install</text>
<text text-anchor="middle" x="725.5" y="-74.5" font-family="Helvetica,sans-Serif" font-size="10.00">_dialog.InstallDialog.on_worker_result</text>
</a>
</g>
</g>
<!-- Node1&#45;&gt;Node7 -->
<g id="edge13" class="edge">
<title>Node1&#45;&gt;Node7</title>
<path fill="none" stroke="midnightblue" d="M853.17,-135.88C826.75,-124.74 789.43,-109.02 762.15,-97.52"/>
<polygon fill="midnightblue" stroke="midnightblue" points="852.14,-139.24 862.72,-139.9 854.86,-132.79 852.14,-139.24"/>
</g>
<!-- Node11 -->
<g id="node11" class="node">
<title>Node11</title>
<g id="a_node11"><a xlink:href="classrare_1_1components_1_1tabs_1_1downloads_1_1widgets_1_1_info_widget.html#af2c556abce885baacdae5d5cc5f70d1b" target="_top" xlink:title=" ">
<polygon fill="white" stroke="black" points="627,-0.5 627,-30.5 824,-30.5 824,-0.5 627,-0.5"/>
<text text-anchor="start" x="635" y="-18.5" font-family="Helvetica,sans-Serif" font-size="10.00">rare.components.tabs.downloads.widgets.</text>
<text text-anchor="middle" x="725.5" y="-7.5" font-family="Helvetica,sans-Serif" font-size="10.00">InfoWidget.update_information</text>
</a>
</g>
</g>
<!-- Node1&#45;&gt;Node11 -->
<g id="edge22" class="edge">
<title>Node1&#45;&gt;Node11</title>
<path fill="none" stroke="midnightblue" d="M876.97,-130.62C866.89,-110.18 848.38,-77.79 824,-57.5 810.12,-45.95 792.58,-37.08 776.21,-30.54"/>
<polygon fill="midnightblue" stroke="midnightblue" points="873.89,-132.3 881.34,-139.84 880.22,-129.3 873.89,-132.3"/>
</g>
<!-- Node2&#45;&gt;Node2 -->
<g id="edge2" class="edge">
<title>Node2&#45;&gt;Node2</title>
<path fill="none" stroke="midnightblue" d="M753.93,-308.96C750.4,-313.68 740.92,-317 725.5,-317 700.19,-317 690.89,-308.06 697.62,-298.66"/>
<polygon fill="midnightblue" stroke="midnightblue" points="757.41,-308.46 753.38,-298.66 750.42,-308.83 757.41,-308.46"/>
</g>
<!-- Node3&#45;&gt;Node3 -->
<g id="edge4" class="edge">
<title>Node3&#45;&gt;Node3</title>
<path fill="none" stroke="midnightblue" d="M753.93,-241.96C750.4,-246.68 740.92,-250 725.5,-250 700.19,-250 690.89,-241.06 697.62,-231.66"/>
<polygon fill="midnightblue" stroke="midnightblue" points="757.41,-241.46 753.38,-231.66 750.42,-241.83 757.41,-241.46"/>
</g>
<!-- Node4&#45;&gt;Node4 -->
<g id="edge7" class="edge">
<title>Node4&#45;&gt;Node4</title>
<path fill="none" stroke="midnightblue" d="M753.93,-174.96C750.4,-179.68 740.92,-183 725.5,-183 700.19,-183 690.89,-174.06 697.62,-164.66"/>
<polygon fill="midnightblue" stroke="midnightblue" points="757.41,-174.46 753.38,-164.66 750.42,-174.83 757.41,-174.46"/>
</g>
<!-- Node5 -->
<g id="node5" class="node">
<title>Node5</title>
<g id="a_node5"><a xlink:href="classrare_1_1components_1_1tabs_1_1games_1_1game__info_1_1game__info_1_1_game_info.html#a3f0a6718ec31407232d59668556eed16" target="_top" xlink:title=" ">
<polygon fill="white" stroke="black" points="406,-137.5 406,-167.5 591,-167.5 591,-137.5 406,-137.5"/>
<text text-anchor="start" x="414" y="-155.5" font-family="Helvetica,sans-Serif" font-size="10.00">rare.components.tabs.games.game</text>
<text text-anchor="middle" x="498.5" y="-144.5" font-family="Helvetica,sans-Serif" font-size="10.00">_info.game_info.GameInfo.verify_game</text>
</a>
</g>
</g>
<!-- Node4&#45;&gt;Node5 -->
<g id="edge8" class="edge">
<title>Node4&#45;&gt;Node5</title>
<path fill="none" stroke="midnightblue" d="M622.93,-150.85C612.39,-150.99 601.72,-151.14 591.3,-151.28"/>
<polygon fill="midnightblue" stroke="midnightblue" points="623.03,-154.35 632.98,-150.72 622.94,-147.35 623.03,-154.35"/>
</g>
<!-- Node5&#45;&gt;Node5 -->
<g id="edge12" class="edge">
<title>Node5&#45;&gt;Node5</title>
<path fill="none" stroke="midnightblue" d="M537.59,-177.96C532.74,-182.68 519.71,-186 498.5,-186 463.7,-186 450.92,-177.06 460.16,-167.66"/>
<polygon fill="midnightblue" stroke="midnightblue" points="541.06,-177.38 536.84,-167.66 534.08,-177.89 541.06,-177.38"/>
</g>
<!-- Node6 -->
<g id="node6" class="node">
<title>Node6</title>
<g id="a_node6"><a xlink:href="classrare_1_1components_1_1tabs_1_1games_1_1game__info_1_1game__info_1_1_game_info.html#a0c1ec5a8b5b81f2e8b0483bfd9330a81" target="_top" xlink:title=" ">
<polygon fill="white" stroke="black" points="185,-137.5 185,-167.5 370,-167.5 370,-137.5 185,-137.5"/>
<text text-anchor="start" x="193" y="-155.5" font-family="Helvetica,sans-Serif" font-size="10.00">rare.components.tabs.games.game</text>
<text text-anchor="middle" x="277.5" y="-144.5" font-family="Helvetica,sans-Serif" font-size="10.00">_info.game_info.GameInfo.repair_game</text>
</a>
</g>
</g>
<!-- Node5&#45;&gt;Node6 -->
<g id="edge9" class="edge">
<title>Node5&#45;&gt;Node6</title>
<path fill="none" stroke="midnightblue" d="M395.85,-145.77C387.26,-145.73 378.6,-145.75 370.09,-145.83"/>
<polygon fill="midnightblue" stroke="midnightblue" points="395.87,-149.27 405.89,-145.83 395.92,-142.27 395.87,-149.27"/>
</g>
<!-- Node6&#45;&gt;Node5 -->
<g id="edge11" class="edge">
<title>Node6&#45;&gt;Node5</title>
<path fill="none" stroke="midnightblue" d="M380.14,-159.23C388.73,-159.27 397.38,-159.25 405.89,-159.17"/>
<polygon fill="midnightblue" stroke="midnightblue" points="380.11,-155.73 370.09,-159.17 380.07,-162.73 380.11,-155.73"/>
</g>
<!-- Node6&#45;&gt;Node6 -->
<g id="edge10" class="edge">
<title>Node6&#45;&gt;Node6</title>
<path fill="none" stroke="midnightblue" d="M313.39,-177.96C308.94,-182.68 296.97,-186 277.5,-186 245.54,-186 233.81,-177.06 242.3,-167.66"/>
<polygon fill="midnightblue" stroke="midnightblue" points="316.86,-177.4 312.7,-167.66 309.88,-177.87 316.86,-177.4"/>
</g>
<!-- Node7&#45;&gt;Node7 -->
<g id="edge21" class="edge">
<title>Node7&#45;&gt;Node7</title>
<path fill="none" stroke="midnightblue" d="M753.93,-107.96C750.4,-112.68 740.92,-116 725.5,-116 700.19,-116 690.89,-107.06 697.62,-97.66"/>
<polygon fill="midnightblue" stroke="midnightblue" points="757.41,-107.46 753.38,-97.66 750.42,-107.83 757.41,-107.46"/>
</g>
<!-- Node8 -->
<g id="node8" class="node">
<title>Node8</title>
<g id="a_node8"><a xlink:href="classrare_1_1components_1_1dialogs_1_1install__dialog_1_1_install_dialog.html#aca780d78b993a295a93507a4a6d12a69" target="_top" xlink:title=" ">
<polygon fill="white" stroke="black" points="424,-59 424,-100 573,-100 573,-59 424,-59"/>
<text text-anchor="start" x="432" y="-88" font-family="Helvetica,sans-Serif" font-size="10.00">rare.components.dialogs.install</text>
<text text-anchor="start" x="432" y="-77" font-family="Helvetica,sans-Serif" font-size="10.00">_dialog.InstallDialog.get</text>
<text text-anchor="middle" x="498.5" y="-66" font-family="Helvetica,sans-Serif" font-size="10.00">_download_info</text>
</a>
</g>
</g>
<!-- Node7&#45;&gt;Node8 -->
<g id="edge14" class="edge">
<title>Node7&#45;&gt;Node8</title>
<path fill="none" stroke="midnightblue" d="M625.59,-81.18C607.97,-80.95 589.9,-80.71 573.14,-80.48"/>
<polygon fill="midnightblue" stroke="midnightblue" points="625.85,-84.68 635.9,-81.32 625.94,-77.69 625.85,-84.68"/>
</g>
<!-- Node8&#45;&gt;Node8 -->
<g id="edge17" class="edge">
<title>Node8&#45;&gt;Node8</title>
<path fill="none" stroke="midnightblue" d="M536.35,-110.36C530.72,-115.2 518.1,-118.5 498.5,-118.5 467.13,-118.5 453.65,-110.04 458.07,-100.36"/>
<polygon fill="midnightblue" stroke="midnightblue" points="539.82,-110.92 538.93,-100.36 533.04,-109.17 539.82,-110.92"/>
</g>
<!-- Node9 -->
<g id="node9" class="node">
<title>Node9</title>
<g id="a_node9"><a xlink:href="classrare_1_1components_1_1dialogs_1_1install__dialog_1_1_install_dialog.html#aa902973791e81c8c4542da337b86289b" target="_top" xlink:title=" ">
<polygon fill="white" stroke="black" points="0,-48.5 0,-78.5 149,-78.5 149,-48.5 0,-48.5"/>
<text text-anchor="start" x="8" y="-66.5" font-family="Helvetica,sans-Serif" font-size="10.00">rare.components.dialogs.install</text>
<text text-anchor="middle" x="74.5" y="-55.5" font-family="Helvetica,sans-Serif" font-size="10.00">_dialog.InstallDialog.execute</text>
</a>
</g>
</g>
<!-- Node8&#45;&gt;Node9 -->
<g id="edge15" class="edge">
<title>Node8&#45;&gt;Node9</title>
<path fill="none" stroke="midnightblue" d="M413.6,-80.07C350.65,-80.03 262.35,-79 185,-74.5 173.36,-73.82 161.06,-72.85 149.06,-71.75"/>
<polygon fill="midnightblue" stroke="midnightblue" points="413.88,-83.57 423.88,-80.07 413.88,-76.57 413.88,-83.57"/>
</g>
<!-- Node10 -->
<g id="node10" class="node">
<title>Node10</title>
<g id="a_node10"><a xlink:href="classrare_1_1components_1_1dialogs_1_1install__dialog_1_1_install_dialog.html#a77e69cb6973b2c8a40dfed17abe7d453" target="_top" xlink:title=" ">
<polygon fill="white" stroke="black" points="195.5,-17.5 195.5,-47.5 359.5,-47.5 359.5,-17.5 195.5,-17.5"/>
<text text-anchor="start" x="203.5" y="-35.5" font-family="Helvetica,sans-Serif" font-size="10.00">rare.components.dialogs.install</text>
<text text-anchor="middle" x="277.5" y="-24.5" font-family="Helvetica,sans-Serif" font-size="10.00">_dialog.InstallDialog.verify_clicked</text>
</a>
</g>
</g>
<!-- Node8&#45;&gt;Node10 -->
<g id="edge18" class="edge">
<title>Node8&#45;&gt;Node10</title>
<path fill="none" stroke="midnightblue" d="M414.13,-61.61C392.48,-56.96 369.39,-52.01 348.5,-47.52"/>
<polygon fill="midnightblue" stroke="midnightblue" points="413.46,-65.04 423.97,-63.72 414.92,-58.2 413.46,-65.04"/>
</g>
<!-- Node9&#45;&gt;Node9 -->
<g id="edge16" class="edge">
<title>Node9&#45;&gt;Node9</title>
<path fill="none" stroke="midnightblue" d="M110.39,-88.96C105.94,-93.68 93.97,-97 74.5,-97 42.54,-97 30.81,-88.06 39.3,-78.66"/>
<polygon fill="midnightblue" stroke="midnightblue" points="113.86,-88.4 109.7,-78.66 106.88,-88.87 113.86,-88.4"/>
</g>
<!-- Node10&#45;&gt;Node9 -->
<g id="edge19" class="edge">
<title>Node10&#45;&gt;Node9</title>
<path fill="none" stroke="midnightblue" d="M185.24,-46.57C173.17,-48.44 160.92,-50.33 149.19,-52.13"/>
<polygon fill="midnightblue" stroke="midnightblue" points="185.98,-50 195.32,-45.02 184.91,-43.08 185.98,-50"/>
</g>
<!-- Node10&#45;&gt;Node10 -->
<g id="edge20" class="edge">
<title>Node10&#45;&gt;Node10</title>
<path fill="none" stroke="midnightblue" d="M313.39,-57.96C308.94,-62.68 296.97,-66 277.5,-66 245.54,-66 233.81,-57.06 242.3,-47.66"/>
<polygon fill="midnightblue" stroke="midnightblue" points="316.86,-57.4 312.7,-47.66 309.88,-57.87 316.86,-57.4"/>
</g>
<!-- Node11&#45;&gt;Node11 -->
<g id="edge23" class="edge">
<title>Node11&#45;&gt;Node11</title>
<path fill="none" stroke="midnightblue" d="M753.93,-40.96C750.4,-45.68 740.92,-49 725.5,-49 700.19,-49 690.89,-40.06 697.62,-30.66"/>
<polygon fill="midnightblue" stroke="midnightblue" points="757.41,-40.46 753.38,-30.66 750.42,-40.83 757.41,-40.46"/>
</g>
</g>
</svg>
        <g id="navigator" transform="translate(0 0)" fill="#404254">
                <rect fill="#f2f5e9" fill-opacity="0.5" stroke="#606060" stroke-width=".5" x="0" y="0" width="60" height="60"/>
                <use id="zoomplus" xlink:href="#zoomPlus" x="17" y="9" onmousedown="handleZoom(evt,'in')"/>
                <use id="zoomminus" xlink:href="#zoomMin" x="42" y="9" onmousedown="handleZoom(evt,'out')"/>
                <use id="reset" xlink:href="#resetDef" x="30" y="36" onmousedown="handleReset()"/>
                <g id="arrowUp" xlink:href="#dirArrow" transform="translate(30 24)" onmousedown="handlePan(0,-1)">
                  <use xlink:href="#rim" fill="#404040">
                        <set attributeName="fill" to="#808080" begin="arrowUp.mouseover" end="arrowUp.mouseout"/>
                  </use>
                  <path fill="none" stroke="white" stroke-width="1.5" d="M0,-3.0v7 M-2.5,-0.5L0,-3.0L2.5,-0.5"/>
                </g>
                <g id="arrowRight" xlink:href="#dirArrow" transform="rotate(90) translate(36 -43)" onmousedown="handlePan(1,0)">
                  <use xlink:href="#rim" fill="#404040">
                        <set attributeName="fill" to="#808080" begin="arrowRight.mouseover" end="arrowRight.mouseout"/>
                  </use>
                  <path fill="none" stroke="white" stroke-width="1.5" d="M0,-3.0v7 M-2.5,-0.5L0,-3.0L2.5,-0.5"/>
                </g>
                <g id="arrowDown" xlink:href="#dirArrow" transform="rotate(180) translate(-30 -48)" onmousedown="handlePan(0,1)">
                  <use xlink:href="#rim" fill="#404040">
                        <set attributeName="fill" to="#808080" begin="arrowDown.mouseover" end="arrowDown.mouseout"/>
                  </use>
                  <path fill="none" stroke="white" stroke-width="1.5" d="M0,-3.0v7 M-2.5,-0.5L0,-3.0L2.5,-0.5"/>
                </g>
                <g id="arrowLeft" xlink:href="#dirArrow" transform="rotate(270) translate(-36 17)" onmousedown="handlePan(-1,0)">
                  <use xlink:href="#rim" fill="#404040">
                        <set attributeName="fill" to="#808080" begin="arrowLeft.mouseover" end="arrowLeft.mouseout"/>
                  </use>
                  <path fill="none" stroke="white" stroke-width="1.5" d="M0,-3.0v7 M-2.5,-0.5L0,-3.0L2.5,-0.5"/>
                </g>
        </g>
        <svg viewBox="0 0 15 15" width="100%" height="30px" preserveAspectRatio="xMaxYMin meet">
         <g id="arrow_out" transform="scale(0.3 0.3)">
          <a xlink:href="namespacerare_1_1utils_1_1misc_a1316c13802b7e0cd9c6301199c789346_icgraph_org.svg" target="_base">
           <rect id="button" ry="5" rx="5" y="6" x="6" height="38" width="38"
                fill="#f2f5e9" fill-opacity="0.5" stroke="#606060" stroke-width="1.0"/>
           <path id="arrow"
             d="M 11.500037,31.436501 C 11.940474,20.09759 22.043105,11.32322 32.158766,21.979434 L 37.068811,17.246167 C 37.068811,17.246167 37.088388,32 37.088388,32 L 22.160133,31.978069 C 22.160133,31.978069 26.997745,27.140456 26.997745,27.140456 C 18.528582,18.264221 13.291696,25.230495 11.500037,31.436501 z"
             style="fill:#404040;"/>
          </a>
         </g>
        </svg>
</svg>
