<?xml version="1.0" encoding="UTF-8" standalone="no"?>
<!DOCTYPE svg PUBLIC "-//W3C//DTD SVG 1.1//EN"
 "http://www.w3.org/Graphics/SVG/1.1/DTD/svg11.dtd">
<!-- Generated by graphviz version 2.49.3 (20211027.1534)
 -->
<!-- Title: get_steam_environment Pages: 1 -->
<svg width="223pt" height="46pt"
 viewBox="0.00 0.00 223.00 46.00" xmlns="http://www.w3.org/2000/svg" xmlns:xlink="http://www.w3.org/1999/xlink">
<g id="graph0" class="graph" transform="scale(1 1) rotate(0) translate(4 42)">
<title>get_steam_environment</title>
<polygon fill="white" stroke="transparent" points="-4,4 -4,-42 219,-42 219,4 -4,4"/>
<!-- Node1 -->
<g id="node1" class="node">
<title>Node1</title>
<g id="a_node1"><a xlink:title=" ">
<polygon fill="#bfbfbf" stroke="black" points="94,-0.5 94,-19.5 215,-19.5 215,-0.5 94,-0.5"/>
<text text-anchor="middle" x="154.5" y="-7.5" font-family="Helvetica,sans-Serif" font-size="10.00">get_steam_environment</text>
</a>
</g>
</g>
<!-- Node1&#45;&gt;Node1 -->
<g id="edge3" class="edge">
<title>Node1&#45;&gt;Node1</title>
<path fill="none" stroke="midnightblue" d="M177.57,-29.03C176.31,-34.13 168.62,-38 154.5,-38 132.46,-38 126.09,-28.57 135.39,-19.76"/>
<polygon fill="midnightblue" stroke="midnightblue" points="180.75,-27.58 173.61,-19.76 174.31,-30.33 180.75,-27.58"/>
</g>
<!-- Node2 -->
<g id="node2" class="node">
<title>Node2</title>
<g id="a_node2"><a xlink:href="namespacerare_1_1utils_1_1compat_1_1steam.html#ac405544ef0eae7e1f11684529389e2a0" target="_top" xlink:title=" ">
<polygon fill="white" stroke="black" points="0,-0.5 0,-19.5 58,-19.5 58,-0.5 0,-0.5"/>
<text text-anchor="middle" x="29" y="-7.5" font-family="Helvetica,sans-Serif" font-size="10.00">find_tools</text>
</a>
</g>
</g>
<!-- Node1&#45;&gt;Node2 -->
<g id="edge1" class="edge">
<title>Node1&#45;&gt;Node2</title>
<path fill="none" stroke="midnightblue" d="M83.71,-10C74.73,-10 65.97,-10 58.22,-10"/>
<polygon fill="midnightblue" stroke="midnightblue" points="83.92,-13.5 93.92,-10 83.92,-6.5 83.92,-13.5"/>
</g>
<!-- Node2&#45;&gt;Node2 -->
<g id="edge2" class="edge">
<title>Node2&#45;&gt;Node2</title>
<path fill="none" stroke="midnightblue" d="M52.07,-29.03C50.81,-34.13 43.12,-38 29,-38 6.96,-38 0.59,-28.57 9.89,-19.76"/>
<polygon fill="midnightblue" stroke="midnightblue" points="55.25,-27.58 48.11,-19.76 48.81,-30.33 55.25,-27.58"/>
</g>
</g>
</svg>
