<?xml version="1.0" encoding="UTF-8" standalone="no"?>
<!DOCTYPE svg PUBLIC "-//W3C//DTD SVG 1.1//EN"
 "http://www.w3.org/Graphics/SVG/1.1/DTD/svg11.dtd">
<!-- Generated by graphviz version 2.49.3 (20211027.1534)
 -->
<!-- Title: desktop_links_supported Pages: 1 -->
<svg width="1131pt" height="326pt"
 viewBox="0.00 0.00 1131.00 325.50" xmlns="http://www.w3.org/2000/svg" xmlns:xlink="http://www.w3.org/1999/xlink">
<g id="graph0" class="graph" transform="scale(1 1) rotate(0) translate(4 321.5)">
<title>desktop_links_supported</title>
<polygon fill="white" stroke="transparent" points="-4,4 -4,-321.5 1127,-321.5 1127,4 -4,4"/>
<!-- Node1 -->
<g id="node1" class="node">
<title>Node1</title>
<g id="a_node1"><a xlink:title=" ">
<polygon fill="#bfbfbf" stroke="black" points="998,-140 998,-159 1123,-159 1123,-140 998,-140"/>
<text text-anchor="middle" x="1060.5" y="-147" font-family="Helvetica,sans-Serif" font-size="10.00">desktop_links_supported</text>
</a>
</g>
</g>
<!-- Node1&#45;&gt;Node1 -->
<g id="edge15" class="edge">
<title>Node1&#45;&gt;Node1</title>
<path fill="none" stroke="midnightblue" d="M1101.27,-166.12C1102.7,-172.36 1089.11,-177.5 1060.5,-177.5 1021.54,-177.5 1010.43,-167.96 1027.17,-159.11"/>
<polygon fill="midnightblue" stroke="midnightblue" points="1103.51,-163.42 1093.83,-159.11 1098.71,-168.51 1103.51,-163.42"/>
</g>
<!-- Node2 -->
<g id="node2" class="node">
<title>Node2</title>
<g id="a_node2"><a xlink:href="namespacerare_1_1utils_1_1paths.html#a6013706d2f5027e7d2979078186b11e5" target="_top" xlink:title="Creates a desktop or start menu shortcut link.">
<polygon fill="white" stroke="black" points="789,-190 789,-209 893,-209 893,-190 789,-190"/>
<text text-anchor="middle" x="841" y="-197" font-family="Helvetica,sans-Serif" font-size="10.00">create_desktop_link</text>
</a>
</g>
</g>
<!-- Node1&#45;&gt;Node2 -->
<g id="edge1" class="edge">
<title>Node1&#45;&gt;Node2</title>
<path fill="none" stroke="midnightblue" d="M1008.23,-161.29C970.24,-170.02 919.11,-181.77 883.64,-189.93"/>
<polygon fill="midnightblue" stroke="midnightblue" points="1009.12,-164.67 1018.08,-159.02 1007.55,-157.85 1009.12,-164.67"/>
</g>
<!-- Node4 -->
<g id="node4" class="node">
<title>Node4</title>
<g id="a_node4"><a xlink:href="classrare_1_1components_1_1tabs_1_1games_1_1game__widgets_1_1game__widget_1_1_game_widget.html#a1c498583fd154d3fea8c59b543395ce5" target="_top" xlink:title=" ">
<polygon fill="white" stroke="black" points="478,-258 478,-299 684,-299 684,-258 478,-258"/>
<text text-anchor="start" x="486" y="-287" font-family="Helvetica,sans-Serif" font-size="10.00">rare.components.tabs.games.game</text>
<text text-anchor="start" x="486" y="-276" font-family="Helvetica,sans-Serif" font-size="10.00">_widgets.game_widget.GameWidget.mouse</text>
<text text-anchor="middle" x="581" y="-265" font-family="Helvetica,sans-Serif" font-size="10.00">PressEvent</text>
</a>
</g>
</g>
<!-- Node1&#45;&gt;Node4 -->
<g id="edge16" class="edge">
<title>Node1&#45;&gt;Node4</title>
<path fill="none" stroke="midnightblue" d="M1045.73,-167.13C1028.57,-187.68 997.17,-220.82 962,-236.5 873.94,-275.75 763.48,-283.98 684.38,-283.76"/>
<polygon fill="midnightblue" stroke="midnightblue" points="1048.6,-169.15 1052.19,-159.18 1043.17,-164.74 1048.6,-169.15"/>
</g>
<!-- Node5 -->
<g id="node5" class="node">
<title>Node5</title>
<g id="a_node5"><a xlink:href="classrare_1_1components_1_1tabs_1_1downloads_1_1_downloads_tab.html#ad688e83ab96ce32b1ed9e5ccc83d0ee8" target="_top" xlink:title="Stops the active download, by optionally skipping the queue.">
<polygon fill="white" stroke="black" points="500.5,-134.5 500.5,-164.5 661.5,-164.5 661.5,-134.5 500.5,-134.5"/>
<text text-anchor="start" x="508.5" y="-152.5" font-family="Helvetica,sans-Serif" font-size="10.00">rare.components.tabs.downloads.</text>
<text text-anchor="middle" x="581" y="-141.5" font-family="Helvetica,sans-Serif" font-size="10.00">DownloadsTab.stop_download</text>
</a>
</g>
</g>
<!-- Node1&#45;&gt;Node5 -->
<g id="edge17" class="edge">
<title>Node1&#45;&gt;Node5</title>
<path fill="none" stroke="midnightblue" d="M987.45,-149.5C899.89,-149.5 752.61,-149.5 661.72,-149.5"/>
<polygon fill="midnightblue" stroke="midnightblue" points="987.56,-153 997.56,-149.5 987.56,-146 987.56,-153"/>
</g>
<!-- Node8 -->
<g id="node8" class="node">
<title>Node8</title>
<g id="a_node8"><a xlink:href="namespacerare_1_1shared_1_1workers_1_1uninstall.html#aeaacc097d509158390a301538ce9d63c" target="_top" xlink:title=" ">
<polygon fill="white" stroke="black" points="737.5,-78 737.5,-97 944.5,-97 944.5,-78 737.5,-78"/>
<text text-anchor="middle" x="841" y="-85" font-family="Helvetica,sans-Serif" font-size="10.00">rare.shared.workers.uninstall.uninstall_game</text>
</a>
</g>
</g>
<!-- Node1&#45;&gt;Node8 -->
<g id="edge18" class="edge">
<title>Node1&#45;&gt;Node8</title>
<path fill="none" stroke="midnightblue" d="M1016.19,-137.15C974.82,-125.36 913.32,-107.83 875.55,-97.06"/>
<polygon fill="midnightblue" stroke="midnightblue" points="1015.42,-140.57 1025.99,-139.95 1017.33,-133.84 1015.42,-140.57"/>
</g>
<!-- Node13 -->
<g id="node13" class="node">
<title>Node13</title>
<g id="a_node13"><a xlink:href="classrare_1_1components_1_1tabs_1_1games_1_1game__widgets_1_1game__widget_1_1_game_widget.html#a34f4910ec773ae8e2d8a116f14104a72" target="_top" xlink:title=" ">
<polygon fill="white" stroke="black" points="720,-10.5 720,-40.5 962,-40.5 962,-10.5 720,-10.5"/>
<text text-anchor="start" x="728" y="-28.5" font-family="Helvetica,sans-Serif" font-size="10.00">rare.components.tabs.games.game</text>
<text text-anchor="middle" x="841" y="-17.5" font-family="Helvetica,sans-Serif" font-size="10.00">_widgets.game_widget.GameWidget.update_actions</text>
</a>
</g>
</g>
<!-- Node1&#45;&gt;Node13 -->
<g id="edge28" class="edge">
<title>Node1&#45;&gt;Node13</title>
<path fill="none" stroke="midnightblue" d="M1042.88,-132.53C1024.5,-114.57 993.32,-86.38 962,-68.5 941.63,-56.87 917.55,-47.5 896.33,-40.51"/>
<polygon fill="midnightblue" stroke="midnightblue" points="1040.83,-135.42 1050.38,-140 1045.76,-130.46 1040.83,-135.42"/>
</g>
<!-- Node2&#45;&gt;Node2 -->
<g id="edge2" class="edge">
<title>Node2&#45;&gt;Node2</title>
<path fill="none" stroke="midnightblue" d="M881.77,-216.12C883.2,-222.36 869.61,-227.5 841,-227.5 802.04,-227.5 790.93,-217.96 807.67,-209.11"/>
<polygon fill="midnightblue" stroke="midnightblue" points="884.01,-213.42 874.33,-209.11 879.21,-218.51 884.01,-213.42"/>
</g>
<!-- Node3 -->
<g id="node3" class="node">
<title>Node3</title>
<g id="a_node3"><a xlink:href="namespacerare_1_1main.html#a532d4b899b39c9f08370e91c54b63e33" target="_top" xlink:title=" ">
<polygon fill="white" stroke="black" points="541,-202 541,-221 621,-221 621,-202 541,-202"/>
<text text-anchor="middle" x="581" y="-209" font-family="Helvetica,sans-Serif" font-size="10.00">rare.main.main</text>
</a>
</g>
</g>
<!-- Node2&#45;&gt;Node3 -->
<g id="edge3" class="edge">
<title>Node2&#45;&gt;Node3</title>
<path fill="none" stroke="midnightblue" d="M778.61,-202.36C729.88,-204.62 663.21,-207.72 621.38,-209.67"/>
<polygon fill="midnightblue" stroke="midnightblue" points="778.89,-205.85 788.72,-201.89 778.57,-198.85 778.89,-205.85"/>
</g>
<!-- Node2&#45;&gt;Node4 -->
<g id="edge5" class="edge">
<title>Node2&#45;&gt;Node4</title>
<path fill="none" stroke="midnightblue" d="M800.42,-212.15C768.93,-222.17 723.7,-236.43 684,-248.5 673.85,-251.59 663.11,-254.8 652.56,-257.93"/>
<polygon fill="midnightblue" stroke="midnightblue" points="801.68,-215.42 810.14,-209.06 799.55,-208.75 801.68,-215.42"/>
</g>
<!-- Node2&#45;&gt;Node5 -->
<g id="edge7" class="edge">
<title>Node2&#45;&gt;Node5</title>
<path fill="none" stroke="midnightblue" d="M781,-188.07C745.01,-181.09 698.58,-172.09 659.62,-164.54"/>
<polygon fill="midnightblue" stroke="midnightblue" points="780.38,-191.51 790.86,-189.98 781.71,-184.64 780.38,-191.51"/>
</g>
<!-- Node3&#45;&gt;Node3 -->
<g id="edge4" class="edge">
<title>Node3&#45;&gt;Node3</title>
<path fill="none" stroke="midnightblue" d="M627.83,-227.32C631.09,-233.91 615.48,-239.5 581,-239.5 535.96,-239.5 523.12,-229.96 542.47,-221.11"/>
<polygon fill="midnightblue" stroke="midnightblue" points="629.63,-224.3 619.53,-221.11 625.44,-229.9 629.63,-224.3"/>
</g>
<!-- Node4&#45;&gt;Node4 -->
<g id="edge6" class="edge">
<title>Node4&#45;&gt;Node4</title>
<path fill="none" stroke="midnightblue" d="M624.36,-309.36C617.91,-314.2 603.46,-317.5 581,-317.5 545.07,-317.5 529.63,-309.04 534.68,-299.36"/>
<polygon fill="midnightblue" stroke="midnightblue" points="627.83,-309.95 627.32,-299.36 621.12,-307.96 627.83,-309.95"/>
</g>
<!-- Node5&#45;&gt;Node5 -->
<g id="edge14" class="edge">
<title>Node5&#45;&gt;Node5</title>
<path fill="none" stroke="midnightblue" d="M626.19,-174.59C620.98,-179.51 605.92,-183 581,-183 541.13,-183 526.49,-174.06 537.08,-164.66"/>
<polygon fill="midnightblue" stroke="midnightblue" points="629.66,-174.13 624.92,-164.66 622.71,-175.02 629.66,-174.13"/>
</g>
<!-- Node6 -->
<g id="node6" class="node">
<title>Node6</title>
<g id="a_node6"><a xlink:href="classrare_1_1components_1_1tabs_1_1downloads_1_1_downloads_tab.html#a91ee81dee5df73fb4e3057d7c12624e0" target="_top" xlink:title=" ">
<polygon fill="white" stroke="black" points="244,-175.5 244,-205.5 413,-205.5 413,-175.5 244,-175.5"/>
<text text-anchor="start" x="252" y="-193.5" font-family="Helvetica,sans-Serif" font-size="10.00">rare.components.tabs.downloads.</text>
<text text-anchor="middle" x="328.5" y="-182.5" font-family="Helvetica,sans-Serif" font-size="10.00">DownloadsTab.is_download_active</text>
</a>
</g>
</g>
<!-- Node5&#45;&gt;Node6 -->
<g id="edge8" class="edge">
<title>Node5&#45;&gt;Node6</title>
<path fill="none" stroke="midnightblue" d="M490.49,-164.15C465.32,-168.27 438.04,-172.73 413.22,-176.8"/>
<polygon fill="midnightblue" stroke="midnightblue" points="491.09,-167.6 500.4,-162.53 489.96,-160.69 491.09,-167.6"/>
</g>
<!-- Node6&#45;&gt;Node6 -->
<g id="edge9" class="edge">
<title>Node6&#45;&gt;Node6</title>
<path fill="none" stroke="midnightblue" d="M371.18,-215.59C366.26,-220.51 352.03,-224 328.5,-224 290.85,-224 277.02,-215.06 287.02,-205.66"/>
<polygon fill="midnightblue" stroke="midnightblue" points="374.65,-215.17 369.98,-205.66 367.7,-216.01 374.65,-215.17"/>
</g>
<!-- Node7 -->
<g id="node7" class="node">
<title>Node7</title>
<g id="a_node7"><a xlink:href="classrare_1_1components_1_1tabs_1_1downloads_1_1_downloads_tab.html#a11794ca2c7c3add2ed90cd2edb79b927" target="_top" xlink:title=" ">
<polygon fill="white" stroke="black" points="0,-175.5 0,-205.5 179,-205.5 179,-175.5 0,-175.5"/>
<text text-anchor="start" x="8" y="-193.5" font-family="Helvetica,sans-Serif" font-size="10.00">rare.components.tabs.downloads.</text>
<text text-anchor="middle" x="89.5" y="-182.5" font-family="Helvetica,sans-Serif" font-size="10.00">DownloadsTab.update_queues_count</text>
</a>
</g>
</g>
<!-- Node6&#45;&gt;Node7 -->
<g id="edge10" class="edge">
<title>Node6&#45;&gt;Node7</title>
<path fill="none" stroke="midnightblue" d="M233.78,-183.88C215.84,-183.69 197.11,-183.71 179.33,-183.94"/>
<polygon fill="midnightblue" stroke="midnightblue" points="233.9,-187.38 243.94,-184.02 233.99,-180.39 233.9,-187.38"/>
</g>
<!-- Node7&#45;&gt;Node5 -->
<g id="edge12" class="edge">
<title>Node7&#45;&gt;Node5</title>
<path fill="none" stroke="midnightblue" d="M168.93,-173.6C184.15,-170.83 200.03,-168.28 215,-166.5 312.8,-154.86 426.21,-151.08 500.34,-149.92"/>
<polygon fill="midnightblue" stroke="midnightblue" points="168.23,-170.17 159.04,-175.45 169.52,-177.06 168.23,-170.17"/>
</g>
<!-- Node7&#45;&gt;Node6 -->
<g id="edge11" class="edge">
<title>Node7&#45;&gt;Node6</title>
<path fill="none" stroke="midnightblue" d="M189.34,-197.17C207.5,-197.32 226.29,-197.26 243.94,-196.98"/>
<polygon fill="midnightblue" stroke="midnightblue" points="189.37,-193.67 179.33,-197.06 189.29,-200.67 189.37,-193.67"/>
</g>
<!-- Node7&#45;&gt;Node7 -->
<g id="edge13" class="edge">
<title>Node7&#45;&gt;Node7</title>
<path fill="none" stroke="midnightblue" d="M132.18,-215.59C127.26,-220.51 113.03,-224 89.5,-224 51.85,-224 38.02,-215.06 48.02,-205.66"/>
<polygon fill="midnightblue" stroke="midnightblue" points="135.65,-215.17 130.98,-205.66 128.7,-216.01 135.65,-215.17"/>
</g>
<!-- Node8&#45;&gt;Node8 -->
<g id="edge27" class="edge">
<title>Node8&#45;&gt;Node8</title>
<path fill="none" stroke="midnightblue" d="M881.77,-104.12C883.2,-110.36 869.61,-115.5 841,-115.5 802.04,-115.5 790.93,-105.96 807.67,-97.11"/>
<polygon fill="midnightblue" stroke="midnightblue" points="884.01,-101.42 874.33,-97.11 879.21,-106.51 884.01,-101.42"/>
</g>
<!-- Node9 -->
<g id="node9" class="node">
<title>Node9</title>
<g id="a_node9"><a xlink:href="classrare_1_1shared_1_1rare__core_1_1_rare_core.html#ae00c01f8599ea056e3e5afb873b756ba" target="_top" xlink:title=" ">
<polygon fill="white" stroke="black" points="516,-0.5 516,-30.5 646,-30.5 646,-0.5 516,-0.5"/>
<text text-anchor="start" x="524" y="-18.5" font-family="Helvetica,sans-Serif" font-size="10.00">rare.shared.rare_core.Rare</text>
<text text-anchor="middle" x="581" y="-7.5" font-family="Helvetica,sans-Serif" font-size="10.00">Core.deleteLater</text>
</a>
</g>
</g>
<!-- Node8&#45;&gt;Node9 -->
<g id="edge19" class="edge">
<title>Node8&#45;&gt;Node9</title>
<path fill="none" stroke="midnightblue" d="M754.16,-76.16C742.6,-73.98 730.95,-71.44 720,-68.5 683.31,-58.67 642.92,-42.49 615.37,-30.59"/>
<polygon fill="midnightblue" stroke="midnightblue" points="753.81,-79.65 764.28,-77.98 755.06,-72.76 753.81,-79.65"/>
</g>
<!-- Node11 -->
<g id="node11" class="node">
<title>Node11</title>
<g id="a_node11"><a xlink:href="classrare_1_1shared_1_1workers_1_1uninstall_1_1_uninstall_worker.html#af7b7791c46880f0718ec315e290a9f28" target="_top" xlink:title=" ">
<polygon fill="white" stroke="black" points="510,-67.5 510,-97.5 652,-97.5 652,-67.5 510,-67.5"/>
<text text-anchor="start" x="518" y="-85.5" font-family="Helvetica,sans-Serif" font-size="10.00">rare.shared.workers.uninstall.</text>
<text text-anchor="middle" x="581" y="-74.5" font-family="Helvetica,sans-Serif" font-size="10.00">UninstallWorker.run_real</text>
</a>
</g>
</g>
<!-- Node8&#45;&gt;Node11 -->
<g id="edge23" class="edge">
<title>Node8&#45;&gt;Node11</title>
<path fill="none" stroke="midnightblue" d="M727.2,-85.31C701.71,-84.82 675.38,-84.31 652.24,-83.86"/>
<polygon fill="midnightblue" stroke="midnightblue" points="727.22,-88.81 737.29,-85.51 727.36,-81.82 727.22,-88.81"/>
</g>
<!-- Node9&#45;&gt;Node9 -->
<g id="edge22" class="edge">
<title>Node9&#45;&gt;Node9</title>
<path fill="none" stroke="midnightblue" d="M626.19,-40.59C620.98,-45.51 605.92,-49 581,-49 541.13,-49 526.49,-40.06 537.08,-30.66"/>
<polygon fill="midnightblue" stroke="midnightblue" points="629.66,-40.13 624.92,-30.66 622.71,-41.02 629.66,-40.13"/>
</g>
<!-- Node10 -->
<g id="node10" class="node">
<title>Node10</title>
<g id="a_node10"><a xlink:href="classrare_1_1components_1_1tabs_1_1settings_1_1widgets_1_1wrappers_1_1_wrapper_widget.html#a208217f74b4d91485d90d654b788c103" target="_top" xlink:title=" ">
<polygon fill="white" stroke="black" points="215,-0.5 215,-30.5 442,-30.5 442,-0.5 215,-0.5"/>
<text text-anchor="start" x="223" y="-18.5" font-family="Helvetica,sans-Serif" font-size="10.00">rare.components.tabs.settings.widgets.wrappers.</text>
<text text-anchor="middle" x="328.5" y="-7.5" font-family="Helvetica,sans-Serif" font-size="10.00">WrapperWidget.data</text>
</a>
</g>
</g>
<!-- Node9&#45;&gt;Node10 -->
<g id="edge20" class="edge">
<title>Node9&#45;&gt;Node10</title>
<path fill="none" stroke="midnightblue" d="M505.59,-15.5C485.66,-15.5 463.66,-15.5 442.16,-15.5"/>
<polygon fill="midnightblue" stroke="midnightblue" points="505.82,-19 515.82,-15.5 505.82,-12 505.82,-19"/>
</g>
<!-- Node10&#45;&gt;Node10 -->
<g id="edge21" class="edge">
<title>Node10&#45;&gt;Node10</title>
<path fill="none" stroke="midnightblue" d="M371.18,-40.59C366.26,-45.51 352.03,-49 328.5,-49 290.85,-49 277.02,-40.06 287.02,-30.66"/>
<polygon fill="midnightblue" stroke="midnightblue" points="374.65,-40.17 369.98,-30.66 367.7,-41.01 374.65,-40.17"/>
</g>
<!-- Node11&#45;&gt;Node11 -->
<g id="edge26" class="edge">
<title>Node11&#45;&gt;Node11</title>
<path fill="none" stroke="midnightblue" d="M626.19,-107.59C620.98,-112.51 605.92,-116 581,-116 541.13,-116 526.49,-107.06 537.08,-97.66"/>
<polygon fill="midnightblue" stroke="midnightblue" points="629.66,-107.13 624.92,-97.66 622.71,-108.02 629.66,-107.13"/>
</g>
<!-- Node12 -->
<g id="node12" class="node">
<title>Node12</title>
<g id="a_node12"><a xlink:href="classrare_1_1shared_1_1workers_1_1worker_1_1_worker.html#ad22709b2e67308af35f55680d5a026e0" target="_top" xlink:title=" ">
<polygon fill="white" stroke="black" points="261,-67.5 261,-97.5 396,-97.5 396,-67.5 261,-67.5"/>
<text text-anchor="start" x="269" y="-85.5" font-family="Helvetica,sans-Serif" font-size="10.00">rare.shared.workers.worker.</text>
<text text-anchor="middle" x="328.5" y="-74.5" font-family="Helvetica,sans-Serif" font-size="10.00">Worker.run</text>
</a>
</g>
</g>
<!-- Node11&#45;&gt;Node12 -->
<g id="edge24" class="edge">
<title>Node11&#45;&gt;Node12</title>
<path fill="none" stroke="midnightblue" d="M499.69,-82.5C466.28,-82.5 427.96,-82.5 396.14,-82.5"/>
<polygon fill="midnightblue" stroke="midnightblue" points="499.89,-86 509.89,-82.5 499.89,-79 499.89,-86"/>
</g>
<!-- Node12&#45;&gt;Node12 -->
<g id="edge25" class="edge">
<title>Node12&#45;&gt;Node12</title>
<path fill="none" stroke="midnightblue" d="M371.18,-107.59C366.26,-112.51 352.03,-116 328.5,-116 290.85,-116 277.02,-107.06 287.02,-97.66"/>
<polygon fill="midnightblue" stroke="midnightblue" points="374.65,-107.17 369.98,-97.66 367.7,-108.01 374.65,-107.17"/>
</g>
<!-- Node13&#45;&gt;Node13 -->
<g id="edge29" class="edge">
<title>Node13&#45;&gt;Node13</title>
<path fill="none" stroke="midnightblue" d="M879.74,-50.96C874.93,-55.68 862.02,-59 841,-59 806.51,-59 793.85,-50.06 803.01,-40.66"/>
<polygon fill="midnightblue" stroke="midnightblue" points="883.2,-50.38 878.99,-40.66 876.22,-50.89 883.2,-50.38"/>
</g>
</g>
</svg>
