<?xml version="1.0" encoding="UTF-8" standalone="no"?>
<!DOCTYPE svg PUBLIC "-//W3C//DTD SVG 1.1//EN"
 "http://www.w3.org/Graphics/SVG/1.1/DTD/svg11.dtd">
<!-- Generated by graphviz version 2.49.3 (20211027.1534)
 -->
<!-- Title: applications_dir Pages: 1 -->
<svg width="1064pt" height="315pt"
 viewBox="0.00 0.00 1064.00 315.00" xmlns="http://www.w3.org/2000/svg" xmlns:xlink="http://www.w3.org/1999/xlink">
<g id="graph0" class="graph" transform="scale(1 1) rotate(0) translate(4 311)">
<title>applications_dir</title>
<polygon fill="white" stroke="transparent" points="-4,4 -4,-311 1060,-311 1060,4 -4,4"/>
<!-- Node1 -->
<g id="node1" class="node">
<title>Node1</title>
<g id="a_node1"><a xlink:title=" ">
<polygon fill="#bfbfbf" stroke="black" points="972,-135 972,-154 1056,-154 1056,-135 972,-135"/>
<text text-anchor="middle" x="1014" y="-142" font-family="Helvetica,sans-Serif" font-size="10.00">applications_dir</text>
</a>
</g>
</g>
<!-- Node1&#45;&gt;Node1 -->
<g id="edge1" class="edge">
<title>Node1&#45;&gt;Node1</title>
<path fill="none" stroke="midnightblue" d="M1037.44,-163.53C1036.16,-168.63 1028.35,-172.5 1014,-172.5 991.61,-172.5 985.13,-163.07 994.58,-154.26"/>
<polygon fill="midnightblue" stroke="midnightblue" points="1040.61,-162.04 1033.42,-154.26 1034.18,-164.82 1040.61,-162.04"/>
</g>
<!-- Node2 -->
<g id="node2" class="node">
<title>Node2</title>
<g id="a_node2"><a xlink:href="namespacerare_1_1utils_1_1paths.html#af4d56a3b4065900877c517e24bddc366" target="_top" xlink:title=" ">
<polygon fill="white" stroke="black" points="838,-135 838,-154 936,-154 936,-135 838,-135"/>
<text text-anchor="middle" x="887" y="-142" font-family="Helvetica,sans-Serif" font-size="10.00">desktop_icon_path</text>
</a>
</g>
</g>
<!-- Node1&#45;&gt;Node2 -->
<g id="edge2" class="edge">
<title>Node1&#45;&gt;Node2</title>
<path fill="none" stroke="midnightblue" d="M961.63,-144.5C953.21,-144.5 944.51,-144.5 936.17,-144.5"/>
<polygon fill="midnightblue" stroke="midnightblue" points="961.72,-148 971.72,-144.5 961.72,-141 961.72,-148"/>
</g>
<!-- Node2&#45;&gt;Node2 -->
<g id="edge22" class="edge">
<title>Node2&#45;&gt;Node2</title>
<path fill="none" stroke="midnightblue" d="M910.44,-163.53C909.16,-168.63 901.35,-172.5 887,-172.5 864.61,-172.5 858.13,-163.07 867.58,-154.26"/>
<polygon fill="midnightblue" stroke="midnightblue" points="913.61,-162.04 906.42,-154.26 907.18,-164.82 913.61,-162.04"/>
</g>
<!-- Node3 -->
<g id="node3" class="node">
<title>Node3</title>
<g id="a_node3"><a xlink:href="namespacerare_1_1utils_1_1steam__shortcuts.html#a357bd54770bbc308e805d3cc81bdf8fd" target="_top" xlink:title=" ">
<polygon fill="white" stroke="black" points="656,-191.5 656,-221.5 802,-221.5 802,-191.5 656,-191.5"/>
<text text-anchor="start" x="664" y="-209.5" font-family="Helvetica,sans-Serif" font-size="10.00">rare.utils.steam_shortcuts.add</text>
<text text-anchor="middle" x="729" y="-198.5" font-family="Helvetica,sans-Serif" font-size="10.00">_steam_shortcut</text>
</a>
</g>
</g>
<!-- Node2&#45;&gt;Node3 -->
<g id="edge3" class="edge">
<title>Node2&#45;&gt;Node3</title>
<path fill="none" stroke="midnightblue" d="M856.14,-158.35C840.2,-165.57 820.18,-174.35 802,-181.5 793.38,-184.89 784.09,-188.29 775.14,-191.45"/>
<polygon fill="midnightblue" stroke="midnightblue" points="857.84,-161.43 865.48,-154.09 854.93,-155.06 857.84,-161.43"/>
</g>
<!-- Node6 -->
<g id="node6" class="node">
<title>Node6</title>
<g id="a_node6"><a xlink:href="namespacerare_1_1utils_1_1paths.html#a6013706d2f5027e7d2979078186b11e5" target="_top" xlink:title="Creates a desktop or start menu shortcut link.">
<polygon fill="white" stroke="black" points="677,-135 677,-154 781,-154 781,-135 677,-135"/>
<text text-anchor="middle" x="729" y="-142" font-family="Helvetica,sans-Serif" font-size="10.00">create_desktop_link</text>
</a>
</g>
</g>
<!-- Node2&#45;&gt;Node6 -->
<g id="edge9" class="edge">
<title>Node2&#45;&gt;Node6</title>
<path fill="none" stroke="midnightblue" d="M827.57,-144.5C812.32,-144.5 796,-144.5 781.17,-144.5"/>
<polygon fill="midnightblue" stroke="midnightblue" points="827.92,-148 837.92,-144.5 827.92,-141 827.92,-148"/>
</g>
<!-- Node11 -->
<g id="node11" class="node">
<title>Node11</title>
<g id="a_node11"><a xlink:href="classrare_1_1shared_1_1image__manager_1_1_image_manager.html#ac4af61e14fba2797bc2b836d35c2be32" target="_top" xlink:title=" ">
<polygon fill="white" stroke="black" points="659,-34.5 659,-64.5 799,-64.5 799,-34.5 659,-34.5"/>
<text text-anchor="start" x="667" y="-52.5" font-family="Helvetica,sans-Serif" font-size="10.00">rare.shared.image_manager.</text>
<text text-anchor="middle" x="729" y="-41.5" font-family="Helvetica,sans-Serif" font-size="10.00">ImageManager.has_pixmaps</text>
</a>
</g>
</g>
<!-- Node2&#45;&gt;Node11 -->
<g id="edge23" class="edge">
<title>Node2&#45;&gt;Node11</title>
<path fill="none" stroke="midnightblue" d="M861.45,-129.55C832.32,-111.81 784.04,-82.41 754.8,-64.6"/>
<polygon fill="midnightblue" stroke="midnightblue" points="859.82,-132.66 870.18,-134.87 863.46,-126.68 859.82,-132.66"/>
</g>
<!-- Node3&#45;&gt;Node3 -->
<g id="edge4" class="edge">
<title>Node3&#45;&gt;Node3</title>
<path fill="none" stroke="midnightblue" d="M757.07,-231.96C753.59,-236.68 744.23,-240 729,-240 704,-240 694.83,-231.06 701.47,-221.66"/>
<polygon fill="midnightblue" stroke="midnightblue" points="760.55,-231.46 756.53,-221.66 753.56,-231.83 760.55,-231.46"/>
</g>
<!-- Node4 -->
<g id="node4" class="node">
<title>Node4</title>
<g id="a_node4"><a xlink:href="classrare_1_1components_1_1tabs_1_1library_1_1widgets_1_1game__widget_1_1_game_widget.html#a1c498583fd154d3fea8c59b543395ce5" target="_top" xlink:title=" ">
<polygon fill="white" stroke="black" points="420,-191.5 420,-221.5 620,-221.5 620,-191.5 420,-191.5"/>
<text text-anchor="start" x="428" y="-209.5" font-family="Helvetica,sans-Serif" font-size="10.00">rare.components.tabs.library.widgets.game</text>
<text text-anchor="middle" x="520" y="-198.5" font-family="Helvetica,sans-Serif" font-size="10.00">_widget.GameWidget.mousePressEvent</text>
</a>
</g>
</g>
<!-- Node3&#45;&gt;Node4 -->
<g id="edge5" class="edge">
<title>Node3&#45;&gt;Node4</title>
<path fill="none" stroke="midnightblue" d="M645.75,-206.5C637.34,-206.5 628.73,-206.5 620.16,-206.5"/>
<polygon fill="midnightblue" stroke="midnightblue" points="645.89,-210 655.89,-206.5 645.89,-203 645.89,-210"/>
</g>
<!-- Node5 -->
<g id="node5" class="node">
<title>Node5</title>
<g id="a_node5"><a xlink:href="namespacerare_1_1utils_1_1steam__shortcuts.html#a5c50fef72cf309de8d38178d9008e107" target="_top" xlink:title=" ">
<polygon fill="white" stroke="black" points="445.5,-258.5 445.5,-288.5 594.5,-288.5 594.5,-258.5 445.5,-258.5"/>
<text text-anchor="start" x="453.5" y="-276.5" font-family="Helvetica,sans-Serif" font-size="10.00">rare.utils.steam_shortcuts.print</text>
<text text-anchor="middle" x="520" y="-265.5" font-family="Helvetica,sans-Serif" font-size="10.00">_shortcuts</text>
</a>
</g>
</g>
<!-- Node3&#45;&gt;Node5 -->
<g id="edge7" class="edge">
<title>Node3&#45;&gt;Node5</title>
<path fill="none" stroke="midnightblue" d="M684.67,-225.37C665.14,-233.46 641.65,-242.6 620,-249.5 609.97,-252.69 599.26,-255.7 588.72,-258.43"/>
<polygon fill="midnightblue" stroke="midnightblue" points="686.04,-228.59 693.92,-221.51 683.34,-222.14 686.04,-228.59"/>
</g>
<!-- Node4&#45;&gt;Node4 -->
<g id="edge6" class="edge">
<title>Node4&#45;&gt;Node4</title>
<path fill="none" stroke="midnightblue" d="M556.96,-231.96C552.37,-236.68 540.05,-240 520,-240 487.09,-240 475.01,-231.06 483.75,-221.66"/>
<polygon fill="midnightblue" stroke="midnightblue" points="560.43,-231.39 556.25,-221.66 553.45,-231.88 560.43,-231.39"/>
</g>
<!-- Node5&#45;&gt;Node5 -->
<g id="edge8" class="edge">
<title>Node5&#45;&gt;Node5</title>
<path fill="none" stroke="midnightblue" d="M556.96,-298.96C552.37,-303.68 540.05,-307 520,-307 487.09,-307 475.01,-298.06 483.75,-288.66"/>
<polygon fill="midnightblue" stroke="midnightblue" points="560.43,-298.39 556.25,-288.66 553.45,-298.88 560.43,-298.39"/>
</g>
<!-- Node6&#45;&gt;Node4 -->
<g id="edge13" class="edge">
<title>Node6&#45;&gt;Node4</title>
<path fill="none" stroke="midnightblue" d="M692.55,-157.47C671.58,-164.94 644.44,-174.24 620,-181.5 608.36,-184.96 595.86,-188.35 583.8,-191.48"/>
<polygon fill="midnightblue" stroke="midnightblue" points="693.77,-160.75 702.01,-154.08 691.41,-154.16 693.77,-160.75"/>
</g>
<!-- Node6&#45;&gt;Node6 -->
<g id="edge10" class="edge">
<title>Node6&#45;&gt;Node6</title>
<path fill="none" stroke="midnightblue" d="M758.49,-163.15C757.26,-168.44 747.43,-172.5 729,-172.5 700.92,-172.5 692.8,-163.07 704.65,-154.26"/>
<polygon fill="midnightblue" stroke="midnightblue" points="761.39,-161.16 753.35,-154.26 755.32,-164.67 761.39,-161.16"/>
</g>
<!-- Node7 -->
<g id="node7" class="node">
<title>Node7</title>
<g id="a_node7"><a xlink:href="namespacerare_1_1main.html#a532d4b899b39c9f08370e91c54b63e33" target="_top" xlink:title=" ">
<polygon fill="white" stroke="black" points="480,-135 480,-154 560,-154 560,-135 480,-135"/>
<text text-anchor="middle" x="520" y="-142" font-family="Helvetica,sans-Serif" font-size="10.00">rare.main.main</text>
</a>
</g>
</g>
<!-- Node6&#45;&gt;Node7 -->
<g id="edge11" class="edge">
<title>Node6&#45;&gt;Node7</title>
<path fill="none" stroke="midnightblue" d="M666.41,-144.5C632.01,-144.5 590.17,-144.5 560.22,-144.5"/>
<polygon fill="midnightblue" stroke="midnightblue" points="666.83,-148 676.83,-144.5 666.83,-141 666.83,-148"/>
</g>
<!-- Node8 -->
<g id="node8" class="node">
<title>Node8</title>
<g id="a_node8"><a xlink:href="classrare_1_1components_1_1tabs_1_1downloads_1_1_downloads_tab.html#ad688e83ab96ce32b1ed9e5ccc83d0ee8" target="_top" xlink:title="Stops the active download, by optionally skipping the queue.">
<polygon fill="white" stroke="black" points="439.5,-67.5 439.5,-97.5 600.5,-97.5 600.5,-67.5 439.5,-67.5"/>
<text text-anchor="start" x="447.5" y="-85.5" font-family="Helvetica,sans-Serif" font-size="10.00">rare.components.tabs.downloads.</text>
<text text-anchor="middle" x="520" y="-74.5" font-family="Helvetica,sans-Serif" font-size="10.00">DownloadsTab.stop_download</text>
</a>
</g>
</g>
<!-- Node6&#45;&gt;Node8 -->
<g id="edge14" class="edge">
<title>Node6&#45;&gt;Node8</title>
<path fill="none" stroke="midnightblue" d="M686.28,-132C653.15,-122.08 606.69,-108.17 571.47,-97.62"/>
<polygon fill="midnightblue" stroke="midnightblue" points="685.53,-135.43 696.11,-134.95 687.53,-128.73 685.53,-135.43"/>
</g>
<!-- Node7&#45;&gt;Node7 -->
<g id="edge12" class="edge">
<title>Node7&#45;&gt;Node7</title>
<path fill="none" stroke="midnightblue" d="M558.97,-161.51C559.71,-167.57 546.72,-172.5 520,-172.5 482.83,-172.5 472.23,-162.96 488.2,-154.11"/>
<polygon fill="midnightblue" stroke="midnightblue" points="561.27,-158.86 551.8,-154.11 556.24,-163.73 561.27,-158.86"/>
</g>
<!-- Node8&#45;&gt;Node8 -->
<g id="edge21" class="edge">
<title>Node8&#45;&gt;Node8</title>
<path fill="none" stroke="midnightblue" d="M556.96,-107.96C552.37,-112.68 540.05,-116 520,-116 487.09,-116 475.01,-107.06 483.75,-97.66"/>
<polygon fill="midnightblue" stroke="midnightblue" points="560.43,-107.39 556.25,-97.66 553.45,-107.88 560.43,-107.39"/>
</g>
<!-- Node9 -->
<g id="node9" class="node">
<title>Node9</title>
<g id="a_node9"><a xlink:href="classrare_1_1components_1_1tabs_1_1downloads_1_1_downloads_tab.html#a91ee81dee5df73fb4e3057d7c12624e0" target="_top" xlink:title=" ">
<polygon fill="white" stroke="black" points="215,-89.5 215,-119.5 384,-119.5 384,-89.5 215,-89.5"/>
<text text-anchor="start" x="223" y="-107.5" font-family="Helvetica,sans-Serif" font-size="10.00">rare.components.tabs.downloads.</text>
<text text-anchor="middle" x="299.5" y="-96.5" font-family="Helvetica,sans-Serif" font-size="10.00">DownloadsTab.is_download_active</text>
</a>
</g>
</g>
<!-- Node8&#45;&gt;Node9 -->
<g id="edge15" class="edge">
<title>Node8&#45;&gt;Node9</title>
<path fill="none" stroke="midnightblue" d="M429.3,-91.53C414.44,-93.03 399.07,-94.58 384.36,-96.06"/>
<polygon fill="midnightblue" stroke="midnightblue" points="429.9,-94.99 439.5,-90.5 429.2,-88.02 429.9,-94.99"/>
</g>
<!-- Node9&#45;&gt;Node9 -->
<g id="edge16" class="edge">
<title>Node9&#45;&gt;Node9</title>
<path fill="none" stroke="midnightblue" d="M336.81,-129.96C332.18,-134.68 319.75,-138 299.5,-138 266.28,-138 254.08,-129.06 262.9,-119.66"/>
<polygon fill="midnightblue" stroke="midnightblue" points="340.28,-129.39 336.1,-119.66 333.3,-129.88 340.28,-129.39"/>
</g>
<!-- Node10 -->
<g id="node10" class="node">
<title>Node10</title>
<g id="a_node10"><a xlink:href="classrare_1_1components_1_1tabs_1_1downloads_1_1_downloads_tab.html#a11794ca2c7c3add2ed90cd2edb79b927" target="_top" xlink:title=" ">
<polygon fill="white" stroke="black" points="0,-89.5 0,-119.5 179,-119.5 179,-89.5 0,-89.5"/>
<text text-anchor="start" x="8" y="-107.5" font-family="Helvetica,sans-Serif" font-size="10.00">rare.components.tabs.downloads.</text>
<text text-anchor="middle" x="89.5" y="-96.5" font-family="Helvetica,sans-Serif" font-size="10.00">DownloadsTab.update_queues_count</text>
</a>
</g>
</g>
<!-- Node9&#45;&gt;Node10 -->
<g id="edge17" class="edge">
<title>Node9&#45;&gt;Node10</title>
<path fill="none" stroke="midnightblue" d="M204.54,-97.78C196.09,-97.73 187.54,-97.74 179.13,-97.82"/>
<polygon fill="midnightblue" stroke="midnightblue" points="204.77,-101.28 214.8,-97.87 204.83,-94.28 204.77,-101.28"/>
</g>
<!-- Node10&#45;&gt;Node8 -->
<g id="edge19" class="edge">
<title>Node10&#45;&gt;Node8</title>
<path fill="none" stroke="midnightblue" d="M165.96,-87.57C182.06,-84.63 199.03,-82.03 215,-80.5 290.92,-73.25 377.99,-74.82 439.43,-77.57"/>
<polygon fill="midnightblue" stroke="midnightblue" points="165.24,-84.14 156.07,-89.44 166.54,-91.02 165.24,-84.14"/>
</g>
<!-- Node10&#45;&gt;Node9 -->
<g id="edge18" class="edge">
<title>Node10&#45;&gt;Node9</title>
<path fill="none" stroke="midnightblue" d="M189.16,-111.24C197.74,-111.27 206.36,-111.23 214.8,-111.13"/>
<polygon fill="midnightblue" stroke="midnightblue" points="189.15,-107.74 179.13,-111.18 189.11,-114.74 189.15,-107.74"/>
</g>
<!-- Node10&#45;&gt;Node10 -->
<g id="edge20" class="edge">
<title>Node10&#45;&gt;Node10</title>
<path fill="none" stroke="midnightblue" d="M126.81,-129.96C122.18,-134.68 109.75,-138 89.5,-138 56.28,-138 44.08,-129.06 52.9,-119.66"/>
<polygon fill="midnightblue" stroke="midnightblue" points="130.28,-129.39 126.1,-119.66 123.3,-129.88 130.28,-129.39"/>
</g>
<!-- Node11&#45;&gt;Node11 -->
<g id="edge26" class="edge">
<title>Node11&#45;&gt;Node11</title>
<path fill="none" stroke="midnightblue" d="M757.07,-74.96C753.59,-79.68 744.23,-83 729,-83 704,-83 694.83,-74.06 701.47,-64.66"/>
<polygon fill="midnightblue" stroke="midnightblue" points="760.55,-74.46 756.53,-64.66 753.56,-74.83 760.55,-74.46"/>
</g>
<!-- Node12 -->
<g id="node12" class="node">
<title>Node12</title>
<g id="a_node12"><a xlink:href="classrare_1_1shared_1_1image__manager_1_1_image_manager.html#afdc334679fb933b81874369a87017d12" target="_top" xlink:title=" ">
<polygon fill="white" stroke="black" points="425,-0.5 425,-30.5 615,-30.5 615,-0.5 425,-0.5"/>
<text text-anchor="start" x="433" y="-18.5" font-family="Helvetica,sans-Serif" font-size="10.00">rare.shared.image_manager.</text>
<text text-anchor="middle" x="520" y="-7.5" font-family="Helvetica,sans-Serif" font-size="10.00">ImageManager.download_image_launch</text>
</a>
</g>
</g>
<!-- Node11&#45;&gt;Node12 -->
<g id="edge24" class="edge">
<title>Node11&#45;&gt;Node12</title>
<path fill="none" stroke="midnightblue" d="M648.57,-36.45C636.8,-34.52 624.6,-32.52 612.61,-30.55"/>
<polygon fill="midnightblue" stroke="midnightblue" points="648.35,-39.96 658.78,-38.13 649.48,-33.06 648.35,-39.96"/>
</g>
<!-- Node12&#45;&gt;Node12 -->
<g id="edge25" class="edge">
<title>Node12&#45;&gt;Node12</title>
<path fill="none" stroke="midnightblue" d="M556.96,-40.96C552.37,-45.68 540.05,-49 520,-49 487.09,-49 475.01,-40.06 483.75,-30.66"/>
<polygon fill="midnightblue" stroke="midnightblue" points="560.43,-40.39 556.25,-30.66 553.45,-40.88 560.43,-40.39"/>
</g>
</g>
</svg>
