<?xml version="1.0" encoding="UTF-8" standalone="no"?>
<!DOCTYPE svg PUBLIC "-//W3C//DTD SVG 1.1//EN"
 "http://www.w3.org/Graphics/SVG/1.1/DTD/svg11.dtd">
<!-- Generated by graphviz version 2.49.3 (20211027.1534)
 -->
<!-- Title: compat_shaders_dir Pages: 1 -->
<svg width="332pt" height="46pt"
 viewBox="0.00 0.00 332.00 46.00" xmlns="http://www.w3.org/2000/svg" xmlns:xlink="http://www.w3.org/1999/xlink">
<g id="graph0" class="graph" transform="scale(1 1) rotate(0) translate(4 42)">
<title>compat_shaders_dir</title>
<polygon fill="white" stroke="transparent" points="-4,4 -4,-42 328,-42 328,4 -4,4"/>
<!-- Node1 -->
<g id="node1" class="node">
<title>Node1</title>
<g id="a_node1"><a xlink:title=" ">
<polygon fill="#bfbfbf" stroke="black" points="0,-0.5 0,-19.5 104,-19.5 104,-0.5 0,-0.5"/>
<text text-anchor="middle" x="52" y="-7.5" font-family="Helvetica,sans-Serif" font-size="10.00">compat_shaders_dir</text>
</a>
</g>
</g>
<!-- Node1&#45;&gt;Node1 -->
<g id="edge1" class="edge">
<title>Node1&#45;&gt;Node1</title>
<path fill="none" stroke="midnightblue" d="M31.04,-19.76C20.84,-28.57 27.83,-38 52,-38 67.49,-38 75.92,-34.13 77.3,-29.03"/>
<polygon fill="midnightblue" stroke="midnightblue" points="80.37,-27.33 72.96,-19.76 74.03,-30.3 80.37,-27.33"/>
</g>
<!-- Node2 -->
<g id="node2" class="node">
<title>Node2</title>
<g id="a_node2"><a xlink:href="namespacerare_1_1utils_1_1paths.html#a1eb8fcf1882e8fd3a8bdd2d76bb9c44f" target="_top" xlink:title=" ">
<polygon fill="white" stroke="black" points="140,-0.5 140,-19.5 237,-19.5 237,-0.5 140,-0.5"/>
<text text-anchor="middle" x="188.5" y="-7.5" font-family="Helvetica,sans-Serif" font-size="10.00">proton_compat_dir</text>
</a>
</g>
</g>
<!-- Node1&#45;&gt;Node2 -->
<g id="edge2" class="edge">
<title>Node1&#45;&gt;Node2</title>
<path fill="none" stroke="midnightblue" d="M104.23,-10C112.57,-10 121.26,-10 129.74,-10"/>
<polygon fill="midnightblue" stroke="midnightblue" points="129.95,-13.5 139.95,-10 129.95,-6.5 129.95,-13.5"/>
</g>
<!-- Node2&#45;&gt;Node2 -->
<g id="edge5" class="edge">
<title>Node2&#45;&gt;Node2</title>
<path fill="none" stroke="midnightblue" d="M171.85,-19.76C163.76,-28.57 169.3,-38 188.5,-38 200.5,-38 207.16,-34.31 208.5,-29.4"/>
<polygon fill="midnightblue" stroke="midnightblue" points="211.74,-28.05 205.15,-19.76 205.12,-30.35 211.74,-28.05"/>
</g>
<!-- Node3 -->
<g id="node3" class="node">
<title>Node3</title>
<g id="a_node3"><a xlink:href="namespacerare_1_1utils_1_1paths.html#aa160c55be4d6aad43da3d35e8a1dc97b" target="_top" xlink:title=" ">
<polygon fill="white" stroke="black" points="273,-0.5 273,-19.5 324,-19.5 324,-0.5 273,-0.5"/>
<text text-anchor="middle" x="298.5" y="-7.5" font-family="Helvetica,sans-Serif" font-size="10.00">data_dir</text>
</a>
</g>
</g>
<!-- Node2&#45;&gt;Node3 -->
<g id="edge3" class="edge">
<title>Node2&#45;&gt;Node3</title>
<path fill="none" stroke="midnightblue" d="M237.18,-10C245.75,-10 254.53,-10 262.65,-10"/>
<polygon fill="midnightblue" stroke="midnightblue" points="262.86,-13.5 272.86,-10 262.86,-6.5 262.86,-13.5"/>
</g>
<!-- Node3&#45;&gt;Node3 -->
<g id="edge4" class="edge">
<title>Node3&#45;&gt;Node3</title>
<path fill="none" stroke="midnightblue" d="M281.85,-19.76C273.76,-28.57 279.3,-38 298.5,-38 310.5,-38 317.16,-34.31 318.5,-29.4"/>
<polygon fill="midnightblue" stroke="midnightblue" points="321.74,-28.05 315.15,-19.76 315.12,-30.35 321.74,-28.05"/>
</g>
</g>
</svg>
