<?xml version="1.0" encoding="UTF-8" standalone="no"?>
<!DOCTYPE svg PUBLIC "-//W3C//DTD SVG 1.1//EN"
 "http://www.w3.org/Graphics/SVG/1.1/DTD/svg11.dtd">
<!-- Generated by graphviz version 2.49.3 (20211027.1534)
 -->
<!-- Title: set_envvar Pages: 1 -->
<!--zoomable 203 -->
<svg id="main" version="1.1" xmlns="http://www.w3.org/2000/svg" xmlns:xlink="http://www.w3.org/1999/xlink" xml:space="preserve" onload="init(evt)">
<style type="text/css"><![CDATA[
.edge:hover path { stroke: red; }
.edge:hover polygon { stroke: red; fill: red; }
]]></style>
<script type="text/javascript"><![CDATA[
var edges = document.getElementsByTagName('g');
if (edges && edges.length) {
  for (var i=0;i<edges.length;i++) {
    if (edges[i].id.substr(0,4)=='edge') {
      edges[i].setAttribute('class','edge');
    }
  }
}
]]></script>
        <defs>
                <circle id="rim" cx="0" cy="0" r="7"/>
                <circle id="rim2" cx="0" cy="0" r="3.5"/>
                <g id="zoomPlus">
                        <use xlink:href="#rim" fill="#404040">
                                <set attributeName="fill" to="#808080" begin="zoomplus.mouseover" end="zoomplus.mouseout"/>
                        </use>
                        <path d="M-4,0h8M0,-4v8" fill="none" stroke="white" stroke-width="1.5" pointer-events="none"/>
                </g>
                <g id="zoomMin">
                        <use xlink:href="#rim" fill="#404040">
                                <set attributeName="fill" to="#808080" begin="zoomminus.mouseover" end="zoomminus.mouseout"/>
                        </use>
                        <path d="M-4,0h8" fill="none" stroke="white" stroke-width="1.5" pointer-events="none"/>
                </g>
                <g id="dirArrow">
                        <path fill="none" stroke="white" stroke-width="1.5" d="M0,-3.0v7 M-2.5,-0.5L0,-3.0L2.5,-0.5"/>
                </g>
               <g id="resetDef">
                       <use xlink:href="#rim2" fill="#404040">
                               <set attributeName="fill" to="#808080" begin="reset.mouseover" end="reset.mouseout"/>
                       </use>
               </g>
        </defs>

<script type="text/javascript">
var viewWidth = 1014;
var viewHeight = 203;
var sectionId = 'dynsection-49';
</script>
<script xlink:href="svgpan.js"/>
<svg id="graph" class="graph">
<g id="viewport">
<title>set_envvar</title>
<polygon fill="white" stroke="transparent" points="-4,4 -4,-198.5 1010,-198.5 1010,4 -4,4"/>
<!-- Node1 -->
<g id="node1" class="node">
<title>Node1</title>
<g id="a_node1"><a xlink:title=" ">
<polygon fill="#bfbfbf" stroke="black" points="941,-70 941,-89 1006,-89 1006,-70 941,-70"/>
<text text-anchor="middle" x="973.5" y="-77" font-family="Helvetica,sans-Serif" font-size="10.00">set_envvar</text>
</a>
</g>
</g>
<!-- Node1&#45;&gt;Node1 -->
<g id="edge7" class="edge">
<title>Node1&#45;&gt;Node1</title>
<path fill="none" stroke="midnightblue" d="M1000.75,-98.15C999.61,-103.44 990.53,-107.5 973.5,-107.5 947.55,-107.5 940.05,-98.07 951,-89.26"/>
<polygon fill="midnightblue" stroke="midnightblue" points="1003.8,-96.43 996,-89.26 997.62,-99.73 1003.8,-96.43"/>
</g>
<!-- Node2 -->
<g id="node2" class="node">
<title>Node2</title>
<g id="a_node2"><a xlink:href="namespacerare_1_1utils_1_1config__helper.html#abb61ad01d47ef603ef23d607d4e6de35" target="_top" xlink:title=" ">
<polygon fill="white" stroke="black" points="790,-101 790,-120 862,-120 862,-101 790,-101"/>
<text text-anchor="middle" x="826" y="-108" font-family="Helvetica,sans-Serif" font-size="10.00">save_envvar</text>
</a>
</g>
</g>
<!-- Node1&#45;&gt;Node2 -->
<g id="edge1" class="edge">
<title>Node1&#45;&gt;Node2</title>
<path fill="none" stroke="midnightblue" d="M930.97,-88.35C909.2,-92.99 882.82,-98.61 862.08,-103.03"/>
<polygon fill="midnightblue" stroke="midnightblue" points="931.88,-91.73 940.93,-86.23 930.42,-84.89 931.88,-91.73"/>
</g>
<!-- Node5 -->
<g id="node5" class="node">
<title>Node5</title>
<g id="a_node5"><a xlink:href="classrare_1_1models_1_1game_1_1_rare_game.html#a482bcbd6705c56fd50bd1e7461f245e2" target="_top" xlink:title=" ">
<polygon fill="white" stroke="black" points="747,-33.5 747,-63.5 905,-63.5 905,-33.5 747,-33.5"/>
<text text-anchor="start" x="755" y="-51.5" font-family="Helvetica,sans-Serif" font-size="10.00">rare.models.game.RareGame.set</text>
<text text-anchor="middle" x="826" y="-40.5" font-family="Helvetica,sans-Serif" font-size="10.00">_steam_appid</text>
</a>
</g>
</g>
<!-- Node1&#45;&gt;Node5 -->
<g id="edge8" class="edge">
<title>Node1&#45;&gt;Node5</title>
<path fill="none" stroke="midnightblue" d="M930.9,-70.64C920.49,-68.42 909.02,-65.98 897.63,-63.55"/>
<polygon fill="midnightblue" stroke="midnightblue" points="930.42,-74.11 940.93,-72.77 931.88,-67.27 930.42,-74.11"/>
</g>
<!-- Node2&#45;&gt;Node2 -->
<g id="edge2" class="edge">
<title>Node2&#45;&gt;Node2</title>
<path fill="none" stroke="midnightblue" d="M853.25,-129.15C852.11,-134.44 843.03,-138.5 826,-138.5 800.05,-138.5 792.55,-129.07 803.5,-120.26"/>
<polygon fill="midnightblue" stroke="midnightblue" points="856.3,-127.43 848.5,-120.26 850.12,-130.73 856.3,-127.43"/>
</g>
<!-- Node3 -->
<g id="node3" class="node">
<title>Node3</title>
<g id="a_node3"><a xlink:href="namespacerare_1_1utils_1_1config__helper.html#a2140eb21904d70d460af985c8bf9a244" target="_top" xlink:title=" ">
<polygon fill="white" stroke="black" points="569,-157 569,-176 695,-176 695,-157 569,-157"/>
<text text-anchor="middle" x="632" y="-164" font-family="Helvetica,sans-Serif" font-size="10.00">save_proton_compatdata</text>
</a>
</g>
</g>
<!-- Node2&#45;&gt;Node3 -->
<g id="edge3" class="edge">
<title>Node2&#45;&gt;Node3</title>
<path fill="none" stroke="midnightblue" d="M787.84,-123.34C765.66,-130.81 736.87,-140.16 711,-147.5 699.33,-150.81 686.59,-154.06 674.85,-156.92"/>
<polygon fill="midnightblue" stroke="midnightblue" points="789.19,-126.58 797.53,-120.05 786.94,-119.95 789.19,-126.58"/>
</g>
<!-- Node4 -->
<g id="node4" class="node">
<title>Node4</title>
<g id="a_node4"><a xlink:href="namespacerare_1_1utils_1_1config__helper.html#abe4da597ff958ca26dbdcf78de1af291" target="_top" xlink:title=" ">
<polygon fill="white" stroke="black" points="586.5,-101 586.5,-120 677.5,-120 677.5,-101 586.5,-101"/>
<text text-anchor="middle" x="632" y="-108" font-family="Helvetica,sans-Serif" font-size="10.00">save_wine_prefix</text>
</a>
</g>
</g>
<!-- Node2&#45;&gt;Node4 -->
<g id="edge5" class="edge">
<title>Node2&#45;&gt;Node4</title>
<path fill="none" stroke="midnightblue" d="M779.75,-110.5C748.99,-110.5 708.47,-110.5 677.81,-110.5"/>
<polygon fill="midnightblue" stroke="midnightblue" points="779.78,-114 789.78,-110.5 779.78,-107 779.78,-114"/>
</g>
<!-- Node3&#45;&gt;Node3 -->
<g id="edge4" class="edge">
<title>Node3&#45;&gt;Node3</title>
<path fill="none" stroke="midnightblue" d="M668.37,-184C668.37,-189.84 656.24,-194.5 632,-194.5 597.52,-194.5 587.55,-185.07 602.1,-176.26"/>
<polygon fill="midnightblue" stroke="midnightblue" points="671,-181.69 661.9,-176.26 665.63,-186.17 671,-181.69"/>
</g>
<!-- Node4&#45;&gt;Node4 -->
<g id="edge6" class="edge">
<title>Node4&#45;&gt;Node4</title>
<path fill="none" stroke="midnightblue" d="M668.37,-128C668.37,-133.84 656.24,-138.5 632,-138.5 597.52,-138.5 587.55,-129.07 602.1,-120.26"/>
<polygon fill="midnightblue" stroke="midnightblue" points="671,-125.69 661.9,-120.26 665.63,-130.17 671,-125.69"/>
</g>
<!-- Node5&#45;&gt;Node5 -->
<g id="edge9" class="edge">
<title>Node5&#45;&gt;Node5</title>
<path fill="none" stroke="midnightblue" d="M851.94,-73.96C848.72,-78.68 840.08,-82 826,-82 802.9,-82 794.42,-73.06 800.56,-63.66"/>
<polygon fill="midnightblue" stroke="midnightblue" points="855.42,-73.48 851.44,-63.66 848.43,-73.82 855.42,-73.48"/>
</g>
<!-- Node6 -->
<g id="node6" class="node">
<title>Node6</title>
<g id="a_node6"><a xlink:href="classrare_1_1models_1_1game_1_1_rare_game.html#a9b76c292a174e6a6013ae0b0d6f2b4b5" target="_top" xlink:title=" ">
<polygon fill="white" stroke="black" points="553,-33.5 553,-63.5 711,-63.5 711,-33.5 553,-33.5"/>
<text text-anchor="start" x="561" y="-51.5" font-family="Helvetica,sans-Serif" font-size="10.00">rare.models.game.RareGame.set</text>
<text text-anchor="middle" x="632" y="-40.5" font-family="Helvetica,sans-Serif" font-size="10.00">_steam_grade</text>
</a>
</g>
</g>
<!-- Node5&#45;&gt;Node6 -->
<g id="edge10" class="edge">
<title>Node5&#45;&gt;Node6</title>
<path fill="none" stroke="midnightblue" d="M736.85,-48.5C728.23,-48.5 719.53,-48.5 711.02,-48.5"/>
<polygon fill="midnightblue" stroke="midnightblue" points="736.91,-52 746.91,-48.5 736.91,-45 736.91,-52"/>
</g>
<!-- Node6&#45;&gt;Node6 -->
<g id="edge11" class="edge">
<title>Node6&#45;&gt;Node6</title>
<path fill="none" stroke="midnightblue" d="M666.47,-73.96C662.19,-78.68 650.7,-82 632,-82 601.31,-82 590.04,-73.06 598.19,-63.66"/>
<polygon fill="midnightblue" stroke="midnightblue" points="669.94,-73.41 665.81,-63.66 662.96,-73.86 669.94,-73.41"/>
</g>
<!-- Node7 -->
<g id="node7" class="node">
<title>Node7</title>
<g id="a_node7"><a xlink:href="classrare_1_1models_1_1game_1_1_rare_game.html#a44ad13c0a844d30263bbf7ca3ce625ea" target="_top" xlink:title=" ">
<polygon fill="white" stroke="black" points="346,-33.5 346,-63.5 517,-63.5 517,-33.5 346,-33.5"/>
<text text-anchor="start" x="354" y="-51.5" font-family="Helvetica,sans-Serif" font-size="10.00">rare.models.game.RareGame.steam</text>
<text text-anchor="middle" x="431.5" y="-40.5" font-family="Helvetica,sans-Serif" font-size="10.00">_grade</text>
</a>
</g>
</g>
<!-- Node6&#45;&gt;Node7 -->
<g id="edge12" class="edge">
<title>Node6&#45;&gt;Node7</title>
<path fill="none" stroke="midnightblue" d="M542.59,-48.5C534.13,-48.5 525.56,-48.5 517.14,-48.5"/>
<polygon fill="midnightblue" stroke="midnightblue" points="542.83,-52 552.83,-48.5 542.83,-45 542.83,-52"/>
</g>
<!-- Node7&#45;&gt;Node7 -->
<g id="edge19" class="edge">
<title>Node7&#45;&gt;Node7</title>
<path fill="none" stroke="midnightblue" d="M465.62,-73.96C461.38,-78.68 450.01,-82 431.5,-82 401.12,-82 389.97,-73.06 398.04,-63.66"/>
<polygon fill="midnightblue" stroke="midnightblue" points="469.09,-73.42 464.96,-63.66 462.1,-73.86 469.09,-73.42"/>
</g>
<!-- Node8 -->
<g id="node8" class="node">
<title>Node8</title>
<g id="a_node8"><a xlink:href="classrare_1_1models_1_1game_1_1_rare_game_1_1_metadata.html#a563276b55376fdd9f495c321c5408906" target="_top" xlink:title=" ">
<polygon fill="white" stroke="black" points="166,-33.5 166,-63.5 310,-63.5 310,-33.5 166,-33.5"/>
<text text-anchor="start" x="174" y="-51.5" font-family="Helvetica,sans-Serif" font-size="10.00">rare.models.game.RareGame.</text>
<text text-anchor="middle" x="238" y="-40.5" font-family="Helvetica,sans-Serif" font-size="10.00">Metadata.__dict__</text>
</a>
</g>
</g>
<!-- Node7&#45;&gt;Node8 -->
<g id="edge13" class="edge">
<title>Node7&#45;&gt;Node8</title>
<path fill="none" stroke="midnightblue" d="M335.85,-48.5C327.23,-48.5 318.59,-48.5 310.23,-48.5"/>
<polygon fill="midnightblue" stroke="midnightblue" points="335.95,-52 345.95,-48.5 335.95,-45 335.95,-52"/>
</g>
<!-- Node8&#45;&gt;Node8 -->
<g id="edge14" class="edge">
<title>Node8&#45;&gt;Node8</title>
<path fill="none" stroke="midnightblue" d="M268.56,-73.96C264.77,-78.68 254.58,-82 238,-82 210.79,-82 200.8,-73.06 208.03,-63.66"/>
<polygon fill="midnightblue" stroke="midnightblue" points="272.04,-73.44 267.97,-63.66 265.05,-73.84 272.04,-73.44"/>
</g>
<!-- Node9 -->
<g id="node9" class="node">
<title>Node9</title>
<g id="a_node9"><a xlink:href="classrare_1_1models_1_1options_1_1_value.html#a45163c19b7c87f553c6f1d055d4668cb" target="_top" xlink:title=" ">
<polygon fill="white" stroke="black" points="0,-67.5 0,-97.5 130,-97.5 130,-67.5 0,-67.5"/>
<text text-anchor="start" x="8" y="-85.5" font-family="Helvetica,sans-Serif" font-size="10.00">rare.models.options.Value.</text>
<text text-anchor="middle" x="65" y="-74.5" font-family="Helvetica,sans-Serif" font-size="10.00">__iter__</text>
</a>
</g>
</g>
<!-- Node8&#45;&gt;Node9 -->
<g id="edge15" class="edge">
<title>Node8&#45;&gt;Node9</title>
<path fill="none" stroke="midnightblue" d="M155.91,-64.62C147.3,-66.33 138.63,-68.06 130.25,-69.72"/>
<polygon fill="midnightblue" stroke="midnightblue" points="156.84,-68.01 165.97,-62.62 155.48,-61.14 156.84,-68.01"/>
</g>
<!-- Node10 -->
<g id="node10" class="node">
<title>Node10</title>
<g id="a_node10"><a xlink:href="classrare_1_1models_1_1options_1_1_value.html#a810fdc262754b6d21f5acd0e280d4daf" target="_top" xlink:title=" ">
<polygon fill="white" stroke="black" points="0,-0.5 0,-30.5 130,-30.5 130,-0.5 0,-0.5"/>
<text text-anchor="start" x="8" y="-18.5" font-family="Helvetica,sans-Serif" font-size="10.00">rare.models.options.Value.</text>
<text text-anchor="middle" x="65" y="-7.5" font-family="Helvetica,sans-Serif" font-size="10.00">__len__</text>
</a>
</g>
</g>
<!-- Node8&#45;&gt;Node10 -->
<g id="edge17" class="edge">
<title>Node8&#45;&gt;Node10</title>
<path fill="none" stroke="midnightblue" d="M155.91,-32.85C147.3,-31.19 138.63,-29.52 130.25,-27.9"/>
<polygon fill="midnightblue" stroke="midnightblue" points="155.48,-36.33 165.97,-34.79 156.81,-29.46 155.48,-36.33"/>
</g>
<!-- Node9&#45;&gt;Node9 -->
<g id="edge16" class="edge">
<title>Node9&#45;&gt;Node9</title>
<path fill="none" stroke="midnightblue" d="M95.56,-107.96C91.77,-112.68 81.58,-116 65,-116 37.79,-116 27.8,-107.06 35.03,-97.66"/>
<polygon fill="midnightblue" stroke="midnightblue" points="99.04,-107.44 94.97,-97.66 92.05,-107.84 99.04,-107.44"/>
</g>
<!-- Node10&#45;&gt;Node10 -->
<g id="edge18" class="edge">
<title>Node10&#45;&gt;Node10</title>
<path fill="none" stroke="midnightblue" d="M95.56,-40.96C91.77,-45.68 81.58,-49 65,-49 37.79,-49 27.8,-40.06 35.03,-30.66"/>
<polygon fill="midnightblue" stroke="midnightblue" points="99.04,-40.44 94.97,-30.66 92.05,-40.84 99.04,-40.44"/>
</g>
</g>
</svg>
        <g id="navigator" transform="translate(0 0)" fill="#404254">
                <rect fill="#f2f5e9" fill-opacity="0.5" stroke="#606060" stroke-width=".5" x="0" y="0" width="60" height="60"/>
                <use id="zoomplus" xlink:href="#zoomPlus" x="17" y="9" onmousedown="handleZoom(evt,'in')"/>
                <use id="zoomminus" xlink:href="#zoomMin" x="42" y="9" onmousedown="handleZoom(evt,'out')"/>
                <use id="reset" xlink:href="#resetDef" x="30" y="36" onmousedown="handleReset()"/>
                <g id="arrowUp" xlink:href="#dirArrow" transform="translate(30 24)" onmousedown="handlePan(0,-1)">
                  <use xlink:href="#rim" fill="#404040">
                        <set attributeName="fill" to="#808080" begin="arrowUp.mouseover" end="arrowUp.mouseout"/>
                  </use>
                  <path fill="none" stroke="white" stroke-width="1.5" d="M0,-3.0v7 M-2.5,-0.5L0,-3.0L2.5,-0.5"/>
                </g>
                <g id="arrowRight" xlink:href="#dirArrow" transform="rotate(90) translate(36 -43)" onmousedown="handlePan(1,0)">
                  <use xlink:href="#rim" fill="#404040">
                        <set attributeName="fill" to="#808080" begin="arrowRight.mouseover" end="arrowRight.mouseout"/>
                  </use>
                  <path fill="none" stroke="white" stroke-width="1.5" d="M0,-3.0v7 M-2.5,-0.5L0,-3.0L2.5,-0.5"/>
                </g>
                <g id="arrowDown" xlink:href="#dirArrow" transform="rotate(180) translate(-30 -48)" onmousedown="handlePan(0,1)">
                  <use xlink:href="#rim" fill="#404040">
                        <set attributeName="fill" to="#808080" begin="arrowDown.mouseover" end="arrowDown.mouseout"/>
                  </use>
                  <path fill="none" stroke="white" stroke-width="1.5" d="M0,-3.0v7 M-2.5,-0.5L0,-3.0L2.5,-0.5"/>
                </g>
                <g id="arrowLeft" xlink:href="#dirArrow" transform="rotate(270) translate(-36 17)" onmousedown="handlePan(-1,0)">
                  <use xlink:href="#rim" fill="#404040">
                        <set attributeName="fill" to="#808080" begin="arrowLeft.mouseover" end="arrowLeft.mouseout"/>
                  </use>
                  <path fill="none" stroke="white" stroke-width="1.5" d="M0,-3.0v7 M-2.5,-0.5L0,-3.0L2.5,-0.5"/>
                </g>
        </g>
        <svg viewBox="0 0 15 15" width="100%" height="30px" preserveAspectRatio="xMaxYMin meet">
         <g id="arrow_out" transform="scale(0.3 0.3)">
          <a xlink:href="namespacerare_1_1utils_1_1config__helper_afb11223556320d6455409421029ae307_icgraph_org.svg" target="_base">
           <rect id="button" ry="5" rx="5" y="6" x="6" height="38" width="38"
                fill="#f2f5e9" fill-opacity="0.5" stroke="#606060" stroke-width="1.0"/>
           <path id="arrow"
             d="M 11.500037,31.436501 C 11.940474,20.09759 22.043105,11.32322 32.158766,21.979434 L 37.068811,17.246167 C 37.068811,17.246167 37.088388,32 37.088388,32 L 22.160133,31.978069 C 22.160133,31.978069 26.997745,27.140456 26.997745,27.140456 C 18.528582,18.264221 13.291696,25.230495 11.500037,31.436501 z"
             style="fill:#404040;"/>
          </a>
         </g>
        </svg>
</svg>
