<?xml version="1.0" encoding="UTF-8" standalone="no"?>
<!DOCTYPE svg PUBLIC "-//W3C//DTD SVG 1.1//EN"
 "http://www.w3.org/Graphics/SVG/1.1/DTD/svg11.dtd">
<!-- Generated by graphviz version 2.49.3 (20211027.1534)
 -->
<!-- Title: guid_from_json Pages: 1 -->
<svg width="464pt" height="191pt"
 viewBox="0.00 0.00 464.00 191.00" xmlns="http://www.w3.org/2000/svg" xmlns:xlink="http://www.w3.org/1999/xlink">
<g id="graph0" class="graph" transform="scale(1 1) rotate(0) translate(4 187)">
<title>guid_from_json</title>
<polygon fill="white" stroke="transparent" points="-4,4 -4,-187 460,-187 460,4 -4,4"/>
<!-- Node1 -->
<g id="node1" class="node">
<title>Node1</title>
<g id="a_node1"><a xlink:title=" ">
<polygon fill="#bfbfbf" stroke="black" points="373,-72 373,-91 456,-91 456,-72 373,-72"/>
<text text-anchor="middle" x="414.5" y="-79" font-family="Helvetica,sans-Serif" font-size="10.00">guid_from_json</text>
</a>
</g>
</g>
<!-- Node1&#45;&gt;Node1 -->
<g id="edge1" class="edge">
<title>Node1&#45;&gt;Node1</title>
<path fill="none" stroke="midnightblue" d="M441.01,-100.15C439.9,-105.44 431.06,-109.5 414.5,-109.5 389.26,-109.5 381.97,-100.07 392.61,-91.26"/>
<polygon fill="midnightblue" stroke="midnightblue" points="444.1,-98.52 436.39,-91.26 437.89,-101.74 444.1,-98.52"/>
</g>
<!-- Node2 -->
<g id="node2" class="node">
<title>Node2</title>
<g id="a_node2"><a xlink:href="classlegendary_1_1models_1_1json__manifest_1_1_j_s_o_n_f_m_l.html#a8d7b424f74eafc227bc7ed3a2ed04a5f" target="_top" xlink:title=" ">
<polygon fill="white" stroke="black" points="207,-100.5 207,-130.5 337,-130.5 337,-100.5 207,-100.5"/>
<text text-anchor="start" x="215" y="-118.5" font-family="Helvetica,sans-Serif" font-size="10.00">legendary.models.json</text>
<text text-anchor="middle" x="272" y="-107.5" font-family="Helvetica,sans-Serif" font-size="10.00">_manifest.JSONFML.read</text>
</a>
</g>
</g>
<!-- Node1&#45;&gt;Node2 -->
<g id="edge2" class="edge">
<title>Node1&#45;&gt;Node2</title>
<path fill="none" stroke="midnightblue" d="M364.07,-93.46C354.69,-95.73 344.78,-98.13 335.07,-100.48"/>
<polygon fill="midnightblue" stroke="midnightblue" points="365.09,-96.82 373.99,-91.06 363.45,-90.01 365.09,-96.82"/>
</g>
<!-- Node6 -->
<g id="node6" class="node">
<title>Node6</title>
<g id="a_node6"><a xlink:href="classlegendary_1_1models_1_1json__manifest_1_1_j_s_o_n_c_d_l.html#a962b4a77138241b6b31c976a3af38009" target="_top" xlink:title=" ">
<polygon fill="white" stroke="black" points="207.5,-33.5 207.5,-63.5 336.5,-63.5 336.5,-33.5 207.5,-33.5"/>
<text text-anchor="start" x="215.5" y="-51.5" font-family="Helvetica,sans-Serif" font-size="10.00">legendary.models.json</text>
<text text-anchor="middle" x="272" y="-40.5" font-family="Helvetica,sans-Serif" font-size="10.00">_manifest.JSONCDL.read</text>
</a>
</g>
</g>
<!-- Node1&#45;&gt;Node6 -->
<g id="edge10" class="edge">
<title>Node1&#45;&gt;Node6</title>
<path fill="none" stroke="midnightblue" d="M363.02,-69.64C354.45,-67.63 345.44,-65.51 336.58,-63.43"/>
<polygon fill="midnightblue" stroke="midnightblue" points="362.33,-73.08 372.86,-71.96 363.93,-66.26 362.33,-73.08"/>
</g>
<!-- Node2&#45;&gt;Node2 -->
<g id="edge3" class="edge">
<title>Node2&#45;&gt;Node2</title>
<path fill="none" stroke="midnightblue" d="M297.23,-140.96C294.1,-145.68 285.69,-149 272,-149 249.54,-149 241.29,-140.06 247.25,-130.66"/>
<polygon fill="midnightblue" stroke="midnightblue" points="300.71,-140.48 296.75,-130.66 293.72,-140.81 300.71,-140.48"/>
</g>
<!-- Node3 -->
<g id="node3" class="node">
<title>Node3</title>
<g id="a_node3"><a xlink:href="classlegendary_1_1models_1_1manifest_1_1_manifest.html#a53a7eef905da0a584480a7e0e0b9c17d" target="_top" xlink:title=" ">
<polygon fill="white" stroke="black" points="18.5,-134.5 18.5,-164.5 152.5,-164.5 152.5,-134.5 18.5,-134.5"/>
<text text-anchor="start" x="26.5" y="-152.5" font-family="Helvetica,sans-Serif" font-size="10.00">legendary.models.manifest.</text>
<text text-anchor="middle" x="85.5" y="-141.5" font-family="Helvetica,sans-Serif" font-size="10.00">Manifest.read_all</text>
</a>
</g>
</g>
<!-- Node2&#45;&gt;Node3 -->
<g id="edge4" class="edge">
<title>Node2&#45;&gt;Node3</title>
<path fill="none" stroke="midnightblue" d="M196.95,-129.15C182.28,-131.85 166.97,-134.67 152.59,-137.32"/>
<polygon fill="midnightblue" stroke="midnightblue" points="197.79,-132.55 206.99,-127.3 196.52,-125.67 197.79,-132.55"/>
</g>
<!-- Node4 -->
<g id="node4" class="node">
<title>Node4</title>
<g id="a_node4"><a xlink:href="classlegendary_1_1models_1_1json__manifest_1_1_j_s_o_n_manifest.html#a8ca8dc48a2ba303ee150262bee52b895" target="_top" xlink:title=" ">
<polygon fill="white" stroke="black" points="4.5,-67.5 4.5,-97.5 166.5,-97.5 166.5,-67.5 4.5,-67.5"/>
<text text-anchor="start" x="12.5" y="-85.5" font-family="Helvetica,sans-Serif" font-size="10.00">legendary.models.json</text>
<text text-anchor="middle" x="85.5" y="-74.5" font-family="Helvetica,sans-Serif" font-size="10.00">_manifest.JSONManifest.read_all</text>
</a>
</g>
</g>
<!-- Node2&#45;&gt;Node4 -->
<g id="edge6" class="edge">
<title>Node2&#45;&gt;Node4</title>
<path fill="none" stroke="midnightblue" d="M197.09,-102.28C187.08,-100.49 176.77,-98.65 166.65,-96.84"/>
<polygon fill="midnightblue" stroke="midnightblue" points="196.53,-105.74 206.99,-104.05 197.76,-98.84 196.53,-105.74"/>
</g>
<!-- Node5 -->
<g id="node5" class="node">
<title>Node5</title>
<g id="a_node5"><a xlink:href="classlegendary_1_1models_1_1chunk_1_1_chunk.html#a2be26dd746037236560e87fec0b1dca5" target="_top" xlink:title=" ">
<polygon fill="white" stroke="black" points="0,-0.5 0,-30.5 171,-30.5 171,-0.5 0,-0.5"/>
<text text-anchor="start" x="8" y="-18.5" font-family="Helvetica,sans-Serif" font-size="10.00">legendary.models.chunk.Chunk.read</text>
<text text-anchor="middle" x="85.5" y="-7.5" font-family="Helvetica,sans-Serif" font-size="10.00">_buffer</text>
</a>
</g>
</g>
<!-- Node2&#45;&gt;Node5 -->
<g id="edge8" class="edge">
<title>Node2&#45;&gt;Node5</title>
<path fill="none" stroke="midnightblue" d="M215.11,-96.04C212.32,-94.61 209.6,-93.09 207,-91.5 188.5,-80.15 188.84,-70.87 171,-58.5 155.58,-47.81 137.14,-38.11 121.42,-30.64"/>
<polygon fill="midnightblue" stroke="midnightblue" points="213.67,-99.24 224.21,-100.37 216.67,-92.91 213.67,-99.24"/>
</g>
<!-- Node3&#45;&gt;Node3 -->
<g id="edge5" class="edge">
<title>Node3&#45;&gt;Node3</title>
<path fill="none" stroke="midnightblue" d="M118.55,-174.96C114.45,-179.68 103.43,-183 85.5,-183 56.07,-183 45.27,-174.06 53.09,-164.66"/>
<polygon fill="midnightblue" stroke="midnightblue" points="122.02,-174.42 117.91,-164.66 115.04,-174.86 122.02,-174.42"/>
</g>
<!-- Node4&#45;&gt;Node4 -->
<g id="edge7" class="edge">
<title>Node4&#45;&gt;Node4</title>
<path fill="none" stroke="midnightblue" d="M118.55,-107.96C114.45,-112.68 103.43,-116 85.5,-116 56.07,-116 45.27,-107.06 53.09,-97.66"/>
<polygon fill="midnightblue" stroke="midnightblue" points="122.02,-107.42 117.91,-97.66 115.04,-107.86 122.02,-107.42"/>
</g>
<!-- Node5&#45;&gt;Node5 -->
<g id="edge9" class="edge">
<title>Node5&#45;&gt;Node5</title>
<path fill="none" stroke="midnightblue" d="M118.55,-40.96C114.45,-45.68 103.43,-49 85.5,-49 56.07,-49 45.27,-40.06 53.09,-30.66"/>
<polygon fill="midnightblue" stroke="midnightblue" points="122.02,-40.42 117.91,-30.66 115.04,-40.86 122.02,-40.42"/>
</g>
<!-- Node6&#45;&gt;Node3 -->
<g id="edge12" class="edge">
<title>Node6&#45;&gt;Node3</title>
<path fill="none" stroke="midnightblue" d="M237.97,-69.19C227.79,-75.96 216.71,-83.74 207,-91.5 189.81,-105.24 190.13,-114.63 171,-125.5 165.03,-128.89 158.55,-131.83 151.93,-134.37"/>
<polygon fill="midnightblue" stroke="midnightblue" points="240.18,-71.93 246.63,-63.52 236.34,-66.07 240.18,-71.93"/>
</g>
<!-- Node6&#45;&gt;Node4 -->
<g id="edge13" class="edge">
<title>Node6&#45;&gt;Node4</title>
<path fill="none" stroke="midnightblue" d="M197.26,-62.09C187.16,-63.95 176.74,-65.87 166.53,-67.75"/>
<polygon fill="midnightblue" stroke="midnightblue" points="198.05,-65.5 207.25,-60.25 196.78,-58.62 198.05,-65.5"/>
</g>
<!-- Node6&#45;&gt;Node5 -->
<g id="edge14" class="edge">
<title>Node6&#45;&gt;Node5</title>
<path fill="none" stroke="midnightblue" d="M197.37,-35.33C188.51,-33.75 179.42,-32.12 170.43,-30.51"/>
<polygon fill="midnightblue" stroke="midnightblue" points="196.79,-38.78 207.25,-37.1 198.02,-31.89 196.79,-38.78"/>
</g>
<!-- Node6&#45;&gt;Node6 -->
<g id="edge11" class="edge">
<title>Node6&#45;&gt;Node6</title>
<path fill="none" stroke="midnightblue" d="M297.23,-73.96C294.1,-78.68 285.69,-82 272,-82 249.54,-82 241.29,-73.06 247.25,-63.66"/>
<polygon fill="midnightblue" stroke="midnightblue" points="300.71,-73.48 296.75,-63.66 293.72,-73.81 300.71,-73.48"/>
</g>
</g>
</svg>
