<?xml version="1.0" encoding="UTF-8" standalone="no"?>
<!DOCTYPE svg PUBLIC "-//W3C//DTD SVG 1.1//EN"
 "http://www.w3.org/Graphics/SVG/1.1/DTD/svg11.dtd">
<!-- Generated by graphviz version 2.49.3 (20211027.1534)
 -->
<!-- Title: find_compatibility_tools Pages: 1 -->
<svg width="193pt" height="57pt"
 viewBox="0.00 0.00 193.00 57.00" xmlns="http://www.w3.org/2000/svg" xmlns:xlink="http://www.w3.org/1999/xlink">
<g id="graph0" class="graph" transform="scale(1 1) rotate(0) translate(4 53)">
<title>find_compatibility_tools</title>
<polygon fill="white" stroke="transparent" points="-4,4 -4,-53 189,-53 189,4 -4,4"/>
<!-- Node1 -->
<g id="node1" class="node">
<title>Node1</title>
<g id="a_node1"><a xlink:title=" ">
<polygon fill="#bfbfbf" stroke="black" points="94,-0.5 94,-30.5 185,-30.5 185,-0.5 94,-0.5"/>
<text text-anchor="start" x="102" y="-18.5" font-family="Helvetica,sans-Serif" font-size="10.00">find_compatibility</text>
<text text-anchor="middle" x="139.5" y="-7.5" font-family="Helvetica,sans-Serif" font-size="10.00">_tools</text>
</a>
</g>
</g>
<!-- Node1&#45;&gt;Node1 -->
<g id="edge1" class="edge">
<title>Node1&#45;&gt;Node1</title>
<path fill="none" stroke="midnightblue" d="M159.05,-40.96C156.62,-45.68 150.1,-49 139.5,-49 122.1,-49 115.71,-40.06 120.33,-30.66"/>
<polygon fill="midnightblue" stroke="midnightblue" points="162.53,-40.52 158.67,-30.66 155.54,-40.78 162.53,-40.52"/>
</g>
<!-- Node2 -->
<g id="node2" class="node">
<title>Node2</title>
<g id="a_node2"><a xlink:href="namespacerare_1_1utils_1_1proton.html#a3688cd90e6016191a861edf4448def61" target="_top" xlink:title=" ">
<polygon fill="white" stroke="black" points="0,-6 0,-25 58,-25 58,-6 0,-6"/>
<text text-anchor="middle" x="29" y="-13" font-family="Helvetica,sans-Serif" font-size="10.00">find_tools</text>
</a>
</g>
</g>
<!-- Node1&#45;&gt;Node2 -->
<g id="edge2" class="edge">
<title>Node1&#45;&gt;Node2</title>
<path fill="none" stroke="midnightblue" d="M83.5,-15.5C74.74,-15.5 66,-15.5 58.2,-15.5"/>
<polygon fill="midnightblue" stroke="midnightblue" points="83.74,-19 93.74,-15.5 83.74,-12 83.74,-19"/>
</g>
<!-- Node2&#45;&gt;Node2 -->
<g id="edge3" class="edge">
<title>Node2&#45;&gt;Node2</title>
<path fill="none" stroke="midnightblue" d="M49.37,-34.9C48.01,-39.81 41.22,-43.5 29,-43.5 9.45,-43.5 3.8,-34.07 12.05,-25.26"/>
<polygon fill="midnightblue" stroke="midnightblue" points="52.59,-33.51 45.95,-25.26 45.99,-35.85 52.59,-33.51"/>
</g>
</g>
</svg>
