<?xml version="1.0" encoding="UTF-8" standalone="no"?>
<!DOCTYPE svg PUBLIC "-//W3C//DTD SVG 1.1//EN"
 "http://www.w3.org/Graphics/SVG/1.1/DTD/svg11.dtd">
<!-- Generated by graphviz version 2.49.3 (20211027.1534)
 -->
<!-- Title: desktop_dir Pages: 1 -->
<!--zoomable 248 -->
<svg id="main" version="1.1" xmlns="http://www.w3.org/2000/svg" xmlns:xlink="http://www.w3.org/1999/xlink" xml:space="preserve" onload="init(evt)">
<style type="text/css"><![CDATA[
.edge:hover path { stroke: red; }
.edge:hover polygon { stroke: red; fill: red; }
]]></style>
<script type="text/javascript"><![CDATA[
var edges = document.getElementsByTagName('g');
if (edges && edges.length) {
  for (var i=0;i<edges.length;i++) {
    if (edges[i].id.substr(0,4)=='edge') {
      edges[i].setAttribute('class','edge');
    }
  }
}
]]></script>
        <defs>
                <circle id="rim" cx="0" cy="0" r="7"/>
                <circle id="rim2" cx="0" cy="0" r="3.5"/>
                <g id="zoomPlus">
                        <use xlink:href="#rim" fill="#404040">
                                <set attributeName="fill" to="#808080" begin="zoomplus.mouseover" end="zoomplus.mouseout"/>
                        </use>
                        <path d="M-4,0h8M0,-4v8" fill="none" stroke="white" stroke-width="1.5" pointer-events="none"/>
                </g>
                <g id="zoomMin">
                        <use xlink:href="#rim" fill="#404040">
                                <set attributeName="fill" to="#808080" begin="zoomminus.mouseover" end="zoomminus.mouseout"/>
                        </use>
                        <path d="M-4,0h8" fill="none" stroke="white" stroke-width="1.5" pointer-events="none"/>
                </g>
                <g id="dirArrow">
                        <path fill="none" stroke="white" stroke-width="1.5" d="M0,-3.0v7 M-2.5,-0.5L0,-3.0L2.5,-0.5"/>
                </g>
               <g id="resetDef">
                       <use xlink:href="#rim2" fill="#404040">
                               <set attributeName="fill" to="#808080" begin="reset.mouseover" end="reset.mouseout"/>
                       </use>
               </g>
        </defs>

<script type="text/javascript">
var viewWidth = 1047;
var viewHeight = 248;
var sectionId = 'dynsection-13';
</script>
<script xlink:href="svgpan.js"/>
<svg id="graph" class="graph">
<g id="viewport">
<title>desktop_dir</title>
<polygon fill="white" stroke="transparent" points="-4,4 -4,-244 1043,-244 1043,4 -4,4"/>
<!-- Node1 -->
<g id="node1" class="node">
<title>Node1</title>
<g id="a_node1"><a xlink:title=" ">
<polygon fill="#bfbfbf" stroke="black" points="972,-99 972,-118 1039,-118 1039,-99 972,-99"/>
<text text-anchor="middle" x="1005.5" y="-106" font-family="Helvetica,sans-Serif" font-size="10.00">desktop_dir</text>
</a>
</g>
</g>
<!-- Node1&#45;&gt;Node1 -->
<g id="edge1" class="edge">
<title>Node1&#45;&gt;Node1</title>
<path fill="none" stroke="midnightblue" d="M1027.45,-127.53C1026.25,-132.63 1018.94,-136.5 1005.5,-136.5 984.53,-136.5 978.46,-127.07 987.31,-118.26"/>
<polygon fill="midnightblue" stroke="midnightblue" points="1030.69,-126.21 1023.69,-118.26 1024.2,-128.84 1030.69,-126.21"/>
</g>
<!-- Node2 -->
<g id="node2" class="node">
<title>Node2</title>
<g id="a_node2"><a xlink:href="namespacerare_1_1utils_1_1paths.html#af4d56a3b4065900877c517e24bddc366" target="_top" xlink:title=" ">
<polygon fill="white" stroke="black" points="838,-99 838,-118 936,-118 936,-99 838,-99"/>
<text text-anchor="middle" x="887" y="-106" font-family="Helvetica,sans-Serif" font-size="10.00">desktop_icon_path</text>
</a>
</g>
</g>
<!-- Node1&#45;&gt;Node2 -->
<g id="edge2" class="edge">
<title>Node1&#45;&gt;Node2</title>
<path fill="none" stroke="midnightblue" d="M961.56,-108.5C953.3,-108.5 944.59,-108.5 936.17,-108.5"/>
<polygon fill="midnightblue" stroke="midnightblue" points="961.74,-112 971.74,-108.5 961.74,-105 961.74,-112"/>
</g>
<!-- Node2&#45;&gt;Node2 -->
<g id="edge22" class="edge">
<title>Node2&#45;&gt;Node2</title>
<path fill="none" stroke="midnightblue" d="M908.95,-127.53C907.75,-132.63 900.44,-136.5 887,-136.5 866.03,-136.5 859.96,-127.07 868.81,-118.26"/>
<polygon fill="midnightblue" stroke="midnightblue" points="912.19,-126.21 905.19,-118.26 905.7,-128.84 912.19,-126.21"/>
</g>
<!-- Node3 -->
<g id="node3" class="node">
<title>Node3</title>
<g id="a_node3"><a xlink:href="namespacerare_1_1utils_1_1steam__shortcuts.html#a357bd54770bbc308e805d3cc81bdf8fd" target="_top" xlink:title=" ">
<polygon fill="white" stroke="black" points="656,-124.5 656,-154.5 802,-154.5 802,-124.5 656,-124.5"/>
<text text-anchor="start" x="664" y="-142.5" font-family="Helvetica,sans-Serif" font-size="10.00">rare.utils.steam_shortcuts.add</text>
<text text-anchor="middle" x="729" y="-131.5" font-family="Helvetica,sans-Serif" font-size="10.00">_steam_shortcut</text>
</a>
</g>
</g>
<!-- Node2&#45;&gt;Node3 -->
<g id="edge3" class="edge">
<title>Node2&#45;&gt;Node3</title>
<path fill="none" stroke="midnightblue" d="M827.84,-120.06C819.42,-121.73 810.66,-123.47 802.01,-125.19"/>
<polygon fill="midnightblue" stroke="midnightblue" points="828.8,-123.44 837.92,-118.05 827.43,-116.57 828.8,-123.44"/>
</g>
<!-- Node6 -->
<g id="node6" class="node">
<title>Node6</title>
<g id="a_node6"><a xlink:href="namespacerare_1_1utils_1_1paths.html#a6013706d2f5027e7d2979078186b11e5" target="_top" xlink:title="Creates a desktop or start menu shortcut link.">
<polygon fill="white" stroke="black" points="677,-68 677,-87 781,-87 781,-68 677,-68"/>
<text text-anchor="middle" x="729" y="-75" font-family="Helvetica,sans-Serif" font-size="10.00">create_desktop_link</text>
</a>
</g>
</g>
<!-- Node2&#45;&gt;Node6 -->
<g id="edge9" class="edge">
<title>Node2&#45;&gt;Node6</title>
<path fill="none" stroke="midnightblue" d="M827.87,-96.95C811.42,-93.68 793.7,-90.16 777.92,-87.02"/>
<polygon fill="midnightblue" stroke="midnightblue" points="827.43,-100.43 837.92,-98.95 828.8,-93.56 827.43,-100.43"/>
</g>
<!-- Node3&#45;&gt;Node3 -->
<g id="edge4" class="edge">
<title>Node3&#45;&gt;Node3</title>
<path fill="none" stroke="midnightblue" d="M757.07,-164.96C753.59,-169.68 744.23,-173 729,-173 704,-173 694.83,-164.06 701.47,-154.66"/>
<polygon fill="midnightblue" stroke="midnightblue" points="760.55,-164.46 756.53,-154.66 753.56,-164.83 760.55,-164.46"/>
</g>
<!-- Node4 -->
<g id="node4" class="node">
<title>Node4</title>
<g id="a_node4"><a xlink:href="classrare_1_1components_1_1tabs_1_1library_1_1widgets_1_1game__widget_1_1_game_widget.html#a1c498583fd154d3fea8c59b543395ce5" target="_top" xlink:title=" ">
<polygon fill="white" stroke="black" points="420,-124.5 420,-154.5 620,-154.5 620,-124.5 420,-124.5"/>
<text text-anchor="start" x="428" y="-142.5" font-family="Helvetica,sans-Serif" font-size="10.00">rare.components.tabs.library.widgets.game</text>
<text text-anchor="middle" x="520" y="-131.5" font-family="Helvetica,sans-Serif" font-size="10.00">_widget.GameWidget.mousePressEvent</text>
</a>
</g>
</g>
<!-- Node3&#45;&gt;Node4 -->
<g id="edge5" class="edge">
<title>Node3&#45;&gt;Node4</title>
<path fill="none" stroke="midnightblue" d="M645.75,-139.5C637.34,-139.5 628.73,-139.5 620.16,-139.5"/>
<polygon fill="midnightblue" stroke="midnightblue" points="645.89,-143 655.89,-139.5 645.89,-136 645.89,-143"/>
</g>
<!-- Node5 -->
<g id="node5" class="node">
<title>Node5</title>
<g id="a_node5"><a xlink:href="namespacerare_1_1utils_1_1steam__shortcuts.html#a5c50fef72cf309de8d38178d9008e107" target="_top" xlink:title=" ">
<polygon fill="white" stroke="black" points="445.5,-191.5 445.5,-221.5 594.5,-221.5 594.5,-191.5 445.5,-191.5"/>
<text text-anchor="start" x="453.5" y="-209.5" font-family="Helvetica,sans-Serif" font-size="10.00">rare.utils.steam_shortcuts.print</text>
<text text-anchor="middle" x="520" y="-198.5" font-family="Helvetica,sans-Serif" font-size="10.00">_shortcuts</text>
</a>
</g>
</g>
<!-- Node3&#45;&gt;Node5 -->
<g id="edge7" class="edge">
<title>Node3&#45;&gt;Node5</title>
<path fill="none" stroke="midnightblue" d="M684.67,-158.37C665.14,-166.46 641.65,-175.6 620,-182.5 609.97,-185.69 599.26,-188.7 588.72,-191.43"/>
<polygon fill="midnightblue" stroke="midnightblue" points="686.04,-161.59 693.92,-154.51 683.34,-155.14 686.04,-161.59"/>
</g>
<!-- Node4&#45;&gt;Node4 -->
<g id="edge6" class="edge">
<title>Node4&#45;&gt;Node4</title>
<path fill="none" stroke="midnightblue" d="M556.96,-164.96C552.37,-169.68 540.05,-173 520,-173 487.09,-173 475.01,-164.06 483.75,-154.66"/>
<polygon fill="midnightblue" stroke="midnightblue" points="560.43,-164.39 556.25,-154.66 553.45,-164.88 560.43,-164.39"/>
</g>
<!-- Node5&#45;&gt;Node5 -->
<g id="edge8" class="edge">
<title>Node5&#45;&gt;Node5</title>
<path fill="none" stroke="midnightblue" d="M556.96,-231.96C552.37,-236.68 540.05,-240 520,-240 487.09,-240 475.01,-231.06 483.75,-221.66"/>
<polygon fill="midnightblue" stroke="midnightblue" points="560.43,-231.39 556.25,-221.66 553.45,-231.88 560.43,-231.39"/>
</g>
<!-- Node6&#45;&gt;Node4 -->
<g id="edge13" class="edge">
<title>Node6&#45;&gt;Node4</title>
<path fill="none" stroke="midnightblue" d="M692.55,-90.47C671.58,-97.94 644.44,-107.24 620,-114.5 608.36,-117.96 595.86,-121.35 583.8,-124.48"/>
<polygon fill="midnightblue" stroke="midnightblue" points="693.77,-93.75 702.01,-87.08 691.41,-87.16 693.77,-93.75"/>
</g>
<!-- Node6&#45;&gt;Node6 -->
<g id="edge10" class="edge">
<title>Node6&#45;&gt;Node6</title>
<path fill="none" stroke="midnightblue" d="M758.49,-96.15C757.26,-101.44 747.43,-105.5 729,-105.5 700.92,-105.5 692.8,-96.07 704.65,-87.26"/>
<polygon fill="midnightblue" stroke="midnightblue" points="761.39,-94.16 753.35,-87.26 755.32,-97.67 761.39,-94.16"/>
</g>
<!-- Node7 -->
<g id="node7" class="node">
<title>Node7</title>
<g id="a_node7"><a xlink:href="namespacerare_1_1main.html#a532d4b899b39c9f08370e91c54b63e33" target="_top" xlink:title=" ">
<polygon fill="white" stroke="black" points="480,-68 480,-87 560,-87 560,-68 480,-68"/>
<text text-anchor="middle" x="520" y="-75" font-family="Helvetica,sans-Serif" font-size="10.00">rare.main.main</text>
</a>
</g>
</g>
<!-- Node6&#45;&gt;Node7 -->
<g id="edge11" class="edge">
<title>Node6&#45;&gt;Node7</title>
<path fill="none" stroke="midnightblue" d="M666.41,-77.5C632.01,-77.5 590.17,-77.5 560.22,-77.5"/>
<polygon fill="midnightblue" stroke="midnightblue" points="666.83,-81 676.83,-77.5 666.83,-74 666.83,-81"/>
</g>
<!-- Node8 -->
<g id="node8" class="node">
<title>Node8</title>
<g id="a_node8"><a xlink:href="classrare_1_1components_1_1tabs_1_1downloads_1_1_downloads_tab.html#ad688e83ab96ce32b1ed9e5ccc83d0ee8" target="_top" xlink:title="Stops the active download, by optionally skipping the queue.">
<polygon fill="white" stroke="black" points="439.5,-0.5 439.5,-30.5 600.5,-30.5 600.5,-0.5 439.5,-0.5"/>
<text text-anchor="start" x="447.5" y="-18.5" font-family="Helvetica,sans-Serif" font-size="10.00">rare.components.tabs.downloads.</text>
<text text-anchor="middle" x="520" y="-7.5" font-family="Helvetica,sans-Serif" font-size="10.00">DownloadsTab.stop_download</text>
</a>
</g>
</g>
<!-- Node6&#45;&gt;Node8 -->
<g id="edge14" class="edge">
<title>Node6&#45;&gt;Node8</title>
<path fill="none" stroke="midnightblue" d="M686.28,-65C653.15,-55.08 606.69,-41.17 571.47,-30.62"/>
<polygon fill="midnightblue" stroke="midnightblue" points="685.53,-68.43 696.11,-67.95 687.53,-61.73 685.53,-68.43"/>
</g>
<!-- Node7&#45;&gt;Node7 -->
<g id="edge12" class="edge">
<title>Node7&#45;&gt;Node7</title>
<path fill="none" stroke="midnightblue" d="M558.97,-94.51C559.71,-100.57 546.72,-105.5 520,-105.5 482.83,-105.5 472.23,-95.96 488.2,-87.11"/>
<polygon fill="midnightblue" stroke="midnightblue" points="561.27,-91.86 551.8,-87.11 556.24,-96.73 561.27,-91.86"/>
</g>
<!-- Node8&#45;&gt;Node8 -->
<g id="edge21" class="edge">
<title>Node8&#45;&gt;Node8</title>
<path fill="none" stroke="midnightblue" d="M556.96,-40.96C552.37,-45.68 540.05,-49 520,-49 487.09,-49 475.01,-40.06 483.75,-30.66"/>
<polygon fill="midnightblue" stroke="midnightblue" points="560.43,-40.39 556.25,-30.66 553.45,-40.88 560.43,-40.39"/>
</g>
<!-- Node9 -->
<g id="node9" class="node">
<title>Node9</title>
<g id="a_node9"><a xlink:href="classrare_1_1components_1_1tabs_1_1downloads_1_1_downloads_tab.html#a91ee81dee5df73fb4e3057d7c12624e0" target="_top" xlink:title=" ">
<polygon fill="white" stroke="black" points="215,-22.5 215,-52.5 384,-52.5 384,-22.5 215,-22.5"/>
<text text-anchor="start" x="223" y="-40.5" font-family="Helvetica,sans-Serif" font-size="10.00">rare.components.tabs.downloads.</text>
<text text-anchor="middle" x="299.5" y="-29.5" font-family="Helvetica,sans-Serif" font-size="10.00">DownloadsTab.is_download_active</text>
</a>
</g>
</g>
<!-- Node8&#45;&gt;Node9 -->
<g id="edge15" class="edge">
<title>Node8&#45;&gt;Node9</title>
<path fill="none" stroke="midnightblue" d="M429.3,-24.53C414.44,-26.03 399.07,-27.58 384.36,-29.06"/>
<polygon fill="midnightblue" stroke="midnightblue" points="429.9,-27.99 439.5,-23.5 429.2,-21.02 429.9,-27.99"/>
</g>
<!-- Node9&#45;&gt;Node9 -->
<g id="edge16" class="edge">
<title>Node9&#45;&gt;Node9</title>
<path fill="none" stroke="midnightblue" d="M336.81,-62.96C332.18,-67.68 319.75,-71 299.5,-71 266.28,-71 254.08,-62.06 262.9,-52.66"/>
<polygon fill="midnightblue" stroke="midnightblue" points="340.28,-62.39 336.1,-52.66 333.3,-62.88 340.28,-62.39"/>
</g>
<!-- Node10 -->
<g id="node10" class="node">
<title>Node10</title>
<g id="a_node10"><a xlink:href="classrare_1_1components_1_1tabs_1_1downloads_1_1_downloads_tab.html#a11794ca2c7c3add2ed90cd2edb79b927" target="_top" xlink:title=" ">
<polygon fill="white" stroke="black" points="0,-22.5 0,-52.5 179,-52.5 179,-22.5 0,-22.5"/>
<text text-anchor="start" x="8" y="-40.5" font-family="Helvetica,sans-Serif" font-size="10.00">rare.components.tabs.downloads.</text>
<text text-anchor="middle" x="89.5" y="-29.5" font-family="Helvetica,sans-Serif" font-size="10.00">DownloadsTab.update_queues_count</text>
</a>
</g>
</g>
<!-- Node9&#45;&gt;Node10 -->
<g id="edge17" class="edge">
<title>Node9&#45;&gt;Node10</title>
<path fill="none" stroke="midnightblue" d="M204.54,-30.78C196.09,-30.73 187.54,-30.74 179.13,-30.82"/>
<polygon fill="midnightblue" stroke="midnightblue" points="204.77,-34.28 214.8,-30.87 204.83,-27.28 204.77,-34.28"/>
</g>
<!-- Node10&#45;&gt;Node8 -->
<g id="edge19" class="edge">
<title>Node10&#45;&gt;Node8</title>
<path fill="none" stroke="midnightblue" d="M162.72,-20.48C179.77,-17.17 197.94,-14.2 215,-12.5 290.89,-4.96 377.97,-6.88 439.42,-9.99"/>
<polygon fill="midnightblue" stroke="midnightblue" points="161.95,-17.07 152.83,-22.47 163.33,-23.93 161.95,-17.07"/>
</g>
<!-- Node10&#45;&gt;Node9 -->
<g id="edge18" class="edge">
<title>Node10&#45;&gt;Node9</title>
<path fill="none" stroke="midnightblue" d="M189.16,-44.24C197.74,-44.27 206.36,-44.23 214.8,-44.13"/>
<polygon fill="midnightblue" stroke="midnightblue" points="189.15,-40.74 179.13,-44.18 189.11,-47.74 189.15,-40.74"/>
</g>
<!-- Node10&#45;&gt;Node10 -->
<g id="edge20" class="edge">
<title>Node10&#45;&gt;Node10</title>
<path fill="none" stroke="midnightblue" d="M126.81,-62.96C122.18,-67.68 109.75,-71 89.5,-71 56.28,-71 44.08,-62.06 52.9,-52.66"/>
<polygon fill="midnightblue" stroke="midnightblue" points="130.28,-62.39 126.1,-52.66 123.3,-62.88 130.28,-62.39"/>
</g>
</g>
</svg>
        <g id="navigator" transform="translate(0 0)" fill="#404254">
                <rect fill="#f2f5e9" fill-opacity="0.5" stroke="#606060" stroke-width=".5" x="0" y="0" width="60" height="60"/>
                <use id="zoomplus" xlink:href="#zoomPlus" x="17" y="9" onmousedown="handleZoom(evt,'in')"/>
                <use id="zoomminus" xlink:href="#zoomMin" x="42" y="9" onmousedown="handleZoom(evt,'out')"/>
                <use id="reset" xlink:href="#resetDef" x="30" y="36" onmousedown="handleReset()"/>
                <g id="arrowUp" xlink:href="#dirArrow" transform="translate(30 24)" onmousedown="handlePan(0,-1)">
                  <use xlink:href="#rim" fill="#404040">
                        <set attributeName="fill" to="#808080" begin="arrowUp.mouseover" end="arrowUp.mouseout"/>
                  </use>
                  <path fill="none" stroke="white" stroke-width="1.5" d="M0,-3.0v7 M-2.5,-0.5L0,-3.0L2.5,-0.5"/>
                </g>
                <g id="arrowRight" xlink:href="#dirArrow" transform="rotate(90) translate(36 -43)" onmousedown="handlePan(1,0)">
                  <use xlink:href="#rim" fill="#404040">
                        <set attributeName="fill" to="#808080" begin="arrowRight.mouseover" end="arrowRight.mouseout"/>
                  </use>
                  <path fill="none" stroke="white" stroke-width="1.5" d="M0,-3.0v7 M-2.5,-0.5L0,-3.0L2.5,-0.5"/>
                </g>
                <g id="arrowDown" xlink:href="#dirArrow" transform="rotate(180) translate(-30 -48)" onmousedown="handlePan(0,1)">
                  <use xlink:href="#rim" fill="#404040">
                        <set attributeName="fill" to="#808080" begin="arrowDown.mouseover" end="arrowDown.mouseout"/>
                  </use>
                  <path fill="none" stroke="white" stroke-width="1.5" d="M0,-3.0v7 M-2.5,-0.5L0,-3.0L2.5,-0.5"/>
                </g>
                <g id="arrowLeft" xlink:href="#dirArrow" transform="rotate(270) translate(-36 17)" onmousedown="handlePan(-1,0)">
                  <use xlink:href="#rim" fill="#404040">
                        <set attributeName="fill" to="#808080" begin="arrowLeft.mouseover" end="arrowLeft.mouseout"/>
                  </use>
                  <path fill="none" stroke="white" stroke-width="1.5" d="M0,-3.0v7 M-2.5,-0.5L0,-3.0L2.5,-0.5"/>
                </g>
        </g>
        <svg viewBox="0 0 15 15" width="100%" height="30px" preserveAspectRatio="xMaxYMin meet">
         <g id="arrow_out" transform="scale(0.3 0.3)">
          <a xlink:href="namespacerare_1_1utils_1_1paths_a68fd6933dc93b4140e22a3fb1380354f_icgraph_org.svg" target="_base">
           <rect id="button" ry="5" rx="5" y="6" x="6" height="38" width="38"
                fill="#f2f5e9" fill-opacity="0.5" stroke="#606060" stroke-width="1.0"/>
           <path id="arrow"
             d="M 11.500037,31.436501 C 11.940474,20.09759 22.043105,11.32322 32.158766,21.979434 L 37.068811,17.246167 C 37.068811,17.246167 37.088388,32 37.088388,32 L 22.160133,31.978069 C 22.160133,31.978069 26.997745,27.140456 26.997745,27.140456 C 18.528582,18.264221 13.291696,25.230495 11.500037,31.436501 z"
             style="fill:#404040;"/>
          </a>
         </g>
        </svg>
</svg>
