<?xml version="1.0" encoding="UTF-8" standalone="no"?>
<!DOCTYPE svg PUBLIC "-//W3C//DTD SVG 1.1//EN"
 "http://www.w3.org/Graphics/SVG/1.1/DTD/svg11.dtd">
<!-- Generated by graphviz version 2.49.3 (20211027.1534)
 -->
<!-- Title: get_option Pages: 1 -->
<svg width="171pt" height="46pt"
 viewBox="0.00 0.00 171.00 46.00" xmlns="http://www.w3.org/2000/svg" xmlns:xlink="http://www.w3.org/1999/xlink">
<g id="graph0" class="graph" transform="scale(1 1) rotate(0) translate(4 42)">
<title>get_option</title>
<polygon fill="white" stroke="transparent" points="-4,4 -4,-42 167,-42 167,4 -4,4"/>
<!-- Node1 -->
<g id="node1" class="node">
<title>Node1</title>
<g id="a_node1"><a xlink:title=" ">
<polygon fill="#bfbfbf" stroke="black" points="101,-0.5 101,-19.5 163,-19.5 163,-0.5 101,-0.5"/>
<text text-anchor="middle" x="132" y="-7.5" font-family="Helvetica,sans-Serif" font-size="10.00">get_option</text>
</a>
</g>
</g>
<!-- Node1&#45;&gt;Node1 -->
<g id="edge3" class="edge">
<title>Node1&#45;&gt;Node1</title>
<path fill="none" stroke="midnightblue" d="M150.15,-29.4C148.94,-34.31 142.89,-38 132,-38 114.58,-38 109.55,-28.57 116.9,-19.76"/>
<polygon fill="midnightblue" stroke="midnightblue" points="153.45,-28.24 147.1,-19.76 146.78,-30.35 153.45,-28.24"/>
</g>
<!-- Node2 -->
<g id="node2" class="node">
<title>Node2</title>
<g id="a_node2"><a xlink:href="namespacerare_1_1utils_1_1config__helper.html#a457d37bbe224d5f64555cb8451ca6b18" target="_top" xlink:title=" ">
<polygon fill="white" stroke="black" points="0,-0.5 0,-19.5 65,-19.5 65,-0.5 0,-0.5"/>
<text text-anchor="middle" x="32.5" y="-7.5" font-family="Helvetica,sans-Serif" font-size="10.00">get_envvar</text>
</a>
</g>
</g>
<!-- Node1&#45;&gt;Node2 -->
<g id="edge1" class="edge">
<title>Node1&#45;&gt;Node2</title>
<path fill="none" stroke="midnightblue" d="M90.83,-10C82.32,-10 73.45,-10 65.31,-10"/>
<polygon fill="midnightblue" stroke="midnightblue" points="90.95,-13.5 100.95,-10 90.95,-6.5 90.95,-13.5"/>
</g>
<!-- Node2&#45;&gt;Node2 -->
<g id="edge2" class="edge">
<title>Node2&#45;&gt;Node2</title>
<path fill="none" stroke="midnightblue" d="M50.65,-29.4C49.44,-34.31 43.39,-38 32.5,-38 15.08,-38 10.05,-28.57 17.4,-19.76"/>
<polygon fill="midnightblue" stroke="midnightblue" points="53.95,-28.24 47.6,-19.76 47.28,-30.35 53.95,-28.24"/>
</g>
</g>
</svg>
