<?xml version="1.0" encoding="UTF-8" standalone="no"?>
<!DOCTYPE svg PUBLIC "-//W3C//DTD SVG 1.1//EN"
 "http://www.w3.org/Graphics/SVG/1.1/DTD/svg11.dtd">
<!-- Generated by graphviz version 2.49.3 (20211027.1534)
 -->
<!-- Title: wine_prefix_dir Pages: 1 -->
<svg width="308pt" height="46pt"
 viewBox="0.00 0.00 308.00 46.00" xmlns="http://www.w3.org/2000/svg" xmlns:xlink="http://www.w3.org/1999/xlink">
<g id="graph0" class="graph" transform="scale(1 1) rotate(0) translate(4 42)">
<title>wine_prefix_dir</title>
<polygon fill="white" stroke="transparent" points="-4,4 -4,-42 304,-42 304,4 -4,4"/>
<!-- Node1 -->
<g id="node1" class="node">
<title>Node1</title>
<g id="a_node1"><a xlink:title=" ">
<polygon fill="#bfbfbf" stroke="black" points="0,-0.5 0,-19.5 80,-19.5 80,-0.5 0,-0.5"/>
<text text-anchor="middle" x="40" y="-7.5" font-family="Helvetica,sans-Serif" font-size="10.00">wine_prefix_dir</text>
</a>
</g>
</g>
<!-- Node1&#45;&gt;Node1 -->
<g id="edge5" class="edge">
<title>Node1&#45;&gt;Node1</title>
<path fill="none" stroke="midnightblue" d="M20.89,-19.76C11.59,-28.57 17.96,-38 40,-38 54.12,-38 61.81,-34.13 63.07,-29.03"/>
<polygon fill="midnightblue" stroke="midnightblue" points="66.25,-27.58 59.11,-19.76 59.81,-30.33 66.25,-27.58"/>
</g>
<!-- Node2 -->
<g id="node2" class="node">
<title>Node2</title>
<g id="a_node2"><a xlink:href="namespacerare_1_1utils_1_1paths.html#a1eb8fcf1882e8fd3a8bdd2d76bb9c44f" target="_top" xlink:title=" ">
<polygon fill="white" stroke="black" points="116,-0.5 116,-19.5 213,-19.5 213,-0.5 116,-0.5"/>
<text text-anchor="middle" x="164.5" y="-7.5" font-family="Helvetica,sans-Serif" font-size="10.00">proton_compat_dir</text>
</a>
</g>
</g>
<!-- Node1&#45;&gt;Node2 -->
<g id="edge1" class="edge">
<title>Node1&#45;&gt;Node2</title>
<path fill="none" stroke="midnightblue" d="M80.1,-10C88.25,-10 97.01,-10 105.67,-10"/>
<polygon fill="midnightblue" stroke="midnightblue" points="105.76,-13.5 115.76,-10 105.76,-6.5 105.76,-13.5"/>
</g>
<!-- Node2&#45;&gt;Node2 -->
<g id="edge4" class="edge">
<title>Node2&#45;&gt;Node2</title>
<path fill="none" stroke="midnightblue" d="M147.85,-19.76C139.76,-28.57 145.3,-38 164.5,-38 176.5,-38 183.16,-34.31 184.5,-29.4"/>
<polygon fill="midnightblue" stroke="midnightblue" points="187.74,-28.05 181.15,-19.76 181.12,-30.35 187.74,-28.05"/>
</g>
<!-- Node3 -->
<g id="node3" class="node">
<title>Node3</title>
<g id="a_node3"><a xlink:href="namespacerare_1_1utils_1_1paths.html#aa160c55be4d6aad43da3d35e8a1dc97b" target="_top" xlink:title=" ">
<polygon fill="white" stroke="black" points="249,-0.5 249,-19.5 300,-19.5 300,-0.5 249,-0.5"/>
<text text-anchor="middle" x="274.5" y="-7.5" font-family="Helvetica,sans-Serif" font-size="10.00">data_dir</text>
</a>
</g>
</g>
<!-- Node2&#45;&gt;Node3 -->
<g id="edge2" class="edge">
<title>Node2&#45;&gt;Node3</title>
<path fill="none" stroke="midnightblue" d="M213.18,-10C221.75,-10 230.53,-10 238.65,-10"/>
<polygon fill="midnightblue" stroke="midnightblue" points="238.86,-13.5 248.86,-10 238.86,-6.5 238.86,-13.5"/>
</g>
<!-- Node3&#45;&gt;Node3 -->
<g id="edge3" class="edge">
<title>Node3&#45;&gt;Node3</title>
<path fill="none" stroke="midnightblue" d="M257.85,-19.76C249.76,-28.57 255.3,-38 274.5,-38 286.5,-38 293.16,-34.31 294.5,-29.4"/>
<polygon fill="midnightblue" stroke="midnightblue" points="297.74,-28.05 291.15,-19.76 291.12,-30.35 297.74,-28.05"/>
</g>
</g>
</svg>
