<?xml version="1.0" encoding="UTF-8" standalone="no"?>
<!DOCTYPE svg PUBLIC "-//W3C//DTD SVG 1.1//EN"
 "http://www.w3.org/Graphics/SVG/1.1/DTD/svg11.dtd">
<!-- Generated by graphviz version 2.49.3 (20211027.1534)
 -->
<!-- Title: get_hash Pages: 1 -->
<svg width="675pt" height="181pt"
 viewBox="0.00 0.00 675.00 181.00" xmlns="http://www.w3.org/2000/svg" xmlns:xlink="http://www.w3.org/1999/xlink">
<g id="graph0" class="graph" transform="scale(1 1) rotate(0) translate(4 177)">
<title>get_hash</title>
<polygon fill="white" stroke="transparent" points="-4,4 -4,-177 671,-177 671,4 -4,4"/>
<!-- Node1 -->
<g id="node1" class="node">
<title>Node1</title>
<g id="a_node1"><a xlink:title=" ">
<polygon fill="#bfbfbf" stroke="black" points="611,-68 611,-87 667,-87 667,-68 611,-68"/>
<text text-anchor="middle" x="639" y="-75" font-family="Helvetica,sans-Serif" font-size="10.00">get_hash</text>
</a>
</g>
</g>
<!-- Node1&#45;&gt;Node1 -->
<g id="edge10" class="edge">
<title>Node1&#45;&gt;Node1</title>
<path fill="none" stroke="midnightblue" d="M666.63,-96.15C665.47,-101.44 656.26,-105.5 639,-105.5 612.7,-105.5 605.09,-96.07 616.19,-87.26"/>
<polygon fill="midnightblue" stroke="midnightblue" points="669.65,-94.39 661.81,-87.26 663.49,-97.72 669.65,-94.39"/>
</g>
<!-- Node2 -->
<g id="node2" class="node">
<title>Node2</title>
<g id="a_node2"><a xlink:href="classlegendary_1_1models_1_1chunk_1_1_chunk.html#a3d1439a9bd8385f2a265aff7253ab0a7" target="_top" xlink:title=" ">
<polygon fill="white" stroke="black" points="404,-68 404,-87 575,-87 575,-68 404,-68"/>
<text text-anchor="middle" x="489.5" y="-75" font-family="Helvetica,sans-Serif" font-size="10.00">legendary.models.chunk.Chunk.data</text>
</a>
</g>
</g>
<!-- Node1&#45;&gt;Node2 -->
<g id="edge1" class="edge">
<title>Node1&#45;&gt;Node2</title>
<path fill="none" stroke="midnightblue" d="M600.9,-77.5C592.89,-77.5 584.1,-77.5 575.1,-77.5"/>
<polygon fill="midnightblue" stroke="midnightblue" points="600.95,-81 610.95,-77.5 600.95,-74 600.95,-81"/>
</g>
<!-- Node3 -->
<g id="node3" class="node">
<title>Node3</title>
<g id="a_node3"><a xlink:href="classrare_1_1components_1_1dialogs_1_1install__dialog_1_1_q_data_check_box.html#a5ff6323ce25317c7925d5a8012b1f6ea" target="_top" xlink:title=" ">
<polygon fill="white" stroke="black" points="196.5,-124.5 196.5,-154.5 366.5,-154.5 366.5,-124.5 196.5,-124.5"/>
<text text-anchor="start" x="204.5" y="-142.5" font-family="Helvetica,sans-Serif" font-size="10.00">rare.components.dialogs.install</text>
<text text-anchor="middle" x="281.5" y="-131.5" font-family="Helvetica,sans-Serif" font-size="10.00">_dialog.QDataCheckBox.isChecked</text>
</a>
</g>
</g>
<!-- Node2&#45;&gt;Node3 -->
<g id="edge2" class="edge">
<title>Node2&#45;&gt;Node3</title>
<path fill="none" stroke="midnightblue" d="M448.24,-90.01C424.84,-97.24 394.78,-106.47 368,-114.5 357.19,-117.74 345.59,-121.17 334.53,-124.41"/>
<polygon fill="midnightblue" stroke="midnightblue" points="449.31,-93.34 457.83,-87.04 447.24,-86.66 449.31,-93.34"/>
</g>
<!-- Node5 -->
<g id="node5" class="node">
<title>Node5</title>
<g id="a_node5"><a xlink:href="classlegendary_1_1models_1_1chunk_1_1_chunk.html#ad96d10b22b5c7b8b53103b5c0e0e0928" target="_top" xlink:title=" ">
<polygon fill="white" stroke="black" points="195,-68 195,-87 368,-87 368,-68 195,-68"/>
<text text-anchor="middle" x="281.5" y="-75" font-family="Helvetica,sans-Serif" font-size="10.00">legendary.models.chunk.Chunk.write</text>
</a>
</g>
</g>
<!-- Node2&#45;&gt;Node5 -->
<g id="edge6" class="edge">
<title>Node2&#45;&gt;Node5</title>
<path fill="none" stroke="midnightblue" d="M393.55,-77.5C385.09,-77.5 376.56,-77.5 368.18,-77.5"/>
<polygon fill="midnightblue" stroke="midnightblue" points="393.82,-81 403.82,-77.5 393.82,-74 393.82,-81"/>
</g>
<!-- Node6 -->
<g id="node6" class="node">
<title>Node6</title>
<g id="a_node6"><a xlink:href="classlegendary_1_1models_1_1manifest_1_1_manifest.html#ad96d10b22b5c7b8b53103b5c0e0e0928" target="_top" xlink:title=" ">
<polygon fill="white" stroke="black" points="214.5,-0.5 214.5,-30.5 348.5,-30.5 348.5,-0.5 214.5,-0.5"/>
<text text-anchor="start" x="222.5" y="-18.5" font-family="Helvetica,sans-Serif" font-size="10.00">legendary.models.manifest.</text>
<text text-anchor="middle" x="281.5" y="-7.5" font-family="Helvetica,sans-Serif" font-size="10.00">Manifest.write</text>
</a>
</g>
</g>
<!-- Node2&#45;&gt;Node6 -->
<g id="edge8" class="edge">
<title>Node2&#45;&gt;Node6</title>
<path fill="none" stroke="midnightblue" d="M446.98,-65C414.01,-55.08 367.78,-41.17 332.72,-30.62"/>
<polygon fill="midnightblue" stroke="midnightblue" points="446.18,-68.42 456.76,-67.95 448.2,-61.71 446.18,-68.42"/>
</g>
<!-- Node3&#45;&gt;Node3 -->
<g id="edge5" class="edge">
<title>Node3&#45;&gt;Node3</title>
<path fill="none" stroke="midnightblue" d="M317.39,-164.96C312.94,-169.68 300.97,-173 281.5,-173 249.54,-173 237.81,-164.06 246.3,-154.66"/>
<polygon fill="midnightblue" stroke="midnightblue" points="320.86,-164.4 316.7,-154.66 313.88,-164.87 320.86,-164.4"/>
</g>
<!-- Node4 -->
<g id="node4" class="node">
<title>Node4</title>
<g id="a_node4"><a xlink:href="classrare_1_1components_1_1tabs_1_1shop_1_1shop__widget_1_1_check_box.html#a8b64389a338c017bf6d5987eda346be6" target="_top" xlink:title=" ">
<polygon fill="white" stroke="black" points="0,-124.5 0,-154.5 159,-154.5 159,-124.5 0,-124.5"/>
<text text-anchor="start" x="8" y="-142.5" font-family="Helvetica,sans-Serif" font-size="10.00">rare.components.tabs.shop.shop</text>
<text text-anchor="middle" x="79.5" y="-131.5" font-family="Helvetica,sans-Serif" font-size="10.00">_widget.CheckBox.handle_toggle</text>
</a>
</g>
</g>
<!-- Node3&#45;&gt;Node4 -->
<g id="edge3" class="edge">
<title>Node3&#45;&gt;Node4</title>
<path fill="none" stroke="midnightblue" d="M186.13,-139.5C177.13,-139.5 168.06,-139.5 159.22,-139.5"/>
<polygon fill="midnightblue" stroke="midnightblue" points="186.26,-143 196.26,-139.5 186.26,-136 186.26,-143"/>
</g>
<!-- Node4&#45;&gt;Node4 -->
<g id="edge4" class="edge">
<title>Node4&#45;&gt;Node4</title>
<path fill="none" stroke="midnightblue" d="M115.39,-164.96C110.94,-169.68 98.97,-173 79.5,-173 47.54,-173 35.81,-164.06 44.3,-154.66"/>
<polygon fill="midnightblue" stroke="midnightblue" points="118.86,-164.4 114.7,-154.66 111.88,-164.87 118.86,-164.4"/>
</g>
<!-- Node5&#45;&gt;Node5 -->
<g id="edge7" class="edge">
<title>Node5&#45;&gt;Node5</title>
<path fill="none" stroke="midnightblue" d="M319.37,-95C319.37,-100.84 306.74,-105.5 281.5,-105.5 245.6,-105.5 235.22,-96.07 250.37,-87.26"/>
<polygon fill="midnightblue" stroke="midnightblue" points="321.84,-92.5 312.63,-87.26 316.56,-97.1 321.84,-92.5"/>
</g>
<!-- Node6&#45;&gt;Node6 -->
<g id="edge9" class="edge">
<title>Node6&#45;&gt;Node6</title>
<path fill="none" stroke="midnightblue" d="M317.39,-40.96C312.94,-45.68 300.97,-49 281.5,-49 249.54,-49 237.81,-40.06 246.3,-30.66"/>
<polygon fill="midnightblue" stroke="midnightblue" points="320.86,-40.4 316.7,-30.66 313.88,-40.87 320.86,-40.4"/>
</g>
</g>
</svg>
