<?xml version="1.0" encoding="UTF-8" standalone="no"?>
<!DOCTYPE svg PUBLIC "-//W3C//DTD SVG 1.1//EN"
 "http://www.w3.org/Graphics/SVG/1.1/DTD/svg11.dtd">
<!-- Generated by graphviz version 2.49.3 (20211027.1534)
 -->
<!-- Title: query_reg_key Pages: 1 -->
<svg width="592pt" height="102pt"
 viewBox="0.00 0.00 592.00 102.00" xmlns="http://www.w3.org/2000/svg" xmlns:xlink="http://www.w3.org/1999/xlink">
<g id="graph0" class="graph" transform="scale(1 1) rotate(0) translate(4 98)">
<title>query_reg_key</title>
<polygon fill="white" stroke="transparent" points="-4,4 -4,-98 588,-98 588,4 -4,4"/>
<!-- Node1 -->
<g id="node1" class="node">
<title>Node1</title>
<g id="a_node1"><a xlink:title=" ">
<polygon fill="#bfbfbf" stroke="black" points="0,-28.5 0,-47.5 79,-47.5 79,-28.5 0,-28.5"/>
<text text-anchor="middle" x="39.5" y="-35.5" font-family="Helvetica,sans-Serif" font-size="10.00">query_reg_key</text>
</a>
</g>
</g>
<!-- Node1&#45;&gt;Node1 -->
<g id="edge11" class="edge">
<title>Node1&#45;&gt;Node1</title>
<path fill="none" stroke="midnightblue" d="M24.09,-47.76C16.59,-56.57 21.73,-66 39.5,-66 50.61,-66 56.78,-62.31 58.02,-57.4"/>
<polygon fill="midnightblue" stroke="midnightblue" points="61.31,-56.2 54.91,-47.76 54.65,-58.35 61.31,-56.2"/>
</g>
<!-- Node2 -->
<g id="node2" class="node">
<title>Node2</title>
<g id="a_node2"><a xlink:href="namespacerare_1_1utils_1_1compat_1_1utils.html#ac35c8c6fa6ffee52956ca3418b5ea123" target="_top" xlink:title=" ">
<polygon fill="white" stroke="black" points="115,-28.5 115,-47.5 165,-47.5 165,-28.5 115,-28.5"/>
<text text-anchor="middle" x="140" y="-35.5" font-family="Helvetica,sans-Serif" font-size="10.00">execute</text>
</a>
</g>
</g>
<!-- Node1&#45;&gt;Node2 -->
<g id="edge1" class="edge">
<title>Node1&#45;&gt;Node2</title>
<path fill="none" stroke="midnightblue" d="M79.15,-38C87.64,-38 96.57,-38 104.86,-38"/>
<polygon fill="midnightblue" stroke="midnightblue" points="104.95,-41.5 114.95,-38 104.95,-34.5 104.95,-41.5"/>
</g>
<!-- Node2&#45;&gt;Node2 -->
<g id="edge2" class="edge">
<title>Node2&#45;&gt;Node2</title>
<path fill="none" stroke="midnightblue" d="M124.59,-47.76C117.09,-56.57 122.23,-66 140,-66 151.11,-66 157.28,-62.31 158.52,-57.4"/>
<polygon fill="midnightblue" stroke="midnightblue" points="161.81,-56.2 155.41,-47.76 155.15,-58.35 161.81,-56.2"/>
</g>
<!-- Node3 -->
<g id="node3" class="node">
<title>Node3</title>
<g id="a_node3"><a xlink:href="namespacerare_1_1utils_1_1compat_1_1utils.html#a5692ab5c1cef4e68b08fa7cbccf0da96" target="_top" xlink:title=" ">
<polygon fill="white" stroke="black" points="201,-28.5 201,-47.5 296,-47.5 296,-28.5 201,-28.5"/>
<text text-anchor="middle" x="248.5" y="-35.5" font-family="Helvetica,sans-Serif" font-size="10.00">execute_qprocess</text>
</a>
</g>
</g>
<!-- Node2&#45;&gt;Node3 -->
<g id="edge3" class="edge">
<title>Node2&#45;&gt;Node3</title>
<path fill="none" stroke="midnightblue" d="M165.17,-38C172.84,-38 181.67,-38 190.63,-38"/>
<polygon fill="midnightblue" stroke="midnightblue" points="190.76,-41.5 200.76,-38 190.76,-34.5 190.76,-41.5"/>
</g>
<!-- Node3&#45;&gt;Node3 -->
<g id="edge4" class="edge">
<title>Node3&#45;&gt;Node3</title>
<path fill="none" stroke="midnightblue" d="M231.85,-47.76C223.76,-56.57 229.3,-66 248.5,-66 260.5,-66 267.16,-62.31 268.5,-57.4"/>
<polygon fill="midnightblue" stroke="midnightblue" points="271.74,-56.05 265.15,-47.76 265.12,-58.35 271.74,-56.05"/>
</g>
<!-- Node4 -->
<g id="node4" class="node">
<title>Node4</title>
<g id="a_node4"><a xlink:href="namespacerare_1_1utils_1_1compat_1_1utils.html#a96adfc4f3766f9ed7d75571e715d3e25" target="_top" xlink:title=" ">
<polygon fill="white" stroke="black" points="332,-28.5 332,-47.5 457,-47.5 457,-28.5 332,-28.5"/>
<text text-anchor="middle" x="394.5" y="-35.5" font-family="Helvetica,sans-Serif" font-size="10.00">get_configured_qprocess</text>
</a>
</g>
</g>
<!-- Node3&#45;&gt;Node4 -->
<g id="edge5" class="edge">
<title>Node3&#45;&gt;Node4</title>
<path fill="none" stroke="midnightblue" d="M296.25,-38C304.4,-38 313.04,-38 321.67,-38"/>
<polygon fill="midnightblue" stroke="midnightblue" points="321.78,-41.5 331.78,-38 321.78,-34.5 321.78,-41.5"/>
</g>
<!-- Node4&#45;&gt;Node4 -->
<g id="edge8" class="edge">
<title>Node4&#45;&gt;Node4</title>
<path fill="none" stroke="midnightblue" d="M372.31,-47.76C361.51,-56.57 368.91,-66 394.5,-66 411.3,-66 420.26,-61.94 421.38,-56.65"/>
<polygon fill="midnightblue" stroke="midnightblue" points="424.45,-54.97 416.69,-47.76 418.26,-58.24 424.45,-54.97"/>
</g>
<!-- Node5 -->
<g id="node5" class="node">
<title>Node5</title>
<g id="a_node5"><a xlink:href="namespacerare_1_1utils_1_1compat_1_1utils.html#a8bdf2f4b0acacd40f5009a037341b863" target="_top" xlink:title=" ">
<polygon fill="white" stroke="black" points="493,-56.5 493,-75.5 584,-75.5 584,-56.5 493,-56.5"/>
<text text-anchor="middle" x="538.5" y="-63.5" font-family="Helvetica,sans-Serif" font-size="10.00">dict_to_qprocenv</text>
</a>
</g>
</g>
<!-- Node4&#45;&gt;Node5 -->
<g id="edge6" class="edge">
<title>Node4&#45;&gt;Node5</title>
<path fill="none" stroke="midnightblue" d="M443.97,-47.56C456.4,-50.01 469.85,-52.66 482.58,-55.17"/>
<polygon fill="midnightblue" stroke="midnightblue" points="482.1,-58.64 492.59,-57.14 483.46,-51.78 482.1,-58.64"/>
</g>
<!-- Node6 -->
<g id="node6" class="node">
<title>Node6</title>
<g id="a_node6"><a xlink:href="namespacerare_1_1utils_1_1compat_1_1utils.html#a5b5d155e1da4ff47437e3ac64f0affe8" target="_top" xlink:title=" ">
<polygon fill="white" stroke="black" points="494,-0.5 494,-19.5 583,-19.5 583,-0.5 494,-0.5"/>
<text text-anchor="middle" x="538.5" y="-7.5" font-family="Helvetica,sans-Serif" font-size="10.00">prepare_process</text>
</a>
</g>
</g>
<!-- Node4&#45;&gt;Node6 -->
<g id="edge9" class="edge">
<title>Node4&#45;&gt;Node6</title>
<path fill="none" stroke="midnightblue" d="M443.97,-28.44C456.65,-25.94 470.4,-23.23 483.35,-20.68"/>
<polygon fill="midnightblue" stroke="midnightblue" points="484.4,-24.04 493.54,-18.67 483.05,-17.17 484.4,-24.04"/>
</g>
<!-- Node5&#45;&gt;Node5 -->
<g id="edge7" class="edge">
<title>Node5&#45;&gt;Node5</title>
<path fill="none" stroke="midnightblue" d="M516.31,-75.76C505.51,-84.57 512.91,-94 538.5,-94 555.3,-94 564.26,-89.94 565.38,-84.65"/>
<polygon fill="midnightblue" stroke="midnightblue" points="568.45,-82.97 560.69,-75.76 562.26,-86.24 568.45,-82.97"/>
</g>
<!-- Node6&#45;&gt;Node6 -->
<g id="edge10" class="edge">
<title>Node6&#45;&gt;Node6</title>
<path fill="none" stroke="midnightblue" d="M516.31,-19.76C505.51,-28.57 512.91,-38 538.5,-38 555.3,-38 564.26,-33.94 565.38,-28.65"/>
<polygon fill="midnightblue" stroke="midnightblue" points="568.45,-26.97 560.69,-19.76 562.26,-30.24 568.45,-26.97"/>
</g>
</g>
</svg>
