<?xml version="1.0" encoding="UTF-8" standalone="no"?>
<!DOCTYPE svg PUBLIC "-//W3C//DTD SVG 1.1//EN"
 "http://www.w3.org/Graphics/SVG/1.1/DTD/svg11.dtd">
<!-- Generated by graphviz version 2.49.3 (20211027.1534)
 -->
<!-- Title: get_steam_environment Pages: 1 -->
<svg width="403pt" height="394pt"
 viewBox="0.00 0.00 403.00 394.00" xmlns="http://www.w3.org/2000/svg" xmlns:xlink="http://www.w3.org/1999/xlink">
<g id="graph0" class="graph" transform="scale(1 1) rotate(0) translate(4 390)">
<title>get_steam_environment</title>
<polygon fill="white" stroke="transparent" points="-4,4 -4,-390 399,-390 399,4 -4,4"/>
<!-- Node1 -->
<g id="node1" class="node">
<title>Node1</title>
<g id="a_node1"><a xlink:title=" ">
<polygon fill="#bfbfbf" stroke="black" points="0,-168.5 0,-187.5 121,-187.5 121,-168.5 0,-168.5"/>
<text text-anchor="middle" x="60.5" y="-175.5" font-family="Helvetica,sans-Serif" font-size="10.00">get_steam_environment</text>
</a>
</g>
</g>
<!-- Node1&#45;&gt;Node1 -->
<g id="edge19" class="edge">
<title>Node1&#45;&gt;Node1</title>
<path fill="none" stroke="midnightblue" d="M37.38,-187.76C26.13,-196.57 33.84,-206 60.5,-206 78,-206 87.33,-201.94 88.5,-196.65"/>
<polygon fill="midnightblue" stroke="midnightblue" points="91.5,-194.84 83.62,-187.76 85.36,-198.21 91.5,-194.84"/>
</g>
<!-- Node2 -->
<g id="node2" class="node">
<title>Node2</title>
<g id="a_node2"><a xlink:href="namespacerare_1_1utils_1_1compat_1_1steam.html#aef4401da0e89428a88fdeeaf11760156" target="_top" xlink:title=" ">
<polygon fill="white" stroke="black" points="172,-348.5 172,-367.5 249,-367.5 249,-348.5 172,-348.5"/>
<text text-anchor="middle" x="210.5" y="-355.5" font-family="Helvetica,sans-Serif" font-size="10.00">find_anticheat</text>
</a>
</g>
</g>
<!-- Node1&#45;&gt;Node2 -->
<g id="edge1" class="edge">
<title>Node1&#45;&gt;Node2</title>
<path fill="none" stroke="midnightblue" d="M64.55,-187.51C73.84,-215.02 104.42,-295.49 157,-339 159.03,-340.68 161.21,-342.21 163.5,-343.61"/>
<polygon fill="midnightblue" stroke="midnightblue" points="162.24,-346.9 172.72,-348.4 165.46,-340.69 162.24,-346.9"/>
</g>
<!-- Node4 -->
<g id="node4" class="node">
<title>Node4</title>
<g id="a_node4"><a xlink:href="namespacerare_1_1utils_1_1compat_1_1steam.html#ac2723eedcf31189fb12199eb6721d99c" target="_top" xlink:title=" ">
<polygon fill="white" stroke="black" points="165,-281 165,-311 256,-311 256,-281 165,-281"/>
<text text-anchor="start" x="173" y="-299" font-family="Helvetica,sans-Serif" font-size="10.00">find_compatibility</text>
<text text-anchor="middle" x="210.5" y="-288" font-family="Helvetica,sans-Serif" font-size="10.00">_tools</text>
</a>
</g>
</g>
<!-- Node1&#45;&gt;Node4 -->
<g id="edge5" class="edge">
<title>Node1&#45;&gt;Node4</title>
<path fill="none" stroke="midnightblue" d="M69.58,-187.77C85.05,-205.99 120.54,-245.61 157,-271 159.53,-272.76 162.2,-274.46 164.94,-276.08"/>
<polygon fill="midnightblue" stroke="midnightblue" points="163.42,-279.24 173.87,-280.99 166.8,-273.11 163.42,-279.24"/>
</g>
<!-- Node5 -->
<g id="node5" class="node">
<title>Node5</title>
<g id="a_node5"><a xlink:href="namespacerare_1_1utils_1_1compat_1_1steam.html#ab718ac1b73014e691b7a8ce526bb068e" target="_top" xlink:title=" ">
<polygon fill="white" stroke="black" points="175,-224.5 175,-243.5 246,-243.5 246,-224.5 175,-224.5"/>
<text text-anchor="middle" x="210.5" y="-231.5" font-family="Helvetica,sans-Serif" font-size="10.00">find_libraries</text>
</a>
</g>
</g>
<!-- Node1&#45;&gt;Node5 -->
<g id="edge7" class="edge">
<title>Node1&#45;&gt;Node5</title>
<path fill="none" stroke="midnightblue" d="M85.78,-187.58C105.05,-195.14 132.69,-205.89 157,-215 162.22,-216.96 167.74,-218.99 173.17,-220.97"/>
<polygon fill="midnightblue" stroke="midnightblue" points="172.16,-224.33 182.75,-224.45 174.54,-217.75 172.16,-224.33"/>
</g>
<!-- Node6 -->
<g id="node6" class="node">
<title>Node6</title>
<g id="a_node6"><a xlink:href="namespacerare_1_1utils_1_1compat_1_1steam.html#a7046bfde699c59fe83b22412c4b9f88e" target="_top" xlink:title=" ">
<polygon fill="white" stroke="black" points="178.5,-168.5 178.5,-187.5 242.5,-187.5 242.5,-168.5 178.5,-168.5"/>
<text text-anchor="middle" x="210.5" y="-175.5" font-family="Helvetica,sans-Serif" font-size="10.00">find_steam</text>
</a>
</g>
</g>
<!-- Node1&#45;&gt;Node6 -->
<g id="edge9" class="edge">
<title>Node1&#45;&gt;Node6</title>
<path fill="none" stroke="midnightblue" d="M121.27,-178C137.02,-178 153.67,-178 168.21,-178"/>
<polygon fill="midnightblue" stroke="midnightblue" points="168.38,-181.5 178.38,-178 168.38,-174.5 168.38,-181.5"/>
</g>
<!-- Node7 -->
<g id="node7" class="node">
<title>Node7</title>
<g id="a_node7"><a xlink:href="namespacerare_1_1utils_1_1compat_1_1steam.html#af42abe5c16df58ab7eee75c43d68092e" target="_top" xlink:title=" ">
<polygon fill="white" stroke="black" points="157,-112.5 157,-131.5 264,-131.5 264,-112.5 157,-112.5"/>
<text text-anchor="middle" x="210.5" y="-119.5" font-family="Helvetica,sans-Serif" font-size="10.00">find_steam_runtimes</text>
</a>
</g>
</g>
<!-- Node1&#45;&gt;Node7 -->
<g id="edge11" class="edge">
<title>Node1&#45;&gt;Node7</title>
<path fill="none" stroke="midnightblue" d="M86.94,-168.37C111.23,-159.18 148.02,-145.26 174.95,-135.07"/>
<polygon fill="midnightblue" stroke="midnightblue" points="176.28,-138.31 184.39,-131.5 173.8,-131.77 176.28,-138.31"/>
</g>
<!-- Node8 -->
<g id="node8" class="node">
<title>Node8</title>
<g id="a_node8"><a xlink:href="namespacerare_1_1utils_1_1compat_1_1steam.html#a59353828ffab6f43562b802932fec5ce" target="_top" xlink:title=" ">
<polygon fill="white" stroke="black" points="165.5,-56.5 165.5,-75.5 255.5,-75.5 255.5,-56.5 165.5,-56.5"/>
<text text-anchor="middle" x="210.5" y="-63.5" font-family="Helvetica,sans-Serif" font-size="10.00">find_steam_tools</text>
</a>
</g>
</g>
<!-- Node1&#45;&gt;Node8 -->
<g id="edge14" class="edge">
<title>Node1&#45;&gt;Node8</title>
<path fill="none" stroke="midnightblue" d="M73.41,-168.33C91.32,-153.84 126.39,-125.78 157,-103 166.76,-95.73 177.74,-87.94 187.13,-81.39"/>
<polygon fill="midnightblue" stroke="midnightblue" points="189.32,-84.12 195.54,-75.54 185.33,-78.37 189.32,-84.12"/>
</g>
<!-- Node9 -->
<g id="node9" class="node">
<title>Node9</title>
<g id="a_node9"><a xlink:href="namespacerare_1_1utils_1_1compat_1_1steam.html#af9263e59360f4e86e85080a0e58f88fb" target="_top" xlink:title=" ">
<polygon fill="white" stroke="black" points="176.5,-0.5 176.5,-19.5 244.5,-19.5 244.5,-0.5 176.5,-0.5"/>
<text text-anchor="middle" x="210.5" y="-7.5" font-family="Helvetica,sans-Serif" font-size="10.00">get_runtime</text>
</a>
</g>
</g>
<!-- Node1&#45;&gt;Node9 -->
<g id="edge17" class="edge">
<title>Node1&#45;&gt;Node9</title>
<path fill="none" stroke="midnightblue" d="M67.05,-168.3C80.44,-145.39 116.48,-86.88 157,-47 165.19,-38.94 175.3,-31.37 184.45,-25.21"/>
<polygon fill="midnightblue" stroke="midnightblue" points="186.36,-28.14 192.83,-19.76 182.54,-22.27 186.36,-28.14"/>
</g>
<!-- Node2&#45;&gt;Node2 -->
<g id="edge2" class="edge">
<title>Node2&#45;&gt;Node2</title>
<path fill="none" stroke="midnightblue" d="M189.54,-367.76C179.34,-376.57 186.33,-386 210.5,-386 225.99,-386 234.42,-382.13 235.8,-377.03"/>
<polygon fill="midnightblue" stroke="midnightblue" points="238.87,-375.33 231.46,-367.76 232.53,-378.3 238.87,-375.33"/>
</g>
<!-- Node3 -->
<g id="node3" class="node">
<title>Node3</title>
<g id="a_node3"><a xlink:href="namespacerare_1_1utils_1_1compat_1_1steam.html#a10f2f0c935c0e0e215dc27999b96dd7b" target="_top" xlink:title=" ">
<polygon fill="white" stroke="black" points="300,-112.5 300,-131.5 395,-131.5 395,-112.5 300,-112.5"/>
<text text-anchor="middle" x="347.5" y="-119.5" font-family="Helvetica,sans-Serif" font-size="10.00">find_appmanifests</text>
</a>
</g>
</g>
<!-- Node2&#45;&gt;Node3 -->
<g id="edge3" class="edge">
<title>Node2&#45;&gt;Node3</title>
<path fill="none" stroke="midnightblue" d="M249.14,-348.94C254.6,-346.4 259.79,-343.15 264,-339 320.84,-283.07 339.1,-183.97 344.46,-141.84"/>
<polygon fill="midnightblue" stroke="midnightblue" points="347.96,-142.1 345.63,-131.77 341,-141.3 347.96,-142.1"/>
</g>
<!-- Node3&#45;&gt;Node3 -->
<g id="edge4" class="edge">
<title>Node3&#45;&gt;Node3</title>
<path fill="none" stroke="midnightblue" d="M326.54,-131.76C316.34,-140.57 323.33,-150 347.5,-150 362.99,-150 371.42,-146.13 372.8,-141.03"/>
<polygon fill="midnightblue" stroke="midnightblue" points="375.87,-139.33 368.46,-131.76 369.53,-142.3 375.87,-139.33"/>
</g>
<!-- Node4&#45;&gt;Node4 -->
<g id="edge6" class="edge">
<title>Node4&#45;&gt;Node4</title>
<path fill="none" stroke="midnightblue" d="M186.8,-311.16C181.08,-320.56 188.98,-329.5 210.5,-329.5 223.61,-329.5 231.67,-326.18 234.67,-321.46"/>
<polygon fill="midnightblue" stroke="midnightblue" points="238.15,-320.99 234.2,-311.16 231.16,-321.31 238.15,-320.99"/>
</g>
<!-- Node5&#45;&gt;Node5 -->
<g id="edge8" class="edge">
<title>Node5&#45;&gt;Node5</title>
<path fill="none" stroke="midnightblue" d="M189.54,-243.76C179.34,-252.57 186.33,-262 210.5,-262 225.99,-262 234.42,-258.13 235.8,-253.03"/>
<polygon fill="midnightblue" stroke="midnightblue" points="238.87,-251.33 231.46,-243.76 232.53,-254.3 238.87,-251.33"/>
</g>
<!-- Node6&#45;&gt;Node6 -->
<g id="edge10" class="edge">
<title>Node6&#45;&gt;Node6</title>
<path fill="none" stroke="midnightblue" d="M189.54,-187.76C179.34,-196.57 186.33,-206 210.5,-206 225.99,-206 234.42,-202.13 235.8,-197.03"/>
<polygon fill="midnightblue" stroke="midnightblue" points="238.87,-195.33 231.46,-187.76 232.53,-198.3 238.87,-195.33"/>
</g>
<!-- Node7&#45;&gt;Node3 -->
<g id="edge12" class="edge">
<title>Node7&#45;&gt;Node3</title>
<path fill="none" stroke="midnightblue" d="M264.08,-122C272.5,-122 281.25,-122 289.76,-122"/>
<polygon fill="midnightblue" stroke="midnightblue" points="289.99,-125.5 299.99,-122 289.99,-118.5 289.99,-125.5"/>
</g>
<!-- Node7&#45;&gt;Node7 -->
<g id="edge13" class="edge">
<title>Node7&#45;&gt;Node7</title>
<path fill="none" stroke="midnightblue" d="M189.54,-131.76C179.34,-140.57 186.33,-150 210.5,-150 225.99,-150 234.42,-146.13 235.8,-141.03"/>
<polygon fill="midnightblue" stroke="midnightblue" points="238.87,-139.33 231.46,-131.76 232.53,-142.3 238.87,-139.33"/>
</g>
<!-- Node8&#45;&gt;Node3 -->
<g id="edge15" class="edge">
<title>Node8&#45;&gt;Node3</title>
<path fill="none" stroke="midnightblue" d="M234.71,-75.63C256.67,-84.74 289.83,-98.49 314.34,-108.66"/>
<polygon fill="midnightblue" stroke="midnightblue" points="313.02,-111.9 323.6,-112.5 315.7,-105.43 313.02,-111.9"/>
</g>
<!-- Node8&#45;&gt;Node8 -->
<g id="edge16" class="edge">
<title>Node8&#45;&gt;Node8</title>
<path fill="none" stroke="midnightblue" d="M189.54,-75.76C179.34,-84.57 186.33,-94 210.5,-94 225.99,-94 234.42,-90.13 235.8,-85.03"/>
<polygon fill="midnightblue" stroke="midnightblue" points="238.87,-83.33 231.46,-75.76 232.53,-86.3 238.87,-83.33"/>
</g>
<!-- Node9&#45;&gt;Node9 -->
<g id="edge18" class="edge">
<title>Node9&#45;&gt;Node9</title>
<path fill="none" stroke="midnightblue" d="M189.54,-19.76C179.34,-28.57 186.33,-38 210.5,-38 225.99,-38 234.42,-34.13 235.8,-29.03"/>
<polygon fill="midnightblue" stroke="midnightblue" points="238.87,-27.33 231.46,-19.76 232.53,-30.3 238.87,-27.33"/>
</g>
</g>
</svg>
