<?xml version="1.0" encoding="UTF-8" standalone="no"?>
<!DOCTYPE svg PUBLIC "-//W3C//DTD SVG 1.1//EN"
 "http://www.w3.org/Graphics/SVG/1.1/DTD/svg11.dtd">
<!-- Generated by graphviz version 2.49.3 (20211027.1534)
 -->
<!-- Title: download_steam_appids Pages: 1 -->
<svg width="863pt" height="57pt"
 viewBox="0.00 0.00 863.00 57.00" xmlns="http://www.w3.org/2000/svg" xmlns:xlink="http://www.w3.org/1999/xlink">
<g id="graph0" class="graph" transform="scale(1 1) rotate(0) translate(4 53)">
<title>download_steam_appids</title>
<polygon fill="white" stroke="transparent" points="-4,4 -4,-53 859,-53 859,4 -4,4"/>
<!-- Node1 -->
<g id="node1" class="node">
<title>Node1</title>
<g id="a_node1"><a xlink:title=" ">
<polygon fill="#bfbfbf" stroke="black" points="731,-6 731,-25 855,-25 855,-6 731,-6"/>
<text text-anchor="middle" x="793" y="-13" font-family="Helvetica,sans-Serif" font-size="10.00">download_steam_appids</text>
</a>
</g>
</g>
<!-- Node1&#45;&gt;Node1 -->
<g id="edge1" class="edge">
<title>Node1&#45;&gt;Node1</title>
<path fill="none" stroke="midnightblue" d="M820.63,-34.15C819.47,-39.44 810.26,-43.5 793,-43.5 766.7,-43.5 759.09,-34.07 770.19,-25.26"/>
<polygon fill="midnightblue" stroke="midnightblue" points="823.65,-32.39 815.81,-25.26 817.49,-35.72 823.65,-32.39"/>
</g>
<!-- Node2 -->
<g id="node2" class="node">
<title>Node2</title>
<g id="a_node2"><a xlink:href="namespacerare_1_1utils_1_1steam__grades.html#a91a678d45c88d7b969f104aaf105bc5a" target="_top" xlink:title=" ">
<polygon fill="white" stroke="black" points="594,-6 594,-25 695,-25 695,-6 594,-6"/>
<text text-anchor="middle" x="644.5" y="-13" font-family="Helvetica,sans-Serif" font-size="10.00">load_steam_appids</text>
</a>
</g>
</g>
<!-- Node1&#45;&gt;Node2 -->
<g id="edge2" class="edge">
<title>Node1&#45;&gt;Node2</title>
<path fill="none" stroke="midnightblue" d="M720.44,-15.5C711.98,-15.5 703.49,-15.5 695.42,-15.5"/>
<polygon fill="midnightblue" stroke="midnightblue" points="720.72,-19 730.72,-15.5 720.72,-12 720.72,-19"/>
</g>
<!-- Node2&#45;&gt;Node2 -->
<g id="edge11" class="edge">
<title>Node2&#45;&gt;Node2</title>
<path fill="none" stroke="midnightblue" d="M667.57,-34.53C666.31,-39.63 658.62,-43.5 644.5,-43.5 622.46,-43.5 616.09,-34.07 625.39,-25.26"/>
<polygon fill="midnightblue" stroke="midnightblue" points="670.75,-33.08 663.61,-25.26 664.31,-35.83 670.75,-33.08"/>
</g>
<!-- Node3 -->
<g id="node3" class="node">
<title>Node3</title>
<g id="a_node3"><a xlink:href="namespacerare_1_1utils_1_1steam__grades.html#a4fbb4d953a461c946de723d1f1751396" target="_top" xlink:title=" ">
<polygon fill="white" stroke="black" points="483,-6 483,-25 558,-25 558,-6 483,-6"/>
<text text-anchor="middle" x="520.5" y="-13" font-family="Helvetica,sans-Serif" font-size="10.00">get_steam_id</text>
</a>
</g>
</g>
<!-- Node2&#45;&gt;Node3 -->
<g id="edge3" class="edge">
<title>Node2&#45;&gt;Node3</title>
<path fill="none" stroke="midnightblue" d="M583.76,-15.5C575.09,-15.5 566.39,-15.5 558.35,-15.5"/>
<polygon fill="midnightblue" stroke="midnightblue" points="583.88,-19 593.88,-15.5 583.88,-12 583.88,-19"/>
</g>
<!-- Node3&#45;&gt;Node3 -->
<g id="edge10" class="edge">
<title>Node3&#45;&gt;Node3</title>
<path fill="none" stroke="midnightblue" d="M539.39,-34.9C538.13,-39.81 531.83,-43.5 520.5,-43.5 502.37,-43.5 497.13,-34.07 504.78,-25.26"/>
<polygon fill="midnightblue" stroke="midnightblue" points="542.67,-33.67 536.22,-25.26 536.02,-35.85 542.67,-33.67"/>
</g>
<!-- Node4 -->
<g id="node4" class="node">
<title>Node4</title>
<g id="a_node4"><a xlink:href="namespacerare_1_1utils_1_1steam__grades.html#a4e7b99fc1497122026fa827e8a81368b" target="_top" xlink:title=" ">
<polygon fill="white" stroke="black" points="388,-6 388,-25 447,-25 447,-6 388,-6"/>
<text text-anchor="middle" x="417.5" y="-13" font-family="Helvetica,sans-Serif" font-size="10.00">get_rating</text>
</a>
</g>
</g>
<!-- Node3&#45;&gt;Node4 -->
<g id="edge4" class="edge">
<title>Node3&#45;&gt;Node4</title>
<path fill="none" stroke="midnightblue" d="M472.66,-15.5C463.95,-15.5 455.1,-15.5 447.15,-15.5"/>
<polygon fill="midnightblue" stroke="midnightblue" points="472.75,-19 482.75,-15.5 472.75,-12 472.75,-19"/>
</g>
<!-- Node4&#45;&gt;Node4 -->
<g id="edge5" class="edge">
<title>Node4&#45;&gt;Node4</title>
<path fill="none" stroke="midnightblue" d="M436.39,-34.9C435.13,-39.81 428.83,-43.5 417.5,-43.5 399.37,-43.5 394.13,-34.07 401.78,-25.26"/>
<polygon fill="midnightblue" stroke="midnightblue" points="439.67,-33.67 433.22,-25.26 433.02,-35.85 439.67,-33.67"/>
</g>
<!-- Node5 -->
<g id="node5" class="node">
<title>Node5</title>
<g id="a_node5"><a xlink:href="classrare_1_1models_1_1game_1_1_rare_game.html#a9b76c292a174e6a6013ae0b0d6f2b4b5" target="_top" xlink:title=" ">
<polygon fill="white" stroke="black" points="194,-0.5 194,-30.5 352,-30.5 352,-0.5 194,-0.5"/>
<text text-anchor="start" x="202" y="-18.5" font-family="Helvetica,sans-Serif" font-size="10.00">rare.models.game.RareGame.set</text>
<text text-anchor="middle" x="273" y="-7.5" font-family="Helvetica,sans-Serif" font-size="10.00">_steam_grade</text>
</a>
</g>
</g>
<!-- Node4&#45;&gt;Node5 -->
<g id="edge6" class="edge">
<title>Node4&#45;&gt;Node5</title>
<path fill="none" stroke="midnightblue" d="M377.58,-15.5C369.58,-15.5 360.88,-15.5 352.04,-15.5"/>
<polygon fill="midnightblue" stroke="midnightblue" points="377.66,-19 387.66,-15.5 377.66,-12 377.66,-19"/>
</g>
<!-- Node5&#45;&gt;Node5 -->
<g id="edge9" class="edge">
<title>Node5&#45;&gt;Node5</title>
<path fill="none" stroke="midnightblue" d="M298.59,-40.96C295.41,-45.68 286.88,-49 273,-49 250.22,-49 241.85,-40.06 247.91,-30.66"/>
<polygon fill="midnightblue" stroke="midnightblue" points="302.07,-40.48 298.09,-30.66 295.08,-40.81 302.07,-40.48"/>
</g>
<!-- Node6 -->
<g id="node6" class="node">
<title>Node6</title>
<g id="a_node6"><a xlink:href="classrare_1_1models_1_1game_1_1_rare_game.html#a1b184a94ba3b2d1dee4c2540864607cf" target="_top" xlink:title=" ">
<polygon fill="white" stroke="black" points="0,-0.5 0,-30.5 158,-30.5 158,-0.5 0,-0.5"/>
<text text-anchor="start" x="8" y="-18.5" font-family="Helvetica,sans-Serif" font-size="10.00">rare.models.game.RareGame.get</text>
<text text-anchor="middle" x="79" y="-7.5" font-family="Helvetica,sans-Serif" font-size="10.00">_steam_grade</text>
</a>
</g>
</g>
<!-- Node5&#45;&gt;Node6 -->
<g id="edge7" class="edge">
<title>Node5&#45;&gt;Node6</title>
<path fill="none" stroke="midnightblue" d="M183.85,-15.5C175.23,-15.5 166.53,-15.5 158.02,-15.5"/>
<polygon fill="midnightblue" stroke="midnightblue" points="183.91,-19 193.91,-15.5 183.91,-12 183.91,-19"/>
</g>
<!-- Node6&#45;&gt;Node6 -->
<g id="edge8" class="edge">
<title>Node6&#45;&gt;Node6</title>
<path fill="none" stroke="midnightblue" d="M113.12,-40.96C108.88,-45.68 97.51,-49 79,-49 48.62,-49 37.47,-40.06 45.54,-30.66"/>
<polygon fill="midnightblue" stroke="midnightblue" points="116.59,-40.42 112.46,-30.66 109.6,-40.86 116.59,-40.42"/>
</g>
</g>
</svg>
