<?xml version="1.0" encoding="UTF-8" standalone="no"?>
<!DOCTYPE svg PUBLIC "-//W3C//DTD SVG 1.1//EN"
 "http://www.w3.org/Graphics/SVG/1.1/DTD/svg11.dtd">
<!-- Generated by graphviz version 2.49.3 (20211027.1534)
 -->
<!-- Title: find_steam Pages: 1 -->
<svg width="166pt" height="46pt"
 viewBox="0.00 0.00 166.00 46.00" xmlns="http://www.w3.org/2000/svg" xmlns:xlink="http://www.w3.org/1999/xlink">
<g id="graph0" class="graph" transform="scale(1 1) rotate(0) translate(4 42)">
<title>find_steam</title>
<polygon fill="white" stroke="transparent" points="-4,4 -4,-42 162,-42 162,4 -4,4"/>
<!-- Node1 -->
<g id="node1" class="node">
<title>Node1</title>
<g id="a_node1"><a xlink:title=" ">
<polygon fill="#bfbfbf" stroke="black" points="94,-0.5 94,-19.5 158,-19.5 158,-0.5 94,-0.5"/>
<text text-anchor="middle" x="126" y="-7.5" font-family="Helvetica,sans-Serif" font-size="10.00">find_steam</text>
</a>
</g>
</g>
<!-- Node1&#45;&gt;Node1 -->
<g id="edge1" class="edge">
<title>Node1&#45;&gt;Node1</title>
<path fill="none" stroke="midnightblue" d="M143.78,-29.4C142.59,-34.31 136.66,-38 126,-38 108.94,-38 104.01,-28.57 111.2,-19.76"/>
<polygon fill="midnightblue" stroke="midnightblue" points="147.09,-28.28 140.8,-19.76 140.41,-30.34 147.09,-28.28"/>
</g>
<!-- Node2 -->
<g id="node2" class="node">
<title>Node2</title>
<g id="a_node2"><a xlink:href="namespacerare_1_1utils_1_1proton.html#a3688cd90e6016191a861edf4448def61" target="_top" xlink:title=" ">
<polygon fill="white" stroke="black" points="0,-0.5 0,-19.5 58,-19.5 58,-0.5 0,-0.5"/>
<text text-anchor="middle" x="29" y="-7.5" font-family="Helvetica,sans-Serif" font-size="10.00">find_tools</text>
</a>
</g>
</g>
<!-- Node1&#45;&gt;Node2 -->
<g id="edge2" class="edge">
<title>Node1&#45;&gt;Node2</title>
<path fill="none" stroke="midnightblue" d="M83.66,-10C75.09,-10 66.26,-10 58.29,-10"/>
<polygon fill="midnightblue" stroke="midnightblue" points="83.89,-13.5 93.89,-10 83.89,-6.5 83.89,-13.5"/>
</g>
<!-- Node2&#45;&gt;Node2 -->
<g id="edge3" class="edge">
<title>Node2&#45;&gt;Node2</title>
<path fill="none" stroke="midnightblue" d="M46.78,-29.4C45.59,-34.31 39.66,-38 29,-38 11.94,-38 7.01,-28.57 14.2,-19.76"/>
<polygon fill="midnightblue" stroke="midnightblue" points="50.09,-28.28 43.8,-19.76 43.41,-30.34 50.09,-28.28"/>
</g>
</g>
</svg>
