<?xml version="1.0" encoding="UTF-8" standalone="no"?>
<!DOCTYPE svg PUBLIC "-//W3C//DTD SVG 1.1//EN"
 "http://www.w3.org/Graphics/SVG/1.1/DTD/svg11.dtd">
<!-- Generated by graphviz version 2.49.3 (20211027.1534)
 -->
<!-- Title: icon Pages: 1 -->
<!--zoomable 747 -->
<svg id="main" version="1.1" xmlns="http://www.w3.org/2000/svg" xmlns:xlink="http://www.w3.org/1999/xlink" xml:space="preserve" onload="init(evt)">
<style type="text/css"><![CDATA[
.edge:hover path { stroke: red; }
.edge:hover polygon { stroke: red; fill: red; }
]]></style>
<script type="text/javascript"><![CDATA[
var edges = document.getElementsByTagName('g');
if (edges && edges.length) {
  for (var i=0;i<edges.length;i++) {
    if (edges[i].id.substr(0,4)=='edge') {
      edges[i].setAttribute('class','edge');
    }
  }
}
]]></script>
        <defs>
                <circle id="rim" cx="0" cy="0" r="7"/>
                <circle id="rim2" cx="0" cy="0" r="3.5"/>
                <g id="zoomPlus">
                        <use xlink:href="#rim" fill="#404040">
                                <set attributeName="fill" to="#808080" begin="zoomplus.mouseover" end="zoomplus.mouseout"/>
                        </use>
                        <path d="M-4,0h8M0,-4v8" fill="none" stroke="white" stroke-width="1.5" pointer-events="none"/>
                </g>
                <g id="zoomMin">
                        <use xlink:href="#rim" fill="#404040">
                                <set attributeName="fill" to="#808080" begin="zoomminus.mouseover" end="zoomminus.mouseout"/>
                        </use>
                        <path d="M-4,0h8" fill="none" stroke="white" stroke-width="1.5" pointer-events="none"/>
                </g>
                <g id="dirArrow">
                        <path fill="none" stroke="white" stroke-width="1.5" d="M0,-3.0v7 M-2.5,-0.5L0,-3.0L2.5,-0.5"/>
                </g>
               <g id="resetDef">
                       <use xlink:href="#rim2" fill="#404040">
                               <set attributeName="fill" to="#808080" begin="reset.mouseover" end="reset.mouseout"/>
                       </use>
               </g>
        </defs>

<script type="text/javascript">
var viewWidth = 2173;
var viewHeight = 747;
var sectionId = 'dynsection-19';
</script>
<script xlink:href="svgpan.js"/>
<svg id="graph" class="graph">
<g id="viewport">
<title>icon</title>
<polygon fill="white" stroke="transparent" points="-4,4 -4,-742.5 2168.56,-742.5 2168.56,4 -4,4"/>
<!-- Node1 -->
<g id="node1" class="node">
<title>Node1</title>
<g id="a_node1"><a xlink:title=" ">
<polygon fill="#bfbfbf" stroke="black" points="2117,-527 2117,-546 2152,-546 2152,-527 2117,-527"/>
<text text-anchor="middle" x="2134.5" y="-534" font-family="Helvetica,sans-Serif" font-size="10.00">icon</text>
</a>
</g>
</g>
<!-- Node1&#45;&gt;Node1 -->
<g id="edge11" class="edge">
<title>Node1&#45;&gt;Node1</title>
<path fill="none" stroke="midnightblue" d="M2160.91,-547.67C2170.22,-556.05 2161.42,-564.5 2134.5,-564.5 2101.69,-564.5 2095.79,-551.94 2116.81,-542.27"/>
<polygon fill="midnightblue" stroke="midnightblue" points="2162.53,-544.56 2152.19,-542.27 2158.85,-550.51 2162.53,-544.56"/>
</g>
<!-- Node2 -->
<g id="node2" class="node">
<title>Node2</title>
<g id="a_node2"><a xlink:href="classrare_1_1components_1_1tabs_1_1tab__utils_1_1_tab_button_widget.html#aa78134c28498001255dce821de1d6497" target="_top" xlink:title=" ">
<polygon fill="white" stroke="black" points="1911.5,-679 1911.5,-720 2036.5,-720 2036.5,-679 1911.5,-679"/>
<text text-anchor="start" x="1919.5" y="-708" font-family="Helvetica,sans-Serif" font-size="10.00">rare.components.tabs.tab</text>
<text text-anchor="start" x="1919.5" y="-697" font-family="Helvetica,sans-Serif" font-size="10.00">_utils.TabButtonWidget.</text>
<text text-anchor="middle" x="1974" y="-686" font-family="Helvetica,sans-Serif" font-size="10.00">__init__</text>
</a>
</g>
</g>
<!-- Node1&#45;&gt;Node2 -->
<g id="edge1" class="edge">
<title>Node1&#45;&gt;Node2</title>
<path fill="none" stroke="midnightblue" d="M2130.67,-556.18C2125.63,-584.12 2112.5,-635.14 2081,-664.5 2068.74,-675.93 2052.66,-683.63 2036.74,-688.82"/>
<polygon fill="midnightblue" stroke="midnightblue" points="2134.16,-556.5 2132.32,-546.06 2127.26,-555.37 2134.16,-556.5"/>
</g>
<!-- Node3 -->
<g id="node3" class="node">
<title>Node3</title>
<g id="a_node3"><a xlink:href="classrare_1_1components_1_1tabs_1_1settings_1_1widgets_1_1ubisoft__activation_1_1_ubi_link_widget.html#a8f9705707225e3a806138596d5edae0d" target="_top" xlink:title=" ">
<polygon fill="white" stroke="black" points="203,-603.5 203,-633.5 417,-633.5 417,-603.5 203,-603.5"/>
<text text-anchor="start" x="211" y="-621.5" font-family="Helvetica,sans-Serif" font-size="10.00">rare.components.tabs.settings.widgets.ubisoft</text>
<text text-anchor="middle" x="310" y="-610.5" font-family="Helvetica,sans-Serif" font-size="10.00">_activation.UbiLinkWidget.activate</text>
</a>
</g>
</g>
<!-- Node1&#45;&gt;Node3 -->
<g id="edge3" class="edge">
<title>Node1&#45;&gt;Node3</title>
<path fill="none" stroke="midnightblue" d="M2117.14,-553.47C2107.46,-562.54 2094.48,-573.12 2081,-579.5 1935.75,-648.23 1887.18,-650.5 1726.5,-650.5 1726.5,-650.5 1726.5,-650.5 738.5,-650.5 628.72,-650.5 503.53,-639.88 417.12,-630.87"/>
<polygon fill="midnightblue" stroke="midnightblue" points="2119.74,-555.83 2124.44,-546.33 2114.85,-550.82 2119.74,-555.83"/>
</g>
<!-- Node4 -->
<g id="node4" class="node">
<title>Node4</title>
<g id="a_node4"><a xlink:href="classrare_1_1components_1_1tabs_1_1settings_1_1widgets_1_1env__vars_1_1_env_vars.html#ae38c470a1cbefa92857f68f71d1ecfc1" target="_top" xlink:title=" ">
<polygon fill="white" stroke="black" points="1874,-134.5 1874,-164.5 2074,-164.5 2074,-134.5 1874,-134.5"/>
<text text-anchor="start" x="1882" y="-152.5" font-family="Helvetica,sans-Serif" font-size="10.00">rare.components.tabs.settings.widgets.env</text>
<text text-anchor="middle" x="1974" y="-141.5" font-family="Helvetica,sans-Serif" font-size="10.00">_vars.EnvVars.append_row</text>
</a>
</g>
</g>
<!-- Node1&#45;&gt;Node4 -->
<g id="edge5" class="edge">
<title>Node1&#45;&gt;Node4</title>
<path fill="none" stroke="midnightblue" d="M2125.75,-517.58C2098.29,-450.54 2005.93,-225.03 1981.16,-164.54"/>
<polygon fill="midnightblue" stroke="midnightblue" points="2122.55,-519.01 2129.58,-526.93 2129.03,-516.35 2122.55,-519.01"/>
</g>
<!-- Node7 -->
<g id="node7" class="node">
<title>Node7</title>
<g id="a_node7"><a xlink:href="classrare_1_1components_1_1tabs_1_1settings_1_1widgets_1_1env__vars_1_1_env_vars.html#a6594f54fed6d18ec8238938f49770ddf" target="_top" xlink:title=" ">
<polygon fill="white" stroke="black" points="1874,-34.5 1874,-64.5 2074,-64.5 2074,-34.5 1874,-34.5"/>
<text text-anchor="start" x="1882" y="-52.5" font-family="Helvetica,sans-Serif" font-size="10.00">rare.components.tabs.settings.widgets.env</text>
<text text-anchor="middle" x="1974" y="-41.5" font-family="Helvetica,sans-Serif" font-size="10.00">_vars.EnvVars.import_env_vars</text>
</a>
</g>
</g>
<!-- Node1&#45;&gt;Node7 -->
<g id="edge12" class="edge">
<title>Node1&#45;&gt;Node7</title>
<path fill="none" stroke="midnightblue" d="M2133.04,-516.79C2131.03,-444.27 2121.23,-192.93 2081,-125.5 2064.41,-97.69 2033.28,-77.24 2009.03,-64.6"/>
<polygon fill="midnightblue" stroke="midnightblue" points="2129.54,-516.93 2133.3,-526.84 2136.54,-516.75 2129.54,-516.93"/>
</g>
<!-- Node9 -->
<g id="node9" class="node">
<title>Node9</title>
<g id="a_node9"><a xlink:href="classrare_1_1components_1_1tabs_1_1settings_1_1widgets_1_1ubisoft__activation_1_1_ubi_link_widget.html#a4f1fc3fc743e9e74ae4d1c677928ef3f" target="_top" xlink:title=" ">
<polygon fill="white" stroke="black" points="1867,-521.5 1867,-551.5 2081,-551.5 2081,-521.5 1867,-521.5"/>
<text text-anchor="start" x="1875" y="-539.5" font-family="Helvetica,sans-Serif" font-size="10.00">rare.components.tabs.settings.widgets.ubisoft</text>
<text text-anchor="middle" x="1974" y="-528.5" font-family="Helvetica,sans-Serif" font-size="10.00">_activation.UbiLinkWidget.worker_finished</text>
</a>
</g>
</g>
<!-- Node1&#45;&gt;Node9 -->
<g id="edge16" class="edge">
<title>Node1&#45;&gt;Node9</title>
<path fill="none" stroke="midnightblue" d="M2106.64,-536.5C2099.06,-536.5 2090.33,-536.5 2081.05,-536.5"/>
<polygon fill="midnightblue" stroke="midnightblue" points="2106.84,-540 2116.84,-536.5 2106.84,-533 2106.84,-540"/>
</g>
<!-- Node2&#45;&gt;Node2 -->
<g id="edge2" class="edge">
<title>Node2&#45;&gt;Node2</title>
<path fill="none" stroke="midnightblue" d="M2001.53,-730.36C1997.43,-735.2 1988.26,-738.5 1974,-738.5 1951.19,-738.5 1941.39,-730.04 1944.59,-720.36"/>
<polygon fill="midnightblue" stroke="midnightblue" points="2005,-730.84 2003.41,-720.36 1998.12,-729.54 2005,-730.84"/>
</g>
<!-- Node3&#45;&gt;Node3 -->
<g id="edge4" class="edge">
<title>Node3&#45;&gt;Node3</title>
<path fill="none" stroke="midnightblue" d="M350.16,-643.96C345.17,-648.68 331.79,-652 310,-652 274.25,-652 261.12,-643.06 270.61,-633.66"/>
<polygon fill="midnightblue" stroke="midnightblue" points="353.62,-643.37 349.39,-633.66 346.64,-643.89 353.62,-643.37"/>
</g>
<!-- Node4&#45;&gt;Node4 -->
<g id="edge6" class="edge">
<title>Node4&#45;&gt;Node4</title>
<path fill="none" stroke="midnightblue" d="M2002.43,-174.96C1998.9,-179.68 1989.42,-183 1974,-183 1948.69,-183 1939.39,-174.06 1946.12,-164.66"/>
<polygon fill="midnightblue" stroke="midnightblue" points="2005.91,-174.46 2001.88,-164.66 1998.92,-174.83 2005.91,-174.46"/>
</g>
<!-- Node5 -->
<g id="node5" class="node">
<title>Node5</title>
<g id="a_node5"><a xlink:href="classrare_1_1components_1_1tabs_1_1settings_1_1widgets_1_1env__vars_1_1_env_vars.html#afe9d900cd720fa60b68a2a4319cb7896" target="_top" xlink:title=" ">
<polygon fill="white" stroke="black" points="1625.5,-67.5 1625.5,-97.5 1825.5,-97.5 1825.5,-67.5 1625.5,-67.5"/>
<text text-anchor="start" x="1633.5" y="-85.5" font-family="Helvetica,sans-Serif" font-size="10.00">rare.components.tabs.settings.widgets.env</text>
<text text-anchor="middle" x="1725.5" y="-74.5" font-family="Helvetica,sans-Serif" font-size="10.00">_vars.EnvVars.keyPressEvent</text>
</a>
</g>
</g>
<!-- Node4&#45;&gt;Node5 -->
<g id="edge7" class="edge">
<title>Node4&#45;&gt;Node5</title>
<path fill="none" stroke="midnightblue" d="M1907.95,-131.82C1868.77,-121.17 1819.41,-107.75 1782.06,-97.6"/>
<polygon fill="midnightblue" stroke="midnightblue" points="1907.11,-135.22 1917.68,-134.46 1908.95,-128.46 1907.11,-135.22"/>
</g>
<!-- Node6 -->
<g id="node6" class="node">
<title>Node6</title>
<g id="a_node6"><a xlink:href="classrare_1_1components_1_1tabs_1_1settings_1_1widgets_1_1env__vars_1_1_env_vars.html#a05240a7bd39186f1533345113d3342e8" target="_top" xlink:title=" ">
<polygon fill="white" stroke="black" points="1625.5,-134.5 1625.5,-164.5 1825.5,-164.5 1825.5,-134.5 1625.5,-134.5"/>
<text text-anchor="start" x="1633.5" y="-152.5" font-family="Helvetica,sans-Serif" font-size="10.00">rare.components.tabs.settings.widgets.env</text>
<text text-anchor="middle" x="1725.5" y="-141.5" font-family="Helvetica,sans-Serif" font-size="10.00">_vars.EnvVars.update_env_vars</text>
</a>
</g>
</g>
<!-- Node4&#45;&gt;Node6 -->
<g id="edge9" class="edge">
<title>Node4&#45;&gt;Node6</title>
<path fill="none" stroke="midnightblue" d="M1863.75,-149.5C1851.15,-149.5 1838.35,-149.5 1825.89,-149.5"/>
<polygon fill="midnightblue" stroke="midnightblue" points="1863.8,-153 1873.8,-149.5 1863.8,-146 1863.8,-153"/>
</g>
<!-- Node5&#45;&gt;Node5 -->
<g id="edge8" class="edge">
<title>Node5&#45;&gt;Node5</title>
<path fill="none" stroke="midnightblue" d="M1765.3,-107.96C1760.36,-112.68 1747.09,-116 1725.5,-116 1690.06,-116 1677.05,-107.06 1686.46,-97.66"/>
<polygon fill="midnightblue" stroke="midnightblue" points="1768.77,-107.37 1764.54,-97.66 1761.79,-107.89 1768.77,-107.37"/>
</g>
<!-- Node6&#45;&gt;Node6 -->
<g id="edge10" class="edge">
<title>Node6&#45;&gt;Node6</title>
<path fill="none" stroke="midnightblue" d="M1765.3,-174.96C1760.36,-179.68 1747.09,-183 1725.5,-183 1690.06,-183 1677.05,-174.06 1686.46,-164.66"/>
<polygon fill="midnightblue" stroke="midnightblue" points="1768.77,-174.37 1764.54,-164.66 1761.79,-174.89 1768.77,-174.37"/>
</g>
<!-- Node7&#45;&gt;Node7 -->
<g id="edge13" class="edge">
<title>Node7&#45;&gt;Node7</title>
<path fill="none" stroke="midnightblue" d="M2002.43,-74.96C1998.9,-79.68 1989.42,-83 1974,-83 1948.69,-83 1939.39,-74.06 1946.12,-64.66"/>
<polygon fill="midnightblue" stroke="midnightblue" points="2005.91,-74.46 2001.88,-64.66 1998.92,-74.83 2005.91,-74.46"/>
</g>
<!-- Node8 -->
<g id="node8" class="node">
<title>Node8</title>
<g id="a_node8"><a xlink:href="classrare_1_1components_1_1tabs_1_1settings_1_1widgets_1_1env__vars_1_1_env_vars.html#a6e4277e7490bb43e8083cbabae2988a7" target="_top" xlink:title=" ">
<polygon fill="white" stroke="black" points="1625.5,-0.5 1625.5,-30.5 1825.5,-30.5 1825.5,-0.5 1625.5,-0.5"/>
<text text-anchor="start" x="1633.5" y="-18.5" font-family="Helvetica,sans-Serif" font-size="10.00">rare.components.tabs.settings.widgets.env</text>
<text text-anchor="middle" x="1725.5" y="-7.5" font-family="Helvetica,sans-Serif" font-size="10.00">_vars.EnvVars.update_game</text>
</a>
</g>
</g>
<!-- Node7&#45;&gt;Node8 -->
<g id="edge14" class="edge">
<title>Node7&#45;&gt;Node8</title>
<path fill="none" stroke="midnightblue" d="M1863.75,-34.43C1851.15,-32.69 1838.35,-30.93 1825.89,-29.21"/>
<polygon fill="midnightblue" stroke="midnightblue" points="1863.42,-37.92 1873.8,-35.82 1864.38,-30.98 1863.42,-37.92"/>
</g>
<!-- Node8&#45;&gt;Node8 -->
<g id="edge15" class="edge">
<title>Node8&#45;&gt;Node8</title>
<path fill="none" stroke="midnightblue" d="M1765.3,-40.96C1760.36,-45.68 1747.09,-49 1725.5,-49 1690.06,-49 1677.05,-40.06 1686.46,-30.66"/>
<polygon fill="midnightblue" stroke="midnightblue" points="1768.77,-40.37 1764.54,-30.66 1761.79,-40.89 1768.77,-40.37"/>
</g>
<!-- Node9&#45;&gt;Node3 -->
<g id="edge17" class="edge">
<title>Node9&#45;&gt;Node3</title>
<path fill="none" stroke="midnightblue" d="M1921.47,-554.74C1894.78,-563.51 1861.48,-573.42 1831,-579.5 1686.67,-608.3 1648.68,-612.5 1501.5,-612.5 1501.5,-612.5 1501.5,-612.5 738.5,-612.5 629.02,-612.5 503.78,-614.49 417.28,-616.18"/>
<polygon fill="midnightblue" stroke="midnightblue" points="1922.6,-558.06 1930.98,-551.57 1920.39,-551.41 1922.6,-558.06"/>
</g>
<!-- Node9&#45;&gt;Node9 -->
<g id="edge56" class="edge">
<title>Node9&#45;&gt;Node9</title>
<path fill="none" stroke="midnightblue" d="M2002.43,-561.96C1998.9,-566.68 1989.42,-570 1974,-570 1948.69,-570 1939.39,-561.06 1946.12,-551.66"/>
<polygon fill="midnightblue" stroke="midnightblue" points="2005.91,-561.46 2001.88,-551.66 1998.92,-561.83 2005.91,-561.46"/>
</g>
<!-- Node10 -->
<g id="node10" class="node">
<title>Node10</title>
<g id="a_node10"><a xlink:href="classrare_1_1components_1_1tabs_1_1games_1_1cloud__save__utils_1_1_cloud_save_utils.html#a398a7b51391d4f2b1854e3d8cda2f9a3" target="_top" xlink:title=" ">
<polygon fill="white" stroke="black" points="1620,-521.5 1620,-551.5 1831,-551.5 1831,-521.5 1620,-521.5"/>
<text text-anchor="start" x="1628" y="-539.5" font-family="Helvetica,sans-Serif" font-size="10.00">rare.components.tabs.games.cloud</text>
<text text-anchor="middle" x="1725.5" y="-528.5" font-family="Helvetica,sans-Serif" font-size="10.00">_save_utils.CloudSaveUtils.download_saves</text>
</a>
</g>
</g>
<!-- Node9&#45;&gt;Node10 -->
<g id="edge18" class="edge">
<title>Node9&#45;&gt;Node10</title>
<path fill="none" stroke="midnightblue" d="M1856.46,-536.5C1848.06,-536.5 1839.63,-536.5 1831.3,-536.5"/>
<polygon fill="midnightblue" stroke="midnightblue" points="1856.67,-540 1866.67,-536.5 1856.67,-533 1856.67,-540"/>
</g>
<!-- Node22 -->
<g id="node22" class="node">
<title>Node22</title>
<g id="a_node22"><a xlink:href="classrare_1_1components_1_1tabs_1_1games_1_1cloud__save__utils_1_1_cloud_save_utils.html#aabe920f2c8b262a0d16df2ef0ceafad8" target="_top" xlink:title=" ">
<polygon fill="white" stroke="black" points="211,-275.5 211,-305.5 409,-305.5 409,-275.5 211,-275.5"/>
<text text-anchor="start" x="219" y="-293.5" font-family="Helvetica,sans-Serif" font-size="10.00">rare.components.tabs.games.cloud</text>
<text text-anchor="middle" x="310" y="-282.5" font-family="Helvetica,sans-Serif" font-size="10.00">_save_utils.CloudSaveUtils.upload_saves</text>
</a>
</g>
</g>
<!-- Node9&#45;&gt;Node22 -->
<g id="edge55" class="edge">
<title>Node9&#45;&gt;Node22</title>
<path fill="none" stroke="midnightblue" d="M1956.12,-512.93C1900.46,-438.2 1714.07,-211.5 1501.5,-211.5 1501.5,-211.5 1501.5,-211.5 738.5,-211.5 610.43,-211.5 578.38,-224.41 453,-250.5 421.03,-257.15 385.68,-267.1 358.25,-275.41"/>
<polygon fill="midnightblue" stroke="midnightblue" points="1953.51,-515.28 1962.26,-521.26 1959.15,-511.13 1953.51,-515.28"/>
</g>
<!-- Node10&#45;&gt;Node10 -->
<g id="edge19" class="edge">
<title>Node10&#45;&gt;Node10</title>
<path fill="none" stroke="midnightblue" d="M1765.3,-561.96C1760.36,-566.68 1747.09,-570 1725.5,-570 1690.06,-570 1677.05,-561.06 1686.46,-551.66"/>
<polygon fill="midnightblue" stroke="midnightblue" points="1768.77,-561.37 1764.54,-551.66 1761.79,-561.89 1768.77,-561.37"/>
</g>
<!-- Node11 -->
<g id="node11" class="node">
<title>Node11</title>
<g id="a_node11"><a xlink:href="classrare_1_1components_1_1tabs_1_1games_1_1cloud__save__utils_1_1_cloud_save_utils.html#a970c7d031af196eae774c1e0fa78daab" target="_top" xlink:title=" ">
<polygon fill="white" stroke="black" points="1417,-411 1417,-452 1584,-452 1584,-411 1417,-411"/>
<text text-anchor="start" x="1425" y="-440" font-family="Helvetica,sans-Serif" font-size="10.00">rare.components.tabs.games.cloud</text>
<text text-anchor="start" x="1425" y="-429" font-family="Helvetica,sans-Serif" font-size="10.00">_save_utils.CloudSaveUtils.game</text>
<text text-anchor="middle" x="1500.5" y="-418" font-family="Helvetica,sans-Serif" font-size="10.00">_finished</text>
</a>
</g>
</g>
<!-- Node10&#45;&gt;Node11 -->
<g id="edge20" class="edge">
<title>Node10&#45;&gt;Node11</title>
<path fill="none" stroke="midnightblue" d="M1683.02,-516.97C1643.82,-498.51 1585.23,-470.92 1545.29,-452.12"/>
<polygon fill="midnightblue" stroke="midnightblue" points="1682.01,-520.36 1692.55,-521.46 1684.99,-514.03 1682.01,-520.36"/>
</g>
<!-- Node23 -->
<g id="node23" class="node">
<title>Node23</title>
<g id="a_node23"><a xlink:href="classrare_1_1components_1_1tabs_1_1games_1_1cloud__save__utils_1_1_cloud_save_utils.html#abb078ea24f03a8b8317000d4af7416de" target="_top" xlink:title=" ">
<polygon fill="white" stroke="black" points="0,-412 0,-453 167,-453 167,-412 0,-412"/>
<text text-anchor="start" x="8" y="-441" font-family="Helvetica,sans-Serif" font-size="10.00">rare.components.tabs.games.cloud</text>
<text text-anchor="start" x="8" y="-430" font-family="Helvetica,sans-Serif" font-size="10.00">_save_utils.CloudSaveUtils.sync</text>
<text text-anchor="middle" x="83.5" y="-419" font-family="Helvetica,sans-Serif" font-size="10.00">_before_launch_game</text>
</a>
</g>
</g>
<!-- Node10&#45;&gt;Node23 -->
<g id="edge54" class="edge">
<title>Node10&#45;&gt;Node23</title>
<path fill="none" stroke="midnightblue" d="M1609.69,-552.32C1524.09,-562.75 1404.21,-574.5 1298.5,-574.5 1298.5,-574.5 1298.5,-574.5 535.5,-574.5 375.84,-574.5 198.45,-492.53 122.44,-453.15"/>
<polygon fill="midnightblue" stroke="midnightblue" points="1610.19,-555.78 1619.69,-551.08 1609.34,-548.83 1610.19,-555.78"/>
</g>
<!-- Node11&#45;&gt;Node11 -->
<g id="edge23" class="edge">
<title>Node11&#45;&gt;Node11</title>
<path fill="none" stroke="midnightblue" d="M1535.25,-462.36C1530.08,-467.2 1518.5,-470.5 1500.5,-470.5 1471.7,-470.5 1459.32,-462.04 1463.37,-452.36"/>
<polygon fill="midnightblue" stroke="midnightblue" points="1538.72,-462.9 1537.63,-452.36 1531.91,-461.28 1538.72,-462.9"/>
</g>
<!-- Node12 -->
<g id="node12" class="node">
<title>Node12</title>
<g id="a_node12"><a xlink:href="classrare_1_1components_1_1tabs_1_1games_1_1game__utils_1_1_game_process.html#a59c03cd7e6b87132c709e69907d4e0ed" target="_top" xlink:title=" ">
<polygon fill="white" stroke="black" points="1214,-411 1214,-452 1381,-452 1381,-411 1214,-411"/>
<text text-anchor="start" x="1222" y="-440" font-family="Helvetica,sans-Serif" font-size="10.00">rare.components.tabs.games.game</text>
<text text-anchor="start" x="1222" y="-429" font-family="Helvetica,sans-Serif" font-size="10.00">_utils.GameProcess.connect</text>
<text text-anchor="middle" x="1297.5" y="-418" font-family="Helvetica,sans-Serif" font-size="10.00">_to_server</text>
</a>
</g>
</g>
<!-- Node11&#45;&gt;Node12 -->
<g id="edge21" class="edge">
<title>Node11&#45;&gt;Node12</title>
<path fill="none" stroke="midnightblue" d="M1406.85,-431.5C1398.27,-431.5 1389.61,-431.5 1381.13,-431.5"/>
<polygon fill="midnightblue" stroke="midnightblue" points="1406.88,-435 1416.88,-431.5 1406.88,-428 1406.88,-435"/>
</g>
<!-- Node13 -->
<g id="node13" class="node">
<title>Node13</title>
<g id="a_node13"><a xlink:href="classrare_1_1components_1_1tabs_1_1games_1_1game__utils_1_1_game_utils.html#a6d84f785e188bb4dc5e05413dd1302ad" target="_top" xlink:title=" ">
<polygon fill="white" stroke="black" points="1214,-343.5 1214,-373.5 1381,-373.5 1381,-343.5 1214,-343.5"/>
<text text-anchor="start" x="1222" y="-361.5" font-family="Helvetica,sans-Serif" font-size="10.00">rare.components.tabs.games.game</text>
<text text-anchor="middle" x="1297.5" y="-350.5" font-family="Helvetica,sans-Serif" font-size="10.00">_utils.GameUtils.launch_game</text>
</a>
</g>
</g>
<!-- Node11&#45;&gt;Node13 -->
<g id="edge24" class="edge">
<title>Node11&#45;&gt;Node13</title>
<path fill="none" stroke="midnightblue" d="M1433.18,-407.41C1402.42,-396.24 1366.82,-383.31 1339.95,-373.55"/>
<polygon fill="midnightblue" stroke="midnightblue" points="1432.38,-410.85 1442.98,-410.97 1434.77,-404.27 1432.38,-410.85"/>
</g>
<!-- Node12&#45;&gt;Node12 -->
<g id="edge22" class="edge">
<title>Node12&#45;&gt;Node12</title>
<path fill="none" stroke="midnightblue" d="M1328.81,-462.36C1324.16,-467.2 1313.72,-470.5 1297.5,-470.5 1271.55,-470.5 1260.4,-462.04 1264.05,-452.36"/>
<polygon fill="midnightblue" stroke="midnightblue" points="1332.28,-462.88 1330.95,-452.36 1325.44,-461.41 1332.28,-462.88"/>
</g>
<!-- Node13&#45;&gt;Node13 -->
<g id="edge25" class="edge">
<title>Node13&#45;&gt;Node13</title>
<path fill="none" stroke="midnightblue" d="M1329.84,-383.96C1325.83,-388.68 1315.05,-392 1297.5,-392 1268.71,-392 1258.13,-383.06 1265.78,-373.66"/>
<polygon fill="midnightblue" stroke="midnightblue" points="1333.31,-383.43 1329.22,-373.66 1326.33,-383.85 1333.31,-383.43"/>
</g>
<!-- Node14 -->
<g id="node14" class="node">
<title>Node14</title>
<g id="a_node14"><a xlink:href="classrare_1_1components_1_1tabs_1_1games_1_1game__utils_1_1_game_utils.html#a4edad8bd72770b4d0924575036a40a3c" target="_top" xlink:title=" ">
<polygon fill="white" stroke="black" points="453,-383.5 453,-413.5 620,-413.5 620,-383.5 453,-383.5"/>
<text text-anchor="start" x="461" y="-401.5" font-family="Helvetica,sans-Serif" font-size="10.00">rare.components.tabs.games.game</text>
<text text-anchor="middle" x="536.5" y="-390.5" font-family="Helvetica,sans-Serif" font-size="10.00">_utils.GameUtils.prepare_launch</text>
</a>
</g>
</g>
<!-- Node13&#45;&gt;Node14 -->
<g id="edge26" class="edge">
<title>Node13&#45;&gt;Node14</title>
<path fill="none" stroke="midnightblue" d="M1243.37,-340.39C1131.34,-305.16 864.13,-236.8 656,-307.5 611.79,-322.52 571.17,-361.41 550.94,-383.17"/>
<polygon fill="midnightblue" stroke="midnightblue" points="1242.49,-343.78 1253.08,-343.48 1244.61,-337.11 1242.49,-343.78"/>
</g>
<!-- Node16 -->
<g id="node16" class="node">
<title>Node16</title>
<g id="a_node16"><a xlink:href="classrare_1_1game__launch__helper_1_1_game_process_app.html#a711d1d7df9874db34971779c941c4e5e" target="_top" xlink:title=" ">
<polygon fill="white" stroke="black" points="1051,-363.5 1051,-393.5 1178,-393.5 1178,-363.5 1051,-363.5"/>
<text text-anchor="start" x="1059" y="-381.5" font-family="Helvetica,sans-Serif" font-size="10.00">rare.game_launch_helper.</text>
<text text-anchor="middle" x="1114.5" y="-370.5" font-family="Helvetica,sans-Serif" font-size="10.00">GameProcessApp.start</text>
</a>
</g>
</g>
<!-- Node13&#45;&gt;Node16 -->
<g id="edge30" class="edge">
<title>Node13&#45;&gt;Node16</title>
<path fill="none" stroke="midnightblue" d="M1203.77,-368.75C1195.1,-369.7 1186.45,-370.66 1178.16,-371.58"/>
<polygon fill="midnightblue" stroke="midnightblue" points="1204.39,-372.2 1213.94,-367.62 1203.62,-365.24 1204.39,-372.2"/>
</g>
<!-- Node20 -->
<g id="node20" class="node">
<title>Node20</title>
<g id="a_node20"><a xlink:href="classrare_1_1components_1_1tabs_1_1games_1_1game__utils_1_1_game_utils.html#aa5166679a6b1c69dd24d2e6faa34dc7b" target="_top" xlink:title=" ">
<polygon fill="white" stroke="black" points="656,-445.5 656,-475.5 823,-475.5 823,-445.5 656,-445.5"/>
<text text-anchor="start" x="664" y="-463.5" font-family="Helvetica,sans-Serif" font-size="10.00">rare.components.tabs.games.game</text>
<text text-anchor="middle" x="739.5" y="-452.5" font-family="Helvetica,sans-Serif" font-size="10.00">_utils.GameUtils.sync_finished</text>
</a>
</g>
</g>
<!-- Node13&#45;&gt;Node20 -->
<g id="edge53" class="edge">
<title>Node13&#45;&gt;Node20</title>
<path fill="none" stroke="midnightblue" d="M1257.75,-378.43C1243.9,-385.62 1228.21,-393.85 1214,-401.5 1197.88,-410.18 1195.41,-415.84 1178,-421.5 1059.08,-460.2 912.97,-465.32 823.32,-464"/>
<polygon fill="midnightblue" stroke="midnightblue" points="1259.73,-381.34 1267,-373.63 1256.51,-375.13 1259.73,-381.34"/>
</g>
<!-- Node14&#45;&gt;Node14 -->
<g id="edge27" class="edge">
<title>Node14&#45;&gt;Node14</title>
<path fill="none" stroke="midnightblue" d="M572.39,-423.96C567.94,-428.68 555.97,-432 536.5,-432 504.54,-432 492.81,-423.06 501.3,-413.66"/>
<polygon fill="midnightblue" stroke="midnightblue" points="575.86,-423.4 571.7,-413.66 568.88,-423.87 575.86,-423.4"/>
</g>
<!-- Node15 -->
<g id="node15" class="node">
<title>Node15</title>
<g id="a_node15"><a xlink:href="classrare_1_1game__launch__helper_1_1_pre_launch_thread.html#a670fe67276cb94775a042958fe2c79d4" target="_top" xlink:title=" ">
<polygon fill="white" stroke="black" points="246.5,-383.5 246.5,-413.5 373.5,-413.5 373.5,-383.5 246.5,-383.5"/>
<text text-anchor="start" x="254.5" y="-401.5" font-family="Helvetica,sans-Serif" font-size="10.00">rare.game_launch_helper.</text>
<text text-anchor="middle" x="310" y="-390.5" font-family="Helvetica,sans-Serif" font-size="10.00">PreLaunchThread.run</text>
</a>
</g>
</g>
<!-- Node14&#45;&gt;Node15 -->
<g id="edge28" class="edge">
<title>Node14&#45;&gt;Node15</title>
<path fill="none" stroke="midnightblue" d="M442.65,-398.5C419.47,-398.5 395.14,-398.5 373.79,-398.5"/>
<polygon fill="midnightblue" stroke="midnightblue" points="442.86,-402 452.86,-398.5 442.86,-395 442.86,-402"/>
</g>
<!-- Node15&#45;&gt;Node15 -->
<g id="edge29" class="edge">
<title>Node15&#45;&gt;Node15</title>
<path fill="none" stroke="midnightblue" d="M350.16,-423.96C345.17,-428.68 331.79,-432 310,-432 274.25,-432 261.12,-423.06 270.61,-413.66"/>
<polygon fill="midnightblue" stroke="midnightblue" points="353.62,-423.37 349.39,-413.66 346.64,-423.89 353.62,-423.37"/>
</g>
<!-- Node16&#45;&gt;Node16 -->
<g id="edge52" class="edge">
<title>Node16&#45;&gt;Node16</title>
<path fill="none" stroke="midnightblue" d="M1145.77,-403.96C1141.89,-408.68 1131.47,-412 1114.5,-412 1086.66,-412 1076.43,-403.06 1083.83,-393.66"/>
<polygon fill="midnightblue" stroke="midnightblue" points="1149.25,-403.44 1145.17,-393.66 1142.26,-403.85 1149.25,-403.44"/>
</g>
<!-- Node17 -->
<g id="node17" class="node">
<title>Node17</title>
<g id="a_node17"><a xlink:href="classrare_1_1components_1_1tabs_1_1shop_1_1shop__models_1_1_browse_model.html#a563276b55376fdd9f495c321c5408906" target="_top" xlink:title=" ">
<polygon fill="white" stroke="black" points="859,-316.5 859,-346.5 1015,-346.5 1015,-316.5 859,-316.5"/>
<text text-anchor="start" x="867" y="-334.5" font-family="Helvetica,sans-Serif" font-size="10.00">rare.components.tabs.shop.shop</text>
<text text-anchor="middle" x="937" y="-323.5" font-family="Helvetica,sans-Serif" font-size="10.00">_models.BrowseModel.__dict__</text>
</a>
</g>
</g>
<!-- Node16&#45;&gt;Node17 -->
<g id="edge31" class="edge">
<title>Node16&#45;&gt;Node17</title>
<path fill="none" stroke="midnightblue" d="M1047.82,-360.91C1030.14,-356.18 1011.18,-351.1 994.08,-346.52"/>
<polygon fill="midnightblue" stroke="midnightblue" points="1046.92,-364.29 1057.49,-363.5 1048.73,-357.53 1046.92,-364.29"/>
</g>
<!-- Node19 -->
<g id="node19" class="node">
<title>Node19</title>
<g id="a_node19"><a xlink:href="classrare_1_1game__launch__helper_1_1_game_process_app.html#a62864ecc73de3f9e4a009737d0c01f01" target="_top" xlink:title=" ">
<polygon fill="white" stroke="black" points="859,-383.5 859,-413.5 1015,-413.5 1015,-383.5 859,-383.5"/>
<text text-anchor="start" x="867" y="-401.5" font-family="Helvetica,sans-Serif" font-size="10.00">rare.game_launch_helper.</text>
<text text-anchor="middle" x="937" y="-390.5" font-family="Helvetica,sans-Serif" font-size="10.00">GameProcessApp.launch_game</text>
</a>
</g>
</g>
<!-- Node16&#45;&gt;Node19 -->
<g id="edge35" class="edge">
<title>Node16&#45;&gt;Node19</title>
<path fill="none" stroke="midnightblue" d="M1040.61,-380.14C1030.89,-381.14 1020.92,-382.27 1011.19,-383.49"/>
<polygon fill="midnightblue" stroke="midnightblue" points="1041.03,-383.62 1050.64,-379.16 1040.34,-376.65 1041.03,-383.62"/>
</g>
<!-- Node17&#45;&gt;Node17 -->
<g id="edge32" class="edge">
<title>Node17&#45;&gt;Node17</title>
<path fill="none" stroke="midnightblue" d="M968.27,-356.96C964.39,-361.68 953.97,-365 937,-365 909.16,-365 898.93,-356.06 906.33,-346.66"/>
<polygon fill="midnightblue" stroke="midnightblue" points="971.75,-356.44 967.67,-346.66 964.76,-356.85 971.75,-356.44"/>
</g>
<!-- Node18 -->
<g id="node18" class="node">
<title>Node18</title>
<g id="a_node18"><a xlink:href="classrare_1_1models_1_1install_1_1_install_options_model.html#aa751cfbb4ac95de3ceb26796312aeab8" target="_top" xlink:title=" ">
<polygon fill="white" stroke="black" points="661,-316.5 661,-346.5 818,-346.5 818,-316.5 661,-316.5"/>
<text text-anchor="start" x="669" y="-334.5" font-family="Helvetica,sans-Serif" font-size="10.00">rare.models.install.Install</text>
<text text-anchor="middle" x="739.5" y="-323.5" font-family="Helvetica,sans-Serif" font-size="10.00">OptionsModel.as_install_kwargs</text>
</a>
</g>
</g>
<!-- Node17&#45;&gt;Node18 -->
<g id="edge33" class="edge">
<title>Node17&#45;&gt;Node18</title>
<path fill="none" stroke="midnightblue" d="M848.64,-331.5C838.49,-331.5 828.18,-331.5 818.17,-331.5"/>
<polygon fill="midnightblue" stroke="midnightblue" points="848.73,-335 858.73,-331.5 848.73,-328 848.73,-335"/>
</g>
<!-- Node18&#45;&gt;Node18 -->
<g id="edge34" class="edge">
<title>Node18&#45;&gt;Node18</title>
<path fill="none" stroke="midnightblue" d="M774.33,-356.96C770,-361.68 758.4,-365 739.5,-365 708.49,-365 697.11,-356.06 705.34,-346.66"/>
<polygon fill="midnightblue" stroke="midnightblue" points="777.8,-356.41 773.66,-346.66 770.81,-356.87 777.8,-356.41"/>
</g>
<!-- Node19&#45;&gt;Node14 -->
<g id="edge37" class="edge">
<title>Node19&#45;&gt;Node14</title>
<path fill="none" stroke="midnightblue" d="M848.43,-398.5C780.43,-398.5 686.79,-398.5 620.08,-398.5"/>
<polygon fill="midnightblue" stroke="midnightblue" points="848.69,-402 858.69,-398.5 848.69,-395 848.69,-402"/>
</g>
<!-- Node19&#45;&gt;Node16 -->
<g id="edge38" class="edge">
<title>Node19&#45;&gt;Node16</title>
<path fill="none" stroke="midnightblue" d="M1025.19,-395.31C1033.77,-394.34 1042.37,-393.28 1050.64,-392.17"/>
<polygon fill="midnightblue" stroke="midnightblue" points="1024.69,-391.85 1015.13,-396.42 1025.45,-398.81 1024.69,-391.85"/>
</g>
<!-- Node19&#45;&gt;Node19 -->
<g id="edge36" class="edge">
<title>Node19&#45;&gt;Node19</title>
<path fill="none" stroke="midnightblue" d="M968.27,-423.96C964.39,-428.68 953.97,-432 937,-432 909.16,-432 898.93,-423.06 906.33,-413.66"/>
<polygon fill="midnightblue" stroke="midnightblue" points="971.75,-423.44 967.67,-413.66 964.76,-423.85 971.75,-423.44"/>
</g>
<!-- Node19&#45;&gt;Node20 -->
<g id="edge39" class="edge">
<title>Node19&#45;&gt;Node20</title>
<path fill="none" stroke="midnightblue" d="M879.12,-416.54C850.22,-425.7 815.52,-436.71 788.07,-445.41"/>
<polygon fill="midnightblue" stroke="midnightblue" points="880.2,-419.87 888.67,-413.51 878.08,-413.2 880.2,-419.87"/>
</g>
<!-- Node20&#45;&gt;Node11 -->
<g id="edge40" class="edge">
<title>Node20&#45;&gt;Node11</title>
<path fill="none" stroke="midnightblue" d="M833.04,-475.92C958.51,-493.96 1188.97,-516.92 1381,-479.5 1408.34,-474.17 1437.36,-462.53 1459.83,-452.05"/>
<polygon fill="midnightblue" stroke="midnightblue" points="833.49,-472.45 823.09,-474.47 832.48,-479.37 833.49,-472.45"/>
</g>
<!-- Node20&#45;&gt;Node14 -->
<g id="edge41" class="edge">
<title>Node20&#45;&gt;Node14</title>
<path fill="none" stroke="midnightblue" d="M680.02,-442.46C650.31,-433.3 614.63,-422.29 586.41,-413.59"/>
<polygon fill="midnightblue" stroke="midnightblue" points="679.26,-445.89 689.84,-445.49 681.32,-439.2 679.26,-445.89"/>
</g>
<!-- Node20&#45;&gt;Node20 -->
<g id="edge42" class="edge">
<title>Node20&#45;&gt;Node20</title>
<path fill="none" stroke="midnightblue" d="M774.33,-485.96C770,-490.68 758.4,-494 739.5,-494 708.49,-494 697.11,-485.06 705.34,-475.66"/>
<polygon fill="midnightblue" stroke="midnightblue" points="777.8,-485.41 773.66,-475.66 770.81,-485.87 777.8,-485.41"/>
</g>
<!-- Node21 -->
<g id="node21" class="node">
<title>Node21</title>
<g id="a_node21"><a xlink:href="classrare_1_1components_1_1tabs_1_1games_1_1cloud__save__utils_1_1_cloud_save_utils.html#a305cbdbdf1c59aacea30610a562ac40d" target="_top" xlink:title=" ">
<polygon fill="white" stroke="black" points="453,-469 453,-510 620,-510 620,-469 453,-469"/>
<text text-anchor="start" x="461" y="-498" font-family="Helvetica,sans-Serif" font-size="10.00">rare.components.tabs.games.cloud</text>
<text text-anchor="start" x="461" y="-487" font-family="Helvetica,sans-Serif" font-size="10.00">_save_utils.CloudSaveUtils.worker</text>
<text text-anchor="middle" x="536.5" y="-476" font-family="Helvetica,sans-Serif" font-size="10.00">_finished</text>
</a>
</g>
</g>
<!-- Node20&#45;&gt;Node21 -->
<g id="edge43" class="edge">
<title>Node20&#45;&gt;Node21</title>
<path fill="none" stroke="midnightblue" d="M645.85,-473.87C637.27,-475.11 628.61,-476.35 620.13,-477.58"/>
<polygon fill="midnightblue" stroke="midnightblue" points="646.48,-477.31 655.88,-472.42 645.48,-470.38 646.48,-477.31"/>
</g>
<!-- Node21&#45;&gt;Node3 -->
<g id="edge44" class="edge">
<title>Node21&#45;&gt;Node3</title>
<path fill="none" stroke="midnightblue" d="M490.57,-515.32C444.61,-541.73 374.76,-581.86 337.16,-603.47"/>
<polygon fill="midnightblue" stroke="midnightblue" points="492.5,-518.24 499.43,-510.23 489.02,-512.17 492.5,-518.24"/>
</g>
<!-- Node21&#45;&gt;Node10 -->
<g id="edge45" class="edge">
<title>Node21&#45;&gt;Node10</title>
<path fill="none" stroke="midnightblue" d="M630.47,-506.72C711,-520.14 830.78,-536.5 936,-536.5 1298.5,-536.5 1298.5,-536.5 1298.5,-536.5 1408.14,-536.5 1533.66,-536.5 1619.9,-536.5"/>
<polygon fill="midnightblue" stroke="midnightblue" points="630.8,-503.23 620.36,-505.02 629.64,-510.13 630.8,-503.23"/>
</g>
<!-- Node21&#45;&gt;Node21 -->
<g id="edge51" class="edge">
<title>Node21&#45;&gt;Node21</title>
<path fill="none" stroke="midnightblue" d="M571.25,-520.36C566.08,-525.2 554.5,-528.5 536.5,-528.5 507.7,-528.5 495.32,-520.04 499.37,-510.36"/>
<polygon fill="midnightblue" stroke="midnightblue" points="574.72,-520.9 573.63,-510.36 567.91,-519.28 574.72,-520.9"/>
</g>
<!-- Node21&#45;&gt;Node22 -->
<g id="edge46" class="edge">
<title>Node21&#45;&gt;Node22</title>
<path fill="none" stroke="midnightblue" d="M481.06,-463.62C470.99,-457.29 461.11,-449.89 453,-441.5 429.51,-417.2 438.7,-400.42 417,-374.5 393.34,-346.23 358.83,-321.04 335.68,-305.79"/>
<polygon fill="midnightblue" stroke="midnightblue" points="479.54,-466.78 489.92,-468.9 483.13,-460.77 479.54,-466.78"/>
</g>
<!-- Node22&#45;&gt;Node11 -->
<g id="edge47" class="edge">
<title>Node22&#45;&gt;Node11</title>
<path fill="none" stroke="midnightblue" d="M419.29,-274.35C505.55,-262.87 629.49,-249.5 738.5,-249.5 1115.5,-249.5 1115.5,-249.5 1115.5,-249.5 1239.4,-249.5 1272.14,-275.33 1381,-334.5 1419.31,-355.32 1457.17,-389.28 1479.43,-410.99"/>
<polygon fill="midnightblue" stroke="midnightblue" points="418.67,-270.9 409.23,-275.7 419.6,-277.83 418.67,-270.9"/>
</g>
<!-- Node22&#45;&gt;Node22 -->
<g id="edge50" class="edge">
<title>Node22&#45;&gt;Node22</title>
<path fill="none" stroke="midnightblue" d="M350.16,-315.96C345.17,-320.68 331.79,-324 310,-324 274.25,-324 261.12,-315.06 270.61,-305.66"/>
<polygon fill="midnightblue" stroke="midnightblue" points="353.62,-315.37 349.39,-305.66 346.64,-315.89 353.62,-315.37"/>
</g>
<!-- Node22&#45;&gt;Node23 -->
<g id="edge48" class="edge">
<title>Node22&#45;&gt;Node23</title>
<path fill="none" stroke="midnightblue" d="M276.38,-311.13C233.76,-338.09 159.57,-385.01 117.01,-411.94"/>
<polygon fill="midnightblue" stroke="midnightblue" points="278.39,-314 284.97,-305.7 274.65,-308.08 278.39,-314"/>
</g>
<!-- Node23&#45;&gt;Node23 -->
<g id="edge49" class="edge">
<title>Node23&#45;&gt;Node23</title>
<path fill="none" stroke="midnightblue" d="M122.38,-463.36C116.6,-468.2 103.64,-471.5 83.5,-471.5 51.28,-471.5 37.43,-463.04 41.96,-453.36"/>
<polygon fill="midnightblue" stroke="midnightblue" points="125.85,-463.93 125.04,-453.36 119.09,-462.13 125.85,-463.93"/>
</g>
</g>
</svg>
        <g id="navigator" transform="translate(0 0)" fill="#404254">
                <rect fill="#f2f5e9" fill-opacity="0.5" stroke="#606060" stroke-width=".5" x="0" y="0" width="60" height="60"/>
                <use id="zoomplus" xlink:href="#zoomPlus" x="17" y="9" onmousedown="handleZoom(evt,'in')"/>
                <use id="zoomminus" xlink:href="#zoomMin" x="42" y="9" onmousedown="handleZoom(evt,'out')"/>
                <use id="reset" xlink:href="#resetDef" x="30" y="36" onmousedown="handleReset()"/>
                <g id="arrowUp" xlink:href="#dirArrow" transform="translate(30 24)" onmousedown="handlePan(0,-1)">
                  <use xlink:href="#rim" fill="#404040">
                        <set attributeName="fill" to="#808080" begin="arrowUp.mouseover" end="arrowUp.mouseout"/>
                  </use>
                  <path fill="none" stroke="white" stroke-width="1.5" d="M0,-3.0v7 M-2.5,-0.5L0,-3.0L2.5,-0.5"/>
                </g>
                <g id="arrowRight" xlink:href="#dirArrow" transform="rotate(90) translate(36 -43)" onmousedown="handlePan(1,0)">
                  <use xlink:href="#rim" fill="#404040">
                        <set attributeName="fill" to="#808080" begin="arrowRight.mouseover" end="arrowRight.mouseout"/>
                  </use>
                  <path fill="none" stroke="white" stroke-width="1.5" d="M0,-3.0v7 M-2.5,-0.5L0,-3.0L2.5,-0.5"/>
                </g>
                <g id="arrowDown" xlink:href="#dirArrow" transform="rotate(180) translate(-30 -48)" onmousedown="handlePan(0,1)">
                  <use xlink:href="#rim" fill="#404040">
                        <set attributeName="fill" to="#808080" begin="arrowDown.mouseover" end="arrowDown.mouseout"/>
                  </use>
                  <path fill="none" stroke="white" stroke-width="1.5" d="M0,-3.0v7 M-2.5,-0.5L0,-3.0L2.5,-0.5"/>
                </g>
                <g id="arrowLeft" xlink:href="#dirArrow" transform="rotate(270) translate(-36 17)" onmousedown="handlePan(-1,0)">
                  <use xlink:href="#rim" fill="#404040">
                        <set attributeName="fill" to="#808080" begin="arrowLeft.mouseover" end="arrowLeft.mouseout"/>
                  </use>
                  <path fill="none" stroke="white" stroke-width="1.5" d="M0,-3.0v7 M-2.5,-0.5L0,-3.0L2.5,-0.5"/>
                </g>
        </g>
        <svg viewBox="0 0 15 15" width="100%" height="30px" preserveAspectRatio="xMaxYMin meet">
         <g id="arrow_out" transform="scale(0.3 0.3)">
          <a xlink:href="namespacerare_1_1utils_1_1misc_a5b215592bbad86ea6d2c3b46280baae8_icgraph_org.svg" target="_base">
           <rect id="button" ry="5" rx="5" y="6" x="6" height="38" width="38"
                fill="#f2f5e9" fill-opacity="0.5" stroke="#606060" stroke-width="1.0"/>
           <path id="arrow"
             d="M 11.500037,31.436501 C 11.940474,20.09759 22.043105,11.32322 32.158766,21.979434 L 37.068811,17.246167 C 37.068811,17.246167 37.088388,32 37.088388,32 L 22.160133,31.978069 C 22.160133,31.978069 26.997745,27.140456 26.997745,27.140456 C 18.528582,18.264221 13.291696,25.230495 11.500037,31.436501 z"
             style="fill:#404040;"/>
          </a>
         </g>
        </svg>
</svg>
