<?xml version="1.0" encoding="UTF-8" standalone="no"?>
<!DOCTYPE svg PUBLIC "-//W3C//DTD SVG 1.1//EN"
 "http://www.w3.org/Graphics/SVG/1.1/DTD/svg11.dtd">
<!-- Generated by graphviz version 2.49.3 (20211027.1534)
 -->
<!-- Title: game_title Pages: 1 -->
<svg width="517pt" height="515pt"
 viewBox="0.00 0.00 516.73 515.00" xmlns="http://www.w3.org/2000/svg" xmlns:xlink="http://www.w3.org/1999/xlink">
<g id="graph0" class="graph" transform="scale(1 1) rotate(0) translate(4 511)">
<title>game_title</title>
<polygon fill="white" stroke="transparent" points="-4,4 -4,-511 512.73,-511 512.73,4 -4,4"/>
<!-- Node1 -->
<g id="node1" class="node">
<title>Node1</title>
<g id="a_node1"><a xlink:title=" ">
<polygon fill="#bfbfbf" stroke="black" points="444,-251.5 444,-270.5 506,-270.5 506,-251.5 444,-251.5"/>
<text text-anchor="middle" x="475" y="-258.5" font-family="Helvetica,sans-Serif" font-size="10.00">game_title</text>
</a>
</g>
</g>
<!-- Node1&#45;&gt;Node1 -->
<g id="edge13" class="edge">
<title>Node1&#45;&gt;Node1</title>
<path fill="none" stroke="midnightblue" d="M508.73,-278.89C508.24,-284.54 496.99,-289 475,-289 443.01,-289 433.76,-279.57 447.26,-270.76"/>
<polygon fill="midnightblue" stroke="midnightblue" points="511.49,-276.73 502.74,-270.76 505.85,-280.88 511.49,-276.73"/>
</g>
<!-- Node2 -->
<g id="node2" class="node">
<title>Node2</title>
<g id="a_node2"><a xlink:href="classrare_1_1commands_1_1launcher_1_1cloud__sync__dialog_1_1_cloud_sync_dialog.html#a1bdae8b8b5a801b5b216055866d3907d" target="_top" xlink:title=" ">
<polygon fill="white" stroke="black" points="219,-447.5 219,-488.5 370,-488.5 370,-447.5 219,-447.5"/>
<text text-anchor="start" x="227" y="-476.5" font-family="Helvetica,sans-Serif" font-size="10.00">rare.commands.launcher.cloud</text>
<text text-anchor="start" x="227" y="-465.5" font-family="Helvetica,sans-Serif" font-size="10.00">_sync_dialog.CloudSyncDialog.</text>
<text text-anchor="middle" x="294.5" y="-454.5" font-family="Helvetica,sans-Serif" font-size="10.00">__init__</text>
</a>
</g>
</g>
<!-- Node1&#45;&gt;Node2 -->
<g id="edge1" class="edge">
<title>Node1&#45;&gt;Node2</title>
<path fill="none" stroke="midnightblue" d="M472.38,-281.12C468.33,-317.85 454.45,-395.82 408,-438 397.38,-447.65 383.99,-454.25 370.19,-458.76"/>
<polygon fill="midnightblue" stroke="midnightblue" points="475.91,-281.04 473.38,-270.75 468.94,-280.37 475.91,-281.04"/>
</g>
<!-- Node3 -->
<g id="node3" class="node">
<title>Node3</title>
<g id="a_node3"><a xlink:href="classrare_1_1components_1_1dialogs_1_1move_1_1_move_dialog.html#a5026c151a208e9a4d21b1ebe0befd9a3" target="_top" xlink:title=" ">
<polygon fill="white" stroke="black" points="219.5,-380 219.5,-410 369.5,-410 369.5,-380 219.5,-380"/>
<text text-anchor="start" x="227.5" y="-398" font-family="Helvetica,sans-Serif" font-size="10.00">rare.components.dialogs.move.</text>
<text text-anchor="middle" x="294.5" y="-387" font-family="Helvetica,sans-Serif" font-size="10.00">MoveDialog.__init__</text>
</a>
</g>
</g>
<!-- Node1&#45;&gt;Node3 -->
<g id="edge3" class="edge">
<title>Node1&#45;&gt;Node3</title>
<path fill="none" stroke="midnightblue" d="M467.88,-280.26C458.91,-305.26 439.71,-348.35 408,-371 396.71,-379.07 383.25,-384.52 369.64,-388.19"/>
<polygon fill="midnightblue" stroke="midnightblue" points="471.21,-281.37 471.11,-270.77 464.58,-279.11 471.21,-281.37"/>
</g>
<!-- Node4 -->
<g id="node4" class="node">
<title>Node4</title>
<g id="a_node4"><a xlink:href="classrare_1_1components_1_1dialogs_1_1selective_1_1_selective_dialog.html#a6c734fe46844d27ba3c41824b2080754" target="_top" xlink:title=" ">
<polygon fill="white" stroke="black" points="212,-313 212,-343 377,-343 377,-313 212,-313"/>
<text text-anchor="start" x="220" y="-331" font-family="Helvetica,sans-Serif" font-size="10.00">rare.components.dialogs.selective.</text>
<text text-anchor="middle" x="294.5" y="-320" font-family="Helvetica,sans-Serif" font-size="10.00">SelectiveDialog.__init__</text>
</a>
</g>
</g>
<!-- Node1&#45;&gt;Node4 -->
<g id="edge5" class="edge">
<title>Node1&#45;&gt;Node4</title>
<path fill="none" stroke="midnightblue" d="M453.81,-276.96C441.27,-286.14 424.46,-297.16 408,-304 398.23,-308.06 387.68,-311.47 377.09,-314.32"/>
<polygon fill="midnightblue" stroke="midnightblue" points="456.24,-279.51 462.11,-270.7 452.02,-273.93 456.24,-279.51"/>
</g>
<!-- Node5 -->
<g id="node5" class="node">
<title>Node5</title>
<g id="a_node5"><a xlink:href="classrare_1_1components_1_1tabs_1_1library_1_1details_1_1details_1_1_game_tag_add_dialog.html#a6a730109dd49a13c63a0dd41c0575915" target="_top" xlink:title=" ">
<polygon fill="white" stroke="black" points="194,-246 194,-276 395,-276 395,-246 194,-246"/>
<text text-anchor="start" x="202" y="-264" font-family="Helvetica,sans-Serif" font-size="10.00">rare.components.tabs.library.details.details.</text>
<text text-anchor="middle" x="294.5" y="-253" font-family="Helvetica,sans-Serif" font-size="10.00">GameTagAddDialog.__init__</text>
</a>
</g>
</g>
<!-- Node1&#45;&gt;Node5 -->
<g id="edge7" class="edge">
<title>Node1&#45;&gt;Node5</title>
<path fill="none" stroke="midnightblue" d="M433.55,-261C421.95,-261 408.76,-261 395.25,-261"/>
<polygon fill="midnightblue" stroke="midnightblue" points="433.72,-264.5 443.72,-261 433.72,-257.5 433.72,-264.5"/>
</g>
<!-- Node6 -->
<g id="node6" class="node">
<title>Node6</title>
<g id="a_node6"><a xlink:href="classrare_1_1components_1_1dialogs_1_1uninstall_1_1_uninstall_dialog.html#afface21f92e0fa969e78ba5a3b83a9e8" target="_top" xlink:title=" ">
<polygon fill="white" stroke="black" points="213.5,-179 213.5,-209 375.5,-209 375.5,-179 213.5,-179"/>
<text text-anchor="start" x="221.5" y="-197" font-family="Helvetica,sans-Serif" font-size="10.00">rare.components.dialogs.uninstall.</text>
<text text-anchor="middle" x="294.5" y="-186" font-family="Helvetica,sans-Serif" font-size="10.00">UninstallDialog.__init__</text>
</a>
</g>
</g>
<!-- Node1&#45;&gt;Node6 -->
<g id="edge9" class="edge">
<title>Node1&#45;&gt;Node6</title>
<path fill="none" stroke="midnightblue" d="M438.87,-247.82C409.15,-236.66 366.56,-220.67 335.52,-209.02"/>
<polygon fill="midnightblue" stroke="midnightblue" points="437.83,-251.16 448.43,-251.4 440.29,-244.61 437.83,-251.16"/>
</g>
<!-- Node7 -->
<g id="node7" class="node">
<title>Node7</title>
<g id="a_node7"><a xlink:href="classrare_1_1commands_1_1launcher_1_1console__dialog_1_1_console_dialog.html#ab19adb77edae4558febb0fa87a973c0e" target="_top" xlink:title=" ">
<polygon fill="white" stroke="black" points="215.5,-112 215.5,-142 373.5,-142 373.5,-112 215.5,-112"/>
<text text-anchor="start" x="223.5" y="-130" font-family="Helvetica,sans-Serif" font-size="10.00">rare.commands.launcher.console</text>
<text text-anchor="middle" x="294.5" y="-119" font-family="Helvetica,sans-Serif" font-size="10.00">_dialog.ConsoleDialog.__init__</text>
</a>
</g>
</g>
<!-- Node1&#45;&gt;Node7 -->
<g id="edge11" class="edge">
<title>Node1&#45;&gt;Node7</title>
<path fill="none" stroke="midnightblue" d="M464.77,-242.42C453.79,-222.07 433.69,-189.7 408,-170 392.07,-157.79 372.27,-148.68 353.74,-142.08"/>
<polygon fill="midnightblue" stroke="midnightblue" points="461.69,-244.09 469.41,-251.34 467.9,-240.86 461.69,-244.09"/>
</g>
<!-- Node8 -->
<g id="node8" class="node">
<title>Node8</title>
<g id="a_node8"><a xlink:href="classrare_1_1components_1_1tabs_1_1settings_1_1widgets_1_1wrappers_1_1_wrapper_edit_dialog.html#a4bff614384195e3884b43a4c3e09d0a6" target="_top" xlink:title=" ">
<polygon fill="white" stroke="black" points="181,-45 181,-75 408,-75 408,-45 181,-45"/>
<text text-anchor="start" x="189" y="-63" font-family="Helvetica,sans-Serif" font-size="10.00">rare.components.tabs.settings.widgets.wrappers.</text>
<text text-anchor="middle" x="294.5" y="-52" font-family="Helvetica,sans-Serif" font-size="10.00">WrapperEditDialog.setup</text>
</a>
</g>
</g>
<!-- Node1&#45;&gt;Node8 -->
<g id="edge14" class="edge">
<title>Node1&#45;&gt;Node8</title>
<path fill="none" stroke="midnightblue" d="M470.89,-241.16C464.72,-208.14 447.9,-141.69 408,-103 395.02,-90.41 377.96,-81.42 361.07,-75.03"/>
<polygon fill="midnightblue" stroke="midnightblue" points="467.5,-242.09 472.65,-251.35 474.4,-240.9 467.5,-242.09"/>
</g>
<!-- Node2&#45;&gt;Node2 -->
<g id="edge2" class="edge">
<title>Node2&#45;&gt;Node2</title>
<path fill="none" stroke="midnightblue" d="M325.47,-498.86C320.86,-503.7 310.54,-507 294.5,-507 268.84,-507 257.81,-498.54 261.42,-488.86"/>
<polygon fill="midnightblue" stroke="midnightblue" points="328.94,-499.37 327.58,-488.86 322.09,-497.92 328.94,-499.37"/>
</g>
<!-- Node3&#45;&gt;Node3 -->
<g id="edge4" class="edge">
<title>Node3&#45;&gt;Node3</title>
<path fill="none" stroke="midnightblue" d="M326.48,-420.46C322.51,-425.18 311.85,-428.5 294.5,-428.5 266.02,-428.5 255.57,-419.56 263.13,-410.16"/>
<polygon fill="midnightblue" stroke="midnightblue" points="329.96,-419.93 325.87,-410.16 322.97,-420.35 329.96,-419.93"/>
</g>
<!-- Node4&#45;&gt;Node4 -->
<g id="edge6" class="edge">
<title>Node4&#45;&gt;Node4</title>
<path fill="none" stroke="midnightblue" d="M326.48,-353.46C322.51,-358.18 311.85,-361.5 294.5,-361.5 266.02,-361.5 255.57,-352.56 263.13,-343.16"/>
<polygon fill="midnightblue" stroke="midnightblue" points="329.96,-352.93 325.87,-343.16 322.97,-353.35 329.96,-352.93"/>
</g>
<!-- Node5&#45;&gt;Node5 -->
<g id="edge8" class="edge">
<title>Node5&#45;&gt;Node5</title>
<path fill="none" stroke="midnightblue" d="M326.48,-286.46C322.51,-291.18 311.85,-294.5 294.5,-294.5 266.02,-294.5 255.57,-285.56 263.13,-276.16"/>
<polygon fill="midnightblue" stroke="midnightblue" points="329.96,-285.93 325.87,-276.16 322.97,-286.35 329.96,-285.93"/>
</g>
<!-- Node6&#45;&gt;Node6 -->
<g id="edge10" class="edge">
<title>Node6&#45;&gt;Node6</title>
<path fill="none" stroke="midnightblue" d="M326.48,-219.46C322.51,-224.18 311.85,-227.5 294.5,-227.5 266.02,-227.5 255.57,-218.56 263.13,-209.16"/>
<polygon fill="midnightblue" stroke="midnightblue" points="329.96,-218.93 325.87,-209.16 322.97,-219.35 329.96,-218.93"/>
</g>
<!-- Node7&#45;&gt;Node7 -->
<g id="edge12" class="edge">
<title>Node7&#45;&gt;Node7</title>
<path fill="none" stroke="midnightblue" d="M326.48,-152.46C322.51,-157.18 311.85,-160.5 294.5,-160.5 266.02,-160.5 255.57,-151.56 263.13,-142.16"/>
<polygon fill="midnightblue" stroke="midnightblue" points="329.96,-151.93 325.87,-142.16 322.97,-152.35 329.96,-151.93"/>
</g>
<!-- Node8&#45;&gt;Node8 -->
<g id="edge19" class="edge">
<title>Node8&#45;&gt;Node8</title>
<path fill="none" stroke="midnightblue" d="M326.48,-85.46C322.51,-90.18 311.85,-93.5 294.5,-93.5 266.02,-93.5 255.57,-84.56 263.13,-75.16"/>
<polygon fill="midnightblue" stroke="midnightblue" points="329.96,-84.93 325.87,-75.16 322.97,-85.35 329.96,-84.93"/>
</g>
<!-- Node9 -->
<g id="node9" class="node">
<title>Node9</title>
<g id="a_node9"><a xlink:href="classrare_1_1widgets_1_1collapsible__widget_1_1_collapsible_frame.html#ac6a3a775dcab494d813083180cdcfc06" target="_top" xlink:title=" ">
<polygon fill="white" stroke="black" points="7.5,-78.5 7.5,-119.5 137.5,-119.5 137.5,-78.5 7.5,-78.5"/>
<text text-anchor="start" x="15.5" y="-107.5" font-family="Helvetica,sans-Serif" font-size="10.00">rare.widgets.collapsible</text>
<text text-anchor="start" x="15.5" y="-96.5" font-family="Helvetica,sans-Serif" font-size="10.00">_widget.CollapsibleFrame.</text>
<text text-anchor="middle" x="72.5" y="-85.5" font-family="Helvetica,sans-Serif" font-size="10.00">__init__</text>
</a>
</g>
</g>
<!-- Node8&#45;&gt;Node9 -->
<g id="edge15" class="edge">
<title>Node8&#45;&gt;Node9</title>
<path fill="none" stroke="midnightblue" d="M198.71,-76.8C178.11,-80.45 156.79,-84.24 137.7,-87.62"/>
<polygon fill="midnightblue" stroke="midnightblue" points="199.52,-80.21 208.76,-75.02 198.3,-73.32 199.52,-80.21"/>
</g>
<!-- Node10 -->
<g id="node10" class="node">
<title>Node10</title>
<g id="a_node10"><a xlink:href="classrare_1_1widgets_1_1collapsible__widget_1_1_collapsible_group_box.html#ac6a3a775dcab494d813083180cdcfc06" target="_top" xlink:title=" ">
<polygon fill="white" stroke="black" points="0,-0.5 0,-41.5 145,-41.5 145,-0.5 0,-0.5"/>
<text text-anchor="start" x="8" y="-29.5" font-family="Helvetica,sans-Serif" font-size="10.00">rare.widgets.collapsible</text>
<text text-anchor="start" x="8" y="-18.5" font-family="Helvetica,sans-Serif" font-size="10.00">_widget.CollapsibleGroupBox.</text>
<text text-anchor="middle" x="72.5" y="-7.5" font-family="Helvetica,sans-Serif" font-size="10.00">__init__</text>
</a>
</g>
</g>
<!-- Node8&#45;&gt;Node10 -->
<g id="edge17" class="edge">
<title>Node8&#45;&gt;Node10</title>
<path fill="none" stroke="midnightblue" d="M198.86,-43.22C180.92,-40.04 162.42,-36.76 145.33,-33.73"/>
<polygon fill="midnightblue" stroke="midnightblue" points="198.3,-46.68 208.76,-44.98 199.52,-39.79 198.3,-46.68"/>
</g>
<!-- Node9&#45;&gt;Node9 -->
<g id="edge16" class="edge">
<title>Node9&#45;&gt;Node9</title>
<path fill="none" stroke="midnightblue" d="M110.69,-129.86C105.01,-134.7 92.28,-138 72.5,-138 40.85,-138 27.25,-129.54 31.7,-119.86"/>
<polygon fill="midnightblue" stroke="midnightblue" points="114.16,-130.42 113.3,-119.86 107.39,-128.66 114.16,-130.42"/>
</g>
<!-- Node10&#45;&gt;Node10 -->
<g id="edge18" class="edge">
<title>Node10&#45;&gt;Node10</title>
<path fill="none" stroke="midnightblue" d="M110.69,-51.86C105.01,-56.7 92.28,-60 72.5,-60 40.85,-60 27.25,-51.54 31.7,-41.86"/>
<polygon fill="midnightblue" stroke="midnightblue" points="114.16,-52.42 113.3,-41.86 107.39,-50.66 114.16,-52.42"/>
</g>
</g>
</svg>
