<?xml version="1.0" encoding="UTF-8" standalone="no"?>
<!DOCTYPE svg PUBLIC "-//W3C//DTD SVG 1.1//EN"
 "http://www.w3.org/Graphics/SVG/1.1/DTD/svg11.dtd">
<!-- Generated by graphviz version 2.49.3 (20211027.1534)
 -->
<!-- Title: data_dir Pages: 1 -->
<svg width="817pt" height="291pt"
 viewBox="0.00 0.00 817.00 291.00" xmlns="http://www.w3.org/2000/svg" xmlns:xlink="http://www.w3.org/1999/xlink">
<g id="graph0" class="graph" transform="scale(1 1) rotate(0) translate(4 287)">
<title>data_dir</title>
<polygon fill="white" stroke="transparent" points="-4,4 -4,-287 813,-287 813,4 -4,4"/>
<!-- Node1 -->
<g id="node1" class="node">
<title>Node1</title>
<g id="a_node1"><a xlink:title=" ">
<polygon fill="#bfbfbf" stroke="black" points="758,-140 758,-159 809,-159 809,-140 758,-140"/>
<text text-anchor="middle" x="783.5" y="-147" font-family="Helvetica,sans-Serif" font-size="10.00">data_dir</text>
</a>
</g>
</g>
<!-- Node1&#45;&gt;Node1 -->
<g id="edge5" class="edge">
<title>Node1&#45;&gt;Node1</title>
<path fill="none" stroke="midnightblue" d="M807.31,-168.53C806.01,-173.63 798.07,-177.5 783.5,-177.5 760.75,-177.5 754.17,-168.07 763.77,-159.26"/>
<polygon fill="midnightblue" stroke="midnightblue" points="810.46,-167 803.23,-159.26 804.05,-169.82 810.46,-167"/>
</g>
<!-- Node2 -->
<g id="node2" class="node">
<title>Node2</title>
<g id="a_node2"><a xlink:href="classrare_1_1utils_1_1meta_1_1_rare_game_meta.html#ae64f0875afe3067b97ba370b354b9213" target="_top" xlink:title=" ">
<polygon fill="white" stroke="black" points="592.5,-234.5 592.5,-264.5 718.5,-264.5 718.5,-234.5 592.5,-234.5"/>
<text text-anchor="start" x="600.5" y="-252.5" font-family="Helvetica,sans-Serif" font-size="10.00">rare.utils.meta.RareGame</text>
<text text-anchor="middle" x="655.5" y="-241.5" font-family="Helvetica,sans-Serif" font-size="10.00">Meta.__init__</text>
</a>
</g>
</g>
<!-- Node1&#45;&gt;Node2 -->
<g id="edge1" class="edge">
<title>Node1&#45;&gt;Node2</title>
<path fill="none" stroke="midnightblue" d="M770.36,-167.47C759.23,-182.87 741.55,-204.83 722,-219.5 714.3,-225.28 705.3,-230.3 696.49,-234.49"/>
<polygon fill="midnightblue" stroke="midnightblue" points="773.24,-169.46 776.12,-159.27 767.51,-165.44 773.24,-169.46"/>
</g>
<!-- Node3 -->
<g id="node3" class="node">
<title>Node3</title>
<g id="a_node3"><a xlink:href="namespacerare_1_1utils_1_1paths.html#a15cafb5c4232740ebdcd62826468fd10" target="_top" xlink:title=" ">
<polygon fill="white" stroke="black" points="457.5,-202 457.5,-221 522.5,-221 522.5,-202 457.5,-202"/>
<text text-anchor="middle" x="490" y="-209" font-family="Helvetica,sans-Serif" font-size="10.00">create_dirs</text>
</a>
</g>
</g>
<!-- Node1&#45;&gt;Node3 -->
<g id="edge3" class="edge">
<title>Node1&#45;&gt;Node3</title>
<path fill="none" stroke="midnightblue" d="M762.11,-165.11C750.88,-172.87 736.35,-181.61 722,-186.5 653.65,-209.78 567.95,-212.73 522.57,-212.4"/>
<polygon fill="midnightblue" stroke="midnightblue" points="764.27,-167.87 770.34,-159.19 760.18,-162.19 764.27,-167.87"/>
</g>
<!-- Node4 -->
<g id="node4" class="node">
<title>Node4</title>
<g id="a_node4"><a xlink:href="namespacerare_1_1utils_1_1steam__grades.html#a74cd7f3d3b3c2ee1ceb8831d22c047b9" target="_top" xlink:title=" ">
<polygon fill="white" stroke="black" points="589,-69.5 589,-99.5 722,-99.5 722,-69.5 589,-69.5"/>
<text text-anchor="start" x="597" y="-87.5" font-family="Helvetica,sans-Serif" font-size="10.00">rare.utils.steam_grades.get</text>
<text text-anchor="middle" x="655.5" y="-76.5" font-family="Helvetica,sans-Serif" font-size="10.00">_rating</text>
</a>
</g>
</g>
<!-- Node1&#45;&gt;Node4 -->
<g id="edge6" class="edge">
<title>Node1&#45;&gt;Node4</title>
<path fill="none" stroke="midnightblue" d="M754.82,-135.22C734.43,-124.7 706.73,-110.41 685.93,-99.68"/>
<polygon fill="midnightblue" stroke="midnightblue" points="753.42,-138.43 763.91,-139.91 756.63,-132.21 753.42,-138.43"/>
</g>
<!-- Node6 -->
<g id="node6" class="node">
<title>Node6</title>
<g id="a_node6"><a xlink:href="namespacerare_1_1utils_1_1paths.html#ada300860b11ac604daaa4afc32f76fb7" target="_top" xlink:title=" ">
<polygon fill="white" stroke="black" points="626,-140 626,-159 685,-159 685,-140 626,-140"/>
<text text-anchor="middle" x="655.5" y="-147" font-family="Helvetica,sans-Serif" font-size="10.00">image_dir</text>
</a>
</g>
</g>
<!-- Node1&#45;&gt;Node6 -->
<g id="edge10" class="edge">
<title>Node1&#45;&gt;Node6</title>
<path fill="none" stroke="midnightblue" d="M747.85,-149.5C728.25,-149.5 704.02,-149.5 685.45,-149.5"/>
<polygon fill="midnightblue" stroke="midnightblue" points="747.91,-153 757.91,-149.5 747.91,-146 747.91,-153"/>
</g>
<!-- Node13 -->
<g id="node13" class="node">
<title>Node13</title>
<g id="a_node13"><a xlink:href="classrare_1_1utils_1_1meta_1_1_rare_game_meta.html#a64a07c9ca19393c9c7e7c29196b17765" target="_top" xlink:title=" ">
<polygon fill="white" stroke="black" points="592.5,-2.5 592.5,-32.5 718.5,-32.5 718.5,-2.5 592.5,-2.5"/>
<text text-anchor="start" x="600.5" y="-20.5" font-family="Helvetica,sans-Serif" font-size="10.00">rare.utils.meta.RareGame</text>
<text text-anchor="middle" x="655.5" y="-9.5" font-family="Helvetica,sans-Serif" font-size="10.00">Meta.save_file</text>
</a>
</g>
</g>
<!-- Node1&#45;&gt;Node13 -->
<g id="edge25" class="edge">
<title>Node1&#45;&gt;Node13</title>
<path fill="none" stroke="midnightblue" d="M772.96,-130.87C762.38,-111.45 743.89,-80.92 722,-59.5 711.28,-49.01 697.55,-39.72 685.42,-32.57"/>
<polygon fill="midnightblue" stroke="midnightblue" points="769.98,-132.71 777.75,-139.9 776.16,-129.43 769.98,-132.71"/>
</g>
<!-- Node2&#45;&gt;Node2 -->
<g id="edge2" class="edge">
<title>Node2&#45;&gt;Node2</title>
<path fill="none" stroke="midnightblue" d="M678.24,-274.96C675.42,-279.68 667.84,-283 655.5,-283 635.25,-283 627.81,-274.06 633.19,-264.66"/>
<polygon fill="midnightblue" stroke="midnightblue" points="681.73,-274.5 677.81,-264.66 674.73,-274.8 681.73,-274.5"/>
</g>
<!-- Node3&#45;&gt;Node3 -->
<g id="edge4" class="edge">
<title>Node3&#45;&gt;Node3</title>
<path fill="none" stroke="midnightblue" d="M520.69,-229.77C519.81,-235.24 509.58,-239.5 490,-239.5 460.85,-239.5 452.43,-230.07 464.72,-221.26"/>
<polygon fill="midnightblue" stroke="midnightblue" points="523.59,-227.82 515.28,-221.26 517.69,-231.57 523.59,-227.82"/>
</g>
<!-- Node4&#45;&gt;Node4 -->
<g id="edge7" class="edge">
<title>Node4&#45;&gt;Node4</title>
<path fill="none" stroke="midnightblue" d="M678.24,-109.96C675.42,-114.68 667.84,-118 655.5,-118 635.25,-118 627.81,-109.06 633.19,-99.66"/>
<polygon fill="midnightblue" stroke="midnightblue" points="681.73,-109.5 677.81,-99.66 674.73,-109.8 681.73,-109.5"/>
</g>
<!-- Node5 -->
<g id="node5" class="node">
<title>Node5</title>
<g id="a_node5"><a xlink:href="classrare_1_1utils_1_1steam__grades_1_1_steam_worker.html#a670fe67276cb94775a042958fe2c79d4" target="_top" xlink:title=" ">
<polygon fill="white" stroke="black" points="430.5,-67.5 430.5,-97.5 549.5,-97.5 549.5,-67.5 430.5,-67.5"/>
<text text-anchor="start" x="438.5" y="-85.5" font-family="Helvetica,sans-Serif" font-size="10.00">rare.utils.steam_grades.</text>
<text text-anchor="middle" x="490" y="-74.5" font-family="Helvetica,sans-Serif" font-size="10.00">SteamWorker.run</text>
</a>
</g>
</g>
<!-- Node4&#45;&gt;Node5 -->
<g id="edge8" class="edge">
<title>Node4&#45;&gt;Node5</title>
<path fill="none" stroke="midnightblue" d="M578.82,-83.57C569.04,-83.45 559.15,-83.33 549.71,-83.22"/>
<polygon fill="midnightblue" stroke="midnightblue" points="578.9,-87.08 588.94,-83.7 578.98,-80.08 578.9,-87.08"/>
</g>
<!-- Node5&#45;&gt;Node5 -->
<g id="edge9" class="edge">
<title>Node5&#45;&gt;Node5</title>
<path fill="none" stroke="midnightblue" d="M519.14,-107.96C515.52,-112.68 505.81,-116 490,-116 464.05,-116 454.53,-107.06 461.42,-97.66"/>
<polygon fill="midnightblue" stroke="midnightblue" points="522.62,-107.45 518.58,-97.66 515.63,-107.83 522.62,-107.45"/>
</g>
<!-- Node6&#45;&gt;Node3 -->
<g id="edge23" class="edge">
<title>Node6&#45;&gt;Node3</title>
<path fill="none" stroke="midnightblue" d="M624.53,-163.16C604.49,-172.06 577.42,-183.61 553,-192.5 543.27,-196.04 532.52,-199.49 522.75,-202.46"/>
<polygon fill="midnightblue" stroke="midnightblue" points="626.06,-166.31 633.76,-159.03 623.2,-159.92 626.06,-166.31"/>
</g>
<!-- Node6&#45;&gt;Node6 -->
<g id="edge24" class="edge">
<title>Node6&#45;&gt;Node6</title>
<path fill="none" stroke="midnightblue" d="M679.31,-168.53C678.01,-173.63 670.07,-177.5 655.5,-177.5 632.75,-177.5 626.17,-168.07 635.77,-159.26"/>
<polygon fill="midnightblue" stroke="midnightblue" points="682.46,-167 675.23,-159.26 676.05,-169.82 682.46,-167"/>
</g>
<!-- Node7 -->
<g id="node7" class="node">
<title>Node7</title>
<g id="a_node7"><a xlink:href="namespacerare_1_1utils_1_1misc.html#a16c76ff467d8aa0bf5b3a9060d65733e" target="_top" xlink:title=" ">
<polygon fill="white" stroke="black" points="437,-134.5 437,-164.5 543,-164.5 543,-134.5 437,-134.5"/>
<text text-anchor="start" x="445" y="-152.5" font-family="Helvetica,sans-Serif" font-size="10.00">rare.utils.misc.create</text>
<text text-anchor="middle" x="490" y="-141.5" font-family="Helvetica,sans-Serif" font-size="10.00">_desktop_link</text>
</a>
</g>
</g>
<!-- Node6&#45;&gt;Node7 -->
<g id="edge11" class="edge">
<title>Node6&#45;&gt;Node7</title>
<path fill="none" stroke="midnightblue" d="M615.48,-149.5C593.79,-149.5 566.5,-149.5 543.01,-149.5"/>
<polygon fill="midnightblue" stroke="midnightblue" points="615.65,-153 625.65,-149.5 615.65,-146 615.65,-153"/>
</g>
<!-- Node7&#45;&gt;Node7 -->
<g id="edge12" class="edge">
<title>Node7&#45;&gt;Node7</title>
<path fill="none" stroke="midnightblue" d="M519.14,-174.96C515.52,-179.68 505.81,-183 490,-183 464.05,-183 454.53,-174.06 461.42,-164.66"/>
<polygon fill="midnightblue" stroke="midnightblue" points="522.62,-174.45 518.58,-164.66 515.63,-174.83 522.62,-174.45"/>
</g>
<!-- Node8 -->
<g id="node8" class="node">
<title>Node8</title>
<g id="a_node8"><a xlink:href="namespacerare_1_1____main____.html#add42217d54476fc931cfda4d8515bf43" target="_top" xlink:title=" ">
<polygon fill="white" stroke="black" points="260,-171 260,-190 361,-190 361,-171 260,-171"/>
<text text-anchor="middle" x="310.5" y="-178" font-family="Helvetica,sans-Serif" font-size="10.00">rare.__main__.main</text>
</a>
</g>
</g>
<!-- Node7&#45;&gt;Node8 -->
<g id="edge13" class="edge">
<title>Node7&#45;&gt;Node8</title>
<path fill="none" stroke="midnightblue" d="M426.72,-160.38C405.29,-164.12 381.59,-168.26 361.29,-171.8"/>
<polygon fill="midnightblue" stroke="midnightblue" points="427.46,-163.8 436.7,-158.63 426.25,-156.91 427.46,-163.8"/>
</g>
<!-- Node9 -->
<g id="node9" class="node">
<title>Node9</title>
<g id="a_node9"><a xlink:href="classrare_1_1components_1_1tabs_1_1downloads_1_1_downloads_tab.html#aad3d96348eedab03f9c9d1a0e79c3531" target="_top" xlink:title=" ">
<polygon fill="white" stroke="black" points="230,-103.5 230,-133.5 391,-133.5 391,-103.5 230,-103.5"/>
<text text-anchor="start" x="238" y="-121.5" font-family="Helvetica,sans-Serif" font-size="10.00">rare.components.tabs.downloads.</text>
<text text-anchor="middle" x="310.5" y="-110.5" font-family="Helvetica,sans-Serif" font-size="10.00">DownloadsTab.status</text>
</a>
</g>
</g>
<!-- Node7&#45;&gt;Node9 -->
<g id="edge15" class="edge">
<title>Node7&#45;&gt;Node9</title>
<path fill="none" stroke="midnightblue" d="M426.76,-138.63C415.23,-136.62 403.03,-134.49 391.07,-132.4"/>
<polygon fill="midnightblue" stroke="midnightblue" points="426.25,-142.09 436.7,-140.37 427.46,-135.2 426.25,-142.09"/>
</g>
<!-- Node8&#45;&gt;Node8 -->
<g id="edge14" class="edge">
<title>Node8&#45;&gt;Node8</title>
<path fill="none" stroke="midnightblue" d="M343.86,-198.39C343.37,-204.04 332.25,-208.5 310.5,-208.5 278.86,-208.5 269.72,-199.07 283.07,-190.26"/>
<polygon fill="midnightblue" stroke="midnightblue" points="346.65,-196.28 337.93,-190.26 340.99,-200.4 346.65,-196.28"/>
</g>
<!-- Node9&#45;&gt;Node9 -->
<g id="edge22" class="edge">
<title>Node9&#45;&gt;Node9</title>
<path fill="none" stroke="midnightblue" d="M342.13,-143.96C338.2,-148.68 327.66,-152 310.5,-152 282.34,-152 272,-143.06 279.48,-133.66"/>
<polygon fill="midnightblue" stroke="midnightblue" points="345.6,-143.44 341.52,-133.66 338.62,-143.85 345.6,-143.44"/>
</g>
<!-- Node10 -->
<g id="node10" class="node">
<title>Node10</title>
<g id="a_node10"><a xlink:href="classrare_1_1components_1_1tabs_1_1games_1_1cloud__save__utils_1_1_cloud_save_dialog.html#afa8e1ad1d19f3a1d2c0f53ba53651a65" target="_top" xlink:title=" ">
<polygon fill="white" stroke="black" points="0,-170.5 0,-200.5 194,-200.5 194,-170.5 0,-170.5"/>
<text text-anchor="start" x="8" y="-188.5" font-family="Helvetica,sans-Serif" font-size="10.00">rare.components.tabs.games.cloud</text>
<text text-anchor="middle" x="97" y="-177.5" font-family="Helvetica,sans-Serif" font-size="10.00">_save_utils.CloudSaveDialog.btn_clicked</text>
</a>
</g>
</g>
<!-- Node9&#45;&gt;Node10 -->
<g id="edge16" class="edge">
<title>Node9&#45;&gt;Node10</title>
<path fill="none" stroke="midnightblue" d="M262.83,-137.22C241.96,-145.25 216.94,-154.39 194,-161.5 183.83,-164.65 172.95,-167.69 162.31,-170.48"/>
<polygon fill="midnightblue" stroke="midnightblue" points="264.35,-140.39 272.41,-133.51 261.82,-133.86 264.35,-140.39"/>
</g>
<!-- Node11 -->
<g id="node11" class="node">
<title>Node11</title>
<g id="a_node11"><a xlink:href="classrare_1_1components_1_1tabs_1_1games_1_1cloud__save__utils_1_1_cloud_save_dialog.html#ac0dc8bacd7d672a4a9963c685dd0ab9a" target="_top" xlink:title=" ">
<polygon fill="white" stroke="black" points="2,-103.5 2,-133.5 192,-133.5 192,-103.5 2,-103.5"/>
<text text-anchor="start" x="10" y="-121.5" font-family="Helvetica,sans-Serif" font-size="10.00">rare.components.tabs.games.cloud</text>
<text text-anchor="middle" x="97" y="-110.5" font-family="Helvetica,sans-Serif" font-size="10.00">_save_utils.CloudSaveDialog.get_action</text>
</a>
</g>
</g>
<!-- Node9&#45;&gt;Node11 -->
<g id="edge18" class="edge">
<title>Node9&#45;&gt;Node11</title>
<path fill="none" stroke="midnightblue" d="M219.66,-118.5C210.57,-118.5 201.31,-118.5 192.17,-118.5"/>
<polygon fill="midnightblue" stroke="midnightblue" points="219.84,-122 229.84,-118.5 219.84,-115 219.84,-122"/>
</g>
<!-- Node12 -->
<g id="node12" class="node">
<title>Node12</title>
<g id="a_node12"><a xlink:href="classrare_1_1lgndr_1_1glue_1_1monkeys_1_1_lgndr_indirect_logger.html#a71817f6d5b11c2c96a53e7e59bed38b8" target="_top" xlink:title=" ">
<polygon fill="white" stroke="black" points="24.5,-36.5 24.5,-66.5 169.5,-66.5 169.5,-36.5 24.5,-36.5"/>
<text text-anchor="start" x="32.5" y="-54.5" font-family="Helvetica,sans-Serif" font-size="10.00">rare.lgndr.glue.monkeys.</text>
<text text-anchor="middle" x="97" y="-43.5" font-family="Helvetica,sans-Serif" font-size="10.00">LgndrIndirectLogger.set_level</text>
</a>
</g>
</g>
<!-- Node9&#45;&gt;Node12 -->
<g id="edge20" class="edge">
<title>Node9&#45;&gt;Node12</title>
<path fill="none" stroke="midnightblue" d="M252.4,-100.41C219,-89.83 177.31,-76.62 145.67,-66.6"/>
<polygon fill="midnightblue" stroke="midnightblue" points="251.45,-103.78 262.04,-103.46 253.56,-97.11 251.45,-103.78"/>
</g>
<!-- Node10&#45;&gt;Node10 -->
<g id="edge17" class="edge">
<title>Node10&#45;&gt;Node10</title>
<path fill="none" stroke="midnightblue" d="M134.67,-210.96C129.99,-215.68 117.44,-219 97,-219 63.46,-219 51.15,-210.06 60.05,-200.66"/>
<polygon fill="midnightblue" stroke="midnightblue" points="138.14,-210.39 133.95,-200.66 131.16,-210.88 138.14,-210.39"/>
</g>
<!-- Node11&#45;&gt;Node11 -->
<g id="edge19" class="edge">
<title>Node11&#45;&gt;Node11</title>
<path fill="none" stroke="midnightblue" d="M134.67,-143.96C129.99,-148.68 117.44,-152 97,-152 63.46,-152 51.15,-143.06 60.05,-133.66"/>
<polygon fill="midnightblue" stroke="midnightblue" points="138.14,-143.39 133.95,-133.66 131.16,-143.88 138.14,-143.39"/>
</g>
<!-- Node12&#45;&gt;Node12 -->
<g id="edge21" class="edge">
<title>Node12&#45;&gt;Node12</title>
<path fill="none" stroke="midnightblue" d="M134.67,-76.96C129.99,-81.68 117.44,-85 97,-85 63.46,-85 51.15,-76.06 60.05,-66.66"/>
<polygon fill="midnightblue" stroke="midnightblue" points="138.14,-76.39 133.95,-66.66 131.16,-76.88 138.14,-76.39"/>
</g>
<!-- Node13&#45;&gt;Node13 -->
<g id="edge26" class="edge">
<title>Node13&#45;&gt;Node13</title>
<path fill="none" stroke="midnightblue" d="M678.24,-42.96C675.42,-47.68 667.84,-51 655.5,-51 635.25,-51 627.81,-42.06 633.19,-32.66"/>
<polygon fill="midnightblue" stroke="midnightblue" points="681.73,-42.5 677.81,-32.66 674.73,-42.8 681.73,-42.5"/>
</g>
<!-- Node14 -->
<g id="node14" class="node">
<title>Node14</title>
<g id="a_node14"><a xlink:href="classrare_1_1utils_1_1meta_1_1_rare_game_meta.html#a9ab3d625fdf396bbdc4f75d30fbd8790" target="_top" xlink:title=" ">
<polygon fill="white" stroke="black" points="427,-0.5 427,-30.5 553,-30.5 553,-0.5 427,-0.5"/>
<text text-anchor="start" x="435" y="-18.5" font-family="Helvetica,sans-Serif" font-size="10.00">rare.utils.meta.RareGame</text>
<text text-anchor="middle" x="490" y="-7.5" font-family="Helvetica,sans-Serif" font-size="10.00">Meta.set_game</text>
</a>
</g>
</g>
<!-- Node13&#45;&gt;Node14 -->
<g id="edge27" class="edge">
<title>Node13&#45;&gt;Node14</title>
<path fill="none" stroke="midnightblue" d="M582.2,-16.62C572.49,-16.5 562.61,-16.38 553.11,-16.26"/>
<polygon fill="midnightblue" stroke="midnightblue" points="582.18,-20.12 592.22,-16.74 582.26,-13.12 582.18,-20.12"/>
</g>
<!-- Node14&#45;&gt;Node14 -->
<g id="edge28" class="edge">
<title>Node14&#45;&gt;Node14</title>
<path fill="none" stroke="midnightblue" d="M519.14,-40.96C515.52,-45.68 505.81,-49 490,-49 464.05,-49 454.53,-40.06 461.42,-30.66"/>
<polygon fill="midnightblue" stroke="midnightblue" points="522.62,-40.45 518.58,-30.66 515.63,-40.83 522.62,-40.45"/>
</g>
</g>
</svg>
