<?xml version="1.0" encoding="UTF-8" standalone="no"?>
<!DOCTYPE svg PUBLIC "-//W3C//DTD SVG 1.1//EN"
 "http://www.w3.org/Graphics/SVG/1.1/DTD/svg11.dtd">
<!-- Generated by graphviz version 2.49.3 (20211027.1534)
 -->
<!-- Title: find_appmanifests Pages: 1 -->
<svg width="370pt" height="102pt"
 viewBox="0.00 0.00 370.00 102.00" xmlns="http://www.w3.org/2000/svg" xmlns:xlink="http://www.w3.org/1999/xlink">
<g id="graph0" class="graph" transform="scale(1 1) rotate(0) translate(4 98)">
<title>find_appmanifests</title>
<polygon fill="white" stroke="transparent" points="-4,4 -4,-98 366,-98 366,4 -4,4"/>
<!-- Node1 -->
<g id="node1" class="node">
<title>Node1</title>
<g id="a_node1"><a xlink:title=" ">
<polygon fill="#bfbfbf" stroke="black" points="267,-28.5 267,-47.5 362,-47.5 362,-28.5 267,-28.5"/>
<text text-anchor="middle" x="314.5" y="-35.5" font-family="Helvetica,sans-Serif" font-size="10.00">find_appmanifests</text>
</a>
</g>
</g>
<!-- Node1&#45;&gt;Node1 -->
<g id="edge1" class="edge">
<title>Node1&#45;&gt;Node1</title>
<path fill="none" stroke="midnightblue" d="M336.82,-57.03C335.6,-62.13 328.16,-66 314.5,-66 293.17,-66 287.01,-56.57 296,-47.76"/>
<polygon fill="midnightblue" stroke="midnightblue" points="340.05,-55.67 333,-47.76 333.57,-58.34 340.05,-55.67"/>
</g>
<!-- Node2 -->
<g id="node2" class="node">
<title>Node2</title>
<g id="a_node2"><a xlink:href="namespacerare_1_1utils_1_1compat_1_1steam.html#a5c2a7841fb6f804c4bd3c459b55a5b3b" target="_top" xlink:title=" ">
<polygon fill="white" stroke="black" points="159.5,-56.5 159.5,-75.5 228.5,-75.5 228.5,-56.5 159.5,-56.5"/>
<text text-anchor="middle" x="194" y="-63.5" font-family="Helvetica,sans-Serif" font-size="10.00">find_protons</text>
</a>
</g>
</g>
<!-- Node1&#45;&gt;Node2 -->
<g id="edge2" class="edge">
<title>Node1&#45;&gt;Node2</title>
<path fill="none" stroke="midnightblue" d="M263,-49.93C251.37,-52.68 239.28,-55.54 228.58,-58.07"/>
<polygon fill="midnightblue" stroke="midnightblue" points="264.12,-53.26 273.05,-47.56 262.51,-46.45 264.12,-53.26"/>
</g>
<!-- Node4 -->
<g id="node4" class="node">
<title>Node4</title>
<g id="a_node4"><a xlink:href="namespacerare_1_1utils_1_1compat_1_1steam.html#a4b42f1ff9028863160dafba28d68d4e9" target="_top" xlink:title=" ">
<polygon fill="white" stroke="black" points="157,-0.5 157,-19.5 231,-19.5 231,-0.5 157,-0.5"/>
<text text-anchor="middle" x="194" y="-7.5" font-family="Helvetica,sans-Serif" font-size="10.00">find_runtimes</text>
</a>
</g>
</g>
<!-- Node1&#45;&gt;Node4 -->
<g id="edge6" class="edge">
<title>Node1&#45;&gt;Node4</title>
<path fill="none" stroke="midnightblue" d="M263,-26.07C252.34,-23.55 241.3,-20.94 231.29,-18.58"/>
<polygon fill="midnightblue" stroke="midnightblue" points="262.51,-29.55 273.05,-28.44 264.12,-22.74 262.51,-29.55"/>
</g>
<!-- Node2&#45;&gt;Node2 -->
<g id="edge3" class="edge">
<title>Node2&#45;&gt;Node2</title>
<path fill="none" stroke="midnightblue" d="M216.32,-85.03C215.1,-90.13 207.66,-94 194,-94 172.67,-94 166.51,-84.57 175.5,-75.76"/>
<polygon fill="midnightblue" stroke="midnightblue" points="219.55,-83.67 212.5,-75.76 213.07,-86.34 219.55,-83.67"/>
</g>
<!-- Node3 -->
<g id="node3" class="node">
<title>Node3</title>
<g id="a_node3"><a xlink:href="namespacerare_1_1utils_1_1compat_1_1steam.html#a59bb31db08829a184890f1668b1c6ea2" target="_top" xlink:title=" ">
<polygon fill="white" stroke="black" points="0,-28.5 0,-47.5 121,-47.5 121,-28.5 0,-28.5"/>
<text text-anchor="middle" x="60.5" y="-35.5" font-family="Helvetica,sans-Serif" font-size="10.00">get_steam_environment</text>
</a>
</g>
</g>
<!-- Node2&#45;&gt;Node3 -->
<g id="edge4" class="edge">
<title>Node2&#45;&gt;Node3</title>
<path fill="none" stroke="midnightblue" d="M149.67,-56.77C135.78,-53.82 120.38,-50.54 106.38,-47.56"/>
<polygon fill="midnightblue" stroke="midnightblue" points="148.97,-60.2 159.48,-58.86 150.42,-53.36 148.97,-60.2"/>
</g>
<!-- Node3&#45;&gt;Node3 -->
<g id="edge5" class="edge">
<title>Node3&#45;&gt;Node3</title>
<path fill="none" stroke="midnightblue" d="M85.05,-57.03C83.71,-62.13 75.53,-66 60.5,-66 37.04,-66 30.26,-56.57 40.15,-47.76"/>
<polygon fill="midnightblue" stroke="midnightblue" points="88.17,-55.42 80.85,-47.76 81.79,-58.31 88.17,-55.42"/>
</g>
<!-- Node4&#45;&gt;Node3 -->
<g id="edge8" class="edge">
<title>Node4&#45;&gt;Node3</title>
<path fill="none" stroke="midnightblue" d="M146.58,-19.88C133.59,-22.65 119.49,-25.65 106.58,-28.4"/>
<polygon fill="midnightblue" stroke="midnightblue" points="147.67,-23.23 156.72,-17.73 146.21,-16.38 147.67,-23.23"/>
</g>
<!-- Node4&#45;&gt;Node4 -->
<g id="edge7" class="edge">
<title>Node4&#45;&gt;Node4</title>
<path fill="none" stroke="midnightblue" d="M216.32,-29.03C215.1,-34.13 207.66,-38 194,-38 172.67,-38 166.51,-28.57 175.5,-19.76"/>
<polygon fill="midnightblue" stroke="midnightblue" points="219.55,-27.67 212.5,-19.76 213.07,-30.34 219.55,-27.67"/>
</g>
</g>
</svg>
