<?xml version="1.0" encoding="UTF-8" standalone="no"?>
<!DOCTYPE svg PUBLIC "-//W3C//DTD SVG 1.1//EN"
 "http://www.w3.org/Graphics/SVG/1.1/DTD/svg11.dtd">
<!-- Generated by graphviz version 2.49.3 (20211027.1534)
 -->
<!-- Title: add_registry_entries Pages: 1 -->
<svg width="318pt" height="57pt"
 viewBox="0.00 0.00 318.00 57.00" xmlns="http://www.w3.org/2000/svg" xmlns:xlink="http://www.w3.org/1999/xlink">
<g id="graph0" class="graph" transform="scale(1 1) rotate(0) translate(4 53)">
<title>add_registry_entries</title>
<polygon fill="white" stroke="transparent" points="-4,4 -4,-53 314,-53 314,4 -4,4"/>
<!-- Node1 -->
<g id="node1" class="node">
<title>Node1</title>
<g id="a_node1"><a xlink:title=" ">
<polygon fill="#bfbfbf" stroke="black" points="206,-6 206,-25 310,-25 310,-6 206,-6"/>
<text text-anchor="middle" x="258" y="-13" font-family="Helvetica,sans-Serif" font-size="10.00">add_registry_entries</text>
</a>
</g>
</g>
<!-- Node1&#45;&gt;Node1 -->
<g id="edge1" class="edge">
<title>Node1&#45;&gt;Node1</title>
<path fill="none" stroke="midnightblue" d="M290.19,-33.77C289.27,-39.24 278.54,-43.5 258,-43.5 227.43,-43.5 218.59,-34.07 231.49,-25.26"/>
<polygon fill="midnightblue" stroke="midnightblue" points="292.97,-31.64 284.51,-25.26 287.14,-35.52 292.97,-31.64"/>
</g>
<!-- Node2 -->
<g id="node2" class="node">
<title>Node2</title>
<g id="a_node2"><a xlink:href="classlegendary_1_1cli_1_1_legendary_c_l_i.html#a70aff23831c4cdb964a5c213355e6864" target="_top" xlink:title=" ">
<polygon fill="white" stroke="black" points="0,-0.5 0,-30.5 170,-30.5 170,-0.5 0,-0.5"/>
<text text-anchor="start" x="8" y="-18.5" font-family="Helvetica,sans-Serif" font-size="10.00">legendary.cli.LegendaryCLI.manage</text>
<text text-anchor="middle" x="85" y="-7.5" font-family="Helvetica,sans-Serif" font-size="10.00">_eos_overlay</text>
</a>
</g>
</g>
<!-- Node1&#45;&gt;Node2 -->
<g id="edge2" class="edge">
<title>Node1&#45;&gt;Node2</title>
<path fill="none" stroke="midnightblue" d="M195.48,-15.5C187.27,-15.5 178.73,-15.5 170.2,-15.5"/>
<polygon fill="midnightblue" stroke="midnightblue" points="195.69,-19 205.69,-15.5 195.69,-12 195.69,-19"/>
</g>
<!-- Node2&#45;&gt;Node2 -->
<g id="edge3" class="edge">
<title>Node2&#45;&gt;Node2</title>
<path fill="none" stroke="midnightblue" d="M115.56,-40.96C111.77,-45.68 101.58,-49 85,-49 57.79,-49 47.8,-40.06 55.03,-30.66"/>
<polygon fill="midnightblue" stroke="midnightblue" points="119.04,-40.44 114.97,-30.66 112.05,-40.84 119.04,-40.44"/>
</g>
</g>
</svg>
