<?xml version="1.0" encoding="UTF-8" standalone="no"?>
<!DOCTYPE svg PUBLIC "-//W3C//DTD SVG 1.1//EN"
 "http://www.w3.org/Graphics/SVG/1.1/DTD/svg11.dtd">
<!-- Generated by graphviz version 2.49.3 (20211027.1534)
 -->
<!-- Title: start Pages: 1 -->
<svg width="746pt" height="1521pt"
 viewBox="0.00 0.00 746.28 1520.50" xmlns="http://www.w3.org/2000/svg" xmlns:xlink="http://www.w3.org/1999/xlink">
<g id="graph0" class="graph" transform="scale(1 1) rotate(0) translate(4 1516.5)">
<title>start</title>
<polygon fill="white" stroke="transparent" points="-4,4 -4,-1516.5 742.28,-1516.5 742.28,4 -4,4"/>
<!-- Node1 -->
<g id="node1" class="node">
<title>Node1</title>
<g id="a_node1"><a xlink:title=" ">
<polygon fill="#bfbfbf" stroke="black" points="689,-703.5 689,-722.5 725,-722.5 725,-703.5 689,-703.5"/>
<text text-anchor="middle" x="707" y="-710.5" font-family="Helvetica,sans-Serif" font-size="10.00">start</text>
</a>
</g>
</g>
<!-- Node1&#45;&gt;Node1 -->
<g id="edge53" class="edge">
<title>Node1&#45;&gt;Node1</title>
<path fill="none" stroke="midnightblue" d="M733.98,-723.81C744.32,-732.3 735.33,-741 707,-741 672.79,-741 666.78,-728.32 688.96,-718.63"/>
<polygon fill="midnightblue" stroke="midnightblue" points="735.44,-720.62 725.04,-718.63 731.94,-726.68 735.44,-720.62"/>
</g>
<!-- Node2 -->
<g id="node2" class="node">
<title>Node2</title>
<g id="a_node2"><a xlink:href="classrare_1_1components_1_1tabs_1_1games_1_1integrations_1_1ubisoft__group_1_1_ubi_link_widget.html#a8f9705707225e3a806138596d5edae0d" target="_top" xlink:title=" ">
<polygon fill="white" stroke="black" points="428,-1464 428,-1494 653,-1494 653,-1464 428,-1464"/>
<text text-anchor="start" x="436" y="-1482" font-family="Helvetica,sans-Serif" font-size="10.00">rare.components.tabs.games.integrations.ubisoft</text>
<text text-anchor="middle" x="540.5" y="-1471" font-family="Helvetica,sans-Serif" font-size="10.00">_group.UbiLinkWidget.activate</text>
</a>
</g>
</g>
<!-- Node1&#45;&gt;Node2 -->
<g id="edge1" class="edge">
<title>Node1&#45;&gt;Node2</title>
<path fill="none" stroke="midnightblue" d="M705.98,-732.87C705.67,-845.33 701.66,-1398.96 653,-1455 650.14,-1458.29 646.96,-1461.19 643.51,-1463.75"/>
<polygon fill="midnightblue" stroke="midnightblue" points="709.48,-732.64 706,-722.63 702.48,-732.62 709.48,-732.64"/>
</g>
<!-- Node3 -->
<g id="node3" class="node">
<title>Node3</title>
<g id="a_node3"><a xlink:href="classrare_1_1widgets_1_1collapsible__widget_1_1_collapsible_base.html#a7e119c6e6dbb69ec4948da2763039e3d" target="_top" xlink:title=" ">
<polygon fill="white" stroke="black" points="446.5,-1397 446.5,-1427 634.5,-1427 634.5,-1397 446.5,-1397"/>
<text text-anchor="start" x="454.5" y="-1415" font-family="Helvetica,sans-Serif" font-size="10.00">rare.widgets.collapsible</text>
<text text-anchor="middle" x="540.5" y="-1404" font-family="Helvetica,sans-Serif" font-size="10.00">_widget.CollapsibleBase.animationStart</text>
</a>
</g>
</g>
<!-- Node1&#45;&gt;Node3 -->
<g id="edge3" class="edge">
<title>Node1&#45;&gt;Node3</title>
<path fill="none" stroke="midnightblue" d="M705.83,-733.03C704.72,-839.65 697.19,-1337.47 653,-1388 647.79,-1393.96 641.48,-1398.65 634.55,-1402.31"/>
<polygon fill="midnightblue" stroke="midnightblue" points="709.33,-732.77 705.93,-722.74 702.33,-732.7 709.33,-732.77"/>
</g>
<!-- Node4 -->
<g id="node4" class="node">
<title>Node4</title>
<g id="a_node4"><a xlink:href="classrare_1_1components_1_1tabs_1_1games_1_1integrations_1_1eos__group_1_1_e_o_s_group.html#a1ec89c41387bccb9b467b28aa0a358b8" target="_top" xlink:title=" ">
<polygon fill="white" stroke="black" points="434.5,-1330 434.5,-1360 646.5,-1360 646.5,-1330 434.5,-1330"/>
<text text-anchor="start" x="442.5" y="-1348" font-family="Helvetica,sans-Serif" font-size="10.00">rare.components.tabs.games.integrations.eos</text>
<text text-anchor="middle" x="540.5" y="-1337" font-family="Helvetica,sans-Serif" font-size="10.00">_group.EOSGroup.check_for_update</text>
</a>
</g>
</g>
<!-- Node1&#45;&gt;Node4 -->
<g id="edge5" class="edge">
<title>Node1&#45;&gt;Node4</title>
<path fill="none" stroke="midnightblue" d="M705.64,-732.85C703.63,-832.45 692.53,-1274.81 653,-1320 649.73,-1323.73 646.04,-1326.98 642.04,-1329.79"/>
<polygon fill="midnightblue" stroke="midnightblue" points="709.14,-732.74 705.83,-722.68 702.14,-732.61 709.14,-732.74"/>
</g>
<!-- Node5 -->
<g id="node5" class="node">
<title>Node5</title>
<g id="a_node5"><a xlink:href="classrare_1_1components_1_1tabs_1_1games_1_1game__info_1_1game__settings_1_1_game_settings.html#a7e43976b51be106948d8e7b1ab113864" target="_top" xlink:title=" ">
<polygon fill="white" stroke="black" points="436.5,-1251.5 436.5,-1292.5 644.5,-1292.5 644.5,-1251.5 436.5,-1251.5"/>
<text text-anchor="start" x="444.5" y="-1280.5" font-family="Helvetica,sans-Serif" font-size="10.00">rare.components.tabs.games.game</text>
<text text-anchor="start" x="444.5" y="-1269.5" font-family="Helvetica,sans-Serif" font-size="10.00">_info.game_settings.GameSettings.compute</text>
<text text-anchor="middle" x="540.5" y="-1258.5" font-family="Helvetica,sans-Serif" font-size="10.00">_save_path</text>
</a>
</g>
</g>
<!-- Node1&#45;&gt;Node5 -->
<g id="edge7" class="edge">
<title>Node1&#45;&gt;Node5</title>
<path fill="none" stroke="midnightblue" d="M705.33,-732.8C702.06,-824.17 686.58,-1202.44 653,-1242 650.02,-1245.51 646.67,-1248.64 643.05,-1251.42"/>
<polygon fill="midnightblue" stroke="midnightblue" points="708.83,-732.81 705.68,-722.69 701.84,-732.57 708.83,-732.81"/>
</g>
<!-- Node8 -->
<g id="node8" class="node">
<title>Node8</title>
<g id="a_node8"><a xlink:href="classrare_1_1shared_1_1game__process_1_1_game_process.html#a3b4c093c8553787f70628620d50e3626" target="_top" xlink:title=" ">
<polygon fill="white" stroke="black" points="460,-1184 460,-1214 621,-1214 621,-1184 460,-1184"/>
<text text-anchor="start" x="468" y="-1202" font-family="Helvetica,sans-Serif" font-size="10.00">rare.shared.game_process.</text>
<text text-anchor="middle" x="540.5" y="-1191" font-family="Helvetica,sans-Serif" font-size="10.00">GameProcess.connect_to_server</text>
</a>
</g>
</g>
<!-- Node1&#45;&gt;Node8 -->
<g id="edge13" class="edge">
<title>Node1&#45;&gt;Node8</title>
<path fill="none" stroke="midnightblue" d="M705.07,-732.92C700.94,-817.2 683.17,-1141.73 653,-1175 644.49,-1184.39 633.26,-1190.58 621.21,-1194.59"/>
<polygon fill="midnightblue" stroke="midnightblue" points="708.57,-732.83 705.56,-722.67 701.58,-732.49 708.57,-732.83"/>
</g>
<!-- Node9 -->
<g id="node9" class="node">
<title>Node9</title>
<g id="a_node9"><a xlink:href="classrare_1_1shared_1_1image__manager_1_1_image_manager.html#a1d417608a6218f64af50753eeb57da0b" target="_top" xlink:title=" ">
<polygon fill="white" stroke="black" points="462.5,-1117 462.5,-1147 618.5,-1147 618.5,-1117 462.5,-1117"/>
<text text-anchor="start" x="470.5" y="-1135" font-family="Helvetica,sans-Serif" font-size="10.00">rare.shared.image_manager.</text>
<text text-anchor="middle" x="540.5" y="-1124" font-family="Helvetica,sans-Serif" font-size="10.00">ImageManager.download_image</text>
</a>
</g>
</g>
<!-- Node1&#45;&gt;Node9 -->
<g id="edge15" class="edge">
<title>Node1&#45;&gt;Node9</title>
<path fill="none" stroke="midnightblue" d="M706.23,-732.99C706.63,-805.41 704.16,-1052.65 653,-1108 643.79,-1117.96 631.53,-1124.31 618.51,-1128.27"/>
<polygon fill="midnightblue" stroke="midnightblue" points="709.72,-732.56 706.14,-722.59 702.72,-732.62 709.72,-732.56"/>
</g>
<!-- Node10 -->
<g id="node10" class="node">
<title>Node10</title>
<g id="a_node10"><a xlink:href="classrare_1_1shared_1_1cloud__save__utils_1_1_cloud_save_utils.html#a827ed0e99238ed072a0e814e48aa7e46" target="_top" xlink:title=" ">
<polygon fill="white" stroke="black" points="448,-983 448,-1013 633,-1013 633,-983 448,-983"/>
<text text-anchor="start" x="456" y="-1001" font-family="Helvetica,sans-Serif" font-size="10.00">rare.shared.cloud_save</text>
<text text-anchor="middle" x="540.5" y="-990" font-family="Helvetica,sans-Serif" font-size="10.00">_utils.CloudSaveUtils.download_saves</text>
</a>
</g>
</g>
<!-- Node1&#45;&gt;Node10 -->
<g id="edge17" class="edge">
<title>Node1&#45;&gt;Node10</title>
<path fill="none" stroke="midnightblue" d="M704.71,-732.96C700.75,-787.92 686.91,-939.69 653,-974 647.29,-979.77 640.55,-984.31 633.26,-987.87"/>
<polygon fill="midnightblue" stroke="midnightblue" points="708.22,-732.99 705.41,-722.77 701.23,-732.51 708.22,-732.99"/>
</g>
<!-- Node13 -->
<g id="node13" class="node">
<title>Node13</title>
<g id="a_node13"><a xlink:href="classrare_1_1components_1_1tabs_1_1games_1_1integrations_1_1egl__sync__group_1_1_e_g_l_sync_group.html#ab57f2b0fa2e42524f025928a9f4a87c3" target="_top" xlink:title=" ">
<polygon fill="white" stroke="black" points="428.5,-916 428.5,-946 652.5,-946 652.5,-916 428.5,-916"/>
<text text-anchor="start" x="436.5" y="-934" font-family="Helvetica,sans-Serif" font-size="10.00">rare.components.tabs.games.integrations.egl</text>
<text text-anchor="middle" x="540.5" y="-923" font-family="Helvetica,sans-Serif" font-size="10.00">_sync_group.EGLSyncGroup.egl_sync_changed</text>
</a>
</g>
</g>
<!-- Node1&#45;&gt;Node13 -->
<g id="edge23" class="edge">
<title>Node1&#45;&gt;Node13</title>
<path fill="none" stroke="midnightblue" d="M706.83,-732.96C707.3,-772.34 702.38,-860.25 653,-907 649.41,-910.4 645.45,-913.37 641.24,-915.96"/>
<polygon fill="midnightblue" stroke="midnightblue" points="710.32,-732.71 706.57,-722.8 703.33,-732.89 710.32,-732.71"/>
</g>
<!-- Node14 -->
<g id="node14" class="node">
<title>Node14</title>
<g id="a_node14"><a xlink:href="classrare_1_1shared_1_1rare__core_1_1_rare_core.html#ada306be9bfe4e34f7373fe1f4746955b" target="_top" xlink:title=" ">
<polygon fill="white" stroke="black" points="475.5,-849 475.5,-879 605.5,-879 605.5,-849 475.5,-849"/>
<text text-anchor="start" x="483.5" y="-867" font-family="Helvetica,sans-Serif" font-size="10.00">rare.shared.rare_core.Rare</text>
<text text-anchor="middle" x="540.5" y="-856" font-family="Helvetica,sans-Serif" font-size="10.00">Core.enqueue_worker</text>
</a>
</g>
</g>
<!-- Node1&#45;&gt;Node14 -->
<g id="edge25" class="edge">
<title>Node1&#45;&gt;Node14</title>
<path fill="none" stroke="midnightblue" d="M703.37,-732.8C698.56,-760.83 685.64,-811.7 653,-839 639.69,-850.14 622.45,-856.58 605.52,-860.24"/>
<polygon fill="midnightblue" stroke="midnightblue" points="706.87,-733.05 704.92,-722.64 699.95,-731.99 706.87,-733.05"/>
</g>
<!-- Node15 -->
<g id="node15" class="node">
<title>Node15</title>
<g id="a_node15"><a xlink:href="classrare_1_1components_1_1tabs_1_1games_1_1game__widgets_1_1icon__widget_1_1_icon_widget.html#a98993bd9c4d6b2d23d2e75c9081f859e" target="_top" xlink:title=" ">
<polygon fill="white" stroke="black" points="448,-770.5 448,-811.5 633,-811.5 633,-770.5 448,-770.5"/>
<text text-anchor="start" x="456" y="-799.5" font-family="Helvetica,sans-Serif" font-size="10.00">rare.components.tabs.games.game</text>
<text text-anchor="start" x="456" y="-788.5" font-family="Helvetica,sans-Serif" font-size="10.00">_widgets.icon_widget.IconWidget.enter</text>
<text text-anchor="middle" x="540.5" y="-777.5" font-family="Helvetica,sans-Serif" font-size="10.00">Animation</text>
</a>
</g>
</g>
<!-- Node1&#45;&gt;Node15 -->
<g id="edge27" class="edge">
<title>Node1&#45;&gt;Node15</title>
<path fill="none" stroke="midnightblue" d="M690.99,-730.22C681.14,-740.53 667.45,-753.12 653,-761 646.49,-764.55 639.53,-767.7 632.39,-770.5"/>
<polygon fill="midnightblue" stroke="midnightblue" points="693.83,-732.31 698.01,-722.58 688.67,-727.58 693.83,-732.31"/>
</g>
<!-- Node16 -->
<g id="node16" class="node">
<title>Node16</title>
<g id="a_node16"><a xlink:href="classrare_1_1components_1_1dialogs_1_1install__dialog_1_1_install_dialog.html#aca780d78b993a295a93507a4a6d12a69" target="_top" xlink:title=" ">
<polygon fill="white" stroke="black" points="466,-692.5 466,-733.5 615,-733.5 615,-692.5 466,-692.5"/>
<text text-anchor="start" x="474" y="-721.5" font-family="Helvetica,sans-Serif" font-size="10.00">rare.components.dialogs.install</text>
<text text-anchor="start" x="474" y="-710.5" font-family="Helvetica,sans-Serif" font-size="10.00">_dialog.InstallDialog.get</text>
<text text-anchor="middle" x="540.5" y="-699.5" font-family="Helvetica,sans-Serif" font-size="10.00">_download_info</text>
</a>
</g>
</g>
<!-- Node1&#45;&gt;Node16 -->
<g id="edge29" class="edge">
<title>Node1&#45;&gt;Node16</title>
<path fill="none" stroke="midnightblue" d="M678.7,-713C661.26,-713 637.74,-713 615.11,-713"/>
<polygon fill="midnightblue" stroke="midnightblue" points="678.71,-716.5 688.71,-713 678.71,-709.5 678.71,-716.5"/>
</g>
<!-- Node19 -->
<g id="node19" class="node">
<title>Node19</title>
<g id="a_node19"><a xlink:href="classrare_1_1components_1_1tabs_1_1games_1_1integrations_1_1import__group_1_1_import_group.html#a09054aca3fda3b24dd1780c0fbe10727" target="_top" xlink:title=" ">
<polygon fill="white" stroke="black" points="429,-625 429,-655 652,-655 652,-625 429,-625"/>
<text text-anchor="start" x="437" y="-643" font-family="Helvetica,sans-Serif" font-size="10.00">rare.components.tabs.games.integrations.import</text>
<text text-anchor="middle" x="540.5" y="-632" font-family="Helvetica,sans-Serif" font-size="10.00">_group.ImportGroup.import_pressed</text>
</a>
</g>
</g>
<!-- Node1&#45;&gt;Node19 -->
<g id="edge36" class="edge">
<title>Node1&#45;&gt;Node19</title>
<path fill="none" stroke="midnightblue" d="M681.84,-698.33C672.93,-693.19 662.65,-687.56 653,-683 631.05,-672.63 605.88,-662.75 585.01,-655.09"/>
<polygon fill="midnightblue" stroke="midnightblue" points="680.16,-701.4 690.55,-703.46 683.7,-695.37 680.16,-701.4"/>
</g>
<!-- Node20 -->
<g id="node20" class="node">
<title>Node20</title>
<g id="a_node20"><a xlink:href="classrare_1_1components_1_1dialogs_1_1launch__dialog_1_1_launch_dialog.html#af9075195d51b585cd05540dca2a1eadb" target="_top" xlink:title=" ">
<polygon fill="white" stroke="black" points="214,-528 214,-558 366,-558 366,-528 214,-528"/>
<text text-anchor="start" x="222" y="-546" font-family="Helvetica,sans-Serif" font-size="10.00">rare.components.dialogs.launch</text>
<text text-anchor="middle" x="290" y="-535" font-family="Helvetica,sans-Serif" font-size="10.00">_dialog.LaunchDialog.launch</text>
</a>
</g>
</g>
<!-- Node1&#45;&gt;Node20 -->
<g id="edge38" class="edge">
<title>Node1&#45;&gt;Node20</title>
<path fill="none" stroke="midnightblue" d="M706.93,-692.96C707.45,-655.14 702.44,-573.74 653,-537 609.3,-504.52 458.95,-518.75 366.32,-531.34"/>
<polygon fill="midnightblue" stroke="midnightblue" points="703.43,-693.11 706.63,-703.2 710.42,-693.31 703.43,-693.11"/>
</g>
<!-- Node22 -->
<g id="node22" class="node">
<title>Node22</title>
<g id="a_node22"><a xlink:href="classrare_1_1components_1_1tabs_1_1games_1_1game__widgets_1_1icon__widget_1_1_icon_widget.html#a01e028f6bf729dd78b3c98e5f5be7cdb" target="_top" xlink:title=" ">
<polygon fill="white" stroke="black" points="447.5,-430.5 447.5,-471.5 633.5,-471.5 633.5,-430.5 447.5,-430.5"/>
<text text-anchor="start" x="455.5" y="-459.5" font-family="Helvetica,sans-Serif" font-size="10.00">rare.components.tabs.games.game</text>
<text text-anchor="start" x="455.5" y="-448.5" font-family="Helvetica,sans-Serif" font-size="10.00">_widgets.icon_widget.IconWidget.leave</text>
<text text-anchor="middle" x="540.5" y="-437.5" font-family="Helvetica,sans-Serif" font-size="10.00">Animation</text>
</a>
</g>
</g>
<!-- Node1&#45;&gt;Node22 -->
<g id="edge42" class="edge">
<title>Node1&#45;&gt;Node22</title>
<path fill="none" stroke="midnightblue" d="M706.31,-693.35C705.91,-653.18 699.6,-560.72 653,-504 641.44,-489.92 625.26,-479.35 608.81,-471.51"/>
<polygon fill="midnightblue" stroke="midnightblue" points="702.81,-693.41 706.29,-703.42 709.81,-693.43 702.81,-693.41"/>
</g>
<!-- Node23 -->
<g id="node23" class="node">
<title>Node23</title>
<g id="a_node23"><a xlink:href="namespacerare_1_1____main____.html#add42217d54476fc931cfda4d8515bf43" target="_top" xlink:title=" ">
<polygon fill="white" stroke="black" points="490,-374.5 490,-393.5 591,-393.5 591,-374.5 490,-374.5"/>
<text text-anchor="middle" x="540.5" y="-381.5" font-family="Helvetica,sans-Serif" font-size="10.00">rare.__main__.main</text>
</a>
</g>
</g>
<!-- Node1&#45;&gt;Node23 -->
<g id="edge44" class="edge">
<title>Node1&#45;&gt;Node23</title>
<path fill="none" stroke="midnightblue" d="M704.99,-693.25C701.58,-634.46 688.7,-462.12 653,-421 637.49,-403.13 613.14,-393.86 591.15,-389.07"/>
<polygon fill="midnightblue" stroke="midnightblue" points="701.5,-693.63 705.54,-703.42 708.49,-693.24 701.5,-693.63"/>
</g>
<!-- Node24 -->
<g id="node24" class="node">
<title>Node24</title>
<g id="a_node24"><a xlink:href="classrare_1_1app_1_1_app.html#a220a81c6097c255b60ace038f4b0c9cb" target="_top" xlink:title=" ">
<polygon fill="white" stroke="black" points="480,-318.5 480,-337.5 601,-337.5 601,-318.5 480,-318.5"/>
<text text-anchor="middle" x="540.5" y="-325.5" font-family="Helvetica,sans-Serif" font-size="10.00">rare.app.App.poke_timer</text>
</a>
</g>
</g>
<!-- Node1&#45;&gt;Node24 -->
<g id="edge46" class="edge">
<title>Node1&#45;&gt;Node24</title>
<path fill="none" stroke="midnightblue" d="M705.62,-693.02C703.96,-626.71 695.38,-415.24 653,-365 639.98,-349.57 620.36,-340.54 601.18,-335.27"/>
<polygon fill="midnightblue" stroke="midnightblue" points="702.13,-693.41 705.85,-703.33 709.12,-693.26 702.13,-693.41"/>
</g>
<!-- Node25 -->
<g id="node25" class="node">
<title>Node25</title>
<g id="a_node25"><a xlink:href="classrare_1_1app_1_1_app.html#ad1154d50f6a0117806ccb85485b2ec68" target="_top" xlink:title=" ">
<polygon fill="white" stroke="black" points="236.5,-299.5 236.5,-318.5 343.5,-318.5 343.5,-299.5 236.5,-299.5"/>
<text text-anchor="middle" x="290" y="-306.5" font-family="Helvetica,sans-Serif" font-size="10.00">rare.app.App.re_login</text>
</a>
</g>
</g>
<!-- Node1&#45;&gt;Node25 -->
<g id="edge50" class="edge">
<title>Node1&#45;&gt;Node25</title>
<path fill="none" stroke="midnightblue" d="M704.9,-693.01C700.4,-615.08 682.27,-334.68 653,-309 608.42,-269.88 432.79,-288.45 343.59,-300.9"/>
<polygon fill="midnightblue" stroke="midnightblue" points="701.42,-693.56 705.48,-703.35 708.41,-693.17 701.42,-693.56"/>
</g>
<!-- Node26 -->
<g id="node26" class="node">
<title>Node26</title>
<g id="a_node26"><a xlink:href="classrare_1_1components_1_1tabs_1_1settings_1_1legendary_1_1_legendary_settings.html#a1d5b89ca21914c636bb761ba08729e9b" target="_top" xlink:title=" ">
<polygon fill="white" stroke="black" points="444.5,-213 444.5,-243 636.5,-243 636.5,-213 444.5,-213"/>
<text text-anchor="start" x="452.5" y="-231" font-family="Helvetica,sans-Serif" font-size="10.00">rare.components.tabs.settings.legendary.</text>
<text text-anchor="middle" x="540.5" y="-220" font-family="Helvetica,sans-Serif" font-size="10.00">LegendarySettings.refresh_game_meta</text>
</a>
</g>
</g>
<!-- Node1&#45;&gt;Node26 -->
<g id="edge51" class="edge">
<title>Node1&#45;&gt;Node26</title>
<path fill="none" stroke="midnightblue" d="M706.14,-693.21C706.3,-616.97 703.31,-343.22 653,-276 641.57,-260.73 624.29,-250.26 606.72,-243.1"/>
<polygon fill="midnightblue" stroke="midnightblue" points="702.64,-693.32 706.1,-703.33 709.64,-693.35 702.64,-693.32"/>
</g>
<!-- Node27 -->
<g id="node27" class="node">
<title>Node27</title>
<g id="a_node27"><a xlink:href="classrare_1_1components_1_1dialogs_1_1launch__dialog_1_1_launch_dialog.html#a56ebc7d291a804d91f54ac948321822d" target="_top" xlink:title=" ">
<polygon fill="white" stroke="black" points="464.5,-546.5 464.5,-587.5 616.5,-587.5 616.5,-546.5 464.5,-546.5"/>
<text text-anchor="start" x="472.5" y="-575.5" font-family="Helvetica,sans-Serif" font-size="10.00">rare.components.dialogs.launch</text>
<text text-anchor="start" x="472.5" y="-564.5" font-family="Helvetica,sans-Serif" font-size="10.00">_dialog.LaunchDialog.start</text>
<text text-anchor="middle" x="540.5" y="-553.5" font-family="Helvetica,sans-Serif" font-size="10.00">_api_requests</text>
</a>
</g>
</g>
<!-- Node1&#45;&gt;Node27 -->
<g id="edge54" class="edge">
<title>Node1&#45;&gt;Node27</title>
<path fill="none" stroke="midnightblue" d="M699.77,-693.77C691.94,-672.27 676.59,-637.64 653,-616 639.99,-604.06 623.61,-594.7 607.43,-587.5"/>
<polygon fill="midnightblue" stroke="midnightblue" points="696.53,-695.1 703.1,-703.41 703.15,-692.82 696.53,-695.1"/>
</g>
<!-- Node28 -->
<g id="node28" class="node">
<title>Node28</title>
<g id="a_node28"><a xlink:href="classrare_1_1models_1_1game_1_1_rare_game.html#a44ad13c0a844d30263bbf7ca3ce625ea" target="_top" xlink:title=" ">
<polygon fill="white" stroke="black" points="455,-146 455,-176 626,-176 626,-146 455,-146"/>
<text text-anchor="start" x="463" y="-164" font-family="Helvetica,sans-Serif" font-size="10.00">rare.models.game.RareGame.steam</text>
<text text-anchor="middle" x="540.5" y="-153" font-family="Helvetica,sans-Serif" font-size="10.00">_grade</text>
</a>
</g>
</g>
<!-- Node1&#45;&gt;Node28 -->
<g id="edge57" class="edge">
<title>Node1&#45;&gt;Node28</title>
<path fill="none" stroke="midnightblue" d="M705.15,-693.19C701.17,-604.14 683.26,-243.54 653,-204 643.29,-191.31 629.33,-182.37 614.57,-176.06"/>
<polygon fill="midnightblue" stroke="midnightblue" points="701.66,-693.45 705.59,-703.28 708.65,-693.14 701.66,-693.45"/>
</g>
<!-- Node29 -->
<g id="node29" class="node">
<title>Node29</title>
<g id="a_node29"><a xlink:href="classrare_1_1components_1_1tabs_1_1downloads_1_1_downloads_tab.html#ad688e83ab96ce32b1ed9e5ccc83d0ee8" target="_top" xlink:title="Stops the active download, by optionally skipping the queue.">
<polygon fill="white" stroke="black" points="460,-79 460,-109 621,-109 621,-79 460,-79"/>
<text text-anchor="start" x="468" y="-97" font-family="Helvetica,sans-Serif" font-size="10.00">rare.components.tabs.downloads.</text>
<text text-anchor="middle" x="540.5" y="-86" font-family="Helvetica,sans-Serif" font-size="10.00">DownloadsTab.stop_download</text>
</a>
</g>
</g>
<!-- Node1&#45;&gt;Node29 -->
<g id="edge59" class="edge">
<title>Node1&#45;&gt;Node29</title>
<path fill="none" stroke="midnightblue" d="M705.42,-693.33C702.42,-597.39 687.49,-181.27 653,-136 643.72,-123.82 630.49,-115.18 616.37,-109.04"/>
<polygon fill="midnightblue" stroke="midnightblue" points="701.92,-693.51 705.73,-703.4 708.92,-693.3 701.92,-693.51"/>
</g>
<!-- Node31 -->
<g id="node31" class="node">
<title>Node31</title>
<g id="a_node31"><a xlink:href="classrare_1_1components_1_1main__window_1_1_main_window.html#aa932131ff73a2a934f2f2da848314955" target="_top" xlink:title=" ">
<polygon fill="white" stroke="black" points="472,-0.5 472,-41.5 609,-41.5 609,-0.5 472,-0.5"/>
<text text-anchor="start" x="480" y="-29.5" font-family="Helvetica,sans-Serif" font-size="10.00">rare.components.main</text>
<text text-anchor="start" x="480" y="-18.5" font-family="Helvetica,sans-Serif" font-size="10.00">_window.MainWindow.timer</text>
<text text-anchor="middle" x="540.5" y="-7.5" font-family="Helvetica,sans-Serif" font-size="10.00">_finished</text>
</a>
</g>
</g>
<!-- Node1&#45;&gt;Node31 -->
<g id="edge63" class="edge">
<title>Node1&#45;&gt;Node31</title>
<path fill="none" stroke="midnightblue" d="M705.57,-693.06C703.17,-590.05 690.28,-120.86 653,-69 642.3,-54.11 625.99,-43.8 609.13,-36.67"/>
<polygon fill="midnightblue" stroke="midnightblue" points="702.07,-693.38 705.8,-703.3 709.07,-693.22 702.07,-693.38"/>
</g>
<!-- Node32 -->
<g id="node32" class="node">
<title>Node32</title>
<g id="a_node32"><a xlink:href="classrare_1_1shared_1_1cloud__save__utils_1_1_cloud_save_utils.html#aa8e70f679f4b52407676c50ca922a5c0" target="_top" xlink:title=" ">
<polygon fill="white" stroke="black" points="454.5,-1050 454.5,-1080 626.5,-1080 626.5,-1050 454.5,-1050"/>
<text text-anchor="start" x="462.5" y="-1068" font-family="Helvetica,sans-Serif" font-size="10.00">rare.shared.cloud_save</text>
<text text-anchor="middle" x="540.5" y="-1057" font-family="Helvetica,sans-Serif" font-size="10.00">_utils.CloudSaveUtils.upload_saves</text>
</a>
</g>
</g>
<!-- Node1&#45;&gt;Node32 -->
<g id="edge65" class="edge">
<title>Node1&#45;&gt;Node32</title>
<path fill="none" stroke="midnightblue" d="M705.62,-732.82C703.99,-796.79 695.53,-996.21 653,-1041 645.71,-1048.68 636.59,-1054.2 626.73,-1058.13"/>
<polygon fill="midnightblue" stroke="midnightblue" points="709.13,-732.6 705.86,-722.52 702.13,-732.44 709.13,-732.6"/>
</g>
<!-- Node2&#45;&gt;Node2 -->
<g id="edge2" class="edge">
<title>Node2&#45;&gt;Node2</title>
<path fill="none" stroke="midnightblue" d="M570,-1504.46C566.34,-1509.18 556.5,-1512.5 540.5,-1512.5 514.24,-1512.5 504.6,-1503.56 511.57,-1494.16"/>
<polygon fill="midnightblue" stroke="midnightblue" points="573.47,-1503.95 569.43,-1494.16 566.48,-1504.34 573.47,-1503.95"/>
</g>
<!-- Node3&#45;&gt;Node3 -->
<g id="edge4" class="edge">
<title>Node3&#45;&gt;Node3</title>
<path fill="none" stroke="midnightblue" d="M570,-1437.46C566.34,-1442.18 556.5,-1445.5 540.5,-1445.5 514.24,-1445.5 504.6,-1436.56 511.57,-1427.16"/>
<polygon fill="midnightblue" stroke="midnightblue" points="573.47,-1436.95 569.43,-1427.16 566.48,-1437.34 573.47,-1436.95"/>
</g>
<!-- Node4&#45;&gt;Node4 -->
<g id="edge6" class="edge">
<title>Node4&#45;&gt;Node4</title>
<path fill="none" stroke="midnightblue" d="M570,-1370.46C566.34,-1375.18 556.5,-1378.5 540.5,-1378.5 514.24,-1378.5 504.6,-1369.56 511.57,-1360.16"/>
<polygon fill="midnightblue" stroke="midnightblue" points="573.47,-1369.95 569.43,-1360.16 566.48,-1370.34 573.47,-1369.95"/>
</g>
<!-- Node5&#45;&gt;Node5 -->
<g id="edge8" class="edge">
<title>Node5&#45;&gt;Node5</title>
<path fill="none" stroke="midnightblue" d="M569.06,-1302.86C564.81,-1307.7 555.29,-1311 540.5,-1311 516.83,-1311 506.66,-1302.54 509.99,-1292.86"/>
<polygon fill="midnightblue" stroke="midnightblue" points="572.53,-1303.35 571.01,-1292.86 565.66,-1302.01 572.53,-1303.35"/>
</g>
<!-- Node6 -->
<g id="node6" class="node">
<title>Node6</title>
<g id="a_node6"><a xlink:href="classrare_1_1components_1_1tabs_1_1games_1_1game__info_1_1game__settings_1_1_game_settings.html#a402cc3990680aa82b30e6ae5ec44886d" target="_top" xlink:title=" ">
<polygon fill="white" stroke="black" points="194.5,-1212.5 194.5,-1253.5 385.5,-1253.5 385.5,-1212.5 194.5,-1212.5"/>
<text text-anchor="start" x="202.5" y="-1241.5" font-family="Helvetica,sans-Serif" font-size="10.00">rare.components.tabs.games.game</text>
<text text-anchor="start" x="202.5" y="-1230.5" font-family="Helvetica,sans-Serif" font-size="10.00">_info.game_settings.GameSettings.save</text>
<text text-anchor="middle" x="290" y="-1219.5" font-family="Helvetica,sans-Serif" font-size="10.00">_line_edit</text>
</a>
</g>
</g>
<!-- Node5&#45;&gt;Node6 -->
<g id="edge9" class="edge">
<title>Node5&#45;&gt;Node6</title>
<path fill="none" stroke="midnightblue" d="M426.38,-1254.25C412.73,-1252.1 398.9,-1249.93 385.56,-1247.84"/>
<polygon fill="midnightblue" stroke="midnightblue" points="425.85,-1257.71 436.27,-1255.8 426.94,-1250.79 425.85,-1257.71"/>
</g>
<!-- Node7 -->
<g id="node7" class="node">
<title>Node7</title>
<g id="a_node7"><a xlink:href="classrare_1_1components_1_1tabs_1_1settings_1_1default__game__settings_1_1_default_game_settings.html#a402cc3990680aa82b30e6ae5ec44886d" target="_top" xlink:title=" ">
<polygon fill="white" stroke="black" points="188,-1290.5 188,-1331.5 392,-1331.5 392,-1290.5 188,-1290.5"/>
<text text-anchor="start" x="196" y="-1319.5" font-family="Helvetica,sans-Serif" font-size="10.00">rare.components.tabs.settings.default</text>
<text text-anchor="start" x="196" y="-1308.5" font-family="Helvetica,sans-Serif" font-size="10.00">_game_settings.DefaultGameSettings.save</text>
<text text-anchor="middle" x="290" y="-1297.5" font-family="Helvetica,sans-Serif" font-size="10.00">_line_edit</text>
</a>
</g>
</g>
<!-- Node5&#45;&gt;Node7 -->
<g id="edge11" class="edge">
<title>Node5&#45;&gt;Node7</title>
<path fill="none" stroke="midnightblue" d="M426.34,-1289.76C414.99,-1291.54 403.52,-1293.34 392.31,-1295.1"/>
<polygon fill="midnightblue" stroke="midnightblue" points="426.94,-1293.21 436.27,-1288.2 425.85,-1286.29 426.94,-1293.21"/>
</g>
<!-- Node6&#45;&gt;Node6 -->
<g id="edge10" class="edge">
<title>Node6&#45;&gt;Node6</title>
<path fill="none" stroke="midnightblue" d="M326.82,-1263.86C321.34,-1268.7 309.07,-1272 290,-1272 259.49,-1272 246.38,-1263.54 250.67,-1253.86"/>
<polygon fill="midnightblue" stroke="midnightblue" points="330.29,-1264.42 329.33,-1253.86 323.5,-1262.71 330.29,-1264.42"/>
</g>
<!-- Node7&#45;&gt;Node7 -->
<g id="edge12" class="edge">
<title>Node7&#45;&gt;Node7</title>
<path fill="none" stroke="midnightblue" d="M326.82,-1341.86C321.34,-1346.7 309.07,-1350 290,-1350 259.49,-1350 246.38,-1341.54 250.67,-1331.86"/>
<polygon fill="midnightblue" stroke="midnightblue" points="330.29,-1342.42 329.33,-1331.86 323.5,-1340.71 330.29,-1342.42"/>
</g>
<!-- Node8&#45;&gt;Node8 -->
<g id="edge14" class="edge">
<title>Node8&#45;&gt;Node8</title>
<path fill="none" stroke="midnightblue" d="M570,-1224.46C566.34,-1229.18 556.5,-1232.5 540.5,-1232.5 514.24,-1232.5 504.6,-1223.56 511.57,-1214.16"/>
<polygon fill="midnightblue" stroke="midnightblue" points="573.47,-1223.95 569.43,-1214.16 566.48,-1224.34 573.47,-1223.95"/>
</g>
<!-- Node9&#45;&gt;Node9 -->
<g id="edge16" class="edge">
<title>Node9&#45;&gt;Node9</title>
<path fill="none" stroke="midnightblue" d="M570,-1157.46C566.34,-1162.18 556.5,-1165.5 540.5,-1165.5 514.24,-1165.5 504.6,-1156.56 511.57,-1147.16"/>
<polygon fill="midnightblue" stroke="midnightblue" points="573.47,-1156.95 569.43,-1147.16 566.48,-1157.34 573.47,-1156.95"/>
</g>
<!-- Node10&#45;&gt;Node10 -->
<g id="edge18" class="edge">
<title>Node10&#45;&gt;Node10</title>
<path fill="none" stroke="midnightblue" d="M570,-1023.46C566.34,-1028.18 556.5,-1031.5 540.5,-1031.5 514.24,-1031.5 504.6,-1022.56 511.57,-1013.16"/>
<polygon fill="midnightblue" stroke="midnightblue" points="573.47,-1022.95 569.43,-1013.16 566.48,-1023.34 573.47,-1022.95"/>
</g>
<!-- Node11 -->
<g id="node11" class="node">
<title>Node11</title>
<g id="a_node11"><a xlink:href="classrare_1_1shared_1_1cloud__save__utils_1_1_cloud_save_utils.html#a10b23581a8985688ac5e033320d2f4e6" target="_top" xlink:title=" ">
<polygon fill="white" stroke="black" points="222,-971.5 222,-1012.5 358,-1012.5 358,-971.5 222,-971.5"/>
<text text-anchor="start" x="230" y="-1000.5" font-family="Helvetica,sans-Serif" font-size="10.00">rare.shared.cloud_save</text>
<text text-anchor="start" x="230" y="-989.5" font-family="Helvetica,sans-Serif" font-size="10.00">_utils.CloudSaveUtils.game</text>
<text text-anchor="middle" x="290" y="-978.5" font-family="Helvetica,sans-Serif" font-size="10.00">_finished</text>
</a>
</g>
</g>
<!-- Node10&#45;&gt;Node11 -->
<g id="edge19" class="edge">
<title>Node10&#45;&gt;Node11</title>
<path fill="none" stroke="midnightblue" d="M437.53,-995.54C410.85,-994.89 382.75,-994.22 358.37,-993.63"/>
<polygon fill="midnightblue" stroke="midnightblue" points="437.59,-999.04 447.67,-995.78 437.76,-992.04 437.59,-999.04"/>
</g>
<!-- Node12 -->
<g id="node12" class="node">
<title>Node12</title>
<g id="a_node12"><a xlink:href="classrare_1_1shared_1_1cloud__save__utils_1_1_cloud_save_utils.html#a334fe43afd1584269d7e8186d3e00145" target="_top" xlink:title=" ">
<polygon fill="white" stroke="black" points="224,-1049.5 224,-1090.5 356,-1090.5 356,-1049.5 224,-1049.5"/>
<text text-anchor="start" x="232" y="-1078.5" font-family="Helvetica,sans-Serif" font-size="10.00">rare.shared.cloud_save</text>
<text text-anchor="start" x="232" y="-1067.5" font-family="Helvetica,sans-Serif" font-size="10.00">_utils.CloudSaveUtils.sync</text>
<text text-anchor="middle" x="290" y="-1056.5" font-family="Helvetica,sans-Serif" font-size="10.00">_before_launch_game</text>
</a>
</g>
</g>
<!-- Node10&#45;&gt;Node12 -->
<g id="edge21" class="edge">
<title>Node10&#45;&gt;Node12</title>
<path fill="none" stroke="midnightblue" d="M478.02,-1015.81C440.93,-1026.56 393.72,-1040.24 356.01,-1051.16"/>
<polygon fill="midnightblue" stroke="midnightblue" points="479.08,-1019.15 487.71,-1013.01 477.13,-1012.43 479.08,-1019.15"/>
</g>
<!-- Node11&#45;&gt;Node11 -->
<g id="edge20" class="edge">
<title>Node11&#45;&gt;Node11</title>
<path fill="none" stroke="midnightblue" d="M326.82,-1022.86C321.34,-1027.7 309.07,-1031 290,-1031 259.49,-1031 246.38,-1022.54 250.67,-1012.86"/>
<polygon fill="midnightblue" stroke="midnightblue" points="330.29,-1023.42 329.33,-1012.86 323.5,-1021.71 330.29,-1023.42"/>
</g>
<!-- Node12&#45;&gt;Node12 -->
<g id="edge22" class="edge">
<title>Node12&#45;&gt;Node12</title>
<path fill="none" stroke="midnightblue" d="M326.82,-1100.86C321.34,-1105.7 309.07,-1109 290,-1109 259.49,-1109 246.38,-1100.54 250.67,-1090.86"/>
<polygon fill="midnightblue" stroke="midnightblue" points="330.29,-1101.42 329.33,-1090.86 323.5,-1099.71 330.29,-1101.42"/>
</g>
<!-- Node13&#45;&gt;Node13 -->
<g id="edge24" class="edge">
<title>Node13&#45;&gt;Node13</title>
<path fill="none" stroke="midnightblue" d="M570,-956.46C566.34,-961.18 556.5,-964.5 540.5,-964.5 514.24,-964.5 504.6,-955.56 511.57,-946.16"/>
<polygon fill="midnightblue" stroke="midnightblue" points="573.47,-955.95 569.43,-946.16 566.48,-956.34 573.47,-955.95"/>
</g>
<!-- Node14&#45;&gt;Node14 -->
<g id="edge26" class="edge">
<title>Node14&#45;&gt;Node14</title>
<path fill="none" stroke="midnightblue" d="M570,-889.46C566.34,-894.18 556.5,-897.5 540.5,-897.5 514.24,-897.5 504.6,-888.56 511.57,-879.16"/>
<polygon fill="midnightblue" stroke="midnightblue" points="573.47,-888.95 569.43,-879.16 566.48,-889.34 573.47,-888.95"/>
</g>
<!-- Node15&#45;&gt;Node15 -->
<g id="edge28" class="edge">
<title>Node15&#45;&gt;Node15</title>
<path fill="none" stroke="midnightblue" d="M569.06,-821.86C564.81,-826.7 555.29,-830 540.5,-830 516.83,-830 506.66,-821.54 509.99,-811.86"/>
<polygon fill="midnightblue" stroke="midnightblue" points="572.53,-822.35 571.01,-811.86 565.66,-821.01 572.53,-822.35"/>
</g>
<!-- Node16&#45;&gt;Node16 -->
<g id="edge32" class="edge">
<title>Node16&#45;&gt;Node16</title>
<path fill="none" stroke="midnightblue" d="M569.06,-743.86C564.81,-748.7 555.29,-752 540.5,-752 516.83,-752 506.66,-743.54 509.99,-733.86"/>
<polygon fill="midnightblue" stroke="midnightblue" points="572.53,-744.35 571.01,-733.86 565.66,-743.01 572.53,-744.35"/>
</g>
<!-- Node17 -->
<g id="node17" class="node">
<title>Node17</title>
<g id="a_node17"><a xlink:href="classrare_1_1components_1_1dialogs_1_1install__dialog_1_1_install_dialog.html#aa902973791e81c8c4542da337b86289b" target="_top" xlink:title=" ">
<polygon fill="white" stroke="black" points="1.5,-698 1.5,-728 150.5,-728 150.5,-698 1.5,-698"/>
<text text-anchor="start" x="9.5" y="-716" font-family="Helvetica,sans-Serif" font-size="10.00">rare.components.dialogs.install</text>
<text text-anchor="middle" x="76" y="-705" font-family="Helvetica,sans-Serif" font-size="10.00">_dialog.InstallDialog.execute</text>
</a>
</g>
</g>
<!-- Node16&#45;&gt;Node17 -->
<g id="edge30" class="edge">
<title>Node16&#45;&gt;Node17</title>
<path fill="none" stroke="midnightblue" d="M455.6,-721.01C434.84,-722.67 412.63,-724.16 392,-725 301.41,-728.68 278.54,-729.88 188,-725 175.9,-724.35 163.1,-723.3 150.65,-722.09"/>
<polygon fill="midnightblue" stroke="midnightblue" points="455.99,-724.49 465.67,-720.19 455.42,-717.52 455.99,-724.49"/>
</g>
<!-- Node18 -->
<g id="node18" class="node">
<title>Node18</title>
<g id="a_node18"><a xlink:href="classrare_1_1components_1_1dialogs_1_1install__dialog_1_1_install_dialog.html#a77e69cb6973b2c8a40dfed17abe7d453" target="_top" xlink:title=" ">
<polygon fill="white" stroke="black" points="208,-667 208,-697 372,-697 372,-667 208,-667"/>
<text text-anchor="start" x="216" y="-685" font-family="Helvetica,sans-Serif" font-size="10.00">rare.components.dialogs.install</text>
<text text-anchor="middle" x="290" y="-674" font-family="Helvetica,sans-Serif" font-size="10.00">_dialog.InstallDialog.verify_clicked</text>
</a>
</g>
</g>
<!-- Node16&#45;&gt;Node18 -->
<g id="edge33" class="edge">
<title>Node16&#45;&gt;Node18</title>
<path fill="none" stroke="midnightblue" d="M455.77,-702.55C428.8,-699.19 398.97,-695.47 372.18,-692.13"/>
<polygon fill="midnightblue" stroke="midnightblue" points="455.59,-706.06 465.95,-703.82 456.46,-699.11 455.59,-706.06"/>
</g>
<!-- Node17&#45;&gt;Node17 -->
<g id="edge31" class="edge">
<title>Node17&#45;&gt;Node17</title>
<path fill="none" stroke="midnightblue" d="M114.03,-738.46C109.31,-743.18 96.63,-746.5 76,-746.5 42.14,-746.5 29.71,-737.56 38.71,-728.16"/>
<polygon fill="midnightblue" stroke="midnightblue" points="117.49,-737.89 113.29,-728.16 110.51,-738.38 117.49,-737.89"/>
</g>
<!-- Node18&#45;&gt;Node17 -->
<g id="edge34" class="edge">
<title>Node18&#45;&gt;Node17</title>
<path fill="none" stroke="midnightblue" d="M197.71,-695.35C182.01,-697.64 165.87,-700 150.71,-702.22"/>
<polygon fill="midnightblue" stroke="midnightblue" points="198.56,-698.76 207.94,-693.85 197.54,-691.84 198.56,-698.76"/>
</g>
<!-- Node18&#45;&gt;Node18 -->
<g id="edge35" class="edge">
<title>Node18&#45;&gt;Node18</title>
<path fill="none" stroke="midnightblue" d="M328.03,-707.46C323.31,-712.18 310.63,-715.5 290,-715.5 256.14,-715.5 243.71,-706.56 252.71,-697.16"/>
<polygon fill="midnightblue" stroke="midnightblue" points="331.49,-706.89 327.29,-697.16 324.51,-707.38 331.49,-706.89"/>
</g>
<!-- Node19&#45;&gt;Node19 -->
<g id="edge37" class="edge">
<title>Node19&#45;&gt;Node19</title>
<path fill="none" stroke="midnightblue" d="M570,-665.46C566.34,-670.18 556.5,-673.5 540.5,-673.5 514.24,-673.5 504.6,-664.56 511.57,-655.16"/>
<polygon fill="midnightblue" stroke="midnightblue" points="573.47,-664.95 569.43,-655.16 566.48,-665.34 573.47,-664.95"/>
</g>
<!-- Node20&#45;&gt;Node20 -->
<g id="edge39" class="edge">
<title>Node20&#45;&gt;Node20</title>
<path fill="none" stroke="midnightblue" d="M328.03,-568.46C323.31,-573.18 310.63,-576.5 290,-576.5 256.14,-576.5 243.71,-567.56 252.71,-558.16"/>
<polygon fill="midnightblue" stroke="midnightblue" points="331.49,-567.89 327.29,-558.16 324.51,-568.38 331.49,-567.89"/>
</g>
<!-- Node21 -->
<g id="node21" class="node">
<title>Node21</title>
<g id="a_node21"><a xlink:href="classrare_1_1components_1_1dialogs_1_1launch__dialog_1_1_launch_dialog.html#a6c3ea5ef9b9848bf1214c66978e3d59d" target="_top" xlink:title=" ">
<polygon fill="white" stroke="black" points="0,-528 0,-558 152,-558 152,-528 0,-528"/>
<text text-anchor="start" x="8" y="-546" font-family="Helvetica,sans-Serif" font-size="10.00">rare.components.dialogs.launch</text>
<text text-anchor="middle" x="76" y="-535" font-family="Helvetica,sans-Serif" font-size="10.00">_dialog.LaunchDialog.login</text>
</a>
</g>
</g>
<!-- Node20&#45;&gt;Node21 -->
<g id="edge40" class="edge">
<title>Node20&#45;&gt;Node21</title>
<path fill="none" stroke="midnightblue" d="M203.51,-543C186.56,-543 168.88,-543 152.3,-543"/>
<polygon fill="midnightblue" stroke="midnightblue" points="203.96,-546.5 213.96,-543 203.96,-539.5 203.96,-546.5"/>
</g>
<!-- Node21&#45;&gt;Node21 -->
<g id="edge41" class="edge">
<title>Node21&#45;&gt;Node21</title>
<path fill="none" stroke="midnightblue" d="M114.03,-568.46C109.31,-573.18 96.63,-576.5 76,-576.5 42.14,-576.5 29.71,-567.56 38.71,-558.16"/>
<polygon fill="midnightblue" stroke="midnightblue" points="117.49,-567.89 113.29,-558.16 110.51,-568.38 117.49,-567.89"/>
</g>
<!-- Node22&#45;&gt;Node22 -->
<g id="edge43" class="edge">
<title>Node22&#45;&gt;Node22</title>
<path fill="none" stroke="midnightblue" d="M569.06,-481.86C564.81,-486.7 555.29,-490 540.5,-490 516.83,-490 506.66,-481.54 509.99,-471.86"/>
<polygon fill="midnightblue" stroke="midnightblue" points="572.53,-482.35 571.01,-471.86 565.66,-481.01 572.53,-482.35"/>
</g>
<!-- Node23&#45;&gt;Node23 -->
<g id="edge45" class="edge">
<title>Node23&#45;&gt;Node23</title>
<path fill="none" stroke="midnightblue" d="M571.56,-402.27C570.68,-407.74 560.32,-412 540.5,-412 511,-412 502.47,-402.57 514.91,-393.76"/>
<polygon fill="midnightblue" stroke="midnightblue" points="574.44,-400.27 566.09,-393.76 568.55,-404.06 574.44,-400.27"/>
</g>
<!-- Node24&#45;&gt;Node24 -->
<g id="edge47" class="edge">
<title>Node24&#45;&gt;Node24</title>
<path fill="none" stroke="midnightblue" d="M571.56,-346.27C570.68,-351.74 560.32,-356 540.5,-356 511,-356 502.47,-346.57 514.91,-337.76"/>
<polygon fill="midnightblue" stroke="midnightblue" points="574.44,-344.27 566.09,-337.76 568.55,-348.06 574.44,-344.27"/>
</g>
<!-- Node24&#45;&gt;Node25 -->
<g id="edge48" class="edge">
<title>Node24&#45;&gt;Node25</title>
<path fill="none" stroke="midnightblue" d="M469.77,-322.67C429.79,-319.61 380.42,-315.84 343.7,-313.03"/>
<polygon fill="midnightblue" stroke="midnightblue" points="469.74,-326.18 479.98,-323.45 470.27,-319.2 469.74,-326.18"/>
</g>
<!-- Node25&#45;&gt;Node25 -->
<g id="edge49" class="edge">
<title>Node25&#45;&gt;Node25</title>
<path fill="none" stroke="midnightblue" d="M330.02,-325.62C331.43,-331.86 318.09,-337 290,-337 251.76,-337 240.85,-327.46 257.28,-318.61"/>
<polygon fill="midnightblue" stroke="midnightblue" points="332.36,-323.01 322.72,-318.61 327.51,-328.06 332.36,-323.01"/>
</g>
<!-- Node26&#45;&gt;Node26 -->
<g id="edge52" class="edge">
<title>Node26&#45;&gt;Node26</title>
<path fill="none" stroke="midnightblue" d="M570,-253.46C566.34,-258.18 556.5,-261.5 540.5,-261.5 514.24,-261.5 504.6,-252.56 511.57,-243.16"/>
<polygon fill="midnightblue" stroke="midnightblue" points="573.47,-252.95 569.43,-243.16 566.48,-253.34 573.47,-252.95"/>
</g>
<!-- Node27&#45;&gt;Node20 -->
<g id="edge55" class="edge">
<title>Node27&#45;&gt;Node20</title>
<path fill="none" stroke="midnightblue" d="M454.31,-558.77C425.76,-556.02 394.15,-552.96 366.41,-550.28"/>
<polygon fill="midnightblue" stroke="midnightblue" points="453.98,-562.26 464.27,-559.73 454.65,-555.29 453.98,-562.26"/>
</g>
<!-- Node27&#45;&gt;Node27 -->
<g id="edge56" class="edge">
<title>Node27&#45;&gt;Node27</title>
<path fill="none" stroke="midnightblue" d="M569.06,-597.86C564.81,-602.7 555.29,-606 540.5,-606 516.83,-606 506.66,-597.54 509.99,-587.86"/>
<polygon fill="midnightblue" stroke="midnightblue" points="572.53,-598.35 571.01,-587.86 565.66,-597.01 572.53,-598.35"/>
</g>
<!-- Node28&#45;&gt;Node28 -->
<g id="edge58" class="edge">
<title>Node28&#45;&gt;Node28</title>
<path fill="none" stroke="midnightblue" d="M570,-186.46C566.34,-191.18 556.5,-194.5 540.5,-194.5 514.24,-194.5 504.6,-185.56 511.57,-176.16"/>
<polygon fill="midnightblue" stroke="midnightblue" points="573.47,-185.95 569.43,-176.16 566.48,-186.34 573.47,-185.95"/>
</g>
<!-- Node29&#45;&gt;Node29 -->
<g id="edge62" class="edge">
<title>Node29&#45;&gt;Node29</title>
<path fill="none" stroke="midnightblue" d="M570,-119.46C566.34,-124.18 556.5,-127.5 540.5,-127.5 514.24,-127.5 504.6,-118.56 511.57,-109.16"/>
<polygon fill="midnightblue" stroke="midnightblue" points="573.47,-118.95 569.43,-109.16 566.48,-119.34 573.47,-118.95"/>
</g>
<!-- Node30 -->
<g id="node30" class="node">
<title>Node30</title>
<g id="a_node30"><a xlink:href="classrare_1_1components_1_1tabs_1_1downloads_1_1_downloads_tab.html#a91ee81dee5df73fb4e3057d7c12624e0" target="_top" xlink:title=" ">
<polygon fill="white" stroke="black" points="205.5,-79 205.5,-109 374.5,-109 374.5,-79 205.5,-79"/>
<text text-anchor="start" x="213.5" y="-97" font-family="Helvetica,sans-Serif" font-size="10.00">rare.components.tabs.downloads.</text>
<text text-anchor="middle" x="290" y="-86" font-family="Helvetica,sans-Serif" font-size="10.00">DownloadsTab.is_download_active</text>
</a>
</g>
</g>
<!-- Node29&#45;&gt;Node30 -->
<g id="edge60" class="edge">
<title>Node29&#45;&gt;Node30</title>
<path fill="none" stroke="midnightblue" d="M449.54,-94C425.18,-94 398.92,-94 374.91,-94"/>
<polygon fill="midnightblue" stroke="midnightblue" points="449.85,-97.5 459.85,-94 449.85,-90.5 449.85,-97.5"/>
</g>
<!-- Node30&#45;&gt;Node30 -->
<g id="edge61" class="edge">
<title>Node30&#45;&gt;Node30</title>
<path fill="none" stroke="midnightblue" d="M328.03,-119.46C323.31,-124.18 310.63,-127.5 290,-127.5 256.14,-127.5 243.71,-118.56 252.71,-109.16"/>
<polygon fill="midnightblue" stroke="midnightblue" points="331.49,-118.89 327.29,-109.16 324.51,-119.38 331.49,-118.89"/>
</g>
<!-- Node31&#45;&gt;Node31 -->
<g id="edge64" class="edge">
<title>Node31&#45;&gt;Node31</title>
<path fill="none" stroke="midnightblue" d="M569.06,-51.86C564.81,-56.7 555.29,-60 540.5,-60 516.83,-60 506.66,-51.54 509.99,-41.86"/>
<polygon fill="midnightblue" stroke="midnightblue" points="572.53,-52.35 571.01,-41.86 565.66,-51.01 572.53,-52.35"/>
</g>
<!-- Node32&#45;&gt;Node11 -->
<g id="edge66" class="edge">
<title>Node32&#45;&gt;Node11</title>
<path fill="none" stroke="midnightblue" d="M453.52,-1047.69C444.86,-1045.59 436.23,-1043.35 428,-1041 399.7,-1032.93 368.78,-1022.06 343.5,-1012.6"/>
<polygon fill="midnightblue" stroke="midnightblue" points="452.76,-1051.1 463.3,-1050 454.37,-1044.29 452.76,-1051.1"/>
</g>
<!-- Node32&#45;&gt;Node12 -->
<g id="edge67" class="edge">
<title>Node32&#45;&gt;Node12</title>
<path fill="none" stroke="midnightblue" d="M444.03,-1066.92C414.61,-1067.51 382.92,-1068.15 356.05,-1068.69"/>
<polygon fill="midnightblue" stroke="midnightblue" points="444.4,-1070.41 454.33,-1066.71 444.26,-1063.42 444.4,-1070.41"/>
</g>
<!-- Node32&#45;&gt;Node32 -->
<g id="edge68" class="edge">
<title>Node32&#45;&gt;Node32</title>
<path fill="none" stroke="midnightblue" d="M570,-1090.46C566.34,-1095.18 556.5,-1098.5 540.5,-1098.5 514.24,-1098.5 504.6,-1089.56 511.57,-1080.16"/>
<polygon fill="midnightblue" stroke="midnightblue" points="573.47,-1089.95 569.43,-1080.16 566.48,-1090.34 573.47,-1089.95"/>
</g>
</g>
</svg>
