<?xml version="1.0" encoding="UTF-8" standalone="no"?>
<!DOCTYPE svg PUBLIC "-//W3C//DTD SVG 1.1//EN"
 "http://www.w3.org/Graphics/SVG/1.1/DTD/svg11.dtd">
<!-- Generated by graphviz version 2.49.3 (20211027.1534)
 -->
<!-- Title: timelogger Pages: 1 -->
<svg width="504pt" height="57pt"
 viewBox="0.00 0.00 504.36 57.00" xmlns="http://www.w3.org/2000/svg" xmlns:xlink="http://www.w3.org/1999/xlink">
<g id="graph0" class="graph" transform="scale(1 1) rotate(0) translate(4 53)">
<title>timelogger</title>
<polygon fill="white" stroke="transparent" points="-4,4 -4,-53 500.36,-53 500.36,4 -4,4"/>
<!-- Node1 -->
<g id="node1" class="node">
<title>Node1</title>
<g id="a_node1"><a xlink:title=" ">
<polygon fill="#bfbfbf" stroke="black" points="432,-6 432,-25 494,-25 494,-6 432,-6"/>
<text text-anchor="middle" x="463" y="-13" font-family="Helvetica,sans-Serif" font-size="10.00">timelogger</text>
</a>
</g>
</g>
<!-- Node1&#45;&gt;Node1 -->
<g id="edge5" class="edge">
<title>Node1&#45;&gt;Node1</title>
<path fill="none" stroke="midnightblue" d="M496.36,-33.39C495.87,-39.04 484.75,-43.5 463,-43.5 431.36,-43.5 422.22,-34.07 435.57,-25.26"/>
<polygon fill="midnightblue" stroke="midnightblue" points="499.15,-31.28 490.43,-25.26 493.49,-35.4 499.15,-31.28"/>
</g>
<!-- Node2 -->
<g id="node2" class="node">
<title>Node2</title>
<g id="a_node2"><a xlink:href="classrare_1_1components_1_1tabs_1_1games_1_1integrations_1_1ubisoft__group_1_1_ubi_get_info_worker.html#af7b7791c46880f0718ec315e290a9f28" target="_top" xlink:title=" ">
<polygon fill="white" stroke="black" points="171,-0.5 171,-30.5 396,-30.5 396,-0.5 171,-0.5"/>
<text text-anchor="start" x="179" y="-18.5" font-family="Helvetica,sans-Serif" font-size="10.00">rare.components.tabs.games.integrations.ubisoft</text>
<text text-anchor="middle" x="283.5" y="-7.5" font-family="Helvetica,sans-Serif" font-size="10.00">_group.UbiGetInfoWorker.run_real</text>
</a>
</g>
</g>
<!-- Node1&#45;&gt;Node2 -->
<g id="edge1" class="edge">
<title>Node1&#45;&gt;Node2</title>
<path fill="none" stroke="midnightblue" d="M421.62,-15.5C413.73,-15.5 405.11,-15.5 396.15,-15.5"/>
<polygon fill="midnightblue" stroke="midnightblue" points="421.89,-19 431.89,-15.5 421.89,-12 421.89,-19"/>
</g>
<!-- Node2&#45;&gt;Node2 -->
<g id="edge4" class="edge">
<title>Node2&#45;&gt;Node2</title>
<path fill="none" stroke="midnightblue" d="M315.13,-40.96C311.2,-45.68 300.66,-49 283.5,-49 255.34,-49 245,-40.06 252.48,-30.66"/>
<polygon fill="midnightblue" stroke="midnightblue" points="318.6,-40.44 314.52,-30.66 311.62,-40.85 318.6,-40.44"/>
</g>
<!-- Node3 -->
<g id="node3" class="node">
<title>Node3</title>
<g id="a_node3"><a xlink:href="classrare_1_1shared_1_1workers_1_1worker_1_1_worker.html#ad22709b2e67308af35f55680d5a026e0" target="_top" xlink:title=" ">
<polygon fill="white" stroke="black" points="0,-0.5 0,-30.5 135,-30.5 135,-0.5 0,-0.5"/>
<text text-anchor="start" x="8" y="-18.5" font-family="Helvetica,sans-Serif" font-size="10.00">rare.shared.workers.worker.</text>
<text text-anchor="middle" x="67.5" y="-7.5" font-family="Helvetica,sans-Serif" font-size="10.00">Worker.run</text>
</a>
</g>
</g>
<!-- Node2&#45;&gt;Node3 -->
<g id="edge2" class="edge">
<title>Node2&#45;&gt;Node3</title>
<path fill="none" stroke="midnightblue" d="M160.57,-15.5C151.9,-15.5 143.36,-15.5 135.19,-15.5"/>
<polygon fill="midnightblue" stroke="midnightblue" points="160.8,-19 170.8,-15.5 160.8,-12 160.8,-19"/>
</g>
<!-- Node3&#45;&gt;Node3 -->
<g id="edge3" class="edge">
<title>Node3&#45;&gt;Node3</title>
<path fill="none" stroke="midnightblue" d="M105.88,-40.96C101.12,-45.68 88.32,-49 67.5,-49 33.33,-49 20.78,-40.06 29.86,-30.66"/>
<polygon fill="midnightblue" stroke="midnightblue" points="109.35,-40.38 105.14,-30.66 102.37,-40.88 109.35,-40.38"/>
</g>
</g>
</svg>
