<?xml version="1.0" encoding="UTF-8" standalone="no"?>
<!DOCTYPE svg PUBLIC "-//W3C//DTD SVG 1.1//EN"
 "http://www.w3.org/Graphics/SVG/1.1/DTD/svg11.dtd">
<!-- Generated by graphviz version 2.49.3 (20211027.1534)
 -->
<!-- Title: format_size Pages: 1 -->
<!--zoomable 550 -->
<svg id="main" version="1.1" xmlns="http://www.w3.org/2000/svg" xmlns:xlink="http://www.w3.org/1999/xlink" xml:space="preserve" onload="init(evt)">
<style type="text/css"><![CDATA[
.edge:hover path { stroke: red; }
.edge:hover polygon { stroke: red; fill: red; }
]]></style>
<script type="text/javascript"><![CDATA[
var edges = document.getElementsByTagName('g');
if (edges && edges.length) {
  for (var i=0;i<edges.length;i++) {
    if (edges[i].id.substr(0,4)=='edge') {
      edges[i].setAttribute('class','edge');
    }
  }
}
]]></script>
        <defs>
                <circle id="rim" cx="0" cy="0" r="7"/>
                <circle id="rim2" cx="0" cy="0" r="3.5"/>
                <g id="zoomPlus">
                        <use xlink:href="#rim" fill="#404040">
                                <set attributeName="fill" to="#808080" begin="zoomplus.mouseover" end="zoomplus.mouseout"/>
                        </use>
                        <path d="M-4,0h8M0,-4v8" fill="none" stroke="white" stroke-width="1.5" pointer-events="none"/>
                </g>
                <g id="zoomMin">
                        <use xlink:href="#rim" fill="#404040">
                                <set attributeName="fill" to="#808080" begin="zoomminus.mouseover" end="zoomminus.mouseout"/>
                        </use>
                        <path d="M-4,0h8" fill="none" stroke="white" stroke-width="1.5" pointer-events="none"/>
                </g>
                <g id="dirArrow">
                        <path fill="none" stroke="white" stroke-width="1.5" d="M0,-3.0v7 M-2.5,-0.5L0,-3.0L2.5,-0.5"/>
                </g>
               <g id="resetDef">
                       <use xlink:href="#rim2" fill="#404040">
                               <set attributeName="fill" to="#808080" begin="reset.mouseover" end="reset.mouseout"/>
                       </use>
               </g>
        </defs>

<script type="text/javascript">
var viewWidth = 971;
var viewHeight = 550;
var sectionId = 'dynsection-3';
</script>
<script xlink:href="svgpan.js"/>
<svg id="graph" class="graph">
<g id="viewport">
<title>format_size</title>
<polygon fill="white" stroke="transparent" points="-4,4 -4,-546 967,-546 967,4 -4,4"/>
<!-- Node1 -->
<g id="node1" class="node">
<title>Node1</title>
<g id="a_node1"><a xlink:title=" ">
<polygon fill="#bfbfbf" stroke="black" points="896,-252 896,-271 963,-271 963,-252 896,-252"/>
<text text-anchor="middle" x="929.5" y="-259" font-family="Helvetica,sans-Serif" font-size="10.00">format_size</text>
</a>
</g>
</g>
<!-- Node1&#45;&gt;Node1 -->
<g id="edge5" class="edge">
<title>Node1&#45;&gt;Node1</title>
<path fill="none" stroke="midnightblue" d="M961.31,-279.77C960.4,-285.24 949.8,-289.5 929.5,-289.5 899.29,-289.5 890.55,-280.07 903.3,-271.26"/>
<polygon fill="midnightblue" stroke="midnightblue" points="964.13,-277.68 955.7,-271.26 958.28,-281.53 964.13,-277.68"/>
</g>
<!-- Node2 -->
<g id="node2" class="node">
<title>Node2</title>
<g id="a_node2"><a xlink:href="classrare_1_1components_1_1tabs_1_1settings_1_1rare_1_1_rare_settings.html#ac5aa04f27a40a5f6cfc0fc482f9f0dbd" target="_top" xlink:title=" ">
<polygon fill="white" stroke="black" points="676,-493.5 676,-523.5 843,-523.5 843,-493.5 676,-493.5"/>
<text text-anchor="start" x="684" y="-511.5" font-family="Helvetica,sans-Serif" font-size="10.00">rare.components.tabs.settings.rare.</text>
<text text-anchor="middle" x="759.5" y="-500.5" font-family="Helvetica,sans-Serif" font-size="10.00">RareSettings.clean_logdir</text>
</a>
</g>
</g>
<!-- Node1&#45;&gt;Node2 -->
<g id="edge1" class="edge">
<title>Node1&#45;&gt;Node2</title>
<path fill="none" stroke="midnightblue" d="M928.56,-281.4C927.55,-324.95 918.77,-429.23 860,-484.5 855.08,-489.13 849.43,-492.91 843.37,-495.99"/>
<polygon fill="midnightblue" stroke="midnightblue" points="932.06,-281.3 928.67,-271.26 925.06,-281.22 932.06,-281.3"/>
</g>
<!-- Node3 -->
<g id="node3" class="node">
<title>Node3</title>
<g id="a_node3"><a xlink:href="classrare_1_1components_1_1tabs_1_1settings_1_1legendary_1_1_legendary_settings.html#a32b74bd5634c682405bf46dedf7cd8dd" target="_top" xlink:title=" ">
<polygon fill="white" stroke="black" points="663.5,-426.5 663.5,-456.5 855.5,-456.5 855.5,-426.5 663.5,-426.5"/>
<text text-anchor="start" x="671.5" y="-444.5" font-family="Helvetica,sans-Serif" font-size="10.00">rare.components.tabs.settings.legendary.</text>
<text text-anchor="middle" x="759.5" y="-433.5" font-family="Helvetica,sans-Serif" font-size="10.00">LegendarySettings.clean_metadata</text>
</a>
</g>
</g>
<!-- Node1&#45;&gt;Node3 -->
<g id="edge3" class="edge">
<title>Node1&#45;&gt;Node3</title>
<path fill="none" stroke="midnightblue" d="M925.42,-281.51C919.22,-314.71 902.05,-381.05 860,-416.5 855.51,-420.29 850.52,-423.52 845.24,-426.26"/>
<polygon fill="midnightblue" stroke="midnightblue" points="928.94,-281.7 927.18,-271.25 922.04,-280.51 928.94,-281.7"/>
</g>
<!-- Node4 -->
<g id="node4" class="node">
<title>Node4</title>
<g id="a_node4"><a xlink:href="classrare_1_1components_1_1dialogs_1_1install__dialog_1_1_install_dialog.html#ab121fb1d6d20c37698c5002bd97fb5a2" target="_top" xlink:title=" ">
<polygon fill="white" stroke="black" points="685,-348 685,-389 834,-389 834,-348 685,-348"/>
<text text-anchor="start" x="693" y="-377" font-family="Helvetica,sans-Serif" font-size="10.00">rare.components.dialogs.install</text>
<text text-anchor="start" x="693" y="-366" font-family="Helvetica,sans-Serif" font-size="10.00">_dialog.InstallDialog.install</text>
<text text-anchor="middle" x="759.5" y="-355" font-family="Helvetica,sans-Serif" font-size="10.00">_dir_save_callback</text>
</a>
</g>
</g>
<!-- Node1&#45;&gt;Node4 -->
<g id="edge6" class="edge">
<title>Node1&#45;&gt;Node4</title>
<path fill="none" stroke="midnightblue" d="M916.69,-279.82C904.5,-297.32 883.92,-323.23 860,-338.5 852.02,-343.6 843.12,-347.87 834.03,-351.43"/>
<polygon fill="midnightblue" stroke="midnightblue" points="919.89,-281.33 922.57,-271.08 914.08,-277.42 919.89,-281.33"/>
</g>
<!-- Node6 -->
<g id="node6" class="node">
<title>Node6</title>
<g id="a_node6"><a xlink:href="classrare_1_1components_1_1tabs_1_1library_1_1details_1_1details_1_1_game_details.html#ab5496f80e54a69d968995df463181716" target="_top" xlink:title=" ">
<polygon fill="white" stroke="black" points="659,-280.5 659,-310.5 860,-310.5 860,-280.5 659,-280.5"/>
<text text-anchor="start" x="667" y="-298.5" font-family="Helvetica,sans-Serif" font-size="10.00">rare.components.tabs.library.details.details.</text>
<text text-anchor="middle" x="759.5" y="-287.5" font-family="Helvetica,sans-Serif" font-size="10.00">GameDetails.move_game</text>
</a>
</g>
</g>
<!-- Node1&#45;&gt;Node6 -->
<g id="edge10" class="edge">
<title>Node1&#45;&gt;Node6</title>
<path fill="none" stroke="midnightblue" d="M885.47,-270.21C870.07,-273.33 852.23,-276.94 834.94,-280.43"/>
<polygon fill="midnightblue" stroke="midnightblue" points="886.6,-273.55 895.71,-268.14 885.21,-266.69 886.6,-273.55"/>
</g>
<!-- Node9 -->
<g id="node9" class="node">
<title>Node9</title>
<g id="a_node9"><a xlink:href="classrare_1_1components_1_1dialogs_1_1install__dialog_1_1_install_dialog.html#a64dd35f139577016bc6417719d65d969" target="_top" xlink:title=" ">
<polygon fill="white" stroke="black" points="670,-213.5 670,-243.5 849,-243.5 849,-213.5 670,-213.5"/>
<text text-anchor="start" x="678" y="-231.5" font-family="Helvetica,sans-Serif" font-size="10.00">rare.components.dialogs.install</text>
<text text-anchor="middle" x="759.5" y="-220.5" font-family="Helvetica,sans-Serif" font-size="10.00">_dialog.InstallDialog.on_worker_result</text>
</a>
</g>
</g>
<!-- Node1&#45;&gt;Node9 -->
<g id="edge17" class="edge">
<title>Node1&#45;&gt;Node9</title>
<path fill="none" stroke="midnightblue" d="M885.82,-253.12C870.96,-250.2 853.81,-246.83 837.05,-243.54"/>
<polygon fill="midnightblue" stroke="midnightblue" points="885.22,-256.57 895.71,-255.06 886.57,-249.7 885.22,-256.57"/>
</g>
<!-- Node14 -->
<g id="node14" class="node">
<title>Node14</title>
<g id="a_node14"><a xlink:href="classrare_1_1components_1_1dialogs_1_1move__dialog_1_1_move_dialog.html#a1aff74b1226e0df9ac7a678f327f24c5" target="_top" xlink:title=" ">
<polygon fill="white" stroke="black" points="685.5,-135 685.5,-176 833.5,-176 833.5,-135 685.5,-135"/>
<text text-anchor="start" x="693.5" y="-164" font-family="Helvetica,sans-Serif" font-size="10.00">rare.components.dialogs.move</text>
<text text-anchor="start" x="693.5" y="-153" font-family="Helvetica,sans-Serif" font-size="10.00">_dialog.MoveDialog.path_edit</text>
<text text-anchor="middle" x="759.5" y="-142" font-family="Helvetica,sans-Serif" font-size="10.00">_callback</text>
</a>
</g>
</g>
<!-- Node1&#45;&gt;Node14 -->
<g id="edge28" class="edge">
<title>Node1&#45;&gt;Node14</title>
<path fill="none" stroke="midnightblue" d="M910.93,-244.89C897.6,-232.79 878.48,-216.5 860,-204.5 843.77,-193.96 824.95,-184.15 808.07,-176.11"/>
<polygon fill="midnightblue" stroke="midnightblue" points="908.7,-247.59 918.42,-251.8 913.45,-242.44 908.7,-247.59"/>
</g>
<!-- Node15 -->
<g id="node15" class="node">
<title>Node15</title>
<g id="a_node15"><a xlink:href="classrare_1_1shared_1_1workers_1_1wine__resolver_1_1_origin_wine_worker.html#af7b7791c46880f0718ec315e290a9f28" target="_top" xlink:title=" ">
<polygon fill="white" stroke="black" points="673,-67.5 673,-97.5 846,-97.5 846,-67.5 673,-67.5"/>
<text text-anchor="start" x="681" y="-85.5" font-family="Helvetica,sans-Serif" font-size="10.00">rare.shared.workers.wine</text>
<text text-anchor="middle" x="759.5" y="-74.5" font-family="Helvetica,sans-Serif" font-size="10.00">_resolver.OriginWineWorker.run_real</text>
</a>
</g>
</g>
<!-- Node1&#45;&gt;Node15 -->
<g id="edge30" class="edge">
<title>Node1&#45;&gt;Node15</title>
<path fill="none" stroke="midnightblue" d="M923.38,-242.15C914.81,-213.19 894.96,-158.47 860,-125.5 846.99,-113.23 829.94,-104.15 813.63,-97.58"/>
<polygon fill="midnightblue" stroke="midnightblue" points="920.04,-243.21 926.12,-251.88 926.78,-241.31 920.04,-243.21"/>
</g>
<!-- Node17 -->
<g id="node17" class="node">
<title>Node17</title>
<g id="a_node17"><a xlink:href="classrare_1_1components_1_1tabs_1_1downloads_1_1widgets_1_1_queue_info_widget.html#af2c556abce885baacdae5d5cc5f70d1b" target="_top" xlink:title=" ">
<polygon fill="white" stroke="black" points="661,-0.5 661,-30.5 858,-30.5 858,-0.5 661,-0.5"/>
<text text-anchor="start" x="669" y="-18.5" font-family="Helvetica,sans-Serif" font-size="10.00">rare.components.tabs.downloads.widgets.</text>
<text text-anchor="middle" x="759.5" y="-7.5" font-family="Helvetica,sans-Serif" font-size="10.00">QueueInfoWidget.update_information</text>
</a>
</g>
</g>
<!-- Node1&#45;&gt;Node17 -->
<g id="edge34" class="edge">
<title>Node1&#45;&gt;Node17</title>
<path fill="none" stroke="midnightblue" d="M927.13,-241.49C923.38,-201.5 909.58,-110.97 860,-57.5 848.91,-45.54 833.86,-36.86 818.83,-30.61"/>
<polygon fill="midnightblue" stroke="midnightblue" points="923.65,-241.88 927.96,-251.56 930.63,-241.31 923.65,-241.88"/>
</g>
<!-- Node2&#45;&gt;Node2 -->
<g id="edge2" class="edge">
<title>Node2&#45;&gt;Node2</title>
<path fill="none" stroke="midnightblue" d="M789.71,-533.96C785.96,-538.68 775.89,-542 759.5,-542 732.61,-542 722.73,-533.06 729.87,-523.66"/>
<polygon fill="midnightblue" stroke="midnightblue" points="793.18,-533.45 789.13,-523.66 786.19,-533.84 793.18,-533.45"/>
</g>
<!-- Node3&#45;&gt;Node3 -->
<g id="edge4" class="edge">
<title>Node3&#45;&gt;Node3</title>
<path fill="none" stroke="midnightblue" d="M789.71,-466.96C785.96,-471.68 775.89,-475 759.5,-475 732.61,-475 722.73,-466.06 729.87,-456.66"/>
<polygon fill="midnightblue" stroke="midnightblue" points="793.18,-466.45 789.13,-456.66 786.19,-466.84 793.18,-466.45"/>
</g>
<!-- Node4&#45;&gt;Node4 -->
<g id="edge7" class="edge">
<title>Node4&#45;&gt;Node4</title>
<path fill="none" stroke="midnightblue" d="M788.75,-399.36C784.4,-404.2 774.65,-407.5 759.5,-407.5 735.26,-407.5 724.85,-399.04 728.26,-389.36"/>
<polygon fill="midnightblue" stroke="midnightblue" points="792.22,-399.86 790.74,-389.36 785.35,-398.48 792.22,-399.86"/>
</g>
<!-- Node5 -->
<g id="node5" class="node">
<title>Node5</title>
<g id="a_node5"><a xlink:href="classrare_1_1components_1_1dialogs_1_1install__dialog_1_1_install_dialog.html#af997cabd23f14f71f7f87c986ccd582c" target="_top" xlink:title=" ">
<polygon fill="white" stroke="black" points="446,-353.5 446,-383.5 599,-383.5 599,-353.5 446,-353.5"/>
<text text-anchor="start" x="454" y="-371.5" font-family="Helvetica,sans-Serif" font-size="10.00">rare.components.dialogs.install</text>
<text text-anchor="middle" x="522.5" y="-360.5" font-family="Helvetica,sans-Serif" font-size="10.00">_dialog.InstallDialog.showEvent</text>
</a>
</g>
</g>
<!-- Node4&#45;&gt;Node5 -->
<g id="edge8" class="edge">
<title>Node4&#45;&gt;Node5</title>
<path fill="none" stroke="midnightblue" d="M674.76,-368.5C650.18,-368.5 623.44,-368.5 599.38,-368.5"/>
<polygon fill="midnightblue" stroke="midnightblue" points="674.79,-372 684.79,-368.5 674.79,-365 674.79,-372"/>
</g>
<!-- Node5&#45;&gt;Node5 -->
<g id="edge9" class="edge">
<title>Node5&#45;&gt;Node5</title>
<path fill="none" stroke="midnightblue" d="M564.82,-393.59C559.94,-398.51 545.83,-402 522.5,-402 485.16,-402 471.45,-393.06 481.37,-383.66"/>
<polygon fill="midnightblue" stroke="midnightblue" points="568.29,-393.17 563.63,-383.66 561.34,-394 568.29,-393.17"/>
</g>
<!-- Node6&#45;&gt;Node6 -->
<g id="edge11" class="edge">
<title>Node6&#45;&gt;Node6</title>
<path fill="none" stroke="midnightblue" d="M789.71,-320.96C785.96,-325.68 775.89,-329 759.5,-329 732.61,-329 722.73,-320.06 729.87,-310.66"/>
<polygon fill="midnightblue" stroke="midnightblue" points="793.18,-320.45 789.13,-310.66 786.19,-320.84 793.18,-320.45"/>
</g>
<!-- Node7 -->
<g id="node7" class="node">
<title>Node7</title>
<g id="a_node7"><a xlink:href="classrare_1_1components_1_1tabs_1_1library_1_1details_1_1details_1_1_game_details.html#ad98d231f7b0a60e8aa3b72120eebf843" target="_top" xlink:title=" ">
<polygon fill="white" stroke="black" points="422,-283.5 422,-313.5 623,-313.5 623,-283.5 422,-283.5"/>
<text text-anchor="start" x="430" y="-301.5" font-family="Helvetica,sans-Serif" font-size="10.00">rare.components.tabs.library.details.details.</text>
<text text-anchor="middle" x="522.5" y="-290.5" font-family="Helvetica,sans-Serif" font-size="10.00">GameDetails.verify_game</text>
</a>
</g>
</g>
<!-- Node6&#45;&gt;Node7 -->
<g id="edge12" class="edge">
<title>Node6&#45;&gt;Node7</title>
<path fill="none" stroke="midnightblue" d="M648.59,-296.9C640.16,-297.01 631.68,-297.12 623.32,-297.23"/>
<polygon fill="midnightblue" stroke="midnightblue" points="648.88,-300.4 658.84,-296.77 648.79,-293.4 648.88,-300.4"/>
</g>
<!-- Node7&#45;&gt;Node7 -->
<g id="edge16" class="edge">
<title>Node7&#45;&gt;Node7</title>
<path fill="none" stroke="midnightblue" d="M564.82,-323.59C559.94,-328.51 545.83,-332 522.5,-332 485.16,-332 471.45,-323.06 481.37,-313.66"/>
<polygon fill="midnightblue" stroke="midnightblue" points="568.29,-323.17 563.63,-313.66 561.34,-324 568.29,-323.17"/>
</g>
<!-- Node8 -->
<g id="node8" class="node">
<title>Node8</title>
<g id="a_node8"><a xlink:href="classrare_1_1components_1_1tabs_1_1library_1_1details_1_1details_1_1_game_details.html#a0c1ec5a8b5b81f2e8b0483bfd9330a81" target="_top" xlink:title=" ">
<polygon fill="white" stroke="black" points="185,-283.5 185,-313.5 386,-313.5 386,-283.5 185,-283.5"/>
<text text-anchor="start" x="193" y="-301.5" font-family="Helvetica,sans-Serif" font-size="10.00">rare.components.tabs.library.details.details.</text>
<text text-anchor="middle" x="285.5" y="-290.5" font-family="Helvetica,sans-Serif" font-size="10.00">GameDetails.repair_game</text>
</a>
</g>
</g>
<!-- Node7&#45;&gt;Node8 -->
<g id="edge13" class="edge">
<title>Node7&#45;&gt;Node8</title>
<path fill="none" stroke="midnightblue" d="M411.59,-291.76C403.16,-291.73 394.68,-291.75 386.32,-291.82"/>
<polygon fill="midnightblue" stroke="midnightblue" points="411.82,-295.26 421.84,-291.82 411.86,-288.26 411.82,-295.26"/>
</g>
<!-- Node8&#45;&gt;Node7 -->
<g id="edge15" class="edge">
<title>Node8&#45;&gt;Node7</title>
<path fill="none" stroke="midnightblue" d="M396.56,-305.24C405,-305.27 413.48,-305.25 421.84,-305.18"/>
<polygon fill="midnightblue" stroke="midnightblue" points="396.33,-301.74 386.32,-305.18 396.3,-308.74 396.33,-301.74"/>
</g>
<!-- Node8&#45;&gt;Node8 -->
<g id="edge14" class="edge">
<title>Node8&#45;&gt;Node8</title>
<path fill="none" stroke="midnightblue" d="M322.81,-323.96C318.18,-328.68 305.75,-332 285.5,-332 252.28,-332 240.08,-323.06 248.9,-313.66"/>
<polygon fill="midnightblue" stroke="midnightblue" points="326.28,-323.39 322.1,-313.66 319.3,-323.88 326.28,-323.39"/>
</g>
<!-- Node9&#45;&gt;Node9 -->
<g id="edge27" class="edge">
<title>Node9&#45;&gt;Node9</title>
<path fill="none" stroke="midnightblue" d="M789.71,-253.96C785.96,-258.68 775.89,-262 759.5,-262 732.61,-262 722.73,-253.06 729.87,-243.66"/>
<polygon fill="midnightblue" stroke="midnightblue" points="793.18,-253.45 789.13,-243.66 786.19,-253.84 793.18,-253.45"/>
</g>
<!-- Node10 -->
<g id="node10" class="node">
<title>Node10</title>
<g id="a_node10"><a xlink:href="classrare_1_1components_1_1dialogs_1_1install__dialog_1_1_install_dialog.html#aca780d78b993a295a93507a4a6d12a69" target="_top" xlink:title=" ">
<polygon fill="white" stroke="black" points="448,-205 448,-246 597,-246 597,-205 448,-205"/>
<text text-anchor="start" x="456" y="-234" font-family="Helvetica,sans-Serif" font-size="10.00">rare.components.dialogs.install</text>
<text text-anchor="start" x="456" y="-223" font-family="Helvetica,sans-Serif" font-size="10.00">_dialog.InstallDialog.get</text>
<text text-anchor="middle" x="522.5" y="-212" font-family="Helvetica,sans-Serif" font-size="10.00">_download_info</text>
</a>
</g>
</g>
<!-- Node9&#45;&gt;Node10 -->
<g id="edge18" class="edge">
<title>Node9&#45;&gt;Node10</title>
<path fill="none" stroke="midnightblue" d="M659.8,-227.24C638.89,-226.97 617.16,-226.7 597.36,-226.44"/>
<polygon fill="midnightblue" stroke="midnightblue" points="659.95,-230.74 669.99,-227.37 660.04,-223.74 659.95,-230.74"/>
</g>
<!-- Node10&#45;&gt;Node10 -->
<g id="edge26" class="edge">
<title>Node10&#45;&gt;Node10</title>
<path fill="none" stroke="midnightblue" d="M563.1,-256.36C557.06,-261.2 543.53,-264.5 522.5,-264.5 488.85,-264.5 474.39,-256.04 479.13,-246.36"/>
<polygon fill="midnightblue" stroke="midnightblue" points="566.57,-256.94 565.87,-246.36 559.83,-255.06 566.57,-256.94"/>
</g>
<!-- Node11 -->
<g id="node11" class="node">
<title>Node11</title>
<g id="a_node11"><a xlink:href="classrare_1_1components_1_1dialogs_1_1install__dialog_1_1_install_dialog.html#a91c6c5717fad488963fe42e9bc046c11" target="_top" xlink:title=" ">
<polygon fill="white" stroke="black" points="201.5,-213.5 201.5,-243.5 369.5,-243.5 369.5,-213.5 201.5,-213.5"/>
<text text-anchor="start" x="209.5" y="-231.5" font-family="Helvetica,sans-Serif" font-size="10.00">rare.components.dialogs.install</text>
<text text-anchor="middle" x="285.5" y="-220.5" font-family="Helvetica,sans-Serif" font-size="10.00">_dialog.InstallDialog.action_handler</text>
</a>
</g>
</g>
<!-- Node10&#45;&gt;Node11 -->
<g id="edge19" class="edge">
<title>Node10&#45;&gt;Node11</title>
<path fill="none" stroke="midnightblue" d="M437.77,-226.57C415.68,-226.85 391.85,-227.16 369.78,-227.44"/>
<polygon fill="midnightblue" stroke="midnightblue" points="437.83,-230.07 447.79,-226.44 437.75,-223.07 437.83,-230.07"/>
</g>
<!-- Node13 -->
<g id="node13" class="node">
<title>Node13</title>
<g id="a_node13"><a xlink:href="classrare_1_1components_1_1dialogs_1_1install__dialog_1_1_install_dialog.html#aa902973791e81c8c4542da337b86289b" target="_top" xlink:title=" ">
<polygon fill="white" stroke="black" points="0,-169.5 0,-199.5 149,-199.5 149,-169.5 0,-169.5"/>
<text text-anchor="start" x="8" y="-187.5" font-family="Helvetica,sans-Serif" font-size="10.00">rare.components.dialogs.install</text>
<text text-anchor="middle" x="74.5" y="-176.5" font-family="Helvetica,sans-Serif" font-size="10.00">_dialog.InstallDialog.execute</text>
</a>
</g>
</g>
<!-- Node10&#45;&gt;Node13 -->
<g id="edge25" class="edge">
<title>Node10&#45;&gt;Node13</title>
<path fill="none" stroke="midnightblue" d="M437.85,-211.34C420.73,-208.78 402.81,-206.34 386,-204.5 305.19,-195.65 212.08,-190.3 149.06,-187.38"/>
<polygon fill="midnightblue" stroke="midnightblue" points="437.41,-214.81 447.82,-212.86 438.46,-207.89 437.41,-214.81"/>
</g>
<!-- Node11&#45;&gt;Node11 -->
<g id="edge22" class="edge">
<title>Node11&#45;&gt;Node11</title>
<path fill="none" stroke="midnightblue" d="M322.81,-253.96C318.18,-258.68 305.75,-262 285.5,-262 252.28,-262 240.08,-253.06 248.9,-243.66"/>
<polygon fill="midnightblue" stroke="midnightblue" points="326.28,-253.39 322.1,-243.66 319.3,-253.88 326.28,-253.39"/>
</g>
<!-- Node12 -->
<g id="node12" class="node">
<title>Node12</title>
<g id="a_node12"><a xlink:href="classrare_1_1widgets_1_1dialogs_1_1_action_dialog.html#a10c562aecba2dac76244db2a3ffd290d" target="_top" xlink:title=" ">
<polygon fill="white" stroke="black" points="8.5,-236.5 8.5,-266.5 140.5,-266.5 140.5,-236.5 8.5,-236.5"/>
<text text-anchor="start" x="16.5" y="-254.5" font-family="Helvetica,sans-Serif" font-size="10.00">rare.widgets.dialogs.Action</text>
<text text-anchor="middle" x="74.5" y="-243.5" font-family="Helvetica,sans-Serif" font-size="10.00">Dialog.action</text>
</a>
</g>
</g>
<!-- Node11&#45;&gt;Node12 -->
<g id="edge20" class="edge">
<title>Node11&#45;&gt;Node12</title>
<path fill="none" stroke="midnightblue" d="M191.31,-238.76C174.23,-240.63 156.75,-242.56 140.71,-244.32"/>
<polygon fill="midnightblue" stroke="midnightblue" points="191.74,-242.23 201.3,-237.66 190.97,-235.27 191.74,-242.23"/>
</g>
<!-- Node11&#45;&gt;Node13 -->
<g id="edge23" class="edge">
<title>Node11&#45;&gt;Node13</title>
<path fill="none" stroke="midnightblue" d="M203.25,-211.39C184.65,-207.48 165.02,-203.35 146.87,-199.53"/>
<polygon fill="midnightblue" stroke="midnightblue" points="202.65,-214.85 213.16,-213.48 204.09,-208 202.65,-214.85"/>
</g>
<!-- Node12&#45;&gt;Node12 -->
<g id="edge21" class="edge">
<title>Node12&#45;&gt;Node12</title>
<path fill="none" stroke="midnightblue" d="M111.81,-276.96C107.18,-281.68 94.75,-285 74.5,-285 41.28,-285 29.08,-276.06 37.9,-266.66"/>
<polygon fill="midnightblue" stroke="midnightblue" points="115.28,-276.39 111.1,-266.66 108.3,-276.88 115.28,-276.39"/>
</g>
<!-- Node13&#45;&gt;Node13 -->
<g id="edge24" class="edge">
<title>Node13&#45;&gt;Node13</title>
<path fill="none" stroke="midnightblue" d="M111.81,-209.96C107.18,-214.68 94.75,-218 74.5,-218 41.28,-218 29.08,-209.06 37.9,-199.66"/>
<polygon fill="midnightblue" stroke="midnightblue" points="115.28,-209.39 111.1,-199.66 108.3,-209.88 115.28,-209.39"/>
</g>
<!-- Node14&#45;&gt;Node14 -->
<g id="edge29" class="edge">
<title>Node14&#45;&gt;Node14</title>
<path fill="none" stroke="midnightblue" d="M788.75,-186.36C784.4,-191.2 774.65,-194.5 759.5,-194.5 735.26,-194.5 724.85,-186.04 728.26,-176.36"/>
<polygon fill="midnightblue" stroke="midnightblue" points="792.22,-186.86 790.74,-176.36 785.35,-185.48 792.22,-186.86"/>
</g>
<!-- Node15&#45;&gt;Node15 -->
<g id="edge33" class="edge">
<title>Node15&#45;&gt;Node15</title>
<path fill="none" stroke="midnightblue" d="M789.71,-107.96C785.96,-112.68 775.89,-116 759.5,-116 732.61,-116 722.73,-107.06 729.87,-97.66"/>
<polygon fill="midnightblue" stroke="midnightblue" points="793.18,-107.45 789.13,-97.66 786.19,-107.84 793.18,-107.45"/>
</g>
<!-- Node16 -->
<g id="node16" class="node">
<title>Node16</title>
<g id="a_node16"><a xlink:href="classrare_1_1shared_1_1workers_1_1worker_1_1_worker.html#ad22709b2e67308af35f55680d5a026e0" target="_top" xlink:title=" ">
<polygon fill="white" stroke="black" points="455,-67.5 455,-97.5 590,-97.5 590,-67.5 455,-67.5"/>
<text text-anchor="start" x="463" y="-85.5" font-family="Helvetica,sans-Serif" font-size="10.00">rare.shared.workers.worker.</text>
<text text-anchor="middle" x="522.5" y="-74.5" font-family="Helvetica,sans-Serif" font-size="10.00">Worker.run</text>
</a>
</g>
</g>
<!-- Node15&#45;&gt;Node16 -->
<g id="edge31" class="edge">
<title>Node15&#45;&gt;Node16</title>
<path fill="none" stroke="midnightblue" d="M662.98,-82.5C638.54,-82.5 612.79,-82.5 590.15,-82.5"/>
<polygon fill="midnightblue" stroke="midnightblue" points="662.99,-86 672.99,-82.5 662.99,-79 662.99,-86"/>
</g>
<!-- Node16&#45;&gt;Node16 -->
<g id="edge32" class="edge">
<title>Node16&#45;&gt;Node16</title>
<path fill="none" stroke="midnightblue" d="M564.82,-107.59C559.94,-112.51 545.83,-116 522.5,-116 485.16,-116 471.45,-107.06 481.37,-97.66"/>
<polygon fill="midnightblue" stroke="midnightblue" points="568.29,-107.17 563.63,-97.66 561.34,-108 568.29,-107.17"/>
</g>
<!-- Node17&#45;&gt;Node17 -->
<g id="edge35" class="edge">
<title>Node17&#45;&gt;Node17</title>
<path fill="none" stroke="midnightblue" d="M789.71,-40.96C785.96,-45.68 775.89,-49 759.5,-49 732.61,-49 722.73,-40.06 729.87,-30.66"/>
<polygon fill="midnightblue" stroke="midnightblue" points="793.18,-40.45 789.13,-30.66 786.19,-40.84 793.18,-40.45"/>
</g>
</g>
</svg>
        <g id="navigator" transform="translate(0 0)" fill="#404254">
                <rect fill="#f2f5e9" fill-opacity="0.5" stroke="#606060" stroke-width=".5" x="0" y="0" width="60" height="60"/>
                <use id="zoomplus" xlink:href="#zoomPlus" x="17" y="9" onmousedown="handleZoom(evt,'in')"/>
                <use id="zoomminus" xlink:href="#zoomMin" x="42" y="9" onmousedown="handleZoom(evt,'out')"/>
                <use id="reset" xlink:href="#resetDef" x="30" y="36" onmousedown="handleReset()"/>
                <g id="arrowUp" xlink:href="#dirArrow" transform="translate(30 24)" onmousedown="handlePan(0,-1)">
                  <use xlink:href="#rim" fill="#404040">
                        <set attributeName="fill" to="#808080" begin="arrowUp.mouseover" end="arrowUp.mouseout"/>
                  </use>
                  <path fill="none" stroke="white" stroke-width="1.5" d="M0,-3.0v7 M-2.5,-0.5L0,-3.0L2.5,-0.5"/>
                </g>
                <g id="arrowRight" xlink:href="#dirArrow" transform="rotate(90) translate(36 -43)" onmousedown="handlePan(1,0)">
                  <use xlink:href="#rim" fill="#404040">
                        <set attributeName="fill" to="#808080" begin="arrowRight.mouseover" end="arrowRight.mouseout"/>
                  </use>
                  <path fill="none" stroke="white" stroke-width="1.5" d="M0,-3.0v7 M-2.5,-0.5L0,-3.0L2.5,-0.5"/>
                </g>
                <g id="arrowDown" xlink:href="#dirArrow" transform="rotate(180) translate(-30 -48)" onmousedown="handlePan(0,1)">
                  <use xlink:href="#rim" fill="#404040">
                        <set attributeName="fill" to="#808080" begin="arrowDown.mouseover" end="arrowDown.mouseout"/>
                  </use>
                  <path fill="none" stroke="white" stroke-width="1.5" d="M0,-3.0v7 M-2.5,-0.5L0,-3.0L2.5,-0.5"/>
                </g>
                <g id="arrowLeft" xlink:href="#dirArrow" transform="rotate(270) translate(-36 17)" onmousedown="handlePan(-1,0)">
                  <use xlink:href="#rim" fill="#404040">
                        <set attributeName="fill" to="#808080" begin="arrowLeft.mouseover" end="arrowLeft.mouseout"/>
                  </use>
                  <path fill="none" stroke="white" stroke-width="1.5" d="M0,-3.0v7 M-2.5,-0.5L0,-3.0L2.5,-0.5"/>
                </g>
        </g>
        <svg viewBox="0 0 15 15" width="100%" height="30px" preserveAspectRatio="xMaxYMin meet">
         <g id="arrow_out" transform="scale(0.3 0.3)">
          <a xlink:href="namespacerare_1_1utils_1_1misc_a3544b31f50ff739b7e8bb4ab751026b7_icgraph_org.svg" target="_base">
           <rect id="button" ry="5" rx="5" y="6" x="6" height="38" width="38"
                fill="#f2f5e9" fill-opacity="0.5" stroke="#606060" stroke-width="1.0"/>
           <path id="arrow"
             d="M 11.500037,31.436501 C 11.940474,20.09759 22.043105,11.32322 32.158766,21.979434 L 37.068811,17.246167 C 37.068811,17.246167 37.088388,32 37.088388,32 L 22.160133,31.978069 C 22.160133,31.978069 26.997745,27.140456 26.997745,27.140456 C 18.528582,18.264221 13.291696,25.230495 11.500037,31.436501 z"
             style="fill:#404040;"/>
          </a>
         </g>
        </svg>
</svg>
