<?xml version="1.0" encoding="UTF-8" standalone="no"?>
<!DOCTYPE svg PUBLIC "-//W3C//DTD SVG 1.1//EN"
 "http://www.w3.org/Graphics/SVG/1.1/DTD/svg11.dtd">
<!-- Generated by graphviz version 2.49.3 (20211027.1534)
 -->
<!-- Title: get_game_params Pages: 1 -->
<svg width="230pt" height="46pt"
 viewBox="0.00 0.00 230.00 46.00" xmlns="http://www.w3.org/2000/svg" xmlns:xlink="http://www.w3.org/1999/xlink">
<g id="graph0" class="graph" transform="scale(1 1) rotate(0) translate(4 42)">
<title>get_game_params</title>
<polygon fill="white" stroke="transparent" points="-4,4 -4,-42 226,-42 226,4 -4,4"/>
<!-- Node1 -->
<g id="node1" class="node">
<title>Node1</title>
<g id="a_node1"><a xlink:title=" ">
<polygon fill="#bfbfbf" stroke="black" points="0,-0.5 0,-19.5 97,-19.5 97,-0.5 0,-0.5"/>
<text text-anchor="middle" x="48.5" y="-7.5" font-family="Helvetica,sans-Serif" font-size="10.00">get_game_params</text>
</a>
</g>
</g>
<!-- Node1&#45;&gt;Node1 -->
<g id="edge1" class="edge">
<title>Node1&#45;&gt;Node1</title>
<path fill="none" stroke="midnightblue" d="M28.77,-19.76C19.17,-28.57 25.75,-38 48.5,-38 63.07,-38 71.01,-34.13 72.31,-29.03"/>
<polygon fill="midnightblue" stroke="midnightblue" points="75.46,-27.5 68.23,-19.76 69.05,-30.32 75.46,-27.5"/>
</g>
<!-- Node2 -->
<g id="node2" class="node">
<title>Node2</title>
<g id="a_node2"><a xlink:href="namespacerare_1_1commands_1_1launcher_1_1lgd__helper.html#a1143cdeef4568dea440a5f8f5aa9ddb2" target="_top" xlink:title=" ">
<polygon fill="white" stroke="black" points="133,-0.5 133,-19.5 222,-19.5 222,-0.5 133,-0.5"/>
<text text-anchor="middle" x="177.5" y="-7.5" font-family="Helvetica,sans-Serif" font-size="10.00">prepare_process</text>
</a>
</g>
</g>
<!-- Node1&#45;&gt;Node2 -->
<g id="edge2" class="edge">
<title>Node1&#45;&gt;Node2</title>
<path fill="none" stroke="midnightblue" d="M97.15,-10C105.46,-10 114.15,-10 122.61,-10"/>
<polygon fill="midnightblue" stroke="midnightblue" points="122.77,-13.5 132.77,-10 122.77,-6.5 122.77,-13.5"/>
</g>
<!-- Node2&#45;&gt;Node2 -->
<g id="edge3" class="edge">
<title>Node2&#45;&gt;Node2</title>
<path fill="none" stroke="midnightblue" d="M157.77,-19.76C148.17,-28.57 154.75,-38 177.5,-38 192.07,-38 200.01,-34.13 201.31,-29.03"/>
<polygon fill="midnightblue" stroke="midnightblue" points="204.46,-27.5 197.23,-19.76 198.05,-30.32 204.46,-27.5"/>
</g>
</g>
</svg>
