<?xml version="1.0" encoding="UTF-8" standalone="no"?>
<!DOCTYPE svg PUBLIC "-//W3C//DTD SVG 1.1//EN"
 "http://www.w3.org/Graphics/SVG/1.1/DTD/svg11.dtd">
<!-- Generated by graphviz version 2.49.3 (20211027.1534)
 -->
<!-- Title: save_proton_compatdata Pages: 1 -->
<svg width="477pt" height="102pt"
 viewBox="0.00 0.00 477.00 102.00" xmlns="http://www.w3.org/2000/svg" xmlns:xlink="http://www.w3.org/1999/xlink">
<g id="graph0" class="graph" transform="scale(1 1) rotate(0) translate(4 98)">
<title>save_proton_compatdata</title>
<polygon fill="white" stroke="transparent" points="-4,4 -4,-98 473,-98 473,4 -4,4"/>
<!-- Node1 -->
<g id="node1" class="node">
<title>Node1</title>
<g id="a_node1"><a xlink:title=" ">
<polygon fill="#bfbfbf" stroke="black" points="0,-28.5 0,-47.5 126,-47.5 126,-28.5 0,-28.5"/>
<text text-anchor="middle" x="63" y="-35.5" font-family="Helvetica,sans-Serif" font-size="10.00">save_proton_compatdata</text>
</a>
</g>
</g>
<!-- Node1&#45;&gt;Node1 -->
<g id="edge11" class="edge">
<title>Node1&#45;&gt;Node1</title>
<path fill="none" stroke="midnightblue" d="M42.35,-47.76C32.3,-56.57 39.18,-66 63,-66 78.26,-66 86.57,-62.13 87.93,-57.03"/>
<polygon fill="midnightblue" stroke="midnightblue" points="91.02,-55.37 83.65,-47.76 84.66,-58.3 91.02,-55.37"/>
</g>
<!-- Node2 -->
<g id="node2" class="node">
<title>Node2</title>
<g id="a_node2"><a xlink:href="namespacerare_1_1utils_1_1config__helper.html#abb61ad01d47ef603ef23d607d4e6de35" target="_top" xlink:title=" ">
<polygon fill="white" stroke="black" points="162,-28.5 162,-47.5 234,-47.5 234,-28.5 162,-28.5"/>
<text text-anchor="middle" x="198" y="-35.5" font-family="Helvetica,sans-Serif" font-size="10.00">save_envvar</text>
</a>
</g>
</g>
<!-- Node1&#45;&gt;Node2 -->
<g id="edge1" class="edge">
<title>Node1&#45;&gt;Node2</title>
<path fill="none" stroke="midnightblue" d="M126.22,-38C134.77,-38 143.42,-38 151.6,-38"/>
<polygon fill="midnightblue" stroke="midnightblue" points="151.66,-41.5 161.66,-38 151.66,-34.5 151.66,-41.5"/>
</g>
<!-- Node2&#45;&gt;Node2 -->
<g id="edge6" class="edge">
<title>Node2&#45;&gt;Node2</title>
<path fill="none" stroke="midnightblue" d="M180.74,-47.76C172.34,-56.57 178.09,-66 198,-66 210.44,-66 217.35,-62.31 218.74,-57.4"/>
<polygon fill="midnightblue" stroke="midnightblue" points="221.95,-55.98 215.26,-47.76 215.36,-58.35 221.95,-55.98"/>
</g>
<!-- Node3 -->
<g id="node3" class="node">
<title>Node3</title>
<g id="a_node3"><a xlink:href="namespacerare_1_1utils_1_1config__helper.html#a16e3dc3b4659116dec694e9463110d8c" target="_top" xlink:title=" ">
<polygon fill="white" stroke="black" points="270,-56.5 270,-75.5 353,-75.5 353,-56.5 270,-56.5"/>
<text text-anchor="middle" x="311.5" y="-63.5" font-family="Helvetica,sans-Serif" font-size="10.00">remove_envvar</text>
</a>
</g>
</g>
<!-- Node2&#45;&gt;Node3 -->
<g id="edge2" class="edge">
<title>Node2&#45;&gt;Node3</title>
<path fill="none" stroke="midnightblue" d="M234.28,-46.86C243.28,-49.12 253.1,-51.59 262.61,-53.97"/>
<polygon fill="midnightblue" stroke="midnightblue" points="261.81,-57.38 272.36,-56.42 263.52,-50.59 261.81,-57.38"/>
</g>
<!-- Node5 -->
<g id="node5" class="node">
<title>Node5</title>
<g id="a_node5"><a xlink:href="namespacerare_1_1utils_1_1config__helper.html#afb11223556320d6455409421029ae307" target="_top" xlink:title=" ">
<polygon fill="white" stroke="black" points="279,-0.5 279,-19.5 344,-19.5 344,-0.5 279,-0.5"/>
<text text-anchor="middle" x="311.5" y="-7.5" font-family="Helvetica,sans-Serif" font-size="10.00">set_envvar</text>
</a>
</g>
</g>
<!-- Node2&#45;&gt;Node5 -->
<g id="edge7" class="edge">
<title>Node2&#45;&gt;Node5</title>
<path fill="none" stroke="midnightblue" d="M234.28,-29.14C245.33,-26.36 257.63,-23.28 269.07,-20.4"/>
<polygon fill="midnightblue" stroke="midnightblue" points="270,-23.78 278.85,-17.95 268.3,-16.99 270,-23.78"/>
</g>
<!-- Node3&#45;&gt;Node3 -->
<g id="edge3" class="edge">
<title>Node3&#45;&gt;Node3</title>
<path fill="none" stroke="midnightblue" d="M294.24,-75.76C285.84,-84.57 291.59,-94 311.5,-94 323.94,-94 330.85,-90.31 332.24,-85.4"/>
<polygon fill="midnightblue" stroke="midnightblue" points="335.45,-83.98 328.76,-75.76 328.86,-86.35 335.45,-83.98"/>
</g>
<!-- Node4 -->
<g id="node4" class="node">
<title>Node4</title>
<g id="a_node4"><a xlink:href="namespacerare_1_1utils_1_1config__helper.html#a9ec9617d16f101878b16aa325a3231f1" target="_top" xlink:title=" ">
<polygon fill="white" stroke="black" points="389,-56.5 389,-75.5 469,-75.5 469,-56.5 389,-56.5"/>
<text text-anchor="middle" x="429" y="-63.5" font-family="Helvetica,sans-Serif" font-size="10.00">remove_option</text>
</a>
</g>
</g>
<!-- Node3&#45;&gt;Node4 -->
<g id="edge4" class="edge">
<title>Node3&#45;&gt;Node4</title>
<path fill="none" stroke="midnightblue" d="M353.22,-66C361.44,-66 370.16,-66 378.64,-66"/>
<polygon fill="midnightblue" stroke="midnightblue" points="378.81,-69.5 388.81,-66 378.81,-62.5 378.81,-69.5"/>
</g>
<!-- Node4&#45;&gt;Node4 -->
<g id="edge5" class="edge">
<title>Node4&#45;&gt;Node4</title>
<path fill="none" stroke="midnightblue" d="M411.12,-75.76C402.42,-84.57 408.38,-94 429,-94 441.89,-94 449.05,-90.31 450.48,-85.4"/>
<polygon fill="midnightblue" stroke="midnightblue" points="453.66,-83.9 446.88,-75.76 447.1,-86.35 453.66,-83.9"/>
</g>
<!-- Node5&#45;&gt;Node5 -->
<g id="edge8" class="edge">
<title>Node5&#45;&gt;Node5</title>
<path fill="none" stroke="midnightblue" d="M294.24,-19.76C285.84,-28.57 291.59,-38 311.5,-38 323.94,-38 330.85,-34.31 332.24,-29.4"/>
<polygon fill="midnightblue" stroke="midnightblue" points="335.45,-27.98 328.76,-19.76 328.86,-30.35 335.45,-27.98"/>
</g>
<!-- Node6 -->
<g id="node6" class="node">
<title>Node6</title>
<g id="a_node6"><a xlink:href="namespacerare_1_1utils_1_1config__helper.html#a0a3960476587413425d900834d8377ca" target="_top" xlink:title=" ">
<polygon fill="white" stroke="black" points="398,-0.5 398,-19.5 460,-19.5 460,-0.5 398,-0.5"/>
<text text-anchor="middle" x="429" y="-7.5" font-family="Helvetica,sans-Serif" font-size="10.00">set_option</text>
</a>
</g>
</g>
<!-- Node5&#45;&gt;Node6 -->
<g id="edge9" class="edge">
<title>Node5&#45;&gt;Node6</title>
<path fill="none" stroke="midnightblue" d="M344.06,-10C357.5,-10 373.33,-10 387.61,-10"/>
<polygon fill="midnightblue" stroke="midnightblue" points="387.67,-13.5 397.67,-10 387.67,-6.5 387.67,-13.5"/>
</g>
<!-- Node6&#45;&gt;Node6 -->
<g id="edge10" class="edge">
<title>Node6&#45;&gt;Node6</title>
<path fill="none" stroke="midnightblue" d="M411.12,-19.76C402.42,-28.57 408.38,-38 429,-38 441.89,-38 449.05,-34.31 450.48,-29.4"/>
<polygon fill="midnightblue" stroke="midnightblue" points="453.66,-27.9 446.88,-19.76 447.1,-30.35 453.66,-27.9"/>
</g>
</g>
</svg>
